
CASCADE Topology V1, (c) Matra-Datavision
Locations 29
1
1.000000000000000 0.000000000000000 0.000000000000000 0.000000000000000 
0.000000000000000 1.000000000000000 0.000000000000000 0.000000000000000 
0.000000000000000 0.000000000000000 1.000000000000000 0.000000000000000 
1
1.000000000000000 0.000000000000000 0.000000000000000 0.000000000000000 
0.000000000000000 0.000000000000000 -1.000000000000000 0.000000000000000 
0.000000000000000 1.000000000000000 0.000000000000000 0.000000000000000 
1
1.000000000000000 0.000000000000000 0.000000000000000 0.000000000000000 
0.000000000000000 1.000000000000000 0.000000000000000 0.000000000000000 
0.000000000000000 0.000000000000000 1.000000000000000 0.000000000000000 
1
1.000000000000000 0.000000000000000 0.000000000000000 0.000000000000000 
0.000000000000000 1.000000000000000 0.000000000000000 0.000000000000000 
0.000000000000000 0.000000000000000 1.000000000000000 0.000000000000000 
1
1.000000000000000 0.000000000000000 0.000000000000000 0.000000000000000 
0.000000000000000 1.000000000000000 0.000000000000000 0.000000000000000 
0.000000000000000 0.000000000000000 1.000000000000000 0.000000000000000 
1
1.000000000000000 0.000000000000000 0.000000000000000 0.000000000000000 
0.000000000000000 1.000000000000000 0.000000000000000 0.000000000000000 
0.000000000000000 0.000000000000000 1.000000000000000 0.000000000000000 
1
1.000000000000000 0.000000000000000 0.000000000000000 0.000000000000000 
0.000000000000000 1.000000000000000 0.000000000000000 0.000000000000000 
0.000000000000000 0.000000000000000 1.000000000000000 0.000000000000000 
1
1.000000000000000 0.000000000000000 0.000000000000000 0.000000000000000 
0.000000000000000 1.000000000000000 0.000000000000000 0.000000000000000 
0.000000000000000 0.000000000000000 1.000000000000000 0.000000000000000 
1
1.000000000000000 0.000000000000000 0.000000000000000 0.000000000000000 
0.000000000000000 1.000000000000000 0.000000000000000 0.000000000000000 
0.000000000000000 0.000000000000000 1.000000000000000 0.000000000000000 
1
1.000000000000000 0.000000000000000 0.000000000000000 -0.000000000000000 
0.000000000000000 1.000000000000000 0.000000000000000 -60.000000000000000 
0.000000000000000 0.000000000000000 1.000000000000000 0.000000000000013 
2  1 1 2 1 3 1 4 1 5 1 6 1 7 1 8 1 9 -1 10 1 0
1
1.000000000000000 0.000000000000000 0.000000000000000 0.000000000000000 
0.000000000000000 1.000000000000000 0.000000000000000 120.000000000000000 
0.000000000000000 0.000000000000000 1.000000000000000 -0.000000000000026 
2  1 1 2 1 3 1 4 1 5 1 6 1 7 1 8 1 9 -1 10 1 12 1 0
1
1.000000000000000 0.000000000000000 0.000000000000000 0.000000000000000 
0.000000000000000 1.000000000000000 0.000000000000000 0.000000000000000 
0.000000000000000 0.000000000000000 1.000000000000000 0.000000000000000 
1
1.000000000000000 0.000000000000000 0.000000000000000 0.000000000000000 
0.000000000000000 0.000000000000000 -1.000000000000000 0.000000000000000 
0.000000000000000 1.000000000000000 0.000000000000000 0.000000000000000 
1
1.000000000000000 0.000000000000000 0.000000000000000 0.000000000000000 
0.000000000000000 -0.000000000000000 -1.000000000000000 0.000000000000000 
0.000000000000000 1.000000000000000 -0.000000000000000 0.000000000000000 
1
1.000000000000000 0.000000000000000 0.000000000000000 0.000000000000000 
0.000000000000000 1.000000000000000 0.000000000000000 0.000000000000000 
0.000000000000000 0.000000000000000 1.000000000000000 0.000000000000000 
2  14 1 15 1 16 -1 17 1 1 1 2 1 3 1 4 1 5 1 6 1 7 1 8 1 9 -1 10 1 0
2  10 -1 9 1 8 -1 7 -1 6 -1 5 -1 4 -1 3 -1 2 -1 1 -1 17 -1 16 1 15 -1 14 -1 0
2  12 -1 10 -1 9 1 8 -1 7 -1 6 -1 5 -1 4 -1 3 -1 2 -1 1 -1 17 -1 16 1 15 -1 14 -1 0
2  17 -1 16 1 15 -1 14 -1 0
2  14 1 15 1 16 -1 17 1 1 1 2 1 3 1 4 1 5 1 6 1 7 1 8 1 9 -1 10 1 12 1 0
2  16 -1 17 1 0
2  10 -1 9 1 8 -1 7 -1 6 -1 5 -1 4 -1 3 -1 2 -1 1 -1 0
2  12 -1 10 -1 9 1 8 -1 7 -1 6 -1 5 -1 4 -1 3 -1 2 -1 1 -1 0
2  16 -1 17 1 1 1 2 1 3 1 4 1 5 1 6 1 7 1 8 1 9 -1 10 1 0
2  17 -1 16 1 0
2  14 1 15 1 16 -1 17 1 0
2  16 -1 17 1 1 1 2 1 3 1 4 1 5 1 6 1 7 1 8 1 9 -1 10 1 12 1 0
Curve2ds 52
1 0.00000000000000000 0.00000000000000000 0.00000000000000000 -1.00000000000000000 
1 0.00000000000000000 0.00000000000000000 0.00000000000000000 -1.00000000000000000 
1 -0.00000000000000100 0.00000000000000000 0.00000000000000000 -1.00000000000000000 
1 23.39999999999999858 0.00000000000000000 0.00000000000000000 -1.00000000000000000 
1 -1.00000000000000000 0.00000000000000000 1.00000000000000000 0.00000000000000000 
1 -1.00000000000000000 -120.00000000000000000 1.00000000000000000 0.00000000000000000 
1 1.57079632679489589 0.00000000000000000 0.00000000000000000 -1.00000000000000000 
1 0.00000000000000000 -0.00000000000000000 1.00000000000000000 0.00000000000000000 
2 -6.83828125000251763 16.56171874999748184 -1.00000000000000000 0.00000000000000000 0.00000000000000000 1.00000000000000000 1.00000000000000000
1 0.00000000000000000 0.00000000000000000 1.00000000000000000 0.00000000000000000 
1 0.00000000000000000 -120.00000000000000000 1.00000000000000000 0.00000000000000000 
1 1.57079632679489700 0.00000000000000000 0.00000000000000000 -1.00000000000000000 
1 0.00000000000000000 0.00000000000000000 -0.00000000000000022 -1.00000000000000000 
1 0.00000000000000089 0.00000000000000000 1.00000000000000000 0.00000000000000000 
2 -6.83828125000251763 -6.83828125000251763 -1.00000000000000000 0.00000000000000000 -0.00000000000000000 -1.00000000000000000 1.00000000000000000
1 0.00000000000000000 0.00000000000000000 1.00000000000000000 0.00000000000000000 
1 0.00000000000000000 -120.00000000000000000 1.00000000000000000 0.00000000000000000 
1 4.71238898038468967 0.00000000000000000 0.00000000000000000 -1.00000000000000000 
1 1.57079632679489700 0.00000000000000000 0.00000000000000000 -1.00000000000000000 
1 23.39999999999999858 -0.00000000000001421 -0.00000000000000022 -1.00000000000000000 
1 -0.99999999999999989 -0.00000000000000000 1.00000000000000000 0.00000000000000000 
1 -1.00000000000002620 -120.00000000000000000 1.00000000000000000 0.00000000000000000 
1 3.14159265358979312 0.00000000000000000 0.00000000000000000 -1.00000000000000000 
1 20.22499999999999787 0.00000000000000000 0.00000000000000000 -1.00000000000000000 
1 -3.14159265358979312 -0.00000000000000000 1.00000000000000000 0.00000000000000000 
2 -5.66328124999100435 16.56171874999748184 -1.00000000000000000 0.00000000000000000 -0.00000000000000000 -1.00000000000000000 1.00000000000000000
1 0.00000000000000000 0.00000000000000000 1.00000000000000000 0.00000000000000000 
1 0.00000000000000000 -120.00000000000000000 1.00000000000000000 0.00000000000000000 
1 3.14159265358979312 0.00000000000000000 0.00000000000000000 -1.00000000000000000 
1 -1.57079632679489656 0.00000000000000000 1.00000000000000000 0.00000000000000000 
2 16.56171874999748184 -6.83828125000251763 -1.00000000000000000 0.00000000000000000 -0.00000000000000000 -1.00000000000000000 1.00000000000000000
1 0.00000000000000000 0.00000000000000000 1.00000000000000000 0.00000000000000000 
1 0.00000000000000000 -120.00000000000000000 1.00000000000000000 0.00000000000000000 
1 6.28318530717958623 0.00000000000000000 0.00000000000000000 -1.00000000000000000 
1 0.00000000000000000 0.00000000000000000 0.00000000000000000 -1.00000000000000000 
1 -1.00000000000000000 0.00000000000000000 1.00000000000000000 0.00000000000000000 
1 -1.00000000000000000 -120.00000000000000000 1.00000000000000000 0.00000000000000000 
1 3.14159265358979312 0.00000000000000000 0.00000000000000000 -1.00000000000000000 
1 4.71238898038468879 0.00000000000000000 0.00000000000000000 -1.00000000000000000 
1 20.22499999998848352 0.00000000000000000 0.00000000000000022 -1.00000000000000000 
1 -4.71238898038468879 0.00000000000000000 1.00000000000000000 0.00000000000000000 
2 -3.66328124999100346 -3.66328125000251781 -1.00000000000000000 0.00000000000000000 0.00000000000000000 1.00000000000000000 1.00000000000000000
1 0.00000000000000000 0.00000000000000000 1.00000000000000000 0.00000000000000000 
1 0.00000000000000000 -120.00000000000000000 1.00000000000000000 0.00000000000000000 
1 4.71238898038468967 0.00000000000000000 0.00000000000000000 -1.00000000000000000 
1 0.00000000000000000 -0.00000000000001421 0.00000000000000022 -1.00000000000000000 
1 -3.14159265358979312 0.00000000000000000 1.00000000000000000 0.00000000000000000 
2 16.56171874999748184 -5.66328125000251781 -1.00000000000000000 0.00000000000000000 -0.00000000000000000 -1.00000000000000000 1.00000000000000000
1 0.00000000000000000 0.00000000000000000 1.00000000000000000 0.00000000000000000 
1 0.00000000000000000 -120.00000000000000000 1.00000000000000000 0.00000000000000000 
1 -1.00000000000000000 -0.00000000000000000 1.00000000000000000 0.00000000000000000 
1 -0.99999999999997158 -120.00000000000000000 1.00000000000000000 0.00000000000000000 
Curves 24
1 24.39999999999999858 -60.00000000000000000 0.00000000000001320 0.00000000000000000 1.00000000000000000 -0.00000000000000022 
1 1.00000000000000000 -60.00000000000000000 0.00000000000001320 0.00000000000000000 1.00000000000000000 -0.00000000000000022 
1 25.39999999999999858 0.00000000000000000 0.00000000000000000 -1.00000000000000000 0.00000000000000000 0.00000000000000000 
1 25.39999999999999858 -60.00000000000000000 1.00000000000001310 0.00000000000000000 1.00000000000000000 -0.00000000000000022 
8 0.00000000000000000 1.57079632679489611
2 24.39999999999999858 0.99999999999999978 -0.00000000000000044 0.00000000000000000 0.00000000000000044 1.00000000000000000 0.00000000000000000 -1.00000000000000000 0.00000000000000044 1.00000000000000000 0.00000000000000000 -0.00000000000000000 1.00000000000000000
1 0.00000000000000000 -60.00000000000000000 1.00000000000001310 0.00000000000000000 1.00000000000000000 -0.00000000000000022 
8 -0.00000000000000089 1.57079632679489656
2 0.99999999999999978 0.99999999999999978 -0.00000000000000044 -0.00000000000000000 -0.00000000000000044 -1.00000000000000000 0.00000000000000000 -1.00000000000000000 0.00000000000000044 -1.00000000000000000 0.00000000000000000 0.00000000000000000 1.00000000000000000
1 25.39999999999999858 -60.00000000000000000 2.17500000001152616 0.00000000000000000 1.00000000000000000 -0.00000000000000022 
1 25.39999999999999858 3.17500000001151328 0.00000000000000000 0.00000000000000000 -1.00000000000000000 0.00000000000000000 
1 0.00000000000000000 -59.99999999999998579 24.40000000000001279 0.00000000000000000 1.00000000000000000 -0.00000000000000022 
1 0.00000000000000000 0.00000000000000000 0.00000000000000000 0.00000000000000000 1.00000000000000000 0.00000000000000000 
1 24.39999999999999858 -60.00000000000000000 3.17500000001152616 0.00000000000000000 1.00000000000000000 -0.00000000000000022 
8 3.14159265358979312 4.71238898038468967
2 24.39999999999999858 2.17500000001151328 -0.00000000000000097 -0.00000000000000000 -0.00000000000000044 -1.00000000000000000 0.00000000000000000 -1.00000000000000000 0.00000000000000044 -1.00000000000000000 0.00000000000000000 0.00000000000000000 1.00000000000000000
1 1.00000000000000000 -59.99999999999998579 25.40000000000001279 0.00000000000000000 1.00000000000000000 -0.00000000000000022 
8 1.57079632679489656 3.14159265358979312
2 0.99999999999999978 24.39999999999999858 -0.00000000000001084 -0.00000000000000000 -0.00000000000000044 -1.00000000000000000 0.00000000000000000 -1.00000000000000000 0.00000000000000044 -1.00000000000000000 0.00000000000000000 0.00000000000000000 1.00000000000000000
1 4.17499999999999982 -60.00000000000000000 3.17500000001152749 0.00000000000000000 1.00000000000000000 -0.00000000000000022 
1 3.17499999999999982 3.17500000001151328 0.00000000000000000 1.00000000000000000 0.00000000000000000 0.00000000000000000 
1 2.17499999999999982 -59.99999999999998579 25.40000000000001279 0.00000000000000000 1.00000000000000000 -0.00000000000000022 
1 0.00000000000000000 25.39999999999999858 0.00000000000000000 1.00000000000000000 0.00000000000000000 0.00000000000000000 
1 3.17499999999999982 -60.00000000000000000 4.17500000001152749 0.00000000000000000 1.00000000000000000 -0.00000000000000022 
8 4.71238898038468879 6.28318530717958623
2 4.17499999999999982 4.17500000001151417 -0.00000000000000185 0.00000000000000000 0.00000000000000044 1.00000000000000000 0.00000000000000000 -1.00000000000000000 0.00000000000000044 1.00000000000000000 0.00000000000000000 -0.00000000000000000 1.00000000000000000
1 3.17499999999999982 -59.99999999999998579 24.40000000000001279 0.00000000000000000 1.00000000000000000 -0.00000000000000022 
8 3.14159265358979312 4.71238898038468967
2 2.17499999999999982 24.39999999999999858 -0.00000000000001084 -0.00000000000000000 -0.00000000000000044 -1.00000000000000000 0.00000000000000000 -1.00000000000000000 0.00000000000000044 -1.00000000000000000 0.00000000000000000 0.00000000000000000 1.00000000000000000
1 3.17499999999999982 25.39999999999999858 0.00000000000000000 0.00000000000000000 -1.00000000000000000 0.00000000000000000 
Polygon3D 0
PolygonOnTriangulations 0
Surfaces 19
1 24.39999999999999858 -60.00000000000000000 0.00000000000001320 0.00000000000000000 0.00000000000000022 1.00000000000000000 -1.00000000000000000 0.00000000000000000 0.00000000000000000 0.00000000000000000 -1.00000000000000000 0.00000000000000022 
2 24.39999999999999858 -60.00000000000000000 1.00000000000001288 0.00000000000000000 -1.00000000000000000 0.00000000000000044 0.00000000000000000 -0.00000000000000044 -1.00000000000000000 1.00000000000000000 0.00000000000000000 0.00000000000000000 1.00000000000000000
2 0.99999999999999978 -60.00000000000000000 1.00000000000001288 -0.00000000000000000 -1.00000000000000000 0.00000000000000044 0.00000000000000000 -0.00000000000000044 -1.00000000000000000 -1.00000000000000000 -0.00000000000000000 -0.00000000000000000 1.00000000000000000
1 25.39999999999999858 -60.00000000000000000 2.17500000001152660 -1.00000000000000000 0.00000000000000000 0.00000000000000000 0.00000000000000000 0.00000000000000000 -1.00000000000000000 -0.00000000000000000 -1.00000000000000000 -0.00000000000000000 
2 24.39999999999999858 0.99999999999999978 -0.00000000000000044 0.00000000000000000 0.00000000000000044 1.00000000000000000 0.00000000000000000 -1.00000000000000000 0.00000000000000044 1.00000000000000000 0.00000000000000000 -0.00000000000000000 1.00000000000000000
1 7.83828125000251763 0.00000000000000174 7.83828125000251763 -0.00000000000000000 1.00000000000000000 -0.00000000000000022 0.00000000000000000 0.00000000000000022 1.00000000000000000 1.00000000000000000 0.00000000000000000 -0.00000000000000000 
1 0.00000000000000000 -60.00000000000000000 1.00000000000001310 1.00000000000000000 -0.00000000000000000 0.00000000000000000 0.00000000000000000 0.00000000000000000 1.00000000000000000 -0.00000000000000000 -1.00000000000000000 0.00000000000000000 
2 0.99999999999999978 0.99999999999999978 -0.00000000000000044 0.00000000000000000 0.00000000000000044 1.00000000000000000 0.00000000000000000 -1.00000000000000000 0.00000000000000044 -1.00000000000000000 -0.00000000000000000 0.00000000000000000 1.00000000000000000
2 24.39999999999999858 -60.00000000000000000 2.17500000001152660 -0.00000000000000000 -1.00000000000000000 0.00000000000000044 0.00000000000000000 -0.00000000000000044 -1.00000000000000000 -1.00000000000000000 -0.00000000000000000 -0.00000000000000000 1.00000000000000000
2 0.99999999999999978 -59.99999999999998579 24.40000000000001279 -0.00000000000000000 -1.00000000000000000 0.00000000000000044 0.00000000000000000 -0.00000000000000044 -1.00000000000000000 -1.00000000000000000 -0.00000000000000000 -0.00000000000000000 1.00000000000000000
1 4.17499999999999982 -60.00000000000000000 3.17500000001152660 0.00000000000000000 -0.00000000000000022 -1.00000000000000000 1.00000000000000000 0.00000000000000000 0.00000000000000000 0.00000000000000000 -1.00000000000000000 0.00000000000000022 
2 24.39999999999999858 2.17500000001151328 -0.00000000000000097 0.00000000000000000 0.00000000000000044 1.00000000000000000 0.00000000000000000 1.00000000000000000 -0.00000000000000044 1.00000000000000000 -0.00000000000000000 -0.00000000000000000 1.00000000000000000
1 1.00000000000000000 -60.00000000000000000 25.40000000000001279 0.00000000000000000 -0.00000000000000022 -1.00000000000000000 1.00000000000000000 0.00000000000000000 0.00000000000000000 0.00000000000000000 -1.00000000000000000 0.00000000000000022 
2 0.99999999999999978 24.39999999999999858 -0.00000000000001084 0.00000000000000000 0.00000000000000044 1.00000000000000000 -1.00000000000000000 0.00000000000000000 0.00000000000000000 -0.00000000000000000 1.00000000000000000 -0.00000000000000044 1.00000000000000000
2 4.17499999999999982 -60.00000000000000000 4.17500000001152749 0.00000000000000000 -1.00000000000000000 0.00000000000000044 0.00000000000000000 -0.00000000000000044 -1.00000000000000000 1.00000000000000000 0.00000000000000000 0.00000000000000000 1.00000000000000000
2 2.17499999999999982 -59.99999999999998579 24.40000000000001279 -0.00000000000000000 -1.00000000000000000 0.00000000000000044 0.00000000000000000 -0.00000000000000044 -1.00000000000000000 -1.00000000000000000 -0.00000000000000000 -0.00000000000000000 1.00000000000000000
1 3.17499999999999982 -60.00000000000000000 24.40000000000001279 -1.00000000000000000 0.00000000000000000 0.00000000000000000 0.00000000000000000 0.00000000000000000 -1.00000000000000000 -0.00000000000000000 -1.00000000000000000 -0.00000000000000000 
2 4.17499999999999982 4.17500000001151417 -0.00000000000000185 0.00000000000000000 0.00000000000000044 1.00000000000000000 -1.00000000000000000 0.00000000000000000 0.00000000000000000 0.00000000000000000 -1.00000000000000000 0.00000000000000044 1.00000000000000000
2 2.17499999999999982 24.39999999999999858 -0.00000000000001084 0.00000000000000000 0.00000000000000044 1.00000000000000000 0.00000000000000000 1.00000000000000000 -0.00000000000000044 1.00000000000000000 -0.00000000000000000 -0.00000000000000000 1.00000000000000000
Triangulations 0

TShapes 64
Ve
0.000000100000000
24.399999999999999 -0.000000000000000 0.000000000000000
0 0

0101101
*
Ed
 0.000000100000000 1 1 0
1  1 0 0.000000000000000 120.000000000000000
2  1 2 0 0.000000000000000 120.000000000000000
4 C1 1 0 2 0
2  2 1 0 0.000000000000000 120.000000000000000
0

0101000
+64 11 -64 13 *
Ve
0.000000100000000
1.000000000000000 -0.000000000000000 0.000000000000000
0 0

0101101
*
Ed
 0.000000100000000 1 1 0
1  2 0 0.000000000000000 120.000000000000000
2  3 3 0 0.000000000000000 120.000000000000000
4 C1 1 0 3 0
2  4 1 0 0.000000000000000 120.000000000000000
0

0101000
+62 11 -62 13 *
Ed
 0.000000100000000 1 1 0
1  3 0 1.000000000000000 24.399999999999999
2  5 1 19 1.000000000000000 24.399999999999999
2  6 1 20 1.000000000000000 24.399999999999999
0

0101000
+64 21 -62 21 *
Wi

0101100
+63 0 -61 0 -60 18 +60 22 *
Fa
0  0.000000100000000 1 0

0111000
+59 0 *
Ve
0.000000100000000
25.399999999999999 1.000000000000000 -0.000000000000000
0 0

0101101
*
Ed
 0.000000100000000 1 1 0
1  4 0 0.000000000000000 120.000000000000000
2  7 2 0 0.000000000000000 120.000000000000000
4 C1 2 0 4 0
0

0101000
+57 11 -57 13 *
Ed
 0.000000100000000 1 1 0
1  5 0 0.000000000000000 1.570796326794896
2  8 5 0 0.000000000000000 1.570796326794896
2  9 6 23 0.000000000000000 1.570796326794896
2  10 2 24 0.000000000000000 1.570796326794896
2  11 2 25 0.000000000000000 1.570796326794896
0

0101000
+64 0 -57 0 *
Wi

0101100
+63 0 -56 0 -55 11 +55 13 *
Fa
0  0.000000100000000 2 0

0111000
+54 0 *
Ve
0.000000100000000
-0.000000000000000 1.000000000000000 -0.000000000000000
0 0

0101101
*
Ed
 0.000000100000000 1 1 0
1  6 0 0.000000000000000 120.000000000000000
2  12 3 0 0.000000000000000 120.000000000000000
4 C1 3 0 7 0
2  13 7 0 0.000000000000000 120.000000000000000
0

0101000
+52 11 -52 13 *
Ed
 0.000000100000000 1 1 0
1  7 0 -0.000000000000001 1.570796326794897
2  14 8 0 -0.000000000000001 1.570796326794897
2  15 6 23 -0.000000000000001 1.570796326794897
2  16 3 24 -0.000000000000001 1.570796326794897
2  17 3 25 -0.000000000000001 1.570796326794897
0

0101000
+62 0 -52 0 *
Wi

0101100
+61 0 -51 0 -50 11 +50 13 *
Fa
0  0.000000100000000 3 0

0111000
+49 0 *
Ve
0.000000100000000
25.399999999999999 2.175000000011513 -0.000000000000001
0 0

0101101
*
Ed
 0.000000100000000 1 1 0
1  8 0 0.000000000000000 120.000000000000000
2  18 9 0 0.000000000000000 120.000000000000000
4 C1 4 0 9 0
0

0101000
+47 11 -47 13 *
Ed
 0.000000100000000 1 1 0
1  9 0 1.000000000000000 2.175000000011514
0

0101000
+47 21 -57 21 *
Wi

0101100
+46 0 -56 0 -45 18 +45 22 *
Fa
0  0.000000100000000 4 0

0111000
+44 0 *
Ve
0.000000100000000
-0.000000000000000 24.399999999999999 -0.000000000000011
0 0

0101101
*
Ed
 0.000000100000000 1 1 0
1  10 0 0.000000000000000 120.000000000000000
2  19 10 0 0.000000000000000 120.000000000000000
4 C1 7 0 10 0
2  20 7 0 0.000000000000000 120.000000000000000
0

0101000
+42 11 -42 13 *
Ed
 0.000000100000000 1 1 0
1  11 0 1.000000000000000 24.399999999999999
2  21 7 19 1.000000000000000 24.399999999999999
2  22 7 20 1.000000000000000 24.399999999999999
0

0101000
+52 21 -42 21 *
Wi

0101100
+51 0 -41 0 -40 18 +40 22 *
Fa
0  0.000000100000000 7 0

0111000
+39 0 *
Ve
0.000000100000000
24.399999999999999 3.175000000011513 -0.000000000000001
0 0

0101101
*
Ed
 0.000000100000000 1 1 0
1  12 0 0.000000000000000 120.000000000000000
2  23 9 0 0.000000000000000 120.000000000000000
4 C1 9 0 11 0
2  24 11 0 0.000000000000000 120.000000000000000
0

0101000
+37 11 -37 13 *
Ed
 0.000000100000000 1 1 0
1  13 0 3.141592653589793 4.712388980384690
2  25 12 0 3.141592653589793 4.712388980384690
2  26 6 23 3.141592653589793 4.712388980384690
2  27 9 24 3.141592653589793 4.712388980384690
2  28 9 25 3.141592653589793 4.712388980384690
0

0101000
+37 0 -47 0 *
Wi

0101100
+36 0 -46 0 -35 11 +35 13 *
Fa
0  0.000000100000000 9 0

0111000
+34 0 *
Ve
0.000000100000000
1.000000000000000 25.399999999999999 -0.000000000000011
0 0

0101101
*
Ed
 0.000000100000000 1 1 0
1  14 0 0.000000000000000 120.000000000000000
2  29 10 0 0.000000000000000 120.000000000000000
4 C1 10 0 13 0
0

0101000
+32 11 -32 13 *
Ed
 0.000000100000000 1 1 0
1  15 0 1.570796326794897 3.141592653589793
2  30 14 0 1.570796326794897 3.141592653589793
2  31 6 23 1.570796326794897 3.141592653589793
2  32 10 24 1.570796326794897 3.141592653589793
2  33 10 25 1.570796326794897 3.141592653589793
0

0101000
+42 0 -32 0 *
Wi

0101100
+41 0 -31 0 -30 11 +30 13 *
Fa
0  0.000000100000000 10 0

0111000
+29 0 *
Ve
0.000000100000000
4.175000000000000 3.175000000011514 -0.000000000000001
0 0

0101101
*
Ed
 0.000000100000000 1 1 0
1  16 0 0.000000000000000 120.000000000000000
2  34 15 0 0.000000000000000 120.000000000000000
4 C1 11 0 15 0
2  35 11 0 0.000000000000000 120.000000000000000
0

0101000
+27 11 -27 13 *
Ed
 0.000000100000000 1 1 0
1  17 0 1.000000000000000 21.224999999999998
2  36 11 19 1.000000000000000 21.224999999999998
2  37 11 20 1.000000000000000 21.224999999999998
0

0101000
+27 21 -37 21 *
Wi

0101100
+26 0 -36 0 -25 18 +25 22 *
Fa
0  0.000000100000000 11 0

0111000
+24 0 *
Ve
0.000000100000000
2.175000000000000 25.399999999999999 -0.000000000000011
0 0

0101101
*
Ed
 0.000000100000000 1 1 0
1  18 0 0.000000000000000 120.000000000000000
2  38 16 0 0.000000000000000 120.000000000000000
4 C1 13 0 16 0
0

0101000
+22 11 -22 13 *
Ed
 0.000000100000000 1 1 0
1  19 0 1.000000000000000 2.175000000000000
0

0101000
+32 21 -22 21 *
Wi

0101100
+31 0 -21 0 -20 18 +20 22 *
Fa
0  0.000000100000000 13 0

0111000
+19 0 *
Ve
0.000000100000000
3.175000000000000 4.175000000011514 -0.000000000000002
0 0

0101101
*
Ed
 0.000000100000000 1 1 0
1  20 0 0.000000000000000 120.000000000000000
2  39 15 0 0.000000000000000 120.000000000000000
4 C1 15 0 17 0
2  40 17 0 0.000000000000000 120.000000000000000
0

0101000
+17 11 -17 13 *
Ed
 0.000000100000000 1 1 0
1  21 0 4.712388980384689 6.283185307179586
2  41 18 0 4.712388980384689 6.283185307179586
2  42 6 23 4.712388980384689 6.283185307179586
2  43 15 24 4.712388980384689 6.283185307179586
2  44 15 25 4.712388980384689 6.283185307179586
0

0101000
+17 0 -27 0 *
Wi

0101100
+16 0 -26 0 -15 11 +15 13 *
Fa
0  0.000000100000000 15 0

0111000
+14 0 *
Ve
0.000000100000000
3.175000000000000 24.399999999999999 -0.000000000000011
0 0

0101101
*
Ed
 0.000000100000000 1 1 0
1  22 0 0.000000000000000 120.000000000000000
2  45 16 0 0.000000000000000 120.000000000000000
4 C1 16 0 17 0
2  46 17 0 0.000000000000000 120.000000000000000
0

0101000
+12 11 -12 13 *
Ed
 0.000000100000000 1 1 0
1  23 0 3.141592653589793 4.712388980384690
2  47 19 0 3.141592653589793 4.712388980384690
2  48 6 23 3.141592653589793 4.712388980384690
2  49 16 24 3.141592653589793 4.712388980384690
2  50 16 25 3.141592653589793 4.712388980384690
0

0101000
+22 0 -12 0 *
Wi

0101100
+21 0 -11 0 -10 11 +10 13 *
Fa
0  0.000000100000000 16 0

0111000
+9 0 *
Ed
 0.000000100000000 1 1 0
1  24 0 1.000000000000000 21.224999999988484
2  51 17 19 1.000000000000000 21.224999999988484
2  52 17 20 1.000000000000000 21.224999999988484
0

0101000
+12 21 -17 21 *
Wi

0101100
+11 0 -16 0 -7 18 +7 22 *
Fa
0  0.000000100000000 17 0

0111000
+6 0 *
Wi

0101100
+60 28 -55 0 +50 0 +45 28 +40 28 +35 0 +30 0 +25 28 +20 28 +15 0 
+10 0 +7 28 *
Fa
0  0.000000100000000 6 0

0111000
+4 27 *
Sh

0101100
+58 0 -53 0 +48 0 +43 0 +38 0 +33 0 +28 0 +23 0 +18 0 +13 0 
+8 0 +5 0 +3 26 -3 29 *
So

1100000
-2 0 *

+1 0 