
CASCADE Topology V1, (c) Matra-Datavision
Locations 43
1
1.000000000000000 0.000000000000000 0.000000000000000 0.000000000000000 
0.000000000000000 1.000000000000000 0.000000000000000 0.000000000000000 
0.000000000000000 0.000000000000000 1.000000000000000 0.000000000000000 
1
1.000000000000000 0.000000000000000 0.000000000000000 0.000000000000000 
0.000000000000000 1.000000000000000 0.000000000000000 0.000000000000000 
0.000000000000000 0.000000000000000 1.000000000000000 0.000000000000000 
1
1.000000000000000 0.000000000000000 0.000000000000000 0.000000000000000 
0.000000000000000 1.000000000000000 0.000000000000000 0.000000000000000 
0.000000000000000 0.000000000000000 1.000000000000000 0.000000000000000 
2  2 1 3 -1 0
1
1.000000000000000 0.000000000000000 0.000000000000000 0.000000000000000 
0.000000000000000 1.000000000000000 0.000000000000000 0.000000000000000 
0.000000000000000 0.000000000000000 1.000000000000000 0.000000000000000 
1
1.000000000000000 0.000000000000000 0.000000000000000 0.000000000000000 
0.000000000000000 0.000000000000000 -1.000000000000000 0.000000000000000 
0.000000000000000 1.000000000000000 0.000000000000000 0.000000000000000 
1
1.000000000000000 0.000000000000000 0.000000000000000 0.000000000000000 
0.000000000000000 1.000000000000000 0.000000000000000 0.000000000000000 
0.000000000000000 0.000000000000000 1.000000000000000 0.000000000000000 
1
1.000000000000000 0.000000000000000 0.000000000000000 0.000000000000000 
0.000000000000000 1.000000000000000 0.000000000000000 0.000000000000000 
0.000000000000000 0.000000000000000 1.000000000000000 0.000000000000000 
1
1.000000000000000 0.000000000000000 0.000000000000000 0.000000000000000 
0.000000000000000 1.000000000000000 0.000000000000000 0.000000000000000 
0.000000000000000 0.000000000000000 1.000000000000000 0.000000000000000 
1
1.000000000000000 0.000000000000000 0.000000000000000 0.000000000000000 
0.000000000000000 1.000000000000000 0.000000000000000 0.000000000000000 
0.000000000000000 0.000000000000000 1.000000000000000 0.000000000000000 
1
1.000000000000000 0.000000000000000 0.000000000000000 0.000000000000000 
0.000000000000000 1.000000000000000 0.000000000000000 0.000000000000000 
0.000000000000000 0.000000000000000 1.000000000000000 0.000000000000000 
1
1.000000000000000 0.000000000000000 0.000000000000000 0.000000000000000 
0.000000000000000 1.000000000000000 0.000000000000000 0.000000000000000 
0.000000000000000 0.000000000000000 1.000000000000000 0.000000000000000 
1
1.000000000000000 0.000000000000000 0.000000000000000 0.000000000000000 
0.000000000000000 1.000000000000000 0.000000000000000 0.000000000000000 
0.000000000000000 0.000000000000000 1.000000000000000 0.000000000000000 
1
1.000000000000000 0.000000000000000 0.000000000000000 -0.000000000000000 
0.000000000000000 1.000000000000000 0.000000000000000 -60.000000000000000 
0.000000000000000 0.000000000000000 1.000000000000000 0.000000000000013 
2  5 1 6 1 7 1 8 1 9 1 10 1 11 1 12 1 13 -1 14 1 0
1
1.000000000000000 0.000000000000000 0.000000000000000 0.000000000000000 
0.000000000000000 1.000000000000000 0.000000000000000 120.000000000000000 
0.000000000000000 0.000000000000000 1.000000000000000 -0.000000000000026 
2  5 1 6 1 7 1 8 1 9 1 10 1 11 1 12 1 13 -1 14 1 16 1 0
1
1.000000000000000 0.000000000000000 0.000000000000000 0.000000000000000 
0.000000000000000 1.000000000000000 0.000000000000000 0.000000000000000 
0.000000000000000 0.000000000000000 1.000000000000000 0.000000000000000 
1
1.000000000000000 0.000000000000000 0.000000000000000 0.000000000000000 
0.000000000000000 0.000000000000000 -1.000000000000000 0.000000000000000 
0.000000000000000 1.000000000000000 0.000000000000000 0.000000000000000 
1
1.000000000000000 0.000000000000000 0.000000000000000 0.000000000000000 
0.000000000000000 -0.000000000000000 -1.000000000000000 0.000000000000000 
0.000000000000000 1.000000000000000 -0.000000000000000 0.000000000000000 
1
1.000000000000000 0.000000000000000 0.000000000000000 0.000000000000000 
0.000000000000000 1.000000000000000 0.000000000000000 0.000000000000000 
0.000000000000000 0.000000000000000 1.000000000000000 0.000000000000000 
2  18 1 19 1 20 -1 21 1 5 1 6 1 7 1 8 1 9 1 10 1 11 1 12 1 13 -1 14 1 2 1 3 -1 0
2  14 -1 13 1 12 -1 11 -1 10 -1 9 -1 8 -1 7 -1 6 -1 5 -1 21 -1 20 1 19 -1 18 -1 0
2  16 -1 14 -1 13 1 12 -1 11 -1 10 -1 9 -1 8 -1 7 -1 6 -1 5 -1 21 -1 20 1 19 -1 18 -1 0
2  21 -1 20 1 19 -1 18 -1 0
2  18 1 19 1 20 -1 21 1 5 1 6 1 7 1 8 1 9 1 10 1 11 1 12 1 13 -1 14 1 16 1 2 1 3 -1 0
1
1.000000000000000 0.000000000000000 0.000000000000000 0.000000000000000 
0.000000000000000 1.000000000000000 0.000000000000000 0.000000000000000 
0.000000000000000 0.000000000000000 1.000000000000000 0.000000000000000 
1
1.000000000000000 0.000000000000000 0.000000000000000 0.000000000000000 
0.000000000000000 -1.000000000000000 -0.000000000000000 0.000000000000000 
0.000000000000000 0.000000000000000 -1.000000000000000 0.000000000000000 
2  27 1 28 1 3 -1 0
2  3 1 28 -1 27 -1 0
1
1.000000000000000 0.000000000000000 0.000000000000000 0.000000000000000 
0.000000000000000 1.000000000000000 0.000000000000000 0.000000000000056 
0.000000000000000 0.000000000000000 1.000000000000000 253.027235150684959 
2  31 -1 3 1 28 -1 27 -1 0
2  28 -1 27 -1 0
2  2 1 28 -1 27 -1 0
2  20 -1 21 1 0
2  14 -1 13 1 12 -1 11 -1 10 -1 9 -1 8 -1 7 -1 6 -1 5 -1 0
2  16 -1 14 -1 13 1 12 -1 11 -1 10 -1 9 -1 8 -1 7 -1 6 -1 5 -1 0
2  20 -1 21 1 5 1 6 1 7 1 8 1 9 1 10 1 11 1 12 1 13 -1 14 1 2 1 3 -1 0
2  21 -1 20 1 0
2  18 1 19 1 20 -1 21 1 0
2  20 -1 21 1 5 1 6 1 7 1 8 1 9 1 10 1 11 1 12 1 13 -1 14 1 16 1 2 1 3 -1 0
2  18 1 19 1 20 -1 21 1 5 1 6 1 7 1 8 1 9 1 10 1 11 1 12 1 13 -1 14 1 0
2  18 1 19 1 20 -1 21 1 5 1 6 1 7 1 8 1 9 1 10 1 11 1 12 1 13 -1 14 1 16 1 0
Curve2ds 68
1 0.00000000000000000 0.00000000000000000 0.00000000000000000 -1.00000000000000000 
1 0.00000000000000000 0.00000000000000000 0.00000000000000000 -1.00000000000000000 
1 -1.00000000000000000 0.00000000000000000 1.00000000000000000 0.00000000000000000 
1 -1.00000000000000000 -120.00000000000000000 1.00000000000000000 0.00000000000000000 
1 -0.00000000000000100 0.00000000000000000 0.00000000000000000 -1.00000000000000000 
1 23.39999999999999858 0.00000000000000000 0.00000000000000000 -1.00000000000000000 
1 0.00000000000000000 0.00000000000000000 1.00000000000000000 0.00000000000000000 
1 0.00000000000000000 -253.02723515068495885 1.00000000000000000 0.00000000000000000 
2 0.00000000000000711 0.00000000000000178 0.00000000000000000 -1.00000000000000000 1.00000000000000000 0.00000000000000000 3.96875000000000000
2 11.69999999999999929 -107.30000000000001137 -1.00000000000000000 0.00000000000000000 0.00000000000000000 1.00000000000000000 3.96875000000000000
1 0.00000000000000000 0.00000000000000000 1.00000000000000000 0.00000000000000000 
1 0.00000000000000000 -253.02723515068495885 1.00000000000000000 0.00000000000000000 
2 -0.00000000000000711 0.00000000000000178 0.00000000000000000 -1.00000000000000000 1.00000000000000000 0.00000000000000000 3.96875000000000000
2 11.69999999999999929 -12.69999999999998863 -1.00000000000000000 0.00000000000000000 0.00000000000000000 1.00000000000000000 3.96875000000000000
1 1.57079632679489589 0.00000000000000000 0.00000000000000000 -1.00000000000000000 
1 0.00000000000000000 -0.00000000000000000 1.00000000000000000 0.00000000000000000 
2 -6.83828125000251763 16.56171874999748184 -1.00000000000000000 0.00000000000000000 0.00000000000000000 1.00000000000000000 1.00000000000000000
1 0.00000000000000000 0.00000000000000000 1.00000000000000000 0.00000000000000000 
1 0.00000000000000000 -120.00000000000000000 1.00000000000000000 0.00000000000000000 
1 0.00000000000000089 0.00000000000000000 1.00000000000000000 0.00000000000000000 
2 -6.83828125000251763 -6.83828125000251763 -1.00000000000000000 0.00000000000000000 -0.00000000000000000 -1.00000000000000000 1.00000000000000000
1 0.00000000000000000 0.00000000000000000 1.00000000000000000 0.00000000000000000 
1 0.00000000000000000 -120.00000000000000000 1.00000000000000000 0.00000000000000000 
1 -0.99999999999999989 -0.00000000000000000 1.00000000000000000 0.00000000000000000 
1 -1.00000000000002620 -120.00000000000000000 1.00000000000000000 0.00000000000000000 
1 -3.14159265358979312 -0.00000000000000000 1.00000000000000000 0.00000000000000000 
2 -5.66328124999100435 16.56171874999748184 -1.00000000000000000 0.00000000000000000 -0.00000000000000000 -1.00000000000000000 1.00000000000000000
1 0.00000000000000000 0.00000000000000000 1.00000000000000000 0.00000000000000000 
1 0.00000000000000000 -120.00000000000000000 1.00000000000000000 0.00000000000000000 
1 -1.57079632679489656 0.00000000000000000 1.00000000000000000 0.00000000000000000 
2 16.56171874999748184 -6.83828125000251763 -1.00000000000000000 0.00000000000000000 -0.00000000000000000 -1.00000000000000000 1.00000000000000000
1 0.00000000000000000 0.00000000000000000 1.00000000000000000 0.00000000000000000 
1 0.00000000000000000 -120.00000000000000000 1.00000000000000000 0.00000000000000000 
1 -1.00000000000000000 0.00000000000000000 1.00000000000000000 0.00000000000000000 
1 -1.00000000000000000 -120.00000000000000000 1.00000000000000000 0.00000000000000000 
1 -4.71238898038468879 0.00000000000000000 1.00000000000000000 0.00000000000000000 
2 -3.66328124999100346 -3.66328125000251781 -1.00000000000000000 0.00000000000000000 0.00000000000000000 1.00000000000000000 1.00000000000000000
1 0.00000000000000000 0.00000000000000000 1.00000000000000000 0.00000000000000000 
1 0.00000000000000000 -120.00000000000000000 1.00000000000000000 0.00000000000000000 
1 -3.14159265358979312 0.00000000000000000 1.00000000000000000 0.00000000000000000 
2 16.56171874999748184 -5.66328125000251781 -1.00000000000000000 0.00000000000000000 -0.00000000000000000 -1.00000000000000000 1.00000000000000000
1 0.00000000000000000 0.00000000000000000 1.00000000000000000 0.00000000000000000 
1 0.00000000000000000 -120.00000000000000000 1.00000000000000000 0.00000000000000000 
1 -1.00000000000000000 -0.00000000000000000 1.00000000000000000 0.00000000000000000 
1 -0.99999999999997158 -120.00000000000000000 1.00000000000000000 0.00000000000000000 
1 1.57079632679489700 0.00000000000000000 0.00000000000000000 -1.00000000000000000 
1 0.00000000000000000 0.00000000000000000 -0.00000000000000022 -1.00000000000000000 
1 0.00000000000000000 0.00000000000000000 0.00000000000000000 -1.00000000000000000 
1 6.28318530717958623 0.00000000000000000 0.00000000000000000 -1.00000000000000000 
2 8.52499999999999858 -107.30000000000001137 1.00000000000000000 0.00000000000000000 -0.00000000000000000 1.00000000000000000 3.96875000000000000
1 0.00000000000000000 -3.17500000001151328 1.00000000000000000 0.00000000000000000 
1 0.00000000000000000 0.00000000000000000 0.00000000000000000 -1.00000000000000000 
1 6.28318530717958623 0.00000000000000000 0.00000000000000000 -1.00000000000000000 
2 8.52499999999999858 -12.69999999999998863 1.00000000000000000 0.00000000000000000 -0.00000000000000000 1.00000000000000000 3.96875000000000000
1 0.00000000000000000 -3.17500000001151328 1.00000000000000000 0.00000000000000000 
1 4.71238898038468967 0.00000000000000000 0.00000000000000000 -1.00000000000000000 
1 1.57079632679489700 0.00000000000000000 0.00000000000000000 -1.00000000000000000 
1 23.39999999999999858 -0.00000000000001421 -0.00000000000000022 -1.00000000000000000 
1 3.14159265358979312 0.00000000000000000 0.00000000000000000 -1.00000000000000000 
1 20.22499999999999787 0.00000000000000000 0.00000000000000000 -1.00000000000000000 
1 3.14159265358979312 0.00000000000000000 0.00000000000000000 -1.00000000000000000 
1 6.28318530717958623 0.00000000000000000 0.00000000000000000 -1.00000000000000000 
1 0.00000000000000000 0.00000000000000000 0.00000000000000000 -1.00000000000000000 
1 3.14159265358979312 0.00000000000000000 0.00000000000000000 -1.00000000000000000 
1 4.71238898038468879 0.00000000000000000 0.00000000000000000 -1.00000000000000000 
1 20.22499999998848352 0.00000000000000000 0.00000000000000022 -1.00000000000000000 
1 4.71238898038468967 0.00000000000000000 0.00000000000000000 -1.00000000000000000 
1 0.00000000000000000 -0.00000000000001421 0.00000000000000022 -1.00000000000000000 
Curves 30
1 24.39999999999999858 -60.00000000000000000 0.00000000000001320 0.00000000000000000 1.00000000000000000 -0.00000000000000022 
1 25.39999999999999858 0.00000000000000000 0.00000000000000000 -1.00000000000000000 0.00000000000000000 0.00000000000000000 
1 1.00000000000000000 -60.00000000000000000 0.00000000000001320 0.00000000000000000 1.00000000000000000 -0.00000000000000022 
2 12.69999999999999929 -47.30000000000001137 0.00000000000000000 0.00000000000000000 0.00000000000000000 1.00000000000000000 1.00000000000000000 0.00000000000000000 -0.00000000000000000 -0.00000000000000000 1.00000000000000000 0.00000000000000000 3.96875000000000000
2 12.69999999999999929 47.30000000000001137 0.00000000000000000 0.00000000000000000 0.00000000000000000 1.00000000000000000 1.00000000000000000 0.00000000000000000 -0.00000000000000000 -0.00000000000000000 1.00000000000000000 0.00000000000000000 3.96875000000000000
1 25.39999999999999858 -60.00000000000000000 1.00000000000001310 0.00000000000000000 1.00000000000000000 -0.00000000000000022 
8 0.00000000000000000 1.57079632679489611
2 24.39999999999999858 0.99999999999999978 -0.00000000000000044 0.00000000000000000 0.00000000000000044 1.00000000000000000 0.00000000000000000 -1.00000000000000000 0.00000000000000044 1.00000000000000000 0.00000000000000000 -0.00000000000000000 1.00000000000000000
8 -0.00000000000000089 1.57079632679489656
2 0.99999999999999978 0.99999999999999978 -0.00000000000000044 -0.00000000000000000 -0.00000000000000044 -1.00000000000000000 0.00000000000000000 -1.00000000000000000 0.00000000000000044 -1.00000000000000000 0.00000000000000000 0.00000000000000000 1.00000000000000000
1 25.39999999999999858 3.17500000001151328 0.00000000000000000 0.00000000000000000 -1.00000000000000000 0.00000000000000000 
1 0.00000000000000000 0.00000000000000000 0.00000000000000000 0.00000000000000000 1.00000000000000000 0.00000000000000000 
8 3.14159265358979312 4.71238898038468967
2 24.39999999999999858 2.17500000001151328 -0.00000000000000097 -0.00000000000000000 -0.00000000000000044 -1.00000000000000000 0.00000000000000000 -1.00000000000000000 0.00000000000000044 -1.00000000000000000 0.00000000000000000 0.00000000000000000 1.00000000000000000
8 1.57079632679489656 3.14159265358979312
2 0.99999999999999978 24.39999999999999858 -0.00000000000001084 -0.00000000000000000 -0.00000000000000044 -1.00000000000000000 0.00000000000000000 -1.00000000000000000 0.00000000000000044 -1.00000000000000000 0.00000000000000000 0.00000000000000000 1.00000000000000000
1 3.17499999999999982 3.17500000001151328 0.00000000000000000 1.00000000000000000 0.00000000000000000 0.00000000000000000 
1 0.00000000000000000 25.39999999999999858 0.00000000000000000 1.00000000000000000 0.00000000000000000 0.00000000000000000 
8 4.71238898038468879 6.28318530717958623
2 4.17499999999999982 4.17500000001151417 -0.00000000000000185 0.00000000000000000 0.00000000000000044 1.00000000000000000 0.00000000000000000 -1.00000000000000000 0.00000000000000044 1.00000000000000000 0.00000000000000000 -0.00000000000000000 1.00000000000000000
8 3.14159265358979312 4.71238898038468967
2 2.17499999999999982 24.39999999999999858 -0.00000000000001084 -0.00000000000000000 -0.00000000000000044 -1.00000000000000000 0.00000000000000000 -1.00000000000000000 0.00000000000000044 -1.00000000000000000 0.00000000000000000 0.00000000000000000 1.00000000000000000
1 3.17499999999999982 25.39999999999999858 0.00000000000000000 0.00000000000000000 -1.00000000000000000 0.00000000000000000 
1 0.00000000000000000 -60.00000000000000000 1.00000000000001310 0.00000000000000000 1.00000000000000000 -0.00000000000000022 
1 16.66874999999999929 47.30000000000001137 -0.00000000000001041 0.00000000000000000 0.00000000000000022 1.00000000000000000 
2 12.69999999999999929 47.30000000000001137 3.17500000001150307 0.00000000000000000 -0.00000000000000022 -1.00000000000000000 1.00000000000000000 0.00000000000000000 0.00000000000000000 0.00000000000000000 -1.00000000000000000 0.00000000000000022 3.96875000000000000
1 16.66874999999999929 -47.30000000000001137 0.00000000000001041 0.00000000000000000 0.00000000000000022 1.00000000000000000 
2 12.69999999999999929 -47.30000000000001137 3.17500000001152349 0.00000000000000000 -0.00000000000000022 -1.00000000000000000 1.00000000000000000 0.00000000000000000 0.00000000000000000 0.00000000000000000 -1.00000000000000000 0.00000000000000022 3.96875000000000000
1 25.39999999999999858 -60.00000000000000000 2.17500000001152616 0.00000000000000000 1.00000000000000000 -0.00000000000000022 
1 0.00000000000000000 -59.99999999999998579 24.40000000000001279 0.00000000000000000 1.00000000000000000 -0.00000000000000022 
1 24.39999999999999858 -60.00000000000000000 3.17500000001152616 0.00000000000000000 1.00000000000000000 -0.00000000000000022 
1 1.00000000000000000 -59.99999999999998579 25.40000000000001279 0.00000000000000000 1.00000000000000000 -0.00000000000000022 
1 4.17499999999999982 -60.00000000000000000 3.17500000001152749 0.00000000000000000 1.00000000000000000 -0.00000000000000022 
1 2.17499999999999982 -59.99999999999998579 25.40000000000001279 0.00000000000000000 1.00000000000000000 -0.00000000000000022 
1 3.17499999999999982 -60.00000000000000000 4.17500000001152749 0.00000000000000000 1.00000000000000000 -0.00000000000000022 
1 3.17499999999999982 -59.99999999999998579 24.40000000000001279 0.00000000000000000 1.00000000000000000 -0.00000000000000022 
Polygon3D 0
PolygonOnTriangulations 0
Surfaces 23
1 24.39999999999999858 -60.00000000000000000 0.00000000000001320 0.00000000000000000 0.00000000000000022 1.00000000000000000 -1.00000000000000000 0.00000000000000000 0.00000000000000000 0.00000000000000000 -1.00000000000000000 0.00000000000000022 
2 24.39999999999999858 -60.00000000000000000 1.00000000000001288 0.00000000000000000 -1.00000000000000000 0.00000000000000044 0.00000000000000000 -0.00000000000000044 -1.00000000000000000 1.00000000000000000 0.00000000000000000 0.00000000000000000 1.00000000000000000
2 0.99999999999999978 -60.00000000000000000 1.00000000000001288 -0.00000000000000000 -1.00000000000000000 0.00000000000000044 0.00000000000000000 -0.00000000000000044 -1.00000000000000000 -1.00000000000000000 -0.00000000000000000 -0.00000000000000000 1.00000000000000000
2 12.69999999999999929 47.30000000000001137 -0.00000000000001041 0.00000000000000000 -0.00000000000000022 -1.00000000000000000 1.00000000000000000 0.00000000000000000 0.00000000000000000 0.00000000000000000 -1.00000000000000000 0.00000000000000022 3.96875000000000000
1 12.70000000000000107 47.30000000000001847 -0.00000000000001041 0.00000000000000000 -0.00000000000000022 -1.00000000000000000 0.00000000000000000 -1.00000000000000000 0.00000000000000022 -1.00000000000000000 -0.00000000000000000 0.00000000000000000 
2 12.69999999999999929 -47.30000000000001137 0.00000000000001041 0.00000000000000000 -0.00000000000000022 -1.00000000000000000 1.00000000000000000 0.00000000000000000 0.00000000000000000 0.00000000000000000 -1.00000000000000000 0.00000000000000022 3.96875000000000000
1 12.70000000000000107 -47.30000000000001847 0.00000000000001041 -0.00000000000000000 -0.00000000000000022 -1.00000000000000000 0.00000000000000000 -1.00000000000000000 0.00000000000000022 -1.00000000000000000 0.00000000000000000 0.00000000000000000 
1 25.39999999999999858 -60.00000000000000000 2.17500000001152660 -1.00000000000000000 0.00000000000000000 0.00000000000000000 0.00000000000000000 0.00000000000000000 -1.00000000000000000 -0.00000000000000000 -1.00000000000000000 -0.00000000000000000 
2 24.39999999999999858 0.99999999999999978 -0.00000000000000044 0.00000000000000000 0.00000000000000044 1.00000000000000000 0.00000000000000000 -1.00000000000000000 0.00000000000000044 1.00000000000000000 0.00000000000000000 -0.00000000000000000 1.00000000000000000
1 7.83828125000251763 0.00000000000000174 7.83828125000251763 -0.00000000000000000 1.00000000000000000 -0.00000000000000022 0.00000000000000000 0.00000000000000022 1.00000000000000000 1.00000000000000000 0.00000000000000000 -0.00000000000000000 
2 0.99999999999999978 0.99999999999999978 -0.00000000000000044 0.00000000000000000 0.00000000000000044 1.00000000000000000 0.00000000000000000 -1.00000000000000000 0.00000000000000044 -1.00000000000000000 -0.00000000000000000 0.00000000000000000 1.00000000000000000
1 0.00000000000000000 -60.00000000000000000 1.00000000000001310 1.00000000000000000 -0.00000000000000000 0.00000000000000000 0.00000000000000000 0.00000000000000000 1.00000000000000000 -0.00000000000000000 -1.00000000000000000 0.00000000000000000 
2 24.39999999999999858 2.17500000001151328 -0.00000000000000097 0.00000000000000000 0.00000000000000044 1.00000000000000000 0.00000000000000000 1.00000000000000000 -0.00000000000000044 1.00000000000000000 -0.00000000000000000 -0.00000000000000000 1.00000000000000000
2 24.39999999999999858 -60.00000000000000000 2.17500000001152660 -0.00000000000000000 -1.00000000000000000 0.00000000000000044 0.00000000000000000 -0.00000000000000044 -1.00000000000000000 -1.00000000000000000 -0.00000000000000000 -0.00000000000000000 1.00000000000000000
2 0.99999999999999978 24.39999999999999858 -0.00000000000001084 0.00000000000000000 0.00000000000000044 1.00000000000000000 -1.00000000000000000 0.00000000000000000 0.00000000000000000 -0.00000000000000000 1.00000000000000000 -0.00000000000000044 1.00000000000000000
2 0.99999999999999978 -59.99999999999998579 24.40000000000001279 -0.00000000000000000 -1.00000000000000000 0.00000000000000044 0.00000000000000000 -0.00000000000000044 -1.00000000000000000 -1.00000000000000000 -0.00000000000000000 -0.00000000000000000 1.00000000000000000
1 4.17499999999999982 -60.00000000000000000 3.17500000001152660 0.00000000000000000 -0.00000000000000022 -1.00000000000000000 1.00000000000000000 0.00000000000000000 0.00000000000000000 0.00000000000000000 -1.00000000000000000 0.00000000000000022 
2 4.17499999999999982 4.17500000001151417 -0.00000000000000185 0.00000000000000000 0.00000000000000044 1.00000000000000000 -1.00000000000000000 0.00000000000000000 0.00000000000000000 0.00000000000000000 -1.00000000000000000 0.00000000000000044 1.00000000000000000
2 4.17499999999999982 -60.00000000000000000 4.17500000001152749 0.00000000000000000 -1.00000000000000000 0.00000000000000044 0.00000000000000000 -0.00000000000000044 -1.00000000000000000 1.00000000000000000 0.00000000000000000 0.00000000000000000 1.00000000000000000
2 2.17499999999999982 24.39999999999999858 -0.00000000000001084 0.00000000000000000 0.00000000000000044 1.00000000000000000 0.00000000000000000 1.00000000000000000 -0.00000000000000044 1.00000000000000000 -0.00000000000000000 -0.00000000000000000 1.00000000000000000
2 2.17499999999999982 -59.99999999999998579 24.40000000000001279 -0.00000000000000000 -1.00000000000000000 0.00000000000000044 0.00000000000000000 -0.00000000000000044 -1.00000000000000000 -1.00000000000000000 -0.00000000000000000 -0.00000000000000000 1.00000000000000000
1 3.17499999999999982 -60.00000000000000000 24.40000000000001279 -1.00000000000000000 0.00000000000000000 0.00000000000000000 0.00000000000000000 0.00000000000000000 -1.00000000000000000 -0.00000000000000000 -1.00000000000000000 -0.00000000000000000 
1 1.00000000000000000 -60.00000000000000000 25.40000000000001279 0.00000000000000000 -0.00000000000000022 -1.00000000000000000 1.00000000000000000 0.00000000000000000 0.00000000000000000 0.00000000000000000 -1.00000000000000000 0.00000000000000022 
Triangulations 0

TShapes 82
Ve
0.000000100000000
24.399999999999999 -0.000000000000000 0.000000000000000
0 0

0101101
*
Ed
 0.000000100000000 1 1 0
1  1 0 0.000000000000000 120.000000000000000
2  1 2 0 0.000000000000000 120.000000000000000
4 C1 1 0 2 0
2  2 1 0 0.000000000000000 120.000000000000000
0

0101000
+82 15 -82 17 *
Ve
0.000000100000000
1.000000000000000 -0.000000000000000 0.000000000000000
0 0

0101101
*
Ed
 0.000000100000000 1 1 0
1  2 0 1.000000000000000 24.399999999999999
2  3 1 23 1.000000000000000 24.399999999999999
2  4 1 24 1.000000000000000 24.399999999999999
0

0101000
+82 25 -80 25 *
Ed
 0.000000100000000 1 1 0
1  3 0 0.000000000000000 120.000000000000000
2  5 3 0 0.000000000000000 120.000000000000000
4 C1 1 0 3 0
2  6 1 0 0.000000000000000 120.000000000000000
0

0101000
+80 15 -80 17 *
Wi

0101100
+81 4 -79 22 +79 26 -78 4 *
Ve
0.000000100000000
16.668749999999999 -47.300000000000011 0.000000000000000
0 0

0101101
*
Ed
 0.000000100000000 1 1 0
1  4 0 0.000000000000000 6.283185307179586
2  7 4 30 0.000000000000000 6.283185307179586
2  8 4 32 0.000000000000000 6.283185307179586
2  9 5 33 0.000000000000000 6.283185307179586
2  10 1 34 0.000000000000000 6.283185307179586
0

0101000
+76 0 -76 0 *
Wi

0101100
+75 29 *
Ve
0.000000100000000
16.668749999999999 47.300000000000011 0.000000000000000
0 0

0101101
*
Ed
 0.000000100000000 1 1 0
1  5 0 0.000000000000000 6.283185307179586
2  11 6 30 0.000000000000000 6.283185307179586
2  12 6 32 0.000000000000000 6.283185307179586
2  13 7 33 0.000000000000000 6.283185307179586
2  14 1 34 0.000000000000000 6.283185307179586
0

0101000
+73 0 -73 0 *
Wi

0101100
+72 29 *
Fa
0  0.000000100000000 1 4

0101000
+77 0 +74 0 +71 0 *
Ve
0.000000100000000
25.399999999999999 1.000000000000000 -0.000000000000000
0 0

0101101
*
Ed
 0.000000100000000 1 1 0
1  6 0 0.000000000000000 120.000000000000000
2  15 2 0 0.000000000000000 120.000000000000000
4 C1 2 0 8 0
0

0101000
+69 15 -69 17 *
Ed
 0.000000100000000 1 1 0
1  7 0 0.000000000000000 1.570796326794896
2  16 9 0 0.000000000000000 1.570796326794896
2  17 10 35 0.000000000000000 1.570796326794896
2  18 2 36 0.000000000000000 1.570796326794896
2  19 2 37 0.000000000000000 1.570796326794896
0

0101000
+82 0 -69 0 *
Wi

0101100
+81 0 -68 0 -67 15 +67 17 *
Fa
0  0.000000100000000 2 0

0101000
+66 0 *
Ve
0.000000100000000
-0.000000000000000 1.000000000000000 -0.000000000000000
0 0

0101101
*
Ed
 0.000000100000000 1 1 0
1  8 0 -0.000000000000001 1.570796326794897
2  20 11 0 -0.000000000000001 1.570796326794897
2  21 10 35 -0.000000000000001 1.570796326794897
2  22 3 36 -0.000000000000001 1.570796326794897
2  23 3 37 -0.000000000000001 1.570796326794897
0

0101000
+80 0 -64 0 *
Ve
0.000000100000000
25.399999999999999 2.175000000011513 -0.000000000000001
0 0

0101101
*
Ed
 0.000000100000000 1 1 0
1  9 0 1.000000000000000 2.175000000011514
0

0101000
+62 25 -69 25 *
Ve
0.000000100000000
-0.000000000000000 24.399999999999999 -0.000000000000011
0 0

0101101
*
Ed
 0.000000100000000 1 1 0
1  10 0 1.000000000000000 24.399999999999999
2  24 12 23 1.000000000000000 24.399999999999999
2  25 12 24 1.000000000000000 24.399999999999999
0

0101000
+64 25 -60 25 *
Ve
0.000000100000000
24.399999999999999 3.175000000011513 -0.000000000000001
0 0

0101101
*
Ed
 0.000000100000000 1 1 0
1  11 0 3.141592653589793 4.712388980384690
2  26 13 0 3.141592653589793 4.712388980384690
2  27 10 35 3.141592653589793 4.712388980384690
2  28 14 36 3.141592653589793 4.712388980384690
2  29 14 37 3.141592653589793 4.712388980384690
0

0101000
+58 0 -62 0 *
Ve
0.000000100000000
1.000000000000000 25.399999999999999 -0.000000000000011
0 0

0101101
*
Ed
 0.000000100000000 1 1 0
1  12 0 1.570796326794897 3.141592653589793
2  30 15 0 1.570796326794897 3.141592653589793
2  31 10 35 1.570796326794897 3.141592653589793
2  32 16 36 1.570796326794897 3.141592653589793
2  33 16 37 1.570796326794897 3.141592653589793
0

0101000
+60 0 -56 0 *
Ve
0.000000100000000
4.175000000000000 3.175000000011514 -0.000000000000001
0 0

0101101
*
Ed
 0.000000100000000 1 1 0
1  13 0 1.000000000000000 21.224999999999998
2  34 17 23 1.000000000000000 21.224999999999998
2  35 17 24 1.000000000000000 21.224999999999998
0

0101000
+54 25 -58 25 *
Ve
0.000000100000000
2.175000000000000 25.399999999999999 -0.000000000000011
0 0

0101101
*
Ed
 0.000000100000000 1 1 0
1  14 0 1.000000000000000 2.175000000000000
0

0101000
+56 25 -52 25 *
Ve
0.000000100000000
3.175000000000000 4.175000000011514 -0.000000000000002
0 0

0101101
*
Ed
 0.000000100000000 1 1 0
1  15 0 4.712388980384689 6.283185307179586
2  36 18 0 4.712388980384689 6.283185307179586
2  37 10 35 4.712388980384689 6.283185307179586
2  38 19 36 4.712388980384689 6.283185307179586
2  39 19 37 4.712388980384689 6.283185307179586
0

0101000
+50 0 -54 0 *
Ve
0.000000100000000
3.175000000000000 24.399999999999999 -0.000000000000011
0 0

0101101
*
Ed
 0.000000100000000 1 1 0
1  16 0 3.141592653589793 4.712388980384690
2  40 20 0 3.141592653589793 4.712388980384690
2  41 10 35 3.141592653589793 4.712388980384690
2  42 21 36 3.141592653589793 4.712388980384690
2  43 21 37 3.141592653589793 4.712388980384690
0

0101000
+52 0 -48 0 *
Ed
 0.000000100000000 1 1 0
1  17 0 1.000000000000000 21.224999999988484
2  44 22 23 1.000000000000000 21.224999999988484
2  45 22 24 1.000000000000000 21.224999999988484
0

0101000
+48 25 -50 25 *
Wi

0101100
+79 40 -67 0 +63 0 +61 40 +59 40 +57 0 +55 0 +53 40 +51 40 +49 0 
+47 0 +46 40 *
Fa
0  0.000000100000000 10 0

0101000
+45 39 *
Ed
 0.000000100000000 1 1 0
1  18 0 0.000000000000000 120.000000000000000
2  46 3 0 0.000000000000000 120.000000000000000
4 C1 3 0 12 0
2  47 12 0 0.000000000000000 120.000000000000000
0

0101000
+64 15 -64 17 *
Wi

0101100
+78 0 -43 0 -63 15 +63 17 *
Fa
0  0.000000100000000 3 0

0101000
+42 0 *
Ve
0.000000100000000
16.668749999999999 47.300000000000011 3.175000000011503
0 0

0101101
*
Ed
 0.000000100000000 1 1 0
1  19 0 0.000000000000000 3.175000000011513
3  48 49CN 4 0 0.000000000000000 3.175000000011513
0

0101000
+76 29 -40 0 *
Ed
 0.000000100000000 1 1 0
1  20 0 0.000000000000000 6.283185307179586
2  50 17 4 0.000000000000000 6.283185307179586
2  51 4 0 0.000000000000000 6.283185307179586
0

0101000
+40 0 -40 0 *
Wi

0101100
-75 29 -39 0 +38 0 +39 0 *
Fa
0  0.000000100000000 4 0

0101000
+37 0 *
Ve
0.000000100000000
16.668749999999999 -47.300000000000011 3.175000000011524
0 0

0101101
*
Ed
 0.000000100000000 1 1 0
1  21 0 0.000000000000000 3.175000000011514
3  52 53CN 6 0 0.000000000000000 3.175000000011514
0

0101000
+73 29 -35 0 *
Ed
 0.000000100000000 1 1 0
1  22 0 0.000000000000000 6.283185307179586
2  54 17 4 0.000000000000000 6.283185307179586
2  55 6 0 0.000000000000000 6.283185307179586
0

0101000
+35 0 -35 0 *
Wi

0101100
-72 29 -34 0 +33 0 +34 0 *
Fa
0  0.000000100000000 6 0

0101000
+32 0 *
Ed
 0.000000100000000 1 1 0
1  23 0 0.000000000000000 120.000000000000000
2  56 14 0 0.000000000000000 120.000000000000000
4 C1 8 0 14 0
0

0101000
+62 15 -62 17 *
Wi

0101100
+30 0 -68 0 -61 42 +61 43 *
Fa
0  0.000000100000000 8 0

0101000
+29 0 *
Ed
 0.000000100000000 1 1 0
1  24 0 0.000000000000000 120.000000000000000
2  57 16 0 0.000000000000000 120.000000000000000
4 C1 12 0 16 0
2  58 12 0 0.000000000000000 120.000000000000000
0

0101000
+60 15 -60 17 *
Wi

0101100
+43 0 -27 0 -59 42 +59 43 *
Fa
0  0.000000100000000 12 0

0101000
+26 0 *
Ed
 0.000000100000000 1 1 0
1  25 0 0.000000000000000 120.000000000000000
2  59 14 0 0.000000000000000 120.000000000000000
4 C1 14 0 17 0
2  60 17 0 0.000000000000000 120.000000000000000
0

0101000
+58 15 -58 17 *
Wi

0101100
+24 0 -30 0 -57 15 +57 17 *
Fa
0  0.000000100000000 14 0

0101000
+23 0 *
Ed
 0.000000100000000 1 1 0
1  26 0 0.000000000000000 120.000000000000000
2  61 16 0 0.000000000000000 120.000000000000000
4 C1 16 0 23 0
0

0101000
+56 15 -56 17 *
Wi

0101100
+27 0 -21 0 -55 15 +55 17 *
Fa
0  0.000000100000000 16 0

0101000
+20 0 *
Ed
 0.000000100000000 1 1 0
1  27 0 0.000000000000000 120.000000000000000
2  62 19 0 0.000000000000000 120.000000000000000
4 C1 17 0 19 0
2  63 17 0 0.000000000000000 120.000000000000000
0

0101000
+54 15 -54 17 *
Wi

0101100
+18 4 -53 22 +53 26 -24 4 *
Wi

0101100
-38 0 *
Wi

0101100
-33 0 *
Fa
0  0.000000100000000 17 4

0101000
+17 0 +16 0 +15 0 *
Ed
 0.000000100000000 1 1 0
1  28 0 0.000000000000000 120.000000000000000
2  64 21 0 0.000000000000000 120.000000000000000
4 C1 23 0 21 0
0

0101000
+52 15 -52 17 *
Wi

0101100
+21 0 -13 0 -51 42 +51 43 *
Fa
0  0.000000100000000 23 0

0101000
+12 0 *
Ed
 0.000000100000000 1 1 0
1  29 0 0.000000000000000 120.000000000000000
2  65 19 0 0.000000000000000 120.000000000000000
4 C1 19 0 22 0
2  66 22 0 0.000000000000000 120.000000000000000
0

0101000
+50 15 -50 17 *
Wi

0101100
+10 0 -18 0 -49 15 +49 17 *
Fa
0  0.000000100000000 19 0

0101000
+9 0 *
Ed
 0.000000100000000 1 1 0
1  30 0 0.000000000000000 120.000000000000000
2  67 21 0 0.000000000000000 120.000000000000000
4 C1 21 0 22 0
2  68 22 0 0.000000000000000 120.000000000000000
0

0101000
+48 15 -48 17 *
Wi

0101100
+13 0 -7 0 -47 15 +47 17 *
Fa
0  0.000000100000000 21 0

0101000
+6 0 *
Wi

0101100
+7 0 -10 0 -46 42 +46 43 *
Fa
0  0.000000100000000 22 0

0101000
+4 0 *
Sh

0101100
-70 0 +65 4 -44 38 +44 41 -41 4 -36 0 -31 0 -28 4 -25 4 -22 4 
-19 4 -14 0 -11 4 -8 4 -5 4 -3 4 *
So

0100000
+2 0 *

+1 1 