
CASCADE Topology V1, (c) Matra-Datavision
Locations 15
1
1.000000000000000 0.000000000000000 0.000000000000000 0.000000000000000 
0.000000000000000 0.000000000000000 -1.000000000000000 0.000000000000000 
0.000000000000000 1.000000000000000 0.000000000000000 0.000000000000000 
1
1.000000000000000 0.000000000000000 0.000000000000000 0.000000000000000 
0.000000000000000 1.000000000000000 0.000000000000000 0.000000000000000 
0.000000000000000 0.000000000000000 1.000000000000000 0.000000000000000 
2  2 -1 0
1
1.000000000000000 0.000000000000000 0.000000000000000 0.000000000000000 
0.000000000000000 1.000000000000000 0.000000000000000 0.000000000000000 
0.000000000000000 0.000000000000000 1.000000000000000 0.000000000000000 
1
1.000000000000000 0.000000000000000 0.000000000000000 0.000000000000000 
0.000000000000000 0.000000000000000 -1.000000000000000 0.000000000000000 
0.000000000000000 1.000000000000000 0.000000000000000 0.000000000000000 
1
1.000000000000000 0.000000000000000 0.000000000000000 0.000000000000000 
0.000000000000000 -0.000000000000000 -1.000000000000000 0.000000000000000 
0.000000000000000 1.000000000000000 -0.000000000000000 0.000000000000000 
2  4 1 5 1 6 -1 2 1 0
2  2 -1 6 1 5 -1 4 -1 0
1
1.000000000000000 0.000000000000000 0.000000000000000 0.000000000000000 
0.000000000000000 1.000000000000000 0.000000000000000 0.000000000000004 
0.000000000000000 0.000000000000000 1.000000000000000 10.000000000000000 
2  4 1 5 1 6 -1 9 1 2 1 0
2  2 -1 9 -1 6 1 5 -1 4 -1 0
2  6 -1 2 1 0
2  2 -1 6 1 0
2  6 -1 9 1 2 1 0
2  2 -1 9 -1 6 1 0
Curve2ds 48
1 0.00000000000000000 0.00000000000000000 0.00000000000000000 1.00000000000000000 
1 1.00000000000000000 0.00000000000000000 0.00000000000000000 -1.00000000000000000 
1 0.00000000000000000 0.00000000000000000 0.00000000000000000 1.00000000000000000 
1 24.39999999999999858 0.00000000000000000 0.00000000000000000 -1.00000000000000000 
1 0.00000000000000000 -0.00000000000000000 1.00000000000000000 0.00000000000000000 
2 -6.83828125000251763 16.56171874999748184 -1.00000000000000000 0.00000000000000000 0.00000000000000000 1.00000000000000000 1.00000000000000000
1 0.00000000000000089 0.00000000000000000 1.00000000000000000 0.00000000000000000 
2 -6.83828125000251763 -6.83828125000251763 -1.00000000000000000 0.00000000000000000 -0.00000000000000000 -1.00000000000000000 1.00000000000000000
1 -3.14159265358979312 -0.00000000000000000 1.00000000000000000 0.00000000000000000 
2 -5.66328124999100435 16.56171874999748184 -1.00000000000000000 0.00000000000000000 -0.00000000000000000 -1.00000000000000000 1.00000000000000000
1 -1.57079632679489656 0.00000000000000000 1.00000000000000000 0.00000000000000000 
2 16.56171874999748184 -6.83828125000251763 -1.00000000000000000 0.00000000000000000 -0.00000000000000000 -1.00000000000000000 1.00000000000000000
1 -4.71238898038468879 0.00000000000000000 1.00000000000000000 0.00000000000000000 
2 -3.66328124999100346 -3.66328125000251781 -1.00000000000000000 0.00000000000000000 0.00000000000000000 1.00000000000000000 1.00000000000000000
1 -3.14159265358979312 0.00000000000000000 1.00000000000000000 0.00000000000000000 
2 16.56171874999748184 -5.66328125000251781 -1.00000000000000000 0.00000000000000000 -0.00000000000000000 -1.00000000000000000 1.00000000000000000
1 1.57079632679489656 0.00000000000000000 0.00000000000000000 1.00000000000000000 
1 2.17500000001151372 0.00000000000000000 0.00000000000000000 -1.00000000000000000 
1 0.00000000000000000 10.00000000000000000 1.00000000000000000 0.00000000000000000 
2 -6.83828125000251763 16.56171874999748184 -1.00000000000000000 0.00000000000000000 0.00000000000000000 1.00000000000000000 1.00000000000000000
1 1.57079632679489656 0.00000000000000000 0.00000000000000000 1.00000000000000000 
1 0.99999999999999967 0.00000000000000000 0.00000000000000000 -1.00000000000000000 
1 0.00000000000000089 10.00000000000000000 1.00000000000000000 0.00000000000000000 
2 -6.83828125000251763 -6.83828125000251763 -1.00000000000000000 0.00000000000000000 -0.00000000000000000 -1.00000000000000000 1.00000000000000000
1 -3.14159265358979312 10.00000000000000000 1.00000000000000000 0.00000000000000000 
2 -5.66328124999100435 16.56171874999748184 -1.00000000000000000 0.00000000000000000 -0.00000000000000000 -1.00000000000000000 1.00000000000000000
1 -1.57079632679489656 10.00000000000000000 1.00000000000000000 0.00000000000000000 
2 16.56171874999748184 -6.83828125000251763 -1.00000000000000000 0.00000000000000000 -0.00000000000000000 -1.00000000000000000 1.00000000000000000
1 -4.71238898038468879 10.00000000000000000 1.00000000000000000 0.00000000000000000 
2 -3.66328124999100346 -3.66328125000251781 -1.00000000000000000 0.00000000000000000 0.00000000000000000 1.00000000000000000 1.00000000000000000
1 -3.14159265358979312 10.00000000000000000 1.00000000000000000 0.00000000000000000 
2 16.56171874999748184 -5.66328125000251781 -1.00000000000000000 0.00000000000000000 -0.00000000000000000 -1.00000000000000000 1.00000000000000000
1 1.57079632679489656 0.00000000000000000 0.00000000000000000 1.00000000000000000 
1 1.00000000000000000 0.00000000000000000 0.00000000000000000 -1.00000000000000000 
1 0.00000000000000000 0.00000000000000000 0.00000000000000000 1.00000000000000000 
1 24.39999999999999858 0.00000000000000000 0.00000000000000000 -1.00000000000000000 
1 0.00000000000000000 0.00000000000000000 0.00000000000000000 1.00000000000000000 
1 21.22499999999999787 0.00000000000000000 0.00000000000000000 -1.00000000000000000 
1 1.57079632679489656 0.00000000000000000 0.00000000000000000 1.00000000000000000 
1 0.99999999999999967 0.00000000000000000 0.00000000000000000 -1.00000000000000000 
1 1.57079632679489656 0.00000000000000000 0.00000000000000000 1.00000000000000000 
1 1.00000000000000000 0.00000000000000000 0.00000000000000000 -1.00000000000000000 
1 0.00000000000000000 0.00000000000000000 0.00000000000000000 1.00000000000000000 
1 2.17499999999999982 0.00000000000000000 0.00000000000000000 -1.00000000000000000 
1 0.00000000000000000 0.00000000000000000 0.00000000000000000 1.00000000000000000 
1 21.22499999998848352 0.00000000000000000 0.00000000000000000 -1.00000000000000000 
1 1.57079632679489656 0.00000000000000000 0.00000000000000000 1.00000000000000000 
1 1.00000000000000000 0.00000000000000000 0.00000000000000000 -1.00000000000000000 
Curves 30
1 25.39999999999999858 0.00000000000000000 0.00000000000000000 -1.00000000000000000 0.00000000000000000 0.00000000000000000 
1 24.39999999999999858 -0.00000000000000022 0.00000000000000000 0.00000000000000000 0.00000000000000044 1.00000000000000000 
1 0.99999999999999978 -0.00000000000000022 0.00000000000000000 0.00000000000000000 0.00000000000000044 1.00000000000000000 
8 0.00000000000000000 1.57079632679489611
2 24.39999999999999858 0.99999999999999978 -0.00000000000000044 0.00000000000000000 0.00000000000000044 1.00000000000000000 0.00000000000000000 -1.00000000000000000 0.00000000000000044 1.00000000000000000 0.00000000000000000 -0.00000000000000000 1.00000000000000000
8 -0.00000000000000089 1.57079632679489656
2 0.99999999999999978 0.99999999999999978 -0.00000000000000044 -0.00000000000000000 -0.00000000000000044 -1.00000000000000000 0.00000000000000000 -1.00000000000000000 0.00000000000000044 -1.00000000000000000 0.00000000000000000 0.00000000000000000 1.00000000000000000
1 25.39999999999999858 3.17500000001151328 0.00000000000000000 0.00000000000000000 -1.00000000000000000 0.00000000000000000 
1 0.00000000000000000 0.00000000000000000 0.00000000000000000 0.00000000000000000 1.00000000000000000 0.00000000000000000 
8 3.14159265358979312 4.71238898038468967
2 24.39999999999999858 2.17500000001151328 -0.00000000000000097 -0.00000000000000000 -0.00000000000000044 -1.00000000000000000 0.00000000000000000 -1.00000000000000000 0.00000000000000044 -1.00000000000000000 0.00000000000000000 0.00000000000000000 1.00000000000000000
8 1.57079632679489656 3.14159265358979312
2 0.99999999999999978 24.39999999999999858 -0.00000000000001084 -0.00000000000000000 -0.00000000000000044 -1.00000000000000000 0.00000000000000000 -1.00000000000000000 0.00000000000000044 -1.00000000000000000 0.00000000000000000 0.00000000000000000 1.00000000000000000
1 3.17499999999999982 3.17500000001151328 0.00000000000000000 1.00000000000000000 0.00000000000000000 0.00000000000000000 
1 0.00000000000000000 25.39999999999999858 0.00000000000000000 1.00000000000000000 0.00000000000000000 0.00000000000000000 
8 4.71238898038468879 6.28318530717958623
2 4.17499999999999982 4.17500000001151417 -0.00000000000000185 0.00000000000000000 0.00000000000000044 1.00000000000000000 0.00000000000000000 -1.00000000000000000 0.00000000000000044 1.00000000000000000 0.00000000000000000 -0.00000000000000000 1.00000000000000000
8 3.14159265358979312 4.71238898038468967
2 2.17499999999999982 24.39999999999999858 -0.00000000000001084 -0.00000000000000000 -0.00000000000000044 -1.00000000000000000 0.00000000000000000 -1.00000000000000000 0.00000000000000044 -1.00000000000000000 0.00000000000000000 0.00000000000000000 1.00000000000000000
1 3.17499999999999982 25.39999999999999858 0.00000000000000000 0.00000000000000000 -1.00000000000000000 0.00000000000000000 
1 25.39999999999999858 0.99999999999999967 -0.00000000000000044 0.00000000000000000 0.00000000000000044 1.00000000000000000 
8 0.00000000000000000 1.57079632679489634
2 24.39999999999999858 1.00000000000000422 10.00000000000000000 0.00000000000000000 0.00000000000000044 1.00000000000000000 0.00000000000000000 -1.00000000000000000 0.00000000000000044 1.00000000000000000 0.00000000000000000 -0.00000000000000000 1.00000000000000000
1 -0.00000000000000022 0.99999999999999967 -0.00000000000000044 0.00000000000000000 0.00000000000000044 1.00000000000000000 
8 -0.00000000000000089 1.57079632679489656
2 0.99999999999999978 1.00000000000000422 10.00000000000000000 -0.00000000000000000 -0.00000000000000044 -1.00000000000000000 0.00000000000000000 -1.00000000000000000 0.00000000000000044 -1.00000000000000000 0.00000000000000000 0.00000000000000000 1.00000000000000000
8 3.14159265358979312 4.71238898038468967
2 24.39999999999999858 2.17500000001151772 9.99999999999999822 -0.00000000000000000 -0.00000000000000044 -1.00000000000000000 0.00000000000000000 -1.00000000000000000 0.00000000000000044 -1.00000000000000000 0.00000000000000000 0.00000000000000000 1.00000000000000000
8 1.57079632679489656 3.14159265358979312
2 0.99999999999999978 24.40000000000000213 9.99999999999998934 -0.00000000000000000 -0.00000000000000044 -1.00000000000000000 0.00000000000000000 -1.00000000000000000 0.00000000000000044 -1.00000000000000000 0.00000000000000000 0.00000000000000000 1.00000000000000000
8 4.71238898038468879 6.28318530717958623
2 4.17499999999999982 4.17500000001151861 9.99999999999999822 0.00000000000000000 0.00000000000000044 1.00000000000000000 0.00000000000000000 -1.00000000000000000 0.00000000000000044 1.00000000000000000 0.00000000000000000 -0.00000000000000000 1.00000000000000000
8 3.14159265358979312 4.71238898038468967
2 2.17499999999999982 24.40000000000000213 9.99999999999998934 -0.00000000000000000 -0.00000000000000044 -1.00000000000000000 0.00000000000000000 -1.00000000000000000 0.00000000000000044 -1.00000000000000000 0.00000000000000000 0.00000000000000000 1.00000000000000000
1 25.39999999999999858 2.17500000001151328 -0.00000000000000097 0.00000000000000000 0.00000000000000044 1.00000000000000000 
1 -0.00000000000000022 24.39999999999999858 -0.00000000000001084 0.00000000000000000 0.00000000000000044 1.00000000000000000 
1 24.39999999999999858 3.17500000001151328 -0.00000000000000141 0.00000000000000000 0.00000000000000044 1.00000000000000000 
1 0.99999999999999967 25.39999999999999858 -0.00000000000001128 0.00000000000000000 0.00000000000000044 1.00000000000000000 
1 4.17499999999999982 3.17500000001151417 -0.00000000000000141 0.00000000000000000 0.00000000000000044 1.00000000000000000 
1 2.17499999999999982 25.39999999999999858 -0.00000000000001128 0.00000000000000000 0.00000000000000044 1.00000000000000000 
1 3.17499999999999982 4.17500000001151417 -0.00000000000000185 0.00000000000000000 0.00000000000000044 1.00000000000000000 
1 3.17499999999999982 24.39999999999999858 -0.00000000000001084 0.00000000000000000 0.00000000000000044 1.00000000000000000 
Polygon3D 0
PolygonOnTriangulations 0
Surfaces 13
1 25.39999999999999858 0.00000000000000000 0.00000000000000000 0.00000000000000000 -1.00000000000000000 0.00000000000000044 -1.00000000000000000 0.00000000000000000 0.00000000000000000 -0.00000000000000000 -0.00000000000000044 -1.00000000000000000 
2 24.39999999999999858 0.99999999999999978 -0.00000000000000044 0.00000000000000000 0.00000000000000044 1.00000000000000000 0.00000000000000000 -1.00000000000000000 0.00000000000000044 1.00000000000000000 0.00000000000000000 -0.00000000000000000 1.00000000000000000
2 0.99999999999999978 0.99999999999999978 -0.00000000000000044 0.00000000000000000 0.00000000000000044 1.00000000000000000 0.00000000000000000 -1.00000000000000000 0.00000000000000044 -1.00000000000000000 -0.00000000000000000 0.00000000000000000 1.00000000000000000
1 7.83828125000251763 0.00000000000000174 7.83828125000251763 -0.00000000000000000 1.00000000000000000 -0.00000000000000022 0.00000000000000000 0.00000000000000022 1.00000000000000000 1.00000000000000000 0.00000000000000000 -0.00000000000000000 
2 24.39999999999999858 2.17500000001151328 -0.00000000000000097 0.00000000000000000 0.00000000000000044 1.00000000000000000 0.00000000000000000 1.00000000000000000 -0.00000000000000044 1.00000000000000000 -0.00000000000000000 -0.00000000000000000 1.00000000000000000
2 0.99999999999999978 24.39999999999999858 -0.00000000000001084 0.00000000000000000 0.00000000000000044 1.00000000000000000 -1.00000000000000000 0.00000000000000000 0.00000000000000000 -0.00000000000000000 1.00000000000000000 -0.00000000000000044 1.00000000000000000
2 4.17499999999999982 4.17500000001151417 -0.00000000000000185 0.00000000000000000 0.00000000000000044 1.00000000000000000 -1.00000000000000000 0.00000000000000000 0.00000000000000000 0.00000000000000000 -1.00000000000000000 0.00000000000000044 1.00000000000000000
2 2.17499999999999982 24.39999999999999858 -0.00000000000001084 0.00000000000000000 0.00000000000000044 1.00000000000000000 0.00000000000000000 1.00000000000000000 -0.00000000000000044 1.00000000000000000 -0.00000000000000000 -0.00000000000000000 1.00000000000000000
1 25.39999999999999858 3.17500000001151328 -0.00000000000000141 1.00000000000000000 0.00000000000000000 -0.00000000000000000 0.00000000000000000 -1.00000000000000000 0.00000000000000044 0.00000000000000000 -0.00000000000000044 -1.00000000000000000 
1 0.00000000000000000 0.00000000000000000 0.00000000000000000 -1.00000000000000000 0.00000000000000000 0.00000000000000000 0.00000000000000000 1.00000000000000000 -0.00000000000000044 -0.00000000000000000 -0.00000000000000044 -1.00000000000000000 
1 3.17499999999999982 3.17500000001151328 -0.00000000000000141 0.00000000000000000 1.00000000000000000 -0.00000000000000044 1.00000000000000000 0.00000000000000000 0.00000000000000000 0.00000000000000000 -0.00000000000000044 -1.00000000000000000 
1 0.00000000000000000 25.39999999999999858 -0.00000000000001128 0.00000000000000000 1.00000000000000000 -0.00000000000000044 1.00000000000000000 0.00000000000000000 0.00000000000000000 0.00000000000000000 -0.00000000000000044 -1.00000000000000000 
1 3.17499999999999982 25.39999999999999858 -0.00000000000001128 1.00000000000000000 0.00000000000000000 -0.00000000000000000 0.00000000000000000 -1.00000000000000000 0.00000000000000044 0.00000000000000000 -0.00000000000000044 -1.00000000000000000 
Triangulations 0

TShapes 90
Ve
0.000000100000000
24.399999999999999 -0.000000000000000 0.000000000000000
0 0

0101101
*
Ve
0.000000100000000
1.000000000000000 -0.000000000000000 0.000000000000000
0 0

0101101
*
Ed
 0.000000100000000 1 1 0
1  1 0 1.000000000000000 24.399999999999999
0

0101000
+90 8 -89 8 *
Ve
0.000000100000000
24.399999999999999 0.000000000000004 10.000000000000000
0 0

0101101
*
Ed
 0.000000100000000 1 1 0
1  2 0 -0.000000000000000 10.000000000000000
2  1 2 0 -0.000000000000000 10.000000000000000
2  2 1 2 -0.000000000000000 10.000000000000000
4 G1 2 0 1 2
0

0101000
+90 0 -87 0 *
Ve
0.000000100000000
1.000000000000000 0.000000000000004 10.000000000000000
0 0

0101101
*
Ed
 0.000000100000000 1 1 0
1  3 0 -0.000000000000000 10.000000000000000
2  3 3 0 -0.000000000000000 10.000000000000000
2  4 1 2 -0.000000000000000 10.000000000000000
4 G1 3 0 1 2
0

0101000
+89 0 -85 0 *
Ed
 0.000000100000000 1 1 0
1  1 0 1.000000000000000 24.399999999999999
0

0101000
+87 11 -85 11 *
Wi

0101100
-88 7 +86 0 -84 0 +83 10 *
Fa
0  0.000000100000000 1 0

0111000
+82 3 *
Ve
0.000000100000000
25.399999999999999 1.000000000000000 -0.000000000000000
0 0

0101101
*
Ed
 0.000000100000000 1 1 0
1  4 0 0.000000000000000 1.570796326794896
2  5 2 0 0.000000000000000 1.570796326794896
2  6 4 12 0.000000000000000 1.570796326794896
0

0101000
+90 0 -80 0 *
Ve
0.000000100000000
-0.000000000000000 1.000000000000000 -0.000000000000000
0 0

0101101
*
Ed
 0.000000100000000 1 1 0
1  5 0 -0.000000000000001 1.570796326794897
2  7 3 0 -0.000000000000001 1.570796326794897
2  8 4 12 -0.000000000000001 1.570796326794897
0

0101000
+89 0 -78 0 *
Ve
0.000000100000000
25.399999999999999 2.175000000011513 -0.000000000000001
0 0

0101101
*
Ed
 0.000000100000000 1 1 0
1  6 0 1.000000000000000 2.175000000011514
0

0101000
+76 8 -80 8 *
Ve
0.000000100000000
-0.000000000000000 24.399999999999999 -0.000000000000011
0 0

0101101
*
Ed
 0.000000100000000 1 1 0
1  7 0 1.000000000000000 24.399999999999999
0

0101000
+78 8 -74 8 *
Ve
0.000000100000000
24.399999999999999 3.175000000011513 -0.000000000000001
0 0

0101101
*
Ed
 0.000000100000000 1 1 0
1  8 0 3.141592653589793 4.712388980384690
2  9 5 0 3.141592653589793 4.712388980384690
2  10 4 12 3.141592653589793 4.712388980384690
0

0101000
+72 0 -76 0 *
Ve
0.000000100000000
1.000000000000000 25.399999999999999 -0.000000000000011
0 0

0101101
*
Ed
 0.000000100000000 1 1 0
1  9 0 1.570796326794897 3.141592653589793
2  11 6 0 1.570796326794897 3.141592653589793
2  12 4 12 1.570796326794897 3.141592653589793
0

0101000
+74 0 -70 0 *
Ve
0.000000100000000
4.175000000000000 3.175000000011514 -0.000000000000001
0 0

0101101
*
Ed
 0.000000100000000 1 1 0
1  10 0 1.000000000000000 21.224999999999998
0

0101000
+68 8 -72 8 *
Ve
0.000000100000000
2.175000000000000 25.399999999999999 -0.000000000000011
0 0

0101101
*
Ed
 0.000000100000000 1 1 0
1  11 0 1.000000000000000 2.175000000000000
0

0101000
+70 8 -66 8 *
Ve
0.000000100000000
3.175000000000000 4.175000000011514 -0.000000000000002
0 0

0101101
*
Ed
 0.000000100000000 1 1 0
1  12 0 4.712388980384689 6.283185307179586
2  13 7 0 4.712388980384689 6.283185307179586
2  14 4 12 4.712388980384689 6.283185307179586
0

0101000
+64 0 -68 0 *
Ve
0.000000100000000
3.175000000000000 24.399999999999999 -0.000000000000011
0 0

0101101
*
Ed
 0.000000100000000 1 1 0
1  13 0 3.141592653589793 4.712388980384690
2  15 8 0 3.141592653589793 4.712388980384690
2  16 4 12 3.141592653589793 4.712388980384690
0

0101000
+66 0 -62 0 *
Ed
 0.000000100000000 1 1 0
1  14 0 1.000000000000000 21.224999999988484
0

0101000
+62 8 -64 8 *
Wi

0101100
+88 7 -79 0 +77 0 +75 7 +73 7 +71 0 +69 0 +67 7 +65 7 +63 0 
+61 0 +60 7 *
Fa
0  0.000000100000000 4 0

0111000
+59 13 *
Ve
0.000000100000000
25.399999999999999 1.000000000000004 10.000000000000000
0 0

0101101
*
Ed
 0.000000100000000 1 1 0
1  15 0 -0.000000000000000 10.000000000000000
2  17 2 0 -0.000000000000000 10.000000000000000
2  18 9 2 -0.000000000000000 10.000000000000000
4 G1 2 0 9 2
0

0101000
+80 0 -57 0 *
Ed
 0.000000100000000 1 1 0
1  16 0 0.000000000000000 1.570796326794896
2  19 2 0 0.000000000000000 1.570796326794896
2  20 4 14 0.000000000000000 1.570796326794896
0

0101000
+87 0 -57 0 *
Wi

0101100
+79 0 -86 0 +56 0 -55 0 *
Fa
0  0.000000000000000 2 0

0111000
+54 0 *
Ve
0.000000100000000
-0.000000000000000 1.000000000000004 10.000000000000000
0 0

0101101
*
Ed
 0.000000100000000 1 1 0
1  17 0 -0.000000000000000 10.000000000000000
2  21 3 0 -0.000000000000000 10.000000000000000
2  22 10 2 -0.000000000000000 10.000000000000000
4 G1 3 0 10 2
0

0101000
+78 0 -52 0 *
Ed
 0.000000100000000 1 1 0
1  18 0 -0.000000000000001 1.570796326794897
2  23 3 0 -0.000000000000001 1.570796326794897
2  24 4 14 -0.000000000000001 1.570796326794897
0

0101000
+85 0 -52 0 *
Wi

0101100
+77 0 -84 0 +51 0 -50 0 *
Fa
0  0.000000000000000 3 0

0111000
+49 0 *
Ve
0.000000100000000
25.399999999999999 2.175000000011518 9.999999999999998
0 0

0101101
*
Ed
 0.000000100000000 1 1 0
1  6 0 1.000000000000000 2.175000000011514
0

0101000
+47 11 -57 11 *
Ve
0.000000100000000
-0.000000000000000 24.400000000000002 9.999999999999989
0 0

0101101
*
Ed
 0.000000100000000 1 1 0
1  7 0 1.000000000000000 24.399999999999999
0

0101000
+52 11 -45 11 *
Ve
0.000000100000000
24.399999999999999 3.175000000011518 9.999999999999998
0 0

0101101
*
Ed
 0.000000100000000 1 1 0
1  19 0 3.141592653589793 4.712388980384690
2  25 5 0 3.141592653589793 4.712388980384690
2  26 4 14 3.141592653589793 4.712388980384690
0

0101000
+43 0 -47 0 *
Ve
0.000000100000000
1.000000000000000 25.400000000000002 9.999999999999989
0 0

0101101
*
Ed
 0.000000100000000 1 1 0
1  20 0 1.570796326794897 3.141592653589793
2  27 6 0 1.570796326794897 3.141592653589793
2  28 4 14 1.570796326794897 3.141592653589793
0

0101000
+45 0 -41 0 *
Ve
0.000000100000000
4.175000000000000 3.175000000011519 9.999999999999998
0 0

0101101
*
Ed
 0.000000100000000 1 1 0
1  10 0 1.000000000000000 21.224999999999998
0

0101000
+39 11 -43 11 *
Ve
0.000000100000000
2.175000000000000 25.400000000000002 9.999999999999989
0 0

0101101
*
Ed
 0.000000100000000 1 1 0
1  11 0 1.000000000000000 2.175000000000000
0

0101000
+41 11 -37 11 *
Ve
0.000000100000000
3.175000000000000 4.175000000011519 9.999999999999998
0 0

0101101
*
Ed
 0.000000100000000 1 1 0
1  21 0 4.712388980384689 6.283185307179586
2  29 7 0 4.712388980384689 6.283185307179586
2  30 4 14 4.712388980384689 6.283185307179586
0

0101000
+35 0 -39 0 *
Ve
0.000000100000000
3.175000000000000 24.400000000000002 9.999999999999989
0 0

0101101
*
Ed
 0.000000100000000 1 1 0
1  22 0 3.141592653589793 4.712388980384690
2  31 8 0 3.141592653589793 4.712388980384690
2  32 4 14 3.141592653589793 4.712388980384690
0

0101000
+37 0 -33 0 *
Ed
 0.000000100000000 1 1 0
1  14 0 0.999999999999999 21.224999999988484
0

0101000
+33 11 -35 11 *
Wi

0101100
+83 10 -55 0 +50 0 +46 10 +44 10 +42 0 +40 0 +38 10 +36 10 +34 0 
+32 0 +31 10 *
Fa
0  0.000000100000000 4 0

0111000
+30 15 *
Ed
 0.000000100000000 1 1 0
1  23 0 -0.000000000000000 10.000000000000000
2  33 5 0 -0.000000000000000 10.000000000000000
2  34 9 2 -0.000000000000000 10.000000000000000
4 G1 5 0 9 2
0

0101000
+76 0 -47 0 *
Wi

0101100
-75 7 +28 0 -56 0 +46 10 *
Fa
0  0.000000100000000 9 0

0111000
+27 3 *
Ed
 0.000000100000000 1 1 0
1  24 0 -0.000000000000000 10.000000000000000
2  35 6 0 -0.000000000000000 10.000000000000000
2  36 10 2 -0.000000000000000 10.000000000000000
4 G1 6 0 10 2
0

0101000
+74 0 -45 0 *
Wi

0101100
-73 7 +51 0 -25 0 +44 10 *
Fa
0  0.000000100000000 10 0

0111000
+24 3 *
Ed
 0.000000100000000 1 1 0
1  25 0 -0.000000000000000 10.000000000000000
2  37 5 0 -0.000000000000000 10.000000000000000
2  38 11 2 -0.000000000000000 10.000000000000000
4 G1 5 0 11 2
0

0101000
+72 0 -43 0 *
Wi

0101100
+71 0 -22 0 +28 0 -42 0 *
Fa
0  0.000000000000000 5 0

0111000
+21 0 *
Ed
 0.000000100000000 1 1 0
1  26 0 -0.000000000000000 10.000000000000000
2  39 6 0 -0.000000000000000 10.000000000000000
2  40 12 2 -0.000000000000000 10.000000000000000
4 G1 6 0 12 2
0

0101000
+70 0 -41 0 *
Wi

0101100
+69 0 -25 0 +19 0 -40 0 *
Fa
0  0.000000000000000 6 0

0111000
+18 0 *
Ed
 0.000000100000000 1 1 0
1  27 0 -0.000000000000000 10.000000000000000
2  41 7 0 -0.000000000000000 10.000000000000000
2  42 11 2 -0.000000000000000 10.000000000000000
4 G1 7 0 11 2
0

0101000
+68 0 -39 0 *
Wi

0101100
-67 7 +16 0 -22 0 +38 10 *
Fa
0  0.000000100000000 11 0

0111000
+15 3 *
Ed
 0.000000100000000 1 1 0
1  28 0 -0.000000000000000 10.000000000000000
2  43 8 0 -0.000000000000000 10.000000000000000
2  44 12 2 -0.000000000000000 10.000000000000000
4 G1 8 0 12 2
0

0101000
+66 0 -37 0 *
Wi

0101100
-65 7 +19 0 -13 0 +36 10 *
Fa
0  0.000000100000000 12 0

0111000
+12 3 *
Ed
 0.000000100000000 1 1 0
1  29 0 -0.000000000000000 10.000000000000000
2  45 7 0 -0.000000000000000 10.000000000000000
2  46 13 2 -0.000000000000000 10.000000000000000
4 G1 7 0 13 2
0

0101000
+64 0 -35 0 *
Wi

0101100
+63 0 -10 0 +16 0 -34 0 *
Fa
0  0.000000000000000 7 0

0111000
+9 0 *
Ed
 0.000000100000000 1 1 0
1  30 0 -0.000000000000000 10.000000000000000
2  47 8 0 -0.000000000000000 10.000000000000000
2  48 13 2 -0.000000000000000 10.000000000000000
4 G1 8 0 13 2
0

0101000
+62 0 -33 0 *
Wi

0101100
+61 0 -13 0 +7 0 -32 0 *
Fa
0  0.000000000000000 8 0

0111000
+6 0 *
Wi

0101100
-60 7 +7 0 -10 0 +31 10 *
Fa
0  0.000000100000000 13 0

0111000
+4 3 *
Sh

0101100
+81 2 +58 12 +53 0 -48 0 -29 14 +26 2 +23 2 -20 0 -17 0 +14 2 
+11 2 -8 0 -5 0 +3 2 *
So

0100000
+2 0 *

+1 1 