
CASCADE Topology V1, (c) Matra-Datavision
Locations 7
1
1.000000000000000 0.000000000000000 0.000000000000000 0.000000000000000 
0.000000000000000 1.000000000000000 0.000000000000000 0.000000000000000 
0.000000000000000 0.000000000000000 1.000000000000000 0.000000000000000 
1
1.000000000000000 0.000000000000000 0.000000000000000 0.000000000000000 
0.000000000000000 1.000000000000000 0.000000000000000 0.000000000000000 
0.000000000000000 0.000000000000000 1.000000000000000 0.000000000000000 
2  2 -1 0
1
1.000000000000000 0.000000000000000 0.000000000000000 0.000000000000000 
0.000000000000000 1.000000000000000 0.000000000000000 0.000000000000000 
0.000000000000000 0.000000000000000 1.000000000000000 0.000000000000000 
1
1.000000000000000 0.000000000000000 0.000000000000000 0.000000000000000 
0.000000000000000 1.000000000000000 0.000000000000000 0.000000000000000 
0.000000000000000 0.000000000000000 1.000000000000000 -1.000000000000000 
2  4 1 5 1 0
2  2 -1 5 -1 4 -1 0
Curve2ds 32
1 0.00000000000000000 0.00000000000000000 1.00000000000000000 0.00000000000000000 
1 0.00000000000000000 0.59396969619669981 1.00000000000000000 0.00000000000000000 
1 0.00000000000000000 0.00000000000000000 1.00000000000000000 0.00000000000000000 
1 6.28318530717958623 0.00000000000000000 0.00000000000000000 1.00000000000000000 
1 0.00000000000000000 0.00000000000000000 0.00000000000000000 1.00000000000000000 
1 0.00000000000000000 0.00000000000000000 1.00000000000000000 0.00000000000000000 
1 0.00000000000000000 3.81000000000000050 1.00000000000000000 0.00000000000000000 
1 0.00000000000000000 0.00000000000000000 1.00000000000000000 0.00000000000000000 
1 6.28318530717958623 0.00000000000000000 0.00000000000000000 1.00000000000000000 
1 0.00000000000000000 0.00000000000000000 0.00000000000000000 1.00000000000000000 
7 0 0  6 12 3  1.04719755119659719 0.00000000000000031  0.96791203862190167 0.07475109812189151  0.88427156201309742 0.13307770873297464  0.79687274149624443 0.17610753467188900  0.70670039658090644 0.20455556335899239  0.61514979965397432 0.21877959948235695  0.43204775154262282 0.21877959948235690  0.34049715461571139 0.20455556335898883  0.25032480970030591 0.17610753467189610  0.16292598918352041 0.13307770873297109  0.07928551257469546 0.07475109812189112  0.00000000000000000 -0.00000000000000016 
 -0.54930614433405434 7 0.00000000000000000 5 0.54930614433405478 7
7 0 0  6 12 3  6.28318530717958623 -0.00000000000000016  6.20389979460489105 0.07475109812189125  6.12025931799615819 0.13307770873297109  6.03286049747907782 0.17610753467189610  5.94268815256390326 0.20455556335898706  5.85113755563696269 0.21877959948235726  5.66803550752561147 0.21877959948235726  5.57648491059882190 0.20455556335899061  5.48631256568285153 0.17610753467188545  5.39891374516668066 0.13307770873297464  5.31527326855768312 0.07475109812189111  5.23598775598298793 -0.00000000000000031 
 -0.54930614433405511 7 0.00000000000000011 5 0.54930614433405534 7
7 0 0  6 12 3  5.23598775598298793 0.00000000000000016  5.15670224340829275 0.07475109812189143  5.07306176679963983 0.13307770873296754  4.98566294628244577 0.17610753467190321  4.89549060136744174 0.20455556335898706  4.80394000444036440 0.21877959948235695  4.62083795632901317 0.21877959948235690  4.52928735940207616 0.20455556335899061  4.43911501448644685 0.17610753467189610  4.35171619396993492 0.13307770873297287  4.26807571736108482 0.07475109812189136  4.18879020478638964 0.00000000000000000 
 -0.54930614433405467 7 0.00000000000000011 5 0.54930614433405478 7
7 0 0  6 12 3  4.18879020478638964 0.00000000000000063  4.10950469221169445 0.07475109812189173  4.02586421560295094 0.13307770873297109  3.93846539508581373 0.17610753467189255  3.84829305017080969 0.20455556335898706  3.75674245324376654 0.21877959948235701  3.57364040513241532 0.21877959948235684  3.48208980820555780 0.20455556335898528  3.39191746328987165 0.17610753467189966  3.30451864277335972 0.13307770873296931  3.22087816616448830 0.07475109812189111  3.14159265358979267 -0.00000000000000016 
 -0.54930614433405400 7 0.00000000000000044 5 0.54930614433405489 7
7 0 0  6 12 3  3.14159265358979223 0.00000000000000016  3.06230714101509660 0.07475109812189132  2.97866666440623362 0.13307770873297464  2.89126784388946589 0.17610753467189255  2.80109549897403554 0.20455556335899239  2.70954490204716958 0.21877959948235676  2.52644285393581836 0.21877959948235676  2.43489225700895418 0.20455556335899061  2.34471991209335329 0.17610753467189610  2.25732109157675609 0.13307770873297287  2.17368061496789133 0.07475109812189146  2.09439510239319571 0.00000000000000031 
 -0.54930614433405434 7 0.00000000000000000 5 0.54930614433405422 7
7 0 0  6 12 3  2.09439510239319571 -0.00000000000000031  2.01510958981850008 0.07475109812189108  1.93146911320970105 0.13307770873297109  1.84407029269277700 0.17610753467189255  1.75389794777750296 0.20455556335898883  1.66234735085057239 0.21877959948235690  1.47924530273922072 0.21877959948235695  1.38769470581232213 0.20455556335899061  1.29752236089686335 0.17610753467189255  1.21012354038012404 0.13307770873297287  1.12648306377129304 0.07475109812189136  1.04719755119659741 0.00000000000000000 
 -0.54930614433405522 7 -0.00000000000000022 5 0.54930614433405489 7
1 0.00000000000000000 1.08894444302728299 1.00000000000000000 0.00000000000000000 
1 6.28318530717958623 0.00000000000000000 0.00000000000000000 1.00000000000000000 
1 0.00000000000000000 0.00000000000000000 0.00000000000000000 1.00000000000000000 
7 0 0  6 12 3  1.12948989443754511 1.27382757799798751  1.04755885263581816 1.35431918757434255  0.96004692728575947 1.41790556772627951  0.86746974765904383 1.46602601290632606  0.77084402502362082 1.49961648112704893  0.67186900438373010 1.51919320202468744  0.47275866983489445 1.53052156052275445  0.37262459642950674 1.52227320184582027  0.27367608414057187 1.50021365315902244  0.17780110411932881 1.46402936327585564  0.08631970880334998 1.41299875870399450  0.00000000000000000 1.34592241739036522 
 -0.64677482640156680 7 -0.04873434103375607 5 0.54930614433405478 7
7 0 0  6 12 3  6.28318530717958623 1.34592241739036567  6.19686559837623641 1.41299875870399494  6.10538420306016860 1.46402936327581301  6.00950922303900370 1.50021365315907929  5.91056071075001910 1.52227320184579185  5.81042663734469134 1.53052156052275445  5.61131630279585547 1.51919320202468744  5.51234128215594410 1.49961648112710577  5.41571555952032213 1.46602601290621237  5.32313837989380545 1.41790556772632215  5.23562645454376785 1.35431918757434255  5.15369541274204046 1.27382757799798729 
 -0.54930614433405489 7 0.04873434103375618 5 0.64677482640156725 7
7 0 0  6 12 3  5.31828009922393541 1.27382757799798751  5.22967249382808852 1.36087845178375044  5.13453759073337324 1.42815662574035684  5.03352630303004389 1.47748267202771899  4.92797976606595967 1.50998873277941925  4.82018478478495016 1.52624182979771184  4.60459317598442741 1.52624182979771184  4.49679819470341613 1.50998873277947609  4.39125165773896242 1.47748267202766215  4.29024037003608782 1.42815662574041369  4.19510546694128905 1.36087845178375066  4.10649786154544216 1.27382757799798751 
 -0.64677482640156669 7 0.00000000000000000 5 0.64677482640156680 7
7 0 0  6 12 3  4.27108254802733711 1.27382757799798751  4.18247494263149022 1.36087845178375044  4.08734003953679803 1.42815662574038527  3.98632875183335500 1.47748267202763373  3.88078221486944130 1.50998873277946188  3.77298723358835231 1.52624182979771161  3.55739562478783045 1.52624182979771161  3.44960064350689777 1.50998873277943346  3.34405410654227353 1.47748267202771899  3.24304281883951262 1.42815662574035684  3.14790791574469164 1.36087845178375066  3.05930031034884520 1.27382757799798751 
 -0.64677482640156680 7 0.00000000000000000 5 0.64677482640156680 7
7 0 0  6 12 3  3.22388499683074015 1.27382757799798729  3.13527739143489370 1.36087845178375044  3.04014248834025125 1.42815662574038527  2.93913120063672295 1.47748267202766215  2.83358466367292294 1.50998873277946188  2.72578968239175534 1.52624182979771161  2.51019807359123259 1.52624182979771161  2.40240309231015203 1.50998873277947609  2.29685655534592570 1.47748267202766215  2.19584526764282373 1.42815662574039948  2.10071036454809423 1.36087845178375066  2.01210275915224779 1.27382757799798751 
 -0.64677482640156714 7 -0.00000000000000022 5 0.64677482640156680 7
7 0 0  6 12 3  2.17668744563414274 1.27382757799798751  2.08807984023829629 1.36087845178375066  1.99294493714360499 1.42815662574038527  1.89193364944026143 1.47748267202771899  1.78638711247624826 1.50998873277944767  1.67859213119515749 1.52624182979771184  1.46300052239463518 1.52624182979771184  1.35520554111354841 1.50998873277944767  1.24965900414943576 1.47748267202771899  1.14864771644620589 1.42815662574037106  1.05351281335149660 1.36087845178375066  0.96490520795565016 1.27382757799798751 
 -0.64677482640156680 7 0.00000000000000000 5 0.64677482640156680 7
1 6.28318530717958623 0.00000000000000000 0.00000000000000000 1.00000000000000000 
1 0.00000000000000000 0.00000000000000000 0.00000000000000000 1.00000000000000000 
1 0.00000000000000000 2.50519897752313847 1.00000000000000000 0.00000000000000000 
1 0.00000000000000000 1.28976142529208349 1.00000000000000000 0.00000000000000000 
1 0.00000000000000000 1.57079632679489367 1.00000000000000000 0.00000000000000000 
1 6.28318530717958623 1.28976142529208349 0.00000000000000000 1.00000000000000000 
1 0.00000000000000000 1.28976142529208349 0.00000000000000000 1.00000000000000000 
Curves 34
2 0.00000000000000000 0.00000000000000000 0.00000000000000000 0.00000000000000000 0.00000000000000000 1.00000000000000000 1.00000000000000000 0.00000000000000000 0.00000000000000000 0.00000000000000000 1.00000000000000000 0.00000000000000000 1.60000000000000009
2 0.00000000000000000 0.00000000000000000 -0.41999999999999993 0.00000000000000000 0.00000000000000000 1.00000000000000000 1.00000000000000000 0.00000000000000000 0.00000000000000000 0.00000000000000000 1.00000000000000000 0.00000000000000000 2.02000000000000002
1 1.60000000000000009 0.00000000000000000 0.00000000000000000 0.70710678118654757 0.00000000000000000 -0.70710678118654757 
2 0.00000000000000000 0.00000000000000000 0.00000000000000000 0.00000000000000000 0.00000000000000000 1.00000000000000000 1.00000000000000000 0.00000000000000000 0.00000000000000000 0.00000000000000000 1.00000000000000000 0.00000000000000000 1.15470053837925168
2 0.00000000000000000 0.00000000000000000 0.00000000000000000 0.00000000000000000 0.00000000000000000 1.00000000000000000 1.00000000000000000 0.00000000000000000 0.00000000000000000 0.00000000000000000 1.00000000000000000 0.00000000000000000 1.15470053837925168
2 0.00000000000000000 0.00000000000000000 0.00000000000000000 0.00000000000000000 0.00000000000000000 1.00000000000000000 1.00000000000000000 0.00000000000000000 0.00000000000000000 0.00000000000000000 1.00000000000000000 0.00000000000000000 1.15470053837925168
2 0.00000000000000000 0.00000000000000000 0.00000000000000000 0.00000000000000000 0.00000000000000000 1.00000000000000000 1.00000000000000000 0.00000000000000000 0.00000000000000000 0.00000000000000000 1.00000000000000000 0.00000000000000000 1.15470053837925168
2 0.00000000000000000 0.00000000000000000 0.00000000000000000 0.00000000000000000 0.00000000000000000 1.00000000000000000 1.00000000000000000 0.00000000000000000 0.00000000000000000 0.00000000000000000 1.00000000000000000 0.00000000000000000 1.15470053837925168
2 0.00000000000000000 0.00000000000000000 0.00000000000000000 0.00000000000000000 0.00000000000000000 1.00000000000000000 1.00000000000000000 0.00000000000000000 0.00000000000000000 0.00000000000000000 1.00000000000000000 0.00000000000000000 1.15470053837925168
2 0.00000000000000000 0.00000000000000000 -4.23000000000000043 0.00000000000000000 0.00000000000000000 1.00000000000000000 1.00000000000000000 0.00000000000000000 0.00000000000000000 0.00000000000000000 1.00000000000000000 0.00000000000000000 2.02000000000000002
1 2.02000000000000002 0.00000000000000000 -0.41999999999999993 0.00000000000000000 0.00000000000000000 -1.00000000000000000 
5 0.86602540378443893 0.50000000000000011 -1.15470053837925191 0.86602540378443871 0.50000000000000000 -0.00000000000000000 0.00000000000000000 0.00000000000000000 1.00000000000000000 0.50000000000000000 -0.86602540378443871 0.00000000000000000 1.00000000000000044 1.00000000000000022
5 0.86602540378443849 -0.50000000000000044 -1.15470053837925191 0.86602540378443849 -0.50000000000000044 0.00000000000000000 0.00000000000000000 0.00000000000000000 1.00000000000000000 -0.50000000000000044 -0.86602540378443849 0.00000000000000000 1.00000000000000022 1.00000000000000000
5 -0.00000000000000058 -1.00000000000000022 -1.15470053837925191 -0.00000000000000058 -1.00000000000000000 0.00000000000000000 0.00000000000000000 0.00000000000000000 1.00000000000000000 -1.00000000000000000 0.00000000000000058 0.00000000000000000 1.00000000000000044 1.00000000000000022
5 -0.86602540378443915 -0.49999999999999972 -1.15470053837925191 -0.86602540378443893 -0.49999999999999961 0.00000000000000000 0.00000000000000000 0.00000000000000000 1.00000000000000000 -0.49999999999999961 0.86602540378443893 0.00000000000000000 1.00000000000000044 1.00000000000000022
5 -0.86602540378443871 0.50000000000000056 -1.15470053837925191 -0.86602540378443849 0.50000000000000044 0.00000000000000000 0.00000000000000000 0.00000000000000000 1.00000000000000000 0.50000000000000044 0.86602540378443849 0.00000000000000000 1.00000000000000044 1.00000000000000022
5 0.00000000000000019 1.00000000000000022 -1.15470053837925191 0.00000000000000019 1.00000000000000000 -0.00000000000000000 0.00000000000000000 0.00000000000000000 1.00000000000000000 1.00000000000000000 -0.00000000000000019 0.00000000000000000 1.00000000000000044 1.00000000000000022
2 0.00000000000000000 0.00000000000000000 -5.00000000000000000 0.00000000000000000 0.00000000000000000 1.00000000000000000 1.00000000000000000 0.00000000000000000 0.00000000000000000 0.00000000000000000 1.00000000000000000 0.00000000000000000 1.25000000000000000
1 2.02000000000000002 0.00000000000000000 -4.23000000000000043 -0.70710678118654779 0.00000000000000000 -0.70710678118654735 
1 0.57735026918962595 1.00000000000000000 1.00000000000000000 0.00000000000000000 0.00000000000000000 -1.00000000000000000 
5 0.86602540378443893 0.50000000000000011 -1.71633560419277265 0.86602540378443871 0.50000000000000000 -0.00000000000000000 0.00000000000000000 0.00000000000000000 1.00000000000000000 0.50000000000000000 -0.86602540378443871 0.00000000000000000 0.59885755002792074 1.00000000000000022
1 1.15470053837925168 0.00000000000000000 1.00000000000000000 0.00000000000000000 0.00000000000000000 -1.00000000000000000 
5 0.86602540378443849 -0.50000000000000044 -1.71633560419277265 0.86602540378443849 -0.50000000000000044 0.00000000000000000 0.00000000000000000 0.00000000000000000 1.00000000000000000 -0.50000000000000044 -0.86602540378443849 0.00000000000000000 0.59885755002792063 1.00000000000000000
1 0.57735026918962506 -1.00000000000000044 1.00000000000000000 0.00000000000000000 0.00000000000000000 -1.00000000000000000 
5 -0.00000000000000058 -1.00000000000000022 -1.71633560419277265 -0.00000000000000058 -1.00000000000000000 0.00000000000000000 0.00000000000000000 0.00000000000000000 1.00000000000000000 -1.00000000000000000 0.00000000000000058 0.00000000000000000 0.59885755002792074 1.00000000000000022
1 -0.57735026918962640 -0.99999999999999978 1.00000000000000000 0.00000000000000000 0.00000000000000000 -1.00000000000000000 
5 -0.86602540378443915 -0.49999999999999972 -1.71633560419277265 -0.86602540378443893 -0.49999999999999961 0.00000000000000000 0.00000000000000000 0.00000000000000000 1.00000000000000000 -0.49999999999999961 0.86602540378443893 0.00000000000000000 0.59885755002792074 1.00000000000000022
1 -1.15470053837925168 0.00000000000000050 1.00000000000000000 0.00000000000000000 0.00000000000000000 -1.00000000000000000 
5 -0.86602540378443871 0.50000000000000056 -1.71633560419277265 -0.86602540378443849 0.50000000000000044 0.00000000000000000 0.00000000000000000 0.00000000000000000 1.00000000000000000 0.50000000000000044 0.86602540378443849 0.00000000000000000 0.59885755002792074 1.00000000000000022
1 -0.57735026918962551 1.00000000000000022 1.00000000000000000 0.00000000000000000 0.00000000000000000 -1.00000000000000000 
5 0.00000000000000019 1.00000000000000022 -1.71633560419277265 0.00000000000000019 1.00000000000000000 -0.00000000000000000 0.00000000000000000 0.00000000000000000 1.00000000000000000 1.00000000000000000 -0.00000000000000019 0.00000000000000000 0.59885755002792074 1.00000000000000022
1 2.30940107675850337 0.00000000000000000 -0.33333333333333337 -0.85792503598990688 0.00000000000000000 -0.51377488516053138 
2 0.00000000000000000 0.00000000000000000 -1.62044165031456444 0.00000000000000000 0.00000000000000000 1.00000000000000000 1.00000000000000000 0.00000000000000000 0.00000000000000000 0.00000000000000000 1.00000000000000000 0.00000000000000000 0.16012815380508710
2 0.00000000000000168 0.00000000000000000 -1.06574145408934040 0.00000000000000000 1.00000000000000000 0.00000000000000000 0.27735009811261419 0.00000000000000000 -0.96076892283052295 -0.96076892283052295 0.00000000000000000 -0.27735009811261419 0.57735026918962040
Polygon3D 0
PolygonOnTriangulations 0
Surfaces 19
3 0.00000000000000000 0.00000000000000000 0.00000000000000000 -0.00000000000000000 -0.00000000000000000 -1.00000000000000000 1.00000000000000000 0.00000000000000000 0.00000000000000000 0.00000000000000000 1.00000000000000000 0.00000000000000000 1.60000000000000009
0.78539816339744828
2 0.00000000000000000 0.00000000000000000 -0.41999999999999993 -0.00000000000000000 -0.00000000000000000 -1.00000000000000000 1.00000000000000000 0.00000000000000000 0.00000000000000000 0.00000000000000000 1.00000000000000000 0.00000000000000000 2.02000000000000002
1 0.00000000000000000 0.00000000000000000 0.00000000000000000 0.00000000000000000 0.00000000000000000 1.00000000000000000 -1.00000000000000000 0.00000000000000000 0.00000000000000000 0.00000000000000000 1.00000000000000000 0.00000000000000000 
3 0.00000000000000000 0.00000000000000000 0.00000000000000000 -0.00000000000000000 -0.00000000000000000 -1.00000000000000000 1.00000000000000000 0.00000000000000000 0.00000000000000000 0.00000000000000000 1.00000000000000000 0.00000000000000000 1.15470053837925168
-0.78539816339744828
3 0.00000000000000000 0.00000000000000000 0.00000000000000000 -0.00000000000000000 -0.00000000000000000 -1.00000000000000000 1.00000000000000000 0.00000000000000000 0.00000000000000000 0.00000000000000000 1.00000000000000000 0.00000000000000000 1.15470053837925168
-0.78539816339744828
3 0.00000000000000000 0.00000000000000000 0.00000000000000000 -0.00000000000000000 -0.00000000000000000 -1.00000000000000000 1.00000000000000000 0.00000000000000000 0.00000000000000000 0.00000000000000000 1.00000000000000000 0.00000000000000000 1.15470053837925168
-0.78539816339744828
3 0.00000000000000000 0.00000000000000000 0.00000000000000000 -0.00000000000000000 -0.00000000000000000 -1.00000000000000000 1.00000000000000000 0.00000000000000000 0.00000000000000000 0.00000000000000000 1.00000000000000000 0.00000000000000000 1.15470053837925168
-0.78539816339744828
3 0.00000000000000000 0.00000000000000000 0.00000000000000000 -0.00000000000000000 -0.00000000000000000 -1.00000000000000000 1.00000000000000000 0.00000000000000000 0.00000000000000000 0.00000000000000000 1.00000000000000000 0.00000000000000000 1.15470053837925168
-0.78539816339744828
3 0.00000000000000000 0.00000000000000000 0.00000000000000000 -0.00000000000000000 -0.00000000000000000 -1.00000000000000000 1.00000000000000000 0.00000000000000000 0.00000000000000000 0.00000000000000000 1.00000000000000000 0.00000000000000000 1.15470053837925168
-0.78539816339744828
3 0.00000000000000000 0.00000000000000000 -4.23000000000000043 -0.00000000000000000 -0.00000000000000000 -1.00000000000000000 1.00000000000000000 0.00000000000000000 0.00000000000000000 0.00000000000000000 1.00000000000000000 0.00000000000000000 2.02000000000000002
-0.78539816339744850
1 1.15470053837925168 0.00000000000000000 1.00000000000000000 0.86602540378443871 0.50000000000000000 0.00000000000000000 -0.50000000000000000 0.86602540378443871 0.00000000000000000 0.00000000000000000 0.00000000000000000 1.00000000000000000 
3 0.00000000000000000 0.00000000000000000 -0.33333333333333337 -0.00000000000000000 -0.00000000000000000 -1.00000000000000000 1.00000000000000000 0.00000000000000000 0.00000000000000000 0.00000000000000000 1.00000000000000000 0.00000000000000000 2.30940107675850337
-1.03121728668114354
1 0.57735026918962506 -1.00000000000000044 1.00000000000000000 0.86602540378443849 -0.50000000000000044 0.00000000000000000 0.50000000000000044 0.86602540378443849 0.00000000000000000 0.00000000000000000 0.00000000000000000 1.00000000000000000 
1 -0.57735026918962640 -0.99999999999999978 1.00000000000000000 -0.00000000000000058 -1.00000000000000000 -0.00000000000000000 1.00000000000000000 -0.00000000000000058 0.00000000000000000 0.00000000000000000 0.00000000000000000 1.00000000000000000 
1 -1.15470053837925168 0.00000000000000050 1.00000000000000000 -0.86602540378443893 -0.49999999999999961 -0.00000000000000000 0.49999999999999961 -0.86602540378443893 0.00000000000000000 0.00000000000000000 0.00000000000000000 1.00000000000000000 
1 -0.57735026918962551 1.00000000000000022 1.00000000000000000 -0.86602540378443849 0.50000000000000044 0.00000000000000000 -0.50000000000000044 -0.86602540378443849 0.00000000000000000 0.00000000000000000 0.00000000000000000 1.00000000000000000 
1 0.57735026918962595 1.00000000000000000 1.00000000000000000 0.00000000000000019 1.00000000000000000 0.00000000000000000 -1.00000000000000000 0.00000000000000019 0.00000000000000000 0.00000000000000000 0.00000000000000000 1.00000000000000000 
1 0.00000000000000000 0.00000000000000000 -5.00000000000000000 0.00000000000000000 0.00000000000000000 1.00000000000000000 1.00000000000000000 0.00000000000000000 0.00000000000000000 0.00000000000000000 1.00000000000000000 0.00000000000000000 
4 0.00000000000000168 0.00000000000000000 -1.06574145408934040 -0.00000000000000000 -0.00000000000000000 -1.00000000000000000 1.00000000000000000 0.00000000000000000 0.00000000000000000 0.00000000000000000 1.00000000000000000 0.00000000000000000 0.57735026918962040
Triangulations 0

TShapes 95
Ve
0.000000100000000
1.600000000000000 0.000000000000000 0.000000000000000
0 0

0101101
*
Ed
 0.000000100000000 1 1 0
1  1 0 0.000000000000000 6.283185307179586
2  1 1 0 0.000000000000000 6.283185307179586
0

0101000
+95 3 -95 3 *
Ve
0.000000100000000
2.020000000000000 0.000000000000000 -0.420000000000000
0 0

0101101
*
Ed
 0.000000100000000 1 1 0
1  2 0 0.000000000000000 6.283185307179586
2  2 1 0 0.000000000000000 6.283185307179586
2  3 2 0 0.000000000000000 6.283185307179586
0

0101000
+93 3 -93 3 *
Ed
 0.000000100000000 1 1 0
1  3 0 0.000000000000000 0.593969696196700
3  4 5CN 1 0 0.000000000000000 0.593969696196700
0

0101000
+95 3 -93 3 *
Wi

0101100
+94 0 -92 0 -91 0 +91 0 *
Fa
0  0.000000100000000 1 0

0111000
+90 0 *
Wi

0101100
-94 0 *
Ve
0.000000100000000
1.154700538379252 0.000000000000000 0.000000000000000
0 0

0101101
*
Ve
0.000000100000000
0.577350269189626 1.000000000000000 0.000000000000000
0 0

0101101
*
Ed
 0.000000100000000 1 1 0
1  4 0 0.000000000000000 1.047197551196598
2  6 4 0 0.000000000000000 1.047197551196598
0

0101000
+87 3 -86 3 *
Ve
0.000000100000000
0.577350269189625 -1.000000000000000 0.000000000000000
0 0

0101101
*
Ed
 0.000000100000000 1 1 0
1  5 0 5.235987755982988 6.283185307179586
2  6 5 0 5.235987755982988 6.283185307179586
0

0101000
+84 3 -87 3 *
Ve
0.000000100000001
-0.577350269189626 -1.000000000000000 0.000000000000000
0 0

0101101
*
Ed
 0.000000100000000 1 1 0
1  6 0 4.188790204786390 5.235987755982988
2  6 6 0 4.188790204786390 5.235987755982988
0

0101000
+82 3 -84 3 *
Ve
0.000000100000001
-1.154700538379252 0.000000000000000 0.000000000000000
0 0

0101101
*
Ed
 0.000000100000000 1 1 0
1  7 0 3.141592653589793 4.188790204786390
2  6 7 0 3.141592653589793 4.188790204786390
0

0101000
+80 3 -82 3 *
Ve
0.000000100000001
-0.577350269189626 1.000000000000000 0.000000000000000
0 0

0101101
*
Ed
 0.000000100000000 1 1 0
1  8 0 2.094395102393195 3.141592653589793
2  6 8 0 2.094395102393195 3.141592653589793
0

0101000
+78 3 -80 3 *
Ed
 0.000000100000000 1 1 0
1  9 0 1.047197551196598 2.094395102393195
2  6 9 0 1.047197551196598 2.094395102393195
0

0101000
+86 3 -78 3 *
Wi

0101100
+85 0 +83 0 +81 0 +79 0 +77 0 +76 0 *
Fa
0  0.000000100000000 3 0

0111000
+88 0 +75 0 *
Ve
0.000000100000000
2.020000000000000 0.000000000000000 -4.230000000000000
0 0

0101101
*
Ed
 0.000000100000000 1 1 0
1  10 0 0.000000000000000 6.283185307179586
2  7 2 0 0.000000000000000 6.283185307179586
2  8 10 0 0.000000000000000 6.283185307179586
0

0101000
+73 3 -73 3 *
Ed
 0.000000100000000 1 1 0
1  11 0 0.000000000000000 3.810000000000000
3  9 10CN 2 0 0.000000000000000 3.810000000000000
0

0101000
+93 3 -73 3 *
Wi

0101100
+92 0 -72 0 -71 0 +71 0 *
Fa
0  0.000000100000000 2 0

0111000
+70 0 *
Ed
 0.000000100000000 1 1 0
1  12 0 -0.549306144334054 0.549306144334055
2  11 4 0 -0.549306144334054 0.549306144334055
0

0101000
+86 3 -87 3 *
Wi

0101100
+68 0 +85 0 *
Fa
0  0.000000100000000 4 0

0111000
+67 0 *
Ed
 0.000000100000000 1 1 0
1  13 0 -0.549306144334055 0.549306144334055
2  12 5 0 -0.549306144334055 0.549306144334055
0

0101000
+87 3 -84 3 *
Wi

0101100
+83 0 +65 0 *
Fa
0  0.000000100000000 5 0

0111000
+64 0 *
Ed
 0.000000100000000 1 1 0
1  14 0 -0.549306144334055 0.549306144334055
2  13 6 0 -0.549306144334055 0.549306144334055
0

0101000
+84 3 -82 3 *
Wi

0101100
+81 0 +62 0 *
Fa
0  0.000000100000000 6 0

0111000
+61 0 *
Ed
 0.000000100000000 1 1 0
1  15 0 -0.549306144334054 0.549306144334055
2  14 7 0 -0.549306144334054 0.549306144334055
0

0101000
+82 3 -80 3 *
Wi

0101100
+79 0 +59 0 *
Fa
0  0.000000100000000 7 0

0111000
+58 0 *
Ed
 0.000000100000000 1 1 0
1  16 0 -0.549306144334054 0.549306144334054
2  15 8 0 -0.549306144334054 0.549306144334054
0

0101000
+80 3 -78 3 *
Wi

0101100
+56 0 +77 0 *
Fa
0  0.000000100000000 8 0

0111000
+55 0 *
Ed
 0.000000100000000 1 1 0
1  17 0 -0.549306144334055 0.549306144334055
2  16 9 0 -0.549306144334055 0.549306144334055
0

0101000
+78 3 -86 3 *
Wi

0101100
+53 0 +76 0 *
Fa
0  0.000000100000000 9 0

0111000
+52 0 *
Ve
0.000000100000000
1.250000000000000 0.000000000000000 -5.000000000000000
0 0

0101101
*
Ed
 0.000000100000000 1 1 0
1  18 0 0.000000000000000 6.283185307179586
2  17 10 0 0.000000000000000 6.283185307179586
0

0101000
+50 3 -50 3 *
Ed
 0.000000100000000 1 1 0
1  19 0 0.000000000000000 1.088944443027283
3  18 19CN 10 0 0.000000000000000 1.088944443027283
0

0101000
+73 3 -50 3 *
Wi

0101100
+72 0 -49 0 -48 0 +48 0 *
Fa
0  0.000000100000000 10 0

0111000
+47 0 *
Ve
0.000000100000000
0.577350269189626 1.000000000000000 -2.024834468763053
0 0

0101101
*
Ed
 0.000000100000000 1 1 0
1  20 0 0.000000000000000 2.024834468763053
0

0101000
+86 7 -45 7 *
Ve
0.000000100000000
1.154700538379252 0.000000000000000 -2.024834468763053
0 0

0101101
*
Ed
 0.000000100000000 1 1 0
1  21 0 -0.549306144334055 0.549306144334055
2  20 12 0 -0.549306144334055 0.549306144334055
0

0101000
+45 7 -43 7 *
Ed
 0.000000100000000 1 1 0
1  22 0 0.000000000000000 2.024834468763053
0

0101000
+87 7 -43 7 *
Wi

0101100
-44 6 -42 6 +41 6 +68 0 *
Fa
0  0.000000100000000 11 6

0111000
+40 0 *
Ve
0.000000100000000
0.577350269189625 -1.000000000000000 -2.024834468763053
0 0

0101101
*
Ed
 0.000000100000000 1 1 0
1  23 0 -0.549306144334055 0.549306144334055
2  21 12 0 -0.549306144334055 0.549306144334055
0

0101000
+43 7 -38 7 *
Ed
 0.000000100000000 1 1 0
1  24 0 0.000000000000000 2.024834468763053
0

0101000
+84 7 -38 7 *
Wi

0101100
-41 6 -37 6 +36 6 +65 0 *
Fa
0  0.000000100000000 13 6

0111000
+35 0 *
Ve
0.000000100000000
-0.577350269189626 -1.000000000000000 -2.024834468763053
0 0

0101101
*
Ed
 0.000000100000000 1 1 0
1  25 0 -0.549306144334055 0.549306144334055
2  22 12 0 -0.549306144334055 0.549306144334055
0

0101000
+38 7 -33 7 *
Ed
 0.000000100000000 1 1 0
1  26 0 0.000000000000000 2.024834468763053
0

0101000
+82 7 -33 7 *
Wi

0101100
-36 6 -32 6 +31 6 +62 0 *
Fa
0  0.000000100000000 14 6

0111000
+30 0 *
Ve
0.000000100000000
-1.154700538379252 0.000000000000000 -2.024834468763053
0 0

0101101
*
Ed
 0.000000100000000 1 1 0
1  27 0 -0.549306144334055 0.549306144334055
2  23 12 0 -0.549306144334055 0.549306144334055
0

0101000
+33 7 -28 7 *
Ed
 0.000000100000000 1 1 0
1  28 0 0.000000000000000 2.024834468763053
0

0101000
+80 7 -28 7 *
Wi

0101100
-31 6 -27 6 +26 6 +59 0 *
Fa
0  0.000000100000000 15 6

0111000
+25 0 *
Ve
0.000000100000000
-0.577350269189626 1.000000000000000 -2.024834468763053
0 0

0101101
*
Ed
 0.000000100000000 1 1 0
1  29 0 -0.549306144334055 0.549306144334055
2  24 12 0 -0.549306144334055 0.549306144334055
0

0101000
+28 7 -23 7 *
Ed
 0.000000100000000 1 1 0
1  30 0 0.000000000000000 2.024834468763053
0

0101000
+78 7 -23 7 *
Wi

0101100
-26 6 -22 6 +21 6 +56 0 *
Fa
0  0.000000100000000 16 6

0111000
+20 0 *
Ed
 0.000000100000000 1 1 0
1  31 0 -0.549306144334055 0.549306144334055
2  25 12 0 -0.549306144334055 0.549306144334055
0

0101000
+23 7 -45 7 *
Wi

0101100
-21 6 -18 6 +44 6 +53 0 *
Fa
0  0.000000100000000 17 6

0111000
+17 0 *
Wi

0101100
+49 0 *
Fa
0  0.000000100000000 18 0

0111000
+15 0 *
Ve
0.000000100000000
0.160128153805087 0.000000000000000 -2.620441650314564
0 0

0101101
*
Ed
 0.000000100000000 1 1 0
1  32 0 1.345922417390365 2.505198977523138
3  26 27CN 12 0 1.345922417390365 2.505198977523138
0

0101000
+43 7 -13 7 *
Ed
 0.000000100000000 1 1 0
1  33 0 0.000000000000000 6.283185307179586
2  28 12 0 0.000000000000000 6.283185307179586
2  29 19 0 0.000000000000000 6.283185307179586
0

0101000
+13 7 -13 7 *
Wi

0101100
-37 0 -32 0 -27 0 -22 0 -18 0 -42 0 -12 0 -11 0 +12 0 *
Fa
0  0.000000100000000 12 0

0111000
+10 0 *
Ve
0.000000100000000
0.000000000000000 0.000000000000000 -2.643091723278961
0 0

0101101
*
Ed
 0.000000100000000 1 1 1
2  30 19 0 0.000000000000000 6.283185307179586
0

0101000
+8 7 -8 7 *
Ed
 0.000000100000000 1 1 0
1  34 0 0.000000000000000 0.281034901502816
3  31 32CN 19 0 0.000000000000000 0.281034901502816
0

0101000
+13 7 -8 7 *
Wi

0101100
+11 0 -7 0 -6 0 +6 0 *
Fa
0  0.000000100000000 19 0

0111000
+5 0 *
Sh

0101100
-89 0 -74 0 -69 0 +66 0 +63 0 +60 0 +57 0 +54 0 +51 0 -46 0 
-39 0 -34 0 -29 0 -24 0 -19 0 -16 0 -14 0 +9 6 +4 6 *
So

0100000
+3 0 *
Co

1100000
+2 0 *

+1 1 