
CASCADE Topology V1, (c) Matra-Datavision
Locations 40
1
1.000000000000000 0.000000000000000 0.000000000000000 0.000000000000000 
0.000000000000000 0.000000000000000 -1.000000000000000 0.000000000000000 
0.000000000000000 1.000000000000000 0.000000000000000 0.000000000000000 
1
1.000000000000000 0.000000000000000 0.000000000000000 0.000000000000000 
0.000000000000000 0.000000000000000 -1.000000000000000 0.000000000000000 
0.000000000000000 1.000000000000000 0.000000000000000 0.000000000000000 
1
1.000000000000000 0.000000000000000 0.000000000000000 0.000000000000000 
0.000000000000000 -0.000000000000000 -1.000000000000000 0.000000000000000 
0.000000000000000 1.000000000000000 -0.000000000000000 0.000000000000000 
2  2 1 3 -1 0
1
1.000000000000000 0.000000000000000 0.000000000000000 0.000000000000000 
0.000000000000000 1.000000000000000 0.000000000000000 0.000000000000000 
0.000000000000000 0.000000000000000 1.000000000000000 0.000000000000000 
1
1.000000000000000 0.000000000000000 0.000000000000000 0.000000000000000 
0.000000000000000 0.000000000000000 -1.000000000000000 0.000000000000000 
0.000000000000000 1.000000000000000 0.000000000000000 0.000000000000000 
1
1.000000000000000 0.000000000000000 0.000000000000000 0.000000000000000 
0.000000000000000 -0.000000000000000 -1.000000000000000 0.000000000000000 
0.000000000000000 1.000000000000000 -0.000000000000000 0.000000000000000 
1
1.000000000000000 0.000000000000000 0.000000000000000 -0.000000000000000 
0.000000000000000 1.000000000000000 0.000000000000000 -0.000000000000027 
0.000000000000000 0.000000000000000 1.000000000000000 -60.000000000000000 
2  5 1 6 1 7 -1 8 1 0
1
1.000000000000000 0.000000000000000 0.000000000000000 0.000000000000000 
0.000000000000000 1.000000000000000 0.000000000000000 0.000000000000053 
0.000000000000000 0.000000000000000 1.000000000000000 120.000000000000000 
2  5 1 6 1 7 -1 8 1 10 1 0
2  5 1 6 1 7 -1 8 1 2 1 3 -1 0
2  8 -1 7 1 6 -1 5 -1 0
2  10 -1 8 -1 7 1 6 -1 5 -1 0
2  5 1 6 1 7 -1 8 1 10 1 2 1 3 -1 0
1
1.000000000000000 0.000000000000000 0.000000000000000 0.000000000000000 
0.000000000000000 1.000000000000000 0.000000000000000 0.000000000000000 
0.000000000000000 0.000000000000000 1.000000000000000 0.000000000000000 
1
-1.000000000000000 0.000000000000000 0.000000000000000 0.000000000000000 
0.000000000000000 -1.000000000000000 0.000000000000001 0.000000000000056 
0.000000000000000 0.000000000000001 1.000000000000000 84.700000000000003 
2  16 1 17 1 3 -1 0
1
1.000000000000000 0.000000000000000 0.000000000000000 0.000000000000000 
0.000000000000000 -0.000000000000000 -1.000000000000000 0.000000000000000 
0.000000000000000 1.000000000000000 -0.000000000000000 0.000000000000000 
1
-1.000000000000000 0.000000000000000 0.000000000000000 0.000000000000000 
0.000000000000000 -1.000000000000000 0.000000000000001 0.000000000000056 
0.000000000000000 0.000000000000001 1.000000000000000 84.700000000000003 
1
1.000000000000000 0.000000000000000 0.000000000000000 0.000000000000000 
0.000000000000000 1.000000000000000 0.000000000000000 0.000000000000000 
0.000000000000000 0.000000000000000 1.000000000000000 0.000000000000000 
2  19 1 20 -1 21 -1 0
1
1.000000000000000 0.000000000000000 0.000000000000000 -0.000000000000000 
0.000000000000000 1.000000000000000 0.000000000000000 -454.994047925904454 
0.000000000000000 0.000000000000000 1.000000000000000 0.000000000000404 
2  23 -1 19 1 20 -1 21 -1 0
2  20 -1 21 -1 0
2  2 1 20 -1 21 -1 0
1
1.000000000000000 0.000000000000000 0.000000000000000 0.000000000000000 
0.000000000000000 -0.000000000000000 -1.000000000000000 0.000000000000000 
0.000000000000000 1.000000000000000 -0.000000000000000 0.000000000000000 
1
-1.000000000000000 0.000000000000000 0.000000000000000 0.000000000000000 
0.000000000000000 -1.000000000000000 0.000000000000001 0.000000000000056 
0.000000000000000 0.000000000000001 1.000000000000000 84.700000000000003 
1
1.000000000000000 0.000000000000000 0.000000000000000 0.000000000000000 
0.000000000000000 1.000000000000000 0.000000000000000 0.000000000000000 
0.000000000000000 0.000000000000000 1.000000000000000 0.000000000000000 
2  27 1 28 -1 29 -1 0
1
1.000000000000000 0.000000000000000 0.000000000000000 -0.000000000000000 
0.000000000000000 1.000000000000000 0.000000000000000 -454.994047925904454 
0.000000000000000 0.000000000000000 1.000000000000000 0.000000000000404 
2  31 -1 27 1 28 -1 29 -1 0
2  2 1 28 -1 29 -1 0
2  3 1 17 -1 16 -1 0
1
1.000000000000000 0.000000000000000 0.000000000000000 -0.000000000000000 
0.000000000000000 1.000000000000000 0.000000000000000 -454.994047925904454 
0.000000000000000 0.000000000000000 1.000000000000000 0.000000000000404 
2  35 -1 3 1 17 -1 16 -1 0
2  2 1 17 -1 16 -1 0
2  7 -1 8 1 2 1 3 -1 0
2  5 1 6 1 0
2  7 -1 8 1 10 1 2 1 3 -1 0
Curve2ds 72
1 0.00000000000000000 0.00000000000000000 0.00000000000000000 -1.00000000000000000 
1 169.40000000000003411 -0.00000000000000417 0.00000000000000000 -1.00000000000000000 
1 0.00000000000000000 0.00000000000000000 1.00000000000000000 0.00000000000000000 
1 0.00000000000000000 -120.00000000000000000 1.00000000000000000 0.00000000000000000 
1 87.40000000000000568 0.00000000000000000 0.00000000000000000 -1.00000000000000000 
1 0.00000000000000000 0.00000000000000000 0.00000000000000000 -1.00000000000000000 
1 0.00000000000000000 0.00000000000000000 1.00000000000000000 0.00000000000000000 
1 0.00000000000000000 -454.99404792590445368 1.00000000000000000 0.00000000000000000 
2 -0.00000000000000711 -0.00000000000000000 0.00000000000000000 1.00000000000000000 -1.00000000000000000 0.00000000000000000 3.96875000000000355
2 12.69999999999999929 -107.30000000000006821 -1.00000000000000000 -0.00000000000000000 0.00000000000000000 -1.00000000000000000 3.96875000000000355
1 0.00000000000000000 0.00000000000000000 1.00000000000000000 0.00000000000000000 
1 0.00000000000000000 -454.99404792590445368 1.00000000000000000 0.00000000000000000 
2 12.69999999999999929 -107.30000000000006821 -1.00000000000000000 -0.00000000000000000 0.00000000000000000 -1.00000000000000000 3.96875000000000355
1 0.00000000000000000 0.00000000000000000 1.00000000000000000 0.00000000000000000 
1 0.00000000000000000 -454.99404792590445368 1.00000000000000000 0.00000000000000000 
2 12.69999999999999929 -107.30000000000006821 -1.00000000000000000 -0.00000000000000000 0.00000000000000000 -1.00000000000000000 3.96875000000000355
1 0.00000000000000000 0.00000000000000000 1.00000000000000000 0.00000000000000000 
1 0.00000000000000000 -454.99404792590445368 1.00000000000000000 0.00000000000000000 
2 0.00000000000000000 -0.00000000000000711 -1.00000000000000000 0.00000000000000000 -0.00000000000000000 -1.00000000000000000 3.96875000000000000
2 74.70000000000000284 -107.30000000000006821 -1.00000000000000000 -0.00000000000000000 0.00000000000000000 -1.00000000000000000 3.96875000000000000
1 0.00000000000000000 0.00000000000000000 1.00000000000000000 0.00000000000000000 
1 0.00000000000000000 -454.99404792590445368 1.00000000000000000 0.00000000000000000 
2 74.70000000000000284 -107.30000000000006821 -1.00000000000000000 -0.00000000000000000 0.00000000000000000 -1.00000000000000000 3.96875000000000000
1 0.00000000000000000 0.00000000000000000 1.00000000000000000 0.00000000000000000 
1 0.00000000000000000 -454.99404792590445368 1.00000000000000000 0.00000000000000000 
2 74.70000000000000284 -107.30000000000006821 -1.00000000000000000 -0.00000000000000000 0.00000000000000000 -1.00000000000000000 3.96875000000000000
1 0.00000000000000000 0.00000000000000000 1.00000000000000000 0.00000000000000000 
1 0.00000000000000000 -454.99404792590445368 1.00000000000000000 0.00000000000000000 
2 0.00000000000000000 -0.00000000000000711 -1.00000000000000000 0.00000000000000000 -0.00000000000000000 -1.00000000000000000 3.96875000000000355
2 12.69999999999999929 -12.69999999999993889 -1.00000000000000000 -0.00000000000000000 0.00000000000000000 -1.00000000000000000 3.96875000000000355
1 0.00000000000000000 0.00000000000000000 1.00000000000000000 0.00000000000000000 
1 0.00000000000000000 -454.99404792590445368 1.00000000000000000 0.00000000000000000 
2 12.69999999999999929 -12.69999999999993889 -1.00000000000000000 -0.00000000000000000 0.00000000000000000 -1.00000000000000000 3.96875000000000355
1 0.00000000000000000 0.00000000000000000 1.00000000000000000 0.00000000000000000 
1 0.00000000000000000 -454.99404792590445368 1.00000000000000000 0.00000000000000000 
2 12.69999999999999929 -12.69999999999993889 -1.00000000000000000 -0.00000000000000000 0.00000000000000000 -1.00000000000000000 3.96875000000000355
1 0.00000000000000000 0.00000000000000000 1.00000000000000000 0.00000000000000000 
1 0.00000000000000000 -454.99404792590445368 1.00000000000000000 0.00000000000000000 
2 0.00000000000000000 0.00000000000000000 0.00000000000000000 1.00000000000000000 -1.00000000000000000 0.00000000000000000 3.96875000000000000
2 74.70000000000000284 -12.69999999999993889 -1.00000000000000000 -0.00000000000000000 0.00000000000000000 -1.00000000000000000 3.96875000000000000
1 0.00000000000000000 0.00000000000000000 1.00000000000000000 0.00000000000000000 
1 0.00000000000000000 -454.99404792590445368 1.00000000000000000 0.00000000000000000 
2 74.70000000000000284 -12.69999999999993889 -1.00000000000000000 -0.00000000000000000 0.00000000000000000 -1.00000000000000000 3.96875000000000000
1 0.00000000000000000 0.00000000000000000 1.00000000000000000 0.00000000000000000 
1 0.00000000000000000 -454.99404792590445368 1.00000000000000000 0.00000000000000000 
2 74.70000000000000284 -12.69999999999993889 -1.00000000000000000 -0.00000000000000000 0.00000000000000000 -1.00000000000000000 3.96875000000000000
1 87.40000000000000568 -0.00000000000000000 0.00000000000000000 -1.00000000000000000 
1 0.00000000000000000 -0.00000000000000000 0.00000000000000000 -1.00000000000000000 
1 0.00000000000000000 -0.00000000000000000 1.00000000000000000 0.00000000000000000 
1 0.00000000000000355 -120.00000000000000000 1.00000000000000000 0.00000000000000000 
1 0.00000000000000000 0.00000000000000000 1.00000000000000000 0.00000000000000000 
1 -0.00000000000000355 -120.00000000000000000 1.00000000000000000 0.00000000000000000 
1 0.00000000000000000 0.00000000000000000 1.00000000000000000 0.00000000000000000 
1 0.00000000000000000 -120.00000000000000000 1.00000000000000000 0.00000000000000000 
1 0.00000000000000000 0.00000000000000000 0.00000000000000000 -1.00000000000000000 
1 169.40000000000003411 0.00000000000000417 0.00000000000000000 -1.00000000000000000 
1 0.00000000000000000 0.00000000000000000 0.00000000000000000 -1.00000000000000000 
1 6.28318530717958623 0.00000000000000000 0.00000000000000000 -1.00000000000000000 
2 74.69999999999998863 -107.30000000000003979 1.00000000000000000 -0.00000000000000000 -0.00000000000000000 -1.00000000000000000 3.96875000000000000
1 0.00000000000000000 -169.40000000000000568 1.00000000000000000 0.00000000000000000 
1 0.00000000000000000 0.00000000000000000 0.00000000000000000 -1.00000000000000000 
1 6.28318530717958623 0.00000000000000000 0.00000000000000000 -1.00000000000000000 
2 12.69999999999999929 -107.30000000000003979 1.00000000000000000 -0.00000000000000000 -0.00000000000000000 -1.00000000000000000 3.96875000000000000
1 0.00000000000000000 -169.40000000000000568 1.00000000000000000 0.00000000000000000 
1 0.00000000000000000 0.00000000000000000 0.00000000000000000 -1.00000000000000000 
1 6.28318530717958623 0.00000000000000000 0.00000000000000000 -1.00000000000000000 
2 74.69999999999998863 -12.69999999999993889 1.00000000000000000 -0.00000000000000000 -0.00000000000000000 -1.00000000000000000 3.96875000000000000
1 0.00000000000000000 -169.40000000000000568 1.00000000000000000 0.00000000000000000 
1 0.00000000000000000 0.00000000000000000 0.00000000000000000 -1.00000000000000000 
1 6.28318530717958623 0.00000000000000000 0.00000000000000000 -1.00000000000000000 
2 12.69999999999999929 -12.69999999999993889 1.00000000000000000 -0.00000000000000000 -0.00000000000000000 -1.00000000000000000 3.96875000000000000
1 0.00000000000000000 -169.40000000000000568 1.00000000000000000 0.00000000000000000 
Curves 20
1 -43.70000000000000284 84.69999999999998863 -60.00000000000003553 0.00000000000000000 0.00000000000000044 1.00000000000000000 
1 -43.70000000000000284 84.70000000000001705 0.00000000000000000 1.00000000000000000 0.00000000000000000 0.00000000000000000 
1 43.70000000000000284 84.69999999999998863 -60.00000000000003553 0.00000000000000000 0.00000000000000044 1.00000000000000000 
2 30.99999999999999645 47.30000000000005400 0.00000000000000000 0.00000000000000000 0.00000000000000000 1.00000000000000000 1.00000000000000000 0.00000000000000000 -0.00000000000000000 -0.00000000000000000 1.00000000000000000 0.00000000000000000 3.96875000000000000
2 -30.99999999999999645 47.30000000000005400 0.00000000000000000 0.00000000000000000 0.00000000000000000 1.00000000000000000 1.00000000000000000 0.00000000000000000 -0.00000000000000000 -0.00000000000000000 1.00000000000000000 0.00000000000000000 3.96875000000000000
2 30.99999999999999645 -47.30000000000005400 0.00000000000000000 0.00000000000000000 0.00000000000000000 1.00000000000000000 1.00000000000000000 0.00000000000000000 -0.00000000000000000 -0.00000000000000000 1.00000000000000000 0.00000000000000000 3.96875000000000000
2 -30.99999999999999645 -47.30000000000005400 0.00000000000000000 0.00000000000000000 0.00000000000000000 1.00000000000000000 1.00000000000000000 0.00000000000000000 -0.00000000000000000 -0.00000000000000000 1.00000000000000000 0.00000000000000000 3.96875000000000000
1 -43.70000000000000284 -84.70000000000003126 -59.99999999999996447 0.00000000000000000 0.00000000000000044 1.00000000000000000 
1 -43.70000000000000284 -84.70000000000000284 0.00000000000000000 0.00000000000000000 1.00000000000000000 0.00000000000000000 
1 43.70000000000000284 84.70000000000001705 0.00000000000000000 0.00000000000000000 -1.00000000000000000 0.00000000000000000 
1 43.70000000000000284 -84.70000000000001705 0.00000000000000000 -1.00000000000000000 0.00000000000000016 0.00000000000000000 
1 43.70000000000000284 -84.70000000000004547 -59.99999999999996447 0.00000000000000000 0.00000000000000044 1.00000000000000000 
1 -34.96875000000000000 84.70000000000004547 47.29999999999997584 -0.00000000000000000 -1.00000000000000000 0.00000000000000089 
2 -30.99999999999999645 -84.69999999999996021 47.30000000000012506 0.00000000000000000 1.00000000000000000 -0.00000000000000089 -1.00000000000000000 0.00000000000000000 0.00000000000000000 0.00000000000000000 0.00000000000000089 1.00000000000000000 3.96875000000000000
1 27.03124999999999645 84.70000000000004547 47.29999999999997584 -0.00000000000000000 -1.00000000000000000 0.00000000000000089 
2 30.99999999999999645 -84.69999999999996021 47.30000000000012506 0.00000000000000000 1.00000000000000000 -0.00000000000000089 -1.00000000000000000 0.00000000000000000 0.00000000000000000 0.00000000000000000 0.00000000000000089 1.00000000000000000 3.96875000000000000
1 -34.96875000000000000 84.69999999999996021 -47.30000000000013216 -0.00000000000000000 -1.00000000000000000 0.00000000000000089 
2 -30.99999999999999645 -84.70000000000004547 -47.29999999999998295 0.00000000000000000 1.00000000000000000 -0.00000000000000089 -1.00000000000000000 0.00000000000000000 0.00000000000000000 0.00000000000000000 0.00000000000000089 1.00000000000000000 3.96875000000000000
1 27.03124999999999645 84.69999999999996021 -47.30000000000013216 -0.00000000000000000 -1.00000000000000000 0.00000000000000089 
2 30.99999999999999645 -84.70000000000004547 -47.29999999999998295 0.00000000000000000 1.00000000000000000 -0.00000000000000089 -1.00000000000000000 0.00000000000000000 0.00000000000000000 0.00000000000000000 0.00000000000000089 1.00000000000000000 3.96875000000000000
Polygon3D 0
PolygonOnTriangulations 0
Surfaces 21
1 -43.70000000000000284 84.69999999999998863 -60.00000000000003553 0.00000000000000000 1.00000000000000000 -0.00000000000000044 1.00000000000000000 0.00000000000000000 0.00000000000000000 0.00000000000000000 -0.00000000000000044 -1.00000000000000000 
1 -43.70000000000000284 -84.70000000000003126 -59.99999999999996447 -1.00000000000000000 0.00000000000000000 0.00000000000000000 0.00000000000000000 1.00000000000000000 -0.00000000000000044 -0.00000000000000000 -0.00000000000000044 -1.00000000000000000 
1 43.70000000000000284 84.69999999999998863 -60.00000000000003553 1.00000000000000000 0.00000000000000000 -0.00000000000000000 0.00000000000000000 -1.00000000000000000 0.00000000000000044 0.00000000000000000 -0.00000000000000044 -1.00000000000000000 
2 -30.99999999999999645 84.70000000000004547 47.29999999999997584 0.00000000000000000 1.00000000000000000 -0.00000000000000089 -1.00000000000000000 0.00000000000000000 0.00000000000000000 0.00000000000000000 0.00000000000000089 1.00000000000000000 3.96875000000000000
1 -30.99999999999999645 -47.29999999999999005 84.70000000000004547 -0.00000000000000000 -0.00000000000000000 1.00000000000000000 0.00000000000000000 1.00000000000000000 0.00000000000000000 -1.00000000000000000 0.00000000000000000 0.00000000000000000 
2 -30.99999999999999645 84.70000000000004547 47.29999999999997584 0.00000000000000000 1.00000000000000000 -0.00000000000000089 -1.00000000000000000 0.00000000000000000 0.00000000000000000 0.00000000000000000 0.00000000000000089 1.00000000000000000 3.96875000000000000
2 -30.99999999999999645 84.70000000000004547 47.29999999999997584 0.00000000000000000 1.00000000000000000 -0.00000000000000089 -1.00000000000000000 0.00000000000000000 0.00000000000000000 0.00000000000000000 0.00000000000000089 1.00000000000000000 3.96875000000000000
2 30.99999999999999645 84.70000000000004547 47.29999999999997584 0.00000000000000000 1.00000000000000000 -0.00000000000000089 -1.00000000000000000 0.00000000000000000 0.00000000000000000 0.00000000000000000 0.00000000000000089 1.00000000000000000 3.96875000000000000
1 30.99999999999999645 -47.29999999999999005 84.70000000000003126 0.00000000000000000 0.00000000000000000 1.00000000000000000 1.00000000000000000 0.00000000000000000 -0.00000000000000000 -0.00000000000000000 1.00000000000000000 0.00000000000000000 
2 30.99999999999999645 84.70000000000004547 47.29999999999997584 0.00000000000000000 1.00000000000000000 -0.00000000000000089 -1.00000000000000000 0.00000000000000000 0.00000000000000000 0.00000000000000000 0.00000000000000089 1.00000000000000000 3.96875000000000000
2 30.99999999999999645 84.70000000000004547 47.29999999999997584 0.00000000000000000 1.00000000000000000 -0.00000000000000089 -1.00000000000000000 0.00000000000000000 0.00000000000000000 0.00000000000000000 0.00000000000000089 1.00000000000000000 3.96875000000000000
2 -30.99999999999999645 84.69999999999996021 -47.30000000000013216 0.00000000000000000 1.00000000000000000 -0.00000000000000089 -1.00000000000000000 0.00000000000000000 0.00000000000000000 0.00000000000000000 0.00000000000000089 1.00000000000000000 3.96875000000000000
1 -30.99999999999999645 47.30000000000011795 84.69999999999997442 0.00000000000000000 0.00000000000000000 1.00000000000000000 1.00000000000000000 0.00000000000000000 -0.00000000000000000 -0.00000000000000000 1.00000000000000000 0.00000000000000000 
2 -30.99999999999999645 84.69999999999996021 -47.30000000000013216 0.00000000000000000 1.00000000000000000 -0.00000000000000089 -1.00000000000000000 0.00000000000000000 0.00000000000000000 0.00000000000000000 0.00000000000000089 1.00000000000000000 3.96875000000000000
2 -30.99999999999999645 84.69999999999996021 -47.30000000000013216 0.00000000000000000 1.00000000000000000 -0.00000000000000089 -1.00000000000000000 0.00000000000000000 0.00000000000000000 0.00000000000000000 0.00000000000000089 1.00000000000000000 3.96875000000000000
2 30.99999999999999645 84.69999999999996021 -47.30000000000013216 0.00000000000000000 1.00000000000000000 -0.00000000000000089 -1.00000000000000000 0.00000000000000000 0.00000000000000000 0.00000000000000000 0.00000000000000089 1.00000000000000000 3.96875000000000000
1 30.99999999999999645 47.30000000000011084 84.69999999999996021 0.00000000000000000 -0.00000000000000000 1.00000000000000000 0.00000000000000000 1.00000000000000000 0.00000000000000000 -1.00000000000000000 0.00000000000000000 0.00000000000000000 
2 30.99999999999999645 84.69999999999996021 -47.30000000000013216 0.00000000000000000 1.00000000000000000 -0.00000000000000089 -1.00000000000000000 0.00000000000000000 0.00000000000000000 0.00000000000000000 0.00000000000000089 1.00000000000000000 3.96875000000000000
2 30.99999999999999645 84.69999999999996021 -47.30000000000013216 0.00000000000000000 1.00000000000000000 -0.00000000000000089 -1.00000000000000000 0.00000000000000000 0.00000000000000000 0.00000000000000000 0.00000000000000089 1.00000000000000000 3.96875000000000000
1 43.70000000000000284 -84.70000000000004547 -59.99999999999996447 -0.00000000000000016 -1.00000000000000000 0.00000000000000044 -1.00000000000000000 0.00000000000000016 0.00000000000000000 -0.00000000000000000 -0.00000000000000044 -1.00000000000000000 
1 -0.00000000000000177 0.00000000000000000 0.00000000000000354 0.00000000000000000 1.00000000000000000 -0.00000000000000022 0.00000000000000000 0.00000000000000022 1.00000000000000000 1.00000000000000000 -0.00000000000000000 0.00000000000000000 
Triangulations 0

TShapes 60
Ve
0.001000000000000
-43.700000000000003 84.700000000000017 0.000000000000000
0 0

0101101
*
Ed
 0.000000100000007 1 1 0
1  1 0 0.000000000000000 120.000000000000000
2  1 1 0 0.000000000000000 120.000000000000000
2  2 2 0 0.000000000000000 120.000000000000000
0

0101000
+60 9 -60 11 *
Ve
0.001000000000000
43.700000000000003 84.700000000000017 0.000000000000000
0 0

0101101
*
Ed
 0.001000000000000 1 1 0
1  2 0 0.000000000000000 87.400000000000006
2  3 1 13 0.000000000000000 87.400000000000006
2  4 1 14 0.000000000000000 87.400000000000006
0

0101000
+60 0 -58 0 *
Ed
 0.000000100000000 1 1 0
1  3 0 0.000000000000000 120.000000000000000
2  5 1 0 0.000000000000000 120.000000000000000
2  6 3 0 0.000000000000000 120.000000000000000
0

0101000
+58 9 -58 11 *
Wi

0101100
+59 4 -57 12 +57 15 -56 4 *
Ve
0.000000100000014
34.968750000000000 47.300000000000054 0.000000000000000
0 0

0101101
*
Ed
 0.000000100000014 1 1 0
1  4 0 0.000000000000000 6.283185307179586
2  7 4 22 0.000000000000000 6.283185307179586
2  8 4 24 0.000000000000000 6.283185307179586
2  9 5 25 0.000000000000000 6.283185307179586
2  10 1 26 0.000000000000000 6.283185307179586
2  11 6 30 0.000000000000000 6.283185307179586
2  12 6 32 0.000000000000000 6.283185307179586
2  13 1 33 0.000000000000000 6.283185307179586
2  14 7 34 0.000000000000000 6.283185307179586
2  15 7 36 0.000000000000000 6.283185307179586
2  16 1 37 0.000000000000000 6.283185307179586
0

0101000
+54 0 -54 0 *
Wi

0101100
-53 18 *
Ve
0.000000100000014
-27.031249999999996 47.300000000000054 0.000000000000000
0 0

0101101
*
Ed
 0.000000100000014 1 1 0
1  5 0 0.000000000000000 6.283185307179586
2  17 8 22 0.000000000000000 6.283185307179586
2  18 8 24 0.000000000000000 6.283185307179586
2  19 9 25 0.000000000000000 6.283185307179586
2  20 1 26 0.000000000000000 6.283185307179586
2  21 10 30 0.000000000000000 6.283185307179586
2  22 10 32 0.000000000000000 6.283185307179586
2  23 1 33 0.000000000000000 6.283185307179586
2  24 11 34 0.000000000000000 6.283185307179586
2  25 11 36 0.000000000000000 6.283185307179586
2  26 1 37 0.000000000000000 6.283185307179586
0

0101000
+51 0 -51 0 *
Wi

0101100
-50 18 *
Ve
0.000000100000000
34.968750000000000 -47.300000000000054 0.000000000000000
0 0

0101101
*
Ed
 0.000000100000000 1 1 0
1  6 0 0.000000000000000 6.283185307179586
2  27 12 22 0.000000000000000 6.283185307179586
2  28 12 24 0.000000000000000 6.283185307179586
2  29 13 25 0.000000000000000 6.283185307179586
2  30 1 26 0.000000000000000 6.283185307179586
2  31 14 30 0.000000000000000 6.283185307179586
2  32 14 32 0.000000000000000 6.283185307179586
2  33 1 33 0.000000000000000 6.283185307179586
2  34 15 34 0.000000000000000 6.283185307179586
2  35 15 36 0.000000000000000 6.283185307179586
2  36 1 37 0.000000000000000 6.283185307179586
0

0101000
+48 0 -48 0 *
Wi

0101100
-47 18 *
Ve
0.000000100000000
-27.031249999999996 -47.300000000000054 0.000000000000000
0 0

0101101
*
Ed
 0.000000100000000 1 1 0
1  7 0 0.000000000000000 6.283185307179586
2  37 16 22 0.000000000000000 6.283185307179586
2  38 16 24 0.000000000000000 6.283185307179586
2  39 17 25 0.000000000000000 6.283185307179586
2  40 1 26 0.000000000000000 6.283185307179586
2  41 18 30 0.000000000000000 6.283185307179586
2  42 18 32 0.000000000000000 6.283185307179586
2  43 1 33 0.000000000000000 6.283185307179586
2  44 19 34 0.000000000000000 6.283185307179586
2  45 19 36 0.000000000000000 6.283185307179586
2  46 1 37 0.000000000000000 6.283185307179586
0

0101000
+45 0 -45 0 *
Wi

0101100
-44 18 *
Fa
0  0.000000100000000 1 4

0101000
+55 0 +52 0 +49 0 +46 0 +43 0 *
Ve
0.001000000000000
-43.700000000000003 -84.700000000000003 0.000000000000000
0 0

0101101
*
Ed
 0.000000100000000 1 1 0
1  8 0 0.000000000000000 120.000000000000000
2  47 20 0 0.000000000000000 120.000000000000000
2  48 2 0 0.000000000000000 120.000000000000000
0

0101000
+41 9 -41 11 *
Ed
 0.001000000000000 1 1 0
1  9 0 0.000000000000000 169.400000000000034
2  49 2 13 0.000000000000000 169.400000000000034
2  50 2 14 0.000000000000000 169.400000000000034
0

0101000
+41 0 -60 0 *
Wi

0101100
+40 0 -59 0 -39 9 +39 11 *
Fa
0  0.000000100000000 2 0

0101000
+38 0 *
Ve
0.001000000000000
43.700000000000003 -84.700000000000017 0.000000000000000
0 0

0101101
*
Ed
 0.001000000000000 1 1 0
1  10 0 0.000000000000000 169.400000000000034
2  51 3 13 0.000000000000000 169.400000000000034
2  52 3 14 0.000000000000000 169.400000000000034
0

0101000
+58 0 -36 0 *
Ed
 0.001000000000000 1 1 0
1  11 0 0.000000000000000 87.400000000000006
2  53 20 13 0.000000000000000 87.400000000000006
2  54 20 14 0.000000000000000 87.400000000000006
0

0101000
+36 0 -41 0 *
Wi

0101100
+57 0 +35 0 +34 0 +39 0 *
Fa
0  0.000000100000000 21 0

0101000
+33 39 *
Ed
 0.000000100000000 1 1 0
1  12 0 0.000000000000000 120.000000000000000
2  55 20 0 0.000000000000000 120.000000000000000
2  56 3 0 0.000000000000000 120.000000000000000
0

0101000
+36 9 -36 11 *
Wi

0101100
+56 0 -31 0 -35 9 +35 11 *
Fa
0  0.000000100000000 3 0

0101000
+30 0 *
Ve
0.000000100000014
-34.968750000000000 -84.699999999999960 47.300000000000125
0 0

0101101
*
Ed
 0.000000100000014 1 1 0
1  13 0 0.000000000000000 169.400000000000006
3  57 58CN 7 0 0.000000000000000 169.400000000000006
0

0101000
+54 18 -28 0 *
Ed
 0.000000100000014 1 1 0
1  14 0 0.000000000000000 6.283185307179586
2  59 20 4 0.000000000000000 6.283185307179586
2  60 7 0 0.000000000000000 6.283185307179586
0

0101000
+28 0 -28 0 *
Wi

0101100
-53 18 -27 0 +26 0 +27 0 *
Fa
0  0.000000100000014 7 0

0101000
+25 0 *
Ve
0.000000100000014
27.031249999999996 -84.699999999999960 47.300000000000125
0 0

0101101
*
Ed
 0.000000100000014 1 1 0
1  15 0 0.000000000000000 169.400000000000006
3  61 62CN 11 0 0.000000000000000 169.400000000000006
0

0101000
+51 18 -23 0 *
Ed
 0.000000100000014 1 1 0
1  16 0 0.000000000000000 6.283185307179586
2  63 20 4 0.000000000000000 6.283185307179586
2  64 11 0 0.000000000000000 6.283185307179586
0

0101000
+23 0 -23 0 *
Wi

0101100
-50 18 -22 0 +21 0 +22 0 *
Fa
0  0.000000100000014 11 0

0101000
+20 0 *
Ve
0.000000100000000
-34.968750000000000 -84.700000000000045 -47.299999999999983
0 0

0101101
*
Ed
 0.000000100000000 1 1 0
1  17 0 0.000000000000000 169.400000000000006
3  65 66CN 15 0 0.000000000000000 169.400000000000006
0

0101000
+48 18 -18 0 *
Ed
 0.000000100000000 1 1 0
1  18 0 0.000000000000000 6.283185307179586
2  67 20 4 0.000000000000000 6.283185307179586
2  68 15 0 0.000000000000000 6.283185307179586
0

0101000
+18 0 -18 0 *
Wi

0101100
-47 18 -17 0 +16 0 +17 0 *
Fa
0  0.000000100000000 15 0

0101000
+15 0 *
Ve
0.000000100000000
27.031249999999996 -84.700000000000045 -47.299999999999983
0 0

0101101
*
Ed
 0.000000100000000 1 1 0
1  19 0 0.000000000000000 169.400000000000006
3  69 70CN 19 0 0.000000000000000 169.400000000000006
0

0101000
+45 18 -13 0 *
Ed
 0.000000100000000 1 1 0
1  20 0 0.000000000000000 6.283185307179586
2  71 20 4 0.000000000000000 6.283185307179586
2  72 19 0 0.000000000000000 6.283185307179586
0

0101000
+13 0 -13 0 *
Wi

0101100
-44 18 -12 0 +11 0 +12 0 *
Fa
0  0.000000100000000 19 0

0101000
+10 0 *
Wi

0101100
+31 4 -34 12 +34 15 -40 4 *
Wi

0101100
+21 0 *
Wi

0101100
+26 0 *
Wi

0101100
+11 0 *
Wi

0101100
+16 0 *
Fa
0  0.000000100000000 20 4

0101000
+8 0 +7 0 +6 0 +5 0 +4 0 *
Sh

0101100
+42 0 +37 4 +32 38 -32 40 +29 4 -24 0 -19 0 -14 0 -9 0 +3 0 
*
So

0100000
+2 0 *

+1 1 