
CASCADE Topology V1, (c) Matra-Datavision
Locations 54
1
1.000000000000000 0.000000000000000 0.000000000000000 0.000000000000000 
0.000000000000000 0.000000000000000 -1.000000000000000 0.000000000000000 
0.000000000000000 1.000000000000000 0.000000000000000 0.000000000000000 
1
1.000000000000000 0.000000000000000 0.000000000000000 0.000000000000000 
0.000000000000000 0.000000000000000 -1.000000000000000 0.000000000000000 
0.000000000000000 1.000000000000000 0.000000000000000 0.000000000000000 
1
1.000000000000000 0.000000000000000 0.000000000000000 0.000000000000000 
0.000000000000000 -0.000000000000000 -1.000000000000000 0.000000000000000 
0.000000000000000 1.000000000000000 -0.000000000000000 0.000000000000000 
2  2 1 3 -1 0
1
1.000000000000000 0.000000000000000 0.000000000000000 0.000000000000000 
0.000000000000000 0.000000000000000 -1.000000000000000 0.000000000000000 
0.000000000000000 1.000000000000000 0.000000000000000 0.000000000000000 
1
1.000000000000000 0.000000000000000 0.000000000000000 0.000000000000000 
0.000000000000000 -0.000000000000000 -1.000000000000000 0.000000000000000 
0.000000000000000 1.000000000000000 -0.000000000000000 0.000000000000000 
2  5 1 6 -1 0
1
1.000000000000000 0.000000000000000 0.000000000000000 0.000000000000000 
0.000000000000000 1.000000000000000 0.000000000000000 0.000000000000000 
0.000000000000000 0.000000000000000 1.000000000000000 0.000000000000000 
1
1.000000000000000 0.000000000000000 0.000000000000000 0.000000000000000 
0.000000000000000 0.000000000000000 -1.000000000000000 0.000000000000000 
0.000000000000000 1.000000000000000 0.000000000000000 0.000000000000000 
1
1.000000000000000 0.000000000000000 0.000000000000000 0.000000000000000 
0.000000000000000 -0.000000000000000 -1.000000000000000 0.000000000000000 
0.000000000000000 1.000000000000000 -0.000000000000000 0.000000000000000 
1
1.000000000000000 0.000000000000000 0.000000000000000 -0.000000000000000 
0.000000000000000 1.000000000000000 0.000000000000000 -0.000000000000027 
0.000000000000000 0.000000000000000 1.000000000000000 -60.000000000000000 
2  8 1 9 1 10 -1 11 1 0
1
1.000000000000000 0.000000000000000 0.000000000000000 0.000000000000000 
0.000000000000000 1.000000000000000 0.000000000000000 0.000000000000053 
0.000000000000000 0.000000000000000 1.000000000000000 120.000000000000000 
2  8 1 9 1 10 -1 11 1 13 1 0
2  8 1 9 1 10 -1 11 1 5 1 6 -1 0
2  11 -1 10 1 9 -1 8 -1 0
2  13 -1 11 -1 10 1 9 -1 8 -1 0
2  8 1 9 1 10 -1 11 1 13 1 5 1 6 -1 0
1
1.000000000000000 0.000000000000000 0.000000000000000 0.000000000000000 
0.000000000000000 1.000000000000000 0.000000000000000 0.000000000000000 
0.000000000000000 0.000000000000000 1.000000000000000 0.000000000000000 
1
-1.000000000000000 0.000000000000000 0.000000000000000 0.000000000000000 
0.000000000000000 -1.000000000000000 0.000000000000001 0.000000000000056 
0.000000000000000 0.000000000000001 1.000000000000000 84.700000000000003 
2  19 1 20 1 6 -1 0
1
1.000000000000000 0.000000000000000 0.000000000000000 0.000000000000000 
0.000000000000000 -0.000000000000000 -1.000000000000000 0.000000000000000 
0.000000000000000 1.000000000000000 -0.000000000000000 0.000000000000000 
1
-1.000000000000000 0.000000000000000 0.000000000000000 0.000000000000000 
0.000000000000000 -1.000000000000000 0.000000000000001 0.000000000000056 
0.000000000000000 0.000000000000001 1.000000000000000 84.700000000000003 
1
1.000000000000000 0.000000000000000 0.000000000000000 0.000000000000000 
0.000000000000000 1.000000000000000 0.000000000000000 0.000000000000000 
0.000000000000000 0.000000000000000 1.000000000000000 0.000000000000000 
2  22 1 23 -1 24 -1 0
1
1.000000000000000 0.000000000000000 0.000000000000000 -0.000000000000000 
0.000000000000000 1.000000000000000 0.000000000000000 -454.994047925904454 
0.000000000000000 0.000000000000000 1.000000000000000 0.000000000000404 
2  26 -1 22 1 23 -1 24 -1 0
2  23 -1 24 -1 0
2  5 1 23 -1 24 -1 0
1
1.000000000000000 0.000000000000000 0.000000000000000 0.000000000000000 
0.000000000000000 -0.000000000000000 -1.000000000000000 0.000000000000000 
0.000000000000000 1.000000000000000 -0.000000000000000 0.000000000000000 
1
-1.000000000000000 0.000000000000000 0.000000000000000 0.000000000000000 
0.000000000000000 -1.000000000000000 0.000000000000001 0.000000000000056 
0.000000000000000 0.000000000000001 1.000000000000000 84.700000000000003 
1
1.000000000000000 0.000000000000000 0.000000000000000 0.000000000000000 
0.000000000000000 1.000000000000000 0.000000000000000 0.000000000000000 
0.000000000000000 0.000000000000000 1.000000000000000 0.000000000000000 
2  30 1 31 -1 32 -1 0
1
1.000000000000000 0.000000000000000 0.000000000000000 -0.000000000000000 
0.000000000000000 1.000000000000000 0.000000000000000 -454.994047925904454 
0.000000000000000 0.000000000000000 1.000000000000000 0.000000000000404 
2  34 -1 30 1 31 -1 32 -1 0
2  5 1 31 -1 32 -1 0
2  6 1 20 -1 19 -1 0
1
1.000000000000000 0.000000000000000 0.000000000000000 -0.000000000000000 
0.000000000000000 1.000000000000000 0.000000000000000 -454.994047925904454 
0.000000000000000 0.000000000000000 1.000000000000000 0.000000000000404 
2  38 -1 6 1 20 -1 19 -1 0
2  5 1 20 -1 19 -1 0
2  5 1 6 -1 2 1 3 -1 0
2  8 1 9 1 10 -1 11 1 5 1 6 -1 2 1 3 -1 0
2  8 1 9 1 10 -1 11 1 13 1 5 1 6 -1 2 1 3 -1 0
2  10 -1 11 1 5 1 6 -1 2 1 3 -1 0
2  8 1 9 1 0
2  10 -1 11 1 13 1 5 1 6 -1 2 1 3 -1 0
1
1.000000000000000 0.000000000000000 0.000000000000000 0.000000000000000 
0.000000000000000 1.000000000000000 0.000000000000000 0.000000000000000 
0.000000000000000 0.000000000000000 1.000000000000000 0.000000000000000 
1
0.000000000000000 0.000000000000000 1.000000000000000 43.699999999999996 
0.000000000000000 -1.000000000000000 0.000000000000000 0.000000000000000 
1.000000000000000 0.000000000000000 -0.000000000000000 0.000000000000000 
2  47 1 48 1 3 -1 0
2  3 1 48 -1 47 -1 0
1
1.000000000000000 0.000000000000000 0.000000000000000 -454.994047925904681 
0.000000000000000 1.000000000000000 0.000000000000000 0.000000000000101 
0.000000000000000 0.000000000000000 1.000000000000000 -0.000000000000000 
2  51 -1 3 1 48 -1 47 -1 0
2  48 -1 47 -1 0
2  5 1 6 -1 2 1 48 -1 47 -1 0
Curve2ds 104
1 0.00000000000000000 0.00000000000000000 0.00000000000000000 -1.00000000000000000 
1 169.40000000000003411 -0.00000000000000417 0.00000000000000000 -1.00000000000000000 
1 0.00000000000000000 0.00000000000000000 1.00000000000000000 0.00000000000000000 
1 0.00000000000000000 -120.00000000000000000 1.00000000000000000 0.00000000000000000 
1 87.40000000000000568 0.00000000000000000 0.00000000000000000 -1.00000000000000000 
1 0.00000000000000000 0.00000000000000000 0.00000000000000000 -1.00000000000000000 
1 0.00000000000000000 0.00000000000000000 1.00000000000000000 0.00000000000000000 
1 0.00000000000000000 -454.99404792590445368 1.00000000000000000 0.00000000000000000 
2 -0.00000000000000711 -0.00000000000000000 0.00000000000000000 1.00000000000000000 -1.00000000000000000 0.00000000000000000 3.96875000000000355
2 12.69999999999999929 -107.30000000000006821 -1.00000000000000000 -0.00000000000000000 0.00000000000000000 -1.00000000000000000 3.96875000000000355
1 0.00000000000000000 0.00000000000000000 1.00000000000000000 0.00000000000000000 
1 0.00000000000000000 -454.99404792590445368 1.00000000000000000 0.00000000000000000 
2 12.69999999999999929 -107.30000000000006821 -1.00000000000000000 -0.00000000000000000 0.00000000000000000 -1.00000000000000000 3.96875000000000355
1 0.00000000000000000 0.00000000000000000 1.00000000000000000 0.00000000000000000 
1 0.00000000000000000 -454.99404792590445368 1.00000000000000000 0.00000000000000000 
2 12.69999999999999929 -107.30000000000006821 -1.00000000000000000 -0.00000000000000000 0.00000000000000000 -1.00000000000000000 3.96875000000000355
1 0.00000000000000000 0.00000000000000000 1.00000000000000000 0.00000000000000000 
1 0.00000000000000000 -454.99404792590445368 1.00000000000000000 0.00000000000000000 
2 0.00000000000000000 -0.00000000000000711 -1.00000000000000000 0.00000000000000000 -0.00000000000000000 -1.00000000000000000 3.96875000000000000
2 74.70000000000000284 -107.30000000000006821 -1.00000000000000000 -0.00000000000000000 0.00000000000000000 -1.00000000000000000 3.96875000000000000
1 0.00000000000000000 0.00000000000000000 1.00000000000000000 0.00000000000000000 
1 0.00000000000000000 -454.99404792590445368 1.00000000000000000 0.00000000000000000 
2 74.70000000000000284 -107.30000000000006821 -1.00000000000000000 -0.00000000000000000 0.00000000000000000 -1.00000000000000000 3.96875000000000000
1 0.00000000000000000 0.00000000000000000 1.00000000000000000 0.00000000000000000 
1 0.00000000000000000 -454.99404792590445368 1.00000000000000000 0.00000000000000000 
2 74.70000000000000284 -107.30000000000006821 -1.00000000000000000 -0.00000000000000000 0.00000000000000000 -1.00000000000000000 3.96875000000000000
1 0.00000000000000000 0.00000000000000000 1.00000000000000000 0.00000000000000000 
1 0.00000000000000000 -454.99404792590445368 1.00000000000000000 0.00000000000000000 
2 0.00000000000000000 -0.00000000000000711 -1.00000000000000000 0.00000000000000000 -0.00000000000000000 -1.00000000000000000 3.96875000000000355
2 12.69999999999999929 -12.69999999999993889 -1.00000000000000000 -0.00000000000000000 0.00000000000000000 -1.00000000000000000 3.96875000000000355
1 0.00000000000000000 0.00000000000000000 1.00000000000000000 0.00000000000000000 
1 0.00000000000000000 -454.99404792590445368 1.00000000000000000 0.00000000000000000 
2 12.69999999999999929 -12.69999999999993889 -1.00000000000000000 -0.00000000000000000 0.00000000000000000 -1.00000000000000000 3.96875000000000355
1 0.00000000000000000 0.00000000000000000 1.00000000000000000 0.00000000000000000 
1 0.00000000000000000 -454.99404792590445368 1.00000000000000000 0.00000000000000000 
2 12.69999999999999929 -12.69999999999993889 -1.00000000000000000 -0.00000000000000000 0.00000000000000000 -1.00000000000000000 3.96875000000000355
1 0.00000000000000000 0.00000000000000000 1.00000000000000000 0.00000000000000000 
1 0.00000000000000000 -454.99404792590445368 1.00000000000000000 0.00000000000000000 
2 0.00000000000000000 0.00000000000000000 0.00000000000000000 1.00000000000000000 -1.00000000000000000 0.00000000000000000 3.96875000000000000
2 74.70000000000000284 -12.69999999999993889 -1.00000000000000000 -0.00000000000000000 0.00000000000000000 -1.00000000000000000 3.96875000000000000
1 0.00000000000000000 0.00000000000000000 1.00000000000000000 0.00000000000000000 
1 0.00000000000000000 -454.99404792590445368 1.00000000000000000 0.00000000000000000 
2 74.70000000000000284 -12.69999999999993889 -1.00000000000000000 -0.00000000000000000 0.00000000000000000 -1.00000000000000000 3.96875000000000000
1 0.00000000000000000 0.00000000000000000 1.00000000000000000 0.00000000000000000 
1 0.00000000000000000 -454.99404792590445368 1.00000000000000000 0.00000000000000000 
2 74.70000000000000284 -12.69999999999993889 -1.00000000000000000 -0.00000000000000000 0.00000000000000000 -1.00000000000000000 3.96875000000000000
1 87.40000000000000568 -0.00000000000000000 0.00000000000000000 -1.00000000000000000 
1 0.00000000000000000 -0.00000000000000000 0.00000000000000000 -1.00000000000000000 
1 0.00000000000000000 -0.00000000000000000 1.00000000000000000 0.00000000000000000 
1 0.00000000000000355 -120.00000000000000000 1.00000000000000000 0.00000000000000000 
2 12.69999999999993356 -94.59999999999995168 1.00000000000000000 -0.00000000000000111 -0.00000000000000111 -1.00000000000000000 3.96875000000000000
1 0.00000000000000000 -87.39999999999997726 1.00000000000000000 0.00000000000000000 
2 156.70000000000004547 -94.60000000000012221 1.00000000000000000 -0.00000000000000111 -0.00000000000000111 -1.00000000000000000 3.96875000000000000
1 0.00000000000000000 -87.40000000000000568 1.00000000000000000 0.00000000000000000 
2 12.69999999999999751 -25.39999999999984581 1.00000000000000000 -0.00000000000000111 -0.00000000000000111 -1.00000000000000000 3.96875000000000000
1 0.00000000000000000 -87.39999999999997726 1.00000000000000000 0.00000000000000000 
2 156.70000000000007390 -25.40000000000000924 1.00000000000000000 -0.00000000000000111 -0.00000000000000111 -1.00000000000000000 3.96875000000000000
1 0.00000000000000000 -87.40000000000000568 1.00000000000000000 0.00000000000000000 
1 0.00000000000000000 0.00000000000000000 1.00000000000000000 0.00000000000000000 
1 -0.00000000000000355 -120.00000000000000000 1.00000000000000000 0.00000000000000000 
1 0.00000000000000000 0.00000000000000000 1.00000000000000000 0.00000000000000000 
1 0.00000000000000000 -120.00000000000000000 1.00000000000000000 0.00000000000000000 
1 0.00000000000000000 0.00000000000000000 0.00000000000000000 -1.00000000000000000 
1 169.40000000000003411 0.00000000000000417 0.00000000000000000 -1.00000000000000000 
1 0.00000000000000000 0.00000000000000000 1.00000000000000000 0.00000000000000000 
1 0.00000000000000000 -454.99404792590468105 1.00000000000000000 0.00000000000000000 
2 0.00000000000000000 0.00000000000000000 1.00000000000000000 0.00000000000000000 -0.00000000000000000 1.00000000000000000 3.96875000000000000
2 12.69999999999998863 -94.60000000000016485 -1.00000000000000000 -0.00000000000000111 0.00000000000000111 -1.00000000000000000 3.96875000000000000
1 0.00000000000000000 0.00000000000000000 1.00000000000000000 0.00000000000000000 
1 0.00000000000000000 -454.99404792590468105 1.00000000000000000 0.00000000000000000 
2 0.00000000000000000 0.00000000000000000 1.00000000000000000 0.00000000000000000 -0.00000000000000000 1.00000000000000000 3.96875000000000000
2 156.70000000000013074 -94.59999999999998010 -1.00000000000000000 -0.00000000000000111 0.00000000000000111 -1.00000000000000000 3.96875000000000000
1 0.00000000000000000 0.00000000000000000 1.00000000000000000 0.00000000000000000 
1 0.00000000000000000 -454.99404792590468105 1.00000000000000000 0.00000000000000000 
2 0.00000000000000000 0.00000000000000000 1.00000000000000000 0.00000000000000000 -0.00000000000000000 1.00000000000000000 3.96875000000000000
2 12.69999999999989981 -25.40000000000000568 -1.00000000000000000 -0.00000000000000111 0.00000000000000111 -1.00000000000000000 3.96875000000000000
1 0.00000000000000000 0.00000000000000000 1.00000000000000000 0.00000000000000000 
1 0.00000000000000000 -454.99404792590468105 1.00000000000000000 0.00000000000000000 
2 0.00000000000000000 0.00000000000000000 1.00000000000000000 0.00000000000000000 -0.00000000000000000 1.00000000000000000 3.96875000000000000
2 156.70000000000004547 -25.39999999999984226 -1.00000000000000000 -0.00000000000000111 0.00000000000000111 -1.00000000000000000 3.96875000000000000
1 0.00000000000000000 0.00000000000000000 0.00000000000000000 -1.00000000000000000 
1 6.28318530717958623 0.00000000000000000 0.00000000000000000 -1.00000000000000000 
2 74.69999999999998863 -107.30000000000003979 1.00000000000000000 -0.00000000000000000 -0.00000000000000000 -1.00000000000000000 3.96875000000000000
1 0.00000000000000000 -169.40000000000000568 1.00000000000000000 0.00000000000000000 
1 0.00000000000000000 0.00000000000000000 0.00000000000000000 -1.00000000000000000 
1 6.28318530717958623 0.00000000000000000 0.00000000000000000 -1.00000000000000000 
2 12.69999999999999929 -107.30000000000003979 1.00000000000000000 -0.00000000000000000 -0.00000000000000000 -1.00000000000000000 3.96875000000000000
1 0.00000000000000000 -169.40000000000000568 1.00000000000000000 0.00000000000000000 
1 0.00000000000000000 0.00000000000000000 0.00000000000000000 -1.00000000000000000 
1 6.28318530717958623 0.00000000000000000 0.00000000000000000 -1.00000000000000000 
2 74.69999999999998863 -12.69999999999993889 1.00000000000000000 -0.00000000000000000 -0.00000000000000000 -1.00000000000000000 3.96875000000000000
1 0.00000000000000000 -169.40000000000000568 1.00000000000000000 0.00000000000000000 
1 0.00000000000000000 0.00000000000000000 0.00000000000000000 -1.00000000000000000 
1 6.28318530717958623 0.00000000000000000 0.00000000000000000 -1.00000000000000000 
2 12.69999999999999929 -12.69999999999993889 1.00000000000000000 -0.00000000000000000 -0.00000000000000000 -1.00000000000000000 3.96875000000000000
1 0.00000000000000000 -169.40000000000000568 1.00000000000000000 0.00000000000000000 
1 0.00000000000000000 0.00000000000000000 0.00000000000000000 -1.00000000000000000 
1 6.28318530717958623 0.00000000000000000 0.00000000000000000 -1.00000000000000000 
1 0.00000000000000000 0.00000000000000000 0.00000000000000000 -1.00000000000000000 
1 6.28318530717958623 0.00000000000000000 0.00000000000000000 -1.00000000000000000 
1 0.00000000000000000 0.00000000000000000 0.00000000000000000 -1.00000000000000000 
1 6.28318530717958623 0.00000000000000000 0.00000000000000000 -1.00000000000000000 
1 0.00000000000000000 0.00000000000000000 0.00000000000000000 -1.00000000000000000 
1 6.28318530717958623 0.00000000000000000 0.00000000000000000 -1.00000000000000000 
Curves 32
1 -43.70000000000000284 84.69999999999998863 -60.00000000000003553 0.00000000000000000 0.00000000000000044 1.00000000000000000 
1 -43.70000000000000284 84.70000000000001705 0.00000000000000000 1.00000000000000000 0.00000000000000000 0.00000000000000000 
1 43.70000000000000284 84.69999999999998863 -60.00000000000003553 0.00000000000000000 0.00000000000000044 1.00000000000000000 
2 30.99999999999999645 47.30000000000005400 0.00000000000000000 0.00000000000000000 0.00000000000000000 1.00000000000000000 1.00000000000000000 0.00000000000000000 -0.00000000000000000 -0.00000000000000000 1.00000000000000000 0.00000000000000000 3.96875000000000000
2 -30.99999999999999645 47.30000000000005400 0.00000000000000000 0.00000000000000000 0.00000000000000000 1.00000000000000000 1.00000000000000000 0.00000000000000000 -0.00000000000000000 -0.00000000000000000 1.00000000000000000 0.00000000000000000 3.96875000000000000
2 30.99999999999999645 -47.30000000000005400 0.00000000000000000 0.00000000000000000 0.00000000000000000 1.00000000000000000 1.00000000000000000 0.00000000000000000 -0.00000000000000000 -0.00000000000000000 1.00000000000000000 0.00000000000000000 3.96875000000000000
2 -30.99999999999999645 -47.30000000000005400 0.00000000000000000 0.00000000000000000 0.00000000000000000 1.00000000000000000 1.00000000000000000 0.00000000000000000 -0.00000000000000000 -0.00000000000000000 1.00000000000000000 0.00000000000000000 3.96875000000000000
1 -43.70000000000000284 -84.70000000000003126 -59.99999999999996447 0.00000000000000000 0.00000000000000044 1.00000000000000000 
1 -43.70000000000000284 -84.70000000000000284 0.00000000000000000 0.00000000000000000 1.00000000000000000 0.00000000000000000 
2 -43.69999999999999574 -72.00000000000001421 34.60000000000007248 1.00000000000000000 -0.00000000000000022 0.00000000000000000 0.00000000000000022 1.00000000000000000 -0.00000000000000022 0.00000000000000000 0.00000000000000022 1.00000000000000000 3.96875000000000000
2 -43.69999999999999574 72.00000000000007105 34.60000000000004405 1.00000000000000000 -0.00000000000000022 0.00000000000000000 0.00000000000000022 1.00000000000000000 -0.00000000000000022 0.00000000000000000 0.00000000000000022 1.00000000000000000 3.96875000000000000
2 -43.69999999999999574 -72.00000000000004263 -34.60000000000004405 1.00000000000000000 -0.00000000000000022 0.00000000000000000 0.00000000000000022 1.00000000000000000 -0.00000000000000022 0.00000000000000000 0.00000000000000022 1.00000000000000000 3.96875000000000000
2 -43.69999999999999574 72.00000000000004263 -34.60000000000007248 1.00000000000000000 -0.00000000000000022 0.00000000000000000 0.00000000000000022 1.00000000000000000 -0.00000000000000022 0.00000000000000000 0.00000000000000022 1.00000000000000000 3.96875000000000000
1 43.70000000000000284 84.70000000000001705 0.00000000000000000 0.00000000000000000 -1.00000000000000000 0.00000000000000000 
1 43.70000000000000284 -84.70000000000001705 0.00000000000000000 -1.00000000000000000 0.00000000000000016 0.00000000000000000 
1 43.70000000000000284 -84.70000000000004547 -59.99999999999996447 0.00000000000000000 0.00000000000000044 1.00000000000000000 
2 72.00000000000004263 34.60000000000005826 0.00000000000000000 0.00000000000000000 0.00000000000000000 1.00000000000000000 1.00000000000000000 0.00000000000000000 -0.00000000000000000 -0.00000000000000000 1.00000000000000000 0.00000000000000000 3.96875000000000000
2 -72.00000000000004263 34.60000000000005826 0.00000000000000000 0.00000000000000000 0.00000000000000000 1.00000000000000000 1.00000000000000000 0.00000000000000000 -0.00000000000000000 -0.00000000000000000 1.00000000000000000 0.00000000000000000 3.96875000000000000
2 72.00000000000004263 -34.60000000000005826 0.00000000000000000 0.00000000000000000 0.00000000000000000 1.00000000000000000 1.00000000000000000 0.00000000000000000 -0.00000000000000000 -0.00000000000000000 1.00000000000000000 0.00000000000000000 3.96875000000000000
2 -72.00000000000004263 -34.60000000000005826 0.00000000000000000 0.00000000000000000 0.00000000000000000 1.00000000000000000 1.00000000000000000 0.00000000000000000 -0.00000000000000000 -0.00000000000000000 1.00000000000000000 0.00000000000000000 3.96875000000000000
1 -34.96875000000000000 84.70000000000004547 47.29999999999997584 -0.00000000000000000 -1.00000000000000000 0.00000000000000089 
2 -30.99999999999999645 -84.69999999999996021 47.30000000000012506 0.00000000000000000 1.00000000000000000 -0.00000000000000089 -1.00000000000000000 0.00000000000000000 0.00000000000000000 0.00000000000000000 0.00000000000000089 1.00000000000000000 3.96875000000000000
1 27.03124999999999645 84.70000000000004547 47.29999999999997584 -0.00000000000000000 -1.00000000000000000 0.00000000000000089 
2 30.99999999999999645 -84.69999999999996021 47.30000000000012506 0.00000000000000000 1.00000000000000000 -0.00000000000000089 -1.00000000000000000 0.00000000000000000 0.00000000000000000 0.00000000000000000 0.00000000000000089 1.00000000000000000 3.96875000000000000
1 -34.96875000000000000 84.69999999999996021 -47.30000000000013216 -0.00000000000000000 -1.00000000000000000 0.00000000000000089 
2 -30.99999999999999645 -84.70000000000004547 -47.29999999999998295 0.00000000000000000 1.00000000000000000 -0.00000000000000089 -1.00000000000000000 0.00000000000000000 0.00000000000000000 0.00000000000000000 0.00000000000000089 1.00000000000000000 3.96875000000000000
1 27.03124999999999645 84.69999999999996021 -47.30000000000013216 -0.00000000000000000 -1.00000000000000000 0.00000000000000089 
2 30.99999999999999645 -84.70000000000004547 -47.29999999999998295 0.00000000000000000 1.00000000000000000 -0.00000000000000089 -1.00000000000000000 0.00000000000000000 0.00000000000000000 0.00000000000000000 0.00000000000000089 1.00000000000000000 3.96875000000000000
1 43.69999999999998153 -68.03125000000002842 34.60000000000007248 -1.00000000000000000 0.00000000000000022 -0.00000000000000000 
1 43.70000000000000995 75.96875000000005684 34.60000000000004405 -1.00000000000000000 0.00000000000000022 -0.00000000000000000 
1 43.69999999999998153 -68.03125000000005684 -34.60000000000004405 -1.00000000000000000 0.00000000000000022 -0.00000000000000000 
1 43.70000000000000995 75.96875000000002842 -34.60000000000007248 -1.00000000000000000 0.00000000000000022 -0.00000000000000000 
Polygon3D 0
PolygonOnTriangulations 0
Surfaces 29
1 -43.70000000000000284 84.69999999999998863 -60.00000000000003553 0.00000000000000000 1.00000000000000000 -0.00000000000000044 1.00000000000000000 0.00000000000000000 0.00000000000000000 0.00000000000000000 -0.00000000000000044 -1.00000000000000000 
1 -43.70000000000000284 -84.70000000000003126 -59.99999999999996447 -1.00000000000000000 0.00000000000000000 0.00000000000000000 0.00000000000000000 1.00000000000000000 -0.00000000000000044 -0.00000000000000000 -0.00000000000000044 -1.00000000000000000 
1 43.70000000000000284 84.69999999999998863 -60.00000000000003553 1.00000000000000000 0.00000000000000000 -0.00000000000000000 0.00000000000000000 -1.00000000000000000 0.00000000000000044 0.00000000000000000 -0.00000000000000044 -1.00000000000000000 
2 -30.99999999999999645 84.70000000000004547 47.29999999999997584 0.00000000000000000 1.00000000000000000 -0.00000000000000089 -1.00000000000000000 0.00000000000000000 0.00000000000000000 0.00000000000000000 0.00000000000000089 1.00000000000000000 3.96875000000000000
1 -30.99999999999999645 -47.29999999999999005 84.70000000000004547 -0.00000000000000000 -0.00000000000000000 1.00000000000000000 0.00000000000000000 1.00000000000000000 0.00000000000000000 -1.00000000000000000 0.00000000000000000 0.00000000000000000 
2 -30.99999999999999645 84.70000000000004547 47.29999999999997584 0.00000000000000000 1.00000000000000000 -0.00000000000000089 -1.00000000000000000 0.00000000000000000 0.00000000000000000 0.00000000000000000 0.00000000000000089 1.00000000000000000 3.96875000000000000
2 -30.99999999999999645 84.70000000000004547 47.29999999999997584 0.00000000000000000 1.00000000000000000 -0.00000000000000089 -1.00000000000000000 0.00000000000000000 0.00000000000000000 0.00000000000000000 0.00000000000000089 1.00000000000000000 3.96875000000000000
2 30.99999999999999645 84.70000000000004547 47.29999999999997584 0.00000000000000000 1.00000000000000000 -0.00000000000000089 -1.00000000000000000 0.00000000000000000 0.00000000000000000 0.00000000000000000 0.00000000000000089 1.00000000000000000 3.96875000000000000
1 30.99999999999999645 -47.29999999999999005 84.70000000000003126 0.00000000000000000 0.00000000000000000 1.00000000000000000 1.00000000000000000 0.00000000000000000 -0.00000000000000000 -0.00000000000000000 1.00000000000000000 0.00000000000000000 
2 30.99999999999999645 84.70000000000004547 47.29999999999997584 0.00000000000000000 1.00000000000000000 -0.00000000000000089 -1.00000000000000000 0.00000000000000000 0.00000000000000000 0.00000000000000000 0.00000000000000089 1.00000000000000000 3.96875000000000000
2 30.99999999999999645 84.70000000000004547 47.29999999999997584 0.00000000000000000 1.00000000000000000 -0.00000000000000089 -1.00000000000000000 0.00000000000000000 0.00000000000000000 0.00000000000000000 0.00000000000000089 1.00000000000000000 3.96875000000000000
2 -30.99999999999999645 84.69999999999996021 -47.30000000000013216 0.00000000000000000 1.00000000000000000 -0.00000000000000089 -1.00000000000000000 0.00000000000000000 0.00000000000000000 0.00000000000000000 0.00000000000000089 1.00000000000000000 3.96875000000000000
1 -30.99999999999999645 47.30000000000011795 84.69999999999997442 0.00000000000000000 0.00000000000000000 1.00000000000000000 1.00000000000000000 0.00000000000000000 -0.00000000000000000 -0.00000000000000000 1.00000000000000000 0.00000000000000000 
2 -30.99999999999999645 84.69999999999996021 -47.30000000000013216 0.00000000000000000 1.00000000000000000 -0.00000000000000089 -1.00000000000000000 0.00000000000000000 0.00000000000000000 0.00000000000000000 0.00000000000000089 1.00000000000000000 3.96875000000000000
2 -30.99999999999999645 84.69999999999996021 -47.30000000000013216 0.00000000000000000 1.00000000000000000 -0.00000000000000089 -1.00000000000000000 0.00000000000000000 0.00000000000000000 0.00000000000000000 0.00000000000000089 1.00000000000000000 3.96875000000000000
2 30.99999999999999645 84.69999999999996021 -47.30000000000013216 0.00000000000000000 1.00000000000000000 -0.00000000000000089 -1.00000000000000000 0.00000000000000000 0.00000000000000000 0.00000000000000000 0.00000000000000089 1.00000000000000000 3.96875000000000000
1 30.99999999999999645 47.30000000000011084 84.69999999999996021 0.00000000000000000 -0.00000000000000000 1.00000000000000000 0.00000000000000000 1.00000000000000000 0.00000000000000000 -1.00000000000000000 0.00000000000000000 0.00000000000000000 
2 30.99999999999999645 84.69999999999996021 -47.30000000000013216 0.00000000000000000 1.00000000000000000 -0.00000000000000089 -1.00000000000000000 0.00000000000000000 0.00000000000000000 0.00000000000000000 0.00000000000000089 1.00000000000000000 3.96875000000000000
2 30.99999999999999645 84.69999999999996021 -47.30000000000013216 0.00000000000000000 1.00000000000000000 -0.00000000000000089 -1.00000000000000000 0.00000000000000000 0.00000000000000000 0.00000000000000000 0.00000000000000089 1.00000000000000000 3.96875000000000000
1 43.70000000000000284 -84.70000000000004547 -59.99999999999996447 -0.00000000000000016 -1.00000000000000000 0.00000000000000044 -1.00000000000000000 0.00000000000000016 0.00000000000000000 -0.00000000000000000 -0.00000000000000044 -1.00000000000000000 
2 43.69999999999998153 -72.00000000000002842 34.60000000000007248 1.00000000000000000 -0.00000000000000022 0.00000000000000000 0.00000000000000022 1.00000000000000000 -0.00000000000000022 0.00000000000000000 0.00000000000000022 1.00000000000000000 3.96875000000000000
2 43.70000000000000995 72.00000000000005684 34.60000000000004405 1.00000000000000000 -0.00000000000000022 0.00000000000000000 0.00000000000000022 1.00000000000000000 -0.00000000000000022 0.00000000000000000 0.00000000000000022 1.00000000000000000 3.96875000000000000
2 43.69999999999998153 -72.00000000000005684 -34.60000000000004405 1.00000000000000000 -0.00000000000000022 0.00000000000000000 0.00000000000000022 1.00000000000000000 -0.00000000000000022 0.00000000000000000 0.00000000000000022 1.00000000000000000 3.96875000000000000
2 43.70000000000000995 72.00000000000002842 -34.60000000000007248 1.00000000000000000 -0.00000000000000022 0.00000000000000000 0.00000000000000022 1.00000000000000000 -0.00000000000000022 0.00000000000000000 0.00000000000000022 1.00000000000000000 3.96875000000000000
1 -0.00000000000000177 0.00000000000000000 0.00000000000000354 0.00000000000000000 1.00000000000000000 -0.00000000000000022 0.00000000000000000 0.00000000000000022 1.00000000000000000 1.00000000000000000 -0.00000000000000000 0.00000000000000000 
1 43.70000000000000995 -34.60000000000005826 72.00000000000004263 1.00000000000000000 0.00000000000000000 0.00000000000000000 -0.00000000000000000 0.00000000000000000 1.00000000000000000 0.00000000000000000 -1.00000000000000000 0.00000000000000000 
1 43.69999999999998863 -34.60000000000005826 -72.00000000000004263 1.00000000000000000 0.00000000000000000 0.00000000000000000 -0.00000000000000000 0.00000000000000000 1.00000000000000000 0.00000000000000000 -1.00000000000000000 0.00000000000000000 
1 43.70000000000000995 34.60000000000005826 72.00000000000004263 1.00000000000000000 0.00000000000000000 0.00000000000000000 -0.00000000000000000 0.00000000000000000 1.00000000000000000 0.00000000000000000 -1.00000000000000000 0.00000000000000000 
1 43.69999999999998863 34.60000000000005826 -72.00000000000004263 1.00000000000000000 0.00000000000000000 0.00000000000000000 -0.00000000000000000 0.00000000000000000 1.00000000000000000 0.00000000000000000 -1.00000000000000000 0.00000000000000000 
Triangulations 0

TShapes 96
Ve
0.001000000000000
-43.700000000000003 84.700000000000017 0.000000000000000
0 0

0101101
*
Ed
 0.000000100000007 1 1 0
1  1 0 0.000000000000000 120.000000000000000
2  1 1 0 0.000000000000000 120.000000000000000
2  2 2 0 0.000000000000000 120.000000000000000
0

0101000
+96 12 -96 14 *
Ve
0.001000000000000
43.700000000000003 84.700000000000017 0.000000000000000
0 0

0101101
*
Ed
 0.001000000000000 1 1 0
1  2 0 0.000000000000000 87.400000000000006
2  3 1 16 0.000000000000000 87.400000000000006
2  4 1 17 0.000000000000000 87.400000000000006
0

0101000
+96 0 -94 0 *
Ed
 0.000000100000000 1 1 0
1  3 0 0.000000000000000 120.000000000000000
2  5 1 0 0.000000000000000 120.000000000000000
2  6 3 0 0.000000000000000 120.000000000000000
0

0101000
+94 12 -94 14 *
Wi

0101100
+95 7 -93 15 +93 18 -92 7 *
Ve
0.000000100000014
34.968750000000000 47.300000000000054 0.000000000000000
0 0

0101101
*
Ed
 0.000000100000014 1 1 0
1  4 0 0.000000000000000 6.283185307179586
2  7 4 25 0.000000000000000 6.283185307179586
2  8 4 27 0.000000000000000 6.283185307179586
2  9 5 28 0.000000000000000 6.283185307179586
2  10 1 29 0.000000000000000 6.283185307179586
2  11 6 33 0.000000000000000 6.283185307179586
2  12 6 35 0.000000000000000 6.283185307179586
2  13 1 36 0.000000000000000 6.283185307179586
2  14 7 37 0.000000000000000 6.283185307179586
2  15 7 39 0.000000000000000 6.283185307179586
2  16 1 40 0.000000000000000 6.283185307179586
0

0101000
+90 0 -90 0 *
Wi

0101100
-89 21 *
Ve
0.000000100000014
-27.031249999999996 47.300000000000054 0.000000000000000
0 0

0101101
*
Ed
 0.000000100000014 1 1 0
1  5 0 0.000000000000000 6.283185307179586
2  17 8 25 0.000000000000000 6.283185307179586
2  18 8 27 0.000000000000000 6.283185307179586
2  19 9 28 0.000000000000000 6.283185307179586
2  20 1 29 0.000000000000000 6.283185307179586
2  21 10 33 0.000000000000000 6.283185307179586
2  22 10 35 0.000000000000000 6.283185307179586
2  23 1 36 0.000000000000000 6.283185307179586
2  24 11 37 0.000000000000000 6.283185307179586
2  25 11 39 0.000000000000000 6.283185307179586
2  26 1 40 0.000000000000000 6.283185307179586
0

0101000
+87 0 -87 0 *
Wi

0101100
-86 21 *
Ve
0.000000100000000
34.968750000000000 -47.300000000000054 0.000000000000000
0 0

0101101
*
Ed
 0.000000100000000 1 1 0
1  6 0 0.000000000000000 6.283185307179586
2  27 12 25 0.000000000000000 6.283185307179586
2  28 12 27 0.000000000000000 6.283185307179586
2  29 13 28 0.000000000000000 6.283185307179586
2  30 1 29 0.000000000000000 6.283185307179586
2  31 14 33 0.000000000000000 6.283185307179586
2  32 14 35 0.000000000000000 6.283185307179586
2  33 1 36 0.000000000000000 6.283185307179586
2  34 15 37 0.000000000000000 6.283185307179586
2  35 15 39 0.000000000000000 6.283185307179586
2  36 1 40 0.000000000000000 6.283185307179586
0

0101000
+84 0 -84 0 *
Wi

0101100
-83 21 *
Ve
0.000000100000000
-27.031249999999996 -47.300000000000054 0.000000000000000
0 0

0101101
*
Ed
 0.000000100000000 1 1 0
1  7 0 0.000000000000000 6.283185307179586
2  37 16 25 0.000000000000000 6.283185307179586
2  38 16 27 0.000000000000000 6.283185307179586
2  39 17 28 0.000000000000000 6.283185307179586
2  40 1 29 0.000000000000000 6.283185307179586
2  41 18 33 0.000000000000000 6.283185307179586
2  42 18 35 0.000000000000000 6.283185307179586
2  43 1 36 0.000000000000000 6.283185307179586
2  44 19 37 0.000000000000000 6.283185307179586
2  45 19 39 0.000000000000000 6.283185307179586
2  46 1 40 0.000000000000000 6.283185307179586
0

0101000
+81 0 -81 0 *
Wi

0101100
-80 21 *
Fa
0  0.000000100000000 1 7

0101000
+91 0 +88 0 +85 0 +82 0 +79 0 *
Ve
0.001000000000000
-43.700000000000003 -84.700000000000003 0.000000000000000
0 0

0101101
*
Ed
 0.000000100000000 1 1 0
1  8 0 0.000000000000000 120.000000000000000
2  47 20 0 0.000000000000000 120.000000000000000
2  48 2 0 0.000000000000000 120.000000000000000
0

0101000
+77 12 -77 14 *
Ed
 0.001000000000000 1 1 0
1  9 0 0.000000000000000 169.400000000000034
2  49 2 16 0.000000000000000 169.400000000000034
2  50 2 17 0.000000000000000 169.400000000000034
0

0101000
+77 0 -96 0 *
Wi

0101100
+76 41 -75 42 +75 43 -95 41 *
Ve
0.000000100000000
-43.699999999999996 -68.031250000000014 34.600000000000072
0 0

0101101
*
Ed
 0.000000100000000 1 1 0
1  10 0 0.000000000000000 6.283185307179586
2  51 2 41 0.000000000000000 6.283185307179586
2  52 21 0 0.000000000000000 6.283185307179586
0

0101000
+73 0 -73 0 *
Wi

0101100
+72 0 *
Ve
0.000000100000000
-43.699999999999996 75.968750000000071 34.600000000000044
0 0

0101101
*
Ed
 0.000000100000000 1 1 0
1  11 0 0.000000000000000 6.283185307179586
2  53 2 41 0.000000000000000 6.283185307179586
2  54 22 0 0.000000000000000 6.283185307179586
0

0101000
+70 0 -70 0 *
Wi

0101100
+69 0 *
Ve
0.000000100000000
-43.699999999999996 -68.031250000000043 -34.600000000000044
0 0

0101101
*
Ed
 0.000000100000000 1 1 0
1  12 0 0.000000000000000 6.283185307179586
2  55 2 41 0.000000000000000 6.283185307179586
2  56 23 0 0.000000000000000 6.283185307179586
0

0101000
+67 0 -67 0 *
Wi

0101100
+66 0 *
Ve
0.000000100000000
-43.699999999999996 75.968750000000043 -34.600000000000072
0 0

0101101
*
Ed
 0.000000100000000 1 1 0
1  13 0 0.000000000000000 6.283185307179586
2  57 2 41 0.000000000000000 6.283185307179586
2  58 24 0 0.000000000000000 6.283185307179586
0

0101000
+64 0 -64 0 *
Wi

0101100
+63 0 *
Fa
0  0.000000100000000 2 41

0101000
+74 0 +71 0 +68 0 +65 0 +62 0 *
Ve
0.001000000000000
43.700000000000003 -84.700000000000017 0.000000000000000
0 0

0101101
*
Ed
 0.001000000000000 1 1 0
1  14 0 0.000000000000000 169.400000000000034
2  59 3 16 0.000000000000000 169.400000000000034
2  60 3 17 0.000000000000000 169.400000000000034
0

0101000
+94 0 -60 0 *
Ed
 0.001000000000000 1 1 0
1  15 0 0.000000000000000 87.400000000000006
2  61 20 16 0.000000000000000 87.400000000000006
2  62 20 17 0.000000000000000 87.400000000000006
0

0101000
+60 0 -77 0 *
Wi

0101100
+93 0 +59 0 +58 0 +75 0 *
Fa
0  0.000000100000000 25 0

0101000
+57 45 *
Ed
 0.000000100000000 1 1 0
1  16 0 0.000000000000000 120.000000000000000
2  63 20 0 0.000000000000000 120.000000000000000
2  64 3 0 0.000000000000000 120.000000000000000
0

0101000
+60 12 -60 14 *
Wi

0101100
+92 41 -59 42 +59 43 -55 41 *
Ve
0.000000100000014
75.968750000000043 34.600000000000058 0.000000000000000
0 0

0101101
*
Ed
 0.000000100000014 1 1 0
1  17 0 0.000000000000000 6.283185307179586
2  65 22 50 0.000000000000000 6.283185307179586
2  66 22 52 0.000000000000000 6.283185307179586
2  67 26 53 0.000000000000000 6.283185307179586
2  68 3 54 0.000000000000000 6.283185307179586
0

0101000
+53 0 -53 0 *
Wi

0101100
-52 49 *
Ve
0.000000100000014
-68.031250000000043 34.600000000000058 0.000000000000000
0 0

0101101
*
Ed
 0.000000100000014 1 1 0
1  18 0 0.000000000000000 6.283185307179586
2  69 21 50 0.000000000000000 6.283185307179586
2  70 21 52 0.000000000000000 6.283185307179586
2  71 27 53 0.000000000000000 6.283185307179586
2  72 3 54 0.000000000000000 6.283185307179586
0

0101000
+50 0 -50 0 *
Wi

0101100
-49 49 *
Ve
0.000000100000014
75.968750000000043 -34.600000000000058 0.000000000000000
0 0

0101101
*
Ed
 0.000000100000014 1 1 0
1  19 0 0.000000000000000 6.283185307179586
2  73 24 50 0.000000000000000 6.283185307179586
2  74 24 52 0.000000000000000 6.283185307179586
2  75 28 53 0.000000000000000 6.283185307179586
2  76 3 54 0.000000000000000 6.283185307179586
0

0101000
+47 0 -47 0 *
Wi

0101100
-46 49 *
Ve
0.000000100000014
-68.031250000000043 -34.600000000000058 0.000000000000000
0 0

0101101
*
Ed
 0.000000100000014 1 1 0
1  20 0 0.000000000000000 6.283185307179586
2  77 23 50 0.000000000000000 6.283185307179586
2  78 23 52 0.000000000000000 6.283185307179586
2  79 29 53 0.000000000000000 6.283185307179586
2  80 3 54 0.000000000000000 6.283185307179586
0

0101000
+44 0 -44 0 *
Wi

0101100
-43 49 *
Fa
0  0.000000100000000 3 41

0101000
+54 0 +51 0 +48 0 +45 0 +42 0 *
Ve
0.000000100000014
-34.968750000000000 -84.699999999999960 47.300000000000125
0 0

0101101
*
Ed
 0.000000100000014 1 1 0
1  21 0 0.000000000000000 169.400000000000006
3  81 82CN 7 0 0.000000000000000 169.400000000000006
0

0101000
+90 21 -40 0 *
Ed
 0.000000100000014 1 1 0
1  22 0 0.000000000000000 6.283185307179586
2  83 20 7 0.000000000000000 6.283185307179586
2  84 7 0 0.000000000000000 6.283185307179586
0

0101000
+40 0 -40 0 *
Wi

0101100
-89 21 -39 0 +38 0 +39 0 *
Fa
0  0.000000100000014 7 0

0101000
+37 0 *
Ve
0.000000100000014
27.031249999999996 -84.699999999999960 47.300000000000125
0 0

0101101
*
Ed
 0.000000100000014 1 1 0
1  23 0 0.000000000000000 169.400000000000006
3  85 86CN 11 0 0.000000000000000 169.400000000000006
0

0101000
+87 21 -35 0 *
Ed
 0.000000100000014 1 1 0
1  24 0 0.000000000000000 6.283185307179586
2  87 20 7 0.000000000000000 6.283185307179586
2  88 11 0 0.000000000000000 6.283185307179586
0

0101000
+35 0 -35 0 *
Wi

0101100
-86 21 -34 0 +33 0 +34 0 *
Fa
0  0.000000100000014 11 0

0101000
+32 0 *
Ve
0.000000100000000
-34.968750000000000 -84.700000000000045 -47.299999999999983
0 0

0101101
*
Ed
 0.000000100000000 1 1 0
1  25 0 0.000000000000000 169.400000000000006
3  89 90CN 15 0 0.000000000000000 169.400000000000006
0

0101000
+84 21 -30 0 *
Ed
 0.000000100000000 1 1 0
1  26 0 0.000000000000000 6.283185307179586
2  91 20 7 0.000000000000000 6.283185307179586
2  92 15 0 0.000000000000000 6.283185307179586
0

0101000
+30 0 -30 0 *
Wi

0101100
-83 21 -29 0 +28 0 +29 0 *
Fa
0  0.000000100000000 15 0

0101000
+27 0 *
Ve
0.000000100000000
27.031249999999996 -84.700000000000045 -47.299999999999983
0 0

0101101
*
Ed
 0.000000100000000 1 1 0
1  27 0 0.000000000000000 169.400000000000006
3  93 94CN 19 0 0.000000000000000 169.400000000000006
0

0101000
+81 21 -25 0 *
Ed
 0.000000100000000 1 1 0
1  28 0 0.000000000000000 6.283185307179586
2  95 20 7 0.000000000000000 6.283185307179586
2  96 19 0 0.000000000000000 6.283185307179586
0

0101000
+25 0 -25 0 *
Wi

0101100
-80 21 -24 0 +23 0 +24 0 *
Fa
0  0.000000100000000 19 0

0101000
+22 0 *
Wi

0101100
+55 7 -58 15 +58 18 -76 7 *
Wi

0101100
+33 0 *
Wi

0101100
+38 0 *
Wi

0101100
+23 0 *
Wi

0101100
+28 0 *
Fa
0  0.000000100000000 20 7

0101000
+20 0 +19 0 +18 0 +17 0 +16 0 *
Ed
 0.000000100000000 1 1 0
1  29 0 0.000000000000000 87.399999999999977
3  97 98CN 21 0 0.000000000000000 87.399999999999977
0

0101000
+50 49 -73 0 *
Wi

0101100
-49 49 -14 0 +72 0 +14 0 *
Fa
0  0.000000100000000 21 0

0101000
+13 0 *
Ed
 0.000000100000000 1 1 0
1  30 0 0.000000000000000 87.400000000000006
3  99 100CN 22 0 0.000000000000000 87.400000000000006
0

0101000
+53 49 -70 0 *
Wi

0101100
-52 49 -11 0 +69 0 +11 0 *
Fa
0  0.000000100000000 22 0

0101000
+10 0 *
Ed
 0.000000100000000 1 1 0
1  31 0 0.000000000000000 87.399999999999977
3  101 102CN 23 0 0.000000000000000 87.399999999999977
0

0101000
+44 49 -67 0 *
Wi

0101100
-43 49 -8 0 +66 0 +8 0 *
Fa
0  0.000000100000000 23 0

0101000
+7 0 *
Ed
 0.000000100000000 1 1 0
1  32 0 0.000000000000000 87.400000000000006
3  103 104CN 24 0 0.000000000000000 87.400000000000006
0

0101000
+47 49 -64 0 *
Wi

0101100
-46 49 -5 0 +63 0 +5 0 *
Fa
0  0.000000100000000 24 0

0101000
+4 0 *
Sh

0101100
+78 4 +61 0 +56 44 -56 46 +41 0 -36 4 -31 4 -26 4 -21 4 +15 4 
-12 0 -9 0 -6 0 -3 0 *
So

0100000
+2 0 *

+1 1 