
CASCADE Topology V1, (c) Matra-Datavision
Locations 29
1
1.000000000000000 0.000000000000000 0.000000000000000 0.000000000000000 
0.000000000000000 1.000000000000000 0.000000000000000 0.000000000000000 
0.000000000000000 0.000000000000000 1.000000000000000 0.000000000000000 
1
-1.000000000000000 0.000000000000000 0.000000000000000 0.000000000000000 
0.000000000000000 -1.000000000000000 0.000000000000001 0.000000000000056 
0.000000000000000 0.000000000000001 1.000000000000000 84.700000000000003 
1
1.000000000000000 0.000000000000000 0.000000000000000 0.000000000000000 
0.000000000000000 -0.000000000000000 -1.000000000000000 0.000000000000000 
0.000000000000000 1.000000000000000 -0.000000000000000 0.000000000000000 
2  1 1 2 1 3 -1 0
1
1.000000000000000 0.000000000000000 0.000000000000000 -0.000000000000000 
0.000000000000000 1.000000000000000 0.000000000000000 -454.994047925904454 
0.000000000000000 0.000000000000000 1.000000000000000 0.000000000000404 
2  1 1 2 1 3 -1 5 1 0
1
1.000000000000000 0.000000000000000 0.000000000000000 0.000000000000000 
0.000000000000000 -0.000000000000000 -1.000000000000000 0.000000000000000 
0.000000000000000 1.000000000000000 -0.000000000000000 0.000000000000000 
1
-1.000000000000000 0.000000000000000 0.000000000000000 0.000000000000000 
0.000000000000000 -1.000000000000000 0.000000000000001 0.000000000000056 
0.000000000000000 0.000000000000001 1.000000000000000 84.700000000000003 
1
1.000000000000000 0.000000000000000 0.000000000000000 0.000000000000000 
0.000000000000000 1.000000000000000 0.000000000000000 0.000000000000000 
0.000000000000000 0.000000000000000 1.000000000000000 0.000000000000000 
2  7 1 8 -1 9 -1 0
1
1.000000000000000 0.000000000000000 0.000000000000000 -0.000000000000000 
0.000000000000000 1.000000000000000 0.000000000000000 -454.994047925904454 
0.000000000000000 0.000000000000000 1.000000000000000 0.000000000000404 
2  11 -1 7 1 8 -1 9 -1 0
2  8 -1 9 -1 0
1
1.000000000000000 0.000000000000000 0.000000000000000 0.000000000000000 
0.000000000000000 0.000000000000000 -1.000000000000000 0.000000000000000 
0.000000000000000 1.000000000000000 0.000000000000000 0.000000000000000 
2  14 1 8 -1 9 -1 0
1
1.000000000000000 0.000000000000000 0.000000000000000 0.000000000000000 
0.000000000000000 -0.000000000000000 -1.000000000000000 0.000000000000000 
0.000000000000000 1.000000000000000 -0.000000000000000 0.000000000000000 
1
-1.000000000000000 0.000000000000000 0.000000000000000 0.000000000000000 
0.000000000000000 -1.000000000000000 0.000000000000001 0.000000000000056 
0.000000000000000 0.000000000000001 1.000000000000000 84.700000000000003 
1
1.000000000000000 0.000000000000000 0.000000000000000 0.000000000000000 
0.000000000000000 1.000000000000000 0.000000000000000 0.000000000000000 
0.000000000000000 0.000000000000000 1.000000000000000 0.000000000000000 
2  16 1 17 -1 18 -1 0
1
1.000000000000000 0.000000000000000 0.000000000000000 -0.000000000000000 
0.000000000000000 1.000000000000000 0.000000000000000 -454.994047925904454 
0.000000000000000 0.000000000000000 1.000000000000000 0.000000000000404 
2  20 -1 16 1 17 -1 18 -1 0
2  14 1 17 -1 18 -1 0
2  3 1 2 -1 1 -1 0
2  5 -1 3 1 2 -1 1 -1 0
2  14 1 2 -1 1 -1 0
2  3 -1 0
2  8 -1 9 -1 1 1 2 1 0
2  1 1 2 1 0
2  3 -1 5 1 0
Curve2ds 48
1 0.00000000000000000 0.00000000000000000 0.00000000000000000 -1.00000000000000000 
1 6.28318530717958623 0.00000000000000000 0.00000000000000000 -1.00000000000000000 
1 0.00000000000000000 0.00000000000000000 1.00000000000000000 0.00000000000000000 
1 0.00000000000000000 -454.99404792590445368 1.00000000000000000 0.00000000000000000 
2 0.00000000000000000 -0.00000000000000711 -1.00000000000000000 0.00000000000000000 -0.00000000000000000 -1.00000000000000000 3.96875000000000355
2 12.69999999999999929 -12.69999999999993889 -1.00000000000000000 -0.00000000000000000 0.00000000000000000 -1.00000000000000000 3.96875000000000355
1 0.00000000000000000 0.00000000000000000 1.00000000000000000 0.00000000000000000 
1 0.00000000000000000 -454.99404792590445368 1.00000000000000000 0.00000000000000000 
2 12.69999999999999929 -12.69999999999993889 -1.00000000000000000 -0.00000000000000000 0.00000000000000000 -1.00000000000000000 3.96875000000000355
1 0.00000000000000000 0.00000000000000000 1.00000000000000000 0.00000000000000000 
1 0.00000000000000000 -454.99404792590445368 1.00000000000000000 0.00000000000000000 
2 12.69999999999999929 -12.69999999999993889 -1.00000000000000000 -0.00000000000000000 0.00000000000000000 -1.00000000000000000 3.96875000000000355
1 0.00000000000000000 0.00000000000000000 0.00000000000000000 -1.00000000000000000 
1 6.28318530717958623 0.00000000000000000 0.00000000000000000 -1.00000000000000000 
1 0.00000000000000000 0.00000000000000000 1.00000000000000000 0.00000000000000000 
1 0.00000000000000000 -454.99404792590445368 1.00000000000000000 0.00000000000000000 
2 0.00000000000000000 0.00000000000000000 0.00000000000000000 1.00000000000000000 -1.00000000000000000 0.00000000000000000 3.96875000000000000
2 74.70000000000000284 -12.69999999999993889 -1.00000000000000000 -0.00000000000000000 0.00000000000000000 -1.00000000000000000 3.96875000000000000
1 0.00000000000000000 0.00000000000000000 1.00000000000000000 0.00000000000000000 
1 0.00000000000000000 -454.99404792590445368 1.00000000000000000 0.00000000000000000 
2 74.70000000000000284 -12.69999999999993889 -1.00000000000000000 -0.00000000000000000 0.00000000000000000 -1.00000000000000000 3.96875000000000000
1 0.00000000000000000 0.00000000000000000 1.00000000000000000 0.00000000000000000 
1 0.00000000000000000 -454.99404792590445368 1.00000000000000000 0.00000000000000000 
2 74.70000000000000284 -12.69999999999993889 -1.00000000000000000 -0.00000000000000000 0.00000000000000000 -1.00000000000000000 3.96875000000000000
1 0.00000000000000000 0.00000000000000000 0.00000000000000000 -1.00000000000000000 
1 6.28318530717958623 0.00000000000000000 0.00000000000000000 -1.00000000000000000 
1 0.00000000000000000 0.00000000000000000 1.00000000000000000 0.00000000000000000 
1 0.00000000000000000 -454.99404792590445368 1.00000000000000000 0.00000000000000000 
2 -0.00000000000000711 -0.00000000000000000 0.00000000000000000 1.00000000000000000 -1.00000000000000000 0.00000000000000000 3.96875000000000355
2 12.69999999999999929 -107.30000000000006821 -1.00000000000000000 -0.00000000000000000 0.00000000000000000 -1.00000000000000000 3.96875000000000355
1 0.00000000000000000 0.00000000000000000 1.00000000000000000 0.00000000000000000 
1 0.00000000000000000 -454.99404792590445368 1.00000000000000000 0.00000000000000000 
2 12.69999999999999929 -107.30000000000006821 -1.00000000000000000 -0.00000000000000000 0.00000000000000000 -1.00000000000000000 3.96875000000000355
1 0.00000000000000000 0.00000000000000000 1.00000000000000000 0.00000000000000000 
1 0.00000000000000000 -454.99404792590445368 1.00000000000000000 0.00000000000000000 
2 12.69999999999999929 -107.30000000000006821 -1.00000000000000000 -0.00000000000000000 0.00000000000000000 -1.00000000000000000 3.96875000000000355
1 0.00000000000000000 0.00000000000000000 0.00000000000000000 -1.00000000000000000 
1 6.28318530717958623 0.00000000000000000 0.00000000000000000 -1.00000000000000000 
1 0.00000000000000000 0.00000000000000000 1.00000000000000000 0.00000000000000000 
1 0.00000000000000000 -454.99404792590445368 1.00000000000000000 0.00000000000000000 
2 0.00000000000000000 -0.00000000000000711 -1.00000000000000000 0.00000000000000000 -0.00000000000000000 -1.00000000000000000 3.96875000000000000
2 74.70000000000000284 -107.30000000000006821 -1.00000000000000000 -0.00000000000000000 0.00000000000000000 -1.00000000000000000 3.96875000000000000
1 0.00000000000000000 0.00000000000000000 1.00000000000000000 0.00000000000000000 
1 0.00000000000000000 -454.99404792590445368 1.00000000000000000 0.00000000000000000 
2 74.70000000000000284 -107.30000000000006821 -1.00000000000000000 -0.00000000000000000 0.00000000000000000 -1.00000000000000000 3.96875000000000000
1 0.00000000000000000 0.00000000000000000 1.00000000000000000 0.00000000000000000 
1 0.00000000000000000 -454.99404792590445368 1.00000000000000000 0.00000000000000000 
2 74.70000000000000284 -107.30000000000006821 -1.00000000000000000 -0.00000000000000000 0.00000000000000000 -1.00000000000000000 3.96875000000000000
Curves 8
1 -34.96875000000000000 84.69999999999996021 -47.30000000000013216 -0.00000000000000000 -1.00000000000000000 0.00000000000000089 
2 30.99999999999999645 -47.30000000000005400 0.00000000000000000 0.00000000000000000 0.00000000000000000 1.00000000000000000 1.00000000000000000 0.00000000000000000 -0.00000000000000000 -0.00000000000000000 1.00000000000000000 0.00000000000000000 3.96875000000000000
1 27.03124999999999645 84.69999999999996021 -47.30000000000013216 -0.00000000000000000 -1.00000000000000000 0.00000000000000089 
2 -30.99999999999999645 -47.30000000000005400 0.00000000000000000 0.00000000000000000 0.00000000000000000 1.00000000000000000 1.00000000000000000 0.00000000000000000 -0.00000000000000000 -0.00000000000000000 1.00000000000000000 0.00000000000000000 3.96875000000000000
1 -34.96875000000000000 84.70000000000004547 47.29999999999997584 -0.00000000000000000 -1.00000000000000000 0.00000000000000089 
2 30.99999999999999645 47.30000000000005400 0.00000000000000000 0.00000000000000000 0.00000000000000000 1.00000000000000000 1.00000000000000000 0.00000000000000000 -0.00000000000000000 -0.00000000000000000 1.00000000000000000 0.00000000000000000 3.96875000000000000
1 27.03124999999999645 84.70000000000004547 47.29999999999997584 -0.00000000000000000 -1.00000000000000000 0.00000000000000089 
2 -30.99999999999999645 47.30000000000005400 0.00000000000000000 0.00000000000000000 0.00000000000000000 1.00000000000000000 1.00000000000000000 0.00000000000000000 -0.00000000000000000 -0.00000000000000000 1.00000000000000000 0.00000000000000000 3.96875000000000000
Polygon3D 0
PolygonOnTriangulations 0
Surfaces 17
2 -30.99999999999999645 84.69999999999996021 -47.30000000000013216 0.00000000000000000 1.00000000000000000 -0.00000000000000089 -1.00000000000000000 0.00000000000000000 0.00000000000000000 0.00000000000000000 0.00000000000000089 1.00000000000000000 3.96875000000000000
2 -30.99999999999999645 84.69999999999996021 -47.30000000000013216 0.00000000000000000 1.00000000000000000 -0.00000000000000089 -1.00000000000000000 0.00000000000000000 0.00000000000000000 0.00000000000000000 0.00000000000000089 1.00000000000000000 3.96875000000000000
1 -30.99999999999999645 47.30000000000011795 84.69999999999997442 0.00000000000000000 0.00000000000000000 1.00000000000000000 1.00000000000000000 0.00000000000000000 -0.00000000000000000 -0.00000000000000000 1.00000000000000000 0.00000000000000000 
1 -43.70000000000000284 84.69999999999998863 -60.00000000000003553 0.00000000000000000 1.00000000000000000 -0.00000000000000044 1.00000000000000000 0.00000000000000000 0.00000000000000000 0.00000000000000000 -0.00000000000000044 -1.00000000000000000 
2 -30.99999999999999645 84.69999999999996021 -47.30000000000013216 0.00000000000000000 1.00000000000000000 -0.00000000000000089 -1.00000000000000000 0.00000000000000000 0.00000000000000000 0.00000000000000000 0.00000000000000089 1.00000000000000000 3.96875000000000000
2 30.99999999999999645 84.69999999999996021 -47.30000000000013216 0.00000000000000000 1.00000000000000000 -0.00000000000000089 -1.00000000000000000 0.00000000000000000 0.00000000000000000 0.00000000000000000 0.00000000000000089 1.00000000000000000 3.96875000000000000
2 30.99999999999999645 84.69999999999996021 -47.30000000000013216 0.00000000000000000 1.00000000000000000 -0.00000000000000089 -1.00000000000000000 0.00000000000000000 0.00000000000000000 0.00000000000000000 0.00000000000000089 1.00000000000000000 3.96875000000000000
1 30.99999999999999645 47.30000000000011084 84.69999999999996021 0.00000000000000000 -0.00000000000000000 1.00000000000000000 0.00000000000000000 1.00000000000000000 0.00000000000000000 -1.00000000000000000 0.00000000000000000 0.00000000000000000 
2 30.99999999999999645 84.69999999999996021 -47.30000000000013216 0.00000000000000000 1.00000000000000000 -0.00000000000000089 -1.00000000000000000 0.00000000000000000 0.00000000000000000 0.00000000000000000 0.00000000000000089 1.00000000000000000 3.96875000000000000
2 -30.99999999999999645 84.70000000000004547 47.29999999999997584 0.00000000000000000 1.00000000000000000 -0.00000000000000089 -1.00000000000000000 0.00000000000000000 0.00000000000000000 0.00000000000000000 0.00000000000000089 1.00000000000000000 3.96875000000000000
2 -30.99999999999999645 84.70000000000004547 47.29999999999997584 0.00000000000000000 1.00000000000000000 -0.00000000000000089 -1.00000000000000000 0.00000000000000000 0.00000000000000000 0.00000000000000000 0.00000000000000089 1.00000000000000000 3.96875000000000000
1 -30.99999999999999645 -47.29999999999999005 84.70000000000004547 -0.00000000000000000 -0.00000000000000000 1.00000000000000000 0.00000000000000000 1.00000000000000000 0.00000000000000000 -1.00000000000000000 0.00000000000000000 0.00000000000000000 
2 -30.99999999999999645 84.70000000000004547 47.29999999999997584 0.00000000000000000 1.00000000000000000 -0.00000000000000089 -1.00000000000000000 0.00000000000000000 0.00000000000000000 0.00000000000000000 0.00000000000000089 1.00000000000000000 3.96875000000000000
2 30.99999999999999645 84.70000000000004547 47.29999999999997584 0.00000000000000000 1.00000000000000000 -0.00000000000000089 -1.00000000000000000 0.00000000000000000 0.00000000000000000 0.00000000000000000 0.00000000000000089 1.00000000000000000 3.96875000000000000
2 30.99999999999999645 84.70000000000004547 47.29999999999997584 0.00000000000000000 1.00000000000000000 -0.00000000000000089 -1.00000000000000000 0.00000000000000000 0.00000000000000000 0.00000000000000000 0.00000000000000089 1.00000000000000000 3.96875000000000000
1 30.99999999999999645 -47.29999999999999005 84.70000000000003126 0.00000000000000000 0.00000000000000000 1.00000000000000000 1.00000000000000000 0.00000000000000000 -0.00000000000000000 -0.00000000000000000 1.00000000000000000 0.00000000000000000 
2 30.99999999999999645 84.70000000000004547 47.29999999999997584 0.00000000000000000 1.00000000000000000 -0.00000000000000089 -1.00000000000000000 0.00000000000000000 0.00000000000000000 0.00000000000000000 0.00000000000000089 1.00000000000000000 3.96875000000000000
Triangulations 0

TShapes 37
Ve
0.000000100000000
34.968750000000000 -47.300000000000054 0.000000000000000
0 0

0101101
*
Ed
 0.000000100000000 1 1 0
1  1 0 0.000000000000000 454.994047925904454
3  1 2CN 1 0 0.000000000000000 454.994047925904454
0

0101000
+37 4 -37 6 *
Ed
 0.000000100000000 1 1 0
1  2 0 0.000000000000000 6.283185307179586
2  3 2 10 0.000000000000000 6.283185307179586
2  4 2 12 0.000000000000000 6.283185307179586
2  5 3 13 0.000000000000000 6.283185307179586
2  6 4 15 0.000000000000000 6.283185307179586
2  7 5 19 0.000000000000000 6.283185307179586
2  8 5 21 0.000000000000000 6.283185307179586
2  9 4 22 0.000000000000000 6.283185307179586
2  10 1 23 0.000000000000000 6.283185307179586
2  11 1 24 0.000000000000000 6.283185307179586
2  12 4 25 0.000000000000000 6.283185307179586
0

0101000
+37 0 -37 0 *
Wi

0101100
+36 0 -36 0 -35 4 +35 6 *
Fa
0  0.000000100000000 1 0

0111000
+34 0 *
Wi

0101100
+35 0 *
Fa
0  0.000000100000000 3 27

0111000
+32 28 *
Sh

0101100
+33 0 +31 26 -31 29 *
So

0100000
+30 0 *
Ve
0.000000100000000
-27.031249999999996 -47.300000000000054 0.000000000000000
0 0

0101101
*
Ed
 0.000000100000000 1 1 0
1  3 0 0.000000000000000 454.994047925904454
3  13 14CN 6 0 0.000000000000000 454.994047925904454
0

0101000
+28 4 -28 6 *
Ed
 0.000000100000000 1 1 0
1  4 0 0.000000000000000 6.283185307179586
2  15 7 10 0.000000000000000 6.283185307179586
2  16 7 12 0.000000000000000 6.283185307179586
2  17 8 13 0.000000000000000 6.283185307179586
2  18 4 15 0.000000000000000 6.283185307179586
2  19 9 19 0.000000000000000 6.283185307179586
2  20 9 21 0.000000000000000 6.283185307179586
2  21 4 22 0.000000000000000 6.283185307179586
2  22 6 23 0.000000000000000 6.283185307179586
2  23 6 24 0.000000000000000 6.283185307179586
2  24 4 25 0.000000000000000 6.283185307179586
0

0101000
+28 0 -28 0 *
Wi

0101100
+27 0 -27 0 -26 4 +26 6 *
Fa
0  0.000000100000000 6 0

0111000
+25 0 *
Wi

0101100
+26 0 *
Fa
0  0.000000100000000 8 27

0111000
+23 28 *
Sh

0101100
+24 0 +22 26 -22 29 *
So

0100000
+21 0 *
Ve
0.000000100000014
34.968750000000000 47.300000000000054 0.000000000000000
0 0

0101101
*
Ed
 0.000000100000014 1 1 0
1  5 0 0.000000000000000 454.994047925904454
3  25 26CN 10 0 0.000000000000000 454.994047925904454
0

0101000
+19 4 -19 6 *
Ed
 0.000000100000014 1 1 0
1  6 0 0.000000000000000 6.283185307179586
2  27 11 10 0.000000000000000 6.283185307179586
2  28 11 12 0.000000000000000 6.283185307179586
2  29 12 13 0.000000000000000 6.283185307179586
2  30 4 15 0.000000000000000 6.283185307179586
2  31 13 19 0.000000000000000 6.283185307179586
2  32 13 21 0.000000000000000 6.283185307179586
2  33 4 22 0.000000000000000 6.283185307179586
2  34 10 23 0.000000000000000 6.283185307179586
2  35 10 24 0.000000000000000 6.283185307179586
2  36 4 25 0.000000000000000 6.283185307179586
0

0101000
+19 0 -19 0 *
Wi

0101100
+18 0 -18 0 -17 4 +17 6 *
Fa
0  0.000000100000014 10 0

0111000
+16 0 *
Wi

0101100
+17 0 *
Fa
0  0.000000100000014 12 27

0111000
+14 28 *
Sh

0101100
+15 0 +13 26 -13 29 *
So

0100000
+12 0 *
Ve
0.000000100000014
-27.031249999999996 47.300000000000054 0.000000000000000
0 0

0101101
*
Ed
 0.000000100000014 1 1 0
1  7 0 0.000000000000000 454.994047925904454
3  37 38CN 14 0 0.000000000000000 454.994047925904454
0

0101000
+10 4 -10 6 *
Ed
 0.000000100000014 1 1 0
1  8 0 0.000000000000000 6.283185307179586
2  39 15 10 0.000000000000000 6.283185307179586
2  40 15 12 0.000000000000000 6.283185307179586
2  41 16 13 0.000000000000000 6.283185307179586
2  42 4 15 0.000000000000000 6.283185307179586
2  43 17 19 0.000000000000000 6.283185307179586
2  44 17 21 0.000000000000000 6.283185307179586
2  45 4 22 0.000000000000000 6.283185307179586
2  46 14 23 0.000000000000000 6.283185307179586
2  47 14 24 0.000000000000000 6.283185307179586
2  48 4 25 0.000000000000000 6.283185307179586
0

0101000
+10 0 -10 0 *
Wi

0101100
+9 0 -9 0 -8 4 +8 6 *
Fa
0  0.000000100000014 14 0

0111000
+7 0 *
Wi

0101100
+8 0 *
Fa
0  0.000000100000014 16 27

0111000
+5 28 *
Sh

0101100
+6 0 +4 26 -4 29 *
So

0100000
+3 0 *
Co

1100000
+29 0 +20 0 +11 0 +2 0 *

+1 0 