
CASCADE Topology V1, (c) Matra-Datavision
Locations 42
1
1.000000000000000 0.000000000000000 0.000000000000000 0.000000000000000 
0.000000000000000 1.000000000000000 0.000000000000000 0.000000000000000 
0.000000000000000 0.000000000000000 1.000000000000000 0.000000000000000 
1
1.000000000000000 0.000000000000000 0.000000000000000 0.000000000000000 
0.000000000000000 1.000000000000000 0.000000000000000 0.000000000000000 
0.000000000000000 0.000000000000000 1.000000000000000 0.000000000000000 
1
1.000000000000000 0.000000000000000 0.000000000000000 0.000000000000000 
0.000000000000000 1.000000000000000 0.000000000000000 0.000000000000000 
0.000000000000000 0.000000000000000 1.000000000000000 0.000000000000000 
1
1.000000000000000 0.000000000000000 0.000000000000000 0.000000000000000 
0.000000000000000 1.000000000000000 0.000000000000000 0.000000000000000 
0.000000000000000 0.000000000000000 1.000000000000000 0.000000000000000 
1
1.000000000000000 0.000000000000000 0.000000000000000 0.000000000000000 
0.000000000000000 1.000000000000000 0.000000000000000 0.000000000000000 
0.000000000000000 0.000000000000000 1.000000000000000 0.000000000000000 
1
1.000000000000000 0.000000000000000 0.000000000000000 0.000000000000000 
0.000000000000000 1.000000000000000 0.000000000000000 0.000000000000000 
0.000000000000000 0.000000000000000 1.000000000000000 0.000000000000000 
2  2 1 3 -1 4 1 5 -1 6 1 0
2  6 -1 5 1 4 -1 3 1 2 -1 0
1
1.000000000000000 0.000000000000000 0.000000000000000 0.000000000000000 
0.000000000000000 1.000000000000000 0.000000000000000 0.000000000000000 
0.000000000000000 0.000000000000000 1.000000000000000 0.000000000000000 
1
1.000000000000000 0.000000000000000 0.000000000000000 0.000000000000000 
0.000000000000000 1.000000000000000 0.000000000000000 0.000000000000000 
0.000000000000000 0.000000000000000 1.000000000000000 0.000000000000000 
1
1.000000000000000 0.000000000000000 0.000000000000000 0.000000000000000 
0.000000000000000 1.000000000000000 0.000000000000000 0.000000000000000 
0.000000000000000 0.000000000000000 1.000000000000000 0.000000000000000 
2  9 1 10 1 11 -1 2 1 3 -1 4 1 5 -1 6 1 0
1
1.000000000000000 0.000000000000000 0.000000000000000 0.000000000000000 
0.000000000000000 1.000000000000000 0.000000000000000 0.000000000000000 
0.000000000000000 0.000000000000000 1.000000000000000 0.000000000000000 
2  13 -1 6 -1 5 1 4 -1 3 1 2 -1 11 1 10 -1 9 -1 0
2  13 -1 0
1
1.000000000000000 0.000000000000000 0.000000000000000 0.000000000000000 
0.000000000000000 1.000000000000000 0.000000000000000 0.000000000000000 
0.000000000000000 0.000000000000000 1.000000000000000 8.000000000000000 
2  9 1 10 1 11 -1 16 1 2 1 3 -1 4 1 5 -1 6 1 0
2  13 -1 6 -1 5 1 4 -1 3 1 2 -1 16 -1 11 1 10 -1 9 -1 0
2  4 1 5 -1 6 1 0
2  11 -1 2 1 3 -1 0
2  6 -1 5 1 4 -1 0
2  13 -1 6 -1 5 1 4 -1 0
2  11 -1 16 1 2 1 3 -1 4 1 5 -1 0
2  6 -1 0
1
1.000000000000000 0.000000000000000 0.000000000000000 0.000000000000000 
0.000000000000000 1.000000000000000 0.000000000000000 0.000000000000000 
0.000000000000000 0.000000000000000 1.000000000000000 0.000000000000000 
1
1.000000000000000 0.000000000000000 0.000000000000000 0.000000000000000 
0.000000000000000 1.000000000000000 0.000000000000000 0.000000000000000 
0.000000000000000 0.000000000000000 1.000000000000000 8.000000000000000 
2  25 1 26 1 3 -1 4 1 5 -1 0
2  3 1 26 -1 25 -1 0
2  13 -1 6 -1 5 1 4 -1 3 1 26 -1 25 -1 0
1
1.000000000000000 0.000000000000000 0.000000000000000 0.000000000000000 
0.000000000000000 1.000000000000000 0.000000000000000 0.000000000000000 
0.000000000000000 0.000000000000000 1.000000000000000 0.000000000000000 
1
1.000000000000000 0.000000000000000 0.000000000000000 0.000000000000000 
0.000000000000000 1.000000000000000 0.000000000000000 0.000000000000000 
0.000000000000000 0.000000000000000 1.000000000000000 8.000000000000000 
2  30 1 31 1 5 -1 0
2  5 1 31 -1 30 -1 0
2  13 -1 6 -1 5 1 31 -1 30 -1 0
2  25 1 26 1 3 -1 0
2  13 -1 6 -1 0
1
1.000000000000000 0.000000000000000 0.000000000000000 0.000000000000000 
0.000000000000000 1.000000000000000 0.000000000000000 0.000000000000000 
0.000000000000000 0.000000000000000 1.000000000000000 2.000000000000000 
2  30 1 31 1 5 -1 37 1 0
2  37 -1 5 1 31 -1 30 -1 0
2  13 -1 6 -1 37 -1 5 1 31 -1 30 -1 0
2  5 -1 37 1 6 1 0
2  30 1 31 1 0
Curve2ds 24
1 0.00000000000000000 -8.00000000000000000 1.00000000000000000 0.00000000000000000 
1 0.00000000000000000 -8.00000000000000000 1.00000000000000000 0.00000000000000000 
1 0.00000000000000000 -8.00000000000000000 1.00000000000000000 0.00000000000000000 
1 0.00000000000000000 -8.00000000000000000 1.00000000000000000 0.00000000000000000 
1 0.00000000000000000 0.00000000000000000 1.00000000000000000 0.00000000000000000 
1 0.00000000000000000 0.00000000000000000 1.00000000000000000 0.00000000000000000 
1 0.00000000000000000 0.00000000000000000 1.00000000000000000 0.00000000000000000 
1 0.00000000000000000 0.00000000000000000 1.00000000000000000 0.00000000000000000 
1 0.00000000000000000 0.00000000000000000 1.00000000000000000 0.00000000000000000 
1 0.00000000000000000 0.00000000000000000 0.00000000000000000 -1.00000000000000000 
1 6.28318530717958623 0.00000000000000000 0.00000000000000000 -1.00000000000000000 
1 0.00000000000000000 0.00000000000000000 0.00000000000000000 -1.00000000000000000 
1 6.28318530717958623 0.00000000000000000 0.00000000000000000 -1.00000000000000000 
1 0.00000000000000000 0.00000000000000000 0.00000000000000000 -1.00000000000000000 
1 6.28318530717958623 0.00000000000000000 0.00000000000000000 -1.00000000000000000 
1 0.00000000000000000 0.00000000000000000 0.00000000000000000 -1.00000000000000000 
1 6.28318530717958623 0.00000000000000000 0.00000000000000000 -1.00000000000000000 
1 0.00000000000000000 0.00000000000000000 0.00000000000000000 -1.00000000000000000 
1 6.28318530717958623 0.00000000000000000 0.00000000000000000 -1.00000000000000000 
1 0.00000000000000000 -2.00000000000000000 1.00000000000000000 0.00000000000000000 
1 0.00000000000000000 -2.00000000000000000 1.00000000000000000 0.00000000000000000 
1 0.00000000000000000 0.00000000000000000 0.00000000000000000 -1.00000000000000000 
1 6.28318530717958623 0.00000000000000000 0.00000000000000000 -1.00000000000000000 
1 0.00000000000000000 0.00000000000000000 1.00000000000000000 0.00000000000000000 
Curves 42
1 -21.00000000000000000 21.00000000000000000 0.00000000000000000 1.00000000000000000 0.00000000000000000 0.00000000000000000 
1 -17.00000000000000000 21.00000000000000000 0.00000000000000000 0.00000000000000000 0.00000000000000000 1.00000000000000000 
1 17.00000000000000000 21.00000000000000000 0.00000000000000000 0.00000000000000000 0.00000000000000000 1.00000000000000000 
1 -21.00000000000000000 21.00000000000000000 0.00000000000000000 1.00000000000000000 0.00000000000000000 0.00000000000000000 
8 -2.82842712474619029 2.82842712474619029
1 -19.00000000000000000 19.00000000000000000 0.00000000000000000 -0.70710678118654757 -0.70710678118654757 0.00000000000000000 
8 -2.82842712474619029 2.82842712474619029
1 19.00000000000000000 19.00000000000000000 0.00000000000000000 0.70710678118654757 -0.70710678118654757 0.00000000000000000 
1 -21.00000000000000000 -21.00000000000000000 0.00000000000000000 0.00000000000000000 1.00000000000000000 0.00000000000000000 
1 21.00000000000000000 21.00000000000000000 0.00000000000000000 0.00000000000000000 -1.00000000000000000 0.00000000000000000 
8 -2.82842712474619029 2.82842712474619029
1 -19.00000000000000000 -19.00000000000000000 0.00000000000000000 0.70710678118654757 -0.70710678118654757 0.00000000000000000 
8 -2.82842712474619029 2.82842712474619029
1 19.00000000000000000 -19.00000000000000000 0.00000000000000000 -0.70710678118654757 -0.70710678118654757 0.00000000000000000 
1 21.00000000000000000 -21.00000000000000000 0.00000000000000000 -1.00000000000000000 0.00000000000000000 0.00000000000000000 
2 15.50000000000000000 -15.50000000000000000 0.00000000000000000 0.00000000000000000 0.00000000000000000 1.00000000000000000 1.00000000000000000 0.00000000000000000 -0.00000000000000000 -0.00000000000000000 1.00000000000000000 0.00000000000000000 1.50000000000000000
2 -15.50000000000000000 -15.50000000000000000 0.00000000000000000 0.00000000000000000 0.00000000000000000 1.00000000000000000 1.00000000000000000 0.00000000000000000 -0.00000000000000000 -0.00000000000000000 1.00000000000000000 0.00000000000000000 1.50000000000000000
2 15.50000000000000000 15.50000000000000000 0.00000000000000000 0.00000000000000000 0.00000000000000000 1.00000000000000000 1.00000000000000000 0.00000000000000000 -0.00000000000000000 -0.00000000000000000 1.00000000000000000 0.00000000000000000 1.50000000000000000
2 -15.50000000000000000 15.50000000000000000 0.00000000000000000 0.00000000000000000 0.00000000000000000 1.00000000000000000 1.00000000000000000 0.00000000000000000 -0.00000000000000000 -0.00000000000000000 1.00000000000000000 0.00000000000000000 1.50000000000000000
1 -21.00000000000000000 17.00000000000000000 0.00000000000000000 0.00000000000000000 0.00000000000000000 1.00000000000000000 
8 -2.82842712474619029 2.82842712474619029
1 -19.00000000000000000 19.00000000000000000 8.00000000000000000 -0.70710678118654757 -0.70710678118654757 0.00000000000000000 
1 21.00000000000000000 17.00000000000000000 0.00000000000000000 0.00000000000000000 0.00000000000000000 1.00000000000000000 
8 -2.82842712474619029 2.82842712474619029
1 19.00000000000000000 19.00000000000000000 8.00000000000000000 0.70710678118654757 -0.70710678118654757 0.00000000000000000 
1 -21.00000000000000000 -21.00000000000000000 0.00000000000000000 0.00000000000000000 1.00000000000000000 0.00000000000000000 
1 21.00000000000000000 21.00000000000000000 0.00000000000000000 0.00000000000000000 -1.00000000000000000 0.00000000000000000 
8 -2.82842712474619029 2.82842712474619029
1 -19.00000000000000000 -19.00000000000000000 8.00000000000000000 0.70710678118654757 -0.70710678118654757 0.00000000000000000 
8 -2.82842712474619029 2.82842712474619029
1 19.00000000000000000 -19.00000000000000000 8.00000000000000000 -0.70710678118654757 -0.70710678118654757 0.00000000000000000 
1 21.00000000000000000 -21.00000000000000000 0.00000000000000000 -1.00000000000000000 0.00000000000000000 0.00000000000000000 
2 15.50000000000000000 -15.50000000000000000 0.00000000000000000 0.00000000000000000 0.00000000000000000 1.00000000000000000 1.00000000000000000 0.00000000000000000 -0.00000000000000000 -0.00000000000000000 1.00000000000000000 0.00000000000000000 1.50000000000000000
2 -15.50000000000000000 -15.50000000000000000 0.00000000000000000 0.00000000000000000 0.00000000000000000 1.00000000000000000 1.00000000000000000 0.00000000000000000 -0.00000000000000000 -0.00000000000000000 1.00000000000000000 0.00000000000000000 1.50000000000000000
2 15.50000000000000000 15.50000000000000000 0.00000000000000000 0.00000000000000000 0.00000000000000000 1.00000000000000000 1.00000000000000000 0.00000000000000000 -0.00000000000000000 -0.00000000000000000 1.00000000000000000 0.00000000000000000 1.50000000000000000
2 0.00000000000000000 0.00000000000000000 0.00000000000000000 0.00000000000000000 0.00000000000000000 1.00000000000000000 1.00000000000000000 0.00000000000000000 -0.00000000000000000 -0.00000000000000000 1.00000000000000000 0.00000000000000000 11.00000000000000000
2 -15.50000000000000000 15.50000000000000000 0.00000000000000000 0.00000000000000000 0.00000000000000000 1.00000000000000000 1.00000000000000000 0.00000000000000000 -0.00000000000000000 -0.00000000000000000 1.00000000000000000 0.00000000000000000 1.50000000000000000
1 -21.00000000000000000 -17.00000000000000000 0.00000000000000000 0.00000000000000000 0.00000000000000000 1.00000000000000000 
1 21.00000000000000000 -17.00000000000000000 0.00000000000000000 0.00000000000000000 0.00000000000000000 1.00000000000000000 
1 -17.00000000000000000 -21.00000000000000000 0.00000000000000000 0.00000000000000000 0.00000000000000000 1.00000000000000000 
1 17.00000000000000000 -21.00000000000000000 0.00000000000000000 0.00000000000000000 0.00000000000000000 1.00000000000000000 
1 17.00000000000000000 -15.50000000000000000 8.00000000000000000 -0.00000000000000000 -0.00000000000000000 -1.00000000000000000 
1 -14.00000000000000000 -15.50000000000000000 8.00000000000000000 -0.00000000000000000 -0.00000000000000000 -1.00000000000000000 
1 17.00000000000000000 15.50000000000000000 8.00000000000000000 -0.00000000000000000 -0.00000000000000000 -1.00000000000000000 
1 -14.00000000000000000 15.50000000000000000 8.00000000000000000 -0.00000000000000000 -0.00000000000000000 -1.00000000000000000 
1 11.00000000000000000 0.00000000000000000 8.00000000000000000 0.00000000000000000 0.00000000000000000 1.00000000000000000 
2 0.00000000000000000 0.00000000000000000 0.00000000000000000 0.00000000000000000 0.00000000000000000 1.00000000000000000 1.00000000000000000 0.00000000000000000 -0.00000000000000000 -0.00000000000000000 1.00000000000000000 0.00000000000000000 11.00000000000000000
2 0.00000000000000000 0.00000000000000000 0.00000000000000000 0.00000000000000000 0.00000000000000000 1.00000000000000000 1.00000000000000000 0.00000000000000000 -0.00000000000000000 -0.00000000000000000 1.00000000000000000 0.00000000000000000 4.50000000000000000
1 4.50000000000000000 0.00000000000000000 8.00000000000000000 0.00000000000000000 0.00000000000000000 1.00000000000000000 
2 0.00000000000000000 0.00000000000000000 0.00000000000000000 0.00000000000000000 0.00000000000000000 1.00000000000000000 1.00000000000000000 0.00000000000000000 -0.00000000000000000 -0.00000000000000000 1.00000000000000000 0.00000000000000000 4.50000000000000000
Polygon3D 0
PolygonOnTriangulations 0
Surfaces 18
1 -21.00000000000000000 21.00000000000000000 0.00000000000000000 0.00000000000000000 1.00000000000000000 0.00000000000000000 1.00000000000000000 0.00000000000000000 0.00000000000000000 0.00000000000000000 0.00000000000000000 -1.00000000000000000 
1 0.00000000000000000 0.00000000000000000 0.00000000000000000 -0.00000000000000000 -0.00000000000000000 -1.00000000000000000 -1.00000000000000000 0.00000000000000000 0.00000000000000000 0.00000000000000000 1.00000000000000000 -0.00000000000000000 
2 15.50000000000000000 -15.50000000000000000 8.00000000000000000 0.00000000000000000 0.00000000000000000 1.00000000000000000 1.00000000000000000 0.00000000000000000 -0.00000000000000000 -0.00000000000000000 1.00000000000000000 0.00000000000000000 1.50000000000000000
2 -15.50000000000000000 -15.50000000000000000 8.00000000000000000 0.00000000000000000 0.00000000000000000 1.00000000000000000 1.00000000000000000 0.00000000000000000 -0.00000000000000000 -0.00000000000000000 1.00000000000000000 0.00000000000000000 1.50000000000000000
2 15.50000000000000000 15.50000000000000000 8.00000000000000000 0.00000000000000000 0.00000000000000000 1.00000000000000000 1.00000000000000000 0.00000000000000000 -0.00000000000000000 -0.00000000000000000 1.00000000000000000 0.00000000000000000 1.50000000000000000
2 -15.50000000000000000 15.50000000000000000 8.00000000000000000 0.00000000000000000 0.00000000000000000 1.00000000000000000 1.00000000000000000 0.00000000000000000 -0.00000000000000000 -0.00000000000000000 1.00000000000000000 0.00000000000000000 1.50000000000000000
1 -19.00000000000000000 19.00000000000000000 0.00000000000000000 -0.70710678118654757 0.70710678118654757 0.00000000000000000 0.00000000000000000 0.00000000000000000 1.00000000000000000 -0.70710678118654757 -0.70710678118654757 0.00000000000000000 
1 19.00000000000000000 19.00000000000000000 0.00000000000000000 0.70710678118654757 0.70710678118654757 0.00000000000000000 0.00000000000000000 -0.00000000000000000 1.00000000000000000 0.70710678118654757 -0.70710678118654757 -0.00000000000000000 
1 0.00000000000000000 0.00000000000000000 0.00000000000000000 -0.00000000000000000 -0.00000000000000000 -1.00000000000000000 -1.00000000000000000 0.00000000000000000 0.00000000000000000 0.00000000000000000 1.00000000000000000 -0.00000000000000000 
2 0.00000000000000000 0.00000000000000000 8.00000000000000000 -0.00000000000000000 -0.00000000000000000 -1.00000000000000000 1.00000000000000000 0.00000000000000000 0.00000000000000000 -0.00000000000000000 1.00000000000000000 -0.00000000000000000 11.00000000000000000
1 -21.00000000000000000 -21.00000000000000000 0.00000000000000000 -1.00000000000000000 0.00000000000000000 0.00000000000000000 0.00000000000000000 1.00000000000000000 0.00000000000000000 0.00000000000000000 0.00000000000000000 -1.00000000000000000 
1 21.00000000000000000 21.00000000000000000 0.00000000000000000 1.00000000000000000 0.00000000000000000 0.00000000000000000 0.00000000000000000 -1.00000000000000000 0.00000000000000000 0.00000000000000000 0.00000000000000000 -1.00000000000000000 
1 -19.00000000000000000 -19.00000000000000000 0.00000000000000000 -0.70710678118654757 -0.70710678118654757 0.00000000000000000 0.00000000000000000 0.00000000000000000 1.00000000000000000 0.70710678118654757 -0.70710678118654757 -0.00000000000000000 
1 19.00000000000000000 -19.00000000000000000 0.00000000000000000 0.70710678118654757 -0.70710678118654757 0.00000000000000000 0.00000000000000000 0.00000000000000000 1.00000000000000000 -0.70710678118654757 -0.70710678118654757 0.00000000000000000 
1 21.00000000000000000 -21.00000000000000000 0.00000000000000000 0.00000000000000000 -1.00000000000000000 0.00000000000000000 -1.00000000000000000 0.00000000000000000 0.00000000000000000 -0.00000000000000000 -0.00000000000000000 -1.00000000000000000 
1 -0.00000000000000075 -0.00000000000000045 8.00000000000000000 0.00000000000000000 0.00000000000000000 1.00000000000000000 1.00000000000000000 0.00000000000000000 -0.00000000000000000 -0.00000000000000000 1.00000000000000000 0.00000000000000000 
2 0.00000000000000000 0.00000000000000000 8.00000000000000000 -0.00000000000000000 -0.00000000000000000 -1.00000000000000000 1.00000000000000000 0.00000000000000000 0.00000000000000000 -0.00000000000000000 1.00000000000000000 -0.00000000000000000 4.50000000000000000
1 0.00000000000000000 0.00000000000000000 0.00000000000000000 -0.00000000000000000 -0.00000000000000000 -1.00000000000000000 -1.00000000000000000 0.00000000000000000 0.00000000000000000 0.00000000000000000 1.00000000000000000 -0.00000000000000000 
Triangulations 0

TShapes 118
Ve
0.000100000000000
-17.000000000000000 21.000000000000000 0.000000000000000
0 0

0101101
*
Ve
0.000100000000000
17.000000000000000 21.000000000000000 0.000000000000000
0 0

0101101
*
Ed
 0.000000100000000 1 1 0
1  1 0 4.000000000000000 38.000000000000000
0

0101000
+118 14 -117 14 *
Ve
0.000100000000000
-17.000000000000000 21.000000000000000 8.000000000000000
0 0

0101101
*
Ed
 0.000000100000000 1 1 0
1  2 0 -0.000000000000000 8.000000000000000
0

0101000
+118 15 -115 15 *
Ve
0.000100000000000
17.000000000000000 21.000000000000000 8.000000000000000
0 0

0101101
*
Ed
 0.000000100000000 1 1 0
1  3 0 -0.000000000000000 8.000000000000000
0

0101000
+117 15 -113 15 *
Ed
 0.000000100000000 1 1 0
1  4 0 4.000000000000000 38.000000000000000
0

0101000
+115 18 -113 18 *
Wi

0101100
-116 12 +114 0 -112 0 +111 17 *
Fa
0  0.000000100000000 1 0

0111000
+110 8 *
Ve
0.000100000000000
-21.000000000000000 17.000000000000000 0.000000000000000
0 0

0101101
*
Ed
 0.000000100000000 1 1 0
1  5 0 -2.828427124746190 2.828427124746190
0

0101000
+118 15 -108 15 *
Ve
0.000100000000000
21.000000000000000 17.000000000000000 0.000000000000000
0 0

0101101
*
Ed
 0.000000100000000 1 1 0
1  6 0 -2.828427124746190 2.828427124746190
0

0101000
+117 15 -106 15 *
Ve
0.000100000000000
-21.000000000000000 -17.000000000000000 0.000000000000000
0 0

0101101
*
Ed
 0.000000100000000 1 1 0
1  7 0 4.000000000000000 38.000000000000000
0

0101000
+104 14 -108 14 *
Ve
0.000100000000000
21.000000000000000 -17.000000000000000 0.000000000000000
0 0

0101101
*
Ed
 0.000000100000000 1 1 0
1  8 0 4.000000000000000 38.000000000000000
0

0101000
+106 14 -102 14 *
Ve
0.000100000000000
-17.000000000000000 -21.000000000000000 0.000000000000000
0 0

0101101
*
Ed
 0.000000100000000 1 1 0
1  9 0 -2.828427124746190 2.828427124746190
0

0101000
+104 15 -100 15 *
Ve
0.000100000000000
17.000000000000000 -21.000000000000000 0.000000000000000
0 0

0101101
*
Ed
 0.000000100000000 1 1 0
1  10 0 -2.828427124746190 2.828427124746190
0

0101000
+102 15 -98 15 *
Ed
 0.000000100000000 1 1 0
1  11 0 4.000000000000000 38.000000000000000
0

0101000
+98 14 -100 14 *
Wi

0101100
+116 12 -107 0 +105 0 +103 12 +101 12 -99 0 +97 0 +96 12 *
Ve
0.000000100000000
17.000000000000000 -15.500000000000000 0.000000000000000
0 0

0101101
*
Ed
 0.000000100000000 1 1 0
1  12 0 0.000000000000000 6.283185307179586
2  1 3 0 0.000000000000000 6.283185307179586
0

0101000
+94 22 -94 22 *
Wi

0101100
+93 0 *
Ve
0.000000100000000
-14.000000000000000 -15.500000000000000 0.000000000000000
0 0

0101101
*
Ed
 0.000000100000000 1 1 0
1  13 0 0.000000000000000 6.283185307179586
2  2 4 0 0.000000000000000 6.283185307179586
0

0101000
+91 22 -91 22 *
Wi

0101100
+90 0 *
Ve
0.000000100000000
17.000000000000000 15.500000000000000 0.000000000000000
0 0

0101101
*
Ed
 0.000000100000000 1 1 0
1  14 0 0.000000000000000 6.283185307179586
2  3 5 0 0.000000000000000 6.283185307179586
0

0101000
+88 22 -88 22 *
Wi

0101100
+87 0 *
Ve
0.000000100000000
-14.000000000000000 15.500000000000000 0.000000000000000
0 0

0101101
*
Ed
 0.000000100000000 1 1 0
1  15 0 0.000000000000000 6.283185307179586
2  4 6 0 0.000000000000000 6.283185307179586
0

0101000
+85 22 -85 22 *
Wi

0101100
+84 0 *
Fa
0  0.000000100000000 2 20

0111000
+95 21 +92 0 +89 0 +86 0 +83 0 *
Ve
0.000100000000000
-21.000000000000000 17.000000000000000 8.000000000000000
0 0

0101101
*
Ed
 0.000000100000000 1 1 0
1  16 0 -0.000000000000000 8.000000000000000
0

0101000
+108 15 -81 15 *
Ed
 0.000000100000000 1 1 0
1  17 0 -2.828427124746190 2.828427124746190
0

0101000
+115 15 -81 15 *
Wi

0101100
-107 0 +114 0 -80 0 +79 0 *
Fa
0  0.000000100000000 7 0

0111000
+78 0 *
Ve
0.000100000000000
21.000000000000000 17.000000000000000 8.000000000000000
0 0

0101101
*
Ed
 0.000000100000000 1 1 0
1  18 0 -0.000000000000000 8.000000000000000
0

0101000
+106 15 -76 15 *
Ed
 0.000000100000000 1 1 0
1  19 0 -2.828427124746190 2.828427124746190
0

0101000
+113 15 -76 15 *
Wi

0101100
-105 0 +112 0 -75 0 +74 0 *
Fa
0  0.000000100000000 8 0

0111000
+73 0 *
Ve
0.000100000000000
-21.000000000000000 -17.000000000000000 8.000000000000000
0 0

0101101
*
Ed
 0.000000100000000 1 1 0
1  20 0 4.000000000000000 38.000000000000000
0

0101000
+71 18 -81 18 *
Ve
0.000100000000000
21.000000000000000 -17.000000000000000 8.000000000000000
0 0

0101101
*
Ed
 0.000000100000000 1 1 0
1  21 0 4.000000000000000 38.000000000000000
0

0101000
+76 18 -69 18 *
Ve
0.000100000000000
-17.000000000000000 -21.000000000000000 8.000000000000000
0 0

0101101
*
Ed
 0.000000100000000 1 1 0
1  22 0 -2.828427124746190 2.828427124746190
0

0101000
+71 15 -67 15 *
Ve
0.000100000000000
17.000000000000000 -21.000000000000000 8.000000000000000
0 0

0101101
*
Ed
 0.000000100000000 1 1 0
1  23 0 -2.828427124746190 2.828427124746190
0

0101000
+69 15 -65 15 *
Ed
 0.000000100000000 1 1 0
1  24 0 4.000000000000000 38.000000000000000
0

0101000
+65 18 -67 18 *
Wi

0101100
+111 17 -79 0 +74 0 +70 17 +68 17 -66 0 +64 0 +63 17 *
Ve
0.000000100000000
17.000000000000000 -15.500000000000000 8.000000000000000
0 0

0101101
*
Ed
 0.000000100000000 1 1 0
1  25 0 0.000000000000000 6.283185307179586
2  5 3 28 0.000000000000000 6.283185307179586
0

0101000
+61 29 -61 29 *
Wi

0101100
+60 27 *
Ve
0.000000100000000
-14.000000000000000 -15.500000000000000 8.000000000000000
0 0

0101101
*
Ed
 0.000000100000000 1 1 0
1  26 0 0.000000000000000 6.283185307179586
2  6 4 28 0.000000000000000 6.283185307179586
0

0101000
+58 29 -58 29 *
Wi

0101100
+57 27 *
Ve
0.000000100000000
17.000000000000000 15.500000000000000 8.000000000000000
0 0

0101101
*
Ed
 0.000000100000000 1 1 0
1  27 0 0.000000000000000 6.283185307179586
2  7 5 28 0.000000000000000 6.283185307179586
0

0101000
+55 29 -55 29 *
Wi

0101100
+54 27 *
Ve
0.000000100000000
11.000000000000000 0.000000000000000 8.000000000000000
0 0

0101101
*
Ed
 0.000000100000000 1 1 0
1  28 0 0.000000000000000 6.283185307179586
2  8 10 33 0.000000000000000 6.283185307179586
0

0101000
+52 34 -52 34 *
Wi

0101100
+51 32 *
Ve
0.000000100000000
-14.000000000000000 15.500000000000000 8.000000000000000
0 0

0101101
*
Ed
 0.000000100000000 1 1 0
1  29 0 0.000000000000000 6.283185307179586
2  9 6 28 0.000000000000000 6.283185307179586
0

0101000
+49 29 -49 29 *
Wi

0101100
+48 27 *
Fa
0  0.000000100000000 9 23

0111000
+62 24 +59 0 +56 0 +53 0 +50 0 +47 0 *
Ed
 0.000000100000000 1 1 0
1  30 0 -0.000000000000000 8.000000000000000
0

0101000
+104 15 -71 15 *
Wi

0101100
-103 12 +45 0 -80 0 +70 17 *
Fa
0  0.000000100000000 11 0

0111000
+44 8 *
Ed
 0.000000100000000 1 1 0
1  31 0 -0.000000000000000 8.000000000000000
0

0101000
+102 15 -69 15 *
Wi

0101100
-101 12 +75 0 -42 0 +68 17 *
Fa
0  0.000000100000000 12 0

0111000
+41 8 *
Ed
 0.000000100000000 1 1 0
1  32 0 -0.000000000000000 8.000000000000000
0

0101000
+100 15 -67 15 *
Wi

0101100
-99 0 +45 0 -39 0 +66 0 *
Fa
0  0.000000100000000 13 0

0111000
+38 0 *
Ed
 0.000000100000000 1 1 0
1  33 0 -0.000000000000000 8.000000000000000
0

0101000
+98 15 -65 15 *
Wi

0101100
-97 0 +42 0 -36 0 +64 0 *
Fa
0  0.000000100000000 14 0

0111000
+35 0 *
Wi

0101100
-96 12 +36 0 -39 0 +63 17 *
Fa
0  0.000000100000000 15 0

0111000
+33 8 *
Ed
 0.000000100000000 1 1 0
1  34 0 0.000000000000000 8.000000000000000
3  10 11CN 3 0 0.000000000000000 8.000000000000000
0

0101000
+61 22 -94 22 *
Wi

0101100
-60 35 -31 0 +93 0 +31 0 *
Fa
0  0.000000100000000 3 0

0111000
+30 0 *
Ed
 0.000000100000000 1 1 0
1  35 0 0.000000000000000 8.000000000000000
3  12 13CN 4 0 0.000000000000000 8.000000000000000
0

0101000
+58 22 -91 22 *
Wi

0101100
-57 35 -28 0 +90 0 +28 0 *
Fa
0  0.000000100000000 4 0

0111000
+27 0 *
Ed
 0.000000100000000 1 1 0
1  36 0 0.000000000000000 8.000000000000000
3  14 15CN 5 0 0.000000000000000 8.000000000000000
0

0101000
+55 22 -88 22 *
Wi

0101100
-54 35 -25 0 +87 0 +25 0 *
Fa
0  0.000000100000000 5 0

0111000
+24 0 *
Ed
 0.000000100000000 1 1 0
1  37 0 0.000000000000000 8.000000000000000
3  16 17CN 6 0 0.000000000000000 8.000000000000000
0

0101000
+49 22 -85 22 *
Wi

0101100
-48 35 -22 0 +84 0 +22 0 *
Fa
0  0.000000100000000 6 0

0111000
+21 0 *
Ve
0.000000100000000
11.000000000000000 0.000000000000000 10.000000000000000
0 0

0101101
*
Ed
 0.000000100000000 1 1 0
1  38 0 0.000000000000000 2.000000000000000
3  18 19CN 10 0 0.000000000000000 2.000000000000000
0

0101000
+52 36 -19 36 *
Ed
 0.000000100000000 1 1 0
1  39 0 0.000000000000000 6.283185307179586
2  20 10 39 0.000000000000000 6.283185307179586
0

0101000
+19 40 -19 40 *
Wi

0101100
+18 0 -18 0 -51 32 +17 38 *
Fa
0  0.000000100000000 10 0

0111000
+16 0 *
Wi

0101100
+17 42 *
Ve
0.000000100000000
4.500000000000000 0.000000000000000 10.000000000000000
0 0

0101101
*
Ed
 0.000000100000000 1 1 0
1  40 0 0.000000000000000 6.283185307179586
2  21 17 39 0.000000000000000 6.283185307179586
0

0101000
+13 40 -13 40 *
Wi

0101100
-12 42 *
Fa
0  0.000000100000000 16 0

0111000
+14 0 +11 0 *
Ve
0.000000100000000
4.500000000000000 0.000000000000000 8.000000000000000
0 0

0101101
*
Ed
 0.000000100000000 1 1 0
1  41 0 0.000000000000000 2.000000000000000
3  22 23CN 17 0 0.000000000000000 2.000000000000000
0

0101000
+9 36 -13 36 *
Ed
 0.000000100000000 1 1 0
1  42 0 0.000000000000000 6.283185307179586
2  24 17 33 0.000000000000000 6.283185307179586
0

0101000
+9 34 -9 34 *
Wi

0101100
+8 0 -8 0 -7 32 +12 38 *
Fa
0  0.000000100000000 17 0

0111000
+6 0 *
Wi

0101100
-7 32 *
Fa
0  0.000000100000000 18 23

0111000
+4 0 *
Sh

0101100
+109 7 +82 19 -77 0 +72 0 -46 6 +43 7 +40 7 -37 0 +34 0 +32 7 
-29 19 -26 19 -23 19 -20 19 -15 6 +10 41 +5 6 -3 6 *
So

1100000
+2 0 *

+1 1 