
CASCADE Topology V1, (c) Matra-Datavision
Locations 35
1
1.000000000000000 0.000000000000000 0.000000000000000 0.000000000000000 
0.000000000000000 1.000000000000000 0.000000000000000 0.000000000000000 
0.000000000000000 0.000000000000000 1.000000000000000 0.000000000000000 
1
1.000000000000000 0.000000000000000 0.000000000000000 0.000000000000000 
0.000000000000000 1.000000000000000 0.000000000000000 0.000000000000000 
0.000000000000000 0.000000000000000 1.000000000000000 0.000000000000000 
1
1.000000000000000 0.000000000000000 0.000000000000000 0.000000000000000 
0.000000000000000 1.000000000000000 0.000000000000000 0.000000000000000 
0.000000000000000 0.000000000000000 1.000000000000000 0.000000000000000 
1
1.000000000000000 0.000000000000000 0.000000000000000 0.000000000000000 
0.000000000000000 1.000000000000000 0.000000000000000 0.000000000000000 
0.000000000000000 0.000000000000000 1.000000000000000 0.000000000000000 
2  2 1 3 -1 4 1 0
2  4 -1 3 1 2 -1 0
1
1.000000000000000 0.000000000000000 0.000000000000000 0.000000000000000 
0.000000000000000 1.000000000000000 0.000000000000000 0.000000000000000 
0.000000000000000 0.000000000000000 1.000000000000000 0.000000000000000 
1
1.000000000000000 0.000000000000000 0.000000000000000 0.000000000000000 
0.000000000000000 1.000000000000000 0.000000000000000 0.000000000000000 
0.000000000000000 0.000000000000000 1.000000000000000 0.000000000000000 
1
1.000000000000000 0.000000000000000 0.000000000000000 0.000000000000000 
0.000000000000000 1.000000000000000 0.000000000000000 0.000000000000000 
0.000000000000000 0.000000000000000 1.000000000000000 0.000000000000000 
2  7 1 8 1 9 -1 2 1 3 -1 4 1 0
1
1.000000000000000 0.000000000000000 0.000000000000000 0.000000000000000 
0.000000000000000 1.000000000000000 0.000000000000000 0.000000000000000 
0.000000000000000 0.000000000000000 1.000000000000000 0.000000000000000 
2  11 -1 4 -1 3 1 2 -1 9 1 8 -1 7 -1 0
2  11 -1 0
1
1.000000000000000 0.000000000000000 0.000000000000000 0.000000000000000 
0.000000000000000 1.000000000000000 0.000000000000000 0.000000000000000 
0.000000000000000 0.000000000000000 1.000000000000000 10.000000000000000 
2  7 1 8 1 9 -1 14 1 2 1 3 -1 4 1 0
2  11 -1 4 -1 3 1 2 -1 14 -1 9 1 8 -1 7 -1 0
2  9 -1 2 1 3 -1 4 1 0
1
1.000000000000000 0.000000000000000 0.000000000000000 0.000000000000000 
0.000000000000000 1.000000000000000 0.000000000000000 0.000000000000000 
0.000000000000000 0.000000000000000 1.000000000000000 0.000000000000000 
2  18 -1 8 1 0
2  4 -1 3 1 2 -1 9 1 0
2  7 1 8 1 0
2  9 1 8 -1 7 -1 0
2  18 -1 8 1 9 -1 14 1 2 1 3 -1 0
2  4 -1 0
2  7 1 8 1 9 -1 14 1 2 1 3 -1 0
2  14 -1 9 1 8 -1 7 -1 0
1
1.000000000000000 0.000000000000000 0.000000000000000 -12.727922061357857 
0.000000000000000 1.000000000000000 0.000000000000000 -12.727922061357853 
0.000000000000000 0.000000000000000 1.000000000000000 10.000000000000000 
2  11 -1 4 -1 27 -1 0
1
1.000000000000000 0.000000000000000 0.000000000000000 12.727922061357857 
0.000000000000000 1.000000000000000 0.000000000000000 12.727922061357857 
0.000000000000000 0.000000000000000 1.000000000000000 10.000000000000000 
2  11 -1 4 -1 29 -1 0
2  11 -1 4 -1 3 1 2 -1 0
2  7 1 8 1 9 -1 0
2  7 1 8 1 9 -1 14 1 0
2  27 1 4 1 0
2  29 1 4 1 0
Curve2ds 20
1 0.00000000000000000 0.00000000000000000 1.00000000000000000 0.00000000000000000 
1 0.00000000000000000 0.00000000000000000 1.00000000000000000 0.00000000000000000 
1 0.00000000000000000 0.00000000000000000 1.00000000000000000 0.00000000000000000 
1 0.00000000000000000 -10.00000000000000000 1.00000000000000000 0.00000000000000000 
1 0.00000000000000000 0.00000000000000000 1.00000000000000000 0.00000000000000000 
1 0.00000000000000000 -10.00000000000000000 1.00000000000000000 0.00000000000000000 
1 0.00000000000000000 -10.00000000000000000 1.00000000000000000 0.00000000000000000 
1 0.00000000000000000 0.00000000000000000 0.00000000000000000 -1.00000000000000000 
1 6.28318530717958623 0.00000000000000000 0.00000000000000000 -1.00000000000000000 
1 0.00000000000000000 0.00000000000000000 0.00000000000000000 -1.00000000000000000 
1 6.28318530717958623 0.00000000000000000 0.00000000000000000 -1.00000000000000000 
1 0.00000000000000000 0.00000000000000000 0.00000000000000000 -1.00000000000000000 
1 6.28318530717958623 0.00000000000000000 0.00000000000000000 -1.00000000000000000 
1 0.00000000000000000 6.00000000000000000 1.00000000000000000 0.00000000000000000 
1 0.00000000000000000 0.00000000000000000 1.00000000000000000 0.00000000000000000 
1 6.28318530717958623 0.00000000000000000 0.00000000000000000 1.00000000000000000 
1 0.00000000000000000 0.00000000000000000 0.00000000000000000 1.00000000000000000 
1 0.00000000000000000 2.33326679443066043 1.00000000000000000 0.00000000000000000 
1 6.28318530717958623 0.00000000000000000 0.00000000000000000 1.00000000000000000 
1 0.00000000000000000 0.00000000000000000 0.00000000000000000 1.00000000000000000 
Curves 41
1 -21.00000000000000000 21.00000000000000000 0.00000000000000000 1.00000000000000000 0.00000000000000000 0.00000000000000000 
1 -17.00000000000000000 21.00000000000000000 0.00000000000000000 0.00000000000000000 0.00000000000000000 1.00000000000000000 
1 17.00000000000000000 21.00000000000000000 0.00000000000000000 0.00000000000000000 0.00000000000000000 1.00000000000000000 
1 -21.00000000000000000 21.00000000000000000 0.00000000000000000 1.00000000000000000 0.00000000000000000 0.00000000000000000 
8 -2.82842712474619029 2.82842712474619029
1 -19.00000000000000000 19.00000000000000000 0.00000000000000000 -0.70710678118654757 -0.70710678118654757 0.00000000000000000 
8 -2.82842712474619029 2.82842712474619029
1 19.00000000000000000 19.00000000000000000 0.00000000000000000 0.70710678118654757 -0.70710678118654757 0.00000000000000000 
1 -21.00000000000000000 -21.00000000000000000 0.00000000000000000 0.00000000000000000 1.00000000000000000 0.00000000000000000 
1 21.00000000000000000 21.00000000000000000 0.00000000000000000 0.00000000000000000 -1.00000000000000000 0.00000000000000000 
8 -2.82842712474619029 2.82842712474619029
1 -19.00000000000000000 -19.00000000000000000 0.00000000000000000 0.70710678118654757 -0.70710678118654757 0.00000000000000000 
8 -2.82842712474619029 2.82842712474619029
1 19.00000000000000000 -19.00000000000000000 0.00000000000000000 -0.70710678118654757 -0.70710678118654757 0.00000000000000000 
1 21.00000000000000000 -21.00000000000000000 0.00000000000000000 -1.00000000000000000 0.00000000000000000 0.00000000000000000 
2 0.00000000000000000 0.00000000000000000 0.00000000000000000 0.00000000000000000 0.00000000000000000 1.00000000000000000 1.00000000000000000 0.00000000000000000 -0.00000000000000000 -0.00000000000000000 1.00000000000000000 0.00000000000000000 5.00000000000000000
2 15.50000000000000000 -15.50000000000000000 0.00000000000000000 0.00000000000000000 0.00000000000000000 1.00000000000000000 1.00000000000000000 0.00000000000000000 -0.00000000000000000 -0.00000000000000000 1.00000000000000000 0.00000000000000000 1.50000000000000000
2 -15.50000000000000000 15.50000000000000000 0.00000000000000000 0.00000000000000000 0.00000000000000000 1.00000000000000000 1.00000000000000000 0.00000000000000000 -0.00000000000000000 -0.00000000000000000 1.00000000000000000 0.00000000000000000 1.50000000000000000
1 -21.00000000000000000 17.00000000000000000 0.00000000000000000 0.00000000000000000 0.00000000000000000 1.00000000000000000 
8 -2.82842712474619029 2.82842712474619029
1 -19.00000000000000000 19.00000000000000000 10.00000000000000000 -0.70710678118654757 -0.70710678118654757 0.00000000000000000 
1 21.00000000000000000 17.00000000000000000 0.00000000000000000 0.00000000000000000 0.00000000000000000 1.00000000000000000 
8 -2.82842712474619029 2.82842712474619029
1 19.00000000000000000 19.00000000000000000 10.00000000000000000 0.70710678118654757 -0.70710678118654757 0.00000000000000000 
1 -21.00000000000000000 -21.00000000000000000 0.00000000000000000 0.00000000000000000 1.00000000000000000 0.00000000000000000 
1 21.00000000000000000 21.00000000000000000 0.00000000000000000 0.00000000000000000 -1.00000000000000000 0.00000000000000000 
8 -2.82842712474619029 2.82842712474619029
1 -19.00000000000000000 -19.00000000000000000 10.00000000000000000 0.70710678118654757 -0.70710678118654757 0.00000000000000000 
8 -2.82842712474619029 2.82842712474619029
1 19.00000000000000000 -19.00000000000000000 10.00000000000000000 -0.70710678118654757 -0.70710678118654757 0.00000000000000000 
1 21.00000000000000000 -21.00000000000000000 0.00000000000000000 -1.00000000000000000 0.00000000000000000 0.00000000000000000 
2 15.50000000000000000 -15.50000000000000000 0.00000000000000000 0.00000000000000000 0.00000000000000000 1.00000000000000000 1.00000000000000000 0.00000000000000000 -0.00000000000000000 -0.00000000000000000 1.00000000000000000 0.00000000000000000 1.50000000000000000
2 0.00000000000000000 0.00000000000000000 0.00000000000000000 0.00000000000000000 0.00000000000000000 1.00000000000000000 1.00000000000000000 0.00000000000000000 -0.00000000000000000 -0.00000000000000000 1.00000000000000000 0.00000000000000000 2.00000000000000000
2 0.00000000000000000 0.00000000000000000 0.00000000000000000 0.00000000000000000 0.00000000000000000 1.00000000000000000 1.00000000000000000 0.00000000000000000 -0.00000000000000000 -0.00000000000000000 1.00000000000000000 0.00000000000000000 2.00000000000000000
2 0.00000000000000000 0.00000000000000000 0.00000000000000000 0.00000000000000000 0.00000000000000000 1.00000000000000000 1.00000000000000000 0.00000000000000000 -0.00000000000000000 -0.00000000000000000 1.00000000000000000 0.00000000000000000 5.00000000000000000
2 -15.50000000000000000 15.50000000000000000 0.00000000000000000 0.00000000000000000 0.00000000000000000 1.00000000000000000 1.00000000000000000 0.00000000000000000 -0.00000000000000000 -0.00000000000000000 1.00000000000000000 0.00000000000000000 1.50000000000000000
1 -21.00000000000000000 -17.00000000000000000 0.00000000000000000 0.00000000000000000 0.00000000000000000 1.00000000000000000 
1 21.00000000000000000 -17.00000000000000000 0.00000000000000000 0.00000000000000000 0.00000000000000000 1.00000000000000000 
1 -17.00000000000000000 -21.00000000000000000 0.00000000000000000 0.00000000000000000 0.00000000000000000 1.00000000000000000 
1 17.00000000000000000 -21.00000000000000000 0.00000000000000000 0.00000000000000000 0.00000000000000000 1.00000000000000000 
1 5.00000000000000000 0.00000000000000000 0.00000000000000000 0.00000000000000000 0.00000000000000000 1.00000000000000000 
1 17.00000000000000000 -15.50000000000000000 0.00000000000000000 0.00000000000000000 0.00000000000000000 1.00000000000000000 
1 -14.00000000000000000 15.50000000000000000 0.00000000000000000 0.00000000000000000 0.00000000000000000 1.00000000000000000 
2 0.00000000000000000 0.00000000000000000 -6.00000000000000000 0.00000000000000000 0.00000000000000000 1.00000000000000000 1.00000000000000000 0.00000000000000000 -0.00000000000000000 -0.00000000000000000 1.00000000000000000 0.00000000000000000 1.99999999999999956
1 2.00000000000000000 0.00000000000000000 0.00000000000000000 -0.00000000000000007 0.00000000000000000 -1.00000000000000000 
2 0.00000000000000000 0.00000000000000000 -6.00000000000000000 0.00000000000000000 0.00000000000000000 1.00000000000000000 1.00000000000000000 0.00000000000000000 -0.00000000000000000 -0.00000000000000000 1.00000000000000000 0.00000000000000000 1.99999999999999956
1 2.00000000000000000 0.00000000000000000 0.00000000000000000 -0.00000000000000007 0.00000000000000000 -1.00000000000000000 
1 1.99999999999999956 0.00000000000000000 -6.00000000000000000 -0.85716730070211233 -0.00000000000000000 -0.51503807491005416 
1 1.99999999999999956 0.00000000000000000 -6.00000000000000000 -0.85716730070211233 -0.00000000000000000 -0.51503807491005416 
Polygon3D 0
PolygonOnTriangulations 0
Surfaces 17
1 -21.00000000000000000 21.00000000000000000 0.00000000000000000 0.00000000000000000 1.00000000000000000 0.00000000000000000 1.00000000000000000 0.00000000000000000 0.00000000000000000 0.00000000000000000 0.00000000000000000 -1.00000000000000000 
1 0.00000000000000000 0.00000000000000000 0.00000000000000000 -0.00000000000000000 -0.00000000000000000 -1.00000000000000000 -1.00000000000000000 0.00000000000000000 0.00000000000000000 0.00000000000000000 1.00000000000000000 -0.00000000000000000 
2 0.00000000000000000 0.00000000000000000 0.00000000000000000 -0.00000000000000000 -0.00000000000000000 -1.00000000000000000 1.00000000000000000 0.00000000000000000 0.00000000000000000 -0.00000000000000000 1.00000000000000000 -0.00000000000000000 5.00000000000000000
2 15.50000000000000000 -15.50000000000000000 0.00000000000000000 -0.00000000000000000 -0.00000000000000000 -1.00000000000000000 1.00000000000000000 0.00000000000000000 0.00000000000000000 -0.00000000000000000 1.00000000000000000 -0.00000000000000000 1.50000000000000000
2 -15.50000000000000000 15.50000000000000000 0.00000000000000000 -0.00000000000000000 -0.00000000000000000 -1.00000000000000000 1.00000000000000000 0.00000000000000000 0.00000000000000000 -0.00000000000000000 1.00000000000000000 -0.00000000000000000 1.50000000000000000
1 -19.00000000000000000 19.00000000000000000 0.00000000000000000 -0.70710678118654757 0.70710678118654757 0.00000000000000000 0.00000000000000000 0.00000000000000000 1.00000000000000000 -0.70710678118654757 -0.70710678118654757 0.00000000000000000 
1 19.00000000000000000 19.00000000000000000 0.00000000000000000 0.70710678118654757 0.70710678118654757 0.00000000000000000 0.00000000000000000 -0.00000000000000000 1.00000000000000000 0.70710678118654757 -0.70710678118654757 -0.00000000000000000 
1 0.00000000000000000 0.00000000000000000 0.00000000000000000 -0.00000000000000000 -0.00000000000000000 -1.00000000000000000 -1.00000000000000000 0.00000000000000000 0.00000000000000000 0.00000000000000000 1.00000000000000000 -0.00000000000000000 
2 0.00000000000000000 0.00000000000000000 0.00000000000000000 -0.00000000000000000 -0.00000000000000000 -1.00000000000000000 1.00000000000000000 0.00000000000000000 0.00000000000000000 -0.00000000000000000 1.00000000000000000 -0.00000000000000000 2.00000000000000000
2 0.00000000000000000 0.00000000000000000 0.00000000000000000 -0.00000000000000000 -0.00000000000000000 -1.00000000000000000 1.00000000000000000 0.00000000000000000 0.00000000000000000 -0.00000000000000000 1.00000000000000000 -0.00000000000000000 2.00000000000000000
1 -21.00000000000000000 -21.00000000000000000 0.00000000000000000 -1.00000000000000000 0.00000000000000000 0.00000000000000000 0.00000000000000000 1.00000000000000000 0.00000000000000000 0.00000000000000000 0.00000000000000000 -1.00000000000000000 
1 21.00000000000000000 21.00000000000000000 0.00000000000000000 1.00000000000000000 0.00000000000000000 0.00000000000000000 0.00000000000000000 -1.00000000000000000 0.00000000000000000 0.00000000000000000 0.00000000000000000 -1.00000000000000000 
1 -19.00000000000000000 -19.00000000000000000 0.00000000000000000 -0.70710678118654757 -0.70710678118654757 0.00000000000000000 0.00000000000000000 0.00000000000000000 1.00000000000000000 0.70710678118654757 -0.70710678118654757 -0.00000000000000000 
1 19.00000000000000000 -19.00000000000000000 0.00000000000000000 0.70710678118654757 -0.70710678118654757 0.00000000000000000 0.00000000000000000 0.00000000000000000 1.00000000000000000 -0.70710678118654757 -0.70710678118654757 0.00000000000000000 
1 21.00000000000000000 -21.00000000000000000 0.00000000000000000 0.00000000000000000 -1.00000000000000000 0.00000000000000000 -1.00000000000000000 0.00000000000000000 0.00000000000000000 -0.00000000000000000 -0.00000000000000000 -1.00000000000000000 
3 0.00000000000000000 0.00000000000000000 -6.00000000000000000 -0.00000000000000000 -0.00000000000000000 -1.00000000000000000 1.00000000000000000 0.00000000000000000 0.00000000000000000 -0.00000000000000000 1.00000000000000000 -0.00000000000000000 1.99999999999999956
-1.02974425867665453
3 0.00000000000000000 0.00000000000000000 -6.00000000000000000 -0.00000000000000000 -0.00000000000000000 -1.00000000000000000 1.00000000000000000 0.00000000000000000 0.00000000000000000 -0.00000000000000000 1.00000000000000000 -0.00000000000000000 1.99999999999999956
-1.02974425867665453
Triangulations 0

TShapes 115
Ve
0.000100000000000
-17.000000000000000 21.000000000000000 0.000000000000000
0 0

0101101
*
Ve
0.000100000000000
17.000000000000000 21.000000000000000 0.000000000000000
0 0

0101101
*
Ed
 0.000000100000000 1 1 0
1  1 0 4.000000000000000 38.000000000000000
0

0101000
+115 12 -114 12 *
Ve
0.000100000000000
-17.000000000000000 21.000000000000000 10.000000000000000
0 0

0101101
*
Ed
 0.000000100000000 1 1 0
1  2 0 -0.000000000000000 10.000000000000000
0

0101000
+115 13 -112 13 *
Ve
0.000100000000000
17.000000000000000 21.000000000000000 10.000000000000000
0 0

0101101
*
Ed
 0.000000100000000 1 1 0
1  3 0 -0.000000000000000 10.000000000000000
0

0101000
+114 13 -110 13 *
Ed
 0.000000100000000 1 1 0
1  4 0 4.000000000000000 38.000000000000000
0

0101000
+112 16 -110 16 *
Wi

0101100
-113 10 +111 0 -109 0 +108 15 *
Fa
0  0.000000100000000 1 0

0101000
+107 6 *
Ve
0.000100000000000
-21.000000000000000 17.000000000000000 0.000000000000000
0 0

0101101
*
Ed
 0.000000100000000 1 1 0
1  5 0 -2.828427124746190 2.828427124746190
0

0101000
+115 13 -105 13 *
Ve
0.000100000000000
21.000000000000000 17.000000000000000 0.000000000000000
0 0

0101101
*
Ed
 0.000000100000000 1 1 0
1  6 0 -2.828427124746190 2.828427124746190
0

0101000
+114 13 -103 13 *
Ve
0.000100000000000
-21.000000000000000 -17.000000000000000 0.000000000000000
0 0

0101101
*
Ed
 0.000000100000000 1 1 0
1  7 0 4.000000000000000 38.000000000000000
0

0101000
+101 12 -105 12 *
Ve
0.000100000000000
21.000000000000000 -17.000000000000000 0.000000000000000
0 0

0101101
*
Ed
 0.000000100000000 1 1 0
1  8 0 4.000000000000000 38.000000000000000
0

0101000
+103 12 -99 12 *
Ve
0.000100000000000
-17.000000000000000 -21.000000000000000 0.000000000000000
0 0

0101101
*
Ed
 0.000000100000000 1 1 0
1  9 0 -2.828427124746190 2.828427124746190
0

0101000
+101 13 -97 13 *
Ve
0.000100000000000
17.000000000000000 -21.000000000000000 0.000000000000000
0 0

0101101
*
Ed
 0.000000100000000 1 1 0
1  10 0 -2.828427124746190 2.828427124746190
0

0101000
+99 13 -95 13 *
Ed
 0.000000100000000 1 1 0
1  11 0 4.000000000000000 38.000000000000000
0

0101000
+95 12 -97 12 *
Wi

0101100
+113 10 -104 0 +102 0 +100 10 +98 10 -96 0 +94 0 +93 10 *
Ve
0.000000100000000
5.000000000000000 0.000000000000000 0.000000000000000
0 0

0101101
*
Ed
 0.000000100000000 1 1 0
1  12 0 0.000000000000000 6.283185307179586
2  1 3 22 0.000000000000000 6.283185307179586
0

0101000
+91 12 -91 12 *
Wi

0101100
+90 0 *
Ve
0.000000100000000
17.000000000000000 -15.500000000000000 0.000000000000000
0 0

0101101
*
Ed
 0.000000100000000 1 1 0
1  13 0 0.000000000000000 6.283185307179586
2  2 4 22 0.000000000000000 6.283185307179586
0

0101000
+88 12 -88 12 *
Wi

0101100
+87 0 *
Ve
0.000000100000000
-14.000000000000000 15.500000000000000 0.000000000000000
0 0

0101101
*
Ed
 0.000000100000000 1 1 0
1  14 0 0.000000000000000 6.283185307179586
2  3 5 22 0.000000000000000 6.283185307179586
0

0101000
+85 12 -85 12 *
Wi

0101100
+84 0 *
Fa
0  0.000000100000000 2 19

0101000
+92 20 +89 21 +86 21 +83 21 *
Ve
0.000100000000000
-21.000000000000000 17.000000000000000 10.000000000000000
0 0

0101101
*
Ed
 0.000000100000000 1 1 0
1  15 0 -0.000000000000000 10.000000000000000
0

0101000
+105 13 -81 13 *
Ed
 0.000000100000000 1 1 0
1  16 0 -2.828427124746190 2.828427124746190
0

0101000
+112 13 -81 13 *
Wi

0101100
-104 0 +111 0 -80 0 +79 0 *
Fa
0  0.000000100000000 6 0

0101000
+78 0 *
Ve
0.000100000000000
21.000000000000000 17.000000000000000 10.000000000000000
0 0

0101101
*
Ed
 0.000000100000000 1 1 0
1  17 0 -0.000000000000000 10.000000000000000
0

0101000
+103 13 -76 13 *
Ed
 0.000000100000000 1 1 0
1  18 0 -2.828427124746190 2.828427124746190
0

0101000
+110 13 -76 13 *
Wi

0101100
-102 0 +109 0 -75 0 +74 0 *
Fa
0  0.000000100000000 7 0

0101000
+73 0 *
Ve
0.000100000000000
-21.000000000000000 -17.000000000000000 10.000000000000000
0 0

0101101
*
Ed
 0.000000100000000 1 1 0
1  19 0 4.000000000000000 38.000000000000000
0

0101000
+71 16 -81 16 *
Ve
0.000100000000000
21.000000000000000 -17.000000000000000 10.000000000000000
0 0

0101101
*
Ed
 0.000000100000000 1 1 0
1  20 0 4.000000000000000 38.000000000000000
0

0101000
+76 16 -69 16 *
Ve
0.000100000000000
-17.000000000000000 -21.000000000000000 10.000000000000000
0 0

0101101
*
Ed
 0.000000100000000 1 1 0
1  21 0 -2.828427124746190 2.828427124746190
0

0101000
+71 13 -67 13 *
Ve
0.000100000000000
17.000000000000000 -21.000000000000000 10.000000000000000
0 0

0101101
*
Ed
 0.000000100000000 1 1 0
1  22 0 -2.828427124746190 2.828427124746190
0

0101000
+69 13 -65 13 *
Ed
 0.000000100000000 1 1 0
1  23 0 4.000000000000000 38.000000000000000
0

0101000
+65 16 -67 16 *
Wi

0101100
+108 15 -79 0 +74 0 +70 15 +68 15 -66 0 +64 0 +63 15 *
Ve
0.000000100000000
17.000000000000000 -15.500000000000000 10.000000000000000
0 0

0101101
*
Ed
 0.000000100000000 1 1 0
1  24 0 0.000000000000000 6.283185307179586
2  4 4 26 0.000000000000000 6.283185307179586
0

0101000
+61 16 -61 16 *
Wi

0101100
+60 25 *
Ve
0.000000100000000
-10.727922061357857 -12.727922061357853 10.000000000000000
0 0

0101101
*
Ed
 0.000000100000000 1 1 0
1  25 0 0.000000000000000 6.283185307179586
2  5 9 0 0.000000000000000 6.283185307179586
0

0101000
+58 28 -58 28 *
Wi

0101100
+57 27 *
Ve
0.000000100000000
14.727922061357857 12.727922061357857 10.000000000000000
0 0

0101101
*
Ed
 0.000000100000000 1 1 0
1  26 0 0.000000000000000 6.283185307179586
2  5 10 0 0.000000000000000 6.283185307179586
0

0101000
+55 30 -55 30 *
Wi

0101100
+54 29 *
Ve
0.000000100000000
5.000000000000000 0.000000000000000 10.000000000000000
0 0

0101101
*
Ed
 0.000000100000000 1 1 0
1  27 0 0.000000000000000 6.283185307179586
2  6 3 26 0.000000000000000 6.283185307179586
0

0101000
+52 16 -52 16 *
Wi

0101100
+51 25 *
Ve
0.000000100000000
-14.000000000000000 15.500000000000000 10.000000000000000
0 0

0101101
*
Ed
 0.000000100000000 1 1 0
1  28 0 0.000000000000000 6.283185307179586
2  7 5 26 0.000000000000000 6.283185307179586
0

0101000
+49 16 -49 16 *
Wi

0101100
+48 25 *
Fa
0  0.000000100000000 8 23

0101000
+62 24 +59 0 +56 0 +53 0 +50 0 +47 0 *
Ed
 0.000000100000000 1 1 0
1  29 0 -0.000000000000000 10.000000000000000
0

0101000
+101 13 -71 13 *
Wi

0101100
-100 10 +45 0 -80 0 +70 15 *
Fa
0  0.000000100000000 11 0

0101000
+44 6 *
Ed
 0.000000100000000 1 1 0
1  30 0 -0.000000000000000 10.000000000000000
0

0101000
+99 13 -69 13 *
Wi

0101100
-98 10 +75 0 -42 0 +68 15 *
Fa
0  0.000000100000000 12 0

0101000
+41 6 *
Ed
 0.000000100000000 1 1 0
1  31 0 -0.000000000000000 10.000000000000000
0

0101000
+97 13 -67 13 *
Wi

0101100
-96 0 +45 0 -39 0 +66 0 *
Fa
0  0.000000100000000 13 0

0101000
+38 0 *
Ed
 0.000000100000000 1 1 0
1  32 0 -0.000000000000000 10.000000000000000
0

0101000
+95 13 -65 13 *
Wi

0101100
-94 0 +42 0 -36 0 +64 0 *
Fa
0  0.000000100000000 14 0

0101000
+35 0 *
Wi

0101100
-93 10 +36 0 -39 0 +63 15 *
Fa
0  0.000000100000000 15 0

0101000
+33 6 *
Ed
 0.000000100000000 1 1 0
1  33 0 0.000000000000000 10.000000000000000
3  8 9CN 3 0 0.000000000000000 10.000000000000000
0

0101000
+91 31 -52 31 *
Wi

0101100
+31 0 -31 0 -90 32 +51 33 *
Fa
0  0.000000100000000 3 0

0101000
+30 0 *
Ed
 0.000000100000000 1 1 0
1  34 0 0.000000000000000 10.000000000000000
3  10 11CN 4 0 0.000000000000000 10.000000000000000
0

0101000
+88 31 -61 31 *
Wi

0101100
+28 0 -28 0 -87 32 +60 33 *
Fa
0  0.000000100000000 4 0

0101000
+27 0 *
Ed
 0.000000100000000 1 1 0
1  35 0 0.000000000000000 10.000000000000000
3  12 13CN 5 0 0.000000000000000 10.000000000000000
0

0101000
+85 31 -49 31 *
Wi

0101100
+25 0 -25 0 -84 32 +48 33 *
Fa
0  0.000000100000000 5 0

0101000
+24 0 *
Ve
0.000000100000000
-10.727922061357857 -12.727922061357853 4.000000000000000
0 0

0101101
*
Ed
 0.000000100000000 1 1 0
1  36 0 0.000000000000000 6.283185307179586
2  14 9 0 0.000000000000000 6.283185307179586
2  15 16 0 0.000000000000000 6.283185307179586
0

0101000
+22 28 -22 28 *
Ed
 0.000000100000000 1 1 0
1  37 0 0.000000000000000 6.000000000000000
3  16 17CN 9 0 0.000000000000000 6.000000000000000
0

0101000
+58 28 -22 28 *
Wi

0101100
+57 0 -21 0 -20 0 +20 0 *
Fa
0  0.000000100000000 9 0

0101000
+19 0 *
Ve
0.000000100000000
14.727922061357857 12.727922061357857 4.000000000000000
0 0

0101101
*
Ed
 0.000000100000000 1 1 0
1  38 0 0.000000000000000 6.283185307179586
2  14 10 0 0.000000000000000 6.283185307179586
2  15 17 0 0.000000000000000 6.283185307179586
0

0101000
+17 30 -17 30 *
Ed
 0.000000100000000 1 1 0
1  39 0 0.000000000000000 6.000000000000000
3  16 17CN 10 0 0.000000000000000 6.000000000000000
0

0101000
+55 30 -17 30 *
Wi

0101100
+54 0 -16 0 -15 0 +15 0 *
Fa
0  0.000000100000000 10 0

0101000
+14 0 *
Ve
0.000000100000000
-12.727922061357857 -12.727922061357853 2.798278761944879
0 0

0101101
*
Ed
 0.000000100000000 1 1 1
2  18 16 0 0.000000000000000 6.283185307179586
0

0101000
+12 28 -12 28 *
Ed
 0.000000100000000 1 1 0
1  40 0 0.000000000000000 2.333266794430660
3  19 20CN 16 0 0.000000000000000 2.333266794430660
0

0101000
+22 28 -12 28 *
Wi

0101100
+21 0 -11 0 -10 0 +10 0 *
Fa
0  0.000000100000000 16 0

0101000
+9 0 *
Ve
0.000000100000000
12.727922061357857 12.727922061357857 2.798278761944879
0 0

0101101
*
Ed
 0.000000100000000 1 1 1
2  18 17 0 0.000000000000000 6.283185307179586
0

0101000
+7 30 -7 30 *
Ed
 0.000000100000000 1 1 0
1  41 0 0.000000000000000 2.333266794430660
3  19 20CN 17 0 0.000000000000000 2.333266794430660
0

0101000
+17 30 -7 30 *
Wi

0101100
+16 0 -6 0 -5 0 +5 0 *
Fa
0  0.000000100000000 17 0

0101000
+4 0 *
Sh

0101100
+106 5 +82 17 -77 0 +72 0 -46 4 +43 5 +40 5 -37 0 +34 0 +32 5 
+29 5 +26 5 +23 5 +18 34 +13 35 +8 34 +3 35 *
So

1100000
+2 0 *

+1 1 