
CASCADE Topology V1, (c) Matra-Datavision
Locations 22
1
1.000000000000000 0.000000000000000 0.000000000000000 0.000000000000000 
0.000000000000000 1.000000000000000 0.000000000000000 0.000000000000000 
0.000000000000000 0.000000000000000 1.000000000000000 0.000000000000000 
1
1.000000000000000 0.000000000000000 0.000000000000000 0.000000000000000 
0.000000000000000 1.000000000000000 0.000000000000000 0.000000000000000 
0.000000000000000 0.000000000000000 1.000000000000000 0.000000000000000 
2  2 -1 0
1
1.000000000000000 0.000000000000000 0.000000000000000 0.000000000000000 
0.000000000000000 1.000000000000000 0.000000000000000 0.000000000000000 
0.000000000000000 0.000000000000000 1.000000000000000 0.000000000000000 
2  4 -1 2 -1 0
2  4 -1 0
1
1.000000000000000 0.000000000000000 0.000000000000000 0.000000000000000 
0.000000000000000 -0.000000000000000 -1.000000000000000 0.000000000000000 
0.000000000000000 1.000000000000000 -0.000000000000000 0.000000000000000 
1
1.000000000000000 0.000000000000000 0.000000000000000 0.000000000000000 
0.000000000000000 1.000000000000000 0.000000000000000 0.000000000000000 
0.000000000000000 0.000000000000000 1.000000000000000 0.000000000000000 
1
1.000000000000000 0.000000000000000 0.000000000000000 0.000000000000000 
0.000000000000000 0.000000000000000 -1.000000000000000 0.000000000000000 
0.000000000000000 1.000000000000000 0.000000000000000 0.000000000000000 
1
1.000000000000000 0.000000000000000 0.000000000000000 0.000000000000000 
0.000000000000000 1.000000000000000 0.000000000000000 0.000000000000000 
0.000000000000000 0.000000000000000 1.000000000000000 0.000000000000000 
1
1.000000000000000 0.000000000000000 0.000000000000000 0.000000000000000 
0.000000000000000 1.000000000000000 0.000000000000000 0.000000000000000 
0.000000000000000 0.000000000000000 1.000000000000000 0.000000000000000 
1
1.000000000000000 0.000000000000000 0.000000000000000 0.000000000000000 
0.000000000000000 1.000000000000000 0.000000000000000 0.000000000000000 
0.000000000000000 0.000000000000000 1.000000000000000 0.000000000000000 
1
1.000000000000000 0.000000000000000 0.000000000000000 0.000000000000000 
0.000000000000000 1.000000000000000 0.000000000000000 0.000000000000000 
0.000000000000000 0.000000000000000 1.000000000000000 0.000000000000000 
1
1.000000000000000 0.000000000000000 0.000000000000000 0.000000000000000 
0.000000000000000 1.000000000000000 0.000000000000000 0.000000000000000 
0.000000000000000 0.000000000000000 1.000000000000000 0.000000000000000 
1
1.000000000000000 0.000000000000000 0.000000000000000 0.000000000000000 
0.000000000000000 1.000000000000000 0.000000000000000 0.000000000000000 
0.000000000000000 0.000000000000000 1.000000000000000 0.000000000000000 
1
1.000000000000000 0.000000000000000 0.000000000000000 0.000000000000000 
0.000000000000000 1.000000000000000 0.000000000000000 0.000000000000000 
0.000000000000000 0.000000000000000 1.000000000000000 0.000000000000000 
1
1.000000000000000 0.000000000000000 0.000000000000000 -0.000000000000000 
0.000000000000000 1.000000000000000 0.000000000000000 -95.000000000000000 
0.000000000000000 0.000000000000000 1.000000000000000 0.000000000000021 
2  7 -1 8 1 9 1 10 1 11 1 12 1 13 1 14 1 15 1 16 -1 17 1 2 1 0
2  2 -1 17 -1 16 1 15 -1 14 -1 13 -1 12 -1 11 -1 10 -1 9 -1 8 -1 7 1 0
1
1.000000000000000 0.000000000000000 0.000000000000000 0.000000000000000 
0.000000000000000 1.000000000000000 0.000000000000000 190.000000000000000 
0.000000000000000 0.000000000000000 1.000000000000000 -0.000000000000042 
2  7 -1 8 1 9 1 10 1 11 1 12 1 13 1 14 1 15 1 16 -1 17 1 20 1 2 1 0
2  2 -1 20 -1 17 -1 16 1 15 -1 14 -1 13 -1 12 -1 11 -1 10 -1 9 -1 8 -1 7 1 0
Curve2ds 12
1 0.00000000000000000 0.00000000000000000 0.00000000000000000 -1.00000000000000000 
1 6.28318530717958623 0.00000000000000000 0.00000000000000000 -1.00000000000000000 
1 0.00000000000000000 -1.00000000000000000 1.00000000000000000 0.00000000000000000 
1 0.00000000000000000 0.00000000000000000 1.00000000000000000 0.00000000000000000 
1 0.00000000000000000 -189.00000000000000000 1.00000000000000000 0.00000000000000000 
1 0.00000000000000000 0.00000000000000000 1.00000000000000000 0.00000000000000000 
1 6.28318530717958623 0.00000000000000000 0.00000000000000000 1.00000000000000000 
1 0.00000000000000000 0.00000000000000000 0.00000000000000000 1.00000000000000000 
1 0.00000000000000000 1.41421356237309515 1.00000000000000000 0.00000000000000000 
1 6.28318530717958623 0.00000000000000000 0.00000000000000000 1.00000000000000000 
1 0.00000000000000000 0.00000000000000000 0.00000000000000000 1.00000000000000000 
1 0.00000000000000000 1.41421356237309515 1.00000000000000000 0.00000000000000000 
Curves 7
1 3.96875000000000000 -95.00000000000000000 0.00000000000002090 0.00000000000000000 1.00000000000000000 -0.00000000000000022 
2 0.00000000000000000 -94.00000000000000000 0.00000000000002068 0.00000000000000000 -1.00000000000000000 0.00000000000000022 1.00000000000000000 0.00000000000000000 0.00000000000000000 -0.00000000000000000 0.00000000000000022 1.00000000000000000 3.96875000000000000
2 0.00000000000000000 94.00000000000000000 -0.00000000000002068 0.00000000000000000 -1.00000000000000000 0.00000000000000022 1.00000000000000000 0.00000000000000000 0.00000000000000000 -0.00000000000000000 0.00000000000000022 1.00000000000000000 3.96875000000000000
1 3.96875000000000000 -94.00000000000000000 0.00000000000002068 -0.70710678118654746 -0.70710678118654757 0.00000000000000016 
2 0.00000000000000000 -95.00000000000000000 0.00000000000002090 0.00000000000000000 -1.00000000000000000 0.00000000000000022 1.00000000000000000 0.00000000000000000 0.00000000000000000 -0.00000000000000000 0.00000000000000022 1.00000000000000000 2.96875000000000000
1 3.96875000000000000 94.00000000000000000 -0.00000000000002068 -0.70710678118654757 0.70710678118654746 -0.00000000000000016 
2 0.00000000000000000 95.00000000000000000 -0.00000000000002090 0.00000000000000000 -1.00000000000000000 0.00000000000000022 1.00000000000000000 0.00000000000000000 0.00000000000000000 -0.00000000000000000 0.00000000000000022 1.00000000000000000 2.96875000000000000
Polygon3D 0
PolygonOnTriangulations 0
Surfaces 5
2 0.00000000000000000 -95.00000000000000000 0.00000000000002090 0.00000000000000000 -1.00000000000000000 0.00000000000000000 1.00000000000000000 0.00000000000000000 0.00000000000000000 -0.00000000000000000 0.00000000000000000 1.00000000000000000 3.96875000000000000
3 0.00000000000000000 -94.00000000000000000 0.00000000000002068 0.00000000000000000 -1.00000000000000000 0.00000000000000022 1.00000000000000000 0.00000000000000000 0.00000000000000000 -0.00000000000000000 0.00000000000000022 1.00000000000000000 3.96875000000000000
-0.78539816339744828
3 0.00000000000000000 94.00000000000000000 -0.00000000000002068 0.00000000000000000 1.00000000000000000 -0.00000000000000022 1.00000000000000000 0.00000000000000000 0.00000000000000000 -0.00000000000000000 0.00000000000000022 1.00000000000000000 3.96875000000000000
-0.78539816339744839
1 -0.00000000000000009 0.00000000000000000 0.00000000000000018 0.00000000000000000 -1.00000000000000000 0.00000000000000022 0.00000000000000000 -0.00000000000000022 -1.00000000000000000 1.00000000000000000 0.00000000000000000 0.00000000000000000 
1 -0.00000000000000009 0.00000000000000000 0.00000000000000018 0.00000000000000000 -1.00000000000000000 0.00000000000000022 0.00000000000000000 -0.00000000000000022 -1.00000000000000000 1.00000000000000000 0.00000000000000000 0.00000000000000000 
Triangulations 0

TShapes 23
Ve
0.000000100000000
3.968750000000000 -94.000000000000000 0.000000000000021
0 0

0101101
*
Ve
0.000000100000000
3.968750000000000 94.000000000000000 -0.000000000000021
0 0

0101101
*
Ed
 0.000000100000000 1 1 0
1  1 0 1.000000000000000 189.000000000000000
3  1 2CN 1 0 1.000000000000000 189.000000000000000
0

0101000
+23 5 -22 5 *
Ed
 0.000000100000000 1 1 0
1  2 0 0.000000000000000 6.283185307179586
2  3 1 2 0.000000000000000 6.283185307179586
2  4 2 0 0.000000000000000 6.283185307179586
0

0101000
+23 6 -23 6 *
Ed
 0.000000100000000 1 1 0
1  3 0 0.000000000000000 6.283185307179586
2  5 1 2 0.000000000000000 6.283185307179586
2  6 3 0 0.000000000000000 6.283185307179586
0

0101000
+22 6 -22 6 *
Wi

0101100
+21 2 -20 0 +19 0 -21 2 *
Fa
0  0.000000100000000 1 0

0111000
+18 3 *
Ve
0.000000100000000
2.968750000000000 -95.000000000000000 0.000000000000021
0 0

0101101
*
Ed
 0.000000100000000 1 1 0
1  4 0 0.000000000000000 1.414213562373095
3  7 8CN 2 0 0.000000000000000 1.414213562373095
0

0101000
+23 6 -16 6 *
Ed
 0.000000100000000 1 1 0
1  5 0 0.000000000000000 6.283185307179586
2  9 2 0 0.000000000000000 6.283185307179586
0

0101000
+16 6 -16 6 *
Wi

0101100
-15 0 +20 0 -14 0 +15 0 *
Fa
0  0.000000100000000 2 0

0111000
+13 0 *
Ve
0.000000100000000
2.968750000000000 95.000000000000000 -0.000000000000021
0 0

0101101
*
Ed
 0.000000100000000 1 1 0
1  6 0 0.000000000000000 1.414213562373095
3  10 11CN 3 0 0.000000000000000 1.414213562373095
0

0101000
+22 6 -11 6 *
Ed
 0.000000100000000 1 1 0
1  7 0 0.000000000000000 6.283185307179586
2  12 3 0 0.000000000000000 6.283185307179586
0

0101000
+11 6 -11 6 *
Wi

0101100
-10 0 +19 0 -9 0 +10 0 *
Fa
0  0.000000100000000 3 0

0111000
+8 0 *
Wi

0101100
+14 0 *
Fa
0  0.000000100000000 4 0

0111000
+6 19 *
Wi

0101100
+9 0 *
Fa
0  0.000000100000000 5 0

0111000
+4 22 *
Sh

0101100
+17 2 +12 0 -7 0 +5 18 -3 21 *
So

1100000
+2 0 *

+1 1 