
CASCADE Topology V1, (c) Matra-Datavision
Locations 16
1
1.000000000000000 0.000000000000000 0.000000000000000 0.000000000000000 
0.000000000000000 1.000000000000000 0.000000000000000 0.000000000000000 
0.000000000000000 0.000000000000000 1.000000000000000 0.000000000000000 
1
1.000000000000000 0.000000000000000 0.000000000000000 0.000000000000000 
0.000000000000000 1.000000000000000 0.000000000000000 0.000000000000000 
0.000000000000000 0.000000000000000 1.000000000000000 0.000000000000000 
2  2 -1 0
1
1.000000000000000 0.000000000000000 0.000000000000000 0.000000000000000 
0.000000000000000 1.000000000000000 0.000000000000000 0.000000000000000 
0.000000000000000 0.000000000000000 1.000000000000000 0.000000000000000 
1
1.000000000000000 0.000000000000000 0.000000000000000 0.000000000000000 
0.000000000000000 1.000000000000000 0.000000000000000 0.000000000000000 
0.000000000000000 0.000000000000000 1.000000000000000 0.000000000000000 
1
1.000000000000000 0.000000000000000 0.000000000000000 0.000000000000000 
0.000000000000000 1.000000000000000 0.000000000000000 0.000000000000000 
0.000000000000000 0.000000000000000 1.000000000000000 0.000000000000000 
2  4 1 5 1 6 -1 0
2  2 -1 6 1 5 -1 4 -1 0
1
1.000000000000000 0.000000000000000 0.000000000000000 0.000000000000000 
0.000000000000000 1.000000000000000 0.000000000000000 0.000000000000000 
0.000000000000000 0.000000000000000 1.000000000000000 10.000000000000000 
2  4 1 5 1 6 -1 9 1 0
2  2 -1 9 -1 6 1 5 -1 4 -1 0
2  6 1 5 -1 4 -1 0
2  9 -1 6 1 5 -1 4 -1 0
2  6 -1 0
2  4 1 5 1 0
2  6 -1 9 1 0
Curve2ds 8
1 0.00000000000000000 0.00000000000000000 0.00000000000000000 -1.00000000000000000 
1 6.28318530717958623 0.00000000000000000 0.00000000000000000 -1.00000000000000000 
1 0.00000000000000000 0.00000000000000000 1.00000000000000000 0.00000000000000000 
1 0.00000000000000000 -10.00000000000000000 1.00000000000000000 0.00000000000000000 
1 0.00000000000000000 0.00000000000000000 0.00000000000000000 -1.00000000000000000 
1 6.28318530717958623 0.00000000000000000 0.00000000000000000 -1.00000000000000000 
1 0.00000000000000000 0.00000000000000000 1.00000000000000000 0.00000000000000000 
1 0.00000000000000000 -10.00000000000000000 1.00000000000000000 0.00000000000000000 
Curves 18
1 -21.00000000000000355 21.00000000000000000 0.00000000000000000 0.00000000000000000 0.00000000000000000 1.00000000000000000 
1 20.99999999999999645 21.00000000000000000 0.00000000000000000 0.00000000000000000 0.00000000000000000 1.00000000000000000 
1 -21.00000000000000355 21.00000000000000000 0.00000000000000000 1.00000000000000000 0.00000000000000000 0.00000000000000000 
1 -21.00000000000000355 21.00000000000000000 0.00000000000000000 1.00000000000000000 0.00000000000000000 0.00000000000000000 
1 21.00000000000000355 -21.00000000000000000 0.00000000000000000 0.00000000000000000 0.00000000000000000 1.00000000000000000 
1 20.99999999999999645 21.00000000000000000 0.00000000000000000 0.00000000000000017 -1.00000000000000000 0.00000000000000000 
1 20.99999999999999645 21.00000000000000000 0.00000000000000000 0.00000000000000017 -1.00000000000000000 0.00000000000000000 
1 -21.00000000000000355 -21.00000000000000000 0.00000000000000000 0.00000000000000000 0.00000000000000000 1.00000000000000000 
1 21.00000000000000355 -21.00000000000000000 0.00000000000000000 -1.00000000000000000 0.00000000000000000 0.00000000000000000 
1 21.00000000000000355 -21.00000000000000000 0.00000000000000000 -1.00000000000000000 0.00000000000000000 0.00000000000000000 
1 -21.00000000000000355 -21.00000000000000000 0.00000000000000000 0.00000000000000000 1.00000000000000000 0.00000000000000000 
1 -21.00000000000000355 -21.00000000000000000 0.00000000000000000 0.00000000000000000 1.00000000000000000 0.00000000000000000 
1 17.00000000000000000 -15.50000000000000000 0.00000000000000000 0.00000000000000000 0.00000000000000000 1.00000000000000000 
2 15.50000000000000000 -15.50000000000000000 0.00000000000000000 0.00000000000000000 0.00000000000000000 1.00000000000000000 1.00000000000000000 0.00000000000000000 0.00000000000000000 0.00000000000000000 1.00000000000000000 0.00000000000000000 1.50000000000000000
2 15.50000000000000000 -15.50000000000000000 0.00000000000000000 0.00000000000000000 0.00000000000000000 1.00000000000000000 1.00000000000000000 0.00000000000000000 0.00000000000000000 0.00000000000000000 1.00000000000000000 0.00000000000000000 1.50000000000000000
1 -14.00000000000000000 15.50000000000000000 0.00000000000000000 0.00000000000000000 0.00000000000000000 1.00000000000000000 
2 -15.50000000000000000 15.50000000000000000 0.00000000000000000 0.00000000000000000 0.00000000000000000 1.00000000000000000 1.00000000000000000 0.00000000000000000 0.00000000000000000 0.00000000000000000 1.00000000000000000 0.00000000000000000 1.50000000000000000
2 -15.50000000000000000 15.50000000000000000 0.00000000000000000 0.00000000000000000 0.00000000000000000 1.00000000000000000 1.00000000000000000 0.00000000000000000 0.00000000000000000 0.00000000000000000 1.00000000000000000 0.00000000000000000 1.50000000000000000
Polygon3D 0
PolygonOnTriangulations 0
Surfaces 8
1 -21.00000000000000355 21.00000000000000000 0.00000000000000000 0.00000000000000000 1.00000000000000000 0.00000000000000000 1.00000000000000000 0.00000000000000000 0.00000000000000000 0.00000000000000000 0.00000000000000000 -1.00000000000000000 
1 20.99999999999999645 21.00000000000000000 0.00000000000000000 1.00000000000000000 0.00000000000000017 0.00000000000000000 0.00000000000000017 -1.00000000000000000 0.00000000000000000 0.00000000000000000 0.00000000000000000 -1.00000000000000000 
1 21.00000000000000355 -21.00000000000000000 0.00000000000000000 0.00000000000000000 -1.00000000000000000 0.00000000000000000 -1.00000000000000000 0.00000000000000000 0.00000000000000000 -0.00000000000000000 -0.00000000000000000 -1.00000000000000000 
1 -21.00000000000000355 -21.00000000000000000 0.00000000000000000 -1.00000000000000000 0.00000000000000000 0.00000000000000000 0.00000000000000000 1.00000000000000000 0.00000000000000000 0.00000000000000000 0.00000000000000000 -1.00000000000000000 
2 15.50000000000000000 -15.50000000000000000 0.00000000000000000 -0.00000000000000000 -0.00000000000000000 -1.00000000000000000 1.00000000000000000 0.00000000000000000 0.00000000000000000 0.00000000000000000 1.00000000000000000 0.00000000000000000 1.50000000000000000
2 -15.50000000000000000 15.50000000000000000 0.00000000000000000 -0.00000000000000000 -0.00000000000000000 -1.00000000000000000 1.00000000000000000 0.00000000000000000 0.00000000000000000 0.00000000000000000 1.00000000000000000 0.00000000000000000 1.50000000000000000
1 -0.00000000000000203 -0.00000000000000068 0.00000000000000000 -0.00000000000000000 -0.00000000000000000 -1.00000000000000000 -1.00000000000000000 0.00000000000000000 0.00000000000000000 0.00000000000000000 1.00000000000000000 0.00000000000000000 
1 -0.00000000000000203 -0.00000000000000068 0.00000000000000000 -0.00000000000000000 -0.00000000000000000 -1.00000000000000000 -1.00000000000000000 0.00000000000000000 0.00000000000000000 0.00000000000000000 1.00000000000000000 0.00000000000000000 
Triangulations 0

TShapes 52
Ve
0.000000100000000
-21.000000000000004 21.000000000000000 0.000000000000000
0 0

0101101
*
Ve
0.000000100000000
-21.000000000000004 21.000000000000000 10.000000000000000
0 0

0101101
*
Ed
 0.000000100000000 1 1 0
1  1 0 0.000000000000000 10.000000000000000
0

0101000
+52 3 -51 3 *
Ve
0.000000100000000
20.999999999999996 21.000000000000000 0.000000000000000
0 0

0101101
*
Ve
0.000000100000000
20.999999999999996 21.000000000000000 10.000000000000000
0 0

0101101
*
Ed
 0.000000100000000 1 1 0
1  2 0 0.000000000000000 10.000000000000000
0

0101000
+49 3 -48 3 *
Ed
 0.000000100000000 1 1 0
1  3 0 0.000000000000000 42.000000000000000
0

0101000
+52 8 -49 8 *
Ed
 0.000000100000000 1 1 0
1  4 0 0.000000000000000 42.000000000000000
0

0101000
+51 11 -48 11 *
Wi

0101100
+50 0 -47 0 -46 7 +45 10 *
Fa
0  0.000000100000000 1 0

0111000
+44 0 *
Ve
0.000000100000000
21.000000000000004 -21.000000000000000 0.000000000000000
0 0

0101101
*
Ve
0.000000100000000
21.000000000000004 -21.000000000000000 10.000000000000000
0 0

0101101
*
Ed
 0.000000100000000 1 1 0
1  5 0 0.000000000000000 10.000000000000000
0

0101000
+42 3 -41 3 *
Ed
 0.000000100000000 1 1 0
1  6 0 0.000000000000000 42.000000000000000
0

0101000
+49 8 -42 8 *
Ed
 0.000000100000000 1 1 0
1  7 0 0.000000000000000 42.000000000000000
0

0101000
+48 11 -41 11 *
Wi

0101100
+47 0 -40 0 -39 7 +38 10 *
Fa
0  0.000000100000000 2 0

0111000
+37 0 *
Ve
0.000000100000000
-21.000000000000004 -21.000000000000000 0.000000000000000
0 0

0101101
*
Ve
0.000000100000000
-21.000000000000004 -21.000000000000000 10.000000000000000
0 0

0101101
*
Ed
 0.000000100000000 1 1 0
1  8 0 0.000000000000000 10.000000000000000
0

0101000
+35 3 -34 3 *
Ed
 0.000000100000000 1 1 0
1  9 0 0.000000000000000 42.000000000000007
0

0101000
+42 8 -35 8 *
Ed
 0.000000100000000 1 1 0
1  10 0 0.000000000000000 42.000000000000007
0

0101000
+41 11 -34 11 *
Wi

0101100
+40 0 -33 0 -32 7 +31 10 *
Fa
0  0.000000100000000 3 0

0111000
+30 0 *
Ed
 0.000000100000000 1 1 0
1  11 0 0.000000000000000 42.000000000000000
0

0101000
+35 8 -52 8 *
Ed
 0.000000100000000 1 1 0
1  12 0 0.000000000000000 42.000000000000000
0

0101000
+34 11 -51 11 *
Wi

0101100
+33 0 -50 0 -28 7 +27 10 *
Fa
0  0.000000100000000 4 0

0111000
+26 0 *
Ve
0.000000100000000
17.000000000000000 -15.500000000000000 0.000000000000000
0 0

0101101
*
Ve
0.000000100000000
17.000000000000000 -15.500000000000000 10.000000000000000
0 0

0101101
*
Ed
 0.000000100000000 1 1 0
1  13 0 0.000000000000000 10.000000000000000
3  1 2CN 5 0 0.000000000000000 10.000000000000000
0

0101000
+24 3 -23 3 *
Ed
 0.000000100000000 1 1 0
1  14 0 0.000000000000000 6.283185307179586
2  3 5 12 0.000000000000000 6.283185307179586
0

0101000
+24 8 -24 8 *
Ed
 0.000000100000000 1 1 0
1  15 0 0.000000000000000 6.283185307179586
2  4 5 13 0.000000000000000 6.283185307179586
0

0101000
+23 11 -23 11 *
Wi

0101100
+22 0 -22 0 -21 7 +20 10 *
Fa
0  0.000000100000000 5 0

0111000
+19 0 *
Ve
0.000000100000000
-14.000000000000000 15.500000000000000 0.000000000000000
0 0

0101101
*
Ve
0.000000100000000
-14.000000000000000 15.500000000000000 10.000000000000000
0 0

0101101
*
Ed
 0.000000100000000 1 1 0
1  16 0 0.000000000000000 10.000000000000000
3  5 6CN 6 0 0.000000000000000 10.000000000000000
0

0101000
+17 3 -16 3 *
Ed
 0.000000100000000 1 1 0
1  17 0 0.000000000000000 6.283185307179586
2  7 6 12 0.000000000000000 6.283185307179586
0

0101000
+17 8 -17 8 *
Ed
 0.000000100000000 1 1 0
1  18 0 0.000000000000000 6.283185307179586
2  8 6 13 0.000000000000000 6.283185307179586
0

0101000
+16 11 -16 11 *
Wi

0101100
+15 0 -15 0 -14 7 +13 10 *
Fa
0  0.000000100000000 6 0

0111000
+12 0 *
Wi

0101100
+46 15 +39 15 +32 15 +28 15 *
Wi

0101100
+21 15 *
Wi

0101100
+14 15 *
Fa
0  0.000000100000000 7 0

0111000
+10 0 +9 0 +8 0 *
Wi

0101100
+45 15 +38 15 +31 15 +27 15 *
Wi

0101100
+20 15 *
Wi

0101100
+13 15 *
Fa
0  0.000000100000000 8 0

0111000
+6 0 +5 0 +4 0 *
Sh

0101100
+43 0 +36 0 +29 0 +25 0 +18 0 +11 0 +7 14 -3 16 *
So

1100000
+2 0 *

+1 1 