
CASCADE Topology V1, (c) Matra-Datavision
Locations 25
1
1.000000000000000 0.000000000000000 0.000000000000000 0.000000000000000 
0.000000000000000 1.000000000000000 0.000000000000000 0.000000000000000 
0.000000000000000 0.000000000000000 1.000000000000000 0.000000000000000 
1
1.000000000000000 0.000000000000000 0.000000000000000 0.000000000000000 
0.000000000000000 1.000000000000000 0.000000000000000 0.000000000000000 
0.000000000000000 0.000000000000000 1.000000000000000 0.000000000000000 
2  2 -1 0
1
1.000000000000000 0.000000000000000 0.000000000000000 0.000000000000000 
0.000000000000000 1.000000000000000 0.000000000000000 0.000000000000000 
0.000000000000000 0.000000000000000 1.000000000000000 0.000000000000000 
1
1.000000000000000 0.000000000000000 0.000000000000000 0.000000000000000 
0.000000000000000 1.000000000000000 0.000000000000000 0.000000000000000 
0.000000000000000 0.000000000000000 1.000000000000000 0.000000000000000 
1
1.000000000000000 0.000000000000000 0.000000000000000 0.000000000000000 
0.000000000000000 1.000000000000000 0.000000000000000 0.000000000000000 
0.000000000000000 0.000000000000000 1.000000000000000 0.000000000000000 
2  4 1 5 1 6 -1 2 1 0
2  2 -1 6 1 5 -1 4 -1 0
1
1.000000000000000 0.000000000000000 0.000000000000000 0.000000000000000 
0.000000000000000 1.000000000000000 0.000000000000000 0.000000000000000 
0.000000000000000 0.000000000000000 1.000000000000000 10.000000000000000 
2  4 1 5 1 6 -1 9 1 2 1 0
2  2 -1 9 -1 6 1 5 -1 4 -1 0
2  6 -1 2 1 0
2  2 -1 6 1 0
2  4 1 5 1 0
1
1.000000000000000 0.000000000000000 0.000000000000000 0.000000000000000 
0.000000000000000 1.000000000000000 0.000000000000000 0.000000000000000 
0.000000000000000 0.000000000000000 1.000000000000000 0.000000000000000 
1
1.000000000000000 0.000000000000000 0.000000000000000 0.000000000000000 
0.000000000000000 1.000000000000000 0.000000000000000 0.000000000000000 
0.000000000000000 0.000000000000000 1.000000000000000 0.000000000000000 
2  15 1 16 -1 4 -1 0
1
1.000000000000000 0.000000000000000 0.000000000000000 0.000000000000000 
0.000000000000000 1.000000000000000 0.000000000000000 0.000000000000000 
0.000000000000000 0.000000000000000 1.000000000000000 10.000000000000000 
2  18 -1 15 1 16 -1 4 -1 0
2  6 1 5 -1 4 -1 0
2  9 -1 6 1 5 -1 4 -1 0
2  6 -1 9 1 2 1 0
2  2 -1 9 -1 6 1 0
2  4 1 5 1 6 -1 0
2  4 1 5 1 6 -1 9 1 0
Curve2ds 44
1 0.00000000000000000 -2.82842712474619162 1.00000000000000000 0.00000000000000000 
1 4.00000000000000000 0.00000000000000000 0.00000000000000000 -1.00000000000000000 
1 0.00000000000000000 -2.82842712474619162 1.00000000000000000 0.00000000000000000 
1 38.00000000000000000 0.00000000000000000 0.00000000000000000 -1.00000000000000000 
1 0.00000000000000000 0.00000000000000251 0.00000000000000000 1.00000000000000000 
1 19.00000000000000355 19.00000000000000000 0.70710678118654757 -0.70710678118654757 
1 0.00000000000000000 0.00000000000000000 0.00000000000000000 1.00000000000000000 
1 -19.00000000000000000 19.00000000000000000 -0.70710678118654757 -0.70710678118654757 
1 0.00000000000000000 0.00000000000000000 0.00000000000000000 1.00000000000000000 
1 19.00000000000000000 -19.00000000000000000 0.70710678118654757 0.70710678118654757 
1 0.00000000000000000 0.00000000000000251 0.00000000000000000 1.00000000000000000 
1 -19.00000000000000355 -19.00000000000000000 0.70710678118654757 -0.70710678118654757 
1 0.00000000000000000 0.00000000000000000 1.00000000000000000 0.00000000000000000 
1 0.00000000000000000 -10.00000000000000000 1.00000000000000000 0.00000000000000000 
1 0.00000000000000000 0.00000000000000000 1.00000000000000000 0.00000000000000000 
1 0.00000000000000000 -10.00000000000000000 1.00000000000000000 0.00000000000000000 
1 0.00000000000000000 0.00000000000000000 1.00000000000000000 0.00000000000000000 
1 0.00000000000000000 -10.00000000000000000 1.00000000000000000 0.00000000000000000 
1 0.00000000000000000 0.00000000000000000 1.00000000000000000 0.00000000000000000 
1 0.00000000000000000 -10.00000000000000000 1.00000000000000000 0.00000000000000000 
1 0.00000000000000000 2.82842712474618807 1.00000000000000000 0.00000000000000000 
1 38.00000000000000000 0.00000000000000000 0.00000000000000000 -1.00000000000000000 
1 10.00000000000000000 0.00000000000000251 0.00000000000000000 1.00000000000000000 
1 19.00000000000000355 19.00000000000000000 0.70710678118654757 -0.70710678118654757 
1 0.00000000000000000 2.82842712474618985 1.00000000000000000 0.00000000000000000 
1 4.00000000000000000 0.00000000000000000 0.00000000000000000 -1.00000000000000000 
1 10.00000000000000000 0.00000000000000000 0.00000000000000000 1.00000000000000000 
1 -19.00000000000000000 19.00000000000000000 -0.70710678118654757 -0.70710678118654757 
1 10.00000000000000000 0.00000000000000000 0.00000000000000000 1.00000000000000000 
1 19.00000000000000000 -19.00000000000000000 0.70710678118654757 0.70710678118654757 
1 10.00000000000000000 0.00000000000000251 0.00000000000000000 1.00000000000000000 
1 -19.00000000000000355 -19.00000000000000000 0.70710678118654757 -0.70710678118654757 
1 0.00000000000000000 2.82842712474618807 1.00000000000000000 0.00000000000000000 
1 4.00000000000000000 0.00000000000000000 0.00000000000000000 -1.00000000000000000 
1 0.00000000000000000 -2.82842712474618807 1.00000000000000000 0.00000000000000000 
1 38.00000000000000000 0.00000000000000000 0.00000000000000000 -1.00000000000000000 
1 0.00000000000000000 -2.82842712474619162 1.00000000000000000 0.00000000000000000 
1 38.00000000000000711 0.00000000000000000 0.00000000000000000 -1.00000000000000000 
1 0.00000000000000000 2.82842712474619162 1.00000000000000000 0.00000000000000000 
1 4.00000000000000000 0.00000000000000000 0.00000000000000000 -1.00000000000000000 
1 0.00000000000000000 0.00000000000000000 0.00000000000000000 -1.00000000000000000 
1 6.28318530717958623 0.00000000000000000 0.00000000000000000 -1.00000000000000000 
1 0.00000000000000000 0.00000000000000000 0.00000000000000000 -1.00000000000000000 
1 6.28318530717958623 0.00000000000000000 0.00000000000000000 -1.00000000000000000 
Curves 24
1 -21.00000000000000355 21.00000000000000000 0.00000000000000000 1.00000000000000000 0.00000000000000000 0.00000000000000000 
1 -17.00000000000000355 21.00000000000000000 0.00000000000000000 0.00000000000000000 0.00000000000000000 1.00000000000000000 
1 16.99999999999999645 21.00000000000000000 0.00000000000000000 0.00000000000000000 0.00000000000000000 1.00000000000000000 
8 -2.82842712474619251 2.82842712474618807
1 -19.00000000000000711 19.00000000000000000 0.00000000000000000 -0.70710678118654757 -0.70710678118654757 0.00000000000000000 
8 -2.82842712474619029 2.82842712474619029
1 18.99999999999999645 19.00000000000000000 0.00000000000000000 0.70710678118654757 -0.70710678118654757 -0.00000000000000000 
1 -21.00000000000000355 -21.00000000000000000 0.00000000000000000 0.00000000000000000 1.00000000000000000 0.00000000000000000 
1 20.99999999999999645 21.00000000000000000 0.00000000000000000 0.00000000000000017 -1.00000000000000000 0.00000000000000000 
8 -2.82842712474619029 2.82842712474619029
1 -19.00000000000000355 -19.00000000000000000 0.00000000000000000 -0.70710678118654757 0.70710678118654757 -0.00000000000000000 
8 -2.82842712474619251 2.82842712474618807
1 19.00000000000000000 -19.00000000000000000 0.00000000000000000 -0.70710678118654757 -0.70710678118654757 0.00000000000000000 
1 21.00000000000000355 -21.00000000000000000 0.00000000000000000 -1.00000000000000000 0.00000000000000000 0.00000000000000000 
2 15.50000000000000000 -15.50000000000000000 0.00000000000000000 0.00000000000000000 0.00000000000000000 1.00000000000000000 1.00000000000000000 0.00000000000000000 -0.00000000000000000 -0.00000000000000000 1.00000000000000000 0.00000000000000000 1.50000000000000000
2 -15.50000000000000000 15.50000000000000000 0.00000000000000000 0.00000000000000000 0.00000000000000000 1.00000000000000000 1.00000000000000000 0.00000000000000000 -0.00000000000000000 -0.00000000000000000 1.00000000000000000 0.00000000000000000 1.50000000000000000
1 -21.00000000000000355 17.00000000000000000 0.00000000000000000 0.00000000000000000 0.00000000000000000 1.00000000000000000 
8 -2.82842712474619251 2.82842712474618807
1 -19.00000000000000711 19.00000000000000000 10.00000000000000000 -0.70710678118654757 -0.70710678118654757 0.00000000000000000 
1 20.99999999999999645 17.00000000000000000 0.00000000000000000 0.00000000000000000 0.00000000000000000 1.00000000000000000 
8 -2.82842712474619029 2.82842712474619029
1 18.99999999999999645 19.00000000000000000 10.00000000000000000 0.70710678118654757 -0.70710678118654757 -0.00000000000000000 
8 -2.82842712474619029 2.82842712474619029
1 -19.00000000000000355 -19.00000000000000000 10.00000000000000000 -0.70710678118654757 0.70710678118654757 -0.00000000000000000 
8 -2.82842712474619251 2.82842712474618807
1 19.00000000000000000 -19.00000000000000000 10.00000000000000000 -0.70710678118654757 -0.70710678118654757 0.00000000000000000 
1 -21.00000000000000355 -17.00000000000000000 0.00000000000000000 0.00000000000000000 0.00000000000000000 1.00000000000000000 
1 21.00000000000000355 -17.00000000000000000 0.00000000000000000 0.00000000000000000 0.00000000000000000 1.00000000000000000 
1 -17.00000000000000355 -21.00000000000000000 0.00000000000000000 0.00000000000000000 0.00000000000000000 1.00000000000000000 
1 17.00000000000000355 -21.00000000000000000 0.00000000000000000 0.00000000000000000 0.00000000000000000 1.00000000000000000 
1 17.00000000000000000 -15.50000000000000000 0.00000000000000000 0.00000000000000000 0.00000000000000000 1.00000000000000000 
1 -14.00000000000000000 15.50000000000000000 0.00000000000000000 0.00000000000000000 0.00000000000000000 1.00000000000000000 
Polygon3D 0
PolygonOnTriangulations 0
Surfaces 13
1 -21.00000000000000355 21.00000000000000000 0.00000000000000000 0.00000000000000000 1.00000000000000000 0.00000000000000000 1.00000000000000000 0.00000000000000000 0.00000000000000000 0.00000000000000000 0.00000000000000000 -1.00000000000000000 
1 -19.00000000000000355 19.00000000000000000 0.00000000000000000 -0.70710678118654757 0.70710678118654757 0.00000000000000000 0.00000000000000000 0.00000000000000000 1.00000000000000000 -0.70710678118654757 -0.70710678118654757 0.00000000000000000 
1 18.99999999999999645 19.00000000000000000 0.00000000000000000 0.70710678118654757 0.70710678118654757 0.00000000000000000 0.00000000000000000 -0.00000000000000000 1.00000000000000000 0.70710678118654757 -0.70710678118654757 -0.00000000000000000 
1 -0.00000000000000203 -0.00000000000000068 0.00000000000000000 -0.00000000000000000 -0.00000000000000000 -1.00000000000000000 -1.00000000000000000 0.00000000000000000 0.00000000000000000 0.00000000000000000 1.00000000000000000 -0.00000000000000000 
1 -19.00000000000000355 -19.00000000000000000 0.00000000000000000 -0.70710678118654757 -0.70710678118654757 0.00000000000000000 0.00000000000000000 0.00000000000000000 1.00000000000000000 -0.70710678118654757 0.70710678118654757 0.00000000000000000 
1 19.00000000000000355 -19.00000000000000000 0.00000000000000000 0.70710678118654757 -0.70710678118654757 0.00000000000000000 0.00000000000000000 0.00000000000000000 1.00000000000000000 -0.70710678118654757 -0.70710678118654757 0.00000000000000000 
2 15.50000000000000000 -15.50000000000000000 0.00000000000000000 -0.00000000000000000 -0.00000000000000000 -1.00000000000000000 1.00000000000000000 0.00000000000000000 0.00000000000000000 -0.00000000000000000 1.00000000000000000 -0.00000000000000000 1.50000000000000000
2 15.50000000000000000 -15.50000000000000000 0.00000000000000000 -0.00000000000000000 -0.00000000000000000 -1.00000000000000000 1.00000000000000000 0.00000000000000000 0.00000000000000000 -0.00000000000000000 1.00000000000000000 -0.00000000000000000 1.50000000000000000
2 -15.50000000000000000 15.50000000000000000 0.00000000000000000 -0.00000000000000000 -0.00000000000000000 -1.00000000000000000 1.00000000000000000 0.00000000000000000 0.00000000000000000 -0.00000000000000000 1.00000000000000000 -0.00000000000000000 1.50000000000000000
2 -15.50000000000000000 15.50000000000000000 0.00000000000000000 -0.00000000000000000 -0.00000000000000000 -1.00000000000000000 1.00000000000000000 0.00000000000000000 0.00000000000000000 -0.00000000000000000 1.00000000000000000 -0.00000000000000000 1.50000000000000000
1 -21.00000000000000355 -21.00000000000000000 0.00000000000000000 -1.00000000000000000 0.00000000000000000 0.00000000000000000 0.00000000000000000 1.00000000000000000 0.00000000000000000 0.00000000000000000 0.00000000000000000 -1.00000000000000000 
1 20.99999999999999645 21.00000000000000000 0.00000000000000000 1.00000000000000000 0.00000000000000017 -0.00000000000000000 0.00000000000000017 -1.00000000000000000 0.00000000000000000 0.00000000000000000 -0.00000000000000000 -1.00000000000000000 
1 21.00000000000000355 -21.00000000000000000 0.00000000000000000 0.00000000000000000 -1.00000000000000000 0.00000000000000000 -1.00000000000000000 0.00000000000000000 0.00000000000000000 -0.00000000000000000 -0.00000000000000000 -1.00000000000000000 
Triangulations 0

TShapes 74
Ve
0.000100000000000
-17.000000000000004 21.000000000000000 0.000000000000000
0 0

0101101
*
Ve
0.000100000000000
16.999999999999996 21.000000000000000 0.000000000000000
0 0

0101101
*
Ed
 0.000000100000000 1 1 0
1  1 0 4.000000000000000 38.000000000000000
0

0101000
+74 8 -73 8 *
Ve
0.000100000000000
-17.000000000000004 21.000000000000000 10.000000000000000
0 0

0101101
*
Ed
 0.000000100000000 1 1 0
1  2 0 -0.000000000000000 10.000000000000000
2  1 2 0 -0.000000000000000 10.000000000000000
2  2 1 2 -0.000000000000000 10.000000000000000
0

0101000
+74 0 -71 0 *
Ve
0.000100000000000
16.999999999999996 21.000000000000000 10.000000000000000
0 0

0101101
*
Ed
 0.000000100000000 1 1 0
1  3 0 -0.000000000000000 10.000000000000000
2  3 3 0 -0.000000000000000 10.000000000000000
2  4 1 2 -0.000000000000000 10.000000000000000
0

0101000
+73 0 -69 0 *
Ed
 0.000000100000000 1 1 0
1  1 0 4.000000000000000 38.000000000000000
0

0101000
+71 11 -69 11 *
Wi

0101100
-72 7 +70 0 -68 0 +67 10 *
Fa
0  0.000000100000000 1 0

0101000
+66 3 *
Ve
0.000100000000000
-21.000000000000004 17.000000000000000 0.000000000000000
0 0

0101101
*
Ed
 0.000000100000000 1 1 0
1  4 0 -2.828427124746193 2.828427124746188
2  5 2 0 -2.828427124746193 2.828427124746188
2  6 4 12 -2.828427124746193 2.828427124746188
0

0101000
+74 0 -64 0 *
Ve
0.000100000000000
20.999999999999996 17.000000000000000 0.000000000000000
0 0

0101101
*
Ed
 0.000000100000000 1 1 0
1  5 0 -2.828427124746190 2.828427124746190
2  7 3 0 -2.828427124746190 2.828427124746190
2  8 4 12 -2.828427124746190 2.828427124746190
0

0101000
+73 0 -62 0 *
Ve
0.000100000000000
-21.000000000000004 -17.000000000000000 0.000000000000000
0 0

0101101
*
Ed
 0.000000100000000 1 1 0
1  6 0 4.000000000000000 38.000000000000000
0

0101000
+60 8 -64 8 *
Ve
0.000100000000000
21.000000000000004 -17.000000000000000 0.000000000000000
0 0

0101101
*
Ed
 0.000000100000000 1 1 0
1  7 0 4.000000000000000 38.000000000000000
0

0101000
+62 8 -58 8 *
Ve
0.000100000000000
-17.000000000000004 -21.000000000000000 0.000000000000000
0 0

0101101
*
Ed
 0.000000100000000 1 1 0
1  8 0 -2.828427124746190 2.828427124746190
2  9 5 0 -2.828427124746190 2.828427124746190
2  10 4 12 -2.828427124746190 2.828427124746190
0

0101000
+56 0 -60 0 *
Ve
0.000100000000000
17.000000000000004 -21.000000000000000 0.000000000000000
0 0

0101101
*
Ed
 0.000000100000000 1 1 0
1  9 0 -2.828427124746193 2.828427124746188
2  11 6 0 -2.828427124746193 2.828427124746188
2  12 4 12 -2.828427124746193 2.828427124746188
0

0101000
+58 0 -54 0 *
Ed
 0.000000100000000 1 1 0
1  10 0 4.000000000000000 38.000000000000007
0

0101000
+54 8 -56 8 *
Wi

0101100
+72 7 -63 0 +61 0 +59 7 +57 7 +55 0 +53 0 +52 7 *
Ve
0.000000100000000
17.000000000000000 -15.500000000000000 0.000000000000000
0 0

0101101
*
Ed
 0.000000100000000 1 1 0
1  11 0 0.000000000000000 6.283185307179586
2  13 7 17 0.000000000000000 6.283185307179586
2  14 7 19 0.000000000000000 6.283185307179586
2  15 8 20 0.000000000000000 6.283185307179586
2  16 8 21 0.000000000000000 6.283185307179586
0

0101000
+50 0 -50 0 *
Wi

0101100
+49 14 *
Ve
0.000000100000000
-14.000000000000000 15.500000000000000 0.000000000000000
0 0

0101101
*
Ed
 0.000000100000000 1 1 0
1  12 0 0.000000000000000 6.283185307179586
2  17 9 17 0.000000000000000 6.283185307179586
2  18 9 19 0.000000000000000 6.283185307179586
2  19 10 20 0.000000000000000 6.283185307179586
2  20 10 21 0.000000000000000 6.283185307179586
0

0101000
+47 0 -47 0 *
Wi

0101100
+46 14 *
Fa
0  0.000000100000000 4 0

0101000
+51 13 +48 0 +45 0 *
Ve
0.000100000000000
-21.000000000000004 17.000000000000000 10.000000000000000
0 0

0101101
*
Ed
 0.000000100000000 1 1 0
1  13 0 -0.000000000000000 10.000000000000000
2  21 2 0 -0.000000000000000 10.000000000000000
2  22 11 2 -0.000000000000000 10.000000000000000
0

0101000
+64 0 -43 0 *
Ed
 0.000000100000000 1 1 0
1  14 0 -2.828427124746193 2.828427124746188
2  23 2 0 -2.828427124746193 2.828427124746188
2  24 4 22 -2.828427124746193 2.828427124746188
0

0101000
+71 0 -43 0 *
Wi

0101100
-63 0 +70 0 -42 0 +41 0 *
Fa
0  0.000000000000000 2 0

0101000
+40 0 *
Ve
0.000100000000000
20.999999999999996 17.000000000000000 10.000000000000000
0 0

0101101
*
Ed
 0.000000100000000 1 1 0
1  15 0 -0.000000000000000 10.000000000000000
2  25 3 0 -0.000000000000000 10.000000000000000
2  26 12 2 -0.000000000000000 10.000000000000000
0

0101000
+62 0 -38 0 *
Ed
 0.000000100000000 1 1 0
1  16 0 -2.828427124746190 2.828427124746190
2  27 3 0 -2.828427124746190 2.828427124746190
2  28 4 22 -2.828427124746190 2.828427124746190
0

0101000
+69 0 -38 0 *
Wi

0101100
-61 0 +68 0 -37 0 +36 0 *
Fa
0  0.000000000000000 3 0

0101000
+35 0 *
Ve
0.000100000000000
-21.000000000000004 -17.000000000000000 10.000000000000000
0 0

0101101
*
Ed
 0.000000100000000 1 1 0
1  6 0 4.000000000000000 38.000000000000000
0

0101000
+33 11 -43 11 *
Ve
0.000100000000000
21.000000000000004 -17.000000000000000 10.000000000000000
0 0

0101101
*
Ed
 0.000000100000000 1 1 0
1  7 0 4.000000000000000 38.000000000000000
0

0101000
+38 11 -31 11 *
Ve
0.000100000000000
-17.000000000000004 -21.000000000000000 10.000000000000000
0 0

0101101
*
Ed
 0.000000100000000 1 1 0
1  17 0 -2.828427124746190 2.828427124746190
2  29 5 0 -2.828427124746190 2.828427124746190
2  30 4 22 -2.828427124746190 2.828427124746190
0

0101000
+29 0 -33 0 *
Ve
0.000100000000000
17.000000000000004 -21.000000000000000 10.000000000000000
0 0

0101101
*
Ed
 0.000000100000000 1 1 0
1  18 0 -2.828427124746193 2.828427124746188
2  31 6 0 -2.828427124746193 2.828427124746188
2  32 4 22 -2.828427124746193 2.828427124746188
0

0101000
+31 0 -27 0 *
Ed
 0.000000100000000 1 1 0
1  10 0 4.000000000000000 38.000000000000007
0

0101000
+27 11 -29 11 *
Wi

0101100
+67 10 -41 0 +36 0 +32 10 +30 10 +28 0 +26 0 +25 10 *
Fa
0  0.000000100000000 4 0

0101000
+24 23 +48 0 +45 0 *
Ed
 0.000000100000000 1 1 0
1  19 0 -0.000000000000000 10.000000000000000
2  33 5 0 -0.000000000000000 10.000000000000000
2  34 11 2 -0.000000000000000 10.000000000000000
0

0101000
+60 0 -33 0 *
Wi

0101100
-59 7 +22 0 -42 0 +32 10 *
Fa
0  0.000000100000000 11 0

0101000
+21 3 *
Ed
 0.000000100000000 1 1 0
1  20 0 -0.000000000000000 10.000000000000000
2  35 6 0 -0.000000000000000 10.000000000000000
2  36 12 2 -0.000000000000000 10.000000000000000
0

0101000
+58 0 -31 0 *
Wi

0101100
-57 7 +37 0 -19 0 +30 10 *
Fa
0  0.000000100000000 12 0

0101000
+18 3 *
Ed
 0.000000100000000 1 1 0
1  21 0 -0.000000000000000 10.000000000000000
2  37 5 0 -0.000000000000000 10.000000000000000
2  38 13 2 -0.000000000000000 10.000000000000000
0

0101000
+56 0 -29 0 *
Wi

0101100
-55 0 +16 0 -22 0 +28 0 *
Fa
0  0.000000000000000 5 0

0101000
+15 0 *
Ed
 0.000000100000000 1 1 0
1  22 0 -0.000000000000000 10.000000000000000
2  39 6 0 -0.000000000000000 10.000000000000000
2  40 13 2 -0.000000000000000 10.000000000000000
0

0101000
+54 0 -27 0 *
Wi

0101100
-53 0 +19 0 -13 0 +26 0 *
Fa
0  0.000000000000000 6 0

0101000
+12 0 *
Wi

0101100
-52 7 +13 0 -16 0 +25 10 *
Fa
0  0.000000100000000 13 0

0101000
+10 3 *
Ed
 0.000000100000000 1 1 0
1  23 0 0.000000000000000 10.000000000000000
3  41 42CN 8 0 0.000000000000000 10.000000000000000
0

0101000
+50 24 -50 25 *
Wi

0101100
+8 0 -8 0 -49 24 +49 25 *
Fa
0  0.000000100000000 8 0

0101000
+7 0 *
Ed
 0.000000100000000 1 1 0
1  24 0 0.000000000000000 10.000000000000000
3  43 44CN 10 0 0.000000000000000 10.000000000000000
0

0101000
+47 24 -47 25 *
Wi

0101100
+5 0 -5 0 -46 24 +46 25 *
Fa
0  0.000000100000000 10 0

0101000
+4 0 *
Sh

0101100
+65 2 +44 12 -39 0 +34 0 -23 22 +20 2 +17 2 +14 0 +11 0 +9 2 
+6 2 +3 2 *
So

0100000
+2 0 *

+1 1 