<?xml version="1.0" encoding="UTF-8" standalone="no"?>
<!DOCTYPE svg PUBLIC "-//W3C//DTD SVG 1.1//EN"
 "http://www.w3.org/Graphics/SVG/1.1/DTD/svg11.dtd">
<!-- Generated by graphviz version 2.43.0 (0)
 -->
<!-- Title: G Pages: 1 -->
<svg width="881pt" height="260pt"
 viewBox="0.00 0.00 881.17 260.00" xmlns="http://www.w3.org/2000/svg" xmlns:xlink="http://www.w3.org/1999/xlink">
<g id="graph0" class="graph" transform="scale(1 1) rotate(0) translate(4 256)">
<title>G</title>
<polygon fill="white" stroke="transparent" points="-4,4 -4,-256 877.17,-256 877.17,4 -4,4"/>
<!-- ./Parts/Sketches.FCStd -->
<g id="node1" class="node">
<title>./Parts/Sketches.FCStd</title>
<ellipse fill="none" stroke="black" cx="371.13" cy="-18" rx="118.08" ry="18"/>
<text text-anchor="middle" x="371.13" y="-14.3" font-family="Times,serif" font-size="14.00">./Parts/Sketches.FCStd</text>
</g>
<!-- ./Parts/Fasteners.FCStd -->
<g id="node2" class="node">
<title>./Parts/Fasteners.FCStd</title>
<ellipse fill="none" stroke="black" cx="629.13" cy="-18" rx="122.38" ry="18"/>
<text text-anchor="middle" x="629.13" y="-14.3" font-family="Times,serif" font-size="14.00">./Parts/Fasteners.FCStd</text>
</g>
<!-- ./AxisSlider/AxisSliderParts.FCStd -->
<g id="node3" class="node">
<title>./AxisSlider/AxisSliderParts.FCStd</title>
<ellipse fill="none" stroke="black" cx="189.13" cy="-90" rx="170.87" ry="18"/>
<text text-anchor="middle" x="189.13" y="-86.3" font-family="Times,serif" font-size="14.00">./AxisSlider/AxisSliderParts.FCStd</text>
</g>
<!-- ./AxisSlider/AxisSliderParts.FCStd&#45;&gt;./Parts/Sketches.FCStd -->
<g id="edge1" class="edge">
<title>./AxisSlider/AxisSliderParts.FCStd&#45;&gt;./Parts/Sketches.FCStd</title>
<path fill="none" stroke="black" d="M232.26,-72.41C258.59,-62.28 292.4,-49.28 320.06,-38.64"/>
<polygon fill="black" stroke="black" points="321.49,-41.84 329.56,-34.99 318.97,-35.31 321.49,-41.84"/>
</g>
<!-- ./AxisSlider/AxisSliderParts.FCStd&#45;&gt;./Parts/Fasteners.FCStd -->
<g id="edge2" class="edge">
<title>./AxisSlider/AxisSliderParts.FCStd&#45;&gt;./Parts/Fasteners.FCStd</title>
<path fill="none" stroke="black" d="M279.24,-74.67C355.27,-62.57 463.56,-45.34 539.47,-33.26"/>
<polygon fill="black" stroke="black" points="540.17,-36.7 549.49,-31.67 539.07,-29.78 540.17,-36.7"/>
</g>
<!-- ./AxisSlider/AxisSliderAssembly.FCStd -->
<g id="node4" class="node">
<title>./AxisSlider/AxisSliderAssembly.FCStd</title>
<ellipse fill="none" stroke="black" cx="189.13" cy="-162" rx="189.27" ry="18"/>
<text text-anchor="middle" x="189.13" y="-158.3" font-family="Times,serif" font-size="14.00">./AxisSlider/AxisSliderAssembly.FCStd</text>
</g>
<!-- ./AxisSlider/AxisSliderAssembly.FCStd&#45;&gt;./AxisSlider/AxisSliderParts.FCStd -->
<g id="edge3" class="edge">
<title>./AxisSlider/AxisSliderAssembly.FCStd&#45;&gt;./AxisSlider/AxisSliderParts.FCStd</title>
<path fill="none" stroke="black" d="M189.13,-143.7C189.13,-135.98 189.13,-126.71 189.13,-118.11"/>
<polygon fill="black" stroke="black" points="192.63,-118.1 189.13,-108.1 185.63,-118.1 192.63,-118.1"/>
</g>
<!-- ./Axis/AxisParts.FCStd -->
<g id="node5" class="node">
<title>./Axis/AxisParts.FCStd</title>
<ellipse fill="none" stroke="black" cx="758.13" cy="-90" rx="115.08" ry="18"/>
<text text-anchor="middle" x="758.13" y="-86.3" font-family="Times,serif" font-size="14.00">./Axis/AxisParts.FCStd</text>
</g>
<!-- ./Axis/AxisParts.FCStd&#45;&gt;./Parts/Sketches.FCStd -->
<g id="edge4" class="edge">
<title>./Axis/AxisParts.FCStd&#45;&gt;./Parts/Sketches.FCStd</title>
<path fill="none" stroke="black" d="M685.8,-75.92C620.01,-64.02 522.95,-46.46 454.06,-34"/>
<polygon fill="black" stroke="black" points="454.56,-30.53 444.1,-32.2 453.32,-37.42 454.56,-30.53"/>
</g>
<!-- ./Axis/AxisParts.FCStd&#45;&gt;./Parts/Fasteners.FCStd -->
<g id="edge5" class="edge">
<title>./Axis/AxisParts.FCStd&#45;&gt;./Parts/Fasteners.FCStd</title>
<path fill="none" stroke="black" d="M727.89,-72.59C710.23,-63 687.73,-50.8 668.68,-40.46"/>
<polygon fill="black" stroke="black" points="670.09,-37.24 659.64,-35.55 666.76,-43.4 670.09,-37.24"/>
</g>
<!-- ./Axis/AxisEngine.FCStd -->
<g id="node6" class="node">
<title>./Axis/AxisEngine.FCStd</title>
<ellipse fill="none" stroke="black" cx="501.13" cy="-90" rx="123.48" ry="18"/>
<text text-anchor="middle" x="501.13" y="-86.3" font-family="Times,serif" font-size="14.00">./Axis/AxisEngine.FCStd</text>
</g>
<!-- ./Axis/AxisEngine.FCStd&#45;&gt;./Parts/Sketches.FCStd -->
<g id="edge6" class="edge">
<title>./Axis/AxisEngine.FCStd&#45;&gt;./Parts/Sketches.FCStd</title>
<path fill="none" stroke="black" d="M470.33,-72.41C452.44,-62.78 429.71,-50.54 410.53,-40.22"/>
<polygon fill="black" stroke="black" points="412.18,-37.13 401.72,-35.47 408.87,-43.29 412.18,-37.13"/>
</g>
<!-- ./Axis/AxisEngine.FCStd&#45;&gt;./Parts/Fasteners.FCStd -->
<g id="edge7" class="edge">
<title>./Axis/AxisEngine.FCStd&#45;&gt;./Parts/Fasteners.FCStd</title>
<path fill="none" stroke="black" d="M531.47,-72.41C549,-62.82 571.25,-50.65 590.08,-40.36"/>
<polygon fill="black" stroke="black" points="591.92,-43.34 599.02,-35.47 588.56,-37.2 591.92,-43.34"/>
</g>
<!-- ./Axis/AxisAssembly.FCStd -->
<g id="node7" class="node">
<title>./Axis/AxisAssembly.FCStd</title>
<ellipse fill="none" stroke="black" cx="530.13" cy="-162" rx="133.78" ry="18"/>
<text text-anchor="middle" x="530.13" y="-158.3" font-family="Times,serif" font-size="14.00">./Axis/AxisAssembly.FCStd</text>
</g>
<!-- ./Axis/AxisAssembly.FCStd&#45;&gt;./Axis/AxisParts.FCStd -->
<g id="edge8" class="edge">
<title>./Axis/AxisAssembly.FCStd&#45;&gt;./Axis/AxisParts.FCStd</title>
<path fill="none" stroke="black" d="M581.3,-145.29C615.98,-134.64 661.95,-120.53 698.32,-109.36"/>
<polygon fill="black" stroke="black" points="699.78,-112.58 708.31,-106.3 697.73,-105.89 699.78,-112.58"/>
</g>
<!-- ./Axis/AxisAssembly.FCStd&#45;&gt;./Axis/AxisEngine.FCStd -->
<g id="edge9" class="edge">
<title>./Axis/AxisAssembly.FCStd&#45;&gt;./Axis/AxisEngine.FCStd</title>
<path fill="none" stroke="black" d="M522.96,-143.7C519.7,-135.81 515.76,-126.3 512.13,-117.55"/>
<polygon fill="black" stroke="black" points="515.28,-116 508.22,-108.1 508.81,-118.68 515.28,-116"/>
</g>
<!-- ./CNCAssembly.FCStd -->
<g id="node8" class="node">
<title>./CNCAssembly.FCStd</title>
<ellipse fill="none" stroke="black" cx="359.13" cy="-234" rx="113.18" ry="18"/>
<text text-anchor="middle" x="359.13" y="-230.3" font-family="Times,serif" font-size="14.00">./CNCAssembly.FCStd</text>
</g>
<!-- ./CNCAssembly.FCStd&#45;&gt;./AxisSlider/AxisSliderAssembly.FCStd -->
<g id="edge11" class="edge">
<title>./CNCAssembly.FCStd&#45;&gt;./AxisSlider/AxisSliderAssembly.FCStd</title>
<path fill="none" stroke="black" d="M320.13,-216.94C295.95,-206.98 264.66,-194.1 238.72,-183.42"/>
<polygon fill="black" stroke="black" points="240.01,-180.16 229.43,-179.59 237.34,-186.64 240.01,-180.16"/>
</g>
<!-- ./CNCAssembly.FCStd&#45;&gt;./Axis/AxisAssembly.FCStd -->
<g id="edge10" class="edge">
<title>./CNCAssembly.FCStd&#45;&gt;./Axis/AxisAssembly.FCStd</title>
<path fill="none" stroke="black" d="M398.36,-216.94C422.95,-206.87 454.85,-193.82 481.1,-183.07"/>
<polygon fill="black" stroke="black" points="482.56,-186.25 490.49,-179.23 479.91,-179.78 482.56,-186.25"/>
</g>
</g>
</svg>
