<?xml version="1.0" encoding="UTF-8" standalone="no"?>
<!DOCTYPE svg PUBLIC "-//W3C//DTD SVG 1.1//EN"
 "http://www.w3.org/Graphics/SVG/1.1/DTD/svg11.dtd">
<!-- Generated by graphviz version 2.43.0 (0)
 -->
<!-- Title: G Pages: 1 -->
<svg width="1431pt" height="711pt"
 viewBox="0.00 0.00 1430.58 711.08" xmlns="http://www.w3.org/2000/svg" xmlns:xlink="http://www.w3.org/1999/xlink">
<g id="graph0" class="graph" transform="scale(1 1) rotate(0) translate(4 707.08)">
<title>G</title>
<polygon fill="lightgray" stroke="transparent" points="-4,4 -4,-707.08 1426.58,-707.08 1426.58,4 -4,4"/>
<g id="clust1" class="cluster">
<title>cluster_Sketches</title>
<polygon fill="lightgray" stroke="#000000" points="8,-426.08 8,-501.08 295.68,-501.08 295.68,-426.08 8,-426.08"/>
<text text-anchor="middle" x="151.84" y="-485.88" font-family="Times,serif" font-size="14.00">Sketches</text>
</g>
<g id="clust2" class="cluster">
<title>cluster_Parts</title>
<polygon fill="lightgray" stroke="#000000" points="50.25,-46.08 50.25,-229.08 650.8,-229.08 650.8,-46.08 50.25,-46.08"/>
<text text-anchor="middle" x="350.52" y="-213.88" font-family="Times,serif" font-size="14.00">Parts</text>
</g>
<g id="clust3" class="cluster">
<title>cluster_XYZAxisSlider</title>
<polygon fill="lightgray" stroke="#000000" points="315.68,-566.08 315.68,-695.08 1168.4,-695.08 1168.4,-566.08 315.68,-566.08"/>
<text text-anchor="middle" x="742.04" y="-679.88" font-family="Times,serif" font-size="14.00">XYZAxisSlider</text>
</g>
<g id="clust4" class="cluster">
<title>cluster_XYZAxis</title>
<polygon fill="lightgray" stroke="#000000" points="336.47,-237.08 336.47,-528.08 1113.16,-528.08 1113.16,-237.08 336.47,-237.08"/>
<text text-anchor="middle" x="724.82" y="-512.88" font-family="Times,serif" font-size="14.00">XYZAxis</text>
</g>
<!-- ./Sketches/Sketches.FCStd -->
<g id="node1" class="node">
<title>./Sketches/Sketches.FCStd</title>
<ellipse fill="none" stroke="black" cx="151.84" cy="-452.08" rx="135.68" ry="18"/>
<text text-anchor="middle" x="151.84" y="-448.38" font-family="Times,serif" font-size="14.00">./Sketches/Sketches.FCStd</text>
</g>
<!-- ./Parts/Nut.FCStd -->
<g id="node2" class="node">
<title>./Parts/Nut.FCStd</title>
<ellipse fill="none" stroke="black" cx="151.84" cy="-180.08" rx="93.68" ry="18"/>
<text text-anchor="middle" x="151.84" y="-176.38" font-family="Times,serif" font-size="14.00">./Parts/Nut.FCStd</text>
</g>
<!-- ./Parts/Bearing.FCStd -->
<g id="node3" class="node">
<title>./Parts/Bearing.FCStd</title>
<ellipse fill="none" stroke="black" cx="497.86" cy="-180.08" rx="112.38" ry="18"/>
<text text-anchor="middle" x="497.86" y="-176.38" font-family="Times,serif" font-size="14.00">./Parts/Bearing.FCStd</text>
</g>
<!-- ./Parts/Bearing.FCStd&#45;&gt;./Parts/Nut.FCStd -->
<g id="edge1" class="edge">
<title>./Parts/Bearing.FCStd&#45;&gt;./Parts/Nut.FCStd</title>
<path fill="none" stroke="black" d="M385.17,-180.08C343.57,-180.08 296.58,-180.08 255.8,-180.08"/>
<polygon fill="black" stroke="black" points="255.57,-176.58 245.57,-180.08 255.57,-183.58 255.57,-176.58"/>
</g>
<!-- ./Parts/LeadScrewNut.FCStd -->
<g id="node4" class="node">
<title>./Parts/LeadScrewNut.FCStd</title>
<ellipse fill="none" stroke="black" cx="497.86" cy="-126.08" rx="144.87" ry="18"/>
<text text-anchor="middle" x="497.86" y="-122.38" font-family="Times,serif" font-size="14.00">./Parts/LeadScrewNut.FCStd</text>
</g>
<!-- ./Parts/LeadScrewNut.FCStd&#45;&gt;./Parts/Nut.FCStd -->
<g id="edge2" class="edge">
<title>./Parts/LeadScrewNut.FCStd&#45;&gt;./Parts/Nut.FCStd</title>
<path fill="none" stroke="black" d="M403.24,-139.73C375.08,-143.92 344.11,-148.61 315.68,-153.08 288.57,-157.35 258.95,-162.2 232.5,-166.61"/>
<polygon fill="black" stroke="black" points="231.82,-163.17 222.53,-168.27 232.97,-170.08 231.82,-163.17"/>
</g>
<!-- ./Parts/Engine.FCStd -->
<g id="node5" class="node">
<title>./Parts/Engine.FCStd</title>
<ellipse fill="none" stroke="black" cx="497.86" cy="-72.08" rx="108.58" ry="18"/>
<text text-anchor="middle" x="497.86" y="-68.38" font-family="Times,serif" font-size="14.00">./Parts/Engine.FCStd</text>
</g>
<!-- ./XYZAxisSlider/AngleProfile.FCStd -->
<g id="node6" class="node">
<title>./XYZAxisSlider/AngleProfile.FCStd</title>
<ellipse fill="none" stroke="black" cx="497.86" cy="-592.08" rx="174.37" ry="18"/>
<text text-anchor="middle" x="497.86" y="-588.38" font-family="Times,serif" font-size="14.00">./XYZAxisSlider/AngleProfile.FCStd</text>
</g>
<!-- ./XYZAxisSlider/AngleProfile.FCStd&#45;&gt;./Sketches/Sketches.FCStd -->
<g id="edge3" class="edge">
<title>./XYZAxisSlider/AngleProfile.FCStd&#45;&gt;./Sketches/Sketches.FCStd</title>
<path fill="none" stroke="black" d="M379.87,-578.7C358.08,-574.18 335.85,-568.14 315.68,-560.08 264.49,-539.63 212.69,-501.63 181.66,-476.6"/>
<polygon fill="black" stroke="black" points="183.82,-473.84 173.86,-470.22 179.39,-479.26 183.82,-473.84"/>
</g>
<!-- ./XYZAxisSlider/Screws.FCStd -->
<g id="node7" class="node">
<title>./XYZAxisSlider/Screws.FCStd</title>
<ellipse fill="none" stroke="black" cx="497.86" cy="-646.08" rx="151.37" ry="18"/>
<text text-anchor="middle" x="497.86" y="-642.38" font-family="Times,serif" font-size="14.00">./XYZAxisSlider/Screws.FCStd</text>
</g>
<!-- ./XYZAxisSlider/XYZAxisSliderAssembly.FCStd -->
<g id="node8" class="node">
<title>./XYZAxisSlider/XYZAxisSliderAssembly.FCStd</title>
<ellipse fill="none" stroke="black" cx="934.22" cy="-592.08" rx="226.36" ry="18"/>
<text text-anchor="middle" x="934.22" y="-588.38" font-family="Times,serif" font-size="14.00">./XYZAxisSlider/XYZAxisSliderAssembly.FCStd</text>
</g>
<!-- ./XYZAxisSlider/XYZAxisSliderAssembly.FCStd&#45;&gt;./Parts/Nut.FCStd -->
<g id="edge8" class="edge">
<title>./XYZAxisSlider/XYZAxisSliderAssembly.FCStd&#45;&gt;./Parts/Nut.FCStd</title>
<path fill="none" stroke="black" d="M797.02,-577.72C756.79,-573.56 712.65,-569.06 672.04,-565.08 632.47,-561.2 345,-558.94 315.68,-532.08 279.04,-498.52 313.02,-468.65 295.68,-422.08 264.21,-337.61 203.76,-249.01 172.55,-206.24"/>
<polygon fill="black" stroke="black" points="175.28,-204.05 166.54,-198.07 169.65,-208.2 175.28,-204.05"/>
</g>
<!-- ./XYZAxisSlider/XYZAxisSliderAssembly.FCStd&#45;&gt;./Parts/Bearing.FCStd -->
<g id="edge7" class="edge">
<title>./XYZAxisSlider/XYZAxisSliderAssembly.FCStd&#45;&gt;./Parts/Bearing.FCStd</title>
<path fill="none" stroke="black" d="M783.67,-578.59C754.96,-569.33 727.74,-554.76 708.04,-532.08 620.28,-431.02 757.95,-335.73 672.04,-233.08 654.96,-212.66 630.22,-199.95 604.77,-192.09"/>
<polygon fill="black" stroke="black" points="605.57,-188.68 595,-189.3 603.66,-195.41 605.57,-188.68"/>
</g>
<!-- ./XYZAxisSlider/XYZAxisSliderAssembly.FCStd&#45;&gt;./Parts/LeadScrewNut.FCStd -->
<g id="edge6" class="edge">
<title>./XYZAxisSlider/XYZAxisSliderAssembly.FCStd&#45;&gt;./Parts/LeadScrewNut.FCStd</title>
<path fill="none" stroke="black" d="M782.37,-578.68C754,-569.39 727.26,-554.78 708.04,-532.08 653.38,-467.51 730.05,-214.67 672.04,-153.08 665,-145.61 656.81,-139.63 647.89,-134.89"/>
<polygon fill="black" stroke="black" points="649.27,-131.68 638.74,-130.56 646.28,-138 649.27,-131.68"/>
</g>
<!-- ./XYZAxisSlider/XYZAxisSliderAssembly.FCStd&#45;&gt;./XYZAxisSlider/AngleProfile.FCStd -->
<g id="edge4" class="edge">
<title>./XYZAxisSlider/XYZAxisSliderAssembly.FCStd&#45;&gt;./XYZAxisSlider/AngleProfile.FCStd</title>
<path fill="none" stroke="black" d="M707.77,-592.08C699.25,-592.08 690.75,-592.08 682.32,-592.08"/>
<polygon fill="black" stroke="black" points="682.08,-588.58 672.08,-592.08 682.08,-595.58 682.08,-588.58"/>
</g>
<!-- ./XYZAxisSlider/XYZAxisSliderAssembly.FCStd&#45;&gt;./XYZAxisSlider/Screws.FCStd -->
<g id="edge5" class="edge">
<title>./XYZAxisSlider/XYZAxisSliderAssembly.FCStd&#45;&gt;./XYZAxisSlider/Screws.FCStd</title>
<path fill="none" stroke="black" d="M811.36,-607.23C749.32,-614.95 674.33,-624.27 613.36,-631.85"/>
<polygon fill="black" stroke="black" points="612.8,-628.39 603.31,-633.1 613.67,-635.34 612.8,-628.39"/>
</g>
<!-- ./XYZAxis/SquareProfile.FCStd -->
<g id="node9" class="node">
<title>./XYZAxis/SquareProfile.FCStd</title>
<ellipse fill="none" stroke="black" cx="497.86" cy="-479.08" rx="153.27" ry="18"/>
<text text-anchor="middle" x="497.86" y="-475.38" font-family="Times,serif" font-size="14.00">./XYZAxis/SquareProfile.FCStd</text>
</g>
<!-- ./XYZAxis/SquareProfile.FCStd&#45;&gt;./Sketches/Sketches.FCStd -->
<g id="edge9" class="edge">
<title>./XYZAxis/SquareProfile.FCStd&#45;&gt;./Sketches/Sketches.FCStd</title>
<path fill="none" stroke="black" d="M369.74,-469.11C340.29,-466.79 308.95,-464.33 279.52,-462.02"/>
<polygon fill="black" stroke="black" points="279.44,-458.51 269.2,-461.21 278.89,-465.49 279.44,-458.51"/>
</g>
<!-- ./XYZAxis/LeadScrew.FCStd -->
<g id="node10" class="node">
<title>./XYZAxis/LeadScrew.FCStd</title>
<ellipse fill="none" stroke="black" cx="497.86" cy="-371.08" rx="139.98" ry="18"/>
<text text-anchor="middle" x="497.86" y="-367.38" font-family="Times,serif" font-size="14.00">./XYZAxis/LeadScrew.FCStd</text>
</g>
<!-- ./XYZAxis/Spacer.FCStd -->
<g id="node11" class="node">
<title>./XYZAxis/Spacer.FCStd</title>
<ellipse fill="none" stroke="black" cx="497.86" cy="-317.08" rx="120.78" ry="18"/>
<text text-anchor="middle" x="497.86" y="-313.38" font-family="Times,serif" font-size="14.00">./XYZAxis/Spacer.FCStd</text>
</g>
<!-- ./XYZAxis/Spacer.FCStd&#45;&gt;./Sketches/Sketches.FCStd -->
<g id="edge10" class="edge">
<title>./XYZAxis/Spacer.FCStd&#45;&gt;./Sketches/Sketches.FCStd</title>
<path fill="none" stroke="black" d="M389.47,-325.19C364.7,-329.21 338.83,-335.19 315.68,-344.08 263.93,-363.96 211.9,-402.46 181.03,-427.71"/>
<polygon fill="black" stroke="black" points="178.74,-425.07 173.28,-434.14 183.21,-430.46 178.74,-425.07"/>
</g>
<!-- ./XYZAxis/Spacer.FCStd&#45;&gt;./Parts/Nut.FCStd -->
<g id="edge11" class="edge">
<title>./XYZAxis/Spacer.FCStd&#45;&gt;./Parts/Nut.FCStd</title>
<path fill="none" stroke="black" d="M389.42,-309.12C364.65,-305.1 338.79,-299.08 315.68,-290.08 263.43,-269.76 211.17,-230.21 180.43,-204.48"/>
<polygon fill="black" stroke="black" points="182.61,-201.74 172.72,-197.94 178.08,-207.08 182.61,-201.74"/>
</g>
<!-- ./XYZAxis/Support.FCStd -->
<g id="node12" class="node">
<title>./XYZAxis/Support.FCStd</title>
<ellipse fill="none" stroke="black" cx="497.86" cy="-425.08" rx="127.28" ry="18"/>
<text text-anchor="middle" x="497.86" y="-421.38" font-family="Times,serif" font-size="14.00">./XYZAxis/Support.FCStd</text>
</g>
<!-- ./XYZAxis/Support.FCStd&#45;&gt;./Sketches/Sketches.FCStd -->
<g id="edge12" class="edge">
<title>./XYZAxis/Support.FCStd&#45;&gt;./Sketches/Sketches.FCStd</title>
<path fill="none" stroke="black" d="M386.12,-433.77C352.06,-436.45 314.32,-439.41 279.29,-442.16"/>
<polygon fill="black" stroke="black" points="278.7,-438.69 269,-442.97 279.25,-445.67 278.7,-438.69"/>
</g>
<!-- ./XYZAxis/Screws.FCStd -->
<g id="node13" class="node">
<title>./XYZAxis/Screws.FCStd</title>
<ellipse fill="none" stroke="black" cx="497.86" cy="-263.08" rx="123.48" ry="18"/>
<text text-anchor="middle" x="497.86" y="-259.38" font-family="Times,serif" font-size="14.00">./XYZAxis/Screws.FCStd</text>
</g>
<!-- ./XYZAxis/XYZAxisAssembly.FCStd -->
<g id="node14" class="node">
<title>./XYZAxis/XYZAxisAssembly.FCStd</title>
<ellipse fill="none" stroke="black" cx="934.22" cy="-344.08" rx="170.87" ry="18"/>
<text text-anchor="middle" x="934.22" y="-340.38" font-family="Times,serif" font-size="14.00">./XYZAxis/XYZAxisAssembly.FCStd</text>
</g>
<!-- ./XYZAxis/XYZAxisAssembly.FCStd&#45;&gt;./Parts/Nut.FCStd -->
<g id="edge19" class="edge">
<title>./XYZAxis/XYZAxisAssembly.FCStd&#45;&gt;./Parts/Nut.FCStd</title>
<path fill="none" stroke="black" d="M924.52,-325.98C896.89,-270.91 805.08,-105.52 672.04,-45.08 527.84,20.43 464.67,8.65 315.68,-45.08 255.49,-66.79 201.8,-121.48 173.64,-154.21"/>
<polygon fill="black" stroke="black" points="170.82,-152.12 167.04,-162.02 176.17,-156.64 170.82,-152.12"/>
</g>
<!-- ./XYZAxis/XYZAxisAssembly.FCStd&#45;&gt;./Parts/Engine.FCStd -->
<g id="edge16" class="edge">
<title>./XYZAxis/XYZAxisAssembly.FCStd&#45;&gt;./Parts/Engine.FCStd</title>
<path fill="none" stroke="black" d="M920.4,-326.12C886.12,-279.67 787.14,-155.26 672.04,-99.08 653.28,-89.92 632.12,-83.73 611.22,-79.58"/>
<polygon fill="black" stroke="black" points="611.78,-76.13 601.31,-77.76 610.51,-83.01 611.78,-76.13"/>
</g>
<!-- ./XYZAxis/XYZAxisAssembly.FCStd&#45;&gt;./XYZAxis/SquareProfile.FCStd -->
<g id="edge13" class="edge">
<title>./XYZAxis/XYZAxisAssembly.FCStd&#45;&gt;./XYZAxis/SquareProfile.FCStd</title>
<path fill="none" stroke="black" d="M898.27,-361.69C849.04,-385.74 755.91,-428.57 672.04,-452.08 654.41,-457.03 635.5,-461.14 616.88,-464.54"/>
<polygon fill="black" stroke="black" points="616.12,-461.12 606.88,-466.3 617.33,-468.01 616.12,-461.12"/>
</g>
<!-- ./XYZAxis/XYZAxisAssembly.FCStd&#45;&gt;./XYZAxis/LeadScrew.FCStd -->
<g id="edge14" class="edge">
<title>./XYZAxis/XYZAxisAssembly.FCStd&#45;&gt;./XYZAxis/LeadScrew.FCStd</title>
<path fill="none" stroke="black" d="M786.47,-353.2C737.28,-356.26 682.69,-359.66 634.4,-362.66"/>
<polygon fill="black" stroke="black" points="633.96,-359.18 624.19,-363.29 634.39,-366.16 633.96,-359.18"/>
</g>
<!-- ./XYZAxis/XYZAxisAssembly.FCStd&#45;&gt;./XYZAxis/Spacer.FCStd -->
<g id="edge15" class="edge">
<title>./XYZAxis/XYZAxisAssembly.FCStd&#45;&gt;./XYZAxis/Spacer.FCStd</title>
<path fill="none" stroke="black" d="M786.47,-334.96C732.35,-331.6 671.67,-327.82 620.06,-324.62"/>
<polygon fill="black" stroke="black" points="620.06,-321.11 609.86,-323.98 619.62,-328.1 620.06,-321.11"/>
</g>
<!-- ./XYZAxis/XYZAxisAssembly.FCStd&#45;&gt;./XYZAxis/Support.FCStd -->
<g id="edge17" class="edge">
<title>./XYZAxis/XYZAxisAssembly.FCStd&#45;&gt;./XYZAxis/Support.FCStd</title>
<path fill="none" stroke="black" d="M859.67,-360.3C807.45,-371.56 735.6,-386.56 672.04,-398.08 647.83,-402.47 621.64,-406.78 597.13,-410.62"/>
<polygon fill="black" stroke="black" points="596.45,-407.19 587.1,-412.18 597.52,-414.1 596.45,-407.19"/>
</g>
<!-- ./XYZAxis/XYZAxisAssembly.FCStd&#45;&gt;./XYZAxis/Screws.FCStd -->
<g id="edge18" class="edge">
<title>./XYZAxis/XYZAxisAssembly.FCStd&#45;&gt;./XYZAxis/Screws.FCStd</title>
<path fill="none" stroke="black" d="M859.67,-327.87C807.45,-316.6 735.6,-301.6 672.04,-290.08 647.44,-285.62 620.78,-281.25 595.93,-277.35"/>
<polygon fill="black" stroke="black" points="596.19,-273.85 585.77,-275.78 595.12,-280.77 596.19,-273.85"/>
</g>
<!-- ./CNCAssembly.FCStd -->
<g id="node15" class="node">
<title>./CNCAssembly.FCStd</title>
<ellipse fill="none" stroke="black" cx="1309.49" cy="-481.08" rx="113.18" ry="18"/>
<text text-anchor="middle" x="1309.49" y="-477.38" font-family="Times,serif" font-size="14.00">./CNCAssembly.FCStd</text>
</g>
<!-- ./CNCAssembly.FCStd&#45;&gt;./XYZAxisSlider/XYZAxisSliderAssembly.FCStd -->
<g id="edge21" class="edge">
<title>./CNCAssembly.FCStd&#45;&gt;./XYZAxisSlider/XYZAxisSliderAssembly.FCStd</title>
<path fill="none" stroke="black" d="M1265.94,-497.8C1238.36,-508.32 1201.53,-521.82 1168.4,-532.08 1119.31,-547.3 1063.59,-561.74 1018.93,-572.64"/>
<polygon fill="black" stroke="black" points="1017.89,-569.29 1008.99,-575.05 1019.54,-576.09 1017.89,-569.29"/>
</g>
<!-- ./CNCAssembly.FCStd&#45;&gt;./XYZAxis/XYZAxisAssembly.FCStd -->
<g id="edge20" class="edge">
<title>./CNCAssembly.FCStd&#45;&gt;./XYZAxis/XYZAxisAssembly.FCStd</title>
<path fill="none" stroke="black" d="M1263.47,-464.56C1195.46,-439.59 1066.58,-392.29 992.15,-364.98"/>
<polygon fill="black" stroke="black" points="993.06,-361.58 982.47,-361.42 990.65,-368.15 993.06,-361.58"/>
</g>
</g>
</svg>
