
CASCADE Topology V1, (c) Matra-Datavision
Locations 43
1
1.000000000000000 0.000000000000000 0.000000000000000 0.000000000000000 
0.000000000000000 1.000000000000000 0.000000000000000 0.000000000000000 
0.000000000000000 0.000000000000000 1.000000000000000 0.000000000000000 
1
1.000000000000000 0.000000000000000 0.000000000000000 0.000000000000000 
0.000000000000000 1.000000000000000 0.000000000000000 0.000000000000000 
0.000000000000000 0.000000000000000 1.000000000000000 0.000000000000000 
1
1.000000000000000 0.000000000000000 0.000000000000000 0.000000000000000 
0.000000000000000 1.000000000000000 0.000000000000000 0.000000000000000 
0.000000000000000 0.000000000000000 1.000000000000000 0.000000000000000 
2  2 1 3 -1 0
1
1.000000000000000 0.000000000000000 0.000000000000000 0.000000000000000 
0.000000000000000 1.000000000000000 0.000000000000000 0.000000000000000 
0.000000000000000 0.000000000000000 1.000000000000000 0.000000000000000 
2  5 -1 3 1 2 -1 0
1
1.000000000000000 0.000000000000000 0.000000000000000 0.000000000000000 
0.000000000000000 1.000000000000000 0.000000000000000 0.000000000000000 
0.000000000000000 0.000000000000000 1.000000000000000 0.000000000000000 
1
1.000000000000000 0.000000000000000 0.000000000000000 0.000000000000000 
0.000000000000000 0.000000000000000 -1.000000000000000 0.000000000000000 
0.000000000000000 1.000000000000000 0.000000000000000 0.000000000000000 
1
1.000000000000000 0.000000000000000 0.000000000000000 0.000000000000000 
0.000000000000000 -0.000000000000000 -1.000000000000000 0.000000000000000 
0.000000000000000 1.000000000000000 -0.000000000000000 0.000000000000000 
1
1.000000000000000 0.000000000000000 0.000000000000000 0.000000000000000 
0.000000000000000 1.000000000000000 0.000000000000000 0.000000000000000 
0.000000000000000 0.000000000000000 1.000000000000000 0.000000000000000 
1
1.000000000000000 0.000000000000000 0.000000000000000 0.000000000000000 
0.000000000000000 1.000000000000000 0.000000000000000 0.000000000000000 
0.000000000000000 0.000000000000000 1.000000000000000 0.000000000000000 
1
1.000000000000000 0.000000000000000 0.000000000000000 0.000000000000000 
0.000000000000000 0.000000000000000 -1.000000000000000 0.000000000000000 
0.000000000000000 1.000000000000000 0.000000000000000 0.000000000000000 
1
1.000000000000000 0.000000000000000 0.000000000000000 0.000000000000000 
0.000000000000000 1.000000000000000 0.000000000000000 0.000000000000000 
0.000000000000000 0.000000000000000 1.000000000000000 0.000000000000000 
1
1.000000000000000 0.000000000000000 0.000000000000000 0.000000000000000 
0.000000000000000 1.000000000000000 0.000000000000000 0.000000000000000 
0.000000000000000 0.000000000000000 1.000000000000000 0.000000000000000 
1
1.000000000000000 0.000000000000000 0.000000000000000 0.000000000000000 
0.000000000000000 1.000000000000000 0.000000000000000 0.000000000000000 
0.000000000000000 0.000000000000000 1.000000000000000 0.000000000000000 
1
1.000000000000000 0.000000000000000 0.000000000000000 0.000000000000000 
0.000000000000000 1.000000000000000 0.000000000000000 0.000000000000000 
0.000000000000000 0.000000000000000 1.000000000000000 0.000000000000000 
1
1.000000000000000 0.000000000000000 0.000000000000000 0.000000000000000 
0.000000000000000 1.000000000000000 0.000000000000000 0.000000000000000 
0.000000000000000 0.000000000000000 1.000000000000000 0.000000000000000 
1
1.000000000000000 0.000000000000000 0.000000000000000 0.000000000000000 
0.000000000000000 1.000000000000000 0.000000000000000 0.000000000000000 
0.000000000000000 0.000000000000000 1.000000000000000 0.000000000000000 
1
1.000000000000000 0.000000000000000 0.000000000000000 0.000000000000000 
0.000000000000000 1.000000000000000 0.000000000000000 0.000000000000000 
0.000000000000000 0.000000000000000 1.000000000000000 0.000000000000000 
1
1.000000000000000 0.000000000000000 0.000000000000000 -0.000000000000000 
0.000000000000000 1.000000000000000 0.000000000000000 -61.000000000000000 
0.000000000000000 0.000000000000000 1.000000000000000 0.000000000000013 
2  7 1 8 1 9 -1 10 1 11 1 12 1 13 1 14 1 15 1 16 1 17 1 18 1 19 -1 20 1 0
2  5 -1 3 1 2 -1 20 -1 19 1 18 -1 17 -1 16 -1 15 -1 14 -1 13 -1 12 -1 11 -1 10 -1 9 1 8 -1 7 -1 0
1
1.000000000000000 0.000000000000000 0.000000000000000 0.000000000000000 
0.000000000000000 1.000000000000000 0.000000000000000 122.000000000000000 
0.000000000000000 0.000000000000000 1.000000000000000 -0.000000000000027 
2  7 1 8 1 9 -1 10 1 11 1 12 1 13 1 14 1 15 1 16 1 17 1 18 1 19 -1 20 1 23 1 0
2  5 -1 3 1 2 -1 23 -1 20 -1 19 1 18 -1 17 -1 16 -1 15 -1 14 -1 13 -1 12 -1 11 -1 10 -1 9 1 8 -1 7 -1 0
2  11 1 12 1 13 1 14 1 15 1 16 1 17 1 18 1 19 -1 20 1 0
2  20 -1 19 1 18 -1 17 -1 16 -1 15 -1 14 -1 13 -1 12 -1 11 -1 0
2  5 -1 3 1 2 -1 20 -1 19 1 18 -1 17 -1 16 -1 15 -1 14 -1 13 -1 12 -1 11 -1 0
2  11 1 12 1 13 1 14 1 15 1 16 1 17 1 18 1 19 -1 20 1 23 1 0
2  23 -1 20 -1 19 1 18 -1 17 -1 16 -1 15 -1 14 -1 13 -1 12 -1 11 -1 0
2  5 -1 3 1 2 -1 23 -1 20 -1 19 1 18 -1 17 -1 16 -1 15 -1 14 -1 13 -1 12 -1 11 -1 0
2  9 -1 10 1 11 1 12 1 13 1 14 1 15 1 16 1 17 1 18 1 19 -1 20 1 2 1 3 -1 0
2  10 -1 9 1 0
2  7 1 8 1 9 -1 10 1 0
2  9 -1 10 1 11 1 12 1 13 1 14 1 15 1 16 1 17 1 18 1 19 -1 20 1 23 1 2 1 3 -1 0
2  7 1 8 1 9 -1 10 1 11 1 12 1 13 1 14 1 15 1 16 1 17 1 18 1 19 -1 20 1 2 1 3 -1 0
2  7 1 8 1 9 -1 10 1 11 1 12 1 13 1 14 1 15 1 16 1 17 1 18 1 19 -1 20 1 23 1 2 1 3 -1 0
1
1.000000000000000 0.000000000000000 0.000000000000000 0.000000000000000 
0.000000000000000 1.000000000000000 0.000000000000000 0.000000000000000 
0.000000000000000 0.000000000000000 1.000000000000000 0.000000000000000 
1
0.000000000000000 0.000000000000000 -1.000000000000000 0.000000000000000 
-1.000000000000000 0.000000000000000 0.000000000000000 0.000000000000000 
0.000000000000000 1.000000000000000 0.000000000000000 0.000000000000000 
2  38 1 39 1 3 -1 0
2  3 1 39 -1 38 -1 0
2  5 -1 3 1 39 -1 38 -1 0
2  5 -1 0
Curve2ds 32
1 0.00000000000000000 0.00000000000000000 0.00000000000000000 -1.00000000000000000 
1 -0.00000000000000100 0.00000000000000000 0.00000000000000000 -1.00000000000000000 
1 1.57079632679489589 0.00000000000000000 0.00000000000000000 -1.00000000000000000 
1 0.00000000000000000 0.00000000000000000 1.00000000000000000 0.00000000000000000 
1 0.00000000000000000 -122.00000000000000000 1.00000000000000000 0.00000000000000000 
1 1.57079632679489700 0.00000000000000000 0.00000000000000000 -1.00000000000000000 
1 0.00000000000000000 0.00000000000000000 1.00000000000000000 0.00000000000000000 
1 0.00000000000000000 -122.00000000000000000 1.00000000000000000 0.00000000000000000 
1 0.00000000000000000 0.00000000000000000 1.00000000000000000 0.00000000000000000 
1 0.00000000000000000 0.00000000000000000 1.00000000000000000 0.00000000000000000 
1 0.00000000000000000 0.00000000000000000 1.00000000000000000 0.00000000000000000 
1 0.00000000000000000 0.00000000000000000 1.00000000000000000 0.00000000000000000 
1 0.00000000000000000 -122.00000000000000000 1.00000000000000000 0.00000000000000000 
1 0.00000000000000000 -122.00000000000000000 1.00000000000000000 0.00000000000000000 
1 0.00000000000000000 -122.00000000000000000 1.00000000000000000 0.00000000000000000 
1 0.00000000000000000 -122.00000000000000000 1.00000000000000000 0.00000000000000000 
1 4.71238898038468967 0.00000000000000000 0.00000000000000000 -1.00000000000000000 
1 1.57079632679489700 0.00000000000000000 0.00000000000000000 -1.00000000000000000 
1 0.00000000000000000 0.00000000000000000 1.00000000000000000 0.00000000000000000 
1 0.00000000000000000 0.00000000000000000 1.00000000000000000 0.00000000000000000 
1 3.14159265358979312 0.00000000000000000 0.00000000000000000 -1.00000000000000000 
1 3.14159265358979312 0.00000000000000000 0.00000000000000000 -1.00000000000000000 
1 6.28318530717958623 0.00000000000000000 0.00000000000000000 -1.00000000000000000 
1 3.14159265358979312 0.00000000000000000 0.00000000000000000 -1.00000000000000000 
1 4.71238898038468879 0.00000000000000000 0.00000000000000000 -1.00000000000000000 
1 4.71238898038468967 0.00000000000000000 0.00000000000000000 -1.00000000000000000 
1 0.00000000000000000 -3.17499999999999982 1.00000000000000000 0.00000000000000000 
1 0.00000000000000000 -3.17499999999999982 1.00000000000000000 0.00000000000000000 
1 0.00000000000000000 0.00000000000000000 0.00000000000000000 -1.00000000000000000 
1 6.28318530717958623 0.00000000000000000 0.00000000000000000 -1.00000000000000000 
1 0.00000000000000000 0.00000000000000000 0.00000000000000000 -1.00000000000000000 
1 6.28318530717958623 0.00000000000000000 0.00000000000000000 -1.00000000000000000 
Curves 42
1 24.39999999999999858 -61.00000000000000000 0.00000000000001342 0.00000000000000000 1.00000000000000000 -0.00000000000000022 
1 1.00000000000000000 -61.00000000000000000 0.00000000000001342 0.00000000000000000 1.00000000000000000 -0.00000000000000022 
1 25.39999999999999858 0.00000000000000000 0.00000000000000000 -1.00000000000000000 0.00000000000000000 0.00000000000000000 
1 25.39999999999999858 0.00000000000000000 0.00000000000000000 -1.00000000000000000 0.00000000000000000 0.00000000000000000 
1 25.39999999999999858 -61.00000000000000000 1.00000000000001332 0.00000000000000000 1.00000000000000000 -0.00000000000000022 
8 0.00000000000000000 1.57079632679489611
2 24.39999999999999858 0.99999999999999978 -0.00000000000000044 -0.00000000000000000 0.00000000000000044 1.00000000000000000 0.00000000000000000 -1.00000000000000000 0.00000000000000044 1.00000000000000000 0.00000000000000000 0.00000000000000000 1.00000000000000000
8 0.00000000000000000 1.57079632679489611
2 24.39999999999999858 0.99999999999999978 -0.00000000000000044 -0.00000000000000000 0.00000000000000044 1.00000000000000000 0.00000000000000000 -1.00000000000000000 0.00000000000000044 1.00000000000000000 0.00000000000000000 0.00000000000000000 1.00000000000000000
1 0.00000000000000000 -61.00000000000000000 1.00000000000001332 0.00000000000000000 1.00000000000000000 -0.00000000000000022 
8 -0.00000000000000089 1.57079632679489656
2 0.99999999999999978 0.99999999999999978 -0.00000000000000044 -0.00000000000000000 -0.00000000000000044 -1.00000000000000000 0.00000000000000000 -1.00000000000000000 0.00000000000000044 -1.00000000000000000 0.00000000000000000 0.00000000000000000 1.00000000000000000
8 -0.00000000000000089 1.57079632679489656
2 0.99999999999999978 0.99999999999999978 -0.00000000000000044 -0.00000000000000000 -0.00000000000000044 -1.00000000000000000 0.00000000000000000 -1.00000000000000000 0.00000000000000044 -1.00000000000000000 0.00000000000000000 0.00000000000000000 1.00000000000000000
1 25.39999999999999858 3.17500000001151328 0.00000000000000000 0.00000000000000000 -1.00000000000000000 0.00000000000000000 
1 0.00000000000000000 0.00000000000000000 0.00000000000000000 0.00000000000000000 1.00000000000000000 0.00000000000000000 
8 3.14159265358979312 4.71238898038468967
2 24.39999999999999858 2.17500000001151328 -0.00000000000000097 -0.00000000000000000 -0.00000000000000044 -1.00000000000000000 0.00000000000000000 -1.00000000000000000 0.00000000000000044 -1.00000000000000000 0.00000000000000000 0.00000000000000000 1.00000000000000000
8 1.57079632679489656 3.14159265358979312
2 0.99999999999999978 24.39999999999999858 -0.00000000000001084 -0.00000000000000000 -0.00000000000000044 -1.00000000000000000 0.00000000000000000 -1.00000000000000000 0.00000000000000044 -1.00000000000000000 0.00000000000000000 0.00000000000000000 1.00000000000000000
1 3.17499999999999982 3.17500000001151328 0.00000000000000000 1.00000000000000000 0.00000000000000000 0.00000000000000000 
1 0.00000000000000000 25.39999999999999858 0.00000000000000000 1.00000000000000000 0.00000000000000000 0.00000000000000000 
8 4.71238898038468879 6.28318530717958623
2 4.17499999999999982 4.17500000001151417 -0.00000000000000185 -0.00000000000000000 0.00000000000000044 1.00000000000000000 0.00000000000000000 -1.00000000000000000 0.00000000000000044 1.00000000000000000 0.00000000000000000 0.00000000000000000 1.00000000000000000
8 3.14159265358979312 4.71238898038468967
2 2.17499999999999982 24.39999999999999858 -0.00000000000001084 -0.00000000000000000 -0.00000000000000044 -1.00000000000000000 0.00000000000000000 -1.00000000000000000 0.00000000000000044 -1.00000000000000000 0.00000000000000000 0.00000000000000000 1.00000000000000000
1 3.17499999999999982 25.39999999999999858 0.00000000000000000 0.00000000000000000 -1.00000000000000000 0.00000000000000000 
1 25.39999999999999858 3.17500000001151328 0.00000000000000000 0.00000000000000000 -1.00000000000000000 0.00000000000000000 
1 0.00000000000000000 0.00000000000000000 0.00000000000000000 0.00000000000000000 1.00000000000000000 0.00000000000000000 
8 3.14159265358979312 4.71238898038468967
2 24.39999999999999858 2.17500000001151328 -0.00000000000000097 -0.00000000000000000 -0.00000000000000044 -1.00000000000000000 0.00000000000000000 -1.00000000000000000 0.00000000000000044 -1.00000000000000000 0.00000000000000000 0.00000000000000000 1.00000000000000000
8 1.57079632679489656 3.14159265358979312
2 0.99999999999999978 24.39999999999999858 -0.00000000000001084 -0.00000000000000000 -0.00000000000000044 -1.00000000000000000 0.00000000000000000 -1.00000000000000000 0.00000000000000044 -1.00000000000000000 0.00000000000000000 0.00000000000000000 1.00000000000000000
1 3.17499999999999982 3.17500000001151328 0.00000000000000000 1.00000000000000000 0.00000000000000000 0.00000000000000000 
1 0.00000000000000000 25.39999999999999858 0.00000000000000000 1.00000000000000000 0.00000000000000000 0.00000000000000000 
8 4.71238898038468879 6.28318530717958623
2 4.17499999999999982 4.17500000001151417 -0.00000000000000185 -0.00000000000000000 0.00000000000000044 1.00000000000000000 0.00000000000000000 -1.00000000000000000 0.00000000000000044 1.00000000000000000 0.00000000000000000 0.00000000000000000 1.00000000000000000
8 3.14159265358979312 4.71238898038468967
2 2.17499999999999982 24.39999999999999858 -0.00000000000001084 -0.00000000000000000 -0.00000000000000044 -1.00000000000000000 0.00000000000000000 -1.00000000000000000 0.00000000000000044 -1.00000000000000000 0.00000000000000000 0.00000000000000000 1.00000000000000000
1 3.17499999999999982 25.39999999999999858 0.00000000000000000 0.00000000000000000 -1.00000000000000000 0.00000000000000000 
1 25.39999999999999858 -61.00000000000000000 2.17500000001152616 0.00000000000000000 1.00000000000000000 -0.00000000000000022 
1 0.00000000000000000 -60.99999999999998579 24.40000000000001279 0.00000000000000000 1.00000000000000000 -0.00000000000000022 
2 -48.30000000000001137 12.69999999999999929 0.00000000000000000 0.00000000000000000 0.00000000000000000 1.00000000000000000 1.00000000000000000 0.00000000000000000 -0.00000000000000000 -0.00000000000000000 1.00000000000000000 0.00000000000000000 3.96875000000000000
2 48.30000000000001137 12.69999999999999929 0.00000000000000000 0.00000000000000000 0.00000000000000000 1.00000000000000000 1.00000000000000000 0.00000000000000000 -0.00000000000000000 -0.00000000000000000 1.00000000000000000 0.00000000000000000 3.96875000000000000
1 24.39999999999999858 -61.00000000000000000 3.17500000001152616 0.00000000000000000 1.00000000000000000 -0.00000000000000022 
1 1.00000000000000000 -60.99999999999998579 25.40000000000001279 0.00000000000000000 1.00000000000000000 -0.00000000000000022 
1 4.17499999999999982 -61.00000000000000000 3.17500000001152749 0.00000000000000000 1.00000000000000000 -0.00000000000000022 
1 2.17499999999999982 -60.99999999999998579 25.40000000000001279 0.00000000000000000 1.00000000000000000 -0.00000000000000022 
1 3.17499999999999982 -61.00000000000000000 4.17500000001152749 0.00000000000000000 1.00000000000000000 -0.00000000000000022 
1 3.17499999999999982 -60.99999999999998579 24.40000000000001279 0.00000000000000000 1.00000000000000000 -0.00000000000000022 
2 3.17499999999999982 48.30000000000001137 12.69999999999999929 -1.00000000000000000 0.00000000000000000 0.00000000000000000 0.00000000000000000 -1.00000000000000000 0.00000000000000000 0.00000000000000000 0.00000000000000000 1.00000000000000000 3.96875000000000000
2 3.17499999999999982 -48.30000000000001137 12.69999999999999929 -1.00000000000000000 0.00000000000000000 0.00000000000000000 0.00000000000000000 -1.00000000000000000 0.00000000000000000 0.00000000000000000 0.00000000000000000 1.00000000000000000 3.96875000000000000
1 0.00000000000000000 44.33125000000001137 12.69999999999999929 1.00000000000000000 0.00000000000000000 0.00000000000000000 
1 0.00000000000000000 -52.26875000000001137 12.69999999999999929 1.00000000000000000 0.00000000000000000 0.00000000000000000 
Polygon3D 0
PolygonOnTriangulations 0
Surfaces 16
1 24.39999999999999858 -61.00000000000000000 0.00000000000001342 0.00000000000000000 0.00000000000000022 1.00000000000000000 -1.00000000000000000 0.00000000000000000 0.00000000000000000 0.00000000000000000 -1.00000000000000000 0.00000000000000022 
2 24.39999999999999858 -61.00000000000000000 1.00000000000001310 0.00000000000000000 -1.00000000000000000 0.00000000000000044 0.00000000000000000 -0.00000000000000044 -1.00000000000000000 1.00000000000000000 0.00000000000000000 0.00000000000000000 1.00000000000000000
2 0.99999999999999978 -61.00000000000000000 1.00000000000001310 0.00000000000000000 -1.00000000000000000 0.00000000000000044 0.00000000000000000 -0.00000000000000044 -1.00000000000000000 -1.00000000000000000 -0.00000000000000000 -0.00000000000000000 1.00000000000000000
1 25.39999999999999858 -61.00000000000000000 2.17500000001152660 -1.00000000000000000 0.00000000000000000 0.00000000000000000 0.00000000000000000 0.00000000000000000 -1.00000000000000000 -0.00000000000000000 -1.00000000000000000 -0.00000000000000000 
1 0.00000000000000000 -61.00000000000000000 1.00000000000001332 1.00000000000000000 0.00000000000000000 0.00000000000000000 0.00000000000000000 0.00000000000000000 1.00000000000000000 0.00000000000000000 -1.00000000000000000 0.00000000000000000 
1 7.83828125000251763 0.00000000000000174 7.83828125000251763 0.00000000000000000 1.00000000000000000 -0.00000000000000022 0.00000000000000000 0.00000000000000022 1.00000000000000000 1.00000000000000000 -0.00000000000000000 0.00000000000000000 
2 24.39999999999999858 -61.00000000000000000 2.17500000001152660 0.00000000000000000 -1.00000000000000000 0.00000000000000044 0.00000000000000000 -0.00000000000000044 -1.00000000000000000 -1.00000000000000000 -0.00000000000000000 -0.00000000000000000 1.00000000000000000
2 0.99999999999999978 -60.99999999999998579 24.40000000000001279 0.00000000000000000 -1.00000000000000000 0.00000000000000044 0.00000000000000000 -0.00000000000000044 -1.00000000000000000 -1.00000000000000000 -0.00000000000000000 -0.00000000000000000 1.00000000000000000
2 4.17499999999999982 -61.00000000000000000 4.17500000001152749 0.00000000000000000 -1.00000000000000000 0.00000000000000044 0.00000000000000000 -0.00000000000000044 -1.00000000000000000 1.00000000000000000 0.00000000000000000 0.00000000000000000 1.00000000000000000
2 2.17499999999999982 -60.99999999999998579 24.40000000000001279 0.00000000000000000 -1.00000000000000000 0.00000000000000044 0.00000000000000000 -0.00000000000000044 -1.00000000000000000 -1.00000000000000000 -0.00000000000000000 -0.00000000000000000 1.00000000000000000
1 7.83828125000251763 0.00000000000000174 7.83828125000251763 0.00000000000000000 1.00000000000000000 -0.00000000000000022 0.00000000000000000 0.00000000000000022 1.00000000000000000 1.00000000000000000 -0.00000000000000000 0.00000000000000000 
2 0.00000000000000000 48.30000000000001137 12.69999999999999929 -1.00000000000000000 0.00000000000000000 0.00000000000000000 0.00000000000000000 -1.00000000000000000 0.00000000000000000 0.00000000000000000 0.00000000000000000 1.00000000000000000 3.96875000000000000
2 0.00000000000000000 -48.30000000000001137 12.69999999999999929 -1.00000000000000000 0.00000000000000000 0.00000000000000000 0.00000000000000000 -1.00000000000000000 0.00000000000000000 0.00000000000000000 0.00000000000000000 1.00000000000000000 3.96875000000000000
1 4.17499999999999982 -61.00000000000000000 3.17500000001152660 0.00000000000000000 -0.00000000000000022 -1.00000000000000000 1.00000000000000000 0.00000000000000000 0.00000000000000000 0.00000000000000000 -1.00000000000000000 0.00000000000000022 
1 1.00000000000000000 -61.00000000000000000 25.40000000000001279 0.00000000000000000 -0.00000000000000022 -1.00000000000000000 1.00000000000000000 0.00000000000000000 0.00000000000000000 0.00000000000000000 -1.00000000000000000 0.00000000000000022 
1 3.17499999999999982 -61.00000000000000000 24.40000000000001279 -1.00000000000000000 0.00000000000000000 0.00000000000000000 0.00000000000000000 0.00000000000000000 -1.00000000000000000 -0.00000000000000000 -1.00000000000000000 -0.00000000000000000 
Triangulations 0

TShapes 108
Ve
0.000000100000000
24.399999999999999 -61.000000000000000 0.000000000000013
0 0

0101101
*
Ve
0.000000100000000
24.399999999999999 61.000000000000000 -0.000000000000013
0 0

0101101
*
Ed
 0.000000100000000 1 1 0
1  1 0 0.000000000000000 122.000000000000000
2  1 2 0 0.000000000000000 122.000000000000000
4 C1 1 0 2 0
0

0101000
+108 6 -107 6 *
Ve
0.000000100000000
1.000000000000000 -61.000000000000000 0.000000000000013
0 0

0101101
*
Ve
0.000000100000000
1.000000000000000 61.000000000000000 -0.000000000000013
0 0

0101101
*
Ed
 0.000000100000000 1 1 0
1  2 0 0.000000000000000 122.000000000000000
2  2 3 0 0.000000000000000 122.000000000000000
4 C1 1 0 3 0
0

0101000
+105 6 -104 6 *
Ed
 0.000000100000000 1 1 0
1  3 0 1.000000000000000 24.399999999999999
0

0101000
+108 22 -105 22 *
Ed
 0.000000100000000 1 1 0
1  4 0 1.000000000000000 24.399999999999999
0

0101000
+107 25 -104 25 *
Wi

0101100
+106 0 -103 0 -102 21 +101 24 *
Fa
0  0.000000100000000 1 0

0111000
+100 0 *
Ve
0.000000100000000
25.399999999999999 -61.000000000000000 1.000000000000013
0 0

0101101
*
Ve
0.000000100000000
25.399999999999999 61.000000000000000 0.999999999999987
0 0

0101101
*
Ed
 0.000000100000000 1 1 0
1  5 0 0.000000000000000 122.000000000000000
2  3 2 0 0.000000000000000 122.000000000000000
4 C1 2 0 4 0
0

0101000
+98 6 -97 6 *
Ed
 0.000000100000000 1 1 0
1  6 0 0.000000000000000 1.570796326794896
2  4 2 27 0.000000000000000 1.570796326794896
0

0101000
+108 28 -98 28 *
Ed
 0.000000100000000 1 1 0
1  7 0 0.000000000000000 1.570796326794896
2  5 2 30 0.000000000000000 1.570796326794896
0

0101000
+107 31 -97 31 *
Wi

0101100
+106 0 -96 0 -95 26 +94 29 *
Fa
0  0.000000100000000 2 0

0111000
+93 0 *
Ve
0.000000100000000
0.000000000000000 -61.000000000000000 1.000000000000013
0 0

0101101
*
Ve
0.000000100000000
0.000000000000000 61.000000000000000 0.999999999999987
0 0

0101101
*
Ed
 0.000000100000000 1 1 0
1  8 0 0.000000000000000 122.000000000000000
2  6 3 0 0.000000000000000 122.000000000000000
4 C1 3 0 5 0
0

0101000
+91 6 -90 6 *
Ed
 0.000000100000000 1 1 0
1  9 0 -0.000000000000001 1.570796326794897
2  7 3 27 -0.000000000000001 1.570796326794897
0

0101000
+105 28 -91 28 *
Ed
 0.000000100000000 1 1 0
1  10 0 -0.000000000000001 1.570796326794897
2  8 3 30 -0.000000000000001 1.570796326794897
0

0101000
+104 31 -90 31 *
Wi

0101100
+103 0 -89 0 -88 26 +87 29 *
Fa
0  0.000000100000000 3 0

0111000
+86 0 *
Ve
0.000000100000000
25.399999999999999 -61.000000000000000 2.175000000011526
0 0

0101101
*
Ed
 0.000000100000000 1 1 0
1  11 0 1.000000000000000 2.175000000011514
0

0101000
+84 22 -98 22 *
Ve
0.000000100000000
0.000000000000000 -60.999999999999986 24.400000000000013
0 0

0101101
*
Ed
 0.000000100000000 1 1 0
1  12 0 1.000000000000000 24.399999999999999
0

0101000
+91 22 -82 22 *
Ve
0.000000100000000
24.399999999999999 -61.000000000000000 3.175000000011526
0 0

0101101
*
Ed
 0.000000100000000 1 1 0
1  13 0 3.141592653589793 4.712388980384690
2  9 7 27 3.141592653589793 4.712388980384690
0

0101000
+80 28 -84 28 *
Ve
0.000000100000000
1.000000000000000 -60.999999999999986 25.400000000000013
0 0

0101101
*
Ed
 0.000000100000000 1 1 0
1  14 0 1.570796326794897 3.141592653589793
2  10 8 27 1.570796326794897 3.141592653589793
0

0101000
+82 28 -78 28 *
Ve
0.000000100000000
4.175000000000000 -61.000000000000000 3.175000000011527
0 0

0101101
*
Ed
 0.000000100000000 1 1 0
1  15 0 1.000000000000000 21.224999999999998
0

0101000
+76 22 -80 22 *
Ve
0.000000100000000
2.175000000000000 -60.999999999999986 25.400000000000013
0 0

0101101
*
Ed
 0.000000100000000 1 1 0
1  16 0 1.000000000000000 2.175000000000000
0

0101000
+78 22 -74 22 *
Ve
0.000000100000000
3.175000000000000 -61.000000000000000 4.175000000011527
0 0

0101101
*
Ed
 0.000000100000000 1 1 0
1  17 0 4.712388980384689 6.283185307179586
2  11 9 27 4.712388980384689 6.283185307179586
0

0101000
+72 28 -76 28 *
Ve
0.000000100000000
3.175000000000000 -60.999999999999986 24.400000000000013
0 0

0101101
*
Ed
 0.000000100000000 1 1 0
1  18 0 3.141592653589793 4.712388980384690
2  12 10 27 3.141592653589793 4.712388980384690
0

0101000
+74 28 -70 28 *
Ed
 0.000000100000000 1 1 0
1  19 0 1.000000000000000 21.224999999988484
0

0101000
+70 22 -72 22 *
Wi

0101100
+102 34 -95 0 +88 0 +83 34 +81 34 +79 0 +77 0 +75 34 +73 34 +71 0 
+69 0 +68 34 *
Fa
0  0.000000100000000 6 0

0111000
+67 33 *
Ve
0.000000100000000
25.399999999999999 61.000000000000000 2.175000000011500
0 0

0101101
*
Ed
 0.000000100000000 1 1 0
1  20 0 1.000000000000000 2.175000000011514
0

0101000
+65 25 -97 25 *
Ve
0.000000100000000
0.000000000000000 61.000000000000014 24.399999999999984
0 0

0101101
*
Ed
 0.000000100000000 1 1 0
1  21 0 1.000000000000000 24.399999999999999
0

0101000
+90 25 -63 25 *
Ve
0.000000100000000
24.399999999999999 61.000000000000000 3.175000000011500
0 0

0101101
*
Ed
 0.000000100000000 1 1 0
1  22 0 3.141592653589793 4.712388980384690
2  13 7 30 3.141592653589793 4.712388980384690
0

0101000
+61 31 -65 31 *
Ve
0.000000100000000
1.000000000000000 61.000000000000014 25.399999999999984
0 0

0101101
*
Ed
 0.000000100000000 1 1 0
1  23 0 1.570796326794897 3.141592653589793
2  14 8 30 1.570796326794897 3.141592653589793
0

0101000
+63 31 -59 31 *
Ve
0.000000100000000
4.175000000000000 61.000000000000000 3.175000000011501
0 0

0101101
*
Ed
 0.000000100000000 1 1 0
1  24 0 1.000000000000000 21.224999999999998
0

0101000
+57 25 -61 25 *
Ve
0.000000100000000
2.175000000000000 61.000000000000014 25.399999999999984
0 0

0101101
*
Ed
 0.000000100000000 1 1 0
1  25 0 1.000000000000000 2.175000000000000
0

0101000
+59 25 -55 25 *
Ve
0.000000100000000
3.175000000000000 61.000000000000000 4.175000000011501
0 0

0101101
*
Ed
 0.000000100000000 1 1 0
1  26 0 4.712388980384689 6.283185307179586
2  15 9 30 4.712388980384689 6.283185307179586
0

0101000
+53 31 -57 31 *
Ve
0.000000100000000
3.175000000000000 61.000000000000014 24.399999999999984
0 0

0101101
*
Ed
 0.000000100000000 1 1 0
1  27 0 3.141592653589793 4.712388980384690
2  16 10 30 3.141592653589793 4.712388980384690
0

0101000
+55 31 -51 31 *
Ed
 0.000000100000000 1 1 0
1  28 0 1.000000000000000 21.224999999988484
0

0101000
+51 25 -53 25 *
Wi

0101100
+101 34 -94 0 +87 0 +64 34 +62 34 +60 0 +58 0 +56 34 +54 34 +52 0 
+50 0 +49 34 *
Fa
0  0.000000100000000 11 0

0111000
+48 33 *
Ed
 0.000000100000000 1 1 0
1  29 0 0.000000000000000 122.000000000000000
2  17 7 0 0.000000000000000 122.000000000000000
4 C1 4 0 7 0
0

0101000
+84 6 -65 6 *
Wi

0101100
+46 0 -96 0 -83 21 +64 24 *
Fa
0  0.000000100000000 4 0

0111000
+45 0 *
Ed
 0.000000100000000 1 1 0
1  30 0 0.000000000000000 122.000000000000000
2  18 8 0 0.000000000000000 122.000000000000000
4 C1 5 0 8 0
0

0101000
+82 6 -63 6 *
Wi

0101100
+89 4 -81 36 +62 37 -43 4 *
Ve
0.000000100000000
0.000000000000000 44.331250000000011 12.699999999999999
0 0

0101101
*
Ed
 0.000000100000000 1 1 0
1  31 0 0.000000000000000 6.283185307179586
2  19 12 41 0.000000000000000 6.283185307179586
0

0101000
+41 42 -41 42 *
Wi

0101100
+40 40 *
Ve
0.000000100000000
0.000000000000000 -52.268750000000011 12.699999999999999
0 0

0101101
*
Ed
 0.000000100000000 1 1 0
1  32 0 0.000000000000000 6.283185307179586
2  20 13 41 0.000000000000000 6.283185307179586
0

0101000
+38 42 -38 42 *
Wi

0101100
+37 40 *
Fa
0  0.000000100000000 5 4

0111000
+42 0 +39 0 +36 0 *
Ed
 0.000000100000000 1 1 0
1  33 0 0.000000000000000 122.000000000000000
2  21 7 0 0.000000000000000 122.000000000000000
4 C1 7 0 14 0
0

0101000
+80 6 -61 6 *
Wi

0101100
+34 0 -46 0 -79 26 +60 29 *
Fa
0  0.000000100000000 7 0

0111000
+33 0 *
Ed
 0.000000100000000 1 1 0
1  34 0 0.000000000000000 122.000000000000000
2  22 8 0 0.000000000000000 122.000000000000000
4 C1 8 0 15 0
0

0101000
+78 6 -59 6 *
Wi

0101100
+43 0 -31 0 -77 26 +58 29 *
Fa
0  0.000000100000000 8 0

0111000
+30 0 *
Ed
 0.000000100000000 1 1 0
1  35 0 0.000000000000000 122.000000000000000
2  23 9 0 0.000000000000000 122.000000000000000
4 C1 14 0 9 0
0

0101000
+76 6 -57 6 *
Wi

0101100
+28 0 -34 0 -75 21 +56 24 *
Fa
0  0.000000100000000 14 0

0111000
+27 0 *
Ed
 0.000000100000000 1 1 0
1  36 0 0.000000000000000 122.000000000000000
2  24 10 0 0.000000000000000 122.000000000000000
4 C1 15 0 10 0
0

0101000
+74 6 -55 6 *
Wi

0101100
+31 0 -25 0 -73 21 +54 24 *
Fa
0  0.000000100000000 15 0

0111000
+24 0 *
Ed
 0.000000100000000 1 1 0
1  37 0 0.000000000000000 122.000000000000000
2  25 9 0 0.000000000000000 122.000000000000000
4 C1 9 0 16 0
0

0101000
+72 6 -53 6 *
Wi

0101100
+22 0 -28 0 -71 26 +52 29 *
Fa
0  0.000000100000000 9 0

0111000
+21 0 *
Ed
 0.000000100000000 1 1 0
1  38 0 0.000000000000000 122.000000000000000
2  26 10 0 0.000000000000000 122.000000000000000
4 C1 10 0 16 0
0

0101000
+70 6 -51 6 *
Wi

0101100
+25 0 -19 0 -69 26 +50 29 *
Fa
0  0.000000100000000 10 0

0111000
+18 0 *
Wi

0101100
+19 4 -68 36 +49 37 -22 4 *
Ve
0.000000100000002
3.175000000000000 44.331250000000011 12.699999999999999
0 0

0101101
*
Ed
 0.000000100000000 1 1 0
1  39 0 0.000000000000000 6.283185307179586
2  27 12 0 0.000000000000000 6.283185307179586
0

0101000
+15 43 -15 43 *
Wi

0101100
-14 0 *
Ve
0.000000100000002
3.175000000000000 -52.268750000000011 12.699999999999999
0 0

0101101
*
Ed
 0.000000100000000 1 1 0
1  40 0 0.000000000000000 6.283185307179586
2  28 13 0 0.000000000000000 6.283185307179586
0

0101000
+12 43 -12 43 *
Wi

0101100
-11 0 *
Fa
0  0.000000100000000 16 4

0111000
+16 0 +13 0 +10 0 *
Ed
 0.000000100000000 1 1 0
1  41 0 0.000000000000000 3.175000000000000
3  29 30CN 12 0 0.000000000000000 3.175000000000000
0

0101000
+41 43 -15 43 *
Wi

0101100
-40 40 -8 0 +14 0 +8 0 *
Fa
0  0.000000100000000 12 0

0111000
+7 0 *
Ed
 0.000000100000000 1 1 0
1  42 0 0.000000000000000 3.175000000000000
3  31 32CN 13 0 0.000000000000000 3.175000000000000
0

0101000
+38 43 -12 43 *
Wi

0101100
-37 40 -5 0 +11 0 +5 0 *
Fa
0  0.000000100000000 13 0

0111000
+4 0 *
Sh

0101100
-99 4 +92 4 -85 4 -66 32 +47 35 -44 4 -35 0 -32 4 -29 4 -26 4 
-23 4 -20 4 -17 4 -9 0 -6 0 -3 0 *
So

1100000
+2 0 *

+1 1 