
CASCADE Topology V1, (c) Matra-Datavision
Locations 26
1
1.000000000000000 0.000000000000000 0.000000000000000 0.000000000000000 
0.000000000000000 0.000000000000000 -1.000000000000000 0.000000000000000 
0.000000000000000 1.000000000000000 0.000000000000000 0.000000000000000 
1
1.000000000000000 0.000000000000000 0.000000000000000 0.000000000000000 
0.000000000000000 -0.000000000000000 -1.000000000000000 0.000000000000000 
0.000000000000000 1.000000000000000 -0.000000000000000 0.000000000000000 
1
1.000000000000000 0.000000000000000 0.000000000000000 0.000000000000000 
0.000000000000000 -0.000000000000000 -1.000000000000000 0.000000000000000 
0.000000000000000 1.000000000000000 -0.000000000000000 0.000000000000000 
2  2 1 3 -1 0
1
1.000000000000000 0.000000000000000 0.000000000000000 0.000000000000000 
0.000000000000000 1.000000000000000 0.000000000000000 0.000000000000000 
0.000000000000000 0.000000000000000 1.000000000000000 0.000000000000000 
1
1.000000000000000 0.000000000000000 0.000000000000000 0.000000000000000 
0.000000000000000 -0.000000000000000 -1.000000000000000 0.000000000000000 
0.000000000000000 1.000000000000000 -0.000000000000000 0.000000000000000 
1
1.000000000000000 0.000000000000000 0.000000000000000 0.000000000000000 
0.000000000000000 -0.000000000000000 -1.000000000000000 0.000000000000000 
0.000000000000000 1.000000000000000 -0.000000000000000 0.000000000000000 
1
1.000000000000000 0.000000000000000 0.000000000000000 -0.000000000000000 
0.000000000000000 1.000000000000000 0.000000000000000 -0.000000000000000 
0.000000000000000 0.000000000000000 1.000000000000000 -17.500000000000000 
2  5 1 6 1 7 -1 8 1 0
1
1.000000000000000 0.000000000000000 0.000000000000000 0.000000000000000 
0.000000000000000 1.000000000000000 0.000000000000000 0.000000000000000 
0.000000000000000 0.000000000000000 1.000000000000000 35.000000000000000 
2  5 1 6 1 7 -1 8 1 10 1 0
2  5 1 6 1 7 -1 8 1 2 1 3 -1 0
2  8 -1 7 1 6 -1 5 -1 0
2  10 -1 8 -1 7 1 6 -1 5 -1 0
2  5 1 6 1 7 -1 8 1 10 1 2 1 3 -1 0
1
1.000000000000000 0.000000000000000 0.000000000000000 0.000000000000000 
0.000000000000000 1.000000000000000 0.000000000000000 0.000000000000000 
0.000000000000000 0.000000000000000 1.000000000000000 0.000000000000000 
1
-1.000000000000000 0.000000000000000 0.000000000000000 0.000000000000002 
0.000000000000000 -1.000000000000000 0.000000000000000 -0.000000000000004 
0.000000000000000 -0.000000000000000 1.000000000000000 19.999999999999996 
2  16 1 17 1 3 -1 0
2  3 1 17 -1 16 -1 0
1
1.000000000000000 0.000000000000000 0.000000000000000 -0.000000000000012 
0.000000000000000 1.000000000000000 0.000000000000000 -134.371760426065748 
0.000000000000000 0.000000000000000 1.000000000000000 0.000000000000000 
2  20 -1 3 1 17 -1 16 -1 0
2  17 -1 16 -1 0
2  2 1 17 -1 16 -1 0
2  7 -1 8 1 2 1 3 -1 0
2  5 1 6 1 0
2  7 -1 8 1 10 1 2 1 3 -1 0
Curve2ds 28
1 0.00000000000000000 0.00000000000000000 0.00000000000000000 -1.00000000000000000 
1 0.00000000000000000 0.00000000000000000 1.00000000000000000 0.00000000000000000 
1 0.00000000000000000 -35.00000000000000000 1.00000000000000000 0.00000000000000000 
1 40.00000000000000000 0.00000000000000000 0.00000000000000000 -1.00000000000000000 
1 0.00000000000000000 0.00000000000000000 1.00000000000000000 0.00000000000000000 
1 0.00000000000000000 -134.37176042606574811 1.00000000000000000 0.00000000000000000 
2 -0.00000000000000020 0.00000000000000010 -1.00000000000000000 -0.00000000000000000 0.00000000000000000 -1.00000000000000000 3.96875000000000000
2 20.00000000000000000 -17.50000000000000000 -1.00000000000000000 -0.00000000000000000 0.00000000000000000 -1.00000000000000000 3.96875000000000000
1 40.00000000000000000 0.00000000000000000 0.00000000000000000 -1.00000000000000000 
1 0.00000000000000000 -0.00000000000000000 1.00000000000000000 0.00000000000000000 
1 0.00000000000000000 -35.00000000000000000 1.00000000000000000 0.00000000000000000 
1 0.00000000000000000 -0.00000000000000000 1.00000000000000000 0.00000000000000000 
1 0.00000000000000000 -35.00000000000000000 1.00000000000000000 0.00000000000000000 
1 0.00000000000000000 0.00000000000000000 1.00000000000000000 0.00000000000000000 
1 0.00000000000000000 -35.00000000000000000 1.00000000000000000 0.00000000000000000 
1 0.00000000000000000 -0.00000000000000000 0.00000000000000000 -1.00000000000000000 
1 0.00000000000000000 0.00000000000000000 0.00000000000000000 -1.00000000000000000 
1 6.28318530717958623 0.00000000000000000 0.00000000000000000 -1.00000000000000000 
2 18.41250000000000142 -17.50000000000000000 -1.00000000000000000 0.00000000000000000 -0.00000000000000000 -1.00000000000000000 3.96875000000000000
1 0.00000000000000000 -1.58749999999999503 1.00000000000000000 0.00000000000000000 
2 20.00000000000000000 -17.50000000000000000 1.00000000000000000 0.00000000000000000 0.00000000000000000 -1.00000000000000000 3.96875000000000000
1 0.00000000000000000 -40.00000000000000000 1.00000000000000000 0.00000000000000000 
1 36.82500000000000284 0.00000000000000000 0.00000000000000000 -1.00000000000000000 
1 0.00000000000000000 0.00000000000000000 0.00000000000000000 -1.00000000000000000 
1 0.00000000000000000 -0.00000000000000000 0.00000000000000000 -1.00000000000000000 
2 18.41250000000000142 -17.50000000000000000 1.00000000000000000 0.00000000000000000 0.00000000000000000 -1.00000000000000000 3.96875000000000000
1 0.00000000000000000 -38.41249999999999432 1.00000000000000000 0.00000000000000000 
1 36.82500000000000284 0.00000000000000000 0.00000000000000000 -1.00000000000000000 
Curves 21
1 -20.00000000000000000 20.00000000000000000 -17.50000000000000000 0.00000000000000000 0.00000000000000000 1.00000000000000000 
1 -20.00000000000000000 20.00000000000000000 0.00000000000000000 1.00000000000000000 -0.00000000000000009 0.00000000000000000 
1 20.00000000000000000 19.99999999999999645 -17.50000000000000000 0.00000000000000000 0.00000000000000000 1.00000000000000000 
2 0.00000000000000000 0.00000000000000000 0.00000000000000000 0.00000000000000000 0.00000000000000000 1.00000000000000000 1.00000000000000000 0.00000000000000000 -0.00000000000000000 -0.00000000000000000 1.00000000000000000 0.00000000000000000 3.96875000000000000
1 -20.00000000000000000 -20.00000000000000000 -17.50000000000000000 0.00000000000000000 0.00000000000000000 1.00000000000000000 
1 -20.00000000000000000 -20.00000000000000000 0.00000000000000000 0.00000000000000000 1.00000000000000000 0.00000000000000000 
1 20.00000000000000000 19.99999999999999645 0.00000000000000000 0.00000000000000000 -1.00000000000000000 0.00000000000000000 
1 20.00000000000000000 -20.00000000000000000 0.00000000000000000 -1.00000000000000000 0.00000000000000000 0.00000000000000000 
1 -18.41250000000000142 -18.41250000000000142 0.00000000000000000 0.00000000000000000 1.00000000000000000 0.00000000000000000 
1 18.41250000000000142 -18.41250000000000142 0.00000000000000000 -1.00000000000000000 0.00000000000000000 0.00000000000000000 
1 18.41250000000000142 18.41250000000000142 0.00000000000000000 0.00000000000000000 -1.00000000000000000 0.00000000000000000 
1 -18.41250000000000142 18.41250000000000142 0.00000000000000000 1.00000000000000000 0.00000000000000000 0.00000000000000000 
1 20.00000000000000000 -20.00000000000000000 -17.50000000000000000 0.00000000000000000 0.00000000000000000 1.00000000000000000 
1 -3.96874999999999822 19.99999999999999645 0.00000000000000000 -0.00000000000000009 -1.00000000000000000 0.00000000000000000 
2 0.00000000000000164 18.41250000000000142 0.00000000000000000 0.00000000000000009 1.00000000000000000 -0.00000000000000000 -1.00000000000000000 0.00000000000000009 0.00000000000000000 0.00000000000000000 0.00000000000000000 1.00000000000000000 3.96875000000000000
2 -0.00000000000000178 -20.00000000000000355 0.00000000000000000 0.00000000000000009 1.00000000000000000 -0.00000000000000000 -1.00000000000000000 0.00000000000000009 0.00000000000000000 0.00000000000000000 0.00000000000000000 1.00000000000000000 3.96875000000000000
1 -18.41250000000000142 -18.41250000000000142 -17.50000000000000000 0.00000000000000000 0.00000000000000000 1.00000000000000000 
1 -18.41250000000000142 18.41250000000000142 -17.50000000000000000 0.00000000000000000 0.00000000000000000 1.00000000000000000 
1 18.41250000000000142 -18.41250000000000142 -17.50000000000000000 0.00000000000000000 0.00000000000000000 1.00000000000000000 
2 -0.00000000000000164 -18.41249999999999787 0.00000000000000000 0.00000000000000009 1.00000000000000000 -0.00000000000000000 -1.00000000000000000 0.00000000000000009 0.00000000000000000 0.00000000000000000 0.00000000000000000 1.00000000000000000 3.96875000000000000
1 18.41250000000000142 18.41250000000000142 -17.50000000000000000 0.00000000000000000 0.00000000000000000 1.00000000000000000 
Polygon3D 0
PolygonOnTriangulations 0
Surfaces 11
1 -20.00000000000000000 20.00000000000000000 -17.50000000000000000 0.00000000000000009 1.00000000000000000 -0.00000000000000000 1.00000000000000000 -0.00000000000000009 0.00000000000000000 0.00000000000000000 -0.00000000000000000 -1.00000000000000000 
2 0.00000000000000178 19.99999999999999645 0.00000000000000000 0.00000000000000009 1.00000000000000000 -0.00000000000000000 -1.00000000000000000 0.00000000000000009 0.00000000000000000 0.00000000000000000 0.00000000000000000 1.00000000000000000 3.96875000000000000
1 0.00000000000000198 -0.00000000000000454 19.99999999999999645 0.00000000000000000 0.00000000000000000 1.00000000000000000 1.00000000000000000 0.00000000000000000 -0.00000000000000000 -0.00000000000000000 1.00000000000000000 0.00000000000000000 
1 -20.00000000000000000 -20.00000000000000000 -17.50000000000000000 -1.00000000000000000 0.00000000000000000 0.00000000000000000 0.00000000000000000 1.00000000000000000 0.00000000000000000 0.00000000000000000 0.00000000000000000 -1.00000000000000000 
1 20.00000000000000000 -20.00000000000000000 -17.50000000000000000 0.00000000000000000 -1.00000000000000000 0.00000000000000000 -1.00000000000000000 0.00000000000000000 0.00000000000000000 -0.00000000000000000 -0.00000000000000000 -1.00000000000000000 
1 0.00000000000000000 0.00000000000000000 0.00000000000000000 0.00000000000000000 1.00000000000000000 0.00000000000000022 0.00000000000000000 -0.00000000000000022 1.00000000000000000 1.00000000000000000 0.00000000000000000 -0.00000000000000000 
1 18.41250000000000142 -18.41250000000000142 -17.50000000000000000 0.00000000000000000 -1.00000000000000000 0.00000000000000000 -1.00000000000000000 0.00000000000000000 0.00000000000000000 -0.00000000000000000 -0.00000000000000000 -1.00000000000000000 
1 -18.41250000000000142 18.41250000000000142 -17.50000000000000000 0.00000000000000000 1.00000000000000000 0.00000000000000000 1.00000000000000000 0.00000000000000000 0.00000000000000000 0.00000000000000000 0.00000000000000000 -1.00000000000000000 
1 20.00000000000000000 19.99999999999999645 -17.50000000000000000 1.00000000000000000 0.00000000000000000 -0.00000000000000000 0.00000000000000000 -1.00000000000000000 0.00000000000000000 0.00000000000000000 -0.00000000000000000 -1.00000000000000000 
1 -18.41250000000000142 -18.41250000000000142 -17.50000000000000000 -1.00000000000000000 0.00000000000000000 0.00000000000000000 0.00000000000000000 1.00000000000000000 0.00000000000000000 0.00000000000000000 0.00000000000000000 -1.00000000000000000 
1 18.41250000000000142 18.41250000000000142 -17.50000000000000000 1.00000000000000000 0.00000000000000000 -0.00000000000000000 0.00000000000000000 -1.00000000000000000 0.00000000000000000 0.00000000000000000 -0.00000000000000000 -1.00000000000000000 
Triangulations 0

TShapes 63
Ve
0.000000100000000
-20.000000000000000 20.000000000000000 0.000000000000000
0 0

0101101
*
Ed
 0.000000100000000 1 1 0
1  1 0 0.000000000000000 35.000000000000000
2  1 1 0 0.000000000000000 35.000000000000000
0

0101000
+63 9 -63 11 *
Ve
0.000000100000000
20.000000000000000 19.999999999999996 0.000000000000000
0 0

0101101
*
Ed
 0.000000100000000 1 1 0
1  2 0 0.000000000000000 40.000000000000000
2  2 1 13 0.000000000000000 40.000000000000000
2  3 1 14 0.000000000000000 40.000000000000000
0

0101000
+63 0 -61 0 *
Ed
 0.000000100000000 1 1 0
1  3 0 0.000000000000000 35.000000000000000
2  4 1 0 0.000000000000000 35.000000000000000
0

0101000
+61 9 -61 11 *
Wi

0101100
+62 4 -60 12 +60 15 -59 4 *
Ve
0.000000100000004
3.968750000000000 0.000000000000000 0.000000000000000
0 0

0101101
*
Ed
 0.000000100000004 1 1 0
1  4 0 0.000000000000000 6.283185307179586
2  5 2 19 0.000000000000000 6.283185307179586
2  6 2 21 0.000000000000000 6.283185307179586
2  7 3 22 0.000000000000000 6.283185307179586
2  8 1 23 0.000000000000000 6.283185307179586
0

0101000
+57 0 -57 0 *
Wi

0101100
-56 18 *
Fa
0  0.000000100000000 1 4

0101000
+58 0 +55 0 *
Ve
0.000000100000000
-20.000000000000000 -20.000000000000000 0.000000000000000
0 0

0101101
*
Ed
 0.000000100000000 1 1 0
1  5 0 0.000000000000000 35.000000000000000
2  9 5 0 0.000000000000000 35.000000000000000
0

0101000
+53 9 -53 11 *
Ed
 0.000000100000000 1 1 0
1  6 0 0.000000000000000 40.000000000000000
0

0101000
+53 0 -63 0 *
Wi

0101100
+52 0 -62 0 -51 9 +51 11 *
Fa
0  0.000000100000000 4 0

0101000
+50 0 *
Ve
0.000000100000002
20.000000000000000 -20.000000000000000 0.000000000000000
0 0

0101101
*
Ed
 0.000000100000000 1 1 0
1  7 0 0.000000000000000 40.000000000000000
0

0101000
+61 0 -48 0 *
Ed
 0.000000100000000 1 1 0
1  8 0 0.000000000000000 40.000000000000000
2  10 5 13 0.000000000000000 40.000000000000000
2  11 5 14 0.000000000000000 40.000000000000000
0

0101000
+48 0 -53 0 *
Wi

0101100
+60 25 +47 25 +46 25 +51 25 *
Ve
0.000000100000000
-18.412500000000001 -18.412500000000001 0.000000000000000
0 0

0101101
*
Ve
0.000000100000000
-18.412500000000001 18.412500000000001 0.000000000000000
0 0

0101101
*
Ed
 0.000000100000000 1 1 0
1  9 0 0.000000000000000 36.825000000000003
0

0101000
+44 0 -43 0 *
Ve
0.000000100000000
18.412500000000001 -18.412500000000001 0.000000000000000
0 0

0101101
*
Ed
 0.000000100000000 1 1 0
1  10 0 0.000000000000000 36.825000000000003
2  12 7 13 0.000000000000000 36.825000000000003
2  13 7 14 0.000000000000000 36.825000000000003
0

0101000
+41 0 -44 0 *
Ve
0.000000100000000
18.412500000000001 18.412500000000001 0.000000000000000
0 0

0101101
*
Ed
 0.000000100000000 1 1 0
1  11 0 0.000000000000000 36.825000000000003
0

0101000
+39 0 -41 0 *
Ed
 0.000000100000000 1 1 0
1  12 0 0.000000000000000 36.825000000000003
2  14 8 13 0.000000000000000 36.825000000000003
2  15 8 14 0.000000000000000 36.825000000000003
0

0101000
+43 0 -39 0 *
Wi

0101100
-42 25 -40 25 -38 25 -37 25 *
Fa
0  0.000000100000000 6 0

0101000
+45 0 +36 0 *
Ed
 0.000000100000002 1 1 0
1  13 0 0.000000000000000 35.000000000000000
2  16 5 0 0.000000000000000 35.000000000000000
0

0101000
+48 9 -48 11 *
Wi

0101100
+59 0 -34 0 -47 9 +47 11 *
Fa
0  0.000000100000000 9 0

0101000
+33 0 *
Ve
0.000000100000001
-3.968749999999998 18.412500000000001 0.000000000000000
0 0

0101101
*
Ed
 0.000000100000000 1 1 0
1  14 0 0.000000000000000 1.587499999999995
3  17 18CN 2 0 0.000000000000000 1.587499999999995
0

0101000
+57 18 -31 0 *
Ed
 0.000000100000000 1 1 0
1  15 0 0.000000000000000 6.283185307179586
2  19 8 4 0.000000000000000 6.283185307179586
2  20 2 0 0.000000000000000 6.283185307179586
0

0101000
+31 0 -31 0 *
Wi

0101100
-56 18 -30 0 +29 0 +30 0 *
Fa
0  0.000000100000000 2 0

0101000
+28 0 *
Wi

0101100
+34 4 -46 12 +46 15 -52 4 *
Ve
0.000000100000001
-3.968750000000002 -20.000000000000004 0.000000000000000
0 0

0101101
*
Ed
 0.000000100000000 1 1 0
1  16 0 0.000000000000000 6.283185307179586
2  21 5 4 0.000000000000000 6.283185307179586
2  22 2 0 0.000000000000000 6.283185307179586
0

0101000
+25 0 -25 0 *
Wi

0101100
+24 0 *
Fa
0  0.000000100000000 5 4

0101000
+26 0 +23 0 *
Ed
 0.000000100000000 1 1 0
1  17 0 0.000000000000000 35.000000000000000
2  23 7 0 0.000000000000000 35.000000000000000
0

0101000
+44 9 -44 11 *
Ed
 0.000000100000000 1 1 0
1  18 0 0.000000000000000 35.000000000000000
2  24 8 0 0.000000000000000 35.000000000000000
0

0101000
+43 9 -43 11 *
Wi

0101100
+21 0 -20 0 -42 9 +42 11 *
Fa
0  0.000000100000000 10 0

0101000
+19 0 *
Ed
 0.000000100000000 1 1 0
1  19 0 0.000000000000000 35.000000000000000
2  25 7 0 0.000000000000000 35.000000000000000
0

0101000
+41 9 -41 11 *
Wi

0101100
+17 4 -40 12 +40 15 -21 4 *
Ve
0.000000100000001
-3.968750000000002 -18.412499999999998 0.000000000000000
0 0

0101101
*
Ed
 0.000000100000000 1 1 0
1  20 0 0.000000000000000 6.283185307179586
2  26 7 4 0.000000000000000 6.283185307179586
2  27 2 0 0.000000000000000 6.283185307179586
0

0101000
+15 0 -15 0 *
Wi

0101100
+14 0 *
Fa
0  0.000000100000000 7 4

0101000
+16 0 +13 0 *
Ed
 0.000000100000000 1 1 0
1  21 0 0.000000000000000 35.000000000000000
2  28 8 0 0.000000000000000 35.000000000000000
0

0101000
+39 9 -39 11 *
Wi

0101100
+11 0 -17 0 -38 9 +38 11 *
Fa
0  0.000000100000000 11 0

0101000
+10 0 *
Wi

0101100
+20 4 -37 12 +37 15 -11 4 *
Wi

0101100
-29 0 *
Fa
0  0.000000100000000 8 4

0101000
+8 0 +7 0 *
Ed
 0.000000100000000 1 1 0
1  14 0 38.412499999999994 40.000000000000000
3  17 18CN 2 0 38.412499999999994 40.000000000000000
0

0101000
+15 0 -25 0 *
Wi

0101100
-14 0 -5 0 +24 0 +5 0 *
Fa
0  0.000000100000000 2 0

0101000
+4 0 *
Sh

0101100
+54 0 +49 4 +35 24 -35 26 +32 4 -27 0 +22 0 -18 4 -12 0 -9 4 
-6 0 -3 0 *
So

0100000
+2 0 *

+1 1 