
CASCADE Topology V1, (c) Matra-Datavision
Locations 13
1
1.000000000000000 0.000000000000000 0.000000000000000 0.000000000000000 
0.000000000000000 0.000000000000000 -1.000000000000000 0.000000000000000 
0.000000000000000 1.000000000000000 0.000000000000000 0.000000000000000 
1
1.000000000000000 0.000000000000000 0.000000000000000 0.000000000000000 
0.000000000000000 1.000000000000000 0.000000000000000 0.000000000000000 
0.000000000000000 0.000000000000000 1.000000000000000 0.000000000000000 
1
1.000000000000000 0.000000000000000 0.000000000000000 0.000000000000000 
0.000000000000000 -0.000000000000000 -1.000000000000000 0.000000000000000 
0.000000000000000 1.000000000000000 -0.000000000000000 0.000000000000000 
1
1.000000000000000 0.000000000000000 0.000000000000000 0.000000000000000 
0.000000000000000 -0.000000000000000 -1.000000000000000 0.000000000000000 
0.000000000000000 1.000000000000000 -0.000000000000000 0.000000000000000 
1
1.000000000000000 0.000000000000000 0.000000000000000 -0.000000000000000 
0.000000000000000 1.000000000000000 0.000000000000000 -0.000000000000000 
0.000000000000000 0.000000000000000 1.000000000000000 -17.500000000000000 
2  2 1 3 1 4 -1 5 1 0
1
1.000000000000000 0.000000000000000 0.000000000000000 0.000000000000000 
0.000000000000000 1.000000000000000 0.000000000000000 0.000000000000000 
0.000000000000000 0.000000000000000 1.000000000000000 35.000000000000000 
2  2 1 3 1 4 -1 5 1 7 1 0
2  5 -1 4 1 3 -1 2 -1 0
2  7 -1 5 -1 4 1 3 -1 2 -1 0
2  4 -1 5 1 0
2  2 1 3 1 0
2  4 -1 5 1 7 1 0
Curve2ds 16
1 0.00000000000000000 0.00000000000000000 0.00000000000000000 -1.00000000000000000 
1 40.00000000000000000 0.00000000000000000 0.00000000000000000 -1.00000000000000000 
1 0.00000000000000000 0.00000000000000000 1.00000000000000000 0.00000000000000000 
1 0.00000000000000000 -35.00000000000000000 1.00000000000000000 0.00000000000000000 
1 0.00000000000000000 -0.00000000000000000 0.00000000000000000 -1.00000000000000000 
1 40.00000000000000000 0.00000000000000000 0.00000000000000000 -1.00000000000000000 
1 0.00000000000000000 -0.00000000000000000 1.00000000000000000 0.00000000000000000 
1 0.00000000000000000 -35.00000000000000000 1.00000000000000000 0.00000000000000000 
1 36.82500000000000284 0.00000000000000000 0.00000000000000000 -1.00000000000000000 
1 0.00000000000000000 0.00000000000000000 0.00000000000000000 -1.00000000000000000 
1 0.00000000000000000 -0.00000000000000000 0.00000000000000000 -1.00000000000000000 
1 0.00000000000000000 -0.00000000000000000 1.00000000000000000 0.00000000000000000 
1 0.00000000000000000 -35.00000000000000000 1.00000000000000000 0.00000000000000000 
1 36.82500000000000284 0.00000000000000000 0.00000000000000000 -1.00000000000000000 
1 0.00000000000000000 0.00000000000000000 1.00000000000000000 0.00000000000000000 
1 0.00000000000000000 -35.00000000000000000 1.00000000000000000 0.00000000000000000 
Curves 16
1 -20.00000000000000000 20.00000000000000000 -17.50000000000000000 0.00000000000000000 0.00000000000000000 1.00000000000000000 
1 20.00000000000000000 19.99999999999999645 -17.50000000000000000 0.00000000000000000 0.00000000000000000 1.00000000000000000 
1 -20.00000000000000000 20.00000000000000000 0.00000000000000000 1.00000000000000000 -0.00000000000000009 0.00000000000000000 
1 20.00000000000000000 -20.00000000000000000 -17.50000000000000000 0.00000000000000000 0.00000000000000000 1.00000000000000000 
1 20.00000000000000000 19.99999999999999645 0.00000000000000000 0.00000000000000000 -1.00000000000000000 0.00000000000000000 
1 -20.00000000000000000 -20.00000000000000000 -17.50000000000000000 0.00000000000000000 0.00000000000000000 1.00000000000000000 
1 20.00000000000000000 -20.00000000000000000 0.00000000000000000 -1.00000000000000000 0.00000000000000000 0.00000000000000000 
1 -20.00000000000000000 -20.00000000000000000 0.00000000000000000 0.00000000000000000 1.00000000000000000 0.00000000000000000 
1 -18.41250000000000142 -18.41250000000000142 -17.50000000000000000 0.00000000000000000 0.00000000000000000 1.00000000000000000 
1 -18.41250000000000142 18.41250000000000142 -17.50000000000000000 0.00000000000000000 0.00000000000000000 1.00000000000000000 
1 -18.41250000000000142 -18.41250000000000142 0.00000000000000000 0.00000000000000000 1.00000000000000000 0.00000000000000000 
1 18.41250000000000142 -18.41250000000000142 -17.50000000000000000 0.00000000000000000 0.00000000000000000 1.00000000000000000 
1 18.41250000000000142 -18.41250000000000142 0.00000000000000000 -1.00000000000000000 0.00000000000000000 0.00000000000000000 
1 18.41250000000000142 18.41250000000000142 -17.50000000000000000 0.00000000000000000 0.00000000000000000 1.00000000000000000 
1 18.41250000000000142 18.41250000000000142 0.00000000000000000 0.00000000000000000 -1.00000000000000000 0.00000000000000000 
1 -18.41250000000000142 18.41250000000000142 0.00000000000000000 1.00000000000000000 0.00000000000000000 0.00000000000000000 
Polygon3D 0
PolygonOnTriangulations 0
Surfaces 9
1 -20.00000000000000000 20.00000000000000000 -17.50000000000000000 0.00000000000000009 1.00000000000000000 -0.00000000000000000 1.00000000000000000 -0.00000000000000009 0.00000000000000000 0.00000000000000000 -0.00000000000000000 -1.00000000000000000 
1 20.00000000000000000 19.99999999999999645 -17.50000000000000000 1.00000000000000000 0.00000000000000000 -0.00000000000000000 0.00000000000000000 -1.00000000000000000 0.00000000000000000 0.00000000000000000 -0.00000000000000000 -1.00000000000000000 
1 20.00000000000000000 -20.00000000000000000 -17.50000000000000000 0.00000000000000000 -1.00000000000000000 0.00000000000000000 -1.00000000000000000 0.00000000000000000 0.00000000000000000 -0.00000000000000000 -0.00000000000000000 -1.00000000000000000 
1 -20.00000000000000000 -20.00000000000000000 -17.50000000000000000 -1.00000000000000000 0.00000000000000000 0.00000000000000000 0.00000000000000000 1.00000000000000000 0.00000000000000000 0.00000000000000000 0.00000000000000000 -1.00000000000000000 
1 -18.41250000000000142 -18.41250000000000142 -17.50000000000000000 -1.00000000000000000 0.00000000000000000 0.00000000000000000 0.00000000000000000 1.00000000000000000 0.00000000000000000 0.00000000000000000 0.00000000000000000 -1.00000000000000000 
1 18.41250000000000142 -18.41250000000000142 -17.50000000000000000 0.00000000000000000 -1.00000000000000000 0.00000000000000000 -1.00000000000000000 0.00000000000000000 0.00000000000000000 -0.00000000000000000 -0.00000000000000000 -1.00000000000000000 
1 -18.41250000000000142 18.41250000000000142 -17.50000000000000000 0.00000000000000000 1.00000000000000000 0.00000000000000000 1.00000000000000000 0.00000000000000000 0.00000000000000000 0.00000000000000000 0.00000000000000000 -1.00000000000000000 
1 18.41250000000000142 18.41250000000000142 -17.50000000000000000 1.00000000000000000 0.00000000000000000 -0.00000000000000000 0.00000000000000000 -1.00000000000000000 0.00000000000000000 0.00000000000000000 -0.00000000000000000 -1.00000000000000000 
1 0.00000000000000000 0.00000000000000000 0.00000000000000000 0.00000000000000000 1.00000000000000000 0.00000000000000022 0.00000000000000000 -0.00000000000000022 1.00000000000000000 1.00000000000000000 0.00000000000000000 -0.00000000000000000 
Triangulations 0

TShapes 45
Ve
0.000000100000000
-20.000000000000000 20.000000000000000 0.000000000000000
0 0

0101101
*
Ed
 0.000000100000000 1 1 0
1  1 0 0.000000000000000 35.000000000000000
2  1 1 0 0.000000000000000 35.000000000000000
0

0101000
+45 6 -45 8 *
Ve
0.000000100000000
20.000000000000000 19.999999999999996 0.000000000000000
0 0

0101101
*
Ed
 0.000000100000000 1 1 0
1  2 0 0.000000000000000 35.000000000000000
2  2 1 0 0.000000000000000 35.000000000000000
0

0101000
+43 6 -43 8 *
Ed
 0.000000100000000 1 1 0
1  3 0 0.000000000000000 40.000000000000000
2  3 1 9 0.000000000000000 40.000000000000000
2  4 1 10 0.000000000000000 40.000000000000000
0

0101000
+45 0 -43 0 *
Wi

0101100
+44 0 -42 0 -41 6 +41 8 *
Fa
0  0.000000100000000 1 0

0101000
+40 0 *
Ve
0.000000100000002
20.000000000000000 -20.000000000000000 0.000000000000000
0 0

0101101
*
Ed
 0.000000100000002 1 1 0
1  4 0 0.000000000000000 35.000000000000000
2  5 3 0 0.000000000000000 35.000000000000000
0

0101000
+38 6 -38 8 *
Ed
 0.000000100000000 1 1 0
1  5 0 0.000000000000000 40.000000000000000
0

0101000
+43 0 -38 0 *
Wi

0101100
+42 0 -37 0 -36 6 +36 8 *
Fa
0  0.000000100000000 2 0

0101000
+35 0 *
Ve
0.000000100000000
-20.000000000000000 -20.000000000000000 0.000000000000000
0 0

0101101
*
Ed
 0.000000100000000 1 1 0
1  6 0 0.000000000000000 35.000000000000000
2  6 3 0 0.000000000000000 35.000000000000000
0

0101000
+33 6 -33 8 *
Ed
 0.000000100000000 1 1 0
1  7 0 0.000000000000000 40.000000000000000
2  7 3 9 0.000000000000000 40.000000000000000
2  8 3 10 0.000000000000000 40.000000000000000
0

0101000
+38 0 -33 0 *
Wi

0101100
+37 0 -32 0 -31 6 +31 8 *
Fa
0  0.000000100000000 3 0

0101000
+30 0 *
Ed
 0.000000100000000 1 1 0
1  8 0 0.000000000000000 40.000000000000000
0

0101000
+33 0 -45 0 *
Wi

0101100
+32 0 -44 0 -28 6 +28 8 *
Fa
0  0.000000100000000 4 0

0101000
+27 0 *
Ve
0.000000100000000
-18.412500000000001 -18.412500000000001 0.000000000000000
0 0

0101101
*
Ed
 0.000000100000000 1 1 0
1  9 0 0.000000000000000 35.000000000000000
2  9 6 0 0.000000000000000 35.000000000000000
0

0101000
+25 6 -25 8 *
Ve
0.000000100000000
-18.412500000000001 18.412500000000001 0.000000000000000
0 0

0101101
*
Ed
 0.000000100000000 1 1 0
1  10 0 0.000000000000000 35.000000000000000
2  10 7 0 0.000000000000000 35.000000000000000
0

0101000
+23 6 -23 8 *
Ed
 0.000000100000000 1 1 0
1  11 0 0.000000000000000 36.825000000000003
0

0101000
+25 0 -23 0 *
Wi

0101100
+24 0 -22 0 -21 6 +21 8 *
Fa
0  0.000000100000000 5 0

0101000
+20 0 *
Ve
0.000000100000000
18.412500000000001 -18.412500000000001 0.000000000000000
0 0

0101101
*
Ed
 0.000000100000000 1 1 0
1  12 0 0.000000000000000 35.000000000000000
2  11 6 0 0.000000000000000 35.000000000000000
0

0101000
+18 6 -18 8 *
Ed
 0.000000100000000 1 1 0
1  13 0 0.000000000000000 36.825000000000003
2  12 6 9 0.000000000000000 36.825000000000003
2  13 6 10 0.000000000000000 36.825000000000003
0

0101000
+18 0 -25 0 *
Wi

0101100
+17 0 -24 0 -16 6 +16 8 *
Fa
0  0.000000100000000 6 0

0101000
+15 0 *
Ve
0.000000100000000
18.412500000000001 18.412500000000001 0.000000000000000
0 0

0101101
*
Ed
 0.000000100000000 1 1 0
1  14 0 0.000000000000000 35.000000000000000
2  14 7 0 0.000000000000000 35.000000000000000
0

0101000
+13 6 -13 8 *
Ed
 0.000000100000000 1 1 0
1  15 0 0.000000000000000 36.825000000000003
0

0101000
+13 0 -18 0 *
Wi

0101100
+12 0 -17 0 -11 6 +11 8 *
Fa
0  0.000000100000000 8 0

0101000
+10 0 *
Ed
 0.000000100000000 1 1 0
1  16 0 0.000000000000000 36.825000000000003
2  15 7 9 0.000000000000000 36.825000000000003
2  16 7 10 0.000000000000000 36.825000000000003
0

0101000
+23 0 -13 0 *
Wi

0101100
+22 0 -12 0 -8 6 +8 8 *
Fa
0  0.000000100000000 7 0

0101000
+7 0 *
Wi

0101100
+41 12 +36 12 +31 12 +28 12 *
Wi

0101100
-21 12 -16 12 -11 12 -8 12 *
Fa
0  0.000000100000000 9 0

0101000
+5 0 +4 0 *
Sh

0101100
+39 0 +34 0 +29 0 +26 0 -19 0 -14 0 -9 0 -6 0 +3 11 -3 13 
*
So

1100000
+2 0 *

+1 1 