
CASCADE Topology V1, (c) Matra-Datavision
Locations 44
1
1.000000000000000 0.000000000000000 0.000000000000000 0.000000000000000 
0.000000000000000 0.000000000000000 -1.000000000000000 0.000000000000000 
0.000000000000000 1.000000000000000 0.000000000000000 0.000000000000000 
1
1.000000000000000 0.000000000000000 0.000000000000000 0.000000000000000 
0.000000000000000 -0.000000000000000 -1.000000000000000 0.000000000000000 
0.000000000000000 1.000000000000000 -0.000000000000000 0.000000000000000 
1
1.000000000000000 0.000000000000000 0.000000000000000 -0.000000000000000 
0.000000000000000 1.000000000000000 0.000000000000000 -0.000000000000000 
0.000000000000000 0.000000000000000 1.000000000000000 -17.500000000000000 
1
1.000000000000000 0.000000000000000 0.000000000000000 0.000000000000000 
0.000000000000000 -0.000000000000000 -1.000000000000000 0.000000000000000 
0.000000000000000 1.000000000000000 -0.000000000000000 0.000000000000000 
1
1.000000000000000 0.000000000000000 0.000000000000000 0.000000000000000 
0.000000000000000 -0.000000000000000 -1.000000000000000 0.000000000000000 
0.000000000000000 1.000000000000000 -0.000000000000000 0.000000000000000 
1
1.000000000000000 0.000000000000000 0.000000000000000 0.000000000000000 
0.000000000000000 1.000000000000000 0.000000000000000 0.000000000000000 
0.000000000000000 0.000000000000000 1.000000000000000 0.000000000000000 
1
1.000000000000000 0.000000000000000 0.000000000000000 0.000000000000000 
0.000000000000000 1.000000000000000 0.000000000000000 0.000000000000000 
0.000000000000000 0.000000000000000 1.000000000000000 0.000000000000000 
2  2 -1 3 1 4 1 5 -1 6 1 7 1 0
2  7 -1 6 -1 5 1 4 -1 3 -1 2 1 0
1
1.000000000000000 0.000000000000000 0.000000000000000 0.000000000000000 
0.000000000000000 1.000000000000000 0.000000000000000 0.000000000000000 
0.000000000000000 0.000000000000000 1.000000000000000 0.000000000000000 
1
1.000000000000000 0.000000000000000 0.000000000000000 0.000000000000000 
0.000000000000000 -0.000000000000000 -1.000000000000000 0.000000000000000 
0.000000000000000 1.000000000000000 -0.000000000000000 0.000000000000000 
2  10 1 11 1 2 -1 3 1 4 1 5 -1 6 1 7 1 0
2  7 -1 6 -1 5 1 4 -1 3 -1 2 1 11 -1 10 -1 0
2  3 -1 2 1 11 -1 10 -1 0
1
1.000000000000000 0.000000000000000 0.000000000000000 0.000000000000000 
0.000000000000000 1.000000000000000 0.000000000000000 0.000000000000000 
0.000000000000000 0.000000000000000 1.000000000000000 35.000000000000000 
2  15 -1 3 -1 2 1 11 -1 10 -1 0
2  6 -1 5 1 4 -1 3 -1 2 1 0
2  10 1 11 1 2 -1 3 1 4 1 5 -1 6 1 0
2  6 -1 5 1 4 -1 3 -1 2 1 11 -1 10 -1 0
2  2 -1 3 1 4 1 5 -1 6 1 0
2  4 1 5 -1 6 1 7 1 0
2  7 -1 6 -1 5 1 4 -1 0
2  10 1 11 1 2 -1 3 1 15 1 4 1 5 -1 6 1 7 1 0
2  7 -1 6 -1 5 1 4 -1 15 -1 3 -1 2 1 11 -1 10 -1 0
2  2 -1 3 1 15 1 4 1 5 -1 6 1 7 1 0
2  6 1 7 1 0
2  4 1 5 -1 0
2  7 -1 6 -1 0
2  6 -1 0
2  4 1 5 -1 6 1 0
2  10 1 11 1 2 -1 3 1 15 1 4 1 5 -1 6 1 0
2  6 -1 5 1 4 -1 15 -1 3 -1 2 1 11 -1 10 -1 0
1
1.000000000000000 0.000000000000000 0.000000000000000 0.000000000000000 
0.000000000000000 1.000000000000000 0.000000000000000 0.000000000000000 
0.000000000000000 0.000000000000000 1.000000000000000 0.000000000000000 
1
-1.000000000000000 0.000000000000000 0.000000000000000 0.000000000000002 
0.000000000000000 -1.000000000000000 0.000000000000000 -0.000000000000004 
0.000000000000000 -0.000000000000000 1.000000000000000 19.999999999999996 
2  33 1 34 1 5 -1 0
2  5 1 34 -1 33 -1 0
1
1.000000000000000 0.000000000000000 0.000000000000000 -0.000000000000012 
0.000000000000000 1.000000000000000 0.000000000000000 -134.371760426065748 
0.000000000000000 0.000000000000000 1.000000000000000 0.000000000000000 
2  37 -1 5 1 34 -1 33 -1 0
2  34 -1 33 -1 0
2  4 1 34 -1 33 -1 0
2  2 -1 3 1 15 1 4 1 5 -1 6 1 0
2  6 -1 5 1 4 -1 0
2  7 -1 6 -1 5 1 4 -1 15 -1 3 -1 2 1 0
2  6 -1 5 1 4 -1 15 -1 3 -1 2 1 0
Curve2ds 84
1 -4.71238898038468967 0.00000000000000000 1.00000000000000000 0.00000000000000000 
2 -17.41250000000000142 -17.41250000000000142 -1.00000000000000000 0.00000000000000000 0.00000000000000000 1.00000000000000000 1.00000000000000000
1 -1.57079632679489656 0.00000000000000000 1.00000000000000000 0.00000000000000000 
2 17.41250000000000142 -17.41250000000000142 -1.00000000000000000 0.00000000000000000 -0.00000000000000000 -1.00000000000000000 1.00000000000000000
1 0.00000000000000000 -0.00000000000000000 1.00000000000000000 0.00000000000000000 
1 0.00000000000000000 -35.00000000000000000 1.00000000000000000 0.00000000000000000 
1 0.00000000000000000 0.00000000000000000 1.00000000000000000 0.00000000000000000 
1 0.00000000000000000 -35.00000000000000000 1.00000000000000000 0.00000000000000000 
1 0.00000000000000000 0.00000000000000000 1.00000000000000000 0.00000000000000000 
2 -17.41250000000000142 17.41250000000000142 -1.00000000000000000 0.00000000000000000 0.00000000000000000 1.00000000000000000 1.00000000000000000
1 -1.57079632679489656 0.00000000000000000 1.00000000000000000 0.00000000000000000 
2 17.41250000000000142 17.41250000000000142 -1.00000000000000000 0.00000000000000000 0.00000000000000000 1.00000000000000000 1.00000000000000000
1 0.00000000000000000 0.00000000000000000 1.00000000000000000 0.00000000000000000 
1 0.00000000000000000 -35.00000000000000000 1.00000000000000000 0.00000000000000000 
1 -3.14159265358979312 0.00000000000000000 1.00000000000000000 0.00000000000000000 
2 18.00000000000000000 -18.00000000000000000 -1.00000000000000000 0.00000000000000000 0.00000000000000000 1.00000000000000000 2.00000000000000000
1 -3.14159265358979312 0.00000000000000000 1.00000000000000000 0.00000000000000000 
2 17.99999999999999645 18.00000000000000000 -1.00000000000000000 0.00000000000000000 -0.00000000000000000 -1.00000000000000000 2.00000000000000000
1 -4.71238898038468967 0.00000000000000000 1.00000000000000000 0.00000000000000000 
2 -18.00000000000000000 -18.00000000000000000 -1.00000000000000000 0.00000000000000000 0.00000000000000000 1.00000000000000000 2.00000000000000000
1 -4.71238898038468967 0.00000000000000000 1.00000000000000000 0.00000000000000000 
2 -18.00000000000000000 18.00000000000000000 -1.00000000000000000 0.00000000000000000 -0.00000000000000000 -1.00000000000000000 2.00000000000000000
1 0.00000000000000000 -0.00000000000000000 1.00000000000000000 0.00000000000000000 
1 0.00000000000000000 -35.00000000000000000 1.00000000000000000 0.00000000000000000 
1 0.00000000000000000 0.00000000000000000 0.00000000000000000 1.00000000000000000 
1 1.00000000000000000 0.00000000000000000 0.00000000000000000 -1.00000000000000000 
1 0.00000000000000000 0.00000000000000000 0.00000000000000000 1.00000000000000000 
1 35.82500000000000284 0.00000000000000000 0.00000000000000000 -1.00000000000000000 
1 1.57079632679489656 0.00000000000000000 0.00000000000000000 1.00000000000000000 
1 35.82500000000000284 0.00000000000000000 0.00000000000000000 -1.00000000000000000 
1 -4.71238898038468967 35.00000000000000000 1.00000000000000000 0.00000000000000000 
2 -17.41250000000000142 -17.41250000000000142 -1.00000000000000000 0.00000000000000000 0.00000000000000000 1.00000000000000000 1.00000000000000000
1 1.57079632679489656 0.00000000000000000 0.00000000000000000 1.00000000000000000 
1 1.00000000000000000 0.00000000000000000 0.00000000000000000 -1.00000000000000000 
1 -1.57079632679489656 35.00000000000000000 1.00000000000000000 0.00000000000000000 
2 17.41250000000000142 -17.41250000000000142 -1.00000000000000000 0.00000000000000000 -0.00000000000000000 -1.00000000000000000 1.00000000000000000
1 0.00000000000000000 0.00000000000000000 0.00000000000000000 1.00000000000000000 
1 1.00000000000000000 0.00000000000000000 0.00000000000000000 -1.00000000000000000 
2 18.41250000000000142 -17.50000000000000000 1.00000000000000000 0.00000000000000000 0.00000000000000000 -1.00000000000000000 3.96875000000000000
1 0.00000000000000000 -38.41249999999999432 1.00000000000000000 0.00000000000000000 
1 1.57079632679489656 0.00000000000000000 0.00000000000000000 1.00000000000000000 
1 35.82500000000000284 0.00000000000000000 0.00000000000000000 -1.00000000000000000 
2 18.41250000000000142 -17.50000000000000000 -1.00000000000000000 0.00000000000000000 -0.00000000000000000 -1.00000000000000000 3.96875000000000000
1 0.00000000000000000 -1.58749999999999503 1.00000000000000000 0.00000000000000000 
1 1.57079632679489656 0.00000000000000000 0.00000000000000000 1.00000000000000000 
1 35.82500000000000284 0.00000000000000000 0.00000000000000000 -1.00000000000000000 
1 0.00000000000000000 35.00000000000000000 1.00000000000000000 0.00000000000000000 
2 -17.41250000000000142 17.41250000000000142 -1.00000000000000000 0.00000000000000000 0.00000000000000000 1.00000000000000000 1.00000000000000000
1 0.00000000000000000 0.00000000000000000 0.00000000000000000 1.00000000000000000 
1 1.00000000000000000 0.00000000000000000 0.00000000000000000 -1.00000000000000000 
1 -1.57079632679489656 35.00000000000000000 1.00000000000000000 0.00000000000000000 
2 17.41250000000000142 17.41250000000000142 -1.00000000000000000 0.00000000000000000 0.00000000000000000 1.00000000000000000 1.00000000000000000
1 0.00000000000000000 0.00000000000000000 0.00000000000000000 1.00000000000000000 
1 2.00000000000000000 0.00000000000000000 0.00000000000000000 -1.00000000000000000 
1 0.00000000000000000 0.00000000000000000 0.00000000000000000 1.00000000000000000 
1 38.00000000000000000 0.00000000000000000 0.00000000000000000 -1.00000000000000000 
1 0.00000000000000000 0.00000000000000000 1.00000000000000000 0.00000000000000000 
1 0.00000000000000000 -134.37176042606574811 1.00000000000000000 0.00000000000000000 
2 -0.00000000000000020 0.00000000000000010 -1.00000000000000000 -0.00000000000000000 0.00000000000000000 -1.00000000000000000 3.96875000000000000
2 20.00000000000000000 -17.50000000000000000 -1.00000000000000000 -0.00000000000000000 0.00000000000000000 -1.00000000000000000 3.96875000000000000
1 1.57079632679489678 0.00000000000000000 0.00000000000000000 1.00000000000000000 
1 38.00000000000000000 0.00000000000000000 0.00000000000000000 -1.00000000000000000 
1 -3.14159265358979312 35.00000000000000000 1.00000000000000000 0.00000000000000000 
2 18.00000000000000000 -18.00000000000000000 -1.00000000000000000 0.00000000000000000 0.00000000000000000 1.00000000000000000 2.00000000000000000
1 1.57079632679489656 0.00000000000000000 0.00000000000000000 1.00000000000000000 
1 2.00000000000000000 0.00000000000000000 0.00000000000000000 -1.00000000000000000 
1 -3.14159265358979312 35.00000000000000000 1.00000000000000000 0.00000000000000000 
2 17.99999999999999645 18.00000000000000000 -1.00000000000000000 0.00000000000000000 -0.00000000000000000 -1.00000000000000000 2.00000000000000000
1 0.00000000000000000 0.00000000000000000 0.00000000000000000 1.00000000000000000 
1 2.00000000000000000 0.00000000000000000 0.00000000000000000 -1.00000000000000000 
1 0.00000000000000000 0.00000000000000000 0.00000000000000000 1.00000000000000000 
1 38.00000000000000000 0.00000000000000000 0.00000000000000000 -1.00000000000000000 
1 1.57079632679489656 0.00000000000000000 0.00000000000000000 1.00000000000000000 
1 38.00000000000000000 0.00000000000000000 0.00000000000000000 -1.00000000000000000 
1 -4.71238898038468967 35.00000000000000000 1.00000000000000000 0.00000000000000000 
2 -18.00000000000000000 -18.00000000000000000 -1.00000000000000000 0.00000000000000000 0.00000000000000000 1.00000000000000000 2.00000000000000000
1 1.57079632679489656 0.00000000000000000 0.00000000000000000 1.00000000000000000 
1 2.00000000000000000 0.00000000000000000 0.00000000000000000 -1.00000000000000000 
1 -4.71238898038468967 35.00000000000000000 1.00000000000000000 0.00000000000000000 
2 -18.00000000000000000 18.00000000000000000 -1.00000000000000000 0.00000000000000000 -0.00000000000000000 -1.00000000000000000 2.00000000000000000
2 20.00000000000000000 -17.50000000000000000 1.00000000000000000 0.00000000000000000 0.00000000000000000 -1.00000000000000000 3.96875000000000000
1 0.00000000000000000 -40.00000000000000000 1.00000000000000000 0.00000000000000000 
1 0.00000000000000000 0.00000000000000000 0.00000000000000000 -1.00000000000000000 
1 6.28318530717958623 0.00000000000000000 0.00000000000000000 -1.00000000000000000 
Curves 45
1 -18.41250000000000142 -18.41250000000000142 0.00000000000000000 0.00000000000000000 1.00000000000000000 0.00000000000000000 
8 4.71238898038468967 6.28318530717958623
2 -17.41250000000000142 -17.41250000000000142 -17.50000000000000000 0.00000000000000000 0.00000000000000000 1.00000000000000000 0.00000000000000000 -1.00000000000000000 0.00000000000000000 1.00000000000000000 0.00000000000000000 -0.00000000000000000 1.00000000000000000
8 1.57079632679489656 3.14159265358979312
2 -17.41250000000000142 17.41250000000000142 -17.50000000000000000 -0.00000000000000000 -0.00000000000000000 -1.00000000000000000 0.00000000000000000 -1.00000000000000000 0.00000000000000000 -1.00000000000000000 0.00000000000000000 0.00000000000000000 1.00000000000000000
1 18.41250000000000142 -18.41250000000000142 0.00000000000000000 -1.00000000000000000 0.00000000000000000 0.00000000000000000 
1 -18.41250000000000142 18.41250000000000142 0.00000000000000000 1.00000000000000000 0.00000000000000000 0.00000000000000000 
8 0.00000000000000000 1.57079632679489656
2 17.41250000000000142 -17.41250000000000142 -17.50000000000000000 0.00000000000000000 0.00000000000000000 1.00000000000000000 0.00000000000000000 -1.00000000000000000 0.00000000000000000 1.00000000000000000 0.00000000000000000 -0.00000000000000000 1.00000000000000000
8 1.57079632679489656 3.14159265358979312
2 17.41250000000000142 17.41250000000000142 -17.50000000000000000 0.00000000000000000 0.00000000000000000 1.00000000000000000 0.00000000000000000 -1.00000000000000000 0.00000000000000000 1.00000000000000000 0.00000000000000000 -0.00000000000000000 1.00000000000000000
1 18.41250000000000142 18.41250000000000142 0.00000000000000000 0.00000000000000000 -1.00000000000000000 0.00000000000000000 
1 -20.00000000000000000 20.00000000000000000 0.00000000000000000 1.00000000000000000 -0.00000000000000009 0.00000000000000000 
8 3.14159265358979312 4.71238898038468967
2 -18.00000000000000000 18.00000000000000000 -17.50000000000000000 0.00000000000000000 0.00000000000000000 1.00000000000000000 0.00000000000000000 -1.00000000000000000 0.00000000000000000 1.00000000000000000 0.00000000000000000 -0.00000000000000000 2.00000000000000000
8 3.14159265358979312 4.71238898038468967
2 18.00000000000000000 17.99999999999999645 -17.50000000000000000 -0.00000000000000000 -0.00000000000000000 -1.00000000000000000 0.00000000000000000 -1.00000000000000000 0.00000000000000000 -1.00000000000000000 0.00000000000000000 0.00000000000000000 2.00000000000000000
1 -20.00000000000000000 -20.00000000000000000 0.00000000000000000 0.00000000000000000 1.00000000000000000 0.00000000000000000 
1 20.00000000000000000 19.99999999999999645 0.00000000000000000 0.00000000000000000 -1.00000000000000000 0.00000000000000000 
8 4.71238898038468967 6.28318530717958623
2 -18.00000000000000000 -18.00000000000000000 -17.50000000000000000 0.00000000000000000 0.00000000000000000 1.00000000000000000 0.00000000000000000 -1.00000000000000000 0.00000000000000000 1.00000000000000000 0.00000000000000000 -0.00000000000000000 2.00000000000000000
8 4.71238898038468967 6.28318530717958623
2 18.00000000000000000 -18.00000000000000000 -17.50000000000000000 -0.00000000000000000 -0.00000000000000000 -1.00000000000000000 0.00000000000000000 -1.00000000000000000 0.00000000000000000 -1.00000000000000000 0.00000000000000000 0.00000000000000000 2.00000000000000000
1 20.00000000000000000 -20.00000000000000000 0.00000000000000000 -1.00000000000000000 0.00000000000000000 0.00000000000000000 
1 -18.41250000000000142 -17.41250000000000142 -17.50000000000000000 0.00000000000000000 0.00000000000000000 1.00000000000000000 
1 -18.41250000000000142 17.41250000000000142 -17.50000000000000000 0.00000000000000000 0.00000000000000000 1.00000000000000000 
1 -17.41250000000000142 -18.41250000000000142 -17.50000000000000000 0.00000000000000000 0.00000000000000000 1.00000000000000000 
8 4.71238898038468967 6.28318530717958623
2 -17.41250000000000142 -17.41250000000000142 17.50000000000000000 0.00000000000000000 0.00000000000000000 1.00000000000000000 0.00000000000000000 -1.00000000000000000 0.00000000000000000 1.00000000000000000 0.00000000000000000 -0.00000000000000000 1.00000000000000000
1 -17.41250000000000142 18.41250000000000142 -17.50000000000000000 0.00000000000000000 0.00000000000000000 1.00000000000000000 
8 1.57079632679489656 3.14159265358979312
2 -17.41250000000000142 17.41250000000000142 17.50000000000000000 -0.00000000000000000 -0.00000000000000000 -1.00000000000000000 0.00000000000000000 -1.00000000000000000 0.00000000000000000 -1.00000000000000000 0.00000000000000000 0.00000000000000000 1.00000000000000000
1 17.41250000000000142 -18.41250000000000142 -17.50000000000000000 0.00000000000000000 0.00000000000000000 1.00000000000000000 
2 -0.00000000000000164 -18.41249999999999787 0.00000000000000000 0.00000000000000009 1.00000000000000000 -0.00000000000000000 -1.00000000000000000 0.00000000000000009 0.00000000000000000 0.00000000000000000 0.00000000000000000 1.00000000000000000 3.96875000000000000
1 17.41250000000000142 18.41250000000000142 -17.50000000000000000 0.00000000000000000 0.00000000000000000 1.00000000000000000 
2 0.00000000000000164 18.41250000000000142 0.00000000000000000 0.00000000000000009 1.00000000000000000 -0.00000000000000000 -1.00000000000000000 0.00000000000000009 0.00000000000000000 0.00000000000000000 0.00000000000000000 1.00000000000000000 3.96875000000000000
1 18.41250000000000142 -17.41250000000000142 -17.50000000000000000 0.00000000000000000 0.00000000000000000 1.00000000000000000 
8 0.00000000000000000 1.57079632679489656
2 17.41250000000000142 -17.41250000000000142 17.50000000000000000 0.00000000000000000 0.00000000000000000 1.00000000000000000 0.00000000000000000 -1.00000000000000000 0.00000000000000000 1.00000000000000000 0.00000000000000000 -0.00000000000000000 1.00000000000000000
1 18.41250000000000142 17.41250000000000142 -17.50000000000000000 0.00000000000000000 0.00000000000000000 1.00000000000000000 
8 1.57079632679489656 3.14159265358979312
2 17.41250000000000142 17.41250000000000142 17.50000000000000000 0.00000000000000000 0.00000000000000000 1.00000000000000000 0.00000000000000000 -1.00000000000000000 0.00000000000000000 1.00000000000000000 0.00000000000000000 -0.00000000000000000 1.00000000000000000
1 -18.00000000000000000 20.00000000000000000 -17.50000000000000000 0.00000000000000000 0.00000000000000000 1.00000000000000000 
1 18.00000000000000000 19.99999999999999645 -17.50000000000000000 0.00000000000000000 0.00000000000000000 1.00000000000000000 
2 0.00000000000000000 0.00000000000000000 0.00000000000000000 0.00000000000000000 0.00000000000000000 1.00000000000000000 1.00000000000000000 0.00000000000000000 -0.00000000000000000 -0.00000000000000000 1.00000000000000000 0.00000000000000000 3.96875000000000000
1 -20.00000000000000000 18.00000000000000000 -17.50000000000000000 0.00000000000000000 0.00000000000000000 1.00000000000000000 
8 3.14159265358979312 4.71238898038468967
2 -18.00000000000000000 18.00000000000000000 17.50000000000000000 0.00000000000000000 0.00000000000000000 1.00000000000000000 0.00000000000000000 -1.00000000000000000 0.00000000000000000 1.00000000000000000 0.00000000000000000 -0.00000000000000000 2.00000000000000000
1 20.00000000000000000 17.99999999999999645 -17.50000000000000000 0.00000000000000000 0.00000000000000000 1.00000000000000000 
8 3.14159265358979312 4.71238898038468967
2 18.00000000000000000 17.99999999999999645 17.50000000000000000 -0.00000000000000000 -0.00000000000000000 -1.00000000000000000 0.00000000000000000 -1.00000000000000000 0.00000000000000000 -1.00000000000000000 0.00000000000000000 0.00000000000000000 2.00000000000000000
1 -20.00000000000000000 -18.00000000000000000 -17.50000000000000000 0.00000000000000000 0.00000000000000000 1.00000000000000000 
1 20.00000000000000000 -18.00000000000000000 -17.50000000000000000 0.00000000000000000 0.00000000000000000 1.00000000000000000 
1 -18.00000000000000000 -20.00000000000000000 -17.50000000000000000 0.00000000000000000 0.00000000000000000 1.00000000000000000 
8 4.71238898038468967 6.28318530717958623
2 -18.00000000000000000 -18.00000000000000000 17.50000000000000000 0.00000000000000000 0.00000000000000000 1.00000000000000000 0.00000000000000000 -1.00000000000000000 0.00000000000000000 1.00000000000000000 0.00000000000000000 -0.00000000000000000 2.00000000000000000
1 18.00000000000000000 -20.00000000000000000 -17.50000000000000000 0.00000000000000000 0.00000000000000000 1.00000000000000000 
8 4.71238898038468967 6.28318530717958623
2 18.00000000000000000 -18.00000000000000000 17.50000000000000000 -0.00000000000000000 -0.00000000000000000 -1.00000000000000000 0.00000000000000000 -1.00000000000000000 0.00000000000000000 -1.00000000000000000 0.00000000000000000 0.00000000000000000 2.00000000000000000
2 -0.00000000000000178 -20.00000000000000355 0.00000000000000000 0.00000000000000009 1.00000000000000000 -0.00000000000000000 -1.00000000000000000 0.00000000000000009 0.00000000000000000 0.00000000000000000 0.00000000000000000 1.00000000000000000 3.96875000000000000
1 -3.96874999999999822 19.99999999999999645 0.00000000000000000 -0.00000000000000009 -1.00000000000000000 0.00000000000000000 
Polygon3D 0
PolygonOnTriangulations 0
Surfaces 19
1 0.00000000000000000 0.00000000000000000 0.00000000000000000 0.00000000000000000 1.00000000000000000 0.00000000000000022 0.00000000000000000 -0.00000000000000022 1.00000000000000000 1.00000000000000000 0.00000000000000000 -0.00000000000000000 
2 -17.41250000000000142 -17.41250000000000142 -17.50000000000000000 0.00000000000000000 0.00000000000000000 1.00000000000000000 -1.00000000000000000 0.00000000000000000 0.00000000000000000 0.00000000000000000 -1.00000000000000000 0.00000000000000000 1.00000000000000000
2 -17.41250000000000142 17.41250000000000142 -17.50000000000000000 0.00000000000000000 0.00000000000000000 1.00000000000000000 -1.00000000000000000 0.00000000000000000 0.00000000000000000 -0.00000000000000000 1.00000000000000000 -0.00000000000000000 1.00000000000000000
1 18.41250000000000142 -18.41250000000000142 -17.50000000000000000 0.00000000000000000 -1.00000000000000000 0.00000000000000000 -1.00000000000000000 0.00000000000000000 0.00000000000000000 -0.00000000000000000 -0.00000000000000000 -1.00000000000000000 
1 -18.41250000000000142 18.41250000000000142 -17.50000000000000000 0.00000000000000000 1.00000000000000000 0.00000000000000000 1.00000000000000000 0.00000000000000000 0.00000000000000000 0.00000000000000000 0.00000000000000000 -1.00000000000000000 
2 17.41250000000000142 -17.41250000000000142 -17.50000000000000000 0.00000000000000000 0.00000000000000000 1.00000000000000000 0.00000000000000000 -1.00000000000000000 0.00000000000000000 1.00000000000000000 0.00000000000000000 -0.00000000000000000 1.00000000000000000
2 17.41250000000000142 17.41250000000000142 -17.50000000000000000 0.00000000000000000 0.00000000000000000 1.00000000000000000 1.00000000000000000 0.00000000000000000 -0.00000000000000000 -0.00000000000000000 1.00000000000000000 0.00000000000000000 1.00000000000000000
1 -20.00000000000000000 20.00000000000000000 -17.50000000000000000 0.00000000000000009 1.00000000000000000 -0.00000000000000000 1.00000000000000000 -0.00000000000000009 0.00000000000000000 0.00000000000000000 -0.00000000000000000 -1.00000000000000000 
2 -18.00000000000000000 18.00000000000000000 -17.50000000000000000 0.00000000000000000 0.00000000000000000 1.00000000000000000 0.00000000000000009 1.00000000000000000 -0.00000000000000000 -1.00000000000000000 0.00000000000000009 0.00000000000000000 2.00000000000000000
2 18.00000000000000000 17.99999999999999645 -17.50000000000000000 0.00000000000000000 0.00000000000000000 1.00000000000000000 0.00000000000000009 1.00000000000000000 -0.00000000000000000 1.00000000000000000 -0.00000000000000009 -0.00000000000000000 2.00000000000000000
2 -18.00000000000000000 -18.00000000000000000 -17.50000000000000000 0.00000000000000000 0.00000000000000000 1.00000000000000000 -1.00000000000000000 0.00000000000000000 0.00000000000000000 0.00000000000000000 -1.00000000000000000 0.00000000000000000 2.00000000000000000
2 18.00000000000000000 -18.00000000000000000 -17.50000000000000000 0.00000000000000000 0.00000000000000000 1.00000000000000000 1.00000000000000000 0.00000000000000000 -0.00000000000000000 0.00000000000000000 -1.00000000000000000 -0.00000000000000000 2.00000000000000000
1 20.00000000000000000 -20.00000000000000000 -17.50000000000000000 0.00000000000000000 -1.00000000000000000 0.00000000000000000 -1.00000000000000000 0.00000000000000000 0.00000000000000000 -0.00000000000000000 -0.00000000000000000 -1.00000000000000000 
1 -18.41250000000000142 -18.41250000000000142 -17.50000000000000000 -1.00000000000000000 0.00000000000000000 0.00000000000000000 0.00000000000000000 1.00000000000000000 0.00000000000000000 0.00000000000000000 0.00000000000000000 -1.00000000000000000 
2 0.00000000000000178 19.99999999999999645 0.00000000000000000 0.00000000000000009 1.00000000000000000 -0.00000000000000000 -1.00000000000000000 0.00000000000000009 0.00000000000000000 0.00000000000000000 0.00000000000000000 1.00000000000000000 3.96875000000000000
1 18.41250000000000142 18.41250000000000142 -17.50000000000000000 1.00000000000000000 0.00000000000000000 -0.00000000000000000 0.00000000000000000 -1.00000000000000000 0.00000000000000000 0.00000000000000000 -0.00000000000000000 -1.00000000000000000 
1 0.00000000000000198 -0.00000000000000454 19.99999999999999645 0.00000000000000000 0.00000000000000000 1.00000000000000000 1.00000000000000000 0.00000000000000000 -0.00000000000000000 -0.00000000000000000 1.00000000000000000 0.00000000000000000 
1 -20.00000000000000000 -20.00000000000000000 -17.50000000000000000 -1.00000000000000000 0.00000000000000000 0.00000000000000000 0.00000000000000000 1.00000000000000000 0.00000000000000000 0.00000000000000000 0.00000000000000000 -1.00000000000000000 
1 20.00000000000000000 19.99999999999999645 -17.50000000000000000 1.00000000000000000 0.00000000000000000 -0.00000000000000000 0.00000000000000000 -1.00000000000000000 0.00000000000000000 0.00000000000000000 -0.00000000000000000 -1.00000000000000000 
Triangulations 0

TShapes 138
Ve
0.000000100000000
-18.412500000000001 -17.412500000000001 -17.500000000000000
0 0

0101101
*
Ve
0.000000100000000
-18.412500000000001 17.412500000000001 -17.500000000000000
0 0

0101101
*
Ed
 0.000000100000000 1 1 0
1  1 0 1.000000000000000 35.825000000000003
0

0101000
+138 13 -137 13 *
Ve
0.000000100000000
-17.412500000000001 -18.412500000000001 -17.500000000000000
0 0

0101101
*
Ed
 0.000000100000000 1 1 0
1  2 0 4.712388980384690 6.283185307179586
2  1 2 0 4.712388980384690 6.283185307179586
2  2 1 8 4.712388980384690 6.283185307179586
0

0101000
+138 0 -135 0 *
Ve
0.000000100000000
-17.412500000000001 18.412500000000001 -17.500000000000000
0 0

0101101
*
Ed
 0.000000100000000 1 1 0
1  3 0 1.570796326794897 3.141592653589793
2  3 3 0 1.570796326794897 3.141592653589793
2  4 1 8 1.570796326794897 3.141592653589793
0

0101000
+137 0 -133 0 *
Ve
0.000000100000000
17.412500000000001 -18.412500000000001 -17.500000000000000
0 0

0101101
*
Ed
 0.000000100000000 1 1 0
1  4 0 1.000000000000000 35.825000000000003
2  5 4 14 1.000000000000000 35.825000000000003
2  6 4 16 1.000000000000000 35.825000000000003
0

0101000
+131 13 -135 13 *
Ve
0.000000100000000
17.412500000000001 18.412500000000001 -17.500000000000000
0 0

0101101
*
Ed
 0.000000100000000 1 1 0
1  5 0 1.000000000000000 35.825000000000003
2  7 5 14 1.000000000000000 35.825000000000003
2  8 5 16 1.000000000000000 35.825000000000003
0

0101000
+133 13 -129 13 *
Ve
0.000000100000000
18.412500000000001 -17.412500000000001 -17.500000000000000
0 0

0101101
*
Ed
 0.000000100000000 1 1 0
1  6 0 0.000000000000000 1.570796326794897
2  9 6 0 0.000000000000000 1.570796326794897
2  10 1 8 0.000000000000000 1.570796326794897
0

0101000
+131 0 -127 0 *
Ve
0.000000100000000
18.412500000000001 17.412500000000001 -17.500000000000000
0 0

0101101
*
Ed
 0.000000100000000 1 1 0
1  7 0 1.570796326794897 3.141592653589793
2  11 7 0 1.570796326794897 3.141592653589793
2  12 1 8 1.570796326794897 3.141592653589793
0

0101000
+125 0 -129 0 *
Ed
 0.000000100000000 1 1 0
1  8 0 1.000000000000000 35.825000000000003
0

0101000
+125 13 -127 13 *
Wi

0101100
-136 12 +134 0 -132 0 -130 12 -128 12 +126 0 +124 0 -123 12 *
Ve
0.000000100000000
-18.000000000000000 20.000000000000000 -17.500000000000000
0 0

0101101
*
Ve
0.000000100000000
18.000000000000000 19.999999999999996 -17.500000000000000
0 0

0101101
*
Ed
 0.000000100000000 1 1 0
1  9 0 2.000000000000000 38.000000000000000
2  13 8 14 2.000000000000000 38.000000000000000
2  14 8 16 2.000000000000000 38.000000000000000
0

0101000
+121 19 -120 19 *
Ve
0.000000100000000
-20.000000000000000 18.000000000000000 -17.500000000000000
0 0

0101101
*
Ed
 0.000000100000000 1 1 0
1  10 0 3.141592653589793 4.712388980384690
2  15 9 0 3.141592653589793 4.712388980384690
2  16 1 20 3.141592653589793 4.712388980384690
0

0101000
+121 0 -118 0 *
Ve
0.000000100000000
20.000000000000000 17.999999999999996 -17.500000000000000
0 0

0101101
*
Ed
 0.000000100000000 1 1 0
1  11 0 3.141592653589793 4.712388980384690
2  17 10 0 3.141592653589793 4.712388980384690
2  18 1 20 3.141592653589793 4.712388980384690
0

0101000
+120 0 -116 0 *
Ve
0.000000100000000
-20.000000000000000 -18.000000000000000 -17.500000000000000
0 0

0101101
*
Ed
 0.000000100000000 1 1 0
1  12 0 2.000000000000000 38.000000000000000
0

0101000
+114 19 -118 19 *
Ve
0.000000100000000
20.000000000000000 -18.000000000000000 -17.500000000000000
0 0

0101101
*
Ed
 0.000000100000000 1 1 0
1  13 0 2.000000000000000 38.000000000000000
0

0101000
+116 19 -112 19 *
Ve
0.000000100000000
-18.000000000000000 -20.000000000000000 -17.500000000000000
0 0

0101101
*
Ed
 0.000000100000000 1 1 0
1  14 0 4.712388980384690 6.283185307179586
2  19 11 0 4.712388980384690 6.283185307179586
2  20 1 20 4.712388980384690 6.283185307179586
0

0101000
+114 0 -110 0 *
Ve
0.000000100000000
18.000000000000000 -20.000000000000000 -17.500000000000000
0 0

0101101
*
Ed
 0.000000100000000 1 1 0
1  15 0 4.712388980384690 6.283185307179586
2  21 12 0 4.712388980384690 6.283185307179586
2  22 1 20 4.712388980384690 6.283185307179586
0

0101000
+112 0 -108 0 *
Ed
 0.000000100000000 1 1 0
1  16 0 2.000000000000000 38.000000000000000
2  23 13 14 2.000000000000000 38.000000000000000
2  24 13 16 2.000000000000000 38.000000000000000
0

0101000
+108 19 -110 19 *
Wi

0101100
+119 18 -117 0 +115 0 +113 18 +111 18 -109 0 +107 0 +106 18 *
Fa
0  0.000000100000000 1 0

0101000
+122 9 +105 17 *
Ve
0.000000100000000
-18.412500000000001 -17.412500000000001 17.500000000000000
0 0

0101101
*
Ed
 0.000000100000000 1 1 0
1  17 0 -0.000000000000000 35.000000000000000
2  25 2 0 -0.000000000000000 35.000000000000000
2  26 14 21 -0.000000000000000 35.000000000000000
4 G1 2 0 14 21
0

0101000
+138 0 -103 0 *
Ve
0.000000100000000
-18.412500000000001 17.412500000000001 17.500000000000000
0 0

0101101
*
Ed
 0.000000100000000 1 1 0
1  18 0 -0.000000000000000 35.000000000000000
2  27 3 0 -0.000000000000000 35.000000000000000
2  28 14 21 -0.000000000000000 35.000000000000000
4 G1 3 0 14 21
0

0101000
+137 0 -101 0 *
Ed
 0.000000100000000 1 1 0
1  1 0 1.000000000000000 35.825000000000003
0

0101000
+103 24 -101 24 *
Wi

0101100
-136 12 +102 0 -100 0 +99 23 *
Fa
0  0.000000100000000 14 0

0101000
+98 22 *
Ve
0.000000100000000
-17.412500000000001 -18.412500000000001 17.500000000000000
0 0

0101101
*
Ed
 0.000000100000000 1 1 0
1  19 0 -0.000000000000000 35.000000000000000
2  29 2 0 -0.000000000000000 35.000000000000000
2  30 4 21 -0.000000000000000 35.000000000000000
4 G1 2 0 4 21
0

0101000
+135 0 -96 0 *
Ed
 0.000000100000000 1 1 0
1  20 0 4.712388980384690 6.283185307179586
2  31 2 0 4.712388980384690 6.283185307179586
2  32 1 25 4.712388980384690 6.283185307179586
0

0101000
+103 0 -96 0 *
Wi

0101100
+134 0 -102 0 +95 0 -94 0 *
Fa
0  0.000000000000000 2 0

0101000
+93 0 *
Ve
0.000000100000000
-17.412500000000001 18.412500000000001 17.500000000000000
0 0

0101101
*
Ed
 0.000000100000000 1 1 0
1  21 0 -0.000000000000000 35.000000000000000
2  33 3 0 -0.000000000000000 35.000000000000000
2  34 5 21 -0.000000000000000 35.000000000000000
4 G1 3 0 5 21
0

0101000
+133 0 -91 0 *
Ed
 0.000000100000000 1 1 0
1  22 0 1.570796326794897 3.141592653589793
2  35 3 0 1.570796326794897 3.141592653589793
2  36 1 25 1.570796326794897 3.141592653589793
0

0101000
+101 0 -91 0 *
Wi

0101100
+132 0 -100 0 +90 0 -89 0 *
Fa
0  0.000000000000000 3 0

0101000
+88 0 *
Ve
0.000000100000000
17.412500000000001 -18.412500000000001 17.500000000000000
0 0

0101101
*
Ed
 0.000000100000000 1 1 0
1  23 0 -0.000000000000000 35.000000000000000
2  37 6 0 -0.000000000000000 35.000000000000000
2  38 4 21 -0.000000000000000 35.000000000000000
4 G1 6 0 4 21
0

0101000
+131 0 -86 0 *
Ed
 0.000000100000000 1 1 0
1  4 0 1.000000000000000 35.825000000000003
2  5 4 14 1.000000000000000 35.825000000000003
2  6 4 16 1.000000000000000 35.825000000000003
0

0101000
+86 24 -96 24 *
Wi

0101100
-130 12 +85 0 -95 0 +84 23 *
Ve
0.000000100000001
-3.968750000000002 -18.412499999999998 0.000000000000000
0 0

0101101
*
Ed
 0.000000100000000 1 1 0
1  24 0 0.000000000000000 6.283185307179586
2  39 4 27 0.000000000000000 6.283185307179586
2  40 15 0 0.000000000000000 6.283185307179586
0

0101000
+82 0 -82 0 *
Wi

0101100
+81 0 *
Fa
0  0.000000100000000 4 27

0101000
+83 28 +80 0 *
Ve
0.000000100000000
17.412500000000001 18.412500000000001 17.500000000000000
0 0

0101101
*
Ed
 0.000000100000000 1 1 0
1  25 0 -0.000000000000000 35.000000000000000
2  41 7 0 -0.000000000000000 35.000000000000000
2  42 5 21 -0.000000000000000 35.000000000000000
4 G1 7 0 5 21
0

0101000
+129 0 -78 0 *
Ed
 0.000000100000000 1 1 0
1  5 0 1.000000000000000 35.825000000000003
2  7 5 14 1.000000000000000 35.825000000000003
2  8 5 16 1.000000000000000 35.825000000000003
0

0101000
+91 24 -78 24 *
Wi

0101100
-128 12 +90 0 -77 0 +76 23 *
Ve
0.000000100000001
-3.968749999999998 18.412500000000001 0.000000000000000
0 0

0101101
*
Ed
 0.000000100000000 1 1 0
1  26 0 0.000000000000000 6.283185307179586
2  43 5 27 0.000000000000000 6.283185307179586
2  44 15 0 0.000000000000000 6.283185307179586
0

0101000
+74 0 -74 0 *
Wi

0101100
-73 0 *
Fa
0  0.000000100000000 5 27

0101000
+75 28 +72 0 *
Ve
0.000000100000000
18.412500000000001 -17.412500000000001 17.500000000000000
0 0

0101101
*
Ed
 0.000000100000000 1 1 0
1  27 0 -0.000000000000000 35.000000000000000
2  45 6 0 -0.000000000000000 35.000000000000000
2  46 16 21 -0.000000000000000 35.000000000000000
4 G1 6 0 16 21
0

0101000
+127 0 -70 0 *
Ed
 0.000000100000000 1 1 0
1  28 0 0.000000000000000 1.570796326794897
2  47 6 0 0.000000000000000 1.570796326794897
2  48 1 25 0.000000000000000 1.570796326794897
0

0101000
+86 0 -70 0 *
Wi

0101100
+126 0 -85 0 +69 0 -68 0 *
Fa
0  0.000000000000000 6 0

0101000
+67 0 *
Ve
0.000000100000000
18.412500000000001 17.412500000000001 17.500000000000000
0 0

0101101
*
Ed
 0.000000100000000 1 1 0
1  29 0 -0.000000000000000 35.000000000000000
2  49 7 0 -0.000000000000000 35.000000000000000
2  50 16 21 -0.000000000000000 35.000000000000000
4 G1 7 0 16 21
0

0101000
+125 0 -65 0 *
Ed
 0.000000100000000 1 1 0
1  30 0 1.570796326794897 3.141592653589793
2  51 7 0 1.570796326794897 3.141592653589793
2  52 1 25 1.570796326794897 3.141592653589793
0

0101000
+65 0 -78 0 *
Wi

0101100
+124 0 -64 0 +77 0 -63 0 *
Fa
0  0.000000000000000 7 0

0101000
+62 0 *
Ed
 0.000000100000000 1 1 0
1  8 0 1.000000000000000 35.825000000000003
0

0101000
+65 24 -70 24 *
Wi

0101100
-123 12 +64 0 -69 0 +60 23 *
Fa
0  0.000000100000000 16 0

0101000
+59 22 *
Ve
0.000000100000000
-18.000000000000000 20.000000000000000 17.500000000000000
0 0

0101101
*
Ed
 0.000000100000000 1 1 0
1  31 0 -0.000000000000000 35.000000000000000
2  53 9 0 -0.000000000000000 35.000000000000000
2  54 8 30 -0.000000000000000 35.000000000000000
4 G1 9 0 8 30
0

0101000
+121 0 -57 0 *
Ve
0.000000100000000
18.000000000000000 19.999999999999996 17.500000000000000
0 0

0101101
*
Ed
 0.000000100000000 1 1 0
1  32 0 -0.000000000000000 35.000000000000000
2  55 10 0 -0.000000000000000 35.000000000000000
2  56 8 30 -0.000000000000000 35.000000000000000
4 G1 10 0 8 30
0

0101000
+120 0 -55 0 *
Ed
 0.000000100000000 1 1 0
1  9 0 2.000000000000000 38.000000000000000
2  13 8 14 2.000000000000000 38.000000000000000
2  14 8 16 2.000000000000000 38.000000000000000
0

0101000
+57 32 -55 32 *
Wi

0101100
-119 18 +56 0 -54 0 +53 31 *
Ve
0.000000100000004
3.968750000000000 0.000000000000000 0.000000000000000
0 0

0101101
*
Ed
 0.000000100000004 1 1 0
1  33 0 0.000000000000000 6.283185307179586
2  57 15 36 0.000000000000000 6.283185307179586
2  58 15 38 0.000000000000000 6.283185307179586
2  59 17 39 0.000000000000000 6.283185307179586
2  60 8 40 0.000000000000000 6.283185307179586
0

0101000
+51 0 -51 0 *
Wi

0101100
-50 35 *
Fa
0  0.000000100000000 8 27

0101000
+52 29 +49 0 *
Ve
0.000000100000000
-20.000000000000000 18.000000000000000 17.500000000000000
0 0

0101101
*
Ed
 0.000000100000000 1 1 0
1  34 0 -0.000000000000000 35.000000000000000
2  61 9 0 -0.000000000000000 35.000000000000000
2  62 18 30 -0.000000000000000 35.000000000000000
4 G1 9 0 18 30
0

0101000
+118 0 -47 0 *
Ed
 0.000000100000000 1 1 0
1  35 0 3.141592653589793 4.712388980384690
2  63 9 0 3.141592653589793 4.712388980384690
2  64 1 41 3.141592653589793 4.712388980384690
0

0101000
+57 0 -47 0 *
Wi

0101100
+117 0 -56 0 +46 0 -45 0 *
Fa
0  0.000000000000000 9 0

0101000
+44 0 *
Ve
0.000000100000000
20.000000000000000 17.999999999999996 17.500000000000000
0 0

0101101
*
Ed
 0.000000100000000 1 1 0
1  36 0 -0.000000000000000 35.000000000000000
2  65 10 0 -0.000000000000000 35.000000000000000
2  66 19 30 -0.000000000000000 35.000000000000000
4 G1 10 0 19 30
0

0101000
+116 0 -42 0 *
Ed
 0.000000100000000 1 1 0
1  37 0 3.141592653589793 4.712388980384690
2  67 10 0 3.141592653589793 4.712388980384690
2  68 1 41 3.141592653589793 4.712388980384690
0

0101000
+55 0 -42 0 *
Wi

0101100
+115 0 -54 0 +41 0 -40 0 *
Fa
0  0.000000000000000 10 0

0101000
+39 0 *
Ve
0.000000100000000
-20.000000000000000 -18.000000000000000 17.500000000000000
0 0

0101101
*
Ed
 0.000000100000000 1 1 0
1  38 0 -0.000000000000000 35.000000000000000
2  69 11 0 -0.000000000000000 35.000000000000000
2  70 18 30 -0.000000000000000 35.000000000000000
4 G1 11 0 18 30
0

0101000
+114 0 -37 0 *
Ed
 0.000000100000000 1 1 0
1  12 0 2.000000000000000 38.000000000000000
0

0101000
+37 32 -47 32 *
Wi

0101100
-113 18 +36 0 -46 0 +35 31 *
Fa
0  0.000000100000000 18 0

0101000
+34 42 *
Ve
0.000000100000000
20.000000000000000 -18.000000000000000 17.500000000000000
0 0

0101101
*
Ed
 0.000000100000000 1 1 0
1  39 0 -0.000000000000000 35.000000000000000
2  71 12 0 -0.000000000000000 35.000000000000000
2  72 19 30 -0.000000000000000 35.000000000000000
4 G1 12 0 19 30
0

0101000
+112 0 -32 0 *
Ed
 0.000000100000000 1 1 0
1  13 0 2.000000000000000 38.000000000000000
0

0101000
+42 32 -32 32 *
Wi

0101100
-111 18 +41 0 -31 0 +30 31 *
Fa
0  0.000000100000000 19 0

0101000
+29 42 *
Ve
0.000000100000000
-18.000000000000000 -20.000000000000000 17.500000000000000
0 0

0101101
*
Ed
 0.000000100000000 1 1 0
1  40 0 -0.000000000000000 35.000000000000000
2  73 11 0 -0.000000000000000 35.000000000000000
2  74 13 30 -0.000000000000000 35.000000000000000
4 G1 11 0 13 30
0

0101000
+110 0 -27 0 *
Ed
 0.000000100000000 1 1 0
1  41 0 4.712388980384690 6.283185307179586
2  75 11 0 4.712388980384690 6.283185307179586
2  76 1 41 4.712388980384690 6.283185307179586
0

0101000
+37 0 -27 0 *
Wi

0101100
+109 0 -36 0 +26 0 -25 0 *
Fa
0  0.000000000000000 11 0

0101000
+24 0 *
Ve
0.000000100000000
18.000000000000000 -20.000000000000000 17.500000000000000
0 0

0101101
*
Ed
 0.000000100000000 1 1 0
1  42 0 -0.000000000000000 35.000000000000000
2  77 12 0 -0.000000000000000 35.000000000000000
2  78 13 30 -0.000000000000000 35.000000000000000
4 G1 12 0 13 30
0

0101000
+108 0 -22 0 *
Ed
 0.000000100000000 1 1 0
1  43 0 4.712388980384690 6.283185307179586
2  79 12 0 4.712388980384690 6.283185307179586
2  80 1 41 4.712388980384690 6.283185307179586
0

0101000
+32 0 -22 0 *
Wi

0101100
+107 0 -31 0 +21 0 -20 0 *
Fa
0  0.000000000000000 12 0

0101000
+19 0 *
Ed
 0.000000100000000 1 1 0
1  16 0 2.000000000000000 38.000000000000000
2  23 13 14 2.000000000000000 38.000000000000000
2  24 13 16 2.000000000000000 38.000000000000000
0

0101000
+22 32 -27 32 *
Wi

0101100
-106 18 +21 0 -26 0 +17 31 *
Ve
0.000000100000001
-3.968750000000002 -20.000000000000004 0.000000000000000
0 0

0101101
*
Ed
 0.000000100000000 1 1 0
1  44 0 0.000000000000000 6.283185307179586
2  81 13 27 0.000000000000000 6.283185307179586
2  82 15 0 0.000000000000000 6.283185307179586
0

0101000
+15 0 -15 0 *
Wi

0101100
+14 0 *
Fa
0  0.000000100000000 13 27

0101000
+16 29 +13 0 *
Wi

0101100
-99 23 +94 0 -89 0 -84 23 -76 23 +68 0 +63 0 -60 23 *
Wi

0101100
+53 31 -45 0 +40 0 +35 31 +30 31 -25 0 +20 0 +17 31 *
Fa
0  0.000000100000000 1 0

0101000
+11 43 +10 44 *
Ed
 0.000000100000000 1 1 0
1  45 0 38.412499999999994 40.000000000000000
3  83 84CN 15 0 38.412499999999994 40.000000000000000
0

0101000
+82 0 -15 0 *
Wi

0101100
-81 0 -8 0 +14 0 +8 0 *
Fa
0  0.000000100000000 15 0

0101000
+7 0 *
Ed
 0.000000100000000 1 1 0
1  45 0 0.000000000000000 1.587499999999995
3  83 84CN 15 0 0.000000000000000 1.587499999999995
0

0101000
+51 35 -74 0 *
Wi

0101100
-50 35 -5 0 +73 0 +5 0 *
Fa
0  0.000000100000000 15 0

0101000
+4 0 *
Sh

0101100
+104 8 -97 21 -92 0 +87 0 -79 26 -71 26 -66 0 -61 0 -58 21 +48 26 
+43 7 -38 7 +33 21 +28 21 +23 7 -18 7 +12 26 -9 25 -6 26 -3 26 
*
So

0100000
+2 0 *

+1 1 