
CASCADE Topology V1, (c) Matra-Datavision
Locations 36
1
1.000000000000000 0.000000000000000 0.000000000000000 0.000000000000000 
0.000000000000000 0.000000000000000 -1.000000000000000 0.000000000000000 
0.000000000000000 1.000000000000000 0.000000000000000 0.000000000000000 
1
1.000000000000000 0.000000000000000 0.000000000000000 0.000000000000000 
0.000000000000000 1.000000000000000 0.000000000000000 0.000000000000000 
0.000000000000000 0.000000000000000 1.000000000000000 0.000000000000000 
1
1.000000000000000 0.000000000000000 0.000000000000000 0.000000000000000 
0.000000000000000 -0.000000000000000 -1.000000000000000 0.000000000000000 
0.000000000000000 1.000000000000000 -0.000000000000000 0.000000000000000 
1
1.000000000000000 0.000000000000000 0.000000000000000 0.000000000000000 
0.000000000000000 -0.000000000000000 -1.000000000000000 0.000000000000000 
0.000000000000000 1.000000000000000 -0.000000000000000 0.000000000000000 
2  3 1 4 -1 0
2  2 -1 0
1
1.000000000000000 0.000000000000000 0.000000000000000 0.000000000000000 
0.000000000000000 1.000000000000000 0.000000000000000 0.000000000000000 
0.000000000000000 0.000000000000000 1.000000000000000 0.000000000000000 
1
1.000000000000000 0.000000000000000 0.000000000000000 0.000000000000000 
0.000000000000000 -0.000000000000000 -1.000000000000000 0.000000000000000 
0.000000000000000 1.000000000000000 -0.000000000000000 0.000000000000000 
1
1.000000000000000 0.000000000000000 0.000000000000000 0.000000000000000 
0.000000000000000 -0.000000000000000 -1.000000000000000 0.000000000000000 
0.000000000000000 1.000000000000000 -0.000000000000000 0.000000000000000 
1
1.000000000000000 0.000000000000000 0.000000000000000 -0.000000000000000 
0.000000000000000 1.000000000000000 0.000000000000000 -0.000000000000000 
0.000000000000000 0.000000000000000 1.000000000000000 -17.500000000000000 
2  7 1 8 1 9 -1 10 1 3 1 4 -1 2 1 0
2  10 -1 9 1 8 -1 7 -1 0
1
1.000000000000000 0.000000000000000 0.000000000000000 0.000000000000000 
0.000000000000000 1.000000000000000 0.000000000000000 0.000000000000000 
0.000000000000000 0.000000000000000 1.000000000000000 35.000000000000000 
2  13 -1 10 -1 9 1 8 -1 7 -1 0
2  2 -1 4 1 3 -1 10 -1 9 1 8 -1 7 -1 0
2  3 1 4 -1 2 1 0
2  7 1 8 1 9 -1 10 1 13 1 3 1 4 -1 2 1 0
2  2 -1 4 1 3 -1 13 -1 10 -1 9 1 8 -1 7 -1 0
1
1.000000000000000 0.000000000000000 0.000000000000000 0.000000000000000 
0.000000000000000 1.000000000000000 0.000000000000000 0.000000000000000 
0.000000000000000 0.000000000000000 1.000000000000000 0.000000000000000 
1
-1.000000000000000 0.000000000000000 0.000000000000000 0.000000000000002 
0.000000000000000 -1.000000000000000 0.000000000000000 -0.000000000000004 
0.000000000000000 -0.000000000000000 1.000000000000000 19.999999999999996 
2  19 1 20 1 4 -1 0
2  4 1 20 -1 19 -1 0
1
1.000000000000000 0.000000000000000 0.000000000000000 -0.000000000000012 
0.000000000000000 1.000000000000000 0.000000000000000 -134.371760426065748 
0.000000000000000 0.000000000000000 1.000000000000000 0.000000000000000 
2  23 -1 4 1 20 -1 19 -1 0
2  20 -1 19 -1 0
2  3 1 20 -1 19 -1 0
2  9 -1 10 1 3 1 4 -1 2 1 0
2  2 -1 4 1 3 -1 10 -1 9 1 0
2  7 1 8 1 0
2  9 -1 10 1 13 1 3 1 4 -1 2 1 0
2  2 -1 4 1 3 -1 13 -1 10 -1 9 1 0
2  2 -1 4 1 3 -1 0
2  7 1 8 1 9 -1 10 1 0
2  7 1 8 1 9 -1 10 1 13 1 0
2  7 1 8 1 9 -1 10 1 3 1 4 -1 0
2  7 1 8 1 9 -1 10 1 13 1 3 1 4 -1 0
Curve2ds 56
1 0.00000000000000000 0.00000000000000000 1.00000000000000000 0.00000000000000000 
1 0.00000000000000000 -35.00000000000000000 1.00000000000000000 0.00000000000000000 
1 0.00000000000000000 0.00000000000000000 0.00000000000000000 1.00000000000000000 
1 2.00000000000000000 0.00000000000000000 0.00000000000000000 -1.00000000000000000 
1 0.00000000000000000 0.00000000000000000 0.00000000000000000 1.00000000000000000 
1 38.00000000000000000 0.00000000000000000 0.00000000000000000 -1.00000000000000000 
1 0.00000000000000000 0.00000000000000000 1.00000000000000000 0.00000000000000000 
1 0.00000000000000000 -134.37176042606574811 1.00000000000000000 0.00000000000000000 
2 -0.00000000000000020 0.00000000000000010 -1.00000000000000000 -0.00000000000000000 0.00000000000000000 -1.00000000000000000 3.96875000000000000
2 20.00000000000000000 -17.50000000000000000 -1.00000000000000000 -0.00000000000000000 0.00000000000000000 -1.00000000000000000 3.96875000000000000
1 -3.14159265358979312 0.00000000000000000 1.00000000000000000 0.00000000000000000 
2 18.00000000000000000 -18.00000000000000000 -1.00000000000000000 0.00000000000000000 0.00000000000000000 1.00000000000000000 2.00000000000000000
1 -3.14159265358979312 0.00000000000000000 1.00000000000000000 0.00000000000000000 
2 17.99999999999999645 18.00000000000000000 -1.00000000000000000 0.00000000000000000 -0.00000000000000000 -1.00000000000000000 2.00000000000000000
1 -4.71238898038468967 0.00000000000000000 1.00000000000000000 0.00000000000000000 
2 -18.00000000000000000 -18.00000000000000000 -1.00000000000000000 0.00000000000000000 0.00000000000000000 1.00000000000000000 2.00000000000000000
1 -4.71238898038468967 0.00000000000000000 1.00000000000000000 0.00000000000000000 
2 -18.00000000000000000 18.00000000000000000 -1.00000000000000000 0.00000000000000000 -0.00000000000000000 -1.00000000000000000 2.00000000000000000
1 0.00000000000000000 -0.00000000000000000 1.00000000000000000 0.00000000000000000 
1 0.00000000000000000 -35.00000000000000000 1.00000000000000000 0.00000000000000000 
1 0.00000000000000000 -0.00000000000000000 1.00000000000000000 0.00000000000000000 
1 0.00000000000000000 -35.00000000000000000 1.00000000000000000 0.00000000000000000 
1 0.00000000000000000 0.00000000000000000 1.00000000000000000 0.00000000000000000 
1 0.00000000000000000 -35.00000000000000000 1.00000000000000000 0.00000000000000000 
1 1.57079632679489678 0.00000000000000000 0.00000000000000000 1.00000000000000000 
1 38.00000000000000000 0.00000000000000000 0.00000000000000000 -1.00000000000000000 
1 -3.14159265358979312 35.00000000000000000 1.00000000000000000 0.00000000000000000 
2 18.00000000000000000 -18.00000000000000000 -1.00000000000000000 0.00000000000000000 0.00000000000000000 1.00000000000000000 2.00000000000000000
1 1.57079632679489656 0.00000000000000000 0.00000000000000000 1.00000000000000000 
1 2.00000000000000000 0.00000000000000000 0.00000000000000000 -1.00000000000000000 
1 -3.14159265358979312 35.00000000000000000 1.00000000000000000 0.00000000000000000 
2 17.99999999999999645 18.00000000000000000 -1.00000000000000000 0.00000000000000000 -0.00000000000000000 -1.00000000000000000 2.00000000000000000
1 -4.71238898038468967 35.00000000000000000 1.00000000000000000 0.00000000000000000 
2 -18.00000000000000000 -18.00000000000000000 -1.00000000000000000 0.00000000000000000 0.00000000000000000 1.00000000000000000 2.00000000000000000
1 -4.71238898038468967 35.00000000000000000 1.00000000000000000 0.00000000000000000 
2 -18.00000000000000000 18.00000000000000000 -1.00000000000000000 0.00000000000000000 -0.00000000000000000 -1.00000000000000000 2.00000000000000000
1 0.00000000000000000 0.00000000000000000 0.00000000000000000 -1.00000000000000000 
1 6.28318530717958623 0.00000000000000000 0.00000000000000000 -1.00000000000000000 
2 18.41250000000000142 -17.50000000000000000 -1.00000000000000000 0.00000000000000000 -0.00000000000000000 -1.00000000000000000 3.96875000000000000
1 0.00000000000000000 -1.58749999999999503 1.00000000000000000 0.00000000000000000 
1 0.00000000000000000 0.00000000000000000 0.00000000000000000 1.00000000000000000 
1 2.00000000000000000 0.00000000000000000 0.00000000000000000 -1.00000000000000000 
1 0.00000000000000000 0.00000000000000000 0.00000000000000000 1.00000000000000000 
1 38.00000000000000000 0.00000000000000000 0.00000000000000000 -1.00000000000000000 
1 1.57079632679489656 0.00000000000000000 0.00000000000000000 1.00000000000000000 
1 38.00000000000000000 0.00000000000000000 0.00000000000000000 -1.00000000000000000 
1 1.57079632679489656 0.00000000000000000 0.00000000000000000 1.00000000000000000 
1 2.00000000000000000 0.00000000000000000 0.00000000000000000 -1.00000000000000000 
2 20.00000000000000000 -17.50000000000000000 1.00000000000000000 0.00000000000000000 0.00000000000000000 -1.00000000000000000 3.96875000000000000
1 0.00000000000000000 -40.00000000000000000 1.00000000000000000 0.00000000000000000 
1 36.82500000000000284 0.00000000000000000 0.00000000000000000 -1.00000000000000000 
1 0.00000000000000000 0.00000000000000000 0.00000000000000000 -1.00000000000000000 
1 0.00000000000000000 -0.00000000000000000 0.00000000000000000 -1.00000000000000000 
2 18.41250000000000142 -17.50000000000000000 1.00000000000000000 0.00000000000000000 0.00000000000000000 -1.00000000000000000 3.96875000000000000
1 0.00000000000000000 -38.41249999999999432 1.00000000000000000 0.00000000000000000 
1 36.82500000000000284 0.00000000000000000 0.00000000000000000 -1.00000000000000000 
Curves 33
1 -20.00000000000000000 20.00000000000000000 0.00000000000000000 1.00000000000000000 -0.00000000000000009 0.00000000000000000 
1 -18.00000000000000000 20.00000000000000000 -17.50000000000000000 0.00000000000000000 0.00000000000000000 1.00000000000000000 
1 18.00000000000000000 19.99999999999999645 -17.50000000000000000 0.00000000000000000 0.00000000000000000 1.00000000000000000 
2 0.00000000000000000 0.00000000000000000 0.00000000000000000 0.00000000000000000 0.00000000000000000 1.00000000000000000 1.00000000000000000 0.00000000000000000 -0.00000000000000000 -0.00000000000000000 1.00000000000000000 0.00000000000000000 3.96875000000000000
8 3.14159265358979312 4.71238898038468967
2 -18.00000000000000000 18.00000000000000000 -17.50000000000000000 0.00000000000000000 0.00000000000000000 1.00000000000000000 0.00000000000000000 -1.00000000000000000 0.00000000000000000 1.00000000000000000 0.00000000000000000 -0.00000000000000000 2.00000000000000000
8 3.14159265358979312 4.71238898038468967
2 18.00000000000000000 17.99999999999999645 -17.50000000000000000 -0.00000000000000000 -0.00000000000000000 -1.00000000000000000 0.00000000000000000 -1.00000000000000000 0.00000000000000000 -1.00000000000000000 0.00000000000000000 0.00000000000000000 2.00000000000000000
1 -20.00000000000000000 -20.00000000000000000 0.00000000000000000 0.00000000000000000 1.00000000000000000 0.00000000000000000 
1 20.00000000000000000 19.99999999999999645 0.00000000000000000 0.00000000000000000 -1.00000000000000000 0.00000000000000000 
8 4.71238898038468967 6.28318530717958623
2 -18.00000000000000000 -18.00000000000000000 -17.50000000000000000 0.00000000000000000 0.00000000000000000 1.00000000000000000 0.00000000000000000 -1.00000000000000000 0.00000000000000000 1.00000000000000000 0.00000000000000000 -0.00000000000000000 2.00000000000000000
8 4.71238898038468967 6.28318530717958623
2 18.00000000000000000 -18.00000000000000000 -17.50000000000000000 -0.00000000000000000 -0.00000000000000000 -1.00000000000000000 0.00000000000000000 -1.00000000000000000 0.00000000000000000 -1.00000000000000000 0.00000000000000000 0.00000000000000000 2.00000000000000000
1 20.00000000000000000 -20.00000000000000000 0.00000000000000000 -1.00000000000000000 0.00000000000000000 0.00000000000000000 
1 -18.41250000000000142 -18.41250000000000142 0.00000000000000000 0.00000000000000000 1.00000000000000000 0.00000000000000000 
1 18.41250000000000142 -18.41250000000000142 0.00000000000000000 -1.00000000000000000 0.00000000000000000 0.00000000000000000 
1 18.41250000000000142 18.41250000000000142 0.00000000000000000 0.00000000000000000 -1.00000000000000000 0.00000000000000000 
1 -18.41250000000000142 18.41250000000000142 0.00000000000000000 1.00000000000000000 0.00000000000000000 0.00000000000000000 
1 -20.00000000000000000 18.00000000000000000 -17.50000000000000000 0.00000000000000000 0.00000000000000000 1.00000000000000000 
8 3.14159265358979312 4.71238898038468967
2 -18.00000000000000000 18.00000000000000000 17.50000000000000000 0.00000000000000000 0.00000000000000000 1.00000000000000000 0.00000000000000000 -1.00000000000000000 0.00000000000000000 1.00000000000000000 0.00000000000000000 -0.00000000000000000 2.00000000000000000
1 20.00000000000000000 17.99999999999999645 -17.50000000000000000 0.00000000000000000 0.00000000000000000 1.00000000000000000 
8 3.14159265358979312 4.71238898038468967
2 18.00000000000000000 17.99999999999999645 17.50000000000000000 -0.00000000000000000 -0.00000000000000000 -1.00000000000000000 0.00000000000000000 -1.00000000000000000 0.00000000000000000 -1.00000000000000000 0.00000000000000000 0.00000000000000000 2.00000000000000000
8 4.71238898038468967 6.28318530717958623
2 -18.00000000000000000 -18.00000000000000000 17.50000000000000000 0.00000000000000000 0.00000000000000000 1.00000000000000000 0.00000000000000000 -1.00000000000000000 0.00000000000000000 1.00000000000000000 0.00000000000000000 -0.00000000000000000 2.00000000000000000
8 4.71238898038468967 6.28318530717958623
2 18.00000000000000000 -18.00000000000000000 17.50000000000000000 -0.00000000000000000 -0.00000000000000000 -1.00000000000000000 0.00000000000000000 -1.00000000000000000 0.00000000000000000 -1.00000000000000000 0.00000000000000000 0.00000000000000000 2.00000000000000000
1 -3.96874999999999822 19.99999999999999645 0.00000000000000000 -0.00000000000000009 -1.00000000000000000 0.00000000000000000 
2 0.00000000000000164 18.41250000000000142 0.00000000000000000 0.00000000000000009 1.00000000000000000 -0.00000000000000000 -1.00000000000000000 0.00000000000000009 0.00000000000000000 0.00000000000000000 0.00000000000000000 1.00000000000000000 3.96875000000000000
1 -20.00000000000000000 -18.00000000000000000 -17.50000000000000000 0.00000000000000000 0.00000000000000000 1.00000000000000000 
1 20.00000000000000000 -18.00000000000000000 -17.50000000000000000 0.00000000000000000 0.00000000000000000 1.00000000000000000 
1 -18.00000000000000000 -20.00000000000000000 -17.50000000000000000 0.00000000000000000 0.00000000000000000 1.00000000000000000 
1 18.00000000000000000 -20.00000000000000000 -17.50000000000000000 0.00000000000000000 0.00000000000000000 1.00000000000000000 
2 -0.00000000000000178 -20.00000000000000355 0.00000000000000000 0.00000000000000009 1.00000000000000000 -0.00000000000000000 -1.00000000000000000 0.00000000000000009 0.00000000000000000 0.00000000000000000 0.00000000000000000 1.00000000000000000 3.96875000000000000
1 -18.41250000000000142 -18.41250000000000142 -17.50000000000000000 0.00000000000000000 0.00000000000000000 1.00000000000000000 
1 -18.41250000000000142 18.41250000000000142 -17.50000000000000000 0.00000000000000000 0.00000000000000000 1.00000000000000000 
1 18.41250000000000142 -18.41250000000000142 -17.50000000000000000 0.00000000000000000 0.00000000000000000 1.00000000000000000 
2 -0.00000000000000164 -18.41249999999999787 0.00000000000000000 0.00000000000000009 1.00000000000000000 -0.00000000000000000 -1.00000000000000000 0.00000000000000009 0.00000000000000000 0.00000000000000000 0.00000000000000000 1.00000000000000000 3.96875000000000000
1 18.41250000000000142 18.41250000000000142 -17.50000000000000000 0.00000000000000000 0.00000000000000000 1.00000000000000000 
Polygon3D 0
PolygonOnTriangulations 0
Surfaces 15
1 -20.00000000000000000 20.00000000000000000 -17.50000000000000000 0.00000000000000009 1.00000000000000000 -0.00000000000000000 1.00000000000000000 -0.00000000000000009 0.00000000000000000 0.00000000000000000 -0.00000000000000000 -1.00000000000000000 
2 -18.00000000000000000 18.00000000000000000 -17.50000000000000000 0.00000000000000000 0.00000000000000000 1.00000000000000000 0.00000000000000009 1.00000000000000000 -0.00000000000000000 -1.00000000000000000 0.00000000000000009 0.00000000000000000 2.00000000000000000
2 18.00000000000000000 17.99999999999999645 -17.50000000000000000 0.00000000000000000 0.00000000000000000 1.00000000000000000 0.00000000000000009 1.00000000000000000 -0.00000000000000000 1.00000000000000000 -0.00000000000000009 -0.00000000000000000 2.00000000000000000
2 0.00000000000000178 19.99999999999999645 0.00000000000000000 0.00000000000000009 1.00000000000000000 -0.00000000000000000 -1.00000000000000000 0.00000000000000009 0.00000000000000000 0.00000000000000000 0.00000000000000000 1.00000000000000000 3.96875000000000000
1 0.00000000000000198 -0.00000000000000454 19.99999999999999645 0.00000000000000000 0.00000000000000000 1.00000000000000000 1.00000000000000000 0.00000000000000000 -0.00000000000000000 -0.00000000000000000 1.00000000000000000 0.00000000000000000 
1 0.00000000000000000 0.00000000000000000 0.00000000000000000 0.00000000000000000 1.00000000000000000 0.00000000000000022 0.00000000000000000 -0.00000000000000022 1.00000000000000000 1.00000000000000000 0.00000000000000000 -0.00000000000000000 
2 -18.00000000000000000 -18.00000000000000000 -17.50000000000000000 0.00000000000000000 0.00000000000000000 1.00000000000000000 -1.00000000000000000 0.00000000000000000 0.00000000000000000 0.00000000000000000 -1.00000000000000000 0.00000000000000000 2.00000000000000000
2 18.00000000000000000 -18.00000000000000000 -17.50000000000000000 0.00000000000000000 0.00000000000000000 1.00000000000000000 1.00000000000000000 0.00000000000000000 -0.00000000000000000 0.00000000000000000 -1.00000000000000000 -0.00000000000000000 2.00000000000000000
1 20.00000000000000000 -20.00000000000000000 -17.50000000000000000 0.00000000000000000 -1.00000000000000000 0.00000000000000000 -1.00000000000000000 0.00000000000000000 0.00000000000000000 -0.00000000000000000 -0.00000000000000000 -1.00000000000000000 
1 18.41250000000000142 -18.41250000000000142 -17.50000000000000000 0.00000000000000000 -1.00000000000000000 0.00000000000000000 -1.00000000000000000 0.00000000000000000 0.00000000000000000 -0.00000000000000000 -0.00000000000000000 -1.00000000000000000 
1 -18.41250000000000142 18.41250000000000142 -17.50000000000000000 0.00000000000000000 1.00000000000000000 0.00000000000000000 1.00000000000000000 0.00000000000000000 0.00000000000000000 0.00000000000000000 0.00000000000000000 -1.00000000000000000 
1 -20.00000000000000000 -20.00000000000000000 -17.50000000000000000 -1.00000000000000000 0.00000000000000000 0.00000000000000000 0.00000000000000000 1.00000000000000000 0.00000000000000000 0.00000000000000000 0.00000000000000000 -1.00000000000000000 
1 20.00000000000000000 19.99999999999999645 -17.50000000000000000 1.00000000000000000 0.00000000000000000 -0.00000000000000000 0.00000000000000000 -1.00000000000000000 0.00000000000000000 0.00000000000000000 -0.00000000000000000 -1.00000000000000000 
1 -18.41250000000000142 -18.41250000000000142 -17.50000000000000000 -1.00000000000000000 0.00000000000000000 0.00000000000000000 0.00000000000000000 1.00000000000000000 0.00000000000000000 0.00000000000000000 0.00000000000000000 -1.00000000000000000 
1 18.41250000000000142 18.41250000000000142 -17.50000000000000000 1.00000000000000000 0.00000000000000000 -0.00000000000000000 0.00000000000000000 -1.00000000000000000 0.00000000000000000 0.00000000000000000 -0.00000000000000000 -1.00000000000000000 
Triangulations 0

TShapes 101
Ve
0.000000100000000
-18.000000000000000 20.000000000000000 -17.500000000000000
0 0

0101101
*
Ve
0.000000100000000
18.000000000000000 19.999999999999996 -17.500000000000000
0 0

0101101
*
Ed
 0.000000100000000 1 1 0
1  1 0 2.000000000000000 38.000000000000000
2  1 1 12 2.000000000000000 38.000000000000000
2  2 1 14 2.000000000000000 38.000000000000000
0

0101000
+101 15 -100 15 *
Ve
0.000000100000000
-18.000000000000000 20.000000000000000 17.500000000000000
0 0

0101101
*
Ed
 0.000000100000000 1 1 0
1  2 0 -0.000000000000000 35.000000000000000
2  3 2 0 -0.000000000000000 35.000000000000000
2  4 1 16 -0.000000000000000 35.000000000000000
4 G1 2 0 1 16
0

0101000
+101 0 -98 0 *
Ve
0.000000100000000
18.000000000000000 19.999999999999996 17.500000000000000
0 0

0101101
*
Ed
 0.000000100000000 1 1 0
1  3 0 -0.000000000000000 35.000000000000000
2  5 3 0 -0.000000000000000 35.000000000000000
2  6 1 16 -0.000000000000000 35.000000000000000
4 G1 3 0 1 16
0

0101000
+100 0 -96 0 *
Ed
 0.000000100000000 1 1 0
1  1 0 2.000000000000000 38.000000000000000
2  1 1 12 2.000000000000000 38.000000000000000
2  2 1 14 2.000000000000000 38.000000000000000
0

0101000
+98 18 -96 18 *
Wi

0101100
-99 11 +97 0 -95 0 +94 17 *
Ve
0.000000100000004
3.968750000000000 0.000000000000000 0.000000000000000
0 0

0101101
*
Ed
 0.000000100000004 1 1 0
1  4 0 0.000000000000000 6.283185307179586
2  7 4 22 0.000000000000000 6.283185307179586
2  8 4 24 0.000000000000000 6.283185307179586
2  9 5 25 0.000000000000000 6.283185307179586
2  10 1 26 0.000000000000000 6.283185307179586
0

0101000
+92 0 -92 0 *
Wi

0101100
-91 21 *
Fa
0  0.000000100000000 1 5

0101000
+93 6 +90 0 *
Ve
0.000000100000000
-20.000000000000000 18.000000000000000 -17.500000000000000
0 0

0101101
*
Ed
 0.000000100000000 1 1 0
1  5 0 3.141592653589793 4.712388980384690
2  11 2 0 3.141592653589793 4.712388980384690
2  12 6 27 3.141592653589793 4.712388980384690
0

0101000
+101 0 -88 0 *
Ve
0.000000100000000
20.000000000000000 17.999999999999996 -17.500000000000000
0 0

0101101
*
Ed
 0.000000100000000 1 1 0
1  6 0 3.141592653589793 4.712388980384690
2  13 3 0 3.141592653589793 4.712388980384690
2  14 6 27 3.141592653589793 4.712388980384690
0

0101000
+100 0 -86 0 *
Ve
0.000000100000000
-20.000000000000000 -18.000000000000000 -17.500000000000000
0 0

0101101
*
Ed
 0.000000100000000 1 1 0
1  7 0 2.000000000000000 38.000000000000000
0

0101000
+84 15 -88 15 *
Ve
0.000000100000000
20.000000000000000 -18.000000000000000 -17.500000000000000
0 0

0101101
*
Ed
 0.000000100000000 1 1 0
1  8 0 2.000000000000000 38.000000000000000
0

0101000
+86 15 -82 15 *
Ve
0.000000100000000
-18.000000000000000 -20.000000000000000 -17.500000000000000
0 0

0101101
*
Ed
 0.000000100000000 1 1 0
1  9 0 4.712388980384690 6.283185307179586
2  15 7 0 4.712388980384690 6.283185307179586
2  16 6 27 4.712388980384690 6.283185307179586
0

0101000
+84 0 -80 0 *
Ve
0.000000100000000
18.000000000000000 -20.000000000000000 -17.500000000000000
0 0

0101101
*
Ed
 0.000000100000000 1 1 0
1  10 0 4.712388980384690 6.283185307179586
2  17 8 0 4.712388980384690 6.283185307179586
2  18 6 27 4.712388980384690 6.283185307179586
0

0101000
+82 0 -78 0 *
Ed
 0.000000100000000 1 1 0
1  11 0 2.000000000000000 38.000000000000000
2  19 9 12 2.000000000000000 38.000000000000000
2  20 9 14 2.000000000000000 38.000000000000000
0

0101000
+78 15 -80 15 *
Wi

0101100
+99 11 -87 0 +85 0 +83 11 +81 11 -79 0 +77 0 +76 11 *
Ve
0.000000100000000
-18.412500000000001 -18.412500000000001 0.000000000000000
0 0

0101101
*
Ve
0.000000100000000
-18.412500000000001 18.412500000000001 0.000000000000000
0 0

0101101
*
Ed
 0.000000100000000 1 1 0
1  12 0 0.000000000000000 36.825000000000003
0

0101000
+74 0 -73 0 *
Ve
0.000000100000000
18.412500000000001 -18.412500000000001 0.000000000000000
0 0

0101101
*
Ed
 0.000000100000000 1 1 0
1  13 0 0.000000000000000 36.825000000000003
2  21 10 12 0.000000000000000 36.825000000000003
2  22 10 14 0.000000000000000 36.825000000000003
0

0101000
+71 0 -74 0 *
Ve
0.000000100000000
18.412500000000001 18.412500000000001 0.000000000000000
0 0

0101101
*
Ed
 0.000000100000000 1 1 0
1  14 0 0.000000000000000 36.825000000000003
0

0101000
+69 0 -71 0 *
Ed
 0.000000100000000 1 1 0
1  15 0 0.000000000000000 36.825000000000003
2  23 11 12 0.000000000000000 36.825000000000003
2  24 11 14 0.000000000000000 36.825000000000003
0

0101000
+73 0 -69 0 *
Wi

0101100
-72 29 -70 29 -68 29 -67 29 *
Fa
0  0.000000100000000 6 0

0101000
+75 28 +66 0 *
Ve
0.000000100000000
-20.000000000000000 18.000000000000000 17.500000000000000
0 0

0101101
*
Ed
 0.000000100000000 1 1 0
1  16 0 -0.000000000000000 35.000000000000000
2  25 2 0 -0.000000000000000 35.000000000000000
2  26 12 16 -0.000000000000000 35.000000000000000
4 G1 2 0 12 16
0

0101000
+88 0 -64 0 *
Ed
 0.000000100000000 1 1 0
1  17 0 3.141592653589793 4.712388980384690
2  27 2 0 3.141592653589793 4.712388980384690
2  28 6 30 3.141592653589793 4.712388980384690
0

0101000
+98 0 -64 0 *
Wi

0101100
+87 0 -97 0 +63 0 -62 0 *
Fa
0  0.000000000000000 2 0

0101000
+61 0 *
Ve
0.000000100000000
20.000000000000000 17.999999999999996 17.500000000000000
0 0

0101101
*
Ed
 0.000000100000000 1 1 0
1  18 0 -0.000000000000000 35.000000000000000
2  29 3 0 -0.000000000000000 35.000000000000000
2  30 13 16 -0.000000000000000 35.000000000000000
4 G1 3 0 13 16
0

0101000
+86 0 -59 0 *
Ed
 0.000000100000000 1 1 0
1  19 0 3.141592653589793 4.712388980384690
2  31 3 0 3.141592653589793 4.712388980384690
2  32 6 30 3.141592653589793 4.712388980384690
0

0101000
+96 0 -59 0 *
Wi

0101100
+85 0 -95 0 +58 0 -57 0 *
Fa
0  0.000000000000000 3 0

0101000
+56 0 *
Ve
0.000000100000000
-20.000000000000000 -18.000000000000000 17.500000000000000
0 0

0101101
*
Ed
 0.000000100000000 1 1 0
1  7 0 2.000000000000000 38.000000000000000
0

0101000
+54 18 -64 18 *
Ve
0.000000100000000
20.000000000000000 -18.000000000000000 17.500000000000000
0 0

0101101
*
Ed
 0.000000100000000 1 1 0
1  8 0 2.000000000000000 38.000000000000000
0

0101000
+59 18 -52 18 *
Ve
0.000000100000000
-18.000000000000000 -20.000000000000000 17.500000000000000
0 0

0101101
*
Ed
 0.000000100000000 1 1 0
1  20 0 4.712388980384690 6.283185307179586
2  33 7 0 4.712388980384690 6.283185307179586
2  34 6 30 4.712388980384690 6.283185307179586
0

0101000
+54 0 -50 0 *
Ve
0.000000100000000
18.000000000000000 -20.000000000000000 17.500000000000000
0 0

0101101
*
Ed
 0.000000100000000 1 1 0
1  21 0 4.712388980384690 6.283185307179586
2  35 8 0 4.712388980384690 6.283185307179586
2  36 6 30 4.712388980384690 6.283185307179586
0

0101000
+52 0 -48 0 *
Ed
 0.000000100000000 1 1 0
1  11 0 2.000000000000000 38.000000000000000
2  19 9 12 2.000000000000000 38.000000000000000
2  20 9 14 2.000000000000000 38.000000000000000
0

0101000
+48 18 -50 18 *
Wi

0101100
+94 17 -62 0 +57 0 +53 17 +51 17 -49 0 +47 0 +46 17 *
Fa
0  0.000000100000000 6 0

0101000
+45 31 +66 0 *
Ve
0.000000100000001
-3.968749999999998 18.412500000000001 0.000000000000000
0 0

0101101
*
Ed
 0.000000100000000 1 1 0
1  22 0 0.000000000000000 1.587499999999995
3  37 38CN 4 0 0.000000000000000 1.587499999999995
0

0101000
+92 21 -43 0 *
Ed
 0.000000100000000 1 1 0
1  23 0 0.000000000000000 6.283185307179586
2  39 11 5 0.000000000000000 6.283185307179586
2  40 4 0 0.000000000000000 6.283185307179586
0

0101000
+43 0 -43 0 *
Wi

0101100
-91 21 -42 0 +41 0 +42 0 *
Fa
0  0.000000100000000 4 0

0101000
+40 0 *
Ed
 0.000000100000000 1 1 0
1  24 0 -0.000000000000000 35.000000000000000
2  41 7 0 -0.000000000000000 35.000000000000000
2  42 12 16 -0.000000000000000 35.000000000000000
4 G1 7 0 12 16
0

0101000
+84 0 -54 0 *
Wi

0101100
-83 11 +38 0 -63 0 +53 17 *
Fa
0  0.000000100000000 12 0

0101000
+37 32 *
Ed
 0.000000100000000 1 1 0
1  25 0 -0.000000000000000 35.000000000000000
2  43 8 0 -0.000000000000000 35.000000000000000
2  44 13 16 -0.000000000000000 35.000000000000000
4 G1 8 0 13 16
0

0101000
+82 0 -52 0 *
Wi

0101100
-81 11 +58 0 -35 0 +51 17 *
Fa
0  0.000000100000000 13 0

0101000
+34 32 *
Ed
 0.000000100000000 1 1 0
1  26 0 -0.000000000000000 35.000000000000000
2  45 7 0 -0.000000000000000 35.000000000000000
2  46 9 16 -0.000000000000000 35.000000000000000
4 G1 7 0 9 16
0

0101000
+80 0 -50 0 *
Wi

0101100
+79 0 -38 0 +32 0 -49 0 *
Fa
0  0.000000000000000 7 0

0101000
+31 0 *
Ed
 0.000000100000000 1 1 0
1  27 0 -0.000000000000000 35.000000000000000
2  47 8 0 -0.000000000000000 35.000000000000000
2  48 9 16 -0.000000000000000 35.000000000000000
4 G1 8 0 9 16
0

0101000
+78 0 -48 0 *
Wi

0101100
+77 0 -35 0 +29 0 -47 0 *
Fa
0  0.000000000000000 8 0

0101000
+28 0 *
Wi

0101100
-76 11 +29 0 -32 0 +46 17 *
Ve
0.000000100000001
-3.968750000000002 -20.000000000000004 0.000000000000000
0 0

0101101
*
Ed
 0.000000100000000 1 1 0
1  28 0 0.000000000000000 6.283185307179586
2  49 9 5 0.000000000000000 6.283185307179586
2  50 4 0 0.000000000000000 6.283185307179586
0

0101000
+25 0 -25 0 *
Wi

0101100
+24 0 *
Fa
0  0.000000100000000 9 5

0101000
+26 6 +23 0 *
Ed
 0.000000100000000 1 1 0
1  29 0 0.000000000000000 35.000000000000000
2  51 10 0 0.000000000000000 35.000000000000000
0

0101000
+74 33 -74 34 *
Ed
 0.000000100000000 1 1 0
1  30 0 0.000000000000000 35.000000000000000
2  52 11 0 0.000000000000000 35.000000000000000
0

0101000
+73 33 -73 34 *
Wi

0101100
+21 0 -20 0 -72 33 +72 34 *
Fa
0  0.000000100000000 14 0

0101000
+19 0 *
Ed
 0.000000100000000 1 1 0
1  31 0 0.000000000000000 35.000000000000000
2  53 10 0 0.000000000000000 35.000000000000000
0

0101000
+71 33 -71 34 *
Wi

0101100
+17 5 -70 35 +70 36 -21 5 *
Ve
0.000000100000001
-3.968750000000002 -18.412499999999998 0.000000000000000
0 0

0101101
*
Ed
 0.000000100000000 1 1 0
1  32 0 0.000000000000000 6.283185307179586
2  54 10 5 0.000000000000000 6.283185307179586
2  55 4 0 0.000000000000000 6.283185307179586
0

0101000
+15 0 -15 0 *
Wi

0101100
+14 0 *
Fa
0  0.000000100000000 10 5

0101000
+16 0 +13 0 *
Ed
 0.000000100000000 1 1 0
1  33 0 0.000000000000000 35.000000000000000
2  56 11 0 0.000000000000000 35.000000000000000
0

0101000
+69 33 -69 34 *
Wi

0101100
+11 0 -17 0 -68 33 +68 34 *
Fa
0  0.000000100000000 15 0

0101000
+10 0 *
Wi

0101100
+20 5 -67 35 +67 36 -11 5 *
Wi

0101100
-41 0 *
Fa
0  0.000000100000000 11 5

0101000
+8 0 +7 0 *
Ed
 0.000000100000000 1 1 0
1  22 0 38.412499999999994 40.000000000000000
3  37 38CN 4 0 38.412499999999994 40.000000000000000
0

0101000
+15 0 -25 0 *
Wi

0101100
-14 0 -5 0 +24 0 +5 0 *
Fa
0  0.000000100000000 4 0

0101000
+4 0 *
Sh

0101100
+89 2 +65 27 +60 0 -55 0 -44 30 -39 2 +36 16 +33 16 +30 0 -27 0 
+22 2 -18 16 -12 2 -9 16 -6 2 -3 2 *
So

0100000
+2 0 *

+1 1 