
CASCADE Topology V1, (c) Matra-Datavision
Locations 49
1
1.000000000000000 0.000000000000000 0.000000000000000 0.000000000000000 
0.000000000000000 0.000000000000000 -1.000000000000000 0.000000000000000 
0.000000000000000 1.000000000000000 0.000000000000000 0.000000000000000 
1
1.000000000000000 0.000000000000000 0.000000000000000 0.000000000000000 
0.000000000000000 1.000000000000000 0.000000000000000 0.000000000000000 
0.000000000000000 0.000000000000000 1.000000000000000 0.000000000000000 
1
1.000000000000000 0.000000000000000 0.000000000000000 0.000000000000000 
0.000000000000000 0.000000000000000 -1.000000000000000 0.000000000000000 
0.000000000000000 1.000000000000000 0.000000000000000 0.000000000000000 
1
1.000000000000000 0.000000000000000 0.000000000000000 0.000000000000000 
0.000000000000000 -0.000000000000000 -1.000000000000000 0.000000000000000 
0.000000000000000 1.000000000000000 -0.000000000000000 0.000000000000000 
2  3 1 4 -1 0
2  2 -1 0
1
1.000000000000000 0.000000000000000 0.000000000000000 0.000000000000000 
0.000000000000000 1.000000000000000 0.000000000000000 0.000000000000000 
0.000000000000000 0.000000000000000 1.000000000000000 0.000000000000000 
1
1.000000000000000 0.000000000000000 0.000000000000000 0.000000000000000 
0.000000000000000 0.000000000000000 -1.000000000000000 0.000000000000000 
0.000000000000000 1.000000000000000 0.000000000000000 0.000000000000000 
1
1.000000000000000 0.000000000000000 0.000000000000000 0.000000000000000 
0.000000000000000 -0.000000000000000 -1.000000000000000 0.000000000000000 
0.000000000000000 1.000000000000000 -0.000000000000000 0.000000000000000 
1
1.000000000000000 0.000000000000000 0.000000000000000 -0.000000000000000 
0.000000000000000 1.000000000000000 0.000000000000000 -0.000000000000008 
0.000000000000000 0.000000000000000 1.000000000000000 -17.500000000000000 
2  7 1 8 1 9 -1 10 1 3 1 4 -1 2 1 0
2  10 -1 9 1 8 -1 7 -1 0
1
1.000000000000000 0.000000000000000 0.000000000000000 0.000000000000000 
0.000000000000000 1.000000000000000 0.000000000000000 0.000000000000016 
0.000000000000000 0.000000000000000 1.000000000000000 35.000000000000000 
2  13 -1 10 -1 9 1 8 -1 7 -1 0
1
1.000000000000000 0.000000000000000 0.000000000000000 0.000000000000000 
0.000000000000000 -0.000000000000000 -1.000000000000000 0.000000000000000 
0.000000000000000 1.000000000000000 -0.000000000000000 0.000000000000000 
1
1.000000000000000 0.000000000000000 0.000000000000000 0.000000000000000 
0.000000000000000 0.000000000000000 -1.000000000000000 0.000000000000000 
0.000000000000000 1.000000000000000 0.000000000000000 0.000000000000000 
1
1.000000000000000 0.000000000000000 0.000000000000000 0.000000000000000 
0.000000000000000 1.000000000000000 0.000000000000000 0.000000000000000 
0.000000000000000 0.000000000000000 1.000000000000000 0.000000000000000 
2  15 1 16 -1 17 -1 10 -1 9 1 8 -1 7 -1 0
1
1.000000000000000 0.000000000000000 0.000000000000000 0.000000000000000 
0.000000000000000 1.000000000000000 0.000000000000000 -5.000000000000000 
0.000000000000000 0.000000000000000 1.000000000000000 0.000000000000004 
2  19 -1 15 1 16 -1 17 -1 10 -1 9 1 8 -1 7 -1 0
2  15 1 16 -1 17 -1 13 -1 10 -1 9 1 8 -1 7 -1 0
2  19 -1 15 1 16 -1 17 -1 13 -1 10 -1 9 1 8 -1 7 -1 0
2  8 -1 7 -1 0
2  2 -1 4 1 3 -1 10 -1 9 1 8 -1 7 -1 0
2  3 1 4 -1 2 1 0
2  7 1 8 1 9 -1 10 1 13 1 3 1 4 -1 2 1 0
2  2 -1 4 1 3 -1 13 -1 10 -1 9 1 8 -1 7 -1 0
1
1.000000000000000 0.000000000000000 0.000000000000000 0.000000000000000 
0.000000000000000 1.000000000000000 0.000000000000000 0.000000000000000 
0.000000000000000 0.000000000000000 1.000000000000000 0.000000000000000 
1
-1.000000000000000 0.000000000000000 0.000000000000000 0.000000000000000 
0.000000000000000 -1.000000000000000 0.000000000000001 0.000000000000007 
0.000000000000000 0.000000000000001 1.000000000000000 10.000000000000000 
2  28 1 29 1 4 -1 0
2  4 1 29 -1 28 -1 0
1
1.000000000000000 0.000000000000000 0.000000000000000 -0.000000000000000 
0.000000000000000 1.000000000000000 0.000000000000000 -114.713948585165539 
0.000000000000000 0.000000000000000 1.000000000000000 0.000000000000102 
2  32 -1 4 1 29 -1 28 -1 0
2  29 -1 28 -1 0
2  3 1 29 -1 28 -1 0
1
1.000000000000000 0.000000000000000 0.000000000000000 0.000000000000000 
0.000000000000000 0.000000000000000 -1.000000000000000 0.000000000000000 
0.000000000000000 1.000000000000000 0.000000000000000 0.000000000000000 
2  17 1 16 1 36 -1 4 1 29 -1 28 -1 0
2  9 -1 10 1 3 1 4 -1 2 1 0
2  2 -1 4 1 3 -1 10 -1 9 1 0
2  7 1 8 1 0
2  15 1 36 -1 4 1 3 -1 10 -1 9 1 8 -1 7 -1 0
2  15 1 36 -1 4 1 3 -1 13 -1 10 -1 9 1 8 -1 7 -1 0
2  9 -1 10 1 13 1 3 1 4 -1 2 1 0
2  2 -1 4 1 3 -1 13 -1 10 -1 9 1 0
2  2 -1 4 1 3 -1 0
2  7 1 8 1 9 -1 10 1 0
2  7 1 8 1 9 -1 10 1 13 1 0
2  7 1 8 1 9 -1 10 1 3 1 4 -1 0
2  7 1 8 1 9 -1 10 1 13 1 3 1 4 -1 0
Curve2ds 83
1 0.00000000000000000 0.00000000000000000 1.00000000000000000 0.00000000000000000 
1 0.00000000000000000 -35.00000000000000000 1.00000000000000000 0.00000000000000000 
1 0.00000000000000000 0.00000000000000000 1.00000000000000000 0.00000000000000000 
1 0.00000000000000000 -4.99999999999999911 1.00000000000000000 0.00000000000000000 
1 0.00000000000000000 0.00000000000000000 1.00000000000000000 0.00000000000000000 
1 0.00000000000000000 -5.00000000000000000 1.00000000000000000 0.00000000000000000 
1 10.00000000000000000 -20.00000000000000000 0.00000000000000000 1.00000000000000000 
1 0.00000000000000000 0.00000000000000000 0.00000000000000000 1.00000000000000000 
1 2.00000000000000000 0.00000000000000355 0.00000000000000000 -1.00000000000000000 
1 0.00000000000000000 0.00000000000000000 0.00000000000000000 1.00000000000000000 
1 37.99999999999999289 0.00000000000000355 0.00000000000000000 -1.00000000000000000 
1 0.00000000000000000 0.00000000000000000 1.00000000000000000 0.00000000000000000 
1 0.00000000000000000 -114.71394858516553938 1.00000000000000000 0.00000000000000000 
2 0.00000000000000022 0.00000000000000009 0.00000000000000000 1.00000000000000000 -1.00000000000000000 0.00000000000000000 3.96875000000000000
2 20.00000000000000000 -17.50000000000000000 -1.00000000000000000 -0.00000000000000000 0.00000000000000000 -1.00000000000000000 3.96875000000000089
2 20.00000000000000000 -17.49999999999999289 -1.00000000000000000 -0.00000000000000000 0.00000000000000000 -1.00000000000000000 3.96875000000000000
1 -3.14159265358979312 0.00000000000000000 1.00000000000000000 0.00000000000000000 
2 7.99999999999999911 -17.99999999999999645 -1.00000000000000000 0.00000000000000000 0.00000000000000000 1.00000000000000000 2.00000000000000000
1 -3.14159265358979134 0.00000000000000355 1.00000000000000000 0.00000000000000000 
2 7.99999999999999911 17.99999999999999645 -1.00000000000000000 0.00000000000000000 -0.00000000000000000 -1.00000000000000000 2.00000000000000000
1 0.00000000000000000 -0.00000000000000000 1.00000000000000000 0.00000000000000000 
1 -0.00000000000000133 -35.00000000000000000 1.00000000000000000 0.00000000000000000 
1 -10.00000000000000000 -20.00000000000000000 1.00000000000000000 0.00000000000000000 
1 10.00000000000000000 20.00000000000000000 -1.00000000000000000 0.00000000000000000 
1 0.00000000000000000 0.00000000000000000 1.00000000000000000 0.00000000000000000 
1 0.00000000000000133 -35.00000000000000000 1.00000000000000000 0.00000000000000000 
1 -4.71238898038468967 0.00000000000000000 1.00000000000000000 0.00000000000000000 
2 -7.99999999999999734 -17.99999999999999645 -1.00000000000000000 0.00000000000000000 0.00000000000000000 1.00000000000000000 2.00000000000000000
1 -4.71238898038468879 0.00000000000000000 1.00000000000000000 0.00000000000000000 
2 -7.99999999999999734 17.99999999999999645 -1.00000000000000000 0.00000000000000000 -0.00000000000000000 -1.00000000000000000 2.00000000000000000
1 0.00000000000000000 -0.00000000000000000 1.00000000000000000 0.00000000000000000 
1 0.00000000000000000 -35.00000000000000000 1.00000000000000000 0.00000000000000000 
1 -10.00000000000000000 20.00000000000000000 0.00000000000000000 -1.00000000000000000 
1 -8.41249999999999964 -18.41250000000000142 1.00000000000000000 0.00000000000000000 
1 0.00000000000000000 -0.00000000000000000 1.00000000000000000 0.00000000000000000 
1 -0.00000000000000133 -35.00000000000000000 1.00000000000000000 0.00000000000000000 
1 0.00000000000000000 -0.00000000000000000 1.00000000000000000 0.00000000000000000 
1 0.00000000000000000 -35.00000000000000000 1.00000000000000000 0.00000000000000000 
1 -8.41249999999999964 18.41250000000000142 0.00000000000000000 -1.00000000000000000 
1 8.41249999999999964 18.41250000000000142 -1.00000000000000000 0.00000000000000000 
1 0.00000000000000000 0.00000000000000000 1.00000000000000000 0.00000000000000000 
1 0.00000000000000133 -35.00000000000000000 1.00000000000000000 0.00000000000000000 
1 0.00000000000000000 0.00000000000000000 1.00000000000000000 0.00000000000000000 
1 0.00000000000000000 -35.00000000000000000 1.00000000000000000 0.00000000000000000 
1 8.41249999999999964 -18.41250000000000142 0.00000000000000000 1.00000000000000000 
1 1.58749999999999858 -1.58750000000000746 1.00000000000000000 0.00000000000000000 
1 1.58749999999999858 -1.58749999999999325 1.00000000000000000 0.00000000000000000 
1 1.57079632679489656 0.00000000000000000 0.00000000000000000 1.00000000000000000 
1 17.99999999999999645 -0.00000000000000355 0.00000000000000000 -1.00000000000000000 
1 -3.14159265358979312 34.99999999999999289 1.00000000000000000 0.00000000000000000 
2 7.99999999999999911 -17.99999999999999645 -1.00000000000000000 0.00000000000000000 0.00000000000000000 1.00000000000000000 2.00000000000000000
1 1.57079632679489656 0.00000000000000000 0.00000000000000000 1.00000000000000000 
1 2.00000000000000000 0.00000000000000000 0.00000000000000000 -1.00000000000000000 
1 -3.14159265358979134 35.00000000000000000 1.00000000000000000 0.00000000000000000 
2 7.99999999999999911 17.99999999999999645 -1.00000000000000000 0.00000000000000000 -0.00000000000000000 -1.00000000000000000 2.00000000000000000
1 -4.71238898038468967 34.99999999999999289 1.00000000000000000 0.00000000000000000 
2 -7.99999999999999645 -17.99999999999999645 -1.00000000000000000 0.00000000000000000 0.00000000000000000 1.00000000000000000 2.00000000000000000
1 -4.71238898038468967 34.99999999999999289 1.00000000000000000 0.00000000000000000 
2 -7.99999999999999645 17.99999999999999645 -1.00000000000000000 0.00000000000000000 -0.00000000000000000 -1.00000000000000000 2.00000000000000000
1 0.00000000000000000 0.00000000000000000 0.00000000000000000 -1.00000000000000000 
1 6.28318530717958623 0.00000000000000000 0.00000000000000000 -1.00000000000000000 
2 18.41249999999999787 -17.49999999999999645 -1.00000000000000000 -0.00000000000000000 0.00000000000000000 -1.00000000000000000 3.96875000000000000
1 0.00000000000000000 -1.58750000000000036 1.00000000000000000 0.00000000000000000 
1 0.00000000000000000 0.00000000000000000 0.00000000000000000 1.00000000000000000 
1 1.99999999999999911 -0.00000000000000355 0.00000000000000000 -1.00000000000000000 
1 0.00000000000000000 0.00000000000000000 0.00000000000000000 1.00000000000000000 
1 17.99999999999999645 0.00000000000000000 0.00000000000000000 -1.00000000000000000 
1 1.57079632679489656 0.00000000000000000 0.00000000000000000 1.00000000000000000 
1 37.99999999999999289 -0.00000000000000355 0.00000000000000000 -1.00000000000000000 
1 1.57079632679489656 0.00000000000000000 0.00000000000000000 1.00000000000000000 
1 2.00000000000000000 -0.00000000000000355 0.00000000000000000 -1.00000000000000000 
2 19.99999999999999645 -17.49999999999999645 1.00000000000000000 0.00000000000000000 0.00000000000000000 -1.00000000000000000 3.96875000000000000
1 0.00000000000000000 -19.99999999999999645 1.00000000000000000 0.00000000000000000 
1 36.82500000000000284 0.00000000000000000 0.00000000000000000 -1.00000000000000000 
1 0.00000000000000000 -0.00000000000000000 0.00000000000000000 -1.00000000000000000 
1 0.00000000000000000 0.00000000000000000 0.00000000000000000 -1.00000000000000000 
1 16.82499999999999929 -0.00000000000000037 0.00000000000000000 -1.00000000000000000 
1 0.00000000000000000 -0.00000000000000000 0.00000000000000000 -1.00000000000000000 
1 16.82499999999999929 0.00000000000000037 0.00000000000000000 -1.00000000000000000 
2 18.41249999999999787 -17.49999999999999645 1.00000000000000000 0.00000000000000000 0.00000000000000000 -1.00000000000000000 3.96875000000000000
1 0.00000000000000000 -18.41249999999999432 1.00000000000000000 0.00000000000000000 
1 36.82500000000000284 0.00000000000000000 0.00000000000000000 -1.00000000000000000 
1 0.00000000000000000 0.00000000000000000 0.00000000000000000 -1.00000000000000000 
Curves 33
1 -20.00000000000000000 10.00000000000000000 0.00000000000000000 1.00000000000000000 0.00000000000000000 0.00000000000000000 
1 -17.99999999999999645 9.99999999999998401 -17.50000000000000711 0.00000000000000000 0.00000000000000089 1.00000000000000000 
1 17.99999999999999645 9.99999999999998401 -17.50000000000000711 0.00000000000000000 0.00000000000000089 1.00000000000000000 
2 0.00000000000000000 0.00000000000000000 0.00000000000000000 0.00000000000000000 0.00000000000000000 1.00000000000000000 1.00000000000000000 0.00000000000000000 0.00000000000000000 0.00000000000000000 1.00000000000000000 0.00000000000000000 3.96875000000000000
8 3.14159265358979312 4.71238898038469056
2 -17.99999999999999645 7.99999999999998401 -17.50000000000000355 0.00000000000000000 0.00000000000000089 1.00000000000000000 0.00000000000000000 -1.00000000000000000 0.00000000000000089 1.00000000000000000 0.00000000000000000 -0.00000000000000000 2.00000000000000000
8 3.14159265358979134 4.71238898038468967
2 17.99999999999999645 7.99999999999998401 -17.50000000000000355 -0.00000000000000000 -0.00000000000000089 -1.00000000000000000 0.00000000000000000 -1.00000000000000000 0.00000000000000089 -1.00000000000000000 0.00000000000000000 0.00000000000000000 2.00000000000000000
1 -20.00000000000000000 -10.00000000000000000 0.00000000000000000 0.00000000000000000 1.00000000000000000 0.00000000000000000 
1 20.00000000000000000 10.00000000000000000 0.00000000000000000 0.00000000000000000 -1.00000000000000000 0.00000000000000000 
8 4.71238898038469056 6.28318530717958801
2 -17.99999999999999645 -8.00000000000001243 -17.49999999999998934 0.00000000000000000 0.00000000000000089 1.00000000000000000 0.00000000000000000 -1.00000000000000000 0.00000000000000089 1.00000000000000000 0.00000000000000000 -0.00000000000000000 2.00000000000000000
8 4.71238898038468879 6.28318530717958623
2 17.99999999999999645 -8.00000000000001243 -17.49999999999998934 -0.00000000000000000 -0.00000000000000089 -1.00000000000000000 0.00000000000000000 -1.00000000000000000 0.00000000000000089 -1.00000000000000000 0.00000000000000000 0.00000000000000000 2.00000000000000000
1 20.00000000000000000 -10.00000000000000000 0.00000000000000000 -1.00000000000000000 0.00000000000000000 0.00000000000000000 
1 -18.41250000000000142 -8.41249999999999964 0.00000000000000000 0.00000000000000000 1.00000000000000000 0.00000000000000000 
1 18.41250000000000142 -8.41249999999999964 0.00000000000000000 -1.00000000000000000 0.00000000000000000 0.00000000000000000 
1 18.41250000000000142 8.41249999999999964 0.00000000000000000 0.00000000000000000 -1.00000000000000000 0.00000000000000000 
1 -18.41250000000000142 8.41249999999999964 0.00000000000000000 1.00000000000000000 0.00000000000000000 0.00000000000000000 
1 -19.99999999999999645 7.99999999999998401 -17.50000000000000355 0.00000000000000000 0.00000000000000089 1.00000000000000000 
8 3.14159265358979312 4.71238898038468967
2 -17.99999999999999645 8.00000000000001421 17.49999999999998934 0.00000000000000000 0.00000000000000089 1.00000000000000000 0.00000000000000000 -1.00000000000000000 0.00000000000000089 1.00000000000000000 0.00000000000000000 -0.00000000000000000 2.00000000000000000
1 19.99999999999999645 7.99999999999998401 -17.50000000000000355 0.00000000000000000 0.00000000000000089 1.00000000000000000 
8 3.14159265358979134 4.71238898038468967
2 17.99999999999999645 8.00000000000001421 17.49999999999998934 -0.00000000000000000 -0.00000000000000089 -1.00000000000000000 0.00000000000000000 -1.00000000000000000 0.00000000000000089 -1.00000000000000000 0.00000000000000000 0.00000000000000000 2.00000000000000000
8 4.71238898038468967 6.28318530717958801
2 -17.99999999999999645 -7.99999999999998135 17.50000000000000355 0.00000000000000000 0.00000000000000089 1.00000000000000000 0.00000000000000000 -1.00000000000000000 0.00000000000000089 1.00000000000000000 0.00000000000000000 -0.00000000000000000 2.00000000000000000
8 4.71238898038468967 6.28318530717958623
2 17.99999999999999645 -7.99999999999998135 17.50000000000000355 -0.00000000000000000 -0.00000000000000089 -1.00000000000000000 0.00000000000000000 -1.00000000000000000 0.00000000000000089 -1.00000000000000000 0.00000000000000000 0.00000000000000000 2.00000000000000000
1 -3.96875000000000000 10.00000000000000000 -0.00000000000000888 -0.00000000000000000 -1.00000000000000000 0.00000000000000089 
2 0.00000000000000000 8.41249999999999964 -0.00000000000000747 0.00000000000000000 1.00000000000000000 -0.00000000000000089 -1.00000000000000000 0.00000000000000000 0.00000000000000000 0.00000000000000000 0.00000000000000089 1.00000000000000000 3.96875000000000000
1 -19.99999999999999645 -8.00000000000001243 -17.49999999999998934 0.00000000000000000 0.00000000000000089 1.00000000000000000 
1 19.99999999999999645 -8.00000000000001243 -17.49999999999998934 0.00000000000000000 0.00000000000000089 1.00000000000000000 
1 -17.99999999999999645 -10.00000000000001243 -17.49999999999998579 0.00000000000000000 0.00000000000000089 1.00000000000000000 
1 17.99999999999999645 -10.00000000000001243 -17.49999999999998579 0.00000000000000000 0.00000000000000089 1.00000000000000000 
2 0.00000000000000000 -9.99999999999999645 0.00000000000000888 0.00000000000000000 1.00000000000000000 -0.00000000000000089 -1.00000000000000000 0.00000000000000000 0.00000000000000000 0.00000000000000000 0.00000000000000089 1.00000000000000000 3.96875000000000000
1 -18.41250000000000142 -8.41250000000000675 -17.49999999999999645 0.00000000000000000 0.00000000000000044 1.00000000000000000 
1 -18.41250000000000142 8.41249999999999254 -17.50000000000000355 0.00000000000000000 0.00000000000000044 1.00000000000000000 
1 18.41250000000000142 -8.41250000000000675 -17.49999999999999645 0.00000000000000000 0.00000000000000044 1.00000000000000000 
2 0.00000000000000000 -8.41249999999999432 0.00000000000000747 0.00000000000000000 1.00000000000000000 -0.00000000000000089 -1.00000000000000000 0.00000000000000000 0.00000000000000000 0.00000000000000000 0.00000000000000089 1.00000000000000000 3.96875000000000000
1 18.41250000000000142 8.41249999999999254 -17.50000000000000355 0.00000000000000000 0.00000000000000044 1.00000000000000000 
Polygon3D 0
PolygonOnTriangulations 0
Surfaces 17
1 -20.00000000000000000 9.99999999999999289 -17.50000000000000355 0.00000000000000000 1.00000000000000000 -0.00000000000000044 1.00000000000000000 0.00000000000000000 0.00000000000000000 0.00000000000000000 -0.00000000000000044 -1.00000000000000000 
1 -19.99999999999999645 9.99999999999998224 -17.50000000000000355 -0.00000000000000000 0.00000000000000089 1.00000000000000000 1.00000000000000000 0.00000000000000000 0.00000000000000000 0.00000000000000000 1.00000000000000000 -0.00000000000000089 
1 -19.99999999999999645 10.00000000000001421 17.49999999999998934 -0.00000000000000000 0.00000000000000089 1.00000000000000000 1.00000000000000000 0.00000000000000000 0.00000000000000000 0.00000000000000000 1.00000000000000000 -0.00000000000000089 
1 0.00000000000000000 0.00000000000000000 0.00000000000000000 0.00000000000000000 1.00000000000000000 -0.00000000000000022 0.00000000000000000 0.00000000000000022 1.00000000000000000 1.00000000000000000 -0.00000000000000000 0.00000000000000000 
2 -17.99999999999999645 7.99999999999998401 -17.50000000000000355 0.00000000000000000 0.00000000000000089 1.00000000000000000 0.00000000000000000 1.00000000000000000 -0.00000000000000089 -1.00000000000000000 0.00000000000000000 0.00000000000000000 2.00000000000000000
2 17.99999999999999645 7.99999999999998401 -17.50000000000000355 0.00000000000000000 0.00000000000000089 1.00000000000000000 0.00000000000000000 1.00000000000000000 -0.00000000000000089 1.00000000000000000 -0.00000000000000000 -0.00000000000000000 2.00000000000000000
2 0.00000000000000000 10.00000000000000000 -0.00000000000000888 0.00000000000000000 1.00000000000000000 -0.00000000000000089 -1.00000000000000000 0.00000000000000000 0.00000000000000000 0.00000000000000000 0.00000000000000089 1.00000000000000000 3.96875000000000000
1 0.00000000000000009 0.00000000000000644 10.00000000000000178 0.00000000000000000 0.00000000000000052 1.00000000000000000 0.00000000000000000 1.00000000000000000 -0.00000000000000052 -1.00000000000000000 0.00000000000000000 0.00000000000000000 
1 -20.00000000000000000 -10.00000000000000711 -17.49999999999999645 -1.00000000000000000 0.00000000000000000 0.00000000000000000 0.00000000000000000 1.00000000000000000 -0.00000000000000044 -0.00000000000000000 -0.00000000000000044 -1.00000000000000000 
1 20.00000000000000000 9.99999999999999289 -17.50000000000000355 1.00000000000000000 0.00000000000000000 -0.00000000000000000 0.00000000000000000 -1.00000000000000000 0.00000000000000044 0.00000000000000000 -0.00000000000000044 -1.00000000000000000 
2 -17.99999999999999645 -8.00000000000001243 -17.49999999999998934 0.00000000000000000 0.00000000000000089 1.00000000000000000 -1.00000000000000000 0.00000000000000000 0.00000000000000000 0.00000000000000000 -1.00000000000000000 0.00000000000000089 2.00000000000000000
2 17.99999999999999645 -8.00000000000001243 -17.49999999999998934 0.00000000000000000 0.00000000000000089 1.00000000000000000 1.00000000000000000 0.00000000000000000 -0.00000000000000000 0.00000000000000000 -1.00000000000000000 0.00000000000000089 2.00000000000000000
1 20.00000000000000000 -10.00000000000000711 -17.49999999999999645 0.00000000000000000 -1.00000000000000000 0.00000000000000044 -1.00000000000000000 0.00000000000000000 0.00000000000000000 -0.00000000000000000 -0.00000000000000044 -1.00000000000000000 
1 -18.41250000000000142 -8.41250000000000675 -17.49999999999999645 -1.00000000000000000 0.00000000000000000 0.00000000000000000 0.00000000000000000 1.00000000000000000 -0.00000000000000044 -0.00000000000000000 -0.00000000000000044 -1.00000000000000000 
1 18.41250000000000142 -8.41250000000000675 -17.49999999999999645 0.00000000000000000 -1.00000000000000000 0.00000000000000044 -1.00000000000000000 0.00000000000000000 0.00000000000000000 -0.00000000000000000 -0.00000000000000044 -1.00000000000000000 
1 18.41250000000000142 8.41249999999999254 -17.50000000000000355 1.00000000000000000 0.00000000000000000 -0.00000000000000000 0.00000000000000000 -1.00000000000000000 0.00000000000000044 0.00000000000000000 -0.00000000000000044 -1.00000000000000000 
1 -18.41250000000000142 8.41249999999999254 -17.50000000000000355 0.00000000000000000 1.00000000000000000 -0.00000000000000044 1.00000000000000000 0.00000000000000000 0.00000000000000000 0.00000000000000000 -0.00000000000000044 -1.00000000000000000 
Triangulations 0

TShapes 101
Ve
0.000000100000000
-17.999999999999996 9.999999999999984 -17.500000000000000
0 0

0101101
*
Ve
0.000000100000000
17.999999999999996 9.999999999999984 -17.500000000000000
0 0

0101101
*
Ed
 0.000000100000000 1 1 0
1  1 0 2.000000000000000 37.999999999999993
2  1 1 12 2.000000000000000 37.999999999999993
2  2 1 14 2.000000000000000 37.999999999999993
2  3 2 18 2.000000000000000 37.999999999999993
2  4 2 20 2.000000000000000 37.999999999999993
2  5 3 21 2.000000000000000 37.999999999999993
2  6 3 22 2.000000000000000 37.999999999999993
2  7 4 23 2.000000000000000 37.999999999999993
0

0101000
+101 24 -100 24 *
Ve
0.000000100000000
-17.999999999999996 10.000000000000014 17.499999999999996
0 0

0101101
*
Ed
 0.000000100000000 1 1 0
1  2 0 0.000000000000004 35.000000000000000
2  8 5 0 0.000000000000004 35.000000000000000
2  9 1 25 0.000000000000004 35.000000000000000
4 G1 5 0 1 25
0

0101000
+101 0 -98 0 *
Ve
0.000000100000000
17.999999999999996 10.000000000000014 17.499999999999996
0 0

0101101
*
Ed
 0.000000100000000 1 1 0
1  3 0 0.000000000000004 35.000000000000000
2  10 6 0 0.000000000000004 35.000000000000000
2  11 1 25 0.000000000000004 35.000000000000000
4 G1 6 0 1 25
0

0101000
+100 0 -96 0 *
Ed
 0.000000100000000 1 1 0
1  1 0 2.000000000000000 37.999999999999993
2  1 1 12 2.000000000000000 37.999999999999993
2  2 1 14 2.000000000000000 37.999999999999993
2  3 2 18 2.000000000000000 37.999999999999993
2  4 2 20 2.000000000000000 37.999999999999993
2  5 3 21 2.000000000000000 37.999999999999993
2  6 3 22 2.000000000000000 37.999999999999993
2  7 4 23 2.000000000000000 37.999999999999993
0

0101000
+98 27 -96 27 *
Wi

0101100
-99 11 +97 0 -95 0 +94 26 *
Ve
0.000000100000004
3.968750000000000 0.000000000000000 0.000000000000000
0 0

0101101
*
Ed
 0.000000100000004 1 1 0
1  4 0 0.000000000000000 6.283185307179586
2  12 7 31 0.000000000000000 6.283185307179586
2  13 7 33 0.000000000000000 6.283185307179586
2  14 8 34 0.000000000000000 6.283185307179586
2  15 1 35 0.000000000000000 6.283185307179586
2  16 1 37 0.000000000000000 6.283185307179586
0

0101000
+92 0 -92 0 *
Wi

0101100
-91 30 *
Fa
0  0.000000100000000 1 5

0111000
+93 6 +90 0 *
Ve
0.000000100000000
-19.999999999999996 7.999999999999984 -17.500000000000007
0 0

0101101
*
Ed
 0.000000100000000 1 1 0
1  5 0 3.141592653589793 4.712388980384691
2  17 5 0 3.141592653589793 4.712388980384691
2  18 4 38 3.141592653589793 4.712388980384691
0

0101000
+101 0 -88 0 *
Ve
0.000000100000000
19.999999999999996 7.999999999999984 -17.500000000000004
0 0

0101101
*
Ed
 0.000000100000000 1 1 0
1  6 0 3.141592653589791 4.712388980384690
2  19 6 0 3.141592653589791 4.712388980384690
2  20 4 38 3.141592653589791 4.712388980384690
0

0101000
+100 0 -86 0 *
Ve
0.000000100000000
-19.999999999999996 -8.000000000000012 -17.499999999999993
0 0

0101101
*
Ed
 0.000000100000000 1 1 0
1  7 0 1.999999999999999 17.999999999999996
2  21 9 12 1.999999999999999 17.999999999999996
2  22 9 14 1.999999999999999 17.999999999999996
2  23 4 23 1.999999999999999 17.999999999999996
0

0101000
+84 24 -88 24 *
Ve
0.000000100000000
19.999999999999996 -8.000000000000012 -17.499999999999989
0 0

0101101
*
Ed
 0.000000100000000 1 1 0
1  8 0 1.999999999999998 17.999999999999996
2  24 4 23 1.999999999999998 17.999999999999996
2  25 10 12 1.999999999999998 17.999999999999996
2  26 10 14 1.999999999999998 17.999999999999996
0

0101000
+86 24 -82 24 *
Ve
0.000000100000000
-17.999999999999996 -10.000000000000012 -17.499999999999993
0 0

0101101
*
Ed
 0.000000100000000 1 1 0
1  9 0 4.712388980384691 6.283185307179588
2  27 11 0 4.712388980384691 6.283185307179588
2  28 4 38 4.712388980384691 6.283185307179588
0

0101000
+84 0 -80 0 *
Ve
0.000000100000000
17.999999999999996 -10.000000000000012 -17.499999999999993
0 0

0101101
*
Ed
 0.000000100000000 1 1 0
1  10 0 4.712388980384689 6.283185307179586
2  29 12 0 4.712388980384689 6.283185307179586
2  30 4 38 4.712388980384689 6.283185307179586
0

0101000
+82 0 -78 0 *
Ed
 0.000000100000000 1 1 0
1  11 0 2.000000000000000 37.999999999999993
2  31 13 12 2.000000000000000 37.999999999999993
2  32 13 14 2.000000000000000 37.999999999999993
2  33 4 23 2.000000000000000 37.999999999999993
0

0101000
+78 24 -80 24 *
Wi

0101100
+99 11 -87 0 +85 0 +83 11 +81 11 -79 0 +77 0 +76 11 *
Ve
0.000000100000000
-18.412500000000001 -8.412500000000000 0.000000000000000
0 0

0101101
*
Ve
0.000000100000007
-18.412500000000001 8.412500000000000 0.000000000000000
0 0

0101101
*
Ed
 0.000000100000000 1 1 0
1  12 0 0.000000000000000 16.824999999999999
2  34 4 23 0.000000000000000 16.824999999999999
2  35 14 12 0.000000000000000 16.824999999999999
2  36 14 14 0.000000000000000 16.824999999999999
0

0101000
+74 0 -73 0 *
Ve
0.000000100000000
18.412500000000001 -8.412500000000000 0.000000000000000
0 0

0101101
*
Ed
 0.000000100000000 1 1 0
1  13 0 0.000000000000000 36.825000000000003
2  37 15 12 0.000000000000000 36.825000000000003
2  38 15 14 0.000000000000000 36.825000000000003
2  39 4 23 0.000000000000000 36.825000000000003
0

0101000
+71 0 -74 0 *
Ve
0.000000100000007
18.412500000000001 8.412500000000000 0.000000000000000
0 0

0101101
*
Ed
 0.000000100000000 1 1 0
1  14 0 0.000000000000000 16.824999999999999
2  40 4 23 0.000000000000000 16.824999999999999
2  41 16 12 0.000000000000000 16.824999999999999
2  42 16 14 0.000000000000000 16.824999999999999
0

0101000
+69 0 -71 0 *
Ed
 0.000000100000004 1 1 0
1  15 0 0.000000000000000 36.825000000000003
2  43 17 12 0.000000000000000 36.825000000000003
2  44 17 14 0.000000000000000 36.825000000000003
2  45 4 23 0.000000000000000 36.825000000000003
2  46 2 41 0.000000000000000 36.825000000000003
2  47 3 42 0.000000000000000 36.825000000000003
0

0101000
+73 0 -69 0 *
Wi

0101100
-72 40 -70 40 -68 40 -67 40 *
Fa
0  0.000000100000000 4 0

0101000
+75 39 +66 0 *
Ve
0.000000100000000
-19.999999999999996 8.000000000000016 17.499999999999996
0 0

0101101
*
Ed
 0.000000100000000 1 1 0
1  16 0 -0.000000000000004 34.999999999999993
2  48 5 0 -0.000000000000004 34.999999999999993
2  49 9 25 -0.000000000000004 34.999999999999993
4 G1 5 0 9 25
0

0101000
+88 0 -64 0 *
Ed
 0.000000100000000 1 1 0
1  17 0 3.141592653589793 4.712388980384690
2  50 5 0 3.141592653589793 4.712388980384690
2  51 4 43 3.141592653589793 4.712388980384690
0

0101000
+98 0 -64 0 *
Wi

0101100
+87 0 -97 0 +63 0 -62 0 *
Fa
0  0.000000000000000 5 0

0111000
+61 0 *
Ve
0.000000100000000
19.999999999999996 8.000000000000016 17.499999999999996
0 0

0101101
*
Ed
 0.000000100000000 1 1 0
1  18 0 0.000000000000004 34.999999999999993
2  52 6 0 0.000000000000004 34.999999999999993
2  53 10 25 0.000000000000004 34.999999999999993
4 G1 6 0 10 25
0

0101000
+86 0 -59 0 *
Ed
 0.000000100000000 1 1 0
1  19 0 3.141592653589791 4.712388980384690
2  54 6 0 3.141592653589791 4.712388980384690
2  55 4 43 3.141592653589791 4.712388980384690
0

0101000
+96 0 -59 0 *
Wi

0101100
+85 0 -95 0 +58 0 -57 0 *
Fa
0  0.000000000000000 6 0

0111000
+56 0 *
Ve
0.000000100000000
-19.999999999999996 -7.999999999999981 17.500000000000011
0 0

0101101
*
Ed
 0.000000100000000 1 1 0
1  7 0 2.000000000000001 17.999999999999996
2  21 9 12 2.000000000000001 17.999999999999996
2  22 9 14 2.000000000000001 17.999999999999996
2  23 4 23 2.000000000000001 17.999999999999996
0

0101000
+54 27 -64 27 *
Ve
0.000000100000000
19.999999999999996 -7.999999999999981 17.500000000000011
0 0

0101101
*
Ed
 0.000000100000000 1 1 0
1  8 0 2.000000000000000 17.999999999999996
2  24 4 23 2.000000000000000 17.999999999999996
2  25 10 12 2.000000000000000 17.999999999999996
2  26 10 14 2.000000000000000 17.999999999999996
0

0101000
+59 27 -52 27 *
Ve
0.000000100000000
-17.999999999999996 -9.999999999999982 17.500000000000011
0 0

0101101
*
Ed
 0.000000100000000 1 1 0
1  20 0 4.712388980384690 6.283185307179588
2  56 11 0 4.712388980384690 6.283185307179588
2  57 4 43 4.712388980384690 6.283185307179588
0

0101000
+54 0 -50 0 *
Ve
0.000000100000000
17.999999999999996 -9.999999999999982 17.500000000000011
0 0

0101101
*
Ed
 0.000000100000000 1 1 0
1  21 0 4.712388980384690 6.283185307179586
2  58 12 0 4.712388980384690 6.283185307179586
2  59 4 43 4.712388980384690 6.283185307179586
0

0101000
+52 0 -48 0 *
Ed
 0.000000100000000 1 1 0
1  11 0 2.000000000000000 37.999999999999993
2  31 13 12 2.000000000000000 37.999999999999993
2  32 13 14 2.000000000000000 37.999999999999993
2  33 4 23 2.000000000000000 37.999999999999993
0

0101000
+48 27 -50 27 *
Wi

0101100
+94 26 -62 0 +57 0 +53 26 +51 26 -49 0 +47 0 +46 26 *
Fa
0  0.000000100000000 4 0

0101000
+45 44 +66 0 *
Ve
0.000000100000001
-3.968750000000000 8.412500000000000 -0.000000000000007
0 0

0101101
*
Ed
 0.000000100000000 1 1 0
1  22 0 0.000000000000000 1.587500000000000
3  60 61CN 7 0 0.000000000000000 1.587500000000000
0

0101000
+92 30 -43 0 *
Ed
 0.000000100000000 1 1 0
1  23 0 0.000000000000000 6.283185307179586
2  62 17 5 0.000000000000000 6.283185307179586
2  63 7 0 0.000000000000000 6.283185307179586
0

0101000
+43 0 -43 0 *
Wi

0101100
-91 30 -42 0 +41 0 +42 0 *
Fa
0  0.000000100000000 7 0

0111000
+40 0 *
Ed
 0.000000100000000 1 1 0
1  24 0 -0.000000000000004 34.999999999999986
2  64 11 0 -0.000000000000004 34.999999999999986
2  65 9 25 -0.000000000000004 34.999999999999986
4 G1 11 0 9 25
0

0101000
+84 0 -54 0 *
Wi

0101100
-83 11 +38 0 -63 0 +53 26 *
Fa
0  0.000000100000000 9 0

0111000
+37 45 *
Ed
 0.000000100000000 1 1 0
1  25 0 -0.000000000000000 34.999999999999993
2  66 12 0 -0.000000000000000 34.999999999999993
2  67 10 25 -0.000000000000000 34.999999999999993
4 G1 12 0 10 25
0

0101000
+82 0 -52 0 *
Wi

0101100
-81 11 +58 0 -35 0 +51 26 *
Fa
0  0.000000100000000 10 0

0111000
+34 45 *
Ed
 0.000000100000000 1 1 0
1  26 0 -0.000000000000004 34.999999999999986
2  68 11 0 -0.000000000000004 34.999999999999986
2  69 13 25 -0.000000000000004 34.999999999999986
4 G1 11 0 13 25
0

0101000
+80 0 -50 0 *
Wi

0101100
+79 0 -38 0 +32 0 -49 0 *
Fa
0  0.000000000000000 11 0

0111000
+31 0 *
Ed
 0.000000100000000 1 1 0
1  27 0 -0.000000000000004 34.999999999999986
2  70 12 0 -0.000000000000004 34.999999999999986
2  71 13 25 -0.000000000000004 34.999999999999986
4 G1 12 0 13 25
0

0101000
+78 0 -48 0 *
Wi

0101100
+77 0 -35 0 +29 0 -47 0 *
Fa
0  0.000000000000000 12 0

0111000
+28 0 *
Wi

0101100
-76 11 +29 0 -32 0 +46 26 *
Ve
0.000000100000001
-3.968750000000000 -9.999999999999996 0.000000000000009
0 0

0101101
*
Ed
 0.000000100000000 1 1 0
1  28 0 0.000000000000000 6.283185307179586
2  72 13 5 0.000000000000000 6.283185307179586
2  73 7 0 0.000000000000000 6.283185307179586
0

0101000
+25 0 -25 0 *
Wi

0101100
+24 0 *
Fa
0  0.000000100000000 13 5

0111000
+26 6 +23 0 *
Ed
 0.000000100000000 1 1 0
1  29 0 0.000000000000000 35.000000000000000
2  74 15 0 0.000000000000000 35.000000000000000
2  75 14 0 0.000000000000000 35.000000000000000
0

0101000
+74 46 -74 47 *
Ed
 0.000000100000000 1 1 0
1  30 0 0.000000000000000 35.000000000000000
2  76 17 0 0.000000000000000 35.000000000000000
2  77 14 0 0.000000000000000 35.000000000000000
0

0101000
+73 46 -73 47 *
Wi

0101100
+21 0 -20 0 -72 46 +72 47 *
Fa
0  0.000000100000000 14 0

0111000
+19 0 *
Ed
 0.000000100000000 1 1 0
1  31 0 0.000000000000000 35.000000000000000
2  78 15 0 0.000000000000000 35.000000000000000
2  79 16 0 0.000000000000000 35.000000000000000
0

0101000
+71 46 -71 47 *
Wi

0101100
+17 5 -70 48 +70 49 -21 5 *
Ve
0.000000100000001
-3.968750000000000 -8.412499999999994 0.000000000000007
0 0

0101101
*
Ed
 0.000000100000000 1 1 0
1  32 0 0.000000000000000 6.283185307179586
2  80 15 5 0.000000000000000 6.283185307179586
2  81 7 0 0.000000000000000 6.283185307179586
0

0101000
+15 0 -15 0 *
Wi

0101100
+14 0 *
Fa
0  0.000000100000000 15 5

0111000
+16 0 +13 0 *
Ed
 0.000000100000000 1 1 0
1  33 0 0.000000000000000 35.000000000000000
2  82 17 0 0.000000000000000 35.000000000000000
2  83 16 0 0.000000000000000 35.000000000000000
0

0101000
+69 46 -69 47 *
Wi

0101100
+11 0 -17 0 -68 46 +68 47 *
Fa
0  0.000000100000000 16 0

0111000
+10 0 *
Wi

0101100
+20 5 -67 48 +67 49 -11 5 *
Wi

0101100
-41 0 *
Fa
0  0.000000100000000 17 5

0111000
+8 0 +7 0 *
Ed
 0.000000100000000 1 1 0
1  22 0 18.412499999999994 19.999999999999996
3  60 61CN 7 0 18.412499999999994 19.999999999999996
0

0101000
+15 0 -25 0 *
Wi

0101100
-14 0 -5 0 +24 0 +5 0 *
Fa
0  0.000000100000000 7 0

0111000
+4 0 *
Sh

0101100
+89 2 +65 38 +60 0 -55 0 -44 43 -39 2 +36 25 +33 25 +30 0 -27 0 
+22 2 -18 25 -12 2 -9 25 -6 2 -3 2 *
So

0100000
+2 0 *

+1 1 