
CASCADE Topology V1, (c) Matra-Datavision
Locations 41
1
1.000000000000000 0.000000000000000 0.000000000000000 0.000000000000000 
0.000000000000000 0.000000000000000 -1.000000000000000 0.000000000000000 
0.000000000000000 1.000000000000000 0.000000000000000 0.000000000000000 
1
1.000000000000000 0.000000000000000 0.000000000000000 0.000000000000000 
0.000000000000000 0.000000000000000 -1.000000000000000 0.000000000000000 
0.000000000000000 1.000000000000000 0.000000000000000 0.000000000000000 
1
1.000000000000000 0.000000000000000 0.000000000000000 0.000000000000000 
0.000000000000000 -0.000000000000000 -1.000000000000000 0.000000000000000 
0.000000000000000 1.000000000000000 -0.000000000000000 0.000000000000000 
2  2 1 3 -1 0
1
1.000000000000000 0.000000000000000 0.000000000000000 0.000000000000000 
0.000000000000000 -0.000000000000000 -1.000000000000000 0.000000000000000 
0.000000000000000 1.000000000000000 -0.000000000000000 0.000000000000000 
1
1.000000000000000 0.000000000000000 0.000000000000000 0.000000000000000 
0.000000000000000 0.000000000000000 -1.000000000000000 0.000000000000000 
0.000000000000000 1.000000000000000 0.000000000000000 0.000000000000000 
1
1.000000000000000 0.000000000000000 0.000000000000000 0.000000000000000 
0.000000000000000 1.000000000000000 0.000000000000000 0.000000000000000 
0.000000000000000 0.000000000000000 1.000000000000000 0.000000000000000 
2  5 1 6 -1 7 -1 0
1
1.000000000000000 0.000000000000000 0.000000000000000 0.000000000000000 
0.000000000000000 1.000000000000000 0.000000000000000 -5.000000000000000 
0.000000000000000 0.000000000000000 1.000000000000000 0.000000000000004 
2  9 -1 5 1 6 -1 7 -1 0
2  2 1 3 -1 1 1 5 -1 9 -1 5 1 6 -1 7 -1 0
1
1.000000000000000 0.000000000000000 0.000000000000000 0.000000000000000 
0.000000000000000 1.000000000000000 0.000000000000000 0.000000000000000 
0.000000000000000 0.000000000000000 1.000000000000000 0.000000000000000 
1
1.000000000000000 0.000000000000000 0.000000000000000 0.000000000000000 
0.000000000000000 0.000000000000000 -1.000000000000000 0.000000000000000 
0.000000000000000 1.000000000000000 0.000000000000000 0.000000000000000 
1
1.000000000000000 0.000000000000000 0.000000000000000 0.000000000000000 
0.000000000000000 -0.000000000000000 -1.000000000000000 0.000000000000000 
0.000000000000000 1.000000000000000 -0.000000000000000 0.000000000000000 
1
1.000000000000000 0.000000000000000 0.000000000000000 -0.000000000000000 
0.000000000000000 1.000000000000000 0.000000000000000 -0.000000000000008 
0.000000000000000 0.000000000000000 1.000000000000000 -17.500000000000000 
2  12 1 13 1 14 -1 15 1 0
1
1.000000000000000 0.000000000000000 0.000000000000000 0.000000000000000 
0.000000000000000 1.000000000000000 0.000000000000000 0.000000000000016 
0.000000000000000 0.000000000000000 1.000000000000000 35.000000000000000 
2  12 1 13 1 14 -1 15 1 17 1 0
2  12 1 13 1 14 -1 15 1 2 1 3 -1 0
2  15 -1 14 1 13 -1 12 -1 0
2  17 -1 15 -1 14 1 13 -1 12 -1 0
2  5 1 6 -1 7 -1 15 -1 14 1 13 -1 12 -1 0
2  9 -1 5 1 6 -1 7 -1 15 -1 14 1 13 -1 12 -1 0
2  5 1 6 -1 7 -1 17 -1 15 -1 14 1 13 -1 12 -1 0
2  9 -1 5 1 6 -1 7 -1 17 -1 15 -1 14 1 13 -1 12 -1 0
2  13 -1 12 -1 0
2  12 1 13 1 14 -1 15 1 17 1 2 1 3 -1 0
1
1.000000000000000 0.000000000000000 0.000000000000000 0.000000000000000 
0.000000000000000 1.000000000000000 0.000000000000000 0.000000000000000 
0.000000000000000 0.000000000000000 1.000000000000000 0.000000000000000 
1
-1.000000000000000 0.000000000000000 0.000000000000000 0.000000000000000 
0.000000000000000 -1.000000000000000 0.000000000000001 0.000000000000007 
0.000000000000000 0.000000000000001 1.000000000000000 10.000000000000000 
2  28 1 29 1 3 -1 0
2  3 1 29 -1 28 -1 0
1
1.000000000000000 0.000000000000000 0.000000000000000 -0.000000000000000 
0.000000000000000 1.000000000000000 0.000000000000000 -114.713948585165539 
0.000000000000000 0.000000000000000 1.000000000000000 0.000000000000102 
2  32 -1 3 1 29 -1 28 -1 0
2  29 -1 28 -1 0
2  2 1 29 -1 28 -1 0
2  7 1 6 1 1 -1 3 1 29 -1 28 -1 0
2  14 -1 15 1 2 1 3 -1 0
2  12 1 13 1 0
2  5 1 1 -1 3 1 2 -1 15 -1 14 1 13 -1 12 -1 0
2  5 1 1 -1 3 1 2 -1 17 -1 15 -1 14 1 13 -1 12 -1 0
2  14 -1 15 1 17 1 2 1 3 -1 0
Curve2ds 65
1 0.00000000000000000 0.00000000000000000 0.00000000000000000 -1.00000000000000000 
1 0.00000000000000000 0.00000000000000000 1.00000000000000000 0.00000000000000000 
1 -0.00000000000000089 -5.00000000000000000 1.00000000000000000 0.00000000000000000 
1 20.00000000000000000 -0.00000000000000178 0.00000000000000000 -1.00000000000000000 
1 15.00000000000000711 0.00000000000000044 -0.00000000000000044 -1.00000000000000000 
1 0.00000000000000000 0.00000000000000000 1.00000000000000000 0.00000000000000000 
1 0.00000000000000000 -35.00000000000000000 1.00000000000000000 0.00000000000000000 
1 0.00000000000000000 0.00000000000000000 1.00000000000000000 0.00000000000000000 
1 0.00000000000000000 -4.99999999999999911 1.00000000000000000 0.00000000000000000 
1 0.00000000000000000 0.00000000000000000 1.00000000000000000 0.00000000000000000 
1 0.00000000000000000 -5.00000000000000000 1.00000000000000000 0.00000000000000000 
1 10.00000000000000000 -20.00000000000000000 0.00000000000000000 1.00000000000000000 
1 40.00000000000000000 0.00000000000000000 0.00000000000000000 -1.00000000000000000 
1 0.00000000000000000 0.00000000000000000 1.00000000000000000 0.00000000000000000 
1 -0.00000000000000089 -5.00000000000000000 1.00000000000000000 0.00000000000000000 
1 0.00000000000000000 0.00000000000000000 0.00000000000000000 -1.00000000000000000 
1 4.99999999999999289 0.00000000000000222 0.00000000000000044 -1.00000000000000000 
1 0.00000000000000000 0.00000000000000000 1.00000000000000000 0.00000000000000000 
1 0.00000000000000000 -114.71394858516553938 1.00000000000000000 0.00000000000000000 
2 0.00000000000000022 0.00000000000000009 0.00000000000000000 1.00000000000000000 -1.00000000000000000 0.00000000000000000 3.96875000000000000
2 20.00000000000000000 -17.50000000000000000 -1.00000000000000000 -0.00000000000000000 0.00000000000000000 -1.00000000000000000 3.96875000000000089
2 20.00000000000000000 -17.49999999999999289 -1.00000000000000000 -0.00000000000000000 0.00000000000000000 -1.00000000000000000 3.96875000000000000
1 40.00000000000000000 0.00000000000000000 0.00000000000000000 -1.00000000000000000 
1 0.00000000000000000 -0.00000000000000000 0.00000000000000000 -1.00000000000000000 
1 0.00000000000000000 -0.00000000000000000 1.00000000000000000 0.00000000000000000 
1 -0.00000000000000133 -35.00000000000000000 1.00000000000000000 0.00000000000000000 
1 -10.00000000000000000 -20.00000000000000000 1.00000000000000000 0.00000000000000000 
1 10.00000000000000000 20.00000000000000000 -1.00000000000000000 0.00000000000000000 
1 0.00000000000000000 0.00000000000000000 1.00000000000000000 0.00000000000000000 
1 0.00000000000000133 -35.00000000000000000 1.00000000000000000 0.00000000000000000 
1 0.00000000000000000 -0.00000000000000000 1.00000000000000000 0.00000000000000000 
1 0.00000000000000000 -35.00000000000000000 1.00000000000000000 0.00000000000000000 
1 -10.00000000000000000 20.00000000000000000 0.00000000000000000 -1.00000000000000000 
1 -8.41249999999999964 -18.41250000000000142 1.00000000000000000 0.00000000000000000 
1 0.00000000000000000 -0.00000000000000000 1.00000000000000000 0.00000000000000000 
1 -0.00000000000000133 -35.00000000000000000 1.00000000000000000 0.00000000000000000 
1 0.00000000000000000 -0.00000000000000000 1.00000000000000000 0.00000000000000000 
1 0.00000000000000000 -35.00000000000000000 1.00000000000000000 0.00000000000000000 
1 -8.41249999999999964 18.41250000000000142 0.00000000000000000 -1.00000000000000000 
1 8.41249999999999964 18.41250000000000142 -1.00000000000000000 0.00000000000000000 
1 0.00000000000000000 0.00000000000000000 1.00000000000000000 0.00000000000000000 
1 0.00000000000000133 -35.00000000000000000 1.00000000000000000 0.00000000000000000 
1 0.00000000000000000 0.00000000000000000 1.00000000000000000 0.00000000000000000 
1 0.00000000000000000 -35.00000000000000000 1.00000000000000000 0.00000000000000000 
1 8.41249999999999964 -18.41250000000000142 0.00000000000000000 1.00000000000000000 
1 1.58749999999999858 -1.58750000000000746 1.00000000000000000 0.00000000000000000 
1 1.58749999999999858 -1.58749999999999325 1.00000000000000000 0.00000000000000000 
1 0.00000000000000000 -0.00000000000000000 0.00000000000000000 -1.00000000000000000 
1 20.00000000000000000 0.00000000000000178 0.00000000000000000 -1.00000000000000000 
1 0.00000000000000000 0.00000000000000000 0.00000000000000000 -1.00000000000000000 
1 6.28318530717958623 0.00000000000000000 0.00000000000000000 -1.00000000000000000 
2 18.41249999999999787 -17.49999999999999645 -1.00000000000000000 -0.00000000000000000 0.00000000000000000 -1.00000000000000000 3.96875000000000000
1 0.00000000000000000 -1.58750000000000036 1.00000000000000000 0.00000000000000000 
2 19.99999999999999645 -17.49999999999999645 1.00000000000000000 0.00000000000000000 0.00000000000000000 -1.00000000000000000 3.96875000000000000
1 0.00000000000000000 -19.99999999999999645 1.00000000000000000 0.00000000000000000 
1 36.82500000000000284 0.00000000000000000 0.00000000000000000 -1.00000000000000000 
1 0.00000000000000000 -0.00000000000000000 0.00000000000000000 -1.00000000000000000 
1 0.00000000000000000 0.00000000000000000 0.00000000000000000 -1.00000000000000000 
1 16.82499999999999929 -0.00000000000000037 0.00000000000000000 -1.00000000000000000 
1 0.00000000000000000 -0.00000000000000000 0.00000000000000000 -1.00000000000000000 
1 16.82499999999999929 0.00000000000000037 0.00000000000000000 -1.00000000000000000 
2 18.41249999999999787 -17.49999999999999645 1.00000000000000000 0.00000000000000000 0.00000000000000000 -1.00000000000000000 3.96875000000000000
1 0.00000000000000000 -18.41249999999999432 1.00000000000000000 0.00000000000000000 
1 36.82500000000000284 0.00000000000000000 0.00000000000000000 -1.00000000000000000 
1 0.00000000000000000 0.00000000000000000 0.00000000000000000 -1.00000000000000000 
Curves 21
1 -20.00000000000000000 9.99999999999999289 -17.50000000000000355 0.00000000000000000 0.00000000000000044 1.00000000000000000 
1 -20.00000000000000000 10.00000000000000000 0.00000000000000000 1.00000000000000000 0.00000000000000000 0.00000000000000000 
1 20.00000000000000000 9.99999999999999289 -17.50000000000000355 0.00000000000000000 0.00000000000000044 1.00000000000000000 
2 0.00000000000000000 0.00000000000000000 0.00000000000000000 0.00000000000000000 0.00000000000000000 1.00000000000000000 1.00000000000000000 0.00000000000000000 0.00000000000000000 0.00000000000000000 1.00000000000000000 0.00000000000000000 3.96875000000000000
1 -20.00000000000000000 -10.00000000000000711 -17.49999999999999645 0.00000000000000000 0.00000000000000044 1.00000000000000000 
1 -20.00000000000000000 -10.00000000000000000 0.00000000000000000 0.00000000000000000 1.00000000000000000 0.00000000000000000 
1 20.00000000000000000 10.00000000000000000 0.00000000000000000 0.00000000000000000 -1.00000000000000000 0.00000000000000000 
1 20.00000000000000000 -10.00000000000000000 0.00000000000000000 -1.00000000000000000 0.00000000000000000 0.00000000000000000 
1 -18.41250000000000142 -8.41249999999999964 0.00000000000000000 0.00000000000000000 1.00000000000000000 0.00000000000000000 
1 18.41250000000000142 -8.41249999999999964 0.00000000000000000 -1.00000000000000000 0.00000000000000000 0.00000000000000000 
1 18.41250000000000142 8.41249999999999964 0.00000000000000000 0.00000000000000000 -1.00000000000000000 0.00000000000000000 
1 -18.41250000000000142 8.41249999999999964 0.00000000000000000 1.00000000000000000 0.00000000000000000 0.00000000000000000 
1 20.00000000000000000 -10.00000000000000711 -17.49999999999999645 0.00000000000000000 0.00000000000000044 1.00000000000000000 
1 -3.96875000000000000 10.00000000000000000 -0.00000000000000888 -0.00000000000000000 -1.00000000000000000 0.00000000000000089 
2 0.00000000000000000 8.41249999999999964 -0.00000000000000747 0.00000000000000000 1.00000000000000000 -0.00000000000000089 -1.00000000000000000 0.00000000000000000 0.00000000000000000 0.00000000000000000 0.00000000000000089 1.00000000000000000 3.96875000000000000
2 0.00000000000000000 -9.99999999999999645 0.00000000000000888 0.00000000000000000 1.00000000000000000 -0.00000000000000089 -1.00000000000000000 0.00000000000000000 0.00000000000000000 0.00000000000000000 0.00000000000000089 1.00000000000000000 3.96875000000000000
1 -18.41250000000000142 -8.41250000000000675 -17.49999999999999645 0.00000000000000000 0.00000000000000044 1.00000000000000000 
1 -18.41250000000000142 8.41249999999999254 -17.50000000000000355 0.00000000000000000 0.00000000000000044 1.00000000000000000 
1 18.41250000000000142 -8.41250000000000675 -17.49999999999999645 0.00000000000000000 0.00000000000000044 1.00000000000000000 
2 0.00000000000000000 -8.41249999999999432 0.00000000000000747 0.00000000000000000 1.00000000000000000 -0.00000000000000089 -1.00000000000000000 0.00000000000000000 0.00000000000000000 0.00000000000000000 0.00000000000000089 1.00000000000000000 3.96875000000000000
1 18.41250000000000142 8.41249999999999254 -17.50000000000000355 0.00000000000000000 0.00000000000000044 1.00000000000000000 
Polygon3D 0
PolygonOnTriangulations 0
Surfaces 15
1 -20.00000000000000000 9.99999999999999289 -17.50000000000000355 0.00000000000000000 1.00000000000000000 -0.00000000000000044 1.00000000000000000 0.00000000000000000 0.00000000000000000 0.00000000000000000 -0.00000000000000044 -1.00000000000000000 
1 -19.99999999999999645 9.99999999999998401 -17.50000000000000355 -1.00000000000000000 0.00000000000000000 0.00000000000000000 0.00000000000000000 0.00000000000000089 1.00000000000000000 0.00000000000000000 1.00000000000000000 -0.00000000000000089 
1 -20.00000000000000000 -10.00000000000000711 -17.49999999999999645 -1.00000000000000000 0.00000000000000000 0.00000000000000000 0.00000000000000000 1.00000000000000000 -0.00000000000000044 -0.00000000000000000 -0.00000000000000044 -1.00000000000000000 
1 -19.99999999999999645 9.99999999999998224 -17.50000000000000355 -0.00000000000000000 0.00000000000000089 1.00000000000000000 1.00000000000000000 0.00000000000000000 0.00000000000000000 0.00000000000000000 1.00000000000000000 -0.00000000000000089 
1 -19.99999999999999645 10.00000000000001421 17.49999999999998934 -0.00000000000000000 0.00000000000000089 1.00000000000000000 1.00000000000000000 0.00000000000000000 0.00000000000000000 0.00000000000000000 1.00000000000000000 -0.00000000000000089 
1 0.00000000000000000 0.00000000000000000 0.00000000000000000 0.00000000000000000 1.00000000000000000 -0.00000000000000022 0.00000000000000000 0.00000000000000022 1.00000000000000000 1.00000000000000000 -0.00000000000000000 0.00000000000000000 
1 19.99999999999999645 9.99999999999998401 -17.50000000000000355 -1.00000000000000000 0.00000000000000000 0.00000000000000000 0.00000000000000000 0.00000000000000089 1.00000000000000000 0.00000000000000000 1.00000000000000000 -0.00000000000000089 
1 20.00000000000000000 9.99999999999999289 -17.50000000000000355 1.00000000000000000 0.00000000000000000 -0.00000000000000000 0.00000000000000000 -1.00000000000000000 0.00000000000000044 0.00000000000000000 -0.00000000000000044 -1.00000000000000000 
2 0.00000000000000000 10.00000000000000000 -0.00000000000000888 0.00000000000000000 1.00000000000000000 -0.00000000000000089 -1.00000000000000000 0.00000000000000000 0.00000000000000000 0.00000000000000000 0.00000000000000089 1.00000000000000000 3.96875000000000000
1 0.00000000000000009 0.00000000000000644 10.00000000000000178 0.00000000000000000 0.00000000000000052 1.00000000000000000 0.00000000000000000 1.00000000000000000 -0.00000000000000052 -1.00000000000000000 0.00000000000000000 0.00000000000000000 
1 20.00000000000000000 -10.00000000000000711 -17.49999999999999645 0.00000000000000000 -1.00000000000000000 0.00000000000000044 -1.00000000000000000 0.00000000000000000 0.00000000000000000 -0.00000000000000000 -0.00000000000000044 -1.00000000000000000 
1 -18.41250000000000142 -8.41250000000000675 -17.49999999999999645 -1.00000000000000000 0.00000000000000000 0.00000000000000000 0.00000000000000000 1.00000000000000000 -0.00000000000000044 -0.00000000000000000 -0.00000000000000044 -1.00000000000000000 
1 18.41250000000000142 -8.41250000000000675 -17.49999999999999645 0.00000000000000000 -1.00000000000000000 0.00000000000000044 -1.00000000000000000 0.00000000000000000 0.00000000000000000 -0.00000000000000000 -0.00000000000000044 -1.00000000000000000 
1 18.41250000000000142 8.41249999999999254 -17.50000000000000355 1.00000000000000000 0.00000000000000000 -0.00000000000000000 0.00000000000000000 -1.00000000000000000 0.00000000000000044 0.00000000000000000 -0.00000000000000044 -1.00000000000000000 
1 -18.41250000000000142 8.41249999999999254 -17.50000000000000355 0.00000000000000000 1.00000000000000000 -0.00000000000000044 1.00000000000000000 0.00000000000000000 0.00000000000000000 0.00000000000000000 -0.00000000000000044 -1.00000000000000000 
Triangulations 0

TShapes 63
Ve
0.000000100000007
-20.000000000000000 10.000000000000000 0.000000000000000
0 0

0101101
*
Ed
 0.000000100000000 1 1 0
1  1 0 0.000000000000000 35.000000000000000
2  1 1 0 0.000000000000000 35.000000000000000
2  2 2 8 0.000000000000000 35.000000000000000
2  3 2 10 0.000000000000000 35.000000000000000
2  4 3 0 0.000000000000000 35.000000000000000
2  5 3 11 0.000000000000000 35.000000000000000
0

0101000
+63 16 -63 18 *
Ve
0.000000100000007
20.000000000000000 10.000000000000000 0.000000000000000
0 0

0101101
*
Ed
 0.000000100000000 1 1 0
1  2 0 0.000000000000000 40.000000000000000
2  6 1 20 0.000000000000000 40.000000000000000
2  7 1 21 0.000000000000000 40.000000000000000
2  8 4 22 0.000000000000000 40.000000000000000
2  9 4 23 0.000000000000000 40.000000000000000
2  10 5 24 0.000000000000000 40.000000000000000
2  11 5 25 0.000000000000000 40.000000000000000
2  12 6 26 0.000000000000000 40.000000000000000
0

0101000
+63 0 -61 0 *
Ed
 0.000000100000000 1 1 0
1  3 0 0.000000000000000 35.000000000000000
2  13 1 0 0.000000000000000 35.000000000000000
2  14 7 8 0.000000000000000 35.000000000000000
2  15 7 10 0.000000000000000 35.000000000000000
2  16 8 0 0.000000000000000 35.000000000000000
2  17 8 11 0.000000000000000 35.000000000000000
0

0101000
+61 16 -61 18 *
Wi

0101100
+62 4 -60 19 +60 27 -59 4 *
Ve
0.000000100000004
3.968750000000000 0.000000000000000 0.000000000000000
0 0

0101101
*
Ed
 0.000000100000004 1 1 0
1  4 0 0.000000000000000 6.283185307179586
2  18 9 31 0.000000000000000 6.283185307179586
2  19 9 33 0.000000000000000 6.283185307179586
2  20 10 34 0.000000000000000 6.283185307179586
2  21 1 35 0.000000000000000 6.283185307179586
2  22 1 36 0.000000000000000 6.283185307179586
0

0101000
+57 0 -57 0 *
Wi

0101100
-56 30 *
Fa
0  0.000000100000000 1 4

0101000
+58 0 +55 0 *
Ve
0.000000100000000
-20.000000000000000 -10.000000000000000 0.000000000000000
0 0

0101101
*
Ed
 0.000000100000000 1 1 0
1  5 0 0.000000000000000 35.000000000000000
2  23 11 0 0.000000000000000 35.000000000000000
2  24 3 0 0.000000000000000 35.000000000000000
0

0101000
+53 16 -53 18 *
Ed
 0.000000100000000 1 1 0
1  6 0 0.000000000000000 20.000000000000000
2  25 3 20 0.000000000000000 20.000000000000000
2  26 3 21 0.000000000000000 20.000000000000000
2  27 6 26 0.000000000000000 20.000000000000000
0

0101000
+53 0 -63 0 *
Wi

0101100
+52 0 -62 0 -51 16 +51 18 *
Fa
0  0.000000100000000 3 0

0111000
+50 0 *
Ve
0.000000100000000
20.000000000000000 -10.000000000000000 0.000000000000000
0 0

0101101
*
Ed
 0.000000100000000 1 1 0
1  7 0 0.000000000000000 20.000000000000000
2  28 6 26 0.000000000000000 20.000000000000000
2  29 8 20 0.000000000000000 20.000000000000000
2  30 8 21 0.000000000000000 20.000000000000000
0

0101000
+61 0 -48 0 *
Ed
 0.000000100000000 1 1 0
1  8 0 0.000000000000000 40.000000000000000
2  31 11 20 0.000000000000000 40.000000000000000
2  32 11 21 0.000000000000000 40.000000000000000
2  33 6 26 0.000000000000000 40.000000000000000
0

0101000
+48 0 -53 0 *
Wi

0101100
+60 38 +47 38 +46 38 +51 38 *
Ve
0.000000100000000
-18.412500000000001 -8.412500000000000 0.000000000000000
0 0

0101101
*
Ve
0.000000100000007
-18.412500000000001 8.412500000000000 0.000000000000000
0 0

0101101
*
Ed
 0.000000100000000 1 1 0
1  9 0 0.000000000000000 16.824999999999999
2  34 6 26 0.000000000000000 16.824999999999999
2  35 12 20 0.000000000000000 16.824999999999999
2  36 12 21 0.000000000000000 16.824999999999999
0

0101000
+44 0 -43 0 *
Ve
0.000000100000000
18.412500000000001 -8.412500000000000 0.000000000000000
0 0

0101101
*
Ed
 0.000000100000000 1 1 0
1  10 0 0.000000000000000 36.825000000000003
2  37 13 20 0.000000000000000 36.825000000000003
2  38 13 21 0.000000000000000 36.825000000000003
2  39 6 26 0.000000000000000 36.825000000000003
0

0101000
+41 0 -44 0 *
Ve
0.000000100000007
18.412500000000001 8.412500000000000 0.000000000000000
0 0

0101101
*
Ed
 0.000000100000000 1 1 0
1  11 0 0.000000000000000 16.824999999999999
2  40 6 26 0.000000000000000 16.824999999999999
2  41 14 20 0.000000000000000 16.824999999999999
2  42 14 21 0.000000000000000 16.824999999999999
0

0101000
+39 0 -41 0 *
Ed
 0.000000100000004 1 1 0
1  12 0 0.000000000000000 36.825000000000003
2  43 15 20 0.000000000000000 36.825000000000003
2  44 15 21 0.000000000000000 36.825000000000003
2  45 6 26 0.000000000000000 36.825000000000003
2  46 4 39 0.000000000000000 36.825000000000003
2  47 5 40 0.000000000000000 36.825000000000003
0

0101000
+43 0 -39 0 *
Wi

0101100
-42 38 -40 38 -38 38 -37 38 *
Fa
0  0.000000100000000 6 0

0111000
+45 0 +36 0 *
Ed
 0.000000100000000 1 1 0
1  13 0 0.000000000000000 35.000000000000000
2  48 11 0 0.000000000000000 35.000000000000000
2  49 8 0 0.000000000000000 35.000000000000000
0

0101000
+48 16 -48 18 *
Wi

0101100
+59 0 -34 0 -47 16 +47 18 *
Fa
0  0.000000100000000 8 0

0111000
+33 0 *
Ve
0.000000100000001
-3.968750000000000 8.412500000000000 -0.000000000000007
0 0

0101101
*
Ed
 0.000000100000000 1 1 0
1  14 0 0.000000000000000 1.587500000000000
3  50 51CN 9 0 0.000000000000000 1.587500000000000
0

0101000
+57 30 -31 0 *
Ed
 0.000000100000000 1 1 0
1  15 0 0.000000000000000 6.283185307179586
2  52 15 4 0.000000000000000 6.283185307179586
2  53 9 0 0.000000000000000 6.283185307179586
0

0101000
+31 0 -31 0 *
Wi

0101100
-56 30 -30 0 +29 0 +30 0 *
Fa
0  0.000000100000000 9 0

0111000
+28 0 *
Wi

0101100
+34 4 -46 19 +46 27 -52 4 *
Ve
0.000000100000001
-3.968750000000000 -9.999999999999996 0.000000000000009
0 0

0101101
*
Ed
 0.000000100000000 1 1 0
1  16 0 0.000000000000000 6.283185307179586
2  54 11 4 0.000000000000000 6.283185307179586
2  55 9 0 0.000000000000000 6.283185307179586
0

0101000
+25 0 -25 0 *
Wi

0101100
+24 0 *
Fa
0  0.000000100000000 11 4

0111000
+26 0 +23 0 *
Ed
 0.000000100000000 1 1 0
1  17 0 0.000000000000000 35.000000000000000
2  56 13 0 0.000000000000000 35.000000000000000
2  57 12 0 0.000000000000000 35.000000000000000
0

0101000
+44 16 -44 18 *
Ed
 0.000000100000000 1 1 0
1  18 0 0.000000000000000 35.000000000000000
2  58 15 0 0.000000000000000 35.000000000000000
2  59 12 0 0.000000000000000 35.000000000000000
0

0101000
+43 16 -43 18 *
Wi

0101100
+21 0 -20 0 -42 16 +42 18 *
Fa
0  0.000000100000000 12 0

0111000
+19 0 *
Ed
 0.000000100000000 1 1 0
1  19 0 0.000000000000000 35.000000000000000
2  60 13 0 0.000000000000000 35.000000000000000
2  61 14 0 0.000000000000000 35.000000000000000
0

0101000
+41 16 -41 18 *
Wi

0101100
+17 4 -40 19 +40 27 -21 4 *
Ve
0.000000100000001
-3.968750000000000 -8.412499999999994 0.000000000000007
0 0

0101101
*
Ed
 0.000000100000000 1 1 0
1  20 0 0.000000000000000 6.283185307179586
2  62 13 4 0.000000000000000 6.283185307179586
2  63 9 0 0.000000000000000 6.283185307179586
0

0101000
+15 0 -15 0 *
Wi

0101100
+14 0 *
Fa
0  0.000000100000000 13 4

0111000
+16 0 +13 0 *
Ed
 0.000000100000000 1 1 0
1  21 0 0.000000000000000 35.000000000000000
2  64 15 0 0.000000000000000 35.000000000000000
2  65 14 0 0.000000000000000 35.000000000000000
0

0101000
+39 16 -39 18 *
Wi

0101100
+11 0 -17 0 -38 16 +38 18 *
Fa
0  0.000000100000000 14 0

0111000
+10 0 *
Wi

0101100
+20 4 -37 19 +37 27 -11 4 *
Wi

0101100
-29 0 *
Fa
0  0.000000100000000 15 4

0111000
+8 0 +7 0 *
Ed
 0.000000100000000 1 1 0
1  14 0 18.412499999999994 19.999999999999996
3  50 51CN 9 0 18.412499999999994 19.999999999999996
0

0101000
+15 0 -25 0 *
Wi

0101100
-14 0 -5 0 +24 0 +5 0 *
Fa
0  0.000000100000000 9 0

0111000
+4 0 *
Sh

0101100
+54 0 +49 4 +35 37 -35 41 +32 4 -27 0 +22 0 -18 4 -12 0 -9 4 
-6 0 -3 0 *
So

0100000
+2 0 *

+1 1 