
CASCADE Topology V1, (c) Matra-Datavision
Locations 39
1
1.000000000000000 0.000000000000000 0.000000000000000 0.000000000000000 
0.000000000000000 1.000000000000000 0.000000000000000 0.000000000000000 
0.000000000000000 0.000000000000000 1.000000000000000 0.000000000000000 
1
1.000000000000000 0.000000000000000 0.000000000000000 0.000000000000000 
0.000000000000000 -0.000000000000000 -1.000000000000000 0.000000000000000 
0.000000000000000 1.000000000000000 -0.000000000000000 0.000000000000000 
1
1.000000000000000 0.000000000000000 0.000000000000000 -0.000000000000000 
0.000000000000000 1.000000000000000 0.000000000000000 -0.000000000000008 
0.000000000000000 0.000000000000000 1.000000000000000 -17.500000000000000 
1
1.000000000000000 0.000000000000000 0.000000000000000 0.000000000000000 
0.000000000000000 0.000000000000000 -1.000000000000000 0.000000000000000 
0.000000000000000 1.000000000000000 0.000000000000000 0.000000000000000 
1
1.000000000000000 0.000000000000000 0.000000000000000 0.000000000000000 
0.000000000000000 -0.000000000000000 -1.000000000000000 0.000000000000000 
0.000000000000000 1.000000000000000 -0.000000000000000 0.000000000000000 
1
1.000000000000000 0.000000000000000 0.000000000000000 0.000000000000000 
0.000000000000000 1.000000000000000 0.000000000000000 0.000000000000000 
0.000000000000000 0.000000000000000 1.000000000000000 0.000000000000000 
1
1.000000000000000 0.000000000000000 0.000000000000000 0.000000000000000 
0.000000000000000 1.000000000000000 0.000000000000000 0.000000000000000 
0.000000000000000 0.000000000000000 1.000000000000000 0.000000000000000 
2  2 -1 3 1 4 1 5 -1 6 1 7 1 0
2  7 -1 6 -1 5 1 4 -1 3 -1 2 1 0
1
1.000000000000000 0.000000000000000 0.000000000000000 0.000000000000000 
0.000000000000000 1.000000000000000 0.000000000000000 0.000000000000000 
0.000000000000000 0.000000000000000 1.000000000000000 0.000000000000000 
1
1.000000000000000 0.000000000000000 0.000000000000000 0.000000000000000 
0.000000000000000 0.000000000000000 -1.000000000000000 0.000000000000000 
0.000000000000000 1.000000000000000 0.000000000000000 0.000000000000000 
2  10 1 11 1 2 -1 3 1 4 1 5 -1 6 1 7 1 0
1
1.000000000000000 0.000000000000000 0.000000000000000 0.000000000000000 
0.000000000000000 0.000000000000000 -1.000000000000000 0.000000000000000 
0.000000000000000 1.000000000000000 0.000000000000000 0.000000000000000 
2  13 -1 7 -1 6 -1 5 1 4 -1 3 -1 2 1 11 -1 10 -1 0
2  13 -1 0
2  6 -1 5 1 4 -1 3 -1 2 1 0
2  10 1 11 1 2 -1 3 1 4 1 5 -1 6 1 0
2  13 -1 7 -1 0
2  4 1 5 -1 6 1 7 1 0
2  7 -1 6 -1 5 1 4 -1 0
1
1.000000000000000 0.000000000000000 0.000000000000000 0.000000000000000 
0.000000000000000 1.000000000000000 0.000000000000000 0.000000000000016 
0.000000000000000 0.000000000000000 1.000000000000000 35.000000000000000 
2  10 1 11 1 2 -1 3 1 21 1 4 1 5 -1 6 1 7 1 0
2  13 -1 7 -1 6 -1 5 1 4 -1 21 -1 3 -1 2 1 11 -1 10 -1 0
2  6 1 7 1 0
2  4 1 5 -1 0
2  7 -1 6 -1 0
2  13 -1 7 -1 6 -1 0
2  6 -1 0
2  4 1 5 -1 6 1 0
2  10 1 11 1 2 -1 3 1 21 1 4 1 5 -1 6 1 0
1
1.000000000000000 0.000000000000000 0.000000000000000 0.000000000000000 
0.000000000000000 1.000000000000000 0.000000000000000 0.000000000000000 
0.000000000000000 0.000000000000000 1.000000000000000 0.000000000000000 
1
-1.000000000000000 0.000000000000000 0.000000000000000 0.000000000000000 
0.000000000000000 -1.000000000000000 0.000000000000001 0.000000000000007 
0.000000000000000 0.000000000000001 1.000000000000000 10.000000000000000 
2  31 1 32 1 5 -1 0
2  5 1 32 -1 31 -1 0
2  13 -1 7 -1 6 -1 5 1 32 -1 31 -1 0
2  6 -1 5 1 4 -1 0
2  2 -1 3 1 21 1 4 1 5 -1 6 1 7 1 0
2  7 -1 6 -1 5 1 4 -1 21 -1 3 -1 2 1 0
2  6 -1 5 1 4 -1 21 -1 3 -1 2 1 0
Curve2ds 40
8 4.71238898038468967 6.28318530717958978
1 -4.71238898038468967 0.00000000000000000 1.00000000000000000 0.00000000000000000 
8 1.57079632679489567 3.14159265358979312
1 -1.57079632679489567 -0.00000000000000000 1.00000000000000000 0.00000000000000000 
8 0.00000000000000000 1.57079632679489833
1 0.00000000000000000 0.00000000000000000 1.00000000000000000 0.00000000000000000 
8 1.57079632679489745 3.14159265358979667
1 -1.57079632679489656 0.00000000000000000 1.00000000000000000 0.00000000000000000 
8 3.14159265358979312 4.71238898038469056
1 -3.14159265358979312 0.00000000000000000 1.00000000000000000 0.00000000000000000 
8 3.14159265358979134 4.71238898038468967
1 -3.14159265358979134 0.00000000000000355 1.00000000000000000 0.00000000000000000 
8 4.71238898038469056 6.28318530717958801
1 -4.71238898038468967 0.00000000000000000 1.00000000000000000 0.00000000000000000 
8 4.71238898038468879 6.28318530717958623
1 -4.71238898038468879 0.00000000000000000 1.00000000000000000 0.00000000000000000 
8 -0.00000000000000000 34.99999999999998579
1 0.00000000000000000 0.00000000000000000 0.00000000000000000 1.00000000000000000 
8 -0.00000000000000000 34.99999999999998579
1 0.00000000000000000 0.00000000000000000 0.00000000000000000 1.00000000000000000 
8 0.00000000000000000 34.99999999999998579
1 1.57079632679489656 0.00000000000000000 0.00000000000000000 1.00000000000000000 
8 4.71238898038469056 6.28318530717958978
1 -4.71238898038468967 34.99999999999998579 1.00000000000000000 0.00000000000000000 
8 0.00000000000000000 34.99999999999998579
1 1.57079632679489656 0.00000000000000000 0.00000000000000000 1.00000000000000000 
8 1.57079632679489389 3.14159265358979312
1 -1.57079632679489389 34.99999999999998579 1.00000000000000000 0.00000000000000000 
8 0.00000000000000000 34.99999999999998579
1 0.00000000000000000 0.00000000000000000 0.00000000000000000 1.00000000000000000 
8 0.00000000000000000 6.28318530717958623
1 0.00000000000000000 -18.41249999999999076 1.00000000000000000 0.00000000000000000 
8 0.00000000000000000 34.99999999999998579
1 1.57079632679489656 0.00000000000000000 0.00000000000000000 1.00000000000000000 
8 0.00000000000000000 6.28318530717958623
1 0.00000000000000000 -1.58750000000000013 1.00000000000000000 0.00000000000000000 
8 -0.00000000000000000 34.99999999999998579
1 1.57079632679489656 0.00000000000000000 0.00000000000000000 1.00000000000000000 
8 0.00000000000000000 1.57079632679489745
1 0.00000000000000000 34.99999999999998579 1.00000000000000000 0.00000000000000000 
8 -0.00000000000000000 34.99999999999998579
1 0.00000000000000000 0.00000000000000000 0.00000000000000000 1.00000000000000000 
8 1.57079632679489567 3.14159265358979667
1 -1.57079632679489567 34.99999999999998579 1.00000000000000000 0.00000000000000000 
8 0.00000000000000355 34.99999999999999289
1 0.00000000000000000 0.00000000000000000 0.00000000000000000 1.00000000000000000 
8 0.00000000000000355 34.99999999999999289
1 0.00000000000000000 0.00000000000000000 0.00000000000000000 1.00000000000000000 
8 0.00000000000000000 6.28318530717958623
1 0.00000000000000000 0.00000000000000000 1.00000000000000000 0.00000000000000000 
8 -0.00000000000000355 34.99999999999998579
1 1.57079632679489656 0.00000000000000000 0.00000000000000000 1.00000000000000000 
8 3.14159265358979312 4.71238898038468967
1 -3.14159265358979312 34.99999999999998579 1.00000000000000000 0.00000000000000000 
8 0.00000000000000355 34.99999999999998579
1 1.57079632679489656 0.00000000000000000 0.00000000000000000 1.00000000000000000 
8 3.14159265358979134 4.71238898038468967
1 -3.14159265358979134 34.99999999999999289 1.00000000000000000 0.00000000000000000 
8 -0.00000000000000355 34.99999999999997868
1 0.00000000000000000 0.00000000000000000 0.00000000000000000 1.00000000000000000 
8 0.00000000000000000 34.99999999999998579
1 0.00000000000000000 0.00000000000000000 0.00000000000000000 1.00000000000000000 
8 -0.00000000000000355 34.99999999999997868
1 1.57079632679489656 0.00000000000000000 0.00000000000000000 1.00000000000000000 
8 4.71238898038468967 6.28318530717958801
1 -4.71238898038468967 34.99999999999998579 1.00000000000000000 0.00000000000000000 
8 -0.00000000000000355 34.99999999999997868
1 1.57079632679489656 0.00000000000000000 0.00000000000000000 1.00000000000000000 
8 4.71238898038468967 6.28318530717958623
1 -4.71238898038468967 34.99999999999998579 1.00000000000000000 0.00000000000000000 
8 0.00000000000000000 6.28318530717958623
1 0.00000000000000000 -19.99999999999999289 1.00000000000000000 0.00000000000000000 
8 18.41249999999999076 19.99999999999999289
1 0.00000000000000000 0.00000000000000000 0.00000000000000000 -1.00000000000000000 
8 18.41249999999999076 19.99999999999999289
1 6.28318530717958623 0.00000000000000000 0.00000000000000000 -1.00000000000000000 
8 0.00000000000000000 1.58750000000000013
1 0.00000000000000000 0.00000000000000000 0.00000000000000000 -1.00000000000000000 
8 0.00000000000000000 1.58750000000000013
1 6.28318530717958623 0.00000000000000000 0.00000000000000000 -1.00000000000000000 
Curves 54
1 -18.41249999999999787 17.49999999999999289 9.08749999999999858 0.00000000000000000 0.00000000000000022 1.00000000000000000 
8 4.71238898038468967 6.28318530717958978
2 -17.41249999999999432 17.49999999999998579 -7.41250000000001474 0.00000000000000000 -1.00000000000000000 0.00000000000000111 0.00000000000000000 -0.00000000000000111 -1.00000000000000000 1.00000000000000000 0.00000000000000000 0.00000000000000000 0.99999999999999989
8 1.57079632679489567 3.14159265358979312
2 -17.41249999999999432 17.50000000000000000 7.41249999999997922 0.00000000000000000 1.00000000000000000 -0.00000000000000111 0.00000000000000000 -0.00000000000000111 -1.00000000000000000 -1.00000000000000000 0.00000000000000000 0.00000000000000000 0.99999999999999989
1 18.41249999999999787 17.49999999999999289 9.08749999999999858 -1.00000000000000000 0.00000000000000000 0.00000000000000000 
1 -18.41249999999999787 17.50000000000000000 25.91249999999999432 1.00000000000000000 0.00000000000000000 0.00000000000000000 
8 0.00000000000000000 1.57079632679489833
2 17.41249999999999432 17.49999999999998579 -7.41250000000001474 0.00000000000000000 -1.00000000000000000 0.00000000000000111 0.00000000000000000 -0.00000000000000111 -1.00000000000000000 1.00000000000000000 0.00000000000000000 0.00000000000000000 0.99999999999999989
8 1.57079632679489745 3.14159265358979667
2 17.41249999999999432 17.50000000000000000 7.41249999999997922 0.00000000000000000 -1.00000000000000000 0.00000000000000111 0.00000000000000000 -0.00000000000000111 -1.00000000000000000 1.00000000000000000 0.00000000000000000 0.00000000000000000 0.99999999999999989
1 18.41249999999999787 17.50000000000000000 25.91249999999999432 0.00000000000000000 -0.00000000000000022 -1.00000000000000000 
1 -19.99999999999999645 17.50000000000000000 27.49999999999999289 1.00000000000000000 0.00000000000000000 0.00000000000000000 
8 3.14159265358979312 4.71238898038469056
2 -17.99999999999999289 17.50000000000000000 7.99999999999997957 0.00000000000000000 -1.00000000000000000 0.00000000000000111 0.00000000000000000 -0.00000000000000111 -1.00000000000000000 1.00000000000000000 0.00000000000000000 0.00000000000000000 1.99999999999999978
8 3.14159265358979134 4.71238898038468967
2 17.99999999999999289 17.50000000000000000 7.99999999999997957 0.00000000000000000 1.00000000000000000 -0.00000000000000111 0.00000000000000000 -0.00000000000000111 -1.00000000000000000 -1.00000000000000000 0.00000000000000000 0.00000000000000000 1.99999999999999978
1 -19.99999999999999645 17.49999999999999289 7.49999999999999822 0.00000000000000000 0.00000000000000022 1.00000000000000000 
1 19.99999999999999645 17.50000000000000000 27.49999999999999289 0.00000000000000000 -0.00000000000000022 -1.00000000000000000 
8 4.71238898038469056 6.28318530717958801
2 -17.99999999999999289 17.49999999999998224 -8.00000000000001421 0.00000000000000000 -1.00000000000000000 0.00000000000000111 0.00000000000000000 -0.00000000000000111 -1.00000000000000000 1.00000000000000000 0.00000000000000000 0.00000000000000000 1.99999999999999978
8 4.71238898038468879 6.28318530717958623
2 17.99999999999999289 17.49999999999998224 -8.00000000000001421 0.00000000000000000 1.00000000000000000 -0.00000000000000111 0.00000000000000000 -0.00000000000000111 -1.00000000000000000 -1.00000000000000000 0.00000000000000000 0.00000000000000000 1.99999999999999978
1 19.99999999999999645 17.49999999999999289 7.49999999999999822 -1.00000000000000000 0.00000000000000000 0.00000000000000000 
1 -18.41249999999999432 17.49999999999998579 -7.41250000000001474 0.00000000000000000 -1.00000000000000000 0.00000000000000111 
1 -18.41249999999999432 17.50000000000000000 7.41249999999997922 0.00000000000000000 -1.00000000000000000 0.00000000000000111 
1 -18.41249999999999787 -17.50000000000000000 -25.91249999999999432 0.00000000000000000 0.00000000000000022 1.00000000000000000 
1 -17.41249999999999432 17.49999999999998224 -8.41250000000001386 0.00000000000000000 -1.00000000000000000 0.00000000000000111 
8 4.71238898038469056 6.28318530717958978
2 -17.41249999999999432 -17.50000000000000000 -7.41249999999997655 0.00000000000000000 -1.00000000000000000 0.00000000000000111 0.00000000000000000 -0.00000000000000111 -1.00000000000000000 1.00000000000000000 0.00000000000000000 0.00000000000000000 0.99999999999999989
1 -17.41249999999999432 17.50000000000000355 8.41249999999997833 0.00000000000000000 -1.00000000000000000 0.00000000000000111 
8 1.57079632679489389 3.14159265358979312
2 -17.41249999999999432 -17.49999999999998579 7.41250000000001741 0.00000000000000000 1.00000000000000000 -0.00000000000000111 0.00000000000000000 -0.00000000000000111 -1.00000000000000000 -1.00000000000000000 0.00000000000000000 0.00000000000000000 0.99999999999999989
1 17.41249999999999432 17.49999999999998224 -8.41250000000001386 0.00000000000000000 -1.00000000000000000 0.00000000000000111 
1 18.41249999999999787 -17.50000000000000000 -25.91249999999999432 -1.00000000000000000 0.00000000000000000 0.00000000000000000 
2 0.00000000000000000 -0.00000000000000934 -8.41249999999999254 0.00000000000000000 0.00000000000000111 1.00000000000000000 -1.00000000000000000 0.00000000000000000 0.00000000000000000 0.00000000000000000 -1.00000000000000000 0.00000000000000111 3.96874999999999956
1 17.41249999999999432 17.50000000000000355 8.41249999999997833 0.00000000000000000 -1.00000000000000000 0.00000000000000111 
1 -18.41249999999999787 -17.49999999999999289 -9.08749999999999858 1.00000000000000000 0.00000000000000000 0.00000000000000000 
2 0.00000000000000000 0.00000000000000934 8.41249999999999787 0.00000000000000000 0.00000000000000111 1.00000000000000000 -1.00000000000000000 0.00000000000000000 0.00000000000000000 0.00000000000000000 -1.00000000000000000 0.00000000000000111 3.96874999999999956
1 18.41249999999999432 17.49999999999998579 -7.41250000000001474 0.00000000000000000 -1.00000000000000000 0.00000000000000111 
8 0.00000000000000000 1.57079632679489745
2 17.41249999999999432 -17.50000000000000000 -7.41249999999997655 0.00000000000000000 -1.00000000000000000 0.00000000000000111 0.00000000000000000 -0.00000000000000111 -1.00000000000000000 1.00000000000000000 0.00000000000000000 0.00000000000000000 0.99999999999999989
1 18.41249999999999432 17.50000000000000000 7.41249999999997922 0.00000000000000000 -1.00000000000000000 0.00000000000000111 
8 1.57079632679489567 3.14159265358979667
2 17.41249999999999432 -17.49999999999998579 7.41250000000001741 0.00000000000000000 -1.00000000000000000 0.00000000000000111 0.00000000000000000 -0.00000000000000111 -1.00000000000000000 1.00000000000000000 0.00000000000000000 0.00000000000000000 0.99999999999999989
1 18.41249999999999787 -17.49999999999999289 -9.08749999999999858 0.00000000000000000 -0.00000000000000022 -1.00000000000000000 
1 -17.99999999999999289 17.50000000000000711 9.99999999999997868 0.00000000000000000 -1.00000000000000000 0.00000000000000111 
1 17.99999999999999289 17.50000000000000711 9.99999999999997868 0.00000000000000000 -1.00000000000000000 0.00000000000000111 
1 -19.99999999999999645 -17.49999999999999289 -7.49999999999999822 1.00000000000000000 0.00000000000000000 0.00000000000000000 
2 0.00000000000000000 9.99999999999999822 -9.99999999999999822 -0.00000000000000000 1.00000000000000000 0.00000000000000022 1.00000000000000000 0.00000000000000000 0.00000000000000000 0.00000000000000000 0.00000000000000022 -1.00000000000000000 3.96874999999999956
1 -19.99999999999999289 17.50000000000000000 7.99999999999997957 0.00000000000000000 -1.00000000000000000 0.00000000000000111 
8 3.14159265358979312 4.71238898038468967
2 -17.99999999999999289 -17.49999999999998224 8.00000000000001599 0.00000000000000000 -1.00000000000000000 0.00000000000000111 0.00000000000000000 -0.00000000000000111 -1.00000000000000000 1.00000000000000000 0.00000000000000000 0.00000000000000000 1.99999999999999978
1 19.99999999999999289 17.50000000000000000 7.99999999999997957 0.00000000000000000 -1.00000000000000000 0.00000000000000111 
8 3.14159265358979134 4.71238898038468967
2 17.99999999999999289 -17.49999999999998224 8.00000000000001599 0.00000000000000000 1.00000000000000000 -0.00000000000000111 0.00000000000000000 -0.00000000000000111 -1.00000000000000000 -1.00000000000000000 0.00000000000000000 0.00000000000000000 1.99999999999999978
1 -19.99999999999999289 17.49999999999998224 -8.00000000000001421 0.00000000000000000 -1.00000000000000000 0.00000000000000111 
1 -19.99999999999999645 -17.50000000000000000 -27.49999999999999289 0.00000000000000000 0.00000000000000022 1.00000000000000000 
1 19.99999999999999289 17.49999999999998224 -8.00000000000001421 0.00000000000000000 -1.00000000000000000 0.00000000000000111 
1 19.99999999999999645 -17.49999999999999289 -7.49999999999999822 0.00000000000000000 -0.00000000000000022 -1.00000000000000000 
1 -17.99999999999999289 17.49999999999997868 -10.00000000000001421 0.00000000000000000 -1.00000000000000000 0.00000000000000111 
8 4.71238898038468967 6.28318530717958801
2 -17.99999999999999289 -17.50000000000000000 -7.99999999999997691 0.00000000000000000 -1.00000000000000000 0.00000000000000111 0.00000000000000000 -0.00000000000000111 -1.00000000000000000 1.00000000000000000 0.00000000000000000 0.00000000000000000 1.99999999999999978
1 17.99999999999999289 17.49999999999997868 -10.00000000000001421 0.00000000000000000 -1.00000000000000000 0.00000000000000111 
8 4.71238898038468967 6.28318530717958623
2 17.99999999999999289 -17.50000000000000000 -7.99999999999997691 0.00000000000000000 1.00000000000000000 -0.00000000000000111 0.00000000000000000 -0.00000000000000111 -1.00000000000000000 -1.00000000000000000 0.00000000000000000 0.00000000000000000 1.99999999999999978
1 19.99999999999999645 -17.50000000000000000 -27.49999999999999289 -1.00000000000000000 0.00000000000000000 0.00000000000000000 
2 0.00000000000000000 -0.00000000000001110 -9.99999999999999467 0.00000000000000000 0.00000000000000111 1.00000000000000000 -1.00000000000000000 0.00000000000000000 0.00000000000000000 0.00000000000000000 -1.00000000000000000 0.00000000000000111 3.96874999999999956
1 -3.96874999999999956 0.00000000000001110 9.99999999999999822 0.00000000000000000 -0.00000000000000111 -1.00000000000000000 
1 -3.96874999999999956 0.00000000000001110 9.99999999999999822 0.00000000000000000 -0.00000000000000111 -1.00000000000000000 
Polygon3D 0
PolygonOnTriangulations 0
Surfaces 20
1 0.00000000000000000 -17.49999999999999289 17.50000000000000000 0.00000000000000000 0.00000000000000044 1.00000000000000000 0.00000000000000000 -1.00000000000000000 0.00000000000000044 1.00000000000000000 0.00000000000000000 0.00000000000000000 
2 -17.41249999999999432 17.49999999999998579 -7.41250000000001474 0.00000000000000000 -1.00000000000000000 0.00000000000000111 -1.00000000000000000 0.00000000000000000 0.00000000000000000 0.00000000000000000 -0.00000000000000111 -1.00000000000000000 0.99999999999999989
2 -17.41249999999999432 17.50000000000000000 7.41249999999997922 0.00000000000000000 -1.00000000000000000 0.00000000000000111 -1.00000000000000000 0.00000000000000000 0.00000000000000000 0.00000000000000000 0.00000000000000111 1.00000000000000000 0.99999999999999989
2 17.41249999999999432 17.49999999999998579 -7.41250000000001474 0.00000000000000000 -1.00000000000000000 0.00000000000000111 0.00000000000000000 -0.00000000000000111 -1.00000000000000000 1.00000000000000000 0.00000000000000000 0.00000000000000000 0.99999999999999989
2 17.41249999999999432 17.50000000000000000 7.41249999999997922 0.00000000000000000 -1.00000000000000000 0.00000000000000111 1.00000000000000000 0.00000000000000000 0.00000000000000000 0.00000000000000000 0.00000000000000111 1.00000000000000000 0.99999999999999989
2 -17.99999999999999289 17.50000000000000000 7.99999999999997957 0.00000000000000000 -1.00000000000000000 0.00000000000000111 0.00000000000000000 0.00000000000000111 1.00000000000000000 -1.00000000000000000 0.00000000000000000 0.00000000000000000 1.99999999999999978
2 17.99999999999999289 17.50000000000000000 7.99999999999997957 0.00000000000000000 -1.00000000000000000 0.00000000000000111 0.00000000000000000 0.00000000000000111 1.00000000000000000 1.00000000000000000 0.00000000000000000 0.00000000000000000 1.99999999999999978
2 -17.99999999999999289 17.49999999999998224 -8.00000000000001421 0.00000000000000000 -1.00000000000000000 0.00000000000000111 -1.00000000000000000 0.00000000000000000 0.00000000000000000 0.00000000000000000 -0.00000000000000111 -1.00000000000000000 1.99999999999999978
2 17.99999999999999289 17.49999999999998224 -8.00000000000001421 0.00000000000000000 -1.00000000000000000 0.00000000000000111 1.00000000000000000 0.00000000000000000 0.00000000000000000 0.00000000000000000 -0.00000000000000111 -1.00000000000000000 1.99999999999999978
1 -18.41249999999999787 17.49999999999998934 -8.41250000000000853 -1.00000000000000000 0.00000000000000000 0.00000000000000000 0.00000000000000000 0.00000000000000067 1.00000000000000000 -0.00000000000000000 1.00000000000000000 -0.00000000000000067 
1 18.41249999999999787 17.49999999999998934 -8.41250000000000853 0.00000000000000000 -0.00000000000000067 -1.00000000000000000 -1.00000000000000000 0.00000000000000000 0.00000000000000000 -0.00000000000000000 1.00000000000000000 -0.00000000000000067 
1 -18.41249999999999787 17.50000000000000355 8.41249999999998721 0.00000000000000000 0.00000000000000067 1.00000000000000000 1.00000000000000000 0.00000000000000000 0.00000000000000000 0.00000000000000000 1.00000000000000000 -0.00000000000000067 
2 0.00000000000000000 0.00000000000001110 9.99999999999999822 0.00000000000000000 0.00000000000000111 1.00000000000000000 -1.00000000000000000 0.00000000000000000 0.00000000000000000 0.00000000000000000 -1.00000000000000000 0.00000000000000111 3.96874999999999956
2 0.00000000000000000 0.00000000000001110 9.99999999999999822 0.00000000000000000 0.00000000000000111 1.00000000000000000 -1.00000000000000000 0.00000000000000000 0.00000000000000000 0.00000000000000000 -1.00000000000000000 0.00000000000000111 3.96874999999999956
1 18.41249999999999787 17.50000000000000355 8.41249999999998721 1.00000000000000000 0.00000000000000000 0.00000000000000000 0.00000000000000000 -0.00000000000000067 -1.00000000000000000 0.00000000000000000 1.00000000000000000 -0.00000000000000067 
1 -19.99999999999999645 17.50000000000000355 9.99999999999998757 0.00000000000000000 0.00000000000000067 1.00000000000000000 1.00000000000000000 0.00000000000000000 0.00000000000000000 0.00000000000000000 1.00000000000000000 -0.00000000000000067 
1 -19.99999999999999645 17.49999999999998934 -10.00000000000000888 -1.00000000000000000 0.00000000000000000 0.00000000000000000 0.00000000000000000 0.00000000000000067 1.00000000000000000 -0.00000000000000000 1.00000000000000000 -0.00000000000000067 
1 19.99999999999999645 17.50000000000000355 9.99999999999998757 1.00000000000000000 0.00000000000000000 0.00000000000000000 0.00000000000000000 -0.00000000000000067 -1.00000000000000000 0.00000000000000000 1.00000000000000000 -0.00000000000000067 
1 19.99999999999999645 17.49999999999998934 -10.00000000000000888 0.00000000000000000 -0.00000000000000067 -1.00000000000000000 -1.00000000000000000 0.00000000000000000 0.00000000000000000 -0.00000000000000000 1.00000000000000000 -0.00000000000000067 
1 0.00000000000000000 17.49999999999999289 -17.50000000000000000 0.00000000000000000 0.00000000000000044 1.00000000000000000 0.00000000000000000 -1.00000000000000000 0.00000000000000044 1.00000000000000000 0.00000000000000000 0.00000000000000000 
Triangulations 0

TShapes 138
Ve
0.000000100000000
-18.412499999999991 7.412500000000017 17.499999999999982
0 0

0101101
*
Ve
0.000000100000000
-18.412499999999991 -7.412499999999975 17.499999999999996
0 0

0101101
*
Ed
 0.000000100000000 1 1 0
1  1 0 1.000000000000002 15.824999999999996
0

0101000
+138 14 -137 14 *
Ve
0.000000100000000
-17.412499999999991 8.412500000000016 17.499999999999975
0 0

0101101
*
Ed
 0.000000100000000 1 1 0
1  2 0 4.712388980384690 6.283185307179590
2  1 2 0 4.712388980384690 6.283185307179590
0

0101000
+138 15 -135 15 *
Ve
0.000000100000004
-17.412499999999991 -8.412499999999973 17.500000000000004
0 0

0101101
*
Ed
 0.000000100000000 1 1 0
1  3 0 1.570796326794896 3.141592653589793
2  2 3 0 1.570796326794896 3.141592653589793
0

0101000
+137 15 -133 15 *
Ve
0.000000100000000
17.412499999999991 8.412500000000016 17.499999999999975
0 0

0101101
*
Ed
 0.000000100000000 1 1 0
1  4 0 1.000000000000000 35.824999999999989
0

0101000
+131 14 -135 14 *
Ve
0.000000100000004
17.412499999999991 -8.412499999999973 17.500000000000004
0 0

0101101
*
Ed
 0.000000100000004 1 1 0
1  5 0 1.000000000000000 35.824999999999989
0

0101000
+133 14 -129 14 *
Ve
0.000000100000000
18.412499999999991 7.412500000000017 17.499999999999982
0 0

0101101
*
Ed
 0.000000100000000 1 1 0
1  6 0 0.000000000000000 1.570796326794898
2  3 4 0 0.000000000000000 1.570796326794898
0

0101000
+131 15 -127 15 *
Ve
0.000000100000000
18.412499999999991 -7.412499999999975 17.499999999999996
0 0

0101101
*
Ed
 0.000000100000000 1 1 0
1  7 0 1.570796326794897 3.141592653589797
2  4 5 0 1.570796326794897 3.141592653589797
0

0101000
+125 15 -129 15 *
Ed
 0.000000100000000 1 1 0
1  8 0 0.999999999999998 15.824999999999992
0

0101000
+125 14 -127 14 *
Wi

0101100
-136 12 +134 0 -132 0 -130 12 -128 12 +126 0 +124 0 -123 12 *
Ve
0.000000100000000
-17.999999999999989 -9.999999999999973 17.500000000000000
0 0

0101101
*
Ve
0.000000100000000
17.999999999999989 -9.999999999999973 17.500000000000000
0 0

0101101
*
Ed
 0.000000100000000 1 1 0
1  9 0 2.000000000000000 37.999999999999986
0

0101000
+121 14 -120 14 *
Ve
0.000000100000000
-19.999999999999989 -7.999999999999975 17.500000000000000
0 0

0101101
*
Ed
 0.000000100000000 1 1 0
1  10 0 3.141592653589793 4.712388980384691
2  5 6 0 3.141592653589793 4.712388980384691
0

0101000
+121 18 -118 18 *
Ve
0.000000100000000
19.999999999999989 -7.999999999999975 17.499999999999996
0 0

0101101
*
Ed
 0.000000100000000 1 1 0
1  11 0 3.141592653589791 4.712388980384690
2  6 7 0 3.141592653589791 4.712388980384690
0

0101000
+120 18 -116 18 *
Ve
0.000000100000000
-19.999999999999989 8.000000000000016 17.499999999999979
0 0

0101101
*
Ed
 0.000000100000000 1 1 0
1  12 0 1.999999999999999 17.999999999999993
0

0101000
+114 14 -118 14 *
Ve
0.000000100000000
19.999999999999989 8.000000000000016 17.499999999999975
0 0

0101101
*
Ed
 0.000000100000000 1 1 0
1  13 0 1.999999999999998 17.999999999999993
0

0101000
+116 14 -112 14 *
Ve
0.000000100000000
-17.999999999999989 10.000000000000016 17.499999999999979
0 0

0101101
*
Ed
 0.000000100000000 1 1 0
1  14 0 4.712388980384691 6.283185307179588
2  7 8 0 4.712388980384691 6.283185307179588
0

0101000
+114 18 -110 18 *
Ve
0.000000100000000
17.999999999999989 10.000000000000016 17.499999999999979
0 0

0101101
*
Ed
 0.000000100000000 1 1 0
1  15 0 4.712388980384689 6.283185307179586
2  8 9 0 4.712388980384689 6.283185307179586
0

0101000
+112 18 -108 18 *
Ed
 0.000000100000000 1 1 0
1  16 0 2.000000000000000 37.999999999999986
0

0101000
+108 14 -110 14 *
Wi

0101100
+119 17 -117 0 +115 0 +113 17 +111 17 -109 0 +107 0 +106 17 *
Fa
0  0.000000100000000 1 0

0111000
+122 9 +105 16 *
Ve
0.000000100000000
-18.412499999999991 7.412499999999972 -17.500000000000004
0 0

0101101
*
Ed
 0.000000100000000 1 1 0
1  17 0 -0.000000000000000 34.999999999999986
2  9 2 0 -0.000000000000000 34.999999999999986
4 G1 10 19 2 0
0

0101000
+138 15 -103 15 *
Ve
0.000000100000000
-18.412499999999991 -7.412500000000020 -17.499999999999989
0 0

0101101
*
Ed
 0.000000100000000 1 1 0
1  18 0 -0.000000000000000 34.999999999999986
2  10 3 0 -0.000000000000000 34.999999999999986
4 G1 10 19 3 0
0

0101000
+137 15 -101 15 *
Ed
 0.000000100000000 1 1 0
1  19 0 1.000000000000001 15.824999999999994
0

0101000
+103 23 -101 23 *
Wi

0101100
-136 12 +102 0 -100 0 +99 22 *
Fa
0  0.000000100000000 10 0

0111000
+98 20 *
Ve
0.000000100000000
-17.412499999999991 8.412499999999969 -17.500000000000011
0 0

0101101
*
Ed
 0.000000100000000 1 1 0
1  20 0 -0.000000000000000 34.999999999999986
2  11 2 0 -0.000000000000000 34.999999999999986
4 G1 2 0 11 19
0

0101000
+135 15 -96 15 *
Ed
 0.000000100000000 1 1 0
1  21 0 4.712388980384691 6.283185307179590
2  12 2 0 4.712388980384691 6.283185307179590
0

0101000
+103 15 -96 15 *
Wi

0101100
+134 0 -102 0 +95 0 -94 0 *
Fa
0  0.000000100000000 2 0

0111000
+93 0 *
Ve
0.000000100000004
-17.412499999999991 -8.412500000000019 -17.499999999999982
0 0

0101101
*
Ed
 0.000000100000000 1 1 0
1  22 0 -0.000000000000000 34.999999999999986
2  13 3 0 -0.000000000000000 34.999999999999986
4 G1 3 0 12 19
0

0101000
+133 15 -91 15 *
Ed
 0.000000100000000 1 1 0
1  23 0 1.570796326794894 3.141592653589793
2  14 3 0 1.570796326794894 3.141592653589793
0

0101000
+101 15 -91 15 *
Wi

0101100
+132 0 -100 0 +90 0 -89 0 *
Fa
0  0.000000100000000 3 0

0111000
+88 0 *
Ve
0.000000100000000
17.412499999999991 8.412499999999969 -17.500000000000011
0 0

0101101
*
Ed
 0.000000100000000 1 1 0
1  24 0 -0.000000000000000 34.999999999999986
2  15 4 0 -0.000000000000000 34.999999999999986
4 G1 11 19 4 0
0

0101000
+131 15 -86 15 *
Ed
 0.000000100000000 1 1 0
1  25 0 1.000000000000000 35.824999999999989
0

0101000
+86 23 -96 23 *
Wi

0101100
-130 12 +85 0 -95 0 +84 22 *
Ve
0.000000100000001
-3.968749999999999 8.412499999999991 -0.000000000000011
0 0

0101101
*
Ed
 0.000000100000000 1 1 0
1  26 0 0.000000000000000 6.283185307179586
2  16 13 0 0.000000000000000 6.283185307179586
0

0101000
+82 27 -82 27 *
Wi

0101100
+81 0 *
Fa
0  0.000000100000000 11 25

0111000
+83 26 +80 0 *
Ve
0.000000100000004
17.412499999999991 -8.412500000000019 -17.499999999999982
0 0

0101101
*
Ed
 0.000000100000000 1 1 0
1  27 0 -0.000000000000000 34.999999999999986
2  17 5 0 -0.000000000000000 34.999999999999986
4 G1 12 19 5 0
0

0101000
+129 15 -78 15 *
Ed
 0.000000100000004 1 1 0
1  28 0 1.000000000000000 35.824999999999989
0

0101000
+91 23 -78 23 *
Wi

0101100
-128 12 +90 0 -77 0 +76 22 *
Ve
0.000000100000001
-3.968749999999999 -8.412499999999996 0.000000000000011
0 0

0101101
*
Ed
 0.000000100000000 1 1 0
1  29 0 0.000000000000000 6.283185307179586
2  18 14 0 0.000000000000000 6.283185307179586
0

0101000
+74 27 -74 27 *
Wi

0101100
-73 0 *
Fa
0  0.000000100000000 12 25

0111000
+75 26 +72 0 *
Ve
0.000000100000000
18.412499999999991 7.412499999999972 -17.500000000000004
0 0

0101101
*
Ed
 0.000000100000000 1 1 0
1  30 0 -0.000000000000000 34.999999999999986
2  19 4 0 -0.000000000000000 34.999999999999986
4 G1 4 0 15 19
0

0101000
+127 15 -70 15 *
Ed
 0.000000100000000 1 1 0
1  31 0 0.000000000000000 1.570796326794897
2  20 4 0 0.000000000000000 1.570796326794897
0

0101000
+86 15 -70 15 *
Wi

0101100
+126 0 -85 0 +69 0 -68 0 *
Fa
0  0.000000100000000 4 0

0111000
+67 0 *
Ve
0.000000100000000
18.412499999999991 -7.412500000000020 -17.499999999999989
0 0

0101101
*
Ed
 0.000000100000000 1 1 0
1  32 0 -0.000000000000000 34.999999999999986
2  21 5 0 -0.000000000000000 34.999999999999986
4 G1 5 0 15 19
0

0101000
+125 15 -65 15 *
Ed
 0.000000100000000 1 1 0
1  33 0 1.570796326794896 3.141592653589797
2  22 5 0 1.570796326794896 3.141592653589797
0

0101000
+65 15 -78 15 *
Wi

0101100
+124 0 -64 0 +77 0 -63 0 *
Fa
0  0.000000100000000 5 0

0111000
+62 0 *
Ed
 0.000000100000000 1 1 0
1  34 0 0.999999999999999 15.824999999999994
0

0101000
+65 23 -70 23 *
Wi

0101100
-123 12 +64 0 -69 0 +60 22 *
Fa
0  0.000000100000000 15 0

0111000
+59 20 *
Ve
0.000000100000000
-17.999999999999989 -10.000000000000018 -17.499999999999982
0 0

0101101
*
Ed
 0.000000100000000 1 1 0
1  35 0 0.000000000000004 34.999999999999993
2  23 6 0 0.000000000000004 34.999999999999993
4 G1 16 29 6 0
0

0101000
+121 18 -57 18 *
Ve
0.000000100000000
17.999999999999989 -10.000000000000018 -17.499999999999982
0 0

0101101
*
Ed
 0.000000100000000 1 1 0
1  36 0 0.000000000000004 34.999999999999993
2  24 7 0 0.000000000000004 34.999999999999993
4 G1 16 29 7 0
0

0101000
+120 18 -55 18 *
Ed
 0.000000100000000 1 1 0
1  37 0 2.000000000000000 37.999999999999986
0

0101000
+57 23 -55 23 *
Wi

0101100
-119 17 +56 0 -54 0 +53 30 *
Ve
0.000000100000004
-3.968749999999999 -9.999999999999996 0.000000000000013
0 0

0101101
*
Ed
 0.000000100000004 1 1 0
1  38 0 0.000000000000000 6.283185307179586
2  25 14 34 0.000000000000000 6.283185307179586
0

0101000
+51 35 -51 35 *
Wi

0101100
-50 33 *
Fa
0  0.000000100000000 16 25

0111000
+52 28 +49 0 *
Ve
0.000000100000000
-19.999999999999989 -8.000000000000020 -17.499999999999982
0 0

0101101
*
Ed
 0.000000100000000 1 1 0
1  39 0 -0.000000000000004 34.999999999999986
2  26 6 0 -0.000000000000004 34.999999999999986
4 G1 6 0 17 29
0

0101000
+118 18 -47 18 *
Ed
 0.000000100000000 1 1 0
1  40 0 3.141592653589793 4.712388980384690
2  27 6 0 3.141592653589793 4.712388980384690
0

0101000
+57 18 -47 18 *
Wi

0101100
+117 0 -56 0 +46 0 -45 0 *
Fa
0  0.000000100000000 6 0

0111000
+44 0 *
Ve
0.000000100000000
19.999999999999989 -8.000000000000020 -17.499999999999982
0 0

0101101
*
Ed
 0.000000100000000 1 1 0
1  41 0 0.000000000000004 34.999999999999986
2  28 7 0 0.000000000000004 34.999999999999986
4 G1 7 0 18 29
0

0101000
+116 18 -42 18 *
Ed
 0.000000100000000 1 1 0
1  42 0 3.141592653589791 4.712388980384690
2  29 7 0 3.141592653589791 4.712388980384690
0

0101000
+55 18 -42 18 *
Wi

0101100
+115 0 -54 0 +41 0 -40 0 *
Fa
0  0.000000100000000 7 0

0111000
+39 0 *
Ve
0.000000100000000
-19.999999999999989 7.999999999999972 -17.500000000000004
0 0

0101101
*
Ed
 0.000000100000000 1 1 0
1  43 0 -0.000000000000004 34.999999999999979
2  30 8 0 -0.000000000000004 34.999999999999979
4 G1 17 29 8 0
0

0101000
+114 18 -37 18 *
Ed
 0.000000100000000 1 1 0
1  44 0 2.000000000000001 17.999999999999993
0

0101000
+37 23 -47 23 *
Wi

0101100
-113 17 +36 0 -46 0 +35 30 *
Fa
0  0.000000100000000 17 0

0111000
+34 36 *
Ve
0.000000100000000
19.999999999999989 7.999999999999972 -17.500000000000004
0 0

0101101
*
Ed
 0.000000100000000 1 1 0
1  45 0 -0.000000000000000 34.999999999999986
2  31 9 0 -0.000000000000000 34.999999999999986
4 G1 18 29 9 0
0

0101000
+112 18 -32 18 *
Ed
 0.000000100000000 1 1 0
1  46 0 2.000000000000000 17.999999999999993
0

0101000
+42 23 -32 23 *
Wi

0101100
-111 17 +41 0 -31 0 +30 30 *
Fa
0  0.000000100000000 18 0

0111000
+29 36 *
Ve
0.000000100000000
-17.999999999999989 9.999999999999972 -17.500000000000011
0 0

0101101
*
Ed
 0.000000100000000 1 1 0
1  47 0 -0.000000000000004 34.999999999999979
2  32 8 0 -0.000000000000004 34.999999999999979
4 G1 8 0 19 29
0

0101000
+110 18 -27 18 *
Ed
 0.000000100000000 1 1 0
1  48 0 4.712388980384690 6.283185307179588
2  33 8 0 4.712388980384690 6.283185307179588
0

0101000
+37 18 -27 18 *
Wi

0101100
+109 0 -36 0 +26 0 -25 0 *
Fa
0  0.000000100000000 8 0

0111000
+24 0 *
Ve
0.000000100000000
17.999999999999989 9.999999999999972 -17.500000000000011
0 0

0101101
*
Ed
 0.000000100000000 1 1 0
1  49 0 -0.000000000000004 34.999999999999979
2  34 9 0 -0.000000000000004 34.999999999999979
4 G1 9 0 19 29
0

0101000
+108 18 -22 18 *
Ed
 0.000000100000000 1 1 0
1  50 0 4.712388980384690 6.283185307179586
2  35 9 0 4.712388980384690 6.283185307179586
0

0101000
+32 18 -22 18 *
Wi

0101100
+107 0 -31 0 +21 0 -20 0 *
Fa
0  0.000000100000000 9 0

0111000
+19 0 *
Ed
 0.000000100000000 1 1 0
1  51 0 2.000000000000000 37.999999999999986
0

0101000
+22 23 -27 23 *
Wi

0101100
-106 17 +21 0 -26 0 +17 30 *
Ve
0.000000100000001
-3.968749999999999 9.999999999999993 -0.000000000000013
0 0

0101101
*
Ed
 0.000000100000000 1 1 0
1  52 0 0.000000000000000 6.283185307179586
2  36 13 0 0.000000000000000 6.283185307179586
0

0101000
+15 27 -15 27 *
Wi

0101100
+14 0 *
Fa
0  0.000000100000000 19 25

0111000
+16 28 +13 0 *
Wi

0101100
-99 22 +94 0 -89 0 -84 22 -76 22 +68 0 +63 0 -60 22 *
Wi

0101100
+53 30 -45 0 +40 0 +35 30 +30 30 -25 0 +20 0 +17 30 *
Fa
0  0.000000100000000 20 0

0111000
+11 38 +10 39 *
Ed
 0.000000100000000 1 1 0
1  53 0 18.412499999999991 19.999999999999993
3  37 38CN 13 0 18.412499999999991 19.999999999999993
0

0101000
+82 27 -15 27 *
Wi

0101100
-81 0 -8 0 +14 0 +8 0 *
Fa
0  0.000000100000000 13 0

0111000
+7 0 *
Ed
 0.000000100000000 1 1 0
1  54 0 0.000000000000000 1.587500000000000
3  39 40CN 14 0 0.000000000000000 1.587500000000000
0

0101000
+51 27 -74 27 *
Wi

0101100
-50 33 -5 0 +73 0 +5 0 *
Fa
0  0.000000100000000 14 0

0111000
+4 0 *
Sh

0101100
+104 8 -97 19 -92 0 +87 0 -79 24 -71 24 -66 0 -61 0 -58 19 +48 24 
+43 7 -38 7 +33 19 +28 19 +23 7 -18 7 +12 24 -9 37 -6 24 -3 24 
*
So

1100000
+2 0 *

+1 1 