
CASCADE Topology V1, (c) Matra-Datavision
Locations 29
1
1.000000000000000 0.000000000000000 0.000000000000000 0.000000000000000 
0.000000000000000 -0.000000000000000 -1.000000000000000 0.000000000000000 
0.000000000000000 1.000000000000000 -0.000000000000000 0.000000000000000 
1
1.000000000000000 0.000000000000000 0.000000000000000 0.000000000000000 
0.000000000000000 0.000000000000000 -1.000000000000000 0.000000000000000 
0.000000000000000 1.000000000000000 0.000000000000000 0.000000000000000 
1
1.000000000000000 0.000000000000000 0.000000000000000 0.000000000000000 
0.000000000000000 1.000000000000000 0.000000000000000 0.000000000000000 
0.000000000000000 0.000000000000000 1.000000000000000 0.000000000000000 
2  1 1 2 -1 3 -1 0
1
1.000000000000000 0.000000000000000 0.000000000000000 0.000000000000000 
0.000000000000000 1.000000000000000 0.000000000000000 -5.000000000000000 
0.000000000000000 0.000000000000000 1.000000000000000 0.000000000000004 
2  5 -1 1 1 2 -1 3 -1 0
1
1.000000000000000 0.000000000000000 0.000000000000000 0.000000000000000 
0.000000000000000 0.000000000000000 -1.000000000000000 0.000000000000000 
0.000000000000000 1.000000000000000 0.000000000000000 0.000000000000000 
1
1.000000000000000 0.000000000000000 0.000000000000000 0.000000000000000 
0.000000000000000 -0.000000000000000 -1.000000000000000 0.000000000000000 
0.000000000000000 1.000000000000000 -0.000000000000000 0.000000000000000 
1
1.000000000000000 0.000000000000000 0.000000000000000 0.000000000000000 
0.000000000000000 0.000000000000000 -1.000000000000000 0.000000000000000 
0.000000000000000 1.000000000000000 0.000000000000000 0.000000000000000 
2  7 1 8 -1 9 1 1 -1 5 -1 1 1 2 -1 3 -1 0
1
1.000000000000000 0.000000000000000 0.000000000000000 0.000000000000000 
0.000000000000000 1.000000000000000 0.000000000000000 0.000000000000000 
0.000000000000000 0.000000000000000 1.000000000000000 0.000000000000000 
1
1.000000000000000 0.000000000000000 0.000000000000000 0.000000000000000 
0.000000000000000 0.000000000000000 -1.000000000000000 0.000000000000000 
0.000000000000000 1.000000000000000 0.000000000000000 0.000000000000000 
1
1.000000000000000 0.000000000000000 0.000000000000000 0.000000000000000 
0.000000000000000 -0.000000000000000 -1.000000000000000 0.000000000000000 
0.000000000000000 1.000000000000000 -0.000000000000000 0.000000000000000 
1
1.000000000000000 0.000000000000000 0.000000000000000 -0.000000000000000 
0.000000000000000 1.000000000000000 0.000000000000000 -0.000000000000008 
0.000000000000000 0.000000000000000 1.000000000000000 -17.500000000000000 
2  11 1 12 1 13 -1 14 1 0
1
1.000000000000000 0.000000000000000 0.000000000000000 0.000000000000000 
0.000000000000000 1.000000000000000 0.000000000000000 0.000000000000016 
0.000000000000000 0.000000000000000 1.000000000000000 35.000000000000000 
2  11 1 12 1 13 -1 14 1 16 1 0
2  14 -1 13 1 12 -1 11 -1 0
2  16 -1 14 -1 13 1 12 -1 11 -1 0
2  1 1 2 -1 3 -1 14 -1 13 1 12 -1 11 -1 0
2  5 -1 1 1 2 -1 3 -1 14 -1 13 1 12 -1 11 -1 0
2  1 1 2 -1 3 -1 16 -1 14 -1 13 1 12 -1 11 -1 0
2  5 -1 1 1 2 -1 3 -1 16 -1 14 -1 13 1 12 -1 11 -1 0
2  12 -1 11 -1 0
2  1 1 9 -1 8 1 7 -1 14 -1 13 1 12 -1 11 -1 0
2  1 1 9 -1 8 1 7 -1 16 -1 14 -1 13 1 12 -1 11 -1 0
2  13 -1 14 1 0
2  11 1 12 1 0
2  13 -1 14 1 16 1 0
Curve2ds 52
1 0.00000000000000000 0.00000000000000000 0.00000000000000000 -1.00000000000000000 
1 0.00000000000000000 0.00000000000000000 1.00000000000000000 0.00000000000000000 
1 -0.00000000000000089 -5.00000000000000000 1.00000000000000000 0.00000000000000000 
1 20.00000000000000000 -0.00000000000000178 0.00000000000000000 -1.00000000000000000 
1 15.00000000000000711 0.00000000000000044 -0.00000000000000044 -1.00000000000000000 
1 40.00000000000000000 0.00000000000000000 0.00000000000000000 -1.00000000000000000 
1 0.00000000000000000 0.00000000000000000 1.00000000000000000 0.00000000000000000 
1 -0.00000000000000089 -5.00000000000000000 1.00000000000000000 0.00000000000000000 
1 0.00000000000000000 0.00000000000000000 0.00000000000000000 -1.00000000000000000 
1 4.99999999999999289 0.00000000000000222 0.00000000000000044 -1.00000000000000000 
1 0.00000000000000000 0.00000000000000000 1.00000000000000000 0.00000000000000000 
1 0.00000000000000000 -35.00000000000000000 1.00000000000000000 0.00000000000000000 
1 0.00000000000000000 0.00000000000000000 1.00000000000000000 0.00000000000000000 
1 0.00000000000000000 -4.99999999999999911 1.00000000000000000 0.00000000000000000 
1 0.00000000000000000 0.00000000000000000 1.00000000000000000 0.00000000000000000 
1 0.00000000000000000 -5.00000000000000000 1.00000000000000000 0.00000000000000000 
1 10.00000000000000000 -20.00000000000000000 0.00000000000000000 1.00000000000000000 
1 0.00000000000000000 -0.00000000000000000 0.00000000000000000 -1.00000000000000000 
1 20.00000000000000000 0.00000000000000178 0.00000000000000000 -1.00000000000000000 
1 10.00000000000000000 20.00000000000000000 -1.00000000000000000 0.00000000000000000 
1 0.00000000000000000 0.00000000000000000 1.00000000000000000 0.00000000000000000 
1 0.00000000000000133 -35.00000000000000000 1.00000000000000000 0.00000000000000000 
1 40.00000000000000000 0.00000000000000000 0.00000000000000000 -1.00000000000000000 
1 0.00000000000000000 -0.00000000000000000 0.00000000000000000 -1.00000000000000000 
1 0.00000000000000000 -0.00000000000000000 1.00000000000000000 0.00000000000000000 
1 0.00000000000000000 -35.00000000000000000 1.00000000000000000 0.00000000000000000 
1 -10.00000000000000000 20.00000000000000000 0.00000000000000000 -1.00000000000000000 
1 0.00000000000000000 -0.00000000000000000 1.00000000000000000 0.00000000000000000 
1 -0.00000000000000133 -35.00000000000000000 1.00000000000000000 0.00000000000000000 
1 -10.00000000000000000 -20.00000000000000000 1.00000000000000000 0.00000000000000000 
1 36.82500000000000284 0.00000000000000000 0.00000000000000000 -1.00000000000000000 
1 0.00000000000000000 -0.00000000000000000 0.00000000000000000 -1.00000000000000000 
1 0.00000000000000000 0.00000000000000000 0.00000000000000000 -1.00000000000000000 
1 16.82499999999999929 -0.00000000000000037 0.00000000000000000 -1.00000000000000000 
1 -8.41249999999999964 -18.41250000000000142 1.00000000000000000 0.00000000000000000 
1 0.00000000000000000 -0.00000000000000000 1.00000000000000000 0.00000000000000000 
1 -0.00000000000000133 -35.00000000000000000 1.00000000000000000 0.00000000000000000 
1 0.00000000000000000 -0.00000000000000000 0.00000000000000000 -1.00000000000000000 
1 16.82499999999999929 0.00000000000000037 0.00000000000000000 -1.00000000000000000 
1 0.00000000000000000 -0.00000000000000000 1.00000000000000000 0.00000000000000000 
1 0.00000000000000000 -35.00000000000000000 1.00000000000000000 0.00000000000000000 
1 -8.41249999999999964 18.41250000000000142 0.00000000000000000 -1.00000000000000000 
1 36.82500000000000284 0.00000000000000000 0.00000000000000000 -1.00000000000000000 
1 0.00000000000000000 0.00000000000000000 0.00000000000000000 -1.00000000000000000 
1 8.41249999999999964 18.41250000000000142 -1.00000000000000000 0.00000000000000000 
1 0.00000000000000000 0.00000000000000000 1.00000000000000000 0.00000000000000000 
1 0.00000000000000133 -35.00000000000000000 1.00000000000000000 0.00000000000000000 
1 0.00000000000000000 0.00000000000000000 1.00000000000000000 0.00000000000000000 
1 0.00000000000000000 -35.00000000000000000 1.00000000000000000 0.00000000000000000 
1 8.41249999999999964 -18.41250000000000142 0.00000000000000000 1.00000000000000000 
1 1.58749999999999858 -1.58750000000000746 1.00000000000000000 0.00000000000000000 
1 1.58749999999999858 -1.58749999999999325 1.00000000000000000 0.00000000000000000 
Curves 16
1 -20.00000000000000000 9.99999999999999289 -17.50000000000000355 0.00000000000000000 0.00000000000000044 1.00000000000000000 
1 20.00000000000000000 9.99999999999999289 -17.50000000000000355 0.00000000000000000 0.00000000000000044 1.00000000000000000 
1 -20.00000000000000000 10.00000000000000000 0.00000000000000000 1.00000000000000000 0.00000000000000000 0.00000000000000000 
1 20.00000000000000000 -10.00000000000000711 -17.49999999999999645 0.00000000000000000 0.00000000000000044 1.00000000000000000 
1 20.00000000000000000 10.00000000000000000 0.00000000000000000 0.00000000000000000 -1.00000000000000000 0.00000000000000000 
1 -20.00000000000000000 -10.00000000000000711 -17.49999999999999645 0.00000000000000000 0.00000000000000044 1.00000000000000000 
1 20.00000000000000000 -10.00000000000000000 0.00000000000000000 -1.00000000000000000 0.00000000000000000 0.00000000000000000 
1 -20.00000000000000000 -10.00000000000000000 0.00000000000000000 0.00000000000000000 1.00000000000000000 0.00000000000000000 
1 -18.41250000000000142 -8.41250000000000675 -17.49999999999999645 0.00000000000000000 0.00000000000000044 1.00000000000000000 
1 -18.41250000000000142 8.41249999999999254 -17.50000000000000355 0.00000000000000000 0.00000000000000044 1.00000000000000000 
1 -18.41250000000000142 -8.41249999999999964 0.00000000000000000 0.00000000000000000 1.00000000000000000 0.00000000000000000 
1 18.41250000000000142 -8.41250000000000675 -17.49999999999999645 0.00000000000000000 0.00000000000000044 1.00000000000000000 
1 18.41250000000000142 -8.41249999999999964 0.00000000000000000 -1.00000000000000000 0.00000000000000000 0.00000000000000000 
1 18.41250000000000142 8.41249999999999254 -17.50000000000000355 0.00000000000000000 0.00000000000000044 1.00000000000000000 
1 18.41250000000000142 8.41249999999999964 0.00000000000000000 0.00000000000000000 -1.00000000000000000 0.00000000000000000 
1 -18.41250000000000142 8.41249999999999964 0.00000000000000000 1.00000000000000000 0.00000000000000000 0.00000000000000000 
Polygon3D 0
PolygonOnTriangulations 0
Surfaces 13
1 -20.00000000000000000 9.99999999999999289 -17.50000000000000355 0.00000000000000000 1.00000000000000000 -0.00000000000000044 1.00000000000000000 0.00000000000000000 0.00000000000000000 0.00000000000000000 -0.00000000000000044 -1.00000000000000000 
1 -19.99999999999999645 9.99999999999998401 -17.50000000000000355 -1.00000000000000000 0.00000000000000000 0.00000000000000000 0.00000000000000000 0.00000000000000089 1.00000000000000000 0.00000000000000000 1.00000000000000000 -0.00000000000000089 
1 -20.00000000000000000 -10.00000000000000711 -17.49999999999999645 -1.00000000000000000 0.00000000000000000 0.00000000000000000 0.00000000000000000 1.00000000000000000 -0.00000000000000044 -0.00000000000000000 -0.00000000000000044 -1.00000000000000000 
1 19.99999999999999645 9.99999999999998401 -17.50000000000000355 -1.00000000000000000 0.00000000000000000 0.00000000000000000 0.00000000000000000 0.00000000000000089 1.00000000000000000 0.00000000000000000 1.00000000000000000 -0.00000000000000089 
1 20.00000000000000000 9.99999999999999289 -17.50000000000000355 1.00000000000000000 0.00000000000000000 -0.00000000000000000 0.00000000000000000 -1.00000000000000000 0.00000000000000044 0.00000000000000000 -0.00000000000000044 -1.00000000000000000 
1 -19.99999999999999645 9.99999999999998224 -17.50000000000000355 -0.00000000000000000 0.00000000000000089 1.00000000000000000 1.00000000000000000 0.00000000000000000 0.00000000000000000 0.00000000000000000 1.00000000000000000 -0.00000000000000089 
1 -19.99999999999999645 10.00000000000001421 17.49999999999998934 -0.00000000000000000 0.00000000000000089 1.00000000000000000 1.00000000000000000 0.00000000000000000 0.00000000000000000 0.00000000000000000 1.00000000000000000 -0.00000000000000089 
1 0.00000000000000000 0.00000000000000000 0.00000000000000000 0.00000000000000000 1.00000000000000000 -0.00000000000000022 0.00000000000000000 0.00000000000000022 1.00000000000000000 1.00000000000000000 -0.00000000000000000 0.00000000000000000 
1 20.00000000000000000 -10.00000000000000711 -17.49999999999999645 0.00000000000000000 -1.00000000000000000 0.00000000000000044 -1.00000000000000000 0.00000000000000000 0.00000000000000000 -0.00000000000000000 -0.00000000000000044 -1.00000000000000000 
1 -18.41250000000000142 -8.41250000000000675 -17.49999999999999645 -1.00000000000000000 0.00000000000000000 0.00000000000000000 0.00000000000000000 1.00000000000000000 -0.00000000000000044 -0.00000000000000000 -0.00000000000000044 -1.00000000000000000 
1 18.41250000000000142 -8.41250000000000675 -17.49999999999999645 0.00000000000000000 -1.00000000000000000 0.00000000000000044 -1.00000000000000000 0.00000000000000000 0.00000000000000000 -0.00000000000000000 -0.00000000000000044 -1.00000000000000000 
1 -18.41250000000000142 8.41249999999999254 -17.50000000000000355 0.00000000000000000 1.00000000000000000 -0.00000000000000044 1.00000000000000000 0.00000000000000000 0.00000000000000000 0.00000000000000000 -0.00000000000000044 -1.00000000000000000 
1 18.41250000000000142 8.41249999999999254 -17.50000000000000355 1.00000000000000000 0.00000000000000000 -0.00000000000000000 0.00000000000000000 -1.00000000000000000 0.00000000000000044 0.00000000000000000 -0.00000000000000044 -1.00000000000000000 
Triangulations 0

TShapes 45
Ve
0.000000100000007
-20.000000000000000 10.000000000000000 0.000000000000000
0 0

0101101
*
Ed
 0.000000100000000 1 1 0
1  1 0 0.000000000000000 35.000000000000000
2  1 1 0 0.000000000000000 35.000000000000000
2  2 2 4 0.000000000000000 35.000000000000000
2  3 2 6 0.000000000000000 35.000000000000000
2  4 3 0 0.000000000000000 35.000000000000000
2  5 3 10 0.000000000000000 35.000000000000000
0

0101000
+45 15 -45 17 *
Ve
0.000000100000007
20.000000000000000 10.000000000000000 0.000000000000000
0 0

0101101
*
Ed
 0.000000100000000 1 1 0
1  2 0 0.000000000000000 35.000000000000000
2  6 1 0 0.000000000000000 35.000000000000000
2  7 4 4 0.000000000000000 35.000000000000000
2  8 4 6 0.000000000000000 35.000000000000000
2  9 5 0 0.000000000000000 35.000000000000000
2  10 5 10 0.000000000000000 35.000000000000000
0

0101000
+43 15 -43 17 *
Ed
 0.000000100000000 1 1 0
1  3 0 0.000000000000000 40.000000000000000
2  11 1 18 0.000000000000000 40.000000000000000
2  12 1 19 0.000000000000000 40.000000000000000
2  13 6 20 0.000000000000000 40.000000000000000
2  14 6 21 0.000000000000000 40.000000000000000
2  15 7 22 0.000000000000000 40.000000000000000
2  16 7 23 0.000000000000000 40.000000000000000
2  17 8 24 0.000000000000000 40.000000000000000
0

0101000
+45 0 -43 0 *
Wi

0101100
+44 0 -42 0 -41 15 +41 17 *
Fa
0  0.000000100000000 1 0

0101000
+40 0 *
Ve
0.000000100000000
20.000000000000000 -10.000000000000000 0.000000000000000
0 0

0101101
*
Ed
 0.000000100000000 1 1 0
1  4 0 0.000000000000000 35.000000000000000
2  18 9 0 0.000000000000000 35.000000000000000
2  19 5 0 0.000000000000000 35.000000000000000
0

0101000
+38 15 -38 17 *
Ed
 0.000000100000000 1 1 0
1  5 0 0.000000000000000 20.000000000000000
2  20 8 24 0.000000000000000 20.000000000000000
2  21 5 18 0.000000000000000 20.000000000000000
2  22 5 19 0.000000000000000 20.000000000000000
0

0101000
+43 0 -38 0 *
Wi

0101100
+42 0 -37 0 -36 15 +36 17 *
Fa
0  0.000000100000000 5 0

0111000
+35 0 *
Ve
0.000000100000000
-20.000000000000000 -10.000000000000000 0.000000000000000
0 0

0101101
*
Ed
 0.000000100000000 1 1 0
1  6 0 0.000000000000000 35.000000000000000
2  23 9 0 0.000000000000000 35.000000000000000
2  24 3 0 0.000000000000000 35.000000000000000
0

0101000
+33 15 -33 17 *
Ed
 0.000000100000000 1 1 0
1  7 0 0.000000000000000 40.000000000000000
2  25 9 18 0.000000000000000 40.000000000000000
2  26 9 19 0.000000000000000 40.000000000000000
2  27 8 24 0.000000000000000 40.000000000000000
0

0101000
+38 0 -33 0 *
Wi

0101100
+37 0 -32 0 -31 15 +31 17 *
Fa
0  0.000000100000000 9 0

0111000
+30 0 *
Ed
 0.000000100000000 1 1 0
1  8 0 0.000000000000000 20.000000000000000
2  28 3 18 0.000000000000000 20.000000000000000
2  29 3 19 0.000000000000000 20.000000000000000
2  30 8 24 0.000000000000000 20.000000000000000
0

0101000
+33 0 -45 0 *
Wi

0101100
+32 0 -44 0 -28 15 +28 17 *
Fa
0  0.000000100000000 3 0

0111000
+27 0 *
Ve
0.000000100000000
-18.412500000000001 -8.412500000000000 0.000000000000000
0 0

0101101
*
Ed
 0.000000100000000 1 1 0
1  9 0 0.000000000000000 35.000000000000000
2  31 11 0 0.000000000000000 35.000000000000000
2  32 10 0 0.000000000000000 35.000000000000000
0

0101000
+25 15 -25 17 *
Ve
0.000000100000007
-18.412500000000001 8.412500000000000 0.000000000000000
0 0

0101101
*
Ed
 0.000000100000000 1 1 0
1  10 0 0.000000000000000 35.000000000000000
2  33 12 0 0.000000000000000 35.000000000000000
2  34 10 0 0.000000000000000 35.000000000000000
0

0101000
+23 15 -23 17 *
Ed
 0.000000100000000 1 1 0
1  11 0 0.000000000000000 16.824999999999999
2  35 8 24 0.000000000000000 16.824999999999999
2  36 10 18 0.000000000000000 16.824999999999999
2  37 10 19 0.000000000000000 16.824999999999999
0

0101000
+25 0 -23 0 *
Wi

0101100
+24 0 -22 0 -21 15 +21 17 *
Fa
0  0.000000100000000 10 0

0111000
+20 0 *
Ve
0.000000100000000
18.412500000000001 -8.412500000000000 0.000000000000000
0 0

0101101
*
Ed
 0.000000100000000 1 1 0
1  12 0 0.000000000000000 35.000000000000000
2  38 11 0 0.000000000000000 35.000000000000000
2  39 13 0 0.000000000000000 35.000000000000000
0

0101000
+18 15 -18 17 *
Ed
 0.000000100000000 1 1 0
1  13 0 0.000000000000000 36.825000000000003
2  40 11 18 0.000000000000000 36.825000000000003
2  41 11 19 0.000000000000000 36.825000000000003
2  42 8 24 0.000000000000000 36.825000000000003
0

0101000
+18 0 -25 0 *
Wi

0101100
+17 0 -24 0 -16 15 +16 17 *
Fa
0  0.000000100000000 11 0

0111000
+15 0 *
Ve
0.000000100000007
18.412500000000001 8.412500000000000 0.000000000000000
0 0

0101101
*
Ed
 0.000000100000000 1 1 0
1  14 0 0.000000000000000 35.000000000000000
2  43 12 0 0.000000000000000 35.000000000000000
2  44 13 0 0.000000000000000 35.000000000000000
0

0101000
+13 15 -13 17 *
Ed
 0.000000100000000 1 1 0
1  15 0 0.000000000000000 16.824999999999999
2  45 8 24 0.000000000000000 16.824999999999999
2  46 13 18 0.000000000000000 16.824999999999999
2  47 13 19 0.000000000000000 16.824999999999999
0

0101000
+13 0 -18 0 *
Wi

0101100
+12 0 -17 0 -11 15 +11 17 *
Fa
0  0.000000100000000 13 0

0111000
+10 0 *
Ed
 0.000000100000004 1 1 0
1  16 0 0.000000000000000 36.825000000000003
2  48 12 18 0.000000000000000 36.825000000000003
2  49 12 19 0.000000000000000 36.825000000000003
2  50 8 24 0.000000000000000 36.825000000000003
2  51 6 25 0.000000000000000 36.825000000000003
2  52 7 26 0.000000000000000 36.825000000000003
0

0101000
+23 0 -13 0 *
Wi

0101100
+22 0 -12 0 -8 15 +8 17 *
Fa
0  0.000000100000000 12 0

0111000
+7 0 *
Wi

0101100
+41 28 +36 28 +31 28 +28 28 *
Wi

0101100
-21 28 -16 28 -11 28 -8 28 *
Fa
0  0.000000100000000 8 0

0111000
+5 0 +4 0 *
Sh

0101100
+39 0 +34 0 +29 0 +26 0 -19 0 -14 0 -9 0 -6 0 +3 27 -3 29 
*
So

1100000
+2 0 *

+1 0 