
CASCADE Topology V1, (c) Matra-Datavision
Locations 57
1
1.000000000000000 0.000000000000000 0.000000000000000 0.000000000000000 
0.000000000000000 0.000000000000000 -1.000000000000000 0.000000000000000 
0.000000000000000 1.000000000000000 0.000000000000000 0.000000000000000 
1
1.000000000000000 0.000000000000000 0.000000000000000 0.000000000000000 
0.000000000000000 -0.000000000000000 -1.000000000000000 0.000000000000000 
0.000000000000000 1.000000000000000 -0.000000000000000 0.000000000000000 
1
1.000000000000000 0.000000000000000 0.000000000000000 -0.000000000000000 
0.000000000000000 1.000000000000000 0.000000000000000 -0.000000000000008 
0.000000000000000 0.000000000000000 1.000000000000000 -17.500000000000000 
1
1.000000000000000 0.000000000000000 0.000000000000000 0.000000000000000 
0.000000000000000 0.000000000000000 -1.000000000000000 0.000000000000000 
0.000000000000000 1.000000000000000 0.000000000000000 0.000000000000000 
1
1.000000000000000 0.000000000000000 0.000000000000000 0.000000000000000 
0.000000000000000 -0.000000000000000 -1.000000000000000 0.000000000000000 
0.000000000000000 1.000000000000000 -0.000000000000000 0.000000000000000 
1
1.000000000000000 0.000000000000000 0.000000000000000 0.000000000000000 
0.000000000000000 1.000000000000000 0.000000000000000 0.000000000000000 
0.000000000000000 0.000000000000000 1.000000000000000 0.000000000000000 
1
1.000000000000000 0.000000000000000 0.000000000000000 0.000000000000000 
0.000000000000000 1.000000000000000 0.000000000000000 0.000000000000000 
0.000000000000000 0.000000000000000 1.000000000000000 0.000000000000000 
2  2 -1 3 1 4 1 5 -1 6 1 7 1 0
2  7 -1 6 -1 5 1 4 -1 3 -1 2 1 0
1
1.000000000000000 0.000000000000000 0.000000000000000 0.000000000000000 
0.000000000000000 1.000000000000000 0.000000000000000 0.000000000000000 
0.000000000000000 0.000000000000000 1.000000000000000 0.000000000000000 
1
1.000000000000000 0.000000000000000 0.000000000000000 0.000000000000000 
0.000000000000000 0.000000000000000 -1.000000000000000 0.000000000000000 
0.000000000000000 1.000000000000000 0.000000000000000 0.000000000000000 
2  10 1 11 1 2 -1 3 1 4 1 5 -1 6 1 7 1 0
2  11 -1 10 -1 0
2  3 -1 2 1 11 -1 10 -1 0
1
1.000000000000000 0.000000000000000 0.000000000000000 0.000000000000000 
0.000000000000000 1.000000000000000 0.000000000000000 0.000000000000016 
0.000000000000000 0.000000000000000 1.000000000000000 35.000000000000000 
2  15 -1 3 -1 2 1 11 -1 10 -1 0
2  7 -1 6 -1 5 1 4 -1 3 -1 2 1 11 -1 10 -1 0
1
1.000000000000000 0.000000000000000 0.000000000000000 0.000000000000000 
0.000000000000000 -0.000000000000000 -1.000000000000000 0.000000000000000 
0.000000000000000 1.000000000000000 -0.000000000000000 0.000000000000000 
1
1.000000000000000 0.000000000000000 0.000000000000000 0.000000000000000 
0.000000000000000 0.000000000000000 -1.000000000000000 0.000000000000000 
0.000000000000000 1.000000000000000 0.000000000000000 0.000000000000000 
2  18 1 19 -1 5 1 4 -1 3 -1 2 1 11 -1 10 -1 0
2  18 1 19 -1 5 1 4 -1 15 -1 3 -1 2 1 11 -1 10 -1 0
2  6 -1 5 1 4 -1 3 -1 2 1 0
2  10 1 11 1 2 -1 3 1 4 1 5 -1 6 1 0
1
1.000000000000000 0.000000000000000 0.000000000000000 0.000000000000000 
0.000000000000000 0.000000000000000 -1.000000000000000 0.000000000000000 
0.000000000000000 1.000000000000000 0.000000000000000 0.000000000000000 
1
1.000000000000000 0.000000000000000 0.000000000000000 0.000000000000000 
0.000000000000000 1.000000000000000 0.000000000000000 0.000000000000000 
0.000000000000000 0.000000000000000 1.000000000000000 0.000000000000000 
2  18 1 24 -1 25 -1 3 -1 2 1 11 -1 10 -1 0
1
1.000000000000000 0.000000000000000 0.000000000000000 0.000000000000000 
0.000000000000000 1.000000000000000 0.000000000000000 -5.000000000000000 
0.000000000000000 0.000000000000000 1.000000000000000 0.000000000000004 
2  27 -1 18 1 24 -1 25 -1 3 -1 2 1 11 -1 10 -1 0
2  18 1 24 -1 25 -1 15 -1 3 -1 2 1 11 -1 10 -1 0
2  27 -1 18 1 24 -1 25 -1 15 -1 3 -1 2 1 11 -1 10 -1 0
2  6 -1 5 1 4 -1 3 -1 2 1 11 -1 10 -1 0
2  2 -1 3 1 4 1 5 -1 6 1 0
2  4 1 5 -1 6 1 7 1 0
2  7 -1 6 -1 5 1 4 -1 0
2  10 1 11 1 2 -1 3 1 15 1 4 1 5 -1 6 1 7 1 0
2  7 -1 6 -1 5 1 4 -1 15 -1 3 -1 2 1 11 -1 10 -1 0
2  2 -1 3 1 15 1 4 1 5 -1 6 1 7 1 0
2  6 1 7 1 0
2  4 1 5 -1 0
2  7 -1 6 -1 0
2  6 -1 0
2  4 1 5 -1 6 1 0
2  10 1 11 1 2 -1 3 1 15 1 4 1 5 -1 6 1 0
2  6 -1 5 1 4 -1 15 -1 3 -1 2 1 11 -1 10 -1 0
1
1.000000000000000 0.000000000000000 0.000000000000000 0.000000000000000 
0.000000000000000 1.000000000000000 0.000000000000000 0.000000000000000 
0.000000000000000 0.000000000000000 1.000000000000000 0.000000000000000 
1
-1.000000000000000 0.000000000000000 0.000000000000000 0.000000000000000 
0.000000000000000 -1.000000000000000 0.000000000000001 0.000000000000007 
0.000000000000000 0.000000000000001 1.000000000000000 10.000000000000000 
2  45 1 46 1 5 -1 0
2  5 1 46 -1 45 -1 0
1
1.000000000000000 0.000000000000000 0.000000000000000 -0.000000000000000 
0.000000000000000 1.000000000000000 0.000000000000000 -114.713948585165539 
0.000000000000000 0.000000000000000 1.000000000000000 0.000000000000102 
2  49 -1 5 1 46 -1 45 -1 0
2  46 -1 45 -1 0
2  4 1 46 -1 45 -1 0
2  25 1 24 1 19 -1 5 1 46 -1 45 -1 0
2  2 -1 3 1 15 1 4 1 5 -1 6 1 0
2  6 -1 5 1 4 -1 0
2  7 -1 6 -1 5 1 4 -1 15 -1 3 -1 2 1 0
2  6 -1 5 1 4 -1 15 -1 3 -1 2 1 0
Curve2ds 107
1 -8.41249999999999964 -18.41250000000000142 1.00000000000000000 0.00000000000000000 
1 0.00000000000000000 -0.00000000000000000 1.00000000000000000 0.00000000000000000 
1 -0.00000000000000133 -35.00000000000000000 1.00000000000000000 0.00000000000000000 
1 -4.71238898038468967 0.00000000000000000 1.00000000000000000 0.00000000000000000 
2 -7.41249999999999698 -17.41249999999999787 -1.00000000000000000 0.00000000000000000 0.00000000000000000 1.00000000000000000 1.00000000000000000
1 -1.57079632679489567 -0.00000000000000000 1.00000000000000000 0.00000000000000000 
2 7.41249999999999876 -17.41249999999999787 -1.00000000000000000 0.00000000000000000 -0.00000000000000000 -1.00000000000000000 1.00000000000000000
1 0.00000000000000000 -0.00000000000000000 1.00000000000000000 0.00000000000000000 
1 0.00000000000000000 -35.00000000000000000 1.00000000000000000 0.00000000000000000 
1 -8.41249999999999964 18.41250000000000142 0.00000000000000000 -1.00000000000000000 
1 0.00000000000000000 0.00000000000000000 1.00000000000000000 0.00000000000000000 
1 0.00000000000000000 -35.00000000000000000 1.00000000000000000 0.00000000000000000 
1 8.41249999999999964 -18.41250000000000142 0.00000000000000000 1.00000000000000000 
1 1.58749999999999858 -1.58750000000000746 1.00000000000000000 0.00000000000000000 
1 1.58749999999999858 -1.58749999999999325 1.00000000000000000 0.00000000000000000 
1 0.00000000000000000 0.00000000000000000 1.00000000000000000 0.00000000000000000 
2 -7.41249999999999698 17.41249999999999787 -1.00000000000000000 0.00000000000000000 0.00000000000000000 1.00000000000000000 1.00000000000000000
1 -1.57079632679489656 0.00000000000000000 1.00000000000000000 0.00000000000000000 
2 7.41249999999999876 17.41249999999999787 -1.00000000000000000 0.00000000000000000 0.00000000000000000 1.00000000000000000 1.00000000000000000
1 8.41249999999999964 18.41250000000000142 -1.00000000000000000 0.00000000000000000 
1 0.00000000000000000 0.00000000000000000 1.00000000000000000 0.00000000000000000 
1 0.00000000000000133 -35.00000000000000000 1.00000000000000000 0.00000000000000000 
1 0.00000000000000000 0.00000000000000000 1.00000000000000000 0.00000000000000000 
1 0.00000000000000000 -35.00000000000000000 1.00000000000000000 0.00000000000000000 
1 0.00000000000000000 0.00000000000000000 1.00000000000000000 0.00000000000000000 
1 0.00000000000000000 -4.99999999999999911 1.00000000000000000 0.00000000000000000 
1 0.00000000000000000 0.00000000000000000 1.00000000000000000 0.00000000000000000 
1 0.00000000000000000 -5.00000000000000000 1.00000000000000000 0.00000000000000000 
1 10.00000000000000000 -20.00000000000000000 0.00000000000000000 1.00000000000000000 
1 -3.14159265358979312 0.00000000000000000 1.00000000000000000 0.00000000000000000 
2 7.99999999999999911 -17.99999999999999645 -1.00000000000000000 0.00000000000000000 0.00000000000000000 1.00000000000000000 2.00000000000000000
1 -3.14159265358979134 0.00000000000000355 1.00000000000000000 0.00000000000000000 
2 7.99999999999999911 17.99999999999999645 -1.00000000000000000 0.00000000000000000 -0.00000000000000000 -1.00000000000000000 2.00000000000000000
1 0.00000000000000000 -0.00000000000000000 1.00000000000000000 0.00000000000000000 
1 -0.00000000000000133 -35.00000000000000000 1.00000000000000000 0.00000000000000000 
1 -10.00000000000000000 -20.00000000000000000 1.00000000000000000 0.00000000000000000 
1 10.00000000000000000 20.00000000000000000 -1.00000000000000000 0.00000000000000000 
1 0.00000000000000000 0.00000000000000000 1.00000000000000000 0.00000000000000000 
1 0.00000000000000133 -35.00000000000000000 1.00000000000000000 0.00000000000000000 
1 -4.71238898038468967 0.00000000000000000 1.00000000000000000 0.00000000000000000 
2 -7.99999999999999734 -17.99999999999999645 -1.00000000000000000 0.00000000000000000 0.00000000000000000 1.00000000000000000 2.00000000000000000
1 -4.71238898038468879 0.00000000000000000 1.00000000000000000 0.00000000000000000 
2 -7.99999999999999734 17.99999999999999645 -1.00000000000000000 0.00000000000000000 -0.00000000000000000 -1.00000000000000000 2.00000000000000000
1 0.00000000000000000 -0.00000000000000000 1.00000000000000000 0.00000000000000000 
1 0.00000000000000000 -35.00000000000000000 1.00000000000000000 0.00000000000000000 
1 -10.00000000000000000 20.00000000000000000 0.00000000000000000 -1.00000000000000000 
1 0.00000000000000000 0.00000000000000000 0.00000000000000000 1.00000000000000000 
1 0.99999999999999911 0.00000000000000000 0.00000000000000000 -1.00000000000000000 
1 0.00000000000000000 0.00000000000000000 0.00000000000000000 1.00000000000000000 
1 15.82499999999999574 0.00000000000000000 0.00000000000000000 -1.00000000000000000 
1 1.57079632679489656 0.00000000000000000 0.00000000000000000 1.00000000000000000 
1 35.82499999999999574 0.00000000000000000 0.00000000000000000 -1.00000000000000000 
1 -4.71238898038468967 34.99999999999999289 1.00000000000000000 0.00000000000000000 
2 -7.41249999999999609 -17.41249999999999787 -1.00000000000000000 0.00000000000000000 0.00000000000000000 1.00000000000000000 1.00000000000000000
1 1.57079632679489656 0.00000000000000000 0.00000000000000000 1.00000000000000000 
1 1.00000000000000000 0.00000000000000000 0.00000000000000000 -1.00000000000000000 
1 -1.57079632679489389 34.99999999999999289 1.00000000000000000 0.00000000000000000 
2 7.41249999999999964 -17.41249999999999787 -1.00000000000000000 0.00000000000000000 -0.00000000000000000 -1.00000000000000000 1.00000000000000000
1 0.00000000000000000 0.00000000000000000 0.00000000000000000 1.00000000000000000 
1 1.00000000000000000 0.00000000000000000 0.00000000000000000 -1.00000000000000000 
2 18.41249999999999787 -17.49999999999999645 1.00000000000000000 0.00000000000000000 0.00000000000000000 -1.00000000000000000 3.96875000000000000
1 0.00000000000000000 -18.41249999999999432 1.00000000000000000 0.00000000000000000 
1 1.57079632679489656 0.00000000000000000 0.00000000000000000 1.00000000000000000 
1 35.82499999999999574 0.00000000000000000 0.00000000000000000 -1.00000000000000000 
2 18.41249999999999787 -17.49999999999999645 -1.00000000000000000 -0.00000000000000000 0.00000000000000000 -1.00000000000000000 3.96875000000000000
1 0.00000000000000000 -1.58750000000000036 1.00000000000000000 0.00000000000000000 
1 1.57079632679489656 0.00000000000000000 0.00000000000000000 1.00000000000000000 
1 15.82499999999999574 0.00000000000000000 0.00000000000000000 -1.00000000000000000 
1 0.00000000000000000 34.99999999999999289 1.00000000000000000 0.00000000000000000 
2 -7.41249999999999609 17.41249999999999787 -1.00000000000000000 0.00000000000000000 0.00000000000000000 1.00000000000000000 1.00000000000000000
1 0.00000000000000000 0.00000000000000000 0.00000000000000000 1.00000000000000000 
1 1.00000000000000000 0.00000000000000000 0.00000000000000000 -1.00000000000000000 
1 -1.57079632679489567 34.99999999999999289 1.00000000000000000 0.00000000000000000 
2 7.41249999999999964 17.41249999999999787 -1.00000000000000000 0.00000000000000000 0.00000000000000000 1.00000000000000000 1.00000000000000000
1 0.00000000000000000 0.00000000000000000 0.00000000000000000 1.00000000000000000 
1 2.00000000000000000 0.00000000000000355 0.00000000000000000 -1.00000000000000000 
1 0.00000000000000000 0.00000000000000000 0.00000000000000000 1.00000000000000000 
1 37.99999999999999289 0.00000000000000355 0.00000000000000000 -1.00000000000000000 
1 0.00000000000000000 0.00000000000000000 1.00000000000000000 0.00000000000000000 
1 0.00000000000000000 -114.71394858516553938 1.00000000000000000 0.00000000000000000 
2 0.00000000000000022 0.00000000000000009 0.00000000000000000 1.00000000000000000 -1.00000000000000000 0.00000000000000000 3.96875000000000000
2 20.00000000000000000 -17.50000000000000000 -1.00000000000000000 -0.00000000000000000 0.00000000000000000 -1.00000000000000000 3.96875000000000089
2 20.00000000000000000 -17.49999999999999289 -1.00000000000000000 -0.00000000000000000 0.00000000000000000 -1.00000000000000000 3.96875000000000000
1 1.57079632679489656 0.00000000000000000 0.00000000000000000 1.00000000000000000 
1 17.99999999999999645 -0.00000000000000355 0.00000000000000000 -1.00000000000000000 
1 -3.14159265358979312 34.99999999999999289 1.00000000000000000 0.00000000000000000 
2 7.99999999999999911 -17.99999999999999645 -1.00000000000000000 0.00000000000000000 0.00000000000000000 1.00000000000000000 2.00000000000000000
1 1.57079632679489656 0.00000000000000000 0.00000000000000000 1.00000000000000000 
1 2.00000000000000000 0.00000000000000000 0.00000000000000000 -1.00000000000000000 
1 -3.14159265358979134 35.00000000000000000 1.00000000000000000 0.00000000000000000 
2 7.99999999999999911 17.99999999999999645 -1.00000000000000000 0.00000000000000000 -0.00000000000000000 -1.00000000000000000 2.00000000000000000
1 0.00000000000000000 0.00000000000000000 0.00000000000000000 1.00000000000000000 
1 1.99999999999999911 -0.00000000000000355 0.00000000000000000 -1.00000000000000000 
1 0.00000000000000000 0.00000000000000000 0.00000000000000000 1.00000000000000000 
1 17.99999999999999645 0.00000000000000000 0.00000000000000000 -1.00000000000000000 
1 1.57079632679489656 0.00000000000000000 0.00000000000000000 1.00000000000000000 
1 37.99999999999999289 -0.00000000000000355 0.00000000000000000 -1.00000000000000000 
1 -4.71238898038468967 34.99999999999999289 1.00000000000000000 0.00000000000000000 
2 -7.99999999999999645 -17.99999999999999645 -1.00000000000000000 0.00000000000000000 0.00000000000000000 1.00000000000000000 2.00000000000000000
1 1.57079632679489656 0.00000000000000000 0.00000000000000000 1.00000000000000000 
1 2.00000000000000000 -0.00000000000000355 0.00000000000000000 -1.00000000000000000 
1 -4.71238898038468967 34.99999999999999289 1.00000000000000000 0.00000000000000000 
2 -7.99999999999999645 17.99999999999999645 -1.00000000000000000 0.00000000000000000 -0.00000000000000000 -1.00000000000000000 2.00000000000000000
2 19.99999999999999645 -17.49999999999999645 1.00000000000000000 0.00000000000000000 0.00000000000000000 -1.00000000000000000 3.96875000000000000
1 0.00000000000000000 -19.99999999999999645 1.00000000000000000 0.00000000000000000 
1 0.00000000000000000 0.00000000000000000 0.00000000000000000 -1.00000000000000000 
1 6.28318530717958623 0.00000000000000000 0.00000000000000000 -1.00000000000000000 
Curves 45
1 -18.41250000000000142 -8.41249999999999964 0.00000000000000000 0.00000000000000000 1.00000000000000000 0.00000000000000000 
8 4.71238898038468967 6.28318530717958978
2 -17.41249999999999787 -7.41250000000001208 -17.49999999999998934 0.00000000000000000 0.00000000000000089 1.00000000000000000 0.00000000000000000 -1.00000000000000000 0.00000000000000089 1.00000000000000000 0.00000000000000000 -0.00000000000000000 1.00000000000000000
8 1.57079632679489567 3.14159265358979312
2 -17.41249999999999787 7.41249999999998366 -17.50000000000000355 -0.00000000000000000 -0.00000000000000089 -1.00000000000000000 0.00000000000000000 -1.00000000000000000 0.00000000000000089 -1.00000000000000000 0.00000000000000000 0.00000000000000000 1.00000000000000000
1 18.41250000000000142 -8.41249999999999964 0.00000000000000000 -1.00000000000000000 0.00000000000000000 0.00000000000000000 
1 -18.41250000000000142 8.41249999999999964 0.00000000000000000 1.00000000000000000 0.00000000000000000 0.00000000000000000 
8 0.00000000000000000 1.57079632679489833
2 17.41249999999999787 -7.41250000000001208 -17.49999999999998934 0.00000000000000000 0.00000000000000089 1.00000000000000000 0.00000000000000000 -1.00000000000000000 0.00000000000000089 1.00000000000000000 0.00000000000000000 -0.00000000000000000 1.00000000000000000
8 1.57079632679489745 3.14159265358979667
2 17.41249999999999787 7.41249999999998366 -17.50000000000000355 0.00000000000000000 0.00000000000000089 1.00000000000000000 0.00000000000000000 -1.00000000000000000 0.00000000000000089 1.00000000000000000 0.00000000000000000 -0.00000000000000000 1.00000000000000000
1 18.41250000000000142 8.41249999999999964 0.00000000000000000 0.00000000000000000 -1.00000000000000000 0.00000000000000000 
1 -20.00000000000000000 10.00000000000000000 0.00000000000000000 1.00000000000000000 0.00000000000000000 0.00000000000000000 
8 3.14159265358979312 4.71238898038469056
2 -17.99999999999999645 7.99999999999998401 -17.50000000000000355 0.00000000000000000 0.00000000000000089 1.00000000000000000 0.00000000000000000 -1.00000000000000000 0.00000000000000089 1.00000000000000000 0.00000000000000000 -0.00000000000000000 2.00000000000000000
8 3.14159265358979134 4.71238898038468967
2 17.99999999999999645 7.99999999999998401 -17.50000000000000355 -0.00000000000000000 -0.00000000000000089 -1.00000000000000000 0.00000000000000000 -1.00000000000000000 0.00000000000000089 -1.00000000000000000 0.00000000000000000 0.00000000000000000 2.00000000000000000
1 -20.00000000000000000 -10.00000000000000000 0.00000000000000000 0.00000000000000000 1.00000000000000000 0.00000000000000000 
1 20.00000000000000000 10.00000000000000000 0.00000000000000000 0.00000000000000000 -1.00000000000000000 0.00000000000000000 
8 4.71238898038469056 6.28318530717958801
2 -17.99999999999999645 -8.00000000000001243 -17.49999999999998934 0.00000000000000000 0.00000000000000089 1.00000000000000000 0.00000000000000000 -1.00000000000000000 0.00000000000000089 1.00000000000000000 0.00000000000000000 -0.00000000000000000 2.00000000000000000
8 4.71238898038468879 6.28318530717958623
2 17.99999999999999645 -8.00000000000001243 -17.49999999999998934 -0.00000000000000000 -0.00000000000000089 -1.00000000000000000 0.00000000000000000 -1.00000000000000000 0.00000000000000089 -1.00000000000000000 0.00000000000000000 0.00000000000000000 2.00000000000000000
1 20.00000000000000000 -10.00000000000000000 0.00000000000000000 -1.00000000000000000 0.00000000000000000 0.00000000000000000 
1 -18.41249999999999787 -7.41250000000001208 -17.49999999999998934 0.00000000000000000 0.00000000000000089 1.00000000000000000 
1 -18.41249999999999787 7.41249999999998366 -17.50000000000000355 0.00000000000000000 0.00000000000000089 1.00000000000000000 
1 -17.41249999999999787 -8.41250000000001208 -17.49999999999998934 0.00000000000000000 0.00000000000000089 1.00000000000000000 
8 4.71238898038469056 6.28318530717958978
2 -17.41249999999999787 -7.41249999999998099 17.50000000000000355 0.00000000000000000 0.00000000000000089 1.00000000000000000 0.00000000000000000 -1.00000000000000000 0.00000000000000089 1.00000000000000000 0.00000000000000000 -0.00000000000000000 1.00000000000000000
1 -17.41249999999999787 8.41249999999998366 -17.50000000000000355 0.00000000000000000 0.00000000000000089 1.00000000000000000 
8 1.57079632679489389 3.14159265358979312
2 -17.41249999999999787 7.41250000000001474 17.49999999999998934 -0.00000000000000000 -0.00000000000000089 -1.00000000000000000 0.00000000000000000 -1.00000000000000000 0.00000000000000089 -1.00000000000000000 0.00000000000000000 0.00000000000000000 1.00000000000000000
1 17.41249999999999787 -8.41250000000001208 -17.49999999999998934 0.00000000000000000 0.00000000000000089 1.00000000000000000 
2 0.00000000000000000 -8.41249999999999432 0.00000000000000747 0.00000000000000000 1.00000000000000000 -0.00000000000000089 -1.00000000000000000 0.00000000000000000 0.00000000000000000 0.00000000000000000 0.00000000000000089 1.00000000000000000 3.96875000000000000
1 17.41249999999999787 8.41249999999998366 -17.50000000000000355 0.00000000000000000 0.00000000000000089 1.00000000000000000 
2 0.00000000000000000 8.41249999999999964 -0.00000000000000747 0.00000000000000000 1.00000000000000000 -0.00000000000000089 -1.00000000000000000 0.00000000000000000 0.00000000000000000 0.00000000000000000 0.00000000000000089 1.00000000000000000 3.96875000000000000
1 18.41249999999999787 -7.41250000000001208 -17.49999999999998934 0.00000000000000000 0.00000000000000089 1.00000000000000000 
8 0.00000000000000000 1.57079632679489745
2 17.41249999999999787 -7.41249999999998099 17.50000000000000355 0.00000000000000000 0.00000000000000089 1.00000000000000000 0.00000000000000000 -1.00000000000000000 0.00000000000000089 1.00000000000000000 0.00000000000000000 -0.00000000000000000 1.00000000000000000
1 18.41249999999999787 7.41249999999998366 -17.50000000000000355 0.00000000000000000 0.00000000000000089 1.00000000000000000 
8 1.57079632679489567 3.14159265358979667
2 17.41249999999999787 7.41250000000001474 17.49999999999998934 0.00000000000000000 0.00000000000000089 1.00000000000000000 0.00000000000000000 -1.00000000000000000 0.00000000000000089 1.00000000000000000 0.00000000000000000 -0.00000000000000000 1.00000000000000000
1 -17.99999999999999645 9.99999999999998401 -17.50000000000000711 0.00000000000000000 0.00000000000000089 1.00000000000000000 
1 17.99999999999999645 9.99999999999998401 -17.50000000000000711 0.00000000000000000 0.00000000000000089 1.00000000000000000 
2 0.00000000000000000 0.00000000000000000 0.00000000000000000 0.00000000000000000 0.00000000000000000 1.00000000000000000 1.00000000000000000 0.00000000000000000 0.00000000000000000 0.00000000000000000 1.00000000000000000 0.00000000000000000 3.96875000000000000
1 -19.99999999999999645 7.99999999999998401 -17.50000000000000355 0.00000000000000000 0.00000000000000089 1.00000000000000000 
8 3.14159265358979312 4.71238898038468967
2 -17.99999999999999645 8.00000000000001421 17.49999999999998934 0.00000000000000000 0.00000000000000089 1.00000000000000000 0.00000000000000000 -1.00000000000000000 0.00000000000000089 1.00000000000000000 0.00000000000000000 -0.00000000000000000 2.00000000000000000
1 19.99999999999999645 7.99999999999998401 -17.50000000000000355 0.00000000000000000 0.00000000000000089 1.00000000000000000 
8 3.14159265358979134 4.71238898038468967
2 17.99999999999999645 8.00000000000001421 17.49999999999998934 -0.00000000000000000 -0.00000000000000089 -1.00000000000000000 0.00000000000000000 -1.00000000000000000 0.00000000000000089 -1.00000000000000000 0.00000000000000000 0.00000000000000000 2.00000000000000000
1 -19.99999999999999645 -8.00000000000001243 -17.49999999999998934 0.00000000000000000 0.00000000000000089 1.00000000000000000 
1 19.99999999999999645 -8.00000000000001243 -17.49999999999998934 0.00000000000000000 0.00000000000000089 1.00000000000000000 
1 -17.99999999999999645 -10.00000000000001243 -17.49999999999998579 0.00000000000000000 0.00000000000000089 1.00000000000000000 
8 4.71238898038468967 6.28318530717958801
2 -17.99999999999999645 -7.99999999999998135 17.50000000000000355 0.00000000000000000 0.00000000000000089 1.00000000000000000 0.00000000000000000 -1.00000000000000000 0.00000000000000089 1.00000000000000000 0.00000000000000000 -0.00000000000000000 2.00000000000000000
1 17.99999999999999645 -10.00000000000001243 -17.49999999999998579 0.00000000000000000 0.00000000000000089 1.00000000000000000 
8 4.71238898038468967 6.28318530717958623
2 17.99999999999999645 -7.99999999999998135 17.50000000000000355 -0.00000000000000000 -0.00000000000000089 -1.00000000000000000 0.00000000000000000 -1.00000000000000000 0.00000000000000089 -1.00000000000000000 0.00000000000000000 0.00000000000000000 2.00000000000000000
2 0.00000000000000000 -9.99999999999999645 0.00000000000000888 0.00000000000000000 1.00000000000000000 -0.00000000000000089 -1.00000000000000000 0.00000000000000000 0.00000000000000000 0.00000000000000000 0.00000000000000089 1.00000000000000000 3.96875000000000000
1 -3.96875000000000000 10.00000000000000000 -0.00000000000000888 -0.00000000000000000 -1.00000000000000000 0.00000000000000089 
Polygon3D 0
PolygonOnTriangulations 0
Surfaces 21
1 0.00000000000000000 0.00000000000000000 0.00000000000000000 0.00000000000000000 1.00000000000000000 -0.00000000000000022 0.00000000000000000 0.00000000000000022 1.00000000000000000 1.00000000000000000 -0.00000000000000000 0.00000000000000000 
1 -18.41250000000000142 -8.41250000000000675 -17.49999999999999645 -1.00000000000000000 0.00000000000000000 0.00000000000000000 0.00000000000000000 1.00000000000000000 -0.00000000000000044 -0.00000000000000000 -0.00000000000000044 -1.00000000000000000 
2 -17.41249999999999787 -7.41250000000001208 -17.49999999999998934 0.00000000000000000 0.00000000000000089 1.00000000000000000 -1.00000000000000000 0.00000000000000000 0.00000000000000000 0.00000000000000000 -1.00000000000000000 0.00000000000000089 1.00000000000000000
2 -17.41249999999999787 7.41249999999998366 -17.50000000000000355 0.00000000000000000 0.00000000000000089 1.00000000000000000 -1.00000000000000000 0.00000000000000000 0.00000000000000000 -0.00000000000000000 1.00000000000000000 -0.00000000000000089 1.00000000000000000
1 18.41250000000000142 -8.41250000000000675 -17.49999999999999645 0.00000000000000000 -1.00000000000000000 0.00000000000000044 -1.00000000000000000 0.00000000000000000 0.00000000000000000 -0.00000000000000000 -0.00000000000000044 -1.00000000000000000 
1 -18.41250000000000142 8.41249999999999254 -17.50000000000000355 0.00000000000000000 1.00000000000000000 -0.00000000000000044 1.00000000000000000 0.00000000000000000 0.00000000000000000 0.00000000000000000 -0.00000000000000044 -1.00000000000000000 
1 -19.99999999999999645 9.99999999999998224 -17.50000000000000355 -0.00000000000000000 0.00000000000000089 1.00000000000000000 1.00000000000000000 0.00000000000000000 0.00000000000000000 0.00000000000000000 1.00000000000000000 -0.00000000000000089 
1 -19.99999999999999645 10.00000000000001421 17.49999999999998934 -0.00000000000000000 0.00000000000000089 1.00000000000000000 1.00000000000000000 0.00000000000000000 0.00000000000000000 0.00000000000000000 1.00000000000000000 -0.00000000000000089 
2 17.41249999999999787 -7.41250000000001208 -17.49999999999998934 0.00000000000000000 0.00000000000000089 1.00000000000000000 0.00000000000000000 -1.00000000000000000 0.00000000000000089 1.00000000000000000 0.00000000000000000 -0.00000000000000000 1.00000000000000000
2 17.41249999999999787 7.41249999999998366 -17.50000000000000355 0.00000000000000000 0.00000000000000089 1.00000000000000000 1.00000000000000000 0.00000000000000000 -0.00000000000000000 -0.00000000000000000 1.00000000000000000 -0.00000000000000089 1.00000000000000000
1 18.41250000000000142 8.41249999999999254 -17.50000000000000355 1.00000000000000000 0.00000000000000000 -0.00000000000000000 0.00000000000000000 -1.00000000000000000 0.00000000000000044 0.00000000000000000 -0.00000000000000044 -1.00000000000000000 
1 -20.00000000000000000 9.99999999999999289 -17.50000000000000355 0.00000000000000000 1.00000000000000000 -0.00000000000000044 1.00000000000000000 0.00000000000000000 0.00000000000000000 0.00000000000000000 -0.00000000000000044 -1.00000000000000000 
2 -17.99999999999999645 7.99999999999998401 -17.50000000000000355 0.00000000000000000 0.00000000000000089 1.00000000000000000 0.00000000000000000 1.00000000000000000 -0.00000000000000089 -1.00000000000000000 0.00000000000000000 0.00000000000000000 2.00000000000000000
2 17.99999999999999645 7.99999999999998401 -17.50000000000000355 0.00000000000000000 0.00000000000000089 1.00000000000000000 0.00000000000000000 1.00000000000000000 -0.00000000000000089 1.00000000000000000 -0.00000000000000000 -0.00000000000000000 2.00000000000000000
1 -20.00000000000000000 -10.00000000000000711 -17.49999999999999645 -1.00000000000000000 0.00000000000000000 0.00000000000000000 0.00000000000000000 1.00000000000000000 -0.00000000000000044 -0.00000000000000000 -0.00000000000000044 -1.00000000000000000 
1 20.00000000000000000 9.99999999999999289 -17.50000000000000355 1.00000000000000000 0.00000000000000000 -0.00000000000000000 0.00000000000000000 -1.00000000000000000 0.00000000000000044 0.00000000000000000 -0.00000000000000044 -1.00000000000000000 
2 -17.99999999999999645 -8.00000000000001243 -17.49999999999998934 0.00000000000000000 0.00000000000000089 1.00000000000000000 -1.00000000000000000 0.00000000000000000 0.00000000000000000 0.00000000000000000 -1.00000000000000000 0.00000000000000089 2.00000000000000000
2 17.99999999999999645 -8.00000000000001243 -17.49999999999998934 0.00000000000000000 0.00000000000000089 1.00000000000000000 1.00000000000000000 0.00000000000000000 -0.00000000000000000 0.00000000000000000 -1.00000000000000000 0.00000000000000089 2.00000000000000000
1 20.00000000000000000 -10.00000000000000711 -17.49999999999999645 0.00000000000000000 -1.00000000000000000 0.00000000000000044 -1.00000000000000000 0.00000000000000000 0.00000000000000000 -0.00000000000000000 -0.00000000000000044 -1.00000000000000000 
2 0.00000000000000000 10.00000000000000000 -0.00000000000000888 0.00000000000000000 1.00000000000000000 -0.00000000000000089 -1.00000000000000000 0.00000000000000000 0.00000000000000000 0.00000000000000000 0.00000000000000089 1.00000000000000000 3.96875000000000000
1 0.00000000000000009 0.00000000000000644 10.00000000000000178 0.00000000000000000 0.00000000000000052 1.00000000000000000 0.00000000000000000 1.00000000000000000 -0.00000000000000052 -1.00000000000000000 0.00000000000000000 0.00000000000000000 
Triangulations 0

TShapes 138
Ve
0.000000100000000
-18.412499999999998 -7.412500000000012 -17.499999999999989
0 0

0101101
*
Ve
0.000000100000000
-18.412499999999998 7.412499999999984 -17.500000000000004
0 0

0101101
*
Ed
 0.000000100000000 1 1 0
1  1 0 1.000000000000002 15.824999999999998
2  1 1 13 1.000000000000002 15.824999999999998
2  2 2 14 1.000000000000002 15.824999999999998
2  3 2 16 1.000000000000002 15.824999999999998
0

0101000
+138 17 -137 17 *
Ve
0.000000100000000
-17.412499999999998 -8.412500000000012 -17.499999999999989
0 0

0101101
*
Ed
 0.000000100000000 1 1 0
1  2 0 4.712388980384690 6.283185307179590
2  4 3 0 4.712388980384690 6.283185307179590
2  5 1 8 4.712388980384690 6.283185307179590
0

0101000
+138 0 -135 0 *
Ve
0.000000100000004
-17.412499999999998 8.412499999999984 -17.500000000000004
0 0

0101101
*
Ed
 0.000000100000000 1 1 0
1  3 0 1.570796326794896 3.141592653589793
2  6 4 0 1.570796326794896 3.141592653589793
2  7 1 8 1.570796326794896 3.141592653589793
0

0101000
+137 0 -133 0 *
Ve
0.000000100000000
17.412499999999998 -8.412500000000012 -17.499999999999989
0 0

0101101
*
Ed
 0.000000100000000 1 1 0
1  4 0 1.000000000000000 35.824999999999996
2  8 5 14 1.000000000000000 35.824999999999996
2  9 5 16 1.000000000000000 35.824999999999996
2  10 1 13 1.000000000000000 35.824999999999996
0

0101000
+131 17 -135 17 *
Ve
0.000000100000004
17.412499999999998 8.412499999999984 -17.500000000000004
0 0

0101101
*
Ed
 0.000000100000004 1 1 0
1  5 0 1.000000000000000 35.824999999999996
2  11 6 14 1.000000000000000 35.824999999999996
2  12 6 16 1.000000000000000 35.824999999999996
2  13 1 13 1.000000000000000 35.824999999999996
2  14 7 20 1.000000000000000 35.824999999999996
2  15 8 21 1.000000000000000 35.824999999999996
0

0101000
+133 17 -129 17 *
Ve
0.000000100000000
18.412499999999998 -7.412500000000012 -17.499999999999989
0 0

0101101
*
Ed
 0.000000100000000 1 1 0
1  6 0 0.000000000000000 1.570796326794898
2  16 9 0 0.000000000000000 1.570796326794898
2  17 1 8 0.000000000000000 1.570796326794898
0

0101000
+131 0 -127 0 *
Ve
0.000000100000000
18.412499999999998 7.412499999999984 -17.500000000000004
0 0

0101101
*
Ed
 0.000000100000000 1 1 0
1  7 0 1.570796326794897 3.141592653589797
2  18 10 0 1.570796326794897 3.141592653589797
2  19 1 8 1.570796326794897 3.141592653589797
0

0101000
+125 0 -129 0 *
Ed
 0.000000100000000 1 1 0
1  8 0 0.999999999999998 15.824999999999994
2  20 1 13 0.999999999999998 15.824999999999994
2  21 11 14 0.999999999999998 15.824999999999994
2  22 11 16 0.999999999999998 15.824999999999994
0

0101000
+125 17 -127 17 *
Wi

0101100
-136 12 +134 0 -132 0 -130 12 -128 12 +126 0 +124 0 -123 12 *
Ve
0.000000100000000
-17.999999999999996 9.999999999999984 -17.500000000000000
0 0

0101101
*
Ve
0.000000100000000
17.999999999999996 9.999999999999984 -17.500000000000000
0 0

0101101
*
Ed
 0.000000100000000 1 1 0
1  9 0 2.000000000000000 37.999999999999993
2  23 12 14 2.000000000000000 37.999999999999993
2  24 12 16 2.000000000000000 37.999999999999993
2  25 7 26 2.000000000000000 37.999999999999993
2  26 7 28 2.000000000000000 37.999999999999993
2  27 8 29 2.000000000000000 37.999999999999993
2  28 8 30 2.000000000000000 37.999999999999993
2  29 1 13 2.000000000000000 37.999999999999993
0

0101000
+121 31 -120 31 *
Ve
0.000000100000000
-19.999999999999996 7.999999999999984 -17.500000000000007
0 0

0101101
*
Ed
 0.000000100000000 1 1 0
1  10 0 3.141592653589793 4.712388980384691
2  30 13 0 3.141592653589793 4.712388980384691
2  31 1 32 3.141592653589793 4.712388980384691
0

0101000
+121 0 -118 0 *
Ve
0.000000100000000
19.999999999999996 7.999999999999984 -17.500000000000004
0 0

0101101
*
Ed
 0.000000100000000 1 1 0
1  11 0 3.141592653589791 4.712388980384690
2  32 14 0 3.141592653589791 4.712388980384690
2  33 1 32 3.141592653589791 4.712388980384690
0

0101000
+120 0 -116 0 *
Ve
0.000000100000000
-19.999999999999996 -8.000000000000012 -17.499999999999993
0 0

0101101
*
Ed
 0.000000100000000 1 1 0
1  12 0 1.999999999999999 17.999999999999996
2  34 15 14 1.999999999999999 17.999999999999996
2  35 15 16 1.999999999999999 17.999999999999996
2  36 1 13 1.999999999999999 17.999999999999996
0

0101000
+114 31 -118 31 *
Ve
0.000000100000000
19.999999999999996 -8.000000000000012 -17.499999999999989
0 0

0101101
*
Ed
 0.000000100000000 1 1 0
1  13 0 1.999999999999998 17.999999999999996
2  37 1 13 1.999999999999998 17.999999999999996
2  38 16 14 1.999999999999998 17.999999999999996
2  39 16 16 1.999999999999998 17.999999999999996
0

0101000
+116 31 -112 31 *
Ve
0.000000100000000
-17.999999999999996 -10.000000000000012 -17.499999999999993
0 0

0101101
*
Ed
 0.000000100000000 1 1 0
1  14 0 4.712388980384691 6.283185307179588
2  40 17 0 4.712388980384691 6.283185307179588
2  41 1 32 4.712388980384691 6.283185307179588
0

0101000
+114 0 -110 0 *
Ve
0.000000100000000
17.999999999999996 -10.000000000000012 -17.499999999999993
0 0

0101101
*
Ed
 0.000000100000000 1 1 0
1  15 0 4.712388980384689 6.283185307179586
2  42 18 0 4.712388980384689 6.283185307179586
2  43 1 32 4.712388980384689 6.283185307179586
0

0101000
+112 0 -108 0 *
Ed
 0.000000100000000 1 1 0
1  16 0 2.000000000000000 37.999999999999993
2  44 19 14 2.000000000000000 37.999999999999993
2  45 19 16 2.000000000000000 37.999999999999993
2  46 1 13 2.000000000000000 37.999999999999993
0

0101000
+108 31 -110 31 *
Wi

0101100
+119 23 -117 0 +115 0 +113 23 +111 23 -109 0 +107 0 +106 23 *
Fa
0  0.000000100000000 1 0

0101000
+122 9 +105 22 *
Ve
0.000000100000000
-18.412499999999998 -7.412499999999981 17.500000000000011
0 0

0101101
*
Ed
 0.000000100000000 1 1 0
1  17 0 -0.000000000000000 34.999999999999993
2  47 3 0 -0.000000000000000 34.999999999999993
2  48 2 33 -0.000000000000000 34.999999999999993
4 G1 3 0 2 33
0

0101000
+138 0 -103 0 *
Ve
0.000000100000000
-18.412499999999998 7.412500000000015 17.499999999999996
0 0

0101101
*
Ed
 0.000000100000000 1 1 0
1  18 0 -0.000000000000000 34.999999999999993
2  49 4 0 -0.000000000000000 34.999999999999993
2  50 2 33 -0.000000000000000 34.999999999999993
4 G1 4 0 2 33
0

0101000
+137 0 -101 0 *
Ed
 0.000000100000000 1 1 0
1  1 0 1.000000000000001 15.824999999999996
2  1 1 13 1.000000000000001 15.824999999999996
2  2 2 14 1.000000000000001 15.824999999999996
2  3 2 16 1.000000000000001 15.824999999999996
0

0101000
+103 36 -101 36 *
Wi

0101100
-136 12 +102 0 -100 0 +99 35 *
Fa
0  0.000000100000000 2 0

0101000
+98 34 *
Ve
0.000000100000000
-17.412499999999998 -8.412499999999980 17.500000000000011
0 0

0101101
*
Ed
 0.000000100000000 1 1 0
1  19 0 -0.000000000000000 34.999999999999993
2  51 3 0 -0.000000000000000 34.999999999999993
2  52 5 33 -0.000000000000000 34.999999999999993
4 G1 3 0 5 33
0

0101000
+135 0 -96 0 *
Ed
 0.000000100000000 1 1 0
1  20 0 4.712388980384691 6.283185307179590
2  53 3 0 4.712388980384691 6.283185307179590
2  54 1 37 4.712388980384691 6.283185307179590
0

0101000
+103 0 -96 0 *
Wi

0101100
+134 0 -102 0 +95 0 -94 0 *
Fa
0  0.000000000000000 3 0

0101000
+93 0 *
Ve
0.000000100000004
-17.412499999999998 8.412500000000016 17.499999999999996
0 0

0101101
*
Ed
 0.000000100000000 1 1 0
1  21 0 -0.000000000000000 34.999999999999993
2  55 4 0 -0.000000000000000 34.999999999999993
2  56 6 33 -0.000000000000000 34.999999999999993
4 G1 4 0 6 33
0

0101000
+133 0 -91 0 *
Ed
 0.000000100000000 1 1 0
1  22 0 1.570796326794894 3.141592653589793
2  57 4 0 1.570796326794894 3.141592653589793
2  58 1 37 1.570796326794894 3.141592653589793
0

0101000
+101 0 -91 0 *
Wi

0101100
+132 0 -100 0 +90 0 -89 0 *
Fa
0  0.000000000000000 4 0

0101000
+88 0 *
Ve
0.000000100000000
17.412499999999998 -8.412499999999980 17.500000000000011
0 0

0101101
*
Ed
 0.000000100000000 1 1 0
1  23 0 -0.000000000000000 34.999999999999993
2  59 9 0 -0.000000000000000 34.999999999999993
2  60 5 33 -0.000000000000000 34.999999999999993
4 G1 9 0 5 33
0

0101000
+131 0 -86 0 *
Ed
 0.000000100000000 1 1 0
1  4 0 1.000000000000000 35.824999999999996
2  8 5 14 1.000000000000000 35.824999999999996
2  9 5 16 1.000000000000000 35.824999999999996
2  10 1 13 1.000000000000000 35.824999999999996
0

0101000
+86 36 -96 36 *
Wi

0101100
-130 12 +85 0 -95 0 +84 35 *
Ve
0.000000100000001
-3.968750000000000 -8.412499999999994 0.000000000000007
0 0

0101101
*
Ed
 0.000000100000000 1 1 0
1  24 0 0.000000000000000 6.283185307179586
2  61 5 39 0.000000000000000 6.283185307179586
2  62 20 0 0.000000000000000 6.283185307179586
0

0101000
+82 0 -82 0 *
Wi

0101100
+81 0 *
Fa
0  0.000000100000000 5 39

0101000
+83 40 +80 0 *
Ve
0.000000100000004
17.412499999999998 8.412500000000016 17.499999999999996
0 0

0101101
*
Ed
 0.000000100000000 1 1 0
1  25 0 -0.000000000000000 34.999999999999993
2  63 10 0 -0.000000000000000 34.999999999999993
2  64 6 33 -0.000000000000000 34.999999999999993
4 G1 10 0 6 33
0

0101000
+129 0 -78 0 *
Ed
 0.000000100000004 1 1 0
1  5 0 1.000000000000000 35.824999999999996
2  11 6 14 1.000000000000000 35.824999999999996
2  12 6 16 1.000000000000000 35.824999999999996
2  13 1 13 1.000000000000000 35.824999999999996
2  14 7 20 1.000000000000000 35.824999999999996
2  15 8 21 1.000000000000000 35.824999999999996
0

0101000
+91 36 -78 36 *
Wi

0101100
-128 12 +90 0 -77 0 +76 35 *
Ve
0.000000100000001
-3.968750000000000 8.412500000000000 -0.000000000000007
0 0

0101101
*
Ed
 0.000000100000000 1 1 0
1  26 0 0.000000000000000 6.283185307179586
2  65 6 39 0.000000000000000 6.283185307179586
2  66 20 0 0.000000000000000 6.283185307179586
0

0101000
+74 0 -74 0 *
Wi

0101100
-73 0 *
Fa
0  0.000000100000000 6 39

0101000
+75 40 +72 0 *
Ve
0.000000100000000
18.412499999999998 -7.412499999999981 17.500000000000011
0 0

0101101
*
Ed
 0.000000100000000 1 1 0
1  27 0 -0.000000000000000 34.999999999999993
2  67 9 0 -0.000000000000000 34.999999999999993
2  68 11 33 -0.000000000000000 34.999999999999993
4 G1 9 0 11 33
0

0101000
+127 0 -70 0 *
Ed
 0.000000100000000 1 1 0
1  28 0 0.000000000000000 1.570796326794897
2  69 9 0 0.000000000000000 1.570796326794897
2  70 1 37 0.000000000000000 1.570796326794897
0

0101000
+86 0 -70 0 *
Wi

0101100
+126 0 -85 0 +69 0 -68 0 *
Fa
0  0.000000000000000 9 0

0101000
+67 0 *
Ve
0.000000100000000
18.412499999999998 7.412500000000015 17.499999999999996
0 0

0101101
*
Ed
 0.000000100000000 1 1 0
1  29 0 -0.000000000000000 34.999999999999993
2  71 10 0 -0.000000000000000 34.999999999999993
2  72 11 33 -0.000000000000000 34.999999999999993
4 G1 10 0 11 33
0

0101000
+125 0 -65 0 *
Ed
 0.000000100000000 1 1 0
1  30 0 1.570796326794896 3.141592653589797
2  73 10 0 1.570796326794896 3.141592653589797
2  74 1 37 1.570796326794896 3.141592653589797
0

0101000
+65 0 -78 0 *
Wi

0101100
+124 0 -64 0 +77 0 -63 0 *
Fa
0  0.000000000000000 10 0

0101000
+62 0 *
Ed
 0.000000100000000 1 1 0
1  8 0 1.000000000000000 15.824999999999996
2  20 1 13 1.000000000000000 15.824999999999996
2  21 11 14 1.000000000000000 15.824999999999996
2  22 11 16 1.000000000000000 15.824999999999996
0

0101000
+65 36 -70 36 *
Wi

0101100
-123 12 +64 0 -69 0 +60 35 *
Fa
0  0.000000100000000 11 0

0101000
+59 34 *
Ve
0.000000100000000
-17.999999999999996 10.000000000000014 17.499999999999996
0 0

0101101
*
Ed
 0.000000100000000 1 1 0
1  31 0 0.000000000000004 35.000000000000000
2  75 13 0 0.000000000000004 35.000000000000000
2  76 12 42 0.000000000000004 35.000000000000000
4 G1 13 0 12 42
0

0101000
+121 0 -57 0 *
Ve
0.000000100000000
17.999999999999996 10.000000000000014 17.499999999999996
0 0

0101101
*
Ed
 0.000000100000000 1 1 0
1  32 0 0.000000000000004 35.000000000000000
2  77 14 0 0.000000000000004 35.000000000000000
2  78 12 42 0.000000000000004 35.000000000000000
4 G1 14 0 12 42
0

0101000
+120 0 -55 0 *
Ed
 0.000000100000000 1 1 0
1  9 0 2.000000000000000 37.999999999999993
2  23 12 14 2.000000000000000 37.999999999999993
2  24 12 16 2.000000000000000 37.999999999999993
2  25 7 26 2.000000000000000 37.999999999999993
2  26 7 28 2.000000000000000 37.999999999999993
2  27 8 29 2.000000000000000 37.999999999999993
2  28 8 30 2.000000000000000 37.999999999999993
2  29 1 13 2.000000000000000 37.999999999999993
0

0101000
+57 44 -55 44 *
Wi

0101100
-119 23 +56 0 -54 0 +53 43 *
Ve
0.000000100000004
3.968750000000000 0.000000000000000 0.000000000000000
0 0

0101101
*
Ed
 0.000000100000004 1 1 0
1  33 0 0.000000000000000 6.283185307179586
2  79 20 48 0.000000000000000 6.283185307179586
2  80 20 50 0.000000000000000 6.283185307179586
2  81 21 51 0.000000000000000 6.283185307179586
2  82 12 52 0.000000000000000 6.283185307179586
2  83 12 53 0.000000000000000 6.283185307179586
0

0101000
+51 0 -51 0 *
Wi

0101100
-50 47 *
Fa
0  0.000000100000000 12 39

0111000
+52 41 +49 0 *
Ve
0.000000100000000
-19.999999999999996 8.000000000000016 17.499999999999996
0 0

0101101
*
Ed
 0.000000100000000 1 1 0
1  34 0 -0.000000000000004 34.999999999999993
2  84 13 0 -0.000000000000004 34.999999999999993
2  85 15 42 -0.000000000000004 34.999999999999993
4 G1 13 0 15 42
0

0101000
+118 0 -47 0 *
Ed
 0.000000100000000 1 1 0
1  35 0 3.141592653589793 4.712388980384690
2  86 13 0 3.141592653589793 4.712388980384690
2  87 1 54 3.141592653589793 4.712388980384690
0

0101000
+57 0 -47 0 *
Wi

0101100
+117 0 -56 0 +46 0 -45 0 *
Fa
0  0.000000000000000 13 0

0111000
+44 0 *
Ve
0.000000100000000
19.999999999999996 8.000000000000016 17.499999999999996
0 0

0101101
*
Ed
 0.000000100000000 1 1 0
1  36 0 0.000000000000004 34.999999999999993
2  88 14 0 0.000000000000004 34.999999999999993
2  89 16 42 0.000000000000004 34.999999999999993
4 G1 14 0 16 42
0

0101000
+116 0 -42 0 *
Ed
 0.000000100000000 1 1 0
1  37 0 3.141592653589791 4.712388980384690
2  90 14 0 3.141592653589791 4.712388980384690
2  91 1 54 3.141592653589791 4.712388980384690
0

0101000
+55 0 -42 0 *
Wi

0101100
+115 0 -54 0 +41 0 -40 0 *
Fa
0  0.000000000000000 14 0

0111000
+39 0 *
Ve
0.000000100000000
-19.999999999999996 -7.999999999999981 17.500000000000011
0 0

0101101
*
Ed
 0.000000100000000 1 1 0
1  38 0 -0.000000000000004 34.999999999999986
2  92 17 0 -0.000000000000004 34.999999999999986
2  93 15 42 -0.000000000000004 34.999999999999986
4 G1 17 0 15 42
0

0101000
+114 0 -37 0 *
Ed
 0.000000100000000 1 1 0
1  12 0 2.000000000000001 17.999999999999996
2  34 15 14 2.000000000000001 17.999999999999996
2  35 15 16 2.000000000000001 17.999999999999996
2  36 1 13 2.000000000000001 17.999999999999996
0

0101000
+37 44 -47 44 *
Wi

0101100
-113 23 +36 0 -46 0 +35 43 *
Fa
0  0.000000100000000 15 0

0111000
+34 55 *
Ve
0.000000100000000
19.999999999999996 -7.999999999999981 17.500000000000011
0 0

0101101
*
Ed
 0.000000100000000 1 1 0
1  39 0 -0.000000000000000 34.999999999999993
2  94 18 0 -0.000000000000000 34.999999999999993
2  95 16 42 -0.000000000000000 34.999999999999993
4 G1 18 0 16 42
0

0101000
+112 0 -32 0 *
Ed
 0.000000100000000 1 1 0
1  13 0 2.000000000000000 17.999999999999996
2  37 1 13 2.000000000000000 17.999999999999996
2  38 16 14 2.000000000000000 17.999999999999996
2  39 16 16 2.000000000000000 17.999999999999996
0

0101000
+42 44 -32 44 *
Wi

0101100
-111 23 +41 0 -31 0 +30 43 *
Fa
0  0.000000100000000 16 0

0111000
+29 55 *
Ve
0.000000100000000
-17.999999999999996 -9.999999999999982 17.500000000000011
0 0

0101101
*
Ed
 0.000000100000000 1 1 0
1  40 0 -0.000000000000004 34.999999999999986
2  96 17 0 -0.000000000000004 34.999999999999986
2  97 19 42 -0.000000000000004 34.999999999999986
4 G1 17 0 19 42
0

0101000
+110 0 -27 0 *
Ed
 0.000000100000000 1 1 0
1  41 0 4.712388980384690 6.283185307179588
2  98 17 0 4.712388980384690 6.283185307179588
2  99 1 54 4.712388980384690 6.283185307179588
0

0101000
+37 0 -27 0 *
Wi

0101100
+109 0 -36 0 +26 0 -25 0 *
Fa
0  0.000000000000000 17 0

0111000
+24 0 *
Ve
0.000000100000000
17.999999999999996 -9.999999999999982 17.500000000000011
0 0

0101101
*
Ed
 0.000000100000000 1 1 0
1  42 0 -0.000000000000004 34.999999999999986
2  100 18 0 -0.000000000000004 34.999999999999986
2  101 19 42 -0.000000000000004 34.999999999999986
4 G1 18 0 19 42
0

0101000
+108 0 -22 0 *
Ed
 0.000000100000000 1 1 0
1  43 0 4.712388980384690 6.283185307179586
2  102 18 0 4.712388980384690 6.283185307179586
2  103 1 54 4.712388980384690 6.283185307179586
0

0101000
+32 0 -22 0 *
Wi

0101100
+107 0 -31 0 +21 0 -20 0 *
Fa
0  0.000000000000000 18 0

0111000
+19 0 *
Ed
 0.000000100000000 1 1 0
1  16 0 2.000000000000000 37.999999999999993
2  44 19 14 2.000000000000000 37.999999999999993
2  45 19 16 2.000000000000000 37.999999999999993
2  46 1 13 2.000000000000000 37.999999999999993
0

0101000
+22 44 -27 44 *
Wi

0101100
-106 23 +21 0 -26 0 +17 43 *
Ve
0.000000100000001
-3.968750000000000 -9.999999999999996 0.000000000000009
0 0

0101101
*
Ed
 0.000000100000000 1 1 0
1  44 0 0.000000000000000 6.283185307179586
2  104 19 39 0.000000000000000 6.283185307179586
2  105 20 0 0.000000000000000 6.283185307179586
0

0101000
+15 0 -15 0 *
Wi

0101100
+14 0 *
Fa
0  0.000000100000000 19 39

0111000
+16 41 +13 0 *
Wi

0101100
-99 35 +94 0 -89 0 -84 35 -76 35 +68 0 +63 0 -60 35 *
Wi

0101100
+53 43 -45 0 +40 0 +35 43 +30 43 -25 0 +20 0 +17 43 *
Fa
0  0.000000100000000 1 0

0101000
+11 56 +10 57 *
Ed
 0.000000100000000 1 1 0
1  45 0 18.412499999999994 19.999999999999996
3  106 107CN 20 0 18.412499999999994 19.999999999999996
0

0101000
+82 0 -15 0 *
Wi

0101100
-81 0 -8 0 +14 0 +8 0 *
Fa
0  0.000000100000000 20 0

0111000
+7 0 *
Ed
 0.000000100000000 1 1 0
1  45 0 0.000000000000000 1.587500000000000
3  106 107CN 20 0 0.000000000000000 1.587500000000000
0

0101000
+51 47 -74 0 *
Wi

0101100
-50 47 -5 0 +73 0 +5 0 *
Fa
0  0.000000100000000 20 0

0111000
+4 0 *
Sh

0101100
+104 8 -97 33 -92 0 +87 0 -79 38 -71 38 -66 0 -61 0 -58 33 +48 38 
+43 7 -38 7 +33 33 +28 33 +23 7 -18 7 +12 38 -9 37 -6 38 -3 38 
*
So

0100000
+2 0 *

+1 1 