
CASCADE Topology V1, (c) Matra-Datavision
Locations 143
1
1.000000000000000 0.000000000000000 0.000000000000000 0.000000000000000 
0.000000000000000 1.000000000000000 0.000000000000000 0.000000000000000 
0.000000000000000 0.000000000000000 1.000000000000000 0.000000000000000 
1
1.000000000000000 0.000000000000000 0.000000000000000 0.000000000000000 
0.000000000000000 1.000000000000000 0.000000000000000 0.000000000000000 
0.000000000000000 0.000000000000000 1.000000000000000 0.000000000000000 
1
1.000000000000000 0.000000000000000 0.000000000000000 0.000000000000000 
0.000000000000000 1.000000000000000 0.000000000000000 0.000000000000000 
0.000000000000000 0.000000000000000 1.000000000000000 0.000000000000000 
2  2 1 3 -1 0
2  3 1 2 -1 0
1
1.000000000000000 0.000000000000000 0.000000000000000 0.000000000000000 
0.000000000000000 1.000000000000000 0.000000000000000 0.000000000000000 
0.000000000000000 0.000000000000000 1.000000000000000 0.000000000000000 
1
1.000000000000000 0.000000000000000 0.000000000000000 0.000000000000000 
0.000000000000000 0.000000000000000 -1.000000000000000 0.000000000000000 
0.000000000000000 1.000000000000000 0.000000000000000 0.000000000000000 
1
1.000000000000000 0.000000000000000 0.000000000000000 0.000000000000000 
0.000000000000000 1.000000000000000 0.000000000000000 0.000000000000000 
0.000000000000000 0.000000000000000 1.000000000000000 0.000000000000000 
1
1.000000000000000 0.000000000000000 0.000000000000000 0.000000000000000 
0.000000000000000 1.000000000000000 0.000000000000000 0.000000000000000 
0.000000000000000 0.000000000000000 1.000000000000000 0.000000000000000 
1
1.000000000000000 0.000000000000000 0.000000000000000 0.000000000000000 
0.000000000000000 1.000000000000000 0.000000000000000 0.000000000000000 
0.000000000000000 0.000000000000000 1.000000000000000 0.000000000000000 
1
1.000000000000000 0.000000000000000 0.000000000000000 0.000000000000000 
0.000000000000000 1.000000000000000 0.000000000000000 0.000000000000000 
0.000000000000000 0.000000000000000 1.000000000000000 0.000000000000000 
1
1.000000000000000 0.000000000000000 0.000000000000000 0.000000000000000 
0.000000000000000 1.000000000000000 0.000000000000000 0.000000000000000 
0.000000000000000 0.000000000000000 1.000000000000000 0.000000000000000 
1
1.000000000000000 0.000000000000000 0.000000000000000 0.000000000000000 
0.000000000000000 1.000000000000000 0.000000000000000 0.000000000000000 
0.000000000000000 0.000000000000000 1.000000000000000 0.000000000000000 
1
1.000000000000000 0.000000000000000 0.000000000000000 0.000000000000000 
0.000000000000000 1.000000000000000 0.000000000000000 0.000000000000000 
0.000000000000000 0.000000000000000 1.000000000000000 0.000000000000000 
1
1.000000000000000 0.000000000000000 0.000000000000000 -0.000000000000000 
0.000000000000000 1.000000000000000 0.000000000000000 -55.000000000000000 
0.000000000000000 0.000000000000000 1.000000000000000 0.000000000000012 
1
1.000000000000000 0.000000000000000 0.000000000000000 0.000000000000000 
0.000000000000000 1.000000000000000 0.000000000000000 110.000000000000000 
0.000000000000000 0.000000000000000 1.000000000000000 -0.000000000000024 
2  6 1 7 1 8 1 9 1 10 1 11 1 12 1 13 1 14 -1 15 1 16 1 0
1
1.000000000000000 0.000000000000000 0.000000000000000 0.000000000000000 
0.000000000000000 1.000000000000000 0.000000000000000 0.000000000000000 
0.000000000000000 0.000000000000000 1.000000000000000 0.000000000000000 
1
1.000000000000000 0.000000000000000 0.000000000000000 0.000000000000000 
0.000000000000000 0.000000000000000 -1.000000000000000 0.000000000000000 
0.000000000000000 1.000000000000000 0.000000000000000 0.000000000000000 
1
1.000000000000000 0.000000000000000 0.000000000000000 0.000000000000000 
0.000000000000000 -0.000000000000000 -1.000000000000000 0.000000000000000 
0.000000000000000 1.000000000000000 -0.000000000000000 0.000000000000000 
2  18 1 19 1 20 -1 6 1 7 1 8 1 9 1 10 1 11 1 12 1 13 1 14 -1 15 1 2 1 3 -1 0
1
1.000000000000000 0.000000000000000 0.000000000000000 0.000000000000000 
0.000000000000000 1.000000000000000 0.000000000000000 0.000000000000000 
0.000000000000000 0.000000000000000 1.000000000000000 0.000000000000000 
1
1.000000000000000 0.000000000000000 0.000000000000000 0.000000000000000 
0.000000000000000 1.000000000000000 0.000000000000000 0.000000000000000 
0.000000000000000 0.000000000000000 1.000000000000000 0.000000000000000 
1
1.000000000000000 0.000000000000000 0.000000000000000 0.000000000000000 
0.000000000000000 1.000000000000000 0.000000000000000 0.000000000000000 
0.000000000000000 0.000000000000000 1.000000000000000 0.000000000000000 
1
1.000000000000000 0.000000000000000 0.000000000000000 0.000000000000000 
0.000000000000000 1.000000000000000 0.000000000000000 0.000000000000000 
0.000000000000000 0.000000000000000 1.000000000000000 0.000000000000000 
1
1.000000000000000 0.000000000000000 0.000000000000000 0.000000000000000 
0.000000000000000 1.000000000000000 0.000000000000000 0.000000000000000 
0.000000000000000 0.000000000000000 1.000000000000000 0.000000000000000 
2  22 1 23 -1 24 -1 25 -1 26 -1 9 -1 8 -1 7 -1 6 -1 20 1 19 -1 18 -1 0
1
1.000000000000000 0.000000000000000 0.000000000000000 0.000000000000000 
0.000000000000000 1.000000000000000 0.000000000000000 10.000000000000000 
0.000000000000000 0.000000000000000 1.000000000000000 -0.000000000000002 
2  28 -1 22 1 23 -1 24 -1 25 -1 26 -1 9 -1 8 -1 7 -1 6 -1 20 1 19 -1 18 -1 0
1
1.000000000000000 0.000000000000000 0.000000000000000 -0.000000000000000 
0.000000000000000 1.000000000000000 0.000000000000000 -5.000000000000000 
0.000000000000000 0.000000000000000 1.000000000000000 0.000000000000001 
1
1.000000000000000 0.000000000000000 0.000000000000000 0.000000000000000 
0.000000000000000 1.000000000000000 0.000000000000000 0.000000000000000 
0.000000000000000 0.000000000000000 1.000000000000000 0.000000000000000 
1
1.000000000000000 0.000000000000000 0.000000000000000 0.000000000000000 
0.000000000000000 1.000000000000000 0.000000000000000 0.000000000000000 
0.000000000000000 0.000000000000000 1.000000000000000 0.000000000000000 
2  30 -1 31 1 32 -1 24 -1 25 -1 26 -1 9 -1 8 -1 7 -1 6 -1 20 1 19 -1 18 -1 0
1
1.000000000000000 0.000000000000000 0.000000000000000 0.000000000000000 
0.000000000000000 1.000000000000000 0.000000000000000 10.000000000000000 
0.000000000000000 0.000000000000000 1.000000000000000 -0.000000000000002 
2  34 -1 30 -1 31 1 32 -1 24 -1 25 -1 26 -1 9 -1 8 -1 7 -1 6 -1 20 1 19 -1 18 -1 0
1
1.000000000000000 0.000000000000000 0.000000000000000 -0.000000000000000 
0.000000000000000 1.000000000000000 0.000000000000000 -4.500000000000000 
0.000000000000000 0.000000000000000 1.000000000000000 0.000000000000001 
1
1.000000000000000 0.000000000000000 0.000000000000000 0.000000000000000 
0.000000000000000 1.000000000000000 0.000000000000000 0.000000000000000 
0.000000000000000 0.000000000000000 1.000000000000000 0.000000000000000 
1
1.000000000000000 0.000000000000000 0.000000000000000 0.000000000000000 
0.000000000000000 1.000000000000000 0.000000000000000 0.000000000000000 
0.000000000000000 0.000000000000000 1.000000000000000 0.000000000000000 
2  36 -1 37 1 38 -1 24 -1 25 -1 26 -1 9 -1 8 -1 7 -1 6 -1 20 1 19 -1 18 -1 0
1
1.000000000000000 0.000000000000000 0.000000000000000 0.000000000000000 
0.000000000000000 1.000000000000000 0.000000000000000 9.000000000000000 
0.000000000000000 0.000000000000000 1.000000000000000 -0.000000000000002 
2  40 -1 36 -1 37 1 38 -1 24 -1 25 -1 26 -1 9 -1 8 -1 7 -1 6 -1 20 1 19 -1 18 -1 0
1
1.000000000000000 0.000000000000000 0.000000000000000 -0.000000000000000 
0.000000000000000 1.000000000000000 0.000000000000000 -100.000000000000000 
0.000000000000000 0.000000000000000 1.000000000000000 0.000000000000022 
1
1.000000000000000 0.000000000000000 0.000000000000000 0.000000000000000 
0.000000000000000 1.000000000000000 0.000000000000000 0.000000000000000 
0.000000000000000 0.000000000000000 1.000000000000000 0.000000000000000 
1
1.000000000000000 0.000000000000000 0.000000000000000 0.000000000000000 
0.000000000000000 1.000000000000000 0.000000000000000 0.000000000000000 
0.000000000000000 0.000000000000000 1.000000000000000 0.000000000000000 
2  42 -1 43 1 44 -1 24 -1 25 -1 26 -1 9 -1 8 -1 7 -1 6 -1 20 1 19 -1 18 -1 0
1
1.000000000000000 0.000000000000000 0.000000000000000 0.000000000000000 
0.000000000000000 1.000000000000000 0.000000000000000 200.000000000000000 
0.000000000000000 0.000000000000000 1.000000000000000 -0.000000000000044 
2  46 -1 42 -1 43 1 44 -1 24 -1 25 -1 26 -1 9 -1 8 -1 7 -1 6 -1 20 1 19 -1 18 -1 0
1
1.000000000000000 0.000000000000000 0.000000000000000 -0.000000000000000 
0.000000000000000 1.000000000000000 0.000000000000000 -100.000000000000000 
0.000000000000000 0.000000000000000 1.000000000000000 0.000000000000022 
1
1.000000000000000 0.000000000000000 0.000000000000000 0.000000000000000 
0.000000000000000 1.000000000000000 0.000000000000000 0.000000000000000 
0.000000000000000 0.000000000000000 1.000000000000000 0.000000000000000 
1
1.000000000000000 0.000000000000000 0.000000000000000 0.000000000000000 
0.000000000000000 1.000000000000000 0.000000000000000 0.000000000000000 
0.000000000000000 0.000000000000000 1.000000000000000 0.000000000000000 
2  48 -1 49 1 50 -1 24 -1 25 -1 26 -1 9 -1 8 -1 7 -1 6 -1 20 1 19 -1 18 -1 0
1
1.000000000000000 0.000000000000000 0.000000000000000 0.000000000000000 
0.000000000000000 1.000000000000000 0.000000000000000 200.000000000000000 
0.000000000000000 0.000000000000000 1.000000000000000 -0.000000000000044 
2  52 -1 48 -1 49 1 50 -1 24 -1 25 -1 26 -1 9 -1 8 -1 7 -1 6 -1 20 1 19 -1 18 -1 0
1
1.000000000000000 0.000000000000000 0.000000000000000 0.000000000000000 
0.000000000000000 1.000000000000000 0.000000000000000 0.000000000000000 
0.000000000000000 0.000000000000000 1.000000000000000 0.000000000000000 
1
1.000000000000000 0.000000000000000 0.000000000000000 0.000000000000000 
0.000000000000000 1.000000000000000 0.000000000000000 0.000000000000000 
0.000000000000000 0.000000000000000 1.000000000000000 0.000000000000000 
2  54 1 55 -1 12 -1 11 -1 10 -1 9 -1 8 -1 7 -1 6 -1 20 1 19 -1 18 -1 0
1
1.000000000000000 0.000000000000000 0.000000000000000 0.000000000000000 
0.000000000000000 1.000000000000000 0.000000000000000 10.000000000000000 
0.000000000000000 0.000000000000000 1.000000000000000 -0.000000000000002 
2  57 -1 54 1 55 -1 12 -1 11 -1 10 -1 9 -1 8 -1 7 -1 6 -1 20 1 19 -1 18 -1 0
1
1.000000000000000 0.000000000000000 0.000000000000000 -0.000000000000000 
0.000000000000000 1.000000000000000 0.000000000000000 -5.000000000000000 
0.000000000000000 0.000000000000000 1.000000000000000 0.000000000000001 
1
1.000000000000000 0.000000000000000 0.000000000000000 0.000000000000000 
0.000000000000000 1.000000000000000 0.000000000000000 0.000000000000000 
0.000000000000000 0.000000000000000 1.000000000000000 0.000000000000000 
1
1.000000000000000 0.000000000000000 0.000000000000000 0.000000000000000 
0.000000000000000 1.000000000000000 0.000000000000000 0.000000000000000 
0.000000000000000 0.000000000000000 1.000000000000000 0.000000000000000 
2  59 -1 60 1 61 -1 12 -1 11 -1 10 -1 9 -1 8 -1 7 -1 6 -1 20 1 19 -1 18 -1 0
1
1.000000000000000 0.000000000000000 0.000000000000000 0.000000000000000 
0.000000000000000 1.000000000000000 0.000000000000000 10.000000000000000 
0.000000000000000 0.000000000000000 1.000000000000000 -0.000000000000002 
2  63 -1 59 -1 60 1 61 -1 12 -1 11 -1 10 -1 9 -1 8 -1 7 -1 6 -1 20 1 19 -1 18 -1 0
1
1.000000000000000 0.000000000000000 0.000000000000000 -0.000000000000000 
0.000000000000000 1.000000000000000 0.000000000000000 -50.000000000000000 
0.000000000000000 0.000000000000000 1.000000000000000 0.000000000000011 
1
1.000000000000000 0.000000000000000 0.000000000000000 0.000000000000000 
0.000000000000000 1.000000000000000 0.000000000000000 0.000000000000000 
0.000000000000000 0.000000000000000 1.000000000000000 0.000000000000000 
1
1.000000000000000 0.000000000000000 0.000000000000000 0.000000000000000 
0.000000000000000 1.000000000000000 0.000000000000000 0.000000000000000 
0.000000000000000 0.000000000000000 1.000000000000000 0.000000000000000 
2  65 -1 66 1 67 -1 12 -1 11 -1 10 -1 9 -1 8 -1 7 -1 6 -1 20 1 19 -1 18 -1 0
1
1.000000000000000 0.000000000000000 0.000000000000000 0.000000000000000 
0.000000000000000 1.000000000000000 0.000000000000000 100.000000000000000 
0.000000000000000 0.000000000000000 1.000000000000000 -0.000000000000022 
2  69 -1 65 -1 66 1 67 -1 12 -1 11 -1 10 -1 9 -1 8 -1 7 -1 6 -1 20 1 19 -1 18 -1 0
1
1.000000000000000 0.000000000000000 0.000000000000000 -0.000000000000000 
0.000000000000000 1.000000000000000 0.000000000000000 -50.000000000000000 
0.000000000000000 0.000000000000000 1.000000000000000 0.000000000000011 
1
1.000000000000000 0.000000000000000 0.000000000000000 0.000000000000000 
0.000000000000000 1.000000000000000 0.000000000000000 0.000000000000000 
0.000000000000000 0.000000000000000 1.000000000000000 0.000000000000000 
1
1.000000000000000 0.000000000000000 0.000000000000000 0.000000000000000 
0.000000000000000 1.000000000000000 0.000000000000000 0.000000000000000 
0.000000000000000 0.000000000000000 1.000000000000000 0.000000000000000 
2  71 -1 72 1 73 -1 12 -1 11 -1 10 -1 9 -1 8 -1 7 -1 6 -1 20 1 19 -1 18 -1 0
1
1.000000000000000 0.000000000000000 0.000000000000000 0.000000000000000 
0.000000000000000 1.000000000000000 0.000000000000000 100.000000000000000 
0.000000000000000 0.000000000000000 1.000000000000000 -0.000000000000022 
2  75 -1 71 -1 72 1 73 -1 12 -1 11 -1 10 -1 9 -1 8 -1 7 -1 6 -1 20 1 19 -1 18 -1 0
1
1.000000000000000 0.000000000000000 0.000000000000000 -0.000000000000000 
0.000000000000000 1.000000000000000 0.000000000000000 -50.000000000000000 
0.000000000000000 0.000000000000000 1.000000000000000 0.000000000000011 
1
1.000000000000000 0.000000000000000 0.000000000000000 0.000000000000000 
0.000000000000000 1.000000000000000 0.000000000000000 0.000000000000000 
0.000000000000000 0.000000000000000 1.000000000000000 0.000000000000000 
1
1.000000000000000 0.000000000000000 0.000000000000000 0.000000000000000 
0.000000000000000 1.000000000000000 0.000000000000000 0.000000000000000 
0.000000000000000 0.000000000000000 1.000000000000000 0.000000000000000 
2  77 -1 78 1 79 -1 12 -1 11 -1 10 -1 9 -1 8 -1 7 -1 6 -1 20 1 19 -1 18 -1 0
1
1.000000000000000 0.000000000000000 0.000000000000000 0.000000000000000 
0.000000000000000 1.000000000000000 0.000000000000000 100.000000000000000 
0.000000000000000 0.000000000000000 1.000000000000000 -0.000000000000022 
2  81 -1 77 -1 78 1 79 -1 12 -1 11 -1 10 -1 9 -1 8 -1 7 -1 6 -1 20 1 19 -1 18 -1 0
1
1.000000000000000 0.000000000000000 0.000000000000000 -0.000000000000000 
0.000000000000000 1.000000000000000 0.000000000000000 -50.000000000000000 
0.000000000000000 0.000000000000000 1.000000000000000 0.000000000000011 
1
1.000000000000000 0.000000000000000 0.000000000000000 0.000000000000000 
0.000000000000000 1.000000000000000 0.000000000000000 0.000000000000000 
0.000000000000000 0.000000000000000 1.000000000000000 0.000000000000000 
1
1.000000000000000 0.000000000000000 0.000000000000000 0.000000000000000 
0.000000000000000 1.000000000000000 0.000000000000000 0.000000000000000 
0.000000000000000 0.000000000000000 1.000000000000000 0.000000000000000 
2  83 -1 84 1 85 -1 12 -1 11 -1 10 -1 9 -1 8 -1 7 -1 6 -1 20 1 19 -1 18 -1 0
1
1.000000000000000 0.000000000000000 0.000000000000000 0.000000000000000 
0.000000000000000 1.000000000000000 0.000000000000000 100.000000000000000 
0.000000000000000 0.000000000000000 1.000000000000000 -0.000000000000022 
2  87 -1 83 -1 84 1 85 -1 12 -1 11 -1 10 -1 9 -1 8 -1 7 -1 6 -1 20 1 19 -1 18 -1 0
2  15 -1 14 1 13 -1 12 -1 11 -1 10 -1 9 -1 8 -1 7 -1 6 -1 20 1 19 -1 18 -1 0
2  16 -1 15 -1 14 1 13 -1 12 -1 11 -1 10 -1 9 -1 8 -1 7 -1 6 -1 20 1 19 -1 18 -1 0
1
1.000000000000000 0.000000000000000 0.000000000000000 0.000000000000000 
0.000000000000000 1.000000000000000 0.000000000000000 0.000000000000000 
0.000000000000000 0.000000000000000 1.000000000000000 0.000000000000000 
1
1.000000000000000 0.000000000000000 0.000000000000000 0.000000000000000 
0.000000000000000 1.000000000000000 0.000000000000000 0.000000000000000 
0.000000000000000 0.000000000000000 1.000000000000000 0.000000000000000 
2  91 1 92 -1 2 -1 15 -1 14 1 13 -1 12 -1 11 -1 10 -1 9 -1 8 -1 7 -1 6 -1 20 1 19 -1 18 -1 0
1
1.000000000000000 0.000000000000000 0.000000000000000 0.000000000000000 
0.000000000000000 1.000000000000000 0.000000000000000 -10.000000000000000 
0.000000000000000 0.000000000000000 1.000000000000000 0.000000000000002 
2  94 -1 91 1 92 -1 2 -1 15 -1 14 1 13 -1 12 -1 11 -1 10 -1 9 -1 8 -1 7 -1 6 -1 20 1 19 -1 18 -1 0
2  19 -1 18 -1 0
1
1.000000000000000 0.000000000000000 0.000000000000000 0.000000000000000 
0.000000000000000 1.000000000000000 0.000000000000000 0.000000000000000 
0.000000000000000 0.000000000000000 1.000000000000000 0.000000000000000 
1
1.000000000000000 0.000000000000000 0.000000000000000 0.000000000000000 
0.000000000000000 1.000000000000000 0.000000000000000 0.000000000000000 
0.000000000000000 0.000000000000000 1.000000000000000 0.000000000000000 
2  97 1 98 -1 2 -1 15 -1 14 1 13 -1 12 -1 11 -1 10 -1 9 -1 8 -1 7 -1 6 -1 20 1 19 -1 18 -1 0
1
1.000000000000000 0.000000000000000 0.000000000000000 0.000000000000000 
0.000000000000000 1.000000000000000 0.000000000000000 -30.000000000000000 
0.000000000000000 0.000000000000000 1.000000000000000 0.000000000000007 
2  100 -1 97 1 98 -1 2 -1 15 -1 14 1 13 -1 12 -1 11 -1 10 -1 9 -1 8 -1 7 -1 6 -1 20 1 19 -1 18 -1 0
1
1.000000000000000 0.000000000000000 0.000000000000000 0.000000000000000 
0.000000000000000 1.000000000000000 0.000000000000000 0.000000000000000 
0.000000000000000 0.000000000000000 1.000000000000000 0.000000000000000 
1
1.000000000000000 0.000000000000000 0.000000000000000 0.000000000000000 
0.000000000000000 1.000000000000000 0.000000000000000 0.000000000000000 
0.000000000000000 0.000000000000000 1.000000000000000 0.000000000000000 
2  102 1 103 -1 2 -1 15 -1 14 1 13 -1 12 -1 11 -1 10 -1 9 -1 8 -1 7 -1 6 -1 20 1 19 -1 18 -1 0
1
1.000000000000000 0.000000000000000 0.000000000000000 0.000000000000000 
0.000000000000000 1.000000000000000 0.000000000000000 -30.000000000000000 
0.000000000000000 0.000000000000000 1.000000000000000 0.000000000000007 
2  105 -1 102 1 103 -1 2 -1 15 -1 14 1 13 -1 12 -1 11 -1 10 -1 9 -1 8 -1 7 -1 6 -1 20 1 19 -1 18 -1 0
1
1.000000000000000 0.000000000000000 0.000000000000000 0.000000000000000 
0.000000000000000 1.000000000000000 0.000000000000000 0.000000000000000 
0.000000000000000 0.000000000000000 1.000000000000000 0.000000000000000 
1
1.000000000000000 0.000000000000000 0.000000000000000 0.000000000000000 
0.000000000000000 1.000000000000000 0.000000000000000 0.000000000000000 
0.000000000000000 0.000000000000000 1.000000000000000 0.000000000000000 
2  107 1 108 -1 2 -1 15 -1 14 1 13 -1 12 -1 11 -1 10 -1 9 -1 8 -1 7 -1 6 -1 20 1 19 -1 18 -1 0
1
1.000000000000000 0.000000000000000 0.000000000000000 0.000000000000000 
0.000000000000000 1.000000000000000 0.000000000000000 -29.000000000000000 
0.000000000000000 0.000000000000000 1.000000000000000 0.000000000000006 
2  110 -1 107 1 108 -1 2 -1 15 -1 14 1 13 -1 12 -1 11 -1 10 -1 9 -1 8 -1 7 -1 6 -1 20 1 19 -1 18 -1 0
1
1.000000000000000 0.000000000000000 0.000000000000000 0.000000000000000 
0.000000000000000 1.000000000000000 0.000000000000000 0.000000000000000 
0.000000000000000 0.000000000000000 1.000000000000000 0.000000000000000 
1
1.000000000000000 0.000000000000000 0.000000000000000 0.000000000000000 
0.000000000000000 1.000000000000000 0.000000000000000 0.000000000000000 
0.000000000000000 0.000000000000000 1.000000000000000 0.000000000000000 
2  112 1 113 -1 2 -1 15 -1 14 1 13 -1 12 -1 11 -1 10 -1 9 -1 8 -1 7 -1 6 -1 20 1 19 -1 18 -1 0
1
1.000000000000000 0.000000000000000 0.000000000000000 0.000000000000000 
0.000000000000000 1.000000000000000 0.000000000000000 -28.000000000000000 
0.000000000000000 0.000000000000000 1.000000000000000 0.000000000000006 
2  115 -1 112 1 113 -1 2 -1 15 -1 14 1 13 -1 12 -1 11 -1 10 -1 9 -1 8 -1 7 -1 6 -1 20 1 19 -1 18 -1 0
1
1.000000000000000 0.000000000000000 0.000000000000000 0.000000000000000 
0.000000000000000 1.000000000000000 0.000000000000000 0.000000000000000 
0.000000000000000 0.000000000000000 1.000000000000000 0.000000000000000 
1
1.000000000000000 0.000000000000000 0.000000000000000 0.000000000000000 
0.000000000000000 1.000000000000000 0.000000000000000 0.000000000000000 
0.000000000000000 0.000000000000000 1.000000000000000 0.000000000000000 
2  117 1 118 -1 2 -1 15 -1 14 1 13 -1 12 -1 11 -1 10 -1 9 -1 8 -1 7 -1 6 -1 20 1 19 -1 18 -1 0
1
1.000000000000000 0.000000000000000 0.000000000000000 0.000000000000000 
0.000000000000000 1.000000000000000 0.000000000000000 -27.000000000000000 
0.000000000000000 0.000000000000000 1.000000000000000 0.000000000000006 
2  120 -1 117 1 118 -1 2 -1 15 -1 14 1 13 -1 12 -1 11 -1 10 -1 9 -1 8 -1 7 -1 6 -1 20 1 19 -1 18 -1 0
1
1.000000000000000 0.000000000000000 0.000000000000000 0.000000000000000 
0.000000000000000 1.000000000000000 0.000000000000000 0.000000000000000 
0.000000000000000 0.000000000000000 1.000000000000000 0.000000000000000 
1
1.000000000000000 0.000000000000000 0.000000000000000 0.000000000000000 
0.000000000000000 1.000000000000000 0.000000000000000 0.000000000000000 
0.000000000000000 0.000000000000000 1.000000000000000 0.000000000000000 
2  122 1 123 -1 2 -1 15 -1 14 1 13 -1 12 -1 11 -1 10 -1 9 -1 8 -1 7 -1 6 -1 20 1 19 -1 18 -1 0
1
1.000000000000000 0.000000000000000 0.000000000000000 0.000000000000000 
0.000000000000000 1.000000000000000 0.000000000000000 -26.000000000000000 
0.000000000000000 0.000000000000000 1.000000000000000 0.000000000000006 
2  125 -1 122 1 123 -1 2 -1 15 -1 14 1 13 -1 12 -1 11 -1 10 -1 9 -1 8 -1 7 -1 6 -1 20 1 19 -1 18 -1 0
1
1.000000000000000 0.000000000000000 0.000000000000000 0.000000000000000 
0.000000000000000 1.000000000000000 0.000000000000000 0.000000000000000 
0.000000000000000 0.000000000000000 1.000000000000000 0.000000000000000 
1
1.000000000000000 0.000000000000000 0.000000000000000 0.000000000000000 
0.000000000000000 1.000000000000000 0.000000000000000 0.000000000000000 
0.000000000000000 0.000000000000000 1.000000000000000 0.000000000000000 
2  127 1 128 -1 2 -1 15 -1 14 1 13 -1 12 -1 11 -1 10 -1 9 -1 8 -1 7 -1 6 -1 20 1 19 -1 18 -1 0
1
1.000000000000000 0.000000000000000 0.000000000000000 0.000000000000000 
0.000000000000000 1.000000000000000 0.000000000000000 -25.000000000000000 
0.000000000000000 0.000000000000000 1.000000000000000 0.000000000000006 
2  130 -1 127 1 128 -1 2 -1 15 -1 14 1 13 -1 12 -1 11 -1 10 -1 9 -1 8 -1 7 -1 6 -1 20 1 19 -1 18 -1 0
1
1.000000000000000 0.000000000000000 0.000000000000000 0.000000000000000 
0.000000000000000 1.000000000000000 0.000000000000000 0.000000000000000 
0.000000000000000 0.000000000000000 1.000000000000000 0.000000000000000 
2  3 1 132 -1 2 -1 15 -1 14 1 13 -1 12 -1 11 -1 10 -1 9 -1 8 -1 7 -1 6 -1 20 1 19 -1 18 -1 0
1
1.000000000000000 0.000000000000000 0.000000000000000 0.000000000000000 
0.000000000000000 1.000000000000000 0.000000000000000 -25.000000000000000 
0.000000000000000 0.000000000000000 1.000000000000000 0.000000000000006 
2  134 -1 3 1 132 -1 2 -1 15 -1 14 1 13 -1 12 -1 11 -1 10 -1 9 -1 8 -1 7 -1 6 -1 20 1 19 -1 18 -1 0
2  3 1 2 -1 15 -1 14 1 13 -1 12 -1 11 -1 10 -1 9 -1 8 -1 7 -1 6 -1 20 1 19 -1 18 -1 0
2  18 1 19 1 20 -1 6 1 7 1 8 1 9 1 10 1 11 1 12 1 13 1 14 -1 15 1 16 1 2 1 3 -1 0
2  20 1 19 -1 18 -1 0
2  6 1 7 1 8 1 9 1 10 1 11 1 12 1 13 1 14 -1 15 1 2 1 132 1 3 -1 134 1 0
2  18 1 19 1 20 -1 6 1 7 1 8 1 9 1 10 1 11 1 12 1 13 1 14 -1 15 1 2 1 132 1 3 -1 134 1 0
2  20 -1 6 1 7 1 8 1 9 1 10 1 11 1 12 1 13 1 14 -1 15 1 16 1 2 1 3 -1 0
2  18 1 19 1 0
2  20 -1 6 1 7 1 8 1 9 1 10 1 11 1 12 1 13 1 14 -1 15 1 2 1 132 1 3 -1 134 1 0
Curve2ds 48
1 0.00000000000000000 0.00000000000000000 0.00000000000000000 -1.00000000000000000 
1 6.28318530717958623 0.00000000000000000 0.00000000000000000 -1.00000000000000000 
1 0.00000000000000000 0.00000000000000000 1.00000000000000000 0.00000000000000000 
1 0.00000000000000000 -10.00000000000000000 1.00000000000000000 0.00000000000000000 
1 0.00000000000000000 0.00000000000000000 1.00000000000000000 0.00000000000000000 
1 0.00000000000000000 -10.00000000000000000 1.00000000000000000 0.00000000000000000 
1 0.00000000000000000 0.00000000000000000 1.00000000000000000 0.00000000000000000 
1 0.00000000000000000 -9.00000000000000000 1.00000000000000000 0.00000000000000000 
1 0.00000000000000000 0.00000000000000000 1.00000000000000000 0.00000000000000000 
1 0.00000000000000000 -200.00000000000000000 1.00000000000000000 0.00000000000000000 
1 0.00000000000000000 0.00000000000000000 1.00000000000000000 0.00000000000000000 
1 0.00000000000000000 -200.00000000000000000 1.00000000000000000 0.00000000000000000 
1 0.00000000000000000 0.00000000000000000 1.00000000000000000 0.00000000000000000 
1 0.00000000000000000 -10.00000000000000000 1.00000000000000000 0.00000000000000000 
1 0.00000000000000000 0.00000000000000000 1.00000000000000000 0.00000000000000000 
1 0.00000000000000000 -10.00000000000000000 1.00000000000000000 0.00000000000000000 
1 0.00000000000000000 0.00000000000000000 1.00000000000000000 0.00000000000000000 
1 0.00000000000000000 -100.00000000000000000 1.00000000000000000 0.00000000000000000 
1 0.00000000000000000 0.00000000000000000 1.00000000000000000 0.00000000000000000 
1 0.00000000000000000 -100.00000000000000000 1.00000000000000000 0.00000000000000000 
1 0.00000000000000000 0.00000000000000000 1.00000000000000000 0.00000000000000000 
1 0.00000000000000000 -100.00000000000000000 1.00000000000000000 0.00000000000000000 
1 0.00000000000000000 0.00000000000000000 1.00000000000000000 0.00000000000000000 
1 0.00000000000000000 -100.00000000000000000 1.00000000000000000 0.00000000000000000 
1 0.00000000000000000 0.00000000000000000 1.00000000000000000 0.00000000000000000 
1 0.00000000000000000 -110.00000000000000000 1.00000000000000000 0.00000000000000000 
1 0.00000000000000000 0.00000000000000000 1.00000000000000000 0.00000000000000000 
1 0.00000000000000000 -10.00000000000000000 1.00000000000000000 0.00000000000000000 
2 0.00000000000000018 0.00000000000000009 0.00000000000000000 1.00000000000000000 -1.00000000000000000 0.00000000000000000 3.96875000000000000
1 0.00000000000000000 0.00000000000000000 1.00000000000000000 0.00000000000000000 
1 0.00000000000000000 -30.00000000000000000 1.00000000000000000 0.00000000000000000 
1 0.00000000000000000 0.00000000000000000 1.00000000000000000 0.00000000000000000 
1 0.00000000000000000 -30.00000000000000000 1.00000000000000000 0.00000000000000000 
1 0.00000000000000000 0.00000000000000000 1.00000000000000000 0.00000000000000000 
1 0.00000000000000000 -29.00000000000000000 1.00000000000000000 0.00000000000000000 
1 0.00000000000000000 0.00000000000000000 1.00000000000000000 0.00000000000000000 
1 0.00000000000000000 -28.00000000000000000 1.00000000000000000 0.00000000000000000 
1 0.00000000000000000 0.00000000000000000 1.00000000000000000 0.00000000000000000 
1 0.00000000000000000 -27.00000000000000000 1.00000000000000000 0.00000000000000000 
1 0.00000000000000000 0.00000000000000000 1.00000000000000000 0.00000000000000000 
1 0.00000000000000000 -26.00000000000000000 1.00000000000000000 0.00000000000000000 
1 0.00000000000000000 0.00000000000000000 1.00000000000000000 0.00000000000000000 
1 0.00000000000000000 -25.00000000000000000 1.00000000000000000 0.00000000000000000 
1 0.00000000000000000 0.00000000000000000 1.00000000000000000 0.00000000000000000 
1 0.00000000000000000 -25.00000000000000000 1.00000000000000000 0.00000000000000000 
8 0.00000000000000000 6.28318530717958623
1 0.00000000000000000 0.00000000000000000 1.00000000000000000 0.00000000000000000 
1 0.00000000000000000 0.00000000000000000 0.00000000000000000 -1.00000000000000000 
1 6.28318530717958623 0.00000000000000000 0.00000000000000000 -1.00000000000000000 
Curves 3
1 3.96875000000000000 -55.00000000000000000 0.00000000000001210 0.00000000000000000 1.00000000000000000 -0.00000000000000022 
2 0.00000000000000000 0.00000000000000000 0.00000000000000000 0.00000000000000000 0.00000000000000000 1.00000000000000000 1.00000000000000000 0.00000000000000000 -0.00000000000000000 -0.00000000000000000 1.00000000000000000 0.00000000000000000 3.96875000000000000
1 3.96875000000000000 -55.00000000000000000 0.00000000000001200 0.00000000000000000 -1.00000000000000000 0.00000000000000022 
Polygon3D 0
PolygonOnTriangulations 0
Surfaces 22
2 0.00000000000000000 -55.00000000000000000 0.00000000000001210 0.00000000000000000 -1.00000000000000000 0.00000000000000000 1.00000000000000000 0.00000000000000000 0.00000000000000000 -0.00000000000000000 0.00000000000000000 1.00000000000000000 3.96875000000000000
2 0.00000000000000000 0.00000000000000000 0.00000000000000000 0.00000000000000000 -1.00000000000000000 0.00000000000000000 1.00000000000000000 0.00000000000000000 0.00000000000000000 -0.00000000000000000 0.00000000000000000 1.00000000000000000 3.96875000000000000
2 0.00000000000000000 -5.00000000000000000 0.00000000000000110 0.00000000000000000 -1.00000000000000000 0.00000000000000000 1.00000000000000000 0.00000000000000000 0.00000000000000000 -0.00000000000000000 0.00000000000000000 1.00000000000000000 3.96875000000000000
2 0.00000000000000000 -4.50000000000000000 0.00000000000000099 0.00000000000000000 -1.00000000000000000 0.00000000000000000 1.00000000000000000 0.00000000000000000 0.00000000000000000 -0.00000000000000000 0.00000000000000000 1.00000000000000000 3.96875000000000000
2 0.00000000000000000 -100.00000000000000000 0.00000000000002200 0.00000000000000000 -1.00000000000000000 0.00000000000000000 1.00000000000000000 0.00000000000000000 0.00000000000000000 -0.00000000000000000 0.00000000000000000 1.00000000000000000 3.96875000000000000
2 0.00000000000000000 -100.00000000000000000 0.00000000000002200 0.00000000000000000 -1.00000000000000000 0.00000000000000000 1.00000000000000000 0.00000000000000000 0.00000000000000000 -0.00000000000000000 0.00000000000000000 1.00000000000000000 3.96875000000000000
2 0.00000000000000000 0.00000000000000000 0.00000000000000000 0.00000000000000000 -1.00000000000000000 0.00000000000000000 1.00000000000000000 0.00000000000000000 0.00000000000000000 -0.00000000000000000 0.00000000000000000 1.00000000000000000 3.96875000000000000
2 0.00000000000000000 -5.00000000000000000 0.00000000000000110 0.00000000000000000 -1.00000000000000000 0.00000000000000000 1.00000000000000000 0.00000000000000000 0.00000000000000000 -0.00000000000000000 0.00000000000000000 1.00000000000000000 3.96875000000000000
2 0.00000000000000000 -50.00000000000000000 0.00000000000001100 0.00000000000000000 -1.00000000000000000 0.00000000000000000 1.00000000000000000 0.00000000000000000 0.00000000000000000 -0.00000000000000000 0.00000000000000000 1.00000000000000000 3.96875000000000000
2 0.00000000000000000 -50.00000000000000000 0.00000000000001100 0.00000000000000000 -1.00000000000000000 0.00000000000000000 1.00000000000000000 0.00000000000000000 0.00000000000000000 -0.00000000000000000 0.00000000000000000 1.00000000000000000 3.96875000000000000
2 0.00000000000000000 -50.00000000000000000 0.00000000000001100 0.00000000000000000 -1.00000000000000000 0.00000000000000000 1.00000000000000000 0.00000000000000000 0.00000000000000000 -0.00000000000000000 0.00000000000000000 1.00000000000000000 3.96875000000000000
2 0.00000000000000000 -50.00000000000000000 0.00000000000001100 0.00000000000000000 -1.00000000000000000 0.00000000000000000 1.00000000000000000 0.00000000000000000 0.00000000000000000 -0.00000000000000000 0.00000000000000000 1.00000000000000000 3.96875000000000000
2 0.00000000000000000 -55.00000000000000000 0.00000000000001200 -0.00000000000000000 1.00000000000000000 -0.00000000000000000 1.00000000000000000 0.00000000000000000 0.00000000000000000 -0.00000000000000000 -0.00000000000000000 1.00000000000000000 3.96875000000000000
1 -0.00000000000000009 0.00000000000000000 0.00000000000000018 0.00000000000000000 -1.00000000000000000 0.00000000000000022 0.00000000000000000 -0.00000000000000022 -1.00000000000000000 1.00000000000000000 0.00000000000000000 0.00000000000000000 
2 0.00000000000000000 -55.00000000000000000 0.00000000000001200 -0.00000000000000000 1.00000000000000000 -0.00000000000000000 1.00000000000000000 0.00000000000000000 0.00000000000000000 -0.00000000000000000 -0.00000000000000000 1.00000000000000000 3.96875000000000000
2 0.00000000000000000 -55.00000000000000000 0.00000000000001200 -0.00000000000000000 1.00000000000000000 -0.00000000000000000 1.00000000000000000 0.00000000000000000 0.00000000000000000 -0.00000000000000000 -0.00000000000000000 1.00000000000000000 3.96875000000000000
2 0.00000000000000000 -55.00000000000000000 0.00000000000001200 -0.00000000000000000 1.00000000000000000 -0.00000000000000000 1.00000000000000000 0.00000000000000000 0.00000000000000000 -0.00000000000000000 -0.00000000000000000 1.00000000000000000 3.96875000000000000
2 0.00000000000000000 -55.00000000000000000 0.00000000000001200 -0.00000000000000000 1.00000000000000000 -0.00000000000000000 1.00000000000000000 0.00000000000000000 0.00000000000000000 -0.00000000000000000 -0.00000000000000000 1.00000000000000000 3.96875000000000000
2 0.00000000000000000 -55.00000000000000000 0.00000000000001200 -0.00000000000000000 1.00000000000000000 -0.00000000000000000 1.00000000000000000 0.00000000000000000 0.00000000000000000 -0.00000000000000000 -0.00000000000000000 1.00000000000000000 3.96875000000000000
2 0.00000000000000000 -55.00000000000000000 0.00000000000001200 -0.00000000000000000 1.00000000000000000 -0.00000000000000000 1.00000000000000000 0.00000000000000000 0.00000000000000000 -0.00000000000000000 -0.00000000000000000 1.00000000000000000 3.96875000000000000
2 0.00000000000000000 -55.00000000000000000 0.00000000000001200 -0.00000000000000000 1.00000000000000000 -0.00000000000000000 1.00000000000000000 0.00000000000000000 0.00000000000000000 -0.00000000000000000 -0.00000000000000000 1.00000000000000000 3.96875000000000000
2 0.00000000000000000 -55.00000000000000000 0.00000000000001200 -0.00000000000000000 1.00000000000000000 -0.00000000000000000 1.00000000000000000 0.00000000000000000 0.00000000000000000 -0.00000000000000000 -0.00000000000000000 1.00000000000000000 3.96875000000000000
Triangulations 0

TShapes 14
Ve
0.000000100000004
3.968750000000000 -55.000000000000000 0.000000000000012
0 0

0101101
*
Ve
0.000000100000000
3.968750000000000 0.000000000000000 0.000000000000000
0 0

0101101
*
Ed
 0.000000100000000 1 1 0
1  1 0 0.000000000000000 110.000000000000000
3  1 2CN 1 0 0.000000000000000 110.000000000000000
0

0101000
+14 5 -13 17 *
Ed
 0.000000100000004 1 1 0
1  2 0 0.000000000000000 6.283185307179586
2  3 2 27 0.000000000000000 6.283185307179586
2  4 2 29 0.000000000000000 6.283185307179586
2  5 3 33 0.000000000000000 6.283185307179586
2  6 3 35 0.000000000000000 6.283185307179586
2  7 4 39 0.000000000000000 6.283185307179586
2  8 4 41 0.000000000000000 6.283185307179586
2  9 5 45 0.000000000000000 6.283185307179586
2  10 5 47 0.000000000000000 6.283185307179586
2  11 6 51 0.000000000000000 6.283185307179586
2  12 6 53 0.000000000000000 6.283185307179586
2  13 7 56 0.000000000000000 6.283185307179586
2  14 7 58 0.000000000000000 6.283185307179586
2  15 8 62 0.000000000000000 6.283185307179586
2  16 8 64 0.000000000000000 6.283185307179586
2  17 9 68 0.000000000000000 6.283185307179586
2  18 9 70 0.000000000000000 6.283185307179586
2  19 10 74 0.000000000000000 6.283185307179586
2  20 10 76 0.000000000000000 6.283185307179586
2  21 11 80 0.000000000000000 6.283185307179586
2  22 11 82 0.000000000000000 6.283185307179586
2  23 12 86 0.000000000000000 6.283185307179586
2  24 12 88 0.000000000000000 6.283185307179586
2  25 1 89 0.000000000000000 6.283185307179586
2  26 1 90 0.000000000000000 6.283185307179586
2  27 13 93 0.000000000000000 6.283185307179586
2  28 13 95 0.000000000000000 6.283185307179586
2  29 14 96 0.000000000000000 6.283185307179586
2  30 15 99 0.000000000000000 6.283185307179586
2  31 15 101 0.000000000000000 6.283185307179586
2  32 16 104 0.000000000000000 6.283185307179586
2  33 16 106 0.000000000000000 6.283185307179586
2  34 17 109 0.000000000000000 6.283185307179586
2  35 17 111 0.000000000000000 6.283185307179586
2  36 18 114 0.000000000000000 6.283185307179586
2  37 18 116 0.000000000000000 6.283185307179586
2  38 19 119 0.000000000000000 6.283185307179586
2  39 19 121 0.000000000000000 6.283185307179586
2  40 20 124 0.000000000000000 6.283185307179586
2  41 20 126 0.000000000000000 6.283185307179586
2  42 21 129 0.000000000000000 6.283185307179586
2  43 21 131 0.000000000000000 6.283185307179586
2  44 22 133 0.000000000000000 6.283185307179586
2  45 22 135 0.000000000000000 6.283185307179586
2  46 22 136 0.000000000000000 6.283185307179586
0

0101000
+14 136 -14 136 *
Ed
 0.000000100000000 1 1 0
1  2 0 0.000000000000000 6.283185307179586
2  3 2 27 0.000000000000000 6.283185307179586
2  4 2 29 0.000000000000000 6.283185307179586
2  5 3 33 0.000000000000000 6.283185307179586
2  6 3 35 0.000000000000000 6.283185307179586
2  7 4 39 0.000000000000000 6.283185307179586
2  8 4 41 0.000000000000000 6.283185307179586
2  9 5 45 0.000000000000000 6.283185307179586
2  10 5 47 0.000000000000000 6.283185307179586
2  11 6 51 0.000000000000000 6.283185307179586
2  12 6 53 0.000000000000000 6.283185307179586
2  13 7 56 0.000000000000000 6.283185307179586
2  14 7 58 0.000000000000000 6.283185307179586
2  15 8 62 0.000000000000000 6.283185307179586
2  16 8 64 0.000000000000000 6.283185307179586
2  17 9 68 0.000000000000000 6.283185307179586
2  18 9 70 0.000000000000000 6.283185307179586
2  19 10 74 0.000000000000000 6.283185307179586
2  20 10 76 0.000000000000000 6.283185307179586
2  21 11 80 0.000000000000000 6.283185307179586
2  22 11 82 0.000000000000000 6.283185307179586
2  23 12 86 0.000000000000000 6.283185307179586
2  24 12 88 0.000000000000000 6.283185307179586
2  25 1 89 0.000000000000000 6.283185307179586
2  26 1 90 0.000000000000000 6.283185307179586
2  27 13 93 0.000000000000000 6.283185307179586
2  28 13 95 0.000000000000000 6.283185307179586
2  29 14 96 0.000000000000000 6.283185307179586
2  30 15 99 0.000000000000000 6.283185307179586
2  31 15 101 0.000000000000000 6.283185307179586
2  32 16 104 0.000000000000000 6.283185307179586
2  33 16 106 0.000000000000000 6.283185307179586
2  34 17 109 0.000000000000000 6.283185307179586
2  35 17 111 0.000000000000000 6.283185307179586
2  36 18 114 0.000000000000000 6.283185307179586
2  37 18 116 0.000000000000000 6.283185307179586
2  38 19 119 0.000000000000000 6.283185307179586
2  39 19 121 0.000000000000000 6.283185307179586
2  40 20 124 0.000000000000000 6.283185307179586
2  41 20 126 0.000000000000000 6.283185307179586
2  42 21 129 0.000000000000000 6.283185307179586
2  43 21 131 0.000000000000000 6.283185307179586
2  44 22 133 0.000000000000000 6.283185307179586
2  45 22 135 0.000000000000000 6.283185307179586
0

0101000
+13 138 -13 138 *
Wi

0101100
+12 4 -12 4 -11 21 +10 137 *
Fa
0  0.000000100000000 1 4

0101000
+9 0 *
Ed
 0.000000100000000 1 1 0
1  3 0 0.000000000000000 25.000000000000000
3  47 48CN 22 0 0.000000000000000 25.000000000000000
0

0101000
+14 0 -13 139 *
Wi

0101100
+7 0 -7 0 -11 21 +10 140 *
Fa
0  0.000000100000000 22 0

0101000
+6 0 *
Wi

0101100
+10 0 *
Fa
0  0.000000100000000 14 0

0101000
+4 142 *
Sh

0101100
+8 0 -5 0 -3 141 +3 143 *
So

0100000
+2 0 *

+1 1 