
CASCADE Topology V1, (c) Matra-Datavision
Locations 19
1
1.000000000000000 0.000000000000000 0.000000000000000 0.000000000000000 
0.000000000000000 1.000000000000000 0.000000000000000 0.000000000000000 
0.000000000000000 0.000000000000000 1.000000000000000 0.000000000000000 
1
1.000000000000000 0.000000000000000 0.000000000000000 0.000000000000000 
0.000000000000000 1.000000000000000 0.000000000000000 0.000000000000000 
0.000000000000000 0.000000000000000 1.000000000000000 0.000000000000000 
2  2 -1 0
1
1.000000000000000 0.000000000000000 0.000000000000000 0.000000000000000 
0.000000000000000 -0.000000000000000 -1.000000000000000 0.000000000000000 
0.000000000000000 1.000000000000000 -0.000000000000000 0.000000000000000 
1
1.000000000000000 0.000000000000000 0.000000000000000 0.000000000000000 
0.000000000000000 1.000000000000000 0.000000000000000 0.000000000000000 
0.000000000000000 0.000000000000000 1.000000000000000 0.000000000000000 
1
1.000000000000000 0.000000000000000 0.000000000000000 0.000000000000000 
0.000000000000000 0.000000000000000 -1.000000000000000 0.000000000000000 
0.000000000000000 1.000000000000000 0.000000000000000 0.000000000000000 
1
1.000000000000000 0.000000000000000 0.000000000000000 0.000000000000000 
0.000000000000000 1.000000000000000 0.000000000000000 0.000000000000000 
0.000000000000000 0.000000000000000 1.000000000000000 0.000000000000000 
1
1.000000000000000 0.000000000000000 0.000000000000000 0.000000000000000 
0.000000000000000 1.000000000000000 0.000000000000000 0.000000000000000 
0.000000000000000 0.000000000000000 1.000000000000000 0.000000000000000 
1
1.000000000000000 0.000000000000000 0.000000000000000 0.000000000000000 
0.000000000000000 1.000000000000000 0.000000000000000 0.000000000000000 
0.000000000000000 0.000000000000000 1.000000000000000 0.000000000000000 
1
1.000000000000000 0.000000000000000 0.000000000000000 0.000000000000000 
0.000000000000000 1.000000000000000 0.000000000000000 0.000000000000000 
0.000000000000000 0.000000000000000 1.000000000000000 0.000000000000000 
1
1.000000000000000 0.000000000000000 0.000000000000000 0.000000000000000 
0.000000000000000 1.000000000000000 0.000000000000000 0.000000000000000 
0.000000000000000 0.000000000000000 1.000000000000000 0.000000000000000 
1
1.000000000000000 0.000000000000000 0.000000000000000 0.000000000000000 
0.000000000000000 1.000000000000000 0.000000000000000 0.000000000000000 
0.000000000000000 0.000000000000000 1.000000000000000 0.000000000000000 
1
1.000000000000000 0.000000000000000 0.000000000000000 0.000000000000000 
0.000000000000000 1.000000000000000 0.000000000000000 0.000000000000000 
0.000000000000000 0.000000000000000 1.000000000000000 0.000000000000000 
1
1.000000000000000 0.000000000000000 0.000000000000000 -0.000000000000000 
0.000000000000000 1.000000000000000 0.000000000000000 -55.000000000000000 
0.000000000000000 0.000000000000000 1.000000000000000 0.000000000000012 
2  4 -1 5 1 6 1 7 1 8 1 9 1 10 1 11 1 12 1 13 -1 14 1 2 1 0
1
1.000000000000000 0.000000000000000 0.000000000000000 0.000000000000000 
0.000000000000000 1.000000000000000 0.000000000000000 110.000000000000000 
0.000000000000000 0.000000000000000 1.000000000000000 -0.000000000000024 
2  4 -1 5 1 6 1 7 1 8 1 9 1 10 1 11 1 12 1 13 -1 14 1 16 1 2 1 0
2  2 -1 14 -1 13 1 12 -1 11 -1 10 -1 9 -1 8 -1 7 -1 6 -1 5 -1 4 1 0
2  2 -1 16 -1 14 -1 13 1 12 -1 11 -1 10 -1 9 -1 8 -1 7 -1 6 -1 5 -1 4 1 0
Curve2ds 14
1 0.00000000000000000 0.00000000000000000 0.00000000000000000 -1.00000000000000000 
1 6.28318530717958623 0.00000000000000000 0.00000000000000000 -1.00000000000000000 
1 0.00000000000000000 0.00000000000000000 1.00000000000000000 0.00000000000000000 
1 0.00000000000000000 -1.00000000000000000 1.00000000000000000 0.00000000000000000 
1 0.00000000000000000 0.00000000000000000 1.00000000000000000 0.00000000000000000 
1 0.00000000000000000 -109.00000000000000000 1.00000000000000000 0.00000000000000000 
8 0.00000000000000000 1.41421356237309515
1 6.28318530717958623 0.00000000000000000 0.00000000000000000 1.00000000000000000 
8 0.00000000000000000 1.41421356237309515
1 0.00000000000000000 0.00000000000000000 0.00000000000000000 1.00000000000000000 
1 0.00000000000000000 1.41421356237309515 1.00000000000000000 0.00000000000000000 
2 0.00000000000000018 0.00000000000000009 0.00000000000000000 1.00000000000000000 -1.00000000000000000 0.00000000000000000 2.96875000000000000
8 0.00000000000000000 1.41421356237309515
1 6.28318530717958623 0.00000000000000000 0.00000000000000000 1.00000000000000000 
8 0.00000000000000000 1.41421356237309515
1 0.00000000000000000 0.00000000000000000 0.00000000000000000 1.00000000000000000 
1 0.00000000000000000 1.41421356237309515 1.00000000000000000 0.00000000000000000 
2 0.00000000000000018 0.00000000000000009 0.00000000000000000 1.00000000000000000 -1.00000000000000000 0.00000000000000000 2.96875000000000000
Curves 7
1 3.96875000000000000 -55.00000000000000000 0.00000000000001210 0.00000000000000000 1.00000000000000000 -0.00000000000000022 
2 0.00000000000000000 -54.00000000000000000 0.00000000000001188 0.00000000000000000 -1.00000000000000000 0.00000000000000022 1.00000000000000000 0.00000000000000000 0.00000000000000000 -0.00000000000000000 0.00000000000000022 1.00000000000000000 3.96875000000000000
2 0.00000000000000000 54.00000000000000000 -0.00000000000001188 0.00000000000000000 -1.00000000000000000 0.00000000000000022 1.00000000000000000 0.00000000000000000 0.00000000000000000 -0.00000000000000000 0.00000000000000022 1.00000000000000000 3.96875000000000000
1 3.96875000000000000 -54.00000000000000000 0.00000000000001188 -0.70710678118654746 -0.70710678118654757 0.00000000000000016 
2 0.00000000000000000 -55.00000000000000000 0.00000000000001210 0.00000000000000000 -1.00000000000000000 0.00000000000000022 1.00000000000000000 0.00000000000000000 0.00000000000000000 -0.00000000000000000 0.00000000000000022 1.00000000000000000 2.96875000000000000
1 3.96875000000000000 54.00000000000000000 -0.00000000000001188 -0.70710678118654757 0.70710678118654746 -0.00000000000000016 
2 0.00000000000000000 55.00000000000000000 -0.00000000000001210 0.00000000000000000 -1.00000000000000000 0.00000000000000022 1.00000000000000000 0.00000000000000000 0.00000000000000000 -0.00000000000000000 0.00000000000000022 1.00000000000000000 2.96875000000000000
Polygon3D 0
PolygonOnTriangulations 0
Surfaces 4
2 0.00000000000000000 -55.00000000000000000 0.00000000000001210 0.00000000000000000 -1.00000000000000000 0.00000000000000000 1.00000000000000000 0.00000000000000000 0.00000000000000000 0.00000000000000000 0.00000000000000000 1.00000000000000000 3.96875000000000000
3 0.00000000000000000 -54.00000000000000000 0.00000000000001188 0.00000000000000000 -1.00000000000000000 0.00000000000000022 1.00000000000000000 0.00000000000000000 0.00000000000000000 -0.00000000000000000 0.00000000000000022 1.00000000000000000 3.96875000000000000
-0.78539816339744828
3 0.00000000000000000 54.00000000000000000 -0.00000000000001188 -0.00000000000000000 1.00000000000000000 -0.00000000000000022 1.00000000000000000 0.00000000000000000 0.00000000000000000 -0.00000000000000000 0.00000000000000022 1.00000000000000000 3.96875000000000000
-0.78539816339744839
1 -0.00000000000000009 0.00000000000000000 0.00000000000000018 0.00000000000000000 -1.00000000000000000 0.00000000000000022 0.00000000000000000 -0.00000000000000022 -1.00000000000000000 1.00000000000000000 0.00000000000000000 0.00000000000000000 
Triangulations 0

TShapes 23
Ve
0.000000100000000
3.968750000000000 -54.000000000000000 0.000000000000012
0 0

0101101
*
Ve
0.000000100000000
3.968750000000000 54.000000000000000 -0.000000000000012
0 0

0101101
*
Ed
 0.000000100000000 1 1 0
1  1 0 1.000000000000000 109.000000000000000
3  1 2CN 1 0 1.000000000000000 109.000000000000000
0

0101000
+23 3 -22 3 *
Ed
 0.000000100000000 1 1 0
1  2 0 0.000000000000000 6.283185307179586
2  3 2 0 0.000000000000000 6.283185307179586
2  4 1 2 0.000000000000000 6.283185307179586
0

0101000
+23 0 -23 0 *
Ed
 0.000000100000000 1 1 0
1  3 0 0.000000000000000 6.283185307179586
2  5 3 0 0.000000000000000 6.283185307179586
2  6 1 2 0.000000000000000 6.283185307179586
0

0101000
+22 0 -22 0 *
Wi

0101100
+21 2 -20 0 +19 0 -21 2 *
Fa
0  0.000000100000000 1 0

0101000
+18 3 *
Ve
0.000000100000000
2.968750000000000 -55.000000000000000 0.000000000000012
0 0

0101101
*
Ed
 0.000000100000000 1 1 0
1  4 0 0.000000000000000 1.414213562373095
3  7 8CN 2 0 0.000000000000000 1.414213562373095
0

0101000
+23 0 -16 0 *
Ed
 0.000000100000000 1 1 0
1  5 0 0.000000000000000 6.283185307179586
2  9 2 0 0.000000000000000 6.283185307179586
2  10 4 15 0.000000000000000 6.283185307179586
0

0101000
+16 0 -16 0 *
Wi

0101100
-15 0 +20 0 -14 0 +15 0 *
Fa
0  0.000000000000000 2 0

0101000
+13 0 *
Ve
0.000000100000000
2.968750000000000 55.000000000000000 -0.000000000000012
0 0

0101101
*
Ed
 0.000000100000000 1 1 0
1  6 0 0.000000000000000 1.414213562373095
3  11 12CN 3 0 0.000000000000000 1.414213562373095
0

0101000
+22 0 -11 0 *
Ed
 0.000000100000000 1 1 0
1  7 0 0.000000000000000 6.283185307179586
2  13 3 0 0.000000000000000 6.283185307179586
2  14 4 17 0.000000000000000 6.283185307179586
0

0101000
+11 0 -11 0 *
Wi

0101100
-10 0 +19 0 -9 0 +10 0 *
Fa
0  0.000000000000000 3 0

0101000
+8 0 *
Wi

0101100
+14 0 *
Fa
0  0.000000100000000 4 0

0101000
+6 18 *
Wi

0101100
+9 0 *
Fa
0  0.000000100000000 4 0

0101000
+4 19 *
Sh

0101100
+17 2 +12 0 -7 0 +5 15 -3 17 *
So

0100000
+2 0 *

+1 1 