
CASCADE Topology V1, (c) Matra-Datavision
Locations 40
1
1.000000000000000 0.000000000000000 0.000000000000000 0.000000000000000 
0.000000000000000 1.000000000000000 0.000000000000000 0.000000000000000 
0.000000000000000 0.000000000000000 1.000000000000000 0.000000000000000 
1
1.000000000000000 0.000000000000000 0.000000000000000 0.000000000000000 
0.000000000000000 1.000000000000000 0.000000000000000 0.000000000000000 
0.000000000000000 0.000000000000000 1.000000000000000 0.000000000000000 
1
1.000000000000000 0.000000000000000 0.000000000000000 0.000000000000000 
0.000000000000000 1.000000000000000 0.000000000000000 0.000000000000000 
0.000000000000000 0.000000000000000 1.000000000000000 0.000000000000000 
1
1.000000000000000 0.000000000000000 0.000000000000000 0.000000000000000 
0.000000000000000 1.000000000000000 0.000000000000000 0.000000000000000 
0.000000000000000 0.000000000000000 1.000000000000000 0.000000000000000 
1
1.000000000000000 0.000000000000000 0.000000000000000 0.000000000000000 
0.000000000000000 1.000000000000000 0.000000000000000 0.000000000000000 
0.000000000000000 0.000000000000000 1.000000000000000 0.000000000000000 
2  2 1 3 -1 4 1 5 -1 0
1
1.000000000000000 0.000000000000000 0.000000000000000 0.000000000000000 
0.000000000000000 1.000000000000000 0.000000000000000 0.000000000000000 
0.000000000000000 0.000000000000000 1.000000000000000 0.000000000000000 
1
1.000000000000000 0.000000000000000 0.000000000000000 0.000000000000000 
0.000000000000000 1.000000000000000 0.000000000000000 0.000000000000000 
0.000000000000000 0.000000000000000 1.000000000000000 0.000000000000000 
1
1.000000000000000 0.000000000000000 0.000000000000000 0.000000000000000 
0.000000000000000 1.000000000000000 0.000000000000000 0.000000000000000 
0.000000000000000 0.000000000000000 1.000000000000000 0.000000000000000 
1
1.000000000000000 0.000000000000000 0.000000000000000 -0.000000000000000 
0.000000000000000 1.000000000000000 0.000000000000000 -0.000000000000000 
0.000000000000000 0.000000000000000 1.000000000000000 -61.000000000000007 
2  7 1 8 1 9 -1 10 1 0
1
1.000000000000000 0.000000000000000 0.000000000000000 0.000000000000000 
0.000000000000000 1.000000000000000 0.000000000000000 0.000000000000000 
0.000000000000000 0.000000000000000 1.000000000000000 122.000000000000014 
2  7 1 8 1 9 -1 10 1 12 1 0
2  7 1 8 1 9 -1 10 1 2 1 3 -1 4 1 5 -1 0
2  10 -1 9 1 8 -1 7 -1 0
2  12 -1 10 -1 9 1 8 -1 7 -1 0
2  7 1 8 1 9 -1 10 1 12 1 2 1 3 -1 4 1 5 -1 0
2  4 1 5 -1 0
2  2 1 3 -1 0
2  7 1 8 1 9 -1 10 1 2 1 3 -1 0
2  7 1 8 1 9 -1 10 1 12 1 2 1 3 -1 0
2  9 -1 10 1 2 1 3 -1 4 1 5 -1 0
2  7 1 8 1 0
2  9 -1 10 1 12 1 2 1 3 -1 4 1 5 -1 0
1
1.000000000000000 0.000000000000000 0.000000000000000 0.000000000000000 
0.000000000000000 1.000000000000000 0.000000000000000 0.000000000000000 
0.000000000000000 0.000000000000000 1.000000000000000 0.000000000000000 
1
0.000000000000000 0.000000000000000 1.000000000000000 100.999999999999972 
1.000000000000000 0.000000000000000 0.000000000000000 0.000000000000000 
0.000000000000000 1.000000000000000 0.000000000000000 0.000000000000000 
2  25 1 26 1 3 -1 0
2  3 1 26 -1 25 -1 0
1
1.000000000000000 0.000000000000000 0.000000000000000 -421.114773357572972 
0.000000000000000 1.000000000000000 0.000000000000000 -0.000000000000000 
0.000000000000000 0.000000000000000 1.000000000000000 -0.000000000000000 
2  29 -1 3 1 26 -1 25 -1 0
2  26 -1 25 -1 0
2  2 1 26 -1 25 -1 0
1
1.000000000000000 0.000000000000000 0.000000000000000 0.000000000000000 
0.000000000000000 1.000000000000000 0.000000000000000 0.000000000000000 
0.000000000000000 0.000000000000000 1.000000000000000 0.000000000000000 
1
1.000000000000000 0.000000000000000 0.000000000000000 0.000000000000000 
0.000000000000000 0.000000000000000 -1.000000000000000 -43.700000000000003 
0.000000000000000 1.000000000000000 0.000000000000000 0.000000000000000 
2  33 1 34 1 5 -1 0
2  5 1 34 -1 33 -1 0
1
1.000000000000000 0.000000000000000 0.000000000000000 0.000000000000000 
0.000000000000000 1.000000000000000 0.000000000000000 421.114773357572972 
0.000000000000000 0.000000000000000 1.000000000000000 -0.000000000000094 
2  37 -1 5 1 34 -1 33 -1 0
2  34 -1 33 -1 0
2  2 1 3 -1 4 1 34 -1 33 -1 0
Curve2ds 80
1 87.40000000000000568 0.00000000000000000 0.00000000000000000 -1.00000000000000000 
1 0.00000000000000000 0.00000000000000000 0.00000000000000000 -1.00000000000000000 
1 0.00000000000000000 0.00000000000000000 1.00000000000000000 0.00000000000000000 
1 0.00000000000000000 -122.00000000000001421 1.00000000000000000 0.00000000000000000 
1 0.00000000000000000 0.00000000000000000 0.00000000000000000 -1.00000000000000000 
1 144.69999999999998863 0.00000000000000000 0.00000000000000000 -1.00000000000000000 
2 12.70000000000001350 -109.29999999999999716 1.00000000000000000 0.00000000000000000 0.00000000000000000 -1.00000000000000000 3.96875000000000000
1 0.00000000000000000 -87.39999999999999147 1.00000000000000000 0.00000000000000000 
2 74.70000000000001705 -109.29999999999999716 1.00000000000000000 0.00000000000000000 0.00000000000000000 -1.00000000000000000 3.96875000000000000
1 0.00000000000000000 -87.39999999999999147 1.00000000000000000 0.00000000000000000 
2 12.70000000000001350 -12.69999999999997442 1.00000000000000000 0.00000000000000000 0.00000000000000000 -1.00000000000000000 3.96875000000000000
1 0.00000000000000000 -87.40000000000001990 1.00000000000000000 0.00000000000000000 
2 74.70000000000001705 -12.69999999999997442 1.00000000000000000 0.00000000000000000 0.00000000000000000 -1.00000000000000000 3.96875000000000000
1 0.00000000000000000 -87.40000000000001990 1.00000000000000000 0.00000000000000000 
1 0.00000000000000000 0.00000000000000000 0.00000000000000000 -1.00000000000000000 
1 144.69999999999998863 0.00000000000000000 0.00000000000000000 -1.00000000000000000 
1 0.00000000000000000 0.00000000000000000 1.00000000000000000 0.00000000000000000 
1 0.00000000000000000 -122.00000000000001421 1.00000000000000000 0.00000000000000000 
2 12.69999999999999929 -96.60000000000002274 1.00000000000000000 0.00000000000000000 0.00000000000000000 -1.00000000000000000 3.96875000000000000
1 0.00000000000000000 -144.69999999999998863 1.00000000000000000 0.00000000000000000 
2 74.70000000000000284 -96.60000000000002274 1.00000000000000000 0.00000000000000000 0.00000000000000000 -1.00000000000000000 3.96875000000000000
1 0.00000000000000000 -144.69999999999998863 1.00000000000000000 0.00000000000000000 
2 12.69999999999999929 -25.39999999999999858 1.00000000000000000 0.00000000000000000 0.00000000000000000 -1.00000000000000000 3.96875000000000000
1 0.00000000000000000 -144.69999999999998863 1.00000000000000000 0.00000000000000000 
2 74.70000000000000284 -25.39999999999999858 1.00000000000000000 0.00000000000000000 0.00000000000000000 -1.00000000000000000 3.96875000000000000
1 0.00000000000000000 -144.69999999999998863 1.00000000000000000 0.00000000000000000 
1 0.00000000000000000 0.00000000000000000 1.00000000000000000 0.00000000000000000 
1 0.00000000000000000 -122.00000000000001421 1.00000000000000000 0.00000000000000000 
1 0.00000000000000000 -0.00000000000000000 1.00000000000000000 0.00000000000000000 
1 0.00000000000000000 -122.00000000000001421 1.00000000000000000 0.00000000000000000 
1 87.40000000000000568 0.00000000000000000 0.00000000000000000 -1.00000000000000000 
1 0.00000000000000000 -0.00000000000000000 0.00000000000000000 -1.00000000000000000 
1 0.00000000000000000 0.00000000000000000 1.00000000000000000 0.00000000000000000 
1 0.00000000000000000 -421.11477335757297169 1.00000000000000000 0.00000000000000000 
2 0.00000000000000000 0.00000000000000000 0.00000000000000000 -1.00000000000000000 1.00000000000000000 0.00000000000000000 3.96874999999999645
2 12.69999999999999929 -96.60000000000002274 -1.00000000000000000 -0.00000000000000000 0.00000000000000000 -1.00000000000000000 3.96874999999999645
1 0.00000000000000000 0.00000000000000000 1.00000000000000000 0.00000000000000000 
1 0.00000000000000000 -421.11477335757297169 1.00000000000000000 0.00000000000000000 
2 0.00000000000000711 0.00000000000000000 0.00000000000000000 -1.00000000000000000 1.00000000000000000 0.00000000000000000 3.96875000000000000
2 74.70000000000000284 -96.60000000000002274 -1.00000000000000000 -0.00000000000000000 0.00000000000000000 -1.00000000000000000 3.96875000000000000
1 0.00000000000000000 0.00000000000000000 1.00000000000000000 0.00000000000000000 
1 0.00000000000000000 -421.11477335757297169 1.00000000000000000 0.00000000000000000 
2 0.00000000000000000 0.00000000000000000 0.00000000000000000 -1.00000000000000000 1.00000000000000000 0.00000000000000000 3.96874999999999645
2 12.69999999999999929 -25.39999999999999858 -1.00000000000000000 -0.00000000000000000 0.00000000000000000 -1.00000000000000000 3.96874999999999645
1 0.00000000000000000 0.00000000000000000 1.00000000000000000 0.00000000000000000 
1 0.00000000000000000 -421.11477335757297169 1.00000000000000000 0.00000000000000000 
2 -0.00000000000000711 0.00000000000000000 0.00000000000000000 -1.00000000000000000 1.00000000000000000 0.00000000000000000 3.96875000000000000
2 74.70000000000000284 -25.39999999999999858 -1.00000000000000000 -0.00000000000000000 0.00000000000000000 -1.00000000000000000 3.96875000000000000
1 0.00000000000000000 0.00000000000000000 1.00000000000000000 0.00000000000000000 
1 0.00000000000000000 -421.11477335757297169 1.00000000000000000 0.00000000000000000 
2 0.00000000000000000 0.00000000000000000 0.00000000000000000 1.00000000000000000 -1.00000000000000000 0.00000000000000000 3.96875000000000000
2 131.99999999999997158 -109.30000000000001137 -1.00000000000000000 -0.00000000000000000 0.00000000000000000 -1.00000000000000000 3.96875000000000000
1 0.00000000000000000 0.00000000000000000 0.00000000000000000 -1.00000000000000000 
1 6.28318530717958623 0.00000000000000000 0.00000000000000000 -1.00000000000000000 
1 0.00000000000000000 0.00000000000000000 1.00000000000000000 0.00000000000000000 
1 0.00000000000000000 -421.11477335757297169 1.00000000000000000 0.00000000000000000 
2 0.00000000000000000 0.00000000000000000 0.00000000000000000 1.00000000000000000 -1.00000000000000000 0.00000000000000000 3.96874999999999645
2 69.99999999999997158 -109.30000000000001137 -1.00000000000000000 -0.00000000000000000 0.00000000000000000 -1.00000000000000000 3.96874999999999645
1 0.00000000000000000 0.00000000000000000 0.00000000000000000 -1.00000000000000000 
1 6.28318530717958623 0.00000000000000000 0.00000000000000000 -1.00000000000000000 
1 0.00000000000000000 0.00000000000000000 1.00000000000000000 0.00000000000000000 
1 0.00000000000000000 -421.11477335757297169 1.00000000000000000 0.00000000000000000 
2 0.00000000000000711 -0.00000000000000000 0.00000000000000000 1.00000000000000000 -1.00000000000000000 0.00000000000000000 3.96875000000000000
2 131.99999999999997158 -12.69999999999999574 -1.00000000000000000 -0.00000000000000000 0.00000000000000000 -1.00000000000000000 3.96875000000000000
1 0.00000000000000000 0.00000000000000000 0.00000000000000000 -1.00000000000000000 
1 6.28318530717958623 0.00000000000000000 0.00000000000000000 -1.00000000000000000 
1 0.00000000000000000 0.00000000000000000 1.00000000000000000 0.00000000000000000 
1 0.00000000000000000 -421.11477335757297169 1.00000000000000000 0.00000000000000000 
2 0.00000000000000000 0.00000000000000000 0.00000000000000000 1.00000000000000000 -1.00000000000000000 0.00000000000000000 3.96874999999999645
2 69.99999999999997158 -12.69999999999999574 -1.00000000000000000 -0.00000000000000000 0.00000000000000000 -1.00000000000000000 3.96874999999999645
1 0.00000000000000000 0.00000000000000000 0.00000000000000000 -1.00000000000000000 
1 6.28318530717958623 0.00000000000000000 0.00000000000000000 -1.00000000000000000 
1 0.00000000000000000 0.00000000000000000 0.00000000000000000 -1.00000000000000000 
1 6.28318530717958623 0.00000000000000000 0.00000000000000000 -1.00000000000000000 
1 0.00000000000000000 0.00000000000000000 0.00000000000000000 -1.00000000000000000 
1 6.28318530717958623 0.00000000000000000 0.00000000000000000 -1.00000000000000000 
1 0.00000000000000000 0.00000000000000000 0.00000000000000000 -1.00000000000000000 
1 6.28318530717958623 0.00000000000000000 0.00000000000000000 -1.00000000000000000 
1 0.00000000000000000 0.00000000000000000 0.00000000000000000 -1.00000000000000000 
1 6.28318530717958623 0.00000000000000000 0.00000000000000000 -1.00000000000000000 
Curves 32
1 -43.70000000000001705 43.70000000000000284 -61.00000000000000711 0.00000000000000000 0.00000000000000000 1.00000000000000000 
1 -43.70000000000001705 43.70000000000000284 0.00000000000000000 1.00000000000000000 0.00000000000000000 0.00000000000000000 
1 100.99999999999997158 43.70000000000000284 -61.00000000000000711 0.00000000000000000 0.00000000000000000 1.00000000000000000 
2 -31.00000000000000355 43.70000000000000284 48.29999999999999005 0.00000000000000000 -1.00000000000000000 0.00000000000000022 1.00000000000000000 0.00000000000000000 0.00000000000000000 -0.00000000000000000 0.00000000000000022 1.00000000000000000 3.96875000000000000
2 31.00000000000000355 43.70000000000000284 48.29999999999999005 0.00000000000000000 -1.00000000000000000 0.00000000000000022 1.00000000000000000 0.00000000000000000 0.00000000000000000 -0.00000000000000000 0.00000000000000022 1.00000000000000000 3.96875000000000000
2 -31.00000000000000355 43.70000000000000284 -48.30000000000003268 0.00000000000000000 -1.00000000000000000 0.00000000000000022 1.00000000000000000 0.00000000000000000 0.00000000000000000 -0.00000000000000000 0.00000000000000022 1.00000000000000000 3.96875000000000000
2 31.00000000000000355 43.70000000000000284 -48.30000000000003268 0.00000000000000000 -1.00000000000000000 0.00000000000000022 1.00000000000000000 0.00000000000000000 0.00000000000000000 -0.00000000000000000 0.00000000000000022 1.00000000000000000 3.96875000000000000
1 -43.70000000000001705 -43.70000000000000284 -61.00000000000000711 0.00000000000000000 0.00000000000000000 1.00000000000000000 
1 -43.70000000000001705 -43.70000000000000284 0.00000000000000000 0.00000000000000000 1.00000000000000000 0.00000000000000000 
2 -43.70000000000001705 -31.00000000000000355 35.60000000000000853 1.00000000000000000 0.00000000000000000 0.00000000000000000 -0.00000000000000000 1.00000000000000000 0.00000000000000000 0.00000000000000000 -0.00000000000000000 1.00000000000000000 3.96875000000000000
2 -43.70000000000001705 31.00000000000000355 35.60000000000000853 1.00000000000000000 0.00000000000000000 0.00000000000000000 -0.00000000000000000 1.00000000000000000 0.00000000000000000 0.00000000000000000 -0.00000000000000000 1.00000000000000000 3.96875000000000000
2 -43.70000000000001705 -31.00000000000000355 -35.60000000000000853 1.00000000000000000 0.00000000000000000 0.00000000000000000 -0.00000000000000000 1.00000000000000000 0.00000000000000000 0.00000000000000000 -0.00000000000000000 1.00000000000000000 3.96875000000000000
2 -43.70000000000001705 31.00000000000000355 -35.60000000000000853 1.00000000000000000 0.00000000000000000 0.00000000000000000 -0.00000000000000000 1.00000000000000000 0.00000000000000000 0.00000000000000000 -0.00000000000000000 1.00000000000000000 3.96875000000000000
1 100.99999999999997158 43.70000000000000284 0.00000000000000000 0.00000000000000000 -1.00000000000000000 0.00000000000000000 
1 100.99999999999997158 -43.70000000000000284 0.00000000000000000 -1.00000000000000000 0.00000000000000000 0.00000000000000000 
1 100.99999999999997158 -43.70000000000000284 -61.00000000000000711 0.00000000000000000 0.00000000000000000 1.00000000000000000 
2 31.00000000000000355 35.60000000000000853 0.00000000000000000 0.00000000000000000 0.00000000000000000 1.00000000000000000 1.00000000000000000 0.00000000000000000 -0.00000000000000000 -0.00000000000000000 1.00000000000000000 0.00000000000000000 3.96875000000000000
2 -31.00000000000000355 35.60000000000000853 0.00000000000000000 0.00000000000000000 0.00000000000000000 1.00000000000000000 1.00000000000000000 0.00000000000000000 -0.00000000000000000 -0.00000000000000000 1.00000000000000000 0.00000000000000000 3.96875000000000000
2 31.00000000000000355 -35.60000000000000853 0.00000000000000000 0.00000000000000000 0.00000000000000000 1.00000000000000000 1.00000000000000000 0.00000000000000000 -0.00000000000000000 -0.00000000000000000 1.00000000000000000 0.00000000000000000 3.96875000000000000
2 -31.00000000000000355 -35.60000000000000853 0.00000000000000000 0.00000000000000000 0.00000000000000000 1.00000000000000000 1.00000000000000000 0.00000000000000000 -0.00000000000000000 -0.00000000000000000 1.00000000000000000 0.00000000000000000 3.96875000000000000
2 -31.00000000000000355 48.30000000000001137 0.00000000000000000 0.00000000000000000 0.00000000000000000 1.00000000000000000 1.00000000000000000 0.00000000000000000 -0.00000000000000000 -0.00000000000000000 1.00000000000000000 0.00000000000000000 3.96875000000000000
1 -27.03125000000000355 -43.69999999999998863 48.30000000000001137 0.00000000000000000 1.00000000000000000 -0.00000000000000022 
2 31.00000000000000355 48.30000000000001137 0.00000000000000000 0.00000000000000000 0.00000000000000000 1.00000000000000000 1.00000000000000000 0.00000000000000000 -0.00000000000000000 -0.00000000000000000 1.00000000000000000 0.00000000000000000 3.96875000000000000
1 34.96875000000000000 -43.69999999999998863 48.30000000000001137 0.00000000000000000 1.00000000000000000 -0.00000000000000022 
2 -31.00000000000000355 -48.30000000000001137 0.00000000000000000 0.00000000000000000 0.00000000000000000 1.00000000000000000 1.00000000000000000 0.00000000000000000 -0.00000000000000000 -0.00000000000000000 1.00000000000000000 0.00000000000000000 3.96875000000000000
1 -27.03125000000000355 -43.70000000000001705 -48.30000000000001137 0.00000000000000000 1.00000000000000000 -0.00000000000000022 
2 31.00000000000000355 -48.30000000000001137 0.00000000000000000 0.00000000000000000 0.00000000000000000 1.00000000000000000 1.00000000000000000 0.00000000000000000 -0.00000000000000000 -0.00000000000000000 1.00000000000000000 0.00000000000000000 3.96875000000000000
1 34.96875000000000000 -43.70000000000001705 -48.30000000000001137 0.00000000000000000 1.00000000000000000 -0.00000000000000022 
1 100.99999999999997158 -27.03125000000000355 35.60000000000000853 -1.00000000000000000 -0.00000000000000000 -0.00000000000000000 
1 100.99999999999997158 34.96875000000000000 35.60000000000000853 -1.00000000000000000 -0.00000000000000000 -0.00000000000000000 
1 100.99999999999997158 -27.03125000000000355 -35.60000000000000853 -1.00000000000000000 -0.00000000000000000 -0.00000000000000000 
1 100.99999999999997158 34.96875000000000000 -35.60000000000000853 -1.00000000000000000 -0.00000000000000000 -0.00000000000000000 
Polygon3D 0
PolygonOnTriangulations 0
Surfaces 21
1 -43.70000000000001705 43.70000000000000284 -61.00000000000000711 0.00000000000000000 1.00000000000000000 0.00000000000000000 1.00000000000000000 0.00000000000000000 0.00000000000000000 0.00000000000000000 0.00000000000000000 -1.00000000000000000 
1 -43.70000000000001705 -43.70000000000000284 -61.00000000000000711 -1.00000000000000000 0.00000000000000000 0.00000000000000000 0.00000000000000000 1.00000000000000000 0.00000000000000000 0.00000000000000000 0.00000000000000000 -1.00000000000000000 
1 100.99999999999997158 43.70000000000000284 -61.00000000000000711 1.00000000000000000 0.00000000000000000 -0.00000000000000000 0.00000000000000000 -1.00000000000000000 0.00000000000000000 0.00000000000000000 -0.00000000000000000 -1.00000000000000000 
2 -31.00000000000000355 -43.69999999999998863 48.30000000000001137 0.00000000000000000 -1.00000000000000000 0.00000000000000022 1.00000000000000000 0.00000000000000000 0.00000000000000000 -0.00000000000000000 0.00000000000000022 1.00000000000000000 3.96875000000000000
2 31.00000000000000355 -43.69999999999998863 48.30000000000001137 0.00000000000000000 -1.00000000000000000 0.00000000000000022 1.00000000000000000 0.00000000000000000 0.00000000000000000 -0.00000000000000000 0.00000000000000022 1.00000000000000000 3.96875000000000000
2 -31.00000000000000355 -43.70000000000001705 -48.30000000000001137 0.00000000000000000 -1.00000000000000000 0.00000000000000022 1.00000000000000000 0.00000000000000000 0.00000000000000000 -0.00000000000000000 0.00000000000000022 1.00000000000000000 3.96875000000000000
2 31.00000000000000355 -43.70000000000001705 -48.30000000000001137 0.00000000000000000 -1.00000000000000000 0.00000000000000022 1.00000000000000000 0.00000000000000000 0.00000000000000000 -0.00000000000000000 0.00000000000000022 1.00000000000000000 3.96875000000000000
1 100.99999999999997158 -43.70000000000000284 -61.00000000000000711 0.00000000000000000 -1.00000000000000000 0.00000000000000000 -1.00000000000000000 0.00000000000000000 0.00000000000000000 -0.00000000000000000 -0.00000000000000000 -1.00000000000000000 
2 100.99999999999997158 -31.00000000000000355 35.60000000000000853 1.00000000000000000 0.00000000000000000 0.00000000000000000 -0.00000000000000000 1.00000000000000000 0.00000000000000000 0.00000000000000000 -0.00000000000000000 1.00000000000000000 3.96875000000000000
2 100.99999999999997158 31.00000000000000355 35.60000000000000853 1.00000000000000000 0.00000000000000000 0.00000000000000000 -0.00000000000000000 1.00000000000000000 0.00000000000000000 0.00000000000000000 -0.00000000000000000 1.00000000000000000 3.96875000000000000
2 100.99999999999997158 -31.00000000000000355 -35.60000000000000853 1.00000000000000000 0.00000000000000000 0.00000000000000000 -0.00000000000000000 1.00000000000000000 0.00000000000000000 0.00000000000000000 -0.00000000000000000 1.00000000000000000 3.96875000000000000
2 100.99999999999997158 31.00000000000000355 -35.60000000000000853 1.00000000000000000 0.00000000000000000 0.00000000000000000 -0.00000000000000000 1.00000000000000000 0.00000000000000000 0.00000000000000000 -0.00000000000000000 1.00000000000000000 3.96875000000000000
1 28.64999999999998437 -0.00000000000000196 0.00000000000000000 -0.00000000000000000 -0.00000000000000000 -1.00000000000000000 -1.00000000000000000 0.00000000000000000 0.00000000000000000 0.00000000000000000 1.00000000000000000 -0.00000000000000000 
1 100.99999999999997158 31.00000000000000355 35.60000000000000853 1.00000000000000000 0.00000000000000000 0.00000000000000000 -0.00000000000000000 0.00000000000000000 1.00000000000000000 0.00000000000000000 -1.00000000000000000 0.00000000000000000 
1 100.99999999999994316 -31.00000000000000355 35.60000000000000142 1.00000000000000000 -0.00000000000000000 -0.00000000000000000 0.00000000000000000 0.00000000000000000 1.00000000000000000 0.00000000000000000 -1.00000000000000000 0.00000000000000000 
1 100.99999999999997158 31.00000000000000355 -35.60000000000000853 1.00000000000000000 0.00000000000000000 0.00000000000000000 -0.00000000000000000 0.00000000000000000 1.00000000000000000 0.00000000000000000 -1.00000000000000000 0.00000000000000000 
1 100.99999999999994316 -31.00000000000000355 -35.60000000000000142 1.00000000000000000 -0.00000000000000000 0.00000000000000000 -0.00000000000000000 0.00000000000000000 1.00000000000000000 -0.00000000000000000 -1.00000000000000000 0.00000000000000000 
1 -31.00000000000000355 -43.69999999999998153 48.30000000000001137 0.00000000000000060 -1.00000000000000000 0.00000000000000103 0.00000000000000000 -0.00000000000000103 -1.00000000000000000 1.00000000000000000 0.00000000000000060 -0.00000000000000000 
1 31.00000000000000355 -43.69999999999998863 48.30000000000001137 0.00000000000000060 -1.00000000000000000 0.00000000000000103 0.00000000000000000 -0.00000000000000103 -1.00000000000000000 1.00000000000000000 0.00000000000000060 -0.00000000000000000 
1 -31.00000000000000355 -43.70000000000000995 -48.30000000000000426 -0.00000000000000060 -1.00000000000000000 0.00000000000000103 0.00000000000000000 -0.00000000000000103 -1.00000000000000000 1.00000000000000000 -0.00000000000000060 0.00000000000000000 
1 31.00000000000000355 -43.70000000000000995 -48.30000000000001137 -0.00000000000000060 -1.00000000000000000 0.00000000000000103 0.00000000000000000 -0.00000000000000103 -1.00000000000000000 1.00000000000000000 -0.00000000000000060 0.00000000000000000 
Triangulations 0

TShapes 96
Ve
0.000000100000000
-43.700000000000017 43.700000000000003 0.000000000000000
0 0

0101101
*
Ed
 0.000000100000000 1 1 0
1  1 0 0.000000000000000 122.000000000000014
2  1 2 0 0.000000000000000 122.000000000000014
2  2 1 0 0.000000000000000 122.000000000000014
0

0101000
+96 11 -96 13 *
Ve
0.000000100000000
100.999999999999972 43.700000000000003 0.000000000000000
0 0

0101101
*
Ed
 0.000000100000000 1 1 0
1  2 0 0.000000000000000 144.699999999999989
2  3 1 15 0.000000000000000 144.699999999999989
2  4 1 16 0.000000000000000 144.699999999999989
0

0101000
+96 0 -94 0 *
Ed
 0.000000100000000 1 1 0
1  3 0 0.000000000000000 122.000000000000014
2  5 3 0 0.000000000000000 122.000000000000014
2  6 1 0 0.000000000000000 122.000000000000014
0

0101000
+94 11 -94 13 *
Wi

0101100
+95 6 -93 14 +93 17 -92 6 *
Ve
0.000000100000000
-27.031250000000004 43.700000000000003 48.299999999999990
0 0

0101101
*
Ed
 0.000000100000000 1 1 0
1  4 0 0.000000000000000 6.283185307179586
2  7 1 6 0.000000000000000 6.283185307179586
2  8 4 0 0.000000000000000 6.283185307179586
0

0101000
+90 0 -90 0 *
Wi

0101100
+89 0 *
Ve
0.000000100000000
34.968750000000000 43.700000000000003 48.299999999999990
0 0

0101101
*
Ed
 0.000000100000000 1 1 0
1  5 0 0.000000000000000 6.283185307179586
2  9 1 6 0.000000000000000 6.283185307179586
2  10 5 0 0.000000000000000 6.283185307179586
0

0101000
+87 0 -87 0 *
Wi

0101100
+86 0 *
Ve
0.000000100000000
-27.031250000000004 43.700000000000003 -48.300000000000033
0 0

0101101
*
Ed
 0.000000100000000 1 1 0
1  6 0 0.000000000000000 6.283185307179586
2  11 1 6 0.000000000000000 6.283185307179586
2  12 6 0 0.000000000000000 6.283185307179586
0

0101000
+84 0 -84 0 *
Wi

0101100
+83 0 *
Ve
0.000000100000000
34.968750000000000 43.700000000000003 -48.300000000000033
0 0

0101101
*
Ed
 0.000000100000000 1 1 0
1  7 0 0.000000000000000 6.283185307179586
2  13 1 6 0.000000000000000 6.283185307179586
2  14 7 0 0.000000000000000 6.283185307179586
0

0101000
+81 0 -81 0 *
Wi

0101100
+80 0 *
Fa
0  0.000000100000000 1 6

0101000
+91 0 +88 0 +85 0 +82 0 +79 0 *
Ve
0.000000100000000
-43.700000000000017 -43.700000000000003 0.000000000000000
0 0

0101101
*
Ed
 0.000000100000000 1 1 0
1  8 0 0.000000000000000 122.000000000000014
2  15 2 0 0.000000000000000 122.000000000000014
2  16 8 0 0.000000000000000 122.000000000000014
0

0101000
+77 11 -77 13 *
Ed
 0.000000100000000 1 1 0
1  9 0 0.000000000000000 87.400000000000006
2  17 2 15 0.000000000000000 87.400000000000006
2  18 2 16 0.000000000000000 87.400000000000006
0

0101000
+77 0 -96 0 *
Wi

0101100
+76 19 -75 20 +75 21 -95 19 *
Ve
0.000000100000000
-43.700000000000017 -27.031250000000004 35.600000000000009
0 0

0101101
*
Ed
 0.000000100000000 1 1 0
1  10 0 0.000000000000000 6.283185307179586
2  19 2 19 0.000000000000000 6.283185307179586
2  20 9 0 0.000000000000000 6.283185307179586
0

0101000
+73 0 -73 0 *
Wi

0101100
+72 0 *
Ve
0.000000100000000
-43.700000000000017 34.968750000000000 35.600000000000009
0 0

0101101
*
Ed
 0.000000100000000 1 1 0
1  11 0 0.000000000000000 6.283185307179586
2  21 2 19 0.000000000000000 6.283185307179586
2  22 10 0 0.000000000000000 6.283185307179586
0

0101000
+70 0 -70 0 *
Wi

0101100
+69 0 *
Ve
0.000000100000000
-43.700000000000017 -27.031250000000004 -35.600000000000009
0 0

0101101
*
Ed
 0.000000100000000 1 1 0
1  12 0 0.000000000000000 6.283185307179586
2  23 2 19 0.000000000000000 6.283185307179586
2  24 11 0 0.000000000000000 6.283185307179586
0

0101000
+67 0 -67 0 *
Wi

0101100
+66 0 *
Ve
0.000000100000000
-43.700000000000017 34.968750000000000 -35.600000000000009
0 0

0101101
*
Ed
 0.000000100000000 1 1 0
1  13 0 0.000000000000000 6.283185307179586
2  25 2 19 0.000000000000000 6.283185307179586
2  26 12 0 0.000000000000000 6.283185307179586
0

0101000
+64 0 -64 0 *
Wi

0101100
+63 0 *
Fa
0  0.000000100000000 2 19

0101000
+74 0 +71 0 +68 0 +65 0 +62 0 *
Ve
0.000000100000000
100.999999999999972 -43.700000000000003 0.000000000000000
0 0

0101101
*
Ed
 0.000000100000000 1 1 0
1  14 0 0.000000000000000 87.400000000000006
2  27 3 15 0.000000000000000 87.400000000000006
2  28 3 16 0.000000000000000 87.400000000000006
0

0101000
+94 0 -60 0 *
Ed
 0.000000100000000 1 1 0
1  15 0 0.000000000000000 144.699999999999989
2  29 8 15 0.000000000000000 144.699999999999989
2  30 8 16 0.000000000000000 144.699999999999989
0

0101000
+60 0 -77 0 *
Wi

0101100
+93 0 +59 0 +58 0 +75 0 *
Fa
0  0.000000100000000 13 0

0101000
+57 23 *
Ed
 0.000000100000000 1 1 0
1  16 0 0.000000000000000 122.000000000000014
2  31 3 0 0.000000000000000 122.000000000000014
2  32 8 0 0.000000000000000 122.000000000000014
0

0101000
+60 11 -60 13 *
Wi

0101100
+92 19 -59 20 +59 21 -55 19 *
Ve
0.000000100000000
34.968750000000000 35.600000000000009 0.000000000000000
0 0

0101101
*
Ed
 0.000000100000000 1 1 0
1  17 0 0.000000000000000 6.283185307179586
2  33 10 28 0.000000000000000 6.283185307179586
2  34 10 30 0.000000000000000 6.283185307179586
2  35 14 31 0.000000000000000 6.283185307179586
2  36 3 32 0.000000000000000 6.283185307179586
0

0101000
+53 0 -53 0 *
Wi

0101100
-52 27 *
Ve
0.000000100000000
-27.031250000000004 35.600000000000009 0.000000000000000
0 0

0101101
*
Ed
 0.000000100000000 1 1 0
1  18 0 0.000000000000000 6.283185307179586
2  37 9 28 0.000000000000000 6.283185307179586
2  38 9 30 0.000000000000000 6.283185307179586
2  39 15 31 0.000000000000000 6.283185307179586
2  40 3 32 0.000000000000000 6.283185307179586
0

0101000
+50 0 -50 0 *
Wi

0101100
-49 27 *
Ve
0.000000100000000
34.968750000000000 -35.600000000000009 0.000000000000000
0 0

0101101
*
Ed
 0.000000100000000 1 1 0
1  19 0 0.000000000000000 6.283185307179586
2  41 12 28 0.000000000000000 6.283185307179586
2  42 12 30 0.000000000000000 6.283185307179586
2  43 16 31 0.000000000000000 6.283185307179586
2  44 3 32 0.000000000000000 6.283185307179586
0

0101000
+47 0 -47 0 *
Wi

0101100
-46 27 *
Ve
0.000000100000000
-27.031250000000004 -35.600000000000009 0.000000000000000
0 0

0101101
*
Ed
 0.000000100000000 1 1 0
1  20 0 0.000000000000000 6.283185307179586
2  45 11 28 0.000000000000000 6.283185307179586
2  46 11 30 0.000000000000000 6.283185307179586
2  47 17 31 0.000000000000000 6.283185307179586
2  48 3 32 0.000000000000000 6.283185307179586
0

0101000
+44 0 -44 0 *
Wi

0101100
-43 27 *
Fa
0  0.000000100000000 3 19

0101000
+54 0 +51 0 +48 0 +45 0 +42 0 *
Ve
0.000000100000014
-27.031250000000004 48.300000000000011 0.000000000000000
0 0

0101101
*
Ed
 0.000000100000014 1 1 0
1  21 0 0.000000000000000 6.283185307179586
2  49 4 36 0.000000000000000 6.283185307179586
2  50 4 38 0.000000000000000 6.283185307179586
2  51 18 39 0.000000000000000 6.283185307179586
2  52 8 40 0.000000000000000 6.283185307179586
0

0101000
+40 0 -40 0 *
Ed
 0.000000100000000 1 1 0
1  22 0 0.000000000000000 87.399999999999991
3  53 54CN 4 0 0.000000000000000 87.399999999999991
0

0101000
+40 35 -90 0 *
Wi

0101100
-39 35 -38 0 +89 0 +38 0 *
Fa
0  0.000000100000000 4 0

0101000
+37 0 *
Ve
0.000000100000014
34.968750000000000 48.300000000000011 0.000000000000000
0 0

0101101
*
Ed
 0.000000100000014 1 1 0
1  23 0 0.000000000000000 6.283185307179586
2  55 5 36 0.000000000000000 6.283185307179586
2  56 5 38 0.000000000000000 6.283185307179586
2  57 19 39 0.000000000000000 6.283185307179586
2  58 8 40 0.000000000000000 6.283185307179586
0

0101000
+35 0 -35 0 *
Ed
 0.000000100000000 1 1 0
1  24 0 0.000000000000000 87.399999999999991
3  59 60CN 5 0 0.000000000000000 87.399999999999991
0

0101000
+35 35 -87 0 *
Wi

0101100
-34 35 -33 0 +86 0 +33 0 *
Fa
0  0.000000100000000 5 0

0101000
+32 0 *
Ve
0.000000100000014
-27.031250000000004 -48.300000000000011 0.000000000000000
0 0

0101101
*
Ed
 0.000000100000014 1 1 0
1  25 0 0.000000000000000 6.283185307179586
2  61 6 36 0.000000000000000 6.283185307179586
2  62 6 38 0.000000000000000 6.283185307179586
2  63 20 39 0.000000000000000 6.283185307179586
2  64 8 40 0.000000000000000 6.283185307179586
0

0101000
+30 0 -30 0 *
Ed
 0.000000100000000 1 1 0
1  26 0 0.000000000000000 87.400000000000020
3  65 66CN 6 0 0.000000000000000 87.400000000000020
0

0101000
+30 35 -84 0 *
Wi

0101100
-29 35 -28 0 +83 0 +28 0 *
Fa
0  0.000000100000000 6 0

0101000
+27 0 *
Ve
0.000000100000014
34.968750000000000 -48.300000000000011 0.000000000000000
0 0

0101101
*
Ed
 0.000000100000014 1 1 0
1  27 0 0.000000000000000 6.283185307179586
2  67 7 36 0.000000000000000 6.283185307179586
2  68 7 38 0.000000000000000 6.283185307179586
2  69 21 39 0.000000000000000 6.283185307179586
2  70 8 40 0.000000000000000 6.283185307179586
0

0101000
+25 0 -25 0 *
Ed
 0.000000100000000 1 1 0
1  28 0 0.000000000000000 87.400000000000020
3  71 72CN 7 0 0.000000000000000 87.400000000000020
0

0101000
+25 35 -81 0 *
Wi

0101100
-24 35 -23 0 +80 0 +23 0 *
Fa
0  0.000000100000000 7 0

0101000
+22 0 *
Wi

0101100
+55 6 -58 14 +58 17 -76 6 *
Wi

0101100
-34 35 *
Wi

0101100
-39 35 *
Wi

0101100
-24 35 *
Wi

0101100
-29 35 *
Fa
0  0.000000100000000 8 6

0101000
+20 0 +19 0 +18 0 +17 0 +16 0 *
Ed
 0.000000100000000 1 1 0
1  29 0 0.000000000000000 144.699999999999989
3  73 74CN 9 0 0.000000000000000 144.699999999999989
0

0101000
+50 27 -73 0 *
Wi

0101100
-49 27 -14 0 +72 0 +14 0 *
Fa
0  0.000000100000000 9 0

0101000
+13 0 *
Ed
 0.000000100000000 1 1 0
1  30 0 0.000000000000000 144.699999999999989
3  75 76CN 10 0 0.000000000000000 144.699999999999989
0

0101000
+53 27 -70 0 *
Wi

0101100
-52 27 -11 0 +69 0 +11 0 *
Fa
0  0.000000100000000 10 0

0101000
+10 0 *
Ed
 0.000000100000000 1 1 0
1  31 0 0.000000000000000 144.699999999999989
3  77 78CN 11 0 0.000000000000000 144.699999999999989
0

0101000
+44 27 -67 0 *
Wi

0101100
-43 27 -8 0 +66 0 +8 0 *
Fa
0  0.000000100000000 11 0

0101000
+7 0 *
Ed
 0.000000100000000 1 1 0
1  32 0 0.000000000000000 144.699999999999989
3  79 80CN 12 0 0.000000000000000 144.699999999999989
0

0101000
+47 27 -64 0 *
Wi

0101100
-46 27 -5 0 +63 0 +5 0 *
Fa
0  0.000000100000000 12 0

0101000
+4 0 *
Sh

0101100
+78 0 +61 18 +56 22 -56 24 +41 18 -36 0 -31 0 -26 0 -21 0 +15 0 
-12 18 -9 18 -6 18 -3 18 *
So

0100000
+2 0 *

+1 1 