
CASCADE Topology V1, (c) Matra-Datavision
Locations 13
1
1.000000000000000 0.000000000000000 0.000000000000000 0.000000000000000 
0.000000000000000 1.000000000000000 0.000000000000000 0.000000000000000 
0.000000000000000 0.000000000000000 1.000000000000000 0.000000000000000 
1
1.000000000000000 0.000000000000000 0.000000000000000 0.000000000000000 
0.000000000000000 1.000000000000000 0.000000000000000 0.000000000000000 
0.000000000000000 0.000000000000000 1.000000000000000 0.000000000000000 
1
1.000000000000000 0.000000000000000 0.000000000000000 0.000000000000000 
0.000000000000000 1.000000000000000 0.000000000000000 0.000000000000000 
0.000000000000000 0.000000000000000 1.000000000000000 0.000000000000000 
1
1.000000000000000 0.000000000000000 0.000000000000000 0.000000000000000 
0.000000000000000 1.000000000000000 0.000000000000000 0.000000000000000 
0.000000000000000 0.000000000000000 1.000000000000000 0.000000000000000 
1
1.000000000000000 0.000000000000000 0.000000000000000 -0.000000000000000 
0.000000000000000 1.000000000000000 0.000000000000000 -0.000000000000000 
0.000000000000000 0.000000000000000 1.000000000000000 -61.000000000000007 
2  2 1 3 1 4 -1 5 1 0
1
1.000000000000000 0.000000000000000 0.000000000000000 0.000000000000000 
0.000000000000000 1.000000000000000 0.000000000000000 0.000000000000000 
0.000000000000000 0.000000000000000 1.000000000000000 122.000000000000014 
2  2 1 3 1 4 -1 5 1 7 1 0
2  5 -1 4 1 3 -1 2 -1 0
2  7 -1 5 -1 4 1 3 -1 2 -1 0
2  4 -1 5 1 0
2  2 1 3 1 0
2  4 -1 5 1 7 1 0
Curve2ds 16
1 87.40000000000000568 0.00000000000000000 0.00000000000000000 -1.00000000000000000 
1 0.00000000000000000 0.00000000000000000 0.00000000000000000 -1.00000000000000000 
1 0.00000000000000000 0.00000000000000000 0.00000000000000000 -1.00000000000000000 
1 144.69999999999998863 0.00000000000000000 0.00000000000000000 -1.00000000000000000 
1 0.00000000000000000 0.00000000000000000 1.00000000000000000 0.00000000000000000 
1 0.00000000000000000 -122.00000000000001421 1.00000000000000000 0.00000000000000000 
1 87.40000000000000568 0.00000000000000000 0.00000000000000000 -1.00000000000000000 
1 0.00000000000000000 -0.00000000000000000 0.00000000000000000 -1.00000000000000000 
1 0.00000000000000000 0.00000000000000000 1.00000000000000000 0.00000000000000000 
1 0.00000000000000000 -122.00000000000001421 1.00000000000000000 0.00000000000000000 
1 0.00000000000000000 0.00000000000000000 0.00000000000000000 -1.00000000000000000 
1 144.69999999999998863 0.00000000000000000 0.00000000000000000 -1.00000000000000000 
1 0.00000000000000000 -0.00000000000000000 1.00000000000000000 0.00000000000000000 
1 0.00000000000000000 -122.00000000000001421 1.00000000000000000 0.00000000000000000 
1 0.00000000000000000 0.00000000000000000 1.00000000000000000 0.00000000000000000 
1 0.00000000000000000 -122.00000000000001421 1.00000000000000000 0.00000000000000000 
Curves 8
1 -43.70000000000001705 43.70000000000000284 -61.00000000000000711 0.00000000000000000 0.00000000000000000 1.00000000000000000 
1 100.99999999999997158 43.70000000000000284 -61.00000000000000711 0.00000000000000000 0.00000000000000000 1.00000000000000000 
1 -43.70000000000001705 43.70000000000000284 0.00000000000000000 1.00000000000000000 0.00000000000000000 0.00000000000000000 
1 100.99999999999997158 -43.70000000000000284 -61.00000000000000711 0.00000000000000000 0.00000000000000000 1.00000000000000000 
1 100.99999999999997158 43.70000000000000284 0.00000000000000000 0.00000000000000000 -1.00000000000000000 0.00000000000000000 
1 -43.70000000000001705 -43.70000000000000284 -61.00000000000000711 0.00000000000000000 0.00000000000000000 1.00000000000000000 
1 100.99999999999997158 -43.70000000000000284 0.00000000000000000 -1.00000000000000000 0.00000000000000000 0.00000000000000000 
1 -43.70000000000001705 -43.70000000000000284 0.00000000000000000 0.00000000000000000 1.00000000000000000 0.00000000000000000 
Polygon3D 0
PolygonOnTriangulations 0
Surfaces 5
1 -43.70000000000001705 43.70000000000000284 -61.00000000000000711 0.00000000000000000 1.00000000000000000 0.00000000000000000 1.00000000000000000 0.00000000000000000 0.00000000000000000 0.00000000000000000 0.00000000000000000 -1.00000000000000000 
1 -43.70000000000001705 -43.70000000000000284 -61.00000000000000711 -1.00000000000000000 0.00000000000000000 0.00000000000000000 0.00000000000000000 1.00000000000000000 0.00000000000000000 0.00000000000000000 0.00000000000000000 -1.00000000000000000 
1 100.99999999999997158 43.70000000000000284 -61.00000000000000711 1.00000000000000000 0.00000000000000000 -0.00000000000000000 0.00000000000000000 -1.00000000000000000 0.00000000000000000 0.00000000000000000 -0.00000000000000000 -1.00000000000000000 
1 100.99999999999997158 -43.70000000000000284 -61.00000000000000711 0.00000000000000000 -1.00000000000000000 0.00000000000000000 -1.00000000000000000 0.00000000000000000 0.00000000000000000 -0.00000000000000000 -0.00000000000000000 -1.00000000000000000 
1 28.64999999999998437 -0.00000000000000196 0.00000000000000000 -0.00000000000000000 -0.00000000000000000 -1.00000000000000000 -1.00000000000000000 0.00000000000000000 0.00000000000000000 0.00000000000000000 1.00000000000000000 -0.00000000000000000 
Triangulations 0

TShapes 24
Ve
0.000000100000000
-43.700000000000017 43.700000000000003 0.000000000000000
0 0

0101101
*
Ed
 0.000000100000000 1 1 0
1  1 0 0.000000000000000 122.000000000000014
2  1 2 0 0.000000000000000 122.000000000000014
2  2 1 0 0.000000000000000 122.000000000000014
0

0101000
+24 6 -24 8 *
Ve
0.000000100000000
100.999999999999972 43.700000000000003 0.000000000000000
0 0

0101101
*
Ed
 0.000000100000000 1 1 0
1  2 0 0.000000000000000 122.000000000000014
2  3 3 0 0.000000000000000 122.000000000000014
2  4 1 0 0.000000000000000 122.000000000000014
0

0101000
+22 6 -22 8 *
Ed
 0.000000100000000 1 1 0
1  3 0 0.000000000000000 144.699999999999989
2  5 1 9 0.000000000000000 144.699999999999989
2  6 1 10 0.000000000000000 144.699999999999989
0

0101000
+24 0 -22 0 *
Wi

0101100
+23 0 -21 0 -20 6 +20 8 *
Fa
0  0.000000100000000 1 0

0101000
+19 0 *
Ve
0.000000100000000
100.999999999999972 -43.700000000000003 0.000000000000000
0 0

0101101
*
Ed
 0.000000100000000 1 1 0
1  4 0 0.000000000000000 122.000000000000014
2  7 3 0 0.000000000000000 122.000000000000014
2  8 4 0 0.000000000000000 122.000000000000014
0

0101000
+17 6 -17 8 *
Ed
 0.000000100000000 1 1 0
1  5 0 0.000000000000000 87.400000000000006
2  9 3 9 0.000000000000000 87.400000000000006
2  10 3 10 0.000000000000000 87.400000000000006
0

0101000
+22 0 -17 0 *
Wi

0101100
+21 0 -16 0 -15 6 +15 8 *
Fa
0  0.000000100000000 3 0

0101000
+14 0 *
Ve
0.000000100000000
-43.700000000000017 -43.700000000000003 0.000000000000000
0 0

0101101
*
Ed
 0.000000100000000 1 1 0
1  6 0 0.000000000000000 122.000000000000014
2  11 2 0 0.000000000000000 122.000000000000014
2  12 4 0 0.000000000000000 122.000000000000014
0

0101000
+12 6 -12 8 *
Ed
 0.000000100000000 1 1 0
1  7 0 0.000000000000000 144.699999999999989
2  13 4 9 0.000000000000000 144.699999999999989
2  14 4 10 0.000000000000000 144.699999999999989
0

0101000
+17 0 -12 0 *
Wi

0101100
+16 0 -11 0 -10 6 +10 8 *
Fa
0  0.000000100000000 4 0

0101000
+9 0 *
Ed
 0.000000100000000 1 1 0
1  8 0 0.000000000000000 87.400000000000006
2  15 2 9 0.000000000000000 87.400000000000006
2  16 2 10 0.000000000000000 87.400000000000006
0

0101000
+12 0 -24 0 *
Wi

0101100
+11 0 -23 0 -7 6 +7 8 *
Fa
0  0.000000100000000 2 0

0101000
+6 0 *
Wi

0101100
+20 0 +15 0 +10 0 +7 0 *
Fa
0  0.000000100000000 5 0

0101000
+4 12 *
Sh

0101100
+18 0 +13 0 +8 0 +5 0 +3 11 -3 13 *
So

1100000
+2 0 *

+1 1 