
CASCADE Topology V1, (c) Matra-Datavision
Locations 26
1
1.000000000000000 0.000000000000000 0.000000000000000 0.000000000000000 
0.000000000000000 1.000000000000000 0.000000000000000 0.000000000000000 
0.000000000000000 0.000000000000000 1.000000000000000 0.000000000000000 
1
1.000000000000000 0.000000000000000 0.000000000000000 0.000000000000000 
0.000000000000000 1.000000000000000 0.000000000000000 0.000000000000000 
0.000000000000000 0.000000000000000 1.000000000000000 0.000000000000000 
1
1.000000000000000 0.000000000000000 0.000000000000000 0.000000000000000 
0.000000000000000 1.000000000000000 0.000000000000000 0.000000000000000 
0.000000000000000 0.000000000000000 1.000000000000000 0.000000000000000 
2  2 1 3 -1 0
1
1.000000000000000 0.000000000000000 0.000000000000000 0.000000000000000 
0.000000000000000 1.000000000000000 0.000000000000000 0.000000000000000 
0.000000000000000 0.000000000000000 1.000000000000000 0.000000000000000 
1
1.000000000000000 0.000000000000000 0.000000000000000 0.000000000000000 
0.000000000000000 1.000000000000000 0.000000000000000 0.000000000000000 
0.000000000000000 0.000000000000000 1.000000000000000 0.000000000000000 
1
1.000000000000000 0.000000000000000 0.000000000000000 0.000000000000000 
0.000000000000000 1.000000000000000 0.000000000000000 0.000000000000000 
0.000000000000000 0.000000000000000 1.000000000000000 0.000000000000000 
1
1.000000000000000 0.000000000000000 0.000000000000000 -0.000000000000000 
0.000000000000000 1.000000000000000 0.000000000000000 -0.000000000000000 
0.000000000000000 0.000000000000000 1.000000000000000 -61.000000000000007 
2  5 1 6 1 7 -1 8 1 0
1
1.000000000000000 0.000000000000000 0.000000000000000 0.000000000000000 
0.000000000000000 1.000000000000000 0.000000000000000 0.000000000000000 
0.000000000000000 0.000000000000000 1.000000000000000 122.000000000000014 
2  5 1 6 1 7 -1 8 1 10 1 0
2  8 -1 7 1 6 -1 5 -1 0
2  10 -1 8 -1 7 1 6 -1 5 -1 0
2  5 1 6 1 7 -1 8 1 2 1 3 -1 0
2  5 1 6 1 7 -1 8 1 10 1 2 1 3 -1 0
1
1.000000000000000 0.000000000000000 0.000000000000000 0.000000000000000 
0.000000000000000 1.000000000000000 0.000000000000000 0.000000000000000 
0.000000000000000 0.000000000000000 1.000000000000000 0.000000000000000 
1
0.000000000000000 0.000000000000000 1.000000000000000 100.999999999999972 
1.000000000000000 0.000000000000000 0.000000000000000 0.000000000000000 
0.000000000000000 1.000000000000000 0.000000000000000 0.000000000000000 
2  16 1 17 1 3 -1 0
2  3 1 17 -1 16 -1 0
1
1.000000000000000 0.000000000000000 0.000000000000000 -421.114773357572972 
0.000000000000000 1.000000000000000 0.000000000000000 -0.000000000000000 
0.000000000000000 0.000000000000000 1.000000000000000 -0.000000000000000 
2  20 -1 3 1 17 -1 16 -1 0
2  17 -1 16 -1 0
2  2 1 17 -1 16 -1 0
2  7 -1 8 1 2 1 3 -1 0
2  5 1 6 1 0
2  7 -1 8 1 10 1 2 1 3 -1 0
Curve2ds 48
1 87.40000000000000568 0.00000000000000000 0.00000000000000000 -1.00000000000000000 
1 0.00000000000000000 0.00000000000000000 0.00000000000000000 -1.00000000000000000 
1 0.00000000000000000 0.00000000000000000 0.00000000000000000 -1.00000000000000000 
1 144.69999999999998863 0.00000000000000000 0.00000000000000000 -1.00000000000000000 
1 0.00000000000000000 0.00000000000000000 1.00000000000000000 0.00000000000000000 
1 0.00000000000000000 -122.00000000000001421 1.00000000000000000 0.00000000000000000 
1 0.00000000000000000 0.00000000000000000 0.00000000000000000 -1.00000000000000000 
1 144.69999999999998863 0.00000000000000000 0.00000000000000000 -1.00000000000000000 
1 0.00000000000000000 0.00000000000000000 1.00000000000000000 0.00000000000000000 
1 0.00000000000000000 -122.00000000000001421 1.00000000000000000 0.00000000000000000 
2 12.69999999999999929 -96.60000000000002274 1.00000000000000000 0.00000000000000000 0.00000000000000000 -1.00000000000000000 3.96875000000000000
1 0.00000000000000000 -144.69999999999998863 1.00000000000000000 0.00000000000000000 
2 74.70000000000000284 -96.60000000000002274 1.00000000000000000 0.00000000000000000 0.00000000000000000 -1.00000000000000000 3.96875000000000000
1 0.00000000000000000 -144.69999999999998863 1.00000000000000000 0.00000000000000000 
2 12.69999999999999929 -25.39999999999999858 1.00000000000000000 0.00000000000000000 0.00000000000000000 -1.00000000000000000 3.96875000000000000
1 0.00000000000000000 -144.69999999999998863 1.00000000000000000 0.00000000000000000 
2 74.70000000000000284 -25.39999999999999858 1.00000000000000000 0.00000000000000000 0.00000000000000000 -1.00000000000000000 3.96875000000000000
1 0.00000000000000000 -144.69999999999998863 1.00000000000000000 0.00000000000000000 
1 0.00000000000000000 0.00000000000000000 1.00000000000000000 0.00000000000000000 
1 0.00000000000000000 -122.00000000000001421 1.00000000000000000 0.00000000000000000 
1 87.40000000000000568 0.00000000000000000 0.00000000000000000 -1.00000000000000000 
1 0.00000000000000000 -0.00000000000000000 0.00000000000000000 -1.00000000000000000 
1 0.00000000000000000 0.00000000000000000 1.00000000000000000 0.00000000000000000 
1 0.00000000000000000 -421.11477335757297169 1.00000000000000000 0.00000000000000000 
2 0.00000000000000000 0.00000000000000000 0.00000000000000000 -1.00000000000000000 1.00000000000000000 0.00000000000000000 3.96874999999999645
2 12.69999999999999929 -96.60000000000002274 -1.00000000000000000 -0.00000000000000000 0.00000000000000000 -1.00000000000000000 3.96874999999999645
1 0.00000000000000000 0.00000000000000000 1.00000000000000000 0.00000000000000000 
1 0.00000000000000000 -421.11477335757297169 1.00000000000000000 0.00000000000000000 
2 0.00000000000000711 0.00000000000000000 0.00000000000000000 -1.00000000000000000 1.00000000000000000 0.00000000000000000 3.96875000000000000
2 74.70000000000000284 -96.60000000000002274 -1.00000000000000000 -0.00000000000000000 0.00000000000000000 -1.00000000000000000 3.96875000000000000
1 0.00000000000000000 0.00000000000000000 1.00000000000000000 0.00000000000000000 
1 0.00000000000000000 -421.11477335757297169 1.00000000000000000 0.00000000000000000 
2 0.00000000000000000 0.00000000000000000 0.00000000000000000 -1.00000000000000000 1.00000000000000000 0.00000000000000000 3.96874999999999645
2 12.69999999999999929 -25.39999999999999858 -1.00000000000000000 -0.00000000000000000 0.00000000000000000 -1.00000000000000000 3.96874999999999645
1 0.00000000000000000 0.00000000000000000 1.00000000000000000 0.00000000000000000 
1 0.00000000000000000 -421.11477335757297169 1.00000000000000000 0.00000000000000000 
2 -0.00000000000000711 0.00000000000000000 0.00000000000000000 -1.00000000000000000 1.00000000000000000 0.00000000000000000 3.96875000000000000
2 74.70000000000000284 -25.39999999999999858 -1.00000000000000000 -0.00000000000000000 0.00000000000000000 -1.00000000000000000 3.96875000000000000
1 0.00000000000000000 -0.00000000000000000 1.00000000000000000 0.00000000000000000 
1 0.00000000000000000 -122.00000000000001421 1.00000000000000000 0.00000000000000000 
1 0.00000000000000000 0.00000000000000000 0.00000000000000000 -1.00000000000000000 
1 6.28318530717958623 0.00000000000000000 0.00000000000000000 -1.00000000000000000 
1 0.00000000000000000 0.00000000000000000 0.00000000000000000 -1.00000000000000000 
1 6.28318530717958623 0.00000000000000000 0.00000000000000000 -1.00000000000000000 
1 0.00000000000000000 0.00000000000000000 0.00000000000000000 -1.00000000000000000 
1 6.28318530717958623 0.00000000000000000 0.00000000000000000 -1.00000000000000000 
1 0.00000000000000000 0.00000000000000000 0.00000000000000000 -1.00000000000000000 
1 6.28318530717958623 0.00000000000000000 0.00000000000000000 -1.00000000000000000 
Curves 20
1 -43.70000000000001705 43.70000000000000284 -61.00000000000000711 0.00000000000000000 0.00000000000000000 1.00000000000000000 
1 100.99999999999997158 43.70000000000000284 -61.00000000000000711 0.00000000000000000 0.00000000000000000 1.00000000000000000 
1 -43.70000000000001705 43.70000000000000284 0.00000000000000000 1.00000000000000000 0.00000000000000000 0.00000000000000000 
1 -43.70000000000001705 -43.70000000000000284 -61.00000000000000711 0.00000000000000000 0.00000000000000000 1.00000000000000000 
1 -43.70000000000001705 -43.70000000000000284 0.00000000000000000 0.00000000000000000 1.00000000000000000 0.00000000000000000 
2 -43.70000000000001705 -31.00000000000000355 35.60000000000000853 1.00000000000000000 0.00000000000000000 0.00000000000000000 -0.00000000000000000 1.00000000000000000 0.00000000000000000 0.00000000000000000 -0.00000000000000000 1.00000000000000000 3.96875000000000000
2 -43.70000000000001705 31.00000000000000355 35.60000000000000853 1.00000000000000000 0.00000000000000000 0.00000000000000000 -0.00000000000000000 1.00000000000000000 0.00000000000000000 0.00000000000000000 -0.00000000000000000 1.00000000000000000 3.96875000000000000
2 -43.70000000000001705 -31.00000000000000355 -35.60000000000000853 1.00000000000000000 0.00000000000000000 0.00000000000000000 -0.00000000000000000 1.00000000000000000 0.00000000000000000 0.00000000000000000 -0.00000000000000000 1.00000000000000000 3.96875000000000000
2 -43.70000000000001705 31.00000000000000355 -35.60000000000000853 1.00000000000000000 0.00000000000000000 0.00000000000000000 -0.00000000000000000 1.00000000000000000 0.00000000000000000 0.00000000000000000 -0.00000000000000000 1.00000000000000000 3.96875000000000000
1 100.99999999999997158 43.70000000000000284 0.00000000000000000 0.00000000000000000 -1.00000000000000000 0.00000000000000000 
1 100.99999999999997158 -43.70000000000000284 -61.00000000000000711 0.00000000000000000 0.00000000000000000 1.00000000000000000 
2 31.00000000000000355 35.60000000000000853 0.00000000000000000 0.00000000000000000 0.00000000000000000 1.00000000000000000 1.00000000000000000 0.00000000000000000 -0.00000000000000000 -0.00000000000000000 1.00000000000000000 0.00000000000000000 3.96875000000000000
2 -31.00000000000000355 35.60000000000000853 0.00000000000000000 0.00000000000000000 0.00000000000000000 1.00000000000000000 1.00000000000000000 0.00000000000000000 -0.00000000000000000 -0.00000000000000000 1.00000000000000000 0.00000000000000000 3.96875000000000000
2 31.00000000000000355 -35.60000000000000853 0.00000000000000000 0.00000000000000000 0.00000000000000000 1.00000000000000000 1.00000000000000000 0.00000000000000000 -0.00000000000000000 -0.00000000000000000 1.00000000000000000 0.00000000000000000 3.96875000000000000
2 -31.00000000000000355 -35.60000000000000853 0.00000000000000000 0.00000000000000000 0.00000000000000000 1.00000000000000000 1.00000000000000000 0.00000000000000000 -0.00000000000000000 -0.00000000000000000 1.00000000000000000 0.00000000000000000 3.96875000000000000
1 100.99999999999997158 -43.70000000000000284 0.00000000000000000 -1.00000000000000000 0.00000000000000000 0.00000000000000000 
1 100.99999999999997158 -27.03125000000000355 35.60000000000000853 -1.00000000000000000 -0.00000000000000000 -0.00000000000000000 
1 100.99999999999997158 34.96875000000000000 35.60000000000000853 -1.00000000000000000 -0.00000000000000000 -0.00000000000000000 
1 100.99999999999997158 -27.03125000000000355 -35.60000000000000853 -1.00000000000000000 -0.00000000000000000 -0.00000000000000000 
1 100.99999999999997158 34.96875000000000000 -35.60000000000000853 -1.00000000000000000 -0.00000000000000000 -0.00000000000000000 
Polygon3D 0
PolygonOnTriangulations 0
Surfaces 13
1 -43.70000000000001705 43.70000000000000284 -61.00000000000000711 0.00000000000000000 1.00000000000000000 0.00000000000000000 1.00000000000000000 0.00000000000000000 0.00000000000000000 0.00000000000000000 0.00000000000000000 -1.00000000000000000 
1 -43.70000000000001705 -43.70000000000000284 -61.00000000000000711 -1.00000000000000000 0.00000000000000000 0.00000000000000000 0.00000000000000000 1.00000000000000000 0.00000000000000000 0.00000000000000000 0.00000000000000000 -1.00000000000000000 
1 100.99999999999997158 43.70000000000000284 -61.00000000000000711 1.00000000000000000 0.00000000000000000 -0.00000000000000000 0.00000000000000000 -1.00000000000000000 0.00000000000000000 0.00000000000000000 -0.00000000000000000 -1.00000000000000000 
1 100.99999999999997158 -43.70000000000000284 -61.00000000000000711 0.00000000000000000 -1.00000000000000000 0.00000000000000000 -1.00000000000000000 0.00000000000000000 0.00000000000000000 -0.00000000000000000 -0.00000000000000000 -1.00000000000000000 
2 100.99999999999997158 -31.00000000000000355 35.60000000000000853 1.00000000000000000 0.00000000000000000 0.00000000000000000 -0.00000000000000000 1.00000000000000000 0.00000000000000000 0.00000000000000000 -0.00000000000000000 1.00000000000000000 3.96875000000000000
2 100.99999999999997158 31.00000000000000355 35.60000000000000853 1.00000000000000000 0.00000000000000000 0.00000000000000000 -0.00000000000000000 1.00000000000000000 0.00000000000000000 0.00000000000000000 -0.00000000000000000 1.00000000000000000 3.96875000000000000
2 100.99999999999997158 -31.00000000000000355 -35.60000000000000853 1.00000000000000000 0.00000000000000000 0.00000000000000000 -0.00000000000000000 1.00000000000000000 0.00000000000000000 0.00000000000000000 -0.00000000000000000 1.00000000000000000 3.96875000000000000
2 100.99999999999997158 31.00000000000000355 -35.60000000000000853 1.00000000000000000 0.00000000000000000 0.00000000000000000 -0.00000000000000000 1.00000000000000000 0.00000000000000000 0.00000000000000000 -0.00000000000000000 1.00000000000000000 3.96875000000000000
1 100.99999999999997158 31.00000000000000355 35.60000000000000853 1.00000000000000000 0.00000000000000000 0.00000000000000000 -0.00000000000000000 0.00000000000000000 1.00000000000000000 0.00000000000000000 -1.00000000000000000 0.00000000000000000 
1 100.99999999999994316 -31.00000000000000355 35.60000000000000142 1.00000000000000000 -0.00000000000000000 -0.00000000000000000 0.00000000000000000 0.00000000000000000 1.00000000000000000 0.00000000000000000 -1.00000000000000000 0.00000000000000000 
1 100.99999999999997158 31.00000000000000355 -35.60000000000000853 1.00000000000000000 0.00000000000000000 0.00000000000000000 -0.00000000000000000 0.00000000000000000 1.00000000000000000 0.00000000000000000 -1.00000000000000000 0.00000000000000000 
1 100.99999999999994316 -31.00000000000000355 -35.60000000000000142 1.00000000000000000 -0.00000000000000000 0.00000000000000000 -0.00000000000000000 0.00000000000000000 1.00000000000000000 -0.00000000000000000 -1.00000000000000000 0.00000000000000000 
1 28.64999999999998437 -0.00000000000000196 0.00000000000000000 -0.00000000000000000 -0.00000000000000000 -1.00000000000000000 -1.00000000000000000 0.00000000000000000 0.00000000000000000 0.00000000000000000 1.00000000000000000 -0.00000000000000000 
Triangulations 0

TShapes 60
Ve
0.000000100000000
-43.700000000000017 43.700000000000003 0.000000000000000
0 0

0101101
*
Ed
 0.000000100000000 1 1 0
1  1 0 0.000000000000000 122.000000000000014
2  1 2 0 0.000000000000000 122.000000000000014
2  2 1 0 0.000000000000000 122.000000000000014
0

0101000
+60 9 -60 11 *
Ve
0.000000100000000
100.999999999999972 43.700000000000003 0.000000000000000
0 0

0101101
*
Ed
 0.000000100000000 1 1 0
1  2 0 0.000000000000000 122.000000000000014
2  3 3 0 0.000000000000000 122.000000000000014
2  4 1 0 0.000000000000000 122.000000000000014
0

0101000
+58 9 -58 11 *
Ed
 0.000000100000000 1 1 0
1  3 0 0.000000000000000 144.699999999999989
2  5 1 12 0.000000000000000 144.699999999999989
2  6 1 13 0.000000000000000 144.699999999999989
0

0101000
+60 0 -58 0 *
Wi

0101100
+59 0 -57 0 -56 9 +56 11 *
Fa
0  0.000000100000000 1 0

0101000
+55 0 *
Ve
0.000000100000000
-43.700000000000017 -43.700000000000003 0.000000000000000
0 0

0101101
*
Ed
 0.000000100000000 1 1 0
1  4 0 0.000000000000000 122.000000000000014
2  7 2 0 0.000000000000000 122.000000000000014
2  8 4 0 0.000000000000000 122.000000000000014
0

0101000
+53 9 -53 11 *
Ed
 0.000000100000000 1 1 0
1  5 0 0.000000000000000 87.400000000000006
2  9 2 12 0.000000000000000 87.400000000000006
2  10 2 13 0.000000000000000 87.400000000000006
0

0101000
+53 0 -60 0 *
Wi

0101100
+52 4 -51 14 +51 15 -59 4 *
Ve
0.000000100000000
-43.700000000000017 -27.031250000000004 35.600000000000009
0 0

0101101
*
Ed
 0.000000100000000 1 1 0
1  6 0 0.000000000000000 6.283185307179586
2  11 2 4 0.000000000000000 6.283185307179586
2  12 5 0 0.000000000000000 6.283185307179586
0

0101000
+49 0 -49 0 *
Wi

0101100
+48 0 *
Ve
0.000000100000000
-43.700000000000017 34.968750000000000 35.600000000000009
0 0

0101101
*
Ed
 0.000000100000000 1 1 0
1  7 0 0.000000000000000 6.283185307179586
2  13 2 4 0.000000000000000 6.283185307179586
2  14 6 0 0.000000000000000 6.283185307179586
0

0101000
+46 0 -46 0 *
Wi

0101100
+45 0 *
Ve
0.000000100000000
-43.700000000000017 -27.031250000000004 -35.600000000000009
0 0

0101101
*
Ed
 0.000000100000000 1 1 0
1  8 0 0.000000000000000 6.283185307179586
2  15 2 4 0.000000000000000 6.283185307179586
2  16 7 0 0.000000000000000 6.283185307179586
0

0101000
+43 0 -43 0 *
Wi

0101100
+42 0 *
Ve
0.000000100000000
-43.700000000000017 34.968750000000000 -35.600000000000009
0 0

0101101
*
Ed
 0.000000100000000 1 1 0
1  9 0 0.000000000000000 6.283185307179586
2  17 2 4 0.000000000000000 6.283185307179586
2  18 8 0 0.000000000000000 6.283185307179586
0

0101000
+40 0 -40 0 *
Wi

0101100
+39 0 *
Fa
0  0.000000100000000 2 4

0101000
+50 0 +47 0 +44 0 +41 0 +38 0 *
Ve
0.000000100000000
100.999999999999972 -43.700000000000003 0.000000000000000
0 0

0101101
*
Ed
 0.000000100000000 1 1 0
1  10 0 0.000000000000000 87.400000000000006
2  19 3 12 0.000000000000000 87.400000000000006
2  20 3 13 0.000000000000000 87.400000000000006
0

0101000
+58 0 -36 0 *
Ed
 0.000000100000000 1 1 0
1  11 0 0.000000000000000 122.000000000000014
2  21 3 0 0.000000000000000 122.000000000000014
2  22 4 0 0.000000000000000 122.000000000000014
0

0101000
+36 9 -36 11 *
Wi

0101100
+57 4 -35 14 +35 15 -34 4 *
Ve
0.000000100000000
34.968750000000000 35.600000000000009 0.000000000000000
0 0

0101101
*
Ed
 0.000000100000000 1 1 0
1  12 0 0.000000000000000 6.283185307179586
2  23 6 19 0.000000000000000 6.283185307179586
2  24 6 21 0.000000000000000 6.283185307179586
2  25 9 22 0.000000000000000 6.283185307179586
2  26 3 23 0.000000000000000 6.283185307179586
0

0101000
+32 0 -32 0 *
Wi

0101100
-31 18 *
Ve
0.000000100000000
-27.031250000000004 35.600000000000009 0.000000000000000
0 0

0101101
*
Ed
 0.000000100000000 1 1 0
1  13 0 0.000000000000000 6.283185307179586
2  27 5 19 0.000000000000000 6.283185307179586
2  28 5 21 0.000000000000000 6.283185307179586
2  29 10 22 0.000000000000000 6.283185307179586
2  30 3 23 0.000000000000000 6.283185307179586
0

0101000
+29 0 -29 0 *
Wi

0101100
-28 18 *
Ve
0.000000100000000
34.968750000000000 -35.600000000000009 0.000000000000000
0 0

0101101
*
Ed
 0.000000100000000 1 1 0
1  14 0 0.000000000000000 6.283185307179586
2  31 8 19 0.000000000000000 6.283185307179586
2  32 8 21 0.000000000000000 6.283185307179586
2  33 11 22 0.000000000000000 6.283185307179586
2  34 3 23 0.000000000000000 6.283185307179586
0

0101000
+26 0 -26 0 *
Wi

0101100
-25 18 *
Ve
0.000000100000000
-27.031250000000004 -35.600000000000009 0.000000000000000
0 0

0101101
*
Ed
 0.000000100000000 1 1 0
1  15 0 0.000000000000000 6.283185307179586
2  35 7 19 0.000000000000000 6.283185307179586
2  36 7 21 0.000000000000000 6.283185307179586
2  37 12 22 0.000000000000000 6.283185307179586
2  38 3 23 0.000000000000000 6.283185307179586
0

0101000
+23 0 -23 0 *
Wi

0101100
-22 18 *
Fa
0  0.000000100000000 3 4

0101000
+33 0 +30 0 +27 0 +24 0 +21 0 *
Ed
 0.000000100000000 1 1 0
1  16 0 0.000000000000000 144.699999999999989
2  39 4 12 0.000000000000000 144.699999999999989
2  40 4 13 0.000000000000000 144.699999999999989
0

0101000
+36 0 -53 0 *
Wi

0101100
+56 0 +35 0 +19 0 +51 0 *
Fa
0  0.000000100000000 13 0

0101000
+18 25 *
Wi

0101100
+34 0 -52 0 -19 9 +19 11 *
Fa
0  0.000000100000000 4 0

0101000
+16 0 *
Ed
 0.000000100000000 1 1 0
1  17 0 0.000000000000000 144.699999999999989
3  41 42CN 5 0 0.000000000000000 144.699999999999989
0

0101000
+29 18 -49 0 *
Wi

0101100
-28 18 -14 0 +48 0 +14 0 *
Fa
0  0.000000100000000 5 0

0101000
+13 0 *
Ed
 0.000000100000000 1 1 0
1  18 0 0.000000000000000 144.699999999999989
3  43 44CN 6 0 0.000000000000000 144.699999999999989
0

0101000
+32 18 -46 0 *
Wi

0101100
-31 18 -11 0 +45 0 +11 0 *
Fa
0  0.000000100000000 6 0

0101000
+10 0 *
Ed
 0.000000100000000 1 1 0
1  19 0 0.000000000000000 144.699999999999989
3  45 46CN 7 0 0.000000000000000 144.699999999999989
0

0101000
+23 18 -43 0 *
Wi

0101100
-22 18 -8 0 +42 0 +8 0 *
Fa
0  0.000000100000000 7 0

0101000
+7 0 *
Ed
 0.000000100000000 1 1 0
1  20 0 0.000000000000000 144.699999999999989
3  47 48CN 8 0 0.000000000000000 144.699999999999989
0

0101000
+26 18 -40 0 *
Wi

0101100
-25 18 -5 0 +39 0 +5 0 *
Fa
0  0.000000100000000 8 0

0101000
+4 0 *
Sh

0101100
+54 4 +37 0 +20 0 +17 24 -17 26 +15 4 -12 0 -9 0 -6 0 -3 0 
*
So

0100000
+2 0 *

+1 1 