
CASCADE Topology V1, (c) Matra-Datavision
Locations 26
1
1.000000000000000 0.000000000000000 0.000000000000000 0.000000000000000 
0.000000000000000 1.000000000000000 0.000000000000000 0.000000000000000 
0.000000000000000 0.000000000000000 1.000000000000000 0.000000000000000 
1
1.000000000000000 0.000000000000000 0.000000000000000 0.000000000000000 
0.000000000000000 1.000000000000000 0.000000000000000 0.000000000000000 
0.000000000000000 0.000000000000000 1.000000000000000 0.000000000000000 
1
1.000000000000000 0.000000000000000 0.000000000000000 0.000000000000000 
0.000000000000000 1.000000000000000 0.000000000000000 0.000000000000000 
0.000000000000000 0.000000000000000 1.000000000000000 0.000000000000000 
2  2 1 3 -1 0
1
1.000000000000000 0.000000000000000 0.000000000000000 0.000000000000000 
0.000000000000000 1.000000000000000 0.000000000000000 0.000000000000000 
0.000000000000000 0.000000000000000 1.000000000000000 0.000000000000000 
2  5 -1 3 1 2 -1 0
1
1.000000000000000 0.000000000000000 0.000000000000000 0.000000000000000 
0.000000000000000 1.000000000000000 0.000000000000000 0.000000000000000 
0.000000000000000 0.000000000000000 1.000000000000000 0.000000000000000 
1
1.000000000000000 0.000000000000000 0.000000000000000 0.000000000000000 
0.000000000000000 1.000000000000000 0.000000000000000 0.000000000000000 
0.000000000000000 0.000000000000000 1.000000000000000 0.000000000000000 
1
1.000000000000000 0.000000000000000 0.000000000000000 0.000000000000000 
0.000000000000000 1.000000000000000 0.000000000000000 0.000000000000000 
0.000000000000000 0.000000000000000 1.000000000000000 0.000000000000000 
1
1.000000000000000 0.000000000000000 0.000000000000000 -0.000000000000000 
0.000000000000000 1.000000000000000 0.000000000000000 -0.000000000000000 
0.000000000000000 0.000000000000000 1.000000000000000 -61.000000000000007 
2  7 1 8 1 9 -1 10 1 0
2  5 -1 3 1 2 -1 10 -1 9 1 8 -1 7 -1 0
1
1.000000000000000 0.000000000000000 0.000000000000000 0.000000000000000 
0.000000000000000 1.000000000000000 0.000000000000000 0.000000000000000 
0.000000000000000 0.000000000000000 1.000000000000000 122.000000000000014 
2  7 1 8 1 9 -1 10 1 13 1 0
2  5 -1 3 1 2 -1 13 -1 10 -1 9 1 8 -1 7 -1 0
2  7 1 8 1 9 -1 10 1 2 1 3 -1 0
2  7 1 8 1 9 -1 10 1 13 1 2 1 3 -1 0
2  5 -1 0
1
1.000000000000000 0.000000000000000 0.000000000000000 0.000000000000000 
0.000000000000000 1.000000000000000 0.000000000000000 0.000000000000000 
0.000000000000000 0.000000000000000 1.000000000000000 0.000000000000000 
1
0.000000000000000 0.000000000000000 1.000000000000000 100.999999999999972 
1.000000000000000 0.000000000000000 0.000000000000000 0.000000000000000 
0.000000000000000 1.000000000000000 0.000000000000000 0.000000000000000 
2  19 1 20 1 3 -1 0
2  3 1 20 -1 19 -1 0
2  5 -1 3 1 20 -1 19 -1 0
2  9 -1 10 1 2 1 3 -1 0
2  7 1 8 1 0
2  9 -1 10 1 13 1 2 1 3 -1 0
Curve2ds 16
1 0.00000000000000000 -144.69999999999998863 1.00000000000000000 0.00000000000000000 
1 0.00000000000000000 -144.69999999999998863 1.00000000000000000 0.00000000000000000 
1 0.00000000000000000 -144.69999999999998863 1.00000000000000000 0.00000000000000000 
1 0.00000000000000000 -144.69999999999998863 1.00000000000000000 0.00000000000000000 
1 0.00000000000000000 0.00000000000000000 1.00000000000000000 0.00000000000000000 
1 0.00000000000000000 0.00000000000000000 1.00000000000000000 0.00000000000000000 
1 0.00000000000000000 0.00000000000000000 1.00000000000000000 0.00000000000000000 
1 0.00000000000000000 0.00000000000000000 1.00000000000000000 0.00000000000000000 
1 0.00000000000000000 0.00000000000000000 0.00000000000000000 -1.00000000000000000 
1 6.28318530717958623 0.00000000000000000 0.00000000000000000 -1.00000000000000000 
1 0.00000000000000000 0.00000000000000000 0.00000000000000000 -1.00000000000000000 
1 6.28318530717958623 0.00000000000000000 0.00000000000000000 -1.00000000000000000 
1 0.00000000000000000 0.00000000000000000 0.00000000000000000 -1.00000000000000000 
1 6.28318530717958623 0.00000000000000000 0.00000000000000000 -1.00000000000000000 
1 0.00000000000000000 0.00000000000000000 0.00000000000000000 -1.00000000000000000 
1 6.28318530717958623 0.00000000000000000 0.00000000000000000 -1.00000000000000000 
Curves 24
1 -43.70000000000001705 43.70000000000000284 -61.00000000000000711 0.00000000000000000 0.00000000000000000 1.00000000000000000 
1 100.99999999999997158 43.70000000000000284 -61.00000000000000711 0.00000000000000000 0.00000000000000000 1.00000000000000000 
1 -43.70000000000001705 43.70000000000000284 0.00000000000000000 1.00000000000000000 0.00000000000000000 0.00000000000000000 
1 -43.70000000000001705 43.70000000000000284 0.00000000000000000 1.00000000000000000 0.00000000000000000 0.00000000000000000 
1 -43.70000000000001705 -43.70000000000000284 -61.00000000000000711 0.00000000000000000 0.00000000000000000 1.00000000000000000 
1 -43.70000000000001705 -43.70000000000000284 0.00000000000000000 0.00000000000000000 1.00000000000000000 0.00000000000000000 
1 -43.70000000000001705 -43.70000000000000284 0.00000000000000000 0.00000000000000000 1.00000000000000000 0.00000000000000000 
2 -43.70000000000001705 -31.00000000000000355 35.60000000000000853 1.00000000000000000 0.00000000000000000 0.00000000000000000 0.00000000000000000 1.00000000000000000 0.00000000000000000 0.00000000000000000 0.00000000000000000 1.00000000000000000 3.96875000000000000
2 -43.70000000000001705 31.00000000000000355 35.60000000000000853 1.00000000000000000 0.00000000000000000 0.00000000000000000 0.00000000000000000 1.00000000000000000 0.00000000000000000 0.00000000000000000 0.00000000000000000 1.00000000000000000 3.96875000000000000
2 -43.70000000000001705 -31.00000000000000355 -35.60000000000000853 1.00000000000000000 0.00000000000000000 0.00000000000000000 0.00000000000000000 1.00000000000000000 0.00000000000000000 0.00000000000000000 0.00000000000000000 1.00000000000000000 3.96875000000000000
2 -43.70000000000001705 31.00000000000000355 -35.60000000000000853 1.00000000000000000 0.00000000000000000 0.00000000000000000 0.00000000000000000 1.00000000000000000 0.00000000000000000 0.00000000000000000 0.00000000000000000 1.00000000000000000 3.96875000000000000
1 100.99999999999997158 43.70000000000000284 0.00000000000000000 0.00000000000000000 -1.00000000000000000 0.00000000000000000 
1 100.99999999999997158 43.70000000000000284 0.00000000000000000 0.00000000000000000 -1.00000000000000000 0.00000000000000000 
1 100.99999999999997158 -43.70000000000000284 -61.00000000000000711 0.00000000000000000 0.00000000000000000 1.00000000000000000 
2 31.00000000000000355 35.60000000000000853 0.00000000000000000 0.00000000000000000 0.00000000000000000 1.00000000000000000 1.00000000000000000 0.00000000000000000 0.00000000000000000 0.00000000000000000 1.00000000000000000 0.00000000000000000 3.96875000000000000
2 -31.00000000000000355 35.60000000000000853 0.00000000000000000 0.00000000000000000 0.00000000000000000 1.00000000000000000 1.00000000000000000 0.00000000000000000 0.00000000000000000 0.00000000000000000 1.00000000000000000 0.00000000000000000 3.96875000000000000
2 31.00000000000000355 -35.60000000000000853 0.00000000000000000 0.00000000000000000 0.00000000000000000 1.00000000000000000 1.00000000000000000 0.00000000000000000 0.00000000000000000 0.00000000000000000 1.00000000000000000 0.00000000000000000 3.96875000000000000
2 -31.00000000000000355 -35.60000000000000853 0.00000000000000000 0.00000000000000000 0.00000000000000000 1.00000000000000000 1.00000000000000000 0.00000000000000000 0.00000000000000000 0.00000000000000000 1.00000000000000000 0.00000000000000000 3.96875000000000000
1 100.99999999999997158 -43.70000000000000284 0.00000000000000000 -1.00000000000000000 0.00000000000000000 0.00000000000000000 
1 100.99999999999997158 -43.70000000000000284 0.00000000000000000 -1.00000000000000000 0.00000000000000000 0.00000000000000000 
1 100.99999999999997158 -27.03125000000000355 35.60000000000000853 -1.00000000000000000 -0.00000000000000000 -0.00000000000000000 
1 100.99999999999997158 34.96875000000000000 35.60000000000000853 -1.00000000000000000 -0.00000000000000000 -0.00000000000000000 
1 100.99999999999997158 -27.03125000000000355 -35.60000000000000853 -1.00000000000000000 -0.00000000000000000 -0.00000000000000000 
1 100.99999999999997158 34.96875000000000000 -35.60000000000000853 -1.00000000000000000 -0.00000000000000000 -0.00000000000000000 
Polygon3D 0
PolygonOnTriangulations 0
Surfaces 10
1 -43.70000000000001705 43.70000000000000284 -61.00000000000000711 0.00000000000000000 1.00000000000000000 0.00000000000000000 1.00000000000000000 0.00000000000000000 0.00000000000000000 0.00000000000000000 0.00000000000000000 -1.00000000000000000 
1 -43.70000000000001705 -43.70000000000000284 -61.00000000000000711 -1.00000000000000000 0.00000000000000000 0.00000000000000000 0.00000000000000000 1.00000000000000000 0.00000000000000000 0.00000000000000000 0.00000000000000000 -1.00000000000000000 
2 100.99999999999997158 -31.00000000000000355 35.60000000000000853 1.00000000000000000 0.00000000000000000 0.00000000000000000 0.00000000000000000 1.00000000000000000 0.00000000000000000 0.00000000000000000 0.00000000000000000 1.00000000000000000 3.96875000000000000
2 100.99999999999997158 31.00000000000000355 35.60000000000000853 1.00000000000000000 0.00000000000000000 0.00000000000000000 0.00000000000000000 1.00000000000000000 0.00000000000000000 0.00000000000000000 0.00000000000000000 1.00000000000000000 3.96875000000000000
2 100.99999999999997158 -31.00000000000000355 -35.60000000000000853 1.00000000000000000 0.00000000000000000 0.00000000000000000 0.00000000000000000 1.00000000000000000 0.00000000000000000 0.00000000000000000 0.00000000000000000 1.00000000000000000 3.96875000000000000
2 100.99999999999997158 31.00000000000000355 -35.60000000000000853 1.00000000000000000 0.00000000000000000 0.00000000000000000 0.00000000000000000 1.00000000000000000 0.00000000000000000 0.00000000000000000 0.00000000000000000 1.00000000000000000 3.96875000000000000
1 100.99999999999997158 43.70000000000000284 -61.00000000000000711 1.00000000000000000 0.00000000000000000 0.00000000000000000 0.00000000000000000 -1.00000000000000000 0.00000000000000000 0.00000000000000000 0.00000000000000000 -1.00000000000000000 
1 28.64999999999998437 -0.00000000000000196 0.00000000000000000 -0.00000000000000000 -0.00000000000000000 -1.00000000000000000 -1.00000000000000000 0.00000000000000000 0.00000000000000000 0.00000000000000000 1.00000000000000000 0.00000000000000000 
1 28.64999999999998437 -0.00000000000000196 0.00000000000000000 -0.00000000000000000 -0.00000000000000000 -1.00000000000000000 -1.00000000000000000 0.00000000000000000 0.00000000000000000 0.00000000000000000 1.00000000000000000 0.00000000000000000 
1 100.99999999999997158 -43.70000000000000284 -61.00000000000000711 0.00000000000000000 -1.00000000000000000 0.00000000000000000 -1.00000000000000000 0.00000000000000000 0.00000000000000000 -0.00000000000000000 -0.00000000000000000 -1.00000000000000000 
Triangulations 0

TShapes 70
Ve
0.000000100000000
-43.700000000000017 43.700000000000003 -61.000000000000007
0 0

0101101
*
Ve
0.000000100000000
-43.700000000000017 43.700000000000003 61.000000000000007
0 0

0101101
*
Ed
 0.000000100000000 1 1 0
1  1 0 0.000000000000000 122.000000000000014
0

0101000
+70 6 -69 6 *
Ve
0.000000100000000
100.999999999999972 43.700000000000003 -61.000000000000007
0 0

0101101
*
Ve
0.000000100000000
100.999999999999972 43.700000000000003 61.000000000000007
0 0

0101101
*
Ed
 0.000000100000000 1 1 0
1  2 0 0.000000000000000 122.000000000000014
0

0101000
+67 6 -66 6 *
Ed
 0.000000100000000 1 1 0
1  3 0 0.000000000000000 144.699999999999989
0

0101000
+70 12 -67 12 *
Ed
 0.000000100000000 1 1 0
1  4 0 0.000000000000000 144.699999999999989
0

0101000
+69 15 -66 15 *
Wi

0101100
+68 0 -65 0 -64 11 +63 14 *
Fa
0  0.000000100000000 1 0

0111000
+62 0 *
Ve
0.000000100000000
-43.700000000000017 -43.700000000000003 -61.000000000000007
0 0

0101101
*
Ve
0.000000100000000
-43.700000000000017 -43.700000000000003 61.000000000000007
0 0

0101101
*
Ed
 0.000000100000000 1 1 0
1  5 0 0.000000000000000 122.000000000000014
0

0101000
+60 6 -59 6 *
Ed
 0.000000100000000 1 1 0
1  6 0 0.000000000000000 87.400000000000006
0

0101000
+60 12 -70 12 *
Ed
 0.000000100000000 1 1 0
1  7 0 0.000000000000000 87.400000000000006
0

0101000
+59 15 -69 15 *
Wi

0101100
+58 4 -57 16 +56 17 -68 4 *
Ve
0.000000100000000
-43.700000000000017 -27.031250000000004 35.600000000000009
0 0

0101101
*
Ed
 0.000000100000000 1 1 0
1  8 0 0.000000000000000 6.283185307179586
2  1 3 0 0.000000000000000 6.283185307179586
0

0101000
+54 18 -54 18 *
Wi

0101100
+53 0 *
Ve
0.000000100000000
-43.700000000000017 34.968750000000000 35.600000000000009
0 0

0101101
*
Ed
 0.000000100000000 1 1 0
1  9 0 0.000000000000000 6.283185307179586
2  2 4 0 0.000000000000000 6.283185307179586
0

0101000
+51 18 -51 18 *
Wi

0101100
+50 0 *
Ve
0.000000100000000
-43.700000000000017 -27.031250000000004 -35.600000000000009
0 0

0101101
*
Ed
 0.000000100000000 1 1 0
1  10 0 0.000000000000000 6.283185307179586
2  3 5 0 0.000000000000000 6.283185307179586
0

0101000
+48 18 -48 18 *
Wi

0101100
+47 0 *
Ve
0.000000100000000
-43.700000000000017 34.968750000000000 -35.600000000000009
0 0

0101101
*
Ed
 0.000000100000000 1 1 0
1  11 0 0.000000000000000 6.283185307179586
2  4 6 0 0.000000000000000 6.283185307179586
0

0101000
+45 18 -45 18 *
Wi

0101100
+44 0 *
Fa
0  0.000000100000000 2 4

0111000
+55 0 +52 0 +49 0 +46 0 +43 0 *
Ve
0.000000100000000
100.999999999999972 -43.700000000000003 -61.000000000000007
0 0

0101101
*
Ed
 0.000000100000000 1 1 0
1  12 0 0.000000000000000 87.400000000000006
0

0101000
+67 12 -41 12 *
Ve
0.000000100000000
100.999999999999972 -43.700000000000003 61.000000000000007
0 0

0101101
*
Ed
 0.000000100000000 1 1 0
1  13 0 0.000000000000000 87.400000000000006
0

0101000
+66 15 -39 15 *
Ed
 0.000000100000000 1 1 0
1  14 0 0.000000000000000 122.000000000000014
0

0101000
+41 6 -39 6 *
Wi

0101100
+65 4 -40 16 +38 17 -37 4 *
Ve
0.000000100000000
100.999999999999972 34.968750000000000 35.600000000000009
0 0

0101101
*
Ed
 0.000000100000000 1 1 0
1  15 0 0.000000000000000 6.283185307179586
2  5 4 22 0.000000000000000 6.283185307179586
0

0101000
+35 23 -35 23 *
Wi

0101100
-34 21 *
Ve
0.000000100000000
100.999999999999972 -27.031250000000004 35.600000000000009
0 0

0101101
*
Ed
 0.000000100000000 1 1 0
1  16 0 0.000000000000000 6.283185307179586
2  6 3 22 0.000000000000000 6.283185307179586
0

0101000
+32 23 -32 23 *
Wi

0101100
-31 21 *
Ve
0.000000100000000
100.999999999999972 34.968750000000000 -35.600000000000009
0 0

0101101
*
Ed
 0.000000100000000 1 1 0
1  17 0 0.000000000000000 6.283185307179586
2  7 6 22 0.000000000000000 6.283185307179586
0

0101000
+29 23 -29 23 *
Wi

0101100
-28 21 *
Ve
0.000000100000000
100.999999999999972 -27.031250000000004 -35.600000000000009
0 0

0101101
*
Ed
 0.000000100000000 1 1 0
1  18 0 0.000000000000000 6.283185307179586
2  8 5 22 0.000000000000000 6.283185307179586
0

0101000
+26 23 -26 23 *
Wi

0101100
-25 21 *
Fa
0  0.000000100000000 7 4

0111000
+36 0 +33 0 +30 0 +27 0 +24 0 *
Ed
 0.000000100000000 1 1 0
1  19 0 0.000000000000000 144.699999999999989
0

0101000
+41 12 -60 12 *
Wi

0101100
+64 0 +40 0 +22 0 +57 0 *
Fa
0  0.000000100000000 8 0

0111000
+21 25 *
Ed
 0.000000100000000 1 1 0
1  20 0 0.000000000000000 144.699999999999989
0

0101000
+39 15 -59 15 *
Wi

0101100
+63 0 +38 0 +19 0 +56 0 *
Fa
0  0.000000100000000 9 0

0111000
+18 25 *
Wi

0101100
+37 0 -58 0 -22 11 +19 14 *
Fa
0  0.000000100000000 10 0

0111000
+16 0 *
Ed
 0.000000100000000 1 1 0
1  21 0 0.000000000000000 144.699999999999989
3  9 10CN 3 0 0.000000000000000 144.699999999999989
0

0101000
+32 18 -54 18 *
Wi

0101100
-31 21 -14 0 +53 0 +14 0 *
Fa
0  0.000000100000000 3 0

0111000
+13 0 *
Ed
 0.000000100000000 1 1 0
1  22 0 0.000000000000000 144.699999999999989
3  11 12CN 4 0 0.000000000000000 144.699999999999989
0

0101000
+35 18 -51 18 *
Wi

0101100
-34 21 -11 0 +50 0 +11 0 *
Fa
0  0.000000100000000 4 0

0111000
+10 0 *
Ed
 0.000000100000000 1 1 0
1  23 0 0.000000000000000 144.699999999999989
3  13 14CN 5 0 0.000000000000000 144.699999999999989
0

0101000
+26 18 -48 18 *
Wi

0101100
-25 21 -8 0 +47 0 +8 0 *
Fa
0  0.000000100000000 5 0

0111000
+7 0 *
Ed
 0.000000100000000 1 1 0
1  24 0 0.000000000000000 144.699999999999989
3  15 16CN 6 0 0.000000000000000 144.699999999999989
0

0101000
+29 18 -45 18 *
Wi

0101100
-28 21 -5 0 +44 0 +5 0 *
Fa
0  0.000000100000000 6 0

0111000
+4 0 *
Sh

0101100
+61 4 +42 0 +23 0 +20 24 -17 26 +15 4 -12 0 -9 0 -6 0 -3 0 
*
So

1100000
+2 0 *

+1 1 