
CASCADE Topology V1, (c) Matra-Datavision
Locations 1
1
1.000000000000000 0.000000000000000 0.000000000000000 0.000000000000000 
0.000000000000000 1.000000000000000 0.000000000000000 0.000000000000000 
0.000000000000000 0.000000000000000 1.000000000000000 0.000000000000000 
Curve2ds 83
2 0.00000000000000000 0.00000000000000000 -1.00000000000000000 0.00000000000000000 0.00000000000000000 1.00000000000000000 6.34999999999999964
1 0.00000000000000000 0.00000000000000000 1.00000000000000000 0.00000000000000000 
1 6.28318530717958623 0.00000000000000000 0.00000000000000000 1.00000000000000000 
1 0.00000000000000000 0.00000000000000000 0.00000000000000000 1.00000000000000000 
8 -0.00000000003901118 0.54930614433405478
7 0 0  6 7 2  0.52359877563730994 0.00000000000000000  0.43204775157513220 -0.00000000002553743  0.34049715464131936 0.07191715514158759  0.25032480971893634 0.21575124526205158  0.16292598919539003 0.43331134161915230  0.07928551258032628 0.72821244215174008  0.00000000000000000 1.10615624638881438 
 -0.00000000003901118 7 0.54930614433405478 7
8 -0.00000000003901118 0.54930614433405478
5 3.66617420935412319 -9.39887687280202400 -0.00000000000000000 1.00000000000000000 -1.00000000000000000 -0.00000000000000000 3.28700187280202494 6.35000000000000053
8 -0.54930614433405467 -0.00000000003901118
7 0 0  6 7 2  1.04719755119659741 1.10615624638881371  0.96791203862753272 0.72821244220542214  0.88427156202496349 0.43331134170292707  0.79687274151488907 0.21575124535474544  0.70670039660650730 0.07191715522330888  0.61514979968648387 0.00000000002553743  0.52359877563730994 0.00000000000000000 
 -0.54930614433405467 7 -0.00000000003901118 7
8 -0.54930614433405467 -0.00000000003901118
5 3.66617420935412319 -9.39887687280202400 -0.00000000000000000 1.00000000000000000 -1.00000000000000000 -0.00000000000000000 3.28700187280202494 6.35000000000000053
8 0.00000000000000004 0.54930614433405489
7 0 0  6 7 2  1.57079632679489634 0.00000000000000079  1.47924530273922050 0.00000000000000082  1.38769470581229371 0.07191715518244379  1.29752236089692019 0.21575124530840384  1.21012354038009562 0.43331134166103880  1.12648306377129281 0.72821244217858117  1.04719755119659741 1.10615624638881438 
 0.00000000000000004 7 0.54930614433405489 7
8 0.00000000000000004 0.54930614433405489
5 3.66617420935412319 -9.39887687280202400 -0.00000000000000000 1.00000000000000000 -1.00000000000000000 -0.00000000000000000 3.28700187280202494 6.35000000000000053
8 -0.54930614433405434 0.00000000000000004
7 0 0  6 7 2  2.09439510239319482 1.10615624638881171  2.01510958981849919 0.72821244217857928  1.93146911320968684 0.43331134166104768  1.84407029269280542 0.21575124530838963  1.75389794777750296 0.07191715518244735  1.66234735085057217 0.00000000000000076  1.57079632679489634 0.00000000000000079 
 -0.54930614433405434 7 0.00000000000000004 7
8 -0.54930614433405434 0.00000000000000004
5 3.66617420935412319 -9.39887687280202400 -0.00000000000000000 1.00000000000000000 -1.00000000000000000 -0.00000000000000000 3.28700187280202494 6.35000000000000053
8 -0.00000000005523577 0.54930614433405411
7 0 0  6 7 2  2.61799387804672978 0.00000000000000199  2.52644285398184820 -0.00000000003615635  2.43489225704522028 0.07191715512458785  2.34471991211978548 0.21575124524277811  2.25732109159358174 0.43331134160173335  2.17368061497586362 0.72821244214057534  2.09439510239319571 1.10615624638881171 
 -0.00000000005523577 7 0.54930614433405411 7
8 -0.00000000005523577 0.54930614433405411
5 3.66617420935412319 -9.39887687280202400 0.00000000000000000 1.00000000000000000 -1.00000000000000000 0.00000000000000000 3.28700187280202538 6.35000000000000142
8 -0.54930614433405422 -0.00000000005523577
7 0 0  6 7 2  3.14159265358979223 1.10615624638881282  3.06230714102306933 0.72821244221658499  2.97866666442317296 0.43331134172034425  2.89126784391561387 0.21575124537404378  2.80109549901044375 0.07191715524029085  2.70954490209319943 0.00000000003616032  2.61799387804672978 0.00000000000000199 
 -0.54930614433405422 7 -0.00000000005523577 7
8 -0.54930614433405422 -0.00000000005523577
5 3.66617420935412319 -9.39887687280202400 0.00000000000000000 1.00000000000000000 -1.00000000000000000 0.00000000000000000 3.28700187280202538 6.35000000000000142
8 -0.00000000003900411 0.54930614433405434
7 0 0  6 7 2  3.66519142922709529 0.00000000000000199  3.57364040516491865 -0.00000000002553056  3.48208980823116576 0.07191715514158759  3.39191746330857313 0.21575124526206935  3.30451864278523999 0.43331134161915585  3.22087816617011846 0.72821244215174485  3.14159265358979312 1.10615624638881371 
 -0.00000000003900411 7 0.54930614433405434 7
8 -0.00000000003900411 0.54930614433405434
5 3.66617420935412408 -9.39887687280202400 -0.00000000000000000 1.00000000000000000 -1.00000000000000000 -0.00000000000000000 3.28700187280202538 6.35000000000000142
8 -0.54930614433405400 -0.00000000003900411
7 0 0  6 7 2  4.18879020478638964 1.10615624638881171  4.10950469221732373 0.72821244220541637  4.02586421561480279 0.43331134170291108  3.93846539510451521 0.21575124535475965  3.84829305019633239 0.07191715522328934  3.75674245327627032 0.00000000002553453  3.66519142922709529 0.00000000000000199 
 -0.54930614433405400 7 -0.00000000003900411 7
8 -0.54930614433405400 -0.00000000003900411
5 3.66617420935412408 -9.39887687280202400 -0.00000000000000000 1.00000000000000000 -1.00000000000000000 -0.00000000000000000 3.28700187280202538 6.35000000000000142
8 0.00000000000000047 0.54930614433405545
7 0 0  6 7 2  4.71238898038468879 0.00000000000000199  4.62083795632901317 0.00000000000000229  4.52928735940218985 0.07191715518244557  4.43911501448644685 0.21575124530840384  4.35171619396999176 0.43331134166104945  4.26807571736108482 0.72821244217858339  4.18879020478638964 1.10615624638881727 
 0.00000000000000047 7 0.54930614433405545 7
8 0.00000000000000047 0.54930614433405545
5 3.66617420935412364 -9.39887687280202400 -0.00000000000000000 1.00000000000000000 -1.00000000000000000 -0.00000000000000000 3.28700187280202538 6.35000000000000142
8 -0.54930614433405467 0.00000000000000047
7 0 0  6 7 2  5.23598775598298793 1.10615624638881482  5.15670224340829275 0.72821244217858161  5.07306176679952614 0.43331134166103347  4.98566294628267315 0.21575124530841450  4.89549060136732805 0.07191715518243136  4.80394000444036440 0.00000000000000168  4.71238898038468879 0.00000000000000199 
 -0.54930614433405467 7 0.00000000000000047 7
8 -0.54930614433405467 0.00000000000000047
5 3.66617420935412364 -9.39887687280202400 -0.00000000000000000 1.00000000000000000 -1.00000000000000000 -0.00000000000000000 3.28700187280202538 6.35000000000000142
8 0.00000001583636001 0.54930614433405456
7 0 0  6 7 2  5.75958651574492730 0.00000000000000199  5.66803549432864529 0.00000001036676599  5.57648490020028476 0.07191717176925572  5.48631255812392737 0.21575126412500012  5.39891374034391447 0.43331135866489845  5.31527326627190178 0.72821245307460547  5.23598775598298793 1.10615624638881238 
 0.00000001583636001 7 0.54930614433405456 7
8 0.00000001583636001 0.54930614433405456
5 3.66617420935412630 -9.39887687280202400 0.00000000000000000 1.00000000000000000 -1.00000000000000000 0.00000000000000000 3.28700187280202449 6.34999999999999964
8 -0.54930614433405500 0.00000001583636001
7 0 0  6 7 2  6.28318530717958623 1.10615624638881482  6.20389979231910882 0.72821243128255531  6.12025931317339200 0.43331132465718092  6.03286048991992629 0.21575122649181111  5.94268814216542296 0.07191713859562121  5.85113754243999651 -0.00000001036676262  5.75958651574492730 0.00000000000000199 
 -0.54930614433405500 7 0.00000001583636001 7
8 -0.54930614433405500 0.00000001583636001
5 3.66617420935412630 -9.39887687280202400 0.00000000000000000 1.00000000000000000 -1.00000000000000000 0.00000000000000000 3.28700187280202449 6.34999999999999964
8 -5.49926131403118479 1.83308710467706004
1 6.41580486636971692 1.58749999999999991 0.49999999999999994 -0.86602540378443871 
8 -5.49926131403118479 1.83308710467706004
1 1.83308710467706160 -0.96202500000000002 -1.00000000000000000 -0.00000000000000000 
1 7.33234841870824638 0.00000000000000000 0.00000000000000000 -1.00000000000000000 
1 0.00000000000000000 0.00000000000000000 0.00000000000000000 -1.00000000000000000 
1 1.04719755119659763 5.60337404062391897 0.00000000000000000 -1.00000000000000000 
1 6.28318530717958623 0.00000000000000000 0.00000000000000000 1.00000000000000000 
1 0.00000000000000000 0.00000000000000000 0.00000000000000000 1.00000000000000000 
1 0.00000000000000000 -5.60337404062391897 0.00000000000000000 1.00000000000000000 
1 7.33234841870825171 -5.60337404062391897 0.00000000000000000 1.00000000000000000 
8 -5.49926131403118479 1.83308710467706160
1 1.83308710467706293 6.34999999999999964 1.00000000000000000 -0.00000000000000024 
8 -5.49926131403118479 1.83308710467706160
1 1.83308710467706160 -0.96202500000000002 -1.00000000000000000 -0.00000000000000000 
1 7.33234841870824638 0.00000000000000000 0.00000000000000000 -1.00000000000000000 
1 0.00000000000000000 0.00000000000000000 0.00000000000000000 -1.00000000000000000 
1 2.09439510239319526 5.60337404062391897 0.00000000000000000 -1.00000000000000000 
8 -5.49926131403118212 1.83308710467706182
1 -4.58271776169265443 4.76250000000000195 0.50000000000000033 0.86602540378443849 
8 -5.49926131403118212 1.83308710467706182
1 1.83308710467706182 -0.96202500000000002 -1.00000000000000000 0.00000000000000000 
1 7.33234841870824638 0.00000000000000000 0.00000000000000000 -1.00000000000000000 
1 0.00000000000000000 0.00000000000000000 0.00000000000000000 -1.00000000000000000 
1 3.14159265358979267 5.60337404062391897 0.00000000000000000 -1.00000000000000000 
8 -5.49926131403118568 1.83308710467705849
1 -6.41580486636971870 -1.58749999999999747 -0.49999999999999961 0.86602540378443893 
8 -5.49926131403118568 1.83308710467705849
1 1.83308710467706160 -0.96202500000000002 -1.00000000000000000 -0.00000000000000000 
1 7.33234841870824727 0.00000000000000000 0.00000000000000000 -1.00000000000000000 
1 0.00000000000000000 0.00000000000000000 0.00000000000000000 -1.00000000000000000 
1 4.18879020478638964 5.60337404062391897 0.00000000000000000 -1.00000000000000000 
8 -5.49926131403118568 1.83308710467706182
1 -1.83308710467706582 -6.34999999999999964 -1.00000000000000000 0.00000000000000061 
8 -5.49926131403118568 1.83308710467706182
1 1.83308710467706182 -0.96202500000000002 -1.00000000000000000 -0.00000000000000000 
1 0.00000000000000000 0.00000000000000000 0.00000000000000000 -1.00000000000000000 
1 7.33234841870824727 0.00000000000000000 0.00000000000000000 -1.00000000000000000 
1 5.23598775598298793 5.60337404062391897 0.00000000000000000 -1.00000000000000000 
8 -5.49926131403118568 1.83308710467706315
1 4.58271776169265266 -4.76250000000000284 -0.50000000000000033 -0.86602540378443860 
8 -5.49926131403118568 1.83308710467706315
1 1.83308710467706315 -0.96202500000000013 -1.00000000000000000 -0.00000000000000000 
2 0.00000000000000000 0.00000000000000000 1.00000000000000000 0.00000000000000000 -0.00000000000000000 1.00000000000000000 6.03249999999999975
1 0.00000000000000000 0.00000000000000000 1.00000000000000000 0.00000000000000000 
1 0.00000000000000000 0.40639999999999998 1.00000000000000000 0.00000000000000000 
2 0.00000000000000000 0.00000000000000000 1.00000000000000000 0.00000000000000000 -0.00000000000000000 1.00000000000000000 6.03249999999999975
1 6.28318530717958623 0.00000000000000000 0.00000000000000000 1.00000000000000000 
1 0.00000000000000000 0.00000000000000000 0.00000000000000000 1.00000000000000000 
2 0.00000000000000000 0.00000000000000000 1.00000000000000000 0.00000000000000000 -0.00000000000000000 1.00000000000000000 4.39208333333333290
1 0.00000000000000000 0.00000000000000000 1.00000000000000000 0.00000000000000000 
1 0.00000000000000000 1.57079632679489745 1.00000000000000000 0.00000000000000000 
1 0.00000000000000000 0.00000000000000000 1.00000000000000000 0.00000000000000000 
1 6.28318530717958623 0.00000000000000000 0.00000000000000000 1.00000000000000000 
1 0.00000000000000000 0.00000000000000000 0.00000000000000000 1.00000000000000000 
1 0.00000000000000000 26.38777777777779221 1.00000000000000000 0.00000000000000000 
1 0.00000000000000000 0.00000000000000000 1.00000000000000000 0.00000000000000000 
1 6.28318530717958623 0.00000000000000000 0.00000000000000000 1.00000000000000000 
1 0.00000000000000000 0.00000000000000000 0.00000000000000000 1.00000000000000000 
1 0.00000000000000000 23.12326442279137240 1.00000000000000000 0.00000000000000000 
1 0.00000000000000000 0.00000000000000000 1.00000000000000000 0.00000000000000000 
1 6.28318530717958623 0.00000000000000000 0.00000000000000000 1.00000000000000000 
1 0.00000000000000000 0.00000000000000000 0.00000000000000000 1.00000000000000000 
1 0.00000000000000000 1.22417785987705496 1.00000000000000000 0.00000000000000000 
2 0.00000000000000000 0.00000000000000000 1.00000000000000000 0.00000000000000000 -0.00000000000000000 1.00000000000000000 3.10312553390249901
1 6.28318530717958623 0.00000000000000000 0.00000000000000000 1.00000000000000000 
1 0.00000000000000000 0.00000000000000000 0.00000000000000000 1.00000000000000000 
Curves 38
2 0.00000000000000000 0.00000000000000000 5.55625000000000036 0.00000000000000000 0.00000000000000000 1.00000000000000000 1.00000000000000000 0.00000000000000000 -0.00000000000000000 -0.00000000000000000 1.00000000000000000 0.00000000000000000 6.34999999999999964
1 6.34999999999999964 0.00000000000000000 5.55625000000000036 0.88807383397711470 0.00000000000000000 -0.45970084338098427 
5 5.49926131403118656 3.17499999999999982 8.84325187280202485 -0.86602540378443871 -0.49999999999999994 0.00000000000000000 0.00000000000000000 -0.00000000000000000 -1.00000000000000000 0.49999999999999994 -0.86602540378443871 0.00000000000000000 3.28700187280202494 6.35000000000000053
5 5.49926131403118656 3.17499999999999982 8.84325187280202485 -0.86602540378443871 -0.49999999999999994 0.00000000000000000 0.00000000000000000 -0.00000000000000000 -1.00000000000000000 0.49999999999999994 -0.86602540378443871 0.00000000000000000 3.28700187280202494 6.35000000000000053
5 0.00000000000000154 6.35000000000000053 8.84325187280202485 -0.00000000000000024 -1.00000000000000000 0.00000000000000000 0.00000000000000000 -0.00000000000000000 -1.00000000000000000 1.00000000000000000 -0.00000000000000024 0.00000000000000000 3.28700187280202494 6.35000000000000053
5 0.00000000000000154 6.35000000000000053 8.84325187280202485 -0.00000000000000024 -1.00000000000000000 0.00000000000000000 0.00000000000000000 -0.00000000000000000 -1.00000000000000000 1.00000000000000000 -0.00000000000000024 0.00000000000000000 3.28700187280202494 6.35000000000000053
5 -5.49926131403118568 3.17500000000000293 8.84325187280202485 0.86602540378443849 -0.50000000000000033 0.00000000000000000 0.00000000000000000 -0.00000000000000000 -1.00000000000000000 0.50000000000000033 0.86602540378443849 0.00000000000000000 3.28700187280202538 6.35000000000000142
5 -5.49926131403118568 3.17500000000000293 8.84325187280202485 0.86602540378443849 -0.50000000000000033 0.00000000000000000 0.00000000000000000 -0.00000000000000000 -1.00000000000000000 0.50000000000000033 0.86602540378443849 0.00000000000000000 3.28700187280202538 6.35000000000000142
5 -5.49926131403118834 -3.17499999999999805 8.84325187280202485 0.86602540378443893 0.49999999999999961 0.00000000000000000 0.00000000000000000 0.00000000000000000 -1.00000000000000000 -0.49999999999999961 0.86602540378443893 0.00000000000000000 3.28700187280202538 6.35000000000000142
5 -5.49926131403118834 -3.17499999999999805 8.84325187280202485 0.86602540378443893 0.49999999999999961 0.00000000000000000 0.00000000000000000 0.00000000000000000 -1.00000000000000000 -0.49999999999999961 0.86602540378443893 0.00000000000000000 3.28700187280202538 6.35000000000000142
5 -0.00000000000000385 -6.35000000000000142 8.84325187280202485 0.00000000000000061 1.00000000000000000 0.00000000000000000 0.00000000000000000 0.00000000000000000 -1.00000000000000000 -1.00000000000000000 0.00000000000000061 0.00000000000000000 3.28700187280202538 6.35000000000000142
5 -0.00000000000000385 -6.35000000000000142 8.84325187280202485 0.00000000000000061 1.00000000000000000 0.00000000000000000 0.00000000000000000 0.00000000000000000 -1.00000000000000000 -1.00000000000000000 0.00000000000000061 0.00000000000000000 3.28700187280202538 6.35000000000000142
5 5.49926131403118479 -3.17500000000000204 8.84325187280202485 -0.86602540378443860 0.50000000000000033 0.00000000000000000 0.00000000000000000 0.00000000000000000 -1.00000000000000000 -0.50000000000000033 -0.86602540378443860 -0.00000000000000000 3.28700187280202449 6.34999999999999964
5 5.49926131403118479 -3.17500000000000204 8.84325187280202485 -0.86602540378443860 0.50000000000000033 0.00000000000000000 0.00000000000000000 0.00000000000000000 -1.00000000000000000 -0.50000000000000033 -0.86602540378443860 -0.00000000000000000 3.28700187280202449 6.34999999999999964
1 6.41580486636971692 1.58749999999999991 0.40639999999999998 0.49999999999999994 -0.86602540378443871 0.00000000000000000 
1 3.66617420935412452 6.34999999999999964 -0.55562500000000004 0.00000000000000000 0.00000000000000000 1.00000000000000000 
1 7.33234841870824727 0.00000000000000000 5.04774904062391894 0.00000000000000000 0.00000000000000000 -1.00000000000000000 
1 1.83308710467706293 6.34999999999999964 0.40639999999999998 1.00000000000000000 -0.00000000000000024 0.00000000000000000 
1 -3.66617420935412230 6.35000000000000142 -0.55562500000000004 0.00000000000000000 0.00000000000000000 1.00000000000000000 
1 -4.58271776169265443 4.76250000000000195 0.40639999999999998 0.50000000000000033 0.86602540378443849 -0.00000000000000000 
1 -7.33234841870824816 0.00000000000000311 -0.55562500000000004 0.00000000000000000 0.00000000000000000 1.00000000000000000 
1 -6.41580486636971870 -1.58749999999999747 0.40639999999999998 -0.49999999999999961 0.86602540378443893 0.00000000000000000 
1 -3.66617420935412763 -6.34999999999999876 -0.55562500000000004 0.00000000000000000 0.00000000000000000 1.00000000000000000 
1 -1.83308710467706582 -6.34999999999999964 0.40639999999999998 -1.00000000000000000 0.00000000000000061 0.00000000000000000 
1 3.66617420935411964 -6.35000000000000320 -0.55562500000000004 0.00000000000000000 0.00000000000000000 1.00000000000000000 
1 4.58271776169265266 -4.76250000000000284 0.40640000000000009 -0.50000000000000033 -0.86602540378443860 0.00000000000000000 
2 0.00000000000000000 0.00000000000000000 0.40639999999999998 0.00000000000000000 0.00000000000000000 1.00000000000000000 1.00000000000000000 0.00000000000000000 -0.00000000000000000 -0.00000000000000000 1.00000000000000000 0.00000000000000000 6.03249999999999975
2 0.00000000000000000 0.00000000000000000 0.00000000000000000 0.00000000000000000 0.00000000000000000 1.00000000000000000 1.00000000000000000 0.00000000000000000 -0.00000000000000000 -0.00000000000000000 1.00000000000000000 0.00000000000000000 6.03249999999999975
1 6.03249999999999975 0.00000000000000000 0.40639999999999998 0.00000000000000000 0.00000000000000000 -1.00000000000000000 
2 0.00000000000000000 0.00000000000000000 0.00000000000000006 0.00000000000000000 0.00000000000000000 1.00000000000000000 1.00000000000000000 0.00000000000000000 -0.00000000000000000 -0.00000000000000000 1.00000000000000000 0.00000000000000000 4.39208333333333290
2 0.00000000000000000 0.00000000000000000 -0.42333333333333301 0.00000000000000000 0.00000000000000000 1.00000000000000000 1.00000000000000000 0.00000000000000000 -0.00000000000000000 -0.00000000000000000 1.00000000000000000 0.00000000000000000 3.96875000000000000
2 4.39208333333333290 0.00000000000000000 -0.42333333333333262 0.00000000000000000 -1.00000000000000000 0.00000000000000000 0.00000000000000000 0.00000000000000000 1.00000000000000000 -1.00000000000000000 0.00000000000000000 0.00000000000000000 0.42333333333333273
2 0.00000000000000000 0.00000000000000000 -26.81111111111112422 0.00000000000000000 0.00000000000000000 1.00000000000000000 1.00000000000000000 0.00000000000000000 -0.00000000000000000 -0.00000000000000000 1.00000000000000000 0.00000000000000000 3.96875000000000000
1 3.96875000000000000 0.00000000000000000 -0.42333333333333301 0.00000000000000000 0.00000000000000000 -1.00000000000000000 
2 0.00000000000000000 0.00000000000000000 -49.93437553390249661 0.00000000000000000 0.00000000000000000 1.00000000000000000 1.00000000000000000 0.00000000000000000 -0.00000000000000000 -0.00000000000000000 1.00000000000000000 0.00000000000000000 3.96875000000000000
1 3.96875000000000000 0.00000000000000000 -26.81111111111112422 0.00000000000000000 0.00000000000000000 -1.00000000000000000 
2 0.00000000000000000 0.00000000000000000 -50.79999999999999716 0.00000000000000000 0.00000000000000000 1.00000000000000000 1.00000000000000000 0.00000000000000000 -0.00000000000000000 -0.00000000000000000 1.00000000000000000 0.00000000000000000 3.10312553390249901
1 3.96875000000000000 0.00000000000000000 -49.93437553390249661 -0.70710678118654768 0.00000000000000000 -0.70710678118654735 
Polygon3D 0
PolygonOnTriangulations 0
Surfaces 17
1 0.00000000000000000 0.00000000000000000 5.55625000000000036 0.00000000000000000 0.00000000000000000 1.00000000000000000 -1.00000000000000000 -0.00000000000000000 0.00000000000000000 -0.00000000000000000 1.00000000000000000 -0.00000000000000000 
3 0.00000000000000000 0.00000000000000000 5.55625000000000036 -0.00000000000000000 -0.00000000000000000 -1.00000000000000000 1.00000000000000000 0.00000000000000000 0.00000000000000000 -0.00000000000000000 1.00000000000000000 -0.00000000000000000 6.34999999999999964
1.09313801773264063
1 7.33234841870824727 0.00000000000000000 -0.55562500000000004 -0.86602540378443871 -0.49999999999999994 0.00000000000000000 -0.49999999999999994 0.86602540378443871 0.00000000000000000 -0.00000000000000000 0.00000000000000000 -1.00000000000000000 
1 3.66617420935412452 6.34999999999999964 -0.55562500000000004 -0.00000000000000024 -1.00000000000000000 0.00000000000000000 -1.00000000000000000 0.00000000000000024 0.00000000000000000 -0.00000000000000000 0.00000000000000000 -1.00000000000000000 
1 -3.66617420935412230 6.35000000000000142 -0.55562500000000004 0.86602540378443849 -0.50000000000000033 0.00000000000000000 -0.50000000000000033 -0.86602540378443849 0.00000000000000000 0.00000000000000000 -0.00000000000000000 -1.00000000000000000 
1 -7.33234841870824816 0.00000000000000311 -0.55562500000000004 0.86602540378443893 0.49999999999999961 -0.00000000000000000 0.49999999999999961 -0.86602540378443893 0.00000000000000000 0.00000000000000000 -0.00000000000000000 -1.00000000000000000 
1 -3.66617420935412763 -6.34999999999999876 -0.55562500000000004 0.00000000000000061 1.00000000000000000 -0.00000000000000000 1.00000000000000000 -0.00000000000000061 0.00000000000000000 0.00000000000000000 -0.00000000000000000 -1.00000000000000000 
1 3.66617420935411964 -6.35000000000000320 -0.55562500000000004 -0.86602540378443860 0.50000000000000033 0.00000000000000000 0.50000000000000022 0.86602540378443849 0.00000000000000000 0.00000000000000000 0.00000000000000000 -1.00000000000000000 
1 0.00000000000000000 0.00000000000000000 0.40639999999999998 0.00000000000000000 0.00000000000000000 1.00000000000000000 1.00000000000000000 0.00000000000000000 -0.00000000000000000 -0.00000000000000000 1.00000000000000000 0.00000000000000000 
2 0.00000000000000000 0.00000000000000000 5.04774904062391894 -0.00000000000000000 -0.00000000000000000 -1.00000000000000000 1.00000000000000000 0.00000000000000000 0.00000000000000000 -0.00000000000000000 1.00000000000000000 -0.00000000000000000 7.33234841870824727
2 0.00000000000000000 0.00000000000000000 0.40639999999999998 -0.00000000000000000 -0.00000000000000000 -1.00000000000000000 1.00000000000000000 0.00000000000000000 0.00000000000000000 -0.00000000000000000 1.00000000000000000 -0.00000000000000000 6.03249999999999975
1 0.00000000000000000 0.00000000000000000 0.00000000000000000 0.00000000000000000 0.00000000000000000 1.00000000000000000 1.00000000000000000 0.00000000000000000 -0.00000000000000000 -0.00000000000000000 1.00000000000000000 0.00000000000000000 
7 0.00000000000000000 0.00000000000000000 0.00000000000000000 0.00000000000000000 0.00000000000000000 1.00000000000000000 
8 0.00000000000000000 1.57079632679489745
2 4.39208333333333290 0.00000000000000000 -0.42333333333333262 0.00000000000000000 -1.00000000000000000 0.00000000000000000 0.00000000000000000 0.00000000000000000 1.00000000000000000 -1.00000000000000000 0.00000000000000000 0.00000000000000000 0.42333333333333273
2 0.00000000000000000 0.00000000000000000 -0.42333333333333301 -0.00000000000000000 -0.00000000000000000 -1.00000000000000000 1.00000000000000000 0.00000000000000000 0.00000000000000000 -0.00000000000000000 1.00000000000000000 -0.00000000000000000 3.96875000000000000
2 0.00000000000000000 0.00000000000000000 -26.81111111111112422 -0.00000000000000000 -0.00000000000000000 -1.00000000000000000 1.00000000000000000 0.00000000000000000 0.00000000000000000 -0.00000000000000000 1.00000000000000000 -0.00000000000000000 3.96875000000000000
3 0.00000000000000000 0.00000000000000000 -49.93437553390249661 -0.00000000000000000 -0.00000000000000000 -1.00000000000000000 1.00000000000000000 0.00000000000000000 0.00000000000000000 -0.00000000000000000 1.00000000000000000 -0.00000000000000000 3.96875000000000000
-0.78539816339744850
1 0.00000000000000000 0.00000000000000000 -50.79999999999999716 0.00000000000000000 0.00000000000000000 1.00000000000000000 1.00000000000000000 0.00000000000000000 -0.00000000000000000 -0.00000000000000000 1.00000000000000000 0.00000000000000000 
Triangulations 0

TShapes 119
Ve
0.000000100000000
6.350000000000000 0.000000000000000 5.556250000000000
0 0

0101101
*
Ve
0.000000200001000
5.499261314031186 3.174999999999999 5.556250000000000
0 0

0101101
*
Ed
 0.000000100000000 1 1 0
1  1 0 0.000000000000000 0.523598775598299
2  1 1 0 0.000000000000000 0.523598775598299
2  2 2 0 0.000000000000000 0.523598775598299
0

0101000
+119 0 -118 0 *
Ve
0.000000200001000
0.000000000000002 6.350000000000000 5.556250000000000
0 0

0101101
*
Ed
 0.000000100000000 1 1 0
1  1 0 0.523598775598299 1.570796326794896
2  1 1 0 0.523598775598299 1.570796326794896
2  2 2 0 0.523598775598299 1.570796326794896
0

0101000
+118 0 -116 0 *
Ve
0.000000200001000
-5.499261314031184 3.175000000000002 5.556250000000000
0 0

0101101
*
Ed
 0.000000100000000 1 1 0
1  1 0 1.570796326794896 2.617993877991494
2  1 1 0 1.570796326794896 2.617993877991494
2  2 2 0 1.570796326794896 2.617993877991494
0

0101000
+116 0 -114 0 *
Ve
0.000000200001000
-5.499261314031187 -3.174999999999996 5.556250000000000
0 0

0101101
*
Ed
 0.000000100000000 1 1 0
1  1 0 2.617993877991494 3.665191429188091
2  1 1 0 2.617993877991494 3.665191429188091
2  2 2 0 2.617993877991494 3.665191429188091
0

0101000
+114 0 -112 0 *
Ve
0.000000200001000
-0.000000000000007 -6.350000000000000 5.556250000000000
0 0

0101101
*
Ed
 0.000000100000000 1 1 0
1  1 0 3.665191429188091 4.712388980384689
2  1 1 0 3.665191429188091 4.712388980384689
2  2 2 0 3.665191429188091 4.712388980384689
0

0101000
+112 0 -110 0 *
Ve
0.000000200001000
5.499261314031183 -3.175000000000002 5.556250000000000
0 0

0101101
*
Ed
 0.000000100000000 1 1 0
1  1 0 4.712388980384689 5.759586531581287
2  1 1 0 4.712388980384689 5.759586531581287
2  2 2 0 4.712388980384689 5.759586531581287
0

0101000
+110 0 -108 0 *
Ed
 0.000000100000000 1 1 0
1  1 0 5.759586531581287 6.283185307179586
2  1 1 0 5.759586531581287 6.283185307179586
2  2 2 0 5.759586531581287 6.283185307179586
0

0101000
+108 0 -119 0 *
Wi

0101100
-117 0 -115 0 -113 0 -111 0 -109 0 -107 0 -106 0 *
Fa
0  0.000000100000000 1 0

0101000
+105 0 *
Ve
0.000000166063426
7.332348418708247 0.000000000000000 5.047749040623919
0 0

0101101
*
Ed
 0.000000100000000 1 1 0
1  2 0 0.000000000000000 1.106156246388814
3  3 4CN 2 0 0.000000000000000 1.106156246388814
0

0101000
+119 0 -103 0 *
Ed
 0.000000166062426 1 1 0
1  3 0 -0.000000000039011 0.549306144334055
2  5 2 0 -0.000000000039011 0.549306144334055
2  6 3 0 -0.000000000039011 0.549306144334055
0

0101000
+118 0 -103 0 *
Wi

0101100
-102 0 +101 0 +117 0 *
Fa
0  0.000000100000000 2 0

0101000
+100 0 *
Ve
0.000000166063438
3.666174209354108 6.350000000000009 5.047749040623919
0 0

0101101
*
Ed
 0.000000166062399 1 1 0
1  4 0 -0.549306144334055 -0.000000000039011
2  7 2 0 -0.549306144334055 -0.000000000039011
2  8 3 0 -0.549306144334055 -0.000000000039011
0

0101000
+98 0 -118 0 *
Ed
 0.000000166062438 1 1 0
1  5 0 0.000000000000000 0.549306144334055
2  9 2 0 0.000000000000000 0.549306144334055
2  10 4 0 0.000000000000000 0.549306144334055
0

0101000
+116 0 -98 0 *
Wi

0101100
+97 0 +96 0 +115 0 *
Fa
0  0.000000100000000 2 0

0101000
+95 0 *
Ve
0.000000166063420
-3.666174209354053 6.350000000000041 5.047749040623919
0 0

0101101
*
Ed
 0.000000166062342 1 1 0
1  6 0 -0.549306144334054 0.000000000000000
2  11 2 0 -0.549306144334054 0.000000000000000
2  12 4 0 -0.549306144334054 0.000000000000000
0

0101000
+93 0 -116 0 *
Ed
 0.000000166062420 1 1 0
1  7 0 -0.000000000055236 0.549306144334054
2  13 2 0 -0.000000000055236 0.549306144334054
2  14 5 0 -0.000000000055236 0.549306144334054
0

0101000
+114 0 -93 0 *
Wi

0101100
+92 0 +91 0 +113 0 *
Fa
0  0.000000100000000 2 0

0101000
+90 0 *
Ve
0.000000166063499
-7.332348418708248 0.000000000000344 5.047749040623919
0 0

0101101
*
Ed
 0.000000166062308 1 1 0
1  8 0 -0.549306144334054 -0.000000000055236
2  15 2 0 -0.549306144334054 -0.000000000055236
2  16 5 0 -0.549306144334054 -0.000000000055236
0

0101000
+88 0 -114 0 *
Ed
 0.000000166062499 1 1 0
1  9 0 -0.000000000039004 0.549306144334054
2  17 2 0 -0.000000000039004 0.549306144334054
2  18 6 0 -0.000000000039004 0.549306144334054
0

0101000
+112 0 -88 0 *
Wi

0101100
+87 0 +86 0 +111 0 *
Fa
0  0.000000100000000 2 0

0101000
+85 0 *
Ve
0.000000166063556
-3.666174209354062 -6.350000000000036 5.047749040623919
0 0

0101101
*
Ed
 0.000000166062262 1 1 0
1  10 0 -0.549306144334054 -0.000000000039004
2  19 2 0 -0.549306144334054 -0.000000000039004
2  20 6 0 -0.549306144334054 -0.000000000039004
0

0101000
+83 0 -112 0 *
Ed
 0.000000166062556 1 1 0
1  11 0 0.000000000000000 0.549306144334055
2  21 2 0 0.000000000000000 0.549306144334055
2  22 7 0 0.000000000000000 0.549306144334055
0

0101000
+110 0 -83 0 *
Wi

0101100
+109 0 +82 0 +81 0 *
Fa
0  0.000000100000000 2 0

0101000
+80 0 *
Ve
0.000000166063574
3.666174209354102 -6.350000000000013 5.047749040623919
0 0

0101101
*
Ed
 0.000000166062551 1 1 0
1  12 0 -0.549306144334055 0.000000000000000
2  23 2 0 -0.549306144334055 0.000000000000000
2  24 7 0 -0.549306144334055 0.000000000000000
0

0101000
+78 0 -110 0 *
Ed
 0.000000166062574 1 1 0
1  13 0 0.000000015836360 0.549306144334055
2  25 2 0 0.000000015836360 0.549306144334055
2  26 8 0 0.000000015836360 0.549306144334055
0

0101000
+108 0 -78 0 *
Wi

0101100
+107 0 +77 0 +76 0 *
Fa
0  0.000000100000000 2 0

0101000
+75 0 *
Ed
 0.000000166062161 1 1 0
1  14 0 -0.549306144334055 0.000000015836360
2  27 2 0 -0.549306144334055 0.000000015836360
2  28 8 0 -0.549306144334055 0.000000015836360
0

0101000
+103 0 -108 0 *
Wi

0101100
+106 0 +73 0 +102 0 *
Fa
0  0.000000100000000 2 0

0101000
+72 0 *
Ve
0.000000150000020
3.666174209354108 6.350000000000009 0.406400000000000
0 0

0101101
*
Ve
0.000000212133034
7.332348418708247 0.000000000000000 0.406400000000000
0 0

0101101
*
Ed
 0.000000150000000 1 1 0
1  15 0 -5.499261314031185 1.833087104677060
2  29 9 0 -5.499261314031185 1.833087104677060
2  30 3 0 -5.499261314031185 1.833087104677060
0

0101000
+70 0 -69 0 *
Ed
 0.000000100000000 1 1 0
1  16 0 0.962025000000000 5.603374040623919
2  31 3 0 0.962025000000000 5.603374040623919
2  32 4 0 0.962025000000000 5.603374040623919
2  33 10 0 0.962025000000000 5.603374040623919
0

0101000
+70 0 -98 0 *
Ed
 0.000000100000000 1 1 0
1  17 0 0.000000000000000 4.641349040623919
3  34 35CN 10 0 0.000000000000000 4.641349040623919
2  36 3 0 0.000000000000000 4.641349040623919
2  37 8 0 0.000000000000000 4.641349040623919
0

0101000
+103 0 -69 0 *
Wi

0101100
+68 0 -67 0 -97 0 -101 0 -66 0 *
Fa
0  0.000000100000000 3 0

0101000
+65 0 *
Ve
0.000000150000080
-3.666174209354053 6.350000000000041 0.406400000000000
0 0

0101101
*
Ed
 0.000000150000000 1 1 0
1  18 0 -5.499261314031185 1.833087104677062
2  38 9 0 -5.499261314031185 1.833087104677062
2  39 4 0 -5.499261314031185 1.833087104677062
0

0101000
+63 0 -70 0 *
Ed
 0.000000100000001 1 1 0
1  19 0 0.962025000000000 5.603374040623919
2  40 4 0 0.962025000000000 5.603374040623919
2  41 5 0 0.962025000000000 5.603374040623919
2  42 10 0 0.962025000000000 5.603374040623919
0

0101000
+63 0 -93 0 *
Wi

0101100
+62 0 -61 0 -92 0 -96 0 +67 0 *
Fa
0  0.000000100000000 4 0

0101000
+60 0 *
Ve
0.000000150000344
-7.332348418708248 0.000000000000344 0.406400000000000
0 0

0101101
*
Ed
 0.000000150000000 1 1 0
1  20 0 -5.499261314031182 1.833087104677062
2  43 9 0 -5.499261314031182 1.833087104677062
2  44 5 0 -5.499261314031182 1.833087104677062
0

0101000
+58 0 -63 0 *
Ed
 0.000000100000001 1 1 0
1  21 0 0.962025000000000 5.603374040623919
2  45 5 0 0.962025000000000 5.603374040623919
2  46 6 0 0.962025000000000 5.603374040623919
2  47 10 0 0.962025000000000 5.603374040623919
0

0101000
+58 0 -88 0 *
Wi

0101100
+57 0 -56 0 -87 0 -91 0 +61 0 *
Fa
0  0.000000100000000 5 0

0101000
+55 0 *
Ve
0.000000150000076
-3.666174209354062 -6.350000000000036 0.406400000000000
0 0

0101101
*
Ed
 0.000000150000000 1 1 0
1  22 0 -5.499261314031186 1.833087104677058
2  48 9 0 -5.499261314031186 1.833087104677058
2  49 6 0 -5.499261314031186 1.833087104677058
0

0101000
+53 0 -58 0 *
Ed
 0.000000100000006 1 1 0
1  23 0 0.962025000000000 5.603374040623919
2  50 6 0 0.962025000000000 5.603374040623919
2  51 7 0 0.962025000000000 5.603374040623919
2  52 10 0 0.962025000000000 5.603374040623919
0

0101000
+53 0 -83 0 *
Wi

0101100
+52 0 -51 0 -82 0 -86 0 +56 0 *
Fa
0  0.000000100000000 6 0

0101000
+50 0 *
Ve
0.000000150000021
3.666174209354102 -6.350000000000013 0.406400000000000
0 0

0101101
*
Ed
 0.000000150000000 1 1 0
1  24 0 -5.499261314031186 1.833087104677062
2  53 9 0 -5.499261314031186 1.833087104677062
2  54 7 0 -5.499261314031186 1.833087104677062
0

0101000
+48 0 -53 0 *
Ed
 0.000000100000001 1 1 0
1  25 0 0.962025000000000 5.603374040623919
2  55 8 0 0.962025000000000 5.603374040623919
2  56 7 0 0.962025000000000 5.603374040623919
2  57 10 0 0.962025000000000 5.603374040623919
0

0101000
+48 0 -78 0 *
Wi

0101100
+47 0 -46 0 -77 0 -81 0 +51 0 *
Fa
0  0.000000100000000 7 0

0101000
+45 0 *
Ed
 0.000000150000000 1 1 0
1  26 0 -5.499261314031186 1.833087104677063
2  58 9 0 -5.499261314031186 1.833087104677063
2  59 8 0 -5.499261314031186 1.833087104677063
0

0101000
+69 0 -48 0 *
Wi

0101100
+43 0 +66 0 -73 0 -76 0 +46 0 *
Fa
0  0.000000100000000 8 0

0101000
+42 0 *
Wi

0101100
-43 0 -47 0 -52 0 -57 0 -62 0 -68 0 *
Ve
0.000000100000000
6.032500000000000 0.000000000000000 0.406400000000000
0 0

0101101
*
Ed
 0.000000100000000 1 1 0
1  27 0 0.000000000000000 6.283185307179586
2  60 9 0 0.000000000000000 6.283185307179586
2  61 11 0 0.000000000000000 6.283185307179586
0

0101000
+39 0 -39 0 *
Wi

0101100
-38 0 *
Fa
0  0.000000100000000 9 0

0101000
+40 0 +37 0 *
Ve
0.000000100000000
6.032500000000000 0.000000000000000 0.000000000000000
0 0

0101101
*
Ed
 0.000000100000000 1 1 0
1  28 0 0.000000000000000 6.283185307179586
2  62 11 0 0.000000000000000 6.283185307179586
2  63 12 0 0.000000000000000 6.283185307179586
0

0101000
+35 0 -35 0 *
Ed
 0.000000100000000 1 1 0
1  29 0 0.000000000000000 0.406400000000000
3  64 65CN 11 0 0.000000000000000 0.406400000000000
0

0101000
+39 0 -35 0 *
Wi

0101100
+38 0 -34 0 -33 0 +33 0 *
Fa
0  0.000000100000000 11 0

0101000
+32 0 *
Wi

0101100
+34 0 *
Ve
0.000000100000000
4.392083333333333 0.000000000000000 0.000000000000000
0 0

0101101
*
Ed
 0.000000100000000 1 1 0
1  30 0 0.000000000000000 6.283185307179586
2  66 12 0 0.000000000000000 6.283185307179586
2  67 13 0 0.000000000000000 6.283185307179586
4 G1 12 0 13 0
0

0101000
+29 0 -29 0 *
Wi

0101100
-28 0 *
Fa
0  0.000000100000000 12 0

0101000
+30 0 +27 0 *
Ve
0.000000100000000
3.968750000000000 0.000000000000000 -0.423333333333333
0 0

0101101
*
Ed
 0.000000100000000 1 1 0
1  31 0 0.000000000000000 6.283185307179586
2  68 13 0 0.000000000000000 6.283185307179586
2  69 14 0 0.000000000000000 6.283185307179586
4 G1 13 0 14 0
0

0101000
+25 0 -25 0 *
Ed
 0.000000100000000 1 1 0
1  32 0 0.000000000000000 1.570796326794897
3  70 71CN 13 0 0.000000000000000 1.570796326794897
0

0101000
+29 0 -25 0 *
Wi

0101100
+28 0 -24 0 -23 0 +23 0 *
Fa
0  0.000000100000000 13 0

0101000
+22 0 *
Ve
0.000000100000000
3.968750000000000 0.000000000000000 -26.811111111111124
0 0

0101101
*
Ed
 0.000000100000000 1 1 0
1  33 0 0.000000000000000 6.283185307179586
2  72 14 0 0.000000000000000 6.283185307179586
2  73 15 0 0.000000000000000 6.283185307179586
4 C2 14 0 15 0
0

0101000
+20 0 -20 0 *
Ed
 0.000000100000000 1 1 0
1  34 0 0.000000000000000 26.387777777777792
3  74 75CN 14 0 0.000000000000000 26.387777777777792
0

0101000
+25 0 -20 0 *
Wi

0101100
+24 0 -19 0 -18 0 +18 0 *
Fa
0  0.000000100000000 14 0

0101000
+17 0 *
Ve
0.000000100000000
3.968750000000000 0.000000000000000 -49.934375533902497
0 0

0101101
*
Ed
 0.000000100000000 1 1 0
1  35 0 0.000000000000000 6.283185307179586
2  76 15 0 0.000000000000000 6.283185307179586
2  77 16 0 0.000000000000000 6.283185307179586
0

0101000
+15 0 -15 0 *
Ed
 0.000000100000000 1 1 0
1  36 0 0.000000000000000 23.123264422791372
3  78 79CN 15 0 0.000000000000000 23.123264422791372
0

0101000
+20 0 -15 0 *
Wi

0101100
+19 0 -14 0 -13 0 +13 0 *
Fa
0  0.000000100000000 15 0

0101000
+12 0 *
Ve
0.000000100000000
3.103125533902499 0.000000000000000 -50.799999999999997
0 0

0101101
*
Ed
 0.000000100000000 1 1 0
1  37 0 0.000000000000000 6.283185307179586
2  80 16 0 0.000000000000000 6.283185307179586
2  81 17 0 0.000000000000000 6.283185307179586
0

0101000
+10 0 -10 0 *
Ed
 0.000000100000000 1 1 0
1  38 0 0.000000000000000 1.224177859877055
3  82 83CN 16 0 0.000000000000000 1.224177859877055
0

0101000
+15 0 -10 0 *
Wi

0101100
+14 0 -9 0 -8 0 +8 0 *
Fa
0  0.000000100000000 16 0

0101000
+7 0 *
Wi

0101100
+9 0 *
Fa
0  0.000000100000000 17 0

0101000
+5 0 *
Sh

0101100
-104 0 -99 0 -94 0 -89 0 -84 0 -79 0 -74 0 -71 0 -64 0 -59 0 
-54 0 -49 0 -44 0 -41 0 -36 0 -31 0 -26 0 -21 0 -16 0 -11 0 
-6 0 -4 0 *
So

0100000
+3 0 *
Co

1100000
+2 0 *

+1 1 