<?xml version="1.0" encoding="UTF-8" standalone="no"?>
<!DOCTYPE svg PUBLIC "-//W3C//DTD SVG 1.1//EN"
 "http://www.w3.org/Graphics/SVG/1.1/DTD/svg11.dtd">
<!-- Generated by graphviz version 2.43.0 (0)
 -->
<!-- Title: KFL 8 Pages: 1 -->
<svg width="469pt" height="315pt"
 viewBox="0.00 0.00 469.00 315.00" xmlns="http://www.w3.org/2000/svg" xmlns:xlink="http://www.w3.org/1999/xlink">
<g id="graph0" class="graph" transform="scale(1 1) rotate(0) translate(4 311)">
<title>KFL 8</title>
<polygon fill="white" stroke="transparent" points="-4,4 -4,-311 465,-311 465,4 -4,4"/>
<g id="clust1" class="cluster">
<title>cluster_ClusterBodyFrame</title>
<polygon fill="none" stroke="black" points="8,-8 8,-299 453,-299 453,-8 8,-8"/>
<text text-anchor="middle" x="230.5" y="-15.8" font-family="Times,serif" font-size="14.00">BodyFrame</text>
</g>
<!-- BodyFrameSketch -->
<g id="node1" class="node">
<title>BodyFrameSketch</title>
<ellipse fill="none" stroke="black" cx="239" cy="-273" rx="96.38" ry="18"/>
<text text-anchor="middle" x="239" y="-269.3" font-family="Times,serif" font-size="14.00">BodyFrameSketch</text>
</g>
<!-- BodyFramePad -->
<g id="node2" class="node">
<title>BodyFramePad</title>
<ellipse fill="none" stroke="black" cx="239" cy="-201" rx="81.49" ry="18"/>
<text text-anchor="middle" x="239" y="-197.3" font-family="Times,serif" font-size="14.00">BodyFramePad</text>
</g>
<!-- BodyFramePad&#45;&gt;BodyFrameSketch -->
<g id="edge1" class="edge">
<title>BodyFramePad&#45;&gt;BodyFrameSketch</title>
<path fill="none" stroke="black" d="M239,-219.3C239,-227.02 239,-236.29 239,-244.89"/>
<polygon fill="black" stroke="black" points="235.5,-244.9 239,-254.9 242.5,-244.9 235.5,-244.9"/>
</g>
<!-- BodyFrameFillet -->
<g id="node3" class="node">
<title>BodyFrameFillet</title>
<ellipse fill="none" stroke="black" cx="351" cy="-129" rx="89.08" ry="18"/>
<text text-anchor="middle" x="351" y="-125.3" font-family="Times,serif" font-size="14.00">BodyFrameFillet</text>
</g>
<!-- BodyFrameFillet&#45;&gt;BodyFramePad -->
<g id="edge2" class="edge">
<title>BodyFrameFillet&#45;&gt;BodyFramePad</title>
<path fill="none" stroke="black" d="M325.02,-146.24C309.76,-155.78 290.26,-167.96 273.69,-178.32"/>
<polygon fill="black" stroke="black" points="271.46,-175.58 264.84,-183.85 275.17,-181.52 271.46,-175.58"/>
</g>
<!-- BodyFrameFillet001 -->
<g id="node4" class="node">
<title>BodyFrameFillet001</title>
<ellipse fill="none" stroke="black" cx="338" cy="-57" rx="106.68" ry="18"/>
<text text-anchor="middle" x="338" y="-53.3" font-family="Times,serif" font-size="14.00">BodyFrameFillet001</text>
</g>
<!-- BodyFrameFillet001&#45;&gt;BodyFrameFillet -->
<g id="edge3" class="edge">
<title>BodyFrameFillet001&#45;&gt;BodyFrameFillet</title>
<path fill="none" stroke="black" d="M341.21,-75.3C342.65,-83.02 344.37,-92.29 345.96,-100.89"/>
<polygon fill="black" stroke="black" points="342.56,-101.7 347.82,-110.9 349.44,-100.42 342.56,-101.7"/>
</g>
<!-- BodyFrameSketch001 -->
<g id="node5" class="node">
<title>BodyFrameSketch001</title>
<ellipse fill="none" stroke="black" cx="130" cy="-129" rx="113.98" ry="18"/>
<text text-anchor="middle" x="130" y="-125.3" font-family="Times,serif" font-size="14.00">BodyFrameSketch001</text>
</g>
<!-- BodyFrameSketch001&#45;&gt;BodyFramePad -->
<g id="edge4" class="edge">
<title>BodyFrameSketch001&#45;&gt;BodyFramePad</title>
<path fill="none" stroke="black" d="M155.83,-146.59C170.6,-156.07 189.29,-168.08 205.21,-178.3"/>
<polygon fill="black" stroke="black" points="203.42,-181.31 213.73,-183.77 207.21,-175.42 203.42,-181.31"/>
</g>
<!-- BodyFramePad001 -->
<g id="node6" class="node">
<title>BodyFramePad001</title>
<ellipse fill="none" stroke="black" cx="115" cy="-57" rx="98.58" ry="18"/>
<text text-anchor="middle" x="115" y="-53.3" font-family="Times,serif" font-size="14.00">BodyFramePad001</text>
</g>
<!-- BodyFramePad001&#45;&gt;BodyFrameSketch001 -->
<g id="edge5" class="edge">
<title>BodyFramePad001&#45;&gt;BodyFrameSketch001</title>
<path fill="none" stroke="black" d="M118.71,-75.3C120.36,-83.02 122.35,-92.29 124.19,-100.89"/>
<polygon fill="black" stroke="black" points="120.82,-101.85 126.33,-110.9 127.66,-100.38 120.82,-101.85"/>
</g>
</g>
</svg>
