
CASCADE Topology V1, (c) Matra-Datavision
Locations 7
1
1.000000000000000 0.000000000000000 0.000000000000000 0.000000000000000 
0.000000000000000 1.000000000000000 0.000000000000000 0.000000000000000 
0.000000000000000 0.000000000000000 1.000000000000000 0.000000000000000 
1
1.000000000000000 0.000000000000000 0.000000000000000 0.000000000000000 
0.000000000000000 1.000000000000000 0.000000000000000 0.000000000000000 
0.000000000000000 0.000000000000000 1.000000000000000 0.000000000000000 
2  2 -1 0
1
1.000000000000000 0.000000000000000 0.000000000000000 0.000000000000000 
0.000000000000000 1.000000000000000 0.000000000000000 0.000000000000000 
0.000000000000000 0.000000000000000 1.000000000000000 0.000000000000000 
1
1.000000000000000 0.000000000000000 0.000000000000000 0.000000000000000 
0.000000000000000 1.000000000000000 0.000000000000000 0.000000000000000 
0.000000000000000 0.000000000000000 1.000000000000000 -1.000000000000000 
2  4 1 5 1 0
2  2 -1 5 -1 4 -1 0
Curve2ds 32
1 0.00000000000000000 0.00000000000000000 1.00000000000000000 0.00000000000000000 
1 0.00000000000000000 0.44547727214752519 1.00000000000000000 0.00000000000000000 
1 0.00000000000000000 0.00000000000000000 1.00000000000000000 0.00000000000000000 
1 6.28318530717958623 0.00000000000000000 0.00000000000000000 1.00000000000000000 
1 0.00000000000000000 0.00000000000000000 0.00000000000000000 1.00000000000000000 
1 0.00000000000000000 0.00000000000000000 1.00000000000000000 0.00000000000000000 
1 0.00000000000000000 2.16999999999999993 1.00000000000000000 0.00000000000000000 
1 0.00000000000000000 0.00000000000000000 1.00000000000000000 0.00000000000000000 
1 6.28318530717958623 0.00000000000000000 0.00000000000000000 1.00000000000000000 
1 0.00000000000000000 0.00000000000000000 0.00000000000000000 1.00000000000000000 
7 0 0  6 12 3  1.04719755119659741 -0.00000000000000008  0.96791203862190189 0.05606332359141836  0.88427156201306900 0.09980828154973231  0.79687274149630127 0.13208065100391408  0.70670039658087802 0.15341667251924207  0.61514979965397454 0.16408469961176769  0.43204775154262293 0.16408469961176769  0.34049715461571317 0.15341667251923852  0.25032480970029525 0.13208065100392297  0.16292598918352397 0.09980828154972698  0.07928551257469547 0.05606332359141829  0.00000000000000000 -0.00000000000000016 
 -0.54930614433405467 7 0.00000000000000033 5 0.54930614433405478 7
7 0 0  6 12 3  6.28318530717958623 -0.00000000000000008  6.20389979460489105 0.05606332359141843  6.12025931799615819 0.09980828154972787  6.03286049747907782 0.13208065100392297  5.94268815256390326 0.15341667251924029  5.85113755563696269 0.16408469961176772  5.66803550752561147 0.16408469961176766  5.57648491059882190 0.15341667251924385  5.48631256568285153 0.13208065100392119  5.39891374516668066 0.09980828154973054  5.31527326855768312 0.05606332359141811  5.23598775598298793 -0.00000000000000047 
 -0.54930614433405489 7 0.00000000000000033 5 0.54930614433405545 7
7 0 0  6 12 3  5.23598775598298793 -0.00000000000000016  5.15670224340829275 0.05606332359141830  5.07306176679952614 0.09980828154972698  4.98566294628267315 0.13208065100392297  4.89549060136732805 0.15341667251923852  4.80394000444036440 0.16408469961176755  4.62083795632901317 0.16408469961176750  4.52928735940227511 0.15341667251924562  4.43911501448644685 0.13208065100391586  4.35171619397004861 0.09980828154973409  4.26807571736108571 0.05606332359141830  4.18879020478639053 -0.00000000000000016 
 -0.54930614433405467 7 0.00000000000000000 5 0.54930614433405467 7
7 0 0  6 12 3  4.18879020478638964 0.00000000000000031  4.10950469221169445 0.05606332359141863  4.02586421560295094 0.09980828154973231  3.93846539508581373 0.13208065100391408  3.84829305017080969 0.15341667251924562  3.75674245324376654 0.16408469961176758  3.57364040513241532 0.16408469961176747  3.48208980820547254 0.15341667251924385  3.39191746329004218 0.13208065100391764  3.30451864277330287 0.09980828154973231  3.22087816616448874 0.05606332359141823  3.14159265358979312 -0.00000000000000016 
 -0.54930614433405389 7 0.00000000000000033 5 0.54930614433405456 7
7 0 0  6 12 3  3.14159265358979223 0.00000000000000016  3.06230714101509660 0.05606332359141851  2.97866666440626204 0.09980828154973320  2.89126784388940905 0.13208065100391231  2.80109549897406396 0.15341667251924562  2.70954490204716958 0.16408469961176753  2.52644285393581836 0.16408469961176753  2.43489225700895418 0.15341667251924207  2.34471991209335329 0.13208065100391941  2.25732109157675609 0.09980828154972876  2.17368061496789133 0.05606332359141852  2.09439510239319571 0.00000000000000016 
 -0.54930614433405422 7 0.00000000000000011 5 0.54930614433405434 7
7 0 0  6 12 3  2.09439510239319526 -0.00000000000000008  2.01510958981849964 0.05606332359141839  1.93146911320968684 0.09980828154972698  1.84407029269280542 0.13208065100392297  1.75389794777750296 0.15341667251924029  1.66234735085057217 0.16408469961176761  1.47924530273922050 0.16408469961176761  1.38769470581235055 0.15341667251924296  1.29752236089680650 0.13208065100392119  1.21012354038015246 0.09980828154973231  1.12648306377129304 0.05606332359141829  1.04719755119659763 -0.00000000000000016 
 -0.54930614433405478 7 0.00000000000000000 5 0.54930614433405478 7
1 0.00000000000000000 0.72831998462214420 1.00000000000000000 0.00000000000000000 
1 6.28318530717958623 0.00000000000000000 0.00000000000000000 1.00000000000000000 
1 0.00000000000000000 0.00000000000000000 0.00000000000000000 1.00000000000000000 
7 0 0  6 12 3  1.12948989443754488 0.95537068349849064  1.04755885263581794 1.01573939068075703  0.96004692728575947 1.06342917579473095  0.86746974765904383 1.09951950967968060  0.77084402502363503 1.12471236084529380  0.67186900438373010 1.13939490151851563  0.47275866983489451 1.14789117039206578  0.37262459642950319 1.14170490138435810  0.27367608414057543 1.12516023986927394  0.17780110411932526 1.09802202245687397  0.08631970880334998 1.05974906902799604  0.00000000000000000 1.00944181304277403 
 -0.64677482640156669 7 -0.04873434103375596 5 0.54930614433405478 7
7 0 0  6 12 3  6.28318530717958623 1.00944181304277425  6.19686559837623641 1.05974906902799626  6.10538420306028229 1.09802202245687397  6.00950922303877633 1.12516023986927394  5.91056071075013278 1.14170490138437231  5.81042663734469134 1.14789117039206601  5.61131630279585547 1.13939490151851541  5.51234128215594410 1.12471236084531512  5.41571555952032213 1.09951950967965217  5.32313837989380545 1.06342917579473806  5.23562645454376785 1.01573939068075680  5.15369541274204046 0.95537068349849030 
 -0.54930614433405478 7 0.04873434103375640 5 0.64677482640156747 7
7 0 0  6 12 3  5.31828009922393541 0.95537068349849041  5.22967249382808852 1.02065883883781261  5.13453759073348692 1.07111746930529961  5.03352630302981652 1.10811200402076793  4.92797976606613020 1.13249154958459997  4.82018478478495016 1.14468137234828382  4.60459317598442741 1.14468137234828382  4.49679819470341613 1.13249154958455733  4.39125165773896242 1.10811200402079635  4.29024037003608782 1.07111746930526408  4.19510546694128905 1.02065883883781283  4.10649786154544216 0.95537068349849041 
 -0.64677482640156680 7 0.00000000000000000 5 0.64677482640156680 7
7 0 0  6 12 3  4.27108254802733711 0.95537068349849064  4.18247494263149022 1.02065883883781283  4.08734003953679803 1.07111746930529961  3.98632875183341184 1.10811200402076793  3.88078221486938446 1.13249154958459997  3.77298723358835231 1.14468137234828382  3.55739562478783045 1.14468137234828382  3.44960064350681250 1.13249154958455733  3.34405410654238722 1.10811200402079635  3.24304281883945578 1.07111746930526408  3.14790791574469209 1.02065883883781283  3.05930031034884564 0.95537068349849052 
 -0.64677482640156647 7 0.00000000000000022 5 0.64677482640156680 7
7 0 0  6 12 3  3.22388499683074015 0.95537068349849052  3.13527739143489370 1.02065883883781283  3.04014248834027967 1.07111746930527119  2.93913120063672295 1.10811200402076793  2.83358466367292294 1.13249154958458575  2.72578968239175490 1.14468137234828382  2.51019807359123304 1.14468137234828382  2.40240309231009519 1.13249154958455733  2.29685655534603939 1.10811200402079635  2.19584526764279531 1.07111746930526408  2.10071036454809423 1.02065883883781283  2.01210275915224779 0.95537068349849064 
 -0.64677482640156680 7 -0.00000000000000011 5 0.64677482640156658 7
7 0 0  6 12 3  2.17668744563414274 0.95537068349849075  2.08807984023829629 1.02065883883781305  1.99294493714360499 1.07111746930529961  1.89193364944026143 1.10811200402076793  1.78638711247624826 1.13249154958459997  1.67859213119515749 1.14468137234828382  1.46300052239463518 1.14468137234828382  1.35520554111356262 1.13249154958457865  1.24965900414940734 1.10811200402082477  1.14864771644622010 1.07111746930526408  1.05351281335149660 1.02065883883781283  0.96490520795565016 0.95537068349849064 
 -0.64677482640156680 7 -0.00000000000000011 5 0.64677482640156669 7
1 6.28318530717958623 0.00000000000000000 0.00000000000000000 1.00000000000000000 
1 0.00000000000000000 0.00000000000000000 0.00000000000000000 1.00000000000000000 
1 0.00000000000000000 1.87889923314235396 1.00000000000000000 0.00000000000000000 
1 0.00000000000000000 1.28976142529208837 1.00000000000000000 0.00000000000000000 
1 0.00000000000000000 1.57079632679489278 1.00000000000000000 0.00000000000000000 
1 6.28318530717958623 1.28976142529208837 0.00000000000000000 1.00000000000000000 
1 0.00000000000000000 1.28976142529208837 0.00000000000000000 1.00000000000000000 
Curves 34
2 0.00000000000000000 0.00000000000000000 0.00000000000000000 0.00000000000000000 0.00000000000000000 1.00000000000000000 1.00000000000000000 0.00000000000000000 -0.00000000000000000 -0.00000000000000000 1.00000000000000000 0.00000000000000000 1.19999999999999996
2 0.00000000000000000 0.00000000000000000 -0.31500000000000017 0.00000000000000000 0.00000000000000000 1.00000000000000000 1.00000000000000000 0.00000000000000000 -0.00000000000000000 -0.00000000000000000 1.00000000000000000 0.00000000000000000 1.51500000000000012
1 1.19999999999999996 0.00000000000000000 0.00000000000000000 0.70710678118654757 0.00000000000000000 -0.70710678118654757 
2 0.00000000000000000 0.00000000000000000 0.00000000000000000 0.00000000000000000 0.00000000000000000 1.00000000000000000 1.00000000000000000 0.00000000000000000 -0.00000000000000000 -0.00000000000000000 1.00000000000000000 0.00000000000000000 0.86602540378443871
2 0.00000000000000000 0.00000000000000000 0.00000000000000000 0.00000000000000000 0.00000000000000000 1.00000000000000000 1.00000000000000000 0.00000000000000000 -0.00000000000000000 -0.00000000000000000 1.00000000000000000 0.00000000000000000 0.86602540378443871
2 0.00000000000000000 0.00000000000000000 0.00000000000000000 0.00000000000000000 0.00000000000000000 1.00000000000000000 1.00000000000000000 0.00000000000000000 -0.00000000000000000 -0.00000000000000000 1.00000000000000000 0.00000000000000000 0.86602540378443871
2 0.00000000000000000 0.00000000000000000 0.00000000000000000 0.00000000000000000 0.00000000000000000 1.00000000000000000 1.00000000000000000 0.00000000000000000 -0.00000000000000000 -0.00000000000000000 1.00000000000000000 0.00000000000000000 0.86602540378443871
2 0.00000000000000000 0.00000000000000000 0.00000000000000000 0.00000000000000000 0.00000000000000000 1.00000000000000000 1.00000000000000000 0.00000000000000000 -0.00000000000000000 -0.00000000000000000 1.00000000000000000 0.00000000000000000 0.86602540378443871
2 0.00000000000000000 0.00000000000000000 0.00000000000000000 0.00000000000000000 0.00000000000000000 1.00000000000000000 1.00000000000000000 0.00000000000000000 -0.00000000000000000 -0.00000000000000000 1.00000000000000000 0.00000000000000000 0.86602540378443871
2 0.00000000000000000 0.00000000000000000 -2.48499999999999988 0.00000000000000000 0.00000000000000000 1.00000000000000000 1.00000000000000000 0.00000000000000000 -0.00000000000000000 -0.00000000000000000 1.00000000000000000 0.00000000000000000 1.51500000000000012
1 1.51500000000000012 0.00000000000000000 -0.31500000000000017 0.00000000000000000 0.00000000000000000 -1.00000000000000000 
5 0.64951905283832911 0.37500000000000000 -0.86602540378443849 0.86602540378443871 0.49999999999999994 -0.00000000000000000 0.00000000000000000 0.00000000000000000 1.00000000000000000 0.49999999999999994 -0.86602540378443871 0.00000000000000000 0.75000000000000000 0.75000000000000011
5 0.64951905283832900 -0.37500000000000017 -0.86602540378443849 0.86602540378443860 -0.50000000000000022 0.00000000000000000 0.00000000000000000 0.00000000000000000 1.00000000000000000 -0.50000000000000022 -0.86602540378443860 0.00000000000000000 0.74999999999999989 0.75000000000000000
5 -0.00000000000000048 -0.75000000000000022 -0.86602540378443849 -0.00000000000000064 -1.00000000000000000 0.00000000000000000 0.00000000000000000 0.00000000000000000 1.00000000000000000 -1.00000000000000000 0.00000000000000064 0.00000000000000000 0.75000000000000000 0.75000000000000022
5 -0.64951905283832934 -0.37499999999999983 -0.86602540378443849 -0.86602540378443893 -0.49999999999999961 0.00000000000000000 0.00000000000000000 0.00000000000000000 1.00000000000000000 -0.49999999999999961 0.86602540378443893 0.00000000000000000 0.75000000000000000 0.75000000000000022
5 -0.64951905283832900 0.37500000000000039 -0.86602540378443849 -0.86602540378443849 0.50000000000000033 0.00000000000000000 0.00000000000000000 0.00000000000000000 1.00000000000000000 0.50000000000000033 0.86602540378443849 -0.00000000000000000 0.75000000000000000 0.75000000000000022
5 0.00000000000000019 0.75000000000000011 -0.86602540378443849 0.00000000000000026 1.00000000000000000 -0.00000000000000000 0.00000000000000000 0.00000000000000000 1.00000000000000000 1.00000000000000000 -0.00000000000000026 0.00000000000000000 0.75000000000000000 0.75000000000000011
2 0.00000000000000000 0.00000000000000000 -3.00000000000000000 0.00000000000000000 0.00000000000000000 1.00000000000000000 1.00000000000000000 0.00000000000000000 -0.00000000000000000 -0.00000000000000000 1.00000000000000000 0.00000000000000000 1.00000000000000000
1 1.51500000000000012 0.00000000000000000 -2.48499999999999988 -0.70710678118654757 0.00000000000000000 -0.70710678118654757 
1 0.43301270189221946 0.75000000000000000 1.00000000000000000 0.00000000000000000 0.00000000000000000 -1.00000000000000000 
5 0.64951905283832911 0.37500000000000000 -1.13725170314457991 0.86602540378443871 0.49999999999999994 -0.00000000000000000 0.00000000000000000 0.00000000000000000 1.00000000000000000 0.49999999999999994 -0.86602540378443871 0.00000000000000000 0.44914316252094078 0.75000000000000011
1 0.86602540378443871 0.00000000000000000 1.00000000000000000 0.00000000000000000 0.00000000000000000 -1.00000000000000000 
5 0.64951905283832900 -0.37500000000000017 -1.13725170314457991 0.86602540378443860 -0.50000000000000022 0.00000000000000000 0.00000000000000000 0.00000000000000000 1.00000000000000000 -0.50000000000000022 -0.86602540378443860 0.00000000000000000 0.44914316252094072 0.75000000000000000
1 0.43301270189221891 -0.75000000000000044 1.00000000000000000 0.00000000000000000 0.00000000000000000 -1.00000000000000000 
5 -0.00000000000000048 -0.75000000000000022 -1.13725170314457991 -0.00000000000000064 -1.00000000000000000 0.00000000000000000 0.00000000000000000 0.00000000000000000 1.00000000000000000 -1.00000000000000000 0.00000000000000064 0.00000000000000000 0.44914316252094083 0.75000000000000022
1 -0.43301270189221985 -0.74999999999999989 1.00000000000000000 0.00000000000000000 0.00000000000000000 -1.00000000000000000 
5 -0.64951905283832934 -0.37499999999999983 -1.13725170314457991 -0.86602540378443893 -0.49999999999999961 0.00000000000000000 0.00000000000000000 0.00000000000000000 1.00000000000000000 -0.49999999999999961 0.86602540378443893 0.00000000000000000 0.44914316252094083 0.75000000000000022
1 -0.86602540378443882 0.00000000000000039 1.00000000000000000 0.00000000000000000 0.00000000000000000 -1.00000000000000000 
5 -0.64951905283832900 0.37500000000000039 -1.13725170314457991 -0.86602540378443849 0.50000000000000033 0.00000000000000000 0.00000000000000000 0.00000000000000000 1.00000000000000000 0.50000000000000033 0.86602540378443849 -0.00000000000000000 0.44914316252094083 0.75000000000000022
1 -0.43301270189221919 0.75000000000000022 1.00000000000000000 0.00000000000000000 0.00000000000000000 -1.00000000000000000 
5 0.00000000000000019 0.75000000000000011 -1.13725170314457991 0.00000000000000026 1.00000000000000000 -0.00000000000000000 0.00000000000000000 0.00000000000000000 1.00000000000000000 1.00000000000000000 -0.00000000000000026 0.00000000000000000 0.44914316252094078 0.75000000000000011
1 1.73205080756887742 0.00000000000000000 -0.10000000000000009 -0.85792503598990677 0.00000000000000000 -0.51377488516053138 
2 0.00000000000000000 0.00000000000000000 -1.06533123773592342 0.00000000000000000 0.00000000000000000 1.00000000000000000 1.00000000000000000 0.00000000000000000 -0.00000000000000000 -0.00000000000000000 1.00000000000000000 0.00000000000000000 0.12009611535381530
2 -0.00000000000000167 0.00000000000000000 -0.64930609056698751 0.00000000000000000 1.00000000000000000 0.00000000000000000 0.27735009811260936 0.00000000000000000 -0.96076892283052429 -0.96076892283052429 0.00000000000000000 -0.27735009811260936 0.43301270189223323
Polygon3D 0
PolygonOnTriangulations 0
Surfaces 19
3 0.00000000000000000 0.00000000000000000 0.00000000000000000 -0.00000000000000000 -0.00000000000000000 -1.00000000000000000 1.00000000000000000 0.00000000000000000 0.00000000000000000 -0.00000000000000000 1.00000000000000000 -0.00000000000000000 1.19999999999999996
0.78539816339744839
2 0.00000000000000000 0.00000000000000000 -0.31500000000000017 -0.00000000000000000 -0.00000000000000000 -1.00000000000000000 1.00000000000000000 0.00000000000000000 0.00000000000000000 -0.00000000000000000 1.00000000000000000 -0.00000000000000000 1.51500000000000012
1 0.00000000000000000 0.00000000000000000 0.00000000000000000 0.00000000000000000 0.00000000000000000 1.00000000000000000 -1.00000000000000000 0.00000000000000000 0.00000000000000000 -0.00000000000000000 1.00000000000000000 -0.00000000000000000 
3 0.00000000000000000 0.00000000000000000 0.00000000000000000 -0.00000000000000000 -0.00000000000000000 -1.00000000000000000 1.00000000000000000 0.00000000000000000 0.00000000000000000 -0.00000000000000000 1.00000000000000000 -0.00000000000000000 0.86602540378443871
-0.78539816339744839
3 0.00000000000000000 0.00000000000000000 0.00000000000000000 -0.00000000000000000 -0.00000000000000000 -1.00000000000000000 1.00000000000000000 0.00000000000000000 0.00000000000000000 -0.00000000000000000 1.00000000000000000 -0.00000000000000000 0.86602540378443871
-0.78539816339744839
3 0.00000000000000000 0.00000000000000000 0.00000000000000000 -0.00000000000000000 -0.00000000000000000 -1.00000000000000000 1.00000000000000000 0.00000000000000000 0.00000000000000000 -0.00000000000000000 1.00000000000000000 -0.00000000000000000 0.86602540378443871
-0.78539816339744839
3 0.00000000000000000 0.00000000000000000 0.00000000000000000 -0.00000000000000000 -0.00000000000000000 -1.00000000000000000 1.00000000000000000 0.00000000000000000 0.00000000000000000 -0.00000000000000000 1.00000000000000000 -0.00000000000000000 0.86602540378443871
-0.78539816339744839
3 0.00000000000000000 0.00000000000000000 0.00000000000000000 -0.00000000000000000 -0.00000000000000000 -1.00000000000000000 1.00000000000000000 0.00000000000000000 0.00000000000000000 -0.00000000000000000 1.00000000000000000 -0.00000000000000000 0.86602540378443871
-0.78539816339744839
3 0.00000000000000000 0.00000000000000000 0.00000000000000000 -0.00000000000000000 -0.00000000000000000 -1.00000000000000000 1.00000000000000000 0.00000000000000000 0.00000000000000000 -0.00000000000000000 1.00000000000000000 -0.00000000000000000 0.86602540378443871
-0.78539816339744839
3 0.00000000000000000 0.00000000000000000 -2.48499999999999988 -0.00000000000000000 -0.00000000000000000 -1.00000000000000000 1.00000000000000000 0.00000000000000000 0.00000000000000000 -0.00000000000000000 1.00000000000000000 -0.00000000000000000 1.51500000000000012
-0.78539816339744839
1 0.86602540378443871 0.00000000000000000 1.00000000000000000 0.86602540378443871 0.49999999999999994 0.00000000000000000 -0.49999999999999994 0.86602540378443871 0.00000000000000000 0.00000000000000000 -0.00000000000000000 1.00000000000000000 
3 0.00000000000000000 0.00000000000000000 -0.10000000000000009 -0.00000000000000000 -0.00000000000000000 -1.00000000000000000 1.00000000000000000 0.00000000000000000 0.00000000000000000 -0.00000000000000000 1.00000000000000000 -0.00000000000000000 1.73205080756887742
-1.03121728668114332
1 0.43301270189221891 -0.75000000000000044 1.00000000000000000 0.86602540378443860 -0.50000000000000022 0.00000000000000000 0.50000000000000022 0.86602540378443860 0.00000000000000000 -0.00000000000000000 0.00000000000000000 1.00000000000000000 
1 -0.43301270189221985 -0.74999999999999989 1.00000000000000000 -0.00000000000000064 -1.00000000000000000 -0.00000000000000000 1.00000000000000000 -0.00000000000000064 0.00000000000000000 -0.00000000000000000 0.00000000000000000 1.00000000000000000 
1 -0.86602540378443882 0.00000000000000039 1.00000000000000000 -0.86602540378443893 -0.49999999999999961 -0.00000000000000000 0.49999999999999961 -0.86602540378443893 0.00000000000000000 -0.00000000000000000 0.00000000000000000 1.00000000000000000 
1 -0.43301270189221919 0.75000000000000022 1.00000000000000000 -0.86602540378443849 0.50000000000000033 0.00000000000000000 -0.50000000000000033 -0.86602540378443849 0.00000000000000000 0.00000000000000000 0.00000000000000000 1.00000000000000000 
1 0.43301270189221946 0.75000000000000000 1.00000000000000000 0.00000000000000026 1.00000000000000000 0.00000000000000000 -1.00000000000000000 0.00000000000000026 0.00000000000000000 0.00000000000000000 -0.00000000000000000 1.00000000000000000 
1 0.00000000000000000 0.00000000000000000 -3.00000000000000000 0.00000000000000000 0.00000000000000000 1.00000000000000000 1.00000000000000000 0.00000000000000000 -0.00000000000000000 -0.00000000000000000 1.00000000000000000 0.00000000000000000 
4 -0.00000000000000167 0.00000000000000000 -0.64930609056698751 -0.00000000000000000 -0.00000000000000000 -1.00000000000000000 1.00000000000000000 0.00000000000000000 0.00000000000000000 -0.00000000000000000 1.00000000000000000 -0.00000000000000000 0.43301270189223323
Triangulations 0

TShapes 95
Ve
0.000000100000000
1.200000000000000 0.000000000000000 0.000000000000000
0 0

0101101
*
Ed
 0.000000100000000 1 1 0
1  1 0 0.000000000000000 6.283185307179586
2  1 1 0 0.000000000000000 6.283185307179586
0

0101000
+95 3 -95 3 *
Ve
0.000000100000000
1.515000000000000 0.000000000000000 -0.315000000000000
0 0

0101101
*
Ed
 0.000000100000000 1 1 0
1  2 0 0.000000000000000 6.283185307179586
2  2 1 0 0.000000000000000 6.283185307179586
2  3 2 0 0.000000000000000 6.283185307179586
0

0101000
+93 3 -93 3 *
Ed
 0.000000100000000 1 1 0
1  3 0 0.000000000000000 0.445477272147525
3  4 5CN 1 0 0.000000000000000 0.445477272147525
0

0101000
+95 3 -93 3 *
Wi

0101100
+94 0 -92 0 -91 0 +91 0 *
Fa
0  0.000000100000000 1 0

0111000
+90 0 *
Wi

0101100
-94 0 *
Ve
0.000000100000000
0.866025403784439 0.000000000000000 0.000000000000000
0 0

0101101
*
Ve
0.000000100000000
0.433012701892219 0.750000000000000 0.000000000000000
0 0

0101101
*
Ed
 0.000000100000000 1 1 0
1  4 0 0.000000000000000 1.047197551196598
2  6 4 0 0.000000000000000 1.047197551196598
0

0101000
+87 3 -86 3 *
Ve
0.000000100000000
0.433012701892219 -0.750000000000000 0.000000000000000
0 0

0101101
*
Ed
 0.000000100000000 1 1 0
1  5 0 5.235987755982988 6.283185307179586
2  6 5 0 5.235987755982988 6.283185307179586
0

0101000
+84 3 -87 3 *
Ve
0.000000100000001
-0.433012701892220 -0.750000000000000 0.000000000000000
0 0

0101101
*
Ed
 0.000000100000000 1 1 0
1  6 0 4.188790204786390 5.235987755982988
2  6 6 0 4.188790204786390 5.235987755982988
0

0101000
+82 3 -84 3 *
Ve
0.000000100000001
-0.866025403784439 0.000000000000000 0.000000000000000
0 0

0101101
*
Ed
 0.000000100000000 1 1 0
1  7 0 3.141592653589793 4.188790204786390
2  6 7 0 3.141592653589793 4.188790204786390
0

0101000
+80 3 -82 3 *
Ve
0.000000100000000
-0.433012701892219 0.750000000000000 0.000000000000000
0 0

0101101
*
Ed
 0.000000100000000 1 1 0
1  8 0 2.094395102393195 3.141592653589793
2  6 8 0 2.094395102393195 3.141592653589793
0

0101000
+78 3 -80 3 *
Ed
 0.000000100000000 1 1 0
1  9 0 1.047197551196598 2.094395102393195
2  6 9 0 1.047197551196598 2.094395102393195
0

0101000
+86 3 -78 3 *
Wi

0101100
+85 0 +83 0 +81 0 +79 0 +77 0 +76 0 *
Fa
0  0.000000100000000 3 0

0111000
+88 0 +75 0 *
Ve
0.000000100000000
1.515000000000000 0.000000000000000 -2.485000000000000
0 0

0101101
*
Ed
 0.000000100000000 1 1 0
1  10 0 0.000000000000000 6.283185307179586
2  7 2 0 0.000000000000000 6.283185307179586
2  8 10 0 0.000000000000000 6.283185307179586
0

0101000
+73 3 -73 3 *
Ed
 0.000000100000000 1 1 0
1  11 0 0.000000000000000 2.170000000000000
3  9 10CN 2 0 0.000000000000000 2.170000000000000
0

0101000
+93 3 -73 3 *
Wi

0101100
+92 0 -72 0 -71 0 +71 0 *
Fa
0  0.000000100000000 2 0

0111000
+70 0 *
Ed
 0.000000100000000 1 1 0
1  12 0 -0.549306144334055 0.549306144334055
2  11 4 0 -0.549306144334055 0.549306144334055
0

0101000
+86 3 -87 3 *
Wi

0101100
+68 0 +85 0 *
Fa
0  0.000000100000000 4 0

0111000
+67 0 *
Ed
 0.000000100000000 1 1 0
1  13 0 -0.549306144334055 0.549306144334055
2  12 5 0 -0.549306144334055 0.549306144334055
0

0101000
+87 3 -84 3 *
Wi

0101100
+83 0 +65 0 *
Fa
0  0.000000100000000 5 0

0111000
+64 0 *
Ed
 0.000000100000000 1 1 0
1  14 0 -0.549306144334055 0.549306144334055
2  13 6 0 -0.549306144334055 0.549306144334055
0

0101000
+84 3 -82 3 *
Wi

0101100
+81 0 +62 0 *
Fa
0  0.000000100000000 6 0

0111000
+61 0 *
Ed
 0.000000100000000 1 1 0
1  15 0 -0.549306144334054 0.549306144334055
2  14 7 0 -0.549306144334054 0.549306144334055
0

0101000
+82 3 -80 3 *
Wi

0101100
+79 0 +59 0 *
Fa
0  0.000000100000000 7 0

0111000
+58 0 *
Ed
 0.000000100000000 1 1 0
1  16 0 -0.549306144334054 0.549306144334054
2  15 8 0 -0.549306144334054 0.549306144334054
0

0101000
+80 3 -78 3 *
Wi

0101100
+56 0 +77 0 *
Fa
0  0.000000100000000 8 0

0111000
+55 0 *
Ed
 0.000000100000000 1 1 0
1  17 0 -0.549306144334055 0.549306144334055
2  16 9 0 -0.549306144334055 0.549306144334055
0

0101000
+78 3 -86 3 *
Wi

0101100
+53 0 +76 0 *
Fa
0  0.000000100000000 9 0

0111000
+52 0 *
Ve
0.000000100000000
1.000000000000000 0.000000000000000 -3.000000000000000
0 0

0101101
*
Ed
 0.000000100000000 1 1 0
1  18 0 0.000000000000000 6.283185307179586
2  17 10 0 0.000000000000000 6.283185307179586
0

0101000
+50 3 -50 3 *
Ed
 0.000000100000000 1 1 0
1  19 0 0.000000000000000 0.728319984622144
3  18 19CN 10 0 0.000000000000000 0.728319984622144
0

0101000
+73 3 -50 3 *
Wi

0101100
+72 0 -49 0 -48 0 +48 0 *
Fa
0  0.000000100000000 10 0

0111000
+47 0 *
Ve
0.000000100000000
0.433012701892219 0.750000000000000 -1.618625851572290
0 0

0101101
*
Ed
 0.000000100000000 1 1 0
1  20 0 0.000000000000000 1.618625851572290
0

0101000
+86 7 -45 7 *
Ve
0.000000100000000
0.866025403784439 0.000000000000000 -1.618625851572290
0 0

0101101
*
Ed
 0.000000100000000 1 1 0
1  21 0 -0.549306144334055 0.549306144334055
2  20 12 0 -0.549306144334055 0.549306144334055
0

0101000
+45 7 -43 7 *
Ed
 0.000000100000000 1 1 0
1  22 0 0.000000000000000 1.618625851572290
0

0101000
+87 7 -43 7 *
Wi

0101100
-44 6 -42 6 +41 6 +68 0 *
Fa
0  0.000000100000000 11 6

0111000
+40 0 *
Ve
0.000000100000000
0.433012701892219 -0.750000000000000 -1.618625851572290
0 0

0101101
*
Ed
 0.000000100000000 1 1 0
1  23 0 -0.549306144334055 0.549306144334055
2  21 12 0 -0.549306144334055 0.549306144334055
0

0101000
+43 7 -38 7 *
Ed
 0.000000100000000 1 1 0
1  24 0 0.000000000000000 1.618625851572290
0

0101000
+84 7 -38 7 *
Wi

0101100
-41 6 -37 6 +36 6 +65 0 *
Fa
0  0.000000100000000 13 6

0111000
+35 0 *
Ve
0.000000100000000
-0.433012701892220 -0.750000000000000 -1.618625851572290
0 0

0101101
*
Ed
 0.000000100000000 1 1 0
1  25 0 -0.549306144334055 0.549306144334055
2  22 12 0 -0.549306144334055 0.549306144334055
0

0101000
+38 7 -33 7 *
Ed
 0.000000100000000 1 1 0
1  26 0 0.000000000000000 1.618625851572290
0

0101000
+82 7 -33 7 *
Wi

0101100
-36 6 -32 6 +31 6 +62 0 *
Fa
0  0.000000100000000 14 6

0111000
+30 0 *
Ve
0.000000100000000
-0.866025403784439 0.000000000000000 -1.618625851572290
0 0

0101101
*
Ed
 0.000000100000000 1 1 0
1  27 0 -0.549306144334055 0.549306144334055
2  23 12 0 -0.549306144334055 0.549306144334055
0

0101000
+33 7 -28 7 *
Ed
 0.000000100000000 1 1 0
1  28 0 0.000000000000000 1.618625851572290
0

0101000
+80 7 -28 7 *
Wi

0101100
-31 6 -27 6 +26 6 +59 0 *
Fa
0  0.000000100000000 15 6

0111000
+25 0 *
Ve
0.000000100000000
-0.433012701892219 0.750000000000000 -1.618625851572290
0 0

0101101
*
Ed
 0.000000100000000 1 1 0
1  29 0 -0.549306144334055 0.549306144334055
2  24 12 0 -0.549306144334055 0.549306144334055
0

0101000
+28 7 -23 7 *
Ed
 0.000000100000000 1 1 0
1  30 0 0.000000000000000 1.618625851572290
0

0101000
+78 7 -23 7 *
Wi

0101100
-26 6 -22 6 +21 6 +56 0 *
Fa
0  0.000000100000000 16 6

0111000
+20 0 *
Ed
 0.000000100000000 1 1 0
1  31 0 -0.549306144334055 0.549306144334055
2  25 12 0 -0.549306144334055 0.549306144334055
0

0101000
+23 7 -45 7 *
Wi

0101100
-21 6 -18 6 +44 6 +53 0 *
Fa
0  0.000000100000000 17 6

0111000
+17 0 *
Wi

0101100
+49 0 *
Fa
0  0.000000100000000 18 0

0111000
+15 0 *
Ve
0.000000100000000
0.120096115353815 0.000000000000000 -2.065331237735923
0 0

0101101
*
Ed
 0.000000100000000 1 1 0
1  32 0 1.009441813042774 1.878899233142354
3  26 27CN 12 0 1.009441813042774 1.878899233142354
0

0101000
+43 7 -13 7 *
Ed
 0.000000100000000 1 1 0
1  33 0 0.000000000000000 6.283185307179586
2  28 12 0 0.000000000000000 6.283185307179586
2  29 19 0 0.000000000000000 6.283185307179586
0

0101000
+13 7 -13 7 *
Wi

0101100
-37 0 -32 0 -27 0 -22 0 -18 0 -42 0 -12 0 -11 0 +12 0 *
Fa
0  0.000000100000000 12 0

0111000
+10 0 *
Ve
0.000000100000000
0.000000000000000 0.000000000000000 -2.082318792459221
0 0

0101101
*
Ed
 0.000000100000000 1 1 1
2  30 19 0 0.000000000000000 6.283185307179586
0

0101000
+8 7 -8 7 *
Ed
 0.000000100000000 1 1 0
1  34 0 0.000000000000000 0.281034901502804
3  31 32CN 19 0 0.000000000000000 0.281034901502804
0

0101000
+13 7 -8 7 *
Wi

0101100
+11 0 -7 0 -6 0 +6 0 *
Fa
0  0.000000100000000 19 0

0111000
+5 0 *
Sh

0101100
-89 0 -74 0 -69 0 +66 0 +63 0 +60 0 +57 0 +54 0 +51 0 -46 0 
-39 0 -34 0 -29 0 -24 0 -19 0 -16 0 -14 0 +9 6 +4 6 *
So

0100000
+3 0 *
Co

1100000
+2 0 *

+1 1 