
CASCADE Topology V1, (c) Matra-Datavision
Locations 12
1
1.000000000000000 0.000000000000000 0.000000000000000 0.000000000000000 
0.000000000000000 1.000000000000000 0.000000000000000 0.000000000000000 
0.000000000000000 0.000000000000000 1.000000000000000 0.000000000000000 
1
-1.000000000000000 0.000000000000000 0.000000000000000 0.000000000000000 
0.000000000000000 0.000000000000000 1.000000000000000 0.000000000000000 
-0.000000000000000 1.000000000000000 0.000000000000000 0.000000000000000 
1
1.000000000000000 0.000000000000000 0.000000000000000 0.000000000000000 
0.000000000000000 1.000000000000000 0.000000000000000 0.000000000000000 
0.000000000000000 0.000000000000000 1.000000000000000 0.000000000000000 
2  1 1 2 1 3 -1 0
1
1.000000000000000 0.000000000000000 0.000000000000000 0.000000000000021 
0.000000000000000 1.000000000000000 0.000000000000000 67.326871512527106 
0.000000000000000 0.000000000000000 1.000000000000000 0.000000000000000 
2  1 1 2 1 3 -1 5 1 0
2  3 1 2 -1 1 -1 0
2  5 -1 3 1 2 -1 1 -1 0
2  2 -1 1 -1 0
2  3 -1 0
2  1 1 2 1 0
2  3 -1 5 1 0
Curve2ds 5
1 0.00000000000000000 0.00000000000000000 0.00000000000000000 -1.00000000000000000 
1 6.28318530717958623 0.00000000000000000 0.00000000000000000 -1.00000000000000000 
1 0.00000000000000000 0.00000000000000000 1.00000000000000000 0.00000000000000000 
1 0.00000000000000000 -67.32687151252710578 1.00000000000000000 0.00000000000000000 
2 0.00000000000000002 0.00000000000000000 -1.00000000000000000 0.00000000000000016 -0.00000000000000016 -1.00000000000000000 1.50000000000000044
Curves 2
1 -1.50000000000000200 -0.00000000000000164 9.50000000000000178 0.00000000000000031 1.00000000000000000 0.00000000000000000 
2 0.00000000000000000 9.50000000000000000 0.00000000000000000 0.00000000000000000 0.00000000000000000 1.00000000000000000 1.00000000000000000 0.00000000000000000 -0.00000000000000000 -0.00000000000000000 1.00000000000000000 0.00000000000000000 1.50000000000000000
Polygon3D 0
PolygonOnTriangulations 0
Surfaces 2
2 -0.00000000000000149 -0.00000000000000211 9.50000000000000178 -0.00000000000000031 -1.00000000000000000 -0.00000000000000022 -1.00000000000000000 0.00000000000000031 -0.00000000000000016 -0.00000000000000016 -0.00000000000000022 1.00000000000000000 1.50000000000000044
1 -0.00000000000000151 -0.00000000000000211 9.50000000000000178 0.00000000000000031 1.00000000000000000 0.00000000000000022 1.00000000000000000 -0.00000000000000031 0.00000000000000000 0.00000000000000000 0.00000000000000022 -1.00000000000000000 
Triangulations 0

TShapes 9
Ve
0.000000100000000
1.500000000000000 9.500000000000000 0.000000000000000
0 0

0101101
*
Ed
 0.000000100000000 1 1 0
1  1 0 0.000000000000000 67.326871512527106
3  1 2CN 1 0 0.000000000000000 67.326871512527106
0

0101000
+9 4 -9 6 *
Ed
 0.000000100000000 1 1 0
1  2 0 0.000000000000000 6.283185307179586
2  3 1 7 0.000000000000000 6.283185307179586
2  4 1 8 0.000000000000000 6.283185307179586
2  5 2 9 0.000000000000000 6.283185307179586
0

0101000
+9 0 -9 0 *
Wi

0101100
+8 0 -8 0 -7 4 +7 6 *
Fa
0  0.000000100000000 1 0

0111000
+6 0 *
Wi

0101100
+7 0 *
Fa
0  0.000000100000000 2 0

0111000
+4 11 *
Sh

0101100
+5 0 +3 10 -3 12 *
So

1100000
-2 0 *

+1 0 