
CASCADE Topology V1, (c) Matra-Datavision
Locations 33
1
1.000000000000000 0.000000000000000 0.000000000000000 0.000000000000000 
0.000000000000000 0.000000000000000 -1.000000000000000 0.000000000000000 
0.000000000000000 1.000000000000000 0.000000000000000 0.000000000000000 
1
1.000000000000000 0.000000000000000 0.000000000000000 0.000000000000000 
0.000000000000000 -0.000000000000000 -1.000000000000000 0.000000000000000 
0.000000000000000 1.000000000000000 -0.000000000000000 0.000000000000000 
1
1.000000000000000 0.000000000000000 0.000000000000000 0.000000000000000 
0.000000000000000 -0.000000000000000 -1.000000000000000 0.000000000000000 
0.000000000000000 1.000000000000000 -0.000000000000000 0.000000000000000 
2  2 1 3 -1 0
1
1.000000000000000 0.000000000000000 0.000000000000000 0.000000000000000 
0.000000000000000 1.000000000000000 0.000000000000000 0.000000000000000 
0.000000000000000 0.000000000000000 1.000000000000000 0.000000000000000 
1
1.000000000000000 0.000000000000000 0.000000000000000 0.000000000000000 
0.000000000000000 -0.000000000000000 -1.000000000000000 0.000000000000000 
0.000000000000000 1.000000000000000 -0.000000000000000 0.000000000000000 
1
1.000000000000000 0.000000000000000 0.000000000000000 0.000000000000000 
0.000000000000000 -0.000000000000000 -1.000000000000000 0.000000000000000 
0.000000000000000 1.000000000000000 -0.000000000000000 0.000000000000000 
1
1.000000000000000 0.000000000000000 0.000000000000000 -0.000000000000000 
0.000000000000000 1.000000000000000 0.000000000000000 -0.000000000000000 
0.000000000000000 0.000000000000000 1.000000000000000 -61.000000000000007 
2  5 1 6 1 7 -1 8 1 0
1
1.000000000000000 0.000000000000000 0.000000000000000 0.000000000000000 
0.000000000000000 1.000000000000000 0.000000000000000 0.000000000000000 
0.000000000000000 0.000000000000000 1.000000000000000 122.000000000000014 
2  5 1 6 1 7 -1 8 1 10 1 0
2  5 1 6 1 7 -1 8 1 2 1 3 -1 0
1
1.000000000000000 0.000000000000000 0.000000000000000 -0.000000000000000 
0.000000000000000 1.000000000000000 0.000000000000000 -0.000000000000027 
0.000000000000000 0.000000000000000 1.000000000000000 -60.000000000000000 
1
1.000000000000000 0.000000000000000 0.000000000000000 0.000000000000000 
0.000000000000000 -0.000000000000000 -1.000000000000000 0.000000000000000 
0.000000000000000 1.000000000000000 -0.000000000000000 0.000000000000000 
1
1.000000000000000 0.000000000000000 0.000000000000000 0.000000000000000 
0.000000000000000 0.000000000000000 -1.000000000000000 0.000000000000000 
0.000000000000000 1.000000000000000 0.000000000000000 0.000000000000000 
1
1.000000000000000 0.000000000000000 0.000000000000000 0.000000000000000 
0.000000000000000 1.000000000000000 0.000000000000000 0.000000000000000 
0.000000000000000 0.000000000000000 1.000000000000000 0.000000000000000 
2  13 -1 14 1 15 -1 16 -1 0
1
1.000000000000000 0.000000000000000 0.000000000000000 0.000000000000000 
0.000000000000000 1.000000000000000 0.000000000000000 0.000000000000053 
0.000000000000000 0.000000000000000 1.000000000000000 120.000000000000000 
2  18 -1 13 -1 14 1 15 -1 16 -1 0
2  8 -1 7 1 6 -1 5 -1 0
2  10 -1 8 -1 7 1 6 -1 5 -1 0
2  5 1 6 1 7 -1 8 1 10 1 2 1 3 -1 0
1
1.000000000000000 0.000000000000000 0.000000000000000 0.000000000000000 
0.000000000000000 1.000000000000000 0.000000000000000 0.000000000000000 
0.000000000000000 0.000000000000000 1.000000000000000 0.000000000000000 
1
-1.000000000000000 0.000000000000000 0.000000000000000 0.000000000000000 
0.000000000000000 -1.000000000000000 0.000000000000000 -0.000000000000019 
0.000000000000000 0.000000000000000 1.000000000000000 84.700000000000017 
2  23 1 24 1 3 -1 0
2  3 1 24 -1 23 -1 0
1
1.000000000000000 0.000000000000000 0.000000000000000 0.000000000000000 
0.000000000000000 1.000000000000000 0.000000000000000 -457.159159645741113 
0.000000000000000 0.000000000000000 1.000000000000000 0.000000000000000 
2  27 -1 3 1 24 -1 23 -1 0
2  24 -1 23 -1 0
2  2 1 24 -1 23 -1 0
2  7 -1 8 1 2 1 3 -1 0
2  5 1 6 1 0
2  7 -1 8 1 10 1 2 1 3 -1 0
Curve2ds 56
1 0.00000000000000000 0.00000000000000000 0.00000000000000000 -1.00000000000000000 
1 169.40000000000003411 0.00000000000000000 0.00000000000000000 -1.00000000000000000 
1 0.00000000000000000 0.00000000000000000 1.00000000000000000 0.00000000000000000 
1 0.00000000000000000 -120.00000000000000000 1.00000000000000000 0.00000000000000000 
1 0.00000000000000000 0.00000000000000000 1.00000000000000000 0.00000000000000000 
1 0.00000000000000000 -122.00000000000001421 1.00000000000000000 0.00000000000000000 
1 87.40000000000000568 0.00000000000000000 0.00000000000000000 -1.00000000000000000 
1 0.00000000000000000 0.00000000000000000 0.00000000000000000 -1.00000000000000000 
1 0.00000000000000000 0.00000000000000000 1.00000000000000000 0.00000000000000000 
1 0.00000000000000000 -457.15915964574111285 1.00000000000000000 0.00000000000000000 
2 0.00000000000000000 0.00000000000000000 -1.00000000000000000 0.00000000000000000 -0.00000000000000000 -1.00000000000000000 3.96874999999999645
2 12.69999999999999929 -109.30000000000003979 -1.00000000000000000 0.00000000000000000 -0.00000000000000000 -1.00000000000000000 3.96874999999999645
1 0.00000000000000000 0.00000000000000000 1.00000000000000000 0.00000000000000000 
1 0.00000000000000000 -457.15915964574111285 1.00000000000000000 0.00000000000000000 
2 0.00000000000000000 0.00000000000000000 0.00000000000000000 1.00000000000000000 -1.00000000000000000 0.00000000000000000 3.96875000000000000
2 74.70000000000000284 -109.30000000000003979 -1.00000000000000000 0.00000000000000000 -0.00000000000000000 -1.00000000000000000 3.96875000000000000
1 0.00000000000000000 0.00000000000000000 1.00000000000000000 0.00000000000000000 
1 0.00000000000000000 -457.15915964574111285 1.00000000000000000 0.00000000000000000 
2 0.00000000000000711 0.00000000000000000 0.00000000000000000 1.00000000000000000 -1.00000000000000000 0.00000000000000000 3.96874999999999645
2 12.69999999999999929 -12.69999999999998153 -1.00000000000000000 0.00000000000000000 -0.00000000000000000 -1.00000000000000000 3.96874999999999645
1 0.00000000000000000 0.00000000000000000 1.00000000000000000 0.00000000000000000 
1 0.00000000000000000 -457.15915964574111285 1.00000000000000000 0.00000000000000000 
2 0.00000000000000000 0.00000000000000000 -1.00000000000000000 0.00000000000000000 -0.00000000000000000 -1.00000000000000000 3.96875000000000000
2 74.70000000000000284 -12.69999999999998153 -1.00000000000000000 0.00000000000000000 -0.00000000000000000 -1.00000000000000000 3.96875000000000000
1 87.40000000000000568 0.00000000000000000 0.00000000000000000 -1.00000000000000000 
1 0.00000000000000000 0.00000000000000000 0.00000000000000000 -1.00000000000000000 
1 0.00000000000000000 -0.00000000000000000 1.00000000000000000 0.00000000000000000 
1 0.00000000000000355 -120.00000000000000000 1.00000000000000000 0.00000000000000000 
1 0.00000000000000000 0.00000000000000000 1.00000000000000000 0.00000000000000000 
1 0.00000000000000000 -122.00000000000001421 1.00000000000000000 0.00000000000000000 
1 0.00000000000000000 0.00000000000000000 1.00000000000000000 0.00000000000000000 
1 -0.00000000000000355 -120.00000000000000000 1.00000000000000000 0.00000000000000000 
1 0.00000000000000000 0.00000000000000000 1.00000000000000000 0.00000000000000000 
1 0.00000000000000000 -122.00000000000001421 1.00000000000000000 0.00000000000000000 
1 0.00000000000000000 0.00000000000000000 1.00000000000000000 0.00000000000000000 
1 0.00000000000000000 -120.00000000000000000 1.00000000000000000 0.00000000000000000 
1 0.00000000000000000 0.00000000000000000 1.00000000000000000 0.00000000000000000 
1 0.00000000000000000 -122.00000000000001421 1.00000000000000000 0.00000000000000000 
1 0.00000000000000000 0.00000000000000000 0.00000000000000000 -1.00000000000000000 
1 169.40000000000003411 0.00000000000000000 0.00000000000000000 -1.00000000000000000 
1 0.00000000000000000 0.00000000000000000 0.00000000000000000 -1.00000000000000000 
1 6.28318530717958623 0.00000000000000000 0.00000000000000000 -1.00000000000000000 
2 74.70000000000000284 -109.30000000000003979 1.00000000000000000 0.00000000000000000 0.00000000000000000 -1.00000000000000000 3.96875000000000000
1 0.00000000000000000 -169.40000000000003411 1.00000000000000000 0.00000000000000000 
1 0.00000000000000000 0.00000000000000000 0.00000000000000000 -1.00000000000000000 
1 6.28318530717958623 0.00000000000000000 0.00000000000000000 -1.00000000000000000 
2 12.69999999999999929 -109.30000000000003979 1.00000000000000000 0.00000000000000000 0.00000000000000000 -1.00000000000000000 3.96875000000000000
1 0.00000000000000000 -169.40000000000003411 1.00000000000000000 0.00000000000000000 
1 0.00000000000000000 0.00000000000000000 0.00000000000000000 -1.00000000000000000 
1 6.28318530717958623 0.00000000000000000 0.00000000000000000 -1.00000000000000000 
2 74.70000000000000284 -12.69999999999998153 1.00000000000000000 0.00000000000000000 0.00000000000000000 -1.00000000000000000 3.96875000000000000
1 0.00000000000000000 -169.40000000000003411 1.00000000000000000 0.00000000000000000 
1 0.00000000000000000 0.00000000000000000 0.00000000000000000 -1.00000000000000000 
1 6.28318530717958623 0.00000000000000000 0.00000000000000000 -1.00000000000000000 
2 12.69999999999999929 -12.69999999999998153 1.00000000000000000 0.00000000000000000 0.00000000000000000 -1.00000000000000000 3.96875000000000000
1 0.00000000000000000 -169.40000000000003411 1.00000000000000000 0.00000000000000000 
Curves 20
1 -43.70000000000000284 84.70000000000001705 -61.00000000000000711 0.00000000000000000 0.00000000000000000 1.00000000000000000 
1 -43.70000000000000284 84.70000000000001705 0.00000000000000000 1.00000000000000000 0.00000000000000000 0.00000000000000000 
1 43.70000000000000284 84.70000000000001705 -61.00000000000000711 0.00000000000000000 0.00000000000000000 1.00000000000000000 
2 31.00000000000000355 48.30000000000002558 0.00000000000000000 0.00000000000000000 0.00000000000000000 1.00000000000000000 1.00000000000000000 0.00000000000000000 -0.00000000000000000 -0.00000000000000000 1.00000000000000000 0.00000000000000000 3.96875000000000000
2 -31.00000000000000355 48.30000000000002558 0.00000000000000000 0.00000000000000000 0.00000000000000000 1.00000000000000000 1.00000000000000000 0.00000000000000000 -0.00000000000000000 -0.00000000000000000 1.00000000000000000 0.00000000000000000 3.96875000000000000
2 31.00000000000000355 -48.30000000000002558 0.00000000000000000 0.00000000000000000 0.00000000000000000 1.00000000000000000 1.00000000000000000 0.00000000000000000 -0.00000000000000000 -0.00000000000000000 1.00000000000000000 0.00000000000000000 3.96875000000000000
2 -31.00000000000000355 -48.30000000000002558 0.00000000000000000 0.00000000000000000 0.00000000000000000 1.00000000000000000 1.00000000000000000 0.00000000000000000 -0.00000000000000000 -0.00000000000000000 1.00000000000000000 0.00000000000000000 3.96875000000000000
1 -43.70000000000000284 -84.70000000000000284 -61.00000000000000711 0.00000000000000000 0.00000000000000000 1.00000000000000000 
1 -43.70000000000000284 -84.70000000000000284 0.00000000000000000 0.00000000000000000 1.00000000000000000 0.00000000000000000 
1 43.70000000000000284 84.70000000000001705 0.00000000000000000 0.00000000000000000 -1.00000000000000000 0.00000000000000000 
1 43.70000000000000284 -84.70000000000001705 0.00000000000000000 -1.00000000000000000 0.00000000000000016 0.00000000000000000 
1 43.70000000000000284 -84.70000000000001705 -61.00000000000000711 0.00000000000000000 0.00000000000000000 1.00000000000000000 
1 -34.96875000000000000 84.70000000000001705 48.30000000000002558 0.00000000000000000 -1.00000000000000000 0.00000000000000000 
2 -31.00000000000000355 -84.70000000000001705 48.30000000000002558 0.00000000000000000 1.00000000000000000 -0.00000000000000000 -1.00000000000000000 0.00000000000000000 0.00000000000000000 0.00000000000000000 0.00000000000000000 1.00000000000000000 3.96875000000000000
1 27.03125000000000355 84.70000000000001705 48.30000000000002558 0.00000000000000000 -1.00000000000000000 0.00000000000000000 
2 31.00000000000000355 -84.70000000000001705 48.30000000000002558 0.00000000000000000 1.00000000000000000 -0.00000000000000000 -1.00000000000000000 0.00000000000000000 0.00000000000000000 0.00000000000000000 0.00000000000000000 1.00000000000000000 3.96875000000000000
1 -34.96875000000000000 84.70000000000001705 -48.30000000000002558 0.00000000000000000 -1.00000000000000000 0.00000000000000000 
2 -31.00000000000000355 -84.70000000000001705 -48.30000000000002558 0.00000000000000000 1.00000000000000000 -0.00000000000000000 -1.00000000000000000 0.00000000000000000 0.00000000000000000 0.00000000000000000 0.00000000000000000 1.00000000000000000 3.96875000000000000
1 27.03125000000000355 84.70000000000001705 -48.30000000000002558 0.00000000000000000 -1.00000000000000000 0.00000000000000000 
2 31.00000000000000355 -84.70000000000001705 -48.30000000000002558 0.00000000000000000 1.00000000000000000 -0.00000000000000000 -1.00000000000000000 0.00000000000000000 0.00000000000000000 0.00000000000000000 0.00000000000000000 1.00000000000000000 3.96875000000000000
Polygon3D 0
PolygonOnTriangulations 0
Surfaces 17
1 -43.70000000000000284 84.70000000000001705 -61.00000000000000711 0.00000000000000000 1.00000000000000000 0.00000000000000000 1.00000000000000000 0.00000000000000000 0.00000000000000000 0.00000000000000000 0.00000000000000000 -1.00000000000000000 
1 -43.70000000000000284 -84.70000000000000284 -61.00000000000000711 -1.00000000000000000 0.00000000000000000 0.00000000000000000 0.00000000000000000 1.00000000000000000 0.00000000000000000 0.00000000000000000 0.00000000000000000 -1.00000000000000000 
1 -43.70000000000000284 84.69999999999998863 -60.00000000000003553 0.00000000000000000 1.00000000000000000 -0.00000000000000044 1.00000000000000000 0.00000000000000000 0.00000000000000000 0.00000000000000000 -0.00000000000000044 -1.00000000000000000 
1 43.70000000000000284 84.70000000000001705 -61.00000000000000711 1.00000000000000000 0.00000000000000000 -0.00000000000000000 0.00000000000000000 -1.00000000000000000 0.00000000000000000 0.00000000000000000 -0.00000000000000000 -1.00000000000000000 
2 -31.00000000000000355 84.70000000000001705 48.30000000000002558 0.00000000000000000 1.00000000000000000 -0.00000000000000000 -1.00000000000000000 0.00000000000000000 0.00000000000000000 0.00000000000000000 0.00000000000000000 1.00000000000000000 3.96875000000000000
1 -31.00000000000000355 -48.30000000000004690 84.70000000000000284 0.00000000000000000 0.00000000000000000 1.00000000000000000 1.00000000000000000 0.00000000000000000 -0.00000000000000000 -0.00000000000000000 1.00000000000000000 0.00000000000000000 
2 31.00000000000000355 84.70000000000001705 48.30000000000002558 0.00000000000000000 1.00000000000000000 -0.00000000000000000 -1.00000000000000000 0.00000000000000000 0.00000000000000000 0.00000000000000000 0.00000000000000000 1.00000000000000000 3.96875000000000000
1 31.00000000000000355 -48.30000000000004690 84.69999999999998863 0.00000000000000000 -0.00000000000000000 1.00000000000000000 0.00000000000000000 1.00000000000000000 0.00000000000000000 -1.00000000000000000 0.00000000000000000 0.00000000000000000 
2 -31.00000000000000355 84.70000000000001705 -48.30000000000002558 0.00000000000000000 1.00000000000000000 -0.00000000000000000 -1.00000000000000000 0.00000000000000000 0.00000000000000000 0.00000000000000000 0.00000000000000000 1.00000000000000000 3.96875000000000000
1 -31.00000000000000355 48.29999999999999716 84.70000000000001705 -0.00000000000000000 -0.00000000000000000 1.00000000000000000 0.00000000000000000 1.00000000000000000 0.00000000000000000 -1.00000000000000000 0.00000000000000000 0.00000000000000000 
2 31.00000000000000355 84.70000000000001705 -48.30000000000002558 0.00000000000000000 1.00000000000000000 -0.00000000000000000 -1.00000000000000000 0.00000000000000000 0.00000000000000000 0.00000000000000000 0.00000000000000000 1.00000000000000000 3.96875000000000000
1 31.00000000000000355 48.30000000000000426 84.70000000000003126 0.00000000000000000 0.00000000000000000 1.00000000000000000 1.00000000000000000 0.00000000000000000 -0.00000000000000000 -0.00000000000000000 1.00000000000000000 0.00000000000000000 
1 43.70000000000000284 -84.70000000000001705 -61.00000000000000711 -0.00000000000000016 -1.00000000000000000 0.00000000000000000 -1.00000000000000000 0.00000000000000016 0.00000000000000000 -0.00000000000000000 0.00000000000000000 -1.00000000000000000 
1 -43.70000000000000284 -84.70000000000003126 -59.99999999999996447 -1.00000000000000000 0.00000000000000000 0.00000000000000000 0.00000000000000000 1.00000000000000000 -0.00000000000000044 -0.00000000000000000 -0.00000000000000044 -1.00000000000000000 
1 -0.00000000000000177 -0.00000000000000000 0.00000000000000354 -0.00000000000000000 1.00000000000000000 0.00000000000000022 0.00000000000000000 -0.00000000000000022 1.00000000000000000 1.00000000000000000 0.00000000000000000 0.00000000000000000 
1 43.70000000000000284 84.69999999999998863 -60.00000000000003553 1.00000000000000000 0.00000000000000000 -0.00000000000000000 0.00000000000000000 -1.00000000000000000 0.00000000000000044 0.00000000000000000 -0.00000000000000044 -1.00000000000000000 
1 43.70000000000000284 -84.70000000000004547 -59.99999999999996447 -0.00000000000000016 -1.00000000000000000 0.00000000000000044 -1.00000000000000000 0.00000000000000016 0.00000000000000000 -0.00000000000000000 -0.00000000000000044 -1.00000000000000000 
Triangulations 0

TShapes 60
Ve
0.001000000000000
-43.700000000000003 84.700000000000017 0.000000000000000
0 0

0101101
*
Ed
 0.001000000000000 1 1 0
1  1 0 0.000000000000000 122.000000000000014
2  1 1 0 0.000000000000000 122.000000000000014
2  2 2 0 0.000000000000000 122.000000000000014
0

0101000
+60 9 -60 11 *
Ve
0.001000000000000
43.700000000000003 84.700000000000017 0.000000000000000
0 0

0101101
*
Ed
 0.001000000000000 1 1 0
1  2 0 0.000000000000000 87.400000000000006
2  3 3 17 0.000000000000000 87.400000000000006
2  4 3 19 0.000000000000000 87.400000000000006
2  5 1 20 0.000000000000000 87.400000000000006
2  6 1 21 0.000000000000000 87.400000000000006
0

0101000
+60 0 -58 0 *
Ed
 0.001000000000000 1 1 0
1  3 0 0.000000000000000 122.000000000000014
2  7 1 0 0.000000000000000 122.000000000000014
2  8 4 0 0.000000000000000 122.000000000000014
0

0101000
+58 9 -58 11 *
Wi

0101100
+59 4 -57 12 +57 22 -56 4 *
Ve
0.001000000000000
34.968750000000000 48.300000000000026 0.000000000000000
0 0

0101101
*
Ed
 0.001000000000000 1 1 0
1  4 0 0.000000000000000 6.283185307179586
2  9 5 26 0.000000000000000 6.283185307179586
2  10 5 28 0.000000000000000 6.283185307179586
2  11 6 29 0.000000000000000 6.283185307179586
2  12 1 30 0.000000000000000 6.283185307179586
0

0101000
+54 0 -54 0 *
Wi

0101100
-53 25 *
Ve
0.001000000000000
-27.031250000000004 48.300000000000026 0.000000000000000
0 0

0101101
*
Ed
 0.001000000000000 1 1 0
1  5 0 0.000000000000000 6.283185307179586
2  13 7 26 0.000000000000000 6.283185307179586
2  14 7 28 0.000000000000000 6.283185307179586
2  15 8 29 0.000000000000000 6.283185307179586
2  16 1 30 0.000000000000000 6.283185307179586
0

0101000
+51 0 -51 0 *
Wi

0101100
-50 25 *
Ve
0.001000000000000
34.968750000000000 -48.300000000000026 0.000000000000000
0 0

0101101
*
Ed
 0.001000000000000 1 1 0
1  6 0 0.000000000000000 6.283185307179586
2  17 9 26 0.000000000000000 6.283185307179586
2  18 9 28 0.000000000000000 6.283185307179586
2  19 10 29 0.000000000000000 6.283185307179586
2  20 1 30 0.000000000000000 6.283185307179586
0

0101000
+48 0 -48 0 *
Wi

0101100
-47 25 *
Ve
0.001000000000000
-27.031250000000004 -48.300000000000026 0.000000000000000
0 0

0101101
*
Ed
 0.001000000000000 1 1 0
1  7 0 0.000000000000000 6.283185307179586
2  21 11 26 0.000000000000000 6.283185307179586
2  22 11 28 0.000000000000000 6.283185307179586
2  23 12 29 0.000000000000000 6.283185307179586
2  24 1 30 0.000000000000000 6.283185307179586
0

0101000
+45 0 -45 0 *
Wi

0101100
-44 25 *
Fa
0  0.001000000000000 1 4

0101000
+55 0 +52 0 +49 0 +46 0 +43 0 *
Ve
0.001000000000000
-43.700000000000003 -84.700000000000003 0.000000000000000
0 0

0101101
*
Ed
 0.001000000000000 1 1 0
1  8 0 0.000000000000000 122.000000000000014
2  25 13 0 0.000000000000000 122.000000000000014
2  26 2 0 0.000000000000000 122.000000000000014
0

0101000
+41 9 -41 11 *
Ed
 0.001000000000000 1 1 0
1  9 0 0.000000000000000 169.400000000000034
2  27 14 17 0.000000000000000 169.400000000000034
2  28 14 19 0.000000000000000 169.400000000000034
2  29 2 20 0.000000000000000 169.400000000000034
2  30 2 21 0.000000000000000 169.400000000000034
0

0101000
+41 0 -60 0 *
Wi

0101100
+40 0 -59 0 -39 9 +39 11 *
Fa
0  0.001000000000000 2 0

0101000
+38 0 *
Ve
0.001000000000000
43.700000000000003 -84.700000000000017 0.000000000000000
0 0

0101101
*
Ed
 0.001000000000000 1 1 0
1  10 0 0.000000000000000 169.400000000000034
2  31 16 17 0.000000000000000 169.400000000000034
2  32 16 19 0.000000000000000 169.400000000000034
2  33 4 20 0.000000000000000 169.400000000000034
2  34 4 21 0.000000000000000 169.400000000000034
0

0101000
+58 0 -36 0 *
Ed
 0.001000000000000 1 1 0
1  11 0 0.000000000000000 87.400000000000006
2  35 17 17 0.000000000000000 87.400000000000006
2  36 17 19 0.000000000000000 87.400000000000006
2  37 13 20 0.000000000000000 87.400000000000006
2  38 13 21 0.000000000000000 87.400000000000006
0

0101000
+36 0 -41 0 *
Wi

0101100
+57 0 +35 0 +34 0 +39 0 *
Fa
0  0.001000000000000 15 0

0101000
+33 32 *
Ed
 0.001000000000000 1 1 0
1  12 0 0.000000000000000 122.000000000000014
2  39 13 0 0.000000000000000 122.000000000000014
2  40 4 0 0.000000000000000 122.000000000000014
0

0101000
+36 9 -36 11 *
Wi

0101100
+56 0 -31 0 -35 9 +35 11 *
Fa
0  0.001000000000000 4 0

0101000
+30 0 *
Ve
0.001000000000000
-34.968750000000000 -84.700000000000017 48.300000000000026
0 0

0101101
*
Ed
 0.000000100000000 1 1 0
1  13 0 0.000000000000000 169.400000000000034
3  41 42CN 5 0 0.000000000000000 169.400000000000034
0

0101000
+54 25 -28 0 *
Ed
 0.001000000000000 1 1 0
1  14 0 0.000000000000000 6.283185307179586
2  43 13 4 0.000000000000000 6.283185307179586
2  44 5 0 0.000000000000000 6.283185307179586
0

0101000
+28 0 -28 0 *
Wi

0101100
-53 25 -27 0 +26 0 +27 0 *
Fa
0  0.000000100000000 5 0

0101000
+25 0 *
Ve
0.001000000000000
27.031250000000004 -84.700000000000017 48.300000000000026
0 0

0101101
*
Ed
 0.000000100000000 1 1 0
1  15 0 0.000000000000000 169.400000000000034
3  45 46CN 7 0 0.000000000000000 169.400000000000034
0

0101000
+51 25 -23 0 *
Ed
 0.001000000000000 1 1 0
1  16 0 0.000000000000000 6.283185307179586
2  47 13 4 0.000000000000000 6.283185307179586
2  48 7 0 0.000000000000000 6.283185307179586
0

0101000
+23 0 -23 0 *
Wi

0101100
-50 25 -22 0 +21 0 +22 0 *
Fa
0  0.000000100000000 7 0

0101000
+20 0 *
Ve
0.001000000000000
-34.968750000000000 -84.700000000000017 -48.300000000000026
0 0

0101101
*
Ed
 0.000000100000000 1 1 0
1  17 0 0.000000000000000 169.400000000000034
3  49 50CN 9 0 0.000000000000000 169.400000000000034
0

0101000
+48 25 -18 0 *
Ed
 0.001000000000000 1 1 0
1  18 0 0.000000000000000 6.283185307179586
2  51 13 4 0.000000000000000 6.283185307179586
2  52 9 0 0.000000000000000 6.283185307179586
0

0101000
+18 0 -18 0 *
Wi

0101100
-47 25 -17 0 +16 0 +17 0 *
Fa
0  0.000000100000000 9 0

0101000
+15 0 *
Ve
0.001000000000000
27.031250000000004 -84.700000000000017 -48.300000000000026
0 0

0101101
*
Ed
 0.000000100000000 1 1 0
1  19 0 0.000000000000000 169.400000000000034
3  53 54CN 11 0 0.000000000000000 169.400000000000034
0

0101000
+45 25 -13 0 *
Ed
 0.001000000000000 1 1 0
1  20 0 0.000000000000000 6.283185307179586
2  55 13 4 0.000000000000000 6.283185307179586
2  56 11 0 0.000000000000000 6.283185307179586
0

0101000
+13 0 -13 0 *
Wi

0101100
-44 25 -12 0 +11 0 +12 0 *
Fa
0  0.000000100000000 11 0

0101000
+10 0 *
Wi

0101100
+31 4 -34 12 +34 22 -40 4 *
Wi

0101100
+21 0 *
Wi

0101100
+26 0 *
Wi

0101100
+11 0 *
Wi

0101100
+16 0 *
Fa
0  0.001000000000000 13 4

0101000
+8 0 +7 0 +6 0 +5 0 +4 0 *
Sh

0101100
+42 0 +37 4 +32 31 -32 33 +29 4 -24 0 -19 0 -14 0 -9 0 +3 0 
*
So

0100000
+2 0 *

+1 1 