
CASCADE Topology V1, (c) Matra-Datavision
Locations 47
1
1.000000000000000 0.000000000000000 0.000000000000000 0.000000000000000 
0.000000000000000 0.000000000000000 -1.000000000000000 0.000000000000000 
0.000000000000000 1.000000000000000 0.000000000000000 0.000000000000000 
1
1.000000000000000 0.000000000000000 0.000000000000000 0.000000000000000 
0.000000000000000 -0.000000000000000 -1.000000000000000 0.000000000000000 
0.000000000000000 1.000000000000000 -0.000000000000000 0.000000000000000 
1
1.000000000000000 0.000000000000000 0.000000000000000 0.000000000000000 
0.000000000000000 -0.000000000000000 -1.000000000000000 0.000000000000000 
0.000000000000000 1.000000000000000 -0.000000000000000 0.000000000000000 
2  2 1 3 -1 0
1
1.000000000000000 0.000000000000000 0.000000000000000 0.000000000000000 
0.000000000000000 -0.000000000000000 -1.000000000000000 0.000000000000000 
0.000000000000000 1.000000000000000 -0.000000000000000 0.000000000000000 
1
1.000000000000000 0.000000000000000 0.000000000000000 0.000000000000000 
0.000000000000000 -0.000000000000000 -1.000000000000000 0.000000000000000 
0.000000000000000 1.000000000000000 -0.000000000000000 0.000000000000000 
2  5 1 6 -1 0
1
1.000000000000000 0.000000000000000 0.000000000000000 0.000000000000000 
0.000000000000000 1.000000000000000 0.000000000000000 0.000000000000000 
0.000000000000000 0.000000000000000 1.000000000000000 0.000000000000000 
1
1.000000000000000 0.000000000000000 0.000000000000000 0.000000000000000 
0.000000000000000 -0.000000000000000 -1.000000000000000 0.000000000000000 
0.000000000000000 1.000000000000000 -0.000000000000000 0.000000000000000 
1
1.000000000000000 0.000000000000000 0.000000000000000 0.000000000000000 
0.000000000000000 -0.000000000000000 -1.000000000000000 0.000000000000000 
0.000000000000000 1.000000000000000 -0.000000000000000 0.000000000000000 
1
1.000000000000000 0.000000000000000 0.000000000000000 -0.000000000000000 
0.000000000000000 1.000000000000000 0.000000000000000 -0.000000000000000 
0.000000000000000 0.000000000000000 1.000000000000000 -61.000000000000007 
2  8 1 9 1 10 -1 11 1 0
1
1.000000000000000 0.000000000000000 0.000000000000000 0.000000000000000 
0.000000000000000 1.000000000000000 0.000000000000000 0.000000000000000 
0.000000000000000 0.000000000000000 1.000000000000000 122.000000000000014 
2  8 1 9 1 10 -1 11 1 13 1 0
2  8 1 9 1 10 -1 11 1 5 1 6 -1 0
1
1.000000000000000 0.000000000000000 0.000000000000000 -0.000000000000000 
0.000000000000000 1.000000000000000 0.000000000000000 -0.000000000000027 
0.000000000000000 0.000000000000000 1.000000000000000 -60.000000000000000 
1
1.000000000000000 0.000000000000000 0.000000000000000 0.000000000000000 
0.000000000000000 -0.000000000000000 -1.000000000000000 0.000000000000000 
0.000000000000000 1.000000000000000 -0.000000000000000 0.000000000000000 
1
1.000000000000000 0.000000000000000 0.000000000000000 0.000000000000000 
0.000000000000000 0.000000000000000 -1.000000000000000 0.000000000000000 
0.000000000000000 1.000000000000000 0.000000000000000 0.000000000000000 
1
1.000000000000000 0.000000000000000 0.000000000000000 0.000000000000000 
0.000000000000000 1.000000000000000 0.000000000000000 0.000000000000000 
0.000000000000000 0.000000000000000 1.000000000000000 0.000000000000000 
2  16 -1 17 1 18 -1 19 -1 0
1
1.000000000000000 0.000000000000000 0.000000000000000 0.000000000000000 
0.000000000000000 1.000000000000000 0.000000000000000 0.000000000000053 
0.000000000000000 0.000000000000000 1.000000000000000 120.000000000000000 
2  21 -1 16 -1 17 1 18 -1 19 -1 0
2  11 -1 10 1 9 -1 8 -1 0
2  13 -1 11 -1 10 1 9 -1 8 -1 0
2  8 1 9 1 10 -1 11 1 13 1 5 1 6 -1 0
1
1.000000000000000 0.000000000000000 0.000000000000000 0.000000000000000 
0.000000000000000 1.000000000000000 0.000000000000000 0.000000000000000 
0.000000000000000 0.000000000000000 1.000000000000000 0.000000000000000 
1
-1.000000000000000 0.000000000000000 0.000000000000000 0.000000000000000 
0.000000000000000 -1.000000000000000 0.000000000000000 -0.000000000000019 
0.000000000000000 0.000000000000000 1.000000000000000 84.700000000000017 
2  26 1 27 1 6 -1 0
2  6 1 27 -1 26 -1 0
1
1.000000000000000 0.000000000000000 0.000000000000000 0.000000000000000 
0.000000000000000 1.000000000000000 0.000000000000000 -457.159159645741113 
0.000000000000000 0.000000000000000 1.000000000000000 0.000000000000000 
2  30 -1 6 1 27 -1 26 -1 0
2  27 -1 26 -1 0
2  5 1 27 -1 26 -1 0
2  5 1 6 -1 2 1 3 -1 0
2  8 1 9 1 10 -1 11 1 5 1 6 -1 2 1 3 -1 0
2  8 1 9 1 10 -1 11 1 13 1 5 1 6 -1 2 1 3 -1 0
2  10 -1 11 1 5 1 6 -1 2 1 3 -1 0
2  8 1 9 1 0
2  10 -1 11 1 13 1 5 1 6 -1 2 1 3 -1 0
1
1.000000000000000 0.000000000000000 0.000000000000000 0.000000000000000 
0.000000000000000 1.000000000000000 0.000000000000000 0.000000000000000 
0.000000000000000 0.000000000000000 1.000000000000000 0.000000000000000 
1
0.000000000000000 -0.000000000000000 1.000000000000000 43.700000000000003 
-0.000000000000000 -1.000000000000000 0.000000000000000 0.000000000000000 
1.000000000000000 0.000000000000000 -0.000000000000000 0.000000000000000 
2  40 1 41 1 3 -1 0
2  3 1 41 -1 40 -1 0
1
1.000000000000000 0.000000000000000 0.000000000000000 -457.159159645741113 
0.000000000000000 1.000000000000000 0.000000000000000 0.000000000000102 
0.000000000000000 0.000000000000000 1.000000000000000 -0.000000000000000 
2  44 -1 3 1 41 -1 40 -1 0
2  41 -1 40 -1 0
2  5 1 6 -1 2 1 41 -1 40 -1 0
Curve2ds 88
1 0.00000000000000000 0.00000000000000000 0.00000000000000000 -1.00000000000000000 
1 169.40000000000003411 0.00000000000000000 0.00000000000000000 -1.00000000000000000 
1 0.00000000000000000 0.00000000000000000 1.00000000000000000 0.00000000000000000 
1 0.00000000000000000 -120.00000000000000000 1.00000000000000000 0.00000000000000000 
1 0.00000000000000000 0.00000000000000000 1.00000000000000000 0.00000000000000000 
1 0.00000000000000000 -122.00000000000001421 1.00000000000000000 0.00000000000000000 
1 87.40000000000000568 0.00000000000000000 0.00000000000000000 -1.00000000000000000 
1 0.00000000000000000 0.00000000000000000 0.00000000000000000 -1.00000000000000000 
1 0.00000000000000000 0.00000000000000000 1.00000000000000000 0.00000000000000000 
1 0.00000000000000000 -457.15915964574111285 1.00000000000000000 0.00000000000000000 
2 0.00000000000000000 0.00000000000000000 -1.00000000000000000 0.00000000000000000 -0.00000000000000000 -1.00000000000000000 3.96874999999999645
2 12.69999999999999929 -109.30000000000003979 -1.00000000000000000 0.00000000000000000 -0.00000000000000000 -1.00000000000000000 3.96874999999999645
1 0.00000000000000000 0.00000000000000000 1.00000000000000000 0.00000000000000000 
1 0.00000000000000000 -457.15915964574111285 1.00000000000000000 0.00000000000000000 
2 0.00000000000000000 0.00000000000000000 0.00000000000000000 1.00000000000000000 -1.00000000000000000 0.00000000000000000 3.96875000000000000
2 74.70000000000000284 -109.30000000000003979 -1.00000000000000000 0.00000000000000000 -0.00000000000000000 -1.00000000000000000 3.96875000000000000
1 0.00000000000000000 0.00000000000000000 1.00000000000000000 0.00000000000000000 
1 0.00000000000000000 -457.15915964574111285 1.00000000000000000 0.00000000000000000 
2 0.00000000000000711 0.00000000000000000 0.00000000000000000 1.00000000000000000 -1.00000000000000000 0.00000000000000000 3.96874999999999645
2 12.69999999999999929 -12.69999999999998153 -1.00000000000000000 0.00000000000000000 -0.00000000000000000 -1.00000000000000000 3.96874999999999645
1 0.00000000000000000 0.00000000000000000 1.00000000000000000 0.00000000000000000 
1 0.00000000000000000 -457.15915964574111285 1.00000000000000000 0.00000000000000000 
2 0.00000000000000000 0.00000000000000000 -1.00000000000000000 0.00000000000000000 -0.00000000000000000 -1.00000000000000000 3.96875000000000000
2 74.70000000000000284 -12.69999999999998153 -1.00000000000000000 0.00000000000000000 -0.00000000000000000 -1.00000000000000000 3.96875000000000000
1 87.40000000000000568 0.00000000000000000 0.00000000000000000 -1.00000000000000000 
1 0.00000000000000000 0.00000000000000000 0.00000000000000000 -1.00000000000000000 
1 0.00000000000000000 -0.00000000000000000 1.00000000000000000 0.00000000000000000 
1 0.00000000000000355 -120.00000000000000000 1.00000000000000000 0.00000000000000000 
1 0.00000000000000000 0.00000000000000000 1.00000000000000000 0.00000000000000000 
1 0.00000000000000000 -122.00000000000001421 1.00000000000000000 0.00000000000000000 
2 12.69999999999998863 -96.60000000000003695 1.00000000000000000 0.00000000000000000 0.00000000000000000 -1.00000000000000000 3.96875000000000000
1 0.00000000000000000 -87.39999999999999147 1.00000000000000000 0.00000000000000000 
2 156.70000000000004547 -96.60000000000003695 1.00000000000000000 0.00000000000000000 0.00000000000000000 -1.00000000000000000 3.96875000000000000
1 0.00000000000000000 -87.40000000000001990 1.00000000000000000 0.00000000000000000 
2 12.69999999999998863 -25.39999999999997726 1.00000000000000000 0.00000000000000000 0.00000000000000000 -1.00000000000000000 3.96875000000000000
1 0.00000000000000000 -87.39999999999999147 1.00000000000000000 0.00000000000000000 
2 156.70000000000004547 -25.39999999999997726 1.00000000000000000 0.00000000000000000 0.00000000000000000 -1.00000000000000000 3.96875000000000000
1 0.00000000000000000 -87.40000000000001990 1.00000000000000000 0.00000000000000000 
1 0.00000000000000000 0.00000000000000000 1.00000000000000000 0.00000000000000000 
1 -0.00000000000000355 -120.00000000000000000 1.00000000000000000 0.00000000000000000 
1 0.00000000000000000 0.00000000000000000 1.00000000000000000 0.00000000000000000 
1 0.00000000000000000 -122.00000000000001421 1.00000000000000000 0.00000000000000000 
1 0.00000000000000000 0.00000000000000000 1.00000000000000000 0.00000000000000000 
1 0.00000000000000000 -120.00000000000000000 1.00000000000000000 0.00000000000000000 
1 0.00000000000000000 0.00000000000000000 1.00000000000000000 0.00000000000000000 
1 0.00000000000000000 -122.00000000000001421 1.00000000000000000 0.00000000000000000 
1 0.00000000000000000 0.00000000000000000 0.00000000000000000 -1.00000000000000000 
1 169.40000000000003411 0.00000000000000000 0.00000000000000000 -1.00000000000000000 
1 0.00000000000000000 0.00000000000000000 1.00000000000000000 0.00000000000000000 
1 0.00000000000000000 -457.15915964574111285 1.00000000000000000 0.00000000000000000 
2 0.00000000000000000 -0.00000000000000711 1.00000000000000000 0.00000000000000022 -0.00000000000000022 1.00000000000000000 3.96875000000000000
2 12.69999999999998863 -96.60000000000003695 -1.00000000000000000 0.00000000000000000 -0.00000000000000000 -1.00000000000000000 3.96875000000000000
1 0.00000000000000000 0.00000000000000000 1.00000000000000000 0.00000000000000000 
1 0.00000000000000000 -457.15915964574111285 1.00000000000000000 0.00000000000000000 
2 0.00000000000000000 -0.00000000000000711 1.00000000000000000 0.00000000000000022 -0.00000000000000022 1.00000000000000000 3.96875000000000000
2 156.70000000000004547 -96.60000000000003695 -1.00000000000000000 0.00000000000000000 -0.00000000000000000 -1.00000000000000000 3.96875000000000000
1 0.00000000000000000 0.00000000000000000 1.00000000000000000 0.00000000000000000 
1 0.00000000000000000 -457.15915964574111285 1.00000000000000000 0.00000000000000000 
2 0.00000000000000000 0.00000000000000711 1.00000000000000000 0.00000000000000022 -0.00000000000000022 1.00000000000000000 3.96875000000000000
2 12.69999999999998863 -25.39999999999997726 -1.00000000000000000 0.00000000000000000 -0.00000000000000000 -1.00000000000000000 3.96875000000000000
1 0.00000000000000000 0.00000000000000000 1.00000000000000000 0.00000000000000000 
1 0.00000000000000000 -457.15915964574111285 1.00000000000000000 0.00000000000000000 
2 0.00000000000000000 0.00000000000000711 1.00000000000000000 0.00000000000000022 -0.00000000000000022 1.00000000000000000 3.96875000000000000
2 156.70000000000004547 -25.39999999999997726 -1.00000000000000000 0.00000000000000000 -0.00000000000000000 -1.00000000000000000 3.96875000000000000
1 0.00000000000000000 0.00000000000000000 0.00000000000000000 -1.00000000000000000 
1 6.28318530717958623 0.00000000000000000 0.00000000000000000 -1.00000000000000000 
2 74.70000000000000284 -109.30000000000003979 1.00000000000000000 0.00000000000000000 0.00000000000000000 -1.00000000000000000 3.96875000000000000
1 0.00000000000000000 -169.40000000000003411 1.00000000000000000 0.00000000000000000 
1 0.00000000000000000 0.00000000000000000 0.00000000000000000 -1.00000000000000000 
1 6.28318530717958623 0.00000000000000000 0.00000000000000000 -1.00000000000000000 
2 12.69999999999999929 -109.30000000000003979 1.00000000000000000 0.00000000000000000 0.00000000000000000 -1.00000000000000000 3.96875000000000000
1 0.00000000000000000 -169.40000000000003411 1.00000000000000000 0.00000000000000000 
1 0.00000000000000000 0.00000000000000000 0.00000000000000000 -1.00000000000000000 
1 6.28318530717958623 0.00000000000000000 0.00000000000000000 -1.00000000000000000 
2 74.70000000000000284 -12.69999999999998153 1.00000000000000000 0.00000000000000000 0.00000000000000000 -1.00000000000000000 3.96875000000000000
1 0.00000000000000000 -169.40000000000003411 1.00000000000000000 0.00000000000000000 
1 0.00000000000000000 0.00000000000000000 0.00000000000000000 -1.00000000000000000 
1 6.28318530717958623 0.00000000000000000 0.00000000000000000 -1.00000000000000000 
2 12.69999999999999929 -12.69999999999998153 1.00000000000000000 0.00000000000000000 0.00000000000000000 -1.00000000000000000 3.96875000000000000
1 0.00000000000000000 -169.40000000000003411 1.00000000000000000 0.00000000000000000 
1 0.00000000000000000 0.00000000000000000 0.00000000000000000 -1.00000000000000000 
1 6.28318530717958623 0.00000000000000000 0.00000000000000000 -1.00000000000000000 
1 0.00000000000000000 0.00000000000000000 0.00000000000000000 -1.00000000000000000 
1 6.28318530717958623 0.00000000000000000 0.00000000000000000 -1.00000000000000000 
1 0.00000000000000000 0.00000000000000000 0.00000000000000000 -1.00000000000000000 
1 6.28318530717958623 0.00000000000000000 0.00000000000000000 -1.00000000000000000 
1 0.00000000000000000 0.00000000000000000 0.00000000000000000 -1.00000000000000000 
1 6.28318530717958623 0.00000000000000000 0.00000000000000000 -1.00000000000000000 
Curves 32
1 -43.70000000000000284 84.70000000000001705 -61.00000000000000711 0.00000000000000000 0.00000000000000000 1.00000000000000000 
1 -43.70000000000000284 84.70000000000001705 0.00000000000000000 1.00000000000000000 0.00000000000000000 0.00000000000000000 
1 43.70000000000000284 84.70000000000001705 -61.00000000000000711 0.00000000000000000 0.00000000000000000 1.00000000000000000 
2 31.00000000000000355 48.30000000000002558 0.00000000000000000 0.00000000000000000 0.00000000000000000 1.00000000000000000 1.00000000000000000 0.00000000000000000 -0.00000000000000000 -0.00000000000000000 1.00000000000000000 0.00000000000000000 3.96875000000000000
2 -31.00000000000000355 48.30000000000002558 0.00000000000000000 0.00000000000000000 0.00000000000000000 1.00000000000000000 1.00000000000000000 0.00000000000000000 -0.00000000000000000 -0.00000000000000000 1.00000000000000000 0.00000000000000000 3.96875000000000000
2 31.00000000000000355 -48.30000000000002558 0.00000000000000000 0.00000000000000000 0.00000000000000000 1.00000000000000000 1.00000000000000000 0.00000000000000000 -0.00000000000000000 -0.00000000000000000 1.00000000000000000 0.00000000000000000 3.96875000000000000
2 -31.00000000000000355 -48.30000000000002558 0.00000000000000000 0.00000000000000000 0.00000000000000000 1.00000000000000000 1.00000000000000000 0.00000000000000000 -0.00000000000000000 -0.00000000000000000 1.00000000000000000 0.00000000000000000 3.96875000000000000
1 -43.70000000000000284 -84.70000000000000284 -61.00000000000000711 0.00000000000000000 0.00000000000000000 1.00000000000000000 
1 -43.70000000000000284 -84.70000000000000284 0.00000000000000000 0.00000000000000000 1.00000000000000000 0.00000000000000000 
2 -43.70000000000000284 -72.00000000000001421 35.60000000000002984 1.00000000000000000 -0.00000000000000022 0.00000000000000000 0.00000000000000022 1.00000000000000000 0.00000000000000000 -0.00000000000000000 0.00000000000000000 1.00000000000000000 3.96875000000000000
2 -43.70000000000000284 72.00000000000004263 35.60000000000002984 1.00000000000000000 -0.00000000000000022 0.00000000000000000 0.00000000000000022 1.00000000000000000 0.00000000000000000 -0.00000000000000000 0.00000000000000000 1.00000000000000000 3.96875000000000000
2 -43.70000000000000284 -72.00000000000001421 -35.60000000000002984 1.00000000000000000 -0.00000000000000022 0.00000000000000000 0.00000000000000022 1.00000000000000000 0.00000000000000000 -0.00000000000000000 0.00000000000000000 1.00000000000000000 3.96875000000000000
2 -43.70000000000000284 72.00000000000004263 -35.60000000000002984 1.00000000000000000 -0.00000000000000022 0.00000000000000000 0.00000000000000022 1.00000000000000000 0.00000000000000000 -0.00000000000000000 0.00000000000000000 1.00000000000000000 3.96875000000000000
1 43.70000000000000284 84.70000000000001705 0.00000000000000000 0.00000000000000000 -1.00000000000000000 0.00000000000000000 
1 43.70000000000000284 -84.70000000000001705 0.00000000000000000 -1.00000000000000000 0.00000000000000016 0.00000000000000000 
1 43.70000000000000284 -84.70000000000001705 -61.00000000000000711 0.00000000000000000 0.00000000000000000 1.00000000000000000 
2 72.00000000000002842 35.60000000000002984 0.00000000000000000 0.00000000000000000 0.00000000000000000 1.00000000000000000 1.00000000000000000 0.00000000000000000 -0.00000000000000000 -0.00000000000000000 1.00000000000000000 0.00000000000000000 3.96875000000000000
2 -72.00000000000002842 35.60000000000002984 0.00000000000000000 0.00000000000000000 0.00000000000000000 1.00000000000000000 1.00000000000000000 0.00000000000000000 -0.00000000000000000 -0.00000000000000000 1.00000000000000000 0.00000000000000000 3.96875000000000000
2 72.00000000000002842 -35.60000000000002984 0.00000000000000000 0.00000000000000000 0.00000000000000000 1.00000000000000000 1.00000000000000000 0.00000000000000000 -0.00000000000000000 -0.00000000000000000 1.00000000000000000 0.00000000000000000 3.96875000000000000
2 -72.00000000000002842 -35.60000000000002984 0.00000000000000000 0.00000000000000000 0.00000000000000000 1.00000000000000000 1.00000000000000000 0.00000000000000000 -0.00000000000000000 -0.00000000000000000 1.00000000000000000 0.00000000000000000 3.96875000000000000
1 -34.96875000000000000 84.70000000000001705 48.30000000000002558 0.00000000000000000 -1.00000000000000000 0.00000000000000000 
2 -31.00000000000000355 -84.70000000000001705 48.30000000000002558 0.00000000000000000 1.00000000000000000 -0.00000000000000000 -1.00000000000000000 0.00000000000000000 0.00000000000000000 0.00000000000000000 0.00000000000000000 1.00000000000000000 3.96875000000000000
1 27.03125000000000355 84.70000000000001705 48.30000000000002558 0.00000000000000000 -1.00000000000000000 0.00000000000000000 
2 31.00000000000000355 -84.70000000000001705 48.30000000000002558 0.00000000000000000 1.00000000000000000 -0.00000000000000000 -1.00000000000000000 0.00000000000000000 0.00000000000000000 0.00000000000000000 0.00000000000000000 1.00000000000000000 3.96875000000000000
1 -34.96875000000000000 84.70000000000001705 -48.30000000000002558 0.00000000000000000 -1.00000000000000000 0.00000000000000000 
2 -31.00000000000000355 -84.70000000000001705 -48.30000000000002558 0.00000000000000000 1.00000000000000000 -0.00000000000000000 -1.00000000000000000 0.00000000000000000 0.00000000000000000 0.00000000000000000 0.00000000000000000 1.00000000000000000 3.96875000000000000
1 27.03125000000000355 84.70000000000001705 -48.30000000000002558 0.00000000000000000 -1.00000000000000000 0.00000000000000000 
2 31.00000000000000355 -84.70000000000001705 -48.30000000000002558 0.00000000000000000 1.00000000000000000 -0.00000000000000000 -1.00000000000000000 0.00000000000000000 0.00000000000000000 0.00000000000000000 0.00000000000000000 1.00000000000000000 3.96875000000000000
1 43.69999999999998863 -68.03125000000002842 35.60000000000002984 -1.00000000000000000 0.00000000000000022 -0.00000000000000000 
1 43.70000000000001705 75.96875000000002842 35.60000000000002984 -1.00000000000000000 0.00000000000000022 -0.00000000000000000 
1 43.69999999999998863 -68.03125000000002842 -35.60000000000002984 -1.00000000000000000 0.00000000000000022 -0.00000000000000000 
1 43.70000000000001705 75.96875000000002842 -35.60000000000002984 -1.00000000000000000 0.00000000000000022 -0.00000000000000000 
Polygon3D 0
PolygonOnTriangulations 0
Surfaces 25
1 -43.70000000000000284 84.70000000000001705 -61.00000000000000711 0.00000000000000000 1.00000000000000000 0.00000000000000000 1.00000000000000000 0.00000000000000000 0.00000000000000000 0.00000000000000000 0.00000000000000000 -1.00000000000000000 
1 -43.70000000000000284 -84.70000000000000284 -61.00000000000000711 -1.00000000000000000 0.00000000000000000 0.00000000000000000 0.00000000000000000 1.00000000000000000 0.00000000000000000 0.00000000000000000 0.00000000000000000 -1.00000000000000000 
1 -43.70000000000000284 84.69999999999998863 -60.00000000000003553 0.00000000000000000 1.00000000000000000 -0.00000000000000044 1.00000000000000000 0.00000000000000000 0.00000000000000000 0.00000000000000000 -0.00000000000000044 -1.00000000000000000 
1 43.70000000000000284 84.70000000000001705 -61.00000000000000711 1.00000000000000000 0.00000000000000000 -0.00000000000000000 0.00000000000000000 -1.00000000000000000 0.00000000000000000 0.00000000000000000 -0.00000000000000000 -1.00000000000000000 
2 -31.00000000000000355 84.70000000000001705 48.30000000000002558 0.00000000000000000 1.00000000000000000 -0.00000000000000000 -1.00000000000000000 0.00000000000000000 0.00000000000000000 0.00000000000000000 0.00000000000000000 1.00000000000000000 3.96875000000000000
1 -31.00000000000000355 -48.30000000000004690 84.70000000000000284 0.00000000000000000 0.00000000000000000 1.00000000000000000 1.00000000000000000 0.00000000000000000 -0.00000000000000000 -0.00000000000000000 1.00000000000000000 0.00000000000000000 
2 31.00000000000000355 84.70000000000001705 48.30000000000002558 0.00000000000000000 1.00000000000000000 -0.00000000000000000 -1.00000000000000000 0.00000000000000000 0.00000000000000000 0.00000000000000000 0.00000000000000000 1.00000000000000000 3.96875000000000000
1 31.00000000000000355 -48.30000000000004690 84.69999999999998863 0.00000000000000000 -0.00000000000000000 1.00000000000000000 0.00000000000000000 1.00000000000000000 0.00000000000000000 -1.00000000000000000 0.00000000000000000 0.00000000000000000 
2 -31.00000000000000355 84.70000000000001705 -48.30000000000002558 0.00000000000000000 1.00000000000000000 -0.00000000000000000 -1.00000000000000000 0.00000000000000000 0.00000000000000000 0.00000000000000000 0.00000000000000000 1.00000000000000000 3.96875000000000000
1 -31.00000000000000355 48.29999999999999716 84.70000000000001705 -0.00000000000000000 -0.00000000000000000 1.00000000000000000 0.00000000000000000 1.00000000000000000 0.00000000000000000 -1.00000000000000000 0.00000000000000000 0.00000000000000000 
2 31.00000000000000355 84.70000000000001705 -48.30000000000002558 0.00000000000000000 1.00000000000000000 -0.00000000000000000 -1.00000000000000000 0.00000000000000000 0.00000000000000000 0.00000000000000000 0.00000000000000000 1.00000000000000000 3.96875000000000000
1 31.00000000000000355 48.30000000000000426 84.70000000000003126 0.00000000000000000 0.00000000000000000 1.00000000000000000 1.00000000000000000 0.00000000000000000 -0.00000000000000000 -0.00000000000000000 1.00000000000000000 0.00000000000000000 
1 43.70000000000000284 -84.70000000000001705 -61.00000000000000711 -0.00000000000000016 -1.00000000000000000 0.00000000000000000 -1.00000000000000000 0.00000000000000016 0.00000000000000000 -0.00000000000000000 0.00000000000000000 -1.00000000000000000 
1 -43.70000000000000284 -84.70000000000003126 -59.99999999999996447 -1.00000000000000000 0.00000000000000000 0.00000000000000000 0.00000000000000000 1.00000000000000000 -0.00000000000000044 -0.00000000000000000 -0.00000000000000044 -1.00000000000000000 
2 43.69999999999998863 -72.00000000000002842 35.60000000000002984 1.00000000000000000 -0.00000000000000022 0.00000000000000000 0.00000000000000022 1.00000000000000000 0.00000000000000000 -0.00000000000000000 0.00000000000000000 1.00000000000000000 3.96875000000000000
2 43.70000000000001705 72.00000000000002842 35.60000000000002984 1.00000000000000000 -0.00000000000000022 0.00000000000000000 0.00000000000000022 1.00000000000000000 0.00000000000000000 -0.00000000000000000 0.00000000000000000 1.00000000000000000 3.96875000000000000
2 43.69999999999998863 -72.00000000000002842 -35.60000000000002984 1.00000000000000000 -0.00000000000000022 0.00000000000000000 0.00000000000000022 1.00000000000000000 0.00000000000000000 -0.00000000000000000 0.00000000000000000 1.00000000000000000 3.96875000000000000
2 43.70000000000001705 72.00000000000002842 -35.60000000000002984 1.00000000000000000 -0.00000000000000022 0.00000000000000000 0.00000000000000022 1.00000000000000000 0.00000000000000000 -0.00000000000000000 0.00000000000000000 1.00000000000000000 3.96875000000000000
1 -0.00000000000000177 -0.00000000000000000 0.00000000000000354 -0.00000000000000000 1.00000000000000000 0.00000000000000022 0.00000000000000000 -0.00000000000000022 1.00000000000000000 1.00000000000000000 0.00000000000000000 0.00000000000000000 
1 43.70000000000000284 84.69999999999998863 -60.00000000000003553 1.00000000000000000 0.00000000000000000 -0.00000000000000000 0.00000000000000000 -1.00000000000000000 0.00000000000000044 0.00000000000000000 -0.00000000000000044 -1.00000000000000000 
1 43.70000000000000284 -84.70000000000004547 -59.99999999999996447 -0.00000000000000016 -1.00000000000000000 0.00000000000000044 -1.00000000000000000 0.00000000000000016 0.00000000000000000 -0.00000000000000000 -0.00000000000000044 -1.00000000000000000 
1 43.70000000000001705 -35.60000000000005116 72.00000000000001421 1.00000000000000000 0.00000000000000000 0.00000000000000000 -0.00000000000000000 0.00000000000000000 1.00000000000000000 0.00000000000000000 -1.00000000000000000 0.00000000000000000 
1 43.69999999999998863 -35.60000000000002274 -72.00000000000004263 1.00000000000000000 0.00000000000000000 0.00000000000000000 -0.00000000000000000 0.00000000000000000 1.00000000000000000 0.00000000000000000 -1.00000000000000000 0.00000000000000000 
1 43.70000000000001705 35.60000000000002274 72.00000000000004263 1.00000000000000000 0.00000000000000000 0.00000000000000000 -0.00000000000000000 0.00000000000000000 1.00000000000000000 0.00000000000000000 -1.00000000000000000 0.00000000000000000 
1 43.69999999999998863 35.60000000000005116 -72.00000000000001421 1.00000000000000000 0.00000000000000000 0.00000000000000000 -0.00000000000000000 0.00000000000000000 1.00000000000000000 0.00000000000000000 -1.00000000000000000 0.00000000000000000 
Triangulations 0

TShapes 96
Ve
0.001000000000000
-43.700000000000003 84.700000000000017 0.000000000000000
0 0

0101101
*
Ed
 0.001000000000000 1 1 0
1  1 0 0.000000000000000 122.000000000000014
2  1 1 0 0.000000000000000 122.000000000000014
2  2 2 0 0.000000000000000 122.000000000000014
0

0101000
+96 12 -96 14 *
Ve
0.001000000000000
43.700000000000003 84.700000000000017 0.000000000000000
0 0

0101101
*
Ed
 0.001000000000000 1 1 0
1  2 0 0.000000000000000 87.400000000000006
2  3 3 20 0.000000000000000 87.400000000000006
2  4 3 22 0.000000000000000 87.400000000000006
2  5 1 23 0.000000000000000 87.400000000000006
2  6 1 24 0.000000000000000 87.400000000000006
0

0101000
+96 0 -94 0 *
Ed
 0.001000000000000 1 1 0
1  3 0 0.000000000000000 122.000000000000014
2  7 1 0 0.000000000000000 122.000000000000014
2  8 4 0 0.000000000000000 122.000000000000014
0

0101000
+94 12 -94 14 *
Wi

0101100
+95 7 -93 15 +93 25 -92 7 *
Ve
0.001000000000000
34.968750000000000 48.300000000000026 0.000000000000000
0 0

0101101
*
Ed
 0.001000000000000 1 1 0
1  4 0 0.000000000000000 6.283185307179586
2  9 5 29 0.000000000000000 6.283185307179586
2  10 5 31 0.000000000000000 6.283185307179586
2  11 6 32 0.000000000000000 6.283185307179586
2  12 1 33 0.000000000000000 6.283185307179586
0

0101000
+90 0 -90 0 *
Wi

0101100
-89 28 *
Ve
0.001000000000000
-27.031250000000004 48.300000000000026 0.000000000000000
0 0

0101101
*
Ed
 0.001000000000000 1 1 0
1  5 0 0.000000000000000 6.283185307179586
2  13 7 29 0.000000000000000 6.283185307179586
2  14 7 31 0.000000000000000 6.283185307179586
2  15 8 32 0.000000000000000 6.283185307179586
2  16 1 33 0.000000000000000 6.283185307179586
0

0101000
+87 0 -87 0 *
Wi

0101100
-86 28 *
Ve
0.001000000000000
34.968750000000000 -48.300000000000026 0.000000000000000
0 0

0101101
*
Ed
 0.001000000000000 1 1 0
1  6 0 0.000000000000000 6.283185307179586
2  17 9 29 0.000000000000000 6.283185307179586
2  18 9 31 0.000000000000000 6.283185307179586
2  19 10 32 0.000000000000000 6.283185307179586
2  20 1 33 0.000000000000000 6.283185307179586
0

0101000
+84 0 -84 0 *
Wi

0101100
-83 28 *
Ve
0.001000000000000
-27.031250000000004 -48.300000000000026 0.000000000000000
0 0

0101101
*
Ed
 0.001000000000000 1 1 0
1  7 0 0.000000000000000 6.283185307179586
2  21 11 29 0.000000000000000 6.283185307179586
2  22 11 31 0.000000000000000 6.283185307179586
2  23 12 32 0.000000000000000 6.283185307179586
2  24 1 33 0.000000000000000 6.283185307179586
0

0101000
+81 0 -81 0 *
Wi

0101100
-80 28 *
Fa
0  0.001000000000000 1 7

0101000
+91 0 +88 0 +85 0 +82 0 +79 0 *
Ve
0.001000000000000
-43.700000000000003 -84.700000000000003 0.000000000000000
0 0

0101101
*
Ed
 0.001000000000000 1 1 0
1  8 0 0.000000000000000 122.000000000000014
2  25 13 0 0.000000000000000 122.000000000000014
2  26 2 0 0.000000000000000 122.000000000000014
0

0101000
+77 12 -77 14 *
Ed
 0.001000000000000 1 1 0
1  9 0 0.000000000000000 169.400000000000034
2  27 14 20 0.000000000000000 169.400000000000034
2  28 14 22 0.000000000000000 169.400000000000034
2  29 2 23 0.000000000000000 169.400000000000034
2  30 2 24 0.000000000000000 169.400000000000034
0

0101000
+77 0 -96 0 *
Wi

0101100
+76 34 -75 35 +75 36 -95 34 *
Ve
0.001000000000000
-43.700000000000003 -68.031250000000014 35.600000000000030
0 0

0101101
*
Ed
 0.001000000000000 1 1 0
1  10 0 0.000000000000000 6.283185307179586
2  31 2 34 0.000000000000000 6.283185307179586
2  32 15 0 0.000000000000000 6.283185307179586
0

0101000
+73 0 -73 0 *
Wi

0101100
+72 0 *
Ve
0.001000000000000
-43.700000000000003 75.968750000000043 35.600000000000030
0 0

0101101
*
Ed
 0.001000000000000 1 1 0
1  11 0 0.000000000000000 6.283185307179586
2  33 2 34 0.000000000000000 6.283185307179586
2  34 16 0 0.000000000000000 6.283185307179586
0

0101000
+70 0 -70 0 *
Wi

0101100
+69 0 *
Ve
0.001000000000000
-43.700000000000003 -68.031250000000014 -35.600000000000030
0 0

0101101
*
Ed
 0.001000000000000 1 1 0
1  12 0 0.000000000000000 6.283185307179586
2  35 2 34 0.000000000000000 6.283185307179586
2  36 17 0 0.000000000000000 6.283185307179586
0

0101000
+67 0 -67 0 *
Wi

0101100
+66 0 *
Ve
0.001000000000000
-43.700000000000003 75.968750000000043 -35.600000000000030
0 0

0101101
*
Ed
 0.001000000000000 1 1 0
1  13 0 0.000000000000000 6.283185307179586
2  37 2 34 0.000000000000000 6.283185307179586
2  38 18 0 0.000000000000000 6.283185307179586
0

0101000
+64 0 -64 0 *
Wi

0101100
+63 0 *
Fa
0  0.001000000000000 2 34

0101000
+74 0 +71 0 +68 0 +65 0 +62 0 *
Ve
0.001000000000000
43.700000000000003 -84.700000000000017 0.000000000000000
0 0

0101101
*
Ed
 0.001000000000000 1 1 0
1  14 0 0.000000000000000 169.400000000000034
2  39 20 20 0.000000000000000 169.400000000000034
2  40 20 22 0.000000000000000 169.400000000000034
2  41 4 23 0.000000000000000 169.400000000000034
2  42 4 24 0.000000000000000 169.400000000000034
0

0101000
+94 0 -60 0 *
Ed
 0.001000000000000 1 1 0
1  15 0 0.000000000000000 87.400000000000006
2  43 21 20 0.000000000000000 87.400000000000006
2  44 21 22 0.000000000000000 87.400000000000006
2  45 13 23 0.000000000000000 87.400000000000006
2  46 13 24 0.000000000000000 87.400000000000006
0

0101000
+60 0 -77 0 *
Wi

0101100
+93 0 +59 0 +58 0 +75 0 *
Fa
0  0.001000000000000 19 0

0101000
+57 38 *
Ed
 0.001000000000000 1 1 0
1  16 0 0.000000000000000 122.000000000000014
2  47 13 0 0.000000000000000 122.000000000000014
2  48 4 0 0.000000000000000 122.000000000000014
0

0101000
+60 12 -60 14 *
Wi

0101100
+92 34 -59 35 +59 36 -55 34 *
Ve
0.001000000000014
75.968750000000028 35.600000000000030 0.000000000000000
0 0

0101101
*
Ed
 0.001000000000014 1 1 0
1  17 0 0.000000000000000 6.283185307179586
2  49 16 43 0.000000000000000 6.283185307179586
2  50 16 45 0.000000000000000 6.283185307179586
2  51 22 46 0.000000000000000 6.283185307179586
2  52 4 47 0.000000000000000 6.283185307179586
0

0101000
+53 0 -53 0 *
Wi

0101100
-52 42 *
Ve
0.001000000000014
-68.031250000000028 35.600000000000030 0.000000000000000
0 0

0101101
*
Ed
 0.001000000000014 1 1 0
1  18 0 0.000000000000000 6.283185307179586
2  53 15 43 0.000000000000000 6.283185307179586
2  54 15 45 0.000000000000000 6.283185307179586
2  55 23 46 0.000000000000000 6.283185307179586
2  56 4 47 0.000000000000000 6.283185307179586
0

0101000
+50 0 -50 0 *
Wi

0101100
-49 42 *
Ve
0.001000000000014
75.968750000000028 -35.600000000000030 0.000000000000000
0 0

0101101
*
Ed
 0.001000000000014 1 1 0
1  19 0 0.000000000000000 6.283185307179586
2  57 18 43 0.000000000000000 6.283185307179586
2  58 18 45 0.000000000000000 6.283185307179586
2  59 24 46 0.000000000000000 6.283185307179586
2  60 4 47 0.000000000000000 6.283185307179586
0

0101000
+47 0 -47 0 *
Wi

0101100
-46 42 *
Ve
0.001000000000014
-68.031250000000028 -35.600000000000030 0.000000000000000
0 0

0101101
*
Ed
 0.001000000000014 1 1 0
1  20 0 0.000000000000000 6.283185307179586
2  61 17 43 0.000000000000000 6.283185307179586
2  62 17 45 0.000000000000000 6.283185307179586
2  63 25 46 0.000000000000000 6.283185307179586
2  64 4 47 0.000000000000000 6.283185307179586
0

0101000
+44 0 -44 0 *
Wi

0101100
-43 42 *
Fa
0  0.001000000000000 4 34

0101000
+54 0 +51 0 +48 0 +45 0 +42 0 *
Ve
0.001000000000000
-34.968750000000000 -84.700000000000017 48.300000000000026
0 0

0101101
*
Ed
 0.000000100000000 1 1 0
1  21 0 0.000000000000000 169.400000000000034
3  65 66CN 5 0 0.000000000000000 169.400000000000034
0

0101000
+90 28 -40 0 *
Ed
 0.001000000000000 1 1 0
1  22 0 0.000000000000000 6.283185307179586
2  67 13 7 0.000000000000000 6.283185307179586
2  68 5 0 0.000000000000000 6.283185307179586
0

0101000
+40 0 -40 0 *
Wi

0101100
-89 28 -39 0 +38 0 +39 0 *
Fa
0  0.000000100000000 5 0

0101000
+37 0 *
Ve
0.001000000000000
27.031250000000004 -84.700000000000017 48.300000000000026
0 0

0101101
*
Ed
 0.000000100000000 1 1 0
1  23 0 0.000000000000000 169.400000000000034
3  69 70CN 7 0 0.000000000000000 169.400000000000034
0

0101000
+87 28 -35 0 *
Ed
 0.001000000000000 1 1 0
1  24 0 0.000000000000000 6.283185307179586
2  71 13 7 0.000000000000000 6.283185307179586
2  72 7 0 0.000000000000000 6.283185307179586
0

0101000
+35 0 -35 0 *
Wi

0101100
-86 28 -34 0 +33 0 +34 0 *
Fa
0  0.000000100000000 7 0

0101000
+32 0 *
Ve
0.001000000000000
-34.968750000000000 -84.700000000000017 -48.300000000000026
0 0

0101101
*
Ed
 0.000000100000000 1 1 0
1  25 0 0.000000000000000 169.400000000000034
3  73 74CN 9 0 0.000000000000000 169.400000000000034
0

0101000
+84 28 -30 0 *
Ed
 0.001000000000000 1 1 0
1  26 0 0.000000000000000 6.283185307179586
2  75 13 7 0.000000000000000 6.283185307179586
2  76 9 0 0.000000000000000 6.283185307179586
0

0101000
+30 0 -30 0 *
Wi

0101100
-83 28 -29 0 +28 0 +29 0 *
Fa
0  0.000000100000000 9 0

0101000
+27 0 *
Ve
0.001000000000000
27.031250000000004 -84.700000000000017 -48.300000000000026
0 0

0101101
*
Ed
 0.000000100000000 1 1 0
1  27 0 0.000000000000000 169.400000000000034
3  77 78CN 11 0 0.000000000000000 169.400000000000034
0

0101000
+81 28 -25 0 *
Ed
 0.001000000000000 1 1 0
1  28 0 0.000000000000000 6.283185307179586
2  79 13 7 0.000000000000000 6.283185307179586
2  80 11 0 0.000000000000000 6.283185307179586
0

0101000
+25 0 -25 0 *
Wi

0101100
-80 28 -24 0 +23 0 +24 0 *
Fa
0  0.000000100000000 11 0

0101000
+22 0 *
Wi

0101100
+55 7 -58 15 +58 25 -76 7 *
Wi

0101100
+33 0 *
Wi

0101100
+38 0 *
Wi

0101100
+23 0 *
Wi

0101100
+28 0 *
Fa
0  0.001000000000000 13 7

0101000
+20 0 +19 0 +18 0 +17 0 +16 0 *
Ed
 0.000000100000000 1 1 0
1  29 0 0.000000000000000 87.399999999999991
3  81 82CN 15 0 0.000000000000000 87.399999999999991
0

0101000
+50 42 -73 0 *
Wi

0101100
-49 42 -14 0 +72 0 +14 0 *
Fa
0  0.000000100000000 15 0

0101000
+13 0 *
Ed
 0.000000100000000 1 1 0
1  30 0 0.000000000000000 87.400000000000020
3  83 84CN 16 0 0.000000000000000 87.400000000000020
0

0101000
+53 42 -70 0 *
Wi

0101100
-52 42 -11 0 +69 0 +11 0 *
Fa
0  0.000000100000000 16 0

0101000
+10 0 *
Ed
 0.000000100000000 1 1 0
1  31 0 0.000000000000000 87.399999999999991
3  85 86CN 17 0 0.000000000000000 87.399999999999991
0

0101000
+44 42 -67 0 *
Wi

0101100
-43 42 -8 0 +66 0 +8 0 *
Fa
0  0.000000100000000 17 0

0101000
+7 0 *
Ed
 0.000000100000000 1 1 0
1  32 0 0.000000000000000 87.400000000000020
3  87 88CN 18 0 0.000000000000000 87.400000000000020
0

0101000
+47 42 -64 0 *
Wi

0101100
-46 42 -5 0 +63 0 +5 0 *
Fa
0  0.000000100000000 18 0

0101000
+4 0 *
Sh

0101100
+78 4 +61 0 +56 37 -56 39 +41 0 -36 4 -31 4 -26 4 -21 4 +15 4 
-12 0 -9 0 -6 0 -3 0 *
So

0100000
+2 0 *

+1 1 