
CASCADE Topology V1, (c) Matra-Datavision
Locations 19
1
1.000000000000000 0.000000000000000 0.000000000000000 0.000000000000000 
0.000000000000000 1.000000000000000 0.000000000000000 0.000000000000000 
0.000000000000000 0.000000000000000 1.000000000000000 0.000000000000000 
1
1.000000000000000 0.000000000000000 0.000000000000000 0.000000000000000 
0.000000000000000 -0.000000000000000 -1.000000000000000 0.000000000000000 
0.000000000000000 1.000000000000000 -0.000000000000000 0.000000000000000 
1
1.000000000000000 0.000000000000000 0.000000000000000 0.000000000000000 
0.000000000000000 -0.000000000000000 -1.000000000000000 0.000000000000000 
0.000000000000000 1.000000000000000 -0.000000000000000 0.000000000000000 
1
1.000000000000000 0.000000000000000 0.000000000000000 -0.000000000000000 
0.000000000000000 1.000000000000000 0.000000000000000 -0.000000000000000 
0.000000000000000 0.000000000000000 1.000000000000000 -61.000000000000007 
2  1 1 2 1 3 -1 4 1 0
1
1.000000000000000 0.000000000000000 0.000000000000000 0.000000000000000 
0.000000000000000 1.000000000000000 0.000000000000000 0.000000000000000 
0.000000000000000 0.000000000000000 1.000000000000000 122.000000000000014 
2  1 1 2 1 3 -1 4 1 6 1 0
1
1.000000000000000 0.000000000000000 0.000000000000000 -0.000000000000000 
0.000000000000000 1.000000000000000 0.000000000000000 -0.000000000000027 
0.000000000000000 0.000000000000000 1.000000000000000 -60.000000000000000 
1
1.000000000000000 0.000000000000000 0.000000000000000 0.000000000000000 
0.000000000000000 -0.000000000000000 -1.000000000000000 0.000000000000000 
0.000000000000000 1.000000000000000 -0.000000000000000 0.000000000000000 
1
1.000000000000000 0.000000000000000 0.000000000000000 0.000000000000000 
0.000000000000000 0.000000000000000 -1.000000000000000 0.000000000000000 
0.000000000000000 1.000000000000000 0.000000000000000 0.000000000000000 
1
1.000000000000000 0.000000000000000 0.000000000000000 0.000000000000000 
0.000000000000000 1.000000000000000 0.000000000000000 0.000000000000000 
0.000000000000000 0.000000000000000 1.000000000000000 0.000000000000000 
2  8 -1 9 1 10 -1 11 -1 0
1
1.000000000000000 0.000000000000000 0.000000000000000 0.000000000000000 
0.000000000000000 1.000000000000000 0.000000000000000 0.000000000000053 
0.000000000000000 0.000000000000000 1.000000000000000 120.000000000000000 
2  13 -1 8 -1 9 1 10 -1 11 -1 0
2  4 -1 3 1 2 -1 1 -1 0
2  6 -1 4 -1 3 1 2 -1 1 -1 0
2  3 -1 4 1 0
2  1 1 2 1 0
2  3 -1 4 1 6 1 0
Curve2ds 24
1 0.00000000000000000 0.00000000000000000 0.00000000000000000 -1.00000000000000000 
1 169.40000000000003411 0.00000000000000000 0.00000000000000000 -1.00000000000000000 
1 87.40000000000000568 0.00000000000000000 0.00000000000000000 -1.00000000000000000 
1 0.00000000000000000 0.00000000000000000 0.00000000000000000 -1.00000000000000000 
1 0.00000000000000000 0.00000000000000000 1.00000000000000000 0.00000000000000000 
1 0.00000000000000000 -120.00000000000000000 1.00000000000000000 0.00000000000000000 
1 0.00000000000000000 0.00000000000000000 1.00000000000000000 0.00000000000000000 
1 0.00000000000000000 -122.00000000000001421 1.00000000000000000 0.00000000000000000 
1 0.00000000000000000 0.00000000000000000 0.00000000000000000 -1.00000000000000000 
1 169.40000000000003411 0.00000000000000000 0.00000000000000000 -1.00000000000000000 
1 0.00000000000000000 0.00000000000000000 1.00000000000000000 0.00000000000000000 
1 -0.00000000000000355 -120.00000000000000000 1.00000000000000000 0.00000000000000000 
1 0.00000000000000000 0.00000000000000000 1.00000000000000000 0.00000000000000000 
1 0.00000000000000000 -122.00000000000001421 1.00000000000000000 0.00000000000000000 
1 87.40000000000000568 0.00000000000000000 0.00000000000000000 -1.00000000000000000 
1 0.00000000000000000 0.00000000000000000 0.00000000000000000 -1.00000000000000000 
1 0.00000000000000000 0.00000000000000000 1.00000000000000000 0.00000000000000000 
1 0.00000000000000000 -120.00000000000000000 1.00000000000000000 0.00000000000000000 
1 0.00000000000000000 0.00000000000000000 1.00000000000000000 0.00000000000000000 
1 0.00000000000000000 -122.00000000000001421 1.00000000000000000 0.00000000000000000 
1 0.00000000000000000 -0.00000000000000000 1.00000000000000000 0.00000000000000000 
1 0.00000000000000355 -120.00000000000000000 1.00000000000000000 0.00000000000000000 
1 0.00000000000000000 0.00000000000000000 1.00000000000000000 0.00000000000000000 
1 0.00000000000000000 -122.00000000000001421 1.00000000000000000 0.00000000000000000 
Curves 8
1 -43.70000000000000284 84.70000000000001705 -61.00000000000000711 0.00000000000000000 0.00000000000000000 1.00000000000000000 
1 43.70000000000000284 84.70000000000001705 -61.00000000000000711 0.00000000000000000 0.00000000000000000 1.00000000000000000 
1 -43.70000000000000284 84.70000000000001705 0.00000000000000000 1.00000000000000000 0.00000000000000000 0.00000000000000000 
1 43.70000000000000284 -84.70000000000001705 -61.00000000000000711 0.00000000000000000 0.00000000000000000 1.00000000000000000 
1 43.70000000000000284 84.70000000000001705 0.00000000000000000 0.00000000000000000 -1.00000000000000000 0.00000000000000000 
1 -43.70000000000000284 -84.70000000000000284 -61.00000000000000711 0.00000000000000000 0.00000000000000000 1.00000000000000000 
1 43.70000000000000284 -84.70000000000001705 0.00000000000000000 -1.00000000000000000 0.00000000000000016 0.00000000000000000 
1 -43.70000000000000284 -84.70000000000000284 0.00000000000000000 0.00000000000000000 1.00000000000000000 0.00000000000000000 
Polygon3D 0
PolygonOnTriangulations 0
Surfaces 9
1 -43.70000000000000284 84.70000000000001705 -61.00000000000000711 0.00000000000000000 1.00000000000000000 0.00000000000000000 1.00000000000000000 0.00000000000000000 0.00000000000000000 0.00000000000000000 0.00000000000000000 -1.00000000000000000 
1 -43.70000000000000284 -84.70000000000000284 -61.00000000000000711 -1.00000000000000000 0.00000000000000000 0.00000000000000000 0.00000000000000000 1.00000000000000000 0.00000000000000000 0.00000000000000000 0.00000000000000000 -1.00000000000000000 
1 43.70000000000000284 84.70000000000001705 -61.00000000000000711 1.00000000000000000 0.00000000000000000 -0.00000000000000000 0.00000000000000000 -1.00000000000000000 0.00000000000000000 0.00000000000000000 -0.00000000000000000 -1.00000000000000000 
1 -43.70000000000000284 84.69999999999998863 -60.00000000000003553 0.00000000000000000 1.00000000000000000 -0.00000000000000044 1.00000000000000000 0.00000000000000000 0.00000000000000000 0.00000000000000000 -0.00000000000000044 -1.00000000000000000 
1 43.70000000000000284 -84.70000000000001705 -61.00000000000000711 -0.00000000000000016 -1.00000000000000000 0.00000000000000000 -1.00000000000000000 0.00000000000000016 0.00000000000000000 -0.00000000000000000 0.00000000000000000 -1.00000000000000000 
1 43.70000000000000284 84.69999999999998863 -60.00000000000003553 1.00000000000000000 0.00000000000000000 -0.00000000000000000 0.00000000000000000 -1.00000000000000000 0.00000000000000044 0.00000000000000000 -0.00000000000000044 -1.00000000000000000 
1 43.70000000000000284 -84.70000000000004547 -59.99999999999996447 -0.00000000000000016 -1.00000000000000000 0.00000000000000044 -1.00000000000000000 0.00000000000000016 0.00000000000000000 -0.00000000000000000 -0.00000000000000044 -1.00000000000000000 
1 -43.70000000000000284 -84.70000000000003126 -59.99999999999996447 -1.00000000000000000 0.00000000000000000 0.00000000000000000 0.00000000000000000 1.00000000000000000 -0.00000000000000044 -0.00000000000000000 -0.00000000000000044 -1.00000000000000000 
1 -0.00000000000000177 -0.00000000000000000 0.00000000000000354 -0.00000000000000000 1.00000000000000000 0.00000000000000022 0.00000000000000000 -0.00000000000000022 1.00000000000000000 1.00000000000000000 0.00000000000000000 0.00000000000000000 
Triangulations 0

TShapes 24
Ve
0.001000000000000
-43.700000000000003 84.700000000000017 0.000000000000000
0 0

0101101
*
Ed
 0.001000000000000 1 1 0
1  1 0 0.000000000000000 122.000000000000014
2  1 1 0 0.000000000000000 122.000000000000014
2  2 2 0 0.000000000000000 122.000000000000014
0

0101000
+24 5 -24 7 *
Ve
0.001000000000000
43.700000000000003 84.700000000000017 0.000000000000000
0 0

0101101
*
Ed
 0.001000000000000 1 1 0
1  2 0 0.000000000000000 122.000000000000014
2  3 1 0 0.000000000000000 122.000000000000014
2  4 3 0 0.000000000000000 122.000000000000014
0

0101000
+22 5 -22 7 *
Ed
 0.001000000000000 1 1 0
1  3 0 0.000000000000000 87.400000000000006
2  5 4 12 0.000000000000000 87.400000000000006
2  6 4 14 0.000000000000000 87.400000000000006
2  7 1 15 0.000000000000000 87.400000000000006
2  8 1 16 0.000000000000000 87.400000000000006
0

0101000
+24 0 -22 0 *
Wi

0101100
+23 0 -21 0 -20 5 +20 7 *
Fa
0  0.001000000000000 1 0

0111000
+19 0 *
Ve
0.001000000000000
43.700000000000003 -84.700000000000017 0.000000000000000
0 0

0101101
*
Ed
 0.001000000000000 1 1 0
1  4 0 0.000000000000000 122.000000000000014
2  9 5 0 0.000000000000000 122.000000000000014
2  10 3 0 0.000000000000000 122.000000000000014
0

0101000
+17 5 -17 7 *
Ed
 0.001000000000000 1 1 0
1  5 0 0.000000000000000 169.400000000000034
2  11 6 12 0.000000000000000 169.400000000000034
2  12 6 14 0.000000000000000 169.400000000000034
2  13 3 15 0.000000000000000 169.400000000000034
2  14 3 16 0.000000000000000 169.400000000000034
0

0101000
+22 0 -17 0 *
Wi

0101100
+21 0 -16 0 -15 5 +15 7 *
Fa
0  0.001000000000000 3 0

0111000
+14 0 *
Ve
0.001000000000000
-43.700000000000003 -84.700000000000003 0.000000000000000
0 0

0101101
*
Ed
 0.001000000000000 1 1 0
1  6 0 0.000000000000000 122.000000000000014
2  15 5 0 0.000000000000000 122.000000000000014
2  16 2 0 0.000000000000000 122.000000000000014
0

0101000
+12 5 -12 7 *
Ed
 0.001000000000000 1 1 0
1  7 0 0.000000000000000 87.400000000000006
2  17 7 12 0.000000000000000 87.400000000000006
2  18 7 14 0.000000000000000 87.400000000000006
2  19 5 15 0.000000000000000 87.400000000000006
2  20 5 16 0.000000000000000 87.400000000000006
0

0101000
+17 0 -12 0 *
Wi

0101100
+16 0 -11 0 -10 5 +10 7 *
Fa
0  0.001000000000000 5 0

0111000
+9 0 *
Ed
 0.001000000000000 1 1 0
1  8 0 0.000000000000000 169.400000000000034
2  21 8 12 0.000000000000000 169.400000000000034
2  22 8 14 0.000000000000000 169.400000000000034
2  23 2 15 0.000000000000000 169.400000000000034
2  24 2 16 0.000000000000000 169.400000000000034
0

0101000
+12 0 -24 0 *
Wi

0101100
+11 0 -23 0 -7 5 +7 7 *
Fa
0  0.001000000000000 2 0

0111000
+6 0 *
Wi

0101100
+20 0 +15 0 +10 0 +7 0 *
Fa
0  0.001000000000000 9 0

0111000
+4 18 *
Sh

0101100
+18 0 +13 0 +8 0 +5 0 +3 17 -3 19 *
So

1100000
+2 0 *

+1 0 