
CASCADE Topology V1, (c) Matra-Datavision
Locations 26
1
1.000000000000000 0.000000000000000 0.000000000000000 0.000000000000000 
0.000000000000000 0.000000000000000 -1.000000000000000 0.000000000000000 
0.000000000000000 1.000000000000000 0.000000000000000 0.000000000000000 
1
1.000000000000000 0.000000000000000 0.000000000000000 0.000000000000000 
0.000000000000000 -0.000000000000000 -1.000000000000000 0.000000000000000 
0.000000000000000 1.000000000000000 -0.000000000000000 0.000000000000000 
1
1.000000000000000 0.000000000000000 0.000000000000000 0.000000000000000 
0.000000000000000 1.000000000000000 0.000000000000000 0.000000000000000 
0.000000000000000 0.000000000000000 1.000000000000000 0.000000000000000 
1
1.000000000000000 0.000000000000000 0.000000000000000 0.000000000000000 
0.000000000000000 1.000000000000000 0.000000000000000 0.000000000000000 
0.000000000000000 0.000000000000000 1.000000000000000 0.000000000000000 
2  2 -1 3 1 4 1 0
2  4 -1 3 -1 2 1 0
1
1.000000000000000 0.000000000000000 0.000000000000000 0.000000000000000 
0.000000000000000 1.000000000000000 0.000000000000000 0.000000000000000 
0.000000000000000 0.000000000000000 1.000000000000000 0.000000000000000 
1
1.000000000000000 0.000000000000000 0.000000000000000 0.000000000000000 
0.000000000000000 0.000000000000000 -1.000000000000000 0.000000000000000 
0.000000000000000 1.000000000000000 0.000000000000000 0.000000000000000 
2  7 1 8 1 2 -1 3 1 4 1 0
2  4 -1 3 -1 2 1 8 -1 7 -1 0
2  3 -1 2 1 0
2  7 1 8 1 2 -1 3 1 0
2  3 -1 2 1 8 -1 7 -1 0
2  2 -1 3 1 0
2  3 1 4 1 0
2  4 -1 3 -1 0
1
1.000000000000000 0.000000000000000 0.000000000000000 0.000000000000000 
0.000000000000000 1.000000000000000 0.000000000000000 0.000000000000004 
0.000000000000000 0.000000000000000 1.000000000000000 10.000000000000000 
2  7 1 8 1 2 -1 17 1 3 1 4 1 0
2  4 -1 3 -1 17 -1 2 1 8 -1 7 -1 0
2  2 -1 17 1 3 1 4 1 0
2  3 -1 0
2  7 1 8 1 2 -1 17 1 3 1 0
2  3 -1 17 -1 2 1 8 -1 7 -1 0
2  2 -1 17 1 3 1 0
2  4 -1 3 -1 17 -1 2 1 0
2  3 -1 17 -1 2 1 0
Curve2ds 64
1 -4.71238898038468967 0.00000000000000000 1.00000000000000000 0.00000000000000000 
2 -17.41250000000000142 -17.41250000000000497 -1.00000000000000000 0.00000000000000000 0.00000000000000000 1.00000000000000000 1.00000000000000000
1 -1.57079632679489656 0.00000000000000000 1.00000000000000000 0.00000000000000000 
2 17.41250000000000142 -17.41250000000000497 -1.00000000000000000 0.00000000000000000 -0.00000000000000000 -1.00000000000000000 1.00000000000000000
1 0.00000000000000000 0.00000000000000000 1.00000000000000000 0.00000000000000000 
2 -17.41250000000000142 17.41249999999999787 -1.00000000000000000 0.00000000000000000 0.00000000000000000 1.00000000000000000 1.00000000000000000
1 -1.57079632679489656 0.00000000000000000 1.00000000000000000 0.00000000000000000 
2 17.41250000000000142 17.41249999999999787 -1.00000000000000000 0.00000000000000000 0.00000000000000000 1.00000000000000000 1.00000000000000000
1 -3.14159265358979312 0.00000000000000000 1.00000000000000000 0.00000000000000000 
2 18.00000000000000000 -18.00000000000000000 -1.00000000000000000 0.00000000000000000 0.00000000000000000 1.00000000000000000 2.00000000000000000
1 -3.14159265358979312 0.00000000000000000 1.00000000000000000 0.00000000000000000 
2 18.00000000000000000 18.00000000000000000 -1.00000000000000000 0.00000000000000000 -0.00000000000000000 -1.00000000000000000 2.00000000000000000
1 0.00000000000000000 0.00000000000000000 1.00000000000000000 0.00000000000000000 
2 -18.00000000000000000 -18.00000000000000000 -1.00000000000000000 0.00000000000000000 -0.00000000000000000 -1.00000000000000000 2.00000000000000000
1 -4.71238898038468967 0.00000000000000000 1.00000000000000000 0.00000000000000000 
2 -18.00000000000000000 18.00000000000000000 -1.00000000000000000 0.00000000000000000 -0.00000000000000000 -1.00000000000000000 2.00000000000000000
1 0.00000000000000000 0.00000000000000000 0.00000000000000000 1.00000000000000000 
1 1.00000000000000355 0.00000000000000000 0.00000000000000000 -1.00000000000000000 
1 0.00000000000000000 0.00000000000000000 0.00000000000000000 1.00000000000000000 
1 35.82500000000000284 0.00000000000000000 0.00000000000000000 -1.00000000000000000 
1 1.57079632679489678 0.00000000000000000 0.00000000000000000 1.00000000000000000 
1 35.82500000000000284 0.00000000000000000 0.00000000000000000 -1.00000000000000000 
1 -4.71238898038468967 10.00000000000000000 1.00000000000000000 0.00000000000000000 
2 -17.41250000000000142 -17.41250000000000497 -1.00000000000000000 0.00000000000000000 0.00000000000000000 1.00000000000000000 1.00000000000000000
1 1.57079632679489656 0.00000000000000000 0.00000000000000000 1.00000000000000000 
1 1.00000000000000000 0.00000000000000000 0.00000000000000000 -1.00000000000000000 
1 -1.57079632679489301 10.00000000000000000 1.00000000000000000 0.00000000000000000 
2 17.41250000000000142 -17.41250000000000497 -1.00000000000000000 0.00000000000000000 -0.00000000000000000 -1.00000000000000000 1.00000000000000000
1 0.00000000000000000 0.00000000000000000 0.00000000000000000 1.00000000000000000 
1 1.00000000000000000 0.00000000000000000 0.00000000000000000 -1.00000000000000000 
1 1.57079632679489656 0.00000000000000000 0.00000000000000000 1.00000000000000000 
1 35.82500000000000284 0.00000000000000000 0.00000000000000000 -1.00000000000000000 
1 1.57079632679489656 0.00000000000000000 0.00000000000000000 1.00000000000000000 
1 35.82500000000000284 0.00000000000000000 0.00000000000000000 -1.00000000000000000 
1 0.00000000000000000 10.00000000000000000 1.00000000000000000 0.00000000000000000 
2 -17.41250000000000142 17.41249999999999787 -1.00000000000000000 0.00000000000000000 0.00000000000000000 1.00000000000000000 1.00000000000000000
1 0.00000000000000000 0.00000000000000000 0.00000000000000000 1.00000000000000000 
1 1.00000000000000000 0.00000000000000000 0.00000000000000000 -1.00000000000000000 
1 -1.57079632679489656 10.00000000000000000 1.00000000000000000 0.00000000000000000 
2 17.41250000000000142 17.41249999999999787 -1.00000000000000000 0.00000000000000000 0.00000000000000000 1.00000000000000000 1.00000000000000000
1 0.00000000000000000 0.00000000000000000 0.00000000000000000 1.00000000000000000 
1 2.00000000000000000 0.00000000000000000 0.00000000000000000 -1.00000000000000000 
1 0.00000000000000000 0.00000000000000000 0.00000000000000000 1.00000000000000000 
1 38.00000000000000000 0.00000000000000000 0.00000000000000000 -1.00000000000000000 
1 1.57079632679489656 0.00000000000000000 0.00000000000000000 1.00000000000000000 
1 38.00000000000000000 0.00000000000000000 0.00000000000000000 -1.00000000000000000 
1 -3.14159265358979312 10.00000000000000000 1.00000000000000000 0.00000000000000000 
2 18.00000000000000000 -18.00000000000000000 -1.00000000000000000 0.00000000000000000 0.00000000000000000 1.00000000000000000 2.00000000000000000
1 1.57079632679489656 0.00000000000000000 0.00000000000000000 1.00000000000000000 
1 2.00000000000000000 0.00000000000000000 0.00000000000000000 -1.00000000000000000 
1 -3.14159265358979312 10.00000000000000000 1.00000000000000000 0.00000000000000000 
2 18.00000000000000000 18.00000000000000000 -1.00000000000000000 0.00000000000000000 -0.00000000000000000 -1.00000000000000000 2.00000000000000000
1 1.57079632679489656 0.00000000000000000 0.00000000000000000 1.00000000000000000 
1 2.00000000000000000 0.00000000000000000 0.00000000000000000 -1.00000000000000000 
1 0.00000000000000000 0.00000000000000000 0.00000000000000000 1.00000000000000000 
1 38.00000000000000000 0.00000000000000000 0.00000000000000000 -1.00000000000000000 
1 0.00000000000000000 0.00000000000000000 0.00000000000000000 1.00000000000000000 
1 38.00000000000000000 0.00000000000000000 0.00000000000000000 -1.00000000000000000 
1 0.00000000000000000 10.00000000000000000 1.00000000000000000 0.00000000000000000 
2 -18.00000000000000000 -18.00000000000000000 -1.00000000000000000 0.00000000000000000 -0.00000000000000000 -1.00000000000000000 2.00000000000000000
1 1.57079632679489656 0.00000000000000000 0.00000000000000000 1.00000000000000000 
1 2.00000000000000000 0.00000000000000000 0.00000000000000000 -1.00000000000000000 
1 -4.71238898038468967 10.00000000000000000 1.00000000000000000 0.00000000000000000 
2 -18.00000000000000000 18.00000000000000000 -1.00000000000000000 0.00000000000000000 -0.00000000000000000 -1.00000000000000000 2.00000000000000000
Curves 40
1 -18.41250000000000142 -18.41250000000000497 0.00000000000000000 0.00000000000000000 1.00000000000000000 0.00000000000000000 
8 4.71238898038468967 6.28318530717958623
2 -17.41250000000000142 -17.41250000000000142 0.00000000000000773 0.00000000000000000 0.00000000000000044 1.00000000000000000 0.00000000000000000 -1.00000000000000000 0.00000000000000044 1.00000000000000000 0.00000000000000000 -0.00000000000000000 1.00000000000000000
8 1.57079632679489656 3.14159265358979312
2 -17.41250000000000142 17.41250000000000142 -0.00000000000000773 -0.00000000000000000 -0.00000000000000044 -1.00000000000000000 0.00000000000000000 -1.00000000000000000 0.00000000000000044 -1.00000000000000000 0.00000000000000000 0.00000000000000000 1.00000000000000000
1 18.41250000000000142 -18.41250000000000142 0.00000000000000000 -1.00000000000000000 -0.00000000000000010 0.00000000000000000 
1 -18.41250000000000142 18.41250000000000142 0.00000000000000000 1.00000000000000000 0.00000000000000000 0.00000000000000000 
8 0.00000000000000000 1.57079632679489656
2 17.41250000000000142 -17.41250000000000142 0.00000000000000773 0.00000000000000000 0.00000000000000044 1.00000000000000000 0.00000000000000000 -1.00000000000000000 0.00000000000000044 1.00000000000000000 0.00000000000000000 -0.00000000000000000 1.00000000000000000
8 1.57079632679489656 3.14159265358979312
2 17.41250000000000142 17.41250000000000142 -0.00000000000000773 0.00000000000000000 0.00000000000000044 1.00000000000000000 0.00000000000000000 -1.00000000000000000 0.00000000000000044 1.00000000000000000 0.00000000000000000 -0.00000000000000000 1.00000000000000000
1 18.41250000000000142 18.41250000000000142 0.00000000000000000 0.00000000000000000 -1.00000000000000000 0.00000000000000000 
1 -19.99999999999999645 20.00000000000000000 0.00000000000000000 1.00000000000000000 0.00000000000000000 0.00000000000000000 
8 3.14159265358979312 4.71238898038468967
2 -17.99999999999999645 18.00000000000000000 -0.00000000000000799 0.00000000000000000 0.00000000000000044 1.00000000000000000 0.00000000000000000 -1.00000000000000000 0.00000000000000044 1.00000000000000000 0.00000000000000000 -0.00000000000000000 2.00000000000000000
8 3.14159265358979312 4.71238898038468967
2 18.00000000000000355 18.00000000000000000 -0.00000000000000799 -0.00000000000000000 -0.00000000000000044 -1.00000000000000000 0.00000000000000000 -1.00000000000000000 0.00000000000000044 -1.00000000000000000 0.00000000000000000 0.00000000000000000 2.00000000000000000
1 -19.99999999999999645 -20.00000000000000000 0.00000000000000000 0.00000000000000000 1.00000000000000000 0.00000000000000000 
1 20.00000000000000355 20.00000000000000000 0.00000000000000000 0.00000000000000000 -1.00000000000000000 0.00000000000000000 
8 0.00000000000000000 1.57079632679489656
2 -17.99999999999999645 -18.00000000000000000 0.00000000000000799 -0.00000000000000000 -0.00000000000000044 -1.00000000000000000 0.00000000000000000 -1.00000000000000000 0.00000000000000044 -1.00000000000000000 0.00000000000000000 0.00000000000000000 2.00000000000000000
8 4.71238898038468967 6.28318530717958623
2 18.00000000000000355 -18.00000000000000000 0.00000000000000799 -0.00000000000000000 -0.00000000000000044 -1.00000000000000000 0.00000000000000000 -1.00000000000000000 0.00000000000000044 -1.00000000000000000 0.00000000000000000 0.00000000000000000 2.00000000000000000
1 20.00000000000000355 -20.00000000000000000 0.00000000000000000 -1.00000000000000000 0.00000000000000000 0.00000000000000000 
1 -18.41250000000000142 -17.41250000000000142 0.00000000000000773 0.00000000000000000 0.00000000000000044 1.00000000000000000 
1 -18.41250000000000142 17.41250000000000142 -0.00000000000000773 0.00000000000000000 0.00000000000000044 1.00000000000000000 
1 -17.41250000000000142 -18.41250000000000142 0.00000000000000818 0.00000000000000000 0.00000000000000044 1.00000000000000000 
8 4.71238898038468967 6.28318530717958623
2 -17.41250000000000142 -17.41249999999999787 10.00000000000000711 0.00000000000000000 0.00000000000000044 1.00000000000000000 0.00000000000000000 -1.00000000000000000 0.00000000000000044 1.00000000000000000 0.00000000000000000 -0.00000000000000000 1.00000000000000000
1 -17.41250000000000142 18.41250000000000142 -0.00000000000000818 0.00000000000000000 0.00000000000000044 1.00000000000000000 
8 1.57079632679489301 3.14159265358979312
2 -17.41250000000000142 17.41250000000000497 9.99999999999999289 -0.00000000000000000 -0.00000000000000044 -1.00000000000000000 0.00000000000000000 -1.00000000000000000 0.00000000000000044 -1.00000000000000000 0.00000000000000000 0.00000000000000000 1.00000000000000000
1 17.41250000000000142 -18.41250000000000142 0.00000000000000818 0.00000000000000000 0.00000000000000044 1.00000000000000000 
1 17.41250000000000142 18.41250000000000142 -0.00000000000000818 0.00000000000000000 0.00000000000000044 1.00000000000000000 
1 18.41250000000000142 -17.41250000000000142 0.00000000000000773 0.00000000000000000 0.00000000000000044 1.00000000000000000 
8 0.00000000000000000 1.57079632679489656
2 17.41250000000000142 -17.41249999999999787 10.00000000000000711 0.00000000000000000 0.00000000000000044 1.00000000000000000 0.00000000000000000 -1.00000000000000000 0.00000000000000044 1.00000000000000000 0.00000000000000000 -0.00000000000000000 1.00000000000000000
1 18.41250000000000142 17.41250000000000142 -0.00000000000000773 0.00000000000000000 0.00000000000000044 1.00000000000000000 
8 1.57079632679489656 3.14159265358979312
2 17.41250000000000142 17.41250000000000497 9.99999999999999289 0.00000000000000000 0.00000000000000044 1.00000000000000000 0.00000000000000000 -1.00000000000000000 0.00000000000000044 1.00000000000000000 0.00000000000000000 -0.00000000000000000 1.00000000000000000
1 -17.99999999999999645 20.00000000000000000 -0.00000000000000888 0.00000000000000000 0.00000000000000044 1.00000000000000000 
1 18.00000000000000355 20.00000000000000000 -0.00000000000000888 0.00000000000000000 0.00000000000000044 1.00000000000000000 
1 -19.99999999999999645 18.00000000000000000 -0.00000000000000799 0.00000000000000000 0.00000000000000044 1.00000000000000000 
8 3.14159265358979312 4.71238898038468967
2 -17.99999999999999645 18.00000000000000355 9.99999999999999289 0.00000000000000000 0.00000000000000044 1.00000000000000000 0.00000000000000000 -1.00000000000000000 0.00000000000000044 1.00000000000000000 0.00000000000000000 -0.00000000000000000 2.00000000000000000
1 20.00000000000000355 18.00000000000000000 -0.00000000000000799 0.00000000000000000 0.00000000000000044 1.00000000000000000 
8 3.14159265358979312 4.71238898038468967
2 18.00000000000000355 18.00000000000000355 9.99999999999999289 -0.00000000000000000 -0.00000000000000044 -1.00000000000000000 0.00000000000000000 -1.00000000000000000 0.00000000000000044 -1.00000000000000000 0.00000000000000000 0.00000000000000000 2.00000000000000000
1 -19.99999999999999645 -18.00000000000000000 0.00000000000000799 0.00000000000000000 0.00000000000000044 1.00000000000000000 
1 20.00000000000000355 -18.00000000000000000 0.00000000000000799 0.00000000000000000 0.00000000000000044 1.00000000000000000 
1 -17.99999999999999645 -20.00000000000000000 0.00000000000000888 0.00000000000000000 0.00000000000000044 1.00000000000000000 
8 0.00000000000000000 1.57079632679489656
2 -17.99999999999999645 -17.99999999999999645 10.00000000000000711 -0.00000000000000000 -0.00000000000000044 -1.00000000000000000 0.00000000000000000 -1.00000000000000000 0.00000000000000044 -1.00000000000000000 0.00000000000000000 0.00000000000000000 2.00000000000000000
1 18.00000000000000355 -20.00000000000000000 0.00000000000000888 0.00000000000000000 0.00000000000000044 1.00000000000000000 
8 4.71238898038468967 6.28318530717958623
2 18.00000000000000355 -17.99999999999999645 10.00000000000000711 -0.00000000000000000 -0.00000000000000044 -1.00000000000000000 0.00000000000000000 -1.00000000000000000 0.00000000000000044 -1.00000000000000000 0.00000000000000000 0.00000000000000000 2.00000000000000000
Polygon3D 0
PolygonOnTriangulations 0
Surfaces 17
1 0.00000000000000213 0.00000000000000000 0.00000000000000000 0.00000000000000000 1.00000000000000000 -0.00000000000000022 0.00000000000000000 0.00000000000000022 1.00000000000000000 1.00000000000000000 -0.00000000000000000 0.00000000000000000 
2 -17.41250000000000142 -17.41250000000000142 0.00000000000000773 0.00000000000000000 0.00000000000000044 1.00000000000000000 -1.00000000000000000 0.00000000000000000 0.00000000000000000 0.00000000000000000 -1.00000000000000000 0.00000000000000044 1.00000000000000000
2 -17.41250000000000142 17.41250000000000142 -0.00000000000000773 0.00000000000000000 0.00000000000000044 1.00000000000000000 -1.00000000000000000 0.00000000000000000 0.00000000000000000 -0.00000000000000000 1.00000000000000000 -0.00000000000000044 1.00000000000000000
2 17.41250000000000142 -17.41250000000000142 0.00000000000000773 0.00000000000000000 0.00000000000000044 1.00000000000000000 0.00000000000000010 -1.00000000000000000 0.00000000000000044 1.00000000000000000 0.00000000000000010 -0.00000000000000000 1.00000000000000000
2 17.41250000000000142 17.41250000000000142 -0.00000000000000773 0.00000000000000000 0.00000000000000044 1.00000000000000000 1.00000000000000000 0.00000000000000000 -0.00000000000000000 -0.00000000000000000 1.00000000000000000 -0.00000000000000044 1.00000000000000000
2 -17.99999999999999645 18.00000000000000000 -0.00000000000000799 0.00000000000000000 0.00000000000000044 1.00000000000000000 0.00000000000000000 1.00000000000000000 -0.00000000000000044 -1.00000000000000000 0.00000000000000000 0.00000000000000000 2.00000000000000000
2 18.00000000000000355 18.00000000000000000 -0.00000000000000799 0.00000000000000000 0.00000000000000044 1.00000000000000000 0.00000000000000000 1.00000000000000000 -0.00000000000000044 1.00000000000000000 -0.00000000000000000 -0.00000000000000000 2.00000000000000000
2 -17.99999999999999645 -18.00000000000000000 0.00000000000000799 0.00000000000000000 0.00000000000000044 1.00000000000000000 0.00000000000000000 -1.00000000000000000 0.00000000000000044 -1.00000000000000000 -0.00000000000000000 0.00000000000000000 2.00000000000000000
2 18.00000000000000355 -18.00000000000000000 0.00000000000000799 0.00000000000000000 0.00000000000000044 1.00000000000000000 1.00000000000000000 0.00000000000000000 -0.00000000000000000 0.00000000000000000 -1.00000000000000000 0.00000000000000044 2.00000000000000000
1 -18.41250000000000142 -18.41250000000000497 0.00000000000000818 -1.00000000000000000 0.00000000000000000 0.00000000000000000 0.00000000000000000 1.00000000000000000 -0.00000000000000044 -0.00000000000000000 -0.00000000000000044 -1.00000000000000000 
1 18.41250000000000142 -18.41250000000000142 0.00000000000000818 0.00000000000000010 -1.00000000000000000 0.00000000000000044 -1.00000000000000000 -0.00000000000000010 0.00000000000000000 0.00000000000000000 -0.00000000000000044 -1.00000000000000000 
1 -18.41250000000000142 18.41250000000000142 -0.00000000000000818 0.00000000000000000 1.00000000000000000 -0.00000000000000044 1.00000000000000000 0.00000000000000000 0.00000000000000000 0.00000000000000000 -0.00000000000000044 -1.00000000000000000 
1 18.41250000000000142 18.41250000000000142 -0.00000000000000818 1.00000000000000000 0.00000000000000000 -0.00000000000000000 0.00000000000000000 -1.00000000000000000 0.00000000000000044 0.00000000000000000 -0.00000000000000044 -1.00000000000000000 
1 -19.99999999999999645 20.00000000000000000 -0.00000000000000888 0.00000000000000000 1.00000000000000000 -0.00000000000000044 1.00000000000000000 0.00000000000000000 0.00000000000000000 0.00000000000000000 -0.00000000000000044 -1.00000000000000000 
1 -19.99999999999999645 -20.00000000000000000 0.00000000000000888 -1.00000000000000000 0.00000000000000000 0.00000000000000000 0.00000000000000000 1.00000000000000000 -0.00000000000000044 -0.00000000000000000 -0.00000000000000044 -1.00000000000000000 
1 20.00000000000000355 20.00000000000000000 -0.00000000000000888 1.00000000000000000 0.00000000000000000 -0.00000000000000000 0.00000000000000000 -1.00000000000000000 0.00000000000000044 0.00000000000000000 -0.00000000000000044 -1.00000000000000000 
1 20.00000000000000355 -20.00000000000000000 0.00000000000000888 0.00000000000000000 -1.00000000000000000 0.00000000000000044 -1.00000000000000000 0.00000000000000000 0.00000000000000000 -0.00000000000000000 -0.00000000000000044 -1.00000000000000000 
Triangulations 0

TShapes 120
Ve
0.000000100000000
-18.412500000000001 -17.412500000000001 0.000000000000008
0 0

0101101
*
Ve
0.000000100000000
-18.412500000000001 17.412500000000001 -0.000000000000008
0 0

0101101
*
Ed
 0.000000100000000 1 1 0
1  1 0 1.000000000000004 35.825000000000003
0

0101000
+120 10 -119 10 *
Ve
0.000000100000000
-17.412500000000001 -18.412500000000001 0.000000000000008
0 0

0101101
*
Ed
 0.000000100000000 1 1 0
1  2 0 4.712388980384690 6.283185307179586
2  1 2 0 4.712388980384690 6.283185307179586
2  2 1 5 4.712388980384690 6.283185307179586
0

0101000
+120 0 -117 0 *
Ve
0.000000100000000
-17.412500000000001 18.412500000000001 -0.000000000000008
0 0

0101101
*
Ed
 0.000000100000000 1 1 0
1  3 0 1.570796326794897 3.141592653589793
2  3 3 0 1.570796326794897 3.141592653589793
2  4 1 5 1.570796326794897 3.141592653589793
0

0101000
+119 0 -115 0 *
Ve
0.000000100000000
17.412500000000001 -18.412500000000001 0.000000000000008
0 0

0101101
*
Ed
 0.000000100000000 1 1 0
1  4 0 1.000000000000000 35.825000000000003
0

0101000
+113 10 -117 10 *
Ve
0.000000100000000
17.412500000000001 18.412500000000001 -0.000000000000008
0 0

0101101
*
Ed
 0.000000100000000 1 1 0
1  5 0 1.000000000000000 35.825000000000003
0

0101000
+115 10 -111 10 *
Ve
0.000000100000000
18.412500000000001 -17.412500000000001 0.000000000000008
0 0

0101101
*
Ed
 0.000000100000000 1 1 0
1  6 0 0.000000000000000 1.570796326794897
2  5 4 0 0.000000000000000 1.570796326794897
2  6 1 5 0.000000000000000 1.570796326794897
0

0101000
+113 0 -109 0 *
Ve
0.000000100000000
18.412500000000001 17.412500000000001 -0.000000000000008
0 0

0101101
*
Ed
 0.000000100000000 1 1 0
1  7 0 1.570796326794897 3.141592653589793
2  7 5 0 1.570796326794897 3.141592653589793
2  8 1 5 1.570796326794897 3.141592653589793
0

0101000
+107 0 -111 0 *
Ed
 0.000000100000000 1 1 0
1  8 0 1.000000000000000 35.825000000000003
0

0101000
+107 10 -109 10 *
Wi

0101100
-118 9 +116 0 -114 0 -112 9 -110 9 +108 0 +106 0 -105 9 *
Ve
0.000000100000000
-17.999999999999996 20.000000000000000 -0.000000000000009
0 0

0101101
*
Ve
0.000000100000000
18.000000000000004 20.000000000000000 -0.000000000000009
0 0

0101101
*
Ed
 0.000000100000000 1 1 0
1  9 0 2.000000000000000 38.000000000000000
0

0101000
+103 13 -102 13 *
Ve
0.000000100000000
-19.999999999999996 18.000000000000000 -0.000000000000008
0 0

0101101
*
Ed
 0.000000100000000 1 1 0
1  10 0 3.141592653589793 4.712388980384690
2  9 6 0 3.141592653589793 4.712388980384690
2  10 1 14 3.141592653589793 4.712388980384690
0

0101000
+103 0 -100 0 *
Ve
0.000000100000000
20.000000000000004 18.000000000000000 -0.000000000000008
0 0

0101101
*
Ed
 0.000000100000000 1 1 0
1  11 0 3.141592653589793 4.712388980384690
2  11 7 0 3.141592653589793 4.712388980384690
2  12 1 14 3.141592653589793 4.712388980384690
0

0101000
+102 0 -98 0 *
Ve
0.000000100000000
-19.999999999999996 -18.000000000000000 0.000000000000008
0 0

0101101
*
Ed
 0.000000100000000 1 1 0
1  12 0 2.000000000000000 38.000000000000000
0

0101000
+96 13 -100 13 *
Ve
0.000000100000000
20.000000000000004 -18.000000000000000 0.000000000000008
0 0

0101101
*
Ed
 0.000000100000000 1 1 0
1  13 0 2.000000000000000 38.000000000000000
0

0101000
+98 13 -94 13 *
Ve
0.000000100000000
-17.999999999999996 -20.000000000000000 0.000000000000009
0 0

0101101
*
Ed
 0.000000100000000 1 1 0
1  14 0 0.000000000000000 1.570796326794897
2  13 8 0 0.000000000000000 1.570796326794897
2  14 1 14 0.000000000000000 1.570796326794897
0

0101000
+92 0 -96 0 *
Ve
0.000000100000000
18.000000000000004 -20.000000000000000 0.000000000000009
0 0

0101101
*
Ed
 0.000000100000000 1 1 0
1  15 0 4.712388980384690 6.283185307179586
2  15 9 0 4.712388980384690 6.283185307179586
2  16 1 14 4.712388980384690 6.283185307179586
0

0101000
+94 0 -90 0 *
Ed
 0.000000100000000 1 1 0
1  16 0 2.000000000000000 38.000000000000000
0

0101000
+90 13 -92 13 *
Wi

0101100
+101 12 -99 0 +97 0 +95 12 +93 12 +91 0 +89 0 +88 12 *
Fa
0  0.000000100000000 1 0

0111000
+104 6 +87 11 *
Ve
0.000000100000000
-18.412500000000001 -17.412499999999998 10.000000000000007
0 0

0101101
*
Ed
 0.000000100000000 1 1 0
1  17 0 -0.000000000000000 10.000000000000002
2  17 2 0 -0.000000000000000 10.000000000000002
2  18 10 15 -0.000000000000000 10.000000000000002
4 G1 2 0 10 15
0

0101000
+120 0 -85 0 *
Ve
0.000000100000000
-18.412500000000001 17.412500000000005 9.999999999999993
0 0

0101101
*
Ed
 0.000000100000000 1 1 0
1  18 0 -0.000000000000000 10.000000000000000
2  19 3 0 -0.000000000000000 10.000000000000000
2  20 10 15 -0.000000000000000 10.000000000000000
4 G1 3 0 10 15
0

0101000
+119 0 -83 0 *
Ed
 0.000000100000000 1 1 0
1  1 0 1.000000000000004 35.825000000000003
0

0101000
+85 19 -83 19 *
Wi

0101100
-118 9 +84 0 -82 0 +81 18 *
Fa
0  0.000000100000000 10 0

0101000
+80 16 *
Ve
0.000000100000000
-17.412500000000001 -18.412499999999998 10.000000000000007
0 0

0101101
*
Ed
 0.000000100000000 1 1 0
1  19 0 -0.000000000000000 10.000000000000000
2  21 2 0 -0.000000000000000 10.000000000000000
2  22 11 15 -0.000000000000000 10.000000000000000
4 G1 2 0 11 15
0

0101000
+117 0 -78 0 *
Ed
 0.000000100000000 1 1 0
1  20 0 4.712388980384690 6.283185307179586
2  23 2 0 4.712388980384690 6.283185307179586
2  24 1 20 4.712388980384690 6.283185307179586
0

0101000
+85 0 -78 0 *
Wi

0101100
+116 0 -84 0 +77 0 -76 0 *
Fa
0  0.000000000000000 2 0

0101000
+75 0 *
Ve
0.000000100000000
-17.412500000000001 18.412500000000005 9.999999999999993
0 0

0101101
*
Ed
 0.000000100000000 1 1 0
1  21 0 -0.000000000000000 10.000000000000000
2  25 3 0 -0.000000000000000 10.000000000000000
2  26 12 15 -0.000000000000000 10.000000000000000
4 G1 3 0 12 15
0

0101000
+115 0 -73 0 *
Ed
 0.000000100000000 1 1 0
1  22 0 1.570796326794893 3.141592653589793
2  27 3 0 1.570796326794893 3.141592653589793
2  28 1 20 1.570796326794893 3.141592653589793
0

0101000
+83 0 -73 0 *
Wi

0101100
+114 0 -82 0 +72 0 -71 0 *
Fa
0  0.000000000000000 3 0

0101000
+70 0 *
Ve
0.000000100000000
17.412500000000001 -18.412499999999998 10.000000000000007
0 0

0101101
*
Ed
 0.000000100000000 1 1 0
1  23 0 -0.000000000000000 10.000000000000000
2  29 4 0 -0.000000000000000 10.000000000000000
2  30 11 15 -0.000000000000000 10.000000000000000
4 G1 4 0 11 15
0

0101000
+113 0 -68 0 *
Ed
 0.000000100000000 1 1 0
1  4 0 1.000000000000000 35.825000000000003
0

0101000
+68 19 -78 19 *
Wi

0101100
-112 9 +67 0 -77 0 +66 18 *
Fa
0  0.000000100000000 11 0

0101000
+65 16 *
Ve
0.000000100000000
17.412500000000001 18.412500000000005 9.999999999999993
0 0

0101101
*
Ed
 0.000000100000000 1 1 0
1  24 0 -0.000000000000000 10.000000000000000
2  31 5 0 -0.000000000000000 10.000000000000000
2  32 12 15 -0.000000000000000 10.000000000000000
4 G1 5 0 12 15
0

0101000
+111 0 -63 0 *
Ed
 0.000000100000000 1 1 0
1  5 0 1.000000000000000 35.825000000000003
0

0101000
+73 19 -63 19 *
Wi

0101100
-110 9 +72 0 -62 0 +61 18 *
Fa
0  0.000000100000000 12 0

0101000
+60 16 *
Ve
0.000000100000000
18.412500000000001 -17.412499999999998 10.000000000000007
0 0

0101101
*
Ed
 0.000000100000000 1 1 0
1  25 0 -0.000000000000000 10.000000000000000
2  33 4 0 -0.000000000000000 10.000000000000000
2  34 13 15 -0.000000000000000 10.000000000000000
4 G1 4 0 13 15
0

0101000
+109 0 -58 0 *
Ed
 0.000000100000000 1 1 0
1  26 0 0.000000000000000 1.570796326794897
2  35 4 0 0.000000000000000 1.570796326794897
2  36 1 20 0.000000000000000 1.570796326794897
0

0101000
+68 0 -58 0 *
Wi

0101100
+108 0 -67 0 +57 0 -56 0 *
Fa
0  0.000000000000000 4 0

0101000
+55 0 *
Ve
0.000000100000000
18.412500000000001 17.412500000000005 9.999999999999993
0 0

0101101
*
Ed
 0.000000100000000 1 1 0
1  27 0 -0.000000000000000 9.999999999999998
2  37 5 0 -0.000000000000000 9.999999999999998
2  38 13 15 -0.000000000000000 9.999999999999998
4 G1 5 0 13 15
0

0101000
+107 0 -53 0 *
Ed
 0.000000100000000 1 1 0
1  28 0 1.570796326794897 3.141592653589793
2  39 5 0 1.570796326794897 3.141592653589793
2  40 1 20 1.570796326794897 3.141592653589793
0

0101000
+53 0 -63 0 *
Wi

0101100
+106 0 -52 0 +62 0 -51 0 *
Fa
0  0.000000000000000 5 0

0101000
+50 0 *
Ed
 0.000000100000000 1 1 0
1  8 0 0.999999999999999 35.825000000000003
0

0101000
+53 19 -58 19 *
Wi

0101100
-105 9 +52 0 -57 0 +48 18 *
Fa
0  0.000000100000000 13 0

0101000
+47 16 *
Ve
0.000000100000000
-17.999999999999996 20.000000000000004 9.999999999999993
0 0

0101101
*
Ed
 0.000000100000000 1 1 0
1  29 0 -0.000000000000000 10.000000000000000
2  41 6 0 -0.000000000000000 10.000000000000000
2  42 14 3 -0.000000000000000 10.000000000000000
4 G1 6 0 14 3
0

0101000
+103 0 -45 0 *
Ve
0.000000100000000
18.000000000000004 20.000000000000004 9.999999999999993
0 0

0101101
*
Ed
 0.000000100000000 1 1 0
1  30 0 -0.000000000000000 10.000000000000000
2  43 7 0 -0.000000000000000 10.000000000000000
2  44 14 3 -0.000000000000000 10.000000000000000
4 G1 7 0 14 3
0

0101000
+102 0 -43 0 *
Ed
 0.000000100000000 1 1 0
1  9 0 2.000000000000000 38.000000000000000
0

0101000
+45 23 -43 23 *
Wi

0101100
-101 12 +44 0 -42 0 +41 22 *
Fa
0  0.000000100000000 14 0

0111000
+40 21 *
Ve
0.000000100000000
-19.999999999999996 18.000000000000004 9.999999999999993
0 0

0101101
*
Ed
 0.000000100000000 1 1 0
1  31 0 -0.000000000000000 10.000000000000000
2  45 6 0 -0.000000000000000 10.000000000000000
2  46 15 3 -0.000000000000000 10.000000000000000
4 G1 6 0 15 3
0

0101000
+100 0 -38 0 *
Ed
 0.000000100000000 1 1 0
1  32 0 3.141592653589793 4.712388980384690
2  47 6 0 3.141592653589793 4.712388980384690
2  48 1 24 3.141592653589793 4.712388980384690
0

0101000
+45 0 -38 0 *
Wi

0101100
+99 0 -44 0 +37 0 -36 0 *
Fa
0  0.000000000000000 6 0

0111000
+35 0 *
Ve
0.000000100000000
20.000000000000004 18.000000000000004 9.999999999999993
0 0

0101101
*
Ed
 0.000000100000000 1 1 0
1  33 0 -0.000000000000000 10.000000000000000
2  49 7 0 -0.000000000000000 10.000000000000000
2  50 16 3 -0.000000000000000 10.000000000000000
4 G1 7 0 16 3
0

0101000
+98 0 -33 0 *
Ed
 0.000000100000000 1 1 0
1  34 0 3.141592653589793 4.712388980384690
2  51 7 0 3.141592653589793 4.712388980384690
2  52 1 24 3.141592653589793 4.712388980384690
0

0101000
+43 0 -33 0 *
Wi

0101100
+97 0 -42 0 +32 0 -31 0 *
Fa
0  0.000000000000000 7 0

0111000
+30 0 *
Ve
0.000000100000000
-19.999999999999996 -17.999999999999996 10.000000000000007
0 0

0101101
*
Ed
 0.000000100000000 1 1 0
1  35 0 -0.000000000000000 10.000000000000000
2  53 8 0 -0.000000000000000 10.000000000000000
2  54 15 3 -0.000000000000000 10.000000000000000
4 G1 8 0 15 3
0

0101000
+96 0 -28 0 *
Ed
 0.000000100000000 1 1 0
1  12 0 2.000000000000001 38.000000000000000
0

0101000
+28 23 -38 23 *
Wi

0101100
-95 12 +27 0 -37 0 +26 22 *
Fa
0  0.000000100000000 15 0

0111000
+25 21 *
Ve
0.000000100000000
20.000000000000004 -17.999999999999996 10.000000000000007
0 0

0101101
*
Ed
 0.000000100000000 1 1 0
1  36 0 -0.000000000000000 10.000000000000000
2  55 9 0 -0.000000000000000 10.000000000000000
2  56 16 3 -0.000000000000000 10.000000000000000
4 G1 9 0 16 3
0

0101000
+94 0 -23 0 *
Ed
 0.000000100000000 1 1 0
1  13 0 1.999999999999999 38.000000000000000
0

0101000
+33 23 -23 23 *
Wi

0101100
-93 12 +32 0 -22 0 +21 22 *
Fa
0  0.000000100000000 16 0

0111000
+20 21 *
Ve
0.000000100000000
-17.999999999999996 -19.999999999999996 10.000000000000007
0 0

0101101
*
Ed
 0.000000100000000 1 1 0
1  37 0 -0.000000000000000 10.000000000000000
2  57 8 0 -0.000000000000000 10.000000000000000
2  58 17 3 -0.000000000000000 10.000000000000000
4 G1 8 0 17 3
0

0101000
+92 0 -18 0 *
Ed
 0.000000100000000 1 1 0
1  38 0 0.000000000000000 1.570796326794897
2  59 8 0 0.000000000000000 1.570796326794897
2  60 1 24 0.000000000000000 1.570796326794897
0

0101000
+18 0 -28 0 *
Wi

0101100
+91 0 -17 0 +27 0 -16 0 *
Fa
0  0.000000000000000 8 0

0111000
+15 0 *
Ve
0.000000100000000
18.000000000000004 -19.999999999999996 10.000000000000007
0 0

0101101
*
Ed
 0.000000100000000 1 1 0
1  39 0 -0.000000000000000 10.000000000000000
2  61 9 0 -0.000000000000000 10.000000000000000
2  62 17 3 -0.000000000000000 10.000000000000000
4 G1 9 0 17 3
0

0101000
+90 0 -13 0 *
Ed
 0.000000100000000 1 1 0
1  40 0 4.712388980384690 6.283185307179586
2  63 9 0 4.712388980384690 6.283185307179586
2  64 1 24 4.712388980384690 6.283185307179586
0

0101000
+23 0 -13 0 *
Wi

0101100
+89 0 -22 0 +12 0 -11 0 *
Fa
0  0.000000000000000 9 0

0111000
+10 0 *
Ed
 0.000000100000000 1 1 0
1  16 0 2.000000000000000 38.000000000000000
0

0101000
+13 23 -18 23 *
Wi

0101100
-88 12 +12 0 -17 0 +8 22 *
Fa
0  0.000000100000000 17 0

0111000
+7 21 *
Wi

0101100
-81 18 +76 0 -71 0 -66 18 -61 18 +56 0 +51 0 -48 18 *
Wi

0101100
+41 22 -36 0 +31 0 +26 22 +21 22 +16 0 +11 0 +8 22 *
Fa
0  0.000000100000000 1 0

0101000
+5 25 +4 26 *
Sh

0101100
+86 5 -79 15 -74 0 +69 0 -64 15 -59 15 -54 0 -49 0 -46 15 +39 15 
+34 4 -29 4 +24 15 +19 15 -14 4 -9 4 +6 15 -3 20 *
So

0100000
+2 0 *

+1 1 