
CASCADE Topology V1, (c) Matra-Datavision
Locations 17
1
1.000000000000000 0.000000000000000 0.000000000000000 0.000000000000000 
0.000000000000000 1.000000000000000 0.000000000000000 0.000000000000000 
0.000000000000000 0.000000000000000 1.000000000000000 0.000000000000000 
1
1.000000000000000 0.000000000000000 0.000000000000000 0.000000000000000 
0.000000000000000 1.000000000000000 0.000000000000000 0.000000000000000 
0.000000000000000 0.000000000000000 1.000000000000000 0.000000000000000 
2  2 -1 0
1
1.000000000000000 0.000000000000000 0.000000000000000 0.000000000000000 
0.000000000000000 1.000000000000000 0.000000000000000 0.000000000000000 
0.000000000000000 0.000000000000000 1.000000000000000 0.000000000000000 
1
1.000000000000000 0.000000000000000 0.000000000000000 0.000000000000000 
0.000000000000000 0.000000000000000 -1.000000000000000 0.000000000000000 
0.000000000000000 1.000000000000000 0.000000000000000 0.000000000000000 
1
1.000000000000000 0.000000000000000 0.000000000000000 0.000000000000000 
0.000000000000000 -0.000000000000000 -1.000000000000000 0.000000000000000 
0.000000000000000 1.000000000000000 -0.000000000000000 0.000000000000000 
2  4 1 5 1 6 -1 2 1 0
1
1.000000000000000 0.000000000000000 0.000000000000000 0.000000000000000 
0.000000000000000 0.000000000000000 -1.000000000000000 0.000000000000000 
0.000000000000000 1.000000000000000 0.000000000000000 0.000000000000000 
2  8 -1 2 -1 6 1 5 -1 4 -1 0
2  8 -1 0
1
1.000000000000000 0.000000000000000 0.000000000000000 0.000000000000000 
0.000000000000000 1.000000000000000 0.000000000000000 0.000000000000004 
0.000000000000000 0.000000000000000 1.000000000000000 10.000000000000000 
2  4 1 5 1 6 -1 11 1 2 1 0
2  8 -1 2 -1 11 -1 6 1 5 -1 4 -1 0
2  6 -1 2 1 0
2  2 -1 6 1 0
2  6 -1 11 1 2 1 0
2  2 -1 11 -1 6 1 0
Curve2ds 24
8 0.00000000000000000 9.99999999999999822
1 0.00000000000000000 0.00000000000000000 0.00000000000000000 1.00000000000000000 
8 0.00000000000000000 9.99999999999999822
1 0.00000000000000000 0.00000000000000000 0.00000000000000000 1.00000000000000000 
8 0.00000000000000000 1.57079632679489611
1 0.00000000000000000 -0.00000000000000000 1.00000000000000000 0.00000000000000000 
8 -0.00000000000000089 1.57079632679489656
1 0.00000000000000089 0.00000000000000000 1.00000000000000000 0.00000000000000000 
8 3.14159265358979312 4.71238898038468967
1 -3.14159265358979312 -0.00000000000000000 1.00000000000000000 0.00000000000000000 
8 1.57079632679489656 3.14159265358979312
1 -1.57079632679489656 0.00000000000000000 1.00000000000000000 0.00000000000000000 
8 4.71238898038468879 6.28318530717958623
1 -4.71238898038468879 0.00000000000000000 1.00000000000000000 0.00000000000000000 
8 3.14159265358979312 4.71238898038468967
1 -3.14159265358979312 0.00000000000000000 1.00000000000000000 0.00000000000000000 
8 0.00000000000000000 9.99999999999999822
1 1.57079632679489656 0.00000000000000000 0.00000000000000000 1.00000000000000000 
8 0.00000000000000000 1.57079632679489634
1 0.00000000000000000 9.99999999999999822 1.00000000000000000 0.00000000000000000 
8 0.00000000000000000 9.99999999999999822
1 1.57079632679489656 0.00000000000000000 0.00000000000000000 1.00000000000000000 
8 -0.00000000000000089 1.57079632679489656
1 0.00000000000000089 9.99999999999999822 1.00000000000000000 0.00000000000000000 
8 3.14159265358979312 4.71238898038468967
1 -3.14159265358979312 9.99999999999999822 1.00000000000000000 0.00000000000000000 
8 1.57079632679489656 3.14159265358979312
1 -1.57079632679489656 9.99999999999999822 1.00000000000000000 0.00000000000000000 
8 4.71238898038468879 6.28318530717958623
1 -4.71238898038468879 9.99999999999999822 1.00000000000000000 0.00000000000000000 
8 3.14159265358979312 4.71238898038468967
1 -3.14159265358979312 9.99999999999999822 1.00000000000000000 0.00000000000000000 
8 0.00000000000000000 9.99999999999999822
1 1.57079632679489656 0.00000000000000000 0.00000000000000000 1.00000000000000000 
8 0.00000000000000000 9.99999999999999822
1 0.00000000000000000 0.00000000000000000 0.00000000000000000 1.00000000000000000 
8 0.00000000000000000 9.99999999999999822
1 0.00000000000000000 0.00000000000000000 0.00000000000000000 1.00000000000000000 
8 0.00000000000000000 9.99999999999999822
1 1.57079632679489656 0.00000000000000000 0.00000000000000000 1.00000000000000000 
8 0.00000000000000000 9.99999999999999822
1 1.57079632679489656 0.00000000000000000 0.00000000000000000 1.00000000000000000 
8 0.00000000000000000 9.99999999999999822
1 0.00000000000000000 0.00000000000000000 0.00000000000000000 1.00000000000000000 
8 0.00000000000000000 9.99999999999999822
1 0.00000000000000000 0.00000000000000000 0.00000000000000000 1.00000000000000000 
8 0.00000000000000000 9.99999999999999822
1 1.57079632679489656 0.00000000000000000 0.00000000000000000 1.00000000000000000 
Curves 36
1 25.39999999999999503 0.00000000000000000 0.00000000000000000 -1.00000000000000000 0.00000000000000000 0.00000000000000000 
1 24.39999999999999503 -0.00000000000000000 -0.00000000000000022 0.00000000000000000 -1.00000000000000000 0.00000000000000067 
1 0.99999999999999967 -0.00000000000000000 -0.00000000000000022 0.00000000000000000 -1.00000000000000000 0.00000000000000067 
1 25.39999999999999503 -9.99999999999999822 -9.99999999999999822 -1.00000000000000000 0.00000000000000000 0.00000000000000000 
8 0.00000000000000000 1.57079632679489611
2 24.39999999999999503 0.00000000000000067 0.99999999999999967 0.00000000000000000 -1.00000000000000000 0.00000000000000067 0.00000000000000000 -0.00000000000000067 -1.00000000000000000 1.00000000000000000 0.00000000000000000 0.00000000000000000 0.99999999999999989
8 -0.00000000000000089 1.57079632679489656
2 0.99999999999999967 0.00000000000000067 0.99999999999999967 0.00000000000000000 1.00000000000000000 -0.00000000000000067 0.00000000000000000 -0.00000000000000067 -1.00000000000000000 -1.00000000000000000 0.00000000000000000 0.00000000000000000 0.99999999999999989
1 25.39999999999999503 0.00000000000000070 3.17500000001151284 0.00000000000000000 -0.00000000000000022 -1.00000000000000000 
1 0.00000000000000000 0.00000000000000000 0.00000000000000000 0.00000000000000000 0.00000000000000022 1.00000000000000000 
8 3.14159265358979312 4.71238898038468967
2 24.39999999999999503 0.00000000000000145 2.17500000001151284 0.00000000000000000 1.00000000000000000 -0.00000000000000067 0.00000000000000000 -0.00000000000000067 -1.00000000000000000 -1.00000000000000000 0.00000000000000000 0.00000000000000000 0.99999999999999989
8 1.57079632679489656 3.14159265358979312
2 0.99999999999999967 0.00000000000001625 24.39999999999999503 0.00000000000000000 1.00000000000000000 -0.00000000000000067 0.00000000000000000 -0.00000000000000067 -1.00000000000000000 -1.00000000000000000 0.00000000000000000 0.00000000000000000 0.99999999999999989
1 3.17499999999999938 0.00000000000000070 3.17500000001151284 1.00000000000000000 0.00000000000000000 0.00000000000000000 
1 0.00000000000000000 0.00000000000000564 25.39999999999999503 1.00000000000000000 0.00000000000000000 0.00000000000000000 
8 4.71238898038468879 6.28318530717958623
2 4.17499999999999893 0.00000000000000278 4.17500000001151328 0.00000000000000000 -1.00000000000000000 0.00000000000000067 0.00000000000000000 -0.00000000000000067 -1.00000000000000000 1.00000000000000000 0.00000000000000000 0.00000000000000000 0.99999999999999989
8 3.14159265358979312 4.71238898038468967
2 2.17499999999999938 0.00000000000001625 24.39999999999999503 0.00000000000000000 1.00000000000000000 -0.00000000000000067 0.00000000000000000 -0.00000000000000067 -1.00000000000000000 -1.00000000000000000 0.00000000000000000 0.00000000000000000 0.99999999999999989
1 3.17499999999999938 0.00000000000000564 25.39999999999999503 0.00000000000000000 -0.00000000000000022 -1.00000000000000000 
1 25.39999999999999503 0.00000000000000067 0.99999999999999956 0.00000000000000000 -1.00000000000000000 0.00000000000000067 
8 0.00000000000000000 1.57079632679489634
2 24.39999999999999503 -9.99999999999999822 1.00000000000000622 0.00000000000000000 -1.00000000000000000 0.00000000000000067 0.00000000000000000 -0.00000000000000067 -1.00000000000000000 1.00000000000000000 0.00000000000000000 0.00000000000000000 0.99999999999999989
1 -0.00000000000000022 0.00000000000000067 0.99999999999999956 0.00000000000000000 -1.00000000000000000 0.00000000000000067 
8 -0.00000000000000089 1.57079632679489656
2 0.99999999999999967 -9.99999999999999822 1.00000000000000622 0.00000000000000000 1.00000000000000000 -0.00000000000000067 0.00000000000000000 -0.00000000000000067 -1.00000000000000000 -1.00000000000000000 0.00000000000000000 0.00000000000000000 0.99999999999999989
1 25.39999999999999503 -9.99999999999999822 -6.82499999998848494 0.00000000000000000 -0.00000000000000022 -1.00000000000000000 
1 0.00000000000000000 -9.99999999999999822 -9.99999999999999822 0.00000000000000000 0.00000000000000022 1.00000000000000000 
8 3.14159265358979312 4.71238898038468967
2 24.39999999999999503 -9.99999999999999645 2.17500000001151950 0.00000000000000000 1.00000000000000000 -0.00000000000000067 0.00000000000000000 -0.00000000000000067 -1.00000000000000000 -1.00000000000000000 0.00000000000000000 0.00000000000000000 0.99999999999999989
8 1.57079632679489656 3.14159265358979312
2 0.99999999999999967 -9.99999999999998224 24.40000000000000213 0.00000000000000000 1.00000000000000000 -0.00000000000000067 0.00000000000000000 -0.00000000000000067 -1.00000000000000000 -1.00000000000000000 0.00000000000000000 0.00000000000000000 0.99999999999999989
1 3.17499999999999938 -9.99999999999999822 -6.82499999998848494 1.00000000000000000 0.00000000000000000 0.00000000000000000 
1 0.00000000000000000 -9.99999999999999289 15.39999999999999680 1.00000000000000000 0.00000000000000000 0.00000000000000000 
8 4.71238898038468879 6.28318530717958623
2 4.17499999999999893 -9.99999999999999467 4.17500000001151950 0.00000000000000000 -1.00000000000000000 0.00000000000000067 0.00000000000000000 -0.00000000000000067 -1.00000000000000000 1.00000000000000000 0.00000000000000000 0.00000000000000000 0.99999999999999989
8 3.14159265358979312 4.71238898038468967
2 2.17499999999999938 -9.99999999999998224 24.40000000000000213 0.00000000000000000 1.00000000000000000 -0.00000000000000067 0.00000000000000000 -0.00000000000000067 -1.00000000000000000 -1.00000000000000000 0.00000000000000000 0.00000000000000000 0.99999999999999989
1 3.17499999999999938 -9.99999999999999289 15.39999999999999680 0.00000000000000000 -0.00000000000000022 -1.00000000000000000 
1 25.39999999999999503 0.00000000000000145 2.17500000001151284 0.00000000000000000 -1.00000000000000000 0.00000000000000067 
1 -0.00000000000000022 0.00000000000001625 24.39999999999999503 0.00000000000000000 -1.00000000000000000 0.00000000000000067 
1 24.39999999999999503 0.00000000000000211 3.17500000001151284 0.00000000000000000 -1.00000000000000000 0.00000000000000067 
1 0.99999999999999956 0.00000000000001692 25.39999999999999503 0.00000000000000000 -1.00000000000000000 0.00000000000000067 
1 4.17499999999999893 0.00000000000000211 3.17500000001151372 0.00000000000000000 -1.00000000000000000 0.00000000000000067 
1 2.17499999999999938 0.00000000000001692 25.39999999999999503 0.00000000000000000 -1.00000000000000000 0.00000000000000067 
1 3.17499999999999938 0.00000000000000278 4.17500000001151328 0.00000000000000000 -1.00000000000000000 0.00000000000000067 
1 3.17499999999999938 0.00000000000001625 24.39999999999999503 0.00000000000000000 -1.00000000000000000 0.00000000000000067 
Polygon3D 0
PolygonOnTriangulations 0
Surfaces 14
1 25.39999999999999503 0.00000000000000000 0.00000000000000000 0.00000000000000000 -0.00000000000000067 -1.00000000000000000 -1.00000000000000000 0.00000000000000000 0.00000000000000000 -0.00000000000000000 1.00000000000000000 -0.00000000000000067 
2 24.39999999999999503 0.00000000000000067 0.99999999999999967 0.00000000000000000 -1.00000000000000000 0.00000000000000067 0.00000000000000000 -0.00000000000000067 -1.00000000000000000 1.00000000000000000 0.00000000000000000 0.00000000000000000 0.99999999999999989
2 0.99999999999999967 0.00000000000000067 0.99999999999999967 0.00000000000000000 -1.00000000000000000 0.00000000000000067 0.00000000000000000 -0.00000000000000067 -1.00000000000000000 -1.00000000000000000 -0.00000000000000000 0.00000000000000000 0.99999999999999989
1 7.83828125000251674 -7.83828125000251674 0.00000000000000348 -0.00000000000000000 0.00000000000000044 1.00000000000000000 0.00000000000000000 -1.00000000000000000 0.00000000000000044 1.00000000000000000 0.00000000000000000 0.00000000000000000 
2 24.39999999999999503 0.00000000000000145 2.17500000001151284 0.00000000000000000 -1.00000000000000000 0.00000000000000067 0.00000000000000000 0.00000000000000067 1.00000000000000000 1.00000000000000000 0.00000000000000000 0.00000000000000000 0.99999999999999989
2 0.99999999999999967 0.00000000000001625 24.39999999999999503 0.00000000000000000 -1.00000000000000000 0.00000000000000067 -1.00000000000000000 0.00000000000000000 0.00000000000000000 0.00000000000000000 0.00000000000000067 1.00000000000000000 0.99999999999999989
2 4.17499999999999893 0.00000000000000278 4.17500000001151328 0.00000000000000000 -1.00000000000000000 0.00000000000000067 -1.00000000000000000 0.00000000000000000 0.00000000000000000 0.00000000000000000 -0.00000000000000067 -1.00000000000000000 0.99999999999999989
2 2.17499999999999938 0.00000000000001625 24.39999999999999503 0.00000000000000000 -1.00000000000000000 0.00000000000000067 0.00000000000000000 0.00000000000000067 1.00000000000000000 1.00000000000000000 0.00000000000000000 0.00000000000000000 0.99999999999999989
1 25.39999999999999503 0.00000000000000211 3.17500000001151284 1.00000000000000000 0.00000000000000000 0.00000000000000000 0.00000000000000000 -0.00000000000000067 -1.00000000000000000 0.00000000000000000 1.00000000000000000 -0.00000000000000067 
1 0.00000000000000000 0.00000000000000000 0.00000000000000000 -1.00000000000000000 0.00000000000000000 0.00000000000000000 0.00000000000000000 0.00000000000000067 1.00000000000000000 -0.00000000000000000 1.00000000000000000 -0.00000000000000067 
1 7.83828125000251674 2.16171874999747970 -9.99999999999999645 -0.00000000000000000 0.00000000000000044 1.00000000000000000 0.00000000000000000 -1.00000000000000000 0.00000000000000044 1.00000000000000000 0.00000000000000000 0.00000000000000000 
1 3.17499999999999938 0.00000000000000211 3.17500000001151284 0.00000000000000000 0.00000000000000067 1.00000000000000000 1.00000000000000000 0.00000000000000000 0.00000000000000000 0.00000000000000000 1.00000000000000000 -0.00000000000000067 
1 0.00000000000000000 0.00000000000001692 25.39999999999999503 0.00000000000000000 0.00000000000000067 1.00000000000000000 1.00000000000000000 0.00000000000000000 0.00000000000000000 0.00000000000000000 1.00000000000000000 -0.00000000000000067 
1 3.17499999999999938 0.00000000000001692 25.39999999999999503 1.00000000000000000 0.00000000000000000 0.00000000000000000 0.00000000000000000 -0.00000000000000067 -1.00000000000000000 0.00000000000000000 1.00000000000000000 -0.00000000000000067 
Triangulations 0

TShapes 90
Ve
0.000000100000000
24.399999999999991 0.000000000000000 -0.000000000000000
0 0

0101101
*
Ve
0.000000100000000
1.000000000000000 0.000000000000000 -0.000000000000000
0 0

0101101
*
Ed
 0.000000100000000 1 1 0
1  1 0 1.000000000000000 24.399999999999995
0

0101000
+90 9 -89 9 *
Ve
0.000000100000000
24.399999999999991 -0.000000000000009 -9.999999999999996
0 0

0101101
*
Ed
 0.000000100000000 1 1 0
1  2 0 -0.000000000000000 9.999999999999998
2  1 2 0 -0.000000000000000 9.999999999999998
4 G1 1 2 2 0
0

0101000
+90 10 -87 10 *
Ve
0.000000100000000
1.000000000000000 -0.000000000000009 -9.999999999999996
0 0

0101101
*
Ed
 0.000000100000000 1 1 0
1  3 0 -0.000000000000000 9.999999999999998
2  2 3 0 -0.000000000000000 9.999999999999998
4 G1 1 2 3 0
0

0101000
+89 10 -85 10 *
Ed
 0.000000100000000 1 1 0
1  4 0 1.000000000000000 24.399999999999995
0

0101000
+87 13 -85 13 *
Wi

0101100
-88 7 +86 0 -84 0 +83 12 *
Fa
0  0.000000100000000 1 0

0111000
+82 3 *
Ve
0.000000100000000
25.399999999999991 -0.999999999999999 0.000000000000001
0 0

0101101
*
Ed
 0.000000100000000 1 1 0
1  5 0 0.000000000000000 1.570796326794896
2  3 2 0 0.000000000000000 1.570796326794896
0

0101000
+90 10 -80 10 *
Ve
0.000000100000000
-0.000000000000000 -0.999999999999999 0.000000000000001
0 0

0101101
*
Ed
 0.000000100000000 1 1 0
1  6 0 -0.000000000000001 1.570796326794897
2  4 3 0 -0.000000000000001 1.570796326794897
0

0101000
+89 10 -78 10 *
Ve
0.000000100000000
25.399999999999991 -2.175000000011512 0.000000000000002
0 0

0101101
*
Ed
 0.000000100000000 1 1 0
1  7 0 1.000000000000000 2.175000000011513
0

0101000
+76 9 -80 9 *
Ve
0.000000100000000
-0.000000000000000 -24.399999999999991 0.000000000000022
0 0

0101101
*
Ed
 0.000000100000000 1 1 0
1  8 0 1.000000000000000 24.399999999999995
0

0101000
+78 9 -74 9 *
Ve
0.000000100000000
24.399999999999991 -3.175000000011512 0.000000000000003
0 0

0101101
*
Ed
 0.000000100000000 1 1 0
1  9 0 3.141592653589793 4.712388980384690
2  5 5 0 3.141592653589793 4.712388980384690
0

0101000
+72 10 -76 10 *
Ve
0.000000100000000
0.999999999999999 -25.399999999999991 0.000000000000023
0 0

0101101
*
Ed
 0.000000100000000 1 1 0
1  10 0 1.570796326794897 3.141592653589793
2  6 6 0 1.570796326794897 3.141592653589793
0

0101000
+74 10 -70 10 *
Ve
0.000000100000000
4.174999999999998 -3.175000000011513 0.000000000000003
0 0

0101101
*
Ed
 0.000000100000000 1 1 0
1  11 0 1.000000000000000 21.224999999999994
0

0101000
+68 9 -72 9 *
Ve
0.000000100000000
2.174999999999999 -25.399999999999991 0.000000000000023
0 0

0101101
*
Ed
 0.000000100000000 1 1 0
1  12 0 1.000000000000000 2.174999999999999
0

0101000
+70 9 -66 9 *
Ve
0.000000100000000
3.174999999999999 -4.175000000011512 0.000000000000004
0 0

0101101
*
Ed
 0.000000100000000 1 1 0
1  13 0 4.712388980384689 6.283185307179586
2  7 7 0 4.712388980384689 6.283185307179586
0

0101000
+64 10 -68 10 *
Ve
0.000000100000000
3.174999999999999 -24.399999999999991 0.000000000000022
0 0

0101101
*
Ed
 0.000000100000000 1 1 0
1  14 0 3.141592653589793 4.712388980384690
2  8 8 0 3.141592653589793 4.712388980384690
0

0101000
+66 10 -62 10 *
Ed
 0.000000100000000 1 1 0
1  15 0 1.000000000000000 21.224999999988480
0

0101000
+62 9 -64 9 *
Wi

0101100
+88 7 -79 0 +77 0 +75 7 +73 7 +71 0 +69 0 +67 7 +65 7 +63 0 
+61 0 +60 7 *
Fa
0  0.000000100000000 4 0

0111000
+59 15 *
Ve
0.000000100000000
25.399999999999991 -1.000000000000008 -9.999999999999996
0 0

0101101
*
Ed
 0.000000100000000 1 1 0
1  16 0 -0.000000000000000 9.999999999999998
2  9 2 0 -0.000000000000000 9.999999999999998
4 G1 2 0 9 2
0

0101000
+80 10 -57 10 *
Ed
 0.000000100000000 1 1 0
1  17 0 0.000000000000000 1.570796326794896
2  10 2 0 0.000000000000000 1.570796326794896
0

0101000
+87 10 -57 10 *
Wi

0101100
+79 0 -86 0 +56 0 -55 0 *
Fa
0  0.000000100000000 2 0

0111000
+54 0 *
Ve
0.000000100000000
-0.000000000000000 -1.000000000000008 -9.999999999999996
0 0

0101101
*
Ed
 0.000000100000000 1 1 0
1  18 0 -0.000000000000000 9.999999999999998
2  11 3 0 -0.000000000000000 9.999999999999998
4 G1 3 0 10 2
0

0101000
+78 10 -52 10 *
Ed
 0.000000100000000 1 1 0
1  19 0 -0.000000000000001 1.570796326794897
2  12 3 0 -0.000000000000001 1.570796326794897
0

0101000
+85 10 -52 10 *
Wi

0101100
+77 0 -84 0 +51 0 -50 0 *
Fa
0  0.000000100000000 3 0

0111000
+49 0 *
Ve
0.000000100000000
25.399999999999991 -2.175000000011521 -9.999999999999995
0 0

0101101
*
Ed
 0.000000100000000 1 1 0
1  20 0 1.000000000000000 2.175000000011513
0

0101000
+47 13 -57 13 *
Ve
0.000000100000000
-0.000000000000000 -24.400000000000002 -9.999999999999975
0 0

0101101
*
Ed
 0.000000100000000 1 1 0
1  21 0 1.000000000000000 24.399999999999995
0

0101000
+52 13 -45 13 *
Ve
0.000000100000000
24.399999999999991 -3.175000000011521 -9.999999999999995
0 0

0101101
*
Ed
 0.000000100000000 1 1 0
1  22 0 3.141592653589793 4.712388980384690
2  13 5 0 3.141592653589793 4.712388980384690
0

0101000
+43 10 -47 10 *
Ve
0.000000100000000
0.999999999999999 -25.400000000000002 -9.999999999999975
0 0

0101101
*
Ed
 0.000000100000000 1 1 0
1  23 0 1.570796326794897 3.141592653589793
2  14 6 0 1.570796326794897 3.141592653589793
0

0101000
+45 10 -41 10 *
Ve
0.000000100000000
4.174999999999998 -3.175000000011522 -9.999999999999995
0 0

0101101
*
Ed
 0.000000100000000 1 1 0
1  24 0 1.000000000000000 21.224999999999994
0

0101000
+39 13 -43 13 *
Ve
0.000000100000000
2.174999999999999 -25.400000000000002 -9.999999999999975
0 0

0101101
*
Ed
 0.000000100000000 1 1 0
1  25 0 1.000000000000000 2.174999999999999
0

0101000
+41 13 -37 13 *
Ve
0.000000100000000
3.174999999999999 -4.175000000011520 -9.999999999999991
0 0

0101101
*
Ed
 0.000000100000000 1 1 0
1  26 0 4.712388980384689 6.283185307179586
2  15 7 0 4.712388980384689 6.283185307179586
0

0101000
+35 10 -39 10 *
Ve
0.000000100000000
3.174999999999999 -24.400000000000002 -9.999999999999975
0 0

0101101
*
Ed
 0.000000100000000 1 1 0
1  27 0 3.141592653589793 4.712388980384690
2  16 8 0 3.141592653589793 4.712388980384690
0

0101000
+37 10 -33 10 *
Ed
 0.000000100000000 1 1 0
1  28 0 0.999999999999999 21.224999999988480
0

0101000
+33 13 -35 13 *
Wi

0101100
+83 12 -55 0 +50 0 +46 12 +44 12 +42 0 +40 0 +38 12 +36 12 +34 0 
+32 0 +31 12 *
Fa
0  0.000000100000000 11 0

0111000
+30 17 *
Ed
 0.000000100000000 1 1 0
1  29 0 -0.000000000000000 9.999999999999998
2  17 5 0 -0.000000000000000 9.999999999999998
4 G1 9 2 5 0
0

0101000
+76 10 -47 10 *
Wi

0101100
-75 7 +28 0 -56 0 +46 12 *
Fa
0  0.000000100000000 9 0

0111000
+27 3 *
Ed
 0.000000100000000 1 1 0
1  30 0 -0.000000000000000 9.999999999999998
2  18 6 0 -0.000000000000000 9.999999999999998
4 G1 10 2 6 0
0

0101000
+74 10 -45 10 *
Wi

0101100
-73 7 +51 0 -25 0 +44 12 *
Fa
0  0.000000100000000 10 0

0111000
+24 3 *
Ed
 0.000000100000000 1 1 0
1  31 0 -0.000000000000000 9.999999999999998
2  19 5 0 -0.000000000000000 9.999999999999998
4 G1 5 0 12 2
0

0101000
+72 10 -43 10 *
Wi

0101100
+71 0 -22 0 +28 0 -42 0 *
Fa
0  0.000000100000000 5 0

0111000
+21 0 *
Ed
 0.000000100000000 1 1 0
1  32 0 -0.000000000000000 9.999999999999998
2  20 6 0 -0.000000000000000 9.999999999999998
4 G1 6 0 13 2
0

0101000
+70 10 -41 10 *
Wi

0101100
+69 0 -25 0 +19 0 -40 0 *
Fa
0  0.000000100000000 6 0

0111000
+18 0 *
Ed
 0.000000100000000 1 1 0
1  33 0 -0.000000000000000 9.999999999999998
2  21 7 0 -0.000000000000000 9.999999999999998
4 G1 12 2 7 0
0

0101000
+68 10 -39 10 *
Wi

0101100
-67 7 +16 0 -22 0 +38 12 *
Fa
0  0.000000100000000 12 0

0111000
+15 3 *
Ed
 0.000000100000000 1 1 0
1  34 0 -0.000000000000000 9.999999999999998
2  22 8 0 -0.000000000000000 9.999999999999998
4 G1 13 2 8 0
0

0101000
+66 10 -37 10 *
Wi

0101100
-65 7 +19 0 -13 0 +36 12 *
Fa
0  0.000000100000000 13 0

0111000
+12 3 *
Ed
 0.000000100000000 1 1 0
1  35 0 -0.000000000000000 9.999999999999998
2  23 7 0 -0.000000000000000 9.999999999999998
4 G1 7 0 14 2
0

0101000
+64 10 -35 10 *
Wi

0101100
+63 0 -10 0 +16 0 -34 0 *
Fa
0  0.000000100000000 7 0

0111000
+9 0 *
Ed
 0.000000100000000 1 1 0
1  36 0 -0.000000000000000 9.999999999999998
2  24 8 0 -0.000000000000000 9.999999999999998
4 G1 8 0 14 2
0

0101000
+62 10 -33 10 *
Wi

0101100
+61 0 -13 0 +7 0 -32 0 *
Fa
0  0.000000100000000 8 0

0111000
+6 0 *
Wi

0101100
-60 7 +7 0 -10 0 +31 12 *
Fa
0  0.000000100000000 14 0

0111000
+4 3 *
Sh

0101100
+81 2 +58 14 +53 0 -48 0 -29 16 +26 2 +23 2 -20 0 -17 0 +14 2 
+11 2 -8 0 -5 0 +3 2 *
So

1100000
+2 0 *

+1 1 