
CASCADE Topology V1, (c) Matra-Datavision
Locations 16
1
1.000000000000000 0.000000000000000 0.000000000000000 0.000000000000000 
0.000000000000000 1.000000000000000 0.000000000000000 0.000000000000000 
0.000000000000000 0.000000000000000 1.000000000000000 0.000000000000000 
1
1.000000000000000 0.000000000000000 0.000000000000000 0.000000000000000 
0.000000000000000 0.000000000000000 -1.000000000000000 0.000000000000000 
0.000000000000000 1.000000000000000 0.000000000000000 0.000000000000000 
2  2 -1 0
1
1.000000000000000 0.000000000000000 0.000000000000000 0.000000000000000 
0.000000000000000 1.000000000000000 0.000000000000000 0.000000000000000 
0.000000000000000 0.000000000000000 1.000000000000000 0.000000000000000 
1
1.000000000000000 0.000000000000000 0.000000000000000 0.000000000000000 
0.000000000000000 0.000000000000000 -1.000000000000000 0.000000000000000 
0.000000000000000 1.000000000000000 0.000000000000000 0.000000000000000 
1
1.000000000000000 0.000000000000000 0.000000000000000 0.000000000000000 
0.000000000000000 -0.000000000000000 -1.000000000000000 0.000000000000000 
0.000000000000000 1.000000000000000 -0.000000000000000 0.000000000000000 
2  4 1 5 1 6 -1 0
2  6 1 5 -1 4 -1 0
2  2 -1 6 1 5 -1 4 -1 0
1
1.000000000000000 0.000000000000000 0.000000000000000 0.000000000000000 
0.000000000000000 1.000000000000000 0.000000000000000 0.000000000000004 
0.000000000000000 0.000000000000000 1.000000000000000 10.000000000000000 
2  4 1 5 1 6 -1 10 1 0
2  10 -1 6 1 5 -1 4 -1 0
2  2 -1 10 -1 6 1 5 -1 4 -1 0
2  6 -1 0
2  4 1 5 1 0
2  6 -1 10 1 0
Curve2ds 4
8 0.00000000000000000 9.99999999999999822
1 0.00000000000000000 0.00000000000000000 0.00000000000000000 -1.00000000000000000 
8 0.00000000000000000 9.99999999999999822
1 6.28318530717958623 0.00000000000000000 0.00000000000000000 -1.00000000000000000 
8 0.00000000000000000 6.28318530717958623
1 0.00000000000000000 0.00000000000000000 1.00000000000000000 0.00000000000000000 
8 0.00000000000000000 6.28318530717958623
1 0.00000000000000000 -9.99999999999999822 1.00000000000000000 0.00000000000000000 
Curves 3
1 3.96874999999999956 0.00000000000000000 0.00000000000000000 0.00000000000000000 -1.00000000000000000 0.00000000000000067 
2 0.00000000000000000 0.00000000000000000 0.00000000000000000 0.00000000000000000 -1.00000000000000000 0.00000000000000022 1.00000000000000000 0.00000000000000000 0.00000000000000000 0.00000000000000000 0.00000000000000022 1.00000000000000000 3.96874999999999956
2 0.00000000000000000 -9.99999999999999822 -9.99999999999999822 0.00000000000000000 -1.00000000000000000 0.00000000000000022 1.00000000000000000 0.00000000000000000 0.00000000000000000 0.00000000000000000 0.00000000000000022 1.00000000000000000 3.96874999999999956
Polygon3D 0
PolygonOnTriangulations 0
Surfaces 3
2 0.00000000000000000 0.00000000000000000 0.00000000000000000 0.00000000000000000 1.00000000000000000 -0.00000000000000067 1.00000000000000000 0.00000000000000000 0.00000000000000000 0.00000000000000000 0.00000000000000067 1.00000000000000000 3.96874999999999956
1 -0.00000000000000009 -0.00000000000000018 0.00000000000000000 0.00000000000000000 -0.00000000000000044 -1.00000000000000000 0.00000000000000000 1.00000000000000000 -0.00000000000000044 1.00000000000000000 0.00000000000000000 0.00000000000000000 
1 -0.00000000000000009 9.99999999999999645 -10.00000000000000000 0.00000000000000000 -0.00000000000000044 -1.00000000000000000 0.00000000000000000 1.00000000000000000 -0.00000000000000044 1.00000000000000000 0.00000000000000000 0.00000000000000000 
Triangulations 0

TShapes 13
Ve
0.000000100000000
3.968749999999999 0.000000000000000 0.000000000000000
0 0

0101101
*
Ve
0.000000100000000
3.968749999999999 -0.000000000000009 -9.999999999999996
0 0

0101101
*
Ed
 0.000000100000000 1 1 0
1  1 0 0.000000000000000 9.999999999999998
3  1 2CN 1 0 0.000000000000000 9.999999999999998
0

0101000
+13 3 -12 3 *
Ed
 0.000000100000000 1 1 0
1  2 0 0.000000000000000 6.283185307179586
2  3 1 8 0.000000000000000 6.283185307179586
0

0101000
+13 9 -13 9 *
Ed
 0.000000100000000 1 1 0
1  3 0 0.000000000000000 6.283185307179586
2  4 1 12 0.000000000000000 6.283185307179586
0

0101000
+12 13 -12 13 *
Wi

0101100
+11 0 -11 0 -10 7 +9 11 *
Fa
0  0.000000100000000 1 0

0111000
+8 0 *
Wi

0101100
+10 0 *
Fa
0  0.000000100000000 2 0

0111000
+6 15 *
Wi

0101100
+9 0 *
Fa
0  0.000000100000000 3 0

0111000
+4 15 *
Sh

0101100
+7 0 +5 14 -3 16 *
So

1100000
-2 0 *

+1 1 