
CASCADE Topology V1, (c) Matra-Datavision
Locations 26
1
1.000000000000000 0.000000000000000 0.000000000000000 0.000000000000000 
0.000000000000000 1.000000000000000 0.000000000000000 0.000000000000000 
0.000000000000000 0.000000000000000 1.000000000000000 0.000000000000000 
1
1.000000000000000 0.000000000000000 0.000000000000000 0.000000000000000 
0.000000000000000 -0.000000000000000 -1.000000000000000 0.000000000000000 
0.000000000000000 1.000000000000000 -0.000000000000000 0.000000000000000 
1
1.000000000000000 0.000000000000000 0.000000000000000 0.000000000000000 
0.000000000000000 -0.000000000000000 -1.000000000000000 0.000000000000000 
0.000000000000000 1.000000000000000 -0.000000000000000 0.000000000000000 
2  2 1 3 -1 0
1
1.000000000000000 0.000000000000000 0.000000000000000 0.000000000000000 
0.000000000000000 -0.000000000000000 -1.000000000000000 0.000000000000000 
0.000000000000000 1.000000000000000 -0.000000000000000 0.000000000000000 
2  5 -1 3 1 2 -1 0
1
1.000000000000000 0.000000000000000 0.000000000000000 0.000000000000000 
0.000000000000000 1.000000000000000 0.000000000000000 0.000000000000000 
0.000000000000000 0.000000000000000 1.000000000000000 0.000000000000000 
1
1.000000000000000 0.000000000000000 0.000000000000000 0.000000000000000 
0.000000000000000 -0.000000000000000 -1.000000000000000 0.000000000000000 
0.000000000000000 1.000000000000000 -0.000000000000000 0.000000000000000 
1
1.000000000000000 0.000000000000000 0.000000000000000 0.000000000000000 
0.000000000000000 -0.000000000000000 -1.000000000000000 0.000000000000000 
0.000000000000000 1.000000000000000 -0.000000000000000 0.000000000000000 
1
1.000000000000000 0.000000000000000 0.000000000000000 -0.000000000000000 
0.000000000000000 1.000000000000000 0.000000000000000 -0.000000000000000 
0.000000000000000 0.000000000000000 1.000000000000000 -45.500000000000007 
2  7 1 8 1 9 -1 10 1 2 1 3 -1 0
2  5 -1 3 1 2 -1 10 -1 9 1 8 -1 7 -1 0
1
1.000000000000000 0.000000000000000 0.000000000000000 0.000000000000000 
0.000000000000000 1.000000000000000 0.000000000000000 0.000000000000000 
0.000000000000000 0.000000000000000 1.000000000000000 91.000000000000014 
2  7 1 8 1 9 -1 10 1 13 1 2 1 3 -1 0
2  5 -1 3 1 2 -1 13 -1 10 -1 9 1 8 -1 7 -1 0
1
1.000000000000000 0.000000000000000 0.000000000000000 0.000000000000000 
0.000000000000000 1.000000000000000 0.000000000000000 0.000000000000000 
0.000000000000000 0.000000000000000 1.000000000000000 0.000000000000000 
1
-1.000000000000000 0.000000000000000 0.000000000000000 0.000000000000000 
0.000000000000000 -1.000000000000000 -0.000000000000000 -0.000000000000019 
0.000000000000000 -0.000000000000000 1.000000000000000 84.700000000000003 
2  16 1 17 1 3 -1 0
2  3 1 17 -1 16 -1 0
2  5 -1 3 1 17 -1 16 -1 0
2  7 1 8 1 9 -1 10 1 0
2  7 1 8 1 9 -1 10 1 13 1 0
2  9 -1 10 1 2 1 3 -1 0
2  7 1 8 1 0
2  9 -1 10 1 13 1 2 1 3 -1 0
2  5 -1 0
Curve2ds 16
1 0.00000000000000000 0.00000000000000000 1.00000000000000000 0.00000000000000000 
1 0.00000000000000000 0.00000000000000000 1.00000000000000000 0.00000000000000000 
1 0.00000000000000000 0.00000000000000000 1.00000000000000000 0.00000000000000000 
1 0.00000000000000000 0.00000000000000000 1.00000000000000000 0.00000000000000000 
1 0.00000000000000000 0.00000000000000000 0.00000000000000000 -1.00000000000000000 
1 6.28318530717958623 0.00000000000000000 0.00000000000000000 -1.00000000000000000 
1 0.00000000000000000 -169.40000000000000568 1.00000000000000000 0.00000000000000000 
1 0.00000000000000000 0.00000000000000000 0.00000000000000000 -1.00000000000000000 
1 6.28318530717958623 0.00000000000000000 0.00000000000000000 -1.00000000000000000 
1 0.00000000000000000 -169.40000000000000568 1.00000000000000000 0.00000000000000000 
1 0.00000000000000000 0.00000000000000000 0.00000000000000000 -1.00000000000000000 
1 6.28318530717958623 0.00000000000000000 0.00000000000000000 -1.00000000000000000 
1 0.00000000000000000 -169.40000000000000568 1.00000000000000000 0.00000000000000000 
1 0.00000000000000000 0.00000000000000000 0.00000000000000000 -1.00000000000000000 
1 6.28318530717958623 0.00000000000000000 0.00000000000000000 -1.00000000000000000 
1 0.00000000000000000 -169.40000000000000568 1.00000000000000000 0.00000000000000000 
Curves 24
1 -43.70000000000000284 45.49999999999998579 84.70000000000001705 0.00000000000000000 -1.00000000000000000 -0.00000000000000022 
1 -43.70000000000000284 45.49999999999998579 130.20000000000001705 1.00000000000000000 0.00000000000000000 0.00000000000000000 
1 -43.70000000000000284 -45.50000000000002842 39.19999999999998863 1.00000000000000000 0.00000000000000000 0.00000000000000000 
1 43.70000000000000284 45.49999999999998579 84.70000000000001705 0.00000000000000000 -1.00000000000000000 -0.00000000000000022 
2 30.99999999999999645 84.70000000000000284 -104.80000000000006821 0.00000000000000000 1.00000000000000000 -0.00000000000000022 1.00000000000000000 0.00000000000000000 0.00000000000000000 0.00000000000000000 -0.00000000000000022 -1.00000000000000000 3.96875000000000000
2 -30.99999999999999645 84.70000000000000284 -104.80000000000006821 0.00000000000000000 1.00000000000000000 -0.00000000000000022 1.00000000000000000 0.00000000000000000 0.00000000000000000 0.00000000000000000 -0.00000000000000022 -1.00000000000000000 3.96875000000000000
2 30.99999999999999645 84.70000000000000284 -64.59999999999996589 0.00000000000000000 1.00000000000000000 -0.00000000000000022 1.00000000000000000 0.00000000000000000 0.00000000000000000 0.00000000000000000 -0.00000000000000022 -1.00000000000000000 3.96875000000000000
2 -30.99999999999999645 84.70000000000000284 -64.59999999999996589 0.00000000000000000 1.00000000000000000 -0.00000000000000022 1.00000000000000000 0.00000000000000000 0.00000000000000000 0.00000000000000000 -0.00000000000000022 -1.00000000000000000 3.96875000000000000
1 -43.70000000000000284 45.50000000000002842 -84.69999999999998863 0.00000000000000000 -1.00000000000000000 -0.00000000000000022 
1 -43.70000000000000284 45.50000000000002842 -39.19999999999998863 0.00000000000000000 -0.00000000000000022 1.00000000000000000 
1 -43.70000000000000284 -45.49999999999998579 -130.20000000000001705 0.00000000000000000 -0.00000000000000022 1.00000000000000000 
1 43.70000000000000284 45.49999999999998579 130.20000000000001705 0.00000000000000000 0.00000000000000022 -1.00000000000000000 
1 43.70000000000000284 45.50000000000002842 -39.19999999999998863 -1.00000000000000000 -0.00000000000000000 0.00000000000000000 
1 43.70000000000000284 -45.50000000000002842 39.19999999999998863 0.00000000000000000 0.00000000000000022 -1.00000000000000000 
1 43.70000000000000284 -45.49999999999998579 -130.20000000000001705 -1.00000000000000000 -0.00000000000000000 0.00000000000000000 
1 43.70000000000000284 45.50000000000002842 -84.69999999999998863 0.00000000000000000 -1.00000000000000000 -0.00000000000000022 
1 -34.96875000000000000 -20.10000000000007603 84.70000000000000284 0.00000000000000000 0.00000000000000022 -1.00000000000000000 
2 -30.99999999999999645 -20.10000000000004050 -84.70000000000000284 0.00000000000000000 -0.00000000000000022 1.00000000000000000 -1.00000000000000000 -0.00000000000000000 0.00000000000000000 0.00000000000000000 -1.00000000000000000 -0.00000000000000022 3.96875000000000000
1 27.03124999999999645 -20.10000000000007603 84.70000000000000284 0.00000000000000000 0.00000000000000022 -1.00000000000000000 
2 30.99999999999999645 -20.10000000000004050 -84.70000000000000284 0.00000000000000000 -0.00000000000000022 1.00000000000000000 -1.00000000000000000 -0.00000000000000000 0.00000000000000000 0.00000000000000000 -1.00000000000000000 -0.00000000000000022 3.96875000000000000
1 -34.96875000000000000 20.10000000000004050 84.70000000000000284 0.00000000000000000 0.00000000000000022 -1.00000000000000000 
2 -30.99999999999999645 20.10000000000007603 -84.70000000000000284 0.00000000000000000 -0.00000000000000022 1.00000000000000000 -1.00000000000000000 -0.00000000000000000 0.00000000000000000 0.00000000000000000 -1.00000000000000000 -0.00000000000000022 3.96875000000000000
1 27.03124999999999645 20.10000000000004050 84.70000000000000284 0.00000000000000000 0.00000000000000022 -1.00000000000000000 
2 30.99999999999999645 20.10000000000007603 -84.70000000000000284 0.00000000000000000 -0.00000000000000022 1.00000000000000000 -1.00000000000000000 -0.00000000000000000 0.00000000000000000 0.00000000000000000 -1.00000000000000000 -0.00000000000000022 3.96875000000000000
Polygon3D 0
PolygonOnTriangulations 0
Surfaces 10
1 -43.70000000000000284 45.49999999999998579 84.70000000000001705 0.00000000000000000 -0.00000000000000022 1.00000000000000000 1.00000000000000000 0.00000000000000000 0.00000000000000000 0.00000000000000000 1.00000000000000000 0.00000000000000022 
2 -30.99999999999999645 -20.10000000000007603 84.70000000000000284 0.00000000000000000 -0.00000000000000022 1.00000000000000000 -1.00000000000000000 -0.00000000000000000 0.00000000000000000 0.00000000000000000 -1.00000000000000000 -0.00000000000000022 3.96875000000000000
2 30.99999999999999645 -20.10000000000007603 84.70000000000000284 0.00000000000000000 -0.00000000000000022 1.00000000000000000 -1.00000000000000000 -0.00000000000000000 0.00000000000000000 0.00000000000000000 -1.00000000000000000 -0.00000000000000022 3.96875000000000000
2 -30.99999999999999645 20.10000000000004050 84.70000000000000284 0.00000000000000000 -0.00000000000000022 1.00000000000000000 -1.00000000000000000 -0.00000000000000000 0.00000000000000000 0.00000000000000000 -1.00000000000000000 -0.00000000000000022 3.96875000000000000
2 30.99999999999999645 20.10000000000004050 84.70000000000000284 0.00000000000000000 -0.00000000000000022 1.00000000000000000 -1.00000000000000000 -0.00000000000000000 0.00000000000000000 0.00000000000000000 -1.00000000000000000 -0.00000000000000022 3.96875000000000000
1 -43.70000000000000284 45.50000000000002842 -84.69999999999998863 -1.00000000000000000 -0.00000000000000000 0.00000000000000000 0.00000000000000000 -0.00000000000000022 1.00000000000000000 0.00000000000000000 1.00000000000000000 0.00000000000000022 
1 0.00000000000000000 -45.50000000000002842 45.50000000000000000 0.00000000000000000 -0.00000000000000044 1.00000000000000000 0.00000000000000000 -1.00000000000000000 -0.00000000000000044 1.00000000000000000 0.00000000000000000 0.00000000000000000 
1 0.00000000000000000 45.50000000000002842 -45.50000000000000000 0.00000000000000000 -0.00000000000000044 1.00000000000000000 0.00000000000000000 -1.00000000000000000 -0.00000000000000044 1.00000000000000000 0.00000000000000000 0.00000000000000000 
1 43.70000000000000284 45.49999999999998579 84.70000000000001705 1.00000000000000000 0.00000000000000000 0.00000000000000000 0.00000000000000000 0.00000000000000022 -1.00000000000000000 0.00000000000000000 1.00000000000000000 0.00000000000000022 
1 43.70000000000000284 45.50000000000002842 -84.69999999999998863 0.00000000000000000 0.00000000000000022 -1.00000000000000000 -1.00000000000000000 -0.00000000000000000 0.00000000000000000 -0.00000000000000000 1.00000000000000000 0.00000000000000022 
Triangulations 0

TShapes 70
Ve
0.000000100000000
-43.700000000000003 -84.700000000000031 45.499999999999964
0 0

0101101
*
Ve
0.000000100000000
-43.700000000000003 -84.699999999999974 -45.500000000000050
0 0

0101101
*
Ed
 0.000000100000000 1 1 0
1  1 0 0.000000000000000 91.000000000000014
0

0101000
+70 6 -69 6 *
Ve
0.000000100000000
43.700000000000003 -84.700000000000031 45.499999999999964
0 0

0101101
*
Ed
 0.000000100000000 1 1 0
1  2 0 0.000000000000000 87.400000000000006
0

0101000
+70 12 -67 12 *
Ve
0.000000100000000
43.700000000000003 -84.699999999999974 -45.500000000000050
0 0

0101101
*
Ed
 0.000000100000000 1 1 0
1  3 0 0.000000000000000 87.400000000000006
0

0101000
+69 15 -65 15 *
Ed
 0.000000100000000 1 1 0
1  4 0 0.000000000000000 91.000000000000014
0

0101000
+67 6 -65 6 *
Wi

0101100
+68 4 -66 11 +64 14 -63 4 *
Ve
0.000000100000000
-34.968750000000000 -84.700000000000003 -20.100000000000094
0 0

0101101
*
Ed
 0.000000100000000 1 1 0
1  5 0 0.000000000000000 6.283185307179586
2  1 2 19 0.000000000000000 6.283185307179586
0

0101000
+61 20 -61 20 *
Wi

0101100
-60 18 *
Ve
0.000000100000000
27.031249999999996 -84.700000000000003 -20.100000000000094
0 0

0101101
*
Ed
 0.000000100000000 1 1 0
1  6 0 0.000000000000000 6.283185307179586
2  2 3 19 0.000000000000000 6.283185307179586
0

0101000
+58 20 -58 20 *
Wi

0101100
-57 18 *
Ve
0.000000100000000
-34.968750000000000 -84.700000000000003 20.100000000000023
0 0

0101101
*
Ed
 0.000000100000000 1 1 0
1  7 0 0.000000000000000 6.283185307179586
2  3 4 19 0.000000000000000 6.283185307179586
0

0101000
+55 20 -55 20 *
Wi

0101100
-54 18 *
Ve
0.000000100000000
27.031249999999996 -84.700000000000003 20.100000000000023
0 0

0101101
*
Ed
 0.000000100000000 1 1 0
1  8 0 0.000000000000000 6.283185307179586
2  4 5 19 0.000000000000000 6.283185307179586
0

0101000
+52 20 -52 20 *
Wi

0101100
-51 18 *
Fa
0  0.000000100000000 1 4

0111000
+62 0 +59 0 +56 0 +53 0 +50 0 *
Ve
0.000000100000000
-43.700000000000003 84.699999999999974 45.500000000000050
0 0

0101101
*
Ve
0.000000100000000
-43.700000000000003 84.700000000000031 -45.499999999999964
0 0

0101101
*
Ed
 0.000000100000000 1 1 0
1  9 0 0.000000000000000 91.000000000000014
0

0101000
+48 6 -47 6 *
Ed
 0.000000100000000 1 1 0
1  10 0 0.000000000000000 169.400000000000006
0

0101000
+48 12 -70 12 *
Ed
 0.000000100000000 1 1 0
1  11 0 0.000000000000000 169.400000000000006
0

0101000
+47 15 -69 15 *
Wi

0101100
+46 0 -68 0 -45 21 +44 22 *
Fa
0  0.000000100000000 6 0

0111000
+43 0 *
Ve
0.000000100000000
43.700000000000003 84.699999999999974 45.500000000000050
0 0

0101101
*
Ed
 0.000000100000000 1 1 0
1  12 0 0.000000000000000 169.400000000000006
0

0101000
+67 12 -41 12 *
Ed
 0.000000100000000 1 1 0
1  13 0 0.000000000000000 87.400000000000006
0

0101000
+41 12 -48 12 *
Wi

0101100
+66 0 +40 0 +39 0 +45 0 *
Fa
0  0.000000100000000 7 0

0111000
+38 24 *
Ve
0.000000100000000
43.700000000000003 84.700000000000031 -45.499999999999964
0 0

0101101
*
Ed
 0.000000100000000 1 1 0
1  14 0 0.000000000000000 169.400000000000006
0

0101000
+65 15 -36 15 *
Ed
 0.000000100000000 1 1 0
1  15 0 0.000000000000000 87.400000000000006
0

0101000
+36 15 -47 15 *
Wi

0101100
+64 0 +35 0 +34 0 +44 0 *
Fa
0  0.000000100000000 8 0

0111000
+33 24 *
Ed
 0.000000100000000 1 1 0
1  16 0 0.000000000000000 91.000000000000014
0

0101000
+41 6 -36 6 *
Wi

0101100
+63 0 -31 0 -40 21 +35 22 *
Fa
0  0.000000100000000 9 0

0111000
+30 0 *
Ve
0.000000100000000
-34.968750000000000 84.700000000000003 -20.100000000000023
0 0

0101101
*
Ed
 0.000000100000000 1 1 0
1  17 0 0.000000000000000 169.400000000000006
3  5 6CN 2 0 0.000000000000000 169.400000000000006
0

0101000
+61 26 -28 26 *
Ed
 0.000000100000000 1 1 0
1  18 0 0.000000000000000 6.283185307179586
2  7 2 0 0.000000000000000 6.283185307179586
0

0101000
+28 26 -28 26 *
Wi

0101100
-60 18 -27 0 +26 0 +27 0 *
Fa
0  0.000000100000000 2 0

0111000
+25 0 *
Ve
0.000000100000000
27.031249999999996 84.700000000000003 -20.100000000000023
0 0

0101101
*
Ed
 0.000000100000000 1 1 0
1  19 0 0.000000000000000 169.400000000000006
3  8 9CN 3 0 0.000000000000000 169.400000000000006
0

0101000
+58 26 -23 26 *
Ed
 0.000000100000000 1 1 0
1  20 0 0.000000000000000 6.283185307179586
2  10 3 0 0.000000000000000 6.283185307179586
0

0101000
+23 26 -23 26 *
Wi

0101100
-57 18 -22 0 +21 0 +22 0 *
Fa
0  0.000000100000000 3 0

0111000
+20 0 *
Ve
0.000000100000000
-34.968750000000000 84.700000000000003 20.100000000000094
0 0

0101101
*
Ed
 0.000000100000000 1 1 0
1  21 0 0.000000000000000 169.400000000000006
3  11 12CN 4 0 0.000000000000000 169.400000000000006
0

0101000
+55 26 -18 26 *
Ed
 0.000000100000000 1 1 0
1  22 0 0.000000000000000 6.283185307179586
2  13 4 0 0.000000000000000 6.283185307179586
0

0101000
+18 26 -18 26 *
Wi

0101100
-54 18 -17 0 +16 0 +17 0 *
Fa
0  0.000000100000000 4 0

0111000
+15 0 *
Ve
0.000000100000000
27.031249999999996 84.700000000000003 20.100000000000094
0 0

0101101
*
Ed
 0.000000100000000 1 1 0
1  23 0 0.000000000000000 169.400000000000006
3  14 15CN 5 0 0.000000000000000 169.400000000000006
0

0101000
+52 26 -13 26 *
Ed
 0.000000100000000 1 1 0
1  24 0 0.000000000000000 6.283185307179586
2  16 5 0 0.000000000000000 6.283185307179586
0

0101000
+13 26 -13 26 *
Wi

0101100
-51 18 -12 0 +11 0 +12 0 *
Fa
0  0.000000100000000 5 0

0111000
+10 0 *
Wi

0101100
+31 4 -39 11 +34 14 -46 4 *
Wi

0101100
+21 0 *
Wi

0101100
+26 0 *
Wi

0101100
+11 0 *
Wi

0101100
+16 0 *
Fa
0  0.000000100000000 10 4

0111000
+8 0 +7 0 +6 0 +5 0 +4 0 *
Sh

0101100
+49 0 +42 4 +37 23 -32 25 +29 4 -24 0 -19 0 -14 0 -9 0 +3 0 
*
So

1100000
+2 0 *

+1 1 