
CASCADE Topology V1, (c) Matra-Datavision
Locations 54
1
1.000000000000000 0.000000000000000 0.000000000000000 0.000000000000000 
0.000000000000000 -0.000000000000000 -1.000000000000000 0.000000000000000 
0.000000000000000 1.000000000000000 -0.000000000000000 0.000000000000000 
1
1.000000000000000 0.000000000000000 0.000000000000000 0.000000000000000 
0.000000000000000 -0.000000000000000 -1.000000000000000 0.000000000000000 
0.000000000000000 1.000000000000000 -0.000000000000000 0.000000000000000 
1
1.000000000000000 0.000000000000000 0.000000000000000 0.000000000000000 
0.000000000000000 -0.000000000000000 -1.000000000000000 0.000000000000000 
0.000000000000000 1.000000000000000 -0.000000000000000 0.000000000000000 
2  2 1 3 -1 0
1
1.000000000000000 0.000000000000000 0.000000000000000 0.000000000000000 
0.000000000000000 -0.000000000000000 -1.000000000000000 0.000000000000000 
0.000000000000000 1.000000000000000 -0.000000000000000 0.000000000000000 
1
1.000000000000000 0.000000000000000 0.000000000000000 0.000000000000000 
0.000000000000000 -0.000000000000000 -1.000000000000000 0.000000000000000 
0.000000000000000 1.000000000000000 -0.000000000000000 0.000000000000000 
2  5 1 6 -1 0
1
1.000000000000000 0.000000000000000 0.000000000000000 0.000000000000000 
0.000000000000000 1.000000000000000 0.000000000000000 0.000000000000000 
0.000000000000000 0.000000000000000 1.000000000000000 0.000000000000000 
1
1.000000000000000 0.000000000000000 0.000000000000000 0.000000000000000 
0.000000000000000 -0.000000000000000 -1.000000000000000 0.000000000000000 
0.000000000000000 1.000000000000000 -0.000000000000000 0.000000000000000 
1
1.000000000000000 0.000000000000000 0.000000000000000 0.000000000000000 
0.000000000000000 -0.000000000000000 -1.000000000000000 0.000000000000000 
0.000000000000000 1.000000000000000 -0.000000000000000 0.000000000000000 
1
1.000000000000000 0.000000000000000 0.000000000000000 -0.000000000000000 
0.000000000000000 1.000000000000000 0.000000000000000 -0.000000000000000 
0.000000000000000 0.000000000000000 1.000000000000000 -45.500000000000007 
2  8 1 9 1 10 -1 11 1 0
1
1.000000000000000 0.000000000000000 0.000000000000000 0.000000000000000 
0.000000000000000 1.000000000000000 0.000000000000000 0.000000000000000 
0.000000000000000 0.000000000000000 1.000000000000000 91.000000000000014 
2  8 1 9 1 10 -1 11 1 13 1 0
2  8 1 9 1 10 -1 11 1 5 1 6 -1 0
1
1.000000000000000 0.000000000000000 0.000000000000000 -0.000000000000000 
0.000000000000000 1.000000000000000 0.000000000000000 -0.000000000000020 
0.000000000000000 0.000000000000000 1.000000000000000 -45.500000000000007 
1
1.000000000000000 0.000000000000000 0.000000000000000 0.000000000000000 
0.000000000000000 -0.000000000000000 -1.000000000000000 0.000000000000000 
0.000000000000000 1.000000000000000 -0.000000000000000 0.000000000000000 
1
1.000000000000000 0.000000000000000 0.000000000000000 0.000000000000000 
0.000000000000000 0.000000000000000 -1.000000000000000 0.000000000000000 
0.000000000000000 1.000000000000000 0.000000000000000 0.000000000000000 
1
1.000000000000000 0.000000000000000 0.000000000000000 0.000000000000000 
0.000000000000000 1.000000000000000 0.000000000000000 0.000000000000000 
0.000000000000000 0.000000000000000 1.000000000000000 0.000000000000000 
2  16 -1 17 1 18 -1 19 -1 0
1
1.000000000000000 0.000000000000000 0.000000000000000 0.000000000000000 
0.000000000000000 1.000000000000000 0.000000000000000 0.000000000000040 
0.000000000000000 0.000000000000000 1.000000000000000 91.000000000000014 
2  21 -1 16 -1 17 1 18 -1 19 -1 0
1
1.000000000000000 0.000000000000000 0.000000000000000 -0.000000000000000 
0.000000000000000 1.000000000000000 0.000000000000000 -0.000000000000000 
0.000000000000000 0.000000000000000 1.000000000000000 -45.500000000000007 
1
1.000000000000000 0.000000000000000 0.000000000000000 0.000000000000000 
0.000000000000000 -0.000000000000000 -1.000000000000000 0.000000000000000 
0.000000000000000 1.000000000000000 -0.000000000000000 0.000000000000000 
1
1.000000000000000 0.000000000000000 0.000000000000000 0.000000000000000 
0.000000000000000 -0.000000000000000 -1.000000000000000 0.000000000000000 
0.000000000000000 1.000000000000000 -0.000000000000000 0.000000000000000 
1
1.000000000000000 0.000000000000000 0.000000000000000 0.000000000000000 
0.000000000000000 1.000000000000000 0.000000000000000 0.000000000000000 
0.000000000000000 0.000000000000000 1.000000000000000 0.000000000000000 
2  23 -1 24 1 25 -1 26 -1 0
1
1.000000000000000 0.000000000000000 0.000000000000000 0.000000000000000 
0.000000000000000 1.000000000000000 0.000000000000000 0.000000000000000 
0.000000000000000 0.000000000000000 1.000000000000000 91.000000000000014 
2  28 -1 23 -1 24 1 25 -1 26 -1 0
2  11 -1 10 1 9 -1 8 -1 0
2  13 -1 11 -1 10 1 9 -1 8 -1 0
2  8 1 9 1 10 -1 11 1 13 1 5 1 6 -1 0
1
1.000000000000000 0.000000000000000 0.000000000000000 0.000000000000000 
0.000000000000000 1.000000000000000 0.000000000000000 0.000000000000000 
0.000000000000000 0.000000000000000 1.000000000000000 0.000000000000000 
1
-1.000000000000000 0.000000000000000 0.000000000000000 0.000000000000000 
0.000000000000000 -1.000000000000000 -0.000000000000000 -0.000000000000019 
0.000000000000000 -0.000000000000000 1.000000000000000 84.700000000000003 
2  33 1 34 1 6 -1 0
2  6 1 34 -1 33 -1 0
1
1.000000000000000 0.000000000000000 0.000000000000000 0.000000000000000 
0.000000000000000 1.000000000000000 0.000000000000000 -426.675070806814460 
0.000000000000000 0.000000000000000 1.000000000000000 0.000000000000000 
2  37 -1 6 1 34 -1 33 -1 0
2  34 -1 33 -1 0
2  5 1 34 -1 33 -1 0
2  5 1 6 -1 2 1 3 -1 0
2  8 1 9 1 10 -1 11 1 5 1 6 -1 2 1 3 -1 0
2  8 1 9 1 10 -1 11 1 13 1 5 1 6 -1 2 1 3 -1 0
2  10 -1 11 1 5 1 6 -1 2 1 3 -1 0
2  8 1 9 1 0
2  10 -1 11 1 13 1 5 1 6 -1 2 1 3 -1 0
1
1.000000000000000 0.000000000000000 0.000000000000000 0.000000000000000 
0.000000000000000 1.000000000000000 0.000000000000000 0.000000000000000 
0.000000000000000 0.000000000000000 1.000000000000000 0.000000000000000 
1
0.000000000000000 -0.000000000000000 1.000000000000000 43.700000000000003 
-0.000000000000000 -1.000000000000000 0.000000000000000 0.000000000000000 
1.000000000000000 -0.000000000000000 -0.000000000000000 0.000000000000000 
2  47 1 48 1 3 -1 0
2  3 1 48 -1 47 -1 0
1
1.000000000000000 0.000000000000000 0.000000000000000 -426.675070806814460 
0.000000000000000 1.000000000000000 0.000000000000000 0.000000000000095 
0.000000000000000 0.000000000000000 1.000000000000000 -0.000000000000000 
2  51 -1 3 1 48 -1 47 -1 0
2  48 -1 47 -1 0
2  5 1 6 -1 2 1 48 -1 47 -1 0
Curve2ds 96
1 0.00000000000000000 0.00000000000000000 0.00000000000000000 -1.00000000000000000 
1 169.40000000000000568 0.00000000000000000 0.00000000000000000 -1.00000000000000000 
1 0.00000000000000000 0.00000000000000000 1.00000000000000000 0.00000000000000000 
1 0.00000000000000000 -91.00000000000001421 1.00000000000000000 0.00000000000000000 
1 0.00000000000000000 0.00000000000000000 1.00000000000000000 0.00000000000000000 
1 0.00000000000000000 -91.00000000000001421 1.00000000000000000 0.00000000000000000 
1 0.00000000000000000 0.00000000000000000 1.00000000000000000 0.00000000000000000 
1 0.00000000000000000 -91.00000000000001421 1.00000000000000000 0.00000000000000000 
1 87.40000000000000568 0.00000000000000000 0.00000000000000000 -1.00000000000000000 
1 0.00000000000000000 0.00000000000000000 0.00000000000000000 -1.00000000000000000 
1 0.00000000000000000 0.00000000000000000 1.00000000000000000 0.00000000000000000 
1 0.00000000000000000 -426.67507080681446041 1.00000000000000000 0.00000000000000000 
2 0.00000000000000000 0.00000000000000000 -1.00000000000000000 0.00000000000000000 -0.00000000000000000 -1.00000000000000000 3.96875000000000355
2 12.70000000000000639 -65.60000000000006537 -1.00000000000000000 0.00000000000000000 -0.00000000000000000 -1.00000000000000000 3.96875000000000355
1 0.00000000000000000 0.00000000000000000 1.00000000000000000 0.00000000000000000 
1 0.00000000000000000 -426.67507080681446041 1.00000000000000000 0.00000000000000000 
2 -0.00000000000000355 -0.00000000000000000 0.00000000000000000 1.00000000000000000 -1.00000000000000000 0.00000000000000000 3.96875000000000000
2 74.70000000000000284 -65.60000000000006537 -1.00000000000000000 0.00000000000000000 -0.00000000000000000 -1.00000000000000000 3.96875000000000000
1 0.00000000000000000 0.00000000000000000 1.00000000000000000 0.00000000000000000 
1 0.00000000000000000 -426.67507080681446041 1.00000000000000000 0.00000000000000000 
2 0.00000000000000000 0.00000000000000000 -1.00000000000000000 0.00000000000000000 -0.00000000000000000 -1.00000000000000000 3.96875000000000355
2 12.70000000000000639 -25.39999999999994884 -1.00000000000000000 0.00000000000000000 -0.00000000000000000 -1.00000000000000000 3.96875000000000355
1 0.00000000000000000 0.00000000000000000 1.00000000000000000 0.00000000000000000 
1 0.00000000000000000 -426.67507080681446041 1.00000000000000000 0.00000000000000000 
2 0.00000000000000000 0.00000000000000000 0.00000000000000000 1.00000000000000000 -1.00000000000000000 0.00000000000000000 3.96875000000000000
2 74.70000000000000284 -25.39999999999994884 -1.00000000000000000 0.00000000000000000 -0.00000000000000000 -1.00000000000000000 3.96875000000000000
1 87.40000000000000568 0.00000000000000000 0.00000000000000000 -1.00000000000000000 
1 0.00000000000000000 0.00000000000000000 0.00000000000000000 -1.00000000000000000 
1 0.00000000000000000 -0.00000000000000000 1.00000000000000000 0.00000000000000000 
1 -0.00000000000001199 -91.00000000000001421 1.00000000000000000 0.00000000000000000 
1 0.00000000000000000 0.00000000000000000 1.00000000000000000 0.00000000000000000 
1 0.00000000000000000 -91.00000000000001421 1.00000000000000000 0.00000000000000000 
1 0.00000000000000000 0.00000000000000000 1.00000000000000000 0.00000000000000000 
1 0.00000000000000000 -91.00000000000001421 1.00000000000000000 0.00000000000000000 
2 12.70000000000000284 -78.30000000000006821 1.00000000000000000 0.00000000000000000 0.00000000000000000 -1.00000000000000000 3.96875000000000000
1 0.00000000000000000 -87.39999999999999147 1.00000000000000000 0.00000000000000000 
2 156.70000000000004547 -78.30000000000006821 1.00000000000000000 0.00000000000000000 0.00000000000000000 -1.00000000000000000 3.96875000000000000
1 0.00000000000000000 -87.40000000000001990 1.00000000000000000 0.00000000000000000 
2 12.70000000000000284 -12.69999999999995310 1.00000000000000000 0.00000000000000000 0.00000000000000000 -1.00000000000000000 3.96875000000000000
1 0.00000000000000000 -87.39999999999999147 1.00000000000000000 0.00000000000000000 
2 156.70000000000004547 -12.69999999999995310 1.00000000000000000 0.00000000000000000 0.00000000000000000 -1.00000000000000000 3.96875000000000000
1 0.00000000000000000 -87.40000000000001990 1.00000000000000000 0.00000000000000000 
1 0.00000000000000000 0.00000000000000000 1.00000000000000000 0.00000000000000000 
1 0.00000000000001199 -91.00000000000001421 1.00000000000000000 0.00000000000000000 
1 0.00000000000000000 0.00000000000000000 1.00000000000000000 0.00000000000000000 
1 0.00000000000000000 -91.00000000000001421 1.00000000000000000 0.00000000000000000 
1 0.00000000000000000 0.00000000000000000 1.00000000000000000 0.00000000000000000 
1 0.00000000000000000 -91.00000000000001421 1.00000000000000000 0.00000000000000000 
1 0.00000000000000000 -0.00000000000000000 1.00000000000000000 0.00000000000000000 
1 0.00000000000000000 -91.00000000000001421 1.00000000000000000 0.00000000000000000 
1 0.00000000000000000 -0.00000000000000000 1.00000000000000000 0.00000000000000000 
1 0.00000000000000000 -91.00000000000001421 1.00000000000000000 0.00000000000000000 
1 0.00000000000000000 -0.00000000000000000 1.00000000000000000 0.00000000000000000 
1 0.00000000000000000 -91.00000000000001421 1.00000000000000000 0.00000000000000000 
1 0.00000000000000000 -0.00000000000000000 0.00000000000000000 -1.00000000000000000 
1 169.40000000000000568 0.00000000000000000 0.00000000000000000 -1.00000000000000000 
1 0.00000000000000000 0.00000000000000000 1.00000000000000000 0.00000000000000000 
1 0.00000000000000000 -426.67507080681446041 1.00000000000000000 0.00000000000000000 
2 -0.00000000000001421 -0.00000000000000711 1.00000000000000000 0.00000000000000022 -0.00000000000000022 1.00000000000000000 3.96875000000000000
2 12.69999999999998863 -78.30000000000006821 -1.00000000000000000 0.00000000000000000 -0.00000000000000000 -1.00000000000000000 3.96875000000000000
1 0.00000000000000000 0.00000000000000000 1.00000000000000000 0.00000000000000000 
1 0.00000000000000000 -426.67507080681446041 1.00000000000000000 0.00000000000000000 
2 -0.00000000000001421 0.00000000000000000 1.00000000000000000 0.00000000000000022 -0.00000000000000022 1.00000000000000000 3.96875000000000000
2 156.70000000000001705 -78.30000000000006821 -1.00000000000000000 0.00000000000000000 -0.00000000000000000 -1.00000000000000000 3.96875000000000000
1 0.00000000000000000 0.00000000000000000 1.00000000000000000 0.00000000000000000 
1 0.00000000000000000 -426.67507080681446041 1.00000000000000000 0.00000000000000000 
2 0.00000000000000000 0.00000000000000000 1.00000000000000000 0.00000000000000022 -0.00000000000000022 1.00000000000000000 3.96875000000000000
2 12.69999999999998863 -12.69999999999995310 -1.00000000000000000 0.00000000000000000 -0.00000000000000000 -1.00000000000000000 3.96875000000000000
1 0.00000000000000000 0.00000000000000000 1.00000000000000000 0.00000000000000000 
1 0.00000000000000000 -426.67507080681446041 1.00000000000000000 0.00000000000000000 
2 0.00000000000001421 -0.00000000000000711 1.00000000000000000 0.00000000000000022 -0.00000000000000022 1.00000000000000000 3.96875000000000000
2 156.70000000000001705 -12.69999999999995310 -1.00000000000000000 0.00000000000000000 -0.00000000000000000 -1.00000000000000000 3.96875000000000000
1 0.00000000000000000 0.00000000000000000 0.00000000000000000 -1.00000000000000000 
1 6.28318530717958623 0.00000000000000000 0.00000000000000000 -1.00000000000000000 
2 74.70000000000000284 -65.60000000000006537 1.00000000000000000 0.00000000000000000 0.00000000000000000 -1.00000000000000000 3.96875000000000000
1 0.00000000000000000 -169.40000000000000568 1.00000000000000000 0.00000000000000000 
1 0.00000000000000000 0.00000000000000000 0.00000000000000000 -1.00000000000000000 
1 6.28318530717958623 0.00000000000000000 0.00000000000000000 -1.00000000000000000 
2 12.70000000000000639 -65.60000000000006537 1.00000000000000000 0.00000000000000000 0.00000000000000000 -1.00000000000000000 3.96875000000000000
1 0.00000000000000000 -169.40000000000000568 1.00000000000000000 0.00000000000000000 
1 0.00000000000000000 0.00000000000000000 0.00000000000000000 -1.00000000000000000 
1 6.28318530717958623 0.00000000000000000 0.00000000000000000 -1.00000000000000000 
2 74.70000000000000284 -25.39999999999994884 1.00000000000000000 0.00000000000000000 0.00000000000000000 -1.00000000000000000 3.96875000000000000
1 0.00000000000000000 -169.40000000000000568 1.00000000000000000 0.00000000000000000 
1 0.00000000000000000 0.00000000000000000 0.00000000000000000 -1.00000000000000000 
1 6.28318530717958623 0.00000000000000000 0.00000000000000000 -1.00000000000000000 
2 12.70000000000000639 -25.39999999999994884 1.00000000000000000 0.00000000000000000 0.00000000000000000 -1.00000000000000000 3.96875000000000000
1 0.00000000000000000 -169.40000000000000568 1.00000000000000000 0.00000000000000000 
1 0.00000000000000000 0.00000000000000000 0.00000000000000000 -1.00000000000000000 
1 6.28318530717958623 0.00000000000000000 0.00000000000000000 -1.00000000000000000 
1 0.00000000000000000 0.00000000000000000 0.00000000000000000 -1.00000000000000000 
1 6.28318530717958623 0.00000000000000000 0.00000000000000000 -1.00000000000000000 
1 0.00000000000000000 0.00000000000000000 0.00000000000000000 -1.00000000000000000 
1 6.28318530717958623 0.00000000000000000 0.00000000000000000 -1.00000000000000000 
1 0.00000000000000000 0.00000000000000000 0.00000000000000000 -1.00000000000000000 
1 6.28318530717958623 0.00000000000000000 0.00000000000000000 -1.00000000000000000 
Curves 32
1 -43.70000000000000284 84.70000000000000284 -45.50000000000000711 0.00000000000000000 0.00000000000000000 1.00000000000000000 
1 -43.70000000000000284 84.70000000000000284 0.00000000000000000 1.00000000000000000 0.00000000000000000 0.00000000000000000 
1 43.70000000000000284 84.70000000000000284 -45.50000000000000711 0.00000000000000000 0.00000000000000000 1.00000000000000000 
2 30.99999999999999645 20.10000000000005826 0.00000000000000000 0.00000000000000000 0.00000000000000000 1.00000000000000000 1.00000000000000000 0.00000000000000000 0.00000000000000000 0.00000000000000000 1.00000000000000000 0.00000000000000000 3.96875000000000000
2 -30.99999999999999645 20.10000000000005826 0.00000000000000000 0.00000000000000000 0.00000000000000000 1.00000000000000000 1.00000000000000000 0.00000000000000000 0.00000000000000000 0.00000000000000000 1.00000000000000000 0.00000000000000000 3.96875000000000000
2 30.99999999999999645 -20.10000000000005826 0.00000000000000000 0.00000000000000000 0.00000000000000000 1.00000000000000000 1.00000000000000000 0.00000000000000000 0.00000000000000000 0.00000000000000000 1.00000000000000000 0.00000000000000000 3.96875000000000000
2 -30.99999999999999645 -20.10000000000005826 0.00000000000000000 0.00000000000000000 0.00000000000000000 1.00000000000000000 1.00000000000000000 0.00000000000000000 0.00000000000000000 0.00000000000000000 1.00000000000000000 0.00000000000000000 3.96875000000000000
1 -43.70000000000000284 -84.70000000000000284 -45.50000000000000711 0.00000000000000000 0.00000000000000000 1.00000000000000000 
1 -43.70000000000000284 -84.70000000000000284 0.00000000000000000 0.00000000000000000 1.00000000000000000 0.00000000000000000 
2 -43.70000000000000284 -72.00000000000000000 32.80000000000005400 1.00000000000000000 -0.00000000000000022 0.00000000000000000 0.00000000000000022 1.00000000000000000 -0.00000000000000000 -0.00000000000000000 0.00000000000000000 1.00000000000000000 3.96875000000000000
2 -43.70000000000000284 72.00000000000002842 32.80000000000005400 1.00000000000000000 -0.00000000000000022 0.00000000000000000 0.00000000000000022 1.00000000000000000 -0.00000000000000000 -0.00000000000000000 0.00000000000000000 1.00000000000000000 3.96875000000000000
2 -43.70000000000000284 -72.00000000000000000 -32.80000000000005400 1.00000000000000000 -0.00000000000000022 0.00000000000000000 0.00000000000000022 1.00000000000000000 -0.00000000000000000 -0.00000000000000000 0.00000000000000000 1.00000000000000000 3.96875000000000000
2 -43.70000000000000284 72.00000000000002842 -32.80000000000005400 1.00000000000000000 -0.00000000000000022 0.00000000000000000 0.00000000000000022 1.00000000000000000 -0.00000000000000000 -0.00000000000000000 0.00000000000000000 1.00000000000000000 3.96875000000000000
1 43.70000000000000284 84.70000000000000284 0.00000000000000000 0.00000000000000000 -1.00000000000000000 0.00000000000000000 
1 43.70000000000000284 -84.70000000000000284 0.00000000000000000 -1.00000000000000000 0.00000000000000000 0.00000000000000000 
1 43.70000000000000284 -84.70000000000000284 -45.50000000000000711 0.00000000000000000 0.00000000000000000 1.00000000000000000 
2 72.00000000000001421 32.80000000000005400 0.00000000000000000 0.00000000000000000 0.00000000000000000 1.00000000000000000 1.00000000000000000 0.00000000000000000 0.00000000000000000 0.00000000000000000 1.00000000000000000 0.00000000000000000 3.96875000000000000
2 -72.00000000000001421 32.80000000000005400 0.00000000000000000 0.00000000000000000 0.00000000000000000 1.00000000000000000 1.00000000000000000 0.00000000000000000 0.00000000000000000 0.00000000000000000 1.00000000000000000 0.00000000000000000 3.96875000000000000
2 72.00000000000001421 -32.80000000000005400 0.00000000000000000 0.00000000000000000 0.00000000000000000 1.00000000000000000 1.00000000000000000 0.00000000000000000 0.00000000000000000 0.00000000000000000 1.00000000000000000 0.00000000000000000 3.96875000000000000
2 -72.00000000000001421 -32.80000000000005400 0.00000000000000000 0.00000000000000000 0.00000000000000000 1.00000000000000000 1.00000000000000000 0.00000000000000000 0.00000000000000000 0.00000000000000000 1.00000000000000000 0.00000000000000000 3.96875000000000000
1 -34.96875000000000000 84.70000000000000284 20.10000000000005826 0.00000000000000000 -1.00000000000000000 0.00000000000000000 
2 -30.99999999999999645 -84.70000000000000284 20.10000000000005826 0.00000000000000000 1.00000000000000000 -0.00000000000000000 -1.00000000000000000 0.00000000000000000 0.00000000000000000 0.00000000000000000 0.00000000000000000 1.00000000000000000 3.96875000000000000
1 27.03124999999999645 84.70000000000000284 20.10000000000005826 0.00000000000000000 -1.00000000000000000 0.00000000000000000 
2 30.99999999999999645 -84.70000000000000284 20.10000000000005826 0.00000000000000000 1.00000000000000000 -0.00000000000000000 -1.00000000000000000 0.00000000000000000 0.00000000000000000 0.00000000000000000 0.00000000000000000 1.00000000000000000 3.96875000000000000
1 -34.96875000000000000 84.70000000000000284 -20.10000000000005826 0.00000000000000000 -1.00000000000000000 0.00000000000000000 
2 -30.99999999999999645 -84.70000000000000284 -20.10000000000005826 0.00000000000000000 1.00000000000000000 -0.00000000000000000 -1.00000000000000000 0.00000000000000000 0.00000000000000000 0.00000000000000000 0.00000000000000000 1.00000000000000000 3.96875000000000000
1 27.03124999999999645 84.70000000000000284 -20.10000000000005826 0.00000000000000000 -1.00000000000000000 0.00000000000000000 
2 30.99999999999999645 -84.70000000000000284 -20.10000000000005826 0.00000000000000000 1.00000000000000000 -0.00000000000000000 -1.00000000000000000 0.00000000000000000 0.00000000000000000 0.00000000000000000 0.00000000000000000 1.00000000000000000 3.96875000000000000
1 43.69999999999998863 -68.03125000000001421 32.80000000000005400 -1.00000000000000000 0.00000000000000022 -0.00000000000000000 
1 43.70000000000001705 75.96875000000001421 32.80000000000005400 -1.00000000000000000 0.00000000000000022 -0.00000000000000000 
1 43.69999999999998863 -68.03125000000001421 -32.80000000000005400 -1.00000000000000000 0.00000000000000022 -0.00000000000000000 
1 43.70000000000001705 75.96875000000001421 -32.80000000000005400 -1.00000000000000000 0.00000000000000022 -0.00000000000000000 
Polygon3D 0
PolygonOnTriangulations 0
Surfaces 29
1 -43.70000000000000284 84.70000000000000284 -45.50000000000000711 0.00000000000000000 1.00000000000000000 0.00000000000000000 1.00000000000000000 0.00000000000000000 0.00000000000000000 0.00000000000000000 0.00000000000000000 -1.00000000000000000 
1 -43.70000000000000284 -84.70000000000000284 -45.50000000000000711 -1.00000000000000000 0.00000000000000000 0.00000000000000000 0.00000000000000000 1.00000000000000000 0.00000000000000000 0.00000000000000000 0.00000000000000000 -1.00000000000000000 
1 -43.70000000000000284 84.69999999999998863 -45.50000000000004263 0.00000000000000000 1.00000000000000000 -0.00000000000000044 1.00000000000000000 0.00000000000000000 0.00000000000000000 0.00000000000000000 -0.00000000000000044 -1.00000000000000000 
1 -43.70000000000000284 84.70000000000000284 -45.50000000000000711 0.00000000000000000 1.00000000000000000 0.00000000000000000 1.00000000000000000 0.00000000000000000 0.00000000000000000 0.00000000000000000 0.00000000000000000 -1.00000000000000000 
1 43.70000000000000284 84.70000000000000284 -45.50000000000000711 1.00000000000000000 0.00000000000000000 -0.00000000000000000 0.00000000000000000 -1.00000000000000000 0.00000000000000000 0.00000000000000000 -0.00000000000000000 -1.00000000000000000 
2 -30.99999999999999645 84.70000000000000284 20.10000000000005826 0.00000000000000000 1.00000000000000000 -0.00000000000000000 -1.00000000000000000 0.00000000000000000 0.00000000000000000 0.00000000000000000 0.00000000000000000 1.00000000000000000 3.96875000000000000
1 -30.99999999999999645 -20.10000000000007603 84.70000000000000284 0.00000000000000000 0.00000000000000000 1.00000000000000000 1.00000000000000000 0.00000000000000000 -0.00000000000000000 -0.00000000000000000 1.00000000000000000 0.00000000000000000 
2 30.99999999999999645 84.70000000000000284 20.10000000000005826 0.00000000000000000 1.00000000000000000 -0.00000000000000000 -1.00000000000000000 0.00000000000000000 0.00000000000000000 0.00000000000000000 0.00000000000000000 1.00000000000000000 3.96875000000000000
1 30.99999999999999645 -20.10000000000007248 84.69999999999998863 0.00000000000000000 0.00000000000000000 1.00000000000000000 0.00000000000000000 1.00000000000000000 -0.00000000000000000 -1.00000000000000000 0.00000000000000000 0.00000000000000000 
2 -30.99999999999999645 84.70000000000000284 -20.10000000000005826 0.00000000000000000 1.00000000000000000 -0.00000000000000000 -1.00000000000000000 0.00000000000000000 0.00000000000000000 0.00000000000000000 0.00000000000000000 1.00000000000000000 3.96875000000000000
1 -30.99999999999999645 20.10000000000004050 84.70000000000000284 0.00000000000000000 0.00000000000000000 1.00000000000000000 1.00000000000000000 0.00000000000000000 -0.00000000000000000 -0.00000000000000000 1.00000000000000000 0.00000000000000000 
2 30.99999999999999645 84.70000000000000284 -20.10000000000005826 0.00000000000000000 1.00000000000000000 -0.00000000000000000 -1.00000000000000000 0.00000000000000000 0.00000000000000000 0.00000000000000000 0.00000000000000000 1.00000000000000000 3.96875000000000000
1 30.99999999999999645 20.10000000000004050 84.69999999999998863 0.00000000000000000 -0.00000000000000000 1.00000000000000000 0.00000000000000000 1.00000000000000000 0.00000000000000000 -1.00000000000000000 -0.00000000000000000 0.00000000000000000 
1 43.70000000000000284 -84.70000000000000284 -45.50000000000000711 0.00000000000000000 -1.00000000000000000 0.00000000000000000 -1.00000000000000000 0.00000000000000000 0.00000000000000000 -0.00000000000000000 -0.00000000000000000 -1.00000000000000000 
1 -43.70000000000000284 -84.70000000000001705 -45.49999999999997158 -1.00000000000000000 0.00000000000000000 0.00000000000000000 0.00000000000000000 1.00000000000000000 -0.00000000000000044 -0.00000000000000000 -0.00000000000000044 -1.00000000000000000 
1 -43.70000000000000284 -84.70000000000000284 -45.50000000000000711 -1.00000000000000000 0.00000000000000000 0.00000000000000000 0.00000000000000000 1.00000000000000000 0.00000000000000000 0.00000000000000000 0.00000000000000000 -1.00000000000000000 
2 43.69999999999998863 -72.00000000000001421 32.80000000000005400 1.00000000000000000 -0.00000000000000022 0.00000000000000000 0.00000000000000022 1.00000000000000000 -0.00000000000000000 -0.00000000000000000 0.00000000000000000 1.00000000000000000 3.96875000000000000
2 43.70000000000001705 72.00000000000001421 32.80000000000005400 1.00000000000000000 -0.00000000000000022 0.00000000000000000 0.00000000000000022 1.00000000000000000 -0.00000000000000000 -0.00000000000000000 0.00000000000000000 1.00000000000000000 3.96875000000000000
2 43.69999999999998863 -72.00000000000001421 -32.80000000000005400 1.00000000000000000 -0.00000000000000022 0.00000000000000000 0.00000000000000022 1.00000000000000000 -0.00000000000000000 -0.00000000000000000 0.00000000000000000 1.00000000000000000 3.96875000000000000
2 43.70000000000001705 72.00000000000001421 -32.80000000000005400 1.00000000000000000 -0.00000000000000022 0.00000000000000000 0.00000000000000022 1.00000000000000000 -0.00000000000000000 -0.00000000000000000 0.00000000000000000 1.00000000000000000 3.96875000000000000
1 0.00000000000000000 0.00000000000000000 0.00000000000000000 0.00000000000000000 1.00000000000000000 0.00000000000000022 0.00000000000000000 -0.00000000000000022 1.00000000000000000 1.00000000000000000 0.00000000000000000 -0.00000000000000000 
1 43.70000000000000284 84.69999999999998863 -45.50000000000004263 1.00000000000000000 0.00000000000000000 -0.00000000000000000 0.00000000000000000 -1.00000000000000000 0.00000000000000044 0.00000000000000000 -0.00000000000000044 -1.00000000000000000 
1 43.70000000000000284 84.70000000000000284 -45.50000000000000711 1.00000000000000000 0.00000000000000000 -0.00000000000000000 0.00000000000000000 -1.00000000000000000 0.00000000000000000 0.00000000000000000 -0.00000000000000000 -1.00000000000000000 
1 43.70000000000000284 -84.70000000000001705 -45.49999999999997158 0.00000000000000000 -1.00000000000000000 0.00000000000000044 -1.00000000000000000 0.00000000000000000 0.00000000000000000 -0.00000000000000000 -0.00000000000000044 -1.00000000000000000 
1 43.70000000000000284 -84.70000000000000284 -45.50000000000000711 0.00000000000000000 -1.00000000000000000 0.00000000000000000 -1.00000000000000000 0.00000000000000000 0.00000000000000000 -0.00000000000000000 -0.00000000000000000 -1.00000000000000000 
1 43.70000000000002416 -32.80000000000007532 72.00000000000001421 1.00000000000000000 0.00000000000000000 -0.00000000000000000 0.00000000000000000 0.00000000000000000 1.00000000000000000 0.00000000000000000 -1.00000000000000000 -0.00000000000000000 
1 43.69999999999998153 -32.80000000000003979 -72.00000000000001421 1.00000000000000000 -0.00000000000000000 0.00000000000000000 -0.00000000000000000 0.00000000000000000 1.00000000000000000 -0.00000000000000000 -1.00000000000000000 -0.00000000000000000 
1 43.70000000000002416 32.80000000000003979 72.00000000000002842 1.00000000000000000 -0.00000000000000000 -0.00000000000000000 0.00000000000000000 0.00000000000000000 1.00000000000000000 -0.00000000000000000 -1.00000000000000000 0.00000000000000000 
1 43.69999999999998153 32.80000000000006111 -72.00000000000001421 1.00000000000000000 -0.00000000000000000 -0.00000000000000000 0.00000000000000000 0.00000000000000000 1.00000000000000000 -0.00000000000000000 -1.00000000000000000 0.00000000000000000 
Triangulations 0

TShapes 96
Ve
0.000000100000000
-43.700000000000003 84.700000000000003 0.000000000000000
0 0

0101101
*
Ed
 0.000000100000000 1 1 0
1  1 0 0.000000000000000 91.000000000000014
2  1 1 0 0.000000000000000 91.000000000000014
2  2 2 0 0.000000000000000 91.000000000000014
0

0101000
+96 12 -96 14 *
Ve
0.000000100000000
43.700000000000003 84.700000000000003 0.000000000000000
0 0

0101101
*
Ed
 0.000000100000000 1 1 0
1  2 0 0.000000000000000 87.400000000000006
2  3 3 20 0.000000000000000 87.400000000000006
2  4 3 22 0.000000000000000 87.400000000000006
2  5 4 27 0.000000000000000 87.400000000000006
2  6 4 29 0.000000000000000 87.400000000000006
2  7 1 30 0.000000000000000 87.400000000000006
2  8 1 31 0.000000000000000 87.400000000000006
0

0101000
+96 0 -94 0 *
Ed
 0.000000100000000 1 1 0
1  3 0 0.000000000000000 91.000000000000014
2  9 1 0 0.000000000000000 91.000000000000014
2  10 5 0 0.000000000000000 91.000000000000014
0

0101000
+94 12 -94 14 *
Wi

0101100
+95 7 -93 15 +93 32 -92 7 *
Ve
0.000000100000000
34.968750000000000 20.100000000000058 0.000000000000000
0 0

0101101
*
Ed
 0.000000100000000 1 1 0
1  4 0 0.000000000000000 6.283185307179586
2  11 6 36 0.000000000000000 6.283185307179586
2  12 6 38 0.000000000000000 6.283185307179586
2  13 7 39 0.000000000000000 6.283185307179586
2  14 1 40 0.000000000000000 6.283185307179586
0

0101000
+90 0 -90 0 *
Wi

0101100
-89 35 *
Ve
0.000000100000000
-27.031249999999996 20.100000000000058 0.000000000000000
0 0

0101101
*
Ed
 0.000000100000000 1 1 0
1  5 0 0.000000000000000 6.283185307179586
2  15 8 36 0.000000000000000 6.283185307179586
2  16 8 38 0.000000000000000 6.283185307179586
2  17 9 39 0.000000000000000 6.283185307179586
2  18 1 40 0.000000000000000 6.283185307179586
0

0101000
+87 0 -87 0 *
Wi

0101100
-86 35 *
Ve
0.000000100000000
34.968750000000000 -20.100000000000058 0.000000000000000
0 0

0101101
*
Ed
 0.000000100000000 1 1 0
1  6 0 0.000000000000000 6.283185307179586
2  19 10 36 0.000000000000000 6.283185307179586
2  20 10 38 0.000000000000000 6.283185307179586
2  21 11 39 0.000000000000000 6.283185307179586
2  22 1 40 0.000000000000000 6.283185307179586
0

0101000
+84 0 -84 0 *
Wi

0101100
-83 35 *
Ve
0.000000100000000
-27.031249999999996 -20.100000000000058 0.000000000000000
0 0

0101101
*
Ed
 0.000000100000000 1 1 0
1  7 0 0.000000000000000 6.283185307179586
2  23 12 36 0.000000000000000 6.283185307179586
2  24 12 38 0.000000000000000 6.283185307179586
2  25 13 39 0.000000000000000 6.283185307179586
2  26 1 40 0.000000000000000 6.283185307179586
0

0101000
+81 0 -81 0 *
Wi

0101100
-80 35 *
Fa
0  0.000000100000000 1 7

0111000
+91 0 +88 0 +85 0 +82 0 +79 0 *
Ve
0.000000100000000
-43.700000000000003 -84.700000000000003 0.000000000000000
0 0

0101101
*
Ed
 0.000000100000000 1 1 0
1  8 0 0.000000000000000 91.000000000000014
2  27 14 0 0.000000000000000 91.000000000000014
2  28 2 0 0.000000000000000 91.000000000000014
0

0101000
+77 12 -77 14 *
Ed
 0.000000100000000 1 1 0
1  9 0 0.000000000000000 169.400000000000006
2  29 15 20 0.000000000000000 169.400000000000006
2  30 15 22 0.000000000000000 169.400000000000006
2  31 16 27 0.000000000000000 169.400000000000006
2  32 16 29 0.000000000000000 169.400000000000006
2  33 2 30 0.000000000000000 169.400000000000006
2  34 2 31 0.000000000000000 169.400000000000006
0

0101000
+77 0 -96 0 *
Wi

0101100
+76 41 -75 42 +75 43 -95 41 *
Ve
0.000000100000000
-43.700000000000003 -68.031250000000000 32.800000000000054
0 0

0101101
*
Ed
 0.000000100000000 1 1 0
1  10 0 0.000000000000000 6.283185307179586
2  35 2 41 0.000000000000000 6.283185307179586
2  36 17 0 0.000000000000000 6.283185307179586
0

0101000
+73 0 -73 0 *
Wi

0101100
+72 0 *
Ve
0.000000100000000
-43.700000000000003 75.968750000000028 32.800000000000054
0 0

0101101
*
Ed
 0.000000100000000 1 1 0
1  11 0 0.000000000000000 6.283185307179586
2  37 2 41 0.000000000000000 6.283185307179586
2  38 18 0 0.000000000000000 6.283185307179586
0

0101000
+70 0 -70 0 *
Wi

0101100
+69 0 *
Ve
0.000000100000000
-43.700000000000003 -68.031250000000000 -32.800000000000054
0 0

0101101
*
Ed
 0.000000100000000 1 1 0
1  12 0 0.000000000000000 6.283185307179586
2  39 2 41 0.000000000000000 6.283185307179586
2  40 19 0 0.000000000000000 6.283185307179586
0

0101000
+67 0 -67 0 *
Wi

0101100
+66 0 *
Ve
0.000000100000000
-43.700000000000003 75.968750000000028 -32.800000000000054
0 0

0101101
*
Ed
 0.000000100000000 1 1 0
1  13 0 0.000000000000000 6.283185307179586
2  41 2 41 0.000000000000000 6.283185307179586
2  42 20 0 0.000000000000000 6.283185307179586
0

0101000
+64 0 -64 0 *
Wi

0101100
+63 0 *
Fa
0  0.000000100000000 2 41

0101000
+74 0 +71 0 +68 0 +65 0 +62 0 *
Ve
0.000000100000000
43.700000000000003 -84.700000000000003 0.000000000000000
0 0

0101101
*
Ed
 0.000000100000000 1 1 0
1  14 0 0.000000000000000 169.400000000000006
2  43 22 20 0.000000000000000 169.400000000000006
2  44 22 22 0.000000000000000 169.400000000000006
2  45 23 27 0.000000000000000 169.400000000000006
2  46 23 29 0.000000000000000 169.400000000000006
2  47 5 30 0.000000000000000 169.400000000000006
2  48 5 31 0.000000000000000 169.400000000000006
0

0101000
+94 0 -60 0 *
Ed
 0.000000100000000 1 1 0
1  15 0 0.000000000000000 87.400000000000006
2  49 24 20 0.000000000000000 87.400000000000006
2  50 24 22 0.000000000000000 87.400000000000006
2  51 25 27 0.000000000000000 87.400000000000006
2  52 25 29 0.000000000000000 87.400000000000006
2  53 14 30 0.000000000000000 87.400000000000006
2  54 14 31 0.000000000000000 87.400000000000006
0

0101000
+60 0 -77 0 *
Wi

0101100
+93 0 +59 0 +58 0 +75 0 *
Fa
0  0.000000100000000 21 0

0111000
+57 45 *
Ed
 0.000000100000000 1 1 0
1  16 0 0.000000000000000 91.000000000000014
2  55 14 0 0.000000000000000 91.000000000000014
2  56 5 0 0.000000000000000 91.000000000000014
0

0101000
+60 12 -60 14 *
Wi

0101100
+92 41 -59 42 +59 43 -55 41 *
Ve
0.000000100000014
75.968750000000014 32.800000000000054 0.000000000000000
0 0

0101101
*
Ed
 0.000000100000014 1 1 0
1  17 0 0.000000000000000 6.283185307179586
2  57 18 50 0.000000000000000 6.283185307179586
2  58 18 52 0.000000000000000 6.283185307179586
2  59 26 53 0.000000000000000 6.283185307179586
2  60 5 54 0.000000000000000 6.283185307179586
0

0101000
+53 0 -53 0 *
Wi

0101100
-52 49 *
Ve
0.000000100000014
-68.031250000000014 32.800000000000054 0.000000000000000
0 0

0101101
*
Ed
 0.000000100000014 1 1 0
1  18 0 0.000000000000000 6.283185307179586
2  61 17 50 0.000000000000000 6.283185307179586
2  62 17 52 0.000000000000000 6.283185307179586
2  63 27 53 0.000000000000000 6.283185307179586
2  64 5 54 0.000000000000000 6.283185307179586
0

0101000
+50 0 -50 0 *
Wi

0101100
-49 49 *
Ve
0.000000100000014
75.968750000000014 -32.800000000000054 0.000000000000000
0 0

0101101
*
Ed
 0.000000100000014 1 1 0
1  19 0 0.000000000000000 6.283185307179586
2  65 20 50 0.000000000000000 6.283185307179586
2  66 20 52 0.000000000000000 6.283185307179586
2  67 28 53 0.000000000000000 6.283185307179586
2  68 5 54 0.000000000000000 6.283185307179586
0

0101000
+47 0 -47 0 *
Wi

0101100
-46 49 *
Ve
0.000000100000014
-68.031250000000014 -32.800000000000054 0.000000000000000
0 0

0101101
*
Ed
 0.000000100000014 1 1 0
1  20 0 0.000000000000000 6.283185307179586
2  69 19 50 0.000000000000000 6.283185307179586
2  70 19 52 0.000000000000000 6.283185307179586
2  71 29 53 0.000000000000000 6.283185307179586
2  72 5 54 0.000000000000000 6.283185307179586
0

0101000
+44 0 -44 0 *
Wi

0101100
-43 49 *
Fa
0  0.000000100000000 5 41

0101000
+54 0 +51 0 +48 0 +45 0 +42 0 *
Ve
0.000000100000000
-34.968750000000000 -84.700000000000003 20.100000000000058
0 0

0101101
*
Ed
 0.000000100000000 1 1 0
1  21 0 0.000000000000000 169.400000000000006
3  73 74CN 6 0 0.000000000000000 169.400000000000006
0

0101000
+90 35 -40 0 *
Ed
 0.000000100000000 1 1 0
1  22 0 0.000000000000000 6.283185307179586
2  75 14 7 0.000000000000000 6.283185307179586
2  76 6 0 0.000000000000000 6.283185307179586
0

0101000
+40 0 -40 0 *
Wi

0101100
-89 35 -39 0 +38 0 +39 0 *
Fa
0  0.000000100000000 6 0

0111000
+37 0 *
Ve
0.000000100000000
27.031249999999996 -84.700000000000003 20.100000000000058
0 0

0101101
*
Ed
 0.000000100000000 1 1 0
1  23 0 0.000000000000000 169.400000000000006
3  77 78CN 8 0 0.000000000000000 169.400000000000006
0

0101000
+87 35 -35 0 *
Ed
 0.000000100000000 1 1 0
1  24 0 0.000000000000000 6.283185307179586
2  79 14 7 0.000000000000000 6.283185307179586
2  80 8 0 0.000000000000000 6.283185307179586
0

0101000
+35 0 -35 0 *
Wi

0101100
-86 35 -34 0 +33 0 +34 0 *
Fa
0  0.000000100000000 8 0

0111000
+32 0 *
Ve
0.000000100000000
-34.968750000000000 -84.700000000000003 -20.100000000000058
0 0

0101101
*
Ed
 0.000000100000000 1 1 0
1  25 0 0.000000000000000 169.400000000000006
3  81 82CN 10 0 0.000000000000000 169.400000000000006
0

0101000
+84 35 -30 0 *
Ed
 0.000000100000000 1 1 0
1  26 0 0.000000000000000 6.283185307179586
2  83 14 7 0.000000000000000 6.283185307179586
2  84 10 0 0.000000000000000 6.283185307179586
0

0101000
+30 0 -30 0 *
Wi

0101100
-83 35 -29 0 +28 0 +29 0 *
Fa
0  0.000000100000000 10 0

0111000
+27 0 *
Ve
0.000000100000000
27.031249999999996 -84.700000000000003 -20.100000000000058
0 0

0101101
*
Ed
 0.000000100000000 1 1 0
1  27 0 0.000000000000000 169.400000000000006
3  85 86CN 12 0 0.000000000000000 169.400000000000006
0

0101000
+81 35 -25 0 *
Ed
 0.000000100000000 1 1 0
1  28 0 0.000000000000000 6.283185307179586
2  87 14 7 0.000000000000000 6.283185307179586
2  88 12 0 0.000000000000000 6.283185307179586
0

0101000
+25 0 -25 0 *
Wi

0101100
-80 35 -24 0 +23 0 +24 0 *
Fa
0  0.000000100000000 12 0

0111000
+22 0 *
Wi

0101100
+55 7 -58 15 +58 32 -76 7 *
Wi

0101100
+33 0 *
Wi

0101100
+38 0 *
Wi

0101100
+23 0 *
Wi

0101100
+28 0 *
Fa
0  0.000000100000000 14 7

0111000
+20 0 +19 0 +18 0 +17 0 +16 0 *
Ed
 0.000000100000000 1 1 0
1  29 0 0.000000000000000 87.399999999999991
3  89 90CN 17 0 0.000000000000000 87.399999999999991
0

0101000
+50 49 -73 0 *
Wi

0101100
-49 49 -14 0 +72 0 +14 0 *
Fa
0  0.000000100000000 17 0

0101000
+13 0 *
Ed
 0.000000100000000 1 1 0
1  30 0 0.000000000000000 87.400000000000020
3  91 92CN 18 0 0.000000000000000 87.400000000000020
0

0101000
+53 49 -70 0 *
Wi

0101100
-52 49 -11 0 +69 0 +11 0 *
Fa
0  0.000000100000000 18 0

0101000
+10 0 *
Ed
 0.000000100000000 1 1 0
1  31 0 0.000000000000000 87.399999999999991
3  93 94CN 19 0 0.000000000000000 87.399999999999991
0

0101000
+44 49 -67 0 *
Wi

0101100
-43 49 -8 0 +66 0 +8 0 *
Fa
0  0.000000100000000 19 0

0101000
+7 0 *
Ed
 0.000000100000000 1 1 0
1  32 0 0.000000000000000 87.400000000000020
3  95 96CN 20 0 0.000000000000000 87.400000000000020
0

0101000
+47 49 -64 0 *
Wi

0101100
-46 49 -5 0 +63 0 +5 0 *
Fa
0  0.000000100000000 20 0

0101000
+4 0 *
Sh

0101100
+78 4 +61 0 +56 44 -56 46 +41 0 -36 4 -31 4 -26 4 -21 4 +15 4 
-12 0 -9 0 -6 0 -3 0 *
So

0100000
+2 0 *

+1 1 