
CASCADE Topology V1, (c) Matra-Datavision
Locations 27
1
1.000000000000000 0.000000000000000 0.000000000000000 0.000000000000000 
0.000000000000000 -0.000000000000000 -1.000000000000000 0.000000000000000 
0.000000000000000 1.000000000000000 -0.000000000000000 0.000000000000000 
1
1.000000000000000 0.000000000000000 0.000000000000000 0.000000000000000 
0.000000000000000 1.000000000000000 0.000000000000000 0.000000000000000 
0.000000000000000 0.000000000000000 1.000000000000000 0.000000000000000 
1
1.000000000000000 0.000000000000000 0.000000000000000 0.000000000000000 
0.000000000000000 -0.000000000000000 -1.000000000000000 0.000000000000000 
0.000000000000000 1.000000000000000 -0.000000000000000 0.000000000000000 
1
1.000000000000000 0.000000000000000 0.000000000000000 0.000000000000000 
0.000000000000000 -0.000000000000000 -1.000000000000000 0.000000000000000 
0.000000000000000 1.000000000000000 -0.000000000000000 0.000000000000000 
1
1.000000000000000 0.000000000000000 0.000000000000000 -0.000000000000000 
0.000000000000000 1.000000000000000 0.000000000000000 -0.000000000000000 
0.000000000000000 0.000000000000000 1.000000000000000 -45.500000000000007 
2  2 1 3 1 4 -1 5 1 0
1
1.000000000000000 0.000000000000000 0.000000000000000 0.000000000000000 
0.000000000000000 1.000000000000000 0.000000000000000 0.000000000000000 
0.000000000000000 0.000000000000000 1.000000000000000 91.000000000000014 
2  2 1 3 1 4 -1 5 1 7 1 0
1
1.000000000000000 0.000000000000000 0.000000000000000 -0.000000000000000 
0.000000000000000 1.000000000000000 0.000000000000000 -0.000000000000020 
0.000000000000000 0.000000000000000 1.000000000000000 -45.500000000000007 
1
1.000000000000000 0.000000000000000 0.000000000000000 0.000000000000000 
0.000000000000000 -0.000000000000000 -1.000000000000000 0.000000000000000 
0.000000000000000 1.000000000000000 -0.000000000000000 0.000000000000000 
1
1.000000000000000 0.000000000000000 0.000000000000000 0.000000000000000 
0.000000000000000 0.000000000000000 -1.000000000000000 0.000000000000000 
0.000000000000000 1.000000000000000 0.000000000000000 0.000000000000000 
1
1.000000000000000 0.000000000000000 0.000000000000000 0.000000000000000 
0.000000000000000 1.000000000000000 0.000000000000000 0.000000000000000 
0.000000000000000 0.000000000000000 1.000000000000000 0.000000000000000 
2  9 -1 10 1 11 -1 12 -1 0
1
1.000000000000000 0.000000000000000 0.000000000000000 0.000000000000000 
0.000000000000000 1.000000000000000 0.000000000000000 0.000000000000040 
0.000000000000000 0.000000000000000 1.000000000000000 91.000000000000014 
2  14 -1 9 -1 10 1 11 -1 12 -1 0
1
1.000000000000000 0.000000000000000 0.000000000000000 -0.000000000000000 
0.000000000000000 1.000000000000000 0.000000000000000 -0.000000000000000 
0.000000000000000 0.000000000000000 1.000000000000000 -45.500000000000007 
1
1.000000000000000 0.000000000000000 0.000000000000000 0.000000000000000 
0.000000000000000 -0.000000000000000 -1.000000000000000 0.000000000000000 
0.000000000000000 1.000000000000000 -0.000000000000000 0.000000000000000 
1
1.000000000000000 0.000000000000000 0.000000000000000 0.000000000000000 
0.000000000000000 -0.000000000000000 -1.000000000000000 0.000000000000000 
0.000000000000000 1.000000000000000 -0.000000000000000 0.000000000000000 
1
1.000000000000000 0.000000000000000 0.000000000000000 0.000000000000000 
0.000000000000000 1.000000000000000 0.000000000000000 0.000000000000000 
0.000000000000000 0.000000000000000 1.000000000000000 0.000000000000000 
2  16 -1 17 1 18 -1 19 -1 0
1
1.000000000000000 0.000000000000000 0.000000000000000 0.000000000000000 
0.000000000000000 1.000000000000000 0.000000000000000 0.000000000000000 
0.000000000000000 0.000000000000000 1.000000000000000 91.000000000000014 
2  21 -1 16 -1 17 1 18 -1 19 -1 0
2  5 -1 4 1 3 -1 2 -1 0
2  7 -1 5 -1 4 1 3 -1 2 -1 0
2  4 -1 5 1 0
2  2 1 3 1 0
2  4 -1 5 1 7 1 0
Curve2ds 32
1 0.00000000000000000 0.00000000000000000 0.00000000000000000 -1.00000000000000000 
1 169.40000000000000568 0.00000000000000000 0.00000000000000000 -1.00000000000000000 
1 87.40000000000000568 0.00000000000000000 0.00000000000000000 -1.00000000000000000 
1 0.00000000000000000 0.00000000000000000 0.00000000000000000 -1.00000000000000000 
1 0.00000000000000000 0.00000000000000000 1.00000000000000000 0.00000000000000000 
1 0.00000000000000000 -91.00000000000001421 1.00000000000000000 0.00000000000000000 
1 0.00000000000000000 0.00000000000000000 1.00000000000000000 0.00000000000000000 
1 0.00000000000000000 -91.00000000000001421 1.00000000000000000 0.00000000000000000 
1 0.00000000000000000 0.00000000000000000 1.00000000000000000 0.00000000000000000 
1 0.00000000000000000 -91.00000000000001421 1.00000000000000000 0.00000000000000000 
1 0.00000000000000000 -0.00000000000000000 0.00000000000000000 -1.00000000000000000 
1 169.40000000000000568 0.00000000000000000 0.00000000000000000 -1.00000000000000000 
1 0.00000000000000000 0.00000000000000000 1.00000000000000000 0.00000000000000000 
1 0.00000000000001199 -91.00000000000001421 1.00000000000000000 0.00000000000000000 
1 0.00000000000000000 0.00000000000000000 1.00000000000000000 0.00000000000000000 
1 0.00000000000000000 -91.00000000000001421 1.00000000000000000 0.00000000000000000 
1 0.00000000000000000 0.00000000000000000 1.00000000000000000 0.00000000000000000 
1 0.00000000000000000 -91.00000000000001421 1.00000000000000000 0.00000000000000000 
1 87.40000000000000568 0.00000000000000000 0.00000000000000000 -1.00000000000000000 
1 0.00000000000000000 0.00000000000000000 0.00000000000000000 -1.00000000000000000 
1 0.00000000000000000 -0.00000000000000000 1.00000000000000000 0.00000000000000000 
1 0.00000000000000000 -91.00000000000001421 1.00000000000000000 0.00000000000000000 
1 0.00000000000000000 -0.00000000000000000 1.00000000000000000 0.00000000000000000 
1 0.00000000000000000 -91.00000000000001421 1.00000000000000000 0.00000000000000000 
1 0.00000000000000000 -0.00000000000000000 1.00000000000000000 0.00000000000000000 
1 0.00000000000000000 -91.00000000000001421 1.00000000000000000 0.00000000000000000 
1 0.00000000000000000 -0.00000000000000000 1.00000000000000000 0.00000000000000000 
1 -0.00000000000001199 -91.00000000000001421 1.00000000000000000 0.00000000000000000 
1 0.00000000000000000 0.00000000000000000 1.00000000000000000 0.00000000000000000 
1 0.00000000000000000 -91.00000000000001421 1.00000000000000000 0.00000000000000000 
1 0.00000000000000000 0.00000000000000000 1.00000000000000000 0.00000000000000000 
1 0.00000000000000000 -91.00000000000001421 1.00000000000000000 0.00000000000000000 
Curves 8
1 -43.70000000000000284 84.70000000000000284 -45.50000000000000711 0.00000000000000000 0.00000000000000000 1.00000000000000000 
1 43.70000000000000284 84.70000000000000284 -45.50000000000000711 0.00000000000000000 0.00000000000000000 1.00000000000000000 
1 -43.70000000000000284 84.70000000000000284 0.00000000000000000 1.00000000000000000 0.00000000000000000 0.00000000000000000 
1 43.70000000000000284 -84.70000000000000284 -45.50000000000000711 0.00000000000000000 0.00000000000000000 1.00000000000000000 
1 43.70000000000000284 84.70000000000000284 0.00000000000000000 0.00000000000000000 -1.00000000000000000 0.00000000000000000 
1 -43.70000000000000284 -84.70000000000000284 -45.50000000000000711 0.00000000000000000 0.00000000000000000 1.00000000000000000 
1 43.70000000000000284 -84.70000000000000284 0.00000000000000000 -1.00000000000000000 0.00000000000000000 0.00000000000000000 
1 -43.70000000000000284 -84.70000000000000284 0.00000000000000000 0.00000000000000000 1.00000000000000000 0.00000000000000000 
Polygon3D 0
PolygonOnTriangulations 0
Surfaces 13
1 -43.70000000000000284 84.70000000000000284 -45.50000000000000711 0.00000000000000000 1.00000000000000000 0.00000000000000000 1.00000000000000000 0.00000000000000000 0.00000000000000000 0.00000000000000000 0.00000000000000000 -1.00000000000000000 
1 -43.70000000000000284 -84.70000000000000284 -45.50000000000000711 -1.00000000000000000 0.00000000000000000 0.00000000000000000 0.00000000000000000 1.00000000000000000 0.00000000000000000 0.00000000000000000 0.00000000000000000 -1.00000000000000000 
1 43.70000000000000284 84.70000000000000284 -45.50000000000000711 1.00000000000000000 0.00000000000000000 -0.00000000000000000 0.00000000000000000 -1.00000000000000000 0.00000000000000000 0.00000000000000000 -0.00000000000000000 -1.00000000000000000 
1 -43.70000000000000284 84.69999999999998863 -45.50000000000004263 0.00000000000000000 1.00000000000000000 -0.00000000000000044 1.00000000000000000 0.00000000000000000 0.00000000000000000 0.00000000000000000 -0.00000000000000044 -1.00000000000000000 
1 -43.70000000000000284 84.70000000000000284 -45.50000000000000711 0.00000000000000000 1.00000000000000000 0.00000000000000000 1.00000000000000000 0.00000000000000000 0.00000000000000000 0.00000000000000000 0.00000000000000000 -1.00000000000000000 
1 43.70000000000000284 -84.70000000000000284 -45.50000000000000711 0.00000000000000000 -1.00000000000000000 0.00000000000000000 -1.00000000000000000 0.00000000000000000 0.00000000000000000 -0.00000000000000000 -0.00000000000000000 -1.00000000000000000 
1 43.70000000000000284 84.69999999999998863 -45.50000000000004263 1.00000000000000000 0.00000000000000000 -0.00000000000000000 0.00000000000000000 -1.00000000000000000 0.00000000000000044 0.00000000000000000 -0.00000000000000044 -1.00000000000000000 
1 43.70000000000000284 84.70000000000000284 -45.50000000000000711 1.00000000000000000 0.00000000000000000 -0.00000000000000000 0.00000000000000000 -1.00000000000000000 0.00000000000000000 0.00000000000000000 -0.00000000000000000 -1.00000000000000000 
1 43.70000000000000284 -84.70000000000001705 -45.49999999999997158 0.00000000000000000 -1.00000000000000000 0.00000000000000044 -1.00000000000000000 0.00000000000000000 0.00000000000000000 -0.00000000000000000 -0.00000000000000044 -1.00000000000000000 
1 43.70000000000000284 -84.70000000000000284 -45.50000000000000711 0.00000000000000000 -1.00000000000000000 0.00000000000000000 -1.00000000000000000 0.00000000000000000 0.00000000000000000 -0.00000000000000000 -0.00000000000000000 -1.00000000000000000 
1 -43.70000000000000284 -84.70000000000001705 -45.49999999999997158 -1.00000000000000000 0.00000000000000000 0.00000000000000000 0.00000000000000000 1.00000000000000000 -0.00000000000000044 -0.00000000000000000 -0.00000000000000044 -1.00000000000000000 
1 -43.70000000000000284 -84.70000000000000284 -45.50000000000000711 -1.00000000000000000 0.00000000000000000 0.00000000000000000 0.00000000000000000 1.00000000000000000 0.00000000000000000 0.00000000000000000 0.00000000000000000 -1.00000000000000000 
1 0.00000000000000000 0.00000000000000000 0.00000000000000000 0.00000000000000000 1.00000000000000000 0.00000000000000022 0.00000000000000000 -0.00000000000000022 1.00000000000000000 1.00000000000000000 0.00000000000000000 -0.00000000000000000 
Triangulations 0

TShapes 24
Ve
0.000000100000000
-43.700000000000003 84.700000000000003 0.000000000000000
0 0

0101101
*
Ed
 0.000000100000000 1 1 0
1  1 0 0.000000000000000 91.000000000000014
2  1 1 0 0.000000000000000 91.000000000000014
2  2 2 0 0.000000000000000 91.000000000000014
0

0101000
+24 6 -24 8 *
Ve
0.000000100000000
43.700000000000003 84.700000000000003 0.000000000000000
0 0

0101101
*
Ed
 0.000000100000000 1 1 0
1  2 0 0.000000000000000 91.000000000000014
2  3 1 0 0.000000000000000 91.000000000000014
2  4 3 0 0.000000000000000 91.000000000000014
0

0101000
+22 6 -22 8 *
Ed
 0.000000100000000 1 1 0
1  3 0 0.000000000000000 87.400000000000006
2  5 4 13 0.000000000000000 87.400000000000006
2  6 4 15 0.000000000000000 87.400000000000006
2  7 5 20 0.000000000000000 87.400000000000006
2  8 5 22 0.000000000000000 87.400000000000006
2  9 1 23 0.000000000000000 87.400000000000006
2  10 1 24 0.000000000000000 87.400000000000006
0

0101000
+24 0 -22 0 *
Wi

0101100
+23 0 -21 0 -20 6 +20 8 *
Fa
0  0.000000100000000 1 0

0101000
+19 0 *
Ve
0.000000100000000
43.700000000000003 -84.700000000000003 0.000000000000000
0 0

0101101
*
Ed
 0.000000100000000 1 1 0
1  4 0 0.000000000000000 91.000000000000014
2  11 6 0 0.000000000000000 91.000000000000014
2  12 3 0 0.000000000000000 91.000000000000014
0

0101000
+17 6 -17 8 *
Ed
 0.000000100000000 1 1 0
1  5 0 0.000000000000000 169.400000000000006
2  13 7 13 0.000000000000000 169.400000000000006
2  14 7 15 0.000000000000000 169.400000000000006
2  15 8 20 0.000000000000000 169.400000000000006
2  16 8 22 0.000000000000000 169.400000000000006
2  17 3 23 0.000000000000000 169.400000000000006
2  18 3 24 0.000000000000000 169.400000000000006
0

0101000
+22 0 -17 0 *
Wi

0101100
+21 0 -16 0 -15 6 +15 8 *
Fa
0  0.000000100000000 3 0

0111000
+14 0 *
Ve
0.000000100000000
-43.700000000000003 -84.700000000000003 0.000000000000000
0 0

0101101
*
Ed
 0.000000100000000 1 1 0
1  6 0 0.000000000000000 91.000000000000014
2  19 6 0 0.000000000000000 91.000000000000014
2  20 2 0 0.000000000000000 91.000000000000014
0

0101000
+12 6 -12 8 *
Ed
 0.000000100000000 1 1 0
1  7 0 0.000000000000000 87.400000000000006
2  21 9 13 0.000000000000000 87.400000000000006
2  22 9 15 0.000000000000000 87.400000000000006
2  23 10 20 0.000000000000000 87.400000000000006
2  24 10 22 0.000000000000000 87.400000000000006
2  25 6 23 0.000000000000000 87.400000000000006
2  26 6 24 0.000000000000000 87.400000000000006
0

0101000
+17 0 -12 0 *
Wi

0101100
+16 0 -11 0 -10 6 +10 8 *
Fa
0  0.000000100000000 6 0

0101000
+9 0 *
Ed
 0.000000100000000 1 1 0
1  8 0 0.000000000000000 169.400000000000006
2  27 11 13 0.000000000000000 169.400000000000006
2  28 11 15 0.000000000000000 169.400000000000006
2  29 12 20 0.000000000000000 169.400000000000006
2  30 12 22 0.000000000000000 169.400000000000006
2  31 2 23 0.000000000000000 169.400000000000006
2  32 2 24 0.000000000000000 169.400000000000006
0

0101000
+12 0 -24 0 *
Wi

0101100
+11 0 -23 0 -7 6 +7 8 *
Fa
0  0.000000100000000 2 0

0111000
+6 0 *
Wi

0101100
+20 0 +15 0 +10 0 +7 0 *
Fa
0  0.000000100000000 13 0

0111000
+4 26 *
Sh

0101100
+18 0 +13 0 +8 0 +5 0 +3 25 -3 27 *
So

1100000
+2 0 *

+1 1 