
CASCADE Topology V1, (c) Matra-Datavision
Locations 40
1
1.000000000000000 0.000000000000000 0.000000000000000 0.000000000000000 
0.000000000000000 -0.000000000000000 -1.000000000000000 0.000000000000000 
0.000000000000000 1.000000000000000 -0.000000000000000 0.000000000000000 
1
1.000000000000000 0.000000000000000 0.000000000000000 0.000000000000000 
0.000000000000000 -0.000000000000000 -1.000000000000000 0.000000000000000 
0.000000000000000 1.000000000000000 -0.000000000000000 0.000000000000000 
1
1.000000000000000 0.000000000000000 0.000000000000000 0.000000000000000 
0.000000000000000 -0.000000000000000 -1.000000000000000 0.000000000000000 
0.000000000000000 1.000000000000000 -0.000000000000000 0.000000000000000 
2  2 1 3 -1 0
1
1.000000000000000 0.000000000000000 0.000000000000000 0.000000000000000 
0.000000000000000 1.000000000000000 0.000000000000000 0.000000000000000 
0.000000000000000 0.000000000000000 1.000000000000000 0.000000000000000 
1
1.000000000000000 0.000000000000000 0.000000000000000 0.000000000000000 
0.000000000000000 -0.000000000000000 -1.000000000000000 0.000000000000000 
0.000000000000000 1.000000000000000 -0.000000000000000 0.000000000000000 
1
1.000000000000000 0.000000000000000 0.000000000000000 0.000000000000000 
0.000000000000000 -0.000000000000000 -1.000000000000000 0.000000000000000 
0.000000000000000 1.000000000000000 -0.000000000000000 0.000000000000000 
1
1.000000000000000 0.000000000000000 0.000000000000000 -0.000000000000000 
0.000000000000000 1.000000000000000 0.000000000000000 -0.000000000000000 
0.000000000000000 0.000000000000000 1.000000000000000 -45.500000000000007 
2  5 1 6 1 7 -1 8 1 0
1
1.000000000000000 0.000000000000000 0.000000000000000 0.000000000000000 
0.000000000000000 1.000000000000000 0.000000000000000 0.000000000000000 
0.000000000000000 0.000000000000000 1.000000000000000 91.000000000000014 
2  5 1 6 1 7 -1 8 1 10 1 0
2  5 1 6 1 7 -1 8 1 2 1 3 -1 0
1
1.000000000000000 0.000000000000000 0.000000000000000 -0.000000000000000 
0.000000000000000 1.000000000000000 0.000000000000000 -0.000000000000020 
0.000000000000000 0.000000000000000 1.000000000000000 -45.500000000000007 
1
1.000000000000000 0.000000000000000 0.000000000000000 0.000000000000000 
0.000000000000000 -0.000000000000000 -1.000000000000000 0.000000000000000 
0.000000000000000 1.000000000000000 -0.000000000000000 0.000000000000000 
1
1.000000000000000 0.000000000000000 0.000000000000000 0.000000000000000 
0.000000000000000 0.000000000000000 -1.000000000000000 0.000000000000000 
0.000000000000000 1.000000000000000 0.000000000000000 0.000000000000000 
1
1.000000000000000 0.000000000000000 0.000000000000000 0.000000000000000 
0.000000000000000 1.000000000000000 0.000000000000000 0.000000000000000 
0.000000000000000 0.000000000000000 1.000000000000000 0.000000000000000 
2  13 -1 14 1 15 -1 16 -1 0
1
1.000000000000000 0.000000000000000 0.000000000000000 0.000000000000000 
0.000000000000000 1.000000000000000 0.000000000000000 0.000000000000040 
0.000000000000000 0.000000000000000 1.000000000000000 91.000000000000014 
2  18 -1 13 -1 14 1 15 -1 16 -1 0
1
1.000000000000000 0.000000000000000 0.000000000000000 -0.000000000000000 
0.000000000000000 1.000000000000000 0.000000000000000 -0.000000000000000 
0.000000000000000 0.000000000000000 1.000000000000000 -45.500000000000007 
1
1.000000000000000 0.000000000000000 0.000000000000000 0.000000000000000 
0.000000000000000 -0.000000000000000 -1.000000000000000 0.000000000000000 
0.000000000000000 1.000000000000000 -0.000000000000000 0.000000000000000 
1
1.000000000000000 0.000000000000000 0.000000000000000 0.000000000000000 
0.000000000000000 -0.000000000000000 -1.000000000000000 0.000000000000000 
0.000000000000000 1.000000000000000 -0.000000000000000 0.000000000000000 
1
1.000000000000000 0.000000000000000 0.000000000000000 0.000000000000000 
0.000000000000000 1.000000000000000 0.000000000000000 0.000000000000000 
0.000000000000000 0.000000000000000 1.000000000000000 0.000000000000000 
2  20 -1 21 1 22 -1 23 -1 0
1
1.000000000000000 0.000000000000000 0.000000000000000 0.000000000000000 
0.000000000000000 1.000000000000000 0.000000000000000 0.000000000000000 
0.000000000000000 0.000000000000000 1.000000000000000 91.000000000000014 
2  25 -1 20 -1 21 1 22 -1 23 -1 0
2  8 -1 7 1 6 -1 5 -1 0
2  10 -1 8 -1 7 1 6 -1 5 -1 0
2  5 1 6 1 7 -1 8 1 10 1 2 1 3 -1 0
1
1.000000000000000 0.000000000000000 0.000000000000000 0.000000000000000 
0.000000000000000 1.000000000000000 0.000000000000000 0.000000000000000 
0.000000000000000 0.000000000000000 1.000000000000000 0.000000000000000 
1
-1.000000000000000 0.000000000000000 0.000000000000000 0.000000000000000 
0.000000000000000 -1.000000000000000 -0.000000000000000 -0.000000000000019 
0.000000000000000 -0.000000000000000 1.000000000000000 84.700000000000003 
2  30 1 31 1 3 -1 0
2  3 1 31 -1 30 -1 0
1
1.000000000000000 0.000000000000000 0.000000000000000 0.000000000000000 
0.000000000000000 1.000000000000000 0.000000000000000 -426.675070806814460 
0.000000000000000 0.000000000000000 1.000000000000000 0.000000000000000 
2  34 -1 3 1 31 -1 30 -1 0
2  31 -1 30 -1 0
2  2 1 31 -1 30 -1 0
2  7 -1 8 1 2 1 3 -1 0
2  5 1 6 1 0
2  7 -1 8 1 10 1 2 1 3 -1 0
Curve2ds 64
1 0.00000000000000000 0.00000000000000000 0.00000000000000000 -1.00000000000000000 
1 169.40000000000000568 0.00000000000000000 0.00000000000000000 -1.00000000000000000 
1 0.00000000000000000 0.00000000000000000 1.00000000000000000 0.00000000000000000 
1 0.00000000000000000 -91.00000000000001421 1.00000000000000000 0.00000000000000000 
1 0.00000000000000000 0.00000000000000000 1.00000000000000000 0.00000000000000000 
1 0.00000000000000000 -91.00000000000001421 1.00000000000000000 0.00000000000000000 
1 0.00000000000000000 0.00000000000000000 1.00000000000000000 0.00000000000000000 
1 0.00000000000000000 -91.00000000000001421 1.00000000000000000 0.00000000000000000 
1 87.40000000000000568 0.00000000000000000 0.00000000000000000 -1.00000000000000000 
1 0.00000000000000000 0.00000000000000000 0.00000000000000000 -1.00000000000000000 
1 0.00000000000000000 0.00000000000000000 1.00000000000000000 0.00000000000000000 
1 0.00000000000000000 -426.67507080681446041 1.00000000000000000 0.00000000000000000 
2 0.00000000000000000 0.00000000000000000 -1.00000000000000000 0.00000000000000000 -0.00000000000000000 -1.00000000000000000 3.96875000000000355
2 12.70000000000000639 -65.60000000000006537 -1.00000000000000000 0.00000000000000000 -0.00000000000000000 -1.00000000000000000 3.96875000000000355
1 0.00000000000000000 0.00000000000000000 1.00000000000000000 0.00000000000000000 
1 0.00000000000000000 -426.67507080681446041 1.00000000000000000 0.00000000000000000 
2 -0.00000000000000355 -0.00000000000000000 0.00000000000000000 1.00000000000000000 -1.00000000000000000 0.00000000000000000 3.96875000000000000
2 74.70000000000000284 -65.60000000000006537 -1.00000000000000000 0.00000000000000000 -0.00000000000000000 -1.00000000000000000 3.96875000000000000
1 0.00000000000000000 0.00000000000000000 1.00000000000000000 0.00000000000000000 
1 0.00000000000000000 -426.67507080681446041 1.00000000000000000 0.00000000000000000 
2 0.00000000000000000 0.00000000000000000 -1.00000000000000000 0.00000000000000000 -0.00000000000000000 -1.00000000000000000 3.96875000000000355
2 12.70000000000000639 -25.39999999999994884 -1.00000000000000000 0.00000000000000000 -0.00000000000000000 -1.00000000000000000 3.96875000000000355
1 0.00000000000000000 0.00000000000000000 1.00000000000000000 0.00000000000000000 
1 0.00000000000000000 -426.67507080681446041 1.00000000000000000 0.00000000000000000 
2 0.00000000000000000 0.00000000000000000 0.00000000000000000 1.00000000000000000 -1.00000000000000000 0.00000000000000000 3.96875000000000000
2 74.70000000000000284 -25.39999999999994884 -1.00000000000000000 0.00000000000000000 -0.00000000000000000 -1.00000000000000000 3.96875000000000000
1 87.40000000000000568 0.00000000000000000 0.00000000000000000 -1.00000000000000000 
1 0.00000000000000000 0.00000000000000000 0.00000000000000000 -1.00000000000000000 
1 0.00000000000000000 -0.00000000000000000 1.00000000000000000 0.00000000000000000 
1 -0.00000000000001199 -91.00000000000001421 1.00000000000000000 0.00000000000000000 
1 0.00000000000000000 0.00000000000000000 1.00000000000000000 0.00000000000000000 
1 0.00000000000000000 -91.00000000000001421 1.00000000000000000 0.00000000000000000 
1 0.00000000000000000 0.00000000000000000 1.00000000000000000 0.00000000000000000 
1 0.00000000000000000 -91.00000000000001421 1.00000000000000000 0.00000000000000000 
1 0.00000000000000000 0.00000000000000000 1.00000000000000000 0.00000000000000000 
1 0.00000000000001199 -91.00000000000001421 1.00000000000000000 0.00000000000000000 
1 0.00000000000000000 0.00000000000000000 1.00000000000000000 0.00000000000000000 
1 0.00000000000000000 -91.00000000000001421 1.00000000000000000 0.00000000000000000 
1 0.00000000000000000 0.00000000000000000 1.00000000000000000 0.00000000000000000 
1 0.00000000000000000 -91.00000000000001421 1.00000000000000000 0.00000000000000000 
1 0.00000000000000000 -0.00000000000000000 1.00000000000000000 0.00000000000000000 
1 0.00000000000000000 -91.00000000000001421 1.00000000000000000 0.00000000000000000 
1 0.00000000000000000 -0.00000000000000000 1.00000000000000000 0.00000000000000000 
1 0.00000000000000000 -91.00000000000001421 1.00000000000000000 0.00000000000000000 
1 0.00000000000000000 -0.00000000000000000 1.00000000000000000 0.00000000000000000 
1 0.00000000000000000 -91.00000000000001421 1.00000000000000000 0.00000000000000000 
1 0.00000000000000000 -0.00000000000000000 0.00000000000000000 -1.00000000000000000 
1 169.40000000000000568 0.00000000000000000 0.00000000000000000 -1.00000000000000000 
1 0.00000000000000000 0.00000000000000000 0.00000000000000000 -1.00000000000000000 
1 6.28318530717958623 0.00000000000000000 0.00000000000000000 -1.00000000000000000 
2 74.70000000000000284 -65.60000000000006537 1.00000000000000000 0.00000000000000000 0.00000000000000000 -1.00000000000000000 3.96875000000000000
1 0.00000000000000000 -169.40000000000000568 1.00000000000000000 0.00000000000000000 
1 0.00000000000000000 0.00000000000000000 0.00000000000000000 -1.00000000000000000 
1 6.28318530717958623 0.00000000000000000 0.00000000000000000 -1.00000000000000000 
2 12.70000000000000639 -65.60000000000006537 1.00000000000000000 0.00000000000000000 0.00000000000000000 -1.00000000000000000 3.96875000000000000
1 0.00000000000000000 -169.40000000000000568 1.00000000000000000 0.00000000000000000 
1 0.00000000000000000 0.00000000000000000 0.00000000000000000 -1.00000000000000000 
1 6.28318530717958623 0.00000000000000000 0.00000000000000000 -1.00000000000000000 
2 74.70000000000000284 -25.39999999999994884 1.00000000000000000 0.00000000000000000 0.00000000000000000 -1.00000000000000000 3.96875000000000000
1 0.00000000000000000 -169.40000000000000568 1.00000000000000000 0.00000000000000000 
1 0.00000000000000000 0.00000000000000000 0.00000000000000000 -1.00000000000000000 
1 6.28318530717958623 0.00000000000000000 0.00000000000000000 -1.00000000000000000 
2 12.70000000000000639 -25.39999999999994884 1.00000000000000000 0.00000000000000000 0.00000000000000000 -1.00000000000000000 3.96875000000000000
1 0.00000000000000000 -169.40000000000000568 1.00000000000000000 0.00000000000000000 
Curves 20
1 -43.70000000000000284 84.70000000000000284 -45.50000000000000711 0.00000000000000000 0.00000000000000000 1.00000000000000000 
1 -43.70000000000000284 84.70000000000000284 0.00000000000000000 1.00000000000000000 0.00000000000000000 0.00000000000000000 
1 43.70000000000000284 84.70000000000000284 -45.50000000000000711 0.00000000000000000 0.00000000000000000 1.00000000000000000 
2 30.99999999999999645 20.10000000000005826 0.00000000000000000 0.00000000000000000 0.00000000000000000 1.00000000000000000 1.00000000000000000 0.00000000000000000 0.00000000000000000 0.00000000000000000 1.00000000000000000 0.00000000000000000 3.96875000000000000
2 -30.99999999999999645 20.10000000000005826 0.00000000000000000 0.00000000000000000 0.00000000000000000 1.00000000000000000 1.00000000000000000 0.00000000000000000 0.00000000000000000 0.00000000000000000 1.00000000000000000 0.00000000000000000 3.96875000000000000
2 30.99999999999999645 -20.10000000000005826 0.00000000000000000 0.00000000000000000 0.00000000000000000 1.00000000000000000 1.00000000000000000 0.00000000000000000 0.00000000000000000 0.00000000000000000 1.00000000000000000 0.00000000000000000 3.96875000000000000
2 -30.99999999999999645 -20.10000000000005826 0.00000000000000000 0.00000000000000000 0.00000000000000000 1.00000000000000000 1.00000000000000000 0.00000000000000000 0.00000000000000000 0.00000000000000000 1.00000000000000000 0.00000000000000000 3.96875000000000000
1 -43.70000000000000284 -84.70000000000000284 -45.50000000000000711 0.00000000000000000 0.00000000000000000 1.00000000000000000 
1 -43.70000000000000284 -84.70000000000000284 0.00000000000000000 0.00000000000000000 1.00000000000000000 0.00000000000000000 
1 43.70000000000000284 84.70000000000000284 0.00000000000000000 0.00000000000000000 -1.00000000000000000 0.00000000000000000 
1 43.70000000000000284 -84.70000000000000284 0.00000000000000000 -1.00000000000000000 0.00000000000000000 0.00000000000000000 
1 43.70000000000000284 -84.70000000000000284 -45.50000000000000711 0.00000000000000000 0.00000000000000000 1.00000000000000000 
1 -34.96875000000000000 84.70000000000000284 20.10000000000005826 0.00000000000000000 -1.00000000000000000 0.00000000000000000 
2 -30.99999999999999645 -84.70000000000000284 20.10000000000005826 0.00000000000000000 1.00000000000000000 -0.00000000000000000 -1.00000000000000000 0.00000000000000000 0.00000000000000000 0.00000000000000000 0.00000000000000000 1.00000000000000000 3.96875000000000000
1 27.03124999999999645 84.70000000000000284 20.10000000000005826 0.00000000000000000 -1.00000000000000000 0.00000000000000000 
2 30.99999999999999645 -84.70000000000000284 20.10000000000005826 0.00000000000000000 1.00000000000000000 -0.00000000000000000 -1.00000000000000000 0.00000000000000000 0.00000000000000000 0.00000000000000000 0.00000000000000000 1.00000000000000000 3.96875000000000000
1 -34.96875000000000000 84.70000000000000284 -20.10000000000005826 0.00000000000000000 -1.00000000000000000 0.00000000000000000 
2 -30.99999999999999645 -84.70000000000000284 -20.10000000000005826 0.00000000000000000 1.00000000000000000 -0.00000000000000000 -1.00000000000000000 0.00000000000000000 0.00000000000000000 0.00000000000000000 0.00000000000000000 1.00000000000000000 3.96875000000000000
1 27.03124999999999645 84.70000000000000284 -20.10000000000005826 0.00000000000000000 -1.00000000000000000 0.00000000000000000 
2 30.99999999999999645 -84.70000000000000284 -20.10000000000005826 0.00000000000000000 1.00000000000000000 -0.00000000000000000 -1.00000000000000000 0.00000000000000000 0.00000000000000000 0.00000000000000000 0.00000000000000000 1.00000000000000000 3.96875000000000000
Polygon3D 0
PolygonOnTriangulations 0
Surfaces 21
1 -43.70000000000000284 84.70000000000000284 -45.50000000000000711 0.00000000000000000 1.00000000000000000 0.00000000000000000 1.00000000000000000 0.00000000000000000 0.00000000000000000 0.00000000000000000 0.00000000000000000 -1.00000000000000000 
1 -43.70000000000000284 -84.70000000000000284 -45.50000000000000711 -1.00000000000000000 0.00000000000000000 0.00000000000000000 0.00000000000000000 1.00000000000000000 0.00000000000000000 0.00000000000000000 0.00000000000000000 -1.00000000000000000 
1 -43.70000000000000284 84.69999999999998863 -45.50000000000004263 0.00000000000000000 1.00000000000000000 -0.00000000000000044 1.00000000000000000 0.00000000000000000 0.00000000000000000 0.00000000000000000 -0.00000000000000044 -1.00000000000000000 
1 -43.70000000000000284 84.70000000000000284 -45.50000000000000711 0.00000000000000000 1.00000000000000000 0.00000000000000000 1.00000000000000000 0.00000000000000000 0.00000000000000000 0.00000000000000000 0.00000000000000000 -1.00000000000000000 
1 43.70000000000000284 84.70000000000000284 -45.50000000000000711 1.00000000000000000 0.00000000000000000 -0.00000000000000000 0.00000000000000000 -1.00000000000000000 0.00000000000000000 0.00000000000000000 -0.00000000000000000 -1.00000000000000000 
2 -30.99999999999999645 84.70000000000000284 20.10000000000005826 0.00000000000000000 1.00000000000000000 -0.00000000000000000 -1.00000000000000000 0.00000000000000000 0.00000000000000000 0.00000000000000000 0.00000000000000000 1.00000000000000000 3.96875000000000000
1 -30.99999999999999645 -20.10000000000007603 84.70000000000000284 0.00000000000000000 0.00000000000000000 1.00000000000000000 1.00000000000000000 0.00000000000000000 -0.00000000000000000 -0.00000000000000000 1.00000000000000000 0.00000000000000000 
2 30.99999999999999645 84.70000000000000284 20.10000000000005826 0.00000000000000000 1.00000000000000000 -0.00000000000000000 -1.00000000000000000 0.00000000000000000 0.00000000000000000 0.00000000000000000 0.00000000000000000 1.00000000000000000 3.96875000000000000
1 30.99999999999999645 -20.10000000000007248 84.69999999999998863 0.00000000000000000 0.00000000000000000 1.00000000000000000 0.00000000000000000 1.00000000000000000 -0.00000000000000000 -1.00000000000000000 0.00000000000000000 0.00000000000000000 
2 -30.99999999999999645 84.70000000000000284 -20.10000000000005826 0.00000000000000000 1.00000000000000000 -0.00000000000000000 -1.00000000000000000 0.00000000000000000 0.00000000000000000 0.00000000000000000 0.00000000000000000 1.00000000000000000 3.96875000000000000
1 -30.99999999999999645 20.10000000000004050 84.70000000000000284 0.00000000000000000 0.00000000000000000 1.00000000000000000 1.00000000000000000 0.00000000000000000 -0.00000000000000000 -0.00000000000000000 1.00000000000000000 0.00000000000000000 
2 30.99999999999999645 84.70000000000000284 -20.10000000000005826 0.00000000000000000 1.00000000000000000 -0.00000000000000000 -1.00000000000000000 0.00000000000000000 0.00000000000000000 0.00000000000000000 0.00000000000000000 1.00000000000000000 3.96875000000000000
1 30.99999999999999645 20.10000000000004050 84.69999999999998863 0.00000000000000000 -0.00000000000000000 1.00000000000000000 0.00000000000000000 1.00000000000000000 0.00000000000000000 -1.00000000000000000 -0.00000000000000000 0.00000000000000000 
1 43.70000000000000284 -84.70000000000000284 -45.50000000000000711 0.00000000000000000 -1.00000000000000000 0.00000000000000000 -1.00000000000000000 0.00000000000000000 0.00000000000000000 -0.00000000000000000 -0.00000000000000000 -1.00000000000000000 
1 -43.70000000000000284 -84.70000000000001705 -45.49999999999997158 -1.00000000000000000 0.00000000000000000 0.00000000000000000 0.00000000000000000 1.00000000000000000 -0.00000000000000044 -0.00000000000000000 -0.00000000000000044 -1.00000000000000000 
1 -43.70000000000000284 -84.70000000000000284 -45.50000000000000711 -1.00000000000000000 0.00000000000000000 0.00000000000000000 0.00000000000000000 1.00000000000000000 0.00000000000000000 0.00000000000000000 0.00000000000000000 -1.00000000000000000 
1 0.00000000000000000 0.00000000000000000 0.00000000000000000 0.00000000000000000 1.00000000000000000 0.00000000000000022 0.00000000000000000 -0.00000000000000022 1.00000000000000000 1.00000000000000000 0.00000000000000000 -0.00000000000000000 
1 43.70000000000000284 84.69999999999998863 -45.50000000000004263 1.00000000000000000 0.00000000000000000 -0.00000000000000000 0.00000000000000000 -1.00000000000000000 0.00000000000000044 0.00000000000000000 -0.00000000000000044 -1.00000000000000000 
1 43.70000000000000284 84.70000000000000284 -45.50000000000000711 1.00000000000000000 0.00000000000000000 -0.00000000000000000 0.00000000000000000 -1.00000000000000000 0.00000000000000000 0.00000000000000000 -0.00000000000000000 -1.00000000000000000 
1 43.70000000000000284 -84.70000000000001705 -45.49999999999997158 0.00000000000000000 -1.00000000000000000 0.00000000000000044 -1.00000000000000000 0.00000000000000000 0.00000000000000000 -0.00000000000000000 -0.00000000000000044 -1.00000000000000000 
1 43.70000000000000284 -84.70000000000000284 -45.50000000000000711 0.00000000000000000 -1.00000000000000000 0.00000000000000000 -1.00000000000000000 0.00000000000000000 0.00000000000000000 -0.00000000000000000 -0.00000000000000000 -1.00000000000000000 
Triangulations 0

TShapes 60
Ve
0.000000100000000
-43.700000000000003 84.700000000000003 0.000000000000000
0 0

0101101
*
Ed
 0.000000100000000 1 1 0
1  1 0 0.000000000000000 91.000000000000014
2  1 1 0 0.000000000000000 91.000000000000014
2  2 2 0 0.000000000000000 91.000000000000014
0

0101000
+60 9 -60 11 *
Ve
0.000000100000000
43.700000000000003 84.700000000000003 0.000000000000000
0 0

0101101
*
Ed
 0.000000100000000 1 1 0
1  2 0 0.000000000000000 87.400000000000006
2  3 3 17 0.000000000000000 87.400000000000006
2  4 3 19 0.000000000000000 87.400000000000006
2  5 4 24 0.000000000000000 87.400000000000006
2  6 4 26 0.000000000000000 87.400000000000006
2  7 1 27 0.000000000000000 87.400000000000006
2  8 1 28 0.000000000000000 87.400000000000006
0

0101000
+60 0 -58 0 *
Ed
 0.000000100000000 1 1 0
1  3 0 0.000000000000000 91.000000000000014
2  9 1 0 0.000000000000000 91.000000000000014
2  10 5 0 0.000000000000000 91.000000000000014
0

0101000
+58 9 -58 11 *
Wi

0101100
+59 4 -57 12 +57 29 -56 4 *
Ve
0.000000100000000
34.968750000000000 20.100000000000058 0.000000000000000
0 0

0101101
*
Ed
 0.000000100000000 1 1 0
1  4 0 0.000000000000000 6.283185307179586
2  11 6 33 0.000000000000000 6.283185307179586
2  12 6 35 0.000000000000000 6.283185307179586
2  13 7 36 0.000000000000000 6.283185307179586
2  14 1 37 0.000000000000000 6.283185307179586
0

0101000
+54 0 -54 0 *
Wi

0101100
-53 32 *
Ve
0.000000100000000
-27.031249999999996 20.100000000000058 0.000000000000000
0 0

0101101
*
Ed
 0.000000100000000 1 1 0
1  5 0 0.000000000000000 6.283185307179586
2  15 8 33 0.000000000000000 6.283185307179586
2  16 8 35 0.000000000000000 6.283185307179586
2  17 9 36 0.000000000000000 6.283185307179586
2  18 1 37 0.000000000000000 6.283185307179586
0

0101000
+51 0 -51 0 *
Wi

0101100
-50 32 *
Ve
0.000000100000000
34.968750000000000 -20.100000000000058 0.000000000000000
0 0

0101101
*
Ed
 0.000000100000000 1 1 0
1  6 0 0.000000000000000 6.283185307179586
2  19 10 33 0.000000000000000 6.283185307179586
2  20 10 35 0.000000000000000 6.283185307179586
2  21 11 36 0.000000000000000 6.283185307179586
2  22 1 37 0.000000000000000 6.283185307179586
0

0101000
+48 0 -48 0 *
Wi

0101100
-47 32 *
Ve
0.000000100000000
-27.031249999999996 -20.100000000000058 0.000000000000000
0 0

0101101
*
Ed
 0.000000100000000 1 1 0
1  7 0 0.000000000000000 6.283185307179586
2  23 12 33 0.000000000000000 6.283185307179586
2  24 12 35 0.000000000000000 6.283185307179586
2  25 13 36 0.000000000000000 6.283185307179586
2  26 1 37 0.000000000000000 6.283185307179586
0

0101000
+45 0 -45 0 *
Wi

0101100
-44 32 *
Fa
0  0.000000100000000 1 4

0111000
+55 0 +52 0 +49 0 +46 0 +43 0 *
Ve
0.000000100000000
-43.700000000000003 -84.700000000000003 0.000000000000000
0 0

0101101
*
Ed
 0.000000100000000 1 1 0
1  8 0 0.000000000000000 91.000000000000014
2  27 14 0 0.000000000000000 91.000000000000014
2  28 2 0 0.000000000000000 91.000000000000014
0

0101000
+41 9 -41 11 *
Ed
 0.000000100000000 1 1 0
1  9 0 0.000000000000000 169.400000000000006
2  29 15 17 0.000000000000000 169.400000000000006
2  30 15 19 0.000000000000000 169.400000000000006
2  31 16 24 0.000000000000000 169.400000000000006
2  32 16 26 0.000000000000000 169.400000000000006
2  33 2 27 0.000000000000000 169.400000000000006
2  34 2 28 0.000000000000000 169.400000000000006
0

0101000
+41 0 -60 0 *
Wi

0101100
+40 0 -59 0 -39 9 +39 11 *
Fa
0  0.000000100000000 2 0

0111000
+38 0 *
Ve
0.000000100000000
43.700000000000003 -84.700000000000003 0.000000000000000
0 0

0101101
*
Ed
 0.000000100000000 1 1 0
1  10 0 0.000000000000000 169.400000000000006
2  35 18 17 0.000000000000000 169.400000000000006
2  36 18 19 0.000000000000000 169.400000000000006
2  37 19 24 0.000000000000000 169.400000000000006
2  38 19 26 0.000000000000000 169.400000000000006
2  39 5 27 0.000000000000000 169.400000000000006
2  40 5 28 0.000000000000000 169.400000000000006
0

0101000
+58 0 -36 0 *
Ed
 0.000000100000000 1 1 0
1  11 0 0.000000000000000 87.400000000000006
2  41 20 17 0.000000000000000 87.400000000000006
2  42 20 19 0.000000000000000 87.400000000000006
2  43 21 24 0.000000000000000 87.400000000000006
2  44 21 26 0.000000000000000 87.400000000000006
2  45 14 27 0.000000000000000 87.400000000000006
2  46 14 28 0.000000000000000 87.400000000000006
0

0101000
+36 0 -41 0 *
Wi

0101100
+57 0 +35 0 +34 0 +39 0 *
Fa
0  0.000000100000000 17 0

0111000
+33 39 *
Ed
 0.000000100000000 1 1 0
1  12 0 0.000000000000000 91.000000000000014
2  47 14 0 0.000000000000000 91.000000000000014
2  48 5 0 0.000000000000000 91.000000000000014
0

0101000
+36 9 -36 11 *
Wi

0101100
+56 0 -31 0 -35 9 +35 11 *
Fa
0  0.000000100000000 5 0

0111000
+30 0 *
Ve
0.000000100000000
-34.968750000000000 -84.700000000000003 20.100000000000058
0 0

0101101
*
Ed
 0.000000100000000 1 1 0
1  13 0 0.000000000000000 169.400000000000006
3  49 50CN 6 0 0.000000000000000 169.400000000000006
0

0101000
+54 32 -28 0 *
Ed
 0.000000100000000 1 1 0
1  14 0 0.000000000000000 6.283185307179586
2  51 14 4 0.000000000000000 6.283185307179586
2  52 6 0 0.000000000000000 6.283185307179586
0

0101000
+28 0 -28 0 *
Wi

0101100
-53 32 -27 0 +26 0 +27 0 *
Fa
0  0.000000100000000 6 0

0111000
+25 0 *
Ve
0.000000100000000
27.031249999999996 -84.700000000000003 20.100000000000058
0 0

0101101
*
Ed
 0.000000100000000 1 1 0
1  15 0 0.000000000000000 169.400000000000006
3  53 54CN 8 0 0.000000000000000 169.400000000000006
0

0101000
+51 32 -23 0 *
Ed
 0.000000100000000 1 1 0
1  16 0 0.000000000000000 6.283185307179586
2  55 14 4 0.000000000000000 6.283185307179586
2  56 8 0 0.000000000000000 6.283185307179586
0

0101000
+23 0 -23 0 *
Wi

0101100
-50 32 -22 0 +21 0 +22 0 *
Fa
0  0.000000100000000 8 0

0111000
+20 0 *
Ve
0.000000100000000
-34.968750000000000 -84.700000000000003 -20.100000000000058
0 0

0101101
*
Ed
 0.000000100000000 1 1 0
1  17 0 0.000000000000000 169.400000000000006
3  57 58CN 10 0 0.000000000000000 169.400000000000006
0

0101000
+48 32 -18 0 *
Ed
 0.000000100000000 1 1 0
1  18 0 0.000000000000000 6.283185307179586
2  59 14 4 0.000000000000000 6.283185307179586
2  60 10 0 0.000000000000000 6.283185307179586
0

0101000
+18 0 -18 0 *
Wi

0101100
-47 32 -17 0 +16 0 +17 0 *
Fa
0  0.000000100000000 10 0

0111000
+15 0 *
Ve
0.000000100000000
27.031249999999996 -84.700000000000003 -20.100000000000058
0 0

0101101
*
Ed
 0.000000100000000 1 1 0
1  19 0 0.000000000000000 169.400000000000006
3  61 62CN 12 0 0.000000000000000 169.400000000000006
0

0101000
+45 32 -13 0 *
Ed
 0.000000100000000 1 1 0
1  20 0 0.000000000000000 6.283185307179586
2  63 14 4 0.000000000000000 6.283185307179586
2  64 12 0 0.000000000000000 6.283185307179586
0

0101000
+13 0 -13 0 *
Wi

0101100
-44 32 -12 0 +11 0 +12 0 *
Fa
0  0.000000100000000 12 0

0111000
+10 0 *
Wi

0101100
+31 4 -34 12 +34 29 -40 4 *
Wi

0101100
+21 0 *
Wi

0101100
+26 0 *
Wi

0101100
+11 0 *
Wi

0101100
+16 0 *
Fa
0  0.000000100000000 14 4

0111000
+8 0 +7 0 +6 0 +5 0 +4 0 *
Sh

0101100
+42 0 +37 4 +32 38 -32 40 +29 4 -24 0 -19 0 -14 0 -9 0 +3 0 
*
So

0100000
+2 0 *

+1 1 