
CASCADE Topology V1, (c) Matra-Datavision
Locations 16
1
1.000000000000000 0.000000000000000 0.000000000000000 0.000000000000000 
0.000000000000000 1.000000000000000 0.000000000000000 0.000000000000000 
0.000000000000000 0.000000000000000 1.000000000000000 0.000000000000000 
1
0.000000000000000 -0.000000000000000 1.000000000000000 43.700000000000003 
-0.000000000000000 -1.000000000000000 0.000000000000000 0.000000000000000 
1.000000000000000 -0.000000000000000 -0.000000000000000 0.000000000000000 
1
1.000000000000000 0.000000000000000 0.000000000000000 0.000000000000000 
0.000000000000000 -0.000000000000000 -1.000000000000000 0.000000000000000 
0.000000000000000 1.000000000000000 -0.000000000000000 0.000000000000000 
2  1 1 2 1 3 -1 0
1
1.000000000000000 0.000000000000000 0.000000000000000 -426.675070806814460 
0.000000000000000 1.000000000000000 0.000000000000000 0.000000000000095 
0.000000000000000 0.000000000000000 1.000000000000000 -0.000000000000000 
2  1 1 2 1 3 -1 5 1 0
2  3 1 2 -1 1 -1 0
2  5 -1 3 1 2 -1 1 -1 0
2  2 -1 1 -1 0
1
1.000000000000000 0.000000000000000 0.000000000000000 0.000000000000000 
0.000000000000000 -0.000000000000000 -1.000000000000000 0.000000000000000 
0.000000000000000 1.000000000000000 -0.000000000000000 0.000000000000000 
1
1.000000000000000 0.000000000000000 0.000000000000000 0.000000000000000 
0.000000000000000 -0.000000000000000 -1.000000000000000 0.000000000000000 
0.000000000000000 1.000000000000000 -0.000000000000000 0.000000000000000 
1
1.000000000000000 0.000000000000000 0.000000000000000 0.000000000000000 
0.000000000000000 -0.000000000000000 -1.000000000000000 0.000000000000000 
0.000000000000000 1.000000000000000 -0.000000000000000 0.000000000000000 
2  10 1 11 -1 12 1 2 -1 1 -1 0
2  3 -1 0
2  1 1 2 1 0
2  3 -1 5 1 0
Curve2ds 24
1 0.00000000000000000 0.00000000000000000 0.00000000000000000 -1.00000000000000000 
1 6.28318530717958623 0.00000000000000000 0.00000000000000000 -1.00000000000000000 
1 0.00000000000000000 0.00000000000000000 1.00000000000000000 0.00000000000000000 
1 0.00000000000000000 -426.67507080681446041 1.00000000000000000 0.00000000000000000 
2 -0.00000000000001421 0.00000000000000000 1.00000000000000000 0.00000000000000022 -0.00000000000000022 1.00000000000000000 3.96875000000000000
2 156.70000000000001705 -78.30000000000006821 -1.00000000000000000 0.00000000000000000 -0.00000000000000000 -1.00000000000000000 3.96875000000000000
1 0.00000000000000000 0.00000000000000000 0.00000000000000000 -1.00000000000000000 
1 6.28318530717958623 0.00000000000000000 0.00000000000000000 -1.00000000000000000 
1 0.00000000000000000 0.00000000000000000 1.00000000000000000 0.00000000000000000 
1 0.00000000000000000 -426.67507080681446041 1.00000000000000000 0.00000000000000000 
2 0.00000000000000000 0.00000000000000000 1.00000000000000000 0.00000000000000022 -0.00000000000000022 1.00000000000000000 3.96875000000000000
2 12.69999999999998863 -12.69999999999995310 -1.00000000000000000 0.00000000000000000 -0.00000000000000000 -1.00000000000000000 3.96875000000000000
1 0.00000000000000000 0.00000000000000000 0.00000000000000000 -1.00000000000000000 
1 6.28318530717958623 0.00000000000000000 0.00000000000000000 -1.00000000000000000 
1 0.00000000000000000 0.00000000000000000 1.00000000000000000 0.00000000000000000 
1 0.00000000000000000 -426.67507080681446041 1.00000000000000000 0.00000000000000000 
2 0.00000000000001421 -0.00000000000000711 1.00000000000000000 0.00000000000000022 -0.00000000000000022 1.00000000000000000 3.96875000000000000
2 156.70000000000001705 -12.69999999999995310 -1.00000000000000000 0.00000000000000000 -0.00000000000000000 -1.00000000000000000 3.96875000000000000
1 0.00000000000000000 0.00000000000000000 0.00000000000000000 -1.00000000000000000 
1 6.28318530717958623 0.00000000000000000 0.00000000000000000 -1.00000000000000000 
1 0.00000000000000000 0.00000000000000000 1.00000000000000000 0.00000000000000000 
1 0.00000000000000000 -426.67507080681446041 1.00000000000000000 0.00000000000000000 
2 -0.00000000000001421 -0.00000000000000711 1.00000000000000000 0.00000000000000022 -0.00000000000000022 1.00000000000000000 3.96875000000000000
2 12.69999999999998863 -78.30000000000006821 -1.00000000000000000 0.00000000000000000 -0.00000000000000000 -1.00000000000000000 3.96875000000000000
Curves 8
1 43.69999999999998863 -68.03125000000001421 32.80000000000005400 -1.00000000000000000 0.00000000000000022 -0.00000000000000000 
2 -72.00000000000001421 32.80000000000005400 0.00000000000000000 0.00000000000000000 0.00000000000000000 1.00000000000000000 1.00000000000000000 0.00000000000000000 0.00000000000000000 0.00000000000000000 1.00000000000000000 0.00000000000000000 3.96875000000000000
1 43.70000000000001705 75.96875000000001421 -32.80000000000005400 -1.00000000000000000 0.00000000000000022 -0.00000000000000000 
2 72.00000000000001421 -32.80000000000005400 0.00000000000000000 0.00000000000000000 0.00000000000000000 1.00000000000000000 1.00000000000000000 0.00000000000000000 0.00000000000000000 0.00000000000000000 1.00000000000000000 0.00000000000000000 3.96875000000000000
1 43.69999999999998863 -68.03125000000001421 -32.80000000000005400 -1.00000000000000000 0.00000000000000022 -0.00000000000000000 
2 -72.00000000000001421 -32.80000000000005400 0.00000000000000000 0.00000000000000000 0.00000000000000000 1.00000000000000000 1.00000000000000000 0.00000000000000000 0.00000000000000000 0.00000000000000000 1.00000000000000000 0.00000000000000000 3.96875000000000000
1 43.70000000000001705 75.96875000000001421 32.80000000000005400 -1.00000000000000000 0.00000000000000022 -0.00000000000000000 
2 72.00000000000001421 32.80000000000005400 0.00000000000000000 0.00000000000000000 0.00000000000000000 1.00000000000000000 1.00000000000000000 0.00000000000000000 0.00000000000000000 0.00000000000000000 1.00000000000000000 0.00000000000000000 3.96875000000000000
Polygon3D 0
PolygonOnTriangulations 0
Surfaces 9
2 43.69999999999998863 -72.00000000000001421 32.80000000000005400 1.00000000000000000 -0.00000000000000022 0.00000000000000000 0.00000000000000022 1.00000000000000000 -0.00000000000000000 -0.00000000000000000 0.00000000000000000 1.00000000000000000 3.96875000000000000
1 43.69999999999998153 -32.80000000000003979 -72.00000000000001421 1.00000000000000000 -0.00000000000000000 0.00000000000000000 -0.00000000000000000 0.00000000000000000 1.00000000000000000 -0.00000000000000000 -1.00000000000000000 -0.00000000000000000 
1 43.70000000000000284 84.70000000000000284 -45.50000000000000711 1.00000000000000000 0.00000000000000000 -0.00000000000000000 0.00000000000000000 -1.00000000000000000 0.00000000000000000 0.00000000000000000 -0.00000000000000000 -1.00000000000000000 
2 43.70000000000001705 72.00000000000001421 -32.80000000000005400 1.00000000000000000 -0.00000000000000022 0.00000000000000000 0.00000000000000022 1.00000000000000000 -0.00000000000000000 -0.00000000000000000 0.00000000000000000 1.00000000000000000 3.96875000000000000
1 43.70000000000002416 32.80000000000003979 72.00000000000002842 1.00000000000000000 -0.00000000000000000 -0.00000000000000000 0.00000000000000000 0.00000000000000000 1.00000000000000000 -0.00000000000000000 -1.00000000000000000 0.00000000000000000 
2 43.69999999999998863 -72.00000000000001421 -32.80000000000005400 1.00000000000000000 -0.00000000000000022 0.00000000000000000 0.00000000000000022 1.00000000000000000 -0.00000000000000000 -0.00000000000000000 0.00000000000000000 1.00000000000000000 3.96875000000000000
1 43.69999999999998153 32.80000000000006111 -72.00000000000001421 1.00000000000000000 -0.00000000000000000 -0.00000000000000000 0.00000000000000000 0.00000000000000000 1.00000000000000000 -0.00000000000000000 -1.00000000000000000 0.00000000000000000 
2 43.70000000000001705 72.00000000000001421 32.80000000000005400 1.00000000000000000 -0.00000000000000022 0.00000000000000000 0.00000000000000022 1.00000000000000000 -0.00000000000000000 -0.00000000000000000 0.00000000000000000 1.00000000000000000 3.96875000000000000
1 43.70000000000002416 -32.80000000000007532 72.00000000000001421 1.00000000000000000 0.00000000000000000 -0.00000000000000000 0.00000000000000000 0.00000000000000000 1.00000000000000000 0.00000000000000000 -1.00000000000000000 -0.00000000000000000 
Triangulations 0

TShapes 37
Ve
0.000000100000014
-68.031250000000014 32.800000000000054 0.000000000000000
0 0

0101101
*
Ed
 0.000000100000000 1 1 0
1  1 0 0.000000000000000 426.675070806814460
3  1 2CN 1 0 0.000000000000000 426.675070806814460
0

0101000
+37 4 -37 6 *
Ed
 0.000000100000014 1 1 0
1  2 0 0.000000000000000 6.283185307179586
2  3 1 7 0.000000000000000 6.283185307179586
2  4 1 8 0.000000000000000 6.283185307179586
2  5 2 9 0.000000000000000 6.283185307179586
2  6 3 13 0.000000000000000 6.283185307179586
0

0101000
+37 0 -37 0 *
Wi

0101100
+36 0 -36 0 -35 4 +35 6 *
Fa
0  0.000000100000000 1 0

0101000
+34 0 *
Wi

0101100
+35 0 *
Fa
0  0.000000100000000 2 0

0101000
+32 15 *
Sh

0101100
+33 0 +31 14 -31 16 *
So

0100000
+30 0 *
Ve
0.000000100000014
75.968750000000014 -32.800000000000054 0.000000000000000
0 0

0101101
*
Ed
 0.000000100000000 1 1 0
1  3 0 0.000000000000000 426.675070806814460
3  7 8CN 4 0 0.000000000000000 426.675070806814460
0

0101000
+28 4 -28 6 *
Ed
 0.000000100000014 1 1 0
1  4 0 0.000000000000000 6.283185307179586
2  9 4 7 0.000000000000000 6.283185307179586
2  10 4 8 0.000000000000000 6.283185307179586
2  11 5 9 0.000000000000000 6.283185307179586
2  12 3 13 0.000000000000000 6.283185307179586
0

0101000
+28 0 -28 0 *
Wi

0101100
+27 0 -27 0 -26 4 +26 6 *
Fa
0  0.000000100000000 4 0

0101000
+25 0 *
Wi

0101100
+26 0 *
Fa
0  0.000000100000000 5 0

0101000
+23 15 *
Sh

0101100
+24 0 +22 14 -22 16 *
So

0100000
+21 0 *
Ve
0.000000100000014
-68.031250000000014 -32.800000000000054 0.000000000000000
0 0

0101101
*
Ed
 0.000000100000000 1 1 0
1  5 0 0.000000000000000 426.675070806814460
3  13 14CN 6 0 0.000000000000000 426.675070806814460
0

0101000
+19 4 -19 6 *
Ed
 0.000000100000014 1 1 0
1  6 0 0.000000000000000 6.283185307179586
2  15 6 7 0.000000000000000 6.283185307179586
2  16 6 8 0.000000000000000 6.283185307179586
2  17 7 9 0.000000000000000 6.283185307179586
2  18 3 13 0.000000000000000 6.283185307179586
0

0101000
+19 0 -19 0 *
Wi

0101100
+18 0 -18 0 -17 4 +17 6 *
Fa
0  0.000000100000000 6 0

0101000
+16 0 *
Wi

0101100
+17 0 *
Fa
0  0.000000100000000 7 0

0101000
+14 15 *
Sh

0101100
+15 0 +13 14 -13 16 *
So

0100000
+12 0 *
Ve
0.000000100000014
75.968750000000014 32.800000000000054 0.000000000000000
0 0

0101101
*
Ed
 0.000000100000000 1 1 0
1  7 0 0.000000000000000 426.675070806814460
3  19 20CN 8 0 0.000000000000000 426.675070806814460
0

0101000
+10 4 -10 6 *
Ed
 0.000000100000014 1 1 0
1  8 0 0.000000000000000 6.283185307179586
2  21 8 7 0.000000000000000 6.283185307179586
2  22 8 8 0.000000000000000 6.283185307179586
2  23 9 9 0.000000000000000 6.283185307179586
2  24 3 13 0.000000000000000 6.283185307179586
0

0101000
+10 0 -10 0 *
Wi

0101100
+9 0 -9 0 -8 4 +8 6 *
Fa
0  0.000000100000000 8 0

0101000
+7 0 *
Wi

0101100
+8 0 *
Fa
0  0.000000100000000 9 0

0101000
+5 15 *
Sh

0101100
+6 0 +4 14 -4 16 *
So

0100000
+3 0 *
Co

1100000
+29 0 +20 0 +11 0 +2 0 *

+1 0 