
CASCADE Topology V1, (c) Matra-Datavision
Locations 57
1
1.000000000000000 0.000000000000000 0.000000000000000 0.000000000000000 
0.000000000000000 1.000000000000000 0.000000000000000 0.000000000000000 
0.000000000000000 0.000000000000000 1.000000000000000 0.000000000000000 
1
1.000000000000000 0.000000000000000 0.000000000000000 0.000000000000000 
0.000000000000000 1.000000000000000 0.000000000000000 0.000000000000000 
0.000000000000000 0.000000000000000 1.000000000000000 0.000000000000000 
1
1.000000000000000 0.000000000000000 0.000000000000000 0.000000000000000 
0.000000000000000 1.000000000000000 0.000000000000000 0.000000000000000 
0.000000000000000 0.000000000000000 1.000000000000000 0.000000000000000 
2  2 1 3 -1 0
1
1.000000000000000 0.000000000000000 0.000000000000000 0.000000000000000 
0.000000000000000 1.000000000000000 0.000000000000000 0.000000000000000 
0.000000000000000 0.000000000000000 1.000000000000000 0.000000000000000 
1
1.000000000000000 0.000000000000000 0.000000000000000 0.000000000000000 
0.000000000000000 1.000000000000000 0.000000000000000 0.000000000000000 
0.000000000000000 0.000000000000000 1.000000000000000 0.000000000000000 
2  5 1 6 -1 0
1
1.000000000000000 0.000000000000000 0.000000000000000 0.000000000000000 
0.000000000000000 1.000000000000000 0.000000000000000 0.000000000000000 
0.000000000000000 0.000000000000000 1.000000000000000 0.000000000000000 
1
1.000000000000000 0.000000000000000 0.000000000000000 0.000000000000000 
0.000000000000000 0.000000000000000 -1.000000000000000 0.000000000000000 
0.000000000000000 1.000000000000000 0.000000000000000 0.000000000000000 
1
1.000000000000000 0.000000000000000 0.000000000000000 0.000000000000000 
0.000000000000000 1.000000000000000 0.000000000000000 0.000000000000000 
0.000000000000000 0.000000000000000 1.000000000000000 0.000000000000000 
1
1.000000000000000 0.000000000000000 0.000000000000000 0.000000000000000 
0.000000000000000 1.000000000000000 0.000000000000000 0.000000000000000 
0.000000000000000 0.000000000000000 1.000000000000000 0.000000000000000 
1
1.000000000000000 0.000000000000000 0.000000000000000 0.000000000000000 
0.000000000000000 1.000000000000000 0.000000000000000 0.000000000000000 
0.000000000000000 0.000000000000000 1.000000000000000 0.000000000000000 
1
1.000000000000000 0.000000000000000 0.000000000000000 0.000000000000000 
0.000000000000000 1.000000000000000 0.000000000000000 0.000000000000000 
0.000000000000000 0.000000000000000 1.000000000000000 0.000000000000000 
1
1.000000000000000 0.000000000000000 0.000000000000000 0.000000000000000 
0.000000000000000 1.000000000000000 0.000000000000000 0.000000000000000 
0.000000000000000 0.000000000000000 1.000000000000000 0.000000000000000 
1
1.000000000000000 0.000000000000000 0.000000000000000 0.000000000000000 
0.000000000000000 1.000000000000000 0.000000000000000 0.000000000000000 
0.000000000000000 0.000000000000000 1.000000000000000 0.000000000000000 
1
1.000000000000000 0.000000000000000 0.000000000000000 0.000000000000000 
0.000000000000000 1.000000000000000 0.000000000000000 0.000000000000000 
0.000000000000000 0.000000000000000 1.000000000000000 0.000000000000000 
1
1.000000000000000 0.000000000000000 0.000000000000000 -0.000000000000000 
0.000000000000000 1.000000000000000 0.000000000000000 -60.000000000000000 
0.000000000000000 0.000000000000000 1.000000000000000 0.000000000000013 
2  8 1 9 1 10 1 11 1 12 1 13 1 14 1 15 1 16 -1 17 1 0
1
1.000000000000000 0.000000000000000 0.000000000000000 0.000000000000000 
0.000000000000000 1.000000000000000 0.000000000000000 120.000000000000000 
0.000000000000000 0.000000000000000 1.000000000000000 -0.000000000000026 
2  8 1 9 1 10 1 11 1 12 1 13 1 14 1 15 1 16 -1 17 1 19 1 0
1
1.000000000000000 0.000000000000000 0.000000000000000 0.000000000000000 
0.000000000000000 1.000000000000000 0.000000000000000 0.000000000000000 
0.000000000000000 0.000000000000000 1.000000000000000 0.000000000000000 
1
1.000000000000000 0.000000000000000 0.000000000000000 0.000000000000000 
0.000000000000000 0.000000000000000 -1.000000000000000 0.000000000000000 
0.000000000000000 1.000000000000000 0.000000000000000 0.000000000000000 
1
1.000000000000000 0.000000000000000 0.000000000000000 0.000000000000000 
0.000000000000000 -0.000000000000000 -1.000000000000000 0.000000000000000 
0.000000000000000 1.000000000000000 -0.000000000000000 0.000000000000000 
1
1.000000000000000 0.000000000000000 0.000000000000000 0.000000000000000 
0.000000000000000 1.000000000000000 0.000000000000000 0.000000000000000 
0.000000000000000 0.000000000000000 1.000000000000000 0.000000000000000 
2  21 1 22 1 23 -1 24 1 8 1 9 1 10 1 11 1 12 1 13 1 14 1 15 1 16 -1 17 1 5 1 6 -1 0
2  17 -1 16 1 15 -1 14 -1 13 -1 12 -1 11 -1 10 -1 9 -1 8 -1 24 -1 23 1 22 -1 21 -1 0
2  19 -1 17 -1 16 1 15 -1 14 -1 13 -1 12 -1 11 -1 10 -1 9 -1 8 -1 24 -1 23 1 22 -1 21 -1 0
2  24 -1 23 1 22 -1 21 -1 0
2  21 1 22 1 23 -1 24 1 8 1 9 1 10 1 11 1 12 1 13 1 14 1 15 1 16 -1 17 1 19 1 5 1 6 -1 0
1
1.000000000000000 0.000000000000000 0.000000000000000 0.000000000000000 
0.000000000000000 1.000000000000000 0.000000000000000 0.000000000000000 
0.000000000000000 0.000000000000000 1.000000000000000 0.000000000000000 
1
1.000000000000000 0.000000000000000 0.000000000000000 0.000000000000000 
0.000000000000000 -1.000000000000000 -0.000000000000000 0.000000000000000 
0.000000000000000 0.000000000000000 -1.000000000000000 0.000000000000000 
2  30 1 31 1 6 -1 0
2  6 1 31 -1 30 -1 0
1
1.000000000000000 0.000000000000000 0.000000000000000 0.000000000000000 
0.000000000000000 1.000000000000000 0.000000000000000 0.000000000000056 
0.000000000000000 0.000000000000000 1.000000000000000 253.027235150684959 
2  34 -1 6 1 31 -1 30 -1 0
2  31 -1 30 -1 0
2  5 1 31 -1 30 -1 0
2  5 1 6 -1 2 1 3 -1 0
2  23 -1 24 1 0
2  17 -1 16 1 15 -1 14 -1 13 -1 12 -1 11 -1 10 -1 9 -1 8 -1 0
2  19 -1 17 -1 16 1 15 -1 14 -1 13 -1 12 -1 11 -1 10 -1 9 -1 8 -1 0
2  23 -1 24 1 8 1 9 1 10 1 11 1 12 1 13 1 14 1 15 1 16 -1 17 1 5 1 6 -1 2 1 3 -1 0
2  24 -1 23 1 0
2  21 1 22 1 23 -1 24 1 0
2  23 -1 24 1 8 1 9 1 10 1 11 1 12 1 13 1 14 1 15 1 16 -1 17 1 19 1 5 1 6 -1 2 1 3 -1 0
2  21 1 22 1 23 -1 24 1 8 1 9 1 10 1 11 1 12 1 13 1 14 1 15 1 16 -1 17 1 0
2  21 1 22 1 23 -1 24 1 8 1 9 1 10 1 11 1 12 1 13 1 14 1 15 1 16 -1 17 1 19 1 0
2  21 1 22 1 23 -1 24 1 8 1 9 1 10 1 11 1 12 1 13 1 14 1 15 1 16 -1 17 1 5 1 6 -1 2 1 3 -1 0
2  21 1 22 1 23 -1 24 1 8 1 9 1 10 1 11 1 12 1 13 1 14 1 15 1 16 -1 17 1 19 1 5 1 6 -1 2 1 3 -1 0
1
1.000000000000000 0.000000000000000 0.000000000000000 0.000000000000000 
0.000000000000000 1.000000000000000 0.000000000000000 0.000000000000000 
0.000000000000000 0.000000000000000 1.000000000000000 0.000000000000000 
1
0.000000000000000 0.000000000000000 -1.000000000000000 0.000000000000000 
-1.000000000000000 0.000000000000000 0.000000000000000 0.000000000000000 
0.000000000000000 1.000000000000000 0.000000000000000 0.000000000000000 
2  50 1 51 1 3 -1 0
2  3 1 51 -1 50 -1 0
1
1.000000000000000 0.000000000000000 0.000000000000000 253.027235150684959 
0.000000000000000 1.000000000000000 0.000000000000000 0.000000000000000 
0.000000000000000 0.000000000000000 1.000000000000000 0.000000000000000 
2  54 -1 3 1 51 -1 50 -1 0
2  51 -1 50 -1 0
2  5 1 6 -1 2 1 51 -1 50 -1 0
Curve2ds 84
1 0.00000000000000000 0.00000000000000000 0.00000000000000000 -1.00000000000000000 
1 0.00000000000000000 0.00000000000000000 0.00000000000000000 -1.00000000000000000 
1 -1.00000000000000000 0.00000000000000000 1.00000000000000000 0.00000000000000000 
1 -1.00000000000000000 -120.00000000000000000 1.00000000000000000 0.00000000000000000 
1 -0.00000000000000100 0.00000000000000000 0.00000000000000000 -1.00000000000000000 
1 23.39999999999999858 0.00000000000000000 0.00000000000000000 -1.00000000000000000 
1 0.00000000000000000 0.00000000000000000 1.00000000000000000 0.00000000000000000 
1 0.00000000000000000 -253.02723515068495885 1.00000000000000000 0.00000000000000000 
2 0.00000000000000711 0.00000000000000178 0.00000000000000000 -1.00000000000000000 1.00000000000000000 0.00000000000000000 3.96875000000000000
2 11.69999999999999929 -107.30000000000001137 -1.00000000000000000 0.00000000000000000 0.00000000000000000 1.00000000000000000 3.96875000000000000
1 0.00000000000000000 0.00000000000000000 1.00000000000000000 0.00000000000000000 
1 0.00000000000000000 -253.02723515068495885 1.00000000000000000 0.00000000000000000 
2 -0.00000000000000711 0.00000000000000178 0.00000000000000000 -1.00000000000000000 1.00000000000000000 0.00000000000000000 3.96875000000000000
2 11.69999999999999929 -12.69999999999998863 -1.00000000000000000 0.00000000000000000 0.00000000000000000 1.00000000000000000 3.96875000000000000
1 1.57079632679489589 0.00000000000000000 0.00000000000000000 -1.00000000000000000 
1 0.00000000000000000 -0.00000000000000000 1.00000000000000000 0.00000000000000000 
2 -6.83828125000251763 16.56171874999748184 -1.00000000000000000 0.00000000000000000 0.00000000000000000 1.00000000000000000 1.00000000000000000
1 0.00000000000000000 0.00000000000000000 1.00000000000000000 0.00000000000000000 
1 0.00000000000000000 -120.00000000000000000 1.00000000000000000 0.00000000000000000 
1 0.00000000000000089 0.00000000000000000 1.00000000000000000 0.00000000000000000 
2 -6.83828125000251763 -6.83828125000251763 -1.00000000000000000 0.00000000000000000 -0.00000000000000000 -1.00000000000000000 1.00000000000000000
1 0.00000000000000000 0.00000000000000000 1.00000000000000000 0.00000000000000000 
1 0.00000000000000000 -120.00000000000000000 1.00000000000000000 0.00000000000000000 
1 -0.99999999999999989 -0.00000000000000000 1.00000000000000000 0.00000000000000000 
1 -1.00000000000002620 -120.00000000000000000 1.00000000000000000 0.00000000000000000 
1 -3.14159265358979312 -0.00000000000000000 1.00000000000000000 0.00000000000000000 
2 -5.66328124999100435 16.56171874999748184 -1.00000000000000000 0.00000000000000000 -0.00000000000000000 -1.00000000000000000 1.00000000000000000
1 0.00000000000000000 0.00000000000000000 1.00000000000000000 0.00000000000000000 
1 0.00000000000000000 -120.00000000000000000 1.00000000000000000 0.00000000000000000 
1 -1.57079632679489656 0.00000000000000000 1.00000000000000000 0.00000000000000000 
2 16.56171874999748184 -6.83828125000251763 -1.00000000000000000 0.00000000000000000 -0.00000000000000000 -1.00000000000000000 1.00000000000000000
1 0.00000000000000000 0.00000000000000000 1.00000000000000000 0.00000000000000000 
1 0.00000000000000000 -120.00000000000000000 1.00000000000000000 0.00000000000000000 
1 -1.00000000000000000 0.00000000000000000 1.00000000000000000 0.00000000000000000 
1 -1.00000000000000000 -120.00000000000000000 1.00000000000000000 0.00000000000000000 
1 -4.71238898038468879 0.00000000000000000 1.00000000000000000 0.00000000000000000 
2 -3.66328124999100346 -3.66328125000251781 -1.00000000000000000 0.00000000000000000 0.00000000000000000 1.00000000000000000 1.00000000000000000
1 0.00000000000000000 0.00000000000000000 1.00000000000000000 0.00000000000000000 
1 0.00000000000000000 -120.00000000000000000 1.00000000000000000 0.00000000000000000 
1 -3.14159265358979312 0.00000000000000000 1.00000000000000000 0.00000000000000000 
2 16.56171874999748184 -5.66328125000251781 -1.00000000000000000 0.00000000000000000 -0.00000000000000000 -1.00000000000000000 1.00000000000000000
1 0.00000000000000000 0.00000000000000000 1.00000000000000000 0.00000000000000000 
1 0.00000000000000000 -120.00000000000000000 1.00000000000000000 0.00000000000000000 
1 -1.00000000000000000 -0.00000000000000000 1.00000000000000000 0.00000000000000000 
1 -0.99999999999997158 -120.00000000000000000 1.00000000000000000 0.00000000000000000 
1 1.57079632679489700 0.00000000000000000 0.00000000000000000 -1.00000000000000000 
1 0.00000000000000000 0.00000000000000000 -0.00000000000000022 -1.00000000000000000 
1 0.00000000000000000 0.00000000000000000 0.00000000000000000 -1.00000000000000000 
1 6.28318530717958623 0.00000000000000000 0.00000000000000000 -1.00000000000000000 
2 8.52499999999999858 -107.30000000000001137 1.00000000000000000 0.00000000000000000 -0.00000000000000000 1.00000000000000000 3.96875000000000000
1 0.00000000000000000 -3.17500000001151328 1.00000000000000000 0.00000000000000000 
1 0.00000000000000000 0.00000000000000000 0.00000000000000000 -1.00000000000000000 
1 6.28318530717958623 0.00000000000000000 0.00000000000000000 -1.00000000000000000 
2 8.52499999999999858 -12.69999999999998863 1.00000000000000000 0.00000000000000000 -0.00000000000000000 1.00000000000000000 3.96875000000000000
1 0.00000000000000000 -3.17500000001151328 1.00000000000000000 0.00000000000000000 
1 4.71238898038468967 0.00000000000000000 0.00000000000000000 -1.00000000000000000 
1 1.57079632679489700 0.00000000000000000 0.00000000000000000 -1.00000000000000000 
1 23.39999999999999858 -0.00000000000001421 -0.00000000000000022 -1.00000000000000000 
1 0.00000000000000000 0.00000000000000000 1.00000000000000000 0.00000000000000000 
1 0.00000000000000000 -253.02723515068495885 1.00000000000000000 0.00000000000000000 
2 0.00000000000000000 0.00000000000000000 0.00000000000000000 1.00000000000000000 -1.00000000000000000 0.00000000000000000 3.96875000000000000
2 11.69999999999998685 -94.60000000000000853 0.00000000000000000 1.00000000000000000 1.00000000000000000 -0.00000000000000000 3.96875000000000000
1 0.00000000000000000 0.00000000000000000 1.00000000000000000 0.00000000000000000 
1 0.00000000000000000 -253.02723515068495885 1.00000000000000000 0.00000000000000000 
2 0.00000000000000000 0.00000000000000000 0.00000000000000000 1.00000000000000000 -1.00000000000000000 0.00000000000000000 3.96875000000000000
2 11.69999999999998685 -25.39999999999999147 0.00000000000000000 1.00000000000000000 1.00000000000000000 -0.00000000000000000 3.96875000000000000
1 3.14159265358979312 0.00000000000000000 0.00000000000000000 -1.00000000000000000 
1 20.22499999999999787 0.00000000000000000 0.00000000000000000 -1.00000000000000000 
1 3.14159265358979312 0.00000000000000000 0.00000000000000000 -1.00000000000000000 
1 6.28318530717958623 0.00000000000000000 0.00000000000000000 -1.00000000000000000 
1 0.00000000000000000 0.00000000000000000 0.00000000000000000 -1.00000000000000000 
1 3.14159265358979312 0.00000000000000000 0.00000000000000000 -1.00000000000000000 
1 4.71238898038468879 0.00000000000000000 0.00000000000000000 -1.00000000000000000 
1 20.22499999998848352 0.00000000000000000 0.00000000000000022 -1.00000000000000000 
1 4.71238898038468967 0.00000000000000000 0.00000000000000000 -1.00000000000000000 
1 0.00000000000000000 -0.00000000000001421 0.00000000000000022 -1.00000000000000000 
2 11.70000000000001350 -94.60000000000000853 0.00000000000000000 1.00000000000000000 -1.00000000000000000 0.00000000000000000 3.96875000000000000
1 0.00000000000000000 -3.17499999999999982 1.00000000000000000 0.00000000000000000 
2 11.70000000000001350 -25.39999999999999147 0.00000000000000000 1.00000000000000000 -1.00000000000000000 0.00000000000000000 3.96875000000000000
1 0.00000000000000000 -3.17499999999999982 1.00000000000000000 0.00000000000000000 
1 0.00000000000000000 0.00000000000000000 0.00000000000000000 -1.00000000000000000 
1 6.28318530717958623 0.00000000000000000 0.00000000000000000 -1.00000000000000000 
1 0.00000000000000000 0.00000000000000000 0.00000000000000000 -1.00000000000000000 
1 6.28318530717958623 0.00000000000000000 0.00000000000000000 -1.00000000000000000 
Curves 36
1 24.39999999999999858 -60.00000000000000000 0.00000000000001320 0.00000000000000000 1.00000000000000000 -0.00000000000000022 
1 25.39999999999999858 0.00000000000000000 0.00000000000000000 -1.00000000000000000 0.00000000000000000 0.00000000000000000 
1 1.00000000000000000 -60.00000000000000000 0.00000000000001320 0.00000000000000000 1.00000000000000000 -0.00000000000000022 
2 12.69999999999999929 -47.30000000000001137 0.00000000000000000 0.00000000000000000 0.00000000000000000 1.00000000000000000 1.00000000000000000 0.00000000000000000 -0.00000000000000000 -0.00000000000000000 1.00000000000000000 0.00000000000000000 3.96875000000000000
2 12.69999999999999929 47.30000000000001137 0.00000000000000000 0.00000000000000000 0.00000000000000000 1.00000000000000000 1.00000000000000000 0.00000000000000000 -0.00000000000000000 -0.00000000000000000 1.00000000000000000 0.00000000000000000 3.96875000000000000
1 25.39999999999999858 -60.00000000000000000 1.00000000000001310 0.00000000000000000 1.00000000000000000 -0.00000000000000022 
8 0.00000000000000000 1.57079632679489611
2 24.39999999999999858 0.99999999999999978 -0.00000000000000044 0.00000000000000000 0.00000000000000044 1.00000000000000000 0.00000000000000000 -1.00000000000000000 0.00000000000000044 1.00000000000000000 0.00000000000000000 -0.00000000000000000 1.00000000000000000
8 -0.00000000000000089 1.57079632679489656
2 0.99999999999999978 0.99999999999999978 -0.00000000000000044 -0.00000000000000000 -0.00000000000000044 -1.00000000000000000 0.00000000000000000 -1.00000000000000000 0.00000000000000044 -1.00000000000000000 0.00000000000000000 0.00000000000000000 1.00000000000000000
1 25.39999999999999858 3.17500000001151328 0.00000000000000000 0.00000000000000000 -1.00000000000000000 0.00000000000000000 
1 0.00000000000000000 0.00000000000000000 0.00000000000000000 0.00000000000000000 1.00000000000000000 0.00000000000000000 
8 3.14159265358979312 4.71238898038468967
2 24.39999999999999858 2.17500000001151328 -0.00000000000000097 -0.00000000000000000 -0.00000000000000044 -1.00000000000000000 0.00000000000000000 -1.00000000000000000 0.00000000000000044 -1.00000000000000000 0.00000000000000000 0.00000000000000000 1.00000000000000000
8 1.57079632679489656 3.14159265358979312
2 0.99999999999999978 24.39999999999999858 -0.00000000000001084 -0.00000000000000000 -0.00000000000000044 -1.00000000000000000 0.00000000000000000 -1.00000000000000000 0.00000000000000044 -1.00000000000000000 0.00000000000000000 0.00000000000000000 1.00000000000000000
1 3.17499999999999982 3.17500000001151328 0.00000000000000000 1.00000000000000000 0.00000000000000000 0.00000000000000000 
1 0.00000000000000000 25.39999999999999858 0.00000000000000000 1.00000000000000000 0.00000000000000000 0.00000000000000000 
8 4.71238898038468879 6.28318530717958623
2 4.17499999999999982 4.17500000001151417 -0.00000000000000185 0.00000000000000000 0.00000000000000044 1.00000000000000000 0.00000000000000000 -1.00000000000000000 0.00000000000000044 1.00000000000000000 0.00000000000000000 -0.00000000000000000 1.00000000000000000
8 3.14159265358979312 4.71238898038468967
2 2.17499999999999982 24.39999999999999858 -0.00000000000001084 -0.00000000000000000 -0.00000000000000044 -1.00000000000000000 0.00000000000000000 -1.00000000000000000 0.00000000000000044 -1.00000000000000000 0.00000000000000000 0.00000000000000000 1.00000000000000000
1 3.17499999999999982 25.39999999999999858 0.00000000000000000 0.00000000000000000 -1.00000000000000000 0.00000000000000000 
1 0.00000000000000000 -60.00000000000000000 1.00000000000001310 0.00000000000000000 1.00000000000000000 -0.00000000000000022 
1 16.66874999999999929 47.30000000000001137 -0.00000000000001041 0.00000000000000000 0.00000000000000022 1.00000000000000000 
2 12.69999999999999929 47.30000000000001137 3.17500000001150307 0.00000000000000000 -0.00000000000000022 -1.00000000000000000 1.00000000000000000 0.00000000000000000 0.00000000000000000 0.00000000000000000 -1.00000000000000000 0.00000000000000022 3.96875000000000000
1 16.66874999999999929 -47.30000000000001137 0.00000000000001041 0.00000000000000000 0.00000000000000022 1.00000000000000000 
2 12.69999999999999929 -47.30000000000001137 3.17500000001152349 0.00000000000000000 -0.00000000000000022 -1.00000000000000000 1.00000000000000000 0.00000000000000000 0.00000000000000000 0.00000000000000000 -1.00000000000000000 0.00000000000000022 3.96875000000000000
1 25.39999999999999858 -60.00000000000000000 2.17500000001152616 0.00000000000000000 1.00000000000000000 -0.00000000000000022 
1 0.00000000000000000 -59.99999999999998579 24.40000000000001279 0.00000000000000000 1.00000000000000000 -0.00000000000000022 
2 -34.60000000000000853 12.69999999999999929 0.00000000000000000 0.00000000000000000 0.00000000000000000 1.00000000000000000 1.00000000000000000 0.00000000000000000 -0.00000000000000000 -0.00000000000000000 1.00000000000000000 0.00000000000000000 3.96875000000000000
2 34.60000000000000853 12.69999999999999929 0.00000000000000000 0.00000000000000000 0.00000000000000000 1.00000000000000000 1.00000000000000000 0.00000000000000000 -0.00000000000000000 -0.00000000000000000 1.00000000000000000 0.00000000000000000 3.96875000000000000
1 24.39999999999999858 -60.00000000000000000 3.17500000001152616 0.00000000000000000 1.00000000000000000 -0.00000000000000022 
1 1.00000000000000000 -59.99999999999998579 25.40000000000001279 0.00000000000000000 1.00000000000000000 -0.00000000000000022 
1 4.17499999999999982 -60.00000000000000000 3.17500000001152749 0.00000000000000000 1.00000000000000000 -0.00000000000000022 
1 2.17499999999999982 -59.99999999999998579 25.40000000000001279 0.00000000000000000 1.00000000000000000 -0.00000000000000022 
1 3.17499999999999982 -60.00000000000000000 4.17500000001152749 0.00000000000000000 1.00000000000000000 -0.00000000000000022 
1 3.17499999999999982 -59.99999999999998579 24.40000000000001279 0.00000000000000000 1.00000000000000000 -0.00000000000000022 
2 3.17499999999999982 34.60000000000000853 12.69999999999999929 -1.00000000000000000 0.00000000000000000 0.00000000000000000 0.00000000000000000 -1.00000000000000000 0.00000000000000000 0.00000000000000000 0.00000000000000000 1.00000000000000000 3.96875000000000000
2 3.17499999999999982 -34.60000000000000853 12.69999999999999929 -1.00000000000000000 0.00000000000000000 0.00000000000000000 0.00000000000000000 -1.00000000000000000 0.00000000000000000 0.00000000000000000 0.00000000000000000 1.00000000000000000 3.96875000000000000
1 0.00000000000000000 30.63125000000000853 12.69999999999999929 1.00000000000000000 0.00000000000000000 0.00000000000000000 
1 0.00000000000000000 -38.56875000000000853 12.69999999999999929 1.00000000000000000 0.00000000000000000 0.00000000000000000 
Polygon3D 0
PolygonOnTriangulations 0
Surfaces 27
1 24.39999999999999858 -60.00000000000000000 0.00000000000001320 0.00000000000000000 0.00000000000000022 1.00000000000000000 -1.00000000000000000 0.00000000000000000 0.00000000000000000 0.00000000000000000 -1.00000000000000000 0.00000000000000022 
2 24.39999999999999858 -60.00000000000000000 1.00000000000001288 0.00000000000000000 -1.00000000000000000 0.00000000000000044 0.00000000000000000 -0.00000000000000044 -1.00000000000000000 1.00000000000000000 0.00000000000000000 0.00000000000000000 1.00000000000000000
2 0.99999999999999978 -60.00000000000000000 1.00000000000001288 -0.00000000000000000 -1.00000000000000000 0.00000000000000044 0.00000000000000000 -0.00000000000000044 -1.00000000000000000 -1.00000000000000000 -0.00000000000000000 -0.00000000000000000 1.00000000000000000
2 12.69999999999999929 47.30000000000001137 -0.00000000000001041 0.00000000000000000 -0.00000000000000022 -1.00000000000000000 1.00000000000000000 0.00000000000000000 0.00000000000000000 0.00000000000000000 -1.00000000000000000 0.00000000000000022 3.96875000000000000
1 12.70000000000000107 47.30000000000001847 -0.00000000000001041 0.00000000000000000 -0.00000000000000022 -1.00000000000000000 0.00000000000000000 -1.00000000000000000 0.00000000000000022 -1.00000000000000000 -0.00000000000000000 0.00000000000000000 
2 12.69999999999999929 -47.30000000000001137 0.00000000000001041 0.00000000000000000 -0.00000000000000022 -1.00000000000000000 1.00000000000000000 0.00000000000000000 0.00000000000000000 0.00000000000000000 -1.00000000000000000 0.00000000000000022 3.96875000000000000
1 12.70000000000000107 -47.30000000000001847 0.00000000000001041 -0.00000000000000000 -0.00000000000000022 -1.00000000000000000 0.00000000000000000 -1.00000000000000000 0.00000000000000022 -1.00000000000000000 0.00000000000000000 0.00000000000000000 
1 25.39999999999999858 -60.00000000000000000 2.17500000001152660 -1.00000000000000000 0.00000000000000000 0.00000000000000000 0.00000000000000000 0.00000000000000000 -1.00000000000000000 -0.00000000000000000 -1.00000000000000000 -0.00000000000000000 
2 24.39999999999999858 0.99999999999999978 -0.00000000000000044 0.00000000000000000 0.00000000000000044 1.00000000000000000 0.00000000000000000 -1.00000000000000000 0.00000000000000044 1.00000000000000000 0.00000000000000000 -0.00000000000000000 1.00000000000000000
1 7.83828125000251763 0.00000000000000174 7.83828125000251763 -0.00000000000000000 1.00000000000000000 -0.00000000000000022 0.00000000000000000 0.00000000000000022 1.00000000000000000 1.00000000000000000 0.00000000000000000 -0.00000000000000000 
2 0.99999999999999978 0.99999999999999978 -0.00000000000000044 0.00000000000000000 0.00000000000000044 1.00000000000000000 0.00000000000000000 -1.00000000000000000 0.00000000000000044 -1.00000000000000000 -0.00000000000000000 0.00000000000000000 1.00000000000000000
1 0.00000000000000000 -60.00000000000000000 1.00000000000001310 1.00000000000000000 -0.00000000000000000 0.00000000000000000 0.00000000000000000 0.00000000000000000 1.00000000000000000 -0.00000000000000000 -1.00000000000000000 0.00000000000000000 
2 24.39999999999999858 2.17500000001151328 -0.00000000000000097 0.00000000000000000 0.00000000000000044 1.00000000000000000 0.00000000000000000 1.00000000000000000 -0.00000000000000044 1.00000000000000000 -0.00000000000000000 -0.00000000000000000 1.00000000000000000
2 24.39999999999999858 -60.00000000000000000 2.17500000001152660 -0.00000000000000000 -1.00000000000000000 0.00000000000000044 0.00000000000000000 -0.00000000000000044 -1.00000000000000000 -1.00000000000000000 -0.00000000000000000 -0.00000000000000000 1.00000000000000000
2 0.99999999999999978 24.39999999999999858 -0.00000000000001084 0.00000000000000000 0.00000000000000044 1.00000000000000000 -1.00000000000000000 0.00000000000000000 0.00000000000000000 -0.00000000000000000 1.00000000000000000 -0.00000000000000044 1.00000000000000000
2 0.99999999999999978 -59.99999999999998579 24.40000000000001279 -0.00000000000000000 -1.00000000000000000 0.00000000000000044 0.00000000000000000 -0.00000000000000044 -1.00000000000000000 -1.00000000000000000 -0.00000000000000000 -0.00000000000000000 1.00000000000000000
1 4.17499999999999982 -60.00000000000000000 3.17500000001152660 0.00000000000000000 -0.00000000000000022 -1.00000000000000000 1.00000000000000000 0.00000000000000000 0.00000000000000000 0.00000000000000000 -1.00000000000000000 0.00000000000000022 
2 4.17499999999999982 4.17500000001151417 -0.00000000000000185 0.00000000000000000 0.00000000000000044 1.00000000000000000 -1.00000000000000000 0.00000000000000000 0.00000000000000000 0.00000000000000000 -1.00000000000000000 0.00000000000000044 1.00000000000000000
2 4.17499999999999982 -60.00000000000000000 4.17500000001152749 0.00000000000000000 -1.00000000000000000 0.00000000000000044 0.00000000000000000 -0.00000000000000044 -1.00000000000000000 1.00000000000000000 0.00000000000000000 0.00000000000000000 1.00000000000000000
2 2.17499999999999982 24.39999999999999858 -0.00000000000001084 0.00000000000000000 0.00000000000000044 1.00000000000000000 0.00000000000000000 1.00000000000000000 -0.00000000000000044 1.00000000000000000 -0.00000000000000000 -0.00000000000000000 1.00000000000000000
2 2.17499999999999982 -59.99999999999998579 24.40000000000001279 -0.00000000000000000 -1.00000000000000000 0.00000000000000044 0.00000000000000000 -0.00000000000000044 -1.00000000000000000 -1.00000000000000000 -0.00000000000000000 -0.00000000000000000 1.00000000000000000
1 3.17499999999999982 -60.00000000000000000 24.40000000000001279 -1.00000000000000000 0.00000000000000000 0.00000000000000000 0.00000000000000000 0.00000000000000000 -1.00000000000000000 -0.00000000000000000 -1.00000000000000000 -0.00000000000000000 
2 0.00000000000000000 34.60000000000000853 12.69999999999999929 -1.00000000000000000 0.00000000000000000 0.00000000000000000 0.00000000000000000 -1.00000000000000000 0.00000000000000000 0.00000000000000000 0.00000000000000000 1.00000000000000000 3.96875000000000000
1 0.00000000000000000 34.60000000000000853 12.69999999999999929 -1.00000000000000000 -0.00000000000000000 -0.00000000000000000 0.00000000000000000 0.00000000000000000 -1.00000000000000000 0.00000000000000000 -1.00000000000000000 0.00000000000000000 
2 0.00000000000000000 -34.60000000000000853 12.69999999999999929 -1.00000000000000000 0.00000000000000000 0.00000000000000000 0.00000000000000000 -1.00000000000000000 0.00000000000000000 0.00000000000000000 0.00000000000000000 1.00000000000000000 3.96875000000000000
1 0.00000000000000000 -34.60000000000000853 12.69999999999999929 -1.00000000000000000 -0.00000000000000000 -0.00000000000000000 0.00000000000000000 0.00000000000000000 -1.00000000000000000 0.00000000000000000 -1.00000000000000000 0.00000000000000000 
1 1.00000000000000000 -60.00000000000000000 25.40000000000001279 0.00000000000000000 -0.00000000000000022 -1.00000000000000000 1.00000000000000000 0.00000000000000000 0.00000000000000000 0.00000000000000000 -1.00000000000000000 0.00000000000000022 
Triangulations 0

TShapes 100
Ve
0.000000100000000
24.399999999999999 -0.000000000000000 0.000000000000000
0 0

0101101
*
Ed
 0.000000100000000 1 1 0
1  1 0 0.000000000000000 120.000000000000000
2  1 2 0 0.000000000000000 120.000000000000000
4 C1 1 0 2 0
2  2 1 0 0.000000000000000 120.000000000000000
0

0101000
+100 18 -100 20 *
Ve
0.000000100000000
1.000000000000000 -0.000000000000000 0.000000000000000
0 0

0101101
*
Ed
 0.000000100000000 1 1 0
1  2 0 1.000000000000000 24.399999999999999
2  3 1 26 1.000000000000000 24.399999999999999
2  4 1 27 1.000000000000000 24.399999999999999
0

0101000
+100 28 -98 28 *
Ed
 0.000000100000000 1 1 0
1  3 0 0.000000000000000 120.000000000000000
2  5 3 0 0.000000000000000 120.000000000000000
4 C1 1 0 3 0
2  6 1 0 0.000000000000000 120.000000000000000
0

0101000
+98 18 -98 20 *
Wi

0101100
+99 7 -97 25 +97 29 -96 7 *
Ve
0.000000100000000
16.668749999999999 -47.300000000000011 0.000000000000000
0 0

0101101
*
Ed
 0.000000100000000 1 1 0
1  4 0 0.000000000000000 6.283185307179586
2  7 4 33 0.000000000000000 6.283185307179586
2  8 4 35 0.000000000000000 6.283185307179586
2  9 5 36 0.000000000000000 6.283185307179586
2  10 1 37 0.000000000000000 6.283185307179586
0

0101000
+94 0 -94 0 *
Wi

0101100
+93 32 *
Ve
0.000000100000000
16.668749999999999 47.300000000000011 0.000000000000000
0 0

0101101
*
Ed
 0.000000100000000 1 1 0
1  5 0 0.000000000000000 6.283185307179586
2  11 6 33 0.000000000000000 6.283185307179586
2  12 6 35 0.000000000000000 6.283185307179586
2  13 7 36 0.000000000000000 6.283185307179586
2  14 1 37 0.000000000000000 6.283185307179586
0

0101000
+91 0 -91 0 *
Wi

0101100
+90 32 *
Fa
0  0.000000100000000 1 7

0101000
+95 0 +92 0 +89 0 *
Ve
0.000000100000000
25.399999999999999 1.000000000000000 -0.000000000000000
0 0

0101101
*
Ed
 0.000000100000000 1 1 0
1  6 0 0.000000000000000 120.000000000000000
2  15 2 0 0.000000000000000 120.000000000000000
4 C1 2 0 8 0
0

0101000
+87 18 -87 20 *
Ed
 0.000000100000000 1 1 0
1  7 0 0.000000000000000 1.570796326794896
2  16 9 0 0.000000000000000 1.570796326794896
2  17 10 39 0.000000000000000 1.570796326794896
2  18 2 40 0.000000000000000 1.570796326794896
2  19 2 41 0.000000000000000 1.570796326794896
0

0101000
+100 0 -87 0 *
Wi

0101100
+99 0 -86 0 -85 18 +85 20 *
Fa
0  0.000000100000000 2 0

0101000
+84 0 *
Ve
0.000000100000000
-0.000000000000000 1.000000000000000 -0.000000000000000
0 0

0101101
*
Ed
 0.000000100000000 1 1 0
1  8 0 -0.000000000000001 1.570796326794897
2  20 11 0 -0.000000000000001 1.570796326794897
2  21 10 39 -0.000000000000001 1.570796326794897
2  22 3 40 -0.000000000000001 1.570796326794897
2  23 3 41 -0.000000000000001 1.570796326794897
0

0101000
+98 0 -82 0 *
Ve
0.000000100000000
25.399999999999999 2.175000000011513 -0.000000000000001
0 0

0101101
*
Ed
 0.000000100000000 1 1 0
1  9 0 1.000000000000000 2.175000000011514
0

0101000
+80 28 -87 28 *
Ve
0.000000100000000
-0.000000000000000 24.399999999999999 -0.000000000000011
0 0

0101101
*
Ed
 0.000000100000000 1 1 0
1  10 0 1.000000000000000 24.399999999999999
2  24 12 26 1.000000000000000 24.399999999999999
2  25 12 27 1.000000000000000 24.399999999999999
0

0101000
+82 28 -78 28 *
Ve
0.000000100000000
24.399999999999999 3.175000000011513 -0.000000000000001
0 0

0101101
*
Ed
 0.000000100000000 1 1 0
1  11 0 3.141592653589793 4.712388980384690
2  26 13 0 3.141592653589793 4.712388980384690
2  27 10 39 3.141592653589793 4.712388980384690
2  28 14 40 3.141592653589793 4.712388980384690
2  29 14 41 3.141592653589793 4.712388980384690
0

0101000
+76 0 -80 0 *
Ve
0.000000100000000
1.000000000000000 25.399999999999999 -0.000000000000011
0 0

0101101
*
Ed
 0.000000100000000 1 1 0
1  12 0 1.570796326794897 3.141592653589793
2  30 15 0 1.570796326794897 3.141592653589793
2  31 10 39 1.570796326794897 3.141592653589793
2  32 16 40 1.570796326794897 3.141592653589793
2  33 16 41 1.570796326794897 3.141592653589793
0

0101000
+78 0 -74 0 *
Ve
0.000000100000000
4.175000000000000 3.175000000011514 -0.000000000000001
0 0

0101101
*
Ed
 0.000000100000000 1 1 0
1  13 0 1.000000000000000 21.224999999999998
2  34 17 26 1.000000000000000 21.224999999999998
2  35 17 27 1.000000000000000 21.224999999999998
0

0101000
+72 28 -76 28 *
Ve
0.000000100000000
2.175000000000000 25.399999999999999 -0.000000000000011
0 0

0101101
*
Ed
 0.000000100000000 1 1 0
1  14 0 1.000000000000000 2.175000000000000
0

0101000
+74 28 -70 28 *
Ve
0.000000100000000
3.175000000000000 4.175000000011514 -0.000000000000002
0 0

0101101
*
Ed
 0.000000100000000 1 1 0
1  15 0 4.712388980384689 6.283185307179586
2  36 18 0 4.712388980384689 6.283185307179586
2  37 10 39 4.712388980384689 6.283185307179586
2  38 19 40 4.712388980384689 6.283185307179586
2  39 19 41 4.712388980384689 6.283185307179586
0

0101000
+68 0 -72 0 *
Ve
0.000000100000000
3.175000000000000 24.399999999999999 -0.000000000000011
0 0

0101101
*
Ed
 0.000000100000000 1 1 0
1  16 0 3.141592653589793 4.712388980384690
2  40 20 0 3.141592653589793 4.712388980384690
2  41 10 39 3.141592653589793 4.712388980384690
2  42 21 40 3.141592653589793 4.712388980384690
2  43 21 41 3.141592653589793 4.712388980384690
0

0101000
+70 0 -66 0 *
Ed
 0.000000100000000 1 1 0
1  17 0 1.000000000000000 21.224999999988484
2  44 22 26 1.000000000000000 21.224999999988484
2  45 22 27 1.000000000000000 21.224999999988484
0

0101000
+66 28 -68 28 *
Wi

0101100
+97 44 -85 0 +81 0 +79 44 +77 44 +75 0 +73 0 +71 44 +69 44 +67 0 
+65 0 +64 44 *
Fa
0  0.000000100000000 10 0

0101000
+63 43 *
Ed
 0.000000100000000 1 1 0
1  18 0 0.000000000000000 120.000000000000000
2  46 3 0 0.000000000000000 120.000000000000000
4 C1 3 0 12 0
2  47 12 0 0.000000000000000 120.000000000000000
0

0101000
+82 18 -82 20 *
Wi

0101100
+96 0 -61 0 -81 18 +81 20 *
Fa
0  0.000000100000000 3 0

0101000
+60 0 *
Ve
0.000000100000000
16.668749999999999 47.300000000000011 3.175000000011503
0 0

0101101
*
Ed
 0.000000100000000 1 1 0
1  19 0 0.000000000000000 3.175000000011513
3  48 49CN 4 0 0.000000000000000 3.175000000011513
0

0101000
+94 32 -58 0 *
Ed
 0.000000100000000 1 1 0
1  20 0 0.000000000000000 6.283185307179586
2  50 17 7 0.000000000000000 6.283185307179586
2  51 4 0 0.000000000000000 6.283185307179586
0

0101000
+58 0 -58 0 *
Wi

0101100
-93 32 -57 0 +56 0 +57 0 *
Fa
0  0.000000100000000 4 0

0101000
+55 0 *
Ve
0.000000100000000
16.668749999999999 -47.300000000000011 3.175000000011524
0 0

0101101
*
Ed
 0.000000100000000 1 1 0
1  21 0 0.000000000000000 3.175000000011514
3  52 53CN 6 0 0.000000000000000 3.175000000011514
0

0101000
+91 32 -53 0 *
Ed
 0.000000100000000 1 1 0
1  22 0 0.000000000000000 6.283185307179586
2  54 17 7 0.000000000000000 6.283185307179586
2  55 6 0 0.000000000000000 6.283185307179586
0

0101000
+53 0 -53 0 *
Wi

0101100
-90 32 -52 0 +51 0 +52 0 *
Fa
0  0.000000100000000 6 0

0101000
+50 0 *
Ed
 0.000000100000000 1 1 0
1  23 0 0.000000000000000 120.000000000000000
2  56 14 0 0.000000000000000 120.000000000000000
4 C1 8 0 14 0
0

0101000
+80 18 -80 20 *
Wi

0101100
+48 0 -86 0 -79 46 +79 47 *
Fa
0  0.000000100000000 8 0

0101000
+47 0 *
Ed
 0.000000100000000 1 1 0
1  24 0 0.000000000000000 120.000000000000000
2  57 16 0 0.000000000000000 120.000000000000000
4 C1 12 0 16 0
2  58 12 0 0.000000000000000 120.000000000000000
0

0101000
+78 18 -78 20 *
Wi

0101100
+61 38 -77 48 +77 49 -45 38 *
Ve
0.000000100000000
-30.631250000000009 12.699999999999999 0.000000000000000
0 0

0101101
*
Ed
 0.000000100000000 1 1 0
1  25 0 0.000000000000000 6.283185307179586
2  59 23 53 0.000000000000000 6.283185307179586
2  60 23 55 0.000000000000000 6.283185307179586
2  61 24 56 0.000000000000000 6.283185307179586
2  62 12 57 0.000000000000000 6.283185307179586
0

0101000
+43 0 -43 0 *
Wi

0101100
+42 52 *
Ve
0.000000100000000
38.568750000000009 12.699999999999999 0.000000000000000
0 0

0101101
*
Ed
 0.000000100000000 1 1 0
1  26 0 0.000000000000000 6.283185307179586
2  63 25 53 0.000000000000000 6.283185307179586
2  64 25 55 0.000000000000000 6.283185307179586
2  65 26 56 0.000000000000000 6.283185307179586
2  66 12 57 0.000000000000000 6.283185307179586
0

0101000
+40 0 -40 0 *
Wi

0101100
+39 52 *
Fa
0  0.000000100000000 12 38

0101000
+44 0 +41 0 +38 0 *
Ed
 0.000000100000000 1 1 0
1  27 0 0.000000000000000 120.000000000000000
2  67 14 0 0.000000000000000 120.000000000000000
4 C1 14 0 17 0
2  68 17 0 0.000000000000000 120.000000000000000
0

0101000
+76 18 -76 20 *
Wi

0101100
+36 0 -48 0 -75 18 +75 20 *
Fa
0  0.000000100000000 14 0

0101000
+35 0 *
Ed
 0.000000100000000 1 1 0
1  28 0 0.000000000000000 120.000000000000000
2  69 16 0 0.000000000000000 120.000000000000000
4 C1 16 0 27 0
0

0101000
+74 18 -74 20 *
Wi

0101100
+45 0 -33 0 -73 18 +73 20 *
Fa
0  0.000000100000000 16 0

0101000
+32 0 *
Ed
 0.000000100000000 1 1 0
1  29 0 0.000000000000000 120.000000000000000
2  70 19 0 0.000000000000000 120.000000000000000
4 C1 17 0 19 0
2  71 17 0 0.000000000000000 120.000000000000000
0

0101000
+72 18 -72 20 *
Wi

0101100
+30 7 -71 25 +71 29 -36 7 *
Wi

0101100
-56 0 *
Wi

0101100
-51 0 *
Fa
0  0.000000100000000 17 7

0101000
+29 0 +28 0 +27 0 *
Ed
 0.000000100000000 1 1 0
1  30 0 0.000000000000000 120.000000000000000
2  72 21 0 0.000000000000000 120.000000000000000
4 C1 27 0 21 0
0

0101000
+70 18 -70 20 *
Wi

0101100
+33 0 -25 0 -69 46 +69 47 *
Fa
0  0.000000100000000 27 0

0101000
+24 0 *
Ed
 0.000000100000000 1 1 0
1  31 0 0.000000000000000 120.000000000000000
2  73 19 0 0.000000000000000 120.000000000000000
4 C1 19 0 22 0
2  74 22 0 0.000000000000000 120.000000000000000
0

0101000
+68 18 -68 20 *
Wi

0101100
+22 0 -30 0 -67 18 +67 20 *
Fa
0  0.000000100000000 19 0

0101000
+21 0 *
Ed
 0.000000100000000 1 1 0
1  32 0 0.000000000000000 120.000000000000000
2  75 21 0 0.000000000000000 120.000000000000000
4 C1 21 0 22 0
2  76 22 0 0.000000000000000 120.000000000000000
0

0101000
+66 18 -66 20 *
Wi

0101100
+25 0 -19 0 -65 18 +65 20 *
Fa
0  0.000000100000000 21 0

0101000
+18 0 *
Wi

0101100
+19 38 -64 48 +64 49 -22 38 *
Ve
0.000000100000002
3.175000000000000 30.631250000000009 12.699999999999999
0 0

0101101
*
Ed
 0.000000100000000 1 1 0
1  33 0 0.000000000000000 6.283185307179586
2  77 22 38 0.000000000000000 6.283185307179586
2  78 23 0 0.000000000000000 6.283185307179586
0

0101000
+15 0 -15 0 *
Wi

0101100
-14 0 *
Ve
0.000000100000002
3.175000000000000 -38.568750000000009 12.699999999999999
0 0

0101101
*
Ed
 0.000000100000000 1 1 0
1  34 0 0.000000000000000 6.283185307179586
2  79 22 38 0.000000000000000 6.283185307179586
2  80 25 0 0.000000000000000 6.283185307179586
0

0101000
+12 0 -12 0 *
Wi

0101100
-11 0 *
Fa
0  0.000000100000000 22 38

0101000
+16 0 +13 0 +10 0 *
Ed
 0.000000100000000 1 1 0
1  35 0 0.000000000000000 3.175000000000000
3  81 82CN 23 0 0.000000000000000 3.175000000000000
0

0101000
+43 52 -15 0 *
Wi

0101100
-42 52 -8 0 +14 0 +8 0 *
Fa
0  0.000000100000000 23 0

0101000
+7 0 *
Ed
 0.000000100000000 1 1 0
1  36 0 0.000000000000000 3.175000000000000
3  83 84CN 25 0 0.000000000000000 3.175000000000000
0

0101000
+40 52 -12 0 *
Wi

0101100
-39 52 -5 0 +11 0 +5 0 *
Fa
0  0.000000100000000 25 0

0101000
+4 0 *
Sh

0101100
-88 4 +83 38 -62 42 +62 45 -59 38 -54 4 -49 4 -46 38 -37 0 -34 38 
-31 38 -26 4 -23 38 -20 38 -17 38 -9 0 -6 0 -3 0 *
So

0100000
+2 0 *

+1 1 