
CASCADE Topology V1, (c) Matra-Datavision
Locations 52
1
1.000000000000000 0.000000000000000 0.000000000000000 0.000000000000000 
0.000000000000000 1.000000000000000 0.000000000000000 0.000000000000000 
0.000000000000000 0.000000000000000 1.000000000000000 0.000000000000000 
1
1.000000000000000 0.000000000000000 0.000000000000000 0.000000000000000 
0.000000000000000 1.000000000000000 0.000000000000000 0.000000000000000 
0.000000000000000 0.000000000000000 1.000000000000000 0.000000000000000 
1
1.000000000000000 0.000000000000000 0.000000000000000 0.000000000000000 
0.000000000000000 1.000000000000000 0.000000000000000 0.000000000000000 
0.000000000000000 0.000000000000000 1.000000000000000 0.000000000000000 
2  2 1 3 -1 0
1
1.000000000000000 0.000000000000000 0.000000000000000 0.000000000000000 
0.000000000000000 1.000000000000000 0.000000000000000 0.000000000000000 
0.000000000000000 0.000000000000000 1.000000000000000 0.000000000000000 
2  5 -1 3 1 2 -1 0
1
1.000000000000000 0.000000000000000 0.000000000000000 0.000000000000000 
0.000000000000000 1.000000000000000 0.000000000000000 0.000000000000000 
0.000000000000000 0.000000000000000 1.000000000000000 0.000000000000000 
1
1.000000000000000 0.000000000000000 0.000000000000000 0.000000000000000 
0.000000000000000 0.000000000000000 -1.000000000000000 0.000000000000000 
0.000000000000000 1.000000000000000 0.000000000000000 0.000000000000000 
1
1.000000000000000 0.000000000000000 0.000000000000000 0.000000000000000 
0.000000000000000 -0.000000000000000 -1.000000000000000 0.000000000000000 
0.000000000000000 1.000000000000000 -0.000000000000000 0.000000000000000 
1
1.000000000000000 0.000000000000000 0.000000000000000 0.000000000000000 
0.000000000000000 1.000000000000000 0.000000000000000 0.000000000000000 
0.000000000000000 0.000000000000000 1.000000000000000 0.000000000000000 
1
1.000000000000000 0.000000000000000 0.000000000000000 0.000000000000000 
0.000000000000000 1.000000000000000 0.000000000000000 0.000000000000000 
0.000000000000000 0.000000000000000 1.000000000000000 0.000000000000000 
1
1.000000000000000 0.000000000000000 0.000000000000000 0.000000000000000 
0.000000000000000 1.000000000000000 0.000000000000000 0.000000000000000 
0.000000000000000 0.000000000000000 1.000000000000000 0.000000000000000 
1
1.000000000000000 0.000000000000000 0.000000000000000 0.000000000000000 
0.000000000000000 0.000000000000000 -1.000000000000000 0.000000000000000 
0.000000000000000 1.000000000000000 0.000000000000000 0.000000000000000 
1
1.000000000000000 0.000000000000000 0.000000000000000 0.000000000000000 
0.000000000000000 1.000000000000000 0.000000000000000 0.000000000000000 
0.000000000000000 0.000000000000000 1.000000000000000 0.000000000000000 
1
1.000000000000000 0.000000000000000 0.000000000000000 0.000000000000000 
0.000000000000000 1.000000000000000 0.000000000000000 0.000000000000000 
0.000000000000000 0.000000000000000 1.000000000000000 0.000000000000000 
1
1.000000000000000 0.000000000000000 0.000000000000000 0.000000000000000 
0.000000000000000 1.000000000000000 0.000000000000000 0.000000000000000 
0.000000000000000 0.000000000000000 1.000000000000000 0.000000000000000 
1
1.000000000000000 0.000000000000000 0.000000000000000 0.000000000000000 
0.000000000000000 1.000000000000000 0.000000000000000 0.000000000000000 
0.000000000000000 0.000000000000000 1.000000000000000 0.000000000000000 
1
1.000000000000000 0.000000000000000 0.000000000000000 0.000000000000000 
0.000000000000000 1.000000000000000 0.000000000000000 0.000000000000000 
0.000000000000000 0.000000000000000 1.000000000000000 0.000000000000000 
1
1.000000000000000 0.000000000000000 0.000000000000000 0.000000000000000 
0.000000000000000 1.000000000000000 0.000000000000000 0.000000000000000 
0.000000000000000 0.000000000000000 1.000000000000000 0.000000000000000 
1
1.000000000000000 0.000000000000000 0.000000000000000 0.000000000000000 
0.000000000000000 1.000000000000000 0.000000000000000 0.000000000000000 
0.000000000000000 0.000000000000000 1.000000000000000 0.000000000000000 
1
1.000000000000000 0.000000000000000 0.000000000000000 -0.000000000000000 
0.000000000000000 1.000000000000000 0.000000000000000 -565.000000000000000 
0.000000000000000 0.000000000000000 1.000000000000000 0.000000000000124 
2  7 1 8 1 9 -1 10 1 11 1 12 1 13 1 14 1 15 1 16 1 17 1 18 1 19 1 20 -1 21 1 0
2  5 -1 3 1 2 -1 21 -1 20 1 19 -1 18 -1 17 -1 16 -1 15 -1 14 -1 13 -1 12 -1 11 -1 10 -1 9 1 8 -1 7 -1 0
1
1.000000000000000 0.000000000000000 0.000000000000000 0.000000000000000 
0.000000000000000 1.000000000000000 0.000000000000000 1130.000000000000000 
0.000000000000000 0.000000000000000 1.000000000000000 -0.000000000000249 
2  7 1 8 1 9 -1 10 1 11 1 12 1 13 1 14 1 15 1 16 1 17 1 18 1 19 1 20 -1 21 1 24 1 0
2  5 -1 3 1 2 -1 24 -1 21 -1 20 1 19 -1 18 -1 17 -1 16 -1 15 -1 14 -1 13 -1 12 -1 11 -1 10 -1 9 1 8 -1 7 -1 0
2  12 1 13 1 14 1 15 1 16 1 17 1 18 1 19 1 20 -1 21 1 0
2  21 -1 20 1 19 -1 18 -1 17 -1 16 -1 15 -1 14 -1 13 -1 12 -1 0
2  5 -1 3 1 2 -1 21 -1 20 1 19 -1 18 -1 17 -1 16 -1 15 -1 14 -1 13 -1 12 -1 0
2  12 1 13 1 14 1 15 1 16 1 17 1 18 1 19 1 20 -1 21 1 24 1 0
2  24 -1 21 -1 20 1 19 -1 18 -1 17 -1 16 -1 15 -1 14 -1 13 -1 12 -1 0
2  5 -1 3 1 2 -1 24 -1 21 -1 20 1 19 -1 18 -1 17 -1 16 -1 15 -1 14 -1 13 -1 12 -1 0
2  9 -1 10 1 11 1 12 1 13 1 14 1 15 1 16 1 17 1 18 1 19 1 20 -1 21 1 2 1 3 -1 0
2  11 -1 10 -1 9 1 0
2  7 1 8 1 9 -1 10 1 11 1 0
2  10 -1 9 1 0
2  7 1 8 1 9 -1 10 1 0
2  21 -1 20 1 19 -1 18 -1 17 -1 16 -1 15 -1 14 -1 13 -1 12 -1 11 -1 0
2  5 -1 3 1 2 -1 21 -1 20 1 19 -1 18 -1 17 -1 16 -1 15 -1 14 -1 13 -1 12 -1 11 -1 0
2  9 -1 10 1 11 1 12 1 13 1 14 1 15 1 16 1 17 1 18 1 19 1 20 -1 21 1 24 1 2 1 3 -1 0
2  24 -1 21 -1 20 1 19 -1 18 -1 17 -1 16 -1 15 -1 14 -1 13 -1 12 -1 11 -1 0
2  5 -1 3 1 2 -1 24 -1 21 -1 20 1 19 -1 18 -1 17 -1 16 -1 15 -1 14 -1 13 -1 12 -1 11 -1 0
2  7 1 8 1 9 -1 10 1 11 1 12 1 13 1 14 1 15 1 16 1 17 1 18 1 19 1 20 -1 21 1 2 1 3 -1 0
2  7 1 8 1 9 -1 10 1 11 1 12 1 13 1 14 1 15 1 16 1 17 1 18 1 19 1 20 -1 21 1 24 1 2 1 3 -1 0
2  5 -1 0
1
1.000000000000000 0.000000000000000 0.000000000000000 0.000000000000000 
0.000000000000000 1.000000000000000 0.000000000000000 0.000000000000000 
0.000000000000000 0.000000000000000 1.000000000000000 0.000000000000000 
1
1.000000000000000 0.000000000000000 0.000000000000000 0.000000000000000 
0.000000000000000 1.000000000000000 0.000000000000000 0.000000000000004 
0.000000000000000 -0.000000000000000 1.000000000000000 20.000000000000000 
2  46 1 47 1 3 -1 0
2  3 1 47 -1 46 -1 0
2  5 -1 3 1 47 -1 46 -1 0
2  11 1 12 1 13 1 14 1 15 1 16 1 17 1 18 1 19 1 20 -1 21 1 0
2  11 1 12 1 13 1 14 1 15 1 16 1 17 1 18 1 19 1 20 -1 21 1 24 1 0
Curve2ds 44
1 4.71238898038468967 0.00000000000000000 0.00000000000000000 -1.00000000000000000 
1 1.57079632679489700 0.00000000000000000 0.00000000000000000 -1.00000000000000000 
1 6.28318530717958623 0.00000000000000000 0.00000000000000000 -1.00000000000000000 
1 0.00000000000000000 0.00000000000000000 1.00000000000000000 0.00000000000000000 
1 0.00000000000000000 -1130.00000000000000000 1.00000000000000000 0.00000000000000000 
1 3.14159265358979312 0.00000000000000000 0.00000000000000000 -1.00000000000000000 
1 0.00000000000000000 0.00000000000000000 1.00000000000000000 0.00000000000000000 
1 0.00000000000000000 -1130.00000000000000000 1.00000000000000000 0.00000000000000000 
1 0.00000000000000000 0.00000000000000000 1.00000000000000000 0.00000000000000000 
1 0.00000000000000000 0.00000000000000000 1.00000000000000000 0.00000000000000000 
1 0.00000000000000000 0.00000000000000000 1.00000000000000000 0.00000000000000000 
1 0.00000000000000000 0.00000000000000000 1.00000000000000000 0.00000000000000000 
1 0.00000000000000000 0.00000000000000000 1.00000000000000000 0.00000000000000000 
1 0.00000000000000000 0.00000000000000000 1.00000000000000000 0.00000000000000000 
1 0.00000000000000000 -1130.00000000000000000 1.00000000000000000 0.00000000000000000 
1 0.00000000000000000 -1130.00000000000000000 1.00000000000000000 0.00000000000000000 
1 0.00000000000000000 -1130.00000000000000000 1.00000000000000000 0.00000000000000000 
1 0.00000000000000000 -1130.00000000000000000 1.00000000000000000 0.00000000000000000 
1 0.00000000000000000 -1130.00000000000000000 1.00000000000000000 0.00000000000000000 
1 0.00000000000000000 -1130.00000000000000000 1.00000000000000000 0.00000000000000000 
1 0.00000000000000000 0.00000000000000000 0.00000000000000000 -1.00000000000000000 
1 0.00000000000000000 -38.41250000000000142 1.00000000000000000 0.00000000000000000 
1 0.00000000000000000 -38.41250000000000142 1.00000000000000000 0.00000000000000000 
1 3.14159265358979312 0.00000000000000000 0.00000000000000000 -1.00000000000000000 
1 0.00000000000000000 -1.58749999999999858 1.00000000000000000 0.00000000000000000 
1 0.00000000000000000 -1.58749999999999858 1.00000000000000000 0.00000000000000000 
1 1.57079632679489700 0.00000000000000000 0.00000000000000000 -1.00000000000000000 
1 1.57079632679489700 0.00000000000000000 0.00000000000000000 -1.00000000000000000 
1 3.14159265358979312 0.00000000000000000 0.00000000000000000 -1.00000000000000000 
1 3.14159265358979312 0.00000000000000000 0.00000000000000000 -1.00000000000000000 
1 0.00000000000000000 0.00000000000000000 1.00000000000000000 0.00000000000000000 
1 0.00000000000000000 0.00000000000000000 1.00000000000000000 0.00000000000000000 
1 4.71238898038468967 0.00000000000000000 0.00000000000000000 -1.00000000000000000 
1 4.71238898038468967 0.00000000000000000 0.00000000000000000 -1.00000000000000000 
1 1.57079632679489700 0.00000000000000000 0.00000000000000000 -1.00000000000000000 
1 4.71238898038468967 0.00000000000000000 0.00000000000000000 -1.00000000000000000 
1 0.00000000000000000 0.00000000000000000 0.00000000000000000 -1.00000000000000000 
1 6.28318530717958623 0.00000000000000000 0.00000000000000000 -1.00000000000000000 
1 0.00000000000000000 -40.00000000000000000 1.00000000000000000 0.00000000000000000 
1 0.00000000000000000 -40.00000000000000000 1.00000000000000000 0.00000000000000000 
1 0.00000000000000000 0.00000000000000000 0.00000000000000000 -1.00000000000000000 
1 6.28318530717958623 0.00000000000000000 0.00000000000000000 -1.00000000000000000 
1 0.00000000000000000 0.00000000000000000 0.00000000000000000 -1.00000000000000000 
1 6.28318530717958623 0.00000000000000000 0.00000000000000000 -1.00000000000000000 
Curves 60
1 -18.41250000000000142 -565.00000000000000000 -17.41249999999987708 0.00000000000000000 1.00000000000000000 -0.00000000000000022 
1 -18.41250000000000142 -565.00000000000000000 17.41250000000012577 0.00000000000000000 1.00000000000000000 -0.00000000000000022 
1 -18.41250000000000142 -18.41250000000000497 0.00000000000000000 0.00000000000000000 1.00000000000000000 0.00000000000000000 
1 -18.41250000000000142 -18.41250000000000497 0.00000000000000000 0.00000000000000000 1.00000000000000000 0.00000000000000000 
1 -17.41250000000000142 -565.00000000000000000 -18.41249999999987708 0.00000000000000000 1.00000000000000000 -0.00000000000000022 
8 4.71238898038468967 6.28318530717958623
2 -17.41250000000000142 -17.41250000000000142 0.00000000000000773 -0.00000000000000000 0.00000000000000044 1.00000000000000000 0.00000000000000000 -1.00000000000000000 0.00000000000000044 1.00000000000000000 0.00000000000000000 0.00000000000000000 1.00000000000000000
8 4.71238898038468967 6.28318530717958623
2 -17.41250000000000142 -17.41250000000000142 0.00000000000000773 -0.00000000000000000 0.00000000000000044 1.00000000000000000 0.00000000000000000 -1.00000000000000000 0.00000000000000044 1.00000000000000000 0.00000000000000000 0.00000000000000000 1.00000000000000000
1 -17.41250000000000142 -565.00000000000000000 18.41250000000012577 0.00000000000000000 1.00000000000000000 -0.00000000000000022 
8 1.57079632679489656 3.14159265358979312
2 -17.41250000000000142 17.41250000000000142 -0.00000000000000773 -0.00000000000000000 -0.00000000000000044 -1.00000000000000000 0.00000000000000000 -1.00000000000000000 0.00000000000000044 -1.00000000000000000 0.00000000000000000 0.00000000000000000 1.00000000000000000
8 1.57079632679489656 3.14159265358979312
2 -17.41250000000000142 17.41250000000000142 -0.00000000000000773 -0.00000000000000000 -0.00000000000000044 -1.00000000000000000 0.00000000000000000 -1.00000000000000000 0.00000000000000044 -1.00000000000000000 0.00000000000000000 0.00000000000000000 1.00000000000000000
1 18.41250000000000142 -18.41250000000000142 0.00000000000000000 -1.00000000000000000 -0.00000000000000010 0.00000000000000000 
1 -18.41250000000000142 18.41250000000000142 0.00000000000000000 1.00000000000000000 0.00000000000000000 0.00000000000000000 
8 0.00000000000000000 1.57079632679489656
2 17.41250000000000142 -17.41250000000000142 0.00000000000000773 -0.00000000000000000 0.00000000000000044 1.00000000000000000 0.00000000000000000 -1.00000000000000000 0.00000000000000044 1.00000000000000000 0.00000000000000000 0.00000000000000000 1.00000000000000000
8 1.57079632679489656 3.14159265358979312
2 17.41250000000000142 17.41250000000000142 -0.00000000000000773 -0.00000000000000000 0.00000000000000044 1.00000000000000000 0.00000000000000000 -1.00000000000000000 0.00000000000000044 1.00000000000000000 0.00000000000000000 0.00000000000000000 1.00000000000000000
1 18.41250000000000142 18.41250000000000142 0.00000000000000000 0.00000000000000000 -1.00000000000000000 0.00000000000000000 
1 -19.99999999999999645 20.00000000000000000 0.00000000000000000 1.00000000000000000 0.00000000000000000 0.00000000000000000 
8 3.14159265358979312 4.71238898038468967
2 -17.99999999999999645 18.00000000000000000 -0.00000000000000799 -0.00000000000000000 0.00000000000000044 1.00000000000000000 0.00000000000000000 -1.00000000000000000 0.00000000000000044 1.00000000000000000 0.00000000000000000 0.00000000000000000 2.00000000000000000
8 3.14159265358979312 4.71238898038468967
2 18.00000000000000355 18.00000000000000000 -0.00000000000000799 -0.00000000000000000 -0.00000000000000044 -1.00000000000000000 0.00000000000000000 -1.00000000000000000 0.00000000000000044 -1.00000000000000000 0.00000000000000000 0.00000000000000000 2.00000000000000000
1 -19.99999999999999645 -20.00000000000000000 0.00000000000000000 0.00000000000000000 1.00000000000000000 0.00000000000000000 
1 20.00000000000000355 20.00000000000000000 0.00000000000000000 0.00000000000000000 -1.00000000000000000 0.00000000000000000 
8 0.00000000000000000 1.57079632679489656
2 -17.99999999999999645 -18.00000000000000000 0.00000000000000799 -0.00000000000000000 -0.00000000000000044 -1.00000000000000000 0.00000000000000000 -1.00000000000000000 0.00000000000000044 -1.00000000000000000 0.00000000000000000 0.00000000000000000 2.00000000000000000
8 4.71238898038468967 6.28318530717958623
2 18.00000000000000355 -18.00000000000000000 0.00000000000000799 -0.00000000000000000 -0.00000000000000044 -1.00000000000000000 0.00000000000000000 -1.00000000000000000 0.00000000000000044 -1.00000000000000000 0.00000000000000000 0.00000000000000000 2.00000000000000000
1 20.00000000000000355 -20.00000000000000000 0.00000000000000000 -1.00000000000000000 0.00000000000000000 0.00000000000000000 
1 18.41250000000000142 -18.41250000000000142 0.00000000000000000 -1.00000000000000000 -0.00000000000000010 0.00000000000000000 
1 -18.41250000000000142 18.41250000000000142 0.00000000000000000 1.00000000000000000 0.00000000000000000 0.00000000000000000 
8 0.00000000000000000 1.57079632679489656
2 17.41250000000000142 -17.41250000000000142 0.00000000000000773 -0.00000000000000000 0.00000000000000044 1.00000000000000000 0.00000000000000000 -1.00000000000000000 0.00000000000000044 1.00000000000000000 0.00000000000000000 0.00000000000000000 1.00000000000000000
8 1.57079632679489656 3.14159265358979312
2 17.41250000000000142 17.41250000000000142 -0.00000000000000773 -0.00000000000000000 0.00000000000000044 1.00000000000000000 0.00000000000000000 -1.00000000000000000 0.00000000000000044 1.00000000000000000 0.00000000000000000 0.00000000000000000 1.00000000000000000
1 18.41250000000000142 18.41250000000000142 0.00000000000000000 0.00000000000000000 -1.00000000000000000 0.00000000000000000 
1 -19.99999999999999645 20.00000000000000000 0.00000000000000000 1.00000000000000000 0.00000000000000000 0.00000000000000000 
8 3.14159265358979312 4.71238898038468967
2 -17.99999999999999645 18.00000000000000000 -0.00000000000000799 -0.00000000000000000 0.00000000000000044 1.00000000000000000 0.00000000000000000 -1.00000000000000000 0.00000000000000044 1.00000000000000000 0.00000000000000000 0.00000000000000000 2.00000000000000000
8 3.14159265358979312 4.71238898038468967
2 18.00000000000000355 18.00000000000000000 -0.00000000000000799 -0.00000000000000000 -0.00000000000000044 -1.00000000000000000 0.00000000000000000 -1.00000000000000000 0.00000000000000044 -1.00000000000000000 0.00000000000000000 0.00000000000000000 2.00000000000000000
1 -19.99999999999999645 -20.00000000000000000 0.00000000000000000 0.00000000000000000 1.00000000000000000 0.00000000000000000 
1 20.00000000000000355 20.00000000000000000 0.00000000000000000 0.00000000000000000 -1.00000000000000000 0.00000000000000000 
8 0.00000000000000000 1.57079632679489656
2 -17.99999999999999645 -18.00000000000000000 0.00000000000000799 -0.00000000000000000 -0.00000000000000044 -1.00000000000000000 0.00000000000000000 -1.00000000000000000 0.00000000000000044 -1.00000000000000000 0.00000000000000000 0.00000000000000000 2.00000000000000000
8 4.71238898038468967 6.28318530717958623
2 18.00000000000000355 -18.00000000000000000 0.00000000000000799 -0.00000000000000000 -0.00000000000000044 -1.00000000000000000 0.00000000000000000 -1.00000000000000000 0.00000000000000044 -1.00000000000000000 0.00000000000000000 0.00000000000000000 2.00000000000000000
1 20.00000000000000355 -20.00000000000000000 0.00000000000000000 -1.00000000000000000 0.00000000000000000 0.00000000000000000 
1 17.41250000000000142 -565.00000000000000000 -18.41249999999987708 0.00000000000000000 1.00000000000000000 -0.00000000000000022 
2 0.00000000000000000 475.00000000000000000 -18.41250000000010445 -0.00000000000000000 0.00000000000000022 1.00000000000000000 1.00000000000000000 0.00000000000000000 0.00000000000000000 0.00000000000000000 1.00000000000000000 -0.00000000000000022 3.96875000000000000
2 0.00000000000000000 -475.00000000000000000 -18.41249999999989839 -0.00000000000000000 0.00000000000000022 1.00000000000000000 1.00000000000000000 0.00000000000000000 0.00000000000000000 0.00000000000000000 1.00000000000000000 -0.00000000000000022 3.96875000000000000
1 17.41250000000000142 -565.00000000000000000 18.41250000000012577 0.00000000000000000 1.00000000000000000 -0.00000000000000022 
2 0.00000000000000000 475.00000000000000000 18.41249999999989839 -0.00000000000000000 0.00000000000000022 1.00000000000000000 1.00000000000000000 0.00000000000000000 0.00000000000000000 0.00000000000000000 1.00000000000000000 -0.00000000000000022 3.96875000000000000
2 0.00000000000000000 -475.00000000000000000 18.41250000000010445 -0.00000000000000000 0.00000000000000022 1.00000000000000000 1.00000000000000000 0.00000000000000000 0.00000000000000000 0.00000000000000000 1.00000000000000000 -0.00000000000000022 3.96875000000000000
1 18.41250000000000142 -565.00000000000000000 -17.41249999999987708 0.00000000000000000 1.00000000000000000 -0.00000000000000022 
1 18.41250000000000142 -565.00000000000000000 17.41250000000012577 0.00000000000000000 1.00000000000000000 -0.00000000000000022 
1 -17.99999999999999645 -565.00000000000000000 20.00000000000012434 0.00000000000000000 1.00000000000000000 -0.00000000000000022 
1 18.00000000000000355 -565.00000000000000000 20.00000000000012434 0.00000000000000000 1.00000000000000000 -0.00000000000000022 
2 0.00000000000000000 475.00000000000000000 0.00000000000000000 0.00000000000000000 0.00000000000000000 1.00000000000000000 1.00000000000000000 0.00000000000000000 -0.00000000000000000 -0.00000000000000000 1.00000000000000000 0.00000000000000000 3.96875000000000000
2 0.00000000000000000 -475.00000000000000000 0.00000000000000000 0.00000000000000000 0.00000000000000000 1.00000000000000000 1.00000000000000000 0.00000000000000000 -0.00000000000000000 -0.00000000000000000 1.00000000000000000 0.00000000000000000 3.96875000000000000
1 -19.99999999999999645 -565.00000000000000000 18.00000000000012434 0.00000000000000000 1.00000000000000000 -0.00000000000000022 
1 20.00000000000000355 -565.00000000000000000 18.00000000000012434 0.00000000000000000 1.00000000000000000 -0.00000000000000022 
1 -19.99999999999999645 -565.00000000000000000 -17.99999999999987566 0.00000000000000000 1.00000000000000000 -0.00000000000000022 
1 20.00000000000000355 -565.00000000000000000 -17.99999999999987566 0.00000000000000000 1.00000000000000000 -0.00000000000000022 
1 -17.99999999999999645 -565.00000000000000000 -19.99999999999987566 0.00000000000000000 1.00000000000000000 -0.00000000000000022 
1 18.00000000000000355 -565.00000000000000000 -19.99999999999987566 0.00000000000000000 1.00000000000000000 -0.00000000000000022 
2 0.00000000000000000 475.00000000000000000 -20.00000000000010303 -0.00000000000000000 0.00000000000000022 1.00000000000000000 1.00000000000000000 0.00000000000000000 0.00000000000000000 0.00000000000000000 1.00000000000000000 -0.00000000000000022 3.96875000000000000
2 0.00000000000000000 -475.00000000000000000 -19.99999999999989697 -0.00000000000000000 0.00000000000000022 1.00000000000000000 1.00000000000000000 0.00000000000000000 0.00000000000000000 0.00000000000000000 1.00000000000000000 -0.00000000000000022 3.96875000000000000
1 3.96875000000000000 475.00000000000000000 19.99999999999989697 -0.00000000000000000 -0.00000000000000022 -1.00000000000000000 
1 3.96875000000000000 -475.00000000000000000 20.00000000000010303 -0.00000000000000000 -0.00000000000000022 -1.00000000000000000 
1 3.96875000000000000 475.00000000000000000 19.99999999999989697 -0.00000000000000000 -0.00000000000000022 -1.00000000000000000 
1 3.96875000000000000 -475.00000000000000000 20.00000000000010303 -0.00000000000000000 -0.00000000000000022 -1.00000000000000000 
Polygon3D 0
PolygonOnTriangulations 0
Surfaces 22
1 -18.41250000000000142 -565.00000000000000000 -17.41249999999987708 1.00000000000000000 0.00000000000000000 0.00000000000000000 0.00000000000000000 0.00000000000000000 1.00000000000000000 0.00000000000000000 -1.00000000000000000 0.00000000000000000 
2 -17.41250000000000142 -565.00000000000000000 -17.41249999999987708 0.00000000000000000 -1.00000000000000000 0.00000000000000044 0.00000000000000000 -0.00000000000000044 -1.00000000000000000 1.00000000000000000 0.00000000000000000 0.00000000000000000 1.00000000000000000
2 -17.41250000000000142 -565.00000000000000000 17.41250000000012577 0.00000000000000000 -1.00000000000000000 0.00000000000000044 0.00000000000000000 -0.00000000000000044 -1.00000000000000000 -1.00000000000000000 -0.00000000000000000 -0.00000000000000000 1.00000000000000000
1 17.41250000000000142 -565.00000000000000000 -18.41249999999987708 -0.00000000000000010 0.00000000000000022 1.00000000000000000 -1.00000000000000000 0.00000000000000000 -0.00000000000000010 -0.00000000000000000 -1.00000000000000000 0.00000000000000022 
1 -17.41250000000000142 -565.00000000000000000 18.41250000000012577 0.00000000000000000 -0.00000000000000022 -1.00000000000000000 1.00000000000000000 0.00000000000000000 0.00000000000000000 0.00000000000000000 -1.00000000000000000 0.00000000000000022 
1 0.00000000000000213 0.00000000000000000 0.00000000000000000 0.00000000000000000 1.00000000000000000 -0.00000000000000022 0.00000000000000000 0.00000000000000022 1.00000000000000000 1.00000000000000000 -0.00000000000000000 0.00000000000000000 
2 17.41250000000000142 -565.00000000000000000 -17.41249999999987708 0.00000000000000000 -1.00000000000000000 0.00000000000000044 0.00000000000000000 -0.00000000000000044 -1.00000000000000000 1.00000000000000000 0.00000000000000000 0.00000000000000000 1.00000000000000000
2 17.41250000000000142 -565.00000000000000000 17.41250000000012577 0.00000000000000000 -1.00000000000000000 0.00000000000000044 0.00000000000000000 -0.00000000000000044 -1.00000000000000000 1.00000000000000000 0.00000000000000000 0.00000000000000000 1.00000000000000000
2 -17.99999999999999645 -565.00000000000000000 18.00000000000012434 0.00000000000000000 -1.00000000000000000 0.00000000000000044 0.00000000000000000 -0.00000000000000044 -1.00000000000000000 1.00000000000000000 0.00000000000000000 0.00000000000000000 2.00000000000000000
2 18.00000000000000355 -565.00000000000000000 18.00000000000012434 0.00000000000000000 -1.00000000000000000 0.00000000000000044 0.00000000000000000 -0.00000000000000044 -1.00000000000000000 -1.00000000000000000 -0.00000000000000000 -0.00000000000000000 2.00000000000000000
2 -17.99999999999999645 -565.00000000000000000 -17.99999999999987566 0.00000000000000000 -1.00000000000000000 0.00000000000000044 0.00000000000000000 -0.00000000000000044 -1.00000000000000000 -1.00000000000000000 -0.00000000000000000 -0.00000000000000000 2.00000000000000000
2 18.00000000000000355 -565.00000000000000000 -17.99999999999987566 0.00000000000000000 -1.00000000000000000 0.00000000000000044 0.00000000000000000 -0.00000000000000044 -1.00000000000000000 -1.00000000000000000 -0.00000000000000000 -0.00000000000000000 2.00000000000000000
1 0.00000000000000213 0.00000000000000000 0.00000000000000000 0.00000000000000000 1.00000000000000000 -0.00000000000000022 0.00000000000000000 0.00000000000000022 1.00000000000000000 1.00000000000000000 -0.00000000000000000 0.00000000000000000 
2 0.00000000000000000 475.00000000000000000 19.99999999999989697 0.00000000000000000 0.00000000000000022 1.00000000000000000 1.00000000000000000 0.00000000000000000 -0.00000000000000000 -0.00000000000000000 1.00000000000000000 -0.00000000000000022 3.96875000000000000
2 0.00000000000000000 -475.00000000000000000 20.00000000000010303 0.00000000000000000 0.00000000000000022 1.00000000000000000 1.00000000000000000 0.00000000000000000 -0.00000000000000000 -0.00000000000000000 1.00000000000000000 -0.00000000000000022 3.96875000000000000
2 0.00000000000000000 475.00000000000000000 19.99999999999989697 0.00000000000000000 0.00000000000000022 1.00000000000000000 1.00000000000000000 0.00000000000000000 -0.00000000000000000 -0.00000000000000000 1.00000000000000000 -0.00000000000000022 3.96875000000000000
2 0.00000000000000000 -475.00000000000000000 20.00000000000010303 0.00000000000000000 0.00000000000000022 1.00000000000000000 1.00000000000000000 0.00000000000000000 -0.00000000000000000 -0.00000000000000000 1.00000000000000000 -0.00000000000000022 3.96875000000000000
1 18.41250000000000142 -565.00000000000000000 17.41250000000012577 -1.00000000000000000 0.00000000000000000 0.00000000000000000 0.00000000000000000 0.00000000000000000 -1.00000000000000000 -0.00000000000000000 -1.00000000000000000 -0.00000000000000000 
1 -17.99999999999999645 -565.00000000000000000 20.00000000000012434 0.00000000000000000 -0.00000000000000022 -1.00000000000000000 1.00000000000000000 0.00000000000000000 0.00000000000000000 0.00000000000000000 -1.00000000000000000 0.00000000000000022 
1 -19.99999999999999645 -565.00000000000000000 -17.99999999999987566 1.00000000000000000 0.00000000000000000 0.00000000000000000 0.00000000000000000 0.00000000000000000 1.00000000000000000 0.00000000000000000 -1.00000000000000000 0.00000000000000000 
1 20.00000000000000355 -565.00000000000000000 18.00000000000012434 -1.00000000000000000 0.00000000000000000 0.00000000000000000 0.00000000000000000 0.00000000000000000 -1.00000000000000000 -0.00000000000000000 -1.00000000000000000 -0.00000000000000000 
1 18.00000000000000355 -565.00000000000000000 -19.99999999999987566 0.00000000000000000 0.00000000000000022 1.00000000000000000 -1.00000000000000000 0.00000000000000000 0.00000000000000000 0.00000000000000000 -1.00000000000000000 0.00000000000000022 
Triangulations 0

TShapes 156
Ve
0.000000100000000
-18.412500000000001 -565.000000000000000 -17.412499999999877
0 0

0101101
*
Ve
0.000000100000000
-18.412500000000001 565.000000000000000 -17.412500000000126
0 0

0101101
*
Ed
 0.000000100000000 1 1 0
1  1 0 0.000000000000000 1130.000000000000000
2  1 2 0 0.000000000000000 1130.000000000000000
4 C1 1 0 2 0
0

0101000
+156 6 -155 6 *
Ve
0.000000100000000
-18.412500000000001 -565.000000000000000 17.412500000000126
0 0

0101101
*
Ve
0.000000100000000
-18.412500000000001 565.000000000000000 17.412499999999877
0 0

0101101
*
Ed
 0.000000100000000 1 1 0
1  2 0 0.000000000000000 1130.000000000000000
2  2 3 0 0.000000000000000 1130.000000000000000
4 C1 1 0 3 0
0

0101000
+153 6 -152 6 *
Ed
 0.000000100000000 1 1 0
1  3 0 1.000000000000004 35.825000000000003
0

0101000
+156 23 -153 23 *
Ed
 0.000000100000000 1 1 0
1  4 0 1.000000000000004 35.825000000000003
0

0101000
+155 26 -152 26 *
Wi

0101100
+154 0 -151 0 -150 22 +149 25 *
Fa
0  0.000000100000000 1 0

0111000
+148 0 *
Ve
0.000000100000000
-17.412500000000001 -565.000000000000000 -18.412499999999877
0 0

0101101
*
Ve
0.000000100000000
-17.412500000000001 565.000000000000000 -18.412500000000126
0 0

0101101
*
Ed
 0.000000100000000 1 1 0
1  5 0 0.000000000000000 1130.000000000000000
2  3 2 0 0.000000000000000 1130.000000000000000
4 C1 2 0 4 0
0

0101000
+146 6 -145 6 *
Ed
 0.000000100000000 1 1 0
1  6 0 4.712388980384690 6.283185307179586
2  4 2 28 4.712388980384690 6.283185307179586
0

0101000
+156 29 -146 29 *
Ed
 0.000000100000000 1 1 0
1  7 0 4.712388980384690 6.283185307179586
2  5 2 31 4.712388980384690 6.283185307179586
0

0101000
+155 32 -145 32 *
Wi

0101100
+154 0 -144 0 -143 27 +142 30 *
Fa
0  0.000000100000000 2 0

0111000
+141 0 *
Ve
0.000000100000000
-17.412500000000001 -565.000000000000000 18.412500000000126
0 0

0101101
*
Ve
0.000000100000000
-17.412500000000001 565.000000000000000 18.412499999999877
0 0

0101101
*
Ed
 0.000000100000000 1 1 0
1  8 0 0.000000000000000 1130.000000000000000
2  6 3 0 0.000000000000000 1130.000000000000000
4 C1 3 0 5 0
0

0101000
+139 6 -138 6 *
Ed
 0.000000100000000 1 1 0
1  9 0 1.570796326794897 3.141592653589793
2  7 3 28 1.570796326794897 3.141592653589793
0

0101000
+153 29 -139 29 *
Ed
 0.000000100000000 1 1 0
1  10 0 1.570796326794897 3.141592653589793
2  8 3 31 1.570796326794897 3.141592653589793
0

0101000
+152 32 -138 32 *
Wi

0101100
+151 0 -137 0 -136 27 +135 30 *
Fa
0  0.000000100000000 3 0

0111000
+134 0 *
Ve
0.000000100000000
17.412500000000001 -565.000000000000000 -18.412499999999877
0 0

0101101
*
Ed
 0.000000100000000 1 1 0
1  11 0 1.000000000000000 35.825000000000003
0

0101000
+132 23 -146 23 *
Ve
0.000000100000000
17.412500000000001 -565.000000000000000 18.412500000000126
0 0

0101101
*
Ed
 0.000000100000000 1 1 0
1  12 0 1.000000000000000 35.825000000000003
0

0101000
+139 23 -130 23 *
Ve
0.000000100000000
18.412500000000001 -565.000000000000000 -17.412499999999877
0 0

0101101
*
Ed
 0.000000100000000 1 1 0
1  13 0 0.000000000000000 1.570796326794897
2  9 7 28 0.000000000000000 1.570796326794897
0

0101000
+132 29 -128 29 *
Ve
0.000000100000000
18.412500000000001 -565.000000000000000 17.412500000000126
0 0

0101101
*
Ed
 0.000000100000000 1 1 0
1  14 0 1.570796326794897 3.141592653589793
2  10 8 28 1.570796326794897 3.141592653589793
0

0101000
+126 29 -130 29 *
Ed
 0.000000100000000 1 1 0
1  15 0 1.000000000000000 35.825000000000003
0

0101000
+126 23 -128 23 *
Wi

0101100
-150 35 +143 0 -136 0 -131 35 -129 35 +127 0 +125 0 -124 35 *
Ve
0.000000100000000
-17.999999999999996 -565.000000000000000 20.000000000000124
0 0

0101101
*
Ve
0.000000100000000
18.000000000000004 -565.000000000000000 20.000000000000124
0 0

0101101
*
Ed
 0.000000100000000 1 1 0
1  16 0 2.000000000000000 38.000000000000000
0

0101000
+122 23 -121 23 *
Ve
0.000000100000000
-19.999999999999996 -565.000000000000000 18.000000000000124
0 0

0101101
*
Ed
 0.000000100000000 1 1 0
1  17 0 3.141592653589793 4.712388980384690
2  11 9 38 3.141592653589793 4.712388980384690
0

0101000
+122 39 -119 39 *
Ve
0.000000100000000
20.000000000000004 -565.000000000000000 18.000000000000124
0 0

0101101
*
Ed
 0.000000100000000 1 1 0
1  18 0 3.141592653589793 4.712388980384690
2  12 10 38 3.141592653589793 4.712388980384690
0

0101000
+121 39 -117 39 *
Ve
0.000000100000000
-19.999999999999996 -565.000000000000000 -17.999999999999876
0 0

0101101
*
Ed
 0.000000100000000 1 1 0
1  19 0 2.000000000000000 38.000000000000000
0

0101000
+115 23 -119 23 *
Ve
0.000000100000000
20.000000000000004 -565.000000000000000 -17.999999999999876
0 0

0101101
*
Ed
 0.000000100000000 1 1 0
1  20 0 2.000000000000000 38.000000000000000
0

0101000
+117 23 -113 23 *
Ve
0.000000100000000
-17.999999999999996 -565.000000000000000 -19.999999999999876
0 0

0101101
*
Ed
 0.000000100000000 1 1 0
1  21 0 0.000000000000000 1.570796326794897
2  13 11 38 0.000000000000000 1.570796326794897
0

0101000
+111 39 -115 39 *
Ve
0.000000100000000
18.000000000000004 -565.000000000000000 -19.999999999999876
0 0

0101101
*
Ed
 0.000000100000000 1 1 0
1  22 0 4.712388980384690 6.283185307179586
2  14 12 38 4.712388980384690 6.283185307179586
0

0101000
+113 39 -109 39 *
Ed
 0.000000100000000 1 1 0
1  23 0 2.000000000000000 38.000000000000000
0

0101000
+109 23 -111 23 *
Wi

0101100
+120 37 -118 0 +116 0 +114 37 +112 37 +110 0 +108 0 +107 37 *
Fa
0  0.000000100000000 6 0

0111000
+123 34 +106 36 *
Ve
0.000000100000000
17.412500000000001 565.000000000000000 -18.412500000000126
0 0

0101101
*
Ed
 0.000000100000000 1 1 0
1  24 0 1.000000000000000 35.825000000000003
0

0101000
+104 26 -145 26 *
Ve
0.000000100000000
17.412500000000001 565.000000000000000 18.412499999999877
0 0

0101101
*
Ed
 0.000000100000000 1 1 0
1  25 0 1.000000000000000 35.825000000000003
0

0101000
+138 26 -102 26 *
Ve
0.000000100000000
18.412500000000001 565.000000000000000 -17.412500000000126
0 0

0101101
*
Ed
 0.000000100000000 1 1 0
1  26 0 0.000000000000000 1.570796326794897
2  15 7 31 0.000000000000000 1.570796326794897
0

0101000
+104 32 -100 32 *
Ve
0.000000100000000
18.412500000000001 565.000000000000000 17.412499999999877
0 0

0101101
*
Ed
 0.000000100000000 1 1 0
1  27 0 1.570796326794897 3.141592653589793
2  16 8 31 1.570796326794897 3.141592653589793
0

0101000
+98 32 -102 32 *
Ed
 0.000000100000000 1 1 0
1  28 0 1.000000000000000 35.825000000000003
0

0101000
+98 26 -100 26 *
Wi

0101100
-149 35 +142 0 -135 0 -103 35 -101 35 +99 0 +97 0 -96 35 *
Ve
0.000000100000000
-17.999999999999996 565.000000000000000 19.999999999999876
0 0

0101101
*
Ve
0.000000100000000
18.000000000000004 565.000000000000000 19.999999999999876
0 0

0101101
*
Ed
 0.000000100000000 1 1 0
1  29 0 2.000000000000000 38.000000000000000
0

0101000
+94 26 -93 26 *
Ve
0.000000100000000
-19.999999999999996 565.000000000000000 17.999999999999876
0 0

0101101
*
Ed
 0.000000100000000 1 1 0
1  30 0 3.141592653589793 4.712388980384690
2  17 9 41 3.141592653589793 4.712388980384690
0

0101000
+94 42 -91 42 *
Ve
0.000000100000000
20.000000000000004 565.000000000000000 17.999999999999876
0 0

0101101
*
Ed
 0.000000100000000 1 1 0
1  31 0 3.141592653589793 4.712388980384690
2  18 10 41 3.141592653589793 4.712388980384690
0

0101000
+93 42 -89 42 *
Ve
0.000000100000000
-19.999999999999996 565.000000000000000 -18.000000000000124
0 0

0101101
*
Ed
 0.000000100000000 1 1 0
1  32 0 2.000000000000000 38.000000000000000
0

0101000
+87 26 -91 26 *
Ve
0.000000100000000
20.000000000000004 565.000000000000000 -18.000000000000124
0 0

0101101
*
Ed
 0.000000100000000 1 1 0
1  33 0 2.000000000000000 38.000000000000000
0

0101000
+89 26 -85 26 *
Ve
0.000000100000000
-17.999999999999996 565.000000000000000 -20.000000000000124
0 0

0101101
*
Ed
 0.000000100000000 1 1 0
1  34 0 0.000000000000000 1.570796326794897
2  19 11 41 0.000000000000000 1.570796326794897
0

0101000
+83 42 -87 42 *
Ve
0.000000100000000
18.000000000000004 565.000000000000000 -20.000000000000124
0 0

0101101
*
Ed
 0.000000100000000 1 1 0
1  35 0 4.712388980384690 6.283185307179586
2  20 12 41 4.712388980384690 6.283185307179586
0

0101000
+85 42 -81 42 *
Ed
 0.000000100000000 1 1 0
1  36 0 2.000000000000000 38.000000000000000
0

0101000
+81 26 -83 26 *
Wi

0101100
+92 37 -90 0 +88 0 +86 37 +84 37 +82 0 +80 0 +79 37 *
Fa
0  0.000000100000000 13 0

0111000
+95 34 +78 36 *
Ed
 0.000000100000000 1 1 0
1  37 0 0.000000000000000 1130.000000000000000
2  21 7 0 0.000000000000000 1130.000000000000000
4 C1 4 0 7 0
0

0101000
+132 6 -104 6 *
Wi

0101100
+76 4 -131 43 +103 44 -144 4 *
Ve
0.000000100000007
3.968750000000000 475.000000000000000 -18.412500000000112
0 0

0101101
*
Ed
 0.000000100000000 1 1 0
1  38 0 0.000000000000000 6.283185307179586
2  22 14 0 0.000000000000000 6.283185307179586
0

0101000
+74 45 -74 45 *
Wi

0101100
-73 0 *
Ve
0.000000100000000
3.968750000000000 -475.000000000000000 -18.412499999999898
0 0

0101101
*
Ed
 0.000000100000000 1 1 0
1  39 0 0.000000000000000 6.283185307179586
2  23 15 0 0.000000000000000 6.283185307179586
0

0101000
+71 45 -71 45 *
Wi

0101100
-70 0 *
Fa
0  0.000000100000000 4 4

0111000
+75 0 +72 0 +69 0 *
Ed
 0.000000100000000 1 1 0
1  40 0 0.000000000000000 1130.000000000000000
2  24 8 0 0.000000000000000 1130.000000000000000
4 C1 5 0 8 0
0

0101000
+130 6 -102 6 *
Wi

0101100
+137 4 -129 43 +101 44 -67 4 *
Ve
0.000000100000000
3.968750000000000 475.000000000000000 18.412499999999898
0 0

0101101
*
Ed
 0.000000100000000 1 1 0
1  41 0 0.000000000000000 6.283185307179586
2  25 16 0 0.000000000000000 6.283185307179586
0

0101000
+65 45 -65 45 *
Wi

0101100
+64 0 *
Ve
0.000000100000000
3.968750000000000 -475.000000000000000 18.412500000000104
0 0

0101101
*
Ed
 0.000000100000000 1 1 0
1  42 0 0.000000000000000 6.283185307179586
2  26 17 0 0.000000000000000 6.283185307179586
0

0101000
+62 45 -62 45 *
Wi

0101100
+61 0 *
Fa
0  0.000000100000000 5 4

0111000
+66 0 +63 0 +60 0 *
Ed
 0.000000100000000 1 1 0
1  43 0 0.000000000000000 1130.000000000000000
2  27 7 0 0.000000000000000 1130.000000000000000
4 C1 7 0 18 0
0

0101000
+128 6 -100 6 *
Wi

0101100
+76 0 -58 0 -127 27 +99 30 *
Fa
0  0.000000100000000 7 0

0111000
+57 0 *
Ed
 0.000000100000000 1 1 0
1  44 0 0.000000000000000 1130.000000000000000
2  28 8 0 0.000000000000000 1130.000000000000000
4 C1 8 0 18 0
0

0101000
+126 6 -98 6 *
Wi

0101100
+55 0 -67 0 -125 27 +97 30 *
Fa
0  0.000000100000000 8 0

0111000
+54 0 *
Wi

0101100
+55 0 -58 0 -124 22 +96 25 *
Fa
0  0.000000100000000 18 0

0111000
+52 0 *
Ed
 0.000000100000000 1 1 0
1  45 0 0.000000000000000 1130.000000000000000
2  29 9 0 0.000000000000000 1130.000000000000000
4 G1 19 0 9 0
0

0101000
+122 6 -94 6 *
Ed
 0.000000100000000 1 1 0
1  46 0 0.000000000000000 1130.000000000000000
2  30 10 0 0.000000000000000 1130.000000000000000
4 G1 19 0 10 0
0

0101000
+121 6 -93 6 *
Wi

0101100
+50 4 -120 43 +92 44 -49 4 *
Ve
0.000000100000004
3.968750000000000 475.000000000000000 19.999999999999897
0 0

0101101
*
Ed
 0.000000100000004 1 1 0
1  47 0 0.000000000000000 6.283185307179586
2  31 16 49 0.000000000000000 6.283185307179586
0

0101000
+47 50 -47 50 *
Wi

0101100
+46 48 *
Ve
0.000000100000004
3.968750000000000 -475.000000000000000 20.000000000000103
0 0

0101101
*
Ed
 0.000000100000004 1 1 0
1  48 0 0.000000000000000 6.283185307179586
2  32 17 49 0.000000000000000 6.283185307179586
0

0101000
+44 50 -44 50 *
Wi

0101100
+43 48 *
Fa
0  0.000000100000000 19 4

0111000
+48 0 +45 0 +42 0 *
Ed
 0.000000100000000 1 1 0
1  49 0 0.000000000000000 1130.000000000000000
2  33 9 0 0.000000000000000 1130.000000000000000
4 G1 9 0 20 0
0

0101000
+119 6 -91 6 *
Wi

0101100
+50 0 -40 0 -118 51 +90 52 *
Fa
0  0.000000100000000 9 0

0111000
+39 0 *
Ed
 0.000000100000000 1 1 0
1  50 0 0.000000000000000 1130.000000000000000
2  34 10 0 0.000000000000000 1130.000000000000000
4 G1 10 0 21 0
0

0101000
+117 6 -89 6 *
Wi

0101100
+49 0 -37 0 -116 51 +88 52 *
Fa
0  0.000000100000000 10 0

0111000
+36 0 *
Ed
 0.000000100000000 1 1 0
1  51 0 0.000000000000000 1130.000000000000000
2  35 11 0 0.000000000000000 1130.000000000000000
4 G1 20 0 11 0
0

0101000
+115 6 -87 6 *
Wi

0101100
+34 0 -40 0 -114 22 +86 25 *
Fa
0  0.000000100000000 20 0

0111000
+33 0 *
Ed
 0.000000100000000 1 1 0
1  52 0 0.000000000000000 1130.000000000000000
2  36 12 0 0.000000000000000 1130.000000000000000
4 G1 21 0 12 0
0

0101000
+113 6 -85 6 *
Wi

0101100
+37 0 -31 0 -112 22 +84 25 *
Fa
0  0.000000100000000 21 0

0111000
+30 0 *
Ed
 0.000000100000000 1 1 0
1  53 0 0.000000000000000 1130.000000000000000
2  37 11 0 0.000000000000000 1130.000000000000000
4 G1 11 0 22 0
0

0101000
+111 6 -83 6 *
Wi

0101100
+28 0 -34 0 -110 51 +82 52 *
Fa
0  0.000000100000000 11 0

0111000
+27 0 *
Ed
 0.000000100000000 1 1 0
1  54 0 0.000000000000000 1130.000000000000000
2  38 12 0 0.000000000000000 1130.000000000000000
4 G1 12 0 22 0
0

0101000
+109 6 -81 6 *
Wi

0101100
+31 0 -25 0 -108 51 +80 52 *
Fa
0  0.000000100000000 12 0

0111000
+24 0 *
Wi

0101100
+25 4 -107 43 +79 44 -28 4 *
Ve
0.000000100000000
3.968750000000000 475.000000000000000 -20.000000000000103
0 0

0101101
*
Ed
 0.000000100000000 1 1 0
1  55 0 0.000000000000000 6.283185307179586
2  39 14 0 0.000000000000000 6.283185307179586
0

0101000
+21 45 -21 45 *
Wi

0101100
-20 0 *
Ve
0.000000100000000
3.968750000000000 -475.000000000000000 -19.999999999999897
0 0

0101101
*
Ed
 0.000000100000000 1 1 0
1  56 0 0.000000000000000 6.283185307179586
2  40 15 0 0.000000000000000 6.283185307179586
0

0101000
+18 45 -18 45 *
Wi

0101100
-17 0 *
Fa
0  0.000000100000000 22 4

0111000
+22 0 +19 0 +16 0 *
Ed
 0.000000100000000 1 1 0
1  57 0 38.412500000000009 40.000000000000000
3  41 42CN 14 0 38.412500000000009 40.000000000000000
0

0101000
+74 45 -21 45 *
Wi

0101100
-73 0 -14 0 +20 0 +14 0 *
Fa
0  0.000000100000000 14 0

0111000
+13 0 *
Ed
 0.000000100000000 1 1 0
1  58 0 38.412500000000001 40.000000000000000
3  43 44CN 15 0 38.412500000000001 40.000000000000000
0

0101000
+71 45 -18 45 *
Wi

0101100
-70 0 -11 0 +17 0 +11 0 *
Fa
0  0.000000100000000 15 0

0111000
+10 0 *
Ed
 0.000000100000000 1 1 0
1  59 0 0.000000000000000 1.587499999999999
3  41 42CN 16 0 0.000000000000000 1.587499999999999
0

0101000
+47 45 -65 45 *
Wi

0101100
-46 48 -8 0 +64 0 +8 0 *
Fa
0  0.000000100000000 16 0

0111000
+7 0 *
Ed
 0.000000100000000 1 1 0
1  60 0 0.000000000000000 1.587499999999999
3  43 44CN 17 0 0.000000000000000 1.587499999999999
0

0101000
+44 45 -62 45 *
Wi

0101100
-43 48 -5 0 +61 0 +5 0 *
Fa
0  0.000000100000000 17 0

0111000
+4 0 *
Sh

0101100
+147 4 -140 4 +133 4 -105 33 +77 40 +68 0 +59 0 -56 4 -53 4 +51 4 
-41 0 +38 4 -35 4 -32 4 -29 4 -26 4 -23 4 -15 0 -12 0 -9 0 
-6 0 -3 0 *
So

1100000
+2 0 *

+1 1 