
CASCADE Topology V1, (c) Matra-Datavision
Locations 10
1
1.000000000000000 0.000000000000000 0.000000000000000 0.000000000000000 
0.000000000000000 1.000000000000000 0.000000000000000 0.000000000000000 
0.000000000000000 0.000000000000000 1.000000000000000 0.000000000000000 
1
0.000000000000000 -0.000000000000000 1.000000000000000 0.000000000000000 
1.000000000000000 0.000000000000000 -0.000000000000000 0.000000000000000 
-0.000000000000000 1.000000000000000 0.000000000000000 0.000000000000000 
1
-0.000000000000000 0.000000000000000 1.000000000000000 0.000000000000000 
1.000000000000000 -0.000000000000000 0.000000000000000 0.000000000000000 
0.000000000000000 1.000000000000000 -0.000000000000000 0.000000000000000 
1
1.000000000000000 0.000000000000000 0.000000000000000 0.000000000000009 
0.000000000000000 1.000000000000000 0.000000000000000 -0.000000000000006 
0.000000000000000 0.000000000000000 1.000000000000000 -20.000000000000000 
2  1 1 2 1 3 -1 4 1 0
1
1.000000000000000 0.000000000000000 0.000000000000000 -0.000000000000018 
0.000000000000000 1.000000000000000 0.000000000000000 0.000000000000011 
0.000000000000000 0.000000000000000 1.000000000000000 40.000000000000000 
2  1 1 2 1 3 -1 4 1 6 1 0
2  3 -1 4 1 0
2  1 1 2 1 0
2  3 -1 4 1 6 1 0
Curve2ds 0
Curves 8
1 -559.00000000000011369 61.00000000000025580 -20.00000000000015277 -0.00000000000000044 0.00000000000000028 1.00000000000000000 
1 559.00000000000011369 60.99999999999975842 -19.99999999999990408 -0.00000000000000044 0.00000000000000028 1.00000000000000000 
1 -559.00000000000000000 61.00000000000000000 0.00000000000000000 1.00000000000000000 0.00000000000000000 0.00000000000000000 
1 559.00000000000011369 -61.00000000000027001 -19.99999999999984723 -0.00000000000000044 0.00000000000000028 1.00000000000000000 
1 559.00000000000000000 61.00000000000000000 0.00000000000000000 0.00000000000000000 -1.00000000000000000 0.00000000000000000 
1 -559.00000000000011369 -60.99999999999977263 -20.00000000000009592 -0.00000000000000044 0.00000000000000028 1.00000000000000000 
1 559.00000000000000000 -61.00000000000000000 0.00000000000000000 -1.00000000000000000 0.00000000000000000 0.00000000000000000 
1 -559.00000000000000000 -61.00000000000000000 0.00000000000000000 0.00000000000000000 1.00000000000000000 0.00000000000000000 
Polygon3D 0
PolygonOnTriangulations 0
Surfaces 5
1 -559.00000000000011369 61.00000000000025580 -20.00000000000015277 0.00000000000000044 1.00000000000000000 -0.00000000000000028 1.00000000000000000 -0.00000000000000044 0.00000000000000022 0.00000000000000022 -0.00000000000000028 -1.00000000000000000 
1 559.00000000000011369 60.99999999999975842 -19.99999999999990408 1.00000000000000000 -0.00000000000000022 0.00000000000000044 -0.00000000000000022 -1.00000000000000000 0.00000000000000044 0.00000000000000044 -0.00000000000000044 -1.00000000000000000 
1 559.00000000000011369 -61.00000000000027001 -19.99999999999984723 -0.00000000000000044 -1.00000000000000000 0.00000000000000028 -1.00000000000000000 0.00000000000000044 -0.00000000000000022 0.00000000000000022 -0.00000000000000028 -1.00000000000000000 
1 -559.00000000000011369 -60.99999999999977263 -20.00000000000009592 -1.00000000000000000 0.00000000000000022 -0.00000000000000044 0.00000000000000022 1.00000000000000000 -0.00000000000000044 0.00000000000000044 -0.00000000000000044 -1.00000000000000000 
1 0.00000000000000000 0.00000000000000000 0.00000000000000587 -1.00000000000000000 0.00000000000000022 -0.00000000000000022 0.00000000000000022 0.00000000000000000 -1.00000000000000000 -0.00000000000000022 -1.00000000000000000 -0.00000000000000000 
Triangulations 0

TShapes 24
Ve
0.000000100000000
-559.000000000000000 61.000000000000000 0.000000000000000
0 0

0101101
*
Ed
 0.000000100000000 1 1 0
1  1 0 0.000000000000000 40.000000000000000
0

0101000
+24 5 -24 7 *
Ve
0.000000100000000
559.000000000000000 61.000000000000000 0.000000000000000
0 0

0101101
*
Ed
 0.000000100000000 1 1 0
1  2 0 0.000000000000000 40.000000000000000
0

0101000
+22 5 -22 7 *
Ed
 0.000000100000000 1 1 0
1  3 0 0.000000000000000 1118.000000000000000
0

0101000
+24 0 -22 0 *
Wi

0101100
+23 0 -21 0 -20 5 +20 7 *
Fa
0  0.000000100000000 1 0

0101000
+19 0 *
Ve
0.000000100000000
559.000000000000000 -61.000000000000000 0.000000000000000
0 0

0101101
*
Ed
 0.000000100000000 1 1 0
1  4 0 0.000000000000000 40.000000000000000
0

0101000
+17 5 -17 7 *
Ed
 0.000000100000000 1 1 0
1  5 0 0.000000000000000 122.000000000000000
0

0101000
+22 0 -17 0 *
Wi

0101100
+21 0 -16 0 -15 5 +15 7 *
Fa
0  0.000000100000000 2 0

0101000
+14 0 *
Ve
0.000000100000000
-559.000000000000000 -61.000000000000000 0.000000000000000
0 0

0101101
*
Ed
 0.000000100000000 1 1 0
1  6 0 0.000000000000000 40.000000000000000
0

0101000
+12 5 -12 7 *
Ed
 0.000000100000000 1 1 0
1  7 0 0.000000000000000 1118.000000000000000
0

0101000
+17 0 -12 0 *
Wi

0101100
+16 0 -11 0 -10 5 +10 7 *
Fa
0  0.000000100000000 3 0

0101000
+9 0 *
Ed
 0.000000100000000 1 1 0
1  8 0 0.000000000000000 122.000000000000000
0

0101000
+12 0 -24 0 *
Wi

0101100
+11 0 -23 0 -7 5 +7 7 *
Fa
0  0.000000100000000 4 0

0101000
+6 0 *
Wi

0101100
+20 0 +15 0 +10 0 +7 0 *
Fa
0  0.000000100000000 5 0

0101000
+4 9 *
Sh

0101100
+18 0 +13 0 +8 0 +5 0 +3 8 -3 10 *
So

1100000
+2 0 *

+1 0 