
CASCADE Topology V1, (c) Matra-Datavision
Locations 5
1
1.000000000000000 0.000000000000000 0.000000000000000 0.000000000000000 
0.000000000000000 1.000000000000000 0.000000000000000 0.000000000000000 
0.000000000000000 0.000000000000000 1.000000000000000 0.000000000000000 
1
1.000000000000000 0.000000000000000 0.000000000000000 0.000000000000000 
0.000000000000000 1.000000000000000 0.000000000000000 0.000000000000000 
0.000000000000000 0.000000000000000 1.000000000000000 0.000000000000000 
2  2 -1 0
1
1.000000000000000 0.000000000000000 0.000000000000000 0.000000000000000 
0.000000000000000 1.000000000000000 0.000000000000000 0.000000000000000 
0.000000000000000 0.000000000000000 1.000000000000000 3.000000000000000 
2  2 -1 4 -1 0
Curve2ds 50
1 0.00000000000000000 1.05036746089194932 1.00000000000000000 0.00000000000000000 
1 0.00000000000000000 0.00000000000000000 1.00000000000000000 0.00000000000000000 
1 0.00000000000000000 1.57079632679489656 1.00000000000000000 0.00000000000000000 
1 0.00000000000000000 0.00000000000000000 1.00000000000000000 0.00000000000000000 
1 6.28318530717958623 0.00000000000000000 0.00000000000000000 1.00000000000000000 
1 0.00000000000000000 0.00000000000000000 0.00000000000000000 1.00000000000000000 
1 0.00000000000000000 2.48500000000000032 1.00000000000000000 0.00000000000000000 
1 0.00000000000000000 0.00000000000000000 1.00000000000000000 0.00000000000000000 
1 6.28318530717958623 0.00000000000000000 0.00000000000000000 1.00000000000000000 
1 0.00000000000000000 0.00000000000000000 0.00000000000000000 1.00000000000000000 
1 0.00000000000000000 0.30405591591021519 1.00000000000000000 0.00000000000000000 
1 6.28318530717958623 0.00000000000000000 0.00000000000000000 1.00000000000000000 
1 0.00000000000000000 0.00000000000000000 0.00000000000000000 1.00000000000000000 
1 0.00000000000000000 0.00000000000000000 1.00000000000000000 0.00000000000000000 
1 0.00000000000000000 1.57079632679489523 1.00000000000000000 0.00000000000000000 
1 0.00000000000000000 0.00000000000000000 1.00000000000000000 0.00000000000000000 
1 6.28318530717958623 0.00000000000000000 0.00000000000000000 1.00000000000000000 
1 0.00000000000000000 0.00000000000000000 0.00000000000000000 1.00000000000000000 
1 0.00000000000000000 31.39999999999999858 1.00000000000000000 0.00000000000000000 
1 0.00000000000000000 0.00000000000000000 1.00000000000000000 0.00000000000000000 
1 6.28318530717958623 0.00000000000000000 0.00000000000000000 1.00000000000000000 
1 0.00000000000000000 0.00000000000000000 0.00000000000000000 1.00000000000000000 
1 0.00000000000000000 18.19328266949300854 1.00000000000000000 0.00000000000000000 
1 0.00000000000000000 0.00000000000000000 1.00000000000000000 0.00000000000000000 
1 6.28318530717958623 0.00000000000000000 0.00000000000000000 1.00000000000000000 
1 0.00000000000000000 0.00000000000000000 0.00000000000000000 1.00000000000000000 
1 0.00000000000000000 0.43376380861785646 1.00000000000000000 0.00000000000000000 
1 6.28318530717958623 0.00000000000000000 0.00000000000000000 1.00000000000000000 
1 0.00000000000000000 0.00000000000000000 0.00000000000000000 1.00000000000000000 
7 0 0  6 12 3  6.28318530717958623 1.03986378628302978  6.20318163852388782 0.94331571310757001  6.11874377562389782 0.86817356091417963  6.03048457906811564 0.81295429198364388  5.93941978002783344 0.77672253853094730  5.84699015663171728 0.75901626302185699  5.66223188502804753 0.76068034794846884  5.56990412839655846 0.78005070872885796  5.47904334627878598 0.81797210797135733  5.39107628719978038 0.87493215495518939  5.30699504306723746 0.95189306386072536  5.22739139275481790 1.05036746089194910 
 -0.54930614433405456 7 0.00497553128024653 5 0.55925720689454761 7
7 0 0  6 12 3  5.24458411921115886 1.05036746089194932  5.16426590359814064 0.95100910455936649  5.07938936684593045 0.87355220281451551  4.99056224987896258 0.81644303063109191  4.89880758444149933 0.77869829764026832  4.80559851486711320 0.75982589894561336  4.61917944590226437 0.75982589894561359  4.52597037632790489 0.77869829764026122  4.43421571089015742 0.81644303063107770  4.34538859392347376 0.87355220281450841  4.26051205717123782 0.95100910455936705  4.18019384155821960 1.05036746089194999 
 -0.55925720689454717 7 0.00000000000000022 5 0.55925720689454761 7
7 0 0  6 12 3  4.19738656801456145 1.05036746089194954  4.11706835240154323 0.95100910455936660  4.03219181564938367 0.87355220281450841  3.94336469868238737 0.81644303063109191  3.85161003324498097 0.77869829764025411  3.75840096367051579 0.75982589894561292  3.57198189470566696 0.75982589894561292  3.47877282513124442 0.77869829764029674  3.38701815969363906 0.81644303063100665  3.29819104272684172 0.87355220281454393  3.21331450597463952 0.95100910455936649  3.13299629036162175 1.05036746089194954 
 -0.55925720689454761 7 0.00000000000000011 5 0.55925720689454783 7
7 0 0  6 12 3  3.15018901681796315 1.05036746089194932  3.06987080120494538 0.95100910455936660  2.98499426445280847 0.87355220281451551  2.89616714748558479 0.81644303063109191  2.80441248204840576 0.77869829764026832  2.71120341247391838 0.75982589894561359  2.52478434350906955 0.75982589894561359  2.43157527393452710 0.77869829764025411  2.33982060849723439 0.81644303063110613  2.25099349153012440 0.87355220281450841  2.16611695477804211 0.95100910455936671  2.08579873916502434 1.05036746089194954 
 -0.55925720689454683 7 0.00000000000000022 5 0.55925720689454728 7
7 0 0  6 12 3  2.10299146562136663 1.05036746089194932  2.02267325000834886 0.95100910455936627  1.93779671325619063 0.87355220281452262  1.84896959628920854 0.81644303063107770  1.75721493085177372 0.77869829764026832  1.66400586127732120 0.75982589894561292  1.47758679231247192 0.75982589894561292  1.38437772273799453 0.77869829764025411  1.29262305730051708 0.81644303063110613  1.20379594033359183 0.87355220281450130  1.11891940358144426 0.95100910455936627  1.03860118796842649 1.05036746089194932 
 -0.55925720689454783 7 0.00000000000000000 5 0.55925720689454783 7
7 0 0  6 12 3  1.05579391442476833 1.05036746089194866  0.97619026411234844 0.95189306386072503  0.89210901997975611 0.87493215495519649  0.80414196090069368 0.81797210797137154  0.71328117878299224 0.78005070872885085  0.62095342215153859 0.76068034794846884  0.43619515054786839 0.75901626302185721  0.34376552715176700 0.77672253853094730  0.25270072811110822 0.81295429198362967  0.16444153155572394 0.86817356091417253  0.08000366865569837 0.94331571310757023  0.00000000000000000 1.03986378628303000 
 -0.55925720689454728 7 -0.00497553128024630 5 0.54930614433405478 7
1 6.28318530717958623 0.00000000000000000 0.00000000000000000 1.00000000000000000 
1 0.00000000000000000 0.00000000000000000 0.00000000000000000 1.00000000000000000 
7 0 0  6 12 3  1.12948989443754511 1.63049929983742348  1.04755885263581816 1.73352856009515799  0.96004692728575947 1.81491912668967359  0.86746974765904383 1.87651329651998822  0.77084402502363503 1.91950909584265617  0.67186900438373021 1.94456729859159982  0.47275866983489456 1.95906759746912562  0.37262459642951029 1.94850969836264198  0.27367608414056477 1.92027347604351917  0.17780110411933236 1.87395758499307874  0.08631970880334998 1.80863841114111268  0.00000000000000000 1.72278069425966729 
 -0.64677482640156680 7 -0.04873434103375607 5 0.54930614433405478 7
7 0 0  6 12 3  2.17668744563414274 1.63049929983742370  2.08807984023829629 1.74192441828320033  1.99294493714360499 1.82804048094772043  1.89193364944026143 1.89117782019533820  1.78638711247624826 1.93278557795771633  1.67859213119515771 1.95358954214107072  1.46300052239463541 1.95358954214107072  1.35520554111354841 1.93278557795770212  1.24965900414943576 1.89117782019548031  1.14864771644620589 1.82804048094767779  1.05351281335149682 1.74192441828320033  0.96490520795565027 1.63049929983742370 
 -0.64677482640156680 7 -0.00000000000000011 5 0.64677482640156669 7
7 0 0  6 12 3  6.28318530717958534 1.72278069425966796  6.19686559837623552 1.80863841114111334  6.10538420306016860 1.87395758499306453  6.00950922303900370 1.92027347604360443  5.91056071075001910 1.94850969836261356  5.81042663734469134 1.95906759746912562  5.61131630279585547 1.94456729859159938  5.51234128215594410 1.91950909584264195  5.41571555952032213 1.87651329651995979  5.32313837989380545 1.81491912668965938  5.23562645454376785 1.73352856009515754  5.15369541274204046 1.63049929983742281 
 -0.54930614433405434 7 0.04873434103375651 5 0.64677482640156736 7
7 0 0  6 12 3  5.31828009922393541 1.63049929983742325  5.22967249382808852 1.74192441828319988  5.13453759073325955 1.82804048094766358  5.03352630303027127 1.89117782019550873  4.92797976606590282 1.93278557795767369  4.82018478478495105 1.95358954214107028  4.60459317598442830 1.95358954214107028  4.49679819470341613 1.93278557795768791  4.39125165773896242 1.89117782019542346  4.29024037003608782 1.82804048094767779  4.19510546694128994 1.74192441828320033  4.10649786154544305 1.63049929983742370 
 -0.64677482640156680 7 -0.00000000000000011 5 0.64677482640156669 7
7 0 0  6 12 3  4.27108254802733800 1.63049929983742370  4.18247494263149111 1.74192441828320033  4.08734003953685487 1.82804048094766358  3.98632875183329816 1.89117782019550873  3.88078221486944130 1.93278557795767369  3.77298723358835231 1.95358954214107072  3.55739562478783045 1.95358954214107072  3.44960064350686935 1.93278557795770212  3.34405410654233037 1.89117782019548031  3.24304281883948420 1.82804048094767779  3.14790791574469209 1.74192441828320010  3.05930031034884564 1.63049929983742348 
 -0.64677482640156680 7 0.00000000000000000 5 0.64677482640156680 7
7 0 0  6 12 3  3.22388499683074015 1.63049929983742325  3.13527739143489370 1.74192441828319988  3.04014248834019440 1.82804048094766358  2.93913120063683664 1.89117782019550873  2.83358466367286610 1.93278557795767369  2.72578968239175490 1.95358954214107028  2.51019807359123304 1.95358954214107028  2.40240309231018045 1.93278557795770212  2.29685655534592570 1.89117782019545189  2.19584526764282373 1.82804048094769200  2.10071036454809423 1.74192441828319988  2.01210275915224779 1.63049929983742325 
 -0.64677482640156680 7 -0.00000000000000011 5 0.64677482640156658 7
1 6.28318530717958623 0.00000000000000000 0.00000000000000000 1.00000000000000000 
1 0.00000000000000000 0.00000000000000000 0.00000000000000000 1.00000000000000000 
1 0.00000000000000000 3.20665469122961699 1.00000000000000000 0.00000000000000000 
1 0.00000000000000000 1.28976142529208304 1.00000000000000000 0.00000000000000000 
1 0.00000000000000000 1.57079632679489478 1.00000000000000000 0.00000000000000000 
1 6.28318530717958623 1.28976142529208304 0.00000000000000000 1.00000000000000000 
1 0.00000000000000000 1.28976142529208304 0.00000000000000000 1.00000000000000000 
Curves 39
2 0.00000000000000000 0.00000000000000000 3.00000000000000000 0.00000000000000000 0.00000000000000000 1.00000000000000000 1.00000000000000000 0.00000000000000000 0.00000000000000000 0.00000000000000000 1.00000000000000000 0.00000000000000000 1.48544390866878606
2 0.00000000000000000 0.00000000000000000 3.00000000000000000 0.00000000000000000 0.00000000000000000 1.00000000000000000 1.00000000000000000 0.00000000000000000 0.00000000000000000 0.00000000000000000 1.00000000000000000 0.00000000000000000 2.45000000000000018
2 0.00000000000000000 0.00000000000000000 2.70000000000000018 0.00000000000000000 0.00000000000000000 1.00000000000000000 1.00000000000000000 0.00000000000000000 0.00000000000000000 0.00000000000000000 1.00000000000000000 0.00000000000000000 2.75000000000000000
2 2.45000000000000018 0.00000000000000000 2.70000000000000018 0.00000000000000000 1.00000000000000000 0.00000000000000000 0.00000000000000000 0.00000000000000000 1.00000000000000000 1.00000000000000000 0.00000000000000000 0.00000000000000000 0.29999999999999988
2 0.00000000000000000 0.00000000000000000 0.21499999999999986 0.00000000000000000 0.00000000000000000 1.00000000000000000 1.00000000000000000 0.00000000000000000 0.00000000000000000 0.00000000000000000 1.00000000000000000 0.00000000000000000 2.75000000000000000
1 2.75000000000000000 0.00000000000000000 2.70000000000000018 0.00000000000000000 0.00000000000000000 -1.00000000000000000 
2 0.00000000000000000 0.00000000000000000 0.00000000000000000 0.00000000000000000 0.00000000000000000 1.00000000000000000 1.00000000000000000 0.00000000000000000 0.00000000000000000 0.00000000000000000 1.00000000000000000 0.00000000000000000 2.53500000000000014
1 2.75000000000000000 0.00000000000000000 0.21499999999999986 -0.70710678118654757 0.00000000000000000 -0.70710678118654757 
2 0.00000000000000000 0.00000000000000000 -0.00000000000000001 0.00000000000000000 0.00000000000000000 1.00000000000000000 1.00000000000000000 0.00000000000000000 0.00000000000000000 0.00000000000000000 1.00000000000000000 0.00000000000000000 1.60000000000000009
2 0.00000000000000000 0.00000000000000000 -0.10000000000000001 0.00000000000000000 0.00000000000000000 1.00000000000000000 1.00000000000000000 0.00000000000000000 0.00000000000000000 0.00000000000000000 1.00000000000000000 0.00000000000000000 1.50000000000000000
2 1.60000000000000009 0.00000000000000000 -0.10000000000000014 0.00000000000000000 -1.00000000000000000 0.00000000000000000 0.00000000000000000 0.00000000000000000 1.00000000000000000 -1.00000000000000000 0.00000000000000000 0.00000000000000000 0.10000000000000013
2 0.00000000000000000 0.00000000000000000 -31.50000000000000000 0.00000000000000000 0.00000000000000000 1.00000000000000000 1.00000000000000000 0.00000000000000000 0.00000000000000000 0.00000000000000000 1.00000000000000000 0.00000000000000000 1.50000000000000000
1 1.50000000000000000 0.00000000000000000 -0.10000000000000001 0.00000000000000000 0.00000000000000000 -1.00000000000000000 
2 0.00000000000000000 0.00000000000000000 -49.69328266949300854 0.00000000000000000 0.00000000000000000 1.00000000000000000 1.00000000000000000 0.00000000000000000 0.00000000000000000 0.00000000000000000 1.00000000000000000 0.00000000000000000 1.50000000000000000
1 1.50000000000000000 0.00000000000000000 -31.50000000000000000 0.00000000000000000 0.00000000000000000 -1.00000000000000000 
2 0.00000000000000000 0.00000000000000000 -50.00000000000000000 0.00000000000000000 0.00000000000000000 1.00000000000000000 1.00000000000000000 0.00000000000000000 0.00000000000000000 0.00000000000000000 1.00000000000000000 0.00000000000000000 1.19328266949301121
1 1.50000000000000000 0.00000000000000000 -49.69328266949300854 -0.70710678118654446 0.00000000000000000 -0.70710678118655057 
5 1.10851251684408170 -0.64000000000000012 1.51455609133121327 0.86602540378443871 -0.50000000000000000 0.00000000000000000 0.00000000000000000 0.00000000000000000 1.00000000000000000 -0.50000000000000000 -0.86602540378443871 0.00000000000000000 1.28000000000000091 1.28000000000000025
5 -0.00000000000000058 -1.28000000000000047 1.51455609133121327 -0.00000000000000045 -1.00000000000000000 0.00000000000000000 0.00000000000000000 0.00000000000000000 1.00000000000000000 -1.00000000000000000 0.00000000000000045 0.00000000000000000 1.28000000000000114 1.28000000000000047
5 -1.10851251684408192 -0.63999999999999979 1.51455609133121327 -0.86602540378443882 -0.49999999999999978 0.00000000000000000 0.00000000000000000 0.00000000000000000 1.00000000000000000 -0.49999999999999978 0.86602540378443882 0.00000000000000000 1.28000000000000091 1.28000000000000025
5 -1.10851251684408192 0.64000000000000068 1.51455609133121327 -0.86602540378443860 0.50000000000000033 0.00000000000000000 0.00000000000000000 0.00000000000000000 1.00000000000000000 0.50000000000000033 0.86602540378443860 0.00000000000000000 1.28000000000000114 1.28000000000000047
5 0.00000000000000019 1.28000000000000025 1.51455609133121327 0.00000000000000015 1.00000000000000000 -0.00000000000000000 0.00000000000000000 0.00000000000000000 1.00000000000000000 1.00000000000000000 -0.00000000000000015 0.00000000000000000 1.28000000000000091 1.28000000000000025
5 1.10851251684408170 0.64000000000000012 1.51455609133121327 0.86602540378443871 0.50000000000000000 -0.00000000000000000 0.00000000000000000 0.00000000000000000 1.00000000000000000 0.50000000000000000 -0.86602540378443871 0.00000000000000000 1.28000000000000091 1.28000000000000025
1 0.74272195433439303 0.00000000000000000 2.25727804566560675 0.70710678118654746 0.00000000000000000 0.70710678118654768 
1 0.73900834456272113 1.28000000000000003 1.00000000000000000 0.00000000000000000 0.00000000000000000 -1.00000000000000000 
5 1.10851251684408170 0.64000000000000012 -2.21690957336674854 0.86602540378443871 0.50000000000000000 -0.00000000000000000 0.00000000000000000 0.00000000000000000 1.00000000000000000 0.50000000000000000 -0.86602540378443871 0.00000000000000000 0.76653766403573853 1.28000000000000025
1 1.47801668912544204 0.00000000000000000 1.00000000000000000 0.00000000000000000 0.00000000000000000 -1.00000000000000000 
1 -0.73900834456272091 1.28000000000000025 1.00000000000000000 0.00000000000000000 0.00000000000000000 -1.00000000000000000 
5 0.00000000000000019 1.28000000000000025 -2.21690957336674854 0.00000000000000015 1.00000000000000000 -0.00000000000000000 0.00000000000000000 0.00000000000000000 1.00000000000000000 1.00000000000000000 -0.00000000000000015 0.00000000000000000 0.76653766403573853 1.28000000000000025
5 1.10851251684408170 -0.64000000000000012 -2.21690957336674854 0.86602540378443871 -0.50000000000000000 0.00000000000000000 0.00000000000000000 0.00000000000000000 1.00000000000000000 -0.50000000000000000 -0.86602540378443871 0.00000000000000000 0.76653766403573853 1.28000000000000025
5 -0.00000000000000058 -1.28000000000000047 -2.21690957336674854 -0.00000000000000045 -1.00000000000000000 0.00000000000000000 0.00000000000000000 0.00000000000000000 1.00000000000000000 -1.00000000000000000 0.00000000000000045 0.00000000000000000 0.76653766403573875 1.28000000000000047
5 -1.10851251684408192 -0.63999999999999979 -2.21690957336674854 -0.86602540378443882 -0.49999999999999978 0.00000000000000000 0.00000000000000000 0.00000000000000000 1.00000000000000000 -0.49999999999999978 0.86602540378443882 0.00000000000000000 0.76653766403573853 1.28000000000000025
5 -1.10851251684408192 0.64000000000000068 -2.21690957336674854 -0.86602540378443860 0.50000000000000033 0.00000000000000000 0.00000000000000000 0.00000000000000000 1.00000000000000000 0.50000000000000033 0.86602540378443860 0.00000000000000000 0.76653766403573875 1.28000000000000047
1 2.95603337825088408 0.00000000000000000 -0.44666666666666666 -0.85792503598990688 0.00000000000000000 -0.51377488516053138 
2 0.00000000000000000 0.00000000000000000 -2.09416531240264225 0.00000000000000000 0.00000000000000000 1.00000000000000000 1.00000000000000000 0.00000000000000000 0.00000000000000000 0.00000000000000000 1.00000000000000000 0.00000000000000000 0.20496403687051146
1 0.73900834456272069 -1.28000000000000069 1.00000000000000000 0.00000000000000000 0.00000000000000000 -1.00000000000000000 
1 -1.47801668912544226 0.00000000000000033 1.00000000000000000 0.00000000000000000 0.00000000000000000 -1.00000000000000000 
1 -0.73900834456272158 -1.28000000000000003 1.00000000000000000 0.00000000000000000 0.00000000000000000 -1.00000000000000000 
2 -0.00000000000000133 0.00000000000000000 -1.38414906123434456 0.00000000000000000 1.00000000000000000 0.00000000000000000 0.27735009811261452 0.00000000000000000 -0.96076892283052284 -0.96076892283052284 0.00000000000000000 -0.27735009811261452 0.73900834456272557
Polygon3D 0
PolygonOnTriangulations 0
Surfaces 19
1 0.00000000000000000 0.00000000000000000 3.00000000000000000 0.00000000000000000 0.00000000000000000 1.00000000000000000 -1.00000000000000000 0.00000000000000000 0.00000000000000000 0.00000000000000000 1.00000000000000000 0.00000000000000000 
3 0.00000000000000000 0.00000000000000000 2.25727804566560675 0.00000000000000000 0.00000000000000000 1.00000000000000000 1.00000000000000000 0.00000000000000000 0.00000000000000000 0.00000000000000000 1.00000000000000000 0.00000000000000000 0.74272195433439303
0.78539816339744806
7 0.00000000000000000 0.00000000000000000 0.00000000000000000 0.00000000000000000 0.00000000000000000 1.00000000000000000 
8 0.00000000000000000 1.57079632679489656
2 2.45000000000000018 0.00000000000000000 2.70000000000000018 0.00000000000000000 1.00000000000000000 0.00000000000000000 0.00000000000000000 0.00000000000000000 1.00000000000000000 1.00000000000000000 0.00000000000000000 0.00000000000000000 0.29999999999999988
2 0.00000000000000000 0.00000000000000000 2.70000000000000018 -0.00000000000000000 -0.00000000000000000 -1.00000000000000000 1.00000000000000000 0.00000000000000000 0.00000000000000000 0.00000000000000000 1.00000000000000000 0.00000000000000000 2.75000000000000000
3 0.00000000000000000 0.00000000000000000 0.21499999999999986 -0.00000000000000000 -0.00000000000000000 -1.00000000000000000 1.00000000000000000 0.00000000000000000 0.00000000000000000 0.00000000000000000 1.00000000000000000 0.00000000000000000 2.75000000000000000
-0.78539816339744839
1 0.00000000000000000 0.00000000000000000 0.00000000000000000 0.00000000000000000 0.00000000000000000 1.00000000000000000 1.00000000000000000 0.00000000000000000 0.00000000000000000 0.00000000000000000 1.00000000000000000 0.00000000000000000 
7 0.00000000000000000 0.00000000000000000 0.00000000000000000 0.00000000000000000 0.00000000000000000 1.00000000000000000 
8 0.00000000000000000 1.57079632679489523
2 1.60000000000000009 0.00000000000000000 -0.10000000000000014 0.00000000000000000 -1.00000000000000000 0.00000000000000000 0.00000000000000000 0.00000000000000000 1.00000000000000000 -1.00000000000000000 0.00000000000000000 0.00000000000000000 0.10000000000000013
2 0.00000000000000000 0.00000000000000000 -0.10000000000000001 -0.00000000000000000 -0.00000000000000000 -1.00000000000000000 1.00000000000000000 0.00000000000000000 0.00000000000000000 0.00000000000000000 1.00000000000000000 0.00000000000000000 1.50000000000000000
2 0.00000000000000000 0.00000000000000000 -31.50000000000000000 -0.00000000000000000 -0.00000000000000000 -1.00000000000000000 1.00000000000000000 0.00000000000000000 0.00000000000000000 0.00000000000000000 1.00000000000000000 0.00000000000000000 1.50000000000000000
3 0.00000000000000000 0.00000000000000000 -49.69328266949300854 -0.00000000000000000 -0.00000000000000000 -1.00000000000000000 1.00000000000000000 0.00000000000000000 0.00000000000000000 0.00000000000000000 1.00000000000000000 0.00000000000000000 1.50000000000000000
-0.78539816339744395
1 0.00000000000000000 0.00000000000000000 -50.00000000000000000 0.00000000000000000 0.00000000000000000 1.00000000000000000 1.00000000000000000 0.00000000000000000 0.00000000000000000 0.00000000000000000 1.00000000000000000 0.00000000000000000 
1 1.47801668912544204 0.00000000000000000 1.00000000000000000 0.86602540378443871 0.50000000000000000 0.00000000000000000 -0.50000000000000000 0.86602540378443871 0.00000000000000000 0.00000000000000000 0.00000000000000000 1.00000000000000000 
3 0.00000000000000000 0.00000000000000000 -0.44666666666666666 -0.00000000000000000 -0.00000000000000000 -1.00000000000000000 1.00000000000000000 0.00000000000000000 0.00000000000000000 0.00000000000000000 1.00000000000000000 0.00000000000000000 2.95603337825088408
-1.03121728668114354
1 0.73900834456272113 1.28000000000000003 1.00000000000000000 0.00000000000000015 1.00000000000000000 0.00000000000000000 -1.00000000000000000 0.00000000000000015 0.00000000000000000 0.00000000000000000 0.00000000000000000 1.00000000000000000 
4 -0.00000000000000133 0.00000000000000000 -1.38414906123434456 -0.00000000000000000 -0.00000000000000000 -1.00000000000000000 1.00000000000000000 0.00000000000000000 0.00000000000000000 0.00000000000000000 1.00000000000000000 0.00000000000000000 0.73900834456272557
1 0.73900834456272069 -1.28000000000000069 1.00000000000000000 0.86602540378443871 -0.50000000000000000 0.00000000000000000 0.50000000000000000 0.86602540378443871 0.00000000000000000 0.00000000000000000 0.00000000000000000 1.00000000000000000 
1 -0.73900834456272091 1.28000000000000025 1.00000000000000000 -0.86602540378443860 0.50000000000000033 0.00000000000000000 -0.50000000000000033 -0.86602540378443860 0.00000000000000000 0.00000000000000000 0.00000000000000000 1.00000000000000000 
1 -0.73900834456272158 -1.28000000000000003 1.00000000000000000 -0.00000000000000045 -1.00000000000000000 -0.00000000000000000 1.00000000000000000 -0.00000000000000045 0.00000000000000000 0.00000000000000000 0.00000000000000000 1.00000000000000000 
1 -1.47801668912544226 0.00000000000000033 1.00000000000000000 -0.86602540378443882 -0.49999999999999978 -0.00000000000000000 0.49999999999999978 -0.86602540378443882 0.00000000000000000 0.00000000000000000 0.00000000000000000 1.00000000000000000 
Triangulations 0

TShapes 106
Ve
0.000000100000000
1.485443908668786 0.000000000000000 3.000000000000000
0 0

0101101
*
Ed
 0.000000100000000 1 1 0
1  1 0 0.000000000000000 6.283185307179586
2  1 2 0 0.000000000000000 6.283185307179586
0

0101000
+106 3 -106 3 *
Wi

0101100
+105 0 *
Ve
0.000000100000000
2.450000000000000 0.000000000000000 3.000000000000000
0 0

0101101
*
Ed
 0.000000100000000 1 1 0
1  2 0 0.000000000000000 6.283185307179586
2  2 3 0 0.000000000000000 6.283185307179586
4 G1 1 0 3 0
0

0101000
+103 3 -103 3 *
Wi

0101100
-102 0 *
Fa
0  0.000000100000000 1 0

0111000
+104 0 +101 0 *
Ve
0.000000100000000
2.750000000000000 0.000000000000000 2.700000000000000
0 0

0101101
*
Ed
 0.000000100000000 1 1 0
1  3 0 0.000000000000000 6.283185307179586
2  3 3 0 0.000000000000000 6.283185307179586
2  4 4 0 0.000000000000000 6.283185307179586
4 G1 3 0 4 0
0

0101000
+99 3 -99 3 *
Ed
 0.000000100000000 1 1 0
1  4 0 0.000000000000000 1.570796326794897
3  5 6CN 3 0 0.000000000000000 1.570796326794897
0

0101000
+103 3 -99 3 *
Wi

0101100
+102 0 -98 0 -97 0 +97 0 *
Fa
0  0.000000100000000 3 0

0111000
+96 0 *
Ve
0.000000100000000
2.750000000000000 0.000000000000000 0.215000000000000
0 0

0101101
*
Ed
 0.000000100000000 1 1 0
1  5 0 0.000000000000000 6.283185307179586
2  7 4 0 0.000000000000000 6.283185307179586
2  8 5 0 0.000000000000000 6.283185307179586
0

0101000
+94 3 -94 3 *
Ed
 0.000000100000000 1 1 0
1  6 0 0.000000000000000 2.485000000000000
3  9 10CN 4 0 0.000000000000000 2.485000000000000
0

0101000
+99 3 -94 3 *
Wi

0101100
+98 0 -93 0 -92 0 +92 0 *
Fa
0  0.000000100000000 4 0

0111000
+91 0 *
Ve
0.000000100000000
2.535000000000000 0.000000000000000 0.000000000000000
0 0

0101101
*
Ed
 0.000000100000000 1 1 0
1  7 0 0.000000000000000 6.283185307179586
2  11 5 0 0.000000000000000 6.283185307179586
0

0101000
+89 3 -89 3 *
Ed
 0.000000100000000 1 1 0
1  8 0 0.000000000000000 0.304055915910215
3  12 13CN 5 0 0.000000000000000 0.304055915910215
0

0101000
+94 3 -89 3 *
Wi

0101100
+93 0 -88 0 -87 0 +87 0 *
Fa
0  0.000000100000000 5 0

0111000
+86 0 *
Wi

0101100
+88 0 *
Ve
0.000000100000000
1.600000000000000 0.000000000000000 -0.000000000000000
0 0

0101101
*
Ed
 0.000000100000000 1 1 0
1  9 0 0.000000000000000 6.283185307179586
2  14 7 0 0.000000000000000 6.283185307179586
4 G1 6 0 7 0
0

0101000
+83 3 -83 3 *
Wi

0101100
-82 0 *
Fa
0  0.000000100000000 6 0

0111000
+84 0 +81 0 *
Ve
0.000000100000000
1.500000000000000 0.000000000000000 -0.100000000000000
0 0

0101101
*
Ed
 0.000000100000000 1 1 0
1  10 0 0.000000000000000 6.283185307179586
2  15 7 0 0.000000000000000 6.283185307179586
2  16 8 0 0.000000000000000 6.283185307179586
4 G1 7 0 8 0
0

0101000
+79 3 -79 3 *
Ed
 0.000000100000000 1 1 0
1  11 0 0.000000000000000 1.570796326794895
3  17 18CN 7 0 0.000000000000000 1.570796326794895
0

0101000
+83 3 -79 3 *
Wi

0101100
+82 0 -78 0 -77 0 +77 0 *
Fa
0  0.000000100000000 7 0

0111000
+76 0 *
Ve
0.000000100000000
1.500000000000000 0.000000000000000 -31.500000000000000
0 0

0101101
*
Ed
 0.000000100000000 1 1 0
1  12 0 0.000000000000000 6.283185307179586
2  19 8 0 0.000000000000000 6.283185307179586
2  20 9 0 0.000000000000000 6.283185307179586
4 C2 8 0 9 0
0

0101000
+74 3 -74 3 *
Ed
 0.000000100000000 1 1 0
1  13 0 0.000000000000000 31.399999999999999
3  21 22CN 8 0 0.000000000000000 31.399999999999999
0

0101000
+79 3 -74 3 *
Wi

0101100
+78 0 -73 0 -72 0 +72 0 *
Fa
0  0.000000100000000 8 0

0111000
+71 0 *
Ve
0.000000100000000
1.500000000000000 0.000000000000000 -49.693282669493009
0 0

0101101
*
Ed
 0.000000100000000 1 1 0
1  14 0 0.000000000000000 6.283185307179586
2  23 9 0 0.000000000000000 6.283185307179586
2  24 10 0 0.000000000000000 6.283185307179586
0

0101000
+69 3 -69 3 *
Ed
 0.000000100000000 1 1 0
1  15 0 0.000000000000000 18.193282669493009
3  25 26CN 9 0 0.000000000000000 18.193282669493009
0

0101000
+74 3 -69 3 *
Wi

0101100
+73 0 -68 0 -67 0 +67 0 *
Fa
0  0.000000100000000 9 0

0111000
+66 0 *
Ve
0.000000100000000
1.193282669493011 0.000000000000000 -50.000000000000000
0 0

0101101
*
Ed
 0.000000100000000 1 1 0
1  16 0 0.000000000000000 6.283185307179586
2  27 10 0 0.000000000000000 6.283185307179586
0

0101000
+64 3 -64 3 *
Ed
 0.000000100000000 1 1 0
1  17 0 0.000000000000000 0.433763808617857
3  28 29CN 10 0 0.000000000000000 0.433763808617857
0

0101000
+69 3 -64 3 *
Wi

0101100
+68 0 -63 0 -62 0 +62 0 *
Fa
0  0.000000100000000 10 0

0111000
+61 0 *
Wi

0101100
+63 0 *
Fa
0  0.000000100000000 11 0

0111000
+59 0 *
Ve
0.000000100000001
1.478016689125442 0.000000000000000 2.992572780456656
0 0

0101101
*
Ve
0.000000100000000
0.739008344562721 -1.280000000000001 2.992572780456657
0 0

0101101
*
Ed
 0.000000100000000 1 1 0
1  18 0 -0.549306144334055 0.549306144334055
2  30 2 0 -0.549306144334055 0.549306144334055
0

0101000
+57 3 -56 3 *
Ve
0.000000100000001
-0.739008344562722 -1.280000000000000 2.992572780456655
0 0

0101101
*
Ed
 0.000000100000000 1 1 0
1  19 0 -0.549306144334055 0.549306144334054
2  31 2 0 -0.549306144334055 0.549306144334054
0

0101000
+56 3 -54 3 *
Ve
0.000000100000001
-1.478016689125442 0.000000000000000 2.992572780456655
0 0

0101101
*
Ed
 0.000000100000000 1 1 0
1  20 0 -0.549306144334055 0.549306144334054
2  32 2 0 -0.549306144334055 0.549306144334054
0

0101000
+54 3 -52 3 *
Ve
0.000000100000001
-0.739008344562721 1.280000000000000 2.992572780456656
0 0

0101101
*
Ed
 0.000000100000000 1 1 0
1  21 0 -0.549306144334055 0.549306144334055
2  33 2 0 -0.549306144334055 0.549306144334055
0

0101000
+52 3 -50 3 *
Ve
0.000000100000001
0.739008344562721 1.280000000000000 2.992572780456656
0 0

0101101
*
Ed
 0.000000100000000 1 1 0
1  22 0 -0.549306144334055 0.549306144334055
2  34 2 0 -0.549306144334055 0.549306144334055
0

0101000
+50 3 -48 3 *
Ed
 0.000000100000000 1 1 0
1  23 0 -0.549306144334055 0.549306144334055
2  35 2 0 -0.549306144334055 0.549306144334055
0

0101000
+48 3 -57 3 *
Ed
 0.000000100000000 1 1 0
1  24 0 1.039863786283030 1.050367460891949
3  36 37CN 2 0 1.039863786283030 1.050367460891949
0

0101000
+57 3 -106 3 *
Wi

0101100
-55 0 -53 0 -51 0 -49 0 -47 0 -46 0 -45 0 -105 0 +45 0 *
Fa
0  0.000000100000000 2 0

0111000
+44 0 *
Ve
0.000000100000000
0.739008344562721 1.280000000000000 1.668211879983292
0 0

0101101
*
Ed
 0.000000100000000 1 1 0
1  25 0 1.007427219543344 2.331788120016708
0

0101000
+48 5 -42 5 *
Ve
0.000000100000001
1.478016689125442 0.000000000000000 1.668211879983292
0 0

0101101
*
Ed
 0.000000100000000 1 1 0
1  26 0 -0.549306144334055 0.549306144334055
2  38 13 0 -0.549306144334055 0.549306144334055
0

0101000
+42 5 -40 5 *
Ed
 0.000000100000000 1 1 0
1  27 0 1.007427219543344 2.331788120016708
0

0101000
+57 5 -40 5 *
Wi

0101100
+46 0 -41 4 -39 4 +38 4 *
Fa
0  0.000000100000000 12 4

0111000
+37 0 *
Ve
0.000000100000001
-0.739008344562721 1.280000000000000 1.668211879983292
0 0

0101101
*
Ed
 0.000000100000000 1 1 0
1  28 0 1.007427219543344 2.331788120016708
0

0101000
+50 5 -35 5 *
Ed
 0.000000100000000 1 1 0
1  29 0 -0.549306144334055 0.549306144334055
2  39 13 0 -0.549306144334055 0.549306144334055
0

0101000
+35 5 -42 5 *
Wi

0101100
+47 0 -34 4 -33 4 +41 4 *
Fa
0  0.000000100000000 14 4

0111000
+32 0 *
Ve
0.000000100000001
0.739008344562721 -1.280000000000001 1.668211879983292
0 0

0101101
*
Ed
 0.000000100000000 1 1 0
1  30 0 -0.549306144334054 0.549306144334055
2  40 13 0 -0.549306144334054 0.549306144334055
0

0101000
+40 5 -30 5 *
Ve
0.000000100000001
-0.739008344562722 -1.280000000000000 1.668211879983292
0 0

0101101
*
Ed
 0.000000100000000 1 1 0
1  31 0 -0.549306144334055 0.549306144334055
2  41 13 0 -0.549306144334055 0.549306144334055
0

0101000
+30 5 -28 5 *
Ve
0.000000100000001
-1.478016689125442 0.000000000000000 1.668211879983292
0 0

0101101
*
Ed
 0.000000100000000 1 1 0
1  32 0 -0.549306144334055 0.549306144334055
2  42 13 0 -0.549306144334055 0.549306144334055
0

0101000
+28 5 -26 5 *
Ed
 0.000000100000000 1 1 0
1  33 0 -0.549306144334055 0.549306144334055
2  43 13 0 -0.549306144334055 0.549306144334055
0

0101000
+26 5 -35 5 *
Ve
0.000000100000000
0.204964036870511 0.000000000000000 0.905834687597358
0 0

0101101
*
Ed
 0.000000100000000 1 1 0
1  34 0 1.722780694259668 3.206654691229617
3  44 45CN 13 0 1.722780694259668 3.206654691229617
0

0101000
+40 5 -23 5 *
Ed
 0.000000100000000 1 1 0
1  35 0 0.000000000000000 6.283185307179586
2  46 13 0 0.000000000000000 6.283185307179586
2  47 15 0 0.000000000000000 6.283185307179586
0

0101000
+23 5 -23 5 *
Wi

0101100
-29 0 -27 0 -25 0 -24 0 -33 0 -39 0 -22 0 -21 0 +22 0 *
Fa
0  0.000000100000000 13 0

0111000
+20 0 *
Ed
 0.000000100000000 1 1 0
1  36 0 1.007427219543343 2.331788120016708
0

0101000
+56 5 -30 5 *
Wi

0101100
+55 0 -38 4 -29 4 +18 4 *
Fa
0  0.000000100000000 16 4

0111000
+17 0 *
Ed
 0.000000100000000 1 1 0
1  37 0 1.007427219543345 2.331788120016708
0

0101000
+52 5 -26 5 *
Wi

0101100
+49 0 -15 4 -24 4 +34 4 *
Fa
0  0.000000100000000 17 4

0111000
+14 0 *
Ed
 0.000000100000000 1 1 0
1  38 0 1.007427219543345 2.331788120016708
0

0101000
+54 5 -28 5 *
Wi

0101100
+53 0 -18 4 -27 4 +12 4 *
Fa
0  0.000000100000000 18 4

0111000
+11 0 *
Wi

0101100
+51 0 -12 4 -25 4 +15 4 *
Fa
0  0.000000100000000 19 4

0111000
+9 0 *
Ve
0.000000100000000
-0.000000000000000 0.000000000000000 0.876842594202930
0 0

0101101
*
Ed
 0.000000100000000 1 1 1
2  48 15 0 0.000000000000000 6.283185307179586
0

0101000
+7 5 -7 5 *
Ed
 0.000000100000000 1 1 0
1  39 0 0.000000000000000 0.281034901502812
3  49 50CN 15 0 0.000000000000000 0.281034901502812
0

0101000
+23 5 -7 5 *
Wi

0101100
+21 0 -6 0 -5 0 +5 0 *
Fa
0  0.000000100000000 15 0

0111000
+4 0 *
Sh

0101000
+100 0 +95 0 +90 0 +85 0 +80 0 +75 0 +70 0 +65 0 +60 0 +58 0 
+43 0 +36 0 +31 0 -19 4 +16 0 +13 0 +10 0 +8 0 -3 4 *
So

1100000
+2 0 *

-1 1 