
CASCADE Topology V1, (c) Matra-Datavision
Locations 36
1
1.000000000000000 0.000000000000000 0.000000000000000 0.000000000000000 
0.000000000000000 1.000000000000000 0.000000000000000 0.000000000000000 
0.000000000000000 0.000000000000000 1.000000000000000 0.000000000000000 
1
1.000000000000000 0.000000000000000 0.000000000000000 0.000000000000000 
0.000000000000000 1.000000000000000 0.000000000000000 0.000000000000000 
0.000000000000000 0.000000000000000 1.000000000000000 0.000000000000000 
2  2 -1 0
1
1.000000000000000 0.000000000000000 0.000000000000000 0.000000000000000 
0.000000000000000 1.000000000000000 0.000000000000000 0.000000000000000 
0.000000000000000 0.000000000000000 1.000000000000000 0.000000000000000 
1
1.000000000000000 0.000000000000000 0.000000000000000 0.000000000000000 
0.000000000000000 1.000000000000000 0.000000000000000 0.000000000000000 
0.000000000000000 0.000000000000000 1.000000000000000 0.000000000000000 
1
1.000000000000000 0.000000000000000 0.000000000000000 0.000000000000000 
0.000000000000000 1.000000000000000 0.000000000000000 0.000000000000000 
0.000000000000000 0.000000000000000 1.000000000000000 0.000000000000000 
1
1.000000000000000 0.000000000000000 0.000000000000000 0.000000000000000 
0.000000000000000 1.000000000000000 0.000000000000000 0.000000000000000 
0.000000000000000 0.000000000000000 1.000000000000000 0.000000000000000 
1
1.000000000000000 0.000000000000000 0.000000000000000 0.000000000000000 
0.000000000000000 1.000000000000000 0.000000000000000 0.000000000000000 
0.000000000000000 0.000000000000000 1.000000000000000 0.000000000000000 
1
1.000000000000000 0.000000000000000 0.000000000000000 0.000000000000000 
0.000000000000000 1.000000000000000 0.000000000000000 0.000000000000000 
0.000000000000000 0.000000000000000 1.000000000000000 0.000000000000000 
1
1.000000000000000 0.000000000000000 0.000000000000000 0.000000000000000 
0.000000000000000 1.000000000000000 0.000000000000000 0.000000000000000 
0.000000000000000 0.000000000000000 1.000000000000000 0.000000000000000 
1
1.000000000000000 0.000000000000000 0.000000000000000 0.000000000000000 
0.000000000000000 1.000000000000000 0.000000000000000 0.000000000000000 
0.000000000000000 0.000000000000000 1.000000000000000 0.000000000000000 
1
1.000000000000000 0.000000000000000 0.000000000000000 0.000000000000000 
0.000000000000000 1.000000000000000 0.000000000000000 0.000000000000000 
0.000000000000000 0.000000000000000 1.000000000000000 0.000000000000000 
1
1.000000000000000 0.000000000000000 0.000000000000000 0.000000000000000 
0.000000000000000 1.000000000000000 0.000000000000000 0.000000000000000 
0.000000000000000 0.000000000000000 1.000000000000000 0.000000000000000 
1
1.000000000000000 0.000000000000000 0.000000000000000 0.000000000000000 
0.000000000000000 1.000000000000000 0.000000000000000 0.000000000000000 
0.000000000000000 0.000000000000000 1.000000000000000 0.000000000000000 
1
1.000000000000000 0.000000000000000 0.000000000000000 0.000000000000000 
0.000000000000000 1.000000000000000 0.000000000000000 0.000000000000000 
0.000000000000000 0.000000000000000 1.000000000000000 0.000000000000000 
1
1.000000000000000 0.000000000000000 0.000000000000000 0.000000000000000 
0.000000000000000 1.000000000000000 0.000000000000000 0.000000000000000 
0.000000000000000 0.000000000000000 1.000000000000000 0.000000000000000 
1
1.000000000000000 0.000000000000000 0.000000000000000 0.000000000000000 
0.000000000000000 1.000000000000000 0.000000000000000 0.000000000000000 
0.000000000000000 0.000000000000000 1.000000000000000 0.000000000000000 
2  4 1 5 1 6 -1 7 1 8 -1 9 1 10 1 11 1 12 1 13 1 14 1 15 1 16 1 17 -1 2 1 0
1
1.000000000000000 0.000000000000000 0.000000000000000 0.000000000000000 
0.000000000000000 1.000000000000000 0.000000000000000 0.000000000000000 
0.000000000000000 0.000000000000000 1.000000000000000 0.000000000000000 
2  19 -1 2 -1 17 1 16 -1 15 -1 14 -1 13 -1 12 -1 11 -1 10 -1 9 -1 8 1 7 -1 6 1 5 -1 4 -1 0
2  19 -1 0
1
1.000000000000000 0.000000000000000 0.000000000000000 -0.000000000000000 
0.000000000000000 1.000000000000000 0.000000000000000 -0.000000000000000 
0.000000000000000 0.000000000000000 1.000000000000000 22.000000000000000 
2  4 1 5 1 6 -1 7 1 8 -1 9 1 10 1 11 1 12 1 13 1 14 1 15 1 16 1 17 -1 22 1 2 1 0
2  19 -1 2 -1 22 -1 17 1 16 -1 15 -1 14 -1 13 -1 12 -1 11 -1 10 -1 9 -1 8 1 7 -1 6 1 5 -1 4 -1 0
2  9 1 10 1 11 1 12 1 13 1 14 1 15 1 16 1 17 -1 2 1 0
2  6 -1 7 1 8 -1 0
2  2 -1 17 1 16 -1 15 -1 14 -1 13 -1 12 -1 11 -1 10 -1 9 -1 0
2  17 1 16 -1 15 -1 14 -1 13 -1 12 -1 11 -1 10 -1 9 -1 0
2  19 -1 2 -1 17 1 16 -1 15 -1 14 -1 13 -1 12 -1 11 -1 10 -1 9 -1 0
2  9 1 10 1 11 1 12 1 13 1 14 1 15 1 16 1 17 -1 22 1 2 1 0
2  2 -1 22 -1 17 1 16 -1 15 -1 14 -1 13 -1 12 -1 11 -1 10 -1 9 -1 0
2  22 -1 17 1 16 -1 15 -1 14 -1 13 -1 12 -1 11 -1 10 -1 9 -1 0
2  19 -1 2 -1 22 -1 17 1 16 -1 15 -1 14 -1 13 -1 12 -1 11 -1 10 -1 9 -1 0
2  19 -1 2 -1 0
2  9 1 10 1 11 1 12 1 13 1 14 1 15 1 16 1 17 -1 0
2  9 1 10 1 11 1 12 1 13 1 14 1 15 1 16 1 17 -1 22 1 0
Curve2ds 16
1 0.00000000000000000 0.00000000000000000 1.00000000000000000 0.00000000000000000 
1 0.00000000000000000 0.00000000000000000 1.00000000000000000 0.00000000000000000 
1 0.00000000000000000 0.00000000000000000 1.00000000000000000 0.00000000000000000 
1 0.00000000000000000 0.00000000000000000 1.00000000000000000 0.00000000000000000 
1 0.00000000000000000 -22.00000000000000000 1.00000000000000000 0.00000000000000000 
1 0.00000000000000000 -22.00000000000000000 1.00000000000000000 0.00000000000000000 
1 0.00000000000000000 -22.00000000000000000 1.00000000000000000 0.00000000000000000 
1 0.00000000000000000 -22.00000000000000000 1.00000000000000000 0.00000000000000000 
1 0.00000000000000000 0.00000000000000000 0.00000000000000000 -1.00000000000000000 
1 6.28318530717958623 0.00000000000000000 0.00000000000000000 -1.00000000000000000 
1 0.00000000000000000 0.00000000000000000 0.00000000000000000 -1.00000000000000000 
1 6.28318530717958623 0.00000000000000000 0.00000000000000000 -1.00000000000000000 
1 0.00000000000000000 0.00000000000000000 0.00000000000000000 -1.00000000000000000 
1 6.28318530717958623 0.00000000000000000 0.00000000000000000 -1.00000000000000000 
1 0.00000000000000000 0.00000000000000000 0.00000000000000000 -1.00000000000000000 
1 6.28318530717958623 0.00000000000000000 0.00000000000000000 -1.00000000000000000 
Curves 36
1 -21.00000000000000000 21.00000000000000000 0.00000000000000000 1.00000000000000000 0.00000000000000000 0.00000000000000000 
1 -16.00000000000000000 21.00000000000000000 0.00000000000000000 0.00000000000000000 0.00000000000000000 1.00000000000000000 
1 16.00000000000000000 21.00000000000000000 0.00000000000000000 0.00000000000000000 0.00000000000000000 1.00000000000000000 
1 -21.00000000000000000 21.00000000000000000 0.00000000000000000 1.00000000000000000 0.00000000000000000 0.00000000000000000 
8 -3.53553390593273775 3.53553390593273775
1 -18.50000000000000000 18.50000000000000000 0.00000000000000000 -0.70710678118654757 -0.70710678118654757 0.00000000000000000 
8 -3.53553390593273775 3.53553390593273775
1 18.50000000000000000 18.50000000000000000 0.00000000000000000 0.70710678118654757 -0.70710678118654757 0.00000000000000000 
1 -21.00000000000000000 -21.00000000000000000 0.00000000000000000 0.00000000000000000 1.00000000000000000 0.00000000000000000 
1 21.00000000000000000 21.00000000000000000 0.00000000000000000 0.00000000000000000 -1.00000000000000000 0.00000000000000000 
8 -3.53553390593273775 3.53553390593273775
1 -18.50000000000000000 -18.50000000000000000 0.00000000000000000 0.70710678118654757 -0.70710678118654757 0.00000000000000000 
8 -3.53553390593273775 3.53553390593273775
1 18.50000000000000000 -18.50000000000000000 0.00000000000000000 -0.70710678118654757 -0.70710678118654757 0.00000000000000000 
1 21.00000000000000000 -21.00000000000000000 0.00000000000000000 -1.00000000000000000 0.00000000000000000 0.00000000000000000 
2 15.50000000000000000 -15.50000000000000000 0.00000000000000000 0.00000000000000000 0.00000000000000000 1.00000000000000000 1.00000000000000000 0.00000000000000000 0.00000000000000000 0.00000000000000000 1.00000000000000000 0.00000000000000000 1.50000000000000000
2 -15.50000000000000000 -15.50000000000000000 0.00000000000000000 0.00000000000000000 0.00000000000000000 1.00000000000000000 1.00000000000000000 0.00000000000000000 0.00000000000000000 0.00000000000000000 1.00000000000000000 0.00000000000000000 1.50000000000000000
2 15.50000000000000000 15.50000000000000000 0.00000000000000000 0.00000000000000000 0.00000000000000000 1.00000000000000000 1.00000000000000000 0.00000000000000000 0.00000000000000000 0.00000000000000000 1.00000000000000000 0.00000000000000000 1.50000000000000000
2 -15.50000000000000000 15.50000000000000000 0.00000000000000000 0.00000000000000000 0.00000000000000000 1.00000000000000000 1.00000000000000000 0.00000000000000000 0.00000000000000000 0.00000000000000000 1.00000000000000000 0.00000000000000000 1.50000000000000000
1 -21.00000000000000000 16.00000000000000000 0.00000000000000000 0.00000000000000000 0.00000000000000000 1.00000000000000000 
8 -3.53553390593273775 3.53553390593273775
1 -18.50000000000000000 18.50000000000000000 22.00000000000000000 -0.70710678118654757 -0.70710678118654757 0.00000000000000000 
1 21.00000000000000000 16.00000000000000000 0.00000000000000000 0.00000000000000000 0.00000000000000000 1.00000000000000000 
8 -3.53553390593273775 3.53553390593273775
1 18.50000000000000000 18.50000000000000000 22.00000000000000000 0.70710678118654757 -0.70710678118654757 0.00000000000000000 
1 -21.00000000000000000 -21.00000000000000000 0.00000000000000000 0.00000000000000000 1.00000000000000000 0.00000000000000000 
1 21.00000000000000000 21.00000000000000000 0.00000000000000000 0.00000000000000000 -1.00000000000000000 0.00000000000000000 
8 -3.53553390593273775 3.53553390593273775
1 -18.50000000000000000 -18.50000000000000000 22.00000000000000000 0.70710678118654757 -0.70710678118654757 0.00000000000000000 
8 -3.53553390593273775 3.53553390593273775
1 18.50000000000000000 -18.50000000000000000 22.00000000000000000 -0.70710678118654757 -0.70710678118654757 0.00000000000000000 
1 21.00000000000000000 -21.00000000000000000 0.00000000000000000 -1.00000000000000000 0.00000000000000000 0.00000000000000000 
2 15.50000000000000000 -15.50000000000000000 0.00000000000000000 0.00000000000000000 0.00000000000000000 1.00000000000000000 1.00000000000000000 0.00000000000000000 0.00000000000000000 0.00000000000000000 1.00000000000000000 0.00000000000000000 1.50000000000000000
2 -15.50000000000000000 -15.50000000000000000 0.00000000000000000 0.00000000000000000 0.00000000000000000 1.00000000000000000 1.00000000000000000 0.00000000000000000 0.00000000000000000 0.00000000000000000 1.00000000000000000 0.00000000000000000 1.50000000000000000
2 15.50000000000000000 15.50000000000000000 0.00000000000000000 0.00000000000000000 0.00000000000000000 1.00000000000000000 1.00000000000000000 0.00000000000000000 0.00000000000000000 0.00000000000000000 1.00000000000000000 0.00000000000000000 1.50000000000000000
2 -15.50000000000000000 15.50000000000000000 0.00000000000000000 0.00000000000000000 0.00000000000000000 1.00000000000000000 1.00000000000000000 0.00000000000000000 0.00000000000000000 0.00000000000000000 1.00000000000000000 0.00000000000000000 1.50000000000000000
1 -21.00000000000000000 -16.00000000000000000 0.00000000000000000 0.00000000000000000 0.00000000000000000 1.00000000000000000 
1 21.00000000000000000 -16.00000000000000000 0.00000000000000000 0.00000000000000000 0.00000000000000000 1.00000000000000000 
1 -16.00000000000000000 -21.00000000000000000 0.00000000000000000 0.00000000000000000 0.00000000000000000 1.00000000000000000 
1 16.00000000000000000 -21.00000000000000000 0.00000000000000000 0.00000000000000000 0.00000000000000000 1.00000000000000000 
1 17.00000000000000000 -15.50000000000000000 0.00000000000000000 0.00000000000000000 0.00000000000000000 1.00000000000000000 
1 -14.00000000000000000 -15.50000000000000000 0.00000000000000000 0.00000000000000000 0.00000000000000000 1.00000000000000000 
1 17.00000000000000000 15.50000000000000000 0.00000000000000000 0.00000000000000000 0.00000000000000000 1.00000000000000000 
1 -14.00000000000000000 15.50000000000000000 0.00000000000000000 0.00000000000000000 0.00000000000000000 1.00000000000000000 
Polygon3D 0
PolygonOnTriangulations 0
Surfaces 14
1 -21.00000000000000000 21.00000000000000000 0.00000000000000000 0.00000000000000000 1.00000000000000000 0.00000000000000000 1.00000000000000000 0.00000000000000000 0.00000000000000000 0.00000000000000000 0.00000000000000000 -1.00000000000000000 
1 0.00000000000000000 0.00000000000000000 0.00000000000000000 -0.00000000000000000 -0.00000000000000000 -1.00000000000000000 -1.00000000000000000 0.00000000000000000 0.00000000000000000 0.00000000000000000 1.00000000000000000 0.00000000000000000 
2 15.50000000000000000 -15.50000000000000000 0.00000000000000000 -0.00000000000000000 -0.00000000000000000 -1.00000000000000000 1.00000000000000000 0.00000000000000000 0.00000000000000000 0.00000000000000000 1.00000000000000000 0.00000000000000000 1.50000000000000000
2 -15.50000000000000000 -15.50000000000000000 0.00000000000000000 -0.00000000000000000 -0.00000000000000000 -1.00000000000000000 1.00000000000000000 0.00000000000000000 0.00000000000000000 0.00000000000000000 1.00000000000000000 0.00000000000000000 1.50000000000000000
2 15.50000000000000000 15.50000000000000000 0.00000000000000000 -0.00000000000000000 -0.00000000000000000 -1.00000000000000000 1.00000000000000000 0.00000000000000000 0.00000000000000000 0.00000000000000000 1.00000000000000000 0.00000000000000000 1.50000000000000000
2 -15.50000000000000000 15.50000000000000000 0.00000000000000000 -0.00000000000000000 -0.00000000000000000 -1.00000000000000000 1.00000000000000000 0.00000000000000000 0.00000000000000000 0.00000000000000000 1.00000000000000000 0.00000000000000000 1.50000000000000000
1 -18.50000000000000000 18.50000000000000000 0.00000000000000000 -0.70710678118654757 0.70710678118654757 0.00000000000000000 0.00000000000000000 0.00000000000000000 1.00000000000000000 -0.70710678118654757 -0.70710678118654757 0.00000000000000000 
1 18.50000000000000000 18.50000000000000000 0.00000000000000000 0.70710678118654757 0.70710678118654757 0.00000000000000000 0.00000000000000000 0.00000000000000000 1.00000000000000000 0.70710678118654757 -0.70710678118654757 0.00000000000000000 
1 0.00000000000000000 0.00000000000000000 0.00000000000000000 -0.00000000000000000 -0.00000000000000000 -1.00000000000000000 -1.00000000000000000 0.00000000000000000 0.00000000000000000 0.00000000000000000 1.00000000000000000 0.00000000000000000 
1 -21.00000000000000000 -21.00000000000000000 0.00000000000000000 -1.00000000000000000 0.00000000000000000 0.00000000000000000 0.00000000000000000 1.00000000000000000 0.00000000000000000 0.00000000000000000 0.00000000000000000 -1.00000000000000000 
1 21.00000000000000000 21.00000000000000000 0.00000000000000000 1.00000000000000000 0.00000000000000000 0.00000000000000000 0.00000000000000000 -1.00000000000000000 0.00000000000000000 0.00000000000000000 0.00000000000000000 -1.00000000000000000 
1 -18.50000000000000000 -18.50000000000000000 0.00000000000000000 -0.70710678118654757 -0.70710678118654757 0.00000000000000000 0.00000000000000000 0.00000000000000000 1.00000000000000000 0.70710678118654757 -0.70710678118654757 0.00000000000000000 
1 18.50000000000000000 -18.50000000000000000 0.00000000000000000 0.70710678118654757 -0.70710678118654757 0.00000000000000000 0.00000000000000000 0.00000000000000000 1.00000000000000000 -0.70710678118654757 -0.70710678118654757 0.00000000000000000 
1 21.00000000000000000 -21.00000000000000000 0.00000000000000000 -0.00000000000000000 -1.00000000000000000 -0.00000000000000000 -1.00000000000000000 0.00000000000000000 0.00000000000000000 0.00000000000000000 0.00000000000000000 -1.00000000000000000 
Triangulations 0

TShapes 98
Ve
0.000100000000000
-16.000000000000000 21.000000000000000 0.000000000000000
0 0

0101101
*
Ve
0.000100000000000
16.000000000000000 21.000000000000000 0.000000000000000
0 0

0101101
*
Ed
 0.000000100000000 1 1 0
1  1 0 5.000000000000000 37.000000000000000
0

0101000
+98 20 -97 20 *
Ve
0.000100000000000
-16.000000000000000 21.000000000000000 22.000000000000000
0 0

0101101
*
Ed
 0.000000100000000 1 1 0
1  2 0 -0.000000000000000 22.000000000000000
0

0101000
+98 21 -95 21 *
Ve
0.000100000000000
16.000000000000000 21.000000000000000 22.000000000000000
0 0

0101101
*
Ed
 0.000000100000000 1 1 0
1  3 0 -0.000000000000000 22.000000000000000
0

0101000
+97 21 -93 21 *
Ed
 0.000000100000000 1 1 0
1  4 0 5.000000000000000 37.000000000000000
0

0101000
+95 24 -93 24 *
Wi

0101100
-96 18 +94 0 -92 0 +91 23 *
Fa
0  0.000000100000000 1 0

0111000
+90 3 *
Ve
0.000100000000000
-21.000000000000000 16.000000000000000 0.000000000000000
0 0

0101101
*
Ed
 0.000000100000000 1 1 0
1  5 0 -3.535533905932738 3.535533905932738
0

0101000
+98 21 -88 21 *
Ve
0.000100000000000
21.000000000000000 16.000000000000000 0.000000000000000
0 0

0101101
*
Ed
 0.000000100000000 1 1 0
1  6 0 -3.535533905932738 3.535533905932738
0

0101000
+97 21 -86 21 *
Ve
0.000100000000000
-21.000000000000000 -16.000000000000000 0.000000000000000
0 0

0101101
*
Ed
 0.000000100000000 1 1 0
1  7 0 5.000000000000000 37.000000000000000
0

0101000
+84 20 -88 20 *
Ve
0.000100000000000
21.000000000000000 -16.000000000000000 0.000000000000000
0 0

0101101
*
Ed
 0.000000100000000 1 1 0
1  8 0 5.000000000000000 37.000000000000000
0

0101000
+86 20 -82 20 *
Ve
0.000100000000000
-16.000000000000000 -21.000000000000000 0.000000000000000
0 0

0101101
*
Ed
 0.000000100000000 1 1 0
1  9 0 -3.535533905932738 3.535533905932738
0

0101000
+84 21 -80 21 *
Ve
0.000100000000000
16.000000000000000 -21.000000000000000 0.000000000000000
0 0

0101101
*
Ed
 0.000000100000000 1 1 0
1  10 0 -3.535533905932738 3.535533905932738
0

0101000
+82 21 -78 21 *
Ed
 0.000000100000000 1 1 0
1  11 0 5.000000000000000 37.000000000000000
0

0101000
+78 20 -80 20 *
Wi

0101100
+96 18 -87 0 +85 0 +83 18 +81 18 -79 0 +77 0 +76 18 *
Ve
0.000000100000000
17.000000000000000 -15.500000000000000 0.000000000000000
0 0

0101101
*
Ed
 0.000000100000000 1 1 0
1  12 0 0.000000000000000 6.283185307179586
2  1 3 28 0.000000000000000 6.283185307179586
0

0101000
+74 29 -74 29 *
Wi

0101100
+73 0 *
Ve
0.000000100000000
-14.000000000000000 -15.500000000000000 0.000000000000000
0 0

0101101
*
Ed
 0.000000100000000 1 1 0
1  13 0 0.000000000000000 6.283185307179586
2  2 4 28 0.000000000000000 6.283185307179586
0

0101000
+71 29 -71 29 *
Wi

0101100
+70 0 *
Ve
0.000000100000000
17.000000000000000 15.500000000000000 0.000000000000000
0 0

0101101
*
Ed
 0.000000100000000 1 1 0
1  14 0 0.000000000000000 6.283185307179586
2  3 5 28 0.000000000000000 6.283185307179586
0

0101000
+68 29 -68 29 *
Wi

0101100
+67 0 *
Ve
0.000000100000000
-14.000000000000000 15.500000000000000 0.000000000000000
0 0

0101101
*
Ed
 0.000000100000000 1 1 0
1  15 0 0.000000000000000 6.283185307179586
2  4 6 28 0.000000000000000 6.283185307179586
0

0101000
+65 29 -65 29 *
Wi

0101100
+64 0 *
Fa
0  0.000000100000000 2 26

0111000
+75 27 +72 0 +69 0 +66 0 +63 0 *
Ve
0.000100000000000
-21.000000000000000 16.000000000000000 22.000000000000000
0 0

0101101
*
Ed
 0.000000100000000 1 1 0
1  16 0 -0.000000000000000 22.000000000000000
0

0101000
+88 21 -61 21 *
Ed
 0.000000100000000 1 1 0
1  17 0 -3.535533905932738 3.535533905932738
0

0101000
+95 21 -61 21 *
Wi

0101100
-87 0 +94 0 -60 0 +59 0 *
Fa
0  0.000000100000000 7 0

0111000
+58 0 *
Ve
0.000100000000000
21.000000000000000 16.000000000000000 22.000000000000000
0 0

0101101
*
Ed
 0.000000100000000 1 1 0
1  18 0 -0.000000000000000 22.000000000000000
0

0101000
+86 21 -56 21 *
Ed
 0.000000100000000 1 1 0
1  19 0 -3.535533905932738 3.535533905932738
0

0101000
+93 21 -56 21 *
Wi

0101100
-85 0 +92 0 -55 0 +54 0 *
Fa
0  0.000000100000000 8 0

0111000
+53 0 *
Ve
0.000100000000000
-21.000000000000000 -16.000000000000000 22.000000000000000
0 0

0101101
*
Ed
 0.000000100000000 1 1 0
1  20 0 5.000000000000000 37.000000000000000
0

0101000
+51 24 -61 24 *
Ve
0.000100000000000
21.000000000000000 -16.000000000000000 22.000000000000000
0 0

0101101
*
Ed
 0.000000100000000 1 1 0
1  21 0 5.000000000000000 37.000000000000000
0

0101000
+56 24 -49 24 *
Ve
0.000100000000000
-16.000000000000000 -21.000000000000000 22.000000000000000
0 0

0101101
*
Ed
 0.000000100000000 1 1 0
1  22 0 -3.535533905932738 3.535533905932738
0

0101000
+51 21 -47 21 *
Ve
0.000100000000000
16.000000000000000 -21.000000000000000 22.000000000000000
0 0

0101101
*
Ed
 0.000000100000000 1 1 0
1  23 0 -3.535533905932738 3.535533905932738
0

0101000
+49 21 -45 21 *
Ed
 0.000000100000000 1 1 0
1  24 0 5.000000000000000 37.000000000000000
0

0101000
+45 24 -47 24 *
Wi

0101100
+91 23 -59 0 +54 0 +50 23 +48 23 -46 0 +44 0 +43 23 *
Ve
0.000000100000000
17.000000000000000 -15.500000000000000 22.000000000000000
0 0

0101101
*
Ed
 0.000000100000000 1 1 0
1  25 0 0.000000000000000 6.283185307179586
2  5 3 32 0.000000000000000 6.283185307179586
0

0101000
+41 33 -41 33 *
Wi

0101100
+40 0 *
Ve
0.000000100000000
-14.000000000000000 -15.500000000000000 22.000000000000000
0 0

0101101
*
Ed
 0.000000100000000 1 1 0
1  26 0 0.000000000000000 6.283185307179586
2  6 4 32 0.000000000000000 6.283185307179586
0

0101000
+38 33 -38 33 *
Wi

0101100
+37 0 *
Ve
0.000000100000000
17.000000000000000 15.500000000000000 22.000000000000000
0 0

0101101
*
Ed
 0.000000100000000 1 1 0
1  27 0 0.000000000000000 6.283185307179586
2  7 5 32 0.000000000000000 6.283185307179586
0

0101000
+35 33 -35 33 *
Wi

0101100
+34 0 *
Ve
0.000000100000000
-14.000000000000000 15.500000000000000 22.000000000000000
0 0

0101101
*
Ed
 0.000000100000000 1 1 0
1  28 0 0.000000000000000 6.283185307179586
2  8 6 32 0.000000000000000 6.283185307179586
0

0101000
+32 33 -32 33 *
Wi

0101100
+31 0 *
Fa
0  0.000000100000000 9 26

0111000
+42 31 +39 0 +36 0 +33 0 +30 0 *
Ed
 0.000000100000000 1 1 0
1  29 0 -0.000000000000000 22.000000000000000
0

0101000
+84 21 -51 21 *
Wi

0101100
-83 18 +28 0 -60 0 +50 23 *
Fa
0  0.000000100000000 10 0

0111000
+27 3 *
Ed
 0.000000100000000 1 1 0
1  30 0 -0.000000000000000 22.000000000000000
0

0101000
+82 21 -49 21 *
Wi

0101100
-81 18 +55 0 -25 0 +48 23 *
Fa
0  0.000000100000000 11 0

0111000
+24 3 *
Ed
 0.000000100000000 1 1 0
1  31 0 -0.000000000000000 22.000000000000000
0

0101000
+80 21 -47 21 *
Wi

0101100
-79 0 +28 0 -22 0 +46 0 *
Fa
0  0.000000100000000 12 0

0111000
+21 0 *
Ed
 0.000000100000000 1 1 0
1  32 0 -0.000000000000000 22.000000000000000
0

0101000
+78 21 -45 21 *
Wi

0101100
-77 0 +25 0 -19 0 +44 0 *
Fa
0  0.000000100000000 13 0

0111000
+18 0 *
Wi

0101100
-76 18 +19 0 -22 0 +43 23 *
Fa
0  0.000000100000000 14 0

0111000
+16 3 *
Ed
 0.000000100000000 1 1 0
1  33 0 0.000000000000000 22.000000000000000
3  9 10CN 3 0 0.000000000000000 22.000000000000000
0

0101000
+74 34 -41 34 *
Wi

0101100
+14 0 -14 0 -73 35 +40 36 *
Fa
0  0.000000100000000 3 0

0111000
+13 0 *
Ed
 0.000000100000000 1 1 0
1  34 0 0.000000000000000 22.000000000000000
3  11 12CN 4 0 0.000000000000000 22.000000000000000
0

0101000
+71 34 -38 34 *
Wi

0101100
+11 0 -11 0 -70 35 +37 36 *
Fa
0  0.000000100000000 4 0

0111000
+10 0 *
Ed
 0.000000100000000 1 1 0
1  35 0 0.000000000000000 22.000000000000000
3  13 14CN 5 0 0.000000000000000 22.000000000000000
0

0101000
+68 34 -35 34 *
Wi

0101100
+8 0 -8 0 -67 35 +34 36 *
Fa
0  0.000000100000000 5 0

0111000
+7 0 *
Ed
 0.000000100000000 1 1 0
1  36 0 0.000000000000000 22.000000000000000
3  15 16CN 6 0 0.000000000000000 22.000000000000000
0

0101000
+65 34 -32 34 *
Wi

0101100
+5 0 -5 0 -64 35 +31 36 *
Fa
0  0.000000100000000 6 0

0111000
+4 0 *
Sh

0101100
+89 2 +62 25 -57 0 +52 0 -29 30 +26 2 +23 2 -20 0 +17 0 +15 2 
+12 2 +9 2 +6 2 +3 2 *
So

1100000
+2 0 *

+1 1 