
CASCADE Topology V1, (c) Matra-Datavision
Locations 74
1
1.000000000000000 0.000000000000000 0.000000000000000 0.000000000000000 
0.000000000000000 1.000000000000000 0.000000000000000 0.000000000000000 
0.000000000000000 0.000000000000000 1.000000000000000 0.000000000000000 
1
1.000000000000000 0.000000000000000 0.000000000000000 0.000000000000000 
0.000000000000000 1.000000000000000 0.000000000000000 0.000000000000000 
0.000000000000000 0.000000000000000 1.000000000000000 0.000000000000000 
1
1.000000000000000 0.000000000000000 0.000000000000000 0.000000000000000 
0.000000000000000 -0.000000000000000 -1.000000000000000 0.000000000000000 
0.000000000000000 1.000000000000000 -0.000000000000000 0.000000000000000 
1
1.000000000000000 0.000000000000000 0.000000000000000 0.000000000000000 
0.000000000000000 1.000000000000000 0.000000000000000 116.846804975777161 
0.000000000000000 0.000000000000000 1.000000000000000 -0.000000000000026 
2  1 1 2 1 3 -1 4 1 0
1
1.000000000000000 0.000000000000000 0.000000000000000 -0.000000000000000 
0.000000000000000 1.000000000000000 0.000000000000000 -233.693609951554322 
0.000000000000000 0.000000000000000 1.000000000000000 0.000000000000052 
2  1 1 2 1 3 -1 4 1 6 1 0
1
1.000000000000000 0.000000000000000 0.000000000000000 0.000000000000000 
0.000000000000000 -0.000000000000000 -1.000000000000000 0.000000000000000 
0.000000000000000 1.000000000000000 -0.000000000000000 0.000000000000000 
1
1.000000000000000 0.000000000000000 0.000000000000000 0.000000000000000 
0.000000000000000 1.000000000000000 0.000000000000000 0.000000000000000 
0.000000000000000 0.000000000000000 1.000000000000000 0.000000000000000 
2  8 1 9 -1 1 -1 0
1
1.000000000000000 0.000000000000000 0.000000000000000 -0.000000000000000 
0.000000000000000 1.000000000000000 0.000000000000000 -5.000000000000000 
0.000000000000000 0.000000000000000 1.000000000000000 0.000000000000001 
2  11 -1 8 1 9 -1 1 -1 0
2  9 -1 1 -1 0
1
1.000000000000000 0.000000000000000 0.000000000000000 0.000000000000000 
0.000000000000000 -0.000000000000000 -1.000000000000000 0.000000000000000 
0.000000000000000 1.000000000000000 -0.000000000000000 0.000000000000000 
1
1.000000000000000 0.000000000000000 0.000000000000000 0.000000000000000 
0.000000000000000 -0.000000000000000 -1.000000000000000 0.000000000000000 
0.000000000000000 1.000000000000000 -0.000000000000000 0.000000000000000 
1
1.000000000000000 0.000000000000000 0.000000000000000 0.000000000000000 
0.000000000000000 1.000000000000000 0.000000000000000 0.000000000000000 
0.000000000000000 0.000000000000000 1.000000000000000 0.000000000000000 
1
1.000000000000000 0.000000000000000 0.000000000000000 0.000000000000000 
0.000000000000000 -0.000000000000000 -1.000000000000000 0.000000000000000 
0.000000000000000 1.000000000000000 -0.000000000000000 0.000000000000000 
1
1.000000000000000 0.000000000000000 0.000000000000000 0.000000000000000 
0.000000000000000 -0.000000000000000 -1.000000000000000 0.000000000000000 
0.000000000000000 1.000000000000000 -0.000000000000000 0.000000000000000 
1
1.000000000000000 0.000000000000000 0.000000000000000 0.000000000000000 
0.000000000000000 -0.000000000000000 -1.000000000000000 0.000000000000000 
0.000000000000000 1.000000000000000 -0.000000000000000 0.000000000000000 
2  14 1 15 -1 16 1 17 1 18 -1 19 1 9 -1 1 -1 0
1
1.000000000000000 0.000000000000000 0.000000000000000 0.000000000000000 
0.000000000000000 1.000000000000000 0.000000000000000 2.500000000000000 
0.000000000000000 0.000000000000000 1.000000000000000 -0.000000000000001 
1
1.000000000000000 0.000000000000000 0.000000000000000 0.000000000000000 
0.000000000000000 -0.000000000000000 -1.000000000000000 0.000000000000000 
0.000000000000000 1.000000000000000 -0.000000000000000 0.000000000000000 
1
1.000000000000000 0.000000000000000 0.000000000000000 0.000000000000000 
0.000000000000000 1.000000000000000 0.000000000000000 0.000000000000000 
0.000000000000000 0.000000000000000 1.000000000000000 0.000000000000000 
2  21 -1 22 1 23 -1 1 -1 0
1
1.000000000000000 0.000000000000000 0.000000000000000 -0.000000000000000 
0.000000000000000 1.000000000000000 0.000000000000000 -5.000000000000000 
0.000000000000000 0.000000000000000 1.000000000000000 0.000000000000001 
2  25 -1 21 -1 22 1 23 -1 1 -1 0
1
1.000000000000000 0.000000000000000 0.000000000000000 0.000000000000000 
0.000000000000000 1.000000000000000 0.000000000000000 115.894848444613785 
0.000000000000000 0.000000000000000 1.000000000000000 -0.000000000000026 
1
1.000000000000000 0.000000000000000 0.000000000000000 0.000000000000000 
0.000000000000000 -0.000000000000000 -1.000000000000000 0.000000000000000 
0.000000000000000 1.000000000000000 -0.000000000000000 0.000000000000000 
1
1.000000000000000 0.000000000000000 0.000000000000000 0.000000000000000 
0.000000000000000 1.000000000000000 0.000000000000000 0.000000000000000 
0.000000000000000 0.000000000000000 1.000000000000000 0.000000000000000 
2  27 -1 28 1 29 -1 1 -1 0
1
1.000000000000000 0.000000000000000 0.000000000000000 -0.000000000000000 
0.000000000000000 1.000000000000000 0.000000000000000 -231.789696889227571 
0.000000000000000 0.000000000000000 1.000000000000000 0.000000000000051 
2  31 -1 27 -1 28 1 29 -1 1 -1 0
1
1.000000000000000 0.000000000000000 0.000000000000000 0.000000000000000 
0.000000000000000 1.000000000000000 0.000000000000000 115.894848444613785 
0.000000000000000 0.000000000000000 1.000000000000000 -0.000000000000026 
1
1.000000000000000 0.000000000000000 0.000000000000000 0.000000000000000 
0.000000000000000 -0.000000000000000 -1.000000000000000 0.000000000000000 
0.000000000000000 1.000000000000000 -0.000000000000000 0.000000000000000 
1
1.000000000000000 0.000000000000000 0.000000000000000 0.000000000000000 
0.000000000000000 1.000000000000000 0.000000000000000 0.000000000000000 
0.000000000000000 0.000000000000000 1.000000000000000 0.000000000000000 
2  33 -1 34 1 35 -1 1 -1 0
1
1.000000000000000 0.000000000000000 0.000000000000000 -0.000000000000000 
0.000000000000000 1.000000000000000 0.000000000000000 -231.789696889227571 
0.000000000000000 0.000000000000000 1.000000000000000 0.000000000000051 
2  37 -1 33 -1 34 1 35 -1 1 -1 0
1
1.000000000000000 0.000000000000000 0.000000000000000 0.000000000000000 
0.000000000000000 1.000000000000000 0.000000000000000 116.846804975777161 
0.000000000000000 0.000000000000000 1.000000000000000 -0.000000000000026 
1
1.000000000000000 0.000000000000000 0.000000000000000 0.000000000000000 
0.000000000000000 -0.000000000000000 -1.000000000000000 0.000000000000000 
0.000000000000000 1.000000000000000 -0.000000000000000 0.000000000000000 
1
1.000000000000000 0.000000000000000 0.000000000000000 0.000000000000000 
0.000000000000000 1.000000000000000 0.000000000000000 0.000000000000000 
0.000000000000000 0.000000000000000 1.000000000000000 0.000000000000000 
2  39 -1 40 1 41 -1 1 -1 0
1
1.000000000000000 0.000000000000000 0.000000000000000 -0.000000000000000 
0.000000000000000 1.000000000000000 0.000000000000000 -233.693609951554322 
0.000000000000000 0.000000000000000 1.000000000000000 0.000000000000052 
2  43 -1 39 -1 40 1 41 -1 1 -1 0
1
1.000000000000000 0.000000000000000 0.000000000000000 0.000000000000000 
0.000000000000000 1.000000000000000 0.000000000000000 116.846804975777161 
0.000000000000000 0.000000000000000 1.000000000000000 -0.000000000000026 
1
1.000000000000000 0.000000000000000 0.000000000000000 0.000000000000000 
0.000000000000000 -0.000000000000000 -1.000000000000000 0.000000000000000 
0.000000000000000 1.000000000000000 -0.000000000000000 0.000000000000000 
1
1.000000000000000 0.000000000000000 0.000000000000000 0.000000000000000 
0.000000000000000 1.000000000000000 0.000000000000000 0.000000000000000 
0.000000000000000 0.000000000000000 1.000000000000000 0.000000000000000 
2  45 -1 46 1 47 -1 1 -1 0
1
1.000000000000000 0.000000000000000 0.000000000000000 -0.000000000000000 
0.000000000000000 1.000000000000000 0.000000000000000 -233.693609951554322 
0.000000000000000 0.000000000000000 1.000000000000000 0.000000000000052 
2  49 -1 45 -1 46 1 47 -1 1 -1 0
1
1.000000000000000 0.000000000000000 0.000000000000000 0.000000000000000 
0.000000000000000 1.000000000000000 0.000000000000000 115.894848444613785 
0.000000000000000 0.000000000000000 1.000000000000000 -0.000000000000026 
1
1.000000000000000 0.000000000000000 0.000000000000000 0.000000000000000 
0.000000000000000 -0.000000000000000 -1.000000000000000 0.000000000000000 
0.000000000000000 1.000000000000000 -0.000000000000000 0.000000000000000 
1
1.000000000000000 0.000000000000000 0.000000000000000 0.000000000000000 
0.000000000000000 1.000000000000000 0.000000000000000 0.000000000000000 
0.000000000000000 0.000000000000000 1.000000000000000 0.000000000000000 
2  51 -1 52 1 53 -1 1 -1 0
1
1.000000000000000 0.000000000000000 0.000000000000000 -0.000000000000000 
0.000000000000000 1.000000000000000 0.000000000000000 -231.789696889227571 
0.000000000000000 0.000000000000000 1.000000000000000 0.000000000000051 
2  55 -1 51 -1 52 1 53 -1 1 -1 0
1
1.000000000000000 0.000000000000000 0.000000000000000 0.000000000000000 
0.000000000000000 1.000000000000000 0.000000000000000 115.894848444613785 
0.000000000000000 0.000000000000000 1.000000000000000 -0.000000000000026 
1
1.000000000000000 0.000000000000000 0.000000000000000 0.000000000000000 
0.000000000000000 -0.000000000000000 -1.000000000000000 0.000000000000000 
0.000000000000000 1.000000000000000 -0.000000000000000 0.000000000000000 
1
1.000000000000000 0.000000000000000 0.000000000000000 0.000000000000000 
0.000000000000000 1.000000000000000 0.000000000000000 0.000000000000000 
0.000000000000000 0.000000000000000 1.000000000000000 0.000000000000000 
2  57 -1 58 1 59 -1 1 -1 0
1
1.000000000000000 0.000000000000000 0.000000000000000 -0.000000000000000 
0.000000000000000 1.000000000000000 0.000000000000000 -231.789696889227571 
0.000000000000000 0.000000000000000 1.000000000000000 0.000000000000051 
2  61 -1 57 -1 58 1 59 -1 1 -1 0
1
1.000000000000000 0.000000000000000 0.000000000000000 0.000000000000000 
0.000000000000000 1.000000000000000 0.000000000000000 116.846804975740213 
0.000000000000000 0.000000000000000 1.000000000000000 -0.000000000000026 
1
1.000000000000000 0.000000000000000 0.000000000000000 0.000000000000000 
0.000000000000000 -0.000000000000000 -1.000000000000000 0.000000000000000 
0.000000000000000 1.000000000000000 -0.000000000000000 0.000000000000000 
1
1.000000000000000 0.000000000000000 0.000000000000000 0.000000000000000 
0.000000000000000 1.000000000000000 0.000000000000000 0.000000000000000 
0.000000000000000 0.000000000000000 1.000000000000000 0.000000000000000 
2  63 -1 64 1 65 -1 1 -1 0
1
1.000000000000000 0.000000000000000 0.000000000000000 -0.000000000000000 
0.000000000000000 1.000000000000000 0.000000000000000 -233.693609951480425 
0.000000000000000 0.000000000000000 1.000000000000000 0.000000000000052 
2  67 -1 63 -1 64 1 65 -1 1 -1 0
2  4 -1 3 1 2 -1 1 -1 0
2  6 -1 4 -1 3 1 2 -1 1 -1 0
2  3 -1 4 1 0
2  9 -1 2 1 0
2  1 1 2 1 0
2  3 -1 4 1 6 1 0
Curve2ds 72
1 0.00000000000000000 0.00000000000000000 0.00000000000000000 -1.00000000000000000 
1 6.28318530717958623 0.00000000000000000 0.00000000000000000 -1.00000000000000000 
1 0.00000000000000000 0.00000000000000000 1.00000000000000000 0.00000000000000000 
1 0.00000000000000000 -5.00000000000000000 1.00000000000000000 0.00000000000000000 
2 0.00000000000000017 0.00000000000000000 1.00000000000000000 0.00000000000000000 -0.00000000000000000 1.00000000000000000 3.96875000000000000
2 12.70000000000000284 20.00000000000000000 0.00000000000000000 1.00000000000000000 -1.00000000000000000 0.00000000000000000 3.96875000000000000
1 0.00000000000000000 0.00000000000000000 1.00000000000000000 0.00000000000000000 
1 0.00000000000000000 -5.00000000000000000 1.00000000000000000 0.00000000000000000 
1 0.00000000000000000 0.00000000000000000 1.00000000000000000 0.00000000000000000 
1 0.00000000000000000 -231.78969688922757086 1.00000000000000000 0.00000000000000000 
1 0.00000000000000000 0.00000000000000000 1.00000000000000000 0.00000000000000000 
1 0.00000000000000000 -231.78969688922757086 1.00000000000000000 0.00000000000000000 
1 0.00000000000000000 0.00000000000000000 1.00000000000000000 0.00000000000000000 
1 0.00000000000000000 -233.69360995155432192 1.00000000000000000 0.00000000000000000 
1 0.00000000000000000 0.00000000000000000 1.00000000000000000 0.00000000000000000 
1 0.00000000000000000 -233.69360995155432192 1.00000000000000000 0.00000000000000000 
1 0.00000000000000000 0.00000000000000000 1.00000000000000000 0.00000000000000000 
1 0.00000000000000000 -231.78969688922757086 1.00000000000000000 0.00000000000000000 
1 0.00000000000000000 0.00000000000000000 1.00000000000000000 0.00000000000000000 
1 0.00000000000000000 -231.78969688922757086 1.00000000000000000 0.00000000000000000 
1 0.00000000000000000 0.00000000000000000 1.00000000000000000 0.00000000000000000 
1 0.00000000000000000 -233.69360995148042548 1.00000000000000000 0.00000000000000000 
1 0.00000000000000000 0.00000000000000000 1.00000000000000000 0.00000000000000000 
1 0.00000000000000000 -233.69360995155432192 1.00000000000000000 0.00000000000000000 
1 0.00000000000000000 0.00000000000000000 0.00000000000000000 -1.00000000000000000 
1 6.28318530717958623 0.00000000000000000 0.00000000000000000 -1.00000000000000000 
1 0.00000000000000000 0.00000000000000000 1.00000000000000000 0.00000000000000000 
1 0.00000000000000000 -5.00000000000000000 1.00000000000000000 0.00000000000000000 
2 -0.00000000000000711 0.00000000000000000 1.00000000000000000 0.00000000000000000 -0.00000000000000000 1.00000000000000000 3.96875000000000000
2 12.70000000000000284 19.99999999997789857 1.00000000000000000 0.00000000000000000 -0.00000000000000000 1.00000000000000000 3.96875000000000000
1 0.00000000000000000 0.00000000000000000 1.00000000000000000 0.00000000000000000 
1 0.00000000000000000 -5.00000000000000000 1.00000000000000000 0.00000000000000000 
1 0.00000000000000000 0.00000000000000000 1.00000000000000000 0.00000000000000000 
1 0.00000000000000000 -231.78969688922757086 1.00000000000000000 0.00000000000000000 
1 0.00000000000000000 0.00000000000000000 1.00000000000000000 0.00000000000000000 
1 0.00000000000000000 -231.78969688922757086 1.00000000000000000 0.00000000000000000 
1 0.00000000000000000 0.00000000000000000 1.00000000000000000 0.00000000000000000 
1 0.00000000000000000 -233.69360995155432192 1.00000000000000000 0.00000000000000000 
1 0.00000000000000000 0.00000000000000000 1.00000000000000000 0.00000000000000000 
1 0.00000000000000000 -233.69360995155432192 1.00000000000000000 0.00000000000000000 
1 0.00000000000000000 0.00000000000000000 1.00000000000000000 0.00000000000000000 
1 0.00000000000000000 -231.78969688922757086 1.00000000000000000 0.00000000000000000 
1 0.00000000000000000 0.00000000000000000 1.00000000000000000 0.00000000000000000 
1 0.00000000000000000 -231.78969688922757086 1.00000000000000000 0.00000000000000000 
1 0.00000000000000000 0.00000000000000000 1.00000000000000000 0.00000000000000000 
1 0.00000000000000000 -233.69360995148042548 1.00000000000000000 0.00000000000000000 
1 0.00000000000000000 0.00000000000000000 1.00000000000000000 0.00000000000000000 
1 0.00000000000000000 -233.69360995155432192 1.00000000000000000 0.00000000000000000 
1 0.00000000000000000 0.00000000000000000 0.00000000000000000 -1.00000000000000000 
1 6.28318530717958623 0.00000000000000000 0.00000000000000000 -1.00000000000000000 
1 0.00000000000000000 0.00000000000000000 1.00000000000000000 0.00000000000000000 
1 0.00000000000000000 -5.00000000000000000 1.00000000000000000 0.00000000000000000 
2 0.00000000000000000 0.00000000000000000 1.00000000000000000 0.00000000000000000 -0.00000000000000000 1.00000000000000000 3.96875000000000000
2 12.70000000000000284 20.00000000002210143 -1.00000000000000000 0.00000000000000000 -0.00000000000000000 -1.00000000000000000 3.96875000000000000
1 0.00000000000000000 0.00000000000000000 1.00000000000000000 0.00000000000000000 
1 0.00000000000000000 -5.00000000000000000 1.00000000000000000 0.00000000000000000 
1 0.00000000000000000 0.00000000000000000 1.00000000000000000 0.00000000000000000 
1 0.00000000000000000 -231.78969688922757086 1.00000000000000000 0.00000000000000000 
1 0.00000000000000000 0.00000000000000000 1.00000000000000000 0.00000000000000000 
1 0.00000000000000000 -231.78969688922757086 1.00000000000000000 0.00000000000000000 
1 0.00000000000000000 0.00000000000000000 1.00000000000000000 0.00000000000000000 
1 0.00000000000000000 -233.69360995155432192 1.00000000000000000 0.00000000000000000 
1 0.00000000000000000 0.00000000000000000 1.00000000000000000 0.00000000000000000 
1 0.00000000000000000 -233.69360995155432192 1.00000000000000000 0.00000000000000000 
1 0.00000000000000000 0.00000000000000000 1.00000000000000000 0.00000000000000000 
1 0.00000000000000000 -231.78969688922757086 1.00000000000000000 0.00000000000000000 
1 0.00000000000000000 0.00000000000000000 1.00000000000000000 0.00000000000000000 
1 0.00000000000000000 -231.78969688922757086 1.00000000000000000 0.00000000000000000 
1 0.00000000000000000 0.00000000000000000 1.00000000000000000 0.00000000000000000 
1 0.00000000000000000 -233.69360995148042548 1.00000000000000000 0.00000000000000000 
1 0.00000000000000000 0.00000000000000000 1.00000000000000000 0.00000000000000000 
1 0.00000000000000000 -233.69360995155432192 1.00000000000000000 0.00000000000000000 
Curves 6
1 3.96875000000000000 116.84680497577717517 52.69999999999997442 -0.00000000000000000 -1.00000000000000000 0.00000000000000022 
2 0.00000000000000000 -52.70000000000000284 0.00000000000000000 0.00000000000000000 0.00000000000000000 1.00000000000000000 1.00000000000000000 0.00000000000000000 -0.00000000000000000 -0.00000000000000000 1.00000000000000000 0.00000000000000000 3.96875000000000000
1 36.66875000000000284 116.84680497577716096 20.00000000002207656 -0.00000000000000000 -1.00000000000000000 0.00000000000000022 
2 32.70000000000000284 -20.00000000002210143 0.00000000000000000 0.00000000000000000 0.00000000000000000 1.00000000000000000 1.00000000000000000 0.00000000000000000 -0.00000000000000000 -0.00000000000000000 1.00000000000000000 0.00000000000000000 3.96875000000000000
1 -28.73125000000000284 116.84680497577716096 20.00000000002207656 -0.00000000000000000 -1.00000000000000000 0.00000000000000022 
2 -32.70000000000000284 -20.00000000002210143 0.00000000000000000 0.00000000000000000 0.00000000000000000 1.00000000000000000 1.00000000000000000 0.00000000000000000 -0.00000000000000000 -0.00000000000000000 1.00000000000000000 0.00000000000000000 3.96875000000000000
Polygon3D 0
PolygonOnTriangulations 0
Surfaces 36
2 0.00000000000000000 116.84680497577717517 52.69999999999997442 0.00000000000000000 1.00000000000000000 -0.00000000000000022 1.00000000000000000 0.00000000000000000 0.00000000000000000 0.00000000000000000 -0.00000000000000022 -1.00000000000000000 3.96875000000000000
2 0.00000000000000000 0.00000000000001170 52.70000000000000284 0.00000000000000000 1.00000000000000000 -0.00000000000000022 1.00000000000000000 0.00000000000000000 0.00000000000000000 0.00000000000000000 -0.00000000000000022 -1.00000000000000000 3.96875000000000000
1 -0.00000000000000017 -52.70000000000000284 0.00000000000000000 0.00000000000000000 0.00000000000000000 1.00000000000000000 1.00000000000000000 0.00000000000000000 -0.00000000000000000 -0.00000000000000000 1.00000000000000000 0.00000000000000000 
1 -20.00000000000000000 0.00000000000000888 40.00000000000000000 0.00000000000000000 1.00000000000000000 -0.00000000000000022 0.00000000000000000 0.00000000000000022 1.00000000000000000 1.00000000000000000 -0.00000000000000000 0.00000000000000000 
2 0.00000000000000000 2.50000000000001155 52.70000000000000284 0.00000000000000000 1.00000000000000000 -0.00000000000000022 1.00000000000000000 0.00000000000000000 0.00000000000000000 0.00000000000000000 -0.00000000000000022 -1.00000000000000000 3.96875000000000000
2 0.00000000000000000 115.89484844461379964 52.69999999999997442 0.00000000000000000 1.00000000000000000 -0.00000000000000022 1.00000000000000000 0.00000000000000000 0.00000000000000000 0.00000000000000000 -0.00000000000000022 -1.00000000000000000 3.96875000000000000
2 0.00000000000000000 115.89484844461379964 52.69999999999997442 0.00000000000000000 1.00000000000000000 -0.00000000000000022 1.00000000000000000 0.00000000000000000 0.00000000000000000 0.00000000000000000 -0.00000000000000022 -1.00000000000000000 3.96875000000000000
2 0.00000000000000000 116.84680497577717517 52.69999999999997442 0.00000000000000000 1.00000000000000000 -0.00000000000000022 1.00000000000000000 0.00000000000000000 0.00000000000000000 0.00000000000000000 -0.00000000000000022 -1.00000000000000000 3.96875000000000000
2 0.00000000000000000 116.84680497577717517 52.69999999999997442 0.00000000000000000 1.00000000000000000 -0.00000000000000022 1.00000000000000000 0.00000000000000000 0.00000000000000000 0.00000000000000000 -0.00000000000000022 -1.00000000000000000 3.96875000000000000
2 0.00000000000000000 115.89484844461379964 52.69999999999997442 0.00000000000000000 1.00000000000000000 -0.00000000000000022 1.00000000000000000 0.00000000000000000 0.00000000000000000 0.00000000000000000 -0.00000000000000022 -1.00000000000000000 3.96875000000000000
2 0.00000000000000000 115.89484844461379964 52.69999999999997442 0.00000000000000000 1.00000000000000000 -0.00000000000000022 1.00000000000000000 0.00000000000000000 0.00000000000000000 0.00000000000000000 -0.00000000000000022 -1.00000000000000000 3.96875000000000000
2 0.00000000000000000 116.84680497574022695 52.69999999999997442 0.00000000000000000 1.00000000000000000 -0.00000000000000022 1.00000000000000000 0.00000000000000000 0.00000000000000000 0.00000000000000000 -0.00000000000000022 -1.00000000000000000 3.96875000000000000
2 32.70000000000000284 116.84680497577716096 20.00000000002207656 0.00000000000000000 1.00000000000000000 -0.00000000000000022 1.00000000000000000 0.00000000000000000 0.00000000000000000 0.00000000000000000 -0.00000000000000022 -1.00000000000000000 3.96875000000000000
2 32.70000000000000284 0.00000000000000444 20.00000000002210143 0.00000000000000000 1.00000000000000000 -0.00000000000000022 1.00000000000000000 0.00000000000000000 0.00000000000000000 0.00000000000000000 -0.00000000000000022 -1.00000000000000000 3.96875000000000000
1 32.70000000000000995 -20.00000000002210143 0.00000000000000000 0.00000000000000000 0.00000000000000000 1.00000000000000000 1.00000000000000000 0.00000000000000000 -0.00000000000000000 -0.00000000000000000 1.00000000000000000 0.00000000000000000 
1 20.00000000000000000 0.00000000000000888 40.00000000000000000 -0.00000000000000012 1.00000000000000000 -0.00000000000000022 1.00000000000000000 0.00000000000000012 0.00000000000000000 0.00000000000000000 -0.00000000000000022 -1.00000000000000000 
2 32.70000000000000284 2.50000000000000444 20.00000000002210143 0.00000000000000000 1.00000000000000000 -0.00000000000000022 1.00000000000000000 0.00000000000000000 0.00000000000000000 0.00000000000000000 -0.00000000000000022 -1.00000000000000000 3.96875000000000000
2 32.70000000000000284 115.89484844461378543 20.00000000002207656 0.00000000000000000 1.00000000000000000 -0.00000000000000022 1.00000000000000000 0.00000000000000000 0.00000000000000000 0.00000000000000000 -0.00000000000000022 -1.00000000000000000 3.96875000000000000
2 32.70000000000000284 115.89484844461378543 20.00000000002207656 0.00000000000000000 1.00000000000000000 -0.00000000000000022 1.00000000000000000 0.00000000000000000 0.00000000000000000 0.00000000000000000 -0.00000000000000022 -1.00000000000000000 3.96875000000000000
2 32.70000000000000284 116.84680497577716096 20.00000000002207656 0.00000000000000000 1.00000000000000000 -0.00000000000000022 1.00000000000000000 0.00000000000000000 0.00000000000000000 0.00000000000000000 -0.00000000000000022 -1.00000000000000000 3.96875000000000000
2 32.70000000000000284 116.84680497577716096 20.00000000002207656 0.00000000000000000 1.00000000000000000 -0.00000000000000022 1.00000000000000000 0.00000000000000000 0.00000000000000000 0.00000000000000000 -0.00000000000000022 -1.00000000000000000 3.96875000000000000
2 32.70000000000000284 115.89484844461378543 20.00000000002207656 0.00000000000000000 1.00000000000000000 -0.00000000000000022 1.00000000000000000 0.00000000000000000 0.00000000000000000 0.00000000000000000 -0.00000000000000022 -1.00000000000000000 3.96875000000000000
2 32.70000000000000284 115.89484844461378543 20.00000000002207656 0.00000000000000000 1.00000000000000000 -0.00000000000000022 1.00000000000000000 0.00000000000000000 0.00000000000000000 0.00000000000000000 -0.00000000000000022 -1.00000000000000000 3.96875000000000000
2 32.70000000000000284 116.84680497574021274 20.00000000002207656 0.00000000000000000 1.00000000000000000 -0.00000000000000022 1.00000000000000000 0.00000000000000000 0.00000000000000000 0.00000000000000000 -0.00000000000000022 -1.00000000000000000 3.96875000000000000
2 -32.70000000000000284 116.84680497577716096 20.00000000002207656 0.00000000000000000 1.00000000000000000 -0.00000000000000022 1.00000000000000000 0.00000000000000000 0.00000000000000000 0.00000000000000000 -0.00000000000000022 -1.00000000000000000 3.96875000000000000
2 -32.70000000000000284 0.00000000000000444 20.00000000002210143 0.00000000000000000 1.00000000000000000 -0.00000000000000022 1.00000000000000000 0.00000000000000000 0.00000000000000000 0.00000000000000000 -0.00000000000000022 -1.00000000000000000 3.96875000000000000
1 -32.70000000000000284 -20.00000000002210143 0.00000000000000000 0.00000000000000000 0.00000000000000000 1.00000000000000000 1.00000000000000000 0.00000000000000000 -0.00000000000000000 -0.00000000000000000 1.00000000000000000 0.00000000000000000 
1 -20.00000000000000000 0.00000000000000000 0.00000000000000000 0.00000000000000000 1.00000000000000000 -0.00000000000000022 -1.00000000000000000 0.00000000000000000 0.00000000000000000 0.00000000000000000 0.00000000000000022 1.00000000000000000 
2 -32.70000000000000284 2.50000000000000444 20.00000000002210143 0.00000000000000000 1.00000000000000000 -0.00000000000000022 1.00000000000000000 0.00000000000000000 0.00000000000000000 0.00000000000000000 -0.00000000000000022 -1.00000000000000000 3.96875000000000000
2 -32.70000000000000284 115.89484844461378543 20.00000000002207656 0.00000000000000000 1.00000000000000000 -0.00000000000000022 1.00000000000000000 0.00000000000000000 0.00000000000000000 0.00000000000000000 -0.00000000000000022 -1.00000000000000000 3.96875000000000000
2 -32.70000000000000284 115.89484844461378543 20.00000000002207656 0.00000000000000000 1.00000000000000000 -0.00000000000000022 1.00000000000000000 0.00000000000000000 0.00000000000000000 0.00000000000000000 -0.00000000000000022 -1.00000000000000000 3.96875000000000000
2 -32.70000000000000284 116.84680497577716096 20.00000000002207656 0.00000000000000000 1.00000000000000000 -0.00000000000000022 1.00000000000000000 0.00000000000000000 0.00000000000000000 0.00000000000000000 -0.00000000000000022 -1.00000000000000000 3.96875000000000000
2 -32.70000000000000284 116.84680497577716096 20.00000000002207656 0.00000000000000000 1.00000000000000000 -0.00000000000000022 1.00000000000000000 0.00000000000000000 0.00000000000000000 0.00000000000000000 -0.00000000000000022 -1.00000000000000000 3.96875000000000000
2 -32.70000000000000284 115.89484844461378543 20.00000000002207656 0.00000000000000000 1.00000000000000000 -0.00000000000000022 1.00000000000000000 0.00000000000000000 0.00000000000000000 0.00000000000000000 -0.00000000000000022 -1.00000000000000000 3.96875000000000000
2 -32.70000000000000284 115.89484844461378543 20.00000000002207656 0.00000000000000000 1.00000000000000000 -0.00000000000000022 1.00000000000000000 0.00000000000000000 0.00000000000000000 0.00000000000000000 -0.00000000000000022 -1.00000000000000000 3.96875000000000000
2 -32.70000000000000284 116.84680497574021274 20.00000000002207656 0.00000000000000000 1.00000000000000000 -0.00000000000000022 1.00000000000000000 0.00000000000000000 0.00000000000000000 0.00000000000000000 -0.00000000000000022 -1.00000000000000000 3.96875000000000000
Triangulations 0

TShapes 28
Ve
0.000000100000000
3.968750000000000 -52.700000000000003 0.000000000000000
0 0

0101101
*
Ed
 0.000000100000000 1 1 0
1  1 0 0.000000000000000 233.693609951554322
3  1 2CN 1 0 0.000000000000000 233.693609951554322
0

0101000
+28 5 -28 7 *
Ed
 0.000000100000000 1 1 0
1  2 0 0.000000000000000 6.283185307179586
2  3 2 10 0.000000000000000 6.283185307179586
2  4 2 12 0.000000000000000 6.283185307179586
2  5 3 13 0.000000000000000 6.283185307179586
2  6 4 20 0.000000000000000 6.283185307179586
2  7 5 24 0.000000000000000 6.283185307179586
2  8 5 26 0.000000000000000 6.283185307179586
2  9 6 30 0.000000000000000 6.283185307179586
2  10 6 32 0.000000000000000 6.283185307179586
2  11 7 36 0.000000000000000 6.283185307179586
2  12 7 38 0.000000000000000 6.283185307179586
2  13 8 42 0.000000000000000 6.283185307179586
2  14 8 44 0.000000000000000 6.283185307179586
2  15 9 48 0.000000000000000 6.283185307179586
2  16 9 50 0.000000000000000 6.283185307179586
2  17 10 54 0.000000000000000 6.283185307179586
2  18 10 56 0.000000000000000 6.283185307179586
2  19 11 60 0.000000000000000 6.283185307179586
2  20 11 62 0.000000000000000 6.283185307179586
2  21 12 66 0.000000000000000 6.283185307179586
2  22 12 68 0.000000000000000 6.283185307179586
2  23 1 69 0.000000000000000 6.283185307179586
2  24 1 70 0.000000000000000 6.283185307179586
0

0101000
+28 0 -28 0 *
Wi

0101100
+27 0 -27 0 -26 5 +26 7 *
Fa
0  0.000000100000000 1 0

0111000
+25 0 *
Wi

0101100
+26 0 *
Fa
0  0.000000100000000 3 72

0111000
+23 73 *
Sh

0101100
+24 0 +22 71 -22 74 *
So

0100000
+21 0 *
Ve
0.000000100000002
36.668750000000003 -20.000000000022101 0.000000000000000
0 0

0101101
*
Ed
 0.000000100000002 1 1 0
1  3 0 0.000000000000000 233.693609951554322
3  25 26CN 13 0 0.000000000000000 233.693609951554322
0

0101000
+19 5 -19 7 *
Ed
 0.000000100000002 1 1 0
1  4 0 0.000000000000000 6.283185307179586
2  27 14 10 0.000000000000000 6.283185307179586
2  28 14 12 0.000000000000000 6.283185307179586
2  29 15 13 0.000000000000000 6.283185307179586
2  30 16 20 0.000000000000000 6.283185307179586
2  31 17 24 0.000000000000000 6.283185307179586
2  32 17 26 0.000000000000000 6.283185307179586
2  33 18 30 0.000000000000000 6.283185307179586
2  34 18 32 0.000000000000000 6.283185307179586
2  35 19 36 0.000000000000000 6.283185307179586
2  36 19 38 0.000000000000000 6.283185307179586
2  37 20 42 0.000000000000000 6.283185307179586
2  38 20 44 0.000000000000000 6.283185307179586
2  39 21 48 0.000000000000000 6.283185307179586
2  40 21 50 0.000000000000000 6.283185307179586
2  41 22 54 0.000000000000000 6.283185307179586
2  42 22 56 0.000000000000000 6.283185307179586
2  43 23 60 0.000000000000000 6.283185307179586
2  44 23 62 0.000000000000000 6.283185307179586
2  45 24 66 0.000000000000000 6.283185307179586
2  46 24 68 0.000000000000000 6.283185307179586
2  47 13 69 0.000000000000000 6.283185307179586
2  48 13 70 0.000000000000000 6.283185307179586
0

0101000
+19 0 -19 0 *
Wi

0101100
+18 0 -18 0 -17 5 +17 7 *
Fa
0  0.000000100000002 13 0

0111000
+16 0 *
Wi

0101100
+17 0 *
Fa
0  0.000000100000002 15 72

0111000
+14 73 *
Sh

0101100
+15 0 +13 71 -13 74 *
So

0100000
+12 0 *
Ve
0.000000100000000
-28.731250000000003 -20.000000000022101 0.000000000000000
0 0

0101101
*
Ed
 0.000000100000000 1 1 0
1  5 0 0.000000000000000 233.693609951554322
3  49 50CN 25 0 0.000000000000000 233.693609951554322
0

0101000
+10 5 -10 7 *
Ed
 0.000000100000000 1 1 0
1  6 0 0.000000000000000 6.283185307179586
2  51 26 10 0.000000000000000 6.283185307179586
2  52 26 12 0.000000000000000 6.283185307179586
2  53 27 13 0.000000000000000 6.283185307179586
2  54 28 20 0.000000000000000 6.283185307179586
2  55 29 24 0.000000000000000 6.283185307179586
2  56 29 26 0.000000000000000 6.283185307179586
2  57 30 30 0.000000000000000 6.283185307179586
2  58 30 32 0.000000000000000 6.283185307179586
2  59 31 36 0.000000000000000 6.283185307179586
2  60 31 38 0.000000000000000 6.283185307179586
2  61 32 42 0.000000000000000 6.283185307179586
2  62 32 44 0.000000000000000 6.283185307179586
2  63 33 48 0.000000000000000 6.283185307179586
2  64 33 50 0.000000000000000 6.283185307179586
2  65 34 54 0.000000000000000 6.283185307179586
2  66 34 56 0.000000000000000 6.283185307179586
2  67 35 60 0.000000000000000 6.283185307179586
2  68 35 62 0.000000000000000 6.283185307179586
2  69 36 66 0.000000000000000 6.283185307179586
2  70 36 68 0.000000000000000 6.283185307179586
2  71 25 69 0.000000000000000 6.283185307179586
2  72 25 70 0.000000000000000 6.283185307179586
0

0101000
+10 0 -10 0 *
Wi

0101100
+9 0 -9 0 -8 5 +8 7 *
Fa
0  0.000000100000000 25 0

0111000
+7 0 *
Wi

0101100
+8 0 *
Fa
0  0.000000100000000 27 72

0111000
+5 73 *
Sh

0101100
+6 0 +4 71 -4 74 *
So

0100000
+3 0 *
Co

1100000
+20 0 +11 0 +2 0 *

+1 0 