
CASCADE Topology V1, (c) Matra-Datavision
Locations 19
1
1.000000000000000 0.000000000000000 0.000000000000000 0.000000000000000 
0.000000000000000 0.000000000000000 -1.000000000000000 0.000000000000000 
0.000000000000000 1.000000000000000 0.000000000000000 0.000000000000000 
1
1.000000000000000 0.000000000000000 0.000000000000000 0.000000000000000 
0.000000000000000 0.000000000000000 -1.000000000000000 0.000000000000000 
0.000000000000000 1.000000000000000 0.000000000000000 0.000000000000000 
1
1.000000000000000 0.000000000000000 0.000000000000000 0.000000000000000 
0.000000000000000 0.000000000000000 -1.000000000000000 0.000000000000000 
0.000000000000000 1.000000000000000 0.000000000000000 0.000000000000000 
2  2 1 3 -1 0
1
1.000000000000000 0.000000000000000 0.000000000000000 0.000000000000000 
0.000000000000000 1.000000000000000 0.000000000000000 0.000000000000000 
0.000000000000000 0.000000000000000 1.000000000000000 0.000000000000000 
1
1.000000000000000 0.000000000000000 0.000000000000000 0.000000000000000 
0.000000000000000 1.000000000000000 0.000000000000000 0.000000000000000 
0.000000000000000 0.000000000000000 1.000000000000000 0.000000000000000 
2  5 1 6 1 2 -1 0
2  5 1 6 1 3 -1 0
2  6 -1 5 -1 0
2  3 1 6 -1 5 -1 0
1
1.000000000000000 0.000000000000000 0.000000000000000 0.000000000000000 
0.000000000000000 1.000000000000000 0.000000000000000 231.789696889227656 
0.000000000000000 0.000000000000000 1.000000000000000 0.000000000000026 
2  11 -1 3 1 6 -1 5 -1 0
2  2 1 6 -1 5 -1 0
2  3 1 2 -1 0
1
1.000000000000000 0.000000000000000 0.000000000000000 0.000000000000000 
0.000000000000000 -0.000000000000000 -1.000000000000000 0.000000000000000 
0.000000000000000 1.000000000000000 -0.000000000000000 0.000000000000000 
1
1.000000000000000 0.000000000000000 0.000000000000000 0.000000000000000 
0.000000000000000 -0.000000000000000 -1.000000000000000 0.000000000000000 
0.000000000000000 1.000000000000000 -0.000000000000000 0.000000000000000 
2  15 1 16 -1 0
1
1.000000000000000 0.000000000000000 0.000000000000000 0.000000000000000 
0.000000000000000 -0.000000000000000 -1.000000000000000 0.000000000000000 
0.000000000000000 1.000000000000000 -0.000000000000000 0.000000000000000 
2  18 1 16 -1 0
Curve2ds 128
1 -7.83828124999777032 -7.83828124999777121 1.00000000000000000 0.00000000000000000 
1 0.00000000000000000 0.00000000000000000 1.00000000000000000 0.00000000000000000 
1 17.56171875000222826 -7.83828124999777121 0.00000000000000000 1.00000000000000000 
1 0.00000000000000000 0.00000000000000000 1.00000000000000000 0.00000000000000000 
1 17.56171875000222826 -4.66328124999777138 -1.00000000000000000 0.00000000000000000 
1 0.00000000000000000 0.00000000000000000 1.00000000000000000 0.00000000000000000 
1 -4.66328125000795168 -4.66328124999777138 0.00000000000000000 1.00000000000000000 
1 0.00000000000000000 0.00000000000000000 1.00000000000000000 0.00000000000000000 
1 -4.66328125000795168 17.56171875000222826 -1.00000000000000000 0.00000000000000000 
1 0.00000000000000000 0.00000000000000000 1.00000000000000000 0.00000000000000000 
1 -7.83828124999777032 17.56171875000222826 0.00000000000000000 -1.00000000000000000 
1 0.00000000000000000 0.00000000000000000 1.00000000000000000 0.00000000000000000 
1 0.00000000000000000 0.00000000000000000 0.00000000000000000 1.00000000000000000 
1 25.39999999999999858 0.00000000000000000 -0.00000000000000022 1.00000000000000000 
1 0.00000000000000000 0.00000000000000000 0.70710678118654768 -0.70710678118654746 
1 0.00000000000000000 40.00000000000000000 0.70710678118654746 0.70710678118654768 
1 11.11249999999999716 11.11250000000000426 -1.00000000000000000 0.00000000000000000 
1 0.00000000000000000 0.00000000000000000 1.00000000000000000 0.00000000000000000 
1 0.00000000000000000 -231.78969688922765613 1.00000000000000000 0.00000000000000000 
1 25.39999999999999858 43.17500000000000426 -1.00000000000000000 0.00000000000000000 
1 25.39999999999999858 0.00000000000000000 0.00000000000000000 1.00000000000000000 
1 0.00000000000000000 0.00000000000000000 0.00000000000000022 1.00000000000000000 
1 22.22500000000000142 0.00000000000000000 0.00000000000000000 -1.00000000000000000 
1 0.00000000000000000 0.00000000000000000 0.00000000000000000 -1.00000000000000000 
1 -0.00000000000000959 43.17500000000000426 1.00000000000000000 0.00000000000000022 
1 3.17499999999999982 0.00000000000000000 0.00000000000000000 1.00000000000000000 
1 0.00000000000000000 0.00000000000000000 0.00000000000000000 1.00000000000000000 
8 0.00000000000000000 22.22499999999999787
1 0.00000000000000000 43.17500000000000426 1.00000000000000000 0.00000000000000000 
8 0.00000000000000000 22.22499999999999787
1 0.00000000000000000 -3.17500000000001892 1.00000000000000000 0.00000000000000000 
1 22.22500000001017995 0.00000000000000000 0.00000000000000000 1.00000000000000000 
1 0.00000000000000000 0.00000000000000000 0.00000000000000022 1.00000000000000000 
1 22.22499999999999787 0.00000000000000000 0.00000000000000000 1.00000000000000000 
1 0.00000000000000000 0.00000000000000000 0.00000000000000000 1.00000000000000000 
8 -0.00000000000000977 22.22499999999998721
1 0.00000000000000977 43.17499999998981508 1.00000000000000000 -0.00000000000000022 
8 -0.00000000000000977 22.22499999999998721
1 -0.00000000000000070 -3.17499999998981863 1.00000000000000000 -0.00000000000000022 
1 22.22500000001017995 -3.17499999999999982 0.00000000000000000 -1.00000000000000000 
1 -0.00000000001019558 -3.17499999999999982 0.00000000000000000 -1.00000000000000000 
1 22.22500000001017995 -3.17499999999999982 0.00000000000000000 -1.00000000000000000 
1 -0.00000000001018848 -3.17499999999999982 0.00000000000000000 -1.00000000000000000 
1 22.22500000001017995 -3.17500000000001936 0.00000000000000000 -1.00000000000000000 
1 -0.00000000001018954 -3.17500000000001936 -0.00000000000000044 -1.00000000000000000 
1 3.17499999998981863 0.00000000000000000 0.00000000000000000 1.00000000000000000 
1 0.00000000000000000 0.00000000000000000 -0.00000000000000022 1.00000000000000000 
1 0.00000000000000711 -3.17499999998982574 0.70710678118654635 0.70710678118654868 
1 0.00000000000000000 43.17499999998980797 0.70710678118654868 -0.70710678118654635 
8 -25.40000000000000568 0.00000000000001306
1 -0.00000000000000711 39.99999999999999289 -1.00000000000000000 -0.00000000000000022 
8 -25.40000000000000568 0.00000000000001306
1 0.00000000000000000 -0.00000000000000711 -1.00000000000000000 -0.00000000000000022 
1 0.00000000000000000 0.00000000000000000 0.00000000000000000 1.00000000000000000 
1 25.39999999999999858 -0.00000000000000147 -0.00000000000000022 1.00000000000000000 
1 0.00000000000000000 40.00000000000000000 0.70710678118654757 0.70710678118654757 
1 0.00000000000000000 0.00000000000000000 0.70710678118654757 -0.70710678118654757 
1 11.11250000000000071 -11.11249999999999716 0.00000000000000000 1.00000000000000000 
1 0.00000000000000000 -0.00000000000000000 1.00000000000000000 0.00000000000000000 
1 -0.00000000000000269 -231.78969688922765613 1.00000000000000000 0.00000000000000000 
1 25.40000000000000568 43.17499999999999716 -1.00000000000000000 0.00000000000000000 
1 25.40000000000000568 0.00000000000000000 0.00000000000000000 1.00000000000000000 
1 0.00000000000000000 0.00000000000000000 0.00000000000000022 1.00000000000000000 
1 -11.11250000000000071 11.11250000000000426 0.00000000000000000 -1.00000000000000000 
1 0.00000000000000000 0.00000000000000000 1.00000000000000000 0.00000000000000000 
1 0.00000000000000269 -231.78969688922765613 1.00000000000000000 0.00000000000000000 
1 3.17500000000000426 -3.17500000000000071 1.00000000000000000 0.00000000000000000 
1 22.22499999999999787 0.00000000000000000 0.00000000000000000 -1.00000000000000000 
1 0.00000000000000000 0.00000000000000000 0.00000000000000000 -1.00000000000000000 
1 22.22500000001018350 0.00000000000000000 0.00000000000000000 1.00000000000000000 
1 0.00000000000000000 0.00000000000000000 0.00000000000000022 1.00000000000000000 
1 22.22499999999999432 -0.00000000000000138 -0.00000000000000000 1.00000000000000000 
1 0.00000000000000711 -0.00000000000000355 0.00000000000000000 1.00000000000000000 
8 -0.00000000000001298 22.22499999999998721
1 0.00000000000001225 43.17499999998982219 1.00000000000000000 -0.00000000000000034 
8 -0.00000000000001298 22.22499999999998721
1 0.00000000000000170 -3.17499999998981508 1.00000000000000000 -0.00000000000000022 
1 22.22500000001017639 -3.17500000000000249 0.00000000000000000 -1.00000000000000000 
1 -0.00000000001018563 -3.17500000000000249 -0.00000000000000012 -1.00000000000000000 
1 22.22500000001019060 -3.17500000000000249 0.00000000000000000 -1.00000000000000000 
1 -0.00000000001017852 -3.17500000000000249 -0.00000000000000012 -1.00000000000000000 
1 22.22500000001019060 -3.17500000000002158 0.00000000000000044 -1.00000000000000000 
1 -0.00000000001017852 -3.17500000000002203 -0.00000000000000012 -1.00000000000000000 
1 3.17499999998981508 0.00000000000000000 0.00000000000000000 1.00000000000000000 
1 0.00000000000000000 0.00000000000000000 -0.00000000000000022 1.00000000000000000 
1 0.00000000000000711 43.17499999998980797 0.70710678118654591 -0.70710678118654913 
1 0.00000000000000000 -3.17499999998982219 0.70710678118654913 0.70710678118654591 
8 -25.40000000000000924 0.00000000000000888
1 -0.00000000000000888 39.99999999999998579 -1.00000000000000000 -0.00000000000000034 
8 -25.40000000000000924 0.00000000000000888
1 0.00000000000000000 -0.00000000000000711 -1.00000000000000000 -0.00000000000000022 
1 0.00000000000000000 0.00000000000000000 0.00000000000000000 1.00000000000000000 
1 25.39999999999999858 -0.00000000000000293 -0.00000000000000022 1.00000000000000000 
1 -7.83828124999777387 7.83828124999777032 0.00000000000000012 -1.00000000000000000 
1 0.00000000000000000 40.00000000000000000 1.00000000000000000 0.00000000000000000 
1 25.39999999999999858 -0.00000000000000000 0.00000000000000000 1.00000000000000000 
1 0.00000000000000000 0.00000000000000000 0.00000000000000022 1.00000000000000000 
1 11.11250000000000071 11.11250000000000426 -1.00000000000000000 0.00000000000000000 
1 0.00000000000000000 0.00000000000000000 1.00000000000000000 0.00000000000000000 
1 0.00000000000000000 -231.78969688922765613 1.00000000000000000 0.00000000000000000 
1 3.17500000000000071 -3.17500000000000426 1.00000000000000000 0.00000000000000000 
1 22.22500000000000142 0.00000000000000000 0.00000000000000000 -1.00000000000000000 
1 0.00000000000000000 0.00000000000000000 0.00000000000000000 -1.00000000000000000 
8 0.00000000000000000 22.22500000000000142
1 0.00000000000000000 43.17499999999999716 1.00000000000000000 -0.00000000000000000 
8 0.00000000000000000 22.22500000000000142
1 0.00000000000000035 -3.17500000000002869 1.00000000000000000 0.00000000000000044 
1 22.22499999999999787 0.00000000000000000 0.00000000000000000 -1.00000000000000000 
1 0.00000000000000000 -0.00000000000000000 0.00000000000000000 -1.00000000000000000 
1 -0.00000000000001954 43.17499999999999716 1.00000000000000000 -0.00000000000000022 
1 3.17499999999999982 -0.00000000000000070 -0.00000000000000000 1.00000000000000000 
1 0.00000000000000000 0.00000000000000000 0.00000000000000000 1.00000000000000000 
1 0.00000000000000000 -0.00000000000000000 0.00000000000000000 -1.00000000000000000 
1 22.22500000000000142 0.00000000000000000 0.00000000000000000 -1.00000000000000000 
1 -0.00000000000002974 -3.17500000000000071 1.00000000000000000 -0.00000000000000022 
8 -11.11250000000000426 11.11249999999999716
1 11.11249999999999716 -3.17500000000000071 -1.00000000000000000 0.00000000000000000 
8 -11.11250000000000426 11.11249999999999716
1 11.11250000000000426 -3.17500000000002380 1.00000000000000000 -0.00000000000000044 
1 22.22500000001017995 0.00000000000000000 0.00000000000000000 1.00000000000000000 
1 0.00000000000000000 0.00000000000000000 0.00000000000000022 1.00000000000000000 
1 22.22499999999999787 -0.00000000000000276 0.00000000000000000 1.00000000000000000 
1 0.00000000000000000 -0.00000000000000711 0.00000000000000000 1.00000000000000000 
1 -4.66328124999777316 4.66328125000795168 1.00000000000000000 0.00000000000000012 
1 0.00000000000000000 40.00000000000000000 1.00000000000000000 0.00000000000000000 
1 3.17499999998981863 -0.00000000000000000 0.00000000000000000 1.00000000000000000 
1 0.00000000000000000 0.00000000000000000 -0.00000000000000022 1.00000000000000000 
1 17.56171875000222471 4.66328125000795524 -0.00000000000000012 1.00000000000000000 
1 -0.00000000000000000 40.00000000000000000 1.00000000000000000 0.00000000000000000 
1 17.56171875000222471 7.83828124999777387 -1.00000000000000000 -0.00000000000000012 
1 0.00000000000000000 40.00000000000000000 1.00000000000000000 0.00000000000000000 
1 -7.83828124999777032 -17.56171875000222826 1.00000000000000000 0.00000000000000012 
1 0.00000000000000000 40.00000000000000000 1.00000000000000000 0.00000000000000000 
1 -4.66328124999777138 -17.56171875000222826 -0.00000000000000012 1.00000000000000000 
1 0.00000000000000000 40.00000000000000000 1.00000000000000000 0.00000000000000000 
1 3.17499999999999982 -0.00000000000000141 0.00000000000000000 1.00000000000000000 
1 0.00000000000000000 0.00000000000000000 0.00000000000000000 1.00000000000000000 
1 0.00000000000000000 0.00000000000000000 0.00000000000000000 -1.00000000000000000 
1 22.22499999999999787 0.00000000000000000 0.00000000000000000 -1.00000000000000000 
1 -0.00000000000002297 -3.17500000000000426 1.00000000000000000 -0.00000000000000066 
8 -11.11250000000000071 11.11249999999999716
1 11.11249999999999716 -3.17500000000000426 -1.00000000000000000 -0.00000000000000000 
8 -11.11250000000000071 11.11249999999999716
1 11.11250000000000071 -3.17500000000002069 1.00000000000000000 -0.00000000000000012 
Curves 52
1 -20.00000000000000000 0.00000000000000000 0.00000000000000000 -1.00000000000000000 0.00000000000000000 0.00000000000000000 
1 -45.39999999999999858 0.00000000000000000 0.00000000000000000 0.00000000000000000 1.00000000000000000 0.00000000000000000 
1 -45.39999999999999858 3.17499999999999982 0.00000000000000000 1.00000000000000000 0.00000000000000000 0.00000000000000000 
1 -23.17499999998981863 3.17499999999999982 0.00000000000000000 0.00000000000000000 1.00000000000000000 0.00000000000000000 
1 -23.17499999998981863 25.39999999999999858 0.00000000000000000 1.00000000000000000 0.00000000000000000 0.00000000000000000 
1 -20.00000000000000000 25.39999999999999858 0.00000000000000000 -0.00000000000000000 -1.00000000000000000 0.00000000000000000 
1 -20.00000000000000000 0.00000000000000000 0.00000000000000000 0.00000000000000000 0.00000000000000022 1.00000000000000000 
1 -20.00000000000000000 0.00000000000000888 40.00000000000000000 -0.70710678118654746 0.00000000000000016 0.70710678118654768 
1 -45.39999999999999858 -43.17500000000000426 0.00000000000000000 1.00000000000000000 0.00000000000000000 0.00000000000000000 
1 -45.39999999999999858 0.00000000000000000 0.00000000000000000 0.00000000000000000 0.00000000000000022 1.00000000000000000 
1 -45.39999999999999858 -0.00000000000000479 43.17500000000000426 0.00000000000000000 1.00000000000000000 0.00000000000000011 
1 -45.39999999999999858 3.17499999999999982 0.00000000000000000 0.00000000000000000 -0.00000000000000000 1.00000000000000000 
1 -45.39999999999999858 3.17500000000001403 43.17500000000000426 1.00000000000000000 0.00000000000000000 0.00000000000000000 
1 -23.17499999998981863 3.17499999999999982 0.00000000000000000 -0.00000000000000000 0.00000000000000022 1.00000000000000000 
1 -23.17499999998981863 25.39999999999999858 0.00000000000000000 0.00000000000000000 -0.00000000000000000 1.00000000000000000 
1 -23.17499999998981863 3.17500000000000959 43.17499999998981508 0.00000000000000000 1.00000000000000000 -0.00000000000000022 
1 -20.00000000000000000 25.39999999999999858 0.00000000000000000 -0.00000000000000000 0.00000000000000022 1.00000000000000000 
1 -23.17499999998981863 25.40000000000000213 43.17499999998980797 0.70710678118654868 0.00000000000000079 -0.70710678118654635 
1 -20.00000000000000000 25.40000000000000568 39.99999999999999289 0.00000000000000000 1.00000000000000000 -0.00000000000000022 
1 -20.00000000000000000 0.00000000000000888 40.00000000000000000 1.00000000000000000 -0.00000000000000000 0.00000000000000000 
1 20.00000000000000000 0.00000000000000888 40.00000000000000000 0.70710678118654757 0.00000000000000020 0.70710678118654757 
1 23.17500000000000071 -65.40000000000000568 0.00000000000000000 0.00000000000000000 1.00000000000000000 0.00000000000000000 
1 -20.00000000000000000 0.00000000000001452 65.40000000000000568 1.00000000000000000 -0.00000000000000000 0.00000000000000000 
1 -23.17500000000000071 -43.17500000000000426 0.00000000000000000 0.00000000000000000 -1.00000000000000000 0.00000000000000000 
1 -23.17500000000000071 -0.00000000000000479 43.17500000000000426 0.00000000000000000 1.00000000000000000 0.00000000000000011 
1 -20.00000000000000000 3.17500000000000959 43.17499999998982219 1.00000000000000000 0.00000000000000000 0.00000000000000000 
1 -19.99999999999999645 25.40000000000000568 43.17499999998980797 1.00000000000000000 -0.00000000000000022 0.00000000000000000 
1 23.17499999998982219 3.17500000000001226 43.17499999998981508 -0.00000000000000012 1.00000000000000000 -0.00000000000000022 
1 -19.99999999999999289 25.40000000000000568 40.00000000000000000 1.00000000000000000 0.00000000000000000 0.00000000000000000 
1 23.17499999998981508 25.39999999999999858 43.17499999998980797 -0.70710678118654913 0.00000000000000158 -0.70710678118654591 
1 19.99999999999999289 25.40000000000000568 39.99999999999999289 -0.00000000000000012 1.00000000000000000 -0.00000000000000022 
1 20.00000000000000000 0.00000000000000888 40.00000000000000000 0.00000000000000000 -0.00000000000000022 -1.00000000000000000 
1 20.00000000000000000 0.00000000000000000 0.00000000000000000 1.00000000000000000 0.00000000000000012 -0.00000000000000000 
1 45.39999999999999858 0.00000000000001199 40.00000000000000000 0.00000000000000000 -0.00000000000000022 -1.00000000000000000 
1 23.17500000000000071 -43.17500000000000426 0.00000000000000000 1.00000000000000000 0.00000000000000000 0.00000000000000000 
1 23.17500000000000071 -0.00000000000000479 43.17500000000000426 0.00000000000000000 1.00000000000000000 0.00000000000000011 
1 23.17499999999999716 3.17500000000002158 65.40000000000000568 -0.00000000000000000 -0.00000000000000033 -1.00000000000000000 
1 23.17500000000000071 -0.00000000000000726 65.40000000000000568 0.00000000000000000 1.00000000000000000 0.00000000000000011 
1 -20.00000000000000000 3.17500000000001448 65.40000000000000568 1.00000000000000000 -0.00000000000000022 0.00000000000000000 
1 -23.17500000000000071 -0.00000000000000726 65.40000000000000568 0.00000000000000000 1.00000000000000000 0.00000000000000011 
1 -23.17500000000000071 3.17500000000001759 54.28750000000000853 0.00000000000000000 0.00000000000000033 1.00000000000000000 
1 23.17499999998981863 3.17500000000000915 40.00000000000000000 0.00000000000000000 -0.00000000000000022 -1.00000000000000000 
1 23.17499999998981508 25.40000000000000568 39.99999999999999289 0.00000000000000000 -0.00000000000000044 -1.00000000000000000 
1 23.17499999998981863 3.17500000000000027 -0.00000000000000141 -0.00000000000000012 1.00000000000000000 -0.00000000000000044 
1 19.99999999999999645 25.40000000000000568 39.99999999999998579 0.00000000000000000 -0.00000000000000022 -1.00000000000000000 
1 23.17499999998981508 25.39999999999999858 -0.00000000000001128 -1.00000000000000000 -0.00000000000000012 0.00000000000000000 
1 19.99999999999999645 25.39999999999999858 -0.00000000000001128 0.00000000000000012 -1.00000000000000000 0.00000000000000044 
1 45.39999999999999858 0.00000000000000311 -0.00000000000000000 -0.00000000000000012 1.00000000000000000 -0.00000000000000044 
1 45.39999999999999858 3.17500000000000293 -0.00000000000000141 -1.00000000000000000 -0.00000000000000012 0.00000000000000000 
1 45.39999999999999858 3.17500000000001181 40.00000000000000000 0.00000000000000000 -0.00000000000000044 -1.00000000000000000 
1 45.39999999999999858 -0.00000000000000479 43.17500000000000426 0.00000000000000000 1.00000000000000000 0.00000000000000011 
1 34.28750000000000142 3.17500000000001581 43.17500000000000426 1.00000000000000000 0.00000000000000012 0.00000000000000000 
Polygon3D 0
PolygonOnTriangulations 0
Surfaces 38
1 -27.83828124999777032 7.83828124999777121 0.00000000000000000 -0.00000000000000000 -0.00000000000000000 -1.00000000000000000 -1.00000000000000000 0.00000000000000000 0.00000000000000000 0.00000000000000000 1.00000000000000000 -0.00000000000000000 
1 -20.00000000000000000 0.00000000000000000 0.00000000000000000 0.00000000000000000 1.00000000000000000 -0.00000000000000022 -1.00000000000000000 0.00000000000000000 0.00000000000000000 0.00000000000000000 0.00000000000000022 1.00000000000000000 
1 -45.39999999999999858 0.00000000000000000 0.00000000000000000 1.00000000000000000 0.00000000000000000 0.00000000000000000 -0.00000000000000000 1.00000000000000000 0.00000000000000000 0.00000000000000000 -0.00000000000000000 1.00000000000000000 
1 -45.39999999999999858 3.17499999999999982 0.00000000000000000 0.00000000000000000 -1.00000000000000000 0.00000000000000022 1.00000000000000000 0.00000000000000000 0.00000000000000000 -0.00000000000000000 0.00000000000000022 1.00000000000000000 
1 -23.17499999998981863 3.17499999999999982 0.00000000000000000 1.00000000000000000 0.00000000000000000 0.00000000000000000 -0.00000000000000000 1.00000000000000000 0.00000000000000000 0.00000000000000000 -0.00000000000000000 1.00000000000000000 
1 -23.17499999998981863 25.39999999999999858 0.00000000000000000 0.00000000000000000 -1.00000000000000000 0.00000000000000022 1.00000000000000000 0.00000000000000000 0.00000000000000000 -0.00000000000000000 0.00000000000000022 1.00000000000000000 
1 -20.00000000000000000 25.39999999999999858 0.00000000000000000 -1.00000000000000000 0.00000000000000000 0.00000000000000000 -0.00000000000000000 -1.00000000000000000 0.00000000000000000 0.00000000000000000 0.00000000000000000 1.00000000000000000 
1 -20.00000000000000000 0.00000000000000888 40.00000000000000000 0.00000000000000000 1.00000000000000000 -0.00000000000000022 0.00000000000000000 0.00000000000000022 1.00000000000000000 1.00000000000000000 -0.00000000000000000 0.00000000000000000 
1 -34.28750000000000142 -54.28750000000000853 0.00000000000000000 -0.00000000000000000 -0.00000000000000000 -1.00000000000000000 -1.00000000000000000 0.00000000000000000 0.00000000000000000 0.00000000000000000 1.00000000000000000 -0.00000000000000000 
1 -45.39999999999999858 -0.00000000000000479 43.17500000000000426 0.00000000000000000 0.00000000000000011 -1.00000000000000000 1.00000000000000000 0.00000000000000000 0.00000000000000000 0.00000000000000000 -1.00000000000000000 -0.00000000000000011 
1 -45.39999999999999858 -0.00000000000000726 65.40000000000000568 -1.00000000000000000 0.00000000000000000 0.00000000000000000 0.00000000000000000 0.00000000000000011 -1.00000000000000000 -0.00000000000000000 -1.00000000000000000 -0.00000000000000011 
1 -20.00000000000000000 3.17500000000000959 43.17499999998981508 0.00000000000000000 -0.00000000000000022 -1.00000000000000000 0.00000000000000022 1.00000000000000000 -0.00000000000000022 1.00000000000000000 -0.00000000000000022 0.00000000000000000 
1 -45.39999999999999858 0.00000000000000959 43.17500000000001137 0.00000000000000000 -0.00000000000000022 -1.00000000000000000 1.00000000000000000 0.00000000000000000 0.00000000000000000 0.00000000000000000 -1.00000000000000000 0.00000000000000022 
1 -23.17499999999999716 0.00000000000000959 43.17500000000001137 1.00000000000000000 -0.00000000000000000 0.00000000000000000 0.00000000000000000 0.00000000000000022 1.00000000000000000 -0.00000000000000000 -1.00000000000000000 0.00000000000000022 
1 -45.39999999999999858 0.00000000000000959 43.17500000000000426 0.00000000000000000 -0.00000000000000022 -1.00000000000000000 1.00000000000000000 0.00000000000000000 0.00000000000000000 0.00000000000000000 -1.00000000000000000 0.00000000000000022 
1 -23.17500000000000071 0.00000000000000959 43.17500000000000426 1.00000000000000000 -0.00000000000000000 0.00000000000000000 0.00000000000000000 0.00000000000000022 1.00000000000000000 -0.00000000000000000 -1.00000000000000000 0.00000000000000022 
1 -23.17500000000000071 -0.00000000000000479 43.17500000000000426 1.00000000000000000 0.00000000000000000 -0.00000000000000000 0.00000000000000000 -0.00000000000000011 1.00000000000000000 0.00000000000000000 -1.00000000000000000 -0.00000000000000011 
1 -19.99999999999999289 25.40000000000000568 43.17499999998981508 0.00000000000000000 -1.00000000000000000 0.00000000000000022 0.00000000000000000 -0.00000000000000022 -1.00000000000000000 1.00000000000000000 0.00000000000000000 0.00000000000000000 
1 -19.99999999999999289 25.40000000000000568 39.99999999999999289 -0.00000000000000000 0.00000000000000022 1.00000000000000000 -0.00000000000000022 -1.00000000000000000 0.00000000000000022 1.00000000000000000 -0.00000000000000022 0.00000000000000000 
1 20.00000000000000000 0.00000000000000888 40.00000000000000000 -0.00000000000000012 1.00000000000000000 -0.00000000000000022 1.00000000000000000 0.00000000000000012 0.00000000000000000 0.00000000000000000 -0.00000000000000022 -1.00000000000000000 
1 34.28750000000000142 -54.28750000000000853 0.00000000000000000 -0.00000000000000000 -0.00000000000000000 -1.00000000000000000 -1.00000000000000000 0.00000000000000000 0.00000000000000000 0.00000000000000000 1.00000000000000000 -0.00000000000000000 
1 23.17500000000000071 -0.00000000000000726 65.40000000000000568 -1.00000000000000000 0.00000000000000000 0.00000000000000000 0.00000000000000000 0.00000000000000011 -1.00000000000000000 -0.00000000000000000 -1.00000000000000000 -0.00000000000000011 
1 -20.00000000000000000 0.00000000000001452 65.40000000000000568 0.00000000000000000 -0.00000000000000022 -1.00000000000000000 0.00000000000000022 1.00000000000000000 -0.00000000000000022 1.00000000000000000 -0.00000000000000022 0.00000000000000000 
1 -20.00000000000000000 3.17500000000001448 65.40000000000000568 0.00000000000000000 -1.00000000000000000 0.00000000000000022 0.00000000000000000 -0.00000000000000022 -1.00000000000000000 1.00000000000000000 0.00000000000000000 0.00000000000000000 
1 23.17499999998981863 3.17500000000000915 40.00000000000000000 -1.00000000000000000 -0.00000000000000012 0.00000000000000000 -0.00000000000000012 1.00000000000000000 -0.00000000000000044 0.00000000000000000 -0.00000000000000044 -1.00000000000000000 
1 23.17500000000000782 0.00000000000001452 65.39999999999999147 -1.00000000000000000 0.00000000000000000 -0.00000000000000000 0.00000000000000000 -0.00000000000000022 -1.00000000000000000 -0.00000000000000000 -1.00000000000000000 0.00000000000000022 
1 23.17500000000000782 0.00000000000000959 43.17499999999999716 0.00000000000000000 -0.00000000000000022 -1.00000000000000000 1.00000000000000000 0.00000000000000000 0.00000000000000000 0.00000000000000000 -1.00000000000000000 0.00000000000000022 
1 23.17500000000000071 0.00000000000001452 65.40000000000000568 -1.00000000000000000 0.00000000000000000 -0.00000000000000000 0.00000000000000000 -0.00000000000000022 -1.00000000000000000 -0.00000000000000000 -1.00000000000000000 0.00000000000000022 
1 23.17500000000000071 0.00000000000000959 43.17500000000000426 0.00000000000000000 -0.00000000000000022 -1.00000000000000000 1.00000000000000000 0.00000000000000000 0.00000000000000000 0.00000000000000000 -1.00000000000000000 0.00000000000000022 
1 23.17500000000000071 -0.00000000000000479 43.17500000000000426 0.00000000000000000 0.00000000000000011 -1.00000000000000000 1.00000000000000000 0.00000000000000000 0.00000000000000000 0.00000000000000000 -1.00000000000000000 -0.00000000000000011 
1 23.17499999998981508 25.40000000000000568 39.99999999999998579 0.00000000000000012 -1.00000000000000000 0.00000000000000022 -1.00000000000000000 -0.00000000000000012 0.00000000000000000 0.00000000000000000 -0.00000000000000022 -1.00000000000000000 
1 19.99999999999999645 25.40000000000000568 39.99999999999998579 1.00000000000000000 0.00000000000000012 -0.00000000000000000 0.00000000000000012 -1.00000000000000000 0.00000000000000044 0.00000000000000000 -0.00000000000000044 -1.00000000000000000 
1 27.83828124999777032 7.83828124999777387 -0.00000000000000348 -0.00000000000000000 0.00000000000000044 1.00000000000000000 0.00000000000000000 1.00000000000000000 -0.00000000000000044 -1.00000000000000000 0.00000000000000000 -0.00000000000000000 
1 45.39999999999999858 0.00000000000001199 40.00000000000000000 -1.00000000000000000 -0.00000000000000012 0.00000000000000000 -0.00000000000000012 1.00000000000000000 -0.00000000000000044 0.00000000000000000 -0.00000000000000044 -1.00000000000000000 
1 45.39999999999999858 -0.00000000000000726 65.40000000000000568 0.00000000000000000 -0.00000000000000011 1.00000000000000000 -1.00000000000000000 0.00000000000000000 0.00000000000000000 -0.00000000000000000 -1.00000000000000000 -0.00000000000000011 
1 -23.17500000000000071 -0.00000000000000726 65.40000000000000568 0.00000000000000000 -0.00000000000000011 1.00000000000000000 -1.00000000000000000 0.00000000000000000 0.00000000000000000 -0.00000000000000000 -1.00000000000000000 -0.00000000000000011 
1 45.39999999999999858 3.17500000000001181 40.00000000000000000 0.00000000000000012 -1.00000000000000000 0.00000000000000022 -1.00000000000000000 -0.00000000000000012 0.00000000000000000 0.00000000000000000 -0.00000000000000022 -1.00000000000000000 
1 45.39999999999999858 -0.00000000000000479 43.17500000000000426 1.00000000000000000 0.00000000000000000 -0.00000000000000000 0.00000000000000000 -0.00000000000000011 1.00000000000000000 0.00000000000000000 -1.00000000000000000 -0.00000000000000011 
Triangulations 0

TShapes 132
Ve
0.000000101000000
-20.000000000000000 0.000000000000000 0.000000000000000
0 0

0101101
*
Ve
0.000000101000000
-45.399999999999999 0.000000000000000 0.000000000000000
0 0

0101101
*
Ed
 0.000000100000000 1 1 0
1  1 0 0.000000000000000 25.399999999999999
2  1 1 0 0.000000000000000 25.399999999999999
2  2 2 0 0.000000000000000 25.399999999999999
4 C0 1 0 2 0
0

0101000
+132 0 -131 0 *
Ve
0.000000101000000
-45.399999999999999 3.175000000000000 0.000000000000000
0 0

0101101
*
Ed
 0.000000100000000 1 1 0
1  2 0 0.000000000000000 3.175000000000000
2  3 1 0 0.000000000000000 3.175000000000000
2  4 3 0 0.000000000000000 3.175000000000000
4 C0 1 0 3 0
0

0101000
+131 0 -129 0 *
Ve
0.000000101000000
-23.174999999989819 3.175000000000000 0.000000000000000
0 0

0101101
*
Ed
 0.000000100000000 1 1 0
1  3 0 0.000000000000000 22.225000000010180
2  5 1 0 0.000000000000000 22.225000000010180
2  6 4 0 0.000000000000000 22.225000000010180
4 C0 1 0 4 0
0

0101000
+129 0 -127 0 *
Ve
0.000000101000000
-23.174999999989819 25.399999999999999 0.000000000000000
0 0

0101101
*
Ed
 0.000000100000000 1 1 0
1  4 0 0.000000000000000 22.224999999999998
2  7 1 0 0.000000000000000 22.224999999999998
2  8 5 0 0.000000000000000 22.224999999999998
4 C0 1 0 5 0
0

0101000
+127 0 -125 0 *
Ve
0.000000101000000
-20.000000000000000 25.399999999999999 0.000000000000000
0 0

0101101
*
Ed
 0.000000100000000 1 1 0
1  5 0 0.000000000000000 3.174999999989819
2  9 1 0 0.000000000000000 3.174999999989819
2  10 6 0 0.000000000000000 3.174999999989819
4 C0 1 0 6 0
0

0101000
+125 0 -123 0 *
Ed
 0.000000100000000 1 1 0
1  6 0 0.000000000000000 25.399999999999999
2  11 1 0 0.000000000000000 25.399999999999999
2  12 7 0 0.000000000000000 25.399999999999999
4 C0 1 0 7 0
0

0101000
+123 0 -132 0 *
Wi

0101100
+130 0 +128 0 +126 0 +124 0 +122 0 +121 0 *
Fa
0  0.000000100000000 1 0

0111000
+120 0 *
Ve
0.000000150000009
-20.000000000000000 0.000000000000009 40.000000000000000
0 0

0101101
*
Ed
 0.000000100000000 1 1 0
1  7 0 0.000000000000000 40.000000000000000
2  13 2 0 0.000000000000000 40.000000000000000
2  14 7 0 0.000000000000000 40.000000000000000
0

0101000
+132 0 -118 0 *
Ve
0.000000100000028
-23.175000000000001 -43.175000000000004 0.000000000000000
0 0

0101101
*
Ed
 0.000000100000000 1 1 0
1  8 0 0.000000000000000 4.490128060534580
2  15 8 0 0.000000000000000 4.490128060534580
2  16 2 0 0.000000000000000 4.490128060534580
0

0101000
+118 0 -116 7 *
Ve
0.000000100000028
-45.399999999999999 -43.175000000000004 0.000000000000000
0 0

0101101
*
Ed
 0.000000100000019 1 1 0
1  9 0 0.000000000000000 22.224999999999998
2  17 9 9 0.000000000000000 22.224999999999998
2  18 10 10 0.000000000000000 22.224999999999998
2  19 10 12 0.000000000000000 22.224999999999998
2  20 2 13 0.000000000000000 22.224999999999998
0

0101000
+114 0 -116 0 *
Ed
 0.000000100000000 1 1 0
1  10 0 0.000000000000000 43.175000000000004
2  21 2 0 0.000000000000000 43.175000000000004
2  22 3 0 0.000000000000000 43.175000000000004
0

0101000
+131 0 -114 7 *
Wi

0101100
-117 4 -115 4 +113 8 +112 4 +130 4 *
Fa
0  0.000000100000000 2 4

0101000
+111 0 *
Ve
0.000000150000009
-45.399999999999999 3.175000000000005 43.175000000000004
0 0

0101101
*
Ed
 0.000000100000000 1 1 0
1  11 0 0.000000000000000 3.175000000000010
2  23 11 0 0.000000000000000 3.175000000000010
2  24 10 0 0.000000000000000 3.175000000000010
2  25 3 4 0.000000000000000 3.175000000000010
0

0101000
+114 8 -109 0 *
Ed
 0.000000100000000 1 1 0
1  12 0 0.000000000000000 43.175000000000004
2  26 3 0 0.000000000000000 43.175000000000004
2  27 4 0 0.000000000000000 43.175000000000004
0

0101000
+129 0 -109 14 *
Wi

0101100
-112 4 -108 0 +107 4 +128 4 *
Fa
0  0.000000100000000 3 4

0101000
+106 0 *
Ve
0.000000212133034
-23.174999999989819 3.175000000000010 43.174999999989822
0 0

0101101
*
Ed
 0.000000150000000 1 1 0
1  13 0 0.000000000000000 22.224999999999998
2  28 4 4 0.000000000000000 22.224999999999998
2  29 10 0 0.000000000000000 22.224999999999998
0

0101000
+109 0 -104 4 *
Ed
 0.000000100000000 1 1 0
1  14 0 0.000000000000000 43.174999999989822
2  30 4 0 0.000000000000000 43.174999999989822
2  31 5 0 0.000000000000000 43.174999999989822
0

0101000
+127 0 -104 0 *
Wi

0101100
-107 4 -103 0 +102 4 +126 4 *
Fa
0  0.000000100000000 4 4

0101000
+101 0 *
Ve
0.000000150000004
-23.174999999989819 25.400000000000002 43.174999999989808
0 0

0101101
*
Ed
 0.000000100000000 1 1 0
1  15 0 0.000000000000000 43.174999999989808
2  32 5 0 0.000000000000000 43.174999999989808
2  33 6 0 0.000000000000000 43.174999999989808
0

0101000
+125 0 -99 0 *
Ed
 0.000000150000000 1 1 0
1  16 0 -0.000000000000010 22.224999999999987
2  34 5 0 -0.000000000000010 22.224999999999987
2  35 12 0 -0.000000000000010 22.224999999999987
2  36 13 17 -0.000000000000010 22.224999999999987
2  37 14 17 -0.000000000000010 22.224999999999987
2  38 15 19 -0.000000000000010 22.224999999999987
2  39 16 19 -0.000000000000010 22.224999999999987
2  40 10 14 -0.000000000000010 22.224999999999987
2  41 17 14 -0.000000000000010 22.224999999999987
0

0101000
+104 0 -99 0 *
Wi

0101100
-102 0 +124 0 +98 0 -97 0 *
Fa
0  0.000000100000000 5 0

0111000
+96 0 *
Ve
0.000000150000016
-20.000000000000000 25.400000000000006 40.000000000000000
0 0

0101101
*
Ed
 0.000000100000000 1 1 0
1  17 0 0.000000000000000 40.000000000000000
2  42 6 0 0.000000000000000 40.000000000000000
2  43 7 0 0.000000000000000 40.000000000000000
0

0101000
+123 0 -94 0 *
Ed
 0.000000100000000 1 1 0
1  18 0 0.000000000000000 4.490128060520171
2  44 18 0 0.000000000000000 4.490128060520171
2  45 6 0 0.000000000000000 4.490128060520171
0

0101000
+99 0 -94 0 *
Wi

0101100
-98 0 +122 0 +93 0 -92 0 *
Fa
0  0.000000100000000 6 0

0111000
+91 0 *
Ed
 0.000000150000000 1 1 0
1  19 0 -25.400000000000006 0.000000000000013
2  46 7 0 -25.400000000000006 0.000000000000013
2  47 19 0 -25.400000000000006 0.000000000000013
0

0101000
+118 0 -94 0 *
Wi

0101100
-93 0 +121 0 +117 0 +89 0 *
Fa
0  0.000000100000000 7 0

0111000
+88 0 *
Ve
0.000000150000013
20.000000000000000 0.000000000000009 40.000000000000000
0 0

0101101
*
Ed
 0.000000100000000 1 1 0
1  20 0 0.000000000000000 40.000000000000000
2  48 8 0 0.000000000000000 40.000000000000000
2  49 19 0 0.000000000000000 40.000000000000000
0

0101000
+118 0 -86 0 *
Ve
0.000000100000030
23.175000000000001 -43.175000000000004 0.000000000000000
0 0

0101101
*
Ed
 0.000000100000000 1 1 0
1  21 0 0.000000000000000 4.490128060534580
2  50 8 0 0.000000000000000 4.490128060534580
2  51 20 0 0.000000000000000 4.490128060534580
0

0101000
+86 0 -84 7 *
Ve
0.000000100000029
23.175000000000001 -65.400000000000006 0.000000000000000
0 0

0101101
*
Ed
 0.000000100000028 1 1 0
1  22 0 0.000000000000000 22.225000000000001
2  52 21 9 0.000000000000000 22.225000000000001
2  53 22 10 0.000000000000000 22.225000000000001
2  54 22 12 0.000000000000000 22.225000000000001
2  55 8 13 0.000000000000000 22.225000000000001
0

0101000
+82 0 -84 0 *
Ve
0.000000100000029
-23.175000000000001 -65.400000000000006 0.000000000000000
0 0

0101101
*
Ed
 0.000000100000000 1 1 0
1  23 0 -3.175000000000001 43.174999999999997
2  56 8 0 -3.175000000000001 43.174999999999997
2  57 23 0 -3.175000000000001 43.174999999999997
0

0101000
+80 7 -82 7 *
Ed
 0.000000100000028 1 1 0
1  24 0 0.000000000000000 22.225000000000001
2  58 9 9 0.000000000000000 22.225000000000001
2  59 17 10 0.000000000000000 22.225000000000001
2  60 17 12 0.000000000000000 22.225000000000001
2  61 8 13 0.000000000000000 22.225000000000001
0

0101000
+116 0 -80 0 *
Wi

0101100
-85 4 -83 4 +81 8 +79 4 +78 8 +115 4 *
Fa
0  0.000000100000000 8 4

0101000
+77 0 *
Ed
 0.000000100000000 1 1 0
1  25 0 0.000000000000000 3.175000000000020
2  62 10 0 0.000000000000000 3.175000000000020
2  63 17 0 0.000000000000000 3.175000000000020
0

0101000
+116 8 -104 4 *
Wi

0101100
-113 8 -75 0 +103 0 +108 0 *
Fa
0  0.000000100000000 10 0

0101000
+74 0 *
Ve
0.000000212133036
23.174999999989822 3.175000000000010 43.174999999989822
0 0

0101101
*
Ed
 0.000000100000000 1 1 0
1  26 0 -3.174999999989819 43.174999999989822
2  64 24 0 -3.174999999989819 43.174999999989822
2  65 12 0 -3.174999999989819 43.174999999989822
0

0101000
+104 0 -72 0 *
Ve
0.000000150000004
23.174999999989815 25.399999999999999 43.174999999989808
0 0

0101101
*
Ed
 0.000000100000000 1 1 0
1  27 0 -3.174999999989822 43.174999999989808
2  66 12 0 -3.174999999989822 43.174999999989808
2  67 18 0 -3.174999999989822 43.174999999989808
0

0101000
+99 0 -70 0 *
Ed
 0.000000150000000 1 1 0
1  28 0 -0.000000000000013 22.224999999999987
2  68 12 0 -0.000000000000013 22.224999999999987
2  69 25 0 -0.000000000000013 22.224999999999987
2  70 26 17 -0.000000000000013 22.224999999999987
2  71 27 17 -0.000000000000013 22.224999999999987
2  72 28 19 -0.000000000000013 22.224999999999987
2  73 29 19 -0.000000000000013 22.224999999999987
2  74 22 14 -0.000000000000013 22.224999999999987
2  75 30 14 -0.000000000000013 22.224999999999987
0

0101000
+72 0 -70 0 *
Wi

0101100
-71 0 +97 0 +69 0 -68 0 *
Fa
0  0.000000100000000 12 0

0111000
+67 0 *
Ve
0.000000150000013
19.999999999999993 25.400000000000006 40.000000000000000
0 0

0101101
*
Ed
 0.000000100000000 1 1 0
1  29 0 -0.000000000000007 39.999999999999986
2  76 18 0 -0.000000000000007 39.999999999999986
2  77 19 0 -0.000000000000007 39.999999999999986
0

0101000
+94 0 -65 0 *
Ed
 0.000000100000000 1 1 0
1  30 0 0.000000000000000 4.490128060520173
2  78 18 0 0.000000000000000 4.490128060520173
2  79 31 0 0.000000000000000 4.490128060520173
0

0101000
+70 0 -65 0 *
Wi

0101100
-69 0 +92 0 +64 0 -63 0 *
Fa
0  0.000000100000000 18 0

0111000
+62 0 *
Ed
 0.000000150000000 1 1 0
1  31 0 -25.400000000000009 0.000000000000009
2  80 19 0 -25.400000000000009 0.000000000000009
2  81 32 0 -25.400000000000009 0.000000000000009
0

0101000
+86 0 -65 0 *
Wi

0101100
-64 0 -89 0 +85 0 +60 0 *
Fa
0  0.000000100000000 19 0

0111000
+59 0 *
Ve
0.000000101000000
20.000000000000000 -0.000000000000011 0.000000000000000
0 0

0101101
*
Ed
 0.000000100000000 1 1 0
1  32 0 0.000000000000000 40.000000000000000
2  82 20 0 0.000000000000000 40.000000000000000
2  83 32 0 0.000000000000000 40.000000000000000
0

0101000
+86 0 -57 0 *
Ve
0.000000101000000
45.399999999999999 -0.000000000000006 0.000000000000000
0 0

0101101
*
Ed
 0.000000100000000 1 1 0
1  33 0 0.000000000000000 25.399999999999999
2  84 33 0 0.000000000000000 25.399999999999999
2  85 20 0 0.000000000000000 25.399999999999999
4 C0 20 0 33 0
0

0101000
+57 0 -55 0 *
Ve
0.000000100000031
45.399999999999999 -43.175000000000004 0.000000000000000
0 0

0101101
*
Ed
 0.000000100000000 1 1 0
1  34 0 -3.175000000000004 40.000000000000000
2  86 20 0 -3.175000000000004 40.000000000000000
2  87 34 0 -3.175000000000004 40.000000000000000
0

0101000
+53 7 -55 0 *
Ed
 0.000000100000022 1 1 0
1  35 0 0.000000000000000 22.224999999999998
2  88 21 9 0.000000000000000 22.224999999999998
2  89 30 10 0.000000000000000 22.224999999999998
2  90 30 12 0.000000000000000 22.224999999999998
2  91 20 13 0.000000000000000 22.224999999999998
0

0101000
+84 0 -53 0 *
Wi

0101100
-56 4 -54 4 +52 4 +51 8 +83 4 *
Fa
0  0.000000100000000 20 4

0101000
+50 0 *
Ed
 0.000000100000000 1 1 0
1  36 0 0.000000000000000 3.175000000000020
2  92 22 0 0.000000000000000 3.175000000000020
2  93 30 0 0.000000000000000 3.175000000000020
0

0101000
+84 8 -72 4 *
Ve
0.000000150000009
23.174999999999997 3.175000000000012 65.400000000000006
0 0

0101101
*
Ed
 0.000000150000000 1 1 0
1  37 0 0.000000000000000 22.225000000000001
2  94 24 4 0.000000000000000 22.225000000000001
2  95 22 0 0.000000000000000 22.225000000000001
0

0101000
+47 0 -72 4 *
Ed
 0.000000100000000 1 1 0
1  38 0 0.000000000000000 3.175000000000019
2  96 35 0 0.000000000000000 3.175000000000019
2  97 22 0 0.000000000000000 3.175000000000019
2  98 23 4 0.000000000000000 3.175000000000019
0

0101000
+82 8 -47 0 *
Wi

0101100
-81 8 -48 0 +46 0 +45 0 *
Fa
0  0.000000100000000 22 0

0101000
+44 0 *
Ve
0.000000150000001
-23.175000000000001 3.175000000000022 65.400000000000006
0 0

0101101
*
Ed
 0.000000100000000 1 1 0
1  39 0 -3.175000000000001 43.174999999999997
2  99 23 0 -3.175000000000001 43.174999999999997
2  100 24 0 -3.175000000000001 43.174999999999997
0

0101000
+42 14 -47 14 *
Ed
 0.000000100000000 1 1 0
1  40 0 0.000000000000000 3.175000000000030
2  101 36 0 0.000000000000000 3.175000000000030
2  102 17 0 0.000000000000000 3.175000000000030
2  103 23 4 0.000000000000000 3.175000000000030
0

0101000
+80 8 -42 0 *
Wi

0101100
-79 4 -45 0 +41 4 +40 0 *
Fa
0  0.000000100000000 23 4

0101000
+39 0 *
Ed
 0.000000150000000 1 1 0
1  41 0 -11.112500000000004 11.112499999999997
2  104 24 4 -11.112500000000004 11.112499999999997
2  105 17 0 -11.112500000000004 11.112499999999997
0

0101000
+104 4 -42 0 *
Wi

0101100
-78 8 -40 0 +37 0 +75 0 *
Fa
0  0.000000100000000 17 0

0101000
+36 0 *
Wi

0101100
-41 4 -46 0 +71 4 -37 0 *
Fa
0  0.000000100000000 24 4

0101000
+34 0 *
Ve
0.000000101000000
23.174999999989819 3.174999999999991 0.000000000000000
0 0

0101101
*
Ed
 0.000000100000000 1 1 0
1  42 0 -3.174999999989822 40.000000000000000
2  106 37 0 -3.174999999989822 40.000000000000000
2  107 25 0 -3.174999999989822 40.000000000000000
0

0101000
+72 0 -32 0 *
Ve
0.000000101000000
23.174999999989815 25.399999999999999 -0.000000000000014
0 0

0101101
*
Ed
 0.000000100000000 1 1 0
1  43 0 -3.174999999989815 40.000000000000000
2  108 25 0 -3.174999999989815 40.000000000000000
2  109 31 0 -3.174999999989815 40.000000000000000
0

0101000
+70 0 -30 0 *
Ed
 0.000000100000000 1 1 0
1  44 0 0.000000000000000 22.224999999999998
2  110 33 0 0.000000000000000 22.224999999999998
2  111 25 0 0.000000000000000 22.224999999999998
4 C0 33 0 25 0
0

0101000
+32 0 -30 0 *
Wi

0101100
-31 0 +68 0 +29 0 -28 0 *
Fa
0  0.000000100000000 25 0

0111000
+27 0 *
Ve
0.000000101000000
19.999999999999996 25.399999999999988 -0.000000000000014
0 0

0101101
*
Ed
 0.000000100000000 1 1 0
1  45 0 -0.000000000000014 40.000000000000000
2  112 31 0 -0.000000000000014 40.000000000000000
2  113 32 0 -0.000000000000014 40.000000000000000
0

0101000
+65 0 -25 0 *
Ed
 0.000000100000000 1 1 0
1  46 0 0.000000000000000 3.174999999989819
2  114 33 0 0.000000000000000 3.174999999989819
2  115 31 0 0.000000000000000 3.174999999989819
4 C0 33 0 31 0
0

0101000
+30 0 -25 0 *
Wi

0101100
-29 0 +63 0 +24 0 -23 0 *
Fa
0  0.000000100000000 31 0

0111000
+22 0 *
Ed
 0.000000100000000 1 1 0
1  47 0 0.000000000000000 25.399999999999999
2  116 33 0 0.000000000000000 25.399999999999999
2  117 32 0 0.000000000000000 25.399999999999999
4 C0 33 0 32 0
0

0101000
+25 0 -57 0 *
Wi

0101100
-24 0 -60 0 +56 0 -20 0 *
Fa
0  0.000000100000000 32 0

0111000
+19 0 *
Ve
0.000000101000000
45.399999999999999 3.175000000000003 0.000000000000000
0 0

0101101
*
Ed
 0.000000100000000 1 1 0
1  48 0 0.000000000000000 3.175000000000000
2  118 33 0 0.000000000000000 3.175000000000000
2  119 34 0 0.000000000000000 3.175000000000000
4 C0 33 0 34 0
0

0101000
+55 0 -17 0 *
Ed
 0.000000100000000 1 1 0
1  49 0 0.000000000000000 22.225000000010180
2  120 33 0 0.000000000000000 22.225000000010180
2  121 37 0 0.000000000000000 22.225000000010180
4 C0 33 0 37 0
0

0101000
+17 0 -32 0 *
Wi

0101100
+54 0 +16 0 +15 0 +28 0 +23 0 +20 0 *
Fa
0  0.000000100000000 33 0

0111000
+14 0 *
Ve
0.000000150000001
45.399999999999999 3.175000000000018 43.175000000000004
0 0

0101101
*
Ed
 0.000000100000000 1 1 0
1  50 0 -3.175000000000004 40.000000000000000
2  122 34 0 -3.175000000000004 40.000000000000000
2  123 37 0 -3.175000000000004 40.000000000000000
0

0101000
+12 14 -17 0 *
Ed
 0.000000100000000 1 1 0
1  51 0 0.000000000000000 3.175000000000023
2  124 38 0 0.000000000000000 3.175000000000023
2  125 30 0 0.000000000000000 3.175000000000023
2  126 34 4 0.000000000000000 3.175000000000023
0

0101000
+53 8 -12 0 *
Wi

0101100
-52 4 -16 4 +11 4 +10 0 *
Fa
0  0.000000100000000 34 4

0101000
+9 0 *
Ed
 0.000000150000000 1 1 0
1  52 0 -11.112500000000001 11.112499999999997
2  127 37 4 -11.112500000000001 11.112499999999997
2  128 30 0 -11.112500000000001 11.112499999999997
0

0101000
+72 4 -12 0 *
Wi

0101100
-51 8 -10 0 +7 0 +48 0 *
Fa
0  0.000000100000000 30 0

0101000
+6 0 *
Wi

0101100
-11 4 -15 4 +31 4 -7 0 *
Fa
0  0.000000100000000 37 4

0101000
+4 0 *
Sh

0101100
+119 4 -110 0 -105 0 -100 0 -95 4 -90 4 -87 4 -76 0 -73 0 -66 4 
-61 4 -58 4 -49 0 -43 0 -38 0 -35 0 -33 0 -26 4 -21 4 -18 4 
-13 4 -8 0 -5 0 -3 0 *
So

0100000
+2 0 *

+1 1 