
CASCADE Topology V1, (c) Matra-Datavision
Locations 94
1
1.000000000000000 0.000000000000000 0.000000000000000 0.000000000000000 
0.000000000000000 1.000000000000000 0.000000000000000 0.000000000000000 
0.000000000000000 0.000000000000000 1.000000000000000 0.000000000000000 
1
1.000000000000000 0.000000000000000 0.000000000000000 0.000000000000000 
0.000000000000000 1.000000000000000 0.000000000000000 0.000000000000000 
0.000000000000000 0.000000000000000 1.000000000000000 0.000000000000000 
1
1.000000000000000 0.000000000000000 0.000000000000000 0.000000000000000 
0.000000000000000 0.000000000000000 -1.000000000000000 0.000000000000000 
0.000000000000000 1.000000000000000 0.000000000000000 0.000000000000000 
1
1.000000000000000 0.000000000000000 0.000000000000000 0.000000000000000 
0.000000000000000 1.000000000000000 0.000000000000000 116.846804975762211 
0.000000000000000 0.000000000000000 1.000000000000000 0.000000000000013 
2  1 1 2 1 3 -1 4 1 0
1
1.000000000000000 0.000000000000000 0.000000000000000 -0.000000000000000 
0.000000000000000 1.000000000000000 0.000000000000000 -233.693609951524422 
0.000000000000000 0.000000000000000 1.000000000000000 -0.000000000000026 
2  1 1 2 1 3 -1 4 1 6 1 0
1
1.000000000000000 0.000000000000000 0.000000000000000 0.000000000000000 
0.000000000000000 -0.000000000000000 -1.000000000000000 0.000000000000000 
0.000000000000000 1.000000000000000 -0.000000000000000 0.000000000000000 
1
1.000000000000000 0.000000000000000 0.000000000000000 0.000000000000000 
0.000000000000000 1.000000000000000 0.000000000000000 0.000000000000000 
0.000000000000000 0.000000000000000 1.000000000000000 0.000000000000000 
1
1.000000000000000 0.000000000000000 0.000000000000000 0.000000000000000 
0.000000000000000 1.000000000000000 0.000000000000000 0.000000000000000 
0.000000000000000 0.000000000000000 1.000000000000000 0.000000000000000 
2  8 1 9 -1 10 -1 0
1
1.000000000000000 0.000000000000000 0.000000000000000 -0.000000000000000 
0.000000000000000 1.000000000000000 0.000000000000000 -5.000000000000000 
0.000000000000000 0.000000000000000 1.000000000000000 0.000000000000001 
2  12 -1 8 1 9 -1 10 -1 0
2  9 -1 10 -1 0
1
1.000000000000000 0.000000000000000 0.000000000000000 0.000000000000000 
0.000000000000000 -0.000000000000000 -1.000000000000000 0.000000000000000 
0.000000000000000 1.000000000000000 -0.000000000000000 0.000000000000000 
1
1.000000000000000 0.000000000000000 0.000000000000000 0.000000000000000 
0.000000000000000 -0.000000000000000 -1.000000000000000 0.000000000000000 
0.000000000000000 1.000000000000000 -0.000000000000000 0.000000000000000 
1
1.000000000000000 0.000000000000000 0.000000000000000 0.000000000000000 
0.000000000000000 1.000000000000000 0.000000000000000 0.000000000000000 
0.000000000000000 0.000000000000000 1.000000000000000 0.000000000000000 
1
1.000000000000000 0.000000000000000 0.000000000000000 0.000000000000000 
0.000000000000000 -0.000000000000000 -1.000000000000000 0.000000000000000 
0.000000000000000 1.000000000000000 -0.000000000000000 0.000000000000000 
1
1.000000000000000 0.000000000000000 0.000000000000000 0.000000000000000 
0.000000000000000 -0.000000000000000 -1.000000000000000 0.000000000000000 
0.000000000000000 1.000000000000000 -0.000000000000000 0.000000000000000 
1
1.000000000000000 0.000000000000000 0.000000000000000 0.000000000000000 
0.000000000000000 -0.000000000000000 -1.000000000000000 0.000000000000000 
0.000000000000000 1.000000000000000 -0.000000000000000 0.000000000000000 
2  15 1 16 -1 17 1 18 1 19 -1 20 1 9 -1 10 -1 0
1
1.000000000000000 0.000000000000000 0.000000000000000 0.000000000000000 
0.000000000000000 1.000000000000000 0.000000000000000 2.500000000000000 
0.000000000000000 0.000000000000000 1.000000000000000 -0.000000000000001 
1
1.000000000000000 0.000000000000000 0.000000000000000 0.000000000000000 
0.000000000000000 -0.000000000000000 -1.000000000000000 0.000000000000000 
0.000000000000000 1.000000000000000 -0.000000000000000 0.000000000000000 
1
1.000000000000000 0.000000000000000 0.000000000000000 0.000000000000000 
0.000000000000000 1.000000000000000 0.000000000000000 0.000000000000000 
0.000000000000000 0.000000000000000 1.000000000000000 0.000000000000000 
2  22 -1 23 1 24 -1 10 -1 0
1
1.000000000000000 0.000000000000000 0.000000000000000 -0.000000000000000 
0.000000000000000 1.000000000000000 0.000000000000000 -5.000000000000000 
0.000000000000000 0.000000000000000 1.000000000000000 0.000000000000001 
2  26 -1 22 -1 23 1 24 -1 10 -1 0
1
1.000000000000000 0.000000000000000 0.000000000000000 0.000000000000000 
0.000000000000000 1.000000000000000 0.000000000000000 115.894848444613785 
0.000000000000000 0.000000000000000 1.000000000000000 -0.000000000000026 
1
1.000000000000000 0.000000000000000 0.000000000000000 0.000000000000000 
0.000000000000000 -0.000000000000000 -1.000000000000000 0.000000000000000 
0.000000000000000 1.000000000000000 -0.000000000000000 0.000000000000000 
1
1.000000000000000 0.000000000000000 0.000000000000000 0.000000000000000 
0.000000000000000 1.000000000000000 0.000000000000000 0.000000000000000 
0.000000000000000 0.000000000000000 1.000000000000000 0.000000000000000 
2  28 -1 29 1 30 -1 10 -1 0
1
1.000000000000000 0.000000000000000 0.000000000000000 -0.000000000000000 
0.000000000000000 1.000000000000000 0.000000000000000 -231.789696889227571 
0.000000000000000 0.000000000000000 1.000000000000000 0.000000000000051 
2  32 -1 28 -1 29 1 30 -1 10 -1 0
1
1.000000000000000 0.000000000000000 0.000000000000000 0.000000000000000 
0.000000000000000 1.000000000000000 0.000000000000000 115.894848444613785 
0.000000000000000 0.000000000000000 1.000000000000000 -0.000000000000026 
1
1.000000000000000 0.000000000000000 0.000000000000000 0.000000000000000 
0.000000000000000 -0.000000000000000 -1.000000000000000 0.000000000000000 
0.000000000000000 1.000000000000000 -0.000000000000000 0.000000000000000 
1
1.000000000000000 0.000000000000000 0.000000000000000 0.000000000000000 
0.000000000000000 1.000000000000000 0.000000000000000 0.000000000000000 
0.000000000000000 0.000000000000000 1.000000000000000 0.000000000000000 
2  34 -1 35 1 36 -1 10 -1 0
1
1.000000000000000 0.000000000000000 0.000000000000000 -0.000000000000000 
0.000000000000000 1.000000000000000 0.000000000000000 -231.789696889227571 
0.000000000000000 0.000000000000000 1.000000000000000 0.000000000000051 
2  38 -1 34 -1 35 1 36 -1 10 -1 0
1
1.000000000000000 0.000000000000000 0.000000000000000 0.000000000000000 
0.000000000000000 1.000000000000000 0.000000000000000 116.846804975777161 
0.000000000000000 0.000000000000000 1.000000000000000 -0.000000000000026 
1
1.000000000000000 0.000000000000000 0.000000000000000 0.000000000000000 
0.000000000000000 -0.000000000000000 -1.000000000000000 0.000000000000000 
0.000000000000000 1.000000000000000 -0.000000000000000 0.000000000000000 
1
1.000000000000000 0.000000000000000 0.000000000000000 0.000000000000000 
0.000000000000000 1.000000000000000 0.000000000000000 0.000000000000000 
0.000000000000000 0.000000000000000 1.000000000000000 0.000000000000000 
2  40 -1 41 1 42 -1 10 -1 0
1
1.000000000000000 0.000000000000000 0.000000000000000 -0.000000000000000 
0.000000000000000 1.000000000000000 0.000000000000000 -233.693609951554322 
0.000000000000000 0.000000000000000 1.000000000000000 0.000000000000052 
2  44 -1 40 -1 41 1 42 -1 10 -1 0
1
1.000000000000000 0.000000000000000 0.000000000000000 0.000000000000000 
0.000000000000000 1.000000000000000 0.000000000000000 116.846804975777161 
0.000000000000000 0.000000000000000 1.000000000000000 -0.000000000000026 
1
1.000000000000000 0.000000000000000 0.000000000000000 0.000000000000000 
0.000000000000000 -0.000000000000000 -1.000000000000000 0.000000000000000 
0.000000000000000 1.000000000000000 -0.000000000000000 0.000000000000000 
1
1.000000000000000 0.000000000000000 0.000000000000000 0.000000000000000 
0.000000000000000 1.000000000000000 0.000000000000000 0.000000000000000 
0.000000000000000 0.000000000000000 1.000000000000000 0.000000000000000 
2  46 -1 47 1 48 -1 10 -1 0
1
1.000000000000000 0.000000000000000 0.000000000000000 -0.000000000000000 
0.000000000000000 1.000000000000000 0.000000000000000 -233.693609951554322 
0.000000000000000 0.000000000000000 1.000000000000000 0.000000000000052 
2  50 -1 46 -1 47 1 48 -1 10 -1 0
1
1.000000000000000 0.000000000000000 0.000000000000000 0.000000000000000 
0.000000000000000 1.000000000000000 0.000000000000000 115.894848444613785 
0.000000000000000 0.000000000000000 1.000000000000000 -0.000000000000026 
1
1.000000000000000 0.000000000000000 0.000000000000000 0.000000000000000 
0.000000000000000 -0.000000000000000 -1.000000000000000 0.000000000000000 
0.000000000000000 1.000000000000000 -0.000000000000000 0.000000000000000 
1
1.000000000000000 0.000000000000000 0.000000000000000 0.000000000000000 
0.000000000000000 1.000000000000000 0.000000000000000 0.000000000000000 
0.000000000000000 0.000000000000000 1.000000000000000 0.000000000000000 
2  52 -1 53 1 54 -1 10 -1 0
1
1.000000000000000 0.000000000000000 0.000000000000000 -0.000000000000000 
0.000000000000000 1.000000000000000 0.000000000000000 -231.789696889227571 
0.000000000000000 0.000000000000000 1.000000000000000 0.000000000000051 
2  56 -1 52 -1 53 1 54 -1 10 -1 0
1
1.000000000000000 0.000000000000000 0.000000000000000 0.000000000000000 
0.000000000000000 1.000000000000000 0.000000000000000 115.894848444613785 
0.000000000000000 0.000000000000000 1.000000000000000 -0.000000000000026 
1
1.000000000000000 0.000000000000000 0.000000000000000 0.000000000000000 
0.000000000000000 -0.000000000000000 -1.000000000000000 0.000000000000000 
0.000000000000000 1.000000000000000 -0.000000000000000 0.000000000000000 
1
1.000000000000000 0.000000000000000 0.000000000000000 0.000000000000000 
0.000000000000000 1.000000000000000 0.000000000000000 0.000000000000000 
0.000000000000000 0.000000000000000 1.000000000000000 0.000000000000000 
2  58 -1 59 1 60 -1 10 -1 0
1
1.000000000000000 0.000000000000000 0.000000000000000 -0.000000000000000 
0.000000000000000 1.000000000000000 0.000000000000000 -231.789696889227571 
0.000000000000000 0.000000000000000 1.000000000000000 0.000000000000051 
2  62 -1 58 -1 59 1 60 -1 10 -1 0
1
1.000000000000000 0.000000000000000 0.000000000000000 0.000000000000000 
0.000000000000000 1.000000000000000 0.000000000000000 116.846804975740213 
0.000000000000000 0.000000000000000 1.000000000000000 -0.000000000000026 
1
1.000000000000000 0.000000000000000 0.000000000000000 0.000000000000000 
0.000000000000000 -0.000000000000000 -1.000000000000000 0.000000000000000 
0.000000000000000 1.000000000000000 -0.000000000000000 0.000000000000000 
1
1.000000000000000 0.000000000000000 0.000000000000000 0.000000000000000 
0.000000000000000 1.000000000000000 0.000000000000000 0.000000000000000 
0.000000000000000 0.000000000000000 1.000000000000000 0.000000000000000 
2  64 -1 65 1 66 -1 10 -1 0
1
1.000000000000000 0.000000000000000 0.000000000000000 -0.000000000000000 
0.000000000000000 1.000000000000000 0.000000000000000 -233.693609951480425 
0.000000000000000 0.000000000000000 1.000000000000000 0.000000000000052 
2  68 -1 64 -1 65 1 66 -1 10 -1 0
1
1.000000000000000 0.000000000000000 0.000000000000000 0.000000000000000 
0.000000000000000 1.000000000000000 0.000000000000000 116.846804975777161 
0.000000000000000 0.000000000000000 1.000000000000000 -0.000000000000026 
1
1.000000000000000 0.000000000000000 0.000000000000000 0.000000000000000 
0.000000000000000 -0.000000000000000 -1.000000000000000 0.000000000000000 
0.000000000000000 1.000000000000000 -0.000000000000000 0.000000000000000 
1
1.000000000000000 0.000000000000000 0.000000000000000 0.000000000000000 
0.000000000000000 1.000000000000000 0.000000000000000 0.000000000000000 
0.000000000000000 0.000000000000000 1.000000000000000 0.000000000000000 
2  70 -1 71 1 72 -1 10 -1 0
1
1.000000000000000 0.000000000000000 0.000000000000000 -0.000000000000000 
0.000000000000000 1.000000000000000 0.000000000000000 -233.693609951554322 
0.000000000000000 0.000000000000000 1.000000000000000 0.000000000000052 
2  74 -1 70 -1 71 1 72 -1 10 -1 0
1
1.000000000000000 0.000000000000000 0.000000000000000 0.000000000000000 
0.000000000000000 1.000000000000000 0.000000000000000 116.846804975760008 
0.000000000000000 0.000000000000000 1.000000000000000 -0.000000000000026 
1
1.000000000000000 0.000000000000000 0.000000000000000 0.000000000000000 
0.000000000000000 -0.000000000000000 -1.000000000000000 0.000000000000000 
0.000000000000000 1.000000000000000 -0.000000000000000 0.000000000000000 
1
1.000000000000000 0.000000000000000 0.000000000000000 0.000000000000000 
0.000000000000000 1.000000000000000 0.000000000000000 0.000000000000000 
0.000000000000000 0.000000000000000 1.000000000000000 0.000000000000000 
1
1.000000000000000 0.000000000000000 0.000000000000000 0.000000000000000 
0.000000000000000 1.000000000000000 0.000000000000000 0.000000000000000 
0.000000000000000 0.000000000000000 1.000000000000000 0.000000000000000 
2  76 -1 77 1 78 -1 79 -1 0
1
1.000000000000000 0.000000000000000 0.000000000000000 -0.000000000000000 
0.000000000000000 1.000000000000000 0.000000000000000 -233.693609951520017 
0.000000000000000 0.000000000000000 1.000000000000000 0.000000000000052 
2  81 -1 76 -1 77 1 78 -1 79 -1 0
1
1.000000000000000 0.000000000000000 0.000000000000000 0.000000000000000 
0.000000000000000 1.000000000000000 0.000000000000000 116.846804975797795 
0.000000000000000 0.000000000000000 1.000000000000000 -0.000000000000026 
1
1.000000000000000 0.000000000000000 0.000000000000000 0.000000000000000 
0.000000000000000 -0.000000000000000 -1.000000000000000 0.000000000000000 
0.000000000000000 1.000000000000000 -0.000000000000000 0.000000000000000 
1
1.000000000000000 0.000000000000000 0.000000000000000 0.000000000000000 
0.000000000000000 1.000000000000000 0.000000000000000 0.000000000000000 
0.000000000000000 0.000000000000000 1.000000000000000 0.000000000000000 
2  83 -1 84 1 85 -1 79 -1 0
1
1.000000000000000 0.000000000000000 0.000000000000000 -0.000000000000000 
0.000000000000000 1.000000000000000 0.000000000000000 -233.693609951595590 
0.000000000000000 0.000000000000000 1.000000000000000 0.000000000000052 
2  87 -1 83 -1 84 1 85 -1 79 -1 0
2  4 -1 3 1 2 -1 1 -1 0
2  6 -1 4 -1 3 1 2 -1 1 -1 0
2  3 -1 4 1 0
2  9 -1 10 -1 1 1 2 1 0
2  1 1 2 1 0
2  3 -1 4 1 6 1 0
Curve2ds 90
1 0.00000000000000000 0.00000000000000000 0.00000000000000000 -1.00000000000000000 
1 6.28318530717958623 0.00000000000000000 0.00000000000000000 -1.00000000000000000 
1 0.00000000000000000 0.00000000000000000 1.00000000000000000 0.00000000000000000 
1 0.00000000000000000 -5.00000000000000000 1.00000000000000000 0.00000000000000000 
2 0.00000000000000017 0.00000000000000000 1.00000000000000000 0.00000000000000000 -0.00000000000000000 1.00000000000000000 3.96875000000000000
2 12.70000000000000284 20.00000000000000000 0.00000000000000000 1.00000000000000000 -1.00000000000000000 0.00000000000000000 3.96875000000000000
1 0.00000000000000000 0.00000000000000000 1.00000000000000000 0.00000000000000000 
1 0.00000000000000000 -5.00000000000000000 1.00000000000000000 0.00000000000000000 
1 0.00000000000000000 0.00000000000000000 1.00000000000000000 0.00000000000000000 
1 0.00000000000000000 -231.78969688922757086 1.00000000000000000 0.00000000000000000 
1 0.00000000000000000 0.00000000000000000 1.00000000000000000 0.00000000000000000 
1 0.00000000000000000 -231.78969688922757086 1.00000000000000000 0.00000000000000000 
1 0.00000000000000000 0.00000000000000000 1.00000000000000000 0.00000000000000000 
1 0.00000000000000000 -233.69360995155432192 1.00000000000000000 0.00000000000000000 
1 0.00000000000000000 0.00000000000000000 1.00000000000000000 0.00000000000000000 
1 0.00000000000000000 -233.69360995155432192 1.00000000000000000 0.00000000000000000 
1 0.00000000000000000 0.00000000000000000 1.00000000000000000 0.00000000000000000 
1 0.00000000000000000 -231.78969688922757086 1.00000000000000000 0.00000000000000000 
1 0.00000000000000000 0.00000000000000000 1.00000000000000000 0.00000000000000000 
1 0.00000000000000000 -231.78969688922757086 1.00000000000000000 0.00000000000000000 
1 0.00000000000000000 0.00000000000000000 1.00000000000000000 0.00000000000000000 
1 0.00000000000000000 -233.69360995148042548 1.00000000000000000 0.00000000000000000 
1 0.00000000000000000 0.00000000000000000 1.00000000000000000 0.00000000000000000 
1 0.00000000000000000 -233.69360995155432192 1.00000000000000000 0.00000000000000000 
1 0.00000000000000000 0.00000000000000000 1.00000000000000000 0.00000000000000000 
1 0.00000000000000000 -233.69360995152001692 1.00000000000000000 0.00000000000000000 
1 0.00000000000000000 0.00000000000000000 1.00000000000000000 0.00000000000000000 
1 0.00000000000000000 -233.69360995159559025 1.00000000000000000 0.00000000000000000 
1 0.00000000000000000 0.00000000000000000 1.00000000000000000 0.00000000000000000 
1 0.00000000000000000 -233.69360995152442229 1.00000000000000000 0.00000000000000000 
1 0.00000000000000000 0.00000000000000000 0.00000000000000000 -1.00000000000000000 
1 6.28318530717958623 0.00000000000000000 0.00000000000000000 -1.00000000000000000 
1 0.00000000000000000 0.00000000000000000 1.00000000000000000 0.00000000000000000 
1 0.00000000000000000 -5.00000000000000000 1.00000000000000000 0.00000000000000000 
2 -0.00000000000000711 0.00000000000000000 1.00000000000000000 0.00000000000000000 -0.00000000000000000 1.00000000000000000 3.96875000000000000
2 12.70000000000000284 19.99999999997789857 1.00000000000000000 0.00000000000000000 -0.00000000000000000 1.00000000000000000 3.96875000000000000
1 0.00000000000000000 0.00000000000000000 1.00000000000000000 0.00000000000000000 
1 0.00000000000000000 -5.00000000000000000 1.00000000000000000 0.00000000000000000 
1 0.00000000000000000 0.00000000000000000 1.00000000000000000 0.00000000000000000 
1 0.00000000000000000 -231.78969688922757086 1.00000000000000000 0.00000000000000000 
1 0.00000000000000000 0.00000000000000000 1.00000000000000000 0.00000000000000000 
1 0.00000000000000000 -231.78969688922757086 1.00000000000000000 0.00000000000000000 
1 0.00000000000000000 0.00000000000000000 1.00000000000000000 0.00000000000000000 
1 0.00000000000000000 -233.69360995155432192 1.00000000000000000 0.00000000000000000 
1 0.00000000000000000 0.00000000000000000 1.00000000000000000 0.00000000000000000 
1 0.00000000000000000 -233.69360995155432192 1.00000000000000000 0.00000000000000000 
1 0.00000000000000000 0.00000000000000000 1.00000000000000000 0.00000000000000000 
1 0.00000000000000000 -231.78969688922757086 1.00000000000000000 0.00000000000000000 
1 0.00000000000000000 0.00000000000000000 1.00000000000000000 0.00000000000000000 
1 0.00000000000000000 -231.78969688922757086 1.00000000000000000 0.00000000000000000 
1 0.00000000000000000 0.00000000000000000 1.00000000000000000 0.00000000000000000 
1 0.00000000000000000 -233.69360995148042548 1.00000000000000000 0.00000000000000000 
1 0.00000000000000000 0.00000000000000000 1.00000000000000000 0.00000000000000000 
1 0.00000000000000000 -233.69360995155432192 1.00000000000000000 0.00000000000000000 
1 0.00000000000000000 0.00000000000000000 1.00000000000000000 0.00000000000000000 
1 0.00000000000000000 -233.69360995152001692 1.00000000000000000 0.00000000000000000 
1 0.00000000000000000 0.00000000000000000 1.00000000000000000 0.00000000000000000 
1 0.00000000000000000 -233.69360995159559025 1.00000000000000000 0.00000000000000000 
1 0.00000000000000000 0.00000000000000000 1.00000000000000000 0.00000000000000000 
1 0.00000000000000000 -233.69360995152442229 1.00000000000000000 0.00000000000000000 
1 0.00000000000000000 0.00000000000000000 0.00000000000000000 -1.00000000000000000 
1 6.28318530717958623 0.00000000000000000 0.00000000000000000 -1.00000000000000000 
1 0.00000000000000000 0.00000000000000000 1.00000000000000000 0.00000000000000000 
1 0.00000000000000000 -5.00000000000000000 1.00000000000000000 0.00000000000000000 
2 0.00000000000000000 0.00000000000000000 1.00000000000000000 0.00000000000000000 -0.00000000000000000 1.00000000000000000 3.96875000000000000
2 12.70000000000000284 20.00000000002210143 -1.00000000000000000 0.00000000000000000 -0.00000000000000000 -1.00000000000000000 3.96875000000000000
1 0.00000000000000000 0.00000000000000000 1.00000000000000000 0.00000000000000000 
1 0.00000000000000000 -5.00000000000000000 1.00000000000000000 0.00000000000000000 
1 0.00000000000000000 0.00000000000000000 1.00000000000000000 0.00000000000000000 
1 0.00000000000000000 -231.78969688922757086 1.00000000000000000 0.00000000000000000 
1 0.00000000000000000 0.00000000000000000 1.00000000000000000 0.00000000000000000 
1 0.00000000000000000 -231.78969688922757086 1.00000000000000000 0.00000000000000000 
1 0.00000000000000000 0.00000000000000000 1.00000000000000000 0.00000000000000000 
1 0.00000000000000000 -233.69360995155432192 1.00000000000000000 0.00000000000000000 
1 0.00000000000000000 0.00000000000000000 1.00000000000000000 0.00000000000000000 
1 0.00000000000000000 -233.69360995155432192 1.00000000000000000 0.00000000000000000 
1 0.00000000000000000 0.00000000000000000 1.00000000000000000 0.00000000000000000 
1 0.00000000000000000 -231.78969688922757086 1.00000000000000000 0.00000000000000000 
1 0.00000000000000000 0.00000000000000000 1.00000000000000000 0.00000000000000000 
1 0.00000000000000000 -231.78969688922757086 1.00000000000000000 0.00000000000000000 
1 0.00000000000000000 0.00000000000000000 1.00000000000000000 0.00000000000000000 
1 0.00000000000000000 -233.69360995148042548 1.00000000000000000 0.00000000000000000 
1 0.00000000000000000 0.00000000000000000 1.00000000000000000 0.00000000000000000 
1 0.00000000000000000 -233.69360995155432192 1.00000000000000000 0.00000000000000000 
1 0.00000000000000000 0.00000000000000000 1.00000000000000000 0.00000000000000000 
1 0.00000000000000000 -233.69360995152001692 1.00000000000000000 0.00000000000000000 
1 0.00000000000000000 0.00000000000000000 1.00000000000000000 0.00000000000000000 
1 0.00000000000000000 -233.69360995159559025 1.00000000000000000 0.00000000000000000 
1 0.00000000000000000 0.00000000000000000 1.00000000000000000 0.00000000000000000 
1 0.00000000000000000 -233.69360995152442229 1.00000000000000000 0.00000000000000000 
Curves 6
1 3.96875000000000000 116.84680497576221114 52.70000000000001705 -0.00000000000000000 -1.00000000000000000 -0.00000000000000011 
2 0.00000000000000000 -52.70000000000000284 0.00000000000000000 0.00000000000000000 0.00000000000000000 1.00000000000000000 1.00000000000000000 0.00000000000000000 -0.00000000000000000 -0.00000000000000000 1.00000000000000000 0.00000000000000000 3.96875000000000000
1 36.66875000000000284 116.84680497576221114 20.00000000002211564 -0.00000000000000000 -1.00000000000000000 -0.00000000000000011 
2 32.70000000000000284 -20.00000000002210143 0.00000000000000000 0.00000000000000000 0.00000000000000000 1.00000000000000000 1.00000000000000000 0.00000000000000000 -0.00000000000000000 -0.00000000000000000 1.00000000000000000 0.00000000000000000 3.96875000000000000
1 -28.73125000000000284 116.84680497576221114 20.00000000002211564 -0.00000000000000000 -1.00000000000000000 -0.00000000000000011 
2 -32.70000000000000284 -20.00000000002210143 0.00000000000000000 0.00000000000000000 0.00000000000000000 1.00000000000000000 1.00000000000000000 0.00000000000000000 -0.00000000000000000 -0.00000000000000000 1.00000000000000000 0.00000000000000000 3.96875000000000000
Polygon3D 0
PolygonOnTriangulations 0
Surfaces 45
2 0.00000000000000000 116.84680497576221114 52.70000000000001705 -0.00000000000000000 1.00000000000000000 0.00000000000000011 1.00000000000000000 0.00000000000000000 0.00000000000000000 0.00000000000000000 0.00000000000000011 -1.00000000000000000 3.96875000000000000
2 0.00000000000000000 0.00000000000001170 52.70000000000000284 0.00000000000000000 1.00000000000000000 -0.00000000000000022 1.00000000000000000 0.00000000000000000 0.00000000000000000 0.00000000000000000 -0.00000000000000022 -1.00000000000000000 3.96875000000000000
1 -0.00000000000000017 -52.70000000000000284 0.00000000000000000 0.00000000000000000 0.00000000000000000 1.00000000000000000 1.00000000000000000 0.00000000000000000 -0.00000000000000000 -0.00000000000000000 1.00000000000000000 0.00000000000000000 
1 -20.00000000000000000 0.00000000000000888 40.00000000000000000 0.00000000000000000 1.00000000000000000 -0.00000000000000022 0.00000000000000000 0.00000000000000022 1.00000000000000000 1.00000000000000000 -0.00000000000000000 0.00000000000000000 
2 0.00000000000000000 2.50000000000001155 52.70000000000000284 0.00000000000000000 1.00000000000000000 -0.00000000000000022 1.00000000000000000 0.00000000000000000 0.00000000000000000 0.00000000000000000 -0.00000000000000022 -1.00000000000000000 3.96875000000000000
2 0.00000000000000000 115.89484844461379964 52.69999999999997442 0.00000000000000000 1.00000000000000000 -0.00000000000000022 1.00000000000000000 0.00000000000000000 0.00000000000000000 0.00000000000000000 -0.00000000000000022 -1.00000000000000000 3.96875000000000000
2 0.00000000000000000 115.89484844461379964 52.69999999999997442 0.00000000000000000 1.00000000000000000 -0.00000000000000022 1.00000000000000000 0.00000000000000000 0.00000000000000000 0.00000000000000000 -0.00000000000000022 -1.00000000000000000 3.96875000000000000
2 0.00000000000000000 116.84680497577717517 52.69999999999997442 0.00000000000000000 1.00000000000000000 -0.00000000000000022 1.00000000000000000 0.00000000000000000 0.00000000000000000 0.00000000000000000 -0.00000000000000022 -1.00000000000000000 3.96875000000000000
2 0.00000000000000000 116.84680497577717517 52.69999999999997442 0.00000000000000000 1.00000000000000000 -0.00000000000000022 1.00000000000000000 0.00000000000000000 0.00000000000000000 0.00000000000000000 -0.00000000000000022 -1.00000000000000000 3.96875000000000000
2 0.00000000000000000 115.89484844461379964 52.69999999999997442 0.00000000000000000 1.00000000000000000 -0.00000000000000022 1.00000000000000000 0.00000000000000000 0.00000000000000000 0.00000000000000000 -0.00000000000000022 -1.00000000000000000 3.96875000000000000
2 0.00000000000000000 115.89484844461379964 52.69999999999997442 0.00000000000000000 1.00000000000000000 -0.00000000000000022 1.00000000000000000 0.00000000000000000 0.00000000000000000 0.00000000000000000 -0.00000000000000022 -1.00000000000000000 3.96875000000000000
2 0.00000000000000000 116.84680497574022695 52.69999999999997442 0.00000000000000000 1.00000000000000000 -0.00000000000000022 1.00000000000000000 0.00000000000000000 0.00000000000000000 0.00000000000000000 -0.00000000000000022 -1.00000000000000000 3.96875000000000000
2 0.00000000000000000 116.84680497577717517 52.69999999999997442 0.00000000000000000 1.00000000000000000 -0.00000000000000022 1.00000000000000000 0.00000000000000000 0.00000000000000000 0.00000000000000000 -0.00000000000000022 -1.00000000000000000 3.96875000000000000
2 0.00000000000000000 116.84680497576002267 52.69999999999997442 0.00000000000000000 1.00000000000000000 -0.00000000000000022 1.00000000000000000 0.00000000000000000 0.00000000000000000 0.00000000000000000 -0.00000000000000022 -1.00000000000000000 3.96875000000000000
2 0.00000000000000000 116.84680497579780933 52.69999999999997442 0.00000000000000000 1.00000000000000000 -0.00000000000000022 1.00000000000000000 0.00000000000000000 0.00000000000000000 0.00000000000000000 -0.00000000000000022 -1.00000000000000000 3.96875000000000000
2 32.70000000000000284 116.84680497576221114 20.00000000002211564 -0.00000000000000000 1.00000000000000000 0.00000000000000011 1.00000000000000000 0.00000000000000000 0.00000000000000000 0.00000000000000000 0.00000000000000011 -1.00000000000000000 3.96875000000000000
2 32.70000000000000284 0.00000000000000444 20.00000000002210143 0.00000000000000000 1.00000000000000000 -0.00000000000000022 1.00000000000000000 0.00000000000000000 0.00000000000000000 0.00000000000000000 -0.00000000000000022 -1.00000000000000000 3.96875000000000000
1 32.70000000000000995 -20.00000000002210143 0.00000000000000000 0.00000000000000000 0.00000000000000000 1.00000000000000000 1.00000000000000000 0.00000000000000000 -0.00000000000000000 -0.00000000000000000 1.00000000000000000 0.00000000000000000 
1 20.00000000000000000 0.00000000000000888 40.00000000000000000 -0.00000000000000012 1.00000000000000000 -0.00000000000000022 1.00000000000000000 0.00000000000000012 0.00000000000000000 0.00000000000000000 -0.00000000000000022 -1.00000000000000000 
2 32.70000000000000284 2.50000000000000444 20.00000000002210143 0.00000000000000000 1.00000000000000000 -0.00000000000000022 1.00000000000000000 0.00000000000000000 0.00000000000000000 0.00000000000000000 -0.00000000000000022 -1.00000000000000000 3.96875000000000000
2 32.70000000000000284 115.89484844461378543 20.00000000002207656 0.00000000000000000 1.00000000000000000 -0.00000000000000022 1.00000000000000000 0.00000000000000000 0.00000000000000000 0.00000000000000000 -0.00000000000000022 -1.00000000000000000 3.96875000000000000
2 32.70000000000000284 115.89484844461378543 20.00000000002207656 0.00000000000000000 1.00000000000000000 -0.00000000000000022 1.00000000000000000 0.00000000000000000 0.00000000000000000 0.00000000000000000 -0.00000000000000022 -1.00000000000000000 3.96875000000000000
2 32.70000000000000284 116.84680497577716096 20.00000000002207656 0.00000000000000000 1.00000000000000000 -0.00000000000000022 1.00000000000000000 0.00000000000000000 0.00000000000000000 0.00000000000000000 -0.00000000000000022 -1.00000000000000000 3.96875000000000000
2 32.70000000000000284 116.84680497577716096 20.00000000002207656 0.00000000000000000 1.00000000000000000 -0.00000000000000022 1.00000000000000000 0.00000000000000000 0.00000000000000000 0.00000000000000000 -0.00000000000000022 -1.00000000000000000 3.96875000000000000
2 32.70000000000000284 115.89484844461378543 20.00000000002207656 0.00000000000000000 1.00000000000000000 -0.00000000000000022 1.00000000000000000 0.00000000000000000 0.00000000000000000 0.00000000000000000 -0.00000000000000022 -1.00000000000000000 3.96875000000000000
2 32.70000000000000284 115.89484844461378543 20.00000000002207656 0.00000000000000000 1.00000000000000000 -0.00000000000000022 1.00000000000000000 0.00000000000000000 0.00000000000000000 0.00000000000000000 -0.00000000000000022 -1.00000000000000000 3.96875000000000000
2 32.70000000000000284 116.84680497574021274 20.00000000002207656 0.00000000000000000 1.00000000000000000 -0.00000000000000022 1.00000000000000000 0.00000000000000000 0.00000000000000000 0.00000000000000000 -0.00000000000000022 -1.00000000000000000 3.96875000000000000
2 32.70000000000000284 116.84680497577716096 20.00000000002207656 0.00000000000000000 1.00000000000000000 -0.00000000000000022 1.00000000000000000 0.00000000000000000 0.00000000000000000 0.00000000000000000 -0.00000000000000022 -1.00000000000000000 3.96875000000000000
2 32.70000000000000284 116.84680497576000846 20.00000000002207656 0.00000000000000000 1.00000000000000000 -0.00000000000000022 1.00000000000000000 0.00000000000000000 0.00000000000000000 0.00000000000000000 -0.00000000000000022 -1.00000000000000000 3.96875000000000000
2 32.70000000000000284 116.84680497579779512 20.00000000002207656 0.00000000000000000 1.00000000000000000 -0.00000000000000022 1.00000000000000000 0.00000000000000000 0.00000000000000000 0.00000000000000000 -0.00000000000000022 -1.00000000000000000 3.96875000000000000
2 -32.70000000000000284 116.84680497576221114 20.00000000002211564 -0.00000000000000000 1.00000000000000000 0.00000000000000011 1.00000000000000000 0.00000000000000000 0.00000000000000000 0.00000000000000000 0.00000000000000011 -1.00000000000000000 3.96875000000000000
2 -32.70000000000000284 0.00000000000000444 20.00000000002210143 0.00000000000000000 1.00000000000000000 -0.00000000000000022 1.00000000000000000 0.00000000000000000 0.00000000000000000 0.00000000000000000 -0.00000000000000022 -1.00000000000000000 3.96875000000000000
1 -32.70000000000000284 -20.00000000002210143 0.00000000000000000 0.00000000000000000 0.00000000000000000 1.00000000000000000 1.00000000000000000 0.00000000000000000 -0.00000000000000000 -0.00000000000000000 1.00000000000000000 0.00000000000000000 
1 -20.00000000000000000 0.00000000000000000 0.00000000000000000 0.00000000000000000 1.00000000000000000 -0.00000000000000022 -1.00000000000000000 0.00000000000000000 0.00000000000000000 0.00000000000000000 0.00000000000000022 1.00000000000000000 
2 -32.70000000000000284 2.50000000000000444 20.00000000002210143 0.00000000000000000 1.00000000000000000 -0.00000000000000022 1.00000000000000000 0.00000000000000000 0.00000000000000000 0.00000000000000000 -0.00000000000000022 -1.00000000000000000 3.96875000000000000
2 -32.70000000000000284 115.89484844461378543 20.00000000002207656 0.00000000000000000 1.00000000000000000 -0.00000000000000022 1.00000000000000000 0.00000000000000000 0.00000000000000000 0.00000000000000000 -0.00000000000000022 -1.00000000000000000 3.96875000000000000
2 -32.70000000000000284 115.89484844461378543 20.00000000002207656 0.00000000000000000 1.00000000000000000 -0.00000000000000022 1.00000000000000000 0.00000000000000000 0.00000000000000000 0.00000000000000000 -0.00000000000000022 -1.00000000000000000 3.96875000000000000
2 -32.70000000000000284 116.84680497577716096 20.00000000002207656 0.00000000000000000 1.00000000000000000 -0.00000000000000022 1.00000000000000000 0.00000000000000000 0.00000000000000000 0.00000000000000000 -0.00000000000000022 -1.00000000000000000 3.96875000000000000
2 -32.70000000000000284 116.84680497577716096 20.00000000002207656 0.00000000000000000 1.00000000000000000 -0.00000000000000022 1.00000000000000000 0.00000000000000000 0.00000000000000000 0.00000000000000000 -0.00000000000000022 -1.00000000000000000 3.96875000000000000
2 -32.70000000000000284 115.89484844461378543 20.00000000002207656 0.00000000000000000 1.00000000000000000 -0.00000000000000022 1.00000000000000000 0.00000000000000000 0.00000000000000000 0.00000000000000000 -0.00000000000000022 -1.00000000000000000 3.96875000000000000
2 -32.70000000000000284 115.89484844461378543 20.00000000002207656 0.00000000000000000 1.00000000000000000 -0.00000000000000022 1.00000000000000000 0.00000000000000000 0.00000000000000000 0.00000000000000000 -0.00000000000000022 -1.00000000000000000 3.96875000000000000
2 -32.70000000000000284 116.84680497574021274 20.00000000002207656 0.00000000000000000 1.00000000000000000 -0.00000000000000022 1.00000000000000000 0.00000000000000000 0.00000000000000000 0.00000000000000000 -0.00000000000000022 -1.00000000000000000 3.96875000000000000
2 -32.70000000000000284 116.84680497577716096 20.00000000002207656 0.00000000000000000 1.00000000000000000 -0.00000000000000022 1.00000000000000000 0.00000000000000000 0.00000000000000000 0.00000000000000000 -0.00000000000000022 -1.00000000000000000 3.96875000000000000
2 -32.70000000000000284 116.84680497576000846 20.00000000002207656 0.00000000000000000 1.00000000000000000 -0.00000000000000022 1.00000000000000000 0.00000000000000000 0.00000000000000000 0.00000000000000000 -0.00000000000000022 -1.00000000000000000 3.96875000000000000
2 -32.70000000000000284 116.84680497579779512 20.00000000002207656 0.00000000000000000 1.00000000000000000 -0.00000000000000022 1.00000000000000000 0.00000000000000000 0.00000000000000000 0.00000000000000000 -0.00000000000000022 -1.00000000000000000 3.96875000000000000
Triangulations 0

TShapes 28
Ve
0.000000100000000
3.968750000000000 -52.700000000000003 0.000000000000000
0 0

0101101
*
Ed
 0.000000100000000 1 1 0
1  1 0 0.000000000000000 233.693609951524422
3  1 2CN 1 0 0.000000000000000 233.693609951524422
0

0101000
+28 5 -28 7 *
Ed
 0.000000100000000 1 1 0
1  2 0 0.000000000000000 6.283185307179586
2  3 2 11 0.000000000000000 6.283185307179586
2  4 2 13 0.000000000000000 6.283185307179586
2  5 3 14 0.000000000000000 6.283185307179586
2  6 4 21 0.000000000000000 6.283185307179586
2  7 5 25 0.000000000000000 6.283185307179586
2  8 5 27 0.000000000000000 6.283185307179586
2  9 6 31 0.000000000000000 6.283185307179586
2  10 6 33 0.000000000000000 6.283185307179586
2  11 7 37 0.000000000000000 6.283185307179586
2  12 7 39 0.000000000000000 6.283185307179586
2  13 8 43 0.000000000000000 6.283185307179586
2  14 8 45 0.000000000000000 6.283185307179586
2  15 9 49 0.000000000000000 6.283185307179586
2  16 9 51 0.000000000000000 6.283185307179586
2  17 10 55 0.000000000000000 6.283185307179586
2  18 10 57 0.000000000000000 6.283185307179586
2  19 11 61 0.000000000000000 6.283185307179586
2  20 11 63 0.000000000000000 6.283185307179586
2  21 12 67 0.000000000000000 6.283185307179586
2  22 12 69 0.000000000000000 6.283185307179586
2  23 13 73 0.000000000000000 6.283185307179586
2  24 13 75 0.000000000000000 6.283185307179586
2  25 14 80 0.000000000000000 6.283185307179586
2  26 14 82 0.000000000000000 6.283185307179586
2  27 15 86 0.000000000000000 6.283185307179586
2  28 15 88 0.000000000000000 6.283185307179586
2  29 1 89 0.000000000000000 6.283185307179586
2  30 1 90 0.000000000000000 6.283185307179586
0

0101000
+28 0 -28 0 *
Wi

0101100
+27 0 -27 0 -26 5 +26 7 *
Fa
0  0.000000100000000 1 0

0101000
+25 0 *
Wi

0101100
+26 0 *
Fa
0  0.000000100000000 3 92

0101000
+23 93 *
Sh

0101100
+24 0 +22 91 -22 94 *
So

0100000
+21 0 *
Ve
0.000000100000002
36.668750000000003 -20.000000000022101 0.000000000000000
0 0

0101101
*
Ed
 0.000000100000002 1 1 0
1  3 0 0.000000000000000 233.693609951524422
3  31 32CN 16 0 0.000000000000000 233.693609951524422
0

0101000
+19 5 -19 7 *
Ed
 0.000000100000002 1 1 0
1  4 0 0.000000000000000 6.283185307179586
2  33 17 11 0.000000000000000 6.283185307179586
2  34 17 13 0.000000000000000 6.283185307179586
2  35 18 14 0.000000000000000 6.283185307179586
2  36 19 21 0.000000000000000 6.283185307179586
2  37 20 25 0.000000000000000 6.283185307179586
2  38 20 27 0.000000000000000 6.283185307179586
2  39 21 31 0.000000000000000 6.283185307179586
2  40 21 33 0.000000000000000 6.283185307179586
2  41 22 37 0.000000000000000 6.283185307179586
2  42 22 39 0.000000000000000 6.283185307179586
2  43 23 43 0.000000000000000 6.283185307179586
2  44 23 45 0.000000000000000 6.283185307179586
2  45 24 49 0.000000000000000 6.283185307179586
2  46 24 51 0.000000000000000 6.283185307179586
2  47 25 55 0.000000000000000 6.283185307179586
2  48 25 57 0.000000000000000 6.283185307179586
2  49 26 61 0.000000000000000 6.283185307179586
2  50 26 63 0.000000000000000 6.283185307179586
2  51 27 67 0.000000000000000 6.283185307179586
2  52 27 69 0.000000000000000 6.283185307179586
2  53 28 73 0.000000000000000 6.283185307179586
2  54 28 75 0.000000000000000 6.283185307179586
2  55 29 80 0.000000000000000 6.283185307179586
2  56 29 82 0.000000000000000 6.283185307179586
2  57 30 86 0.000000000000000 6.283185307179586
2  58 30 88 0.000000000000000 6.283185307179586
2  59 16 89 0.000000000000000 6.283185307179586
2  60 16 90 0.000000000000000 6.283185307179586
0

0101000
+19 0 -19 0 *
Wi

0101100
+18 0 -18 0 -17 5 +17 7 *
Fa
0  0.000000100000002 16 0

0101000
+16 0 *
Wi

0101100
+17 0 *
Fa
0  0.000000100000002 18 92

0101000
+14 93 *
Sh

0101100
+15 0 +13 91 -13 94 *
So

0100000
+12 0 *
Ve
0.000000100000000
-28.731250000000003 -20.000000000022101 0.000000000000000
0 0

0101101
*
Ed
 0.000000100000000 1 1 0
1  5 0 0.000000000000000 233.693609951524422
3  61 62CN 31 0 0.000000000000000 233.693609951524422
0

0101000
+10 5 -10 7 *
Ed
 0.000000100000000 1 1 0
1  6 0 0.000000000000000 6.283185307179586
2  63 32 11 0.000000000000000 6.283185307179586
2  64 32 13 0.000000000000000 6.283185307179586
2  65 33 14 0.000000000000000 6.283185307179586
2  66 34 21 0.000000000000000 6.283185307179586
2  67 35 25 0.000000000000000 6.283185307179586
2  68 35 27 0.000000000000000 6.283185307179586
2  69 36 31 0.000000000000000 6.283185307179586
2  70 36 33 0.000000000000000 6.283185307179586
2  71 37 37 0.000000000000000 6.283185307179586
2  72 37 39 0.000000000000000 6.283185307179586
2  73 38 43 0.000000000000000 6.283185307179586
2  74 38 45 0.000000000000000 6.283185307179586
2  75 39 49 0.000000000000000 6.283185307179586
2  76 39 51 0.000000000000000 6.283185307179586
2  77 40 55 0.000000000000000 6.283185307179586
2  78 40 57 0.000000000000000 6.283185307179586
2  79 41 61 0.000000000000000 6.283185307179586
2  80 41 63 0.000000000000000 6.283185307179586
2  81 42 67 0.000000000000000 6.283185307179586
2  82 42 69 0.000000000000000 6.283185307179586
2  83 43 73 0.000000000000000 6.283185307179586
2  84 43 75 0.000000000000000 6.283185307179586
2  85 44 80 0.000000000000000 6.283185307179586
2  86 44 82 0.000000000000000 6.283185307179586
2  87 45 86 0.000000000000000 6.283185307179586
2  88 45 88 0.000000000000000 6.283185307179586
2  89 31 89 0.000000000000000 6.283185307179586
2  90 31 90 0.000000000000000 6.283185307179586
0

0101000
+10 0 -10 0 *
Wi

0101100
+9 0 -9 0 -8 5 +8 7 *
Fa
0  0.000000100000000 31 0

0101000
+7 0 *
Wi

0101100
+8 0 *
Fa
0  0.000000100000000 33 92

0101000
+5 93 *
Sh

0101100
+6 0 +4 91 -4 94 *
So

0100000
+3 0 *
Co

1100000
+20 0 +11 0 +2 0 *

+1 0 