
CASCADE Topology V1, (c) Matra-Datavision
Locations 85
1
1.000000000000000 0.000000000000000 0.000000000000000 0.000000000000000 
0.000000000000000 1.000000000000000 0.000000000000000 0.000000000000000 
0.000000000000000 0.000000000000000 1.000000000000000 0.000000000000000 
1
1.000000000000000 0.000000000000000 0.000000000000000 0.000000000000000 
0.000000000000000 1.000000000000000 0.000000000000000 0.000000000000000 
0.000000000000000 0.000000000000000 1.000000000000000 0.000000000000000 
1
1.000000000000000 0.000000000000000 0.000000000000000 0.000000000000000 
0.000000000000000 0.000000000000000 -1.000000000000000 0.000000000000000 
0.000000000000000 1.000000000000000 0.000000000000000 0.000000000000000 
1
1.000000000000000 0.000000000000000 0.000000000000000 0.000000000000000 
0.000000000000000 1.000000000000000 0.000000000000000 0.000000000000000 
0.000000000000000 0.000000000000000 1.000000000000000 0.000000000000000 
1
1.000000000000000 0.000000000000000 0.000000000000000 0.000000000000000 
0.000000000000000 1.000000000000000 0.000000000000000 0.000000000000000 
0.000000000000000 0.000000000000000 1.000000000000000 0.000000000000000 
1
1.000000000000000 0.000000000000000 0.000000000000000 0.000000000000000 
0.000000000000000 1.000000000000000 0.000000000000000 0.000000000000000 
0.000000000000000 0.000000000000000 1.000000000000000 0.000000000000000 
1
1.000000000000000 0.000000000000000 0.000000000000000 0.000000000000000 
0.000000000000000 1.000000000000000 0.000000000000000 0.000000000000000 
0.000000000000000 0.000000000000000 1.000000000000000 0.000000000000000 
1
1.000000000000000 0.000000000000000 0.000000000000000 0.000000000000000 
0.000000000000000 1.000000000000000 0.000000000000000 0.000000000000000 
0.000000000000000 0.000000000000000 1.000000000000000 0.000000000000000 
1
1.000000000000000 0.000000000000000 0.000000000000000 0.000000000000000 
0.000000000000000 1.000000000000000 0.000000000000000 0.000000000000000 
0.000000000000000 0.000000000000000 1.000000000000000 0.000000000000000 
1
1.000000000000000 0.000000000000000 0.000000000000000 0.000000000000000 
0.000000000000000 1.000000000000000 0.000000000000000 0.000000000000000 
0.000000000000000 0.000000000000000 1.000000000000000 0.000000000000000 
1
1.000000000000000 0.000000000000000 0.000000000000000 -0.000000000000000 
0.000000000000000 1.000000000000000 0.000000000000000 -43.700000000000003 
0.000000000000000 0.000000000000000 1.000000000000000 0.000000000000010 
2  2 1 3 1 4 1 5 1 6 1 7 1 8 1 9 1 10 -1 11 1 0
1
1.000000000000000 0.000000000000000 0.000000000000000 0.000000000000000 
0.000000000000000 1.000000000000000 0.000000000000000 87.400000000000006 
0.000000000000000 0.000000000000000 1.000000000000000 -0.000000000000019 
2  2 1 3 1 4 1 5 1 6 1 7 1 8 1 9 1 10 -1 11 1 13 1 0
1
1.000000000000000 0.000000000000000 0.000000000000000 0.000000000000000 
0.000000000000000 1.000000000000000 0.000000000000000 0.000000000000000 
0.000000000000000 0.000000000000000 1.000000000000000 0.000000000000000 
1
1.000000000000000 0.000000000000000 0.000000000000000 0.000000000000000 
0.000000000000000 0.000000000000000 -1.000000000000000 0.000000000000000 
0.000000000000000 1.000000000000000 0.000000000000000 0.000000000000000 
1
1.000000000000000 0.000000000000000 0.000000000000000 0.000000000000000 
0.000000000000000 -0.000000000000000 -1.000000000000000 0.000000000000000 
0.000000000000000 1.000000000000000 -0.000000000000000 0.000000000000000 
1
1.000000000000000 0.000000000000000 0.000000000000000 0.000000000000000 
0.000000000000000 1.000000000000000 0.000000000000000 0.000000000000000 
0.000000000000000 0.000000000000000 1.000000000000000 0.000000000000000 
2  15 1 16 1 17 -1 18 1 2 1 3 1 4 1 5 1 6 1 7 1 8 1 9 1 10 -1 11 1 0
2  11 -1 10 1 9 -1 8 -1 7 -1 6 -1 5 -1 4 -1 3 -1 2 -1 18 -1 17 1 16 -1 15 -1 0
2  13 -1 11 -1 10 1 9 -1 8 -1 7 -1 6 -1 5 -1 4 -1 3 -1 2 -1 18 -1 17 1 16 -1 15 -1 0
2  18 -1 17 1 16 -1 15 -1 0
2  15 1 16 1 17 -1 18 1 2 1 3 1 4 1 5 1 6 1 7 1 8 1 9 1 10 -1 11 1 13 1 0
2  17 -1 18 1 0
1
1.000000000000000 0.000000000000000 0.000000000000000 0.000000000000000 
0.000000000000000 1.000000000000000 0.000000000000000 0.000000000000000 
0.000000000000000 0.000000000000000 1.000000000000000 0.000000000000000 
1
1.000000000000000 0.000000000000000 0.000000000000000 0.000000000000000 
0.000000000000000 1.000000000000000 0.000000000000000 0.000000000000000 
0.000000000000000 0.000000000000000 1.000000000000000 0.000000000000000 
2  25 1 26 -1 8 -1 7 -1 6 -1 5 -1 4 -1 3 -1 2 -1 0
1
1.000000000000000 0.000000000000000 0.000000000000000 0.000000000000000 
0.000000000000000 1.000000000000000 0.000000000000000 10.000000000000000 
0.000000000000000 0.000000000000000 1.000000000000000 -0.000000000000002 
2  28 -1 25 1 26 -1 8 -1 7 -1 6 -1 5 -1 4 -1 3 -1 2 -1 0
1
1.000000000000000 0.000000000000000 0.000000000000000 0.000000000000000 
0.000000000000000 1.000000000000000 0.000000000000000 0.000000000000000 
0.000000000000000 0.000000000000000 1.000000000000000 0.000000000000000 
1
1.000000000000000 0.000000000000000 0.000000000000000 0.000000000000000 
0.000000000000000 1.000000000000000 0.000000000000000 0.000000000000000 
0.000000000000000 0.000000000000000 1.000000000000000 0.000000000000000 
2  30 1 31 -1 8 -1 7 -1 6 -1 5 -1 4 -1 3 -1 2 -1 0
1
1.000000000000000 0.000000000000000 0.000000000000000 0.000000000000000 
0.000000000000000 1.000000000000000 0.000000000000000 87.400000000000006 
0.000000000000000 0.000000000000000 1.000000000000000 -0.000000000000019 
2  33 -1 30 1 31 -1 8 -1 7 -1 6 -1 5 -1 4 -1 3 -1 2 -1 0
1
1.000000000000000 0.000000000000000 0.000000000000000 0.000000000000000 
0.000000000000000 1.000000000000000 0.000000000000000 0.000000000000000 
0.000000000000000 0.000000000000000 1.000000000000000 0.000000000000000 
1
1.000000000000000 0.000000000000000 0.000000000000000 0.000000000000000 
0.000000000000000 1.000000000000000 0.000000000000000 0.000000000000000 
0.000000000000000 0.000000000000000 1.000000000000000 0.000000000000000 
2  35 1 36 -1 8 -1 7 -1 6 -1 5 -1 4 -1 3 -1 2 -1 0
1
1.000000000000000 0.000000000000000 0.000000000000000 0.000000000000000 
0.000000000000000 1.000000000000000 0.000000000000000 87.400000000000006 
0.000000000000000 0.000000000000000 1.000000000000000 -0.000000000000019 
2  38 -1 35 1 36 -1 8 -1 7 -1 6 -1 5 -1 4 -1 3 -1 2 -1 0
1
1.000000000000000 0.000000000000000 0.000000000000000 0.000000000000000 
0.000000000000000 1.000000000000000 0.000000000000000 0.000000000000000 
0.000000000000000 0.000000000000000 1.000000000000000 0.000000000000000 
1
1.000000000000000 0.000000000000000 0.000000000000000 0.000000000000000 
0.000000000000000 1.000000000000000 0.000000000000000 0.000000000000000 
0.000000000000000 0.000000000000000 1.000000000000000 0.000000000000000 
2  40 1 41 -1 8 -1 7 -1 6 -1 5 -1 4 -1 3 -1 2 -1 0
1
1.000000000000000 0.000000000000000 0.000000000000000 0.000000000000000 
0.000000000000000 1.000000000000000 0.000000000000000 87.400000000000006 
0.000000000000000 0.000000000000000 1.000000000000000 -0.000000000000019 
2  43 -1 40 1 41 -1 8 -1 7 -1 6 -1 5 -1 4 -1 3 -1 2 -1 0
1
1.000000000000000 0.000000000000000 0.000000000000000 0.000000000000000 
0.000000000000000 1.000000000000000 0.000000000000000 0.000000000000000 
0.000000000000000 0.000000000000000 1.000000000000000 0.000000000000000 
1
1.000000000000000 0.000000000000000 0.000000000000000 0.000000000000000 
0.000000000000000 1.000000000000000 0.000000000000000 0.000000000000000 
0.000000000000000 0.000000000000000 1.000000000000000 0.000000000000000 
2  45 1 46 -1 8 -1 7 -1 6 -1 5 -1 4 -1 3 -1 2 -1 0
1
1.000000000000000 0.000000000000000 0.000000000000000 0.000000000000000 
0.000000000000000 1.000000000000000 0.000000000000000 87.400000000000006 
0.000000000000000 0.000000000000000 1.000000000000000 -0.000000000000019 
2  48 -1 45 1 46 -1 8 -1 7 -1 6 -1 5 -1 4 -1 3 -1 2 -1 0
1
1.000000000000000 0.000000000000000 0.000000000000000 -0.000000000000000 
0.000000000000000 1.000000000000000 0.000000000000000 -43.700000000000003 
0.000000000000000 0.000000000000000 1.000000000000000 0.000000000000010 
1
1.000000000000000 0.000000000000000 0.000000000000000 0.000000000000000 
0.000000000000000 1.000000000000000 0.000000000000000 0.000000000000000 
0.000000000000000 0.000000000000000 1.000000000000000 0.000000000000000 
1
1.000000000000000 0.000000000000000 0.000000000000000 0.000000000000000 
0.000000000000000 1.000000000000000 0.000000000000000 0.000000000000000 
0.000000000000000 0.000000000000000 1.000000000000000 0.000000000000000 
2  50 -1 51 1 52 -1 8 -1 7 -1 6 -1 5 -1 4 -1 3 -1 2 -1 0
1
1.000000000000000 0.000000000000000 0.000000000000000 0.000000000000000 
0.000000000000000 1.000000000000000 0.000000000000000 87.400000000000006 
0.000000000000000 0.000000000000000 1.000000000000000 -0.000000000000019 
2  54 -1 50 -1 51 1 52 -1 8 -1 7 -1 6 -1 5 -1 4 -1 3 -1 2 -1 0
1
1.000000000000000 0.000000000000000 0.000000000000000 -0.000000000000000 
0.000000000000000 1.000000000000000 0.000000000000000 -43.700000000000003 
0.000000000000000 0.000000000000000 1.000000000000000 0.000000000000010 
1
1.000000000000000 0.000000000000000 0.000000000000000 0.000000000000000 
0.000000000000000 1.000000000000000 0.000000000000000 0.000000000000000 
0.000000000000000 0.000000000000000 1.000000000000000 0.000000000000000 
1
1.000000000000000 0.000000000000000 0.000000000000000 0.000000000000000 
0.000000000000000 1.000000000000000 0.000000000000000 0.000000000000000 
0.000000000000000 0.000000000000000 1.000000000000000 0.000000000000000 
2  56 -1 57 1 58 -1 8 -1 7 -1 6 -1 5 -1 4 -1 3 -1 2 -1 0
1
1.000000000000000 0.000000000000000 0.000000000000000 0.000000000000000 
0.000000000000000 1.000000000000000 0.000000000000000 87.400000000000006 
0.000000000000000 0.000000000000000 1.000000000000000 -0.000000000000019 
2  60 -1 56 -1 57 1 58 -1 8 -1 7 -1 6 -1 5 -1 4 -1 3 -1 2 -1 0
1
1.000000000000000 0.000000000000000 0.000000000000000 -0.000000000000000 
0.000000000000000 1.000000000000000 0.000000000000000 -43.700000000000003 
0.000000000000000 0.000000000000000 1.000000000000000 0.000000000000010 
1
1.000000000000000 0.000000000000000 0.000000000000000 0.000000000000000 
0.000000000000000 1.000000000000000 0.000000000000000 0.000000000000000 
0.000000000000000 0.000000000000000 1.000000000000000 0.000000000000000 
1
1.000000000000000 0.000000000000000 0.000000000000000 0.000000000000000 
0.000000000000000 1.000000000000000 0.000000000000000 0.000000000000000 
0.000000000000000 0.000000000000000 1.000000000000000 0.000000000000000 
2  62 -1 63 1 64 -1 8 -1 7 -1 6 -1 5 -1 4 -1 3 -1 2 -1 0
1
1.000000000000000 0.000000000000000 0.000000000000000 0.000000000000000 
0.000000000000000 1.000000000000000 0.000000000000000 87.400000000000006 
0.000000000000000 0.000000000000000 1.000000000000000 -0.000000000000019 
2  66 -1 62 -1 63 1 64 -1 8 -1 7 -1 6 -1 5 -1 4 -1 3 -1 2 -1 0
1
1.000000000000000 0.000000000000000 0.000000000000000 -0.000000000000000 
0.000000000000000 1.000000000000000 0.000000000000000 -43.700000000000003 
0.000000000000000 0.000000000000000 1.000000000000000 0.000000000000010 
1
1.000000000000000 0.000000000000000 0.000000000000000 0.000000000000000 
0.000000000000000 1.000000000000000 0.000000000000000 0.000000000000000 
0.000000000000000 0.000000000000000 1.000000000000000 0.000000000000000 
1
1.000000000000000 0.000000000000000 0.000000000000000 0.000000000000000 
0.000000000000000 1.000000000000000 0.000000000000000 0.000000000000000 
0.000000000000000 0.000000000000000 1.000000000000000 0.000000000000000 
2  68 -1 69 1 70 -1 8 -1 7 -1 6 -1 5 -1 4 -1 3 -1 2 -1 0
1
1.000000000000000 0.000000000000000 0.000000000000000 0.000000000000000 
0.000000000000000 1.000000000000000 0.000000000000000 87.400000000000006 
0.000000000000000 0.000000000000000 1.000000000000000 -0.000000000000019 
2  72 -1 68 -1 69 1 70 -1 8 -1 7 -1 6 -1 5 -1 4 -1 3 -1 2 -1 0
1
1.000000000000000 0.000000000000000 0.000000000000000 -0.000000000000000 
0.000000000000000 1.000000000000000 0.000000000000000 -43.700000000000003 
0.000000000000000 0.000000000000000 1.000000000000000 0.000000000000010 
1
1.000000000000000 0.000000000000000 0.000000000000000 0.000000000000000 
0.000000000000000 1.000000000000000 0.000000000000000 0.000000000000000 
0.000000000000000 0.000000000000000 1.000000000000000 0.000000000000000 
1
1.000000000000000 0.000000000000000 0.000000000000000 0.000000000000000 
0.000000000000000 1.000000000000000 0.000000000000000 0.000000000000000 
0.000000000000000 0.000000000000000 1.000000000000000 0.000000000000000 
2  74 -1 75 1 76 -1 8 -1 7 -1 6 -1 5 -1 4 -1 3 -1 2 -1 0
1
1.000000000000000 0.000000000000000 0.000000000000000 0.000000000000000 
0.000000000000000 1.000000000000000 0.000000000000000 87.400000000000006 
0.000000000000000 0.000000000000000 1.000000000000000 -0.000000000000019 
2  78 -1 74 -1 75 1 76 -1 8 -1 7 -1 6 -1 5 -1 4 -1 3 -1 2 -1 0
2  11 -1 10 1 9 -1 8 -1 7 -1 6 -1 5 -1 4 -1 3 -1 2 -1 0
2  13 -1 11 -1 10 1 9 -1 8 -1 7 -1 6 -1 5 -1 4 -1 3 -1 2 -1 0
2  17 -1 18 1 2 1 3 1 4 1 5 1 6 1 7 1 8 1 9 1 10 -1 11 1 0
2  18 -1 17 1 0
2  15 1 16 1 17 -1 18 1 0
2  17 -1 18 1 2 1 3 1 4 1 5 1 6 1 7 1 8 1 9 1 10 -1 11 1 13 1 0
Curve2ds 112
1 3.14159265358979312 0.00000000000000000 0.00000000000000000 -1.00000000000000000 
1 0.00000000000000000 0.00000000000000000 0.00000000000000000 -1.00000000000000000 
1 3.14159265358979312 0.00000000000000000 0.00000000000000000 -1.00000000000000000 
1 23.39999999999999858 0.00000000000000000 0.00000000000000000 -1.00000000000000000 
1 -1.00000000000000000 0.00000000000000000 1.00000000000000000 0.00000000000000000 
1 -1.00000000000000000 -87.40000000000000568 1.00000000000000000 0.00000000000000000 
1 4.71238898038468967 0.00000000000000000 0.00000000000000000 -1.00000000000000000 
1 -3.14159265358979312 0.00000000000000000 1.00000000000000000 0.00000000000000000 
2 0.58750000000000058 -11.69999999999999929 -1.00000000000000000 0.00000000000000000 0.00000000000000000 1.00000000000000000 1.00000000000000000
1 0.00000000000000000 0.00000000000000000 1.00000000000000000 0.00000000000000000 
1 0.00000000000000000 -10.00000000000000000 1.00000000000000000 0.00000000000000000 
1 0.00000000000000000 0.00000000000000000 1.00000000000000000 0.00000000000000000 
1 0.00000000000000000 -87.40000000000000568 1.00000000000000000 0.00000000000000000 
1 0.00000000000000000 0.00000000000000000 1.00000000000000000 0.00000000000000000 
1 0.00000000000000000 -87.40000000000000568 1.00000000000000000 0.00000000000000000 
1 0.00000000000000000 0.00000000000000000 1.00000000000000000 0.00000000000000000 
1 0.00000000000000000 -87.40000000000000568 1.00000000000000000 0.00000000000000000 
1 0.00000000000000000 0.00000000000000000 1.00000000000000000 0.00000000000000000 
1 0.00000000000000000 -87.40000000000000568 1.00000000000000000 0.00000000000000000 
1 0.00000000000000000 0.00000000000000000 1.00000000000000000 0.00000000000000000 
1 0.00000000000000000 -87.40000000000000568 1.00000000000000000 0.00000000000000000 
1 0.00000000000000000 0.00000000000000000 1.00000000000000000 0.00000000000000000 
1 0.00000000000000000 -87.40000000000000568 1.00000000000000000 0.00000000000000000 
1 0.00000000000000000 0.00000000000000000 1.00000000000000000 0.00000000000000000 
1 0.00000000000000000 -87.40000000000000568 1.00000000000000000 0.00000000000000000 
1 0.00000000000000000 0.00000000000000000 1.00000000000000000 0.00000000000000000 
1 0.00000000000000000 -87.40000000000000568 1.00000000000000000 0.00000000000000000 
1 0.00000000000000000 0.00000000000000000 1.00000000000000000 0.00000000000000000 
1 0.00000000000000000 -87.40000000000000568 1.00000000000000000 0.00000000000000000 
1 0.00000000000000000 0.00000000000000000 1.00000000000000000 0.00000000000000000 
1 0.00000000000000000 -87.40000000000000568 1.00000000000000000 0.00000000000000000 
1 4.71238898038468967 0.00000000000000000 0.00000000000000000 -1.00000000000000000 
1 -3.14159265358979312 0.00000000000000000 1.00000000000000000 0.00000000000000000 
2 0.58750000000000058 11.69999999999999929 -1.00000000000000000 0.00000000000000000 -0.00000000000000000 -1.00000000000000000 1.00000000000000000
1 0.00000000000000000 0.00000000000000000 1.00000000000000000 0.00000000000000000 
1 0.00000000000000000 -10.00000000000000000 1.00000000000000000 0.00000000000000000 
1 0.00000000000000000 0.00000000000000000 1.00000000000000000 0.00000000000000000 
1 0.00000000000000000 -87.40000000000000568 1.00000000000000000 0.00000000000000000 
1 0.00000000000000000 0.00000000000000000 1.00000000000000000 0.00000000000000000 
1 0.00000000000000000 -87.40000000000000568 1.00000000000000000 0.00000000000000000 
1 0.00000000000000000 0.00000000000000000 1.00000000000000000 0.00000000000000000 
1 0.00000000000000000 -87.40000000000000568 1.00000000000000000 0.00000000000000000 
1 0.00000000000000000 0.00000000000000000 1.00000000000000000 0.00000000000000000 
1 0.00000000000000000 -87.40000000000000568 1.00000000000000000 0.00000000000000000 
1 0.00000000000000000 0.00000000000000000 1.00000000000000000 0.00000000000000000 
1 0.00000000000000000 -87.40000000000000568 1.00000000000000000 0.00000000000000000 
1 0.00000000000000000 0.00000000000000000 1.00000000000000000 0.00000000000000000 
1 0.00000000000000000 -87.40000000000000568 1.00000000000000000 0.00000000000000000 
1 0.00000000000000000 0.00000000000000000 1.00000000000000000 0.00000000000000000 
1 0.00000000000000000 -87.40000000000000568 1.00000000000000000 0.00000000000000000 
1 0.00000000000000000 0.00000000000000000 1.00000000000000000 0.00000000000000000 
1 0.00000000000000000 -87.40000000000000568 1.00000000000000000 0.00000000000000000 
1 0.00000000000000000 0.00000000000000000 1.00000000000000000 0.00000000000000000 
1 0.00000000000000000 -87.40000000000000568 1.00000000000000000 0.00000000000000000 
1 0.00000000000000000 0.00000000000000000 1.00000000000000000 0.00000000000000000 
1 0.00000000000000000 -87.40000000000000568 1.00000000000000000 0.00000000000000000 
1 1.57079632679489700 0.00000000000000000 0.00000000000000000 -1.00000000000000000 
1 4.71238898038468967 0.00000000000000000 0.00000000000000000 -1.00000000000000000 
1 0.00000000000000000 0.00000000000000000 0.00000000000000000 -1.00000000000000000 
1 23.39999999999999858 0.00000000000000000 0.00000000000000000 -1.00000000000000000 
1 0.00000000000000000 0.00000000000000000 1.00000000000000000 0.00000000000000000 
2 -0.58750000000000058 -11.69999999999999929 -1.00000000000000000 0.00000000000000000 -0.00000000000000000 -1.00000000000000000 1.00000000000000000
1 0.00000000000000000 0.00000000000000000 1.00000000000000000 0.00000000000000000 
1 0.00000000000000000 -10.00000000000000000 1.00000000000000000 0.00000000000000000 
1 0.00000000000000000 0.00000000000000000 1.00000000000000000 0.00000000000000000 
1 0.00000000000000000 -87.40000000000000568 1.00000000000000000 0.00000000000000000 
1 0.00000000000000000 0.00000000000000000 1.00000000000000000 0.00000000000000000 
1 0.00000000000000000 -87.40000000000000568 1.00000000000000000 0.00000000000000000 
1 0.00000000000000000 0.00000000000000000 1.00000000000000000 0.00000000000000000 
1 0.00000000000000000 -87.40000000000000568 1.00000000000000000 0.00000000000000000 
1 0.00000000000000000 0.00000000000000000 1.00000000000000000 0.00000000000000000 
1 0.00000000000000000 -87.40000000000000568 1.00000000000000000 0.00000000000000000 
1 0.00000000000000000 0.00000000000000000 1.00000000000000000 0.00000000000000000 
1 0.00000000000000000 -87.40000000000000568 1.00000000000000000 0.00000000000000000 
1 0.00000000000000000 0.00000000000000000 1.00000000000000000 0.00000000000000000 
1 0.00000000000000000 -87.40000000000000568 1.00000000000000000 0.00000000000000000 
1 0.00000000000000000 0.00000000000000000 1.00000000000000000 0.00000000000000000 
1 0.00000000000000000 -87.40000000000000568 1.00000000000000000 0.00000000000000000 
1 0.00000000000000000 0.00000000000000000 1.00000000000000000 0.00000000000000000 
1 0.00000000000000000 -87.40000000000000568 1.00000000000000000 0.00000000000000000 
1 0.00000000000000000 0.00000000000000000 1.00000000000000000 0.00000000000000000 
1 0.00000000000000000 -87.40000000000000568 1.00000000000000000 0.00000000000000000 
1 0.00000000000000000 0.00000000000000000 1.00000000000000000 0.00000000000000000 
1 0.00000000000000000 -87.40000000000000568 1.00000000000000000 0.00000000000000000 
1 6.28318530717958623 0.00000000000000000 0.00000000000000000 -1.00000000000000000 
1 0.00000000000000000 0.00000000000000000 0.00000000000000000 -1.00000000000000000 
1 -4.71238898038468967 0.00000000000000000 1.00000000000000000 0.00000000000000000 
2 -0.58750000000000058 11.69999999999999929 -1.00000000000000000 0.00000000000000000 -0.00000000000000000 -1.00000000000000000 1.00000000000000000
1 0.00000000000000000 0.00000000000000000 1.00000000000000000 0.00000000000000000 
1 0.00000000000000000 -10.00000000000000000 1.00000000000000000 0.00000000000000000 
1 0.00000000000000000 0.00000000000000000 1.00000000000000000 0.00000000000000000 
1 0.00000000000000000 -87.40000000000000568 1.00000000000000000 0.00000000000000000 
1 0.00000000000000000 0.00000000000000000 1.00000000000000000 0.00000000000000000 
1 0.00000000000000000 -87.40000000000000568 1.00000000000000000 0.00000000000000000 
1 0.00000000000000000 0.00000000000000000 1.00000000000000000 0.00000000000000000 
1 0.00000000000000000 -87.40000000000000568 1.00000000000000000 0.00000000000000000 
1 0.00000000000000000 0.00000000000000000 1.00000000000000000 0.00000000000000000 
1 0.00000000000000000 -87.40000000000000568 1.00000000000000000 0.00000000000000000 
1 0.00000000000000000 0.00000000000000000 1.00000000000000000 0.00000000000000000 
1 0.00000000000000000 -87.40000000000000568 1.00000000000000000 0.00000000000000000 
1 0.00000000000000000 0.00000000000000000 1.00000000000000000 0.00000000000000000 
1 0.00000000000000000 -87.40000000000000568 1.00000000000000000 0.00000000000000000 
1 0.00000000000000000 0.00000000000000000 1.00000000000000000 0.00000000000000000 
1 0.00000000000000000 -87.40000000000000568 1.00000000000000000 0.00000000000000000 
1 0.00000000000000000 0.00000000000000000 1.00000000000000000 0.00000000000000000 
1 0.00000000000000000 -87.40000000000000568 1.00000000000000000 0.00000000000000000 
1 0.00000000000000000 0.00000000000000000 1.00000000000000000 0.00000000000000000 
1 0.00000000000000000 -87.40000000000000568 1.00000000000000000 0.00000000000000000 
1 0.00000000000000000 0.00000000000000000 1.00000000000000000 0.00000000000000000 
1 0.00000000000000000 -87.40000000000000568 1.00000000000000000 0.00000000000000000 
1 -1.00000000000000000 0.00000000000000000 1.00000000000000000 0.00000000000000000 
1 -1.00000000000000000 -87.40000000000000568 1.00000000000000000 0.00000000000000000 
Curves 16
1 -11.69999999999999929 -43.70000000000000284 1.58750000000001057 0.00000000000000000 1.00000000000000000 -0.00000000000000022 
1 11.69999999999999929 -43.70000000000000284 1.58750000000001057 0.00000000000000000 1.00000000000000000 -0.00000000000000022 
1 -12.69999999999999929 1.58750000000000036 0.00000000000000000 1.00000000000000000 0.00000000000000000 0.00000000000000000 
1 -12.69999999999999929 -43.70000000000000284 0.58750000000001068 0.00000000000000000 1.00000000000000000 -0.00000000000000022 
8 3.14159265358979312 4.71238898038468967
2 -11.69999999999999929 0.58750000000000058 -0.00000000000000026 0.00000000000000000 0.00000000000000044 1.00000000000000000 0.00000000000000000 -1.00000000000000000 0.00000000000000044 1.00000000000000000 0.00000000000000000 -0.00000000000000000 1.00000000000000000
1 12.69999999999999929 -43.70000000000000284 0.58750000000001068 0.00000000000000000 1.00000000000000000 -0.00000000000000022 
8 3.14159265358979312 4.71238898038468967
2 11.69999999999999929 0.58750000000000058 -0.00000000000000026 -0.00000000000000000 -0.00000000000000044 -1.00000000000000000 0.00000000000000000 -1.00000000000000000 0.00000000000000044 -1.00000000000000000 0.00000000000000000 0.00000000000000000 1.00000000000000000
1 -12.69999999999999929 -43.70000000000000284 -0.58749999999999136 0.00000000000000000 1.00000000000000000 -0.00000000000000022 
1 -12.69999999999999929 -1.58750000000000036 0.00000000000000000 0.00000000000000000 1.00000000000000000 0.00000000000000000 
1 12.69999999999999929 -43.70000000000000284 -0.58749999999999136 0.00000000000000000 1.00000000000000000 -0.00000000000000022 
1 12.69999999999999929 1.58750000000000036 0.00000000000000000 0.00000000000000000 -1.00000000000000000 0.00000000000000000 
1 -11.69999999999999929 -43.70000000000000284 -1.58749999999999147 0.00000000000000000 1.00000000000000000 -0.00000000000000022 
8 0.00000000000000000 1.57079632679489656
2 -11.69999999999999929 -0.58750000000000058 0.00000000000000026 -0.00000000000000000 -0.00000000000000044 -1.00000000000000000 0.00000000000000000 -1.00000000000000000 0.00000000000000044 -1.00000000000000000 0.00000000000000000 0.00000000000000000 1.00000000000000000
1 11.69999999999999929 -43.70000000000000284 -1.58749999999999147 0.00000000000000000 1.00000000000000000 -0.00000000000000022 
8 4.71238898038468967 6.28318530717958623
2 11.69999999999999929 -0.58750000000000058 0.00000000000000026 -0.00000000000000000 -0.00000000000000044 -1.00000000000000000 0.00000000000000000 -1.00000000000000000 0.00000000000000044 -1.00000000000000000 0.00000000000000000 0.00000000000000000 1.00000000000000000
1 12.69999999999999929 -1.58750000000000036 0.00000000000000000 -1.00000000000000000 0.00000000000000000 0.00000000000000000 
Polygon3D 0
PolygonOnTriangulations 0
Surfaces 53
1 -11.69999999999999929 -43.70000000000000284 1.58750000000000990 0.00000000000000000 -0.00000000000000022 -1.00000000000000000 1.00000000000000000 0.00000000000000000 0.00000000000000000 0.00000000000000000 -1.00000000000000000 0.00000000000000022 
2 -11.69999999999999929 -43.70000000000000284 0.58750000000001024 0.00000000000000000 -1.00000000000000000 0.00000000000000044 0.00000000000000000 -0.00000000000000044 -1.00000000000000000 1.00000000000000000 0.00000000000000000 0.00000000000000000 1.00000000000000000
2 11.69999999999999929 -43.70000000000000284 0.58750000000001024 -0.00000000000000000 -1.00000000000000000 0.00000000000000044 0.00000000000000000 -0.00000000000000044 -1.00000000000000000 -1.00000000000000000 -0.00000000000000000 -0.00000000000000000 1.00000000000000000
1 -12.69999999999999929 -43.70000000000000284 -0.58749999999999081 1.00000000000000000 -0.00000000000000000 0.00000000000000000 0.00000000000000000 0.00000000000000000 1.00000000000000000 -0.00000000000000000 -1.00000000000000000 0.00000000000000000 
2 -11.69999999999999929 0.58750000000000058 -0.00000000000000026 0.00000000000000000 0.00000000000000044 1.00000000000000000 0.00000000000000000 1.00000000000000000 -0.00000000000000044 -1.00000000000000000 0.00000000000000000 0.00000000000000000 1.00000000000000000
1 0.00000000000000025 0.00000000000000000 0.00000000000000000 0.00000000000000000 1.00000000000000000 -0.00000000000000022 0.00000000000000000 0.00000000000000022 1.00000000000000000 1.00000000000000000 -0.00000000000000000 0.00000000000000000 
2 -11.69999999999999929 0.00000000000000026 0.58750000000000058 0.00000000000000000 -1.00000000000000000 0.00000000000000044 0.00000000000000000 -0.00000000000000044 -1.00000000000000000 1.00000000000000000 0.00000000000000000 0.00000000000000000 1.00000000000000000
2 -11.69999999999999929 0.00000000000000026 0.58750000000000058 0.00000000000000000 -1.00000000000000000 0.00000000000000044 0.00000000000000000 -0.00000000000000044 -1.00000000000000000 1.00000000000000000 0.00000000000000000 0.00000000000000000 1.00000000000000000
2 -11.69999999999999929 0.00000000000000026 0.58750000000000058 0.00000000000000000 -1.00000000000000000 0.00000000000000044 0.00000000000000000 -0.00000000000000044 -1.00000000000000000 1.00000000000000000 0.00000000000000000 0.00000000000000000 1.00000000000000000
2 -11.69999999999999929 0.00000000000000026 0.58750000000000058 0.00000000000000000 -1.00000000000000000 0.00000000000000044 0.00000000000000000 -0.00000000000000044 -1.00000000000000000 1.00000000000000000 0.00000000000000000 0.00000000000000000 1.00000000000000000
2 -11.69999999999999929 0.00000000000000026 0.58750000000000058 0.00000000000000000 -1.00000000000000000 0.00000000000000044 0.00000000000000000 -0.00000000000000044 -1.00000000000000000 1.00000000000000000 0.00000000000000000 0.00000000000000000 1.00000000000000000
2 -11.69999999999999929 -43.70000000000000284 0.58750000000001024 0.00000000000000000 -1.00000000000000000 0.00000000000000044 0.00000000000000000 -0.00000000000000044 -1.00000000000000000 1.00000000000000000 0.00000000000000000 0.00000000000000000 1.00000000000000000
2 -11.69999999999999929 -43.70000000000000284 0.58750000000001024 0.00000000000000000 -1.00000000000000000 0.00000000000000044 0.00000000000000000 -0.00000000000000044 -1.00000000000000000 1.00000000000000000 0.00000000000000000 0.00000000000000000 1.00000000000000000
2 -11.69999999999999929 -43.70000000000000284 0.58750000000001024 0.00000000000000000 -1.00000000000000000 0.00000000000000044 0.00000000000000000 -0.00000000000000044 -1.00000000000000000 1.00000000000000000 0.00000000000000000 0.00000000000000000 1.00000000000000000
2 -11.69999999999999929 -43.70000000000000284 0.58750000000001024 0.00000000000000000 -1.00000000000000000 0.00000000000000044 0.00000000000000000 -0.00000000000000044 -1.00000000000000000 1.00000000000000000 0.00000000000000000 0.00000000000000000 1.00000000000000000
2 -11.69999999999999929 -43.70000000000000284 0.58750000000001024 0.00000000000000000 -1.00000000000000000 0.00000000000000044 0.00000000000000000 -0.00000000000000044 -1.00000000000000000 1.00000000000000000 0.00000000000000000 0.00000000000000000 1.00000000000000000
1 12.69999999999999929 -43.70000000000000284 0.58750000000000990 -1.00000000000000000 0.00000000000000000 0.00000000000000000 0.00000000000000000 0.00000000000000000 -1.00000000000000000 -0.00000000000000000 -1.00000000000000000 -0.00000000000000000 
2 11.69999999999999929 0.58750000000000058 -0.00000000000000026 0.00000000000000000 0.00000000000000044 1.00000000000000000 0.00000000000000000 1.00000000000000000 -0.00000000000000044 1.00000000000000000 -0.00000000000000000 -0.00000000000000000 1.00000000000000000
2 11.69999999999999929 0.00000000000000026 0.58750000000000058 -0.00000000000000000 -1.00000000000000000 0.00000000000000044 0.00000000000000000 -0.00000000000000044 -1.00000000000000000 -1.00000000000000000 -0.00000000000000000 -0.00000000000000000 1.00000000000000000
2 11.69999999999999929 0.00000000000000026 0.58750000000000058 -0.00000000000000000 -1.00000000000000000 0.00000000000000044 0.00000000000000000 -0.00000000000000044 -1.00000000000000000 -1.00000000000000000 -0.00000000000000000 -0.00000000000000000 1.00000000000000000
2 11.69999999999999929 0.00000000000000026 0.58750000000000058 -0.00000000000000000 -1.00000000000000000 0.00000000000000044 0.00000000000000000 -0.00000000000000044 -1.00000000000000000 -1.00000000000000000 -0.00000000000000000 -0.00000000000000000 1.00000000000000000
2 11.69999999999999929 0.00000000000000026 0.58750000000000058 -0.00000000000000000 -1.00000000000000000 0.00000000000000044 0.00000000000000000 -0.00000000000000044 -1.00000000000000000 -1.00000000000000000 -0.00000000000000000 -0.00000000000000000 1.00000000000000000
2 11.69999999999999929 0.00000000000000026 0.58750000000000058 -0.00000000000000000 -1.00000000000000000 0.00000000000000044 0.00000000000000000 -0.00000000000000044 -1.00000000000000000 -1.00000000000000000 -0.00000000000000000 -0.00000000000000000 1.00000000000000000
2 11.69999999999999929 -43.70000000000000284 0.58750000000001024 -0.00000000000000000 -1.00000000000000000 0.00000000000000044 0.00000000000000000 -0.00000000000000044 -1.00000000000000000 -1.00000000000000000 -0.00000000000000000 -0.00000000000000000 1.00000000000000000
2 11.69999999999999929 -43.70000000000000284 0.58750000000001024 -0.00000000000000000 -1.00000000000000000 0.00000000000000044 0.00000000000000000 -0.00000000000000044 -1.00000000000000000 -1.00000000000000000 -0.00000000000000000 -0.00000000000000000 1.00000000000000000
2 11.69999999999999929 -43.70000000000000284 0.58750000000001024 -0.00000000000000000 -1.00000000000000000 0.00000000000000044 0.00000000000000000 -0.00000000000000044 -1.00000000000000000 -1.00000000000000000 -0.00000000000000000 -0.00000000000000000 1.00000000000000000
2 11.69999999999999929 -43.70000000000000284 0.58750000000001024 -0.00000000000000000 -1.00000000000000000 0.00000000000000044 0.00000000000000000 -0.00000000000000044 -1.00000000000000000 -1.00000000000000000 -0.00000000000000000 -0.00000000000000000 1.00000000000000000
2 11.69999999999999929 -43.70000000000000284 0.58750000000001024 -0.00000000000000000 -1.00000000000000000 0.00000000000000044 0.00000000000000000 -0.00000000000000044 -1.00000000000000000 -1.00000000000000000 -0.00000000000000000 -0.00000000000000000 1.00000000000000000
2 -11.69999999999999929 -43.70000000000000284 -0.58749999999999092 -0.00000000000000000 -1.00000000000000000 0.00000000000000044 0.00000000000000000 -0.00000000000000044 -1.00000000000000000 -1.00000000000000000 -0.00000000000000000 -0.00000000000000000 1.00000000000000000
2 11.69999999999999929 -43.70000000000000284 -0.58749999999999092 -0.00000000000000000 -1.00000000000000000 0.00000000000000044 0.00000000000000000 -0.00000000000000044 -1.00000000000000000 -1.00000000000000000 -0.00000000000000000 -0.00000000000000000 1.00000000000000000
1 11.69999999999999929 -43.70000000000000284 -1.58749999999999081 0.00000000000000000 0.00000000000000022 1.00000000000000000 -1.00000000000000000 0.00000000000000000 0.00000000000000000 0.00000000000000000 -1.00000000000000000 0.00000000000000022 
2 -11.69999999999999929 -0.58750000000000058 0.00000000000000026 0.00000000000000000 0.00000000000000044 1.00000000000000000 0.00000000000000000 -1.00000000000000000 0.00000000000000044 -1.00000000000000000 -0.00000000000000000 0.00000000000000000 1.00000000000000000
2 -11.69999999999999929 -0.00000000000000026 -0.58750000000000058 -0.00000000000000000 -1.00000000000000000 0.00000000000000044 0.00000000000000000 -0.00000000000000044 -1.00000000000000000 -1.00000000000000000 -0.00000000000000000 -0.00000000000000000 1.00000000000000000
2 -11.69999999999999929 -0.00000000000000026 -0.58750000000000058 -0.00000000000000000 -1.00000000000000000 0.00000000000000044 0.00000000000000000 -0.00000000000000044 -1.00000000000000000 -1.00000000000000000 -0.00000000000000000 -0.00000000000000000 1.00000000000000000
2 -11.69999999999999929 -0.00000000000000026 -0.58750000000000058 -0.00000000000000000 -1.00000000000000000 0.00000000000000044 0.00000000000000000 -0.00000000000000044 -1.00000000000000000 -1.00000000000000000 -0.00000000000000000 -0.00000000000000000 1.00000000000000000
2 -11.69999999999999929 -0.00000000000000026 -0.58750000000000058 -0.00000000000000000 -1.00000000000000000 0.00000000000000044 0.00000000000000000 -0.00000000000000044 -1.00000000000000000 -1.00000000000000000 -0.00000000000000000 -0.00000000000000000 1.00000000000000000
2 -11.69999999999999929 -0.00000000000000026 -0.58750000000000058 -0.00000000000000000 -1.00000000000000000 0.00000000000000044 0.00000000000000000 -0.00000000000000044 -1.00000000000000000 -1.00000000000000000 -0.00000000000000000 -0.00000000000000000 1.00000000000000000
2 -11.69999999999999929 -43.70000000000000284 -0.58749999999999092 -0.00000000000000000 -1.00000000000000000 0.00000000000000044 0.00000000000000000 -0.00000000000000044 -1.00000000000000000 -1.00000000000000000 -0.00000000000000000 -0.00000000000000000 1.00000000000000000
2 -11.69999999999999929 -43.70000000000000284 -0.58749999999999092 -0.00000000000000000 -1.00000000000000000 0.00000000000000044 0.00000000000000000 -0.00000000000000044 -1.00000000000000000 -1.00000000000000000 -0.00000000000000000 -0.00000000000000000 1.00000000000000000
2 -11.69999999999999929 -43.70000000000000284 -0.58749999999999092 -0.00000000000000000 -1.00000000000000000 0.00000000000000044 0.00000000000000000 -0.00000000000000044 -1.00000000000000000 -1.00000000000000000 -0.00000000000000000 -0.00000000000000000 1.00000000000000000
2 -11.69999999999999929 -43.70000000000000284 -0.58749999999999092 -0.00000000000000000 -1.00000000000000000 0.00000000000000044 0.00000000000000000 -0.00000000000000044 -1.00000000000000000 -1.00000000000000000 -0.00000000000000000 -0.00000000000000000 1.00000000000000000
2 -11.69999999999999929 -43.70000000000000284 -0.58749999999999092 -0.00000000000000000 -1.00000000000000000 0.00000000000000044 0.00000000000000000 -0.00000000000000044 -1.00000000000000000 -1.00000000000000000 -0.00000000000000000 -0.00000000000000000 1.00000000000000000
2 11.69999999999999929 -0.58750000000000058 0.00000000000000026 0.00000000000000000 0.00000000000000044 1.00000000000000000 1.00000000000000000 0.00000000000000000 -0.00000000000000000 0.00000000000000000 -1.00000000000000000 0.00000000000000044 1.00000000000000000
2 11.69999999999999929 -0.00000000000000026 -0.58750000000000058 -0.00000000000000000 -1.00000000000000000 0.00000000000000044 0.00000000000000000 -0.00000000000000044 -1.00000000000000000 -1.00000000000000000 -0.00000000000000000 -0.00000000000000000 1.00000000000000000
2 11.69999999999999929 -0.00000000000000026 -0.58750000000000058 -0.00000000000000000 -1.00000000000000000 0.00000000000000044 0.00000000000000000 -0.00000000000000044 -1.00000000000000000 -1.00000000000000000 -0.00000000000000000 -0.00000000000000000 1.00000000000000000
2 11.69999999999999929 -0.00000000000000026 -0.58750000000000058 -0.00000000000000000 -1.00000000000000000 0.00000000000000044 0.00000000000000000 -0.00000000000000044 -1.00000000000000000 -1.00000000000000000 -0.00000000000000000 -0.00000000000000000 1.00000000000000000
2 11.69999999999999929 -0.00000000000000026 -0.58750000000000058 -0.00000000000000000 -1.00000000000000000 0.00000000000000044 0.00000000000000000 -0.00000000000000044 -1.00000000000000000 -1.00000000000000000 -0.00000000000000000 -0.00000000000000000 1.00000000000000000
2 11.69999999999999929 -0.00000000000000026 -0.58750000000000058 -0.00000000000000000 -1.00000000000000000 0.00000000000000044 0.00000000000000000 -0.00000000000000044 -1.00000000000000000 -1.00000000000000000 -0.00000000000000000 -0.00000000000000000 1.00000000000000000
2 11.69999999999999929 -43.70000000000000284 -0.58749999999999092 -0.00000000000000000 -1.00000000000000000 0.00000000000000044 0.00000000000000000 -0.00000000000000044 -1.00000000000000000 -1.00000000000000000 -0.00000000000000000 -0.00000000000000000 1.00000000000000000
2 11.69999999999999929 -43.70000000000000284 -0.58749999999999092 -0.00000000000000000 -1.00000000000000000 0.00000000000000044 0.00000000000000000 -0.00000000000000044 -1.00000000000000000 -1.00000000000000000 -0.00000000000000000 -0.00000000000000000 1.00000000000000000
2 11.69999999999999929 -43.70000000000000284 -0.58749999999999092 -0.00000000000000000 -1.00000000000000000 0.00000000000000044 0.00000000000000000 -0.00000000000000044 -1.00000000000000000 -1.00000000000000000 -0.00000000000000000 -0.00000000000000000 1.00000000000000000
2 11.69999999999999929 -43.70000000000000284 -0.58749999999999092 -0.00000000000000000 -1.00000000000000000 0.00000000000000044 0.00000000000000000 -0.00000000000000044 -1.00000000000000000 -1.00000000000000000 -0.00000000000000000 -0.00000000000000000 1.00000000000000000
2 11.69999999999999929 -43.70000000000000284 -0.58749999999999092 -0.00000000000000000 -1.00000000000000000 0.00000000000000044 0.00000000000000000 -0.00000000000000044 -1.00000000000000000 -1.00000000000000000 -0.00000000000000000 -0.00000000000000000 1.00000000000000000
Triangulations 0

TShapes 44
Ve
0.000000100000000
-11.699999999999999 1.587500000000001 -0.000000000000001
0 0

0101101
*
Ed
 0.000000100000000 1 1 0
1  1 0 0.000000000000000 87.400000000000006
2  1 2 0 0.000000000000000 87.400000000000006
4 C1 1 0 2 0
2  2 1 0 0.000000000000000 87.400000000000006
0

0101000
+44 12 -44 14 *
Ve
0.000000100000000
11.699999999999999 1.587500000000001 -0.000000000000001
0 0

0101101
*
Ed
 0.000000100000000 1 1 0
1  2 0 0.000000000000000 87.400000000000006
2  3 3 0 0.000000000000000 87.400000000000006
4 C1 1 0 3 0
2  4 1 0 0.000000000000000 87.400000000000006
0

0101000
+42 12 -42 14 *
Ed
 0.000000100000000 1 1 0
1  3 0 1.000000000000000 24.399999999999999
2  5 1 20 1.000000000000000 24.399999999999999
2  6 1 21 1.000000000000000 24.399999999999999
0

0101000
+44 22 -42 22 *
Wi

0101100
+43 0 -41 0 -40 19 +40 23 *
Fa
0  0.000000100000000 1 0

0101000
+39 0 *
Ve
0.000000100000000
-12.699999999999999 0.587500000000001 -0.000000000000000
0 0

0101101
*
Ed
 0.000000100000000 1 1 0
1  4 0 0.000000000000000 87.400000000000006
2  7 2 0 0.000000000000000 87.400000000000006
4 C1 2 0 4 0
0

0101000
+37 12 -37 14 *
Ed
 0.000000100000000 1 1 0
1  5 0 3.141592653589793 4.712388980384690
2  8 5 0 3.141592653589793 4.712388980384690
2  9 6 24 3.141592653589793 4.712388980384690
2  10 7 27 3.141592653589793 4.712388980384690
2  11 7 29 3.141592653589793 4.712388980384690
2  12 8 32 3.141592653589793 4.712388980384690
2  13 8 34 3.141592653589793 4.712388980384690
2  14 9 37 3.141592653589793 4.712388980384690
2  15 9 39 3.141592653589793 4.712388980384690
2  16 10 42 3.141592653589793 4.712388980384690
2  17 10 44 3.141592653589793 4.712388980384690
2  18 11 47 3.141592653589793 4.712388980384690
2  19 11 49 3.141592653589793 4.712388980384690
2  20 12 53 3.141592653589793 4.712388980384690
2  21 12 55 3.141592653589793 4.712388980384690
2  22 13 59 3.141592653589793 4.712388980384690
2  23 13 61 3.141592653589793 4.712388980384690
2  24 14 65 3.141592653589793 4.712388980384690
2  25 14 67 3.141592653589793 4.712388980384690
2  26 15 71 3.141592653589793 4.712388980384690
2  27 15 73 3.141592653589793 4.712388980384690
2  28 16 77 3.141592653589793 4.712388980384690
2  29 16 79 3.141592653589793 4.712388980384690
2  30 2 80 3.141592653589793 4.712388980384690
2  31 2 81 3.141592653589793 4.712388980384690
0

0101000
+44 0 -37 0 *
Wi

0101100
+43 0 -36 0 -35 12 +35 14 *
Fa
0  0.000000100000000 2 0

0101000
+34 0 *
Ve
0.000000100000000
12.699999999999999 0.587500000000001 -0.000000000000000
0 0

0101101
*
Ed
 0.000000100000000 1 1 0
1  6 0 0.000000000000000 87.400000000000006
2  32 3 0 0.000000000000000 87.400000000000006
4 C1 3 0 17 0
0

0101000
+32 12 -32 14 *
Ed
 0.000000100000000 1 1 0
1  7 0 3.141592653589793 4.712388980384690
2  33 18 0 3.141592653589793 4.712388980384690
2  34 6 24 3.141592653589793 4.712388980384690
2  35 19 27 3.141592653589793 4.712388980384690
2  36 19 29 3.141592653589793 4.712388980384690
2  37 20 32 3.141592653589793 4.712388980384690
2  38 20 34 3.141592653589793 4.712388980384690
2  39 21 37 3.141592653589793 4.712388980384690
2  40 21 39 3.141592653589793 4.712388980384690
2  41 22 42 3.141592653589793 4.712388980384690
2  42 22 44 3.141592653589793 4.712388980384690
2  43 23 47 3.141592653589793 4.712388980384690
2  44 23 49 3.141592653589793 4.712388980384690
2  45 24 53 3.141592653589793 4.712388980384690
2  46 24 55 3.141592653589793 4.712388980384690
2  47 25 59 3.141592653589793 4.712388980384690
2  48 25 61 3.141592653589793 4.712388980384690
2  49 26 65 3.141592653589793 4.712388980384690
2  50 26 67 3.141592653589793 4.712388980384690
2  51 27 71 3.141592653589793 4.712388980384690
2  52 27 73 3.141592653589793 4.712388980384690
2  53 28 77 3.141592653589793 4.712388980384690
2  54 28 79 3.141592653589793 4.712388980384690
2  55 3 80 3.141592653589793 4.712388980384690
2  56 3 81 3.141592653589793 4.712388980384690
0

0101000
+42 0 -32 0 *
Wi

0101100
+41 0 -31 0 -30 12 +30 14 *
Fa
0  0.000000100000000 3 0

0101000
+29 0 *
Ve
0.000000100000000
-12.699999999999999 -0.587500000000001 0.000000000000000
0 0

0101101
*
Ed
 0.000000100000000 1 1 0
1  8 0 0.000000000000000 87.400000000000006
2  57 29 0 0.000000000000000 87.400000000000006
4 C1 4 0 29 0
0

0101000
+27 12 -27 14 *
Ed
 0.000000100000000 1 1 0
1  9 0 1.000000000000000 2.175000000000001
0

0101000
+27 22 -37 22 *
Wi

0101100
+26 0 -36 0 -25 19 +25 23 *
Fa
0  0.000000100000000 4 0

0101000
+24 0 *
Ve
0.000000100000000
12.699999999999999 -0.587500000000001 0.000000000000000
0 0

0101101
*
Ed
 0.000000100000000 1 1 0
1  10 0 0.000000000000000 87.400000000000006
2  58 30 0 0.000000000000000 87.400000000000006
4 C1 17 0 30 0
0

0101000
+22 12 -22 14 *
Ed
 0.000000100000000 1 1 0
1  11 0 1.000000000000000 2.175000000000001
0

0101000
+32 22 -22 22 *
Wi

0101100
+31 0 -21 0 -20 19 +20 23 *
Fa
0  0.000000100000000 17 0

0101000
+19 0 *
Ve
0.000000100000000
-11.699999999999999 -1.587500000000001 0.000000000000001
0 0

0101101
*
Ed
 0.000000100000000 1 1 0
1  12 0 0.000000000000000 87.400000000000006
2  59 29 0 0.000000000000000 87.400000000000006
4 C1 29 0 31 0
2  60 31 0 0.000000000000000 87.400000000000006
0

0101000
+17 12 -17 14 *
Ed
 0.000000100000000 1 1 0
1  13 0 0.000000000000000 1.570796326794897
2  61 32 0 0.000000000000000 1.570796326794897
2  62 6 24 0.000000000000000 1.570796326794897
2  63 33 27 0.000000000000000 1.570796326794897
2  64 33 29 0.000000000000000 1.570796326794897
2  65 34 32 0.000000000000000 1.570796326794897
2  66 34 34 0.000000000000000 1.570796326794897
2  67 35 37 0.000000000000000 1.570796326794897
2  68 35 39 0.000000000000000 1.570796326794897
2  69 36 42 0.000000000000000 1.570796326794897
2  70 36 44 0.000000000000000 1.570796326794897
2  71 37 47 0.000000000000000 1.570796326794897
2  72 37 49 0.000000000000000 1.570796326794897
2  73 38 53 0.000000000000000 1.570796326794897
2  74 38 55 0.000000000000000 1.570796326794897
2  75 39 59 0.000000000000000 1.570796326794897
2  76 39 61 0.000000000000000 1.570796326794897
2  77 40 65 0.000000000000000 1.570796326794897
2  78 40 67 0.000000000000000 1.570796326794897
2  79 41 71 0.000000000000000 1.570796326794897
2  80 41 73 0.000000000000000 1.570796326794897
2  81 42 77 0.000000000000000 1.570796326794897
2  82 42 79 0.000000000000000 1.570796326794897
2  83 29 80 0.000000000000000 1.570796326794897
2  84 29 81 0.000000000000000 1.570796326794897
0

0101000
+17 0 -27 0 *
Wi

0101100
+16 0 -26 0 -15 12 +15 14 *
Fa
0  0.000000100000000 29 0

0101000
+14 0 *
Ve
0.000000100000000
11.699999999999999 -1.587500000000001 0.000000000000001
0 0

0101101
*
Ed
 0.000000100000000 1 1 0
1  14 0 0.000000000000000 87.400000000000006
2  85 30 0 0.000000000000000 87.400000000000006
4 C1 30 0 31 0
2  86 31 0 0.000000000000000 87.400000000000006
0

0101000
+12 12 -12 14 *
Ed
 0.000000100000000 1 1 0
1  15 0 4.712388980384690 6.283185307179586
2  87 43 0 4.712388980384690 6.283185307179586
2  88 6 24 4.712388980384690 6.283185307179586
2  89 44 27 4.712388980384690 6.283185307179586
2  90 44 29 4.712388980384690 6.283185307179586
2  91 45 32 4.712388980384690 6.283185307179586
2  92 45 34 4.712388980384690 6.283185307179586
2  93 46 37 4.712388980384690 6.283185307179586
2  94 46 39 4.712388980384690 6.283185307179586
2  95 47 42 4.712388980384690 6.283185307179586
2  96 47 44 4.712388980384690 6.283185307179586
2  97 48 47 4.712388980384690 6.283185307179586
2  98 48 49 4.712388980384690 6.283185307179586
2  99 49 53 4.712388980384690 6.283185307179586
2  100 49 55 4.712388980384690 6.283185307179586
2  101 50 59 4.712388980384690 6.283185307179586
2  102 50 61 4.712388980384690 6.283185307179586
2  103 51 65 4.712388980384690 6.283185307179586
2  104 51 67 4.712388980384690 6.283185307179586
2  105 52 71 4.712388980384690 6.283185307179586
2  106 52 73 4.712388980384690 6.283185307179586
2  107 53 77 4.712388980384690 6.283185307179586
2  108 53 79 4.712388980384690 6.283185307179586
2  109 30 80 4.712388980384690 6.283185307179586
2  110 30 81 4.712388980384690 6.283185307179586
0

0101000
+22 0 -12 0 *
Wi

0101100
+21 0 -11 0 -10 12 +10 14 *
Fa
0  0.000000100000000 30 0

0101000
+9 0 *
Ed
 0.000000100000000 1 1 0
1  16 0 1.000000000000000 24.399999999999999
2  111 31 20 1.000000000000000 24.399999999999999
2  112 31 21 1.000000000000000 24.399999999999999
0

0101000
+12 22 -17 22 *
Wi

0101100
+11 0 -16 0 -7 19 +7 23 *
Fa
0  0.000000100000000 31 0

0101000
+6 0 *
Wi

0101100
+40 84 -35 0 +30 0 +25 84 +20 84 +15 0 +10 0 +7 84 *
Fa
0  0.000000100000000 6 0

0101000
+4 83 *
Sh

0101100
+38 0 -33 0 +28 0 +23 0 +18 0 +13 0 +8 0 +5 0 +3 82 -3 85 
*
So

1100000
-2 0 *

+1 1 