
CASCADE Topology V1, (c) Matra-Datavision
Locations 43
1
1.000000000000000 0.000000000000000 0.000000000000000 0.000000000000000 
0.000000000000000 1.000000000000000 0.000000000000000 0.000000000000000 
0.000000000000000 0.000000000000000 1.000000000000000 0.000000000000000 
1
1.000000000000000 0.000000000000000 0.000000000000000 0.000000000000000 
0.000000000000000 1.000000000000000 0.000000000000000 0.000000000000000 
0.000000000000000 0.000000000000000 1.000000000000000 0.000000000000000 
1
1.000000000000000 0.000000000000000 0.000000000000000 0.000000000000000 
0.000000000000000 1.000000000000000 0.000000000000000 0.000000000000000 
0.000000000000000 0.000000000000000 1.000000000000000 0.000000000000000 
2  2 1 3 -1 0
1
1.000000000000000 0.000000000000000 0.000000000000000 0.000000000000000 
0.000000000000000 1.000000000000000 0.000000000000000 0.000000000000000 
0.000000000000000 0.000000000000000 1.000000000000000 0.000000000000000 
2  5 -1 3 1 2 -1 0
1
1.000000000000000 0.000000000000000 0.000000000000000 0.000000000000000 
0.000000000000000 1.000000000000000 0.000000000000000 0.000000000000000 
0.000000000000000 0.000000000000000 1.000000000000000 0.000000000000000 
1
1.000000000000000 0.000000000000000 0.000000000000000 0.000000000000000 
0.000000000000000 0.000000000000000 -1.000000000000000 0.000000000000000 
0.000000000000000 1.000000000000000 0.000000000000000 0.000000000000000 
1
1.000000000000000 0.000000000000000 0.000000000000000 0.000000000000000 
0.000000000000000 -0.000000000000000 -1.000000000000000 0.000000000000000 
0.000000000000000 1.000000000000000 -0.000000000000000 0.000000000000000 
1
1.000000000000000 0.000000000000000 0.000000000000000 0.000000000000000 
0.000000000000000 1.000000000000000 0.000000000000000 0.000000000000000 
0.000000000000000 0.000000000000000 1.000000000000000 0.000000000000000 
1
1.000000000000000 0.000000000000000 0.000000000000000 0.000000000000000 
0.000000000000000 1.000000000000000 0.000000000000000 0.000000000000000 
0.000000000000000 0.000000000000000 1.000000000000000 0.000000000000000 
1
1.000000000000000 0.000000000000000 0.000000000000000 0.000000000000000 
0.000000000000000 0.000000000000000 -1.000000000000000 0.000000000000000 
0.000000000000000 1.000000000000000 0.000000000000000 0.000000000000000 
1
1.000000000000000 0.000000000000000 0.000000000000000 0.000000000000000 
0.000000000000000 1.000000000000000 0.000000000000000 0.000000000000000 
0.000000000000000 0.000000000000000 1.000000000000000 0.000000000000000 
1
1.000000000000000 0.000000000000000 0.000000000000000 0.000000000000000 
0.000000000000000 1.000000000000000 0.000000000000000 0.000000000000000 
0.000000000000000 0.000000000000000 1.000000000000000 0.000000000000000 
1
1.000000000000000 0.000000000000000 0.000000000000000 0.000000000000000 
0.000000000000000 1.000000000000000 0.000000000000000 0.000000000000000 
0.000000000000000 0.000000000000000 1.000000000000000 0.000000000000000 
1
1.000000000000000 0.000000000000000 0.000000000000000 0.000000000000000 
0.000000000000000 1.000000000000000 0.000000000000000 0.000000000000000 
0.000000000000000 0.000000000000000 1.000000000000000 0.000000000000000 
1
1.000000000000000 0.000000000000000 0.000000000000000 0.000000000000000 
0.000000000000000 1.000000000000000 0.000000000000000 0.000000000000000 
0.000000000000000 0.000000000000000 1.000000000000000 0.000000000000000 
1
1.000000000000000 0.000000000000000 0.000000000000000 0.000000000000000 
0.000000000000000 1.000000000000000 0.000000000000000 0.000000000000000 
0.000000000000000 0.000000000000000 1.000000000000000 0.000000000000000 
1
1.000000000000000 0.000000000000000 0.000000000000000 0.000000000000000 
0.000000000000000 1.000000000000000 0.000000000000000 0.000000000000000 
0.000000000000000 0.000000000000000 1.000000000000000 0.000000000000000 
1
1.000000000000000 0.000000000000000 0.000000000000000 -0.000000000000000 
0.000000000000000 1.000000000000000 0.000000000000000 -43.700000000000003 
0.000000000000000 0.000000000000000 1.000000000000000 0.000000000000010 
2  7 1 8 1 9 -1 10 1 11 1 12 1 13 1 14 1 15 1 16 1 17 1 18 1 19 -1 20 1 2 1 3 -1 0
2  5 -1 3 1 2 -1 20 -1 19 1 18 -1 17 -1 16 -1 15 -1 14 -1 13 -1 12 -1 11 -1 10 -1 9 1 8 -1 7 -1 0
1
1.000000000000000 0.000000000000000 0.000000000000000 0.000000000000000 
0.000000000000000 1.000000000000000 0.000000000000000 87.400000000000006 
0.000000000000000 0.000000000000000 1.000000000000000 -0.000000000000019 
2  7 1 8 1 9 -1 10 1 11 1 12 1 13 1 14 1 15 1 16 1 17 1 18 1 19 -1 20 1 23 1 2 1 3 -1 0
2  5 -1 3 1 2 -1 23 -1 20 -1 19 1 18 -1 17 -1 16 -1 15 -1 14 -1 13 -1 12 -1 11 -1 10 -1 9 1 8 -1 7 -1 0
1
1.000000000000000 0.000000000000000 0.000000000000000 0.000000000000000 
0.000000000000000 1.000000000000000 0.000000000000000 0.000000000000000 
0.000000000000000 0.000000000000000 1.000000000000000 0.000000000000000 
1
1.000000000000000 0.000000000000000 0.000000000000000 0.000000000000000 
0.000000000000000 1.000000000000000 0.000000000000000 0.000000000000000 
0.000000000000000 -0.000000000000000 1.000000000000000 1.587500000000000 
2  26 1 27 1 3 -1 0
2  3 1 27 -1 26 -1 0
2  5 -1 3 1 27 -1 26 -1 0
2  11 1 12 1 13 1 14 1 15 1 16 1 17 1 18 1 19 -1 20 1 0
2  20 -1 19 1 18 -1 17 -1 16 -1 15 -1 14 -1 13 -1 12 -1 11 -1 0
2  5 -1 3 1 2 -1 20 -1 19 1 18 -1 17 -1 16 -1 15 -1 14 -1 13 -1 12 -1 11 -1 0
2  11 1 12 1 13 1 14 1 15 1 16 1 17 1 18 1 19 -1 20 1 23 1 0
2  23 -1 20 -1 19 1 18 -1 17 -1 16 -1 15 -1 14 -1 13 -1 12 -1 11 -1 0
2  5 -1 3 1 2 -1 23 -1 20 -1 19 1 18 -1 17 -1 16 -1 15 -1 14 -1 13 -1 12 -1 11 -1 0
2  9 -1 10 1 11 1 12 1 13 1 14 1 15 1 16 1 17 1 18 1 19 -1 20 1 2 1 3 -1 0
2  10 -1 9 1 0
2  7 1 8 1 9 -1 10 1 0
2  9 -1 10 1 11 1 12 1 13 1 14 1 15 1 16 1 17 1 18 1 19 -1 20 1 23 1 2 1 3 -1 0
2  5 -1 0
2  7 1 8 1 9 -1 10 1 11 1 12 1 13 1 14 1 15 1 16 1 17 1 18 1 19 -1 20 1 0
2  7 1 8 1 9 -1 10 1 11 1 12 1 13 1 14 1 15 1 16 1 17 1 18 1 19 -1 20 1 23 1 0
Curve2ds 24
1 3.14159265358979312 0.00000000000000000 0.00000000000000000 -1.00000000000000000 
1 3.14159265358979312 0.00000000000000000 0.00000000000000000 -1.00000000000000000 
1 0.00000000000000000 0.00000000000000000 1.00000000000000000 0.00000000000000000 
1 0.00000000000000000 0.00000000000000000 1.00000000000000000 0.00000000000000000 
1 4.71238898038468967 0.00000000000000000 0.00000000000000000 -1.00000000000000000 
1 0.00000000000000000 0.00000000000000000 1.00000000000000000 0.00000000000000000 
1 0.00000000000000000 -87.40000000000000568 1.00000000000000000 0.00000000000000000 
1 0.00000000000000000 0.00000000000000000 1.00000000000000000 0.00000000000000000 
1 0.00000000000000000 0.00000000000000000 1.00000000000000000 0.00000000000000000 
1 0.00000000000000000 0.00000000000000000 1.00000000000000000 0.00000000000000000 
1 0.00000000000000000 -87.40000000000000568 1.00000000000000000 0.00000000000000000 
1 0.00000000000000000 -87.40000000000000568 1.00000000000000000 0.00000000000000000 
1 0.00000000000000000 -87.40000000000000568 1.00000000000000000 0.00000000000000000 
1 4.71238898038468967 0.00000000000000000 0.00000000000000000 -1.00000000000000000 
1 0.00000000000000000 0.00000000000000000 0.00000000000000000 -1.00000000000000000 
1 6.28318530717958623 0.00000000000000000 0.00000000000000000 -1.00000000000000000 
1 0.00000000000000000 -3.17500000000000071 1.00000000000000000 0.00000000000000000 
1 0.00000000000000000 0.00000000000000000 0.00000000000000000 -1.00000000000000000 
1 6.28318530717958623 0.00000000000000000 0.00000000000000000 -1.00000000000000000 
1 0.00000000000000000 -3.17500000000000071 1.00000000000000000 0.00000000000000000 
1 1.57079632679489700 0.00000000000000000 0.00000000000000000 -1.00000000000000000 
1 4.71238898038468967 0.00000000000000000 0.00000000000000000 -1.00000000000000000 
1 0.00000000000000000 0.00000000000000000 0.00000000000000000 -1.00000000000000000 
1 6.28318530717958623 0.00000000000000000 0.00000000000000000 -1.00000000000000000 
Curves 30
1 -11.69999999999999929 -43.70000000000000284 1.58750000000001057 0.00000000000000000 1.00000000000000000 -0.00000000000000022 
1 -12.69999999999999929 1.58750000000000036 0.00000000000000000 1.00000000000000000 0.00000000000000000 0.00000000000000000 
1 -12.69999999999999929 1.58750000000000036 0.00000000000000000 1.00000000000000000 0.00000000000000000 0.00000000000000000 
1 11.69999999999999929 -43.70000000000000284 1.58750000000001057 0.00000000000000000 1.00000000000000000 -0.00000000000000022 
2 0.00000000000000000 31.00000000000000000 0.00000000000000000 0.00000000000000000 0.00000000000000000 1.00000000000000000 1.00000000000000000 0.00000000000000000 -0.00000000000000000 -0.00000000000000000 1.00000000000000000 0.00000000000000000 3.96875000000000000
2 0.00000000000000000 -31.00000000000000000 0.00000000000000000 0.00000000000000000 0.00000000000000000 1.00000000000000000 1.00000000000000000 0.00000000000000000 -0.00000000000000000 -0.00000000000000000 1.00000000000000000 0.00000000000000000 3.96875000000000000
1 -12.69999999999999929 -43.70000000000000284 0.58750000000001068 0.00000000000000000 1.00000000000000000 -0.00000000000000022 
8 3.14159265358979312 4.71238898038468967
2 -11.69999999999999929 0.58750000000000058 -0.00000000000000026 -0.00000000000000000 0.00000000000000044 1.00000000000000000 0.00000000000000000 -1.00000000000000000 0.00000000000000044 1.00000000000000000 0.00000000000000000 0.00000000000000000 1.00000000000000000
8 3.14159265358979312 4.71238898038468967
2 -11.69999999999999929 0.58750000000000058 -0.00000000000000026 -0.00000000000000000 0.00000000000000044 1.00000000000000000 0.00000000000000000 -1.00000000000000000 0.00000000000000044 1.00000000000000000 0.00000000000000000 0.00000000000000000 1.00000000000000000
8 3.14159265358979312 4.71238898038468967
2 11.69999999999999929 0.58750000000000058 -0.00000000000000026 -0.00000000000000000 -0.00000000000000044 -1.00000000000000000 0.00000000000000000 -1.00000000000000000 0.00000000000000044 -1.00000000000000000 0.00000000000000000 0.00000000000000000 1.00000000000000000
1 -12.69999999999999929 -1.58750000000000036 0.00000000000000000 0.00000000000000000 1.00000000000000000 0.00000000000000000 
1 12.69999999999999929 1.58750000000000036 0.00000000000000000 0.00000000000000000 -1.00000000000000000 0.00000000000000000 
8 0.00000000000000000 1.57079632679489656
2 -11.69999999999999929 -0.58750000000000058 0.00000000000000026 -0.00000000000000000 -0.00000000000000044 -1.00000000000000000 0.00000000000000000 -1.00000000000000000 0.00000000000000044 -1.00000000000000000 0.00000000000000000 0.00000000000000000 1.00000000000000000
8 4.71238898038468967 6.28318530717958623
2 11.69999999999999929 -0.58750000000000058 0.00000000000000026 -0.00000000000000000 -0.00000000000000044 -1.00000000000000000 0.00000000000000000 -1.00000000000000000 0.00000000000000044 -1.00000000000000000 0.00000000000000000 0.00000000000000000 1.00000000000000000
1 12.69999999999999929 -1.58750000000000036 0.00000000000000000 -1.00000000000000000 0.00000000000000000 0.00000000000000000 
8 3.14159265358979312 4.71238898038468967
2 11.69999999999999929 0.58750000000000058 -0.00000000000000026 -0.00000000000000000 -0.00000000000000044 -1.00000000000000000 0.00000000000000000 -1.00000000000000000 0.00000000000000044 -1.00000000000000000 0.00000000000000000 0.00000000000000000 1.00000000000000000
1 -12.69999999999999929 -1.58750000000000036 0.00000000000000000 0.00000000000000000 1.00000000000000000 0.00000000000000000 
1 12.69999999999999929 1.58750000000000036 0.00000000000000000 0.00000000000000000 -1.00000000000000000 0.00000000000000000 
8 0.00000000000000000 1.57079632679489656
2 -11.69999999999999929 -0.58750000000000058 0.00000000000000026 -0.00000000000000000 -0.00000000000000044 -1.00000000000000000 0.00000000000000000 -1.00000000000000000 0.00000000000000044 -1.00000000000000000 0.00000000000000000 0.00000000000000000 1.00000000000000000
8 4.71238898038468967 6.28318530717958623
2 11.69999999999999929 -0.58750000000000058 0.00000000000000026 -0.00000000000000000 -0.00000000000000044 -1.00000000000000000 0.00000000000000000 -1.00000000000000000 0.00000000000000044 -1.00000000000000000 0.00000000000000000 0.00000000000000000 1.00000000000000000
1 12.69999999999999929 -1.58750000000000036 0.00000000000000000 -1.00000000000000000 0.00000000000000000 0.00000000000000000 
1 12.69999999999999929 -43.70000000000000284 0.58750000000001068 0.00000000000000000 1.00000000000000000 -0.00000000000000022 
1 3.96875000000000000 31.00000000000000000 1.58749999999999347 -0.00000000000000000 -0.00000000000000022 -1.00000000000000000 
2 0.00000000000000000 31.00000000000000000 -1.58750000000000724 -0.00000000000000000 0.00000000000000022 1.00000000000000000 1.00000000000000000 0.00000000000000000 0.00000000000000000 0.00000000000000000 1.00000000000000000 -0.00000000000000022 3.96875000000000000
1 3.96875000000000000 -31.00000000000000000 1.58750000000000724 -0.00000000000000000 -0.00000000000000022 -1.00000000000000000 
2 0.00000000000000000 -31.00000000000000000 -1.58749999999999347 -0.00000000000000000 0.00000000000000022 1.00000000000000000 1.00000000000000000 0.00000000000000000 0.00000000000000000 0.00000000000000000 1.00000000000000000 -0.00000000000000022 3.96875000000000000
1 -12.69999999999999929 -43.70000000000000284 -0.58749999999999136 0.00000000000000000 1.00000000000000000 -0.00000000000000022 
1 12.69999999999999929 -43.70000000000000284 -0.58749999999999136 0.00000000000000000 1.00000000000000000 -0.00000000000000022 
1 -11.69999999999999929 -43.70000000000000284 -1.58749999999999147 0.00000000000000000 1.00000000000000000 -0.00000000000000022 
1 11.69999999999999929 -43.70000000000000284 -1.58749999999999147 0.00000000000000000 1.00000000000000000 -0.00000000000000022 
Polygon3D 0
PolygonOnTriangulations 0
Surfaces 12
1 -11.69999999999999929 -43.70000000000000284 1.58750000000000990 0.00000000000000000 -0.00000000000000022 -1.00000000000000000 1.00000000000000000 0.00000000000000000 0.00000000000000000 0.00000000000000000 -1.00000000000000000 0.00000000000000022 
2 -11.69999999999999929 -43.70000000000000284 0.58750000000001024 0.00000000000000000 -1.00000000000000000 0.00000000000000044 0.00000000000000000 -0.00000000000000044 -1.00000000000000000 1.00000000000000000 0.00000000000000000 0.00000000000000000 1.00000000000000000
2 11.69999999999999929 -43.70000000000000284 0.58750000000001024 0.00000000000000000 -1.00000000000000000 0.00000000000000044 0.00000000000000000 -0.00000000000000044 -1.00000000000000000 -1.00000000000000000 -0.00000000000000000 -0.00000000000000000 1.00000000000000000
2 0.00000000000000000 31.00000000000000000 1.58749999999999347 0.00000000000000000 0.00000000000000022 1.00000000000000000 1.00000000000000000 0.00000000000000000 -0.00000000000000000 -0.00000000000000000 1.00000000000000000 -0.00000000000000022 3.96875000000000000
2 0.00000000000000000 -31.00000000000000000 1.58750000000000724 0.00000000000000000 0.00000000000000022 1.00000000000000000 1.00000000000000000 0.00000000000000000 -0.00000000000000000 -0.00000000000000000 1.00000000000000000 -0.00000000000000022 3.96875000000000000
1 -12.69999999999999929 -43.70000000000000284 -0.58749999999999081 1.00000000000000000 0.00000000000000000 0.00000000000000000 0.00000000000000000 0.00000000000000000 1.00000000000000000 0.00000000000000000 -1.00000000000000000 0.00000000000000000 
1 0.00000000000000025 0.00000000000000000 0.00000000000000000 0.00000000000000000 1.00000000000000000 -0.00000000000000022 0.00000000000000000 0.00000000000000022 1.00000000000000000 1.00000000000000000 -0.00000000000000000 0.00000000000000000 
2 -11.69999999999999929 -43.70000000000000284 -0.58749999999999092 0.00000000000000000 -1.00000000000000000 0.00000000000000044 0.00000000000000000 -0.00000000000000044 -1.00000000000000000 -1.00000000000000000 -0.00000000000000000 -0.00000000000000000 1.00000000000000000
2 11.69999999999999929 -43.70000000000000284 -0.58749999999999092 0.00000000000000000 -1.00000000000000000 0.00000000000000044 0.00000000000000000 -0.00000000000000044 -1.00000000000000000 -1.00000000000000000 -0.00000000000000000 -0.00000000000000000 1.00000000000000000
1 0.00000000000000025 0.00000000000000000 0.00000000000000000 0.00000000000000000 1.00000000000000000 -0.00000000000000022 0.00000000000000000 0.00000000000000022 1.00000000000000000 1.00000000000000000 -0.00000000000000000 0.00000000000000000 
1 12.69999999999999929 -43.70000000000000284 0.58750000000000990 -1.00000000000000000 0.00000000000000000 0.00000000000000000 0.00000000000000000 0.00000000000000000 -1.00000000000000000 -0.00000000000000000 -1.00000000000000000 -0.00000000000000000 
1 11.69999999999999929 -43.70000000000000284 -1.58749999999999081 0.00000000000000000 0.00000000000000022 1.00000000000000000 -1.00000000000000000 0.00000000000000000 0.00000000000000000 0.00000000000000000 -1.00000000000000000 0.00000000000000022 
Triangulations 0

TShapes 80
Ve
0.000000100000000
-11.699999999999999 -43.700000000000003 1.587500000000011
0 0

0101101
*
Ve
0.000000100000000
-11.699999999999999 43.700000000000003 1.587499999999991
0 0

0101101
*
Ed
 0.000000100000000 1 1 0
1  1 0 0.000000000000000 87.400000000000006
2  1 2 0 0.000000000000000 87.400000000000006
4 C1 1 0 2 0
0

0101000
+80 6 -79 6 *
Ve
0.000000100000000
11.699999999999999 -43.700000000000003 1.587500000000011
0 0

0101101
*
Ed
 0.000000100000000 1 1 0
1  2 0 1.000000000000000 24.399999999999999
0

0101000
+80 22 -77 22 *
Ve
0.000000100000000
11.699999999999999 43.700000000000003 1.587499999999991
0 0

0101101
*
Ed
 0.000000100000000 1 1 0
1  3 0 1.000000000000000 24.399999999999999
0

0101000
+79 25 -75 25 *
Ed
 0.000000100000000 1 1 0
1  4 0 0.000000000000000 87.400000000000006
2  2 3 0 0.000000000000000 87.400000000000006
4 C1 1 0 3 0
0

0101000
+77 6 -75 6 *
Wi

0101100
+78 4 -76 21 +74 24 -73 4 *
Ve
0.000000100000000
3.968750000000000 31.000000000000000 1.587499999999993
0 0

0101101
*
Ed
 0.000000100000000 1 1 0
1  5 0 0.000000000000000 6.283185307179586
2  3 4 29 0.000000000000000 6.283185307179586
0

0101000
+71 30 -71 30 *
Wi

0101100
+70 28 *
Ve
0.000000100000000
3.968750000000000 -31.000000000000000 1.587500000000007
0 0

0101101
*
Ed
 0.000000100000000 1 1 0
1  6 0 0.000000000000000 6.283185307179586
2  4 5 29 0.000000000000000 6.283185307179586
0

0101000
+68 30 -68 30 *
Wi

0101100
+67 28 *
Fa
0  0.000000100000000 1 4

0111000
+72 0 +69 0 +66 0 *
Ve
0.000000100000000
-12.699999999999999 -43.700000000000003 0.587500000000011
0 0

0101101
*
Ve
0.000000100000000
-12.699999999999999 43.700000000000003 0.587499999999991
0 0

0101101
*
Ed
 0.000000100000000 1 1 0
1  7 0 0.000000000000000 87.400000000000006
2  5 2 0 0.000000000000000 87.400000000000006
4 C1 2 0 6 0
0

0101000
+64 6 -63 6 *
Ed
 0.000000100000000 1 1 0
1  8 0 3.141592653589793 4.712388980384690
2  6 2 32 3.141592653589793 4.712388980384690
0

0101000
+80 33 -64 33 *
Ed
 0.000000100000000 1 1 0
1  9 0 3.141592653589793 4.712388980384690
2  7 2 35 3.141592653589793 4.712388980384690
0

0101000
+79 36 -63 36 *
Wi

0101100
+78 0 -62 0 -61 31 +60 34 *
Fa
0  0.000000100000000 2 0

0111000
+59 0 *
Ve
0.000000100000000
12.699999999999999 -43.700000000000003 0.587500000000011
0 0

0101101
*
Ed
 0.000000100000000 1 1 0
1  10 0 3.141592653589793 4.712388980384690
2  8 3 32 3.141592653589793 4.712388980384690
0

0101000
+77 33 -57 33 *
Ve
0.000000100000000
-12.699999999999999 -43.700000000000003 -0.587499999999991
0 0

0101101
*
Ed
 0.000000100000000 1 1 0
1  11 0 1.000000000000000 2.175000000000001
0

0101000
+55 22 -64 22 *
Ve
0.000000100000000
12.699999999999999 -43.700000000000003 -0.587499999999991
0 0

0101101
*
Ed
 0.000000100000000 1 1 0
1  12 0 1.000000000000000 2.175000000000001
0

0101000
+57 22 -53 22 *
Ve
0.000000100000000
-11.699999999999999 -43.700000000000003 -1.587499999999991
0 0

0101101
*
Ed
 0.000000100000000 1 1 0
1  13 0 0.000000000000000 1.570796326794897
2  9 8 32 0.000000000000000 1.570796326794897
0

0101000
+51 33 -55 33 *
Ve
0.000000100000000
11.699999999999999 -43.700000000000003 -1.587499999999991
0 0

0101101
*
Ed
 0.000000100000000 1 1 0
1  14 0 4.712388980384690 6.283185307179586
2  10 9 32 4.712388980384690 6.283185307179586
0

0101000
+53 33 -49 33 *
Ed
 0.000000100000000 1 1 0
1  15 0 1.000000000000000 24.399999999999999
0

0101000
+49 22 -51 22 *
Wi

0101100
+76 39 -61 0 +56 0 +54 39 +52 39 +50 0 +48 0 +47 39 *
Fa
0  0.000000100000000 7 0

0111000
+46 38 *
Ve
0.000000100000000
12.699999999999999 43.700000000000003 0.587499999999991
0 0

0101101
*
Ed
 0.000000100000000 1 1 0
1  16 0 3.141592653589793 4.712388980384690
2  11 3 35 3.141592653589793 4.712388980384690
0

0101000
+75 36 -44 36 *
Ve
0.000000100000000
-12.699999999999999 43.700000000000003 -0.587500000000011
0 0

0101101
*
Ed
 0.000000100000000 1 1 0
1  17 0 1.000000000000000 2.175000000000001
0

0101000
+42 25 -63 25 *
Ve
0.000000100000000
12.699999999999999 43.700000000000003 -0.587500000000011
0 0

0101101
*
Ed
 0.000000100000000 1 1 0
1  18 0 1.000000000000000 2.175000000000001
0

0101000
+44 25 -40 25 *
Ve
0.000000100000000
-11.699999999999999 43.700000000000003 -1.587500000000011
0 0

0101101
*
Ed
 0.000000100000000 1 1 0
1  19 0 0.000000000000000 1.570796326794897
2  12 8 35 0.000000000000000 1.570796326794897
0

0101000
+38 36 -42 36 *
Ve
0.000000100000000
11.699999999999999 43.700000000000003 -1.587500000000011
0 0

0101101
*
Ed
 0.000000100000000 1 1 0
1  20 0 4.712388980384690 6.283185307179586
2  13 9 35 4.712388980384690 6.283185307179586
0

0101000
+40 36 -36 36 *
Ed
 0.000000100000000 1 1 0
1  21 0 1.000000000000000 24.399999999999999
0

0101000
+36 25 -38 25 *
Wi

0101100
+74 39 -60 0 +43 0 +41 39 +39 39 +37 0 +35 0 +34 39 *
Fa
0  0.000000100000000 10 0

0111000
+33 38 *
Ed
 0.000000100000000 1 1 0
1  22 0 0.000000000000000 87.400000000000006
2  14 3 0 0.000000000000000 87.400000000000006
4 C1 3 0 11 0
0

0101000
+57 6 -44 6 *
Wi

0101100
+73 0 -31 0 -56 31 +43 34 *
Fa
0  0.000000100000000 3 0

0111000
+30 0 *
Ve
0.000000100000000
3.968750000000000 31.000000000000000 -1.587500000000007
0 0

0101101
*
Ed
 0.000000100000000 1 1 0
1  23 0 0.000000000000000 3.175000000000001
3  15 16CN 4 0 0.000000000000000 3.175000000000001
0

0101000
+71 41 -28 41 *
Ed
 0.000000100000000 1 1 0
1  24 0 0.000000000000000 6.283185307179586
2  17 4 0 0.000000000000000 6.283185307179586
0

0101000
+28 41 -28 41 *
Wi

0101100
-70 28 -27 0 +26 0 +27 0 *
Fa
0  0.000000100000000 4 0

0111000
+25 0 *
Ve
0.000000100000000
3.968750000000000 -31.000000000000000 -1.587499999999993
0 0

0101101
*
Ed
 0.000000100000000 1 1 0
1  25 0 0.000000000000000 3.175000000000001
3  18 19CN 5 0 0.000000000000000 3.175000000000001
0

0101000
+68 41 -23 41 *
Ed
 0.000000100000000 1 1 0
1  26 0 0.000000000000000 6.283185307179586
2  20 5 0 0.000000000000000 6.283185307179586
0

0101000
+23 41 -23 41 *
Wi

0101100
-67 28 -22 0 +21 0 +22 0 *
Fa
0  0.000000100000000 5 0

0111000
+20 0 *
Ed
 0.000000100000000 1 1 0
1  27 0 0.000000000000000 87.400000000000006
2  21 8 0 0.000000000000000 87.400000000000006
4 C1 6 0 8 0
0

0101000
+55 6 -42 6 *
Wi

0101100
+18 0 -62 0 -54 42 +41 43 *
Fa
0  0.000000100000000 6 0

0111000
+17 0 *
Ed
 0.000000100000000 1 1 0
1  28 0 0.000000000000000 87.400000000000006
2  22 9 0 0.000000000000000 87.400000000000006
4 C1 11 0 9 0
0

0101000
+53 6 -40 6 *
Wi

0101100
+31 0 -15 0 -52 42 +39 43 *
Fa
0  0.000000100000000 11 0

0111000
+14 0 *
Ed
 0.000000100000000 1 1 0
1  29 0 0.000000000000000 87.400000000000006
2  23 8 0 0.000000000000000 87.400000000000006
4 C1 8 0 12 0
0

0101000
+51 6 -38 6 *
Wi

0101100
+12 0 -18 0 -50 31 +37 34 *
Fa
0  0.000000100000000 8 0

0111000
+11 0 *
Ed
 0.000000100000000 1 1 0
1  30 0 0.000000000000000 87.400000000000006
2  24 9 0 0.000000000000000 87.400000000000006
4 C1 9 0 12 0
0

0101000
+49 6 -36 6 *
Wi

0101100
+15 0 -9 0 -48 31 +35 34 *
Fa
0  0.000000100000000 9 0

0111000
+8 0 *
Wi

0101100
+9 4 -47 21 +34 24 -12 4 *
Wi

0101100
-26 0 *
Wi

0101100
-21 0 *
Fa
0  0.000000100000000 12 4

0111000
+6 0 +5 0 +4 0 *
Sh

0101100
-65 0 +58 4 -45 37 +32 40 -29 4 -24 0 -19 0 -16 4 -13 4 -10 4 
-7 4 -3 0 *
So

1100000
+2 0 *

+1 1 