
CASCADE Topology V1, (c) Matra-Datavision
Locations 84
1
1.000000000000000 0.000000000000000 0.000000000000000 0.000000000000000 
0.000000000000000 1.000000000000000 0.000000000000000 0.000000000000000 
0.000000000000000 0.000000000000000 1.000000000000000 0.000000000000000 
1
1.000000000000000 0.000000000000000 0.000000000000000 0.000000000000000 
0.000000000000000 0.000000000000000 -1.000000000000000 0.000000000000000 
0.000000000000000 1.000000000000000 0.000000000000000 0.000000000000000 
1
1.000000000000000 0.000000000000000 0.000000000000000 0.000000000000000 
0.000000000000000 1.000000000000000 0.000000000000000 0.000000000000000 
0.000000000000000 0.000000000000000 1.000000000000000 0.000000000000000 
1
1.000000000000000 0.000000000000000 0.000000000000000 0.000000000000000 
0.000000000000000 1.000000000000000 0.000000000000000 0.000000000000000 
0.000000000000000 0.000000000000000 1.000000000000000 0.000000000000000 
1
1.000000000000000 0.000000000000000 0.000000000000000 0.000000000000000 
0.000000000000000 1.000000000000000 0.000000000000000 0.000000000000000 
0.000000000000000 0.000000000000000 1.000000000000000 0.000000000000000 
1
1.000000000000000 0.000000000000000 0.000000000000000 0.000000000000000 
0.000000000000000 1.000000000000000 0.000000000000000 0.000000000000000 
0.000000000000000 0.000000000000000 1.000000000000000 0.000000000000000 
1
1.000000000000000 0.000000000000000 0.000000000000000 0.000000000000000 
0.000000000000000 1.000000000000000 0.000000000000000 0.000000000000000 
0.000000000000000 0.000000000000000 1.000000000000000 0.000000000000000 
1
1.000000000000000 0.000000000000000 0.000000000000000 0.000000000000000 
0.000000000000000 1.000000000000000 0.000000000000000 0.000000000000000 
0.000000000000000 0.000000000000000 1.000000000000000 0.000000000000000 
1
1.000000000000000 0.000000000000000 0.000000000000000 0.000000000000000 
0.000000000000000 1.000000000000000 0.000000000000000 0.000000000000000 
0.000000000000000 0.000000000000000 1.000000000000000 0.000000000000000 
1
1.000000000000000 0.000000000000000 0.000000000000000 -0.000000000000000 
0.000000000000000 1.000000000000000 0.000000000000000 -43.700000000000003 
0.000000000000000 0.000000000000000 1.000000000000000 0.000000000000010 
2  1 1 2 1 3 1 4 1 5 1 6 1 7 1 8 1 9 -1 10 1 0
1
1.000000000000000 0.000000000000000 0.000000000000000 0.000000000000000 
0.000000000000000 1.000000000000000 0.000000000000000 87.400000000000006 
0.000000000000000 0.000000000000000 1.000000000000000 -0.000000000000019 
2  1 1 2 1 3 1 4 1 5 1 6 1 7 1 8 1 9 -1 10 1 12 1 0
1
1.000000000000000 0.000000000000000 0.000000000000000 0.000000000000000 
0.000000000000000 1.000000000000000 0.000000000000000 0.000000000000000 
0.000000000000000 0.000000000000000 1.000000000000000 0.000000000000000 
1
1.000000000000000 0.000000000000000 0.000000000000000 0.000000000000000 
0.000000000000000 0.000000000000000 -1.000000000000000 0.000000000000000 
0.000000000000000 1.000000000000000 0.000000000000000 0.000000000000000 
1
1.000000000000000 0.000000000000000 0.000000000000000 0.000000000000000 
0.000000000000000 -0.000000000000000 -1.000000000000000 0.000000000000000 
0.000000000000000 1.000000000000000 -0.000000000000000 0.000000000000000 
1
1.000000000000000 0.000000000000000 0.000000000000000 0.000000000000000 
0.000000000000000 1.000000000000000 0.000000000000000 0.000000000000000 
0.000000000000000 0.000000000000000 1.000000000000000 0.000000000000000 
2  14 1 15 1 16 -1 17 1 1 1 2 1 3 1 4 1 5 1 6 1 7 1 8 1 9 -1 10 1 0
2  10 -1 9 1 8 -1 7 -1 6 -1 5 -1 4 -1 3 -1 2 -1 1 -1 17 -1 16 1 15 -1 14 -1 0
2  12 -1 10 -1 9 1 8 -1 7 -1 6 -1 5 -1 4 -1 3 -1 2 -1 1 -1 17 -1 16 1 15 -1 14 -1 0
2  17 -1 16 1 15 -1 14 -1 0
2  14 1 15 1 16 -1 17 1 1 1 2 1 3 1 4 1 5 1 6 1 7 1 8 1 9 -1 10 1 12 1 0
2  16 -1 17 1 0
1
1.000000000000000 0.000000000000000 0.000000000000000 0.000000000000000 
0.000000000000000 1.000000000000000 0.000000000000000 0.000000000000000 
0.000000000000000 0.000000000000000 1.000000000000000 0.000000000000000 
1
1.000000000000000 0.000000000000000 0.000000000000000 0.000000000000000 
0.000000000000000 1.000000000000000 0.000000000000000 0.000000000000000 
0.000000000000000 0.000000000000000 1.000000000000000 0.000000000000000 
2  24 1 25 -1 7 -1 6 -1 5 -1 4 -1 3 -1 2 -1 1 -1 0
1
1.000000000000000 0.000000000000000 0.000000000000000 0.000000000000000 
0.000000000000000 1.000000000000000 0.000000000000000 10.000000000000000 
0.000000000000000 0.000000000000000 1.000000000000000 -0.000000000000002 
2  27 -1 24 1 25 -1 7 -1 6 -1 5 -1 4 -1 3 -1 2 -1 1 -1 0
1
1.000000000000000 0.000000000000000 0.000000000000000 0.000000000000000 
0.000000000000000 1.000000000000000 0.000000000000000 0.000000000000000 
0.000000000000000 0.000000000000000 1.000000000000000 0.000000000000000 
1
1.000000000000000 0.000000000000000 0.000000000000000 0.000000000000000 
0.000000000000000 1.000000000000000 0.000000000000000 0.000000000000000 
0.000000000000000 0.000000000000000 1.000000000000000 0.000000000000000 
2  29 1 30 -1 7 -1 6 -1 5 -1 4 -1 3 -1 2 -1 1 -1 0
1
1.000000000000000 0.000000000000000 0.000000000000000 0.000000000000000 
0.000000000000000 1.000000000000000 0.000000000000000 87.400000000000006 
0.000000000000000 0.000000000000000 1.000000000000000 -0.000000000000019 
2  32 -1 29 1 30 -1 7 -1 6 -1 5 -1 4 -1 3 -1 2 -1 1 -1 0
1
1.000000000000000 0.000000000000000 0.000000000000000 0.000000000000000 
0.000000000000000 1.000000000000000 0.000000000000000 0.000000000000000 
0.000000000000000 0.000000000000000 1.000000000000000 0.000000000000000 
1
1.000000000000000 0.000000000000000 0.000000000000000 0.000000000000000 
0.000000000000000 1.000000000000000 0.000000000000000 0.000000000000000 
0.000000000000000 0.000000000000000 1.000000000000000 0.000000000000000 
2  34 1 35 -1 7 -1 6 -1 5 -1 4 -1 3 -1 2 -1 1 -1 0
1
1.000000000000000 0.000000000000000 0.000000000000000 0.000000000000000 
0.000000000000000 1.000000000000000 0.000000000000000 87.400000000000006 
0.000000000000000 0.000000000000000 1.000000000000000 -0.000000000000019 
2  37 -1 34 1 35 -1 7 -1 6 -1 5 -1 4 -1 3 -1 2 -1 1 -1 0
1
1.000000000000000 0.000000000000000 0.000000000000000 0.000000000000000 
0.000000000000000 1.000000000000000 0.000000000000000 0.000000000000000 
0.000000000000000 0.000000000000000 1.000000000000000 0.000000000000000 
1
1.000000000000000 0.000000000000000 0.000000000000000 0.000000000000000 
0.000000000000000 1.000000000000000 0.000000000000000 0.000000000000000 
0.000000000000000 0.000000000000000 1.000000000000000 0.000000000000000 
2  39 1 40 -1 7 -1 6 -1 5 -1 4 -1 3 -1 2 -1 1 -1 0
1
1.000000000000000 0.000000000000000 0.000000000000000 0.000000000000000 
0.000000000000000 1.000000000000000 0.000000000000000 87.400000000000006 
0.000000000000000 0.000000000000000 1.000000000000000 -0.000000000000019 
2  42 -1 39 1 40 -1 7 -1 6 -1 5 -1 4 -1 3 -1 2 -1 1 -1 0
1
1.000000000000000 0.000000000000000 0.000000000000000 0.000000000000000 
0.000000000000000 1.000000000000000 0.000000000000000 0.000000000000000 
0.000000000000000 0.000000000000000 1.000000000000000 0.000000000000000 
1
1.000000000000000 0.000000000000000 0.000000000000000 0.000000000000000 
0.000000000000000 1.000000000000000 0.000000000000000 0.000000000000000 
0.000000000000000 0.000000000000000 1.000000000000000 0.000000000000000 
2  44 1 45 -1 7 -1 6 -1 5 -1 4 -1 3 -1 2 -1 1 -1 0
1
1.000000000000000 0.000000000000000 0.000000000000000 0.000000000000000 
0.000000000000000 1.000000000000000 0.000000000000000 87.400000000000006 
0.000000000000000 0.000000000000000 1.000000000000000 -0.000000000000019 
2  47 -1 44 1 45 -1 7 -1 6 -1 5 -1 4 -1 3 -1 2 -1 1 -1 0
1
1.000000000000000 0.000000000000000 0.000000000000000 -0.000000000000000 
0.000000000000000 1.000000000000000 0.000000000000000 -43.700000000000003 
0.000000000000000 0.000000000000000 1.000000000000000 0.000000000000010 
1
1.000000000000000 0.000000000000000 0.000000000000000 0.000000000000000 
0.000000000000000 1.000000000000000 0.000000000000000 0.000000000000000 
0.000000000000000 0.000000000000000 1.000000000000000 0.000000000000000 
1
1.000000000000000 0.000000000000000 0.000000000000000 0.000000000000000 
0.000000000000000 1.000000000000000 0.000000000000000 0.000000000000000 
0.000000000000000 0.000000000000000 1.000000000000000 0.000000000000000 
2  49 -1 50 1 51 -1 7 -1 6 -1 5 -1 4 -1 3 -1 2 -1 1 -1 0
1
1.000000000000000 0.000000000000000 0.000000000000000 0.000000000000000 
0.000000000000000 1.000000000000000 0.000000000000000 87.400000000000006 
0.000000000000000 0.000000000000000 1.000000000000000 -0.000000000000019 
2  53 -1 49 -1 50 1 51 -1 7 -1 6 -1 5 -1 4 -1 3 -1 2 -1 1 -1 0
1
1.000000000000000 0.000000000000000 0.000000000000000 -0.000000000000000 
0.000000000000000 1.000000000000000 0.000000000000000 -43.700000000000003 
0.000000000000000 0.000000000000000 1.000000000000000 0.000000000000010 
1
1.000000000000000 0.000000000000000 0.000000000000000 0.000000000000000 
0.000000000000000 1.000000000000000 0.000000000000000 0.000000000000000 
0.000000000000000 0.000000000000000 1.000000000000000 0.000000000000000 
1
1.000000000000000 0.000000000000000 0.000000000000000 0.000000000000000 
0.000000000000000 1.000000000000000 0.000000000000000 0.000000000000000 
0.000000000000000 0.000000000000000 1.000000000000000 0.000000000000000 
2  55 -1 56 1 57 -1 7 -1 6 -1 5 -1 4 -1 3 -1 2 -1 1 -1 0
1
1.000000000000000 0.000000000000000 0.000000000000000 0.000000000000000 
0.000000000000000 1.000000000000000 0.000000000000000 87.400000000000006 
0.000000000000000 0.000000000000000 1.000000000000000 -0.000000000000019 
2  59 -1 55 -1 56 1 57 -1 7 -1 6 -1 5 -1 4 -1 3 -1 2 -1 1 -1 0
1
1.000000000000000 0.000000000000000 0.000000000000000 -0.000000000000000 
0.000000000000000 1.000000000000000 0.000000000000000 -43.700000000000003 
0.000000000000000 0.000000000000000 1.000000000000000 0.000000000000010 
1
1.000000000000000 0.000000000000000 0.000000000000000 0.000000000000000 
0.000000000000000 1.000000000000000 0.000000000000000 0.000000000000000 
0.000000000000000 0.000000000000000 1.000000000000000 0.000000000000000 
1
1.000000000000000 0.000000000000000 0.000000000000000 0.000000000000000 
0.000000000000000 1.000000000000000 0.000000000000000 0.000000000000000 
0.000000000000000 0.000000000000000 1.000000000000000 0.000000000000000 
2  61 -1 62 1 63 -1 7 -1 6 -1 5 -1 4 -1 3 -1 2 -1 1 -1 0
1
1.000000000000000 0.000000000000000 0.000000000000000 0.000000000000000 
0.000000000000000 1.000000000000000 0.000000000000000 87.400000000000006 
0.000000000000000 0.000000000000000 1.000000000000000 -0.000000000000019 
2  65 -1 61 -1 62 1 63 -1 7 -1 6 -1 5 -1 4 -1 3 -1 2 -1 1 -1 0
1
1.000000000000000 0.000000000000000 0.000000000000000 -0.000000000000000 
0.000000000000000 1.000000000000000 0.000000000000000 -43.700000000000003 
0.000000000000000 0.000000000000000 1.000000000000000 0.000000000000010 
1
1.000000000000000 0.000000000000000 0.000000000000000 0.000000000000000 
0.000000000000000 1.000000000000000 0.000000000000000 0.000000000000000 
0.000000000000000 0.000000000000000 1.000000000000000 0.000000000000000 
1
1.000000000000000 0.000000000000000 0.000000000000000 0.000000000000000 
0.000000000000000 1.000000000000000 0.000000000000000 0.000000000000000 
0.000000000000000 0.000000000000000 1.000000000000000 0.000000000000000 
2  67 -1 68 1 69 -1 7 -1 6 -1 5 -1 4 -1 3 -1 2 -1 1 -1 0
1
1.000000000000000 0.000000000000000 0.000000000000000 0.000000000000000 
0.000000000000000 1.000000000000000 0.000000000000000 87.400000000000006 
0.000000000000000 0.000000000000000 1.000000000000000 -0.000000000000019 
2  71 -1 67 -1 68 1 69 -1 7 -1 6 -1 5 -1 4 -1 3 -1 2 -1 1 -1 0
1
1.000000000000000 0.000000000000000 0.000000000000000 -0.000000000000000 
0.000000000000000 1.000000000000000 0.000000000000000 -43.700000000000003 
0.000000000000000 0.000000000000000 1.000000000000000 0.000000000000010 
1
1.000000000000000 0.000000000000000 0.000000000000000 0.000000000000000 
0.000000000000000 1.000000000000000 0.000000000000000 0.000000000000000 
0.000000000000000 0.000000000000000 1.000000000000000 0.000000000000000 
1
1.000000000000000 0.000000000000000 0.000000000000000 0.000000000000000 
0.000000000000000 1.000000000000000 0.000000000000000 0.000000000000000 
0.000000000000000 0.000000000000000 1.000000000000000 0.000000000000000 
2  73 -1 74 1 75 -1 7 -1 6 -1 5 -1 4 -1 3 -1 2 -1 1 -1 0
1
1.000000000000000 0.000000000000000 0.000000000000000 0.000000000000000 
0.000000000000000 1.000000000000000 0.000000000000000 87.400000000000006 
0.000000000000000 0.000000000000000 1.000000000000000 -0.000000000000019 
2  77 -1 73 -1 74 1 75 -1 7 -1 6 -1 5 -1 4 -1 3 -1 2 -1 1 -1 0
2  10 -1 9 1 8 -1 7 -1 6 -1 5 -1 4 -1 3 -1 2 -1 1 -1 0
2  12 -1 10 -1 9 1 8 -1 7 -1 6 -1 5 -1 4 -1 3 -1 2 -1 1 -1 0
2  16 -1 17 1 1 1 2 1 3 1 4 1 5 1 6 1 7 1 8 1 9 -1 10 1 0
2  17 -1 16 1 0
2  14 1 15 1 16 -1 17 1 0
2  16 -1 17 1 1 1 2 1 3 1 4 1 5 1 6 1 7 1 8 1 9 -1 10 1 12 1 0
Curve2ds 112
1 3.14159265358979312 0.00000000000000000 0.00000000000000000 -1.00000000000000000 
1 0.00000000000000000 0.00000000000000000 0.00000000000000000 -1.00000000000000000 
1 3.14159265358979312 0.00000000000000000 0.00000000000000000 -1.00000000000000000 
1 23.39999999999999858 0.00000000000000000 0.00000000000000000 -1.00000000000000000 
1 -1.00000000000000000 0.00000000000000000 1.00000000000000000 0.00000000000000000 
1 -1.00000000000000000 -87.40000000000000568 1.00000000000000000 0.00000000000000000 
1 4.71238898038468967 0.00000000000000000 0.00000000000000000 -1.00000000000000000 
1 -3.14159265358979312 0.00000000000000000 1.00000000000000000 0.00000000000000000 
2 0.58750000000000058 -11.69999999999999929 -1.00000000000000000 0.00000000000000000 0.00000000000000000 1.00000000000000000 1.00000000000000000
1 0.00000000000000000 0.00000000000000000 1.00000000000000000 0.00000000000000000 
1 0.00000000000000000 -10.00000000000000000 1.00000000000000000 0.00000000000000000 
1 0.00000000000000000 0.00000000000000000 1.00000000000000000 0.00000000000000000 
1 0.00000000000000000 -87.40000000000000568 1.00000000000000000 0.00000000000000000 
1 0.00000000000000000 0.00000000000000000 1.00000000000000000 0.00000000000000000 
1 0.00000000000000000 -87.40000000000000568 1.00000000000000000 0.00000000000000000 
1 0.00000000000000000 0.00000000000000000 1.00000000000000000 0.00000000000000000 
1 0.00000000000000000 -87.40000000000000568 1.00000000000000000 0.00000000000000000 
1 0.00000000000000000 0.00000000000000000 1.00000000000000000 0.00000000000000000 
1 0.00000000000000000 -87.40000000000000568 1.00000000000000000 0.00000000000000000 
1 0.00000000000000000 0.00000000000000000 1.00000000000000000 0.00000000000000000 
1 0.00000000000000000 -87.40000000000000568 1.00000000000000000 0.00000000000000000 
1 0.00000000000000000 0.00000000000000000 1.00000000000000000 0.00000000000000000 
1 0.00000000000000000 -87.40000000000000568 1.00000000000000000 0.00000000000000000 
1 0.00000000000000000 0.00000000000000000 1.00000000000000000 0.00000000000000000 
1 0.00000000000000000 -87.40000000000000568 1.00000000000000000 0.00000000000000000 
1 0.00000000000000000 0.00000000000000000 1.00000000000000000 0.00000000000000000 
1 0.00000000000000000 -87.40000000000000568 1.00000000000000000 0.00000000000000000 
1 0.00000000000000000 0.00000000000000000 1.00000000000000000 0.00000000000000000 
1 0.00000000000000000 -87.40000000000000568 1.00000000000000000 0.00000000000000000 
1 0.00000000000000000 0.00000000000000000 1.00000000000000000 0.00000000000000000 
1 0.00000000000000000 -87.40000000000000568 1.00000000000000000 0.00000000000000000 
1 4.71238898038468967 0.00000000000000000 0.00000000000000000 -1.00000000000000000 
1 -3.14159265358979312 0.00000000000000000 1.00000000000000000 0.00000000000000000 
2 0.58750000000000058 11.69999999999999929 -1.00000000000000000 0.00000000000000000 -0.00000000000000000 -1.00000000000000000 1.00000000000000000
1 0.00000000000000000 0.00000000000000000 1.00000000000000000 0.00000000000000000 
1 0.00000000000000000 -10.00000000000000000 1.00000000000000000 0.00000000000000000 
1 0.00000000000000000 0.00000000000000000 1.00000000000000000 0.00000000000000000 
1 0.00000000000000000 -87.40000000000000568 1.00000000000000000 0.00000000000000000 
1 0.00000000000000000 0.00000000000000000 1.00000000000000000 0.00000000000000000 
1 0.00000000000000000 -87.40000000000000568 1.00000000000000000 0.00000000000000000 
1 0.00000000000000000 0.00000000000000000 1.00000000000000000 0.00000000000000000 
1 0.00000000000000000 -87.40000000000000568 1.00000000000000000 0.00000000000000000 
1 0.00000000000000000 0.00000000000000000 1.00000000000000000 0.00000000000000000 
1 0.00000000000000000 -87.40000000000000568 1.00000000000000000 0.00000000000000000 
1 0.00000000000000000 0.00000000000000000 1.00000000000000000 0.00000000000000000 
1 0.00000000000000000 -87.40000000000000568 1.00000000000000000 0.00000000000000000 
1 0.00000000000000000 0.00000000000000000 1.00000000000000000 0.00000000000000000 
1 0.00000000000000000 -87.40000000000000568 1.00000000000000000 0.00000000000000000 
1 0.00000000000000000 0.00000000000000000 1.00000000000000000 0.00000000000000000 
1 0.00000000000000000 -87.40000000000000568 1.00000000000000000 0.00000000000000000 
1 0.00000000000000000 0.00000000000000000 1.00000000000000000 0.00000000000000000 
1 0.00000000000000000 -87.40000000000000568 1.00000000000000000 0.00000000000000000 
1 0.00000000000000000 0.00000000000000000 1.00000000000000000 0.00000000000000000 
1 0.00000000000000000 -87.40000000000000568 1.00000000000000000 0.00000000000000000 
1 0.00000000000000000 0.00000000000000000 1.00000000000000000 0.00000000000000000 
1 0.00000000000000000 -87.40000000000000568 1.00000000000000000 0.00000000000000000 
1 1.57079632679489700 0.00000000000000000 0.00000000000000000 -1.00000000000000000 
1 4.71238898038468967 0.00000000000000000 0.00000000000000000 -1.00000000000000000 
1 0.00000000000000000 0.00000000000000000 0.00000000000000000 -1.00000000000000000 
1 23.39999999999999858 0.00000000000000000 0.00000000000000000 -1.00000000000000000 
1 0.00000000000000000 0.00000000000000000 1.00000000000000000 0.00000000000000000 
2 -0.58750000000000058 -11.69999999999999929 -1.00000000000000000 0.00000000000000000 -0.00000000000000000 -1.00000000000000000 1.00000000000000000
1 0.00000000000000000 0.00000000000000000 1.00000000000000000 0.00000000000000000 
1 0.00000000000000000 -10.00000000000000000 1.00000000000000000 0.00000000000000000 
1 0.00000000000000000 0.00000000000000000 1.00000000000000000 0.00000000000000000 
1 0.00000000000000000 -87.40000000000000568 1.00000000000000000 0.00000000000000000 
1 0.00000000000000000 0.00000000000000000 1.00000000000000000 0.00000000000000000 
1 0.00000000000000000 -87.40000000000000568 1.00000000000000000 0.00000000000000000 
1 0.00000000000000000 0.00000000000000000 1.00000000000000000 0.00000000000000000 
1 0.00000000000000000 -87.40000000000000568 1.00000000000000000 0.00000000000000000 
1 0.00000000000000000 0.00000000000000000 1.00000000000000000 0.00000000000000000 
1 0.00000000000000000 -87.40000000000000568 1.00000000000000000 0.00000000000000000 
1 0.00000000000000000 0.00000000000000000 1.00000000000000000 0.00000000000000000 
1 0.00000000000000000 -87.40000000000000568 1.00000000000000000 0.00000000000000000 
1 0.00000000000000000 0.00000000000000000 1.00000000000000000 0.00000000000000000 
1 0.00000000000000000 -87.40000000000000568 1.00000000000000000 0.00000000000000000 
1 0.00000000000000000 0.00000000000000000 1.00000000000000000 0.00000000000000000 
1 0.00000000000000000 -87.40000000000000568 1.00000000000000000 0.00000000000000000 
1 0.00000000000000000 0.00000000000000000 1.00000000000000000 0.00000000000000000 
1 0.00000000000000000 -87.40000000000000568 1.00000000000000000 0.00000000000000000 
1 0.00000000000000000 0.00000000000000000 1.00000000000000000 0.00000000000000000 
1 0.00000000000000000 -87.40000000000000568 1.00000000000000000 0.00000000000000000 
1 0.00000000000000000 0.00000000000000000 1.00000000000000000 0.00000000000000000 
1 0.00000000000000000 -87.40000000000000568 1.00000000000000000 0.00000000000000000 
1 6.28318530717958623 0.00000000000000000 0.00000000000000000 -1.00000000000000000 
1 0.00000000000000000 0.00000000000000000 0.00000000000000000 -1.00000000000000000 
1 -4.71238898038468967 0.00000000000000000 1.00000000000000000 0.00000000000000000 
2 -0.58750000000000058 11.69999999999999929 -1.00000000000000000 0.00000000000000000 -0.00000000000000000 -1.00000000000000000 1.00000000000000000
1 0.00000000000000000 0.00000000000000000 1.00000000000000000 0.00000000000000000 
1 0.00000000000000000 -10.00000000000000000 1.00000000000000000 0.00000000000000000 
1 0.00000000000000000 0.00000000000000000 1.00000000000000000 0.00000000000000000 
1 0.00000000000000000 -87.40000000000000568 1.00000000000000000 0.00000000000000000 
1 0.00000000000000000 0.00000000000000000 1.00000000000000000 0.00000000000000000 
1 0.00000000000000000 -87.40000000000000568 1.00000000000000000 0.00000000000000000 
1 0.00000000000000000 0.00000000000000000 1.00000000000000000 0.00000000000000000 
1 0.00000000000000000 -87.40000000000000568 1.00000000000000000 0.00000000000000000 
1 0.00000000000000000 0.00000000000000000 1.00000000000000000 0.00000000000000000 
1 0.00000000000000000 -87.40000000000000568 1.00000000000000000 0.00000000000000000 
1 0.00000000000000000 0.00000000000000000 1.00000000000000000 0.00000000000000000 
1 0.00000000000000000 -87.40000000000000568 1.00000000000000000 0.00000000000000000 
1 0.00000000000000000 0.00000000000000000 1.00000000000000000 0.00000000000000000 
1 0.00000000000000000 -87.40000000000000568 1.00000000000000000 0.00000000000000000 
1 0.00000000000000000 0.00000000000000000 1.00000000000000000 0.00000000000000000 
1 0.00000000000000000 -87.40000000000000568 1.00000000000000000 0.00000000000000000 
1 0.00000000000000000 0.00000000000000000 1.00000000000000000 0.00000000000000000 
1 0.00000000000000000 -87.40000000000000568 1.00000000000000000 0.00000000000000000 
1 0.00000000000000000 0.00000000000000000 1.00000000000000000 0.00000000000000000 
1 0.00000000000000000 -87.40000000000000568 1.00000000000000000 0.00000000000000000 
1 0.00000000000000000 0.00000000000000000 1.00000000000000000 0.00000000000000000 
1 0.00000000000000000 -87.40000000000000568 1.00000000000000000 0.00000000000000000 
1 -1.00000000000000000 0.00000000000000000 1.00000000000000000 0.00000000000000000 
1 -1.00000000000000000 -87.40000000000000568 1.00000000000000000 0.00000000000000000 
Curves 16
1 -11.69999999999999929 -43.70000000000000284 1.58750000000001057 0.00000000000000000 1.00000000000000000 -0.00000000000000022 
1 11.69999999999999929 -43.70000000000000284 1.58750000000001057 0.00000000000000000 1.00000000000000000 -0.00000000000000022 
1 -12.69999999999999929 1.58750000000000036 0.00000000000000000 1.00000000000000000 0.00000000000000000 0.00000000000000000 
1 -12.69999999999999929 -43.70000000000000284 0.58750000000001068 0.00000000000000000 1.00000000000000000 -0.00000000000000022 
8 3.14159265358979312 4.71238898038468967
2 -11.69999999999999929 0.58750000000000058 -0.00000000000000026 0.00000000000000000 0.00000000000000044 1.00000000000000000 0.00000000000000000 -1.00000000000000000 0.00000000000000044 1.00000000000000000 0.00000000000000000 -0.00000000000000000 1.00000000000000000
1 12.69999999999999929 -43.70000000000000284 0.58750000000001068 0.00000000000000000 1.00000000000000000 -0.00000000000000022 
8 3.14159265358979312 4.71238898038468967
2 11.69999999999999929 0.58750000000000058 -0.00000000000000026 -0.00000000000000000 -0.00000000000000044 -1.00000000000000000 0.00000000000000000 -1.00000000000000000 0.00000000000000044 -1.00000000000000000 0.00000000000000000 0.00000000000000000 1.00000000000000000
1 -12.69999999999999929 -43.70000000000000284 -0.58749999999999136 0.00000000000000000 1.00000000000000000 -0.00000000000000022 
1 -12.69999999999999929 -1.58750000000000036 0.00000000000000000 0.00000000000000000 1.00000000000000000 0.00000000000000000 
1 12.69999999999999929 -43.70000000000000284 -0.58749999999999136 0.00000000000000000 1.00000000000000000 -0.00000000000000022 
1 12.69999999999999929 1.58750000000000036 0.00000000000000000 0.00000000000000000 -1.00000000000000000 0.00000000000000000 
1 -11.69999999999999929 -43.70000000000000284 -1.58749999999999147 0.00000000000000000 1.00000000000000000 -0.00000000000000022 
8 0.00000000000000000 1.57079632679489656
2 -11.69999999999999929 -0.58750000000000058 0.00000000000000026 -0.00000000000000000 -0.00000000000000044 -1.00000000000000000 0.00000000000000000 -1.00000000000000000 0.00000000000000044 -1.00000000000000000 0.00000000000000000 0.00000000000000000 1.00000000000000000
1 11.69999999999999929 -43.70000000000000284 -1.58749999999999147 0.00000000000000000 1.00000000000000000 -0.00000000000000022 
8 4.71238898038468967 6.28318530717958623
2 11.69999999999999929 -0.58750000000000058 0.00000000000000026 -0.00000000000000000 -0.00000000000000044 -1.00000000000000000 0.00000000000000000 -1.00000000000000000 0.00000000000000044 -1.00000000000000000 0.00000000000000000 0.00000000000000000 1.00000000000000000
1 12.69999999999999929 -1.58750000000000036 0.00000000000000000 -1.00000000000000000 0.00000000000000000 0.00000000000000000 
Polygon3D 0
PolygonOnTriangulations 0
Surfaces 53
1 -11.69999999999999929 -43.70000000000000284 1.58750000000000990 0.00000000000000000 -0.00000000000000022 -1.00000000000000000 1.00000000000000000 0.00000000000000000 0.00000000000000000 0.00000000000000000 -1.00000000000000000 0.00000000000000022 
2 -11.69999999999999929 -43.70000000000000284 0.58750000000001024 0.00000000000000000 -1.00000000000000000 0.00000000000000044 0.00000000000000000 -0.00000000000000044 -1.00000000000000000 1.00000000000000000 0.00000000000000000 0.00000000000000000 1.00000000000000000
2 11.69999999999999929 -43.70000000000000284 0.58750000000001024 -0.00000000000000000 -1.00000000000000000 0.00000000000000044 0.00000000000000000 -0.00000000000000044 -1.00000000000000000 -1.00000000000000000 -0.00000000000000000 -0.00000000000000000 1.00000000000000000
1 -12.69999999999999929 -43.70000000000000284 -0.58749999999999081 1.00000000000000000 -0.00000000000000000 0.00000000000000000 0.00000000000000000 0.00000000000000000 1.00000000000000000 -0.00000000000000000 -1.00000000000000000 0.00000000000000000 
2 -11.69999999999999929 0.58750000000000058 -0.00000000000000026 0.00000000000000000 0.00000000000000044 1.00000000000000000 0.00000000000000000 1.00000000000000000 -0.00000000000000044 -1.00000000000000000 0.00000000000000000 0.00000000000000000 1.00000000000000000
1 0.00000000000000025 0.00000000000000000 0.00000000000000000 0.00000000000000000 1.00000000000000000 -0.00000000000000022 0.00000000000000000 0.00000000000000022 1.00000000000000000 1.00000000000000000 -0.00000000000000000 0.00000000000000000 
2 -11.69999999999999929 0.00000000000000026 0.58750000000000058 0.00000000000000000 -1.00000000000000000 0.00000000000000044 0.00000000000000000 -0.00000000000000044 -1.00000000000000000 1.00000000000000000 0.00000000000000000 0.00000000000000000 1.00000000000000000
2 -11.69999999999999929 0.00000000000000026 0.58750000000000058 0.00000000000000000 -1.00000000000000000 0.00000000000000044 0.00000000000000000 -0.00000000000000044 -1.00000000000000000 1.00000000000000000 0.00000000000000000 0.00000000000000000 1.00000000000000000
2 -11.69999999999999929 0.00000000000000026 0.58750000000000058 0.00000000000000000 -1.00000000000000000 0.00000000000000044 0.00000000000000000 -0.00000000000000044 -1.00000000000000000 1.00000000000000000 0.00000000000000000 0.00000000000000000 1.00000000000000000
2 -11.69999999999999929 0.00000000000000026 0.58750000000000058 0.00000000000000000 -1.00000000000000000 0.00000000000000044 0.00000000000000000 -0.00000000000000044 -1.00000000000000000 1.00000000000000000 0.00000000000000000 0.00000000000000000 1.00000000000000000
2 -11.69999999999999929 0.00000000000000026 0.58750000000000058 0.00000000000000000 -1.00000000000000000 0.00000000000000044 0.00000000000000000 -0.00000000000000044 -1.00000000000000000 1.00000000000000000 0.00000000000000000 0.00000000000000000 1.00000000000000000
2 -11.69999999999999929 -43.70000000000000284 0.58750000000001024 0.00000000000000000 -1.00000000000000000 0.00000000000000044 0.00000000000000000 -0.00000000000000044 -1.00000000000000000 1.00000000000000000 0.00000000000000000 0.00000000000000000 1.00000000000000000
2 -11.69999999999999929 -43.70000000000000284 0.58750000000001024 0.00000000000000000 -1.00000000000000000 0.00000000000000044 0.00000000000000000 -0.00000000000000044 -1.00000000000000000 1.00000000000000000 0.00000000000000000 0.00000000000000000 1.00000000000000000
2 -11.69999999999999929 -43.70000000000000284 0.58750000000001024 0.00000000000000000 -1.00000000000000000 0.00000000000000044 0.00000000000000000 -0.00000000000000044 -1.00000000000000000 1.00000000000000000 0.00000000000000000 0.00000000000000000 1.00000000000000000
2 -11.69999999999999929 -43.70000000000000284 0.58750000000001024 0.00000000000000000 -1.00000000000000000 0.00000000000000044 0.00000000000000000 -0.00000000000000044 -1.00000000000000000 1.00000000000000000 0.00000000000000000 0.00000000000000000 1.00000000000000000
2 -11.69999999999999929 -43.70000000000000284 0.58750000000001024 0.00000000000000000 -1.00000000000000000 0.00000000000000044 0.00000000000000000 -0.00000000000000044 -1.00000000000000000 1.00000000000000000 0.00000000000000000 0.00000000000000000 1.00000000000000000
1 12.69999999999999929 -43.70000000000000284 0.58750000000000990 -1.00000000000000000 0.00000000000000000 0.00000000000000000 0.00000000000000000 0.00000000000000000 -1.00000000000000000 -0.00000000000000000 -1.00000000000000000 -0.00000000000000000 
2 11.69999999999999929 0.58750000000000058 -0.00000000000000026 0.00000000000000000 0.00000000000000044 1.00000000000000000 0.00000000000000000 1.00000000000000000 -0.00000000000000044 1.00000000000000000 -0.00000000000000000 -0.00000000000000000 1.00000000000000000
2 11.69999999999999929 0.00000000000000026 0.58750000000000058 -0.00000000000000000 -1.00000000000000000 0.00000000000000044 0.00000000000000000 -0.00000000000000044 -1.00000000000000000 -1.00000000000000000 -0.00000000000000000 -0.00000000000000000 1.00000000000000000
2 11.69999999999999929 0.00000000000000026 0.58750000000000058 -0.00000000000000000 -1.00000000000000000 0.00000000000000044 0.00000000000000000 -0.00000000000000044 -1.00000000000000000 -1.00000000000000000 -0.00000000000000000 -0.00000000000000000 1.00000000000000000
2 11.69999999999999929 0.00000000000000026 0.58750000000000058 -0.00000000000000000 -1.00000000000000000 0.00000000000000044 0.00000000000000000 -0.00000000000000044 -1.00000000000000000 -1.00000000000000000 -0.00000000000000000 -0.00000000000000000 1.00000000000000000
2 11.69999999999999929 0.00000000000000026 0.58750000000000058 -0.00000000000000000 -1.00000000000000000 0.00000000000000044 0.00000000000000000 -0.00000000000000044 -1.00000000000000000 -1.00000000000000000 -0.00000000000000000 -0.00000000000000000 1.00000000000000000
2 11.69999999999999929 0.00000000000000026 0.58750000000000058 -0.00000000000000000 -1.00000000000000000 0.00000000000000044 0.00000000000000000 -0.00000000000000044 -1.00000000000000000 -1.00000000000000000 -0.00000000000000000 -0.00000000000000000 1.00000000000000000
2 11.69999999999999929 -43.70000000000000284 0.58750000000001024 -0.00000000000000000 -1.00000000000000000 0.00000000000000044 0.00000000000000000 -0.00000000000000044 -1.00000000000000000 -1.00000000000000000 -0.00000000000000000 -0.00000000000000000 1.00000000000000000
2 11.69999999999999929 -43.70000000000000284 0.58750000000001024 -0.00000000000000000 -1.00000000000000000 0.00000000000000044 0.00000000000000000 -0.00000000000000044 -1.00000000000000000 -1.00000000000000000 -0.00000000000000000 -0.00000000000000000 1.00000000000000000
2 11.69999999999999929 -43.70000000000000284 0.58750000000001024 -0.00000000000000000 -1.00000000000000000 0.00000000000000044 0.00000000000000000 -0.00000000000000044 -1.00000000000000000 -1.00000000000000000 -0.00000000000000000 -0.00000000000000000 1.00000000000000000
2 11.69999999999999929 -43.70000000000000284 0.58750000000001024 -0.00000000000000000 -1.00000000000000000 0.00000000000000044 0.00000000000000000 -0.00000000000000044 -1.00000000000000000 -1.00000000000000000 -0.00000000000000000 -0.00000000000000000 1.00000000000000000
2 11.69999999999999929 -43.70000000000000284 0.58750000000001024 -0.00000000000000000 -1.00000000000000000 0.00000000000000044 0.00000000000000000 -0.00000000000000044 -1.00000000000000000 -1.00000000000000000 -0.00000000000000000 -0.00000000000000000 1.00000000000000000
2 -11.69999999999999929 -43.70000000000000284 -0.58749999999999092 -0.00000000000000000 -1.00000000000000000 0.00000000000000044 0.00000000000000000 -0.00000000000000044 -1.00000000000000000 -1.00000000000000000 -0.00000000000000000 -0.00000000000000000 1.00000000000000000
2 11.69999999999999929 -43.70000000000000284 -0.58749999999999092 -0.00000000000000000 -1.00000000000000000 0.00000000000000044 0.00000000000000000 -0.00000000000000044 -1.00000000000000000 -1.00000000000000000 -0.00000000000000000 -0.00000000000000000 1.00000000000000000
1 11.69999999999999929 -43.70000000000000284 -1.58749999999999081 0.00000000000000000 0.00000000000000022 1.00000000000000000 -1.00000000000000000 0.00000000000000000 0.00000000000000000 0.00000000000000000 -1.00000000000000000 0.00000000000000022 
2 -11.69999999999999929 -0.58750000000000058 0.00000000000000026 0.00000000000000000 0.00000000000000044 1.00000000000000000 0.00000000000000000 -1.00000000000000000 0.00000000000000044 -1.00000000000000000 -0.00000000000000000 0.00000000000000000 1.00000000000000000
2 -11.69999999999999929 -0.00000000000000026 -0.58750000000000058 -0.00000000000000000 -1.00000000000000000 0.00000000000000044 0.00000000000000000 -0.00000000000000044 -1.00000000000000000 -1.00000000000000000 -0.00000000000000000 -0.00000000000000000 1.00000000000000000
2 -11.69999999999999929 -0.00000000000000026 -0.58750000000000058 -0.00000000000000000 -1.00000000000000000 0.00000000000000044 0.00000000000000000 -0.00000000000000044 -1.00000000000000000 -1.00000000000000000 -0.00000000000000000 -0.00000000000000000 1.00000000000000000
2 -11.69999999999999929 -0.00000000000000026 -0.58750000000000058 -0.00000000000000000 -1.00000000000000000 0.00000000000000044 0.00000000000000000 -0.00000000000000044 -1.00000000000000000 -1.00000000000000000 -0.00000000000000000 -0.00000000000000000 1.00000000000000000
2 -11.69999999999999929 -0.00000000000000026 -0.58750000000000058 -0.00000000000000000 -1.00000000000000000 0.00000000000000044 0.00000000000000000 -0.00000000000000044 -1.00000000000000000 -1.00000000000000000 -0.00000000000000000 -0.00000000000000000 1.00000000000000000
2 -11.69999999999999929 -0.00000000000000026 -0.58750000000000058 -0.00000000000000000 -1.00000000000000000 0.00000000000000044 0.00000000000000000 -0.00000000000000044 -1.00000000000000000 -1.00000000000000000 -0.00000000000000000 -0.00000000000000000 1.00000000000000000
2 -11.69999999999999929 -43.70000000000000284 -0.58749999999999092 -0.00000000000000000 -1.00000000000000000 0.00000000000000044 0.00000000000000000 -0.00000000000000044 -1.00000000000000000 -1.00000000000000000 -0.00000000000000000 -0.00000000000000000 1.00000000000000000
2 -11.69999999999999929 -43.70000000000000284 -0.58749999999999092 -0.00000000000000000 -1.00000000000000000 0.00000000000000044 0.00000000000000000 -0.00000000000000044 -1.00000000000000000 -1.00000000000000000 -0.00000000000000000 -0.00000000000000000 1.00000000000000000
2 -11.69999999999999929 -43.70000000000000284 -0.58749999999999092 -0.00000000000000000 -1.00000000000000000 0.00000000000000044 0.00000000000000000 -0.00000000000000044 -1.00000000000000000 -1.00000000000000000 -0.00000000000000000 -0.00000000000000000 1.00000000000000000
2 -11.69999999999999929 -43.70000000000000284 -0.58749999999999092 -0.00000000000000000 -1.00000000000000000 0.00000000000000044 0.00000000000000000 -0.00000000000000044 -1.00000000000000000 -1.00000000000000000 -0.00000000000000000 -0.00000000000000000 1.00000000000000000
2 -11.69999999999999929 -43.70000000000000284 -0.58749999999999092 -0.00000000000000000 -1.00000000000000000 0.00000000000000044 0.00000000000000000 -0.00000000000000044 -1.00000000000000000 -1.00000000000000000 -0.00000000000000000 -0.00000000000000000 1.00000000000000000
2 11.69999999999999929 -0.58750000000000058 0.00000000000000026 0.00000000000000000 0.00000000000000044 1.00000000000000000 1.00000000000000000 0.00000000000000000 -0.00000000000000000 0.00000000000000000 -1.00000000000000000 0.00000000000000044 1.00000000000000000
2 11.69999999999999929 -0.00000000000000026 -0.58750000000000058 -0.00000000000000000 -1.00000000000000000 0.00000000000000044 0.00000000000000000 -0.00000000000000044 -1.00000000000000000 -1.00000000000000000 -0.00000000000000000 -0.00000000000000000 1.00000000000000000
2 11.69999999999999929 -0.00000000000000026 -0.58750000000000058 -0.00000000000000000 -1.00000000000000000 0.00000000000000044 0.00000000000000000 -0.00000000000000044 -1.00000000000000000 -1.00000000000000000 -0.00000000000000000 -0.00000000000000000 1.00000000000000000
2 11.69999999999999929 -0.00000000000000026 -0.58750000000000058 -0.00000000000000000 -1.00000000000000000 0.00000000000000044 0.00000000000000000 -0.00000000000000044 -1.00000000000000000 -1.00000000000000000 -0.00000000000000000 -0.00000000000000000 1.00000000000000000
2 11.69999999999999929 -0.00000000000000026 -0.58750000000000058 -0.00000000000000000 -1.00000000000000000 0.00000000000000044 0.00000000000000000 -0.00000000000000044 -1.00000000000000000 -1.00000000000000000 -0.00000000000000000 -0.00000000000000000 1.00000000000000000
2 11.69999999999999929 -0.00000000000000026 -0.58750000000000058 -0.00000000000000000 -1.00000000000000000 0.00000000000000044 0.00000000000000000 -0.00000000000000044 -1.00000000000000000 -1.00000000000000000 -0.00000000000000000 -0.00000000000000000 1.00000000000000000
2 11.69999999999999929 -43.70000000000000284 -0.58749999999999092 -0.00000000000000000 -1.00000000000000000 0.00000000000000044 0.00000000000000000 -0.00000000000000044 -1.00000000000000000 -1.00000000000000000 -0.00000000000000000 -0.00000000000000000 1.00000000000000000
2 11.69999999999999929 -43.70000000000000284 -0.58749999999999092 -0.00000000000000000 -1.00000000000000000 0.00000000000000044 0.00000000000000000 -0.00000000000000044 -1.00000000000000000 -1.00000000000000000 -0.00000000000000000 -0.00000000000000000 1.00000000000000000
2 11.69999999999999929 -43.70000000000000284 -0.58749999999999092 -0.00000000000000000 -1.00000000000000000 0.00000000000000044 0.00000000000000000 -0.00000000000000044 -1.00000000000000000 -1.00000000000000000 -0.00000000000000000 -0.00000000000000000 1.00000000000000000
2 11.69999999999999929 -43.70000000000000284 -0.58749999999999092 -0.00000000000000000 -1.00000000000000000 0.00000000000000044 0.00000000000000000 -0.00000000000000044 -1.00000000000000000 -1.00000000000000000 -0.00000000000000000 -0.00000000000000000 1.00000000000000000
2 11.69999999999999929 -43.70000000000000284 -0.58749999999999092 -0.00000000000000000 -1.00000000000000000 0.00000000000000044 0.00000000000000000 -0.00000000000000044 -1.00000000000000000 -1.00000000000000000 -0.00000000000000000 -0.00000000000000000 1.00000000000000000
Triangulations 0

TShapes 44
Ve
0.000000100000000
-11.699999999999999 1.587500000000001 -0.000000000000001
0 0

0101101
*
Ed
 0.000000100000000 1 1 0
1  1 0 0.000000000000000 87.400000000000006
2  1 2 0 0.000000000000000 87.400000000000006
4 C1 1 0 2 0
2  2 1 0 0.000000000000000 87.400000000000006
0

0101000
+44 11 -44 13 *
Ve
0.000000100000000
11.699999999999999 1.587500000000001 -0.000000000000001
0 0

0101101
*
Ed
 0.000000100000000 1 1 0
1  2 0 0.000000000000000 87.400000000000006
2  3 3 0 0.000000000000000 87.400000000000006
4 C1 1 0 3 0
2  4 1 0 0.000000000000000 87.400000000000006
0

0101000
+42 11 -42 13 *
Ed
 0.000000100000000 1 1 0
1  3 0 1.000000000000000 24.399999999999999
2  5 1 19 1.000000000000000 24.399999999999999
2  6 1 20 1.000000000000000 24.399999999999999
0

0101000
+44 21 -42 21 *
Wi

0101100
+43 0 -41 0 -40 18 +40 22 *
Fa
0  0.000000100000000 1 0

0111000
+39 0 *
Ve
0.000000100000000
-12.699999999999999 0.587500000000001 -0.000000000000000
0 0

0101101
*
Ed
 0.000000100000000 1 1 0
1  4 0 0.000000000000000 87.400000000000006
2  7 2 0 0.000000000000000 87.400000000000006
4 C1 2 0 4 0
0

0101000
+37 11 -37 13 *
Ed
 0.000000100000000 1 1 0
1  5 0 3.141592653589793 4.712388980384690
2  8 5 0 3.141592653589793 4.712388980384690
2  9 6 23 3.141592653589793 4.712388980384690
2  10 7 26 3.141592653589793 4.712388980384690
2  11 7 28 3.141592653589793 4.712388980384690
2  12 8 31 3.141592653589793 4.712388980384690
2  13 8 33 3.141592653589793 4.712388980384690
2  14 9 36 3.141592653589793 4.712388980384690
2  15 9 38 3.141592653589793 4.712388980384690
2  16 10 41 3.141592653589793 4.712388980384690
2  17 10 43 3.141592653589793 4.712388980384690
2  18 11 46 3.141592653589793 4.712388980384690
2  19 11 48 3.141592653589793 4.712388980384690
2  20 12 52 3.141592653589793 4.712388980384690
2  21 12 54 3.141592653589793 4.712388980384690
2  22 13 58 3.141592653589793 4.712388980384690
2  23 13 60 3.141592653589793 4.712388980384690
2  24 14 64 3.141592653589793 4.712388980384690
2  25 14 66 3.141592653589793 4.712388980384690
2  26 15 70 3.141592653589793 4.712388980384690
2  27 15 72 3.141592653589793 4.712388980384690
2  28 16 76 3.141592653589793 4.712388980384690
2  29 16 78 3.141592653589793 4.712388980384690
2  30 2 79 3.141592653589793 4.712388980384690
2  31 2 80 3.141592653589793 4.712388980384690
0

0101000
+44 0 -37 0 *
Wi

0101100
+43 0 -36 0 -35 11 +35 13 *
Fa
0  0.000000100000000 2 0

0111000
+34 0 *
Ve
0.000000100000000
12.699999999999999 0.587500000000001 -0.000000000000000
0 0

0101101
*
Ed
 0.000000100000000 1 1 0
1  6 0 0.000000000000000 87.400000000000006
2  32 3 0 0.000000000000000 87.400000000000006
4 C1 3 0 17 0
0

0101000
+32 11 -32 13 *
Ed
 0.000000100000000 1 1 0
1  7 0 3.141592653589793 4.712388980384690
2  33 18 0 3.141592653589793 4.712388980384690
2  34 6 23 3.141592653589793 4.712388980384690
2  35 19 26 3.141592653589793 4.712388980384690
2  36 19 28 3.141592653589793 4.712388980384690
2  37 20 31 3.141592653589793 4.712388980384690
2  38 20 33 3.141592653589793 4.712388980384690
2  39 21 36 3.141592653589793 4.712388980384690
2  40 21 38 3.141592653589793 4.712388980384690
2  41 22 41 3.141592653589793 4.712388980384690
2  42 22 43 3.141592653589793 4.712388980384690
2  43 23 46 3.141592653589793 4.712388980384690
2  44 23 48 3.141592653589793 4.712388980384690
2  45 24 52 3.141592653589793 4.712388980384690
2  46 24 54 3.141592653589793 4.712388980384690
2  47 25 58 3.141592653589793 4.712388980384690
2  48 25 60 3.141592653589793 4.712388980384690
2  49 26 64 3.141592653589793 4.712388980384690
2  50 26 66 3.141592653589793 4.712388980384690
2  51 27 70 3.141592653589793 4.712388980384690
2  52 27 72 3.141592653589793 4.712388980384690
2  53 28 76 3.141592653589793 4.712388980384690
2  54 28 78 3.141592653589793 4.712388980384690
2  55 3 79 3.141592653589793 4.712388980384690
2  56 3 80 3.141592653589793 4.712388980384690
0

0101000
+42 0 -32 0 *
Wi

0101100
+41 0 -31 0 -30 11 +30 13 *
Fa
0  0.000000100000000 3 0

0111000
+29 0 *
Ve
0.000000100000000
-12.699999999999999 -0.587500000000001 0.000000000000000
0 0

0101101
*
Ed
 0.000000100000000 1 1 0
1  8 0 0.000000000000000 87.400000000000006
2  57 29 0 0.000000000000000 87.400000000000006
4 C1 4 0 29 0
0

0101000
+27 11 -27 13 *
Ed
 0.000000100000000 1 1 0
1  9 0 1.000000000000000 2.175000000000001
0

0101000
+27 21 -37 21 *
Wi

0101100
+26 0 -36 0 -25 18 +25 22 *
Fa
0  0.000000100000000 4 0

0111000
+24 0 *
Ve
0.000000100000000
12.699999999999999 -0.587500000000001 0.000000000000000
0 0

0101101
*
Ed
 0.000000100000000 1 1 0
1  10 0 0.000000000000000 87.400000000000006
2  58 30 0 0.000000000000000 87.400000000000006
4 C1 17 0 30 0
0

0101000
+22 11 -22 13 *
Ed
 0.000000100000000 1 1 0
1  11 0 1.000000000000000 2.175000000000001
0

0101000
+32 21 -22 21 *
Wi

0101100
+31 0 -21 0 -20 18 +20 22 *
Fa
0  0.000000100000000 17 0

0111000
+19 0 *
Ve
0.000000100000000
-11.699999999999999 -1.587500000000001 0.000000000000001
0 0

0101101
*
Ed
 0.000000100000000 1 1 0
1  12 0 0.000000000000000 87.400000000000006
2  59 29 0 0.000000000000000 87.400000000000006
4 C1 29 0 31 0
2  60 31 0 0.000000000000000 87.400000000000006
0

0101000
+17 11 -17 13 *
Ed
 0.000000100000000 1 1 0
1  13 0 0.000000000000000 1.570796326794897
2  61 32 0 0.000000000000000 1.570796326794897
2  62 6 23 0.000000000000000 1.570796326794897
2  63 33 26 0.000000000000000 1.570796326794897
2  64 33 28 0.000000000000000 1.570796326794897
2  65 34 31 0.000000000000000 1.570796326794897
2  66 34 33 0.000000000000000 1.570796326794897
2  67 35 36 0.000000000000000 1.570796326794897
2  68 35 38 0.000000000000000 1.570796326794897
2  69 36 41 0.000000000000000 1.570796326794897
2  70 36 43 0.000000000000000 1.570796326794897
2  71 37 46 0.000000000000000 1.570796326794897
2  72 37 48 0.000000000000000 1.570796326794897
2  73 38 52 0.000000000000000 1.570796326794897
2  74 38 54 0.000000000000000 1.570796326794897
2  75 39 58 0.000000000000000 1.570796326794897
2  76 39 60 0.000000000000000 1.570796326794897
2  77 40 64 0.000000000000000 1.570796326794897
2  78 40 66 0.000000000000000 1.570796326794897
2  79 41 70 0.000000000000000 1.570796326794897
2  80 41 72 0.000000000000000 1.570796326794897
2  81 42 76 0.000000000000000 1.570796326794897
2  82 42 78 0.000000000000000 1.570796326794897
2  83 29 79 0.000000000000000 1.570796326794897
2  84 29 80 0.000000000000000 1.570796326794897
0

0101000
+17 0 -27 0 *
Wi

0101100
+16 0 -26 0 -15 11 +15 13 *
Fa
0  0.000000100000000 29 0

0111000
+14 0 *
Ve
0.000000100000000
11.699999999999999 -1.587500000000001 0.000000000000001
0 0

0101101
*
Ed
 0.000000100000000 1 1 0
1  14 0 0.000000000000000 87.400000000000006
2  85 30 0 0.000000000000000 87.400000000000006
4 C1 30 0 31 0
2  86 31 0 0.000000000000000 87.400000000000006
0

0101000
+12 11 -12 13 *
Ed
 0.000000100000000 1 1 0
1  15 0 4.712388980384690 6.283185307179586
2  87 43 0 4.712388980384690 6.283185307179586
2  88 6 23 4.712388980384690 6.283185307179586
2  89 44 26 4.712388980384690 6.283185307179586
2  90 44 28 4.712388980384690 6.283185307179586
2  91 45 31 4.712388980384690 6.283185307179586
2  92 45 33 4.712388980384690 6.283185307179586
2  93 46 36 4.712388980384690 6.283185307179586
2  94 46 38 4.712388980384690 6.283185307179586
2  95 47 41 4.712388980384690 6.283185307179586
2  96 47 43 4.712388980384690 6.283185307179586
2  97 48 46 4.712388980384690 6.283185307179586
2  98 48 48 4.712388980384690 6.283185307179586
2  99 49 52 4.712388980384690 6.283185307179586
2  100 49 54 4.712388980384690 6.283185307179586
2  101 50 58 4.712388980384690 6.283185307179586
2  102 50 60 4.712388980384690 6.283185307179586
2  103 51 64 4.712388980384690 6.283185307179586
2  104 51 66 4.712388980384690 6.283185307179586
2  105 52 70 4.712388980384690 6.283185307179586
2  106 52 72 4.712388980384690 6.283185307179586
2  107 53 76 4.712388980384690 6.283185307179586
2  108 53 78 4.712388980384690 6.283185307179586
2  109 30 79 4.712388980384690 6.283185307179586
2  110 30 80 4.712388980384690 6.283185307179586
0

0101000
+22 0 -12 0 *
Wi

0101100
+21 0 -11 0 -10 11 +10 13 *
Fa
0  0.000000100000000 30 0

0111000
+9 0 *
Ed
 0.000000100000000 1 1 0
1  16 0 1.000000000000000 24.399999999999999
2  111 31 19 1.000000000000000 24.399999999999999
2  112 31 20 1.000000000000000 24.399999999999999
0

0101000
+12 21 -17 21 *
Wi

0101100
+11 0 -16 0 -7 18 +7 22 *
Fa
0  0.000000100000000 31 0

0111000
+6 0 *
Wi

0101100
+40 83 -35 0 +30 0 +25 83 +20 83 +15 0 +10 0 +7 83 *
Fa
0  0.000000100000000 6 0

0111000
+4 82 *
Sh

0101100
+38 0 -33 0 +28 0 +23 0 +18 0 +13 0 +8 0 +5 0 +3 81 -3 84 
*
So

1100000
-2 0 *

+1 0 