
CASCADE Topology V1, (c) Matra-Datavision
Locations 3
1
1.000000000000000 0.000000000000000 0.000000000000000 0.000000000000000 
0.000000000000000 1.000000000000000 0.000000000000000 0.000000000000000 
0.000000000000000 0.000000000000000 1.000000000000000 0.000000000000000 
1
1.000000000000000 0.000000000000000 0.000000000000000 0.000000000000000 
0.000000000000000 1.000000000000000 0.000000000000000 0.000000000000000 
0.000000000000000 0.000000000000000 1.000000000000000 0.000000000000000 
2  2 -1 0
Curve2ds 42
1 0.00000000000000000 0.00000000000000000 1.00000000000000000 0.00000000000000000 
1 0.00000000000000000 4.82776064359316948 1.00000000000000000 0.00000000000000000 
1 0.00000000000000000 1.29692804511527893 1.00000000000000000 0.00000000000000000 
1 6.28318530717958623 0.00000000000000000 0.00000000000000000 1.00000000000000000 
1 0.00000000000000000 0.00000000000000000 0.00000000000000000 1.00000000000000000 
1 0.00000000000000000 0.00000000000000000 1.00000000000000000 0.00000000000000000 
1 0.00000000000000000 1.29692804511527893 1.00000000000000000 0.00000000000000000 
1 6.28318530717958623 0.00000000000000000 0.00000000000000000 1.00000000000000000 
1 0.00000000000000000 0.00000000000000000 0.00000000000000000 1.00000000000000000 
1 0.00000000000000000 0.00000000000000000 1.00000000000000000 0.00000000000000000 
1 0.00000000000000000 0.00000000000000000 1.00000000000000000 0.00000000000000000 
1 6.28318530717958623 0.00000000000000000 0.00000000000000000 1.00000000000000000 
1 0.00000000000000000 0.00000000000000000 0.00000000000000000 1.00000000000000000 
1 0.00000000000000000 0.00000000000000000 0.00000000000000000 1.00000000000000000 
1 6.28318530717958623 0.00000000000000000 0.00000000000000000 1.00000000000000000 
7 0 0  6 7 2  0.52359877559829882 0.00000000000000080  0.43204775154262304 0.00000000000000084  0.34049715461571317 0.07891171098290073  0.25032480970029880 0.23673489128965031  0.16292598918352397 0.47545455979209095  0.07928551257469549 0.79903730376386273  0.00000000000000000 1.21373936156850548 
 -0.00000000000000001 7 0.54930614433405478 7
7 0 0  6 7 2  1.04719755119659808 1.21373936156850948  0.96791203862190245 0.79903730376386572  0.88427156201307611 0.47545455979207496  0.79687274149625864 0.23673489128968228  0.70670039658088513 0.07891171098288652  0.61514979965397476 0.00000000000000076  0.52359877559829882 0.00000000000000080 
 -0.54930614433405545 7 -0.00000000000000001 7
7 0 0  6 7 2  1.57079632674175640 0.00000000000000080  1.47924530269493748 0.00000000003817046  1.38769470577742027 0.07891171104396832  1.29752236087148276 0.23673489135893533  1.21012354036393788 0.47545455985469687  1.12648306376362339 0.79903730380397864  1.04719755119659808 1.21373936156850193 
 0.00000000005314000 7 0.54930614433405400 7
7 0 0  6 7 2  2.09439510239319482 1.21373936156850348  2.01510958981082933 0.79903730372374304  1.93146911319351489 0.47545455972948858  1.84407029266742484 0.23673489122036528  1.75389794774261532 0.07891171092182603  1.66234735080628870 -0.00000000003816887  1.57079632674175640 0.00000000000000080 
 -0.54930614433405434 7 0.00000000005314000 7
7 0 0  6 7 2  2.61799387804672978 0.00000000000000159  2.52644285398184820 -0.00000000003967342  2.43489225704522028 0.07891171091942084  2.34471991211978548 0.23673489121764391  2.25732109159358174 0.47545455972701589  2.17368061497586362 0.79903730372216120  2.09439510239319571 1.21373936156850393 
 -0.00000000005523570 7 0.54930614433405434 7
7 0 0  6 7 2  3.14159265358979267 1.21373936156850593  3.06230714102306978 0.79903730380556404  2.97866666442311612 0.47545455985716423  2.89126784391572755 0.23673489136166381  2.80109549901038690 0.07891171104637706  2.70954490209319943 0.00000000003967660  2.61799387804672978 0.00000000000000159 
 -0.54930614433405456 7 -0.00000000005523570 7
7 0 0  6 7 2  3.66519142918809093 0.00000000000000080  3.57364040513241532 0.00000000000000134  3.48208980820547254 0.07891171098289718  3.39191746329004218 0.23673489128965741  3.30451864277330287 0.47545455979209095  3.22087816616448874 0.79903730376386162  3.14159265358979312 1.21373936156850393 
 0.00000000000000039 7 0.54930614433405467 7
7 0 0  6 7 2  4.18879020478638964 1.21373936156850037  4.10950469221169445 0.79903730376385895  4.02586421560295094 0.47545455979209628  3.93846539508581373 0.23673489128964675  3.84829305017080969 0.07891171098289718  3.75674245324376654 0.00000000000000025  3.66519142918809093 0.00000000000000080 
 -0.54930614433405389 7 0.00000000000000039 7
7 0 0  6 7 2  4.71238898038468879 0.00000000000000080  4.62083795632901317 0.00000000000000117  4.52928735940218985 0.07891171098289718  4.43911501448644685 0.23673489128966452  4.35171619396999176 0.47545455979208739  4.26807571736108482 0.79903730376386584  4.18879020478638964 1.21373936156850948 
 0.00000000000000052 7 0.54930614433405556 7
7 0 0  6 7 2  5.23598775598298793 1.21373936156850548  5.15670224340829275 0.79903730376386251  5.07306176679952614 0.47545455979208207  4.98566294628267315 0.23673489128966096  4.89549060136732805 0.07891171098289007  4.80394000444036440 0.00000000000000042  4.71238898038468879 0.00000000000000080 
 -0.54930614433405467 7 0.00000000000000052 7
7 0 0  6 7 2  5.75958653158128708 -0.00000000000000119  5.66803550752561147 -0.00000000000000105  5.57648491059870821 0.07891171098287941  5.48631256568296521 0.23673489128969294  5.39891374516651013 0.47545455979206963  5.31527326855768312 0.79903730376386406  5.23598775598298793 1.21373936156850748 
 0.00000000000000016 7 0.54930614433405534 7
7 0 0  6 7 2  6.28318530717958623 1.21373936156850548  6.20389979460489105 0.79903730376386228  6.12025931799615819 0.47545455979209628  6.03286049747896413 0.23673489128964675  5.94268815256396010 0.07891171098290428  5.85113755563696269 -0.00000000000000134  5.75958653158128708 -0.00000000000000119 
 -0.54930614433405511 7 0.00000000000000016 7
1 0.00000000000000000 1.21373936156850593 1.00000000000000000 0.00000000000000000 
7 0 0  6 7 2  0.00000000000000000 0.00000000000000010  0.07928551257469554 0.41470205780464314  0.16292598918351331 0.73828480177643740  0.25032480970031656 0.97700447027879989  0.34049715461570429 1.13482765058562762  0.43204775154262332 1.21373936156850548  0.52359877559829915 1.21373936156850526 
 -0.54930614433405478 7 0.00000000000000035 7
7 0 0  6 7 2  0.52359877559829915 1.21373936156850526  0.61514979965397487 1.21373936156850504  0.70670039658087802 1.13482765058560631  0.79687274149628706 0.97700447027881410  0.88427156201306190 0.73828480177641609  0.96791203862190223 0.41470205780464287  1.04719755119659763 0.00000000000000010 
 0.00000000000000035 7 0.54930614433405489 7
7 0 0  6 7 2  1.04719755119659785 0.00000000000000169  1.12648306377896357 0.41470205784476361  1.21012354039631020 0.73828480183902911  1.29752236092221551 0.97700447034809201  1.38769470584720978 1.13482765064667745  1.47924530278350508 1.21373936160667606  1.57079632684803783 1.21373936156850526 
 -0.54930614433405456 7 0.00000000005314143 7
7 0 0  6 7 2  1.57079632684803783 1.21373936156850526  1.66234735089485675 1.21373936153033446  1.75389794781237640 1.13482765052454226  1.84407029271818601 0.97700447020952197  1.93146911322587300 0.73828480171381727  2.01510958982616950 0.41470205776452485  2.09439510239319482 0.00000000000000208 
 0.00000000005314143 7 0.54930614433405434 7
7 0 0  6 7 2  2.09439510239319571 0.00000000000000169  2.17368061496226339 0.41470205777520858  2.25732109156484739 0.73828480173045818  2.34471991207487918 0.97700447022801029  2.43489225698328937 1.13482765054077817  2.52644285390332701 1.21373936154049877  2.61799387795250471 1.21373936156850415 
 -0.54930614433405434 7 -0.00000000003898936 7
7 0 0  6 7 2  2.61799387795250471 1.21373936156850415  2.70954490201467868 1.21373936159650953  2.80109549894848442 1.13482765063041313  2.89126784387087810 0.97700447032966053  2.97866666439443861 0.73828480182234557  3.06230714100946955 0.41470205783407793  3.14159265358979267 0.00000000000000010 
 -0.00000000003898936 7 0.54930614433405456 7
7 0 0  6 7 2  3.14159265358979312 0.00000000000000169  3.22087816616448874 0.41470205780464392  3.30451864277330287 0.73828480177642319  3.39191746329004218 0.97700447027878567  3.48208980820550096 1.13482765058561341  3.57364040513241532 1.21373936156850482  3.66519142918809093 1.21373936156850526 
 -0.54930614433405467 7 -0.00000000000000039 7
7 0 0  6 7 2  3.66519142918809093 1.21373936156850526  3.75674245324376654 1.21373936156850570  3.84829305017078127 1.13482765058558499  3.93846539508581373 0.97700447027884252  4.02586421560295094 0.73828480177640188  4.10950469221169445 0.41470205780464731  4.18879020478638964 0.00000000000000566 
 -0.00000000000000039 7 0.54930614433405389 7
7 0 0  6 7 2  4.18879020478638964 -0.00000000000000387  4.26807571736108482 0.41470205780463992  4.35171619397002019 0.73828480177642319  4.43911501448644685 0.97700447027881410  4.52928735940218985 1.13482765058560631  4.62083795632901317 1.21373936156850482  4.71238898038468879 1.21373936156850526 
 -0.54930614433405556 7 -0.00000000000000052 7
7 0 0  6 7 2  4.71238898038468879 1.21373936156850526  4.80394000444036440 1.21373936156850570  4.89549060136732805 1.13482765058563473  4.98566294628233209 0.97700447027875725  5.07306176679952614 0.73828480177645162  5.15670224340829275 0.41470205780464309  5.23598775598298793 0.00000000000000010 
 -0.00000000000000052 7 0.54930614433405467 7
7 0 0  6 7 2  5.23598775598298793 -0.00000000000000149  5.31527326855768312 0.41470205780464209  5.39891374516656697 0.73828480177640188  5.48631256568307890 0.97700447027887094  5.57648491059876505 1.13482765058559210  5.66803550752561147 1.21373936156850704  5.75958653158128708 1.21373936156850704 
 -0.54930614433405534 7 -0.00000000000000016 7
7 0 0  6 7 2  5.75958653158128708 1.21373936156850704  5.85113755563696269 1.21373936156850704  5.94268815256396010 1.13482765058563473  6.03286049747907782 0.97700447027875725  6.12025931799615819 0.73828480177645162  6.20389979460489105 0.41470205780464342  6.28318530717958623 0.00000000000000010 
 -0.00000000000000016 7 0.54930614433405511 7
1 0.00000000000000000 0.00000000000000000 0.00000000000000000 1.00000000000000000 
1 6.28318530717958623 0.00000000000000000 0.00000000000000000 1.00000000000000000 
Curves 53
2 0.00000000000000000 0.00000000000000000 5.16343032179658490 0.00000000000000000 0.00000000000000000 1.00000000000000000 1.00000000000000000 0.00000000000000000 0.00000000000000000 0.00000000000000000 1.00000000000000000 0.00000000000000000 3.20496370638455819
2 0.00000000000000000 0.00000000000000000 5.49910000000000032 0.00000000000000000 0.00000000000000000 1.00000000000000000 1.00000000000000000 0.00000000000000000 0.00000000000000000 0.00000000000000000 1.00000000000000000 0.00000000000000000 4.45770000000000000
1 3.20496370638455819 0.00000000000000000 5.16343032179658490 0.96592582628906842 0.00000000000000000 0.25881904510252079 
2 0.00000000000000000 0.00000000000000000 0.33566967820341542 0.00000000000000000 0.00000000000000000 1.00000000000000000 1.00000000000000000 0.00000000000000000 0.00000000000000000 0.00000000000000000 1.00000000000000000 0.00000000000000000 3.20496370638455819
1 3.20496370638455819 0.00000000000000000 0.33566967820341542 0.00000000000000000 0.00000000000000000 1.00000000000000000 
2 0.00000000000000000 0.00000000000000000 5.49910000000000032 0.00000000000000000 0.00000000000000000 1.00000000000000000 1.00000000000000000 0.00000000000000000 0.00000000000000000 0.00000000000000000 1.00000000000000000 0.00000000000000000 7.02944999999999975
2 0.00000000000000000 0.00000000000000000 5.49910000000000032 0.00000000000000000 0.00000000000000000 1.00000000000000000 1.00000000000000000 0.00000000000000000 0.00000000000000000 0.00000000000000000 1.00000000000000000 0.00000000000000000 7.02944999999999975
2 0.00000000000000000 0.00000000000000000 5.49910000000000032 0.00000000000000000 0.00000000000000000 1.00000000000000000 1.00000000000000000 0.00000000000000000 0.00000000000000000 0.00000000000000000 1.00000000000000000 0.00000000000000000 7.02944999999999975
2 0.00000000000000000 0.00000000000000000 5.49910000000000032 0.00000000000000000 0.00000000000000000 1.00000000000000000 1.00000000000000000 0.00000000000000000 0.00000000000000000 0.00000000000000000 1.00000000000000000 0.00000000000000000 7.02944999999999975
2 0.00000000000000000 0.00000000000000000 5.49910000000000032 0.00000000000000000 0.00000000000000000 1.00000000000000000 1.00000000000000000 0.00000000000000000 0.00000000000000000 0.00000000000000000 1.00000000000000000 0.00000000000000000 7.02944999999999975
2 0.00000000000000000 0.00000000000000000 5.49910000000000032 0.00000000000000000 0.00000000000000000 1.00000000000000000 1.00000000000000000 0.00000000000000000 0.00000000000000000 0.00000000000000000 1.00000000000000000 0.00000000000000000 7.02944999999999975
2 0.00000000000000000 0.00000000000000000 5.49910000000000032 0.00000000000000000 0.00000000000000000 1.00000000000000000 1.00000000000000000 0.00000000000000000 0.00000000000000000 0.00000000000000000 1.00000000000000000 0.00000000000000000 7.02944999999999975
2 0.00000000000000000 0.00000000000000000 0.00000000000000000 0.00000000000000000 0.00000000000000000 1.00000000000000000 1.00000000000000000 0.00000000000000000 0.00000000000000000 0.00000000000000000 1.00000000000000000 0.00000000000000000 4.45770000000000000
1 4.45770000000000000 0.00000000000000000 0.00000000000000000 -0.96592582628906842 0.00000000000000000 0.25881904510252079 
1 7.02944999999999975 0.00000000000000000 5.49910000000000032 0.89595817186378035 0.00000000000000000 -0.44413844043328743 
5 6.08768227463252298 3.51472499999999988 8.98369231485020947 -0.86602540378443871 -0.49999999999999994 -0.00000000000000000 0.00000000000000000 0.00000000000000000 -1.00000000000000000 0.49999999999999994 -0.86602540378443871 0.00000000000000000 3.48459231485020915 7.02945000000000064
5 6.08768227463252298 3.51472499999999988 8.98369231485020947 -0.86602540378443871 -0.49999999999999994 -0.00000000000000000 0.00000000000000000 0.00000000000000000 -1.00000000000000000 0.49999999999999994 -0.86602540378443871 0.00000000000000000 3.48459231485020915 7.02945000000000064
5 0.00000000000000154 7.02945000000000064 8.98369231485020947 -0.00000000000000022 -1.00000000000000000 -0.00000000000000000 0.00000000000000000 0.00000000000000000 -1.00000000000000000 1.00000000000000000 -0.00000000000000022 0.00000000000000000 3.48459231485020915 7.02945000000000064
5 0.00000000000000154 7.02945000000000064 8.98369231485020947 -0.00000000000000022 -1.00000000000000000 -0.00000000000000000 0.00000000000000000 0.00000000000000000 -1.00000000000000000 1.00000000000000000 -0.00000000000000022 0.00000000000000000 3.48459231485020915 7.02945000000000064
5 -6.08768227463252298 3.51472500000000254 8.98369231485020947 0.86602540378443860 -0.50000000000000022 0.00000000000000000 0.00000000000000000 0.00000000000000000 -1.00000000000000000 0.50000000000000022 0.86602540378443860 0.00000000000000000 3.48459231485020959 7.02945000000000153
5 -6.08768227463252298 3.51472500000000254 8.98369231485020947 0.86602540378443860 -0.50000000000000022 0.00000000000000000 0.00000000000000000 0.00000000000000000 -1.00000000000000000 0.50000000000000022 0.86602540378443860 0.00000000000000000 3.48459231485020959 7.02945000000000153
5 -6.08768227463252387 -3.51472499999999810 8.98369231485020947 0.86602540378443882 0.49999999999999967 0.00000000000000000 0.00000000000000000 0.00000000000000000 -1.00000000000000000 -0.49999999999999967 0.86602540378443882 0.00000000000000000 3.48459231485020915 7.02945000000000064
5 -6.08768227463252387 -3.51472499999999810 8.98369231485020947 0.86602540378443882 0.49999999999999967 0.00000000000000000 0.00000000000000000 0.00000000000000000 -1.00000000000000000 -0.49999999999999967 0.86602540378443882 0.00000000000000000 3.48459231485020915 7.02945000000000064
5 -0.00000000000000385 -7.02945000000000064 8.98369231485020947 0.00000000000000055 1.00000000000000000 0.00000000000000000 0.00000000000000000 0.00000000000000000 -1.00000000000000000 -1.00000000000000000 0.00000000000000055 0.00000000000000000 3.48459231485020915 7.02945000000000064
5 -0.00000000000000385 -7.02945000000000064 8.98369231485020947 0.00000000000000055 1.00000000000000000 0.00000000000000000 0.00000000000000000 0.00000000000000000 -1.00000000000000000 -1.00000000000000000 0.00000000000000055 0.00000000000000000 3.48459231485020915 7.02945000000000064
5 6.08768227463252032 -3.51472500000000165 8.98369231485020947 -0.86602540378443849 0.50000000000000033 0.00000000000000000 0.00000000000000000 0.00000000000000000 -1.00000000000000000 -0.50000000000000033 -0.86602540378443849 -0.00000000000000000 3.48459231485020826 7.02944999999999887
5 6.08768227463252032 -3.51472500000000165 8.98369231485020947 -0.86602540378443849 0.50000000000000033 0.00000000000000000 0.00000000000000000 0.00000000000000000 -1.00000000000000000 -0.50000000000000033 -0.86602540378443849 -0.00000000000000000 3.48459231485020826 7.02944999999999887
2 0.00000000000000000 0.00000000000000000 0.00000000000000000 0.00000000000000000 0.00000000000000000 1.00000000000000000 1.00000000000000000 0.00000000000000000 0.00000000000000000 0.00000000000000000 1.00000000000000000 0.00000000000000000 7.02944999999999975
2 0.00000000000000000 0.00000000000000000 0.00000000000000000 0.00000000000000000 0.00000000000000000 1.00000000000000000 1.00000000000000000 0.00000000000000000 0.00000000000000000 0.00000000000000000 1.00000000000000000 0.00000000000000000 7.02944999999999975
2 0.00000000000000000 0.00000000000000000 0.00000000000000000 0.00000000000000000 0.00000000000000000 1.00000000000000000 1.00000000000000000 0.00000000000000000 0.00000000000000000 0.00000000000000000 1.00000000000000000 0.00000000000000000 7.02944999999999975
2 0.00000000000000000 0.00000000000000000 0.00000000000000000 0.00000000000000000 0.00000000000000000 1.00000000000000000 1.00000000000000000 0.00000000000000000 0.00000000000000000 0.00000000000000000 1.00000000000000000 0.00000000000000000 7.02944999999999975
2 0.00000000000000000 0.00000000000000000 0.00000000000000000 0.00000000000000000 0.00000000000000000 1.00000000000000000 1.00000000000000000 0.00000000000000000 0.00000000000000000 0.00000000000000000 1.00000000000000000 0.00000000000000000 7.02944999999999975
2 0.00000000000000000 0.00000000000000000 0.00000000000000000 0.00000000000000000 0.00000000000000000 1.00000000000000000 1.00000000000000000 0.00000000000000000 0.00000000000000000 0.00000000000000000 1.00000000000000000 0.00000000000000000 7.02944999999999975
2 0.00000000000000000 0.00000000000000000 0.00000000000000000 0.00000000000000000 0.00000000000000000 1.00000000000000000 1.00000000000000000 0.00000000000000000 0.00000000000000000 0.00000000000000000 1.00000000000000000 0.00000000000000000 7.02944999999999975
5 6.08768227463252298 3.51472499999999988 -3.48459231485021270 -0.86602540378443871 -0.49999999999999994 0.00000000000000000 0.00000000000000000 0.00000000000000000 1.00000000000000000 -0.49999999999999994 0.86602540378443871 0.00000000000000000 3.48459231485021270 7.02945000000000064
5 6.08768227463252298 3.51472499999999988 -3.48459231485021270 -0.86602540378443871 -0.49999999999999994 0.00000000000000000 0.00000000000000000 0.00000000000000000 1.00000000000000000 -0.49999999999999994 0.86602540378443871 0.00000000000000000 3.48459231485021270 7.02945000000000064
1 4.05845484975501591 7.02944999999999975 -0.54991000000000001 0.00000000000000000 0.00000000000000000 1.00000000000000000 
1 8.11690969951003005 0.00000000000000000 4.96003169286047019 0.00000000000000000 0.00000000000000000 -1.00000000000000000 
5 0.00000000000000154 7.02945000000000064 -3.48459231485021270 -0.00000000000000022 -1.00000000000000000 0.00000000000000000 0.00000000000000000 0.00000000000000000 1.00000000000000000 -1.00000000000000000 0.00000000000000022 0.00000000000000000 3.48459231485021270 7.02945000000000064
5 0.00000000000000154 7.02945000000000064 -3.48459231485021270 -0.00000000000000022 -1.00000000000000000 0.00000000000000000 0.00000000000000000 0.00000000000000000 1.00000000000000000 -1.00000000000000000 0.00000000000000022 0.00000000000000000 3.48459231485021270 7.02945000000000064
1 -4.05845484975501414 7.02945000000000153 -0.54991000000000001 0.00000000000000000 0.00000000000000000 1.00000000000000000 
5 -6.08768227463252298 3.51472500000000254 -3.48459231485021270 0.86602540378443860 -0.50000000000000022 0.00000000000000000 0.00000000000000000 0.00000000000000000 1.00000000000000000 -0.50000000000000022 -0.86602540378443860 0.00000000000000000 3.48459231485021315 7.02945000000000153
5 -6.08768227463252298 3.51472500000000254 -3.48459231485021270 0.86602540378443860 -0.50000000000000022 0.00000000000000000 0.00000000000000000 0.00000000000000000 1.00000000000000000 -0.50000000000000022 -0.86602540378443860 0.00000000000000000 3.48459231485021315 7.02945000000000153
1 -8.11690969951003005 0.00000000000000266 -0.54991000000000001 0.00000000000000000 0.00000000000000000 1.00000000000000000 
5 -6.08768227463252387 -3.51472499999999810 -3.48459231485021270 0.86602540378443882 0.49999999999999967 -0.00000000000000000 0.00000000000000000 0.00000000000000000 1.00000000000000000 0.49999999999999967 -0.86602540378443882 0.00000000000000000 3.48459231485021270 7.02945000000000064
5 -6.08768227463252387 -3.51472499999999810 -3.48459231485021270 0.86602540378443882 0.49999999999999967 -0.00000000000000000 0.00000000000000000 0.00000000000000000 1.00000000000000000 0.49999999999999967 -0.86602540378443882 0.00000000000000000 3.48459231485021270 7.02945000000000064
1 -4.05845484975501858 -7.02944999999999798 -0.54991000000000001 0.00000000000000000 0.00000000000000000 1.00000000000000000 
5 -0.00000000000000385 -7.02945000000000064 -3.48459231485021270 0.00000000000000055 1.00000000000000000 -0.00000000000000000 0.00000000000000000 0.00000000000000000 1.00000000000000000 1.00000000000000000 -0.00000000000000055 0.00000000000000000 3.48459231485021270 7.02945000000000064
5 -0.00000000000000385 -7.02945000000000064 -3.48459231485021270 0.00000000000000055 1.00000000000000000 -0.00000000000000000 0.00000000000000000 0.00000000000000000 1.00000000000000000 1.00000000000000000 -0.00000000000000055 0.00000000000000000 3.48459231485021270 7.02945000000000064
1 4.05845484975501058 -7.02945000000000242 -0.54991000000000001 0.00000000000000000 0.00000000000000000 1.00000000000000000 
5 6.08768227463252032 -3.51472500000000165 -3.48459231485021270 -0.86602540378443849 0.50000000000000033 0.00000000000000000 0.00000000000000000 0.00000000000000000 1.00000000000000000 0.50000000000000033 0.86602540378443849 0.00000000000000000 3.48459231485021181 7.02944999999999887
5 6.08768227463252032 -3.51472500000000165 -3.48459231485021270 -0.86602540378443849 0.50000000000000033 0.00000000000000000 0.00000000000000000 0.00000000000000000 1.00000000000000000 0.50000000000000033 0.86602540378443849 0.00000000000000000 3.48459231485021181 7.02944999999999887
1 8.11690969951003005 0.00000000000000000 0.53906830713953036 -0.89595817186378024 0.00000000000000000 -0.44413844043328760 
Polygon3D 0
PolygonOnTriangulations 0
Surfaces 25
3 0.00000000000000000 0.00000000000000000 5.16343032179658490 0.00000000000000000 0.00000000000000000 1.00000000000000000 1.00000000000000000 0.00000000000000000 0.00000000000000000 0.00000000000000000 1.00000000000000000 0.00000000000000000 3.20496370638455819
1.30899693899574721
2 0.00000000000000000 0.00000000000000000 0.33566967820341542 0.00000000000000000 0.00000000000000000 1.00000000000000000 1.00000000000000000 0.00000000000000000 0.00000000000000000 0.00000000000000000 1.00000000000000000 0.00000000000000000 3.20496370638455819
3 0.00000000000000000 0.00000000000000000 0.00000000000000000 0.00000000000000000 0.00000000000000000 1.00000000000000000 1.00000000000000000 0.00000000000000000 0.00000000000000000 0.00000000000000000 1.00000000000000000 0.00000000000000000 4.45770000000000000
-1.30899693899574721
1 0.00000000000000000 0.00000000000000000 5.49910000000000032 0.00000000000000000 0.00000000000000000 1.00000000000000000 -1.00000000000000000 0.00000000000000000 0.00000000000000000 0.00000000000000000 1.00000000000000000 0.00000000000000000 
3 0.00000000000000000 0.00000000000000000 5.49910000000000032 -0.00000000000000000 -0.00000000000000000 -1.00000000000000000 1.00000000000000000 0.00000000000000000 0.00000000000000000 0.00000000000000000 1.00000000000000000 0.00000000000000000 7.02944999999999975
1.11058390231517334
3 0.00000000000000000 0.00000000000000000 5.49910000000000032 -0.00000000000000000 -0.00000000000000000 -1.00000000000000000 1.00000000000000000 0.00000000000000000 0.00000000000000000 0.00000000000000000 1.00000000000000000 0.00000000000000000 7.02944999999999975
1.11058390231517334
3 0.00000000000000000 0.00000000000000000 5.49910000000000032 -0.00000000000000000 -0.00000000000000000 -1.00000000000000000 1.00000000000000000 0.00000000000000000 0.00000000000000000 0.00000000000000000 1.00000000000000000 0.00000000000000000 7.02944999999999975
1.11058390231517334
3 0.00000000000000000 0.00000000000000000 5.49910000000000032 -0.00000000000000000 -0.00000000000000000 -1.00000000000000000 1.00000000000000000 0.00000000000000000 0.00000000000000000 0.00000000000000000 1.00000000000000000 0.00000000000000000 7.02944999999999975
1.11058390231517334
3 0.00000000000000000 0.00000000000000000 5.49910000000000032 -0.00000000000000000 -0.00000000000000000 -1.00000000000000000 1.00000000000000000 0.00000000000000000 0.00000000000000000 0.00000000000000000 1.00000000000000000 0.00000000000000000 7.02944999999999975
1.11058390231517334
3 0.00000000000000000 0.00000000000000000 5.49910000000000032 -0.00000000000000000 -0.00000000000000000 -1.00000000000000000 1.00000000000000000 0.00000000000000000 0.00000000000000000 0.00000000000000000 1.00000000000000000 0.00000000000000000 7.02944999999999975
1.11058390231517334
3 0.00000000000000000 0.00000000000000000 5.49910000000000032 -0.00000000000000000 -0.00000000000000000 -1.00000000000000000 1.00000000000000000 0.00000000000000000 0.00000000000000000 0.00000000000000000 1.00000000000000000 0.00000000000000000 7.02944999999999975
1.11058390231517334
1 0.00000000000000000 0.00000000000000000 0.00000000000000000 0.00000000000000000 0.00000000000000000 1.00000000000000000 1.00000000000000000 0.00000000000000000 0.00000000000000000 0.00000000000000000 1.00000000000000000 0.00000000000000000 
3 0.00000000000000000 0.00000000000000000 0.53906830713953036 -0.00000000000000000 -0.00000000000000000 -1.00000000000000000 1.00000000000000000 0.00000000000000000 0.00000000000000000 0.00000000000000000 1.00000000000000000 0.00000000000000000 8.11690969951003005
-1.11058390231517290
3 0.00000000000000000 0.00000000000000000 0.53906830713953036 -0.00000000000000000 -0.00000000000000000 -1.00000000000000000 1.00000000000000000 0.00000000000000000 0.00000000000000000 0.00000000000000000 1.00000000000000000 0.00000000000000000 8.11690969951003005
-1.11058390231517290
3 0.00000000000000000 0.00000000000000000 0.53906830713953036 -0.00000000000000000 -0.00000000000000000 -1.00000000000000000 1.00000000000000000 0.00000000000000000 0.00000000000000000 0.00000000000000000 1.00000000000000000 0.00000000000000000 8.11690969951003005
-1.11058390231517290
3 0.00000000000000000 0.00000000000000000 0.53906830713953036 -0.00000000000000000 -0.00000000000000000 -1.00000000000000000 1.00000000000000000 0.00000000000000000 0.00000000000000000 0.00000000000000000 1.00000000000000000 0.00000000000000000 8.11690969951003005
-1.11058390231517290
3 0.00000000000000000 0.00000000000000000 0.53906830713953036 -0.00000000000000000 -0.00000000000000000 -1.00000000000000000 1.00000000000000000 0.00000000000000000 0.00000000000000000 0.00000000000000000 1.00000000000000000 0.00000000000000000 8.11690969951003005
-1.11058390231517290
3 0.00000000000000000 0.00000000000000000 0.53906830713953036 -0.00000000000000000 -0.00000000000000000 -1.00000000000000000 1.00000000000000000 0.00000000000000000 0.00000000000000000 0.00000000000000000 1.00000000000000000 0.00000000000000000 8.11690969951003005
-1.11058390231517290
3 0.00000000000000000 0.00000000000000000 0.53906830713953036 -0.00000000000000000 -0.00000000000000000 -1.00000000000000000 1.00000000000000000 0.00000000000000000 0.00000000000000000 0.00000000000000000 1.00000000000000000 0.00000000000000000 8.11690969951003005
-1.11058390231517290
1 8.11690969951003005 0.00000000000000000 -0.54991000000000001 -0.86602540378443871 -0.49999999999999994 0.00000000000000000 -0.49999999999999994 0.86602540378443871 0.00000000000000000 0.00000000000000000 0.00000000000000000 -1.00000000000000000 
1 4.05845484975501591 7.02944999999999975 -0.54991000000000001 -0.00000000000000022 -1.00000000000000000 0.00000000000000000 -1.00000000000000000 0.00000000000000022 0.00000000000000000 0.00000000000000000 0.00000000000000000 -1.00000000000000000 
1 -4.05845484975501414 7.02945000000000153 -0.54991000000000001 0.86602540378443860 -0.50000000000000022 0.00000000000000000 -0.50000000000000022 -0.86602540378443860 0.00000000000000000 0.00000000000000000 0.00000000000000000 -1.00000000000000000 
1 -8.11690969951003005 0.00000000000000266 -0.54991000000000001 0.86602540378443882 0.49999999999999967 0.00000000000000000 0.49999999999999967 -0.86602540378443882 0.00000000000000000 0.00000000000000000 0.00000000000000000 -1.00000000000000000 
1 -4.05845484975501858 -7.02944999999999798 -0.54991000000000001 0.00000000000000055 1.00000000000000000 0.00000000000000000 1.00000000000000000 -0.00000000000000055 0.00000000000000000 0.00000000000000000 0.00000000000000000 -1.00000000000000000 
1 4.05845484975501058 -7.02945000000000242 -0.54991000000000001 -0.86602540378443849 0.50000000000000033 0.00000000000000000 0.50000000000000033 0.86602540378443849 0.00000000000000000 0.00000000000000000 0.00000000000000000 -1.00000000000000000 
Triangulations 0

TShapes 138
Ve
0.000000100000000
3.204963706384558 0.000000000000000 5.163430321796585
0 0

0101101
*
Ed
 0.000000100000000 1 1 0
1  1 0 0.000000000000000 6.283185307179586
2  1 1 0 0.000000000000000 6.283185307179586
2  2 2 0 0.000000000000000 6.283185307179586
0

0101000
+138 3 -138 3 *
Ve
0.000000100000000
4.457700000000000 0.000000000000000 5.499100000000000
0 0

0101101
*
Ed
 0.000000100000000 1 1 0
1  2 0 0.000000000000000 6.283185307179586
2  3 1 0 0.000000000000000 6.283185307179586
0

0101000
+136 3 -136 3 *
Ed
 0.000000100000000 1 1 0
1  3 0 0.000000000000000 1.296928045115279
3  4 5CN 1 0 0.000000000000000 1.296928045115279
0

0101000
+138 3 -136 3 *
Wi

0101100
+137 0 -135 0 -134 0 +134 0 *
Fa
0  0.000000100000000 1 0

0111000
+133 0 *
Ve
0.000000100000000
3.204963706384558 0.000000000000000 0.335669678203415
0 0

0101101
*
Ed
 0.000000100000000 1 1 0
1  4 0 0.000000000000000 6.283185307179586
2  6 2 0 0.000000000000000 6.283185307179586
2  7 3 0 0.000000000000000 6.283185307179586
0

0101000
+131 3 -131 3 *
Ed
 0.000000100000000 1 1 0
1  5 0 0.000000000000000 4.827760643593169
3  8 9CN 2 0 0.000000000000000 4.827760643593169
0

0101000
+131 3 -138 3 *
Wi

0101100
+130 0 -137 0 -129 0 +129 0 *
Fa
0  0.000000100000000 2 0

0111000
+128 0 *
Wi

0101100
+135 0 *
Ve
0.000000100000000
7.029450000000000 0.000000000000000 5.499100000000000
0 0

0101101
*
Ve
0.000000200001000
6.087682274632522 3.514724999999999 5.499100000000000
0 0

0101101
*
Ed
 0.000000100000000 1 1 0
1  6 0 0.000000000000000 0.523598775598299
2  10 5 0 0.000000000000000 0.523598775598299
0

0101000
+125 3 -124 3 *
Ve
0.000000200001000
0.000000000000002 7.029450000000000 5.499100000000000
0 0

0101101
*
Ed
 0.000000100000000 1 1 0
1  7 0 0.523598775598299 1.570796326794896
2  10 6 0 0.523598775598299 1.570796326794896
0

0101000
+124 3 -122 3 *
Ve
0.000000200001000
-6.087682274632521 3.514725000000002 5.499100000000000
0 0

0101101
*
Ed
 0.000000100000000 1 1 0
1  8 0 1.570796326794896 2.617993877991494
2  10 7 0 1.570796326794896 2.617993877991494
0

0101000
+122 3 -120 3 *
Ve
0.000000200001000
-6.087682274632525 -3.514724999999995 5.499100000000000
0 0

0101101
*
Ed
 0.000000100000000 1 1 0
1  9 0 2.617993877991494 3.665191429188091
2  10 8 0 2.617993877991494 3.665191429188091
0

0101000
+120 3 -118 3 *
Ve
0.000000200001000
-0.000000000000008 -7.029450000000000 5.499100000000000
0 0

0101101
*
Ed
 0.000000100000000 1 1 0
1  10 0 3.665191429188091 4.712388980384689
2  10 9 0 3.665191429188091 4.712388980384689
0

0101000
+118 3 -116 3 *
Ve
0.000000200001000
6.087682274632520 -3.514725000000003 5.499100000000000
0 0

0101101
*
Ed
 0.000000100000000 1 1 0
1  11 0 4.712388980384689 5.759586531581287
2  10 10 0 4.712388980384689 5.759586531581287
0

0101000
+116 3 -114 3 *
Ed
 0.000000100000000 1 1 0
1  12 0 5.759586531581287 6.283185307179586
2  10 11 0 5.759586531581287 6.283185307179586
0

0101000
+114 3 -125 3 *
Wi

0101100
-123 0 -121 0 -119 0 -117 0 -115 0 -113 0 -112 0 *
Fa
0  0.000000100000000 4 0

0111000
+126 0 +111 0 *
Ve
0.000000100000000
4.457700000000000 0.000000000000000 0.000000000000000
0 0

0101101
*
Ed
 0.000000100000000 1 1 0
1  13 0 0.000000000000000 6.283185307179586
2  11 3 0 0.000000000000000 6.283185307179586
0

0101000
+109 3 -109 3 *
Ed
 0.000000100000000 1 1 0
1  14 0 0.000000000000000 1.296928045115279
3  12 13CN 3 0 0.000000000000000 1.296928045115279
0

0101000
+109 3 -131 3 *
Wi

0101100
+108 0 -130 0 -107 0 +107 0 *
Fa
0  0.000000100000000 3 0

0111000
+106 0 *
Ve
0.000000183831765
8.116909699510030 0.000000000000000 4.960031692860470
0 0

0101101
*
Ed
 0.000000100000000 1 1 0
1  15 0 0.000000000000000 1.213739361568506
2  14 5 0 0.000000000000000 1.213739361568506
2  15 11 0 0.000000000000000 1.213739361568506
4 CN 5 0 11 0
0

0101000
+125 3 -104 3 *
Ed
 0.000000183830765 1 1 0
1  16 0 -0.000000000000000 0.549306144334055
2  16 5 0 -0.000000000000000 0.549306144334055
0

0101000
+124 3 -104 3 *
Wi

0101100
-103 0 +102 0 +123 0 *
Fa
0  0.000000100000000 5 0

0111000
+101 0 *
Ve
0.000000183831843
4.058454849755176 7.029449999999907 4.960031692860470
0 0

0101101
*
Ed
 0.000000183830702 1 1 0
1  17 0 -0.549306144334055 -0.000000000000000
2  17 6 0 -0.549306144334055 -0.000000000000000
0

0101000
+99 3 -124 3 *
Ed
 0.000000183830843 1 1 0
1  18 0 0.000000000053140 0.549306144334054
2  18 6 0 0.000000000053140 0.549306144334054
0

0101000
+122 3 -99 3 *
Wi

0101100
+98 0 +97 0 +121 0 *
Fa
0  0.000000100000000 6 0

0111000
+96 0 *
Ve
0.000000183831762
-4.058454849754934 7.029450000000047 4.960031692860470
0 0

0101101
*
Ed
 0.000000183830670 1 1 0
1  19 0 -0.549306144334054 0.000000000053140
2  19 7 0 -0.549306144334054 0.000000000053140
0

0101000
+94 3 -122 3 *
Ed
 0.000000183830762 1 1 0
1  20 0 -0.000000000055236 0.549306144334054
2  20 7 0 -0.000000000055236 0.549306144334054
0

0101000
+120 3 -94 3 *
Wi

0101100
+93 0 +92 0 +119 0 *
Fa
0  0.000000100000000 7 0

0111000
+91 0 *
Ve
0.000000183831937
-8.116909699510030 -0.000000000000337 4.960031692860470
0 0

0101101
*
Ed
 0.000000183830655 1 1 0
1  21 0 -0.549306144334055 -0.000000000055236
2  21 8 0 -0.549306144334055 -0.000000000055236
0

0101000
+89 3 -120 3 *
Ed
 0.000000183830937 1 1 0
1  22 0 0.000000000000000 0.549306144334055
2  22 8 0 0.000000000000000 0.549306144334055
0

0101000
+118 3 -89 3 *
Wi

0101100
+88 0 +87 0 +117 0 *
Fa
0  0.000000100000000 8 0

0111000
+86 0 *
Ve
0.000000183831913
-4.058454849754938 -7.029450000000045 4.960031692860470
0 0

0101101
*
Ed
 0.000000183830675 1 1 0
1  23 0 -0.549306144334054 0.000000000000000
2  23 9 0 -0.549306144334054 0.000000000000000
0

0101000
+84 3 -118 3 *
Ed
 0.000000183830913 1 1 0
1  24 0 0.000000000000001 0.549306144334056
2  24 9 0 0.000000000000001 0.549306144334056
0

0101000
+116 3 -84 3 *
Wi

0101100
+115 0 +83 0 +82 0 *
Fa
0  0.000000100000000 9 0

0111000
+81 0 *
Ve
0.000000183832285
4.058454849755172 -7.029449999999909 4.960031692860470
0 0

0101101
*
Ed
 0.000000183830908 1 1 0
1  25 0 -0.549306144334055 0.000000000000001
2  25 10 0 -0.549306144334055 0.000000000000001
0

0101000
+79 3 -116 3 *
Ed
 0.000000183831285 1 1 0
1  26 0 0.000000000000000 0.549306144334055
2  26 10 0 0.000000000000000 0.549306144334055
0

0101000
+114 3 -79 3 *
Wi

0101100
+113 0 +78 0 +77 0 *
Fa
0  0.000000100000000 10 0

0111000
+76 0 *
Ed
 0.000000183830501 1 1 0
1  27 0 -0.549306144334055 0.000000000000000
2  27 11 0 -0.549306144334055 0.000000000000000
0

0101000
+104 3 -114 3 *
Wi

0101100
+112 0 +74 0 +103 0 *
Fa
0  0.000000100000000 11 0

0111000
+73 0 *
Ve
0.000000100000000
7.029450000000000 0.000000000000000 0.000000000000000
0 0

0101101
*
Ve
0.000000200001000
6.087682274632522 3.514724999999999 0.000000000000000
0 0

0101101
*
Ed
 0.000000100000000 1 1 0
1  28 0 0.000000000000000 0.523598775598299
2  28 13 0 0.000000000000000 0.523598775598299
0

0101000
+71 3 -70 3 *
Ve
0.000000200001000
0.000000000000002 7.029450000000000 0.000000000000000
0 0

0101101
*
Ed
 0.000000100000000 1 1 0
1  29 0 0.523598775598299 1.570796326794896
2  28 14 0 0.523598775598299 1.570796326794896
0

0101000
+70 3 -68 3 *
Ve
0.000000200001000
-6.087682274632521 3.514725000000002 0.000000000000000
0 0

0101101
*
Ed
 0.000000100000000 1 1 0
1  30 0 1.570796326794896 2.617993877991494
2  28 15 0 1.570796326794896 2.617993877991494
0

0101000
+68 3 -66 3 *
Ve
0.000000200001000
-6.087682274632525 -3.514724999999995 0.000000000000000
0 0

0101101
*
Ed
 0.000000100000000 1 1 0
1  31 0 2.617993877991494 3.665191429188091
2  28 16 0 2.617993877991494 3.665191429188091
0

0101000
+66 3 -64 3 *
Ve
0.000000200001000
-0.000000000000008 -7.029450000000000 0.000000000000000
0 0

0101101
*
Ed
 0.000000100000000 1 1 0
1  32 0 3.665191429188091 4.712388980384689
2  28 17 0 3.665191429188091 4.712388980384689
0

0101000
+64 3 -62 3 *
Ve
0.000000200001000
6.087682274632520 -3.514725000000003 0.000000000000000
0 0

0101101
*
Ed
 0.000000100000000 1 1 0
1  33 0 4.712388980384689 5.759586531581287
2  28 18 0 4.712388980384689 5.759586531581287
0

0101000
+62 3 -60 3 *
Ed
 0.000000100000000 1 1 0
1  34 0 5.759586531581287 6.283185307179586
2  28 19 0 5.759586531581287 6.283185307179586
0

0101000
+60 3 -71 3 *
Wi

0101100
+69 0 +67 0 +65 0 +63 0 +61 0 +59 0 +58 0 *
Wi

0101100
-108 0 *
Fa
0  0.000000100000000 12 0

0111000
+57 0 +56 0 *
Ve
0.000000183831765
8.116909699510030 0.000000000000000 0.539068307139530
0 0

0101101
*
Ed
 0.000000183830765 1 1 0
1  35 0 -0.549306144334055 0.000000000000000
2  29 13 0 -0.549306144334055 0.000000000000000
0

0101000
+54 3 -70 3 *
Ve
0.000000183831828
4.058454849755176 7.029449999999907 0.539068307139530
0 0

0101101
*
Ed
 0.000000183830722 1 1 0
1  36 0 0.000000000000000 0.549306144334055
2  30 14 0 0.000000000000000 0.549306144334055
0

0101000
+70 3 -52 3 *
Ed
 0.000000100000000 1 1 0
1  37 0 1.088978307139530 5.509941692860470
0

0101000
+52 3 -99 3 *
Ed
 0.000000100000000 1 1 0
1  38 0 0.000000000000000 4.420963385720940
0

0101000
+104 3 -54 3 *
Wi

0101100
-53 0 -51 0 -50 0 -98 0 -102 0 -49 0 *
Fa
0  0.000000100000000 20 0

0111000
+48 0 *
Ed
 0.000000183830828 1 1 0
1  39 0 -0.549306144334055 0.000000000053141
2  31 14 0 -0.549306144334055 0.000000000053141
0

0101000
+52 3 -68 3 *
Ve
0.000000183831816
-4.058454849754934 7.029450000000047 0.539068307139530
0 0

0101101
*
Ed
 0.000000183830654 1 1 0
1  40 0 0.000000000053141 0.549306144334054
2  32 15 0 0.000000000053141 0.549306144334054
0

0101000
+68 3 -45 3 *
Ed
 0.000000100000001 1 1 0
1  41 0 1.088978307139530 5.509941692860470
0

0101000
+45 3 -94 3 *
Wi

0101100
-46 0 -44 0 -43 0 -93 0 -97 0 +50 0 *
Fa
0  0.000000100000000 21 0

0111000
+42 0 *
Ed
 0.000000183830816 1 1 0
1  42 0 -0.549306144334054 -0.000000000038989
2  33 15 0 -0.549306144334054 -0.000000000038989
0

0101000
+45 3 -66 3 *
Ve
0.000000183831870
-8.116909699510030 -0.000000000000337 0.539068307139530
0 0

0101101
*
Ed
 0.000000183830801 1 1 0
1  43 0 -0.000000000038989 0.549306144334055
2  34 16 0 -0.000000000038989 0.549306144334055
0

0101000
+66 3 -39 3 *
Ed
 0.000000100000002 1 1 0
1  44 0 1.088978307139530 5.509941692860470
0

0101000
+39 3 -89 3 *
Wi

0101100
-40 0 -38 0 -37 0 -88 0 -92 0 +43 0 *
Fa
0  0.000000100000000 22 0

0111000
+36 0 *
Ed
 0.000000183830870 1 1 0
1  45 0 -0.549306144334055 -0.000000000000000
2  35 16 0 -0.549306144334055 -0.000000000000000
0

0101000
+39 3 -64 3 *
Ve
0.000000183831894
-4.058454849754938 -7.029450000000045 0.539068307139530
0 0

0101101
*
Ed
 0.000000183830607 1 1 0
1  46 0 -0.000000000000000 0.549306144334054
2  36 17 0 -0.000000000000000 0.549306144334054
0

0101000
+64 3 -33 3 *
Ed
 0.000000100000007 1 1 0
1  47 0 1.088978307139530 5.509941692860470
0

0101000
+33 3 -84 3 *
Wi

0101100
-34 0 -32 0 -31 0 -83 0 -87 0 +37 0 *
Fa
0  0.000000100000000 23 0

0111000
+30 0 *
Ed
 0.000000183830894 1 1 0
1  48 0 -0.549306144334056 -0.000000000000001
2  37 17 0 -0.549306144334056 -0.000000000000001
0

0101000
+33 3 -62 3 *
Ve
0.000000183831927
4.058454849755172 -7.029449999999909 0.539068307139530
0 0

0101101
*
Ed
 0.000000183830343 1 1 0
1  49 0 -0.000000000000001 0.549306144334055
2  38 18 0 -0.000000000000001 0.549306144334055
0

0101000
+62 3 -27 3 *
Ed
 0.000000100000001 1 1 0
1  50 0 1.088978307139530 5.509941692860470
0

0101000
+27 3 -79 3 *
Wi

0101100
-28 0 -26 0 -25 0 -78 0 -82 0 +31 0 *
Fa
0  0.000000100000000 24 0

0111000
+24 0 *
Ed
 0.000000183830927 1 1 0
1  51 0 -0.549306144334055 -0.000000000000000
2  39 18 0 -0.549306144334055 -0.000000000000000
0

0101000
+27 3 -60 3 *
Ed
 0.000000183830688 1 1 0
1  52 0 -0.000000000000000 0.549306144334055
2  40 19 0 -0.000000000000000 0.549306144334055
0

0101000
+60 3 -54 3 *
Wi

0101100
-22 0 -21 0 +49 0 -74 0 -77 0 +25 0 *
Fa
0  0.000000100000000 25 0

0111000
+20 0 *
Ed
 0.000000100000000 1 1 0
1  53 0 0.000000000000000 1.213739361568506
2  41 13 0 0.000000000000000 1.213739361568506
2  42 19 0 0.000000000000000 1.213739361568506
4 CN 13 0 19 0
0

0101000
+54 3 -71 3 *
Wi

0101100
-18 0 -69 0 +53 0 *
Fa
0  0.000000100000000 13 0

0111000
+17 0 *
Wi

0101100
+51 0 -67 0 +46 0 *
Fa
0  0.000000100000000 14 0

0111000
+15 0 *
Wi

0101100
+44 0 -65 0 +40 0 *
Fa
0  0.000000100000000 15 0

0111000
+13 0 *
Wi

0101100
+38 0 -63 0 +34 0 *
Fa
0  0.000000100000000 16 0

0111000
+11 0 *
Wi

0101100
+32 0 -61 0 +28 0 *
Fa
0  0.000000100000000 17 0

0111000
+9 0 *
Wi

0101100
+26 0 -59 0 +22 0 *
Fa
0  0.000000100000000 18 0

0111000
+7 0 *
Wi

0101100
+21 0 -58 0 +18 0 *
Fa
0  0.000000100000000 19 0

0111000
+5 0 *
Sh

0101100
-132 0 -127 0 -110 0 -105 0 -100 0 -95 0 -90 0 -85 0 -80 0 -75 0 
-72 0 -55 0 -47 0 -41 0 -35 0 -29 0 -23 0 -19 0 -16 0 -14 0 
-12 0 -10 0 -8 0 -6 0 -4 0 *
So

0100000
+3 0 *
Co

1100000
+2 0 *

+1 1 