
CASCADE Topology V1, (c) Matra-Datavision
Locations 3
1
1.000000000000000 0.000000000000000 0.000000000000000 0.000000000000000 
0.000000000000000 1.000000000000000 0.000000000000000 0.000000000000000 
0.000000000000000 0.000000000000000 1.000000000000000 0.000000000000000 
1
1.000000000000000 0.000000000000000 0.000000000000000 0.000000000000000 
0.000000000000000 1.000000000000000 0.000000000000000 0.000000000000000 
0.000000000000000 0.000000000000000 1.000000000000000 0.000000000000000 
2  2 -1 0
Curve2ds 42
1 0.00000000000000000 0.00000000000000000 1.00000000000000000 0.00000000000000000 
1 0.00000000000000000 6.12170348737936010 1.00000000000000000 0.00000000000000000 
1 0.00000000000000000 1.20160499080402006 1.00000000000000000 0.00000000000000000 
1 6.28318530717958623 0.00000000000000000 0.00000000000000000 1.00000000000000000 
1 0.00000000000000000 0.00000000000000000 0.00000000000000000 1.00000000000000000 
1 0.00000000000000000 0.00000000000000000 1.00000000000000000 0.00000000000000000 
1 0.00000000000000000 1.20160499080402028 1.00000000000000000 0.00000000000000000 
1 6.28318530717958623 0.00000000000000000 0.00000000000000000 1.00000000000000000 
1 0.00000000000000000 0.00000000000000000 0.00000000000000000 1.00000000000000000 
1 0.00000000000000000 0.00000000000000000 1.00000000000000000 0.00000000000000000 
1 0.00000000000000000 0.00000000000000000 1.00000000000000000 0.00000000000000000 
1 6.28318530717958623 0.00000000000000000 0.00000000000000000 1.00000000000000000 
1 0.00000000000000000 0.00000000000000000 0.00000000000000000 1.00000000000000000 
1 0.00000000000000000 0.00000000000000000 0.00000000000000000 1.00000000000000000 
1 6.28318530717958623 0.00000000000000000 0.00000000000000000 1.00000000000000000 
7 0 0  6 7 2  0.52359877559829882 0.00000000000000119  0.43204775154262304 0.00000000000000123  0.34049715461570962 0.07035663531854475  0.25032480970030235 0.21106969049567326  0.16292598918352041 0.42390898204049776  0.07928551257469547 0.71241106657815068  0.00000000000000000 1.08215392328971816 
 -0.00000000000000001 7 0.54930614433405478 7
7 0 0  6 7 2  1.04719755119659830 1.08215392328972060  0.96791203862190267 0.71241106657815201  0.88427156201310453 0.42390898204050309  0.79687274149623022 0.21106969049566615  0.70670039658091355 0.07035663531854830  0.61514979965397476 0.00000000000000115  0.52359877559829882 0.00000000000000119 
 -0.54930614433405545 7 -0.00000000000000001 7
7 0 0  6 7 2  1.57079632674175640 0.00000000000000119  1.47924530269493726 0.00000000003403274  1.38769470577739185 0.07035663537299719  1.29752236087151118 0.21106969055743363  1.21012354036392367 0.42390898209631800  1.12648306376362339 0.71241106661391695  1.04719755119659808 1.08215392328971460 
 0.00000000005313998 7 0.54930614433405411 7
7 0 0  6 7 2  2.09439510239319482 1.08215392328971660  2.01510958981082933 0.71241106654238073  1.93146911319352910 0.42390898198467397  1.84407029266739642 0.21106969043390578  1.75389794774264374 0.07035663526409053  1.66234735080628870 -0.00000000003403036  1.57079632674175640 0.00000000000000119 
 -0.54930614433405434 7 0.00000000005313998 7
7 0 0  6 7 2  2.61799387799149397 0.00000000000000199  2.52644285393581836 0.00000000000000199  2.43489225700895418 0.07035663531853764  2.34471991209335329 0.21106969049568747  2.25732109157675609 0.42390898204048710  2.17368061496789133 0.71241106657814990  2.09439510239319571 1.08215392328971660 
 0.00000000000000001 7 0.54930614433405422 7
7 0 0  6 7 2  3.14159265358979223 1.08215392328971527  3.06230714101509660 0.71241106657814879  2.97866666440626204 0.42390898204049421  2.89126784388940905 0.21106969049567681  2.80109549897406396 0.07035663531854119  2.70954490204716958 0.00000000000000198  2.61799387799149397 0.00000000000000199 
 -0.54930614433405411 7 0.00000000000000001 7
7 0 0  6 7 2  3.66519142922709529 0.00000000000000119  3.57364040516491865 -0.00000000002497739  3.48208980823116576 0.07035663527856784  3.39191746330857313 0.21106969045034774  3.30451864278523999 0.42390898199951366  3.22087816617011846 0.71241106655189568  3.14159265358979312 1.08215392328971660 
 -0.00000000003900421 7 0.54930614433405434 7
7 0 0  6 7 2  4.18879020478638964 1.08215392328971460  4.10950469221732373 0.71241106660440245  4.02586421561480279 0.42390898208146943  3.93846539510451521 0.21106969054099878  3.84829305019633239 0.07035663535851455  3.75674245327627032 0.00000000002497977  3.66519142922709529 0.00000000000000119 
 -0.54930614433405389 7 -0.00000000003900421 7
7 0 0  6 7 2  4.71238898038467635 0.00000000000000199  4.62083795632900252 0.00000000000001017  4.52928735940213301 0.07035663531855718  4.43911501448644685 0.21106969049569813  4.35171619396993492 0.42390898204050842  4.26807571736108304 0.71241106657815922  4.18879020478638964 1.08215392328971838 
 0.00000000000001277 7 0.54930614433405456 7
7 0 0  6 7 2  5.23598775598298705 1.08215392328971571  5.15670224340829009 0.71241106657814091  5.07306176679963983 0.42390898204048000  4.98566294628221840 0.21106969049566615  4.89549060136744174 0.07035663531853231  4.80394000444035374 -0.00000000000000619  4.71238898038467635 0.00000000000000199 
 -0.54930614433405389 7 0.00000000000001277 7
7 0 0  6 7 2  5.75958653158128708 0.00000000000000080  5.66803550752561147 0.00000000000000105  5.57648491059870821 0.07035663531855185  5.48631256568296521 0.21106969049566260  5.39891374516651013 0.42390898204050131  5.31527326855768312 0.71241106657815245  5.23598775598298793 1.08215392328972060 
 0.00000000000000039 7 0.54930614433405545 7
7 0 0  6 7 2  6.28318530717958623 1.08215392328971727  6.20389979460489105 0.71241106657814957  6.12025931799615819 0.42390898204049243  6.03286049747896413 0.21106969049568036  5.94268815256396010 0.07035663531853942  5.85113755563696269 0.00000000000000055  5.75958653158128708 0.00000000000000080 
 -0.54930614433405478 7 0.00000000000000039 7
1 0.00000000000000000 1.08215392328971727 1.00000000000000000 0.00000000000000000 
7 0 0  6 7 2  0.00000000000000000 -0.00000000000000080  0.07928551257469553 0.36974285671156687  0.16292598918351509 0.65824494124922950  0.25032480970031656 0.87108423279400427  0.34049715461570074 1.01179728797118429  0.43204775154262332 1.08215392328971682  0.52359877559829915 1.08215392328971660 
 -0.54930614433405478 7 0.00000000000000033 7
7 0 0  6 7 2  0.52359877559829915 1.08215392328971660  0.61514979965397498 1.08215392328971638  0.70670039658089223 1.01179728797117718  0.79687274149627285 0.87108423279400427  0.88427156201308321 0.65824494124922239  0.96791203862190245 0.36974285671156670  1.04719755119659785 -0.00000000000000099 
 0.00000000000000033 7 0.54930614433405500 7
7 0 0  6 7 2  1.04719755119659785 0.00000000000000080  1.12648306377896357 0.36974285674733792  1.21012354039628178 0.65824494130504974  1.29752236092224393 0.87108423285575043  1.38769470584719556 1.01179728802563318  1.47924530278350508 1.08215392332374916  1.57079632684803783 1.08215392328971660 
 -0.54930614433405456 7 0.00000000005314145 7
7 0 0  6 7 2  1.57079632684803783 1.08215392328971660  1.66234735089485675 1.08215392325568405  1.75389794781234798 1.01179728791669987  1.84407029271821443 0.87108423273228652  1.93146911322584458 0.65824494119338084  2.01510958982616950 0.36974285667579804  2.09439510239319482 0.00000000000000119 
 0.00000000005314145 7 0.54930614433405434 7
7 0 0  6 7 2  2.09439510239319571 0.00000000000000119  2.17368061496226339 0.36974285668532392  2.25732109156484739 0.65824494120828092  2.34471991207487918 0.87108423274864322  2.43489225698328937 1.01179728793123047  2.52644285390332701 1.08215392326474746  2.61799387795250471 1.08215392328971660 
 -0.54930614433405422 7 -0.00000000003898919 7
7 0 0  6 7 2  2.61799387795250471 1.08215392328971660  2.70954490201467868 1.08215392331468574  2.80109549894845600 1.01179728801112390  2.89126784387082125 0.87108423283935110  2.97866666439441019 0.65824494129017808  3.06230714100946910 0.36974285673781260  3.14159265358979223 0.00000000000000218 
 -0.00000000003898919 7 0.54930614433405411 7
7 0 0  6 7 2  3.14159265358979312 0.00000000000000119  3.22087816617276346 0.36974285675015767  3.30451864279078222 0.65824494130946221  3.39191746331738386 0.87108423286063896  3.48208980824315972 1.01179728802993196  3.57364040518019088 1.08215392332643057  3.66519142924542152 1.08215392328971571 
 -0.54930614433405434 7 0.00000000005733034 7
7 0 0  6 7 2  3.66519142924542152 1.08215392328971571  3.75674245329154211 1.08215392325300086  3.84829305020826951 1.01179728791242951  3.93846539511338278 0.87108423272736957  4.02586421562023133 0.65824494118899679  4.10950469221996872 0.36974285667297968  4.18879020478638964 0.00000000000000298 
 0.00000000005733034 7 0.54930614433405389 7
7 0 0  6 7 2  4.18879020478638964 -0.00000000000000099  4.26807571736108660 0.36974285671157375  4.35171619396999176 0.65824494124924371  4.43911501448656054 0.87108423279400427  4.52928735940218985 1.01179728797119850  4.62083795632902206 1.08215392328972215  4.71238898038469944 1.08215392328971549 
 -0.54930614433405456 7 0.00000000000001032 7
7 0 0  6 7 2  4.71238898038469944 1.08215392328971549  4.80394000444037328 1.08215392328970883  4.89549060136738490 1.01179728797114876  4.98566294628221840 0.87108423279401848  5.07306176679958298 0.65824494124919397  5.15670224340829275 0.36974285671156126  5.23598775598298705 0.00000000000000199 
 0.00000000000001032 7 0.54930614433405389 7
7 0 0  6 7 2  5.23598775598298793 -0.00000000000000278  5.31527326855768312 0.36974285671156543  5.39891374516656697 0.65824494124921529  5.48631256568307890 0.87108423279401848  5.57648491059876505 1.01179728797117718  5.66803550752561147 1.08215392328971638  5.75958653158128708 1.08215392328971660 
 -0.54930614433405545 7 -0.00000000000000039 7
7 0 0  6 7 2  5.75958653158128708 1.08215392328971660  5.85113755563696269 1.08215392328971682  5.94268815256396010 1.01179728797114876  6.03286049747907782 0.87108423279404690  6.12025931799615819 0.65824494124920108  6.20389979460489105 0.36974285671156787  6.28318530717958623 0.00000000000000020 
 -0.00000000000000039 7 0.54930614433405478 7
1 0.00000000000000000 0.00000000000000000 0.00000000000000000 1.00000000000000000 
1 6.28318530717958623 0.00000000000000000 0.00000000000000000 1.00000000000000000 
Curves 53
2 0.00000000000000000 0.00000000000000000 6.43270174368968028 0.00000000000000000 0.00000000000000000 1.00000000000000000 1.00000000000000000 0.00000000000000000 -0.00000000000000000 -0.00000000000000000 1.00000000000000000 0.00000000000000000 3.20496370638455819
2 0.00000000000000000 0.00000000000000000 6.74369999999999958 0.00000000000000000 0.00000000000000000 1.00000000000000000 1.00000000000000000 0.00000000000000000 -0.00000000000000000 -0.00000000000000000 1.00000000000000000 0.00000000000000000 4.36562499999999964
1 3.20496370638455819 0.00000000000000000 6.43270174368968028 0.96592582628906842 0.00000000000000000 0.25881904510252046 
2 0.00000000000000000 0.00000000000000000 0.31099825631031974 0.00000000000000000 0.00000000000000000 1.00000000000000000 1.00000000000000000 0.00000000000000000 -0.00000000000000000 -0.00000000000000000 1.00000000000000000 0.00000000000000000 3.20496370638455819
1 3.20496370638455819 0.00000000000000000 0.31099825631031974 0.00000000000000000 0.00000000000000000 1.00000000000000000 
2 0.00000000000000000 0.00000000000000000 6.74369999999999958 0.00000000000000000 0.00000000000000000 1.00000000000000000 1.00000000000000000 0.00000000000000000 -0.00000000000000000 -0.00000000000000000 1.00000000000000000 0.00000000000000000 6.28014999999999990
2 0.00000000000000000 0.00000000000000000 6.74369999999999958 0.00000000000000000 0.00000000000000000 1.00000000000000000 1.00000000000000000 0.00000000000000000 -0.00000000000000000 -0.00000000000000000 1.00000000000000000 0.00000000000000000 6.28014999999999990
2 0.00000000000000000 0.00000000000000000 6.74369999999999958 0.00000000000000000 0.00000000000000000 1.00000000000000000 1.00000000000000000 0.00000000000000000 -0.00000000000000000 -0.00000000000000000 1.00000000000000000 0.00000000000000000 6.28014999999999990
2 0.00000000000000000 0.00000000000000000 6.74369999999999958 0.00000000000000000 0.00000000000000000 1.00000000000000000 1.00000000000000000 0.00000000000000000 -0.00000000000000000 -0.00000000000000000 1.00000000000000000 0.00000000000000000 6.28014999999999990
2 0.00000000000000000 0.00000000000000000 6.74369999999999958 0.00000000000000000 0.00000000000000000 1.00000000000000000 1.00000000000000000 0.00000000000000000 -0.00000000000000000 -0.00000000000000000 1.00000000000000000 0.00000000000000000 6.28014999999999990
2 0.00000000000000000 0.00000000000000000 6.74369999999999958 0.00000000000000000 0.00000000000000000 1.00000000000000000 1.00000000000000000 0.00000000000000000 -0.00000000000000000 -0.00000000000000000 1.00000000000000000 0.00000000000000000 6.28014999999999990
2 0.00000000000000000 0.00000000000000000 6.74369999999999958 0.00000000000000000 0.00000000000000000 1.00000000000000000 1.00000000000000000 0.00000000000000000 -0.00000000000000000 -0.00000000000000000 1.00000000000000000 0.00000000000000000 6.28014999999999990
2 0.00000000000000000 0.00000000000000000 0.00000000000000000 0.00000000000000000 0.00000000000000000 1.00000000000000000 1.00000000000000000 0.00000000000000000 -0.00000000000000000 -0.00000000000000000 1.00000000000000000 0.00000000000000000 4.36562499999999964
1 4.36562499999999964 0.00000000000000000 0.00000000000000000 -0.96592582628906831 0.00000000000000000 0.25881904510252079 
1 6.28014999999999990 0.00000000000000000 6.74369999999999958 0.89778594818470436 0.00000000000000000 -0.44043205065264190 
5 5.43876943957684311 3.14007499999999995 9.82458954666634554 -0.86602540378443871 -0.49999999999999994 -0.00000000000000000 0.00000000000000000 0.00000000000000000 -1.00000000000000000 0.49999999999999994 -0.86602540378443871 0.00000000000000000 3.08088954666634640 6.28015000000000079
5 5.43876943957684311 3.14007499999999995 9.82458954666634554 -0.86602540378443871 -0.49999999999999994 -0.00000000000000000 0.00000000000000000 0.00000000000000000 -1.00000000000000000 0.49999999999999994 -0.86602540378443871 0.00000000000000000 3.08088954666634640 6.28015000000000079
5 0.00000000000000154 6.28015000000000079 9.82458954666634554 -0.00000000000000024 -1.00000000000000000 -0.00000000000000000 0.00000000000000000 0.00000000000000000 -1.00000000000000000 1.00000000000000000 -0.00000000000000024 0.00000000000000000 3.08088954666634640 6.28015000000000079
5 0.00000000000000154 6.28015000000000079 9.82458954666634554 -0.00000000000000024 -1.00000000000000000 -0.00000000000000000 0.00000000000000000 0.00000000000000000 -1.00000000000000000 1.00000000000000000 -0.00000000000000024 0.00000000000000000 3.08088954666634640 6.28015000000000079
5 -5.43876943957684222 3.14007500000000261 9.82458954666634554 0.86602540378443849 -0.50000000000000033 0.00000000000000000 0.00000000000000000 0.00000000000000000 -1.00000000000000000 0.50000000000000033 0.86602540378443849 0.00000000000000000 3.08088954666634640 6.28015000000000079
5 -5.43876943957684222 3.14007500000000261 9.82458954666634554 0.86602540378443849 -0.50000000000000033 0.00000000000000000 0.00000000000000000 0.00000000000000000 -1.00000000000000000 0.50000000000000033 0.86602540378443849 0.00000000000000000 3.08088954666634640 6.28015000000000079
5 -5.43876943957684489 -3.14007499999999729 9.82458954666634554 0.86602540378443893 0.49999999999999950 0.00000000000000000 0.00000000000000000 0.00000000000000000 -1.00000000000000000 -0.49999999999999950 0.86602540378443893 0.00000000000000000 3.08088954666634640 6.28015000000000079
5 -5.43876943957684489 -3.14007499999999729 9.82458954666634554 0.86602540378443893 0.49999999999999950 0.00000000000000000 0.00000000000000000 0.00000000000000000 -1.00000000000000000 -0.49999999999999950 0.86602540378443893 0.00000000000000000 3.08088954666634640 6.28015000000000079
5 -0.00000000000000462 -6.28015000000000168 9.82458954666634554 0.00000000000000073 1.00000000000000000 0.00000000000000000 0.00000000000000000 0.00000000000000000 -1.00000000000000000 -1.00000000000000000 0.00000000000000073 0.00000000000000000 3.08088954666634685 6.28015000000000168
5 -0.00000000000000462 -6.28015000000000168 9.82458954666634554 0.00000000000000073 1.00000000000000000 0.00000000000000000 0.00000000000000000 0.00000000000000000 -1.00000000000000000 -1.00000000000000000 0.00000000000000073 0.00000000000000000 3.08088954666634685 6.28015000000000168
5 5.43876943957684222 -3.14007500000000084 9.82458954666634554 -0.86602540378443860 0.50000000000000011 0.00000000000000000 0.00000000000000000 0.00000000000000000 -1.00000000000000000 -0.50000000000000011 -0.86602540378443860 -0.00000000000000000 3.08088954666634596 6.28014999999999990
5 5.43876943957684222 -3.14007500000000084 9.82458954666634554 -0.86602540378443860 0.50000000000000011 0.00000000000000000 0.00000000000000000 0.00000000000000000 -1.00000000000000000 -0.50000000000000011 -0.86602540378443860 -0.00000000000000000 3.08088954666634596 6.28014999999999990
2 0.00000000000000000 0.00000000000000000 0.00000000000000000 0.00000000000000000 0.00000000000000000 1.00000000000000000 1.00000000000000000 0.00000000000000000 -0.00000000000000000 -0.00000000000000000 1.00000000000000000 0.00000000000000000 6.28014999999999990
2 0.00000000000000000 0.00000000000000000 0.00000000000000000 0.00000000000000000 0.00000000000000000 1.00000000000000000 1.00000000000000000 0.00000000000000000 -0.00000000000000000 -0.00000000000000000 1.00000000000000000 0.00000000000000000 6.28014999999999990
2 0.00000000000000000 0.00000000000000000 0.00000000000000000 0.00000000000000000 0.00000000000000000 1.00000000000000000 1.00000000000000000 0.00000000000000000 -0.00000000000000000 -0.00000000000000000 1.00000000000000000 0.00000000000000000 6.28014999999999990
2 0.00000000000000000 0.00000000000000000 0.00000000000000000 0.00000000000000000 0.00000000000000000 1.00000000000000000 1.00000000000000000 0.00000000000000000 -0.00000000000000000 -0.00000000000000000 1.00000000000000000 0.00000000000000000 6.28014999999999990
2 0.00000000000000000 0.00000000000000000 0.00000000000000000 0.00000000000000000 0.00000000000000000 1.00000000000000000 1.00000000000000000 0.00000000000000000 -0.00000000000000000 -0.00000000000000000 1.00000000000000000 0.00000000000000000 6.28014999999999990
2 0.00000000000000000 0.00000000000000000 0.00000000000000000 0.00000000000000000 0.00000000000000000 1.00000000000000000 1.00000000000000000 0.00000000000000000 -0.00000000000000000 -0.00000000000000000 1.00000000000000000 0.00000000000000000 6.28014999999999990
2 0.00000000000000000 0.00000000000000000 0.00000000000000000 0.00000000000000000 0.00000000000000000 1.00000000000000000 1.00000000000000000 0.00000000000000000 -0.00000000000000000 -0.00000000000000000 1.00000000000000000 0.00000000000000000 6.28014999999999990
5 5.43876943957684311 3.14007499999999995 -3.08088954666634640 -0.86602540378443871 -0.49999999999999994 0.00000000000000000 0.00000000000000000 0.00000000000000000 1.00000000000000000 -0.49999999999999994 0.86602540378443871 0.00000000000000000 3.08088954666634640 6.28015000000000079
5 5.43876943957684311 3.14007499999999995 -3.08088954666634640 -0.86602540378443871 -0.49999999999999994 0.00000000000000000 0.00000000000000000 0.00000000000000000 1.00000000000000000 -0.49999999999999994 0.86602540378443871 0.00000000000000000 3.08088954666634640 6.28015000000000079
1 3.62584629305122919 6.28014999999999990 -0.67437000000000002 0.00000000000000000 0.00000000000000000 1.00000000000000000 
1 7.25169258610245659 0.00000000000000000 6.26708472844370768 0.00000000000000000 0.00000000000000000 -1.00000000000000000 
5 0.00000000000000154 6.28015000000000079 -3.08088954666634640 -0.00000000000000024 -1.00000000000000000 0.00000000000000000 0.00000000000000000 0.00000000000000000 1.00000000000000000 -1.00000000000000000 0.00000000000000024 0.00000000000000000 3.08088954666634640 6.28015000000000079
5 0.00000000000000154 6.28015000000000079 -3.08088954666634640 -0.00000000000000024 -1.00000000000000000 0.00000000000000000 0.00000000000000000 0.00000000000000000 1.00000000000000000 -1.00000000000000000 0.00000000000000024 0.00000000000000000 3.08088954666634640 6.28015000000000079
1 -3.62584629305122697 6.28015000000000168 -0.67437000000000002 0.00000000000000000 0.00000000000000000 1.00000000000000000 
5 -5.43876943957684222 3.14007500000000261 -3.08088954666634640 0.86602540378443849 -0.50000000000000033 0.00000000000000000 0.00000000000000000 0.00000000000000000 1.00000000000000000 -0.50000000000000033 -0.86602540378443849 0.00000000000000000 3.08088954666634640 6.28015000000000079
5 -5.43876943957684222 3.14007500000000261 -3.08088954666634640 0.86602540378443849 -0.50000000000000033 0.00000000000000000 0.00000000000000000 0.00000000000000000 1.00000000000000000 -0.50000000000000033 -0.86602540378443849 0.00000000000000000 3.08088954666634640 6.28015000000000079
1 -7.25169258610245748 0.00000000000000311 -0.67437000000000002 0.00000000000000000 0.00000000000000000 1.00000000000000000 
5 -5.43876943957684489 -3.14007499999999729 -3.08088954666634640 0.86602540378443893 0.49999999999999950 -0.00000000000000000 0.00000000000000000 0.00000000000000000 1.00000000000000000 0.49999999999999950 -0.86602540378443893 0.00000000000000000 3.08088954666634640 6.28015000000000079
5 -5.43876943957684489 -3.14007499999999729 -3.08088954666634640 0.86602540378443893 0.49999999999999950 -0.00000000000000000 0.00000000000000000 0.00000000000000000 1.00000000000000000 0.49999999999999950 -0.86602540378443893 0.00000000000000000 3.08088954666634640 6.28015000000000079
1 -3.62584629305123229 -6.28014999999999901 -0.67437000000000002 0.00000000000000000 0.00000000000000000 1.00000000000000000 
5 -0.00000000000000462 -6.28015000000000168 -3.08088954666634640 0.00000000000000073 1.00000000000000000 -0.00000000000000000 0.00000000000000000 0.00000000000000000 1.00000000000000000 1.00000000000000000 -0.00000000000000073 0.00000000000000000 3.08088954666634685 6.28015000000000168
5 -0.00000000000000462 -6.28015000000000168 -3.08088954666634640 0.00000000000000073 1.00000000000000000 -0.00000000000000000 0.00000000000000000 0.00000000000000000 1.00000000000000000 1.00000000000000000 -0.00000000000000073 0.00000000000000000 3.08088954666634685 6.28015000000000168
1 3.62584629305122474 -6.28015000000000434 -0.67437000000000002 0.00000000000000000 0.00000000000000000 1.00000000000000000 
5 5.43876943957684222 -3.14007500000000084 -3.08088954666634640 -0.86602540378443860 0.50000000000000011 0.00000000000000000 0.00000000000000000 0.00000000000000000 1.00000000000000000 0.50000000000000011 0.86602540378443860 -0.00000000000000000 3.08088954666634596 6.28014999999999990
5 5.43876943957684222 -3.14007500000000084 -3.08088954666634640 -0.86602540378443860 0.50000000000000011 0.00000000000000000 0.00000000000000000 0.00000000000000000 1.00000000000000000 0.50000000000000011 0.86602540378443860 -0.00000000000000000 3.08088954666634596 6.28014999999999990
1 7.25169258610245659 0.00000000000000000 0.47661527155629191 -0.89778594818470436 0.00000000000000000 -0.44043205065264190 
Polygon3D 0
PolygonOnTriangulations 0
Surfaces 25
3 0.00000000000000000 0.00000000000000000 6.43270174368968028 0.00000000000000000 0.00000000000000000 1.00000000000000000 1.00000000000000000 0.00000000000000000 -0.00000000000000000 -0.00000000000000000 1.00000000000000000 0.00000000000000000 3.20496370638455819
1.30899693899574765
2 0.00000000000000000 0.00000000000000000 0.31099825631031974 0.00000000000000000 0.00000000000000000 1.00000000000000000 1.00000000000000000 0.00000000000000000 -0.00000000000000000 -0.00000000000000000 1.00000000000000000 0.00000000000000000 3.20496370638455819
3 0.00000000000000000 0.00000000000000000 0.00000000000000000 0.00000000000000000 0.00000000000000000 1.00000000000000000 1.00000000000000000 0.00000000000000000 -0.00000000000000000 -0.00000000000000000 1.00000000000000000 0.00000000000000000 4.36562499999999964
-1.30899693899574721
1 0.00000000000000000 0.00000000000000000 6.74369999999999958 0.00000000000000000 0.00000000000000000 1.00000000000000000 -1.00000000000000000 0.00000000000000000 0.00000000000000000 -0.00000000000000000 1.00000000000000000 -0.00000000000000000 
3 0.00000000000000000 0.00000000000000000 6.74369999999999958 -0.00000000000000000 -0.00000000000000000 -1.00000000000000000 1.00000000000000000 0.00000000000000000 0.00000000000000000 -0.00000000000000000 1.00000000000000000 -0.00000000000000000 6.28014999999999990
1.11471647001462593
3 0.00000000000000000 0.00000000000000000 6.74369999999999958 -0.00000000000000000 -0.00000000000000000 -1.00000000000000000 1.00000000000000000 0.00000000000000000 0.00000000000000000 -0.00000000000000000 1.00000000000000000 -0.00000000000000000 6.28014999999999990
1.11471647001462593
3 0.00000000000000000 0.00000000000000000 6.74369999999999958 -0.00000000000000000 -0.00000000000000000 -1.00000000000000000 1.00000000000000000 0.00000000000000000 0.00000000000000000 -0.00000000000000000 1.00000000000000000 -0.00000000000000000 6.28014999999999990
1.11471647001462593
3 0.00000000000000000 0.00000000000000000 6.74369999999999958 -0.00000000000000000 -0.00000000000000000 -1.00000000000000000 1.00000000000000000 0.00000000000000000 0.00000000000000000 -0.00000000000000000 1.00000000000000000 -0.00000000000000000 6.28014999999999990
1.11471647001462593
3 0.00000000000000000 0.00000000000000000 6.74369999999999958 -0.00000000000000000 -0.00000000000000000 -1.00000000000000000 1.00000000000000000 0.00000000000000000 0.00000000000000000 -0.00000000000000000 1.00000000000000000 -0.00000000000000000 6.28014999999999990
1.11471647001462593
3 0.00000000000000000 0.00000000000000000 6.74369999999999958 -0.00000000000000000 -0.00000000000000000 -1.00000000000000000 1.00000000000000000 0.00000000000000000 0.00000000000000000 -0.00000000000000000 1.00000000000000000 -0.00000000000000000 6.28014999999999990
1.11471647001462593
3 0.00000000000000000 0.00000000000000000 6.74369999999999958 -0.00000000000000000 -0.00000000000000000 -1.00000000000000000 1.00000000000000000 0.00000000000000000 0.00000000000000000 -0.00000000000000000 1.00000000000000000 -0.00000000000000000 6.28014999999999990
1.11471647001462593
1 0.00000000000000000 0.00000000000000000 0.00000000000000000 0.00000000000000000 0.00000000000000000 1.00000000000000000 1.00000000000000000 0.00000000000000000 -0.00000000000000000 -0.00000000000000000 1.00000000000000000 0.00000000000000000 
3 0.00000000000000000 0.00000000000000000 0.47661527155629191 -0.00000000000000000 -0.00000000000000000 -1.00000000000000000 1.00000000000000000 0.00000000000000000 0.00000000000000000 -0.00000000000000000 1.00000000000000000 -0.00000000000000000 7.25169258610245659
-1.11471647001462593
3 0.00000000000000000 0.00000000000000000 0.47661527155629191 -0.00000000000000000 -0.00000000000000000 -1.00000000000000000 1.00000000000000000 0.00000000000000000 0.00000000000000000 -0.00000000000000000 1.00000000000000000 -0.00000000000000000 7.25169258610245659
-1.11471647001462593
3 0.00000000000000000 0.00000000000000000 0.47661527155629191 -0.00000000000000000 -0.00000000000000000 -1.00000000000000000 1.00000000000000000 0.00000000000000000 0.00000000000000000 -0.00000000000000000 1.00000000000000000 -0.00000000000000000 7.25169258610245659
-1.11471647001462593
3 0.00000000000000000 0.00000000000000000 0.47661527155629191 -0.00000000000000000 -0.00000000000000000 -1.00000000000000000 1.00000000000000000 0.00000000000000000 0.00000000000000000 -0.00000000000000000 1.00000000000000000 -0.00000000000000000 7.25169258610245659
-1.11471647001462593
3 0.00000000000000000 0.00000000000000000 0.47661527155629191 -0.00000000000000000 -0.00000000000000000 -1.00000000000000000 1.00000000000000000 0.00000000000000000 0.00000000000000000 -0.00000000000000000 1.00000000000000000 -0.00000000000000000 7.25169258610245659
-1.11471647001462593
3 0.00000000000000000 0.00000000000000000 0.47661527155629191 -0.00000000000000000 -0.00000000000000000 -1.00000000000000000 1.00000000000000000 0.00000000000000000 0.00000000000000000 -0.00000000000000000 1.00000000000000000 -0.00000000000000000 7.25169258610245659
-1.11471647001462593
3 0.00000000000000000 0.00000000000000000 0.47661527155629191 -0.00000000000000000 -0.00000000000000000 -1.00000000000000000 1.00000000000000000 0.00000000000000000 0.00000000000000000 -0.00000000000000000 1.00000000000000000 -0.00000000000000000 7.25169258610245659
-1.11471647001462593
1 7.25169258610245659 0.00000000000000000 -0.67437000000000002 -0.86602540378443871 -0.49999999999999994 0.00000000000000000 -0.49999999999999994 0.86602540378443871 0.00000000000000000 -0.00000000000000000 0.00000000000000000 -1.00000000000000000 
1 3.62584629305122919 6.28014999999999990 -0.67437000000000002 -0.00000000000000024 -1.00000000000000000 0.00000000000000000 -1.00000000000000000 0.00000000000000024 0.00000000000000000 -0.00000000000000000 0.00000000000000000 -1.00000000000000000 
1 -3.62584629305122697 6.28015000000000168 -0.67437000000000002 0.86602540378443849 -0.50000000000000033 0.00000000000000000 -0.50000000000000033 -0.86602540378443849 0.00000000000000000 0.00000000000000000 -0.00000000000000000 -1.00000000000000000 
1 -7.25169258610245748 0.00000000000000311 -0.67437000000000002 0.86602540378443893 0.49999999999999950 0.00000000000000000 0.49999999999999950 -0.86602540378443893 0.00000000000000000 0.00000000000000000 0.00000000000000000 -1.00000000000000000 
1 -3.62584629305123229 -6.28014999999999901 -0.67437000000000002 0.00000000000000073 1.00000000000000000 0.00000000000000000 1.00000000000000000 -0.00000000000000073 0.00000000000000000 0.00000000000000000 0.00000000000000000 -1.00000000000000000 
1 3.62584629305122474 -6.28015000000000434 -0.67437000000000002 -0.86602540378443860 0.50000000000000011 0.00000000000000000 0.50000000000000011 0.86602540378443860 0.00000000000000000 0.00000000000000000 0.00000000000000000 -1.00000000000000000 
Triangulations 0

TShapes 138
Ve
0.000000100000000
3.204963706384558 0.000000000000000 6.432701743689680
0 0

0101101
*
Ed
 0.000000100000000 1 1 0
1  1 0 0.000000000000000 6.283185307179586
2  1 1 0 0.000000000000000 6.283185307179586
2  2 2 0 0.000000000000000 6.283185307179586
0

0101000
+138 3 -138 3 *
Ve
0.000000100000000
4.365625000000000 0.000000000000000 6.743700000000000
0 0

0101101
*
Ed
 0.000000100000000 1 1 0
1  2 0 0.000000000000000 6.283185307179586
2  3 1 0 0.000000000000000 6.283185307179586
0

0101000
+136 3 -136 3 *
Ed
 0.000000100000000 1 1 0
1  3 0 0.000000000000000 1.201604990804020
3  4 5CN 1 0 0.000000000000000 1.201604990804020
0

0101000
+138 3 -136 3 *
Wi

0101100
+137 0 -135 0 -134 0 +134 0 *
Fa
0  0.000000100000000 1 0

0111000
+133 0 *
Ve
0.000000100000000
3.204963706384558 0.000000000000000 0.310998256310320
0 0

0101101
*
Ed
 0.000000100000000 1 1 0
1  4 0 0.000000000000000 6.283185307179586
2  6 2 0 0.000000000000000 6.283185307179586
2  7 3 0 0.000000000000000 6.283185307179586
0

0101000
+131 3 -131 3 *
Ed
 0.000000100000000 1 1 0
1  5 0 0.000000000000000 6.121703487379360
3  8 9CN 2 0 0.000000000000000 6.121703487379360
0

0101000
+131 3 -138 3 *
Wi

0101100
+130 0 -137 0 -129 0 +129 0 *
Fa
0  0.000000100000000 2 0

0111000
+128 0 *
Wi

0101100
+135 0 *
Ve
0.000000100000000
6.280150000000000 0.000000000000000 6.743700000000000
0 0

0101101
*
Ve
0.000000200001000
5.438769439576842 3.140075000000000 6.743700000000000
0 0

0101101
*
Ed
 0.000000100000000 1 1 0
1  6 0 0.000000000000000 0.523598775598299
2  10 5 0 0.000000000000000 0.523598775598299
0

0101000
+125 3 -124 3 *
Ve
0.000000200001000
0.000000000000002 6.280150000000000 6.743700000000000
0 0

0101101
*
Ed
 0.000000100000000 1 1 0
1  7 0 0.523598775598299 1.570796326794896
2  10 6 0 0.523598775598299 1.570796326794896
0

0101000
+124 3 -122 3 *
Ve
0.000000200001000
-5.438769439576841 3.140075000000002 6.743700000000000
0 0

0101101
*
Ed
 0.000000100000000 1 1 0
1  8 0 1.570796326794896 2.617993877991494
2  10 7 0 1.570796326794896 2.617993877991494
0

0101000
+122 3 -120 3 *
Ve
0.000000200001000
-5.438769439576845 -3.140074999999996 6.743700000000000
0 0

0101101
*
Ed
 0.000000100000000 1 1 0
1  9 0 2.617993877991494 3.665191429188091
2  10 8 0 2.617993877991494 3.665191429188091
0

0101000
+120 3 -118 3 *
Ve
0.000000200001000
-0.000000000000007 -6.280150000000000 6.743700000000000
0 0

0101101
*
Ed
 0.000000100000000 1 1 0
1  10 0 3.665191429188091 4.712388980384689
2  10 9 0 3.665191429188091 4.712388980384689
0

0101000
+118 3 -116 3 *
Ve
0.000000200001000
5.438769439576840 -3.140075000000003 6.743700000000000
0 0

0101101
*
Ed
 0.000000100000000 1 1 0
1  11 0 4.712388980384689 5.759586531581287
2  10 10 0 4.712388980384689 5.759586531581287
0

0101000
+116 3 -114 3 *
Ed
 0.000000100000000 1 1 0
1  12 0 5.759586531581287 6.283185307179586
2  10 11 0 5.759586531581287 6.283185307179586
0

0101000
+114 3 -125 3 *
Wi

0101100
-123 0 -121 0 -119 0 -117 0 -115 0 -113 0 -112 0 *
Fa
0  0.000000100000000 4 0

0111000
+126 0 +111 0 *
Ve
0.000000100000000
4.365625000000000 0.000000000000000 0.000000000000000
0 0

0101101
*
Ed
 0.000000100000000 1 1 0
1  13 0 0.000000000000000 6.283185307179586
2  11 3 0 0.000000000000000 6.283185307179586
0

0101000
+109 3 -109 3 *
Ed
 0.000000100000000 1 1 0
1  14 0 0.000000000000000 1.201604990804020
3  12 13CN 3 0 0.000000000000000 1.201604990804020
0

0101000
+109 3 -131 3 *
Wi

0101100
+108 0 -130 0 -107 0 +107 0 *
Fa
0  0.000000100000000 3 0

0111000
+106 0 *
Ve
0.000000164236371
7.251692586102457 0.000000000000000 6.267084728443708
0 0

0101101
*
Ed
 0.000000100000000 1 1 0
1  15 0 0.000000000000000 1.082153923289717
2  14 5 0 0.000000000000000 1.082153923289717
2  15 11 0 0.000000000000000 1.082153923289717
4 CN 5 0 11 0
0

0101000
+125 3 -104 3 *
Ed
 0.000000164235371 1 1 0
1  16 0 -0.000000000000000 0.549306144334055
2  16 5 0 -0.000000000000000 0.549306144334055
0

0101000
+124 3 -104 3 *
Wi

0101100
-103 0 +102 0 +123 0 *
Fa
0  0.000000100000000 5 0

0111000
+101 0 *
Ve
0.000000164236461
3.625846293051101 6.280150000000074 6.267084728443708
0 0

0101101
*
Ed
 0.000000164235344 1 1 0
1  17 0 -0.549306144334055 -0.000000000000000
2  17 6 0 -0.549306144334055 -0.000000000000000
0

0101000
+99 3 -124 3 *
Ed
 0.000000164235461 1 1 0
1  18 0 0.000000000053140 0.549306144334054
2  18 6 0 0.000000000053140 0.549306144334054
0

0101000
+122 3 -99 3 *
Wi

0101100
+98 0 +97 0 +121 0 *
Fa
0  0.000000100000000 6 0

0111000
+96 0 *
Ve
0.000000164236459
-3.625846293051225 6.280150000000003 6.267084728443708
0 0

0101101
*
Ed
 0.000000164235307 1 1 0
1  19 0 -0.549306144334054 0.000000000053140
2  19 7 0 -0.549306144334054 0.000000000053140
0

0101000
+94 3 -122 3 *
Ed
 0.000000164235459 1 1 0
1  20 0 0.000000000000000 0.549306144334054
2  20 7 0 0.000000000000000 0.549306144334054
0

0101000
+120 3 -94 3 *
Wi

0101100
+93 0 +92 0 +119 0 *
Fa
0  0.000000100000000 7 0

0111000
+91 0 *
Ve
0.000000164236443
-7.251692586102457 0.000000000000345 6.267084728443708
0 0

0101101
*
Ed
 0.000000164235207 1 1 0
1  21 0 -0.549306144334054 0.000000000000000
2  21 8 0 -0.549306144334054 0.000000000000000
0

0101000
+89 3 -120 3 *
Ed
 0.000000164235443 1 1 0
1  22 0 -0.000000000039004 0.549306144334054
2  22 8 0 -0.000000000039004 0.549306144334054
0

0101000
+118 3 -89 3 *
Wi

0101100
+88 0 +87 0 +117 0 *
Fa
0  0.000000100000000 8 0

0111000
+86 0 *
Ve
0.000000164236625
-3.625846293051229 -6.280150000000001 6.267084728443708
0 0

0101101
*
Ed
 0.000000164235209 1 1 0
1  23 0 -0.549306144334054 -0.000000000039004
2  23 9 0 -0.549306144334054 -0.000000000039004
0

0101000
+84 3 -118 3 *
Ed
 0.000000164235625 1 1 0
1  24 0 0.000000000000013 0.549306144334055
2  24 9 0 0.000000000000013 0.549306144334055
0

0101000
+116 3 -84 3 *
Wi

0101100
+115 0 +83 0 +82 0 *
Fa
0  0.000000100000000 9 0

0111000
+81 0 *
Ve
0.000000164236832
3.625846293051096 -6.280150000000077 6.267084728443708
0 0

0101101
*
Ed
 0.000000164235157 1 1 0
1  25 0 -0.549306144334054 0.000000000000013
2  25 10 0 -0.549306144334054 0.000000000000013
0

0101000
+79 3 -116 3 *
Ed
 0.000000164235832 1 1 0
1  26 0 0.000000000000000 0.549306144334055
2  26 10 0 0.000000000000000 0.549306144334055
0

0101000
+114 3 -79 3 *
Wi

0101100
+113 0 +78 0 +77 0 *
Fa
0  0.000000100000000 10 0

0111000
+76 0 *
Ed
 0.000000164235131 1 1 0
1  27 0 -0.549306144334055 0.000000000000000
2  27 11 0 -0.549306144334055 0.000000000000000
0

0101000
+104 3 -114 3 *
Wi

0101100
+112 0 +74 0 +103 0 *
Fa
0  0.000000100000000 11 0

0111000
+73 0 *
Ve
0.000000100000000
6.280150000000000 0.000000000000000 0.000000000000000
0 0

0101101
*
Ve
0.000000200001000
5.438769439576842 3.140075000000000 0.000000000000000
0 0

0101101
*
Ed
 0.000000100000000 1 1 0
1  28 0 0.000000000000000 0.523598775598299
2  28 13 0 0.000000000000000 0.523598775598299
0

0101000
+71 3 -70 3 *
Ve
0.000000200001000
0.000000000000002 6.280150000000000 0.000000000000000
0 0

0101101
*
Ed
 0.000000100000000 1 1 0
1  29 0 0.523598775598299 1.570796326794896
2  28 14 0 0.523598775598299 1.570796326794896
0

0101000
+70 3 -68 3 *
Ve
0.000000200001000
-5.438769439576841 3.140075000000002 0.000000000000000
0 0

0101101
*
Ed
 0.000000100000000 1 1 0
1  30 0 1.570796326794896 2.617993877991494
2  28 15 0 1.570796326794896 2.617993877991494
0

0101000
+68 3 -66 3 *
Ve
0.000000200001000
-5.438769439576845 -3.140074999999996 0.000000000000000
0 0

0101101
*
Ed
 0.000000100000000 1 1 0
1  31 0 2.617993877991494 3.665191429188091
2  28 16 0 2.617993877991494 3.665191429188091
0

0101000
+66 3 -64 3 *
Ve
0.000000200001000
-0.000000000000007 -6.280150000000000 0.000000000000000
0 0

0101101
*
Ed
 0.000000100000000 1 1 0
1  32 0 3.665191429188091 4.712388980384689
2  28 17 0 3.665191429188091 4.712388980384689
0

0101000
+64 3 -62 3 *
Ve
0.000000200001000
5.438769439576840 -3.140075000000003 0.000000000000000
0 0

0101101
*
Ed
 0.000000100000000 1 1 0
1  33 0 4.712388980384689 5.759586531581287
2  28 18 0 4.712388980384689 5.759586531581287
0

0101000
+62 3 -60 3 *
Ed
 0.000000100000000 1 1 0
1  34 0 5.759586531581287 6.283185307179586
2  28 19 0 5.759586531581287 6.283185307179586
0

0101000
+60 3 -71 3 *
Wi

0101100
+69 0 +67 0 +65 0 +63 0 +61 0 +59 0 +58 0 *
Wi

0101100
-108 0 *
Fa
0  0.000000100000000 12 0

0111000
+57 0 +56 0 *
Ve
0.000000164236373
7.251692586102457 0.000000000000000 0.476615271556292
0 0

0101101
*
Ed
 0.000000164235373 1 1 0
1  35 0 -0.549306144334055 0.000000000000000
2  29 13 0 -0.549306144334055 0.000000000000000
0

0101000
+54 3 -70 3 *
Ve
0.000000164236427
3.625846293051101 6.280150000000074 0.476615271556292
0 0

0101101
*
Ed
 0.000000164235350 1 1 0
1  36 0 0.000000000000000 0.549306144334055
2  30 14 0 0.000000000000000 0.549306144334055
0

0101000
+70 3 -52 3 *
Ed
 0.000000100000000 1 1 0
1  37 0 1.150985271556292 6.941454728443707
0

0101000
+52 3 -99 3 *
Ed
 0.000000100000001 1 1 0
1  38 0 0.000000000000000 5.790469456887416
0

0101000
+104 3 -54 3 *
Wi

0101100
-53 0 -51 0 -50 0 -98 0 -102 0 -49 0 *
Fa
0  0.000000100000000 20 0

0111000
+48 0 *
Ed
 0.000000164235427 1 1 0
1  39 0 -0.549306144334055 0.000000000053141
2  31 14 0 -0.549306144334055 0.000000000053141
0

0101000
+52 3 -68 3 *
Ve
0.000000164236413
-3.625846293051225 6.280150000000003 0.476615271556292
0 0

0101101
*
Ed
 0.000000164235233 1 1 0
1  40 0 0.000000000053141 0.549306144334054
2  32 15 0 0.000000000053141 0.549306144334054
0

0101000
+68 3 -45 3 *
Ed
 0.000000100000001 1 1 0
1  41 0 1.150985271556292 6.941454728443707
0

0101000
+45 3 -94 3 *
Wi

0101100
-46 0 -44 0 -43 0 -93 0 -97 0 +50 0 *
Fa
0  0.000000100000000 21 0

0111000
+42 0 *
Ed
 0.000000164235413 1 1 0
1  42 0 -0.549306144334054 -0.000000000038989
2  33 15 0 -0.549306144334054 -0.000000000038989
0

0101000
+45 3 -66 3 *
Ve
0.000000164236454
-7.251692586102457 0.000000000000345 0.476615271556292
0 0

0101101
*
Ed
 0.000000164235239 1 1 0
1  43 0 -0.000000000038989 0.549306144334054
2  34 16 0 -0.000000000038989 0.549306144334054
0

0101000
+66 3 -39 3 *
Ed
 0.000000100000001 1 1 0
1  44 0 1.150985271556292 6.941454728443707
0

0101000
+39 3 -89 3 *
Wi

0101100
-40 0 -38 0 -37 0 -88 0 -92 0 +43 0 *
Fa
0  0.000000100000000 22 0

0111000
+36 0 *
Ed
 0.000000164235454 1 1 0
1  45 0 -0.549306144334054 0.000000000057330
2  35 16 0 -0.549306144334054 0.000000000057330
0

0101000
+39 3 -64 3 *
Ve
0.000000164236356
-3.625846293051229 -6.280150000000001 0.476615271556292
0 0

0101101
*
Ed
 0.000000164235095 1 1 0
1  46 0 0.000000000057330 0.549306144334054
2  36 17 0 0.000000000057330 0.549306144334054
0

0101000
+64 3 -33 3 *
Ed
 0.000000100000007 1 1 0
1  47 0 1.150985271556292 6.941454728443707
0

0101000
+33 3 -84 3 *
Wi

0101100
-34 0 -32 0 -31 0 -83 0 -87 0 +37 0 *
Fa
0  0.000000100000000 23 0

0111000
+30 0 *
Ed
 0.000000164235356 1 1 0
1  48 0 -0.549306144334055 0.000000000000010
2  37 17 0 -0.549306144334055 0.000000000000010
0

0101000
+33 3 -62 3 *
Ve
0.000000164236512
3.625846293051096 -6.280150000000077 0.476615271556292
0 0

0101101
*
Ed
 0.000000164234952 1 1 0
1  49 0 0.000000000000010 0.549306144334054
2  38 18 0 0.000000000000010 0.549306144334054
0

0101000
+62 3 -27 3 *
Ed
 0.000000100000002 1 1 0
1  50 0 1.150985271556292 6.941454728443707
0

0101000
+27 3 -79 3 *
Wi

0101100
-28 0 -26 0 -25 0 -78 0 -82 0 +31 0 *
Fa
0  0.000000100000000 24 0

0111000
+24 0 *
Ed
 0.000000164235512 1 1 0
1  51 0 -0.549306144334055 -0.000000000000000
2  39 18 0 -0.549306144334055 -0.000000000000000
0

0101000
+27 3 -60 3 *
Ed
 0.000000164235299 1 1 0
1  52 0 -0.000000000000000 0.549306144334055
2  40 19 0 -0.000000000000000 0.549306144334055
0

0101000
+60 3 -54 3 *
Wi

0101100
-22 0 -21 0 +49 0 -74 0 -77 0 +25 0 *
Fa
0  0.000000100000000 25 0

0111000
+20 0 *
Ed
 0.000000100000000 1 1 0
1  53 0 0.000000000000000 1.082153923289717
2  41 13 0 0.000000000000000 1.082153923289717
2  42 19 0 0.000000000000000 1.082153923289717
4 CN 13 0 19 0
0

0101000
+54 3 -71 3 *
Wi

0101100
-18 0 -69 0 +53 0 *
Fa
0  0.000000100000000 13 0

0111000
+17 0 *
Wi

0101100
+51 0 -67 0 +46 0 *
Fa
0  0.000000100000000 14 0

0111000
+15 0 *
Wi

0101100
+44 0 -65 0 +40 0 *
Fa
0  0.000000100000000 15 0

0111000
+13 0 *
Wi

0101100
+38 0 -63 0 +34 0 *
Fa
0  0.000000100000000 16 0

0111000
+11 0 *
Wi

0101100
+32 0 -61 0 +28 0 *
Fa
0  0.000000100000000 17 0

0111000
+9 0 *
Wi

0101100
+26 0 -59 0 +22 0 *
Fa
0  0.000000100000000 18 0

0111000
+7 0 *
Wi

0101100
+21 0 -58 0 +18 0 *
Fa
0  0.000000100000000 19 0

0111000
+5 0 *
Sh

0101100
-132 0 -127 0 -110 0 -105 0 -100 0 -95 0 -90 0 -85 0 -80 0 -75 0 
-72 0 -55 0 -47 0 -41 0 -35 0 -29 0 -23 0 -19 0 -16 0 -14 0 
-12 0 -10 0 -8 0 -6 0 -4 0 *
So

0100000
+3 0 *
Co

1100000
+2 0 *

+1 1 