
CASCADE Topology V1, (c) Matra-Datavision
Locations 63
1
1.000000000000000 0.000000000000000 0.000000000000000 0.000000000000000 
0.000000000000000 1.000000000000000 0.000000000000000 0.000000000000000 
0.000000000000000 0.000000000000000 1.000000000000000 0.000000000000000 
1
1.000000000000000 0.000000000000000 0.000000000000000 0.000000000000000 
0.000000000000000 1.000000000000000 0.000000000000000 0.000000000000000 
0.000000000000000 0.000000000000000 1.000000000000000 0.000000000000000 
1
1.000000000000000 0.000000000000000 0.000000000000000 0.000000000000000 
0.000000000000000 1.000000000000000 0.000000000000000 0.000000000000000 
0.000000000000000 0.000000000000000 1.000000000000000 0.000000000000000 
2  2 1 3 -1 0
1
1.000000000000000 0.000000000000000 0.000000000000000 0.000000000000000 
0.000000000000000 1.000000000000000 0.000000000000000 0.000000000000000 
0.000000000000000 0.000000000000000 1.000000000000000 0.000000000000000 
1
1.000000000000000 0.000000000000000 0.000000000000000 0.000000000000000 
0.000000000000000 1.000000000000000 0.000000000000000 0.000000000000000 
0.000000000000000 0.000000000000000 1.000000000000000 0.000000000000000 
2  5 1 6 -1 0
1
1.000000000000000 0.000000000000000 0.000000000000000 0.000000000000000 
0.000000000000000 1.000000000000000 0.000000000000000 0.000000000000000 
0.000000000000000 0.000000000000000 1.000000000000000 0.000000000000000 
2  8 -1 3 1 2 -1 6 1 5 -1 0
1
1.000000000000000 0.000000000000000 0.000000000000000 0.000000000000000 
0.000000000000000 1.000000000000000 0.000000000000000 0.000000000000000 
0.000000000000000 0.000000000000000 1.000000000000000 0.000000000000000 
1
1.000000000000000 0.000000000000000 0.000000000000000 0.000000000000000 
0.000000000000000 0.000000000000000 -1.000000000000000 0.000000000000000 
0.000000000000000 1.000000000000000 0.000000000000000 0.000000000000000 
1
1.000000000000000 0.000000000000000 0.000000000000000 0.000000000000000 
0.000000000000000 -0.000000000000000 -1.000000000000000 0.000000000000000 
0.000000000000000 1.000000000000000 -0.000000000000000 0.000000000000000 
1
1.000000000000000 0.000000000000000 0.000000000000000 0.000000000000000 
0.000000000000000 1.000000000000000 0.000000000000000 0.000000000000000 
0.000000000000000 0.000000000000000 1.000000000000000 0.000000000000000 
1
1.000000000000000 0.000000000000000 0.000000000000000 0.000000000000000 
0.000000000000000 1.000000000000000 0.000000000000000 0.000000000000000 
0.000000000000000 0.000000000000000 1.000000000000000 0.000000000000000 
1
1.000000000000000 0.000000000000000 0.000000000000000 0.000000000000000 
0.000000000000000 1.000000000000000 0.000000000000000 0.000000000000000 
0.000000000000000 0.000000000000000 1.000000000000000 0.000000000000000 
1
1.000000000000000 0.000000000000000 0.000000000000000 0.000000000000000 
0.000000000000000 0.000000000000000 -1.000000000000000 0.000000000000000 
0.000000000000000 1.000000000000000 0.000000000000000 0.000000000000000 
1
1.000000000000000 0.000000000000000 0.000000000000000 0.000000000000000 
0.000000000000000 1.000000000000000 0.000000000000000 0.000000000000000 
0.000000000000000 0.000000000000000 1.000000000000000 0.000000000000000 
1
1.000000000000000 0.000000000000000 0.000000000000000 0.000000000000000 
0.000000000000000 1.000000000000000 0.000000000000000 0.000000000000000 
0.000000000000000 0.000000000000000 1.000000000000000 0.000000000000000 
1
1.000000000000000 0.000000000000000 0.000000000000000 0.000000000000000 
0.000000000000000 1.000000000000000 0.000000000000000 0.000000000000000 
0.000000000000000 0.000000000000000 1.000000000000000 0.000000000000000 
1
1.000000000000000 0.000000000000000 0.000000000000000 0.000000000000000 
0.000000000000000 1.000000000000000 0.000000000000000 0.000000000000000 
0.000000000000000 0.000000000000000 1.000000000000000 0.000000000000000 
1
1.000000000000000 0.000000000000000 0.000000000000000 0.000000000000000 
0.000000000000000 1.000000000000000 0.000000000000000 0.000000000000000 
0.000000000000000 0.000000000000000 1.000000000000000 0.000000000000000 
1
1.000000000000000 0.000000000000000 0.000000000000000 0.000000000000000 
0.000000000000000 1.000000000000000 0.000000000000000 0.000000000000000 
0.000000000000000 0.000000000000000 1.000000000000000 0.000000000000000 
1
1.000000000000000 0.000000000000000 0.000000000000000 0.000000000000000 
0.000000000000000 1.000000000000000 0.000000000000000 0.000000000000000 
0.000000000000000 0.000000000000000 1.000000000000000 0.000000000000000 
2  10 1 11 1 12 -1 13 1 14 1 15 1 16 1 17 1 18 1 19 1 20 1 21 1 22 1 23 -1 5 1 6 -1 0
2  8 -1 3 1 2 -1 6 1 5 -1 23 1 22 -1 21 -1 20 -1 19 -1 18 -1 17 -1 16 -1 15 -1 14 -1 13 -1 12 1 11 -1 10 -1 0
1
1.000000000000000 0.000000000000000 0.000000000000000 -0.000000000000000 
0.000000000000000 1.000000000000000 0.000000000000000 -35.000000000000000 
0.000000000000000 0.000000000000000 1.000000000000000 0.000000000000008 
2  10 1 11 1 12 -1 13 1 14 1 15 1 16 1 17 1 18 1 19 1 20 1 21 1 22 1 23 -1 26 1 5 1 6 -1 0
2  8 -1 3 1 2 -1 6 1 5 -1 26 -1 23 1 22 -1 21 -1 20 -1 19 -1 18 -1 17 -1 16 -1 15 -1 14 -1 13 -1 12 1 11 -1 10 -1 0
2  8 -1 3 1 2 -1 0
2  5 1 6 -1 2 1 3 -1 0
2  15 1 16 1 17 1 18 1 19 1 20 1 21 1 22 1 23 -1 0
2  23 1 22 -1 21 -1 20 -1 19 -1 18 -1 17 -1 16 -1 15 -1 0
2  8 -1 3 1 2 -1 6 1 5 -1 23 1 22 -1 21 -1 20 -1 19 -1 18 -1 17 -1 16 -1 15 -1 0
2  15 1 16 1 17 1 18 1 19 1 20 1 21 1 22 1 23 -1 26 1 0
2  26 -1 23 1 22 -1 21 -1 20 -1 19 -1 18 -1 17 -1 16 -1 15 -1 0
2  8 -1 3 1 2 -1 6 1 5 -1 26 -1 23 1 22 -1 21 -1 20 -1 19 -1 18 -1 17 -1 16 -1 15 -1 0
2  12 -1 13 1 14 1 15 1 16 1 17 1 18 1 19 1 20 1 21 1 22 1 23 -1 5 1 6 -1 2 1 3 -1 0
2  14 -1 13 -1 12 1 0
2  10 1 11 1 12 -1 13 1 14 1 0
2  13 -1 12 1 0
2  10 1 11 1 12 -1 13 1 0
2  23 1 22 -1 21 -1 20 -1 19 -1 18 -1 17 -1 16 -1 15 -1 14 -1 0
2  8 -1 3 1 2 -1 6 1 5 -1 23 1 22 -1 21 -1 20 -1 19 -1 18 -1 17 -1 16 -1 15 -1 14 -1 0
2  12 -1 13 1 14 1 15 1 16 1 17 1 18 1 19 1 20 1 21 1 22 1 23 -1 26 1 5 1 6 -1 2 1 3 -1 0
2  26 -1 23 1 22 -1 21 -1 20 -1 19 -1 18 -1 17 -1 16 -1 15 -1 14 -1 0
2  8 -1 3 1 2 -1 6 1 5 -1 26 -1 23 1 22 -1 21 -1 20 -1 19 -1 18 -1 17 -1 16 -1 15 -1 14 -1 0
2  10 1 11 1 12 -1 13 1 14 1 15 1 16 1 17 1 18 1 19 1 20 1 21 1 22 1 23 -1 0
2  10 1 11 1 12 -1 13 1 14 1 15 1 16 1 17 1 18 1 19 1 20 1 21 1 22 1 23 -1 26 1 0
2  10 1 11 1 12 -1 13 1 14 1 15 1 16 1 17 1 18 1 19 1 20 1 21 1 22 1 23 -1 5 1 6 -1 2 1 3 -1 0
2  10 1 11 1 12 -1 13 1 14 1 15 1 16 1 17 1 18 1 19 1 20 1 21 1 22 1 23 -1 26 1 5 1 6 -1 2 1 3 -1 0
2  8 -1 0
1
1.000000000000000 0.000000000000000 0.000000000000000 0.000000000000000 
0.000000000000000 1.000000000000000 0.000000000000000 0.000000000000000 
0.000000000000000 0.000000000000000 1.000000000000000 0.000000000000000 
1
1.000000000000000 0.000000000000000 0.000000000000000 0.000000000000000 
0.000000000000000 1.000000000000000 0.000000000000000 0.000000000000004 
0.000000000000000 -0.000000000000000 1.000000000000000 20.000000000000000 
2  52 1 53 1 3 -1 0
2  3 1 53 -1 52 -1 0
2  8 -1 3 1 53 -1 52 -1 0
2  14 1 15 1 16 1 17 1 18 1 19 1 20 1 21 1 22 1 23 -1 0
2  14 1 15 1 16 1 17 1 18 1 19 1 20 1 21 1 22 1 23 -1 26 1 0
1
1.000000000000000 0.000000000000000 0.000000000000000 0.000000000000000 
0.000000000000000 1.000000000000000 0.000000000000000 0.000000000000000 
0.000000000000000 0.000000000000000 1.000000000000000 0.000000000000000 
1
0.000000000000000 0.000000000000000 1.000000000000000 20.000000000000004 
1.000000000000000 0.000000000000000 0.000000000000000 0.000000000000000 
0.000000000000000 1.000000000000000 0.000000000000000 0.000000000000000 
2  59 1 60 1 6 -1 0
2  6 1 60 -1 59 -1 0
2  8 -1 3 1 2 -1 6 1 60 -1 59 -1 0
Curve2ds 46
1 4.71238898038468967 0.00000000000000000 0.00000000000000000 -1.00000000000000000 
1 1.57079632679489700 0.00000000000000000 0.00000000000000000 -1.00000000000000000 
1 0.00000000000000000 -38.41250000000000853 1.00000000000000000 0.00000000000000000 
1 6.28318530717958623 0.00000000000000000 0.00000000000000000 -1.00000000000000000 
1 0.00000000000000000 0.00000000000000000 1.00000000000000000 0.00000000000000000 
1 0.00000000000000000 -35.00000000000000000 1.00000000000000000 0.00000000000000000 
1 0.00000000000000000 0.00000000000000000 1.00000000000000000 0.00000000000000000 
1 0.00000000000000000 0.00000000000000000 1.00000000000000000 0.00000000000000000 
1 0.00000000000000000 0.00000000000000000 1.00000000000000000 0.00000000000000000 
1 0.00000000000000000 0.00000000000000000 1.00000000000000000 0.00000000000000000 
1 0.00000000000000000 0.00000000000000000 1.00000000000000000 0.00000000000000000 
1 0.00000000000000000 0.00000000000000000 1.00000000000000000 0.00000000000000000 
1 0.00000000000000000 0.00000000000000000 1.00000000000000000 0.00000000000000000 
1 0.00000000000000000 -35.00000000000000000 1.00000000000000000 0.00000000000000000 
1 0.00000000000000000 -35.00000000000000000 1.00000000000000000 0.00000000000000000 
1 0.00000000000000000 -35.00000000000000000 1.00000000000000000 0.00000000000000000 
1 0.00000000000000000 -35.00000000000000000 1.00000000000000000 0.00000000000000000 
1 0.00000000000000000 -35.00000000000000000 1.00000000000000000 0.00000000000000000 
1 0.00000000000000000 -35.00000000000000000 1.00000000000000000 0.00000000000000000 
1 0.00000000000000000 -35.00000000000000000 1.00000000000000000 0.00000000000000000 
1 3.14159265358979312 0.00000000000000000 0.00000000000000000 -1.00000000000000000 
1 0.00000000000000000 0.00000000000000000 0.00000000000000000 -1.00000000000000000 
1 6.28318530717958623 0.00000000000000000 0.00000000000000000 -1.00000000000000000 
1 0.00000000000000000 -40.00000000000000000 1.00000000000000000 0.00000000000000000 
1 0.00000000000000000 0.00000000000000000 0.00000000000000000 -1.00000000000000000 
1 3.14159265358979312 0.00000000000000000 0.00000000000000000 -1.00000000000000000 
1 0.00000000000000000 -1.58749999999999858 1.00000000000000000 0.00000000000000000 
1 0.00000000000000000 -1.58749999999999858 1.00000000000000000 0.00000000000000000 
1 1.57079632679489700 0.00000000000000000 0.00000000000000000 -1.00000000000000000 
1 1.57079632679489700 0.00000000000000000 0.00000000000000000 -1.00000000000000000 
1 0.00000000000000000 -1.58750000000000213 1.00000000000000000 0.00000000000000000 
1 3.14159265358979312 0.00000000000000000 0.00000000000000000 -1.00000000000000000 
1 3.14159265358979312 0.00000000000000000 0.00000000000000000 -1.00000000000000000 
1 0.00000000000000000 0.00000000000000000 1.00000000000000000 0.00000000000000000 
1 0.00000000000000000 0.00000000000000000 1.00000000000000000 0.00000000000000000 
1 4.71238898038468967 0.00000000000000000 0.00000000000000000 -1.00000000000000000 
1 4.71238898038468967 0.00000000000000000 0.00000000000000000 -1.00000000000000000 
1 1.57079632679489700 0.00000000000000000 0.00000000000000000 -1.00000000000000000 
1 4.71238898038468967 0.00000000000000000 0.00000000000000000 -1.00000000000000000 
1 0.00000000000000000 0.00000000000000000 1.00000000000000000 0.00000000000000000 
1 0.00000000000000000 0.00000000000000000 0.00000000000000000 -1.00000000000000000 
1 6.28318530717958623 0.00000000000000000 0.00000000000000000 -1.00000000000000000 
1 0.00000000000000000 0.00000000000000000 0.00000000000000000 -1.00000000000000000 
1 6.28318530717958623 0.00000000000000000 0.00000000000000000 -1.00000000000000000 
1 0.00000000000000000 0.00000000000000000 0.00000000000000000 -1.00000000000000000 
1 6.28318530717958623 0.00000000000000000 0.00000000000000000 -1.00000000000000000 
Curves 60
1 -18.41250000000000142 -0.00000000000000800 -17.41250000000000142 0.00000000000000000 -1.00000000000000000 0.00000000000000022 
1 -18.41250000000000142 -18.41250000000000497 0.00000000000000000 0.00000000000000000 1.00000000000000000 0.00000000000000000 
1 -18.41250000000000142 -18.41250000000000497 0.00000000000000000 0.00000000000000000 1.00000000000000000 0.00000000000000000 
1 -18.41250000000000142 0.00000000000000800 17.41250000000000142 0.00000000000000000 -1.00000000000000000 0.00000000000000022 
2 -18.41250000000000497 -17.50000000000000000 0.00000000000000000 1.00000000000000000 0.00000000000000000 0.00000000000000000 0.00000000000000000 1.00000000000000000 0.00000000000000000 0.00000000000000000 0.00000000000000000 1.00000000000000000 3.96875000000000000
1 -17.41250000000000142 -0.00000000000000800 -18.41250000000000142 0.00000000000000000 -1.00000000000000000 0.00000000000000022 
8 4.71238898038468967 6.28318530717958623
2 -17.41250000000000142 -17.41250000000000142 0.00000000000000773 -0.00000000000000000 0.00000000000000044 1.00000000000000000 0.00000000000000000 -1.00000000000000000 0.00000000000000044 1.00000000000000000 0.00000000000000000 0.00000000000000000 1.00000000000000000
8 4.71238898038468967 6.28318530717958623
2 -17.41250000000000142 -17.41250000000000142 0.00000000000000773 -0.00000000000000000 0.00000000000000044 1.00000000000000000 0.00000000000000000 -1.00000000000000000 0.00000000000000044 1.00000000000000000 0.00000000000000000 0.00000000000000000 1.00000000000000000
8 1.57079632679489656 3.14159265358979312
2 -17.41250000000000142 17.41250000000000142 -0.00000000000000773 -0.00000000000000000 -0.00000000000000044 -1.00000000000000000 0.00000000000000000 -1.00000000000000000 0.00000000000000044 -1.00000000000000000 0.00000000000000000 0.00000000000000000 1.00000000000000000
1 18.41250000000000142 -18.41250000000000142 0.00000000000000000 -1.00000000000000000 -0.00000000000000010 0.00000000000000000 
1 -18.41250000000000142 18.41250000000000142 0.00000000000000000 1.00000000000000000 0.00000000000000000 0.00000000000000000 
8 0.00000000000000000 1.57079632679489656
2 17.41250000000000142 -17.41250000000000142 0.00000000000000773 -0.00000000000000000 0.00000000000000044 1.00000000000000000 0.00000000000000000 -1.00000000000000000 0.00000000000000044 1.00000000000000000 0.00000000000000000 0.00000000000000000 1.00000000000000000
8 1.57079632679489656 3.14159265358979312
2 17.41250000000000142 17.41250000000000142 -0.00000000000000773 -0.00000000000000000 0.00000000000000044 1.00000000000000000 0.00000000000000000 -1.00000000000000000 0.00000000000000044 1.00000000000000000 0.00000000000000000 0.00000000000000000 1.00000000000000000
1 18.41250000000000142 18.41250000000000142 0.00000000000000000 0.00000000000000000 -1.00000000000000000 0.00000000000000000 
1 -19.99999999999999645 20.00000000000000000 0.00000000000000000 1.00000000000000000 0.00000000000000000 0.00000000000000000 
8 3.14159265358979312 4.71238898038468967
2 -17.99999999999999645 18.00000000000000000 -0.00000000000000799 -0.00000000000000000 0.00000000000000044 1.00000000000000000 0.00000000000000000 -1.00000000000000000 0.00000000000000044 1.00000000000000000 0.00000000000000000 0.00000000000000000 2.00000000000000000
8 3.14159265358979312 4.71238898038468967
2 18.00000000000000355 18.00000000000000000 -0.00000000000000799 -0.00000000000000000 -0.00000000000000044 -1.00000000000000000 0.00000000000000000 -1.00000000000000000 0.00000000000000044 -1.00000000000000000 0.00000000000000000 0.00000000000000000 2.00000000000000000
1 -19.99999999999999645 -20.00000000000000000 0.00000000000000000 0.00000000000000000 1.00000000000000000 0.00000000000000000 
1 20.00000000000000355 20.00000000000000000 0.00000000000000000 0.00000000000000000 -1.00000000000000000 0.00000000000000000 
8 0.00000000000000000 1.57079632679489656
2 -17.99999999999999645 -18.00000000000000000 0.00000000000000799 -0.00000000000000000 -0.00000000000000044 -1.00000000000000000 0.00000000000000000 -1.00000000000000000 0.00000000000000044 -1.00000000000000000 0.00000000000000000 0.00000000000000000 2.00000000000000000
8 4.71238898038468967 6.28318530717958623
2 18.00000000000000355 -18.00000000000000000 0.00000000000000799 -0.00000000000000000 -0.00000000000000044 -1.00000000000000000 0.00000000000000000 -1.00000000000000000 0.00000000000000044 -1.00000000000000000 0.00000000000000000 0.00000000000000000 2.00000000000000000
1 20.00000000000000355 -20.00000000000000000 0.00000000000000000 -1.00000000000000000 0.00000000000000000 0.00000000000000000 
8 1.57079632679489656 3.14159265358979312
2 -17.41250000000000142 17.41250000000000142 -0.00000000000000773 -0.00000000000000000 -0.00000000000000044 -1.00000000000000000 0.00000000000000000 -1.00000000000000000 0.00000000000000044 -1.00000000000000000 0.00000000000000000 0.00000000000000000 1.00000000000000000
1 18.41250000000000142 -18.41250000000000142 0.00000000000000000 -1.00000000000000000 -0.00000000000000010 0.00000000000000000 
1 -18.41250000000000142 18.41250000000000142 0.00000000000000000 1.00000000000000000 0.00000000000000000 0.00000000000000000 
8 0.00000000000000000 1.57079632679489656
2 17.41250000000000142 -17.41250000000000142 0.00000000000000773 -0.00000000000000000 0.00000000000000044 1.00000000000000000 0.00000000000000000 -1.00000000000000000 0.00000000000000044 1.00000000000000000 0.00000000000000000 0.00000000000000000 1.00000000000000000
8 1.57079632679489656 3.14159265358979312
2 17.41250000000000142 17.41250000000000142 -0.00000000000000773 -0.00000000000000000 0.00000000000000044 1.00000000000000000 0.00000000000000000 -1.00000000000000000 0.00000000000000044 1.00000000000000000 0.00000000000000000 0.00000000000000000 1.00000000000000000
1 18.41250000000000142 18.41250000000000142 0.00000000000000000 0.00000000000000000 -1.00000000000000000 0.00000000000000000 
1 -19.99999999999999645 20.00000000000000000 0.00000000000000000 1.00000000000000000 0.00000000000000000 0.00000000000000000 
8 3.14159265358979312 4.71238898038468967
2 -17.99999999999999645 18.00000000000000000 -0.00000000000000799 -0.00000000000000000 0.00000000000000044 1.00000000000000000 0.00000000000000000 -1.00000000000000000 0.00000000000000044 1.00000000000000000 0.00000000000000000 0.00000000000000000 2.00000000000000000
8 3.14159265358979312 4.71238898038468967
2 18.00000000000000355 18.00000000000000000 -0.00000000000000799 -0.00000000000000000 -0.00000000000000044 -1.00000000000000000 0.00000000000000000 -1.00000000000000000 0.00000000000000044 -1.00000000000000000 0.00000000000000000 0.00000000000000000 2.00000000000000000
1 -19.99999999999999645 -20.00000000000000000 0.00000000000000000 0.00000000000000000 1.00000000000000000 0.00000000000000000 
1 20.00000000000000355 20.00000000000000000 0.00000000000000000 0.00000000000000000 -1.00000000000000000 0.00000000000000000 
8 0.00000000000000000 1.57079632679489656
2 -17.99999999999999645 -18.00000000000000000 0.00000000000000799 -0.00000000000000000 -0.00000000000000044 -1.00000000000000000 0.00000000000000000 -1.00000000000000000 0.00000000000000044 -1.00000000000000000 0.00000000000000000 0.00000000000000000 2.00000000000000000
8 4.71238898038468967 6.28318530717958623
2 18.00000000000000355 -18.00000000000000000 0.00000000000000799 -0.00000000000000000 -0.00000000000000044 -1.00000000000000000 0.00000000000000000 -1.00000000000000000 0.00000000000000044 -1.00000000000000000 0.00000000000000000 0.00000000000000000 2.00000000000000000
1 20.00000000000000355 -20.00000000000000000 0.00000000000000000 -1.00000000000000000 0.00000000000000000 0.00000000000000000 
1 -17.41250000000000142 0.00000000000000800 18.41250000000000142 0.00000000000000000 -1.00000000000000000 0.00000000000000022 
1 20.00000000000000355 -13.53125000000000000 0.00000000000000000 -1.00000000000000000 -0.00000000000000000 -0.00000000000000000 
2 -19.99999999999999645 -17.50000000000000000 0.00000000000000000 1.00000000000000000 0.00000000000000000 0.00000000000000000 0.00000000000000000 1.00000000000000000 0.00000000000000000 0.00000000000000000 0.00000000000000000 1.00000000000000000 3.96875000000000000
1 17.41250000000000142 -0.00000000000000800 -18.41250000000000142 0.00000000000000000 -1.00000000000000000 0.00000000000000022 
1 17.41250000000000142 0.00000000000000800 18.41250000000000142 0.00000000000000000 -1.00000000000000000 0.00000000000000022 
2 0.00000000000000000 -22.49999999999999645 18.41250000000000497 -0.00000000000000000 0.00000000000000022 1.00000000000000000 1.00000000000000000 0.00000000000000000 0.00000000000000000 0.00000000000000000 1.00000000000000000 -0.00000000000000022 3.00000000000000000
2 0.00000000000000000 -6.49999999999999556 18.41250000000000142 -0.00000000000000000 0.00000000000000022 1.00000000000000000 1.00000000000000000 0.00000000000000000 0.00000000000000000 0.00000000000000000 1.00000000000000000 -0.00000000000000022 3.00000000000000000
1 18.41250000000000142 -0.00000000000000800 -17.41250000000000142 0.00000000000000000 -1.00000000000000000 0.00000000000000022 
1 18.41250000000000142 0.00000000000000800 17.41250000000000142 0.00000000000000000 -1.00000000000000000 0.00000000000000022 
2 18.41250000000000142 -17.50000000000000000 0.00000000000000000 1.00000000000000000 0.00000000000000000 0.00000000000000000 0.00000000000000000 1.00000000000000000 0.00000000000000000 0.00000000000000000 0.00000000000000000 1.00000000000000000 3.96875000000000000
1 -17.99999999999999645 0.00000000000000900 20.00000000000000000 0.00000000000000000 -1.00000000000000000 0.00000000000000022 
1 18.00000000000000355 0.00000000000000900 20.00000000000000000 0.00000000000000000 -1.00000000000000000 0.00000000000000022 
2 0.00000000000000000 -22.50000000000000000 0.00000000000000000 0.00000000000000000 0.00000000000000000 1.00000000000000000 1.00000000000000000 0.00000000000000000 0.00000000000000000 0.00000000000000000 1.00000000000000000 0.00000000000000000 3.00000000000000000
2 0.00000000000000000 -6.50000000000000000 0.00000000000000000 0.00000000000000000 0.00000000000000000 1.00000000000000000 1.00000000000000000 0.00000000000000000 0.00000000000000000 0.00000000000000000 1.00000000000000000 0.00000000000000000 3.00000000000000000
1 -19.99999999999999645 0.00000000000000800 18.00000000000000000 0.00000000000000000 -1.00000000000000000 0.00000000000000022 
1 20.00000000000000355 0.00000000000000800 18.00000000000000000 0.00000000000000000 -1.00000000000000000 0.00000000000000022 
1 -19.99999999999999645 -0.00000000000000800 -18.00000000000000000 0.00000000000000000 -1.00000000000000000 0.00000000000000022 
1 20.00000000000000355 -0.00000000000000800 -18.00000000000000000 0.00000000000000000 -1.00000000000000000 0.00000000000000022 
2 -17.50000000000000000 0.00000000000000000 0.00000000000000000 0.00000000000000000 0.00000000000000000 1.00000000000000000 1.00000000000000000 0.00000000000000000 0.00000000000000000 0.00000000000000000 1.00000000000000000 0.00000000000000000 3.96875000000000000
1 -17.99999999999999645 -0.00000000000000900 -20.00000000000000000 0.00000000000000000 -1.00000000000000000 0.00000000000000022 
1 18.00000000000000355 -0.00000000000000900 -20.00000000000000000 0.00000000000000000 -1.00000000000000000 0.00000000000000022 
1 3.00000000000000000 -22.49999999999999645 20.00000000000000355 -0.00000000000000000 -0.00000000000000022 -1.00000000000000000 
1 3.00000000000000000 -6.49999999999999556 20.00000000000000000 -0.00000000000000000 -0.00000000000000022 -1.00000000000000000 
1 20.00000000000000355 -13.53125000000000000 0.00000000000000000 -1.00000000000000000 -0.00000000000000000 -0.00000000000000000 
Polygon3D 0
PolygonOnTriangulations 0
Surfaces 22
1 -18.41250000000000142 0.00000000000000000 -17.41250000000000142 -1.00000000000000000 0.00000000000000000 0.00000000000000000 0.00000000000000000 0.00000000000000000 1.00000000000000000 0.00000000000000000 1.00000000000000000 0.00000000000000000 
2 -17.41250000000000142 -0.00000000000000773 -17.41250000000000142 0.00000000000000000 1.00000000000000000 -0.00000000000000044 0.00000000000000000 -0.00000000000000044 -1.00000000000000000 1.00000000000000000 0.00000000000000000 0.00000000000000000 1.00000000000000000
2 -17.41250000000000142 0.00000000000000773 17.41250000000000142 0.00000000000000000 1.00000000000000000 -0.00000000000000044 0.00000000000000000 -0.00000000000000044 -1.00000000000000000 -1.00000000000000000 0.00000000000000000 0.00000000000000000 1.00000000000000000
2 20.00000000000000355 -17.50000000000000000 0.00000000000000000 1.00000000000000000 0.00000000000000000 0.00000000000000000 0.00000000000000000 1.00000000000000000 0.00000000000000000 0.00000000000000000 0.00000000000000000 1.00000000000000000 3.96875000000000000
1 17.41250000000000142 0.00000000000000000 -18.41250000000000142 0.00000000000000010 -0.00000000000000022 -1.00000000000000000 -1.00000000000000000 0.00000000000000000 -0.00000000000000010 0.00000000000000000 1.00000000000000000 -0.00000000000000022 
1 0.00000000000000213 0.00000000000000000 0.00000000000000000 0.00000000000000000 1.00000000000000000 -0.00000000000000022 0.00000000000000000 0.00000000000000022 1.00000000000000000 1.00000000000000000 0.00000000000000000 0.00000000000000000 
2 17.41250000000000142 -0.00000000000000773 -17.41250000000000142 0.00000000000000000 1.00000000000000000 -0.00000000000000044 0.00000000000000000 -0.00000000000000044 -1.00000000000000000 1.00000000000000000 0.00000000000000000 0.00000000000000000 1.00000000000000000
2 17.41250000000000142 0.00000000000000773 17.41250000000000142 0.00000000000000000 1.00000000000000000 -0.00000000000000044 0.00000000000000000 -0.00000000000000044 -1.00000000000000000 1.00000000000000000 0.00000000000000000 0.00000000000000000 1.00000000000000000
2 -17.99999999999999645 0.00000000000000799 18.00000000000000000 0.00000000000000000 1.00000000000000000 -0.00000000000000044 0.00000000000000000 -0.00000000000000044 -1.00000000000000000 1.00000000000000000 0.00000000000000000 0.00000000000000000 2.00000000000000000
2 18.00000000000000355 0.00000000000000799 18.00000000000000000 0.00000000000000000 1.00000000000000000 -0.00000000000000044 0.00000000000000000 -0.00000000000000044 -1.00000000000000000 -1.00000000000000000 0.00000000000000000 0.00000000000000000 2.00000000000000000
2 -17.99999999999999645 -0.00000000000000799 -18.00000000000000000 0.00000000000000000 1.00000000000000000 -0.00000000000000044 0.00000000000000000 -0.00000000000000044 -1.00000000000000000 -1.00000000000000000 0.00000000000000000 0.00000000000000000 2.00000000000000000
2 18.00000000000000355 -0.00000000000000799 -18.00000000000000000 0.00000000000000000 1.00000000000000000 -0.00000000000000044 0.00000000000000000 -0.00000000000000044 -1.00000000000000000 -1.00000000000000000 0.00000000000000000 0.00000000000000000 2.00000000000000000
1 0.00000000000000213 0.00000000000000000 0.00000000000000000 0.00000000000000000 1.00000000000000000 -0.00000000000000022 0.00000000000000000 0.00000000000000022 1.00000000000000000 1.00000000000000000 0.00000000000000000 0.00000000000000000 
1 -17.41250000000000142 0.00000000000000000 18.41250000000000142 0.00000000000000000 0.00000000000000022 1.00000000000000000 1.00000000000000000 0.00000000000000000 0.00000000000000000 0.00000000000000000 1.00000000000000000 -0.00000000000000022 
2 0.00000000000000000 -22.49999999999999645 20.00000000000000355 0.00000000000000000 0.00000000000000022 1.00000000000000000 1.00000000000000000 0.00000000000000000 0.00000000000000000 0.00000000000000000 1.00000000000000000 -0.00000000000000022 3.00000000000000000
2 0.00000000000000000 -6.49999999999999556 20.00000000000000000 0.00000000000000000 0.00000000000000022 1.00000000000000000 1.00000000000000000 0.00000000000000000 0.00000000000000000 0.00000000000000000 1.00000000000000000 -0.00000000000000022 3.00000000000000000
1 18.41250000000000142 0.00000000000000000 17.41250000000000142 1.00000000000000000 0.00000000000000000 0.00000000000000000 0.00000000000000000 0.00000000000000000 -1.00000000000000000 0.00000000000000000 1.00000000000000000 0.00000000000000000 
2 20.00000000000000355 -17.50000000000000000 0.00000000000000000 1.00000000000000000 0.00000000000000000 0.00000000000000000 0.00000000000000000 1.00000000000000000 0.00000000000000000 0.00000000000000000 0.00000000000000000 1.00000000000000000 3.96875000000000000
1 -17.99999999999999645 0.00000000000000000 20.00000000000000000 0.00000000000000000 0.00000000000000022 1.00000000000000000 1.00000000000000000 0.00000000000000000 0.00000000000000000 0.00000000000000000 1.00000000000000000 -0.00000000000000022 
1 -19.99999999999999645 0.00000000000000000 -18.00000000000000000 -1.00000000000000000 0.00000000000000000 0.00000000000000000 0.00000000000000000 0.00000000000000000 1.00000000000000000 0.00000000000000000 1.00000000000000000 0.00000000000000000 
1 20.00000000000000355 0.00000000000000000 18.00000000000000000 1.00000000000000000 0.00000000000000000 0.00000000000000000 0.00000000000000000 0.00000000000000000 -1.00000000000000000 0.00000000000000000 1.00000000000000000 0.00000000000000000 
1 18.00000000000000355 0.00000000000000000 -20.00000000000000000 -0.00000000000000000 -0.00000000000000022 -1.00000000000000000 -1.00000000000000000 0.00000000000000000 0.00000000000000000 0.00000000000000000 1.00000000000000000 -0.00000000000000022 
Triangulations 0

TShapes 156
Ve
0.000000100000000
-18.412500000000001 -0.000000000000008 -17.412500000000001
0 0

0101101
*
Ve
0.000000100000000
-18.412500000000001 -35.000000000000007 -17.412499999999994
0 0

0101101
*
Ed
 0.000000100000000 1 1 0
1  1 0 0.000000000000000 35.000000000000000
2  1 2 0 0.000000000000000 35.000000000000000
4 C1 1 0 2 0
0

0101000
+156 9 -155 9 *
Ve
0.000000100000000
-18.412500000000001 0.000000000000008 17.412500000000001
0 0

0101101
*
Ed
 0.000000100000000 1 1 0
1  2 0 1.000000000000004 35.825000000000003
0

0101000
+156 25 -153 25 *
Ve
0.000000100000000
-18.412500000000001 -34.999999999999993 17.412500000000009
0 0

0101101
*
Ed
 0.000000100000000 1 1 0
1  3 0 1.000000000000004 35.825000000000003
0

0101000
+155 28 -151 28 *
Ed
 0.000000100000000 1 1 0
1  4 0 0.000000000000000 35.000000000000000
2  2 3 0 0.000000000000000 35.000000000000000
4 C1 1 0 3 0
0

0101000
+153 9 -151 9 *
Wi

0101100
+154 7 -152 24 +150 27 -149 7 *
Ve
0.000000100000001
-18.412500000000005 -13.531250000000000 0.000000000000000
0 0

0101101
*
Ed
 0.000000100000000 1 1 0
1  5 0 0.000000000000000 6.283185307179586
2  3 4 0 0.000000000000000 6.283185307179586
0

0101000
+147 29 -147 29 *
Wi

0101100
+146 0 *
Fa
0  0.000000100000000 1 7

0111000
+148 0 +145 0 *
Ve
0.000000100000000
-17.412500000000001 -0.000000000000008 -18.412500000000001
0 0

0101101
*
Ve
0.000000100000000
-17.412500000000001 -35.000000000000007 -18.412499999999994
0 0

0101101
*
Ed
 0.000000100000000 1 1 0
1  6 0 0.000000000000000 35.000000000000000
2  4 2 0 0.000000000000000 35.000000000000000
4 C1 2 0 5 0
0

0101000
+143 9 -142 9 *
Ed
 0.000000100000000 1 1 0
1  7 0 4.712388980384690 6.283185307179586
2  5 2 32 4.712388980384690 6.283185307179586
0

0101000
+156 33 -143 33 *
Ed
 0.000000100000000 1 1 0
1  8 0 4.712388980384690 6.283185307179586
2  6 2 35 4.712388980384690 6.283185307179586
0

0101000
+155 36 -142 36 *
Wi

0101100
+154 0 -141 0 -140 31 +139 34 *
Fa
0  0.000000100000000 2 0

0111000
+138 0 *
Ve
0.000000100000000
-17.412500000000001 0.000000000000008 18.412500000000001
0 0

0101101
*
Ed
 0.000000100000000 1 1 0
1  9 0 1.570796326794897 3.141592653589793
2  7 3 32 1.570796326794897 3.141592653589793
0

0101000
+153 33 -136 33 *
Ve
0.000000100000000
17.412500000000001 -0.000000000000008 -18.412500000000001
0 0

0101101
*
Ed
 0.000000100000000 1 1 0
1  10 0 1.000000000000000 35.825000000000003
0

0101000
+134 25 -143 25 *
Ve
0.000000100000000
17.412500000000001 0.000000000000008 18.412500000000001
0 0

0101101
*
Ed
 0.000000100000000 1 1 0
1  11 0 1.000000000000000 35.825000000000003
0

0101000
+136 25 -132 25 *
Ve
0.000000100000000
18.412500000000001 -0.000000000000008 -17.412500000000001
0 0

0101101
*
Ed
 0.000000100000000 1 1 0
1  12 0 0.000000000000000 1.570796326794897
2  8 7 32 0.000000000000000 1.570796326794897
0

0101000
+134 33 -130 33 *
Ve
0.000000100000000
18.412500000000001 0.000000000000008 17.412500000000001
0 0

0101101
*
Ed
 0.000000100000000 1 1 0
1  13 0 1.570796326794897 3.141592653589793
2  9 8 32 1.570796326794897 3.141592653589793
0

0101000
+128 33 -132 33 *
Ed
 0.000000100000000 1 1 0
1  14 0 1.000000000000000 35.825000000000003
0

0101000
+128 25 -130 25 *
Wi

0101100
-152 39 +140 0 -135 0 -133 39 -131 39 +129 0 +127 0 -126 39 *
Ve
0.000000100000000
-17.999999999999996 0.000000000000009 20.000000000000000
0 0

0101101
*
Ve
0.000000100000000
18.000000000000004 0.000000000000009 20.000000000000000
0 0

0101101
*
Ed
 0.000000100000000 1 1 0
1  15 0 2.000000000000000 38.000000000000000
0

0101000
+124 25 -123 25 *
Ve
0.000000100000000
-19.999999999999996 0.000000000000008 18.000000000000000
0 0

0101101
*
Ed
 0.000000100000000 1 1 0
1  16 0 3.141592653589793 4.712388980384690
2  10 9 42 3.141592653589793 4.712388980384690
0

0101000
+124 43 -121 43 *
Ve
0.000000100000000
20.000000000000004 0.000000000000008 18.000000000000000
0 0

0101101
*
Ed
 0.000000100000000 1 1 0
1  17 0 3.141592653589793 4.712388980384690
2  11 10 42 3.141592653589793 4.712388980384690
0

0101000
+123 43 -119 43 *
Ve
0.000000100000000
-19.999999999999996 -0.000000000000008 -18.000000000000000
0 0

0101101
*
Ed
 0.000000100000000 1 1 0
1  18 0 2.000000000000000 38.000000000000000
0

0101000
+117 25 -121 25 *
Ve
0.000000100000000
20.000000000000004 -0.000000000000008 -18.000000000000000
0 0

0101101
*
Ed
 0.000000100000000 1 1 0
1  19 0 2.000000000000000 38.000000000000000
0

0101000
+119 25 -115 25 *
Ve
0.000000100000000
-17.999999999999996 -0.000000000000009 -20.000000000000000
0 0

0101101
*
Ed
 0.000000100000000 1 1 0
1  20 0 0.000000000000000 1.570796326794897
2  12 11 42 0.000000000000000 1.570796326794897
0

0101000
+113 43 -117 43 *
Ve
0.000000100000000
18.000000000000004 -0.000000000000009 -20.000000000000000
0 0

0101101
*
Ed
 0.000000100000000 1 1 0
1  21 0 4.712388980384690 6.283185307179586
2  13 12 42 4.712388980384690 6.283185307179586
0

0101000
+115 43 -111 43 *
Ed
 0.000000100000000 1 1 0
1  22 0 2.000000000000000 38.000000000000000
0

0101000
+111 25 -113 25 *
Wi

0101100
+122 41 -120 0 +118 0 +116 41 +114 41 +112 0 +110 0 +109 41 *
Fa
0  0.000000100000000 6 0

0111000
+125 38 +108 40 *
Ve
0.000000100000000
-17.412500000000001 -34.999999999999993 18.412500000000009
0 0

0101101
*
Ed
 0.000000100000000 1 1 0
1  23 0 1.570796326794897 3.141592653589793
2  14 3 35 1.570796326794897 3.141592653589793
0

0101000
+151 36 -106 36 *
Ve
0.000000100000000
17.412500000000001 -35.000000000000007 -18.412499999999994
0 0

0101101
*
Ed
 0.000000100000000 1 1 0
1  24 0 1.000000000000000 35.825000000000003
0

0101000
+104 28 -142 28 *
Ve
0.000000100000000
17.412500000000001 -34.999999999999993 18.412500000000009
0 0

0101101
*
Ed
 0.000000100000000 1 1 0
1  25 0 1.000000000000000 35.825000000000003
0

0101000
+106 28 -102 28 *
Ve
0.000000100000000
18.412500000000001 -35.000000000000007 -17.412499999999994
0 0

0101101
*
Ed
 0.000000100000000 1 1 0
1  26 0 0.000000000000000 1.570796326794897
2  15 7 35 0.000000000000000 1.570796326794897
0

0101000
+104 36 -100 36 *
Ve
0.000000100000000
18.412500000000001 -34.999999999999993 17.412500000000009
0 0

0101101
*
Ed
 0.000000100000000 1 1 0
1  27 0 1.570796326794897 3.141592653589793
2  16 8 35 1.570796326794897 3.141592653589793
0

0101000
+98 36 -102 36 *
Ed
 0.000000100000000 1 1 0
1  28 0 1.000000000000000 35.825000000000003
0

0101000
+98 28 -100 28 *
Wi

0101100
-150 39 +139 0 -105 0 -103 39 -101 39 +99 0 +97 0 -96 39 *
Ve
0.000000100000000
-17.999999999999996 -34.999999999999993 20.000000000000007
0 0

0101101
*
Ve
0.000000100000000
18.000000000000004 -34.999999999999993 20.000000000000007
0 0

0101101
*
Ed
 0.000000100000000 1 1 0
1  29 0 2.000000000000000 38.000000000000000
0

0101000
+94 28 -93 28 *
Ve
0.000000100000000
-19.999999999999996 -34.999999999999993 18.000000000000007
0 0

0101101
*
Ed
 0.000000100000000 1 1 0
1  30 0 3.141592653589793 4.712388980384690
2  17 9 45 3.141592653589793 4.712388980384690
0

0101000
+94 46 -91 46 *
Ve
0.000000100000000
20.000000000000004 -34.999999999999993 18.000000000000007
0 0

0101101
*
Ed
 0.000000100000000 1 1 0
1  31 0 3.141592653589793 4.712388980384690
2  18 10 45 3.141592653589793 4.712388980384690
0

0101000
+93 46 -89 46 *
Ve
0.000000100000000
-19.999999999999996 -35.000000000000007 -17.999999999999993
0 0

0101101
*
Ed
 0.000000100000000 1 1 0
1  32 0 2.000000000000000 38.000000000000000
0

0101000
+87 28 -91 28 *
Ve
0.000000100000000
20.000000000000004 -35.000000000000007 -17.999999999999993
0 0

0101101
*
Ed
 0.000000100000000 1 1 0
1  33 0 2.000000000000000 38.000000000000000
0

0101000
+89 28 -85 28 *
Ve
0.000000100000000
-17.999999999999996 -35.000000000000007 -19.999999999999993
0 0

0101101
*
Ed
 0.000000100000000 1 1 0
1  34 0 0.000000000000000 1.570796326794897
2  19 11 45 0.000000000000000 1.570796326794897
0

0101000
+83 46 -87 46 *
Ve
0.000000100000000
18.000000000000004 -35.000000000000007 -19.999999999999993
0 0

0101101
*
Ed
 0.000000100000000 1 1 0
1  35 0 4.712388980384690 6.283185307179586
2  20 12 45 4.712388980384690 6.283185307179586
0

0101000
+85 46 -81 46 *
Ed
 0.000000100000000 1 1 0
1  36 0 2.000000000000000 38.000000000000000
0

0101000
+81 28 -83 28 *
Wi

0101100
+92 41 -90 0 +88 0 +86 41 +84 41 +82 0 +80 0 +79 41 *
Fa
0  0.000000100000000 13 0

0111000
+95 38 +78 40 *
Ed
 0.000000100000000 1 1 0
1  37 0 0.000000000000000 35.000000000000000
2  21 3 0 0.000000000000000 35.000000000000000
4 C1 3 0 14 0
0

0101000
+136 9 -106 9 *
Wi

0101100
+149 0 -76 0 -135 31 +105 34 *
Fa
0  0.000000100000000 3 0

0111000
+75 0 *
Ve
0.000000100000001
-19.999999999999996 -13.531250000000000 0.000000000000000
0 0

0101101
*
Ed
 0.000000100000000 1 1 0
1  38 0 38.412500000000009 40.000000000000000
3  22 23CN 4 0 38.412500000000009 40.000000000000000
0

0101000
+147 29 -73 29 *
Ed
 0.000000100000000 1 1 0
1  39 0 0.000000000000000 6.283185307179586
2  24 4 0 0.000000000000000 6.283185307179586
0

0101000
+73 29 -73 29 *
Wi

0101100
-146 0 -72 0 +71 0 +72 0 *
Fa
0  0.000000100000000 4 0

0111000
+70 0 *
Ed
 0.000000100000000 1 1 0
1  40 0 0.000000000000000 35.000000000000000
2  25 7 0 0.000000000000000 35.000000000000000
4 C1 5 0 7 0
0

0101000
+134 9 -104 9 *
Wi

0101100
+68 0 -141 0 -133 47 +103 48 *
Fa
0  0.000000100000000 5 0

0111000
+67 0 *
Ed
 0.000000100000000 1 1 0
1  41 0 0.000000000000000 35.000000000000000
2  26 8 0 0.000000000000000 35.000000000000000
4 C1 14 0 8 0
0

0101000
+132 9 -102 9 *
Wi

0101100
+76 30 -131 49 +101 50 -65 30 *
Ve
0.000000100000000
3.000000000000000 -22.499999999999996 18.412500000000005
0 0

0101101
*
Ed
 0.000000100000000 1 1 0
1  42 0 0.000000000000000 6.283185307179586
2  27 15 0 0.000000000000000 6.283185307179586
0

0101000
+63 51 -63 51 *
Wi

0101100
-62 0 *
Ve
0.000000100000001
3.000000000000000 -6.499999999999996 18.412500000000001
0 0

0101101
*
Ed
 0.000000100000000 1 1 0
1  43 0 0.000000000000000 6.283185307179586
2  28 16 0 0.000000000000000 6.283185307179586
0

0101000
+60 51 -60 51 *
Wi

0101100
-59 0 *
Fa
0  0.000000100000000 14 30

0111000
+64 0 +61 0 +58 0 *
Ed
 0.000000100000000 1 1 0
1  44 0 0.000000000000000 35.000000000000000
2  29 7 0 0.000000000000000 35.000000000000000
4 C1 7 0 17 0
0

0101000
+130 9 -100 9 *
Wi

0101100
+68 0 -56 0 -129 31 +99 34 *
Fa
0  0.000000100000000 7 0

0111000
+55 0 *
Ed
 0.000000100000000 1 1 0
1  45 0 0.000000000000000 35.000000000000000
2  30 8 0 0.000000000000000 35.000000000000000
4 C1 8 0 17 0
0

0101000
+128 9 -98 9 *
Wi

0101100
+53 0 -65 0 -127 31 +97 34 *
Fa
0  0.000000100000000 8 0

0111000
+52 0 *
Wi

0101100
+53 7 -126 24 +96 27 -56 7 *
Ve
0.000000100000001
18.412500000000001 -13.531250000000000 0.000000000000000
0 0

0101101
*
Ed
 0.000000100000000 1 1 0
1  46 0 0.000000000000000 6.283185307179586
2  31 18 0 0.000000000000000 6.283185307179586
0

0101000
+49 29 -49 29 *
Wi

0101100
-48 0 *
Fa
0  0.000000100000000 17 7

0111000
+50 0 +47 0 *
Ed
 0.000000100000000 1 1 0
1  47 0 0.000000000000000 35.000000000000000
2  32 9 0 0.000000000000000 35.000000000000000
4 G1 19 0 9 0
0

0101000
+124 9 -94 9 *
Ed
 0.000000100000000 1 1 0
1  48 0 0.000000000000000 35.000000000000000
2  33 10 0 0.000000000000000 35.000000000000000
4 G1 19 0 10 0
0

0101000
+123 9 -93 9 *
Wi

0101100
+45 30 -122 49 +92 50 -44 30 *
Ve
0.000000100000004
3.000000000000000 -22.499999999999996 20.000000000000000
0 0

0101101
*
Ed
 0.000000100000004 1 1 0
1  49 0 0.000000000000000 6.283185307179586
2  34 15 55 0.000000000000000 6.283185307179586
0

0101000
+42 56 -42 56 *
Wi

0101100
-41 54 *
Ve
0.000000100000004
3.000000000000000 -6.499999999999996 20.000000000000000
0 0

0101101
*
Ed
 0.000000100000004 1 1 0
1  50 0 0.000000000000000 6.283185307179586
2  35 16 55 0.000000000000000 6.283185307179586
0

0101000
+39 56 -39 56 *
Wi

0101100
-38 54 *
Fa
0  0.000000100000000 19 30

0111000
+43 0 +40 0 +37 0 *
Ed
 0.000000100000000 1 1 0
1  51 0 0.000000000000000 35.000000000000000
2  36 9 0 0.000000000000000 35.000000000000000
4 G1 9 0 20 0
0

0101000
+121 9 -91 9 *
Wi

0101100
+45 0 -35 0 -120 57 +90 58 *
Fa
0  0.000000100000000 9 0

0111000
+34 0 *
Ed
 0.000000100000000 1 1 0
1  52 0 0.000000000000000 35.000000000000000
2  37 10 0 0.000000000000000 35.000000000000000
4 G1 10 0 21 0
0

0101000
+119 9 -89 9 *
Wi

0101100
+44 0 -32 0 -118 57 +88 58 *
Fa
0  0.000000100000000 10 0

0111000
+31 0 *
Ed
 0.000000100000000 1 1 0
1  53 0 0.000000000000000 35.000000000000000
2  38 11 0 0.000000000000000 35.000000000000000
4 G1 20 0 11 0
0

0101000
+117 9 -87 9 *
Wi

0101100
+29 7 -116 24 +86 27 -35 7 *
Wi

0101100
+71 0 *
Fa
0  0.000000100000000 20 7

0111000
+28 0 +27 0 *
Ed
 0.000000100000000 1 1 0
1  54 0 0.000000000000000 35.000000000000000
2  39 12 0 0.000000000000000 35.000000000000000
4 G1 21 0 12 0
0

0101000
+115 9 -85 9 *
Wi

0101100
+32 7 -114 24 +84 27 -25 7 *
Ve
0.000000100000000
20.000000000000004 -13.531250000000000 0.000000000000000
0 0

0101101
*
Ed
 0.000000100000000 1 1 0
1  55 0 0.000000000000000 6.283185307179586
2  40 18 62 0.000000000000000 6.283185307179586
0

0101000
+23 63 -23 63 *
Wi

0101100
-22 61 *
Fa
0  0.000000100000000 21 7

0111000
+24 0 +21 0 *
Ed
 0.000000100000000 1 1 0
1  56 0 0.000000000000000 35.000000000000000
2  41 11 0 0.000000000000000 35.000000000000000
4 G1 11 0 22 0
0

0101000
+113 9 -83 9 *
Wi

0101100
+19 0 -29 0 -112 57 +82 58 *
Fa
0  0.000000100000000 11 0

0111000
+18 0 *
Ed
 0.000000100000000 1 1 0
1  57 0 0.000000000000000 35.000000000000000
2  42 12 0 0.000000000000000 35.000000000000000
4 G1 12 0 22 0
0

0101000
+111 9 -81 9 *
Wi

0101100
+25 0 -16 0 -110 57 +80 58 *
Fa
0  0.000000100000000 12 0

0111000
+15 0 *
Wi

0101100
+16 0 -19 0 -109 47 +79 48 *
Fa
0  0.000000100000000 22 0

0111000
+13 0 *
Ed
 0.000000100000000 1 1 0
1  58 0 0.000000000000000 1.587499999999999
3  43 44CN 15 0 0.000000000000000 1.587499999999999
0

0101000
+42 51 -63 51 *
Wi

0101100
-41 54 -11 0 +62 0 +11 0 *
Fa
0  0.000000100000000 15 0

0111000
+10 0 *
Ed
 0.000000100000000 1 1 0
1  59 0 0.000000000000000 1.587499999999999
3  45 46CN 16 0 0.000000000000000 1.587499999999999
0

0101000
+39 51 -60 51 *
Wi

0101100
-38 54 -8 0 +59 0 +8 0 *
Fa
0  0.000000100000000 16 0

0111000
+7 0 *
Ed
 0.000000100000000 1 1 0
1  60 0 0.000000000000000 1.587500000000002
3  22 23CN 18 0 0.000000000000000 1.587500000000002
0

0101000
+23 29 -49 29 *
Wi

0101100
-22 61 -5 0 +48 0 +5 0 *
Fa
0  0.000000100000000 18 0

0111000
+4 0 *
Sh

0101100
-144 4 +137 30 +107 37 -77 44 -74 30 -69 4 -66 30 -57 0 +54 30 +51 30 
-46 4 +36 0 -33 30 +30 30 +26 4 +20 4 +17 30 +14 30 +12 30 -9 0 
-6 0 -3 4 *
So

1100000
+2 0 *

+1 1 