
CASCADE Topology V1, (c) Matra-Datavision
Locations 1
1
1.000000000000000 0.000000000000000 0.000000000000000 0.000000000000000 
0.000000000000000 1.000000000000000 0.000000000000000 0.000000000000000 
0.000000000000000 0.000000000000000 1.000000000000000 0.000000000000000 
Curve2ds 14
2 0.00000000000000000 0.00000000000000000 -1.00000000000000000 0.00000000000000000 0.00000000000000000 1.00000000000000000 2.59732638888889023
1 0.00000000000000000 0.00000000000000000 1.00000000000000000 0.00000000000000000 
1 0.00000000000000000 1.99561247134869935 1.00000000000000000 0.00000000000000000 
1 0.00000000000000000 0.00000000000000000 1.00000000000000000 0.00000000000000000 
1 6.28318530717958623 0.00000000000000000 0.00000000000000000 1.00000000000000000 
1 0.00000000000000000 0.00000000000000000 0.00000000000000000 1.00000000000000000 
1 0.00000000000000000 119.79777777777778169 1.00000000000000000 0.00000000000000000 
1 0.00000000000000000 0.00000000000000000 1.00000000000000000 0.00000000000000000 
1 6.28318530717958623 0.00000000000000000 0.00000000000000000 1.00000000000000000 
1 0.00000000000000000 0.00000000000000000 0.00000000000000000 1.00000000000000000 
1 0.00000000000000000 1.99561247134870023 1.00000000000000000 0.00000000000000000 
2 0.00000000000000000 0.00000000000000000 1.00000000000000000 0.00000000000000000 -0.00000000000000000 1.00000000000000000 2.59732638888889023
1 6.28318530717958623 0.00000000000000000 0.00000000000000000 1.00000000000000000 
1 0.00000000000000000 0.00000000000000000 0.00000000000000000 1.00000000000000000 
Curves 7
2 0.00000000000000000 0.00000000000000000 0.00000000000000000 0.00000000000000000 0.00000000000000000 1.00000000000000000 1.00000000000000000 0.00000000000000000 -0.00000000000000000 -0.00000000000000000 1.00000000000000000 0.00000000000000000 2.59732638888889023
2 0.00000000000000000 0.00000000000000000 -1.41111111111111009 0.00000000000000000 0.00000000000000000 1.00000000000000000 1.00000000000000000 0.00000000000000000 -0.00000000000000000 -0.00000000000000000 1.00000000000000000 0.00000000000000000 4.00843750000000032
1 2.59732638888889023 0.00000000000000000 0.00000000000000000 0.70710678118654757 0.00000000000000000 -0.70710678118654757 
2 0.00000000000000000 0.00000000000000000 -121.20888888888889312 0.00000000000000000 0.00000000000000000 1.00000000000000000 1.00000000000000000 0.00000000000000000 -0.00000000000000000 -0.00000000000000000 1.00000000000000000 0.00000000000000000 4.00843750000000032
1 4.00843750000000032 0.00000000000000000 -1.41111111111111009 0.00000000000000000 0.00000000000000000 -1.00000000000000000 
2 0.00000000000000000 0.00000000000000000 -122.62000000000000455 0.00000000000000000 0.00000000000000000 1.00000000000000000 1.00000000000000000 0.00000000000000000 -0.00000000000000000 -0.00000000000000000 1.00000000000000000 0.00000000000000000 2.59732638888889023
1 4.00843750000000032 0.00000000000000000 -121.20888888888889312 -0.70710678118654724 0.00000000000000000 -0.70710678118654791 
Polygon3D 0
PolygonOnTriangulations 0
Surfaces 5
1 0.00000000000000000 0.00000000000000000 0.00000000000000000 0.00000000000000000 0.00000000000000000 1.00000000000000000 -1.00000000000000000 -0.00000000000000000 0.00000000000000000 -0.00000000000000000 1.00000000000000000 -0.00000000000000000 
3 0.00000000000000000 0.00000000000000000 0.00000000000000000 -0.00000000000000000 -0.00000000000000000 -1.00000000000000000 1.00000000000000000 0.00000000000000000 0.00000000000000000 -0.00000000000000000 1.00000000000000000 -0.00000000000000000 2.59732638888889023
0.78539816339744828
2 0.00000000000000000 0.00000000000000000 -1.41111111111111009 -0.00000000000000000 -0.00000000000000000 -1.00000000000000000 1.00000000000000000 0.00000000000000000 0.00000000000000000 -0.00000000000000000 1.00000000000000000 -0.00000000000000000 4.00843750000000032
3 0.00000000000000000 0.00000000000000000 -121.20888888888889312 -0.00000000000000000 -0.00000000000000000 -1.00000000000000000 1.00000000000000000 0.00000000000000000 0.00000000000000000 -0.00000000000000000 1.00000000000000000 -0.00000000000000000 4.00843750000000032
-0.78539816339744772
1 0.00000000000000000 0.00000000000000000 -122.62000000000000455 0.00000000000000000 0.00000000000000000 1.00000000000000000 1.00000000000000000 0.00000000000000000 -0.00000000000000000 -0.00000000000000000 1.00000000000000000 0.00000000000000000 
Triangulations 0

TShapes 23
Ve
0.000000100000000
2.597326388888890 0.000000000000000 0.000000000000000
0 0

0101101
*
Ed
 0.000000100000000 1 1 0
1  1 0 0.000000000000000 6.283185307179586
2  1 1 0 0.000000000000000 6.283185307179586
2  2 2 0 0.000000000000000 6.283185307179586
0

0101000
+23 0 -23 0 *
Wi

0101100
-22 0 *
Fa
0  0.000000100000000 1 0

0101000
+21 0 *
Ve
0.000000100000000
4.008437500000000 0.000000000000000 -1.411111111111110
0 0

0101101
*
Ed
 0.000000100000000 1 1 0
1  2 0 0.000000000000000 6.283185307179586
2  3 2 0 0.000000000000000 6.283185307179586
2  4 3 0 0.000000000000000 6.283185307179586
0

0101000
+19 0 -19 0 *
Ed
 0.000000100000000 1 1 0
1  3 0 0.000000000000000 1.995612471348699
3  5 6CN 2 0 0.000000000000000 1.995612471348699
0

0101000
+23 0 -19 0 *
Wi

0101100
+22 0 -18 0 -17 0 +17 0 *
Fa
0  0.000000100000000 2 0

0101000
+16 0 *
Ve
0.000000100000000
4.008437500000000 0.000000000000000 -121.208888888888893
0 0

0101101
*
Ed
 0.000000100000000 1 1 0
1  4 0 0.000000000000000 6.283185307179586
2  7 3 0 0.000000000000000 6.283185307179586
2  8 4 0 0.000000000000000 6.283185307179586
0

0101000
+14 0 -14 0 *
Ed
 0.000000100000000 1 1 0
1  5 0 0.000000000000000 119.797777777777782
3  9 10CN 3 0 0.000000000000000 119.797777777777782
0

0101000
+19 0 -14 0 *
Wi

0101100
+18 0 -13 0 -12 0 +12 0 *
Fa
0  0.000000100000000 3 0

0101000
+11 0 *
Ve
0.000000100000000
2.597326388888890 0.000000000000000 -122.620000000000005
0 0

0101101
*
Ed
 0.000000100000000 1 1 0
1  6 0 0.000000000000000 6.283185307179586
2  11 4 0 0.000000000000000 6.283185307179586
2  12 5 0 0.000000000000000 6.283185307179586
0

0101000
+9 0 -9 0 *
Ed
 0.000000100000000 1 1 0
1  7 0 0.000000000000000 1.995612471348700
3  13 14CN 4 0 0.000000000000000 1.995612471348700
0

0101000
+14 0 -9 0 *
Wi

0101100
+13 0 -8 0 -7 0 +7 0 *
Fa
0  0.000000100000000 4 0

0101000
+6 0 *
Wi

0101100
+8 0 *
Fa
0  0.000000100000000 5 0

0101000
+4 0 *
Sh

0101100
+20 0 +15 0 +10 0 +5 0 +3 0 *
So

1100000
+2 0 *

-1 1 