
CASCADE Topology V1, (c) Matra-Datavision
Locations 81
1
1.000000000000000 0.000000000000000 0.000000000000000 0.000000000000000 
0.000000000000000 1.000000000000000 0.000000000000000 0.000000000000000 
0.000000000000000 0.000000000000000 1.000000000000000 0.000000000000000 
1
1.000000000000000 0.000000000000000 0.000000000000000 0.000000000000000 
0.000000000000000 1.000000000000000 0.000000000000000 0.000000000000000 
0.000000000000000 0.000000000000000 1.000000000000000 0.000000000000000 
1
1.000000000000000 0.000000000000000 0.000000000000000 0.000000000000000 
0.000000000000000 1.000000000000000 0.000000000000000 0.000000000000000 
0.000000000000000 0.000000000000000 1.000000000000000 0.000000000000000 
1
1.000000000000000 0.000000000000000 0.000000000000000 0.000000000000000 
0.000000000000000 1.000000000000000 0.000000000000000 0.000000000000000 
0.000000000000000 0.000000000000000 1.000000000000000 0.000000000000000 
1
1.000000000000000 0.000000000000000 0.000000000000000 0.000000000000000 
0.000000000000000 1.000000000000000 0.000000000000000 0.000000000000000 
0.000000000000000 0.000000000000000 1.000000000000000 0.000000000000000 
2  2 1 3 -1 4 1 5 -1 0
1
1.000000000000000 0.000000000000000 0.000000000000000 0.000000000000000 
0.000000000000000 1.000000000000000 0.000000000000000 0.000000000000000 
0.000000000000000 0.000000000000000 1.000000000000000 0.000000000000000 
1
1.000000000000000 0.000000000000000 0.000000000000000 0.000000000000000 
0.000000000000000 0.000000000000000 -1.000000000000000 0.000000000000000 
0.000000000000000 1.000000000000000 0.000000000000000 0.000000000000000 
1
1.000000000000000 0.000000000000000 0.000000000000000 0.000000000000000 
0.000000000000000 1.000000000000000 0.000000000000000 0.000000000000000 
0.000000000000000 0.000000000000000 1.000000000000000 0.000000000000000 
1
1.000000000000000 0.000000000000000 0.000000000000000 0.000000000000000 
0.000000000000000 1.000000000000000 0.000000000000000 0.000000000000000 
0.000000000000000 0.000000000000000 1.000000000000000 0.000000000000000 
1
1.000000000000000 0.000000000000000 0.000000000000000 0.000000000000000 
0.000000000000000 1.000000000000000 0.000000000000000 0.000000000000000 
0.000000000000000 0.000000000000000 1.000000000000000 0.000000000000000 
1
1.000000000000000 0.000000000000000 0.000000000000000 0.000000000000000 
0.000000000000000 1.000000000000000 0.000000000000000 0.000000000000000 
0.000000000000000 0.000000000000000 1.000000000000000 0.000000000000000 
1
1.000000000000000 0.000000000000000 0.000000000000000 0.000000000000000 
0.000000000000000 1.000000000000000 0.000000000000000 0.000000000000000 
0.000000000000000 0.000000000000000 1.000000000000000 0.000000000000000 
1
1.000000000000000 0.000000000000000 0.000000000000000 0.000000000000000 
0.000000000000000 1.000000000000000 0.000000000000000 0.000000000000000 
0.000000000000000 0.000000000000000 1.000000000000000 0.000000000000000 
1
1.000000000000000 0.000000000000000 0.000000000000000 0.000000000000000 
0.000000000000000 1.000000000000000 0.000000000000000 0.000000000000000 
0.000000000000000 0.000000000000000 1.000000000000000 0.000000000000000 
1
1.000000000000000 0.000000000000000 0.000000000000000 -0.000000000000000 
0.000000000000000 1.000000000000000 0.000000000000000 -45.500000000000000 
0.000000000000000 0.000000000000000 1.000000000000000 0.000000000000010 
2  7 1 8 1 9 1 10 1 11 1 12 1 13 1 14 1 15 -1 16 1 0
1
1.000000000000000 0.000000000000000 0.000000000000000 0.000000000000000 
0.000000000000000 1.000000000000000 0.000000000000000 91.000000000000000 
0.000000000000000 0.000000000000000 1.000000000000000 -0.000000000000020 
2  7 1 8 1 9 1 10 1 11 1 12 1 13 1 14 1 15 -1 16 1 18 1 0
1
1.000000000000000 0.000000000000000 0.000000000000000 0.000000000000000 
0.000000000000000 1.000000000000000 0.000000000000000 0.000000000000000 
0.000000000000000 0.000000000000000 1.000000000000000 0.000000000000000 
1
1.000000000000000 0.000000000000000 0.000000000000000 0.000000000000000 
0.000000000000000 0.000000000000000 -1.000000000000000 0.000000000000000 
0.000000000000000 1.000000000000000 0.000000000000000 0.000000000000000 
1
1.000000000000000 0.000000000000000 0.000000000000000 0.000000000000000 
0.000000000000000 -0.000000000000000 -1.000000000000000 0.000000000000000 
0.000000000000000 1.000000000000000 -0.000000000000000 0.000000000000000 
1
1.000000000000000 0.000000000000000 0.000000000000000 0.000000000000000 
0.000000000000000 1.000000000000000 0.000000000000000 0.000000000000000 
0.000000000000000 0.000000000000000 1.000000000000000 0.000000000000000 
2  20 1 21 1 22 -1 23 1 7 1 8 1 9 1 10 1 11 1 12 1 13 1 14 1 15 -1 16 1 2 1 3 -1 4 1 5 -1 0
2  16 -1 15 1 14 -1 13 -1 12 -1 11 -1 10 -1 9 -1 8 -1 7 -1 23 -1 22 1 21 -1 20 -1 0
2  18 -1 16 -1 15 1 14 -1 13 -1 12 -1 11 -1 10 -1 9 -1 8 -1 7 -1 23 -1 22 1 21 -1 20 -1 0
2  23 -1 22 1 21 -1 20 -1 0
2  20 1 21 1 22 -1 23 1 7 1 8 1 9 1 10 1 11 1 12 1 13 1 14 1 15 -1 16 1 18 1 2 1 3 -1 4 1 5 -1 0
1
1.000000000000000 0.000000000000000 0.000000000000000 0.000000000000000 
0.000000000000000 1.000000000000000 0.000000000000000 0.000000000000000 
0.000000000000000 0.000000000000000 1.000000000000000 0.000000000000000 
1
1.000000000000000 0.000000000000000 0.000000000000000 0.000000000000000 
0.000000000000000 -1.000000000000000 -0.000000000000000 0.000000000000000 
0.000000000000000 0.000000000000000 -1.000000000000000 0.000000000000000 
2  29 1 30 1 5 -1 0
1
1.000000000000000 0.000000000000000 0.000000000000000 0.000000000000000 
0.000000000000000 1.000000000000000 0.000000000000000 0.000000000000000 
0.000000000000000 0.000000000000000 1.000000000000000 0.000000000000000 
1
1.000000000000000 0.000000000000000 0.000000000000000 0.000000000000000 
0.000000000000000 -1.000000000000000 -0.000000000000000 0.000000000000000 
0.000000000000000 0.000000000000000 -1.000000000000000 0.000000000000000 
1
1.000000000000000 0.000000000000000 0.000000000000000 0.000000000000000 
0.000000000000000 1.000000000000000 0.000000000000000 0.000000000000000 
0.000000000000000 0.000000000000000 1.000000000000000 0.000000000000000 
2  32 1 33 -1 34 -1 0
1
1.000000000000000 0.000000000000000 0.000000000000000 0.000000000000000 
0.000000000000000 1.000000000000000 0.000000000000000 0.000000000000043 
0.000000000000000 0.000000000000000 1.000000000000000 197.622908914933276 
2  36 -1 32 1 33 -1 34 -1 0
2  33 -1 34 -1 0
2  2 1 3 -1 4 1 33 -1 34 -1 0
2  5 1 30 -1 29 -1 0
1
1.000000000000000 0.000000000000000 0.000000000000000 0.000000000000000 
0.000000000000000 1.000000000000000 0.000000000000000 0.000000000000043 
0.000000000000000 0.000000000000000 1.000000000000000 197.622908914933276 
2  41 -1 5 1 30 -1 29 -1 0
2  2 1 3 -1 4 1 30 -1 29 -1 0
2  22 -1 23 1 0
1
1.000000000000000 0.000000000000000 0.000000000000000 0.000000000000000 
0.000000000000000 1.000000000000000 0.000000000000000 0.000000000000000 
0.000000000000000 0.000000000000000 1.000000000000000 0.000000000000000 
1
1.000000000000000 0.000000000000000 0.000000000000000 0.000000000000000 
0.000000000000000 1.000000000000000 0.000000000000000 0.000000000000000 
0.000000000000000 0.000000000000000 1.000000000000000 0.000000000000000 
2  45 1 46 -1 13 -1 12 -1 11 -1 10 -1 9 -1 8 -1 7 -1 0
1
1.000000000000000 0.000000000000000 0.000000000000000 0.000000000000000 
0.000000000000000 1.000000000000000 0.000000000000000 10.000000000000000 
0.000000000000000 0.000000000000000 1.000000000000000 -0.000000000000002 
2  48 -1 45 1 46 -1 13 -1 12 -1 11 -1 10 -1 9 -1 8 -1 7 -1 0
1
1.000000000000000 0.000000000000000 0.000000000000000 -0.000000000000000 
0.000000000000000 1.000000000000000 0.000000000000000 -5.000000000000000 
0.000000000000000 0.000000000000000 1.000000000000000 0.000000000000001 
1
1.000000000000000 0.000000000000000 0.000000000000000 0.000000000000000 
0.000000000000000 1.000000000000000 0.000000000000000 0.000000000000000 
0.000000000000000 0.000000000000000 1.000000000000000 0.000000000000000 
1
1.000000000000000 0.000000000000000 0.000000000000000 0.000000000000000 
0.000000000000000 1.000000000000000 0.000000000000000 0.000000000000000 
0.000000000000000 0.000000000000000 1.000000000000000 0.000000000000000 
2  50 -1 51 1 52 -1 13 -1 12 -1 11 -1 10 -1 9 -1 8 -1 7 -1 0
1
1.000000000000000 0.000000000000000 0.000000000000000 0.000000000000000 
0.000000000000000 1.000000000000000 0.000000000000000 10.000000000000000 
0.000000000000000 0.000000000000000 1.000000000000000 -0.000000000000002 
2  54 -1 50 -1 51 1 52 -1 13 -1 12 -1 11 -1 10 -1 9 -1 8 -1 7 -1 0
1
1.000000000000000 0.000000000000000 0.000000000000000 -0.000000000000000 
0.000000000000000 1.000000000000000 0.000000000000000 -45.500000000000000 
0.000000000000000 0.000000000000000 1.000000000000000 0.000000000000010 
1
1.000000000000000 0.000000000000000 0.000000000000000 0.000000000000000 
0.000000000000000 1.000000000000000 0.000000000000000 0.000000000000000 
0.000000000000000 0.000000000000000 1.000000000000000 0.000000000000000 
1
1.000000000000000 0.000000000000000 0.000000000000000 0.000000000000000 
0.000000000000000 1.000000000000000 0.000000000000000 0.000000000000000 
0.000000000000000 0.000000000000000 1.000000000000000 0.000000000000000 
2  56 -1 57 1 58 -1 13 -1 12 -1 11 -1 10 -1 9 -1 8 -1 7 -1 0
1
1.000000000000000 0.000000000000000 0.000000000000000 0.000000000000000 
0.000000000000000 1.000000000000000 0.000000000000000 91.000000000000000 
0.000000000000000 0.000000000000000 1.000000000000000 -0.000000000000020 
2  60 -1 56 -1 57 1 58 -1 13 -1 12 -1 11 -1 10 -1 9 -1 8 -1 7 -1 0
2  16 -1 15 1 14 -1 13 -1 12 -1 11 -1 10 -1 9 -1 8 -1 7 -1 0
2  18 -1 16 -1 15 1 14 -1 13 -1 12 -1 11 -1 10 -1 9 -1 8 -1 7 -1 0
2  22 -1 23 1 7 1 8 1 9 1 10 1 11 1 12 1 13 1 14 1 15 -1 16 1 2 1 3 -1 4 1 5 -1 0
2  23 -1 22 1 0
2  20 1 21 1 22 -1 23 1 0
2  22 -1 23 1 7 1 8 1 9 1 10 1 11 1 12 1 13 1 14 1 15 -1 16 1 18 1 2 1 3 -1 4 1 5 -1 0
2  20 1 21 1 22 -1 23 1 7 1 8 1 9 1 10 1 11 1 12 1 13 1 14 1 15 -1 16 1 0
2  20 1 21 1 22 -1 23 1 7 1 8 1 9 1 10 1 11 1 12 1 13 1 14 1 15 -1 16 1 18 1 0
2  4 1 5 -1 0
2  2 1 3 -1 0
2  20 1 21 1 22 -1 23 1 7 1 8 1 9 1 10 1 11 1 12 1 13 1 14 1 15 -1 16 1 2 1 3 -1 0
2  20 1 21 1 22 -1 23 1 7 1 8 1 9 1 10 1 11 1 12 1 13 1 14 1 15 -1 16 1 18 1 2 1 3 -1 0
1
1.000000000000000 0.000000000000000 0.000000000000000 0.000000000000000 
0.000000000000000 1.000000000000000 0.000000000000000 0.000000000000000 
0.000000000000000 0.000000000000000 1.000000000000000 0.000000000000000 
1
0.000000000000000 0.000000000000000 -1.000000000000000 0.000000000000000 
-1.000000000000000 0.000000000000000 0.000000000000000 0.000000000000000 
0.000000000000000 1.000000000000000 0.000000000000000 0.000000000000000 
2  74 1 75 1 3 -1 0
2  3 1 75 -1 74 -1 0
1
1.000000000000000 0.000000000000000 0.000000000000000 197.622908914933276 
0.000000000000000 1.000000000000000 0.000000000000000 0.000000000000000 
0.000000000000000 0.000000000000000 1.000000000000000 0.000000000000000 
2  78 -1 3 1 75 -1 74 -1 0
2  75 -1 74 -1 0
2  2 1 75 -1 74 -1 0
Curve2ds 126
1 0.00000000000000000 0.00000000000000000 0.00000000000000000 -1.00000000000000000 
1 0.00000000000000000 0.00000000000000000 0.00000000000000000 -1.00000000000000000 
1 -1.00000000000000000 0.00000000000000000 1.00000000000000000 0.00000000000000000 
1 -1.00000000000000000 -91.00000000000000000 1.00000000000000000 0.00000000000000000 
1 -0.00000000000000100 0.00000000000000000 0.00000000000000000 -1.00000000000000000 
1 23.39999999999999858 0.00000000000000000 0.00000000000000000 -1.00000000000000000 
1 0.00000000000000000 0.00000000000000000 1.00000000000000000 0.00000000000000000 
1 0.00000000000000000 -197.62290891493327649 1.00000000000000000 0.00000000000000000 
2 0.00000000000000355 0.00000000000000178 0.00000000000000000 -1.00000000000000000 1.00000000000000000 0.00000000000000000 3.96875000000000000
2 11.69999999999999929 -65.60000000000000853 -1.00000000000000000 0.00000000000000000 0.00000000000000000 1.00000000000000000 3.96875000000000000
1 0.00000000000000000 0.00000000000000000 1.00000000000000000 0.00000000000000000 
1 0.00000000000000000 -197.62290891493327649 1.00000000000000000 0.00000000000000000 
2 11.69999999999999929 -65.60000000000000853 -1.00000000000000000 0.00000000000000000 0.00000000000000000 1.00000000000000000 3.96875000000000000
1 0.00000000000000000 0.00000000000000000 1.00000000000000000 0.00000000000000000 
1 0.00000000000000000 -197.62290891493327649 1.00000000000000000 0.00000000000000000 
2 -0.00000000000000355 0.00000000000000178 0.00000000000000000 -1.00000000000000000 1.00000000000000000 0.00000000000000000 3.96875000000000000
2 11.69999999999999929 -25.39999999999999147 -1.00000000000000000 0.00000000000000000 0.00000000000000000 1.00000000000000000 3.96875000000000000
1 0.00000000000000000 0.00000000000000000 1.00000000000000000 0.00000000000000000 
1 0.00000000000000000 -197.62290891493327649 1.00000000000000000 0.00000000000000000 
2 11.69999999999999929 -25.39999999999999147 -1.00000000000000000 0.00000000000000000 0.00000000000000000 1.00000000000000000 3.96875000000000000
1 1.57079632679489589 0.00000000000000000 0.00000000000000000 -1.00000000000000000 
1 0.00000000000000000 -0.00000000000000000 1.00000000000000000 0.00000000000000000 
2 -6.83828125000251763 16.56171874999748184 -1.00000000000000000 0.00000000000000000 0.00000000000000000 1.00000000000000000 1.00000000000000000
1 0.00000000000000000 0.00000000000000000 1.00000000000000000 0.00000000000000000 
1 0.00000000000000000 -10.00000000000000000 1.00000000000000000 0.00000000000000000 
1 0.00000000000000000 0.00000000000000000 1.00000000000000000 0.00000000000000000 
1 0.00000000000000000 -10.00000000000000000 1.00000000000000000 0.00000000000000000 
1 0.00000000000000000 0.00000000000000000 1.00000000000000000 0.00000000000000000 
1 0.00000000000000000 -91.00000000000000000 1.00000000000000000 0.00000000000000000 
1 0.00000000000000000 0.00000000000000000 1.00000000000000000 0.00000000000000000 
1 0.00000000000000000 -91.00000000000000000 1.00000000000000000 0.00000000000000000 
1 0.00000000000000089 0.00000000000000000 1.00000000000000000 0.00000000000000000 
2 -6.83828125000251763 -6.83828125000251763 -1.00000000000000000 0.00000000000000000 -0.00000000000000000 -1.00000000000000000 1.00000000000000000
1 0.00000000000000000 0.00000000000000000 1.00000000000000000 0.00000000000000000 
1 0.00000000000000000 -10.00000000000000000 1.00000000000000000 0.00000000000000000 
1 0.00000000000000000 0.00000000000000000 1.00000000000000000 0.00000000000000000 
1 0.00000000000000000 -10.00000000000000000 1.00000000000000000 0.00000000000000000 
1 0.00000000000000000 0.00000000000000000 1.00000000000000000 0.00000000000000000 
1 0.00000000000000000 -91.00000000000000000 1.00000000000000000 0.00000000000000000 
1 0.00000000000000000 0.00000000000000000 1.00000000000000000 0.00000000000000000 
1 0.00000000000000000 -91.00000000000000000 1.00000000000000000 0.00000000000000000 
1 -1.00000000000000000 -0.00000000000000000 1.00000000000000000 0.00000000000000000 
1 -1.00000000000001998 -91.00000000000000000 1.00000000000000000 0.00000000000000000 
1 -3.14159265358979312 -0.00000000000000000 1.00000000000000000 0.00000000000000000 
2 -5.66328124999100435 16.56171874999748184 -1.00000000000000000 0.00000000000000000 -0.00000000000000000 -1.00000000000000000 1.00000000000000000
1 0.00000000000000000 0.00000000000000000 1.00000000000000000 0.00000000000000000 
1 0.00000000000000000 -10.00000000000000000 1.00000000000000000 0.00000000000000000 
1 0.00000000000000000 0.00000000000000000 1.00000000000000000 0.00000000000000000 
1 0.00000000000000000 -10.00000000000000000 1.00000000000000000 0.00000000000000000 
1 0.00000000000000000 0.00000000000000000 1.00000000000000000 0.00000000000000000 
1 0.00000000000000000 -91.00000000000000000 1.00000000000000000 0.00000000000000000 
1 0.00000000000000000 0.00000000000000000 1.00000000000000000 0.00000000000000000 
1 0.00000000000000000 -91.00000000000000000 1.00000000000000000 0.00000000000000000 
1 -1.57079632679489656 0.00000000000000000 1.00000000000000000 0.00000000000000000 
2 16.56171874999748184 -6.83828125000251763 -1.00000000000000000 0.00000000000000000 -0.00000000000000000 -1.00000000000000000 1.00000000000000000
1 0.00000000000000000 0.00000000000000000 1.00000000000000000 0.00000000000000000 
1 0.00000000000000000 -10.00000000000000000 1.00000000000000000 0.00000000000000000 
1 0.00000000000000000 0.00000000000000000 1.00000000000000000 0.00000000000000000 
1 0.00000000000000000 -10.00000000000000000 1.00000000000000000 0.00000000000000000 
1 0.00000000000000000 0.00000000000000000 1.00000000000000000 0.00000000000000000 
1 0.00000000000000000 -91.00000000000000000 1.00000000000000000 0.00000000000000000 
1 0.00000000000000000 0.00000000000000000 1.00000000000000000 0.00000000000000000 
1 0.00000000000000000 -91.00000000000000000 1.00000000000000000 0.00000000000000000 
1 -1.00000000000000000 0.00000000000000000 1.00000000000000000 0.00000000000000000 
1 -1.00000000000000000 -91.00000000000000000 1.00000000000000000 0.00000000000000000 
1 -4.71238898038468879 0.00000000000000000 1.00000000000000000 0.00000000000000000 
2 -3.66328124999100346 -3.66328125000251781 -1.00000000000000000 0.00000000000000000 0.00000000000000000 1.00000000000000000 1.00000000000000000
1 0.00000000000000000 0.00000000000000000 1.00000000000000000 0.00000000000000000 
1 0.00000000000000000 -10.00000000000000000 1.00000000000000000 0.00000000000000000 
1 0.00000000000000000 0.00000000000000000 1.00000000000000000 0.00000000000000000 
1 0.00000000000000000 -10.00000000000000000 1.00000000000000000 0.00000000000000000 
1 0.00000000000000000 0.00000000000000000 1.00000000000000000 0.00000000000000000 
1 0.00000000000000000 -91.00000000000000000 1.00000000000000000 0.00000000000000000 
1 0.00000000000000000 0.00000000000000000 1.00000000000000000 0.00000000000000000 
1 0.00000000000000000 -91.00000000000000000 1.00000000000000000 0.00000000000000000 
1 -3.14159265358979312 0.00000000000000000 1.00000000000000000 0.00000000000000000 
2 16.56171874999748184 -5.66328125000251781 -1.00000000000000000 0.00000000000000000 -0.00000000000000000 -1.00000000000000000 1.00000000000000000
1 0.00000000000000000 0.00000000000000000 1.00000000000000000 0.00000000000000000 
1 0.00000000000000000 -10.00000000000000000 1.00000000000000000 0.00000000000000000 
1 0.00000000000000000 0.00000000000000000 1.00000000000000000 0.00000000000000000 
1 0.00000000000000000 -10.00000000000000000 1.00000000000000000 0.00000000000000000 
1 0.00000000000000000 0.00000000000000000 1.00000000000000000 0.00000000000000000 
1 0.00000000000000000 -91.00000000000000000 1.00000000000000000 0.00000000000000000 
1 0.00000000000000000 0.00000000000000000 1.00000000000000000 0.00000000000000000 
1 0.00000000000000000 -91.00000000000000000 1.00000000000000000 0.00000000000000000 
1 -1.00000000000000000 -0.00000000000000000 1.00000000000000000 0.00000000000000000 
1 -0.99999999999997868 -91.00000000000000000 1.00000000000000000 0.00000000000000000 
1 1.57079632679489700 0.00000000000000000 0.00000000000000000 -1.00000000000000000 
1 0.00000000000000000 0.00000000000000000 -0.00000000000000022 -1.00000000000000000 
1 0.00000000000000000 0.00000000000000000 0.00000000000000000 -1.00000000000000000 
1 6.28318530717958623 0.00000000000000000 0.00000000000000000 -1.00000000000000000 
2 8.52499999999999858 -65.60000000000000853 1.00000000000000000 0.00000000000000000 -0.00000000000000000 1.00000000000000000 3.96875000000000000
1 0.00000000000000000 -3.17500000001151328 1.00000000000000000 0.00000000000000000 
1 0.00000000000000000 0.00000000000000000 0.00000000000000000 -1.00000000000000000 
1 6.28318530717958623 0.00000000000000000 0.00000000000000000 -1.00000000000000000 
2 8.52499999999999858 -25.39999999999999147 1.00000000000000000 0.00000000000000000 -0.00000000000000000 1.00000000000000000 3.96875000000000000
1 0.00000000000000000 -3.17500000001151328 1.00000000000000000 0.00000000000000000 
1 4.71238898038468967 0.00000000000000000 0.00000000000000000 -1.00000000000000000 
1 1.57079632679489700 0.00000000000000000 0.00000000000000000 -1.00000000000000000 
1 23.39999999999999858 -0.00000000000001421 -0.00000000000000022 -1.00000000000000000 
1 0.00000000000000000 0.00000000000000000 1.00000000000000000 0.00000000000000000 
1 0.00000000000000000 -197.62290891493327649 1.00000000000000000 0.00000000000000000 
2 0.00000000000000000 0.00000000000000000 0.00000000000000000 1.00000000000000000 -1.00000000000000000 0.00000000000000000 3.96875000000000000
2 11.69999999999998863 -78.30000000000001137 0.00000000000000000 1.00000000000000000 1.00000000000000000 -0.00000000000000000 3.96875000000000000
1 0.00000000000000000 0.00000000000000000 1.00000000000000000 0.00000000000000000 
1 0.00000000000000000 -197.62290891493327649 1.00000000000000000 0.00000000000000000 
2 0.00000000000000000 0.00000000000000000 0.00000000000000000 1.00000000000000000 -1.00000000000000000 0.00000000000000000 3.96875000000000000
2 11.69999999999998863 -12.69999999999998863 0.00000000000000000 1.00000000000000000 1.00000000000000000 -0.00000000000000000 3.96875000000000000
1 3.14159265358979312 0.00000000000000000 0.00000000000000000 -1.00000000000000000 
1 20.22499999999999787 0.00000000000000000 0.00000000000000000 -1.00000000000000000 
1 3.14159265358979312 0.00000000000000000 0.00000000000000000 -1.00000000000000000 
1 6.28318530717958623 0.00000000000000000 0.00000000000000000 -1.00000000000000000 
1 0.00000000000000000 0.00000000000000000 0.00000000000000000 -1.00000000000000000 
1 3.14159265358979312 0.00000000000000000 0.00000000000000000 -1.00000000000000000 
1 4.71238898038468879 0.00000000000000000 0.00000000000000000 -1.00000000000000000 
1 20.22499999998848352 0.00000000000000000 0.00000000000000022 -1.00000000000000000 
1 4.71238898038468967 0.00000000000000000 0.00000000000000000 -1.00000000000000000 
1 0.00000000000000000 -0.00000000000001421 0.00000000000000022 -1.00000000000000000 
2 11.70000000000000995 -78.30000000000001137 0.00000000000000000 1.00000000000000000 -1.00000000000000000 0.00000000000000000 3.96875000000000000
1 0.00000000000000000 -3.17499999999999982 1.00000000000000000 0.00000000000000000 
2 11.70000000000000995 -12.69999999999998863 0.00000000000000000 1.00000000000000000 -1.00000000000000000 0.00000000000000000 3.96875000000000000
1 0.00000000000000000 -3.17499999999999982 1.00000000000000000 0.00000000000000000 
1 0.00000000000000000 0.00000000000000000 0.00000000000000000 -1.00000000000000000 
1 6.28318530717958623 0.00000000000000000 0.00000000000000000 -1.00000000000000000 
1 0.00000000000000000 0.00000000000000000 0.00000000000000000 -1.00000000000000000 
1 6.28318530717958623 0.00000000000000000 0.00000000000000000 -1.00000000000000000 
Curves 36
1 24.39999999999999858 -45.50000000000000000 0.00000000000001001 0.00000000000000000 1.00000000000000000 -0.00000000000000022 
1 25.39999999999999858 0.00000000000000000 0.00000000000000000 -1.00000000000000000 0.00000000000000000 0.00000000000000000 
1 1.00000000000000000 -45.50000000000000000 0.00000000000001001 0.00000000000000000 1.00000000000000000 -0.00000000000000022 
2 12.69999999999999929 -20.10000000000000853 0.00000000000000000 0.00000000000000000 0.00000000000000000 1.00000000000000000 1.00000000000000000 0.00000000000000000 -0.00000000000000000 -0.00000000000000000 1.00000000000000000 0.00000000000000000 3.96875000000000000
2 12.69999999999999929 20.10000000000000853 0.00000000000000000 0.00000000000000000 0.00000000000000000 1.00000000000000000 1.00000000000000000 0.00000000000000000 -0.00000000000000000 -0.00000000000000000 1.00000000000000000 0.00000000000000000 3.96875000000000000
1 25.39999999999999858 -45.50000000000000000 1.00000000000000999 0.00000000000000000 1.00000000000000000 -0.00000000000000022 
8 0.00000000000000000 1.57079632679489611
2 24.39999999999999858 0.99999999999999978 -0.00000000000000044 0.00000000000000000 0.00000000000000044 1.00000000000000000 0.00000000000000000 -1.00000000000000000 0.00000000000000044 1.00000000000000000 0.00000000000000000 -0.00000000000000000 1.00000000000000000
8 -0.00000000000000089 1.57079632679489656
2 0.99999999999999978 0.99999999999999978 -0.00000000000000044 -0.00000000000000000 -0.00000000000000044 -1.00000000000000000 0.00000000000000000 -1.00000000000000000 0.00000000000000044 -1.00000000000000000 0.00000000000000000 0.00000000000000000 1.00000000000000000
1 25.39999999999999858 3.17500000001151328 0.00000000000000000 0.00000000000000000 -1.00000000000000000 0.00000000000000000 
1 0.00000000000000000 0.00000000000000000 0.00000000000000000 0.00000000000000000 1.00000000000000000 0.00000000000000000 
8 3.14159265358979312 4.71238898038468967
2 24.39999999999999858 2.17500000001151328 -0.00000000000000097 -0.00000000000000000 -0.00000000000000044 -1.00000000000000000 0.00000000000000000 -1.00000000000000000 0.00000000000000044 -1.00000000000000000 0.00000000000000000 0.00000000000000000 1.00000000000000000
8 1.57079632679489656 3.14159265358979312
2 0.99999999999999978 24.39999999999999858 -0.00000000000001084 -0.00000000000000000 -0.00000000000000044 -1.00000000000000000 0.00000000000000000 -1.00000000000000000 0.00000000000000044 -1.00000000000000000 0.00000000000000000 0.00000000000000000 1.00000000000000000
1 3.17499999999999982 3.17500000001151328 0.00000000000000000 1.00000000000000000 0.00000000000000000 0.00000000000000000 
1 0.00000000000000000 25.39999999999999858 0.00000000000000000 1.00000000000000000 0.00000000000000000 0.00000000000000000 
8 4.71238898038468879 6.28318530717958623
2 4.17499999999999982 4.17500000001151417 -0.00000000000000185 0.00000000000000000 0.00000000000000044 1.00000000000000000 0.00000000000000000 -1.00000000000000000 0.00000000000000044 1.00000000000000000 0.00000000000000000 -0.00000000000000000 1.00000000000000000
8 3.14159265358979312 4.71238898038468967
2 2.17499999999999982 24.39999999999999858 -0.00000000000001084 -0.00000000000000000 -0.00000000000000044 -1.00000000000000000 0.00000000000000000 -1.00000000000000000 0.00000000000000044 -1.00000000000000000 0.00000000000000000 0.00000000000000000 1.00000000000000000
1 3.17499999999999982 25.39999999999999858 0.00000000000000000 0.00000000000000000 -1.00000000000000000 0.00000000000000000 
1 0.00000000000000000 -45.50000000000000000 1.00000000000000999 0.00000000000000000 1.00000000000000000 -0.00000000000000022 
1 16.66874999999999929 20.10000000000000853 -0.00000000000000442 0.00000000000000000 0.00000000000000022 1.00000000000000000 
2 12.69999999999999929 20.10000000000000853 3.17500000001150884 0.00000000000000000 -0.00000000000000022 -1.00000000000000000 1.00000000000000000 0.00000000000000000 0.00000000000000000 0.00000000000000000 -1.00000000000000000 0.00000000000000022 3.96875000000000000
1 16.66874999999999929 -20.10000000000000853 0.00000000000000442 0.00000000000000000 0.00000000000000022 1.00000000000000000 
2 12.69999999999999929 -20.10000000000000853 3.17500000001151772 0.00000000000000000 -0.00000000000000022 -1.00000000000000000 1.00000000000000000 0.00000000000000000 0.00000000000000000 0.00000000000000000 -1.00000000000000000 0.00000000000000022 3.96875000000000000
1 25.39999999999999858 -45.50000000000000000 2.17500000001152305 0.00000000000000000 1.00000000000000000 -0.00000000000000022 
1 0.00000000000000000 -45.49999999999998579 24.40000000000000924 0.00000000000000000 1.00000000000000000 -0.00000000000000022 
2 -32.80000000000001137 12.69999999999999929 0.00000000000000000 0.00000000000000000 0.00000000000000000 1.00000000000000000 1.00000000000000000 0.00000000000000000 -0.00000000000000000 -0.00000000000000000 1.00000000000000000 0.00000000000000000 3.96875000000000000
2 32.80000000000001137 12.69999999999999929 0.00000000000000000 0.00000000000000000 0.00000000000000000 1.00000000000000000 1.00000000000000000 0.00000000000000000 -0.00000000000000000 -0.00000000000000000 1.00000000000000000 0.00000000000000000 3.96875000000000000
1 24.39999999999999858 -45.50000000000000000 3.17500000001152305 0.00000000000000000 1.00000000000000000 -0.00000000000000022 
1 1.00000000000000000 -45.49999999999998579 25.40000000000000924 0.00000000000000000 1.00000000000000000 -0.00000000000000022 
1 4.17499999999999982 -45.50000000000000000 3.17500000001152438 0.00000000000000000 1.00000000000000000 -0.00000000000000022 
1 2.17499999999999982 -45.49999999999998579 25.40000000000000924 0.00000000000000000 1.00000000000000000 -0.00000000000000022 
1 3.17499999999999982 -45.50000000000000000 4.17500000001152394 0.00000000000000000 1.00000000000000000 -0.00000000000000022 
1 3.17499999999999982 -45.49999999999998579 24.40000000000000924 0.00000000000000000 1.00000000000000000 -0.00000000000000022 
2 3.17499999999999982 32.80000000000001137 12.69999999999999929 -1.00000000000000000 0.00000000000000000 0.00000000000000000 0.00000000000000000 -1.00000000000000000 0.00000000000000000 0.00000000000000000 0.00000000000000000 1.00000000000000000 3.96875000000000000
2 3.17499999999999982 -32.80000000000001137 12.69999999999999929 -1.00000000000000000 0.00000000000000000 0.00000000000000000 0.00000000000000000 -1.00000000000000000 0.00000000000000000 0.00000000000000000 0.00000000000000000 1.00000000000000000 3.96875000000000000
1 0.00000000000000000 28.83125000000001137 12.69999999999999929 1.00000000000000000 0.00000000000000000 0.00000000000000000 
1 0.00000000000000000 -36.76875000000001137 12.69999999999999929 1.00000000000000000 0.00000000000000000 0.00000000000000000 
Polygon3D 0
PolygonOnTriangulations 0
Surfaces 47
1 24.39999999999999858 -45.50000000000000000 0.00000000000001001 0.00000000000000000 0.00000000000000022 1.00000000000000000 -1.00000000000000000 0.00000000000000000 0.00000000000000000 0.00000000000000000 -1.00000000000000000 0.00000000000000022 
2 24.39999999999999858 -45.50000000000000000 1.00000000000000977 0.00000000000000000 -1.00000000000000000 0.00000000000000044 0.00000000000000000 -0.00000000000000044 -1.00000000000000000 1.00000000000000000 0.00000000000000000 0.00000000000000000 1.00000000000000000
2 0.99999999999999978 -45.50000000000000000 1.00000000000000977 -0.00000000000000000 -1.00000000000000000 0.00000000000000044 0.00000000000000000 -0.00000000000000044 -1.00000000000000000 -1.00000000000000000 -0.00000000000000000 -0.00000000000000000 1.00000000000000000
2 12.69999999999999929 20.10000000000000853 -0.00000000000000442 0.00000000000000000 -0.00000000000000022 -1.00000000000000000 1.00000000000000000 0.00000000000000000 0.00000000000000000 0.00000000000000000 -1.00000000000000000 0.00000000000000022 3.96875000000000000
1 12.70000000000000107 20.10000000000001208 -0.00000000000000442 -0.00000000000000000 -0.00000000000000022 -1.00000000000000000 0.00000000000000000 -1.00000000000000000 0.00000000000000022 -1.00000000000000000 0.00000000000000000 0.00000000000000000 
2 12.69999999999999929 20.10000000000000853 -0.00000000000000442 0.00000000000000000 -0.00000000000000022 -1.00000000000000000 1.00000000000000000 0.00000000000000000 0.00000000000000000 0.00000000000000000 -1.00000000000000000 0.00000000000000022 3.96875000000000000
2 12.69999999999999929 -20.10000000000000853 0.00000000000000442 0.00000000000000000 -0.00000000000000022 -1.00000000000000000 1.00000000000000000 0.00000000000000000 0.00000000000000000 0.00000000000000000 -1.00000000000000000 0.00000000000000022 3.96875000000000000
1 12.70000000000000107 -20.10000000000001208 0.00000000000000442 -0.00000000000000000 -0.00000000000000022 -1.00000000000000000 0.00000000000000000 -1.00000000000000000 0.00000000000000022 -1.00000000000000000 0.00000000000000000 0.00000000000000000 
2 12.69999999999999929 -20.10000000000000853 0.00000000000000442 0.00000000000000000 -0.00000000000000022 -1.00000000000000000 1.00000000000000000 0.00000000000000000 0.00000000000000000 0.00000000000000000 -1.00000000000000000 0.00000000000000022 3.96875000000000000
1 25.39999999999999858 -45.50000000000000000 2.17500000001152349 -1.00000000000000000 0.00000000000000000 0.00000000000000000 0.00000000000000000 0.00000000000000000 -1.00000000000000000 -0.00000000000000000 -1.00000000000000000 -0.00000000000000000 
2 24.39999999999999858 0.99999999999999978 -0.00000000000000044 0.00000000000000000 0.00000000000000044 1.00000000000000000 0.00000000000000000 -1.00000000000000000 0.00000000000000044 1.00000000000000000 0.00000000000000000 -0.00000000000000000 1.00000000000000000
1 7.83828125000251763 0.00000000000000174 7.83828125000251763 -0.00000000000000000 1.00000000000000000 -0.00000000000000022 0.00000000000000000 0.00000000000000022 1.00000000000000000 1.00000000000000000 0.00000000000000000 -0.00000000000000000 
2 24.39999999999999858 0.00000000000000044 0.99999999999999978 0.00000000000000000 -1.00000000000000000 0.00000000000000044 0.00000000000000000 -0.00000000000000044 -1.00000000000000000 1.00000000000000000 0.00000000000000000 0.00000000000000000 1.00000000000000000
2 24.39999999999999858 -5.00000000000000000 1.00000000000000089 0.00000000000000000 -1.00000000000000000 0.00000000000000044 0.00000000000000000 -0.00000000000000044 -1.00000000000000000 1.00000000000000000 0.00000000000000000 0.00000000000000000 1.00000000000000000
2 24.39999999999999858 -45.50000000000000000 1.00000000000000977 0.00000000000000000 -1.00000000000000000 0.00000000000000044 0.00000000000000000 -0.00000000000000044 -1.00000000000000000 1.00000000000000000 0.00000000000000000 0.00000000000000000 1.00000000000000000
2 0.99999999999999978 0.99999999999999978 -0.00000000000000044 0.00000000000000000 0.00000000000000044 1.00000000000000000 0.00000000000000000 -1.00000000000000000 0.00000000000000044 -1.00000000000000000 -0.00000000000000000 0.00000000000000000 1.00000000000000000
2 0.99999999999999978 0.00000000000000044 0.99999999999999978 -0.00000000000000000 -1.00000000000000000 0.00000000000000044 0.00000000000000000 -0.00000000000000044 -1.00000000000000000 -1.00000000000000000 -0.00000000000000000 -0.00000000000000000 1.00000000000000000
2 0.99999999999999978 -5.00000000000000000 1.00000000000000089 -0.00000000000000000 -1.00000000000000000 0.00000000000000044 0.00000000000000000 -0.00000000000000044 -1.00000000000000000 -1.00000000000000000 -0.00000000000000000 -0.00000000000000000 1.00000000000000000
2 0.99999999999999978 -45.50000000000000000 1.00000000000000977 -0.00000000000000000 -1.00000000000000000 0.00000000000000044 0.00000000000000000 -0.00000000000000044 -1.00000000000000000 -1.00000000000000000 -0.00000000000000000 -0.00000000000000000 1.00000000000000000
1 0.00000000000000000 -45.50000000000000000 1.00000000000000999 1.00000000000000000 -0.00000000000000000 0.00000000000000000 0.00000000000000000 0.00000000000000000 1.00000000000000000 -0.00000000000000000 -1.00000000000000000 0.00000000000000000 
2 24.39999999999999858 2.17500000001151328 -0.00000000000000097 0.00000000000000000 0.00000000000000044 1.00000000000000000 0.00000000000000000 1.00000000000000000 -0.00000000000000044 1.00000000000000000 -0.00000000000000000 -0.00000000000000000 1.00000000000000000
2 24.39999999999999858 0.00000000000000097 2.17500000001151328 -0.00000000000000000 -1.00000000000000000 0.00000000000000044 0.00000000000000000 -0.00000000000000044 -1.00000000000000000 -1.00000000000000000 -0.00000000000000000 -0.00000000000000000 1.00000000000000000
2 24.39999999999999858 -4.99999999999999911 2.17500000001151417 -0.00000000000000000 -1.00000000000000000 0.00000000000000044 0.00000000000000000 -0.00000000000000044 -1.00000000000000000 -1.00000000000000000 -0.00000000000000000 -0.00000000000000000 1.00000000000000000
2 24.39999999999999858 -45.50000000000000000 2.17500000001152349 -0.00000000000000000 -1.00000000000000000 0.00000000000000044 0.00000000000000000 -0.00000000000000044 -1.00000000000000000 -1.00000000000000000 -0.00000000000000000 -0.00000000000000000 1.00000000000000000
2 24.39999999999999858 -45.50000000000000000 2.17500000001152349 -0.00000000000000000 -1.00000000000000000 0.00000000000000044 0.00000000000000000 -0.00000000000000044 -1.00000000000000000 -1.00000000000000000 -0.00000000000000000 -0.00000000000000000 1.00000000000000000
2 0.99999999999999978 24.39999999999999858 -0.00000000000001084 0.00000000000000000 0.00000000000000044 1.00000000000000000 -1.00000000000000000 0.00000000000000000 0.00000000000000000 -0.00000000000000000 1.00000000000000000 -0.00000000000000044 1.00000000000000000
2 0.99999999999999978 0.00000000000001084 24.39999999999999858 -0.00000000000000000 -1.00000000000000000 0.00000000000000044 0.00000000000000000 -0.00000000000000044 -1.00000000000000000 -1.00000000000000000 -0.00000000000000000 -0.00000000000000000 1.00000000000000000
2 0.99999999999999978 -4.99999999999998934 24.39999999999999858 -0.00000000000000000 -1.00000000000000000 0.00000000000000044 0.00000000000000000 -0.00000000000000044 -1.00000000000000000 -1.00000000000000000 -0.00000000000000000 -0.00000000000000000 1.00000000000000000
2 0.99999999999999978 -45.49999999999998579 24.40000000000000924 -0.00000000000000000 -1.00000000000000000 0.00000000000000044 0.00000000000000000 -0.00000000000000044 -1.00000000000000000 -1.00000000000000000 -0.00000000000000000 -0.00000000000000000 1.00000000000000000
2 0.99999999999999978 -45.49999999999998579 24.40000000000000924 -0.00000000000000000 -1.00000000000000000 0.00000000000000044 0.00000000000000000 -0.00000000000000044 -1.00000000000000000 -1.00000000000000000 -0.00000000000000000 -0.00000000000000000 1.00000000000000000
1 4.17499999999999982 -45.50000000000000000 3.17500000001152349 0.00000000000000000 -0.00000000000000022 -1.00000000000000000 1.00000000000000000 0.00000000000000000 0.00000000000000000 0.00000000000000000 -1.00000000000000000 0.00000000000000022 
2 4.17499999999999982 4.17500000001151417 -0.00000000000000185 0.00000000000000000 0.00000000000000044 1.00000000000000000 -1.00000000000000000 0.00000000000000000 0.00000000000000000 0.00000000000000000 -1.00000000000000000 0.00000000000000044 1.00000000000000000
2 4.17499999999999982 0.00000000000000185 4.17500000001151417 0.00000000000000000 -1.00000000000000000 0.00000000000000044 0.00000000000000000 -0.00000000000000044 -1.00000000000000000 1.00000000000000000 0.00000000000000000 0.00000000000000000 1.00000000000000000
2 4.17499999999999982 -4.99999999999999822 4.17500000001151506 0.00000000000000000 -1.00000000000000000 0.00000000000000044 0.00000000000000000 -0.00000000000000044 -1.00000000000000000 1.00000000000000000 0.00000000000000000 0.00000000000000000 1.00000000000000000
2 4.17499999999999982 -45.50000000000000000 4.17500000001152394 0.00000000000000000 -1.00000000000000000 0.00000000000000044 0.00000000000000000 -0.00000000000000044 -1.00000000000000000 1.00000000000000000 0.00000000000000000 0.00000000000000000 1.00000000000000000
2 4.17499999999999982 -45.50000000000000000 4.17500000001152394 0.00000000000000000 -1.00000000000000000 0.00000000000000044 0.00000000000000000 -0.00000000000000044 -1.00000000000000000 1.00000000000000000 0.00000000000000000 0.00000000000000000 1.00000000000000000
2 2.17499999999999982 24.39999999999999858 -0.00000000000001084 0.00000000000000000 0.00000000000000044 1.00000000000000000 0.00000000000000000 1.00000000000000000 -0.00000000000000044 1.00000000000000000 -0.00000000000000000 -0.00000000000000000 1.00000000000000000
2 2.17499999999999982 0.00000000000001084 24.39999999999999858 -0.00000000000000000 -1.00000000000000000 0.00000000000000044 0.00000000000000000 -0.00000000000000044 -1.00000000000000000 -1.00000000000000000 -0.00000000000000000 -0.00000000000000000 1.00000000000000000
2 2.17499999999999982 -4.99999999999998934 24.39999999999999858 -0.00000000000000000 -1.00000000000000000 0.00000000000000044 0.00000000000000000 -0.00000000000000044 -1.00000000000000000 -1.00000000000000000 -0.00000000000000000 -0.00000000000000000 1.00000000000000000
2 2.17499999999999982 -45.49999999999998579 24.40000000000000924 -0.00000000000000000 -1.00000000000000000 0.00000000000000044 0.00000000000000000 -0.00000000000000044 -1.00000000000000000 -1.00000000000000000 -0.00000000000000000 -0.00000000000000000 1.00000000000000000
2 2.17499999999999982 -45.49999999999998579 24.40000000000000924 -0.00000000000000000 -1.00000000000000000 0.00000000000000044 0.00000000000000000 -0.00000000000000044 -1.00000000000000000 -1.00000000000000000 -0.00000000000000000 -0.00000000000000000 1.00000000000000000
1 3.17499999999999982 -45.50000000000000000 24.40000000000000924 -1.00000000000000000 0.00000000000000000 0.00000000000000000 0.00000000000000000 0.00000000000000000 -1.00000000000000000 -0.00000000000000000 -1.00000000000000000 -0.00000000000000000 
2 0.00000000000000000 32.80000000000001137 12.69999999999999929 -1.00000000000000000 0.00000000000000000 0.00000000000000000 0.00000000000000000 -1.00000000000000000 0.00000000000000000 0.00000000000000000 0.00000000000000000 1.00000000000000000 3.96875000000000000
1 0.00000000000000000 32.80000000000001137 12.69999999999999929 -1.00000000000000000 -0.00000000000000000 -0.00000000000000000 0.00000000000000000 0.00000000000000000 -1.00000000000000000 0.00000000000000000 -1.00000000000000000 0.00000000000000000 
2 0.00000000000000000 -32.80000000000001137 12.69999999999999929 -1.00000000000000000 0.00000000000000000 0.00000000000000000 0.00000000000000000 -1.00000000000000000 0.00000000000000000 0.00000000000000000 0.00000000000000000 1.00000000000000000 3.96875000000000000
1 0.00000000000000000 -32.80000000000001137 12.69999999999999929 -1.00000000000000000 -0.00000000000000000 -0.00000000000000000 0.00000000000000000 0.00000000000000000 -1.00000000000000000 0.00000000000000000 -1.00000000000000000 0.00000000000000000 
1 1.00000000000000000 -45.50000000000000000 25.40000000000000924 0.00000000000000000 -0.00000000000000022 -1.00000000000000000 1.00000000000000000 0.00000000000000000 0.00000000000000000 0.00000000000000000 -1.00000000000000000 0.00000000000000022 
Triangulations 0

TShapes 100
Ve
0.000000100000000
24.399999999999999 -0.000000000000000 0.000000000000000
0 0

0101101
*
Ed
 0.000000100000000 1 1 0
1  1 0 0.000000000000000 91.000000000000000
2  1 2 0 0.000000000000000 91.000000000000000
4 C1 1 0 2 0
2  2 1 0 0.000000000000000 91.000000000000000
0

0101000
+100 17 -100 19 *
Ve
0.000000100000000
1.000000000000000 -0.000000000000000 0.000000000000000
0 0

0101101
*
Ed
 0.000000100000000 1 1 0
1  2 0 1.000000000000000 24.399999999999999
2  3 1 25 1.000000000000000 24.399999999999999
2  4 1 26 1.000000000000000 24.399999999999999
0

0101000
+100 27 -98 27 *
Ed
 0.000000100000000 1 1 0
1  3 0 0.000000000000000 91.000000000000000
2  5 3 0 0.000000000000000 91.000000000000000
4 C1 1 0 3 0
2  6 1 0 0.000000000000000 91.000000000000000
0

0101000
+98 17 -98 19 *
Wi

0101100
+99 6 -97 24 +97 28 -96 6 *
Ve
0.000000100000000
16.668749999999999 -20.100000000000009 0.000000000000000
0 0

0101101
*
Ed
 0.000000100000000 1 1 0
1  4 0 0.000000000000000 6.283185307179586
2  7 4 35 0.000000000000000 6.283185307179586
2  8 4 37 0.000000000000000 6.283185307179586
2  9 5 38 0.000000000000000 6.283185307179586
2  10 1 39 0.000000000000000 6.283185307179586
2  11 6 40 0.000000000000000 6.283185307179586
2  12 6 42 0.000000000000000 6.283185307179586
2  13 1 43 0.000000000000000 6.283185307179586
0

0101000
+94 0 -94 0 *
Wi

0101100
+93 31 *
Ve
0.000000100000000
16.668749999999999 20.100000000000009 0.000000000000000
0 0

0101101
*
Ed
 0.000000100000000 1 1 0
1  5 0 0.000000000000000 6.283185307179586
2  14 7 35 0.000000000000000 6.283185307179586
2  15 7 37 0.000000000000000 6.283185307179586
2  16 8 38 0.000000000000000 6.283185307179586
2  17 1 39 0.000000000000000 6.283185307179586
2  18 9 40 0.000000000000000 6.283185307179586
2  19 9 42 0.000000000000000 6.283185307179586
2  20 1 43 0.000000000000000 6.283185307179586
0

0101000
+91 0 -91 0 *
Wi

0101100
+90 31 *
Fa
0  0.000000100000000 1 6

0101000
+95 0 +92 0 +89 0 *
Ve
0.000000100000000
25.399999999999999 1.000000000000000 -0.000000000000000
0 0

0101101
*
Ed
 0.000000100000000 1 1 0
1  6 0 0.000000000000000 91.000000000000000
2  21 2 0 0.000000000000000 91.000000000000000
4 C1 2 0 10 0
0

0101000
+87 17 -87 19 *
Ed
 0.000000100000000 1 1 0
1  7 0 0.000000000000000 1.570796326794896
2  22 11 0 0.000000000000000 1.570796326794896
2  23 12 44 0.000000000000000 1.570796326794896
2  24 13 47 0.000000000000000 1.570796326794896
2  25 13 49 0.000000000000000 1.570796326794896
2  26 14 53 0.000000000000000 1.570796326794896
2  27 14 55 0.000000000000000 1.570796326794896
2  28 15 59 0.000000000000000 1.570796326794896
2  29 15 61 0.000000000000000 1.570796326794896
2  30 2 62 0.000000000000000 1.570796326794896
2  31 2 63 0.000000000000000 1.570796326794896
0

0101000
+100 0 -87 0 *
Wi

0101100
+99 0 -86 0 -85 17 +85 19 *
Fa
0  0.000000100000000 2 0

0101000
+84 0 *
Ve
0.000000100000000
-0.000000000000000 1.000000000000000 -0.000000000000000
0 0

0101101
*
Ed
 0.000000100000000 1 1 0
1  8 0 -0.000000000000001 1.570796326794897
2  32 16 0 -0.000000000000001 1.570796326794897
2  33 12 44 -0.000000000000001 1.570796326794897
2  34 17 47 -0.000000000000001 1.570796326794897
2  35 17 49 -0.000000000000001 1.570796326794897
2  36 18 53 -0.000000000000001 1.570796326794897
2  37 18 55 -0.000000000000001 1.570796326794897
2  38 19 59 -0.000000000000001 1.570796326794897
2  39 19 61 -0.000000000000001 1.570796326794897
2  40 3 62 -0.000000000000001 1.570796326794897
2  41 3 63 -0.000000000000001 1.570796326794897
0

0101000
+98 0 -82 0 *
Ve
0.000000100000000
25.399999999999999 2.175000000011513 -0.000000000000001
0 0

0101101
*
Ed
 0.000000100000000 1 1 0
1  9 0 1.000000000000000 2.175000000011514
0

0101000
+80 27 -87 27 *
Ve
0.000000100000000
-0.000000000000000 24.399999999999999 -0.000000000000011
0 0

0101101
*
Ed
 0.000000100000000 1 1 0
1  10 0 1.000000000000000 24.399999999999999
2  42 20 25 1.000000000000000 24.399999999999999
2  43 20 26 1.000000000000000 24.399999999999999
0

0101000
+82 27 -78 27 *
Ve
0.000000100000000
24.399999999999999 3.175000000011513 -0.000000000000001
0 0

0101101
*
Ed
 0.000000100000000 1 1 0
1  11 0 3.141592653589793 4.712388980384690
2  44 21 0 3.141592653589793 4.712388980384690
2  45 12 44 3.141592653589793 4.712388980384690
2  46 22 47 3.141592653589793 4.712388980384690
2  47 22 49 3.141592653589793 4.712388980384690
2  48 23 53 3.141592653589793 4.712388980384690
2  49 23 55 3.141592653589793 4.712388980384690
2  50 24 59 3.141592653589793 4.712388980384690
2  51 24 61 3.141592653589793 4.712388980384690
2  52 25 62 3.141592653589793 4.712388980384690
2  53 25 63 3.141592653589793 4.712388980384690
0

0101000
+76 0 -80 0 *
Ve
0.000000100000000
1.000000000000000 25.399999999999999 -0.000000000000011
0 0

0101101
*
Ed
 0.000000100000000 1 1 0
1  12 0 1.570796326794897 3.141592653589793
2  54 26 0 1.570796326794897 3.141592653589793
2  55 12 44 1.570796326794897 3.141592653589793
2  56 27 47 1.570796326794897 3.141592653589793
2  57 27 49 1.570796326794897 3.141592653589793
2  58 28 53 1.570796326794897 3.141592653589793
2  59 28 55 1.570796326794897 3.141592653589793
2  60 29 59 1.570796326794897 3.141592653589793
2  61 29 61 1.570796326794897 3.141592653589793
2  62 30 62 1.570796326794897 3.141592653589793
2  63 30 63 1.570796326794897 3.141592653589793
0

0101000
+78 0 -74 0 *
Ve
0.000000100000000
4.175000000000000 3.175000000011514 -0.000000000000001
0 0

0101101
*
Ed
 0.000000100000000 1 1 0
1  13 0 1.000000000000000 21.224999999999998
2  64 31 25 1.000000000000000 21.224999999999998
2  65 31 26 1.000000000000000 21.224999999999998
0

0101000
+72 27 -76 27 *
Ve
0.000000100000000
2.175000000000000 25.399999999999999 -0.000000000000011
0 0

0101101
*
Ed
 0.000000100000000 1 1 0
1  14 0 1.000000000000000 2.175000000000000
0

0101000
+74 27 -70 27 *
Ve
0.000000100000000
3.175000000000000 4.175000000011514 -0.000000000000002
0 0

0101101
*
Ed
 0.000000100000000 1 1 0
1  15 0 4.712388980384689 6.283185307179586
2  66 32 0 4.712388980384689 6.283185307179586
2  67 12 44 4.712388980384689 6.283185307179586
2  68 33 47 4.712388980384689 6.283185307179586
2  69 33 49 4.712388980384689 6.283185307179586
2  70 34 53 4.712388980384689 6.283185307179586
2  71 34 55 4.712388980384689 6.283185307179586
2  72 35 59 4.712388980384689 6.283185307179586
2  73 35 61 4.712388980384689 6.283185307179586
2  74 36 62 4.712388980384689 6.283185307179586
2  75 36 63 4.712388980384689 6.283185307179586
0

0101000
+68 0 -72 0 *
Ve
0.000000100000000
3.175000000000000 24.399999999999999 -0.000000000000011
0 0

0101101
*
Ed
 0.000000100000000 1 1 0
1  16 0 3.141592653589793 4.712388980384690
2  76 37 0 3.141592653589793 4.712388980384690
2  77 12 44 3.141592653589793 4.712388980384690
2  78 38 47 3.141592653589793 4.712388980384690
2  79 38 49 3.141592653589793 4.712388980384690
2  80 39 53 3.141592653589793 4.712388980384690
2  81 39 55 3.141592653589793 4.712388980384690
2  82 40 59 3.141592653589793 4.712388980384690
2  83 40 61 3.141592653589793 4.712388980384690
2  84 41 62 3.141592653589793 4.712388980384690
2  85 41 63 3.141592653589793 4.712388980384690
0

0101000
+70 0 -66 0 *
Ed
 0.000000100000000 1 1 0
1  17 0 1.000000000000000 21.224999999988484
2  86 42 25 1.000000000000000 21.224999999988484
2  87 42 26 1.000000000000000 21.224999999988484
0

0101000
+66 27 -68 27 *
Wi

0101100
+97 66 -85 0 +81 0 +79 66 +77 66 +75 0 +73 0 +71 66 +69 66 +67 0 
+65 0 +64 66 *
Fa
0  0.000000100000000 12 0

0101000
+63 65 *
Ed
 0.000000100000000 1 1 0
1  18 0 0.000000000000000 91.000000000000000
2  88 3 0 0.000000000000000 91.000000000000000
4 C1 3 0 20 0
2  89 20 0 0.000000000000000 91.000000000000000
0

0101000
+82 17 -82 19 *
Wi

0101100
+96 0 -61 0 -81 17 +81 19 *
Fa
0  0.000000100000000 3 0

0101000
+60 0 *
Ve
0.000000100000000
16.668749999999999 20.100000000000009 3.175000000011509
0 0

0101101
*
Ed
 0.000000100000000 1 1 0
1  19 0 0.000000000000000 3.175000000011514
3  90 91CN 6 0 0.000000000000000 3.175000000011514
0

0101000
+94 31 -58 0 *
Ed
 0.000000100000000 1 1 0
1  20 0 0.000000000000000 6.283185307179586
2  92 31 6 0.000000000000000 6.283185307179586
2  93 6 0 0.000000000000000 6.283185307179586
0

0101000
+58 0 -58 0 *
Wi

0101100
-93 31 -57 0 +56 0 +57 0 *
Fa
0  0.000000100000000 6 0

0101000
+55 0 *
Ve
0.000000100000000
16.668749999999999 -20.100000000000009 3.175000000011518
0 0

0101101
*
Ed
 0.000000100000000 1 1 0
1  21 0 0.000000000000000 3.175000000011513
3  94 95CN 9 0 0.000000000000000 3.175000000011513
0

0101000
+91 31 -53 0 *
Ed
 0.000000100000000 1 1 0
1  22 0 0.000000000000000 6.283185307179586
2  96 31 6 0.000000000000000 6.283185307179586
2  97 9 0 0.000000000000000 6.283185307179586
0

0101000
+53 0 -53 0 *
Wi

0101100
-90 31 -52 0 +51 0 +52 0 *
Fa
0  0.000000100000000 9 0

0101000
+50 0 *
Ed
 0.000000100000000 1 1 0
1  23 0 0.000000000000000 91.000000000000000
2  98 25 0 0.000000000000000 91.000000000000000
4 C1 10 0 25 0
0

0101000
+80 17 -80 19 *
Wi

0101100
+48 0 -86 0 -79 68 +79 69 *
Fa
0  0.000000100000000 10 0

0101000
+47 0 *
Ed
 0.000000100000000 1 1 0
1  24 0 0.000000000000000 91.000000000000000
2  99 30 0 0.000000000000000 91.000000000000000
4 C1 20 0 30 0
2  100 20 0 0.000000000000000 91.000000000000000
0

0101000
+78 17 -78 19 *
Wi

0101100
+61 71 -77 72 +77 73 -45 71 *
Ve
0.000000100000000
-28.831250000000011 12.699999999999999 0.000000000000000
0 0

0101101
*
Ed
 0.000000100000000 1 1 0
1  25 0 0.000000000000000 6.283185307179586
2  101 43 77 0.000000000000000 6.283185307179586
2  102 43 79 0.000000000000000 6.283185307179586
2  103 44 80 0.000000000000000 6.283185307179586
2  104 20 81 0.000000000000000 6.283185307179586
0

0101000
+43 0 -43 0 *
Wi

0101100
+42 76 *
Ve
0.000000100000000
36.768750000000011 12.699999999999999 0.000000000000000
0 0

0101101
*
Ed
 0.000000100000000 1 1 0
1  26 0 0.000000000000000 6.283185307179586
2  105 45 77 0.000000000000000 6.283185307179586
2  106 45 79 0.000000000000000 6.283185307179586
2  107 46 80 0.000000000000000 6.283185307179586
2  108 20 81 0.000000000000000 6.283185307179586
0

0101000
+40 0 -40 0 *
Wi

0101100
+39 76 *
Fa
0  0.000000100000000 20 71

0101000
+44 0 +41 0 +38 0 *
Ed
 0.000000100000000 1 1 0
1  27 0 0.000000000000000 91.000000000000000
2  109 25 0 0.000000000000000 91.000000000000000
4 C1 25 0 31 0
2  110 31 0 0.000000000000000 91.000000000000000
0

0101000
+76 17 -76 19 *
Wi

0101100
+36 0 -48 0 -75 17 +75 19 *
Fa
0  0.000000100000000 25 0

0101000
+35 0 *
Ed
 0.000000100000000 1 1 0
1  28 0 0.000000000000000 91.000000000000000
2  111 30 0 0.000000000000000 91.000000000000000
4 C1 30 0 47 0
0

0101000
+74 17 -74 19 *
Wi

0101100
+45 0 -33 0 -73 17 +73 19 *
Fa
0  0.000000100000000 30 0

0101000
+32 0 *
Ed
 0.000000100000000 1 1 0
1  29 0 0.000000000000000 91.000000000000000
2  112 36 0 0.000000000000000 91.000000000000000
4 C1 31 0 36 0
2  113 31 0 0.000000000000000 91.000000000000000
0

0101000
+72 17 -72 19 *
Wi

0101100
+30 6 -71 24 +71 28 -36 6 *
Wi

0101100
-56 0 *
Wi

0101100
-51 0 *
Fa
0  0.000000100000000 31 6

0101000
+29 0 +28 0 +27 0 *
Ed
 0.000000100000000 1 1 0
1  30 0 0.000000000000000 91.000000000000000
2  114 41 0 0.000000000000000 91.000000000000000
4 C1 47 0 41 0
0

0101000
+70 17 -70 19 *
Wi

0101100
+33 0 -25 0 -69 68 +69 69 *
Fa
0  0.000000100000000 47 0

0101000
+24 0 *
Ed
 0.000000100000000 1 1 0
1  31 0 0.000000000000000 91.000000000000000
2  115 36 0 0.000000000000000 91.000000000000000
4 C1 36 0 42 0
2  116 42 0 0.000000000000000 91.000000000000000
0

0101000
+68 17 -68 19 *
Wi

0101100
+22 0 -30 0 -67 17 +67 19 *
Fa
0  0.000000100000000 36 0

0101000
+21 0 *
Ed
 0.000000100000000 1 1 0
1  32 0 0.000000000000000 91.000000000000000
2  117 41 0 0.000000000000000 91.000000000000000
4 C1 41 0 42 0
2  118 42 0 0.000000000000000 91.000000000000000
0

0101000
+66 17 -66 19 *
Wi

0101100
+25 0 -19 0 -65 17 +65 19 *
Fa
0  0.000000100000000 41 0

0101000
+18 0 *
Wi

0101100
+19 71 -64 72 +64 73 -22 71 *
Ve
0.000000100000002
3.175000000000000 28.831250000000011 12.699999999999999
0 0

0101101
*
Ed
 0.000000100000000 1 1 0
1  33 0 0.000000000000000 6.283185307179586
2  119 42 71 0.000000000000000 6.283185307179586
2  120 43 0 0.000000000000000 6.283185307179586
0

0101000
+15 0 -15 0 *
Wi

0101100
-14 0 *
Ve
0.000000100000002
3.175000000000000 -36.768750000000011 12.699999999999999
0 0

0101101
*
Ed
 0.000000100000000 1 1 0
1  34 0 0.000000000000000 6.283185307179586
2  121 42 71 0.000000000000000 6.283185307179586
2  122 45 0 0.000000000000000 6.283185307179586
0

0101000
+12 0 -12 0 *
Wi

0101100
-11 0 *
Fa
0  0.000000100000000 42 71

0101000
+16 0 +13 0 +10 0 *
Ed
 0.000000100000000 1 1 0
1  35 0 0.000000000000000 3.175000000000000
3  123 124CN 43 0 0.000000000000000 3.175000000000000
0

0101000
+43 76 -15 0 *
Wi

0101100
-42 76 -8 0 +14 0 +8 0 *
Fa
0  0.000000100000000 43 0

0101000
+7 0 *
Ed
 0.000000100000000 1 1 0
1  36 0 0.000000000000000 3.175000000000000
3  125 126CN 45 0 0.000000000000000 3.175000000000000
0

0101000
+40 76 -12 0 *
Wi

0101100
-39 76 -5 0 +11 0 +5 0 *
Fa
0  0.000000100000000 45 0

0101000
+4 0 *
Sh

0101100
-88 0 +83 6 -62 64 +62 67 -59 6 -54 0 -49 0 -46 6 -37 70 -34 6 
-31 6 -26 0 -23 6 -20 6 -17 6 -9 70 -6 70 -3 70 *
So

0100000
+2 0 *

+1 1 