
CASCADE Topology V1, (c) Matra-Datavision
Locations 25
1
1.000000000000000 0.000000000000000 0.000000000000000 0.000000000000000 
0.000000000000000 1.000000000000000 0.000000000000000 0.000000000000000 
0.000000000000000 0.000000000000000 1.000000000000000 0.000000000000000 
1
1.000000000000000 0.000000000000000 0.000000000000000 0.000000000000000 
0.000000000000000 -1.000000000000000 -0.000000000000000 0.000000000000000 
0.000000000000000 0.000000000000000 -1.000000000000000 0.000000000000000 
1
1.000000000000000 0.000000000000000 0.000000000000000 0.000000000000000 
0.000000000000000 1.000000000000000 0.000000000000000 0.000000000000000 
0.000000000000000 0.000000000000000 1.000000000000000 0.000000000000000 
2  1 1 2 1 3 -1 0
1
1.000000000000000 0.000000000000000 0.000000000000000 0.000000000000000 
0.000000000000000 1.000000000000000 0.000000000000000 0.000000000000043 
0.000000000000000 0.000000000000000 1.000000000000000 197.622908914933248 
2  1 1 2 1 3 -1 5 1 0
1
1.000000000000000 0.000000000000000 0.000000000000000 0.000000000000000 
0.000000000000000 1.000000000000000 0.000000000000000 0.000000000000000 
0.000000000000000 0.000000000000000 1.000000000000000 0.000000000000000 
1
1.000000000000000 0.000000000000000 0.000000000000000 0.000000000000000 
0.000000000000000 -1.000000000000000 -0.000000000000000 0.000000000000000 
0.000000000000000 0.000000000000000 -1.000000000000000 0.000000000000000 
1
1.000000000000000 0.000000000000000 0.000000000000000 0.000000000000000 
0.000000000000000 1.000000000000000 0.000000000000000 0.000000000000000 
0.000000000000000 0.000000000000000 1.000000000000000 0.000000000000000 
2  7 1 8 -1 9 -1 0
1
1.000000000000000 0.000000000000000 0.000000000000000 0.000000000000000 
0.000000000000000 1.000000000000000 0.000000000000000 0.000000000000043 
0.000000000000000 0.000000000000000 1.000000000000000 197.622908914933248 
2  11 -1 7 1 8 -1 9 -1 0
2  8 -1 9 -1 0
1
1.000000000000000 0.000000000000000 0.000000000000000 0.000000000000000 
0.000000000000000 1.000000000000000 0.000000000000000 0.000000000000000 
0.000000000000000 0.000000000000000 1.000000000000000 0.000000000000000 
1
1.000000000000000 0.000000000000000 0.000000000000000 0.000000000000000 
0.000000000000000 1.000000000000000 0.000000000000000 0.000000000000000 
0.000000000000000 0.000000000000000 1.000000000000000 0.000000000000000 
1
1.000000000000000 0.000000000000000 0.000000000000000 0.000000000000000 
0.000000000000000 1.000000000000000 0.000000000000000 0.000000000000000 
0.000000000000000 0.000000000000000 1.000000000000000 0.000000000000000 
1
1.000000000000000 0.000000000000000 0.000000000000000 0.000000000000000 
0.000000000000000 1.000000000000000 0.000000000000000 0.000000000000000 
0.000000000000000 0.000000000000000 1.000000000000000 0.000000000000000 
2  14 1 15 1 16 -1 17 1 8 -1 9 -1 0
2  3 1 2 -1 1 -1 0
2  5 -1 3 1 2 -1 1 -1 0
2  14 1 15 1 16 -1 17 1 2 -1 1 -1 0
2  3 -1 0
2  8 -1 9 -1 1 1 2 1 0
2  1 1 2 1 0
2  3 -1 5 1 0
Curve2ds 18
1 0.00000000000000000 0.00000000000000000 0.00000000000000000 -1.00000000000000000 
1 6.28318530717958623 0.00000000000000000 0.00000000000000000 -1.00000000000000000 
1 0.00000000000000000 0.00000000000000000 1.00000000000000000 0.00000000000000000 
1 0.00000000000000000 -197.62290891493324807 1.00000000000000000 0.00000000000000000 
2 0.00000000000000355 0.00000000000000178 0.00000000000000000 -1.00000000000000000 1.00000000000000000 0.00000000000000000 3.96875000000000000
2 11.69999999999999929 -65.60000000000000853 -1.00000000000000000 0.00000000000000000 0.00000000000000000 1.00000000000000000 3.96875000000000000
1 0.00000000000000000 0.00000000000000000 1.00000000000000000 0.00000000000000000 
1 0.00000000000000000 -197.62290891493324807 1.00000000000000000 0.00000000000000000 
2 11.69999999999999929 -65.60000000000000853 -1.00000000000000000 0.00000000000000000 0.00000000000000000 1.00000000000000000 3.96875000000000000
1 0.00000000000000000 0.00000000000000000 0.00000000000000000 -1.00000000000000000 
1 6.28318530717958623 0.00000000000000000 0.00000000000000000 -1.00000000000000000 
1 0.00000000000000000 0.00000000000000000 1.00000000000000000 0.00000000000000000 
1 0.00000000000000000 -197.62290891493324807 1.00000000000000000 0.00000000000000000 
2 -0.00000000000000355 0.00000000000000178 0.00000000000000000 -1.00000000000000000 1.00000000000000000 0.00000000000000000 3.96875000000000000
2 11.69999999999999929 -25.39999999999999147 -1.00000000000000000 0.00000000000000000 0.00000000000000000 1.00000000000000000 3.96875000000000000
1 0.00000000000000000 0.00000000000000000 1.00000000000000000 0.00000000000000000 
1 0.00000000000000000 -197.62290891493324807 1.00000000000000000 0.00000000000000000 
2 11.69999999999999929 -25.39999999999999147 -1.00000000000000000 0.00000000000000000 0.00000000000000000 1.00000000000000000 3.96875000000000000
Curves 4
1 16.66874999999999929 20.10000000000000853 -0.00000000000000442 0.00000000000000000 0.00000000000000022 1.00000000000000000 
2 12.69999999999999929 -20.10000000000000853 0.00000000000000000 0.00000000000000000 0.00000000000000000 1.00000000000000000 1.00000000000000000 0.00000000000000000 0.00000000000000000 0.00000000000000000 1.00000000000000000 0.00000000000000000 3.96875000000000000
1 16.66874999999999929 -20.10000000000000853 0.00000000000000442 0.00000000000000000 0.00000000000000022 1.00000000000000000 
2 12.69999999999999929 20.10000000000000853 0.00000000000000000 0.00000000000000000 0.00000000000000000 1.00000000000000000 1.00000000000000000 0.00000000000000000 0.00000000000000000 0.00000000000000000 1.00000000000000000 0.00000000000000000 3.96875000000000000
Polygon3D 0
PolygonOnTriangulations 0
Surfaces 7
2 12.69999999999999929 20.10000000000000853 -0.00000000000000442 0.00000000000000000 -0.00000000000000022 -1.00000000000000000 1.00000000000000000 0.00000000000000000 0.00000000000000000 0.00000000000000000 -1.00000000000000000 0.00000000000000022 3.96875000000000000
2 12.69999999999999929 20.10000000000000853 -0.00000000000000442 0.00000000000000000 -0.00000000000000022 -1.00000000000000000 1.00000000000000000 0.00000000000000000 0.00000000000000000 0.00000000000000000 -1.00000000000000000 0.00000000000000022 3.96875000000000000
1 12.70000000000000107 20.10000000000001208 -0.00000000000000442 -0.00000000000000000 -0.00000000000000022 -1.00000000000000000 0.00000000000000000 -1.00000000000000000 0.00000000000000022 -1.00000000000000000 0.00000000000000000 0.00000000000000000 
1 24.39999999999999858 -45.50000000000000000 0.00000000000001001 0.00000000000000000 0.00000000000000022 1.00000000000000000 -1.00000000000000000 0.00000000000000000 0.00000000000000000 0.00000000000000000 -1.00000000000000000 0.00000000000000022 
2 12.69999999999999929 -20.10000000000000853 0.00000000000000442 0.00000000000000000 -0.00000000000000022 -1.00000000000000000 1.00000000000000000 0.00000000000000000 0.00000000000000000 0.00000000000000000 -1.00000000000000000 0.00000000000000022 3.96875000000000000
2 12.69999999999999929 -20.10000000000000853 0.00000000000000442 0.00000000000000000 -0.00000000000000022 -1.00000000000000000 1.00000000000000000 0.00000000000000000 0.00000000000000000 0.00000000000000000 -1.00000000000000000 0.00000000000000022 3.96875000000000000
1 12.70000000000000107 -20.10000000000001208 0.00000000000000442 -0.00000000000000000 -0.00000000000000022 -1.00000000000000000 0.00000000000000000 -1.00000000000000000 0.00000000000000022 -1.00000000000000000 0.00000000000000000 0.00000000000000000 
Triangulations 0

TShapes 19
Ve
0.000000100000000
16.668749999999999 -20.100000000000009 0.000000000000000
0 0

0101101
*
Ed
 0.000000100000000 1 1 0
1  1 0 0.000000000000000 197.622908914933248
3  1 2CN 1 0 0.000000000000000 197.622908914933248
0

0101000
+19 4 -19 6 *
Ed
 0.000000100000000 1 1 0
1  2 0 0.000000000000000 6.283185307179586
2  3 2 10 0.000000000000000 6.283185307179586
2  4 2 12 0.000000000000000 6.283185307179586
2  5 3 13 0.000000000000000 6.283185307179586
2  6 4 18 0.000000000000000 6.283185307179586
2  7 1 19 0.000000000000000 6.283185307179586
2  8 1 20 0.000000000000000 6.283185307179586
2  9 4 21 0.000000000000000 6.283185307179586
0

0101000
+19 0 -19 0 *
Wi

0101100
+18 0 -18 0 -17 4 +17 6 *
Fa
0  0.000000100000000 1 0

0101000
+16 0 *
Wi

0101100
+17 0 *
Fa
0  0.000000100000000 3 23

0101000
+14 24 *
Sh

0101100
+15 0 +13 22 -13 25 *
So

0100000
+12 0 *
Ve
0.000000100000000
16.668749999999999 20.100000000000009 0.000000000000000
0 0

0101101
*
Ed
 0.000000100000000 1 1 0
1  3 0 0.000000000000000 197.622908914933248
3  10 11CN 5 0 0.000000000000000 197.622908914933248
0

0101000
+10 4 -10 6 *
Ed
 0.000000100000000 1 1 0
1  4 0 0.000000000000000 6.283185307179586
2  12 6 10 0.000000000000000 6.283185307179586
2  13 6 12 0.000000000000000 6.283185307179586
2  14 7 13 0.000000000000000 6.283185307179586
2  15 4 18 0.000000000000000 6.283185307179586
2  16 5 19 0.000000000000000 6.283185307179586
2  17 5 20 0.000000000000000 6.283185307179586
2  18 4 21 0.000000000000000 6.283185307179586
0

0101000
+10 0 -10 0 *
Wi

0101100
+9 0 -9 0 -8 4 +8 6 *
Fa
0  0.000000100000000 5 0

0101000
+7 0 *
Wi

0101100
+8 0 *
Fa
0  0.000000100000000 7 23

0101000
+5 24 *
Sh

0101100
+6 0 +4 22 -4 25 *
So

0100000
+3 0 *
Co

1100000
+11 0 +2 0 *

+1 0 