
CASCADE Topology V1, (c) Matra-Datavision
Locations 46
1
1.000000000000000 0.000000000000000 0.000000000000000 0.000000000000000 
0.000000000000000 1.000000000000000 0.000000000000000 0.000000000000000 
0.000000000000000 0.000000000000000 1.000000000000000 0.000000000000000 
1
1.000000000000000 0.000000000000000 0.000000000000000 0.000000000000000 
0.000000000000000 0.000000000000000 -1.000000000000000 0.000000000000000 
0.000000000000000 1.000000000000000 0.000000000000000 0.000000000000000 
1
1.000000000000000 0.000000000000000 0.000000000000000 0.000000000000000 
0.000000000000000 1.000000000000000 0.000000000000000 0.000000000000000 
0.000000000000000 0.000000000000000 1.000000000000000 0.000000000000000 
1
1.000000000000000 0.000000000000000 0.000000000000000 0.000000000000000 
0.000000000000000 1.000000000000000 0.000000000000000 0.000000000000000 
0.000000000000000 0.000000000000000 1.000000000000000 0.000000000000000 
1
1.000000000000000 0.000000000000000 0.000000000000000 0.000000000000000 
0.000000000000000 1.000000000000000 0.000000000000000 0.000000000000000 
0.000000000000000 0.000000000000000 1.000000000000000 0.000000000000000 
1
1.000000000000000 0.000000000000000 0.000000000000000 0.000000000000000 
0.000000000000000 1.000000000000000 0.000000000000000 0.000000000000000 
0.000000000000000 0.000000000000000 1.000000000000000 0.000000000000000 
1
1.000000000000000 0.000000000000000 0.000000000000000 0.000000000000000 
0.000000000000000 1.000000000000000 0.000000000000000 0.000000000000000 
0.000000000000000 0.000000000000000 1.000000000000000 0.000000000000000 
1
1.000000000000000 0.000000000000000 0.000000000000000 0.000000000000000 
0.000000000000000 1.000000000000000 0.000000000000000 0.000000000000000 
0.000000000000000 0.000000000000000 1.000000000000000 0.000000000000000 
1
1.000000000000000 0.000000000000000 0.000000000000000 0.000000000000000 
0.000000000000000 1.000000000000000 0.000000000000000 0.000000000000000 
0.000000000000000 0.000000000000000 1.000000000000000 0.000000000000000 
1
1.000000000000000 0.000000000000000 0.000000000000000 -0.000000000000000 
0.000000000000000 1.000000000000000 0.000000000000000 -45.500000000000000 
0.000000000000000 0.000000000000000 1.000000000000000 0.000000000000010 
2  1 1 2 1 3 1 4 1 5 1 6 1 7 1 8 1 9 -1 10 1 0
1
1.000000000000000 0.000000000000000 0.000000000000000 0.000000000000000 
0.000000000000000 1.000000000000000 0.000000000000000 91.000000000000000 
0.000000000000000 0.000000000000000 1.000000000000000 -0.000000000000020 
2  1 1 2 1 3 1 4 1 5 1 6 1 7 1 8 1 9 -1 10 1 12 1 0
1
1.000000000000000 0.000000000000000 0.000000000000000 0.000000000000000 
0.000000000000000 1.000000000000000 0.000000000000000 0.000000000000000 
0.000000000000000 0.000000000000000 1.000000000000000 0.000000000000000 
1
1.000000000000000 0.000000000000000 0.000000000000000 0.000000000000000 
0.000000000000000 0.000000000000000 -1.000000000000000 0.000000000000000 
0.000000000000000 1.000000000000000 0.000000000000000 0.000000000000000 
1
1.000000000000000 0.000000000000000 0.000000000000000 0.000000000000000 
0.000000000000000 -0.000000000000000 -1.000000000000000 0.000000000000000 
0.000000000000000 1.000000000000000 -0.000000000000000 0.000000000000000 
1
1.000000000000000 0.000000000000000 0.000000000000000 0.000000000000000 
0.000000000000000 1.000000000000000 0.000000000000000 0.000000000000000 
0.000000000000000 0.000000000000000 1.000000000000000 0.000000000000000 
2  14 1 15 1 16 -1 17 1 1 1 2 1 3 1 4 1 5 1 6 1 7 1 8 1 9 -1 10 1 0
2  10 -1 9 1 8 -1 7 -1 6 -1 5 -1 4 -1 3 -1 2 -1 1 -1 17 -1 16 1 15 -1 14 -1 0
2  12 -1 10 -1 9 1 8 -1 7 -1 6 -1 5 -1 4 -1 3 -1 2 -1 1 -1 17 -1 16 1 15 -1 14 -1 0
2  17 -1 16 1 15 -1 14 -1 0
2  14 1 15 1 16 -1 17 1 1 1 2 1 3 1 4 1 5 1 6 1 7 1 8 1 9 -1 10 1 12 1 0
2  16 -1 17 1 0
1
1.000000000000000 0.000000000000000 0.000000000000000 0.000000000000000 
0.000000000000000 1.000000000000000 0.000000000000000 0.000000000000000 
0.000000000000000 0.000000000000000 1.000000000000000 0.000000000000000 
1
1.000000000000000 0.000000000000000 0.000000000000000 0.000000000000000 
0.000000000000000 1.000000000000000 0.000000000000000 0.000000000000000 
0.000000000000000 0.000000000000000 1.000000000000000 0.000000000000000 
2  24 1 25 -1 7 -1 6 -1 5 -1 4 -1 3 -1 2 -1 1 -1 0
1
1.000000000000000 0.000000000000000 0.000000000000000 0.000000000000000 
0.000000000000000 1.000000000000000 0.000000000000000 10.000000000000000 
0.000000000000000 0.000000000000000 1.000000000000000 -0.000000000000002 
2  27 -1 24 1 25 -1 7 -1 6 -1 5 -1 4 -1 3 -1 2 -1 1 -1 0
1
1.000000000000000 0.000000000000000 0.000000000000000 -0.000000000000000 
0.000000000000000 1.000000000000000 0.000000000000000 -5.000000000000000 
0.000000000000000 0.000000000000000 1.000000000000000 0.000000000000001 
1
1.000000000000000 0.000000000000000 0.000000000000000 0.000000000000000 
0.000000000000000 1.000000000000000 0.000000000000000 0.000000000000000 
0.000000000000000 0.000000000000000 1.000000000000000 0.000000000000000 
1
1.000000000000000 0.000000000000000 0.000000000000000 0.000000000000000 
0.000000000000000 1.000000000000000 0.000000000000000 0.000000000000000 
0.000000000000000 0.000000000000000 1.000000000000000 0.000000000000000 
2  29 -1 30 1 31 -1 7 -1 6 -1 5 -1 4 -1 3 -1 2 -1 1 -1 0
1
1.000000000000000 0.000000000000000 0.000000000000000 0.000000000000000 
0.000000000000000 1.000000000000000 0.000000000000000 10.000000000000000 
0.000000000000000 0.000000000000000 1.000000000000000 -0.000000000000002 
2  33 -1 29 -1 30 1 31 -1 7 -1 6 -1 5 -1 4 -1 3 -1 2 -1 1 -1 0
1
1.000000000000000 0.000000000000000 0.000000000000000 -0.000000000000000 
0.000000000000000 1.000000000000000 0.000000000000000 -45.500000000000000 
0.000000000000000 0.000000000000000 1.000000000000000 0.000000000000010 
1
1.000000000000000 0.000000000000000 0.000000000000000 0.000000000000000 
0.000000000000000 1.000000000000000 0.000000000000000 0.000000000000000 
0.000000000000000 0.000000000000000 1.000000000000000 0.000000000000000 
1
1.000000000000000 0.000000000000000 0.000000000000000 0.000000000000000 
0.000000000000000 1.000000000000000 0.000000000000000 0.000000000000000 
0.000000000000000 0.000000000000000 1.000000000000000 0.000000000000000 
2  35 -1 36 1 37 -1 7 -1 6 -1 5 -1 4 -1 3 -1 2 -1 1 -1 0
1
1.000000000000000 0.000000000000000 0.000000000000000 0.000000000000000 
0.000000000000000 1.000000000000000 0.000000000000000 91.000000000000000 
0.000000000000000 0.000000000000000 1.000000000000000 -0.000000000000020 
2  39 -1 35 -1 36 1 37 -1 7 -1 6 -1 5 -1 4 -1 3 -1 2 -1 1 -1 0
2  10 -1 9 1 8 -1 7 -1 6 -1 5 -1 4 -1 3 -1 2 -1 1 -1 0
2  12 -1 10 -1 9 1 8 -1 7 -1 6 -1 5 -1 4 -1 3 -1 2 -1 1 -1 0
2  16 -1 17 1 1 1 2 1 3 1 4 1 5 1 6 1 7 1 8 1 9 -1 10 1 0
2  17 -1 16 1 0
2  14 1 15 1 16 -1 17 1 0
2  16 -1 17 1 1 1 2 1 3 1 4 1 5 1 6 1 7 1 8 1 9 -1 10 1 12 1 0
Curve2ds 88
1 0.00000000000000000 0.00000000000000000 0.00000000000000000 -1.00000000000000000 
1 0.00000000000000000 0.00000000000000000 0.00000000000000000 -1.00000000000000000 
1 -0.00000000000000100 0.00000000000000000 0.00000000000000000 -1.00000000000000000 
1 23.39999999999999858 0.00000000000000000 0.00000000000000000 -1.00000000000000000 
1 -1.00000000000000000 0.00000000000000000 1.00000000000000000 0.00000000000000000 
1 -1.00000000000000000 -91.00000000000000000 1.00000000000000000 0.00000000000000000 
1 1.57079632679489589 0.00000000000000000 0.00000000000000000 -1.00000000000000000 
1 0.00000000000000000 -0.00000000000000000 1.00000000000000000 0.00000000000000000 
2 -6.83828125000251763 16.56171874999748184 -1.00000000000000000 0.00000000000000000 0.00000000000000000 1.00000000000000000 1.00000000000000000
1 0.00000000000000000 0.00000000000000000 1.00000000000000000 0.00000000000000000 
1 0.00000000000000000 -10.00000000000000000 1.00000000000000000 0.00000000000000000 
1 0.00000000000000000 0.00000000000000000 1.00000000000000000 0.00000000000000000 
1 0.00000000000000000 -10.00000000000000000 1.00000000000000000 0.00000000000000000 
1 0.00000000000000000 0.00000000000000000 1.00000000000000000 0.00000000000000000 
1 0.00000000000000000 -91.00000000000000000 1.00000000000000000 0.00000000000000000 
1 0.00000000000000000 0.00000000000000000 1.00000000000000000 0.00000000000000000 
1 0.00000000000000000 -91.00000000000000000 1.00000000000000000 0.00000000000000000 
1 1.57079632679489700 0.00000000000000000 0.00000000000000000 -1.00000000000000000 
1 0.00000000000000000 0.00000000000000000 -0.00000000000000022 -1.00000000000000000 
1 0.00000000000000089 0.00000000000000000 1.00000000000000000 0.00000000000000000 
2 -6.83828125000251763 -6.83828125000251763 -1.00000000000000000 0.00000000000000000 -0.00000000000000000 -1.00000000000000000 1.00000000000000000
1 0.00000000000000000 0.00000000000000000 1.00000000000000000 0.00000000000000000 
1 0.00000000000000000 -10.00000000000000000 1.00000000000000000 0.00000000000000000 
1 0.00000000000000000 0.00000000000000000 1.00000000000000000 0.00000000000000000 
1 0.00000000000000000 -10.00000000000000000 1.00000000000000000 0.00000000000000000 
1 0.00000000000000000 0.00000000000000000 1.00000000000000000 0.00000000000000000 
1 0.00000000000000000 -91.00000000000000000 1.00000000000000000 0.00000000000000000 
1 0.00000000000000000 0.00000000000000000 1.00000000000000000 0.00000000000000000 
1 0.00000000000000000 -91.00000000000000000 1.00000000000000000 0.00000000000000000 
1 4.71238898038468967 0.00000000000000000 0.00000000000000000 -1.00000000000000000 
1 1.57079632679489700 0.00000000000000000 0.00000000000000000 -1.00000000000000000 
1 23.39999999999999858 -0.00000000000001421 -0.00000000000000022 -1.00000000000000000 
1 -1.00000000000000000 -0.00000000000000000 1.00000000000000000 0.00000000000000000 
1 -1.00000000000001998 -91.00000000000000000 1.00000000000000000 0.00000000000000000 
1 3.14159265358979312 0.00000000000000000 0.00000000000000000 -1.00000000000000000 
1 20.22499999999999787 0.00000000000000000 0.00000000000000000 -1.00000000000000000 
1 -3.14159265358979312 -0.00000000000000000 1.00000000000000000 0.00000000000000000 
2 -5.66328124999100435 16.56171874999748184 -1.00000000000000000 0.00000000000000000 -0.00000000000000000 -1.00000000000000000 1.00000000000000000
1 0.00000000000000000 0.00000000000000000 1.00000000000000000 0.00000000000000000 
1 0.00000000000000000 -10.00000000000000000 1.00000000000000000 0.00000000000000000 
1 0.00000000000000000 0.00000000000000000 1.00000000000000000 0.00000000000000000 
1 0.00000000000000000 -10.00000000000000000 1.00000000000000000 0.00000000000000000 
1 0.00000000000000000 0.00000000000000000 1.00000000000000000 0.00000000000000000 
1 0.00000000000000000 -91.00000000000000000 1.00000000000000000 0.00000000000000000 
1 0.00000000000000000 0.00000000000000000 1.00000000000000000 0.00000000000000000 
1 0.00000000000000000 -91.00000000000000000 1.00000000000000000 0.00000000000000000 
1 3.14159265358979312 0.00000000000000000 0.00000000000000000 -1.00000000000000000 
1 -1.57079632679489656 0.00000000000000000 1.00000000000000000 0.00000000000000000 
2 16.56171874999748184 -6.83828125000251763 -1.00000000000000000 0.00000000000000000 -0.00000000000000000 -1.00000000000000000 1.00000000000000000
1 0.00000000000000000 0.00000000000000000 1.00000000000000000 0.00000000000000000 
1 0.00000000000000000 -10.00000000000000000 1.00000000000000000 0.00000000000000000 
1 0.00000000000000000 0.00000000000000000 1.00000000000000000 0.00000000000000000 
1 0.00000000000000000 -10.00000000000000000 1.00000000000000000 0.00000000000000000 
1 0.00000000000000000 0.00000000000000000 1.00000000000000000 0.00000000000000000 
1 0.00000000000000000 -91.00000000000000000 1.00000000000000000 0.00000000000000000 
1 0.00000000000000000 0.00000000000000000 1.00000000000000000 0.00000000000000000 
1 0.00000000000000000 -91.00000000000000000 1.00000000000000000 0.00000000000000000 
1 6.28318530717958623 0.00000000000000000 0.00000000000000000 -1.00000000000000000 
1 0.00000000000000000 0.00000000000000000 0.00000000000000000 -1.00000000000000000 
1 -1.00000000000000000 0.00000000000000000 1.00000000000000000 0.00000000000000000 
1 -1.00000000000000000 -91.00000000000000000 1.00000000000000000 0.00000000000000000 
1 3.14159265358979312 0.00000000000000000 0.00000000000000000 -1.00000000000000000 
1 4.71238898038468879 0.00000000000000000 0.00000000000000000 -1.00000000000000000 
1 20.22499999998848352 0.00000000000000000 0.00000000000000022 -1.00000000000000000 
1 -4.71238898038468879 0.00000000000000000 1.00000000000000000 0.00000000000000000 
2 -3.66328124999100346 -3.66328125000251781 -1.00000000000000000 0.00000000000000000 0.00000000000000000 1.00000000000000000 1.00000000000000000
1 0.00000000000000000 0.00000000000000000 1.00000000000000000 0.00000000000000000 
1 0.00000000000000000 -10.00000000000000000 1.00000000000000000 0.00000000000000000 
1 0.00000000000000000 0.00000000000000000 1.00000000000000000 0.00000000000000000 
1 0.00000000000000000 -10.00000000000000000 1.00000000000000000 0.00000000000000000 
1 0.00000000000000000 0.00000000000000000 1.00000000000000000 0.00000000000000000 
1 0.00000000000000000 -91.00000000000000000 1.00000000000000000 0.00000000000000000 
1 0.00000000000000000 0.00000000000000000 1.00000000000000000 0.00000000000000000 
1 0.00000000000000000 -91.00000000000000000 1.00000000000000000 0.00000000000000000 
1 4.71238898038468967 0.00000000000000000 0.00000000000000000 -1.00000000000000000 
1 0.00000000000000000 -0.00000000000001421 0.00000000000000022 -1.00000000000000000 
1 -3.14159265358979312 0.00000000000000000 1.00000000000000000 0.00000000000000000 
2 16.56171874999748184 -5.66328125000251781 -1.00000000000000000 0.00000000000000000 -0.00000000000000000 -1.00000000000000000 1.00000000000000000
1 0.00000000000000000 0.00000000000000000 1.00000000000000000 0.00000000000000000 
1 0.00000000000000000 -10.00000000000000000 1.00000000000000000 0.00000000000000000 
1 0.00000000000000000 0.00000000000000000 1.00000000000000000 0.00000000000000000 
1 0.00000000000000000 -10.00000000000000000 1.00000000000000000 0.00000000000000000 
1 0.00000000000000000 0.00000000000000000 1.00000000000000000 0.00000000000000000 
1 0.00000000000000000 -91.00000000000000000 1.00000000000000000 0.00000000000000000 
1 0.00000000000000000 0.00000000000000000 1.00000000000000000 0.00000000000000000 
1 0.00000000000000000 -91.00000000000000000 1.00000000000000000 0.00000000000000000 
1 -1.00000000000000000 -0.00000000000000000 1.00000000000000000 0.00000000000000000 
1 -0.99999999999997868 -91.00000000000000000 1.00000000000000000 0.00000000000000000 
Curves 24
1 24.39999999999999858 -45.50000000000000000 0.00000000000001001 0.00000000000000000 1.00000000000000000 -0.00000000000000022 
1 1.00000000000000000 -45.50000000000000000 0.00000000000001001 0.00000000000000000 1.00000000000000000 -0.00000000000000022 
1 25.39999999999999858 0.00000000000000000 0.00000000000000000 -1.00000000000000000 0.00000000000000000 0.00000000000000000 
1 25.39999999999999858 -45.50000000000000000 1.00000000000000999 0.00000000000000000 1.00000000000000000 -0.00000000000000022 
8 0.00000000000000000 1.57079632679489611
2 24.39999999999999858 0.99999999999999978 -0.00000000000000044 0.00000000000000000 0.00000000000000044 1.00000000000000000 0.00000000000000000 -1.00000000000000000 0.00000000000000044 1.00000000000000000 0.00000000000000000 -0.00000000000000000 1.00000000000000000
1 0.00000000000000000 -45.50000000000000000 1.00000000000000999 0.00000000000000000 1.00000000000000000 -0.00000000000000022 
8 -0.00000000000000089 1.57079632679489656
2 0.99999999999999978 0.99999999999999978 -0.00000000000000044 -0.00000000000000000 -0.00000000000000044 -1.00000000000000000 0.00000000000000000 -1.00000000000000000 0.00000000000000044 -1.00000000000000000 0.00000000000000000 0.00000000000000000 1.00000000000000000
1 25.39999999999999858 -45.50000000000000000 2.17500000001152305 0.00000000000000000 1.00000000000000000 -0.00000000000000022 
1 25.39999999999999858 3.17500000001151328 0.00000000000000000 0.00000000000000000 -1.00000000000000000 0.00000000000000000 
1 0.00000000000000000 -45.49999999999998579 24.40000000000000924 0.00000000000000000 1.00000000000000000 -0.00000000000000022 
1 0.00000000000000000 0.00000000000000000 0.00000000000000000 0.00000000000000000 1.00000000000000000 0.00000000000000000 
1 24.39999999999999858 -45.50000000000000000 3.17500000001152305 0.00000000000000000 1.00000000000000000 -0.00000000000000022 
8 3.14159265358979312 4.71238898038468967
2 24.39999999999999858 2.17500000001151328 -0.00000000000000097 -0.00000000000000000 -0.00000000000000044 -1.00000000000000000 0.00000000000000000 -1.00000000000000000 0.00000000000000044 -1.00000000000000000 0.00000000000000000 0.00000000000000000 1.00000000000000000
1 1.00000000000000000 -45.49999999999998579 25.40000000000000924 0.00000000000000000 1.00000000000000000 -0.00000000000000022 
8 1.57079632679489656 3.14159265358979312
2 0.99999999999999978 24.39999999999999858 -0.00000000000001084 -0.00000000000000000 -0.00000000000000044 -1.00000000000000000 0.00000000000000000 -1.00000000000000000 0.00000000000000044 -1.00000000000000000 0.00000000000000000 0.00000000000000000 1.00000000000000000
1 4.17499999999999982 -45.50000000000000000 3.17500000001152438 0.00000000000000000 1.00000000000000000 -0.00000000000000022 
1 3.17499999999999982 3.17500000001151328 0.00000000000000000 1.00000000000000000 0.00000000000000000 0.00000000000000000 
1 2.17499999999999982 -45.49999999999998579 25.40000000000000924 0.00000000000000000 1.00000000000000000 -0.00000000000000022 
1 0.00000000000000000 25.39999999999999858 0.00000000000000000 1.00000000000000000 0.00000000000000000 0.00000000000000000 
1 3.17499999999999982 -45.50000000000000000 4.17500000001152394 0.00000000000000000 1.00000000000000000 -0.00000000000000022 
8 4.71238898038468879 6.28318530717958623
2 4.17499999999999982 4.17500000001151417 -0.00000000000000185 0.00000000000000000 0.00000000000000044 1.00000000000000000 0.00000000000000000 -1.00000000000000000 0.00000000000000044 1.00000000000000000 0.00000000000000000 -0.00000000000000000 1.00000000000000000
1 3.17499999999999982 -45.49999999999998579 24.40000000000000924 0.00000000000000000 1.00000000000000000 -0.00000000000000022 
8 3.14159265358979312 4.71238898038468967
2 2.17499999999999982 24.39999999999999858 -0.00000000000001084 -0.00000000000000000 -0.00000000000000044 -1.00000000000000000 0.00000000000000000 -1.00000000000000000 0.00000000000000044 -1.00000000000000000 0.00000000000000000 0.00000000000000000 1.00000000000000000
1 3.17499999999999982 25.39999999999999858 0.00000000000000000 0.00000000000000000 -1.00000000000000000 0.00000000000000000 
Polygon3D 0
PolygonOnTriangulations 0
Surfaces 37
1 24.39999999999999858 -45.50000000000000000 0.00000000000001001 0.00000000000000000 0.00000000000000022 1.00000000000000000 -1.00000000000000000 0.00000000000000000 0.00000000000000000 0.00000000000000000 -1.00000000000000000 0.00000000000000022 
2 24.39999999999999858 -45.50000000000000000 1.00000000000000977 0.00000000000000000 -1.00000000000000000 0.00000000000000044 0.00000000000000000 -0.00000000000000044 -1.00000000000000000 1.00000000000000000 0.00000000000000000 0.00000000000000000 1.00000000000000000
2 0.99999999999999978 -45.50000000000000000 1.00000000000000977 -0.00000000000000000 -1.00000000000000000 0.00000000000000044 0.00000000000000000 -0.00000000000000044 -1.00000000000000000 -1.00000000000000000 -0.00000000000000000 -0.00000000000000000 1.00000000000000000
1 25.39999999999999858 -45.50000000000000000 2.17500000001152349 -1.00000000000000000 0.00000000000000000 0.00000000000000000 0.00000000000000000 0.00000000000000000 -1.00000000000000000 -0.00000000000000000 -1.00000000000000000 -0.00000000000000000 
2 24.39999999999999858 0.99999999999999978 -0.00000000000000044 0.00000000000000000 0.00000000000000044 1.00000000000000000 0.00000000000000000 -1.00000000000000000 0.00000000000000044 1.00000000000000000 0.00000000000000000 -0.00000000000000000 1.00000000000000000
1 7.83828125000251763 0.00000000000000174 7.83828125000251763 -0.00000000000000000 1.00000000000000000 -0.00000000000000022 0.00000000000000000 0.00000000000000022 1.00000000000000000 1.00000000000000000 0.00000000000000000 -0.00000000000000000 
2 24.39999999999999858 0.00000000000000044 0.99999999999999978 0.00000000000000000 -1.00000000000000000 0.00000000000000044 0.00000000000000000 -0.00000000000000044 -1.00000000000000000 1.00000000000000000 0.00000000000000000 0.00000000000000000 1.00000000000000000
2 24.39999999999999858 -5.00000000000000000 1.00000000000000089 0.00000000000000000 -1.00000000000000000 0.00000000000000044 0.00000000000000000 -0.00000000000000044 -1.00000000000000000 1.00000000000000000 0.00000000000000000 0.00000000000000000 1.00000000000000000
2 24.39999999999999858 -45.50000000000000000 1.00000000000000977 0.00000000000000000 -1.00000000000000000 0.00000000000000044 0.00000000000000000 -0.00000000000000044 -1.00000000000000000 1.00000000000000000 0.00000000000000000 0.00000000000000000 1.00000000000000000
1 0.00000000000000000 -45.50000000000000000 1.00000000000000999 1.00000000000000000 -0.00000000000000000 0.00000000000000000 0.00000000000000000 0.00000000000000000 1.00000000000000000 -0.00000000000000000 -1.00000000000000000 0.00000000000000000 
2 0.99999999999999978 0.99999999999999978 -0.00000000000000044 0.00000000000000000 0.00000000000000044 1.00000000000000000 0.00000000000000000 -1.00000000000000000 0.00000000000000044 -1.00000000000000000 -0.00000000000000000 0.00000000000000000 1.00000000000000000
2 0.99999999999999978 0.00000000000000044 0.99999999999999978 -0.00000000000000000 -1.00000000000000000 0.00000000000000044 0.00000000000000000 -0.00000000000000044 -1.00000000000000000 -1.00000000000000000 -0.00000000000000000 -0.00000000000000000 1.00000000000000000
2 0.99999999999999978 -5.00000000000000000 1.00000000000000089 -0.00000000000000000 -1.00000000000000000 0.00000000000000044 0.00000000000000000 -0.00000000000000044 -1.00000000000000000 -1.00000000000000000 -0.00000000000000000 -0.00000000000000000 1.00000000000000000
2 0.99999999999999978 -45.50000000000000000 1.00000000000000977 -0.00000000000000000 -1.00000000000000000 0.00000000000000044 0.00000000000000000 -0.00000000000000044 -1.00000000000000000 -1.00000000000000000 -0.00000000000000000 -0.00000000000000000 1.00000000000000000
2 24.39999999999999858 -45.50000000000000000 2.17500000001152349 -0.00000000000000000 -1.00000000000000000 0.00000000000000044 0.00000000000000000 -0.00000000000000044 -1.00000000000000000 -1.00000000000000000 -0.00000000000000000 -0.00000000000000000 1.00000000000000000
2 0.99999999999999978 -45.49999999999998579 24.40000000000000924 -0.00000000000000000 -1.00000000000000000 0.00000000000000044 0.00000000000000000 -0.00000000000000044 -1.00000000000000000 -1.00000000000000000 -0.00000000000000000 -0.00000000000000000 1.00000000000000000
1 4.17499999999999982 -45.50000000000000000 3.17500000001152349 0.00000000000000000 -0.00000000000000022 -1.00000000000000000 1.00000000000000000 0.00000000000000000 0.00000000000000000 0.00000000000000000 -1.00000000000000000 0.00000000000000022 
2 24.39999999999999858 2.17500000001151328 -0.00000000000000097 0.00000000000000000 0.00000000000000044 1.00000000000000000 0.00000000000000000 1.00000000000000000 -0.00000000000000044 1.00000000000000000 -0.00000000000000000 -0.00000000000000000 1.00000000000000000
2 24.39999999999999858 0.00000000000000097 2.17500000001151328 -0.00000000000000000 -1.00000000000000000 0.00000000000000044 0.00000000000000000 -0.00000000000000044 -1.00000000000000000 -1.00000000000000000 -0.00000000000000000 -0.00000000000000000 1.00000000000000000
2 24.39999999999999858 -4.99999999999999911 2.17500000001151417 -0.00000000000000000 -1.00000000000000000 0.00000000000000044 0.00000000000000000 -0.00000000000000044 -1.00000000000000000 -1.00000000000000000 -0.00000000000000000 -0.00000000000000000 1.00000000000000000
2 24.39999999999999858 -45.50000000000000000 2.17500000001152349 -0.00000000000000000 -1.00000000000000000 0.00000000000000044 0.00000000000000000 -0.00000000000000044 -1.00000000000000000 -1.00000000000000000 -0.00000000000000000 -0.00000000000000000 1.00000000000000000
1 1.00000000000000000 -45.50000000000000000 25.40000000000000924 0.00000000000000000 -0.00000000000000022 -1.00000000000000000 1.00000000000000000 0.00000000000000000 0.00000000000000000 0.00000000000000000 -1.00000000000000000 0.00000000000000022 
2 0.99999999999999978 24.39999999999999858 -0.00000000000001084 0.00000000000000000 0.00000000000000044 1.00000000000000000 -1.00000000000000000 0.00000000000000000 0.00000000000000000 -0.00000000000000000 1.00000000000000000 -0.00000000000000044 1.00000000000000000
2 0.99999999999999978 0.00000000000001084 24.39999999999999858 -0.00000000000000000 -1.00000000000000000 0.00000000000000044 0.00000000000000000 -0.00000000000000044 -1.00000000000000000 -1.00000000000000000 -0.00000000000000000 -0.00000000000000000 1.00000000000000000
2 0.99999999999999978 -4.99999999999998934 24.39999999999999858 -0.00000000000000000 -1.00000000000000000 0.00000000000000044 0.00000000000000000 -0.00000000000000044 -1.00000000000000000 -1.00000000000000000 -0.00000000000000000 -0.00000000000000000 1.00000000000000000
2 0.99999999999999978 -45.49999999999998579 24.40000000000000924 -0.00000000000000000 -1.00000000000000000 0.00000000000000044 0.00000000000000000 -0.00000000000000044 -1.00000000000000000 -1.00000000000000000 -0.00000000000000000 -0.00000000000000000 1.00000000000000000
2 4.17499999999999982 -45.50000000000000000 4.17500000001152394 0.00000000000000000 -1.00000000000000000 0.00000000000000044 0.00000000000000000 -0.00000000000000044 -1.00000000000000000 1.00000000000000000 0.00000000000000000 0.00000000000000000 1.00000000000000000
2 2.17499999999999982 -45.49999999999998579 24.40000000000000924 -0.00000000000000000 -1.00000000000000000 0.00000000000000044 0.00000000000000000 -0.00000000000000044 -1.00000000000000000 -1.00000000000000000 -0.00000000000000000 -0.00000000000000000 1.00000000000000000
1 3.17499999999999982 -45.50000000000000000 24.40000000000000924 -1.00000000000000000 0.00000000000000000 0.00000000000000000 0.00000000000000000 0.00000000000000000 -1.00000000000000000 -0.00000000000000000 -1.00000000000000000 -0.00000000000000000 
2 4.17499999999999982 4.17500000001151417 -0.00000000000000185 0.00000000000000000 0.00000000000000044 1.00000000000000000 -1.00000000000000000 0.00000000000000000 0.00000000000000000 0.00000000000000000 -1.00000000000000000 0.00000000000000044 1.00000000000000000
2 4.17499999999999982 0.00000000000000185 4.17500000001151417 0.00000000000000000 -1.00000000000000000 0.00000000000000044 0.00000000000000000 -0.00000000000000044 -1.00000000000000000 1.00000000000000000 0.00000000000000000 0.00000000000000000 1.00000000000000000
2 4.17499999999999982 -4.99999999999999822 4.17500000001151506 0.00000000000000000 -1.00000000000000000 0.00000000000000044 0.00000000000000000 -0.00000000000000044 -1.00000000000000000 1.00000000000000000 0.00000000000000000 0.00000000000000000 1.00000000000000000
2 4.17499999999999982 -45.50000000000000000 4.17500000001152394 0.00000000000000000 -1.00000000000000000 0.00000000000000044 0.00000000000000000 -0.00000000000000044 -1.00000000000000000 1.00000000000000000 0.00000000000000000 0.00000000000000000 1.00000000000000000
2 2.17499999999999982 24.39999999999999858 -0.00000000000001084 0.00000000000000000 0.00000000000000044 1.00000000000000000 0.00000000000000000 1.00000000000000000 -0.00000000000000044 1.00000000000000000 -0.00000000000000000 -0.00000000000000000 1.00000000000000000
2 2.17499999999999982 0.00000000000001084 24.39999999999999858 -0.00000000000000000 -1.00000000000000000 0.00000000000000044 0.00000000000000000 -0.00000000000000044 -1.00000000000000000 -1.00000000000000000 -0.00000000000000000 -0.00000000000000000 1.00000000000000000
2 2.17499999999999982 -4.99999999999998934 24.39999999999999858 -0.00000000000000000 -1.00000000000000000 0.00000000000000044 0.00000000000000000 -0.00000000000000044 -1.00000000000000000 -1.00000000000000000 -0.00000000000000000 -0.00000000000000000 1.00000000000000000
2 2.17499999999999982 -45.49999999999998579 24.40000000000000924 -0.00000000000000000 -1.00000000000000000 0.00000000000000044 0.00000000000000000 -0.00000000000000044 -1.00000000000000000 -1.00000000000000000 -0.00000000000000000 -0.00000000000000000 1.00000000000000000
Triangulations 0

TShapes 64
Ve
0.000000100000000
24.399999999999999 -0.000000000000000 0.000000000000000
0 0

0101101
*
Ed
 0.000000100000000 1 1 0
1  1 0 0.000000000000000 91.000000000000000
2  1 2 0 0.000000000000000 91.000000000000000
4 C1 1 0 2 0
2  2 1 0 0.000000000000000 91.000000000000000
0

0101000
+64 11 -64 13 *
Ve
0.000000100000000
1.000000000000000 -0.000000000000000 0.000000000000000
0 0

0101101
*
Ed
 0.000000100000000 1 1 0
1  2 0 0.000000000000000 91.000000000000000
2  3 3 0 0.000000000000000 91.000000000000000
4 C1 1 0 3 0
2  4 1 0 0.000000000000000 91.000000000000000
0

0101000
+62 11 -62 13 *
Ed
 0.000000100000000 1 1 0
1  3 0 1.000000000000000 24.399999999999999
2  5 1 19 1.000000000000000 24.399999999999999
2  6 1 20 1.000000000000000 24.399999999999999
0

0101000
+64 21 -62 21 *
Wi

0101100
+63 0 -61 0 -60 18 +60 22 *
Fa
0  0.000000100000000 1 0

0111000
+59 0 *
Ve
0.000000100000000
25.399999999999999 1.000000000000000 -0.000000000000000
0 0

0101101
*
Ed
 0.000000100000000 1 1 0
1  4 0 0.000000000000000 91.000000000000000
2  7 2 0 0.000000000000000 91.000000000000000
4 C1 2 0 4 0
0

0101000
+57 11 -57 13 *
Ed
 0.000000100000000 1 1 0
1  5 0 0.000000000000000 1.570796326794896
2  8 5 0 0.000000000000000 1.570796326794896
2  9 6 23 0.000000000000000 1.570796326794896
2  10 7 26 0.000000000000000 1.570796326794896
2  11 7 28 0.000000000000000 1.570796326794896
2  12 8 32 0.000000000000000 1.570796326794896
2  13 8 34 0.000000000000000 1.570796326794896
2  14 9 38 0.000000000000000 1.570796326794896
2  15 9 40 0.000000000000000 1.570796326794896
2  16 2 41 0.000000000000000 1.570796326794896
2  17 2 42 0.000000000000000 1.570796326794896
0

0101000
+64 0 -57 0 *
Wi

0101100
+63 0 -56 0 -55 11 +55 13 *
Fa
0  0.000000100000000 2 0

0111000
+54 0 *
Ve
0.000000100000000
-0.000000000000000 1.000000000000000 -0.000000000000000
0 0

0101101
*
Ed
 0.000000100000000 1 1 0
1  6 0 0.000000000000000 91.000000000000000
2  18 3 0 0.000000000000000 91.000000000000000
4 C1 3 0 10 0
2  19 10 0 0.000000000000000 91.000000000000000
0

0101000
+52 11 -52 13 *
Ed
 0.000000100000000 1 1 0
1  7 0 -0.000000000000001 1.570796326794897
2  20 11 0 -0.000000000000001 1.570796326794897
2  21 6 23 -0.000000000000001 1.570796326794897
2  22 12 26 -0.000000000000001 1.570796326794897
2  23 12 28 -0.000000000000001 1.570796326794897
2  24 13 32 -0.000000000000001 1.570796326794897
2  25 13 34 -0.000000000000001 1.570796326794897
2  26 14 38 -0.000000000000001 1.570796326794897
2  27 14 40 -0.000000000000001 1.570796326794897
2  28 3 41 -0.000000000000001 1.570796326794897
2  29 3 42 -0.000000000000001 1.570796326794897
0

0101000
+62 0 -52 0 *
Wi

0101100
+61 0 -51 0 -50 11 +50 13 *
Fa
0  0.000000100000000 3 0

0111000
+49 0 *
Ve
0.000000100000000
25.399999999999999 2.175000000011513 -0.000000000000001
0 0

0101101
*
Ed
 0.000000100000000 1 1 0
1  8 0 0.000000000000000 91.000000000000000
2  30 15 0 0.000000000000000 91.000000000000000
4 C1 4 0 15 0
0

0101000
+47 11 -47 13 *
Ed
 0.000000100000000 1 1 0
1  9 0 1.000000000000000 2.175000000011514
0

0101000
+47 21 -57 21 *
Wi

0101100
+46 0 -56 0 -45 18 +45 22 *
Fa
0  0.000000100000000 4 0

0111000
+44 0 *
Ve
0.000000100000000
-0.000000000000000 24.399999999999999 -0.000000000000011
0 0

0101101
*
Ed
 0.000000100000000 1 1 0
1  10 0 0.000000000000000 91.000000000000000
2  31 16 0 0.000000000000000 91.000000000000000
4 C1 10 0 16 0
2  32 10 0 0.000000000000000 91.000000000000000
0

0101000
+42 11 -42 13 *
Ed
 0.000000100000000 1 1 0
1  11 0 1.000000000000000 24.399999999999999
2  33 10 19 1.000000000000000 24.399999999999999
2  34 10 20 1.000000000000000 24.399999999999999
0

0101000
+52 21 -42 21 *
Wi

0101100
+51 0 -41 0 -40 18 +40 22 *
Fa
0  0.000000100000000 10 0

0111000
+39 0 *
Ve
0.000000100000000
24.399999999999999 3.175000000011513 -0.000000000000001
0 0

0101101
*
Ed
 0.000000100000000 1 1 0
1  12 0 0.000000000000000 91.000000000000000
2  35 15 0 0.000000000000000 91.000000000000000
4 C1 15 0 17 0
2  36 17 0 0.000000000000000 91.000000000000000
0

0101000
+37 11 -37 13 *
Ed
 0.000000100000000 1 1 0
1  13 0 3.141592653589793 4.712388980384690
2  37 18 0 3.141592653589793 4.712388980384690
2  38 6 23 3.141592653589793 4.712388980384690
2  39 19 26 3.141592653589793 4.712388980384690
2  40 19 28 3.141592653589793 4.712388980384690
2  41 20 32 3.141592653589793 4.712388980384690
2  42 20 34 3.141592653589793 4.712388980384690
2  43 21 38 3.141592653589793 4.712388980384690
2  44 21 40 3.141592653589793 4.712388980384690
2  45 15 41 3.141592653589793 4.712388980384690
2  46 15 42 3.141592653589793 4.712388980384690
0

0101000
+37 0 -47 0 *
Wi

0101100
+36 0 -46 0 -35 11 +35 13 *
Fa
0  0.000000100000000 15 0

0111000
+34 0 *
Ve
0.000000100000000
1.000000000000000 25.399999999999999 -0.000000000000011
0 0

0101101
*
Ed
 0.000000100000000 1 1 0
1  14 0 0.000000000000000 91.000000000000000
2  47 16 0 0.000000000000000 91.000000000000000
4 C1 16 0 22 0
0

0101000
+32 11 -32 13 *
Ed
 0.000000100000000 1 1 0
1  15 0 1.570796326794897 3.141592653589793
2  48 23 0 1.570796326794897 3.141592653589793
2  49 6 23 1.570796326794897 3.141592653589793
2  50 24 26 1.570796326794897 3.141592653589793
2  51 24 28 1.570796326794897 3.141592653589793
2  52 25 32 1.570796326794897 3.141592653589793
2  53 25 34 1.570796326794897 3.141592653589793
2  54 26 38 1.570796326794897 3.141592653589793
2  55 26 40 1.570796326794897 3.141592653589793
2  56 16 41 1.570796326794897 3.141592653589793
2  57 16 42 1.570796326794897 3.141592653589793
0

0101000
+42 0 -32 0 *
Wi

0101100
+41 0 -31 0 -30 11 +30 13 *
Fa
0  0.000000100000000 16 0

0111000
+29 0 *
Ve
0.000000100000000
4.175000000000000 3.175000000011514 -0.000000000000001
0 0

0101101
*
Ed
 0.000000100000000 1 1 0
1  16 0 0.000000000000000 91.000000000000000
2  58 27 0 0.000000000000000 91.000000000000000
4 C1 17 0 27 0
2  59 17 0 0.000000000000000 91.000000000000000
0

0101000
+27 11 -27 13 *
Ed
 0.000000100000000 1 1 0
1  17 0 1.000000000000000 21.224999999999998
2  60 17 19 1.000000000000000 21.224999999999998
2  61 17 20 1.000000000000000 21.224999999999998
0

0101000
+27 21 -37 21 *
Wi

0101100
+26 0 -36 0 -25 18 +25 22 *
Fa
0  0.000000100000000 17 0

0111000
+24 0 *
Ve
0.000000100000000
2.175000000000000 25.399999999999999 -0.000000000000011
0 0

0101101
*
Ed
 0.000000100000000 1 1 0
1  18 0 0.000000000000000 91.000000000000000
2  62 28 0 0.000000000000000 91.000000000000000
4 C1 22 0 28 0
0

0101000
+22 11 -22 13 *
Ed
 0.000000100000000 1 1 0
1  19 0 1.000000000000000 2.175000000000000
0

0101000
+32 21 -22 21 *
Wi

0101100
+31 0 -21 0 -20 18 +20 22 *
Fa
0  0.000000100000000 22 0

0111000
+19 0 *
Ve
0.000000100000000
3.175000000000000 4.175000000011514 -0.000000000000002
0 0

0101101
*
Ed
 0.000000100000000 1 1 0
1  20 0 0.000000000000000 91.000000000000000
2  63 27 0 0.000000000000000 91.000000000000000
4 C1 27 0 29 0
2  64 29 0 0.000000000000000 91.000000000000000
0

0101000
+17 11 -17 13 *
Ed
 0.000000100000000 1 1 0
1  21 0 4.712388980384689 6.283185307179586
2  65 30 0 4.712388980384689 6.283185307179586
2  66 6 23 4.712388980384689 6.283185307179586
2  67 31 26 4.712388980384689 6.283185307179586
2  68 31 28 4.712388980384689 6.283185307179586
2  69 32 32 4.712388980384689 6.283185307179586
2  70 32 34 4.712388980384689 6.283185307179586
2  71 33 38 4.712388980384689 6.283185307179586
2  72 33 40 4.712388980384689 6.283185307179586
2  73 27 41 4.712388980384689 6.283185307179586
2  74 27 42 4.712388980384689 6.283185307179586
0

0101000
+17 0 -27 0 *
Wi

0101100
+16 0 -26 0 -15 11 +15 13 *
Fa
0  0.000000100000000 27 0

0111000
+14 0 *
Ve
0.000000100000000
3.175000000000000 24.399999999999999 -0.000000000000011
0 0

0101101
*
Ed
 0.000000100000000 1 1 0
1  22 0 0.000000000000000 91.000000000000000
2  75 28 0 0.000000000000000 91.000000000000000
4 C1 28 0 29 0
2  76 29 0 0.000000000000000 91.000000000000000
0

0101000
+12 11 -12 13 *
Ed
 0.000000100000000 1 1 0
1  23 0 3.141592653589793 4.712388980384690
2  77 34 0 3.141592653589793 4.712388980384690
2  78 6 23 3.141592653589793 4.712388980384690
2  79 35 26 3.141592653589793 4.712388980384690
2  80 35 28 3.141592653589793 4.712388980384690
2  81 36 32 3.141592653589793 4.712388980384690
2  82 36 34 3.141592653589793 4.712388980384690
2  83 37 38 3.141592653589793 4.712388980384690
2  84 37 40 3.141592653589793 4.712388980384690
2  85 28 41 3.141592653589793 4.712388980384690
2  86 28 42 3.141592653589793 4.712388980384690
0

0101000
+22 0 -12 0 *
Wi

0101100
+21 0 -11 0 -10 11 +10 13 *
Fa
0  0.000000100000000 28 0

0111000
+9 0 *
Ed
 0.000000100000000 1 1 0
1  24 0 1.000000000000000 21.224999999988484
2  87 29 19 1.000000000000000 21.224999999988484
2  88 29 20 1.000000000000000 21.224999999988484
0

0101000
+12 21 -17 21 *
Wi

0101100
+11 0 -16 0 -7 18 +7 22 *
Fa
0  0.000000100000000 29 0

0111000
+6 0 *
Wi

0101100
+60 45 -55 0 +50 0 +45 45 +40 45 +35 0 +30 0 +25 45 +20 45 +15 0 
+10 0 +7 45 *
Fa
0  0.000000100000000 6 0

0111000
+4 44 *
Sh

0101100
+58 0 -53 0 +48 0 +43 0 +38 0 +33 0 +28 0 +23 0 +18 0 +13 0 
+8 0 +5 0 +3 43 -3 46 *
So

1100000
-2 0 *

+1 0 