
CASCADE Topology V1, (c) Matra-Datavision
Locations 60
1
1.000000000000000 0.000000000000000 0.000000000000000 0.000000000000000 
0.000000000000000 1.000000000000000 0.000000000000000 0.000000000000000 
0.000000000000000 0.000000000000000 1.000000000000000 0.000000000000000 
1
1.000000000000000 0.000000000000000 0.000000000000000 0.000000000000000 
0.000000000000000 1.000000000000000 0.000000000000000 0.000000000000000 
0.000000000000000 0.000000000000000 1.000000000000000 0.000000000000000 
1
1.000000000000000 0.000000000000000 0.000000000000000 0.000000000000000 
0.000000000000000 1.000000000000000 0.000000000000000 0.000000000000000 
0.000000000000000 0.000000000000000 1.000000000000000 0.000000000000000 
2  2 1 3 -1 0
1
1.000000000000000 0.000000000000000 0.000000000000000 0.000000000000000 
0.000000000000000 1.000000000000000 0.000000000000000 0.000000000000000 
0.000000000000000 0.000000000000000 1.000000000000000 0.000000000000000 
1
1.000000000000000 0.000000000000000 0.000000000000000 0.000000000000000 
0.000000000000000 0.000000000000000 -1.000000000000000 0.000000000000000 
0.000000000000000 1.000000000000000 0.000000000000000 0.000000000000000 
1
1.000000000000000 0.000000000000000 0.000000000000000 0.000000000000000 
0.000000000000000 1.000000000000000 0.000000000000000 0.000000000000000 
0.000000000000000 0.000000000000000 1.000000000000000 0.000000000000000 
1
1.000000000000000 0.000000000000000 0.000000000000000 0.000000000000000 
0.000000000000000 1.000000000000000 0.000000000000000 0.000000000000000 
0.000000000000000 0.000000000000000 1.000000000000000 0.000000000000000 
1
1.000000000000000 0.000000000000000 0.000000000000000 0.000000000000000 
0.000000000000000 1.000000000000000 0.000000000000000 0.000000000000000 
0.000000000000000 0.000000000000000 1.000000000000000 0.000000000000000 
1
1.000000000000000 0.000000000000000 0.000000000000000 0.000000000000000 
0.000000000000000 1.000000000000000 0.000000000000000 0.000000000000000 
0.000000000000000 0.000000000000000 1.000000000000000 0.000000000000000 
1
1.000000000000000 0.000000000000000 0.000000000000000 0.000000000000000 
0.000000000000000 1.000000000000000 0.000000000000000 0.000000000000000 
0.000000000000000 0.000000000000000 1.000000000000000 0.000000000000000 
1
1.000000000000000 0.000000000000000 0.000000000000000 0.000000000000000 
0.000000000000000 1.000000000000000 0.000000000000000 0.000000000000000 
0.000000000000000 0.000000000000000 1.000000000000000 0.000000000000000 
1
1.000000000000000 0.000000000000000 0.000000000000000 0.000000000000000 
0.000000000000000 1.000000000000000 0.000000000000000 0.000000000000000 
0.000000000000000 0.000000000000000 1.000000000000000 0.000000000000000 
1
1.000000000000000 0.000000000000000 0.000000000000000 -0.000000000000000 
0.000000000000000 1.000000000000000 0.000000000000000 -45.500000000000000 
0.000000000000000 0.000000000000000 1.000000000000000 0.000000000000010 
2  5 1 6 1 7 1 8 1 9 1 10 1 11 1 12 1 13 -1 14 1 0
1
1.000000000000000 0.000000000000000 0.000000000000000 0.000000000000000 
0.000000000000000 1.000000000000000 0.000000000000000 91.000000000000000 
0.000000000000000 0.000000000000000 1.000000000000000 -0.000000000000020 
2  5 1 6 1 7 1 8 1 9 1 10 1 11 1 12 1 13 -1 14 1 16 1 0
1
1.000000000000000 0.000000000000000 0.000000000000000 0.000000000000000 
0.000000000000000 1.000000000000000 0.000000000000000 0.000000000000000 
0.000000000000000 0.000000000000000 1.000000000000000 0.000000000000000 
1
1.000000000000000 0.000000000000000 0.000000000000000 0.000000000000000 
0.000000000000000 0.000000000000000 -1.000000000000000 0.000000000000000 
0.000000000000000 1.000000000000000 0.000000000000000 0.000000000000000 
1
1.000000000000000 0.000000000000000 0.000000000000000 0.000000000000000 
0.000000000000000 -0.000000000000000 -1.000000000000000 0.000000000000000 
0.000000000000000 1.000000000000000 -0.000000000000000 0.000000000000000 
1
1.000000000000000 0.000000000000000 0.000000000000000 0.000000000000000 
0.000000000000000 1.000000000000000 0.000000000000000 0.000000000000000 
0.000000000000000 0.000000000000000 1.000000000000000 0.000000000000000 
2  18 1 19 1 20 -1 21 1 5 1 6 1 7 1 8 1 9 1 10 1 11 1 12 1 13 -1 14 1 0
2  14 -1 13 1 12 -1 11 -1 10 -1 9 -1 8 -1 7 -1 6 -1 5 -1 21 -1 20 1 19 -1 18 -1 0
2  16 -1 14 -1 13 1 12 -1 11 -1 10 -1 9 -1 8 -1 7 -1 6 -1 5 -1 21 -1 20 1 19 -1 18 -1 0
2  21 -1 20 1 19 -1 18 -1 0
2  18 1 19 1 20 -1 21 1 5 1 6 1 7 1 8 1 9 1 10 1 11 1 12 1 13 -1 14 1 16 1 0
2  20 -1 21 1 0
1
1.000000000000000 0.000000000000000 0.000000000000000 0.000000000000000 
0.000000000000000 1.000000000000000 0.000000000000000 0.000000000000000 
0.000000000000000 0.000000000000000 1.000000000000000 0.000000000000000 
1
1.000000000000000 0.000000000000000 0.000000000000000 0.000000000000000 
0.000000000000000 1.000000000000000 0.000000000000000 0.000000000000000 
0.000000000000000 0.000000000000000 1.000000000000000 0.000000000000000 
2  28 1 29 -1 11 -1 10 -1 9 -1 8 -1 7 -1 6 -1 5 -1 0
1
1.000000000000000 0.000000000000000 0.000000000000000 0.000000000000000 
0.000000000000000 1.000000000000000 0.000000000000000 10.000000000000000 
0.000000000000000 0.000000000000000 1.000000000000000 -0.000000000000002 
2  31 -1 28 1 29 -1 11 -1 10 -1 9 -1 8 -1 7 -1 6 -1 5 -1 0
1
1.000000000000000 0.000000000000000 0.000000000000000 -0.000000000000000 
0.000000000000000 1.000000000000000 0.000000000000000 -5.000000000000000 
0.000000000000000 0.000000000000000 1.000000000000000 0.000000000000001 
1
1.000000000000000 0.000000000000000 0.000000000000000 0.000000000000000 
0.000000000000000 1.000000000000000 0.000000000000000 0.000000000000000 
0.000000000000000 0.000000000000000 1.000000000000000 0.000000000000000 
1
1.000000000000000 0.000000000000000 0.000000000000000 0.000000000000000 
0.000000000000000 1.000000000000000 0.000000000000000 0.000000000000000 
0.000000000000000 0.000000000000000 1.000000000000000 0.000000000000000 
2  33 -1 34 1 35 -1 11 -1 10 -1 9 -1 8 -1 7 -1 6 -1 5 -1 0
1
1.000000000000000 0.000000000000000 0.000000000000000 0.000000000000000 
0.000000000000000 1.000000000000000 0.000000000000000 10.000000000000000 
0.000000000000000 0.000000000000000 1.000000000000000 -0.000000000000002 
2  37 -1 33 -1 34 1 35 -1 11 -1 10 -1 9 -1 8 -1 7 -1 6 -1 5 -1 0
1
1.000000000000000 0.000000000000000 0.000000000000000 -0.000000000000000 
0.000000000000000 1.000000000000000 0.000000000000000 -45.500000000000000 
0.000000000000000 0.000000000000000 1.000000000000000 0.000000000000010 
1
1.000000000000000 0.000000000000000 0.000000000000000 0.000000000000000 
0.000000000000000 1.000000000000000 0.000000000000000 0.000000000000000 
0.000000000000000 0.000000000000000 1.000000000000000 0.000000000000000 
1
1.000000000000000 0.000000000000000 0.000000000000000 0.000000000000000 
0.000000000000000 1.000000000000000 0.000000000000000 0.000000000000000 
0.000000000000000 0.000000000000000 1.000000000000000 0.000000000000000 
2  39 -1 40 1 41 -1 11 -1 10 -1 9 -1 8 -1 7 -1 6 -1 5 -1 0
1
1.000000000000000 0.000000000000000 0.000000000000000 0.000000000000000 
0.000000000000000 1.000000000000000 0.000000000000000 91.000000000000000 
0.000000000000000 0.000000000000000 1.000000000000000 -0.000000000000020 
2  43 -1 39 -1 40 1 41 -1 11 -1 10 -1 9 -1 8 -1 7 -1 6 -1 5 -1 0
2  14 -1 13 1 12 -1 11 -1 10 -1 9 -1 8 -1 7 -1 6 -1 5 -1 0
2  16 -1 14 -1 13 1 12 -1 11 -1 10 -1 9 -1 8 -1 7 -1 6 -1 5 -1 0
2  20 -1 21 1 5 1 6 1 7 1 8 1 9 1 10 1 11 1 12 1 13 -1 14 1 2 1 3 -1 0
2  21 -1 20 1 0
2  18 1 19 1 20 -1 21 1 0
2  20 -1 21 1 5 1 6 1 7 1 8 1 9 1 10 1 11 1 12 1 13 -1 14 1 16 1 2 1 3 -1 0
2  18 1 19 1 20 -1 21 1 5 1 6 1 7 1 8 1 9 1 10 1 11 1 12 1 13 -1 14 1 2 1 3 -1 0
2  18 1 19 1 20 -1 21 1 5 1 6 1 7 1 8 1 9 1 10 1 11 1 12 1 13 -1 14 1 16 1 2 1 3 -1 0
1
1.000000000000000 0.000000000000000 0.000000000000000 0.000000000000000 
0.000000000000000 1.000000000000000 0.000000000000000 0.000000000000000 
0.000000000000000 0.000000000000000 1.000000000000000 0.000000000000000 
1
0.000000000000000 0.000000000000000 -1.000000000000000 0.000000000000000 
-1.000000000000000 0.000000000000000 0.000000000000000 0.000000000000000 
0.000000000000000 1.000000000000000 0.000000000000000 0.000000000000000 
2  53 1 54 1 3 -1 0
2  3 1 54 -1 53 -1 0
1
1.000000000000000 0.000000000000000 0.000000000000000 197.622908914933276 
0.000000000000000 1.000000000000000 0.000000000000000 0.000000000000000 
0.000000000000000 0.000000000000000 1.000000000000000 0.000000000000000 
2  57 -1 3 1 54 -1 53 -1 0
2  54 -1 53 -1 0
2  2 1 54 -1 53 -1 0
Curve2ds 104
1 0.00000000000000000 0.00000000000000000 0.00000000000000000 -1.00000000000000000 
1 0.00000000000000000 0.00000000000000000 0.00000000000000000 -1.00000000000000000 
1 -0.00000000000000100 0.00000000000000000 0.00000000000000000 -1.00000000000000000 
1 23.39999999999999858 0.00000000000000000 0.00000000000000000 -1.00000000000000000 
1 -1.00000000000000000 0.00000000000000000 1.00000000000000000 0.00000000000000000 
1 -1.00000000000000000 -91.00000000000000000 1.00000000000000000 0.00000000000000000 
1 1.57079632679489589 0.00000000000000000 0.00000000000000000 -1.00000000000000000 
1 0.00000000000000000 -0.00000000000000000 1.00000000000000000 0.00000000000000000 
2 -6.83828125000251763 16.56171874999748184 -1.00000000000000000 0.00000000000000000 0.00000000000000000 1.00000000000000000 1.00000000000000000
1 0.00000000000000000 0.00000000000000000 1.00000000000000000 0.00000000000000000 
1 0.00000000000000000 -10.00000000000000000 1.00000000000000000 0.00000000000000000 
1 0.00000000000000000 0.00000000000000000 1.00000000000000000 0.00000000000000000 
1 0.00000000000000000 -10.00000000000000000 1.00000000000000000 0.00000000000000000 
1 0.00000000000000000 0.00000000000000000 1.00000000000000000 0.00000000000000000 
1 0.00000000000000000 -91.00000000000000000 1.00000000000000000 0.00000000000000000 
1 0.00000000000000000 0.00000000000000000 1.00000000000000000 0.00000000000000000 
1 0.00000000000000000 -91.00000000000000000 1.00000000000000000 0.00000000000000000 
1 1.57079632679489700 0.00000000000000000 0.00000000000000000 -1.00000000000000000 
1 0.00000000000000000 0.00000000000000000 -0.00000000000000022 -1.00000000000000000 
1 0.00000000000000089 0.00000000000000000 1.00000000000000000 0.00000000000000000 
2 -6.83828125000251763 -6.83828125000251763 -1.00000000000000000 0.00000000000000000 -0.00000000000000000 -1.00000000000000000 1.00000000000000000
1 0.00000000000000000 0.00000000000000000 1.00000000000000000 0.00000000000000000 
1 0.00000000000000000 -10.00000000000000000 1.00000000000000000 0.00000000000000000 
1 0.00000000000000000 0.00000000000000000 1.00000000000000000 0.00000000000000000 
1 0.00000000000000000 -10.00000000000000000 1.00000000000000000 0.00000000000000000 
1 0.00000000000000000 0.00000000000000000 1.00000000000000000 0.00000000000000000 
1 0.00000000000000000 -91.00000000000000000 1.00000000000000000 0.00000000000000000 
1 0.00000000000000000 0.00000000000000000 1.00000000000000000 0.00000000000000000 
1 0.00000000000000000 -91.00000000000000000 1.00000000000000000 0.00000000000000000 
1 -1.00000000000000000 -0.00000000000000000 1.00000000000000000 0.00000000000000000 
1 -1.00000000000001998 -91.00000000000000000 1.00000000000000000 0.00000000000000000 
1 -3.14159265358979312 -0.00000000000000000 1.00000000000000000 0.00000000000000000 
2 -5.66328124999100435 16.56171874999748184 -1.00000000000000000 0.00000000000000000 -0.00000000000000000 -1.00000000000000000 1.00000000000000000
1 0.00000000000000000 0.00000000000000000 1.00000000000000000 0.00000000000000000 
1 0.00000000000000000 -10.00000000000000000 1.00000000000000000 0.00000000000000000 
1 0.00000000000000000 0.00000000000000000 1.00000000000000000 0.00000000000000000 
1 0.00000000000000000 -10.00000000000000000 1.00000000000000000 0.00000000000000000 
1 0.00000000000000000 0.00000000000000000 1.00000000000000000 0.00000000000000000 
1 0.00000000000000000 -91.00000000000000000 1.00000000000000000 0.00000000000000000 
1 0.00000000000000000 0.00000000000000000 1.00000000000000000 0.00000000000000000 
1 0.00000000000000000 -91.00000000000000000 1.00000000000000000 0.00000000000000000 
1 -1.57079632679489656 0.00000000000000000 1.00000000000000000 0.00000000000000000 
2 16.56171874999748184 -6.83828125000251763 -1.00000000000000000 0.00000000000000000 -0.00000000000000000 -1.00000000000000000 1.00000000000000000
1 0.00000000000000000 0.00000000000000000 1.00000000000000000 0.00000000000000000 
1 0.00000000000000000 -10.00000000000000000 1.00000000000000000 0.00000000000000000 
1 0.00000000000000000 0.00000000000000000 1.00000000000000000 0.00000000000000000 
1 0.00000000000000000 -10.00000000000000000 1.00000000000000000 0.00000000000000000 
1 0.00000000000000000 0.00000000000000000 1.00000000000000000 0.00000000000000000 
1 0.00000000000000000 -91.00000000000000000 1.00000000000000000 0.00000000000000000 
1 0.00000000000000000 0.00000000000000000 1.00000000000000000 0.00000000000000000 
1 0.00000000000000000 -91.00000000000000000 1.00000000000000000 0.00000000000000000 
1 -1.00000000000000000 0.00000000000000000 1.00000000000000000 0.00000000000000000 
1 -1.00000000000000000 -91.00000000000000000 1.00000000000000000 0.00000000000000000 
1 -4.71238898038468879 0.00000000000000000 1.00000000000000000 0.00000000000000000 
2 -3.66328124999100346 -3.66328125000251781 -1.00000000000000000 0.00000000000000000 0.00000000000000000 1.00000000000000000 1.00000000000000000
1 0.00000000000000000 0.00000000000000000 1.00000000000000000 0.00000000000000000 
1 0.00000000000000000 -10.00000000000000000 1.00000000000000000 0.00000000000000000 
1 0.00000000000000000 0.00000000000000000 1.00000000000000000 0.00000000000000000 
1 0.00000000000000000 -10.00000000000000000 1.00000000000000000 0.00000000000000000 
1 0.00000000000000000 0.00000000000000000 1.00000000000000000 0.00000000000000000 
1 0.00000000000000000 -91.00000000000000000 1.00000000000000000 0.00000000000000000 
1 0.00000000000000000 0.00000000000000000 1.00000000000000000 0.00000000000000000 
1 0.00000000000000000 -91.00000000000000000 1.00000000000000000 0.00000000000000000 
1 -3.14159265358979312 0.00000000000000000 1.00000000000000000 0.00000000000000000 
2 16.56171874999748184 -5.66328125000251781 -1.00000000000000000 0.00000000000000000 -0.00000000000000000 -1.00000000000000000 1.00000000000000000
1 0.00000000000000000 0.00000000000000000 1.00000000000000000 0.00000000000000000 
1 0.00000000000000000 -10.00000000000000000 1.00000000000000000 0.00000000000000000 
1 0.00000000000000000 0.00000000000000000 1.00000000000000000 0.00000000000000000 
1 0.00000000000000000 -10.00000000000000000 1.00000000000000000 0.00000000000000000 
1 0.00000000000000000 0.00000000000000000 1.00000000000000000 0.00000000000000000 
1 0.00000000000000000 -91.00000000000000000 1.00000000000000000 0.00000000000000000 
1 0.00000000000000000 0.00000000000000000 1.00000000000000000 0.00000000000000000 
1 0.00000000000000000 -91.00000000000000000 1.00000000000000000 0.00000000000000000 
1 -1.00000000000000000 -0.00000000000000000 1.00000000000000000 0.00000000000000000 
1 -0.99999999999997868 -91.00000000000000000 1.00000000000000000 0.00000000000000000 
1 4.71238898038468967 0.00000000000000000 0.00000000000000000 -1.00000000000000000 
1 1.57079632679489700 0.00000000000000000 0.00000000000000000 -1.00000000000000000 
1 23.39999999999999858 -0.00000000000001421 -0.00000000000000022 -1.00000000000000000 
1 0.00000000000000000 0.00000000000000000 1.00000000000000000 0.00000000000000000 
1 0.00000000000000000 -197.62290891493327649 1.00000000000000000 0.00000000000000000 
2 0.00000000000000000 0.00000000000000000 0.00000000000000000 1.00000000000000000 -1.00000000000000000 0.00000000000000000 3.96875000000000000
2 11.69999999999998863 -78.30000000000001137 0.00000000000000000 1.00000000000000000 1.00000000000000000 -0.00000000000000000 3.96875000000000000
1 0.00000000000000000 0.00000000000000000 1.00000000000000000 0.00000000000000000 
1 0.00000000000000000 -197.62290891493327649 1.00000000000000000 0.00000000000000000 
2 0.00000000000000000 0.00000000000000000 0.00000000000000000 1.00000000000000000 -1.00000000000000000 0.00000000000000000 3.96875000000000000
2 11.69999999999998863 -12.69999999999998863 0.00000000000000000 1.00000000000000000 1.00000000000000000 -0.00000000000000000 3.96875000000000000
1 3.14159265358979312 0.00000000000000000 0.00000000000000000 -1.00000000000000000 
1 20.22499999999999787 0.00000000000000000 0.00000000000000000 -1.00000000000000000 
1 3.14159265358979312 0.00000000000000000 0.00000000000000000 -1.00000000000000000 
1 6.28318530717958623 0.00000000000000000 0.00000000000000000 -1.00000000000000000 
1 0.00000000000000000 0.00000000000000000 0.00000000000000000 -1.00000000000000000 
1 3.14159265358979312 0.00000000000000000 0.00000000000000000 -1.00000000000000000 
1 4.71238898038468879 0.00000000000000000 0.00000000000000000 -1.00000000000000000 
1 20.22499999998848352 0.00000000000000000 0.00000000000000022 -1.00000000000000000 
1 4.71238898038468967 0.00000000000000000 0.00000000000000000 -1.00000000000000000 
1 0.00000000000000000 -0.00000000000001421 0.00000000000000022 -1.00000000000000000 
2 11.70000000000000995 -78.30000000000001137 0.00000000000000000 1.00000000000000000 -1.00000000000000000 0.00000000000000000 3.96875000000000000
1 0.00000000000000000 -3.17499999999999982 1.00000000000000000 0.00000000000000000 
2 11.70000000000000995 -12.69999999999998863 0.00000000000000000 1.00000000000000000 -1.00000000000000000 0.00000000000000000 3.96875000000000000
1 0.00000000000000000 -3.17499999999999982 1.00000000000000000 0.00000000000000000 
1 0.00000000000000000 0.00000000000000000 0.00000000000000000 -1.00000000000000000 
1 6.28318530717958623 0.00000000000000000 0.00000000000000000 -1.00000000000000000 
1 0.00000000000000000 0.00000000000000000 0.00000000000000000 -1.00000000000000000 
1 6.28318530717958623 0.00000000000000000 0.00000000000000000 -1.00000000000000000 
Curves 30
1 24.39999999999999858 -45.50000000000000000 0.00000000000001001 0.00000000000000000 1.00000000000000000 -0.00000000000000022 
1 1.00000000000000000 -45.50000000000000000 0.00000000000001001 0.00000000000000000 1.00000000000000000 -0.00000000000000022 
1 25.39999999999999858 0.00000000000000000 0.00000000000000000 -1.00000000000000000 0.00000000000000000 0.00000000000000000 
1 25.39999999999999858 -45.50000000000000000 1.00000000000000999 0.00000000000000000 1.00000000000000000 -0.00000000000000022 
8 0.00000000000000000 1.57079632679489611
2 24.39999999999999858 0.99999999999999978 -0.00000000000000044 0.00000000000000000 0.00000000000000044 1.00000000000000000 0.00000000000000000 -1.00000000000000000 0.00000000000000044 1.00000000000000000 0.00000000000000000 -0.00000000000000000 1.00000000000000000
1 0.00000000000000000 -45.50000000000000000 1.00000000000000999 0.00000000000000000 1.00000000000000000 -0.00000000000000022 
8 -0.00000000000000089 1.57079632679489656
2 0.99999999999999978 0.99999999999999978 -0.00000000000000044 -0.00000000000000000 -0.00000000000000044 -1.00000000000000000 0.00000000000000000 -1.00000000000000000 0.00000000000000044 -1.00000000000000000 0.00000000000000000 0.00000000000000000 1.00000000000000000
1 25.39999999999999858 3.17500000001151328 0.00000000000000000 0.00000000000000000 -1.00000000000000000 0.00000000000000000 
1 0.00000000000000000 0.00000000000000000 0.00000000000000000 0.00000000000000000 1.00000000000000000 0.00000000000000000 
8 3.14159265358979312 4.71238898038468967
2 24.39999999999999858 2.17500000001151328 -0.00000000000000097 -0.00000000000000000 -0.00000000000000044 -1.00000000000000000 0.00000000000000000 -1.00000000000000000 0.00000000000000044 -1.00000000000000000 0.00000000000000000 0.00000000000000000 1.00000000000000000
8 1.57079632679489656 3.14159265358979312
2 0.99999999999999978 24.39999999999999858 -0.00000000000001084 -0.00000000000000000 -0.00000000000000044 -1.00000000000000000 0.00000000000000000 -1.00000000000000000 0.00000000000000044 -1.00000000000000000 0.00000000000000000 0.00000000000000000 1.00000000000000000
1 3.17499999999999982 3.17500000001151328 0.00000000000000000 1.00000000000000000 0.00000000000000000 0.00000000000000000 
1 0.00000000000000000 25.39999999999999858 0.00000000000000000 1.00000000000000000 0.00000000000000000 0.00000000000000000 
8 4.71238898038468879 6.28318530717958623
2 4.17499999999999982 4.17500000001151417 -0.00000000000000185 0.00000000000000000 0.00000000000000044 1.00000000000000000 0.00000000000000000 -1.00000000000000000 0.00000000000000044 1.00000000000000000 0.00000000000000000 -0.00000000000000000 1.00000000000000000
8 3.14159265358979312 4.71238898038468967
2 2.17499999999999982 24.39999999999999858 -0.00000000000001084 -0.00000000000000000 -0.00000000000000044 -1.00000000000000000 0.00000000000000000 -1.00000000000000000 0.00000000000000044 -1.00000000000000000 0.00000000000000000 0.00000000000000000 1.00000000000000000
1 3.17499999999999982 25.39999999999999858 0.00000000000000000 0.00000000000000000 -1.00000000000000000 0.00000000000000000 
1 25.39999999999999858 -45.50000000000000000 2.17500000001152305 0.00000000000000000 1.00000000000000000 -0.00000000000000022 
1 0.00000000000000000 -45.49999999999998579 24.40000000000000924 0.00000000000000000 1.00000000000000000 -0.00000000000000022 
2 -32.80000000000001137 12.69999999999999929 0.00000000000000000 0.00000000000000000 0.00000000000000000 1.00000000000000000 1.00000000000000000 0.00000000000000000 -0.00000000000000000 -0.00000000000000000 1.00000000000000000 0.00000000000000000 3.96875000000000000
2 32.80000000000001137 12.69999999999999929 0.00000000000000000 0.00000000000000000 0.00000000000000000 1.00000000000000000 1.00000000000000000 0.00000000000000000 -0.00000000000000000 -0.00000000000000000 1.00000000000000000 0.00000000000000000 3.96875000000000000
1 24.39999999999999858 -45.50000000000000000 3.17500000001152305 0.00000000000000000 1.00000000000000000 -0.00000000000000022 
1 1.00000000000000000 -45.49999999999998579 25.40000000000000924 0.00000000000000000 1.00000000000000000 -0.00000000000000022 
1 4.17499999999999982 -45.50000000000000000 3.17500000001152438 0.00000000000000000 1.00000000000000000 -0.00000000000000022 
1 2.17499999999999982 -45.49999999999998579 25.40000000000000924 0.00000000000000000 1.00000000000000000 -0.00000000000000022 
1 3.17499999999999982 -45.50000000000000000 4.17500000001152394 0.00000000000000000 1.00000000000000000 -0.00000000000000022 
1 3.17499999999999982 -45.49999999999998579 24.40000000000000924 0.00000000000000000 1.00000000000000000 -0.00000000000000022 
2 3.17499999999999982 32.80000000000001137 12.69999999999999929 -1.00000000000000000 0.00000000000000000 0.00000000000000000 0.00000000000000000 -1.00000000000000000 0.00000000000000000 0.00000000000000000 0.00000000000000000 1.00000000000000000 3.96875000000000000
2 3.17499999999999982 -32.80000000000001137 12.69999999999999929 -1.00000000000000000 0.00000000000000000 0.00000000000000000 0.00000000000000000 -1.00000000000000000 0.00000000000000000 0.00000000000000000 0.00000000000000000 1.00000000000000000 3.96875000000000000
1 0.00000000000000000 28.83125000000001137 12.69999999999999929 1.00000000000000000 0.00000000000000000 0.00000000000000000 
1 0.00000000000000000 -36.76875000000001137 12.69999999999999929 1.00000000000000000 0.00000000000000000 0.00000000000000000 
Polygon3D 0
PolygonOnTriangulations 0
Surfaces 41
1 24.39999999999999858 -45.50000000000000000 0.00000000000001001 0.00000000000000000 0.00000000000000022 1.00000000000000000 -1.00000000000000000 0.00000000000000000 0.00000000000000000 0.00000000000000000 -1.00000000000000000 0.00000000000000022 
2 24.39999999999999858 -45.50000000000000000 1.00000000000000977 0.00000000000000000 -1.00000000000000000 0.00000000000000044 0.00000000000000000 -0.00000000000000044 -1.00000000000000000 1.00000000000000000 0.00000000000000000 0.00000000000000000 1.00000000000000000
2 0.99999999999999978 -45.50000000000000000 1.00000000000000977 -0.00000000000000000 -1.00000000000000000 0.00000000000000044 0.00000000000000000 -0.00000000000000044 -1.00000000000000000 -1.00000000000000000 -0.00000000000000000 -0.00000000000000000 1.00000000000000000
1 25.39999999999999858 -45.50000000000000000 2.17500000001152349 -1.00000000000000000 0.00000000000000000 0.00000000000000000 0.00000000000000000 0.00000000000000000 -1.00000000000000000 -0.00000000000000000 -1.00000000000000000 -0.00000000000000000 
2 24.39999999999999858 0.99999999999999978 -0.00000000000000044 0.00000000000000000 0.00000000000000044 1.00000000000000000 0.00000000000000000 -1.00000000000000000 0.00000000000000044 1.00000000000000000 0.00000000000000000 -0.00000000000000000 1.00000000000000000
1 7.83828125000251763 0.00000000000000174 7.83828125000251763 -0.00000000000000000 1.00000000000000000 -0.00000000000000022 0.00000000000000000 0.00000000000000022 1.00000000000000000 1.00000000000000000 0.00000000000000000 -0.00000000000000000 
2 24.39999999999999858 0.00000000000000044 0.99999999999999978 0.00000000000000000 -1.00000000000000000 0.00000000000000044 0.00000000000000000 -0.00000000000000044 -1.00000000000000000 1.00000000000000000 0.00000000000000000 0.00000000000000000 1.00000000000000000
2 24.39999999999999858 -5.00000000000000000 1.00000000000000089 0.00000000000000000 -1.00000000000000000 0.00000000000000044 0.00000000000000000 -0.00000000000000044 -1.00000000000000000 1.00000000000000000 0.00000000000000000 0.00000000000000000 1.00000000000000000
2 24.39999999999999858 -45.50000000000000000 1.00000000000000977 0.00000000000000000 -1.00000000000000000 0.00000000000000044 0.00000000000000000 -0.00000000000000044 -1.00000000000000000 1.00000000000000000 0.00000000000000000 0.00000000000000000 1.00000000000000000
1 0.00000000000000000 -45.50000000000000000 1.00000000000000999 1.00000000000000000 -0.00000000000000000 0.00000000000000000 0.00000000000000000 0.00000000000000000 1.00000000000000000 -0.00000000000000000 -1.00000000000000000 0.00000000000000000 
2 0.99999999999999978 0.99999999999999978 -0.00000000000000044 0.00000000000000000 0.00000000000000044 1.00000000000000000 0.00000000000000000 -1.00000000000000000 0.00000000000000044 -1.00000000000000000 -0.00000000000000000 0.00000000000000000 1.00000000000000000
2 0.99999999999999978 0.00000000000000044 0.99999999999999978 -0.00000000000000000 -1.00000000000000000 0.00000000000000044 0.00000000000000000 -0.00000000000000044 -1.00000000000000000 -1.00000000000000000 -0.00000000000000000 -0.00000000000000000 1.00000000000000000
2 0.99999999999999978 -5.00000000000000000 1.00000000000000089 -0.00000000000000000 -1.00000000000000000 0.00000000000000044 0.00000000000000000 -0.00000000000000044 -1.00000000000000000 -1.00000000000000000 -0.00000000000000000 -0.00000000000000000 1.00000000000000000
2 0.99999999999999978 -45.50000000000000000 1.00000000000000977 -0.00000000000000000 -1.00000000000000000 0.00000000000000044 0.00000000000000000 -0.00000000000000044 -1.00000000000000000 -1.00000000000000000 -0.00000000000000000 -0.00000000000000000 1.00000000000000000
2 24.39999999999999858 2.17500000001151328 -0.00000000000000097 0.00000000000000000 0.00000000000000044 1.00000000000000000 0.00000000000000000 1.00000000000000000 -0.00000000000000044 1.00000000000000000 -0.00000000000000000 -0.00000000000000000 1.00000000000000000
2 24.39999999999999858 0.00000000000000097 2.17500000001151328 -0.00000000000000000 -1.00000000000000000 0.00000000000000044 0.00000000000000000 -0.00000000000000044 -1.00000000000000000 -1.00000000000000000 -0.00000000000000000 -0.00000000000000000 1.00000000000000000
2 24.39999999999999858 -4.99999999999999911 2.17500000001151417 -0.00000000000000000 -1.00000000000000000 0.00000000000000044 0.00000000000000000 -0.00000000000000044 -1.00000000000000000 -1.00000000000000000 -0.00000000000000000 -0.00000000000000000 1.00000000000000000
2 24.39999999999999858 -45.50000000000000000 2.17500000001152349 -0.00000000000000000 -1.00000000000000000 0.00000000000000044 0.00000000000000000 -0.00000000000000044 -1.00000000000000000 -1.00000000000000000 -0.00000000000000000 -0.00000000000000000 1.00000000000000000
2 24.39999999999999858 -45.50000000000000000 2.17500000001152349 -0.00000000000000000 -1.00000000000000000 0.00000000000000044 0.00000000000000000 -0.00000000000000044 -1.00000000000000000 -1.00000000000000000 -0.00000000000000000 -0.00000000000000000 1.00000000000000000
2 0.99999999999999978 24.39999999999999858 -0.00000000000001084 0.00000000000000000 0.00000000000000044 1.00000000000000000 -1.00000000000000000 0.00000000000000000 0.00000000000000000 -0.00000000000000000 1.00000000000000000 -0.00000000000000044 1.00000000000000000
2 0.99999999999999978 0.00000000000001084 24.39999999999999858 -0.00000000000000000 -1.00000000000000000 0.00000000000000044 0.00000000000000000 -0.00000000000000044 -1.00000000000000000 -1.00000000000000000 -0.00000000000000000 -0.00000000000000000 1.00000000000000000
2 0.99999999999999978 -4.99999999999998934 24.39999999999999858 -0.00000000000000000 -1.00000000000000000 0.00000000000000044 0.00000000000000000 -0.00000000000000044 -1.00000000000000000 -1.00000000000000000 -0.00000000000000000 -0.00000000000000000 1.00000000000000000
2 0.99999999999999978 -45.49999999999998579 24.40000000000000924 -0.00000000000000000 -1.00000000000000000 0.00000000000000044 0.00000000000000000 -0.00000000000000044 -1.00000000000000000 -1.00000000000000000 -0.00000000000000000 -0.00000000000000000 1.00000000000000000
2 0.99999999999999978 -45.49999999999998579 24.40000000000000924 -0.00000000000000000 -1.00000000000000000 0.00000000000000044 0.00000000000000000 -0.00000000000000044 -1.00000000000000000 -1.00000000000000000 -0.00000000000000000 -0.00000000000000000 1.00000000000000000
1 4.17499999999999982 -45.50000000000000000 3.17500000001152349 0.00000000000000000 -0.00000000000000022 -1.00000000000000000 1.00000000000000000 0.00000000000000000 0.00000000000000000 0.00000000000000000 -1.00000000000000000 0.00000000000000022 
2 4.17499999999999982 4.17500000001151417 -0.00000000000000185 0.00000000000000000 0.00000000000000044 1.00000000000000000 -1.00000000000000000 0.00000000000000000 0.00000000000000000 0.00000000000000000 -1.00000000000000000 0.00000000000000044 1.00000000000000000
2 4.17499999999999982 0.00000000000000185 4.17500000001151417 0.00000000000000000 -1.00000000000000000 0.00000000000000044 0.00000000000000000 -0.00000000000000044 -1.00000000000000000 1.00000000000000000 0.00000000000000000 0.00000000000000000 1.00000000000000000
2 4.17499999999999982 -4.99999999999999822 4.17500000001151506 0.00000000000000000 -1.00000000000000000 0.00000000000000044 0.00000000000000000 -0.00000000000000044 -1.00000000000000000 1.00000000000000000 0.00000000000000000 0.00000000000000000 1.00000000000000000
2 4.17499999999999982 -45.50000000000000000 4.17500000001152394 0.00000000000000000 -1.00000000000000000 0.00000000000000044 0.00000000000000000 -0.00000000000000044 -1.00000000000000000 1.00000000000000000 0.00000000000000000 0.00000000000000000 1.00000000000000000
2 4.17499999999999982 -45.50000000000000000 4.17500000001152394 0.00000000000000000 -1.00000000000000000 0.00000000000000044 0.00000000000000000 -0.00000000000000044 -1.00000000000000000 1.00000000000000000 0.00000000000000000 0.00000000000000000 1.00000000000000000
2 2.17499999999999982 24.39999999999999858 -0.00000000000001084 0.00000000000000000 0.00000000000000044 1.00000000000000000 0.00000000000000000 1.00000000000000000 -0.00000000000000044 1.00000000000000000 -0.00000000000000000 -0.00000000000000000 1.00000000000000000
2 2.17499999999999982 0.00000000000001084 24.39999999999999858 -0.00000000000000000 -1.00000000000000000 0.00000000000000044 0.00000000000000000 -0.00000000000000044 -1.00000000000000000 -1.00000000000000000 -0.00000000000000000 -0.00000000000000000 1.00000000000000000
2 2.17499999999999982 -4.99999999999998934 24.39999999999999858 -0.00000000000000000 -1.00000000000000000 0.00000000000000044 0.00000000000000000 -0.00000000000000044 -1.00000000000000000 -1.00000000000000000 -0.00000000000000000 -0.00000000000000000 1.00000000000000000
2 2.17499999999999982 -45.49999999999998579 24.40000000000000924 -0.00000000000000000 -1.00000000000000000 0.00000000000000044 0.00000000000000000 -0.00000000000000044 -1.00000000000000000 -1.00000000000000000 -0.00000000000000000 -0.00000000000000000 1.00000000000000000
2 2.17499999999999982 -45.49999999999998579 24.40000000000000924 -0.00000000000000000 -1.00000000000000000 0.00000000000000044 0.00000000000000000 -0.00000000000000044 -1.00000000000000000 -1.00000000000000000 -0.00000000000000000 -0.00000000000000000 1.00000000000000000
1 3.17499999999999982 -45.50000000000000000 24.40000000000000924 -1.00000000000000000 0.00000000000000000 0.00000000000000000 0.00000000000000000 0.00000000000000000 -1.00000000000000000 -0.00000000000000000 -1.00000000000000000 -0.00000000000000000 
2 0.00000000000000000 32.80000000000001137 12.69999999999999929 -1.00000000000000000 0.00000000000000000 0.00000000000000000 0.00000000000000000 -1.00000000000000000 0.00000000000000000 0.00000000000000000 0.00000000000000000 1.00000000000000000 3.96875000000000000
1 0.00000000000000000 32.80000000000001137 12.69999999999999929 -1.00000000000000000 -0.00000000000000000 -0.00000000000000000 0.00000000000000000 0.00000000000000000 -1.00000000000000000 0.00000000000000000 -1.00000000000000000 0.00000000000000000 
2 0.00000000000000000 -32.80000000000001137 12.69999999999999929 -1.00000000000000000 0.00000000000000000 0.00000000000000000 0.00000000000000000 -1.00000000000000000 0.00000000000000000 0.00000000000000000 0.00000000000000000 1.00000000000000000 3.96875000000000000
1 0.00000000000000000 -32.80000000000001137 12.69999999999999929 -1.00000000000000000 -0.00000000000000000 -0.00000000000000000 0.00000000000000000 0.00000000000000000 -1.00000000000000000 0.00000000000000000 -1.00000000000000000 0.00000000000000000 
1 1.00000000000000000 -45.50000000000000000 25.40000000000000924 0.00000000000000000 -0.00000000000000022 -1.00000000000000000 1.00000000000000000 0.00000000000000000 0.00000000000000000 0.00000000000000000 -1.00000000000000000 0.00000000000000022 
Triangulations 0

TShapes 82
Ve
0.000000100000000
24.399999999999999 -0.000000000000000 0.000000000000000
0 0

0101101
*
Ed
 0.000000100000000 1 1 0
1  1 0 0.000000000000000 91.000000000000000
2  1 2 0 0.000000000000000 91.000000000000000
4 C1 1 0 2 0
2  2 1 0 0.000000000000000 91.000000000000000
0

0101000
+82 15 -82 17 *
Ve
0.000000100000000
1.000000000000000 -0.000000000000000 0.000000000000000
0 0

0101101
*
Ed
 0.000000100000000 1 1 0
1  2 0 0.000000000000000 91.000000000000000
2  3 3 0 0.000000000000000 91.000000000000000
4 C1 1 0 3 0
2  4 1 0 0.000000000000000 91.000000000000000
0

0101000
+80 15 -80 17 *
Ed
 0.000000100000000 1 1 0
1  3 0 1.000000000000000 24.399999999999999
2  5 1 23 1.000000000000000 24.399999999999999
2  6 1 24 1.000000000000000 24.399999999999999
0

0101000
+82 25 -80 25 *
Wi

0101100
+81 0 -79 0 -78 22 +78 26 *
Fa
0  0.000000100000000 1 0

0111000
+77 0 *
Ve
0.000000100000000
25.399999999999999 1.000000000000000 -0.000000000000000
0 0

0101101
*
Ed
 0.000000100000000 1 1 0
1  4 0 0.000000000000000 91.000000000000000
2  7 2 0 0.000000000000000 91.000000000000000
4 C1 2 0 4 0
0

0101000
+75 15 -75 17 *
Ed
 0.000000100000000 1 1 0
1  5 0 0.000000000000000 1.570796326794896
2  8 5 0 0.000000000000000 1.570796326794896
2  9 6 27 0.000000000000000 1.570796326794896
2  10 7 30 0.000000000000000 1.570796326794896
2  11 7 32 0.000000000000000 1.570796326794896
2  12 8 36 0.000000000000000 1.570796326794896
2  13 8 38 0.000000000000000 1.570796326794896
2  14 9 42 0.000000000000000 1.570796326794896
2  15 9 44 0.000000000000000 1.570796326794896
2  16 2 45 0.000000000000000 1.570796326794896
2  17 2 46 0.000000000000000 1.570796326794896
0

0101000
+82 0 -75 0 *
Wi

0101100
+81 0 -74 0 -73 15 +73 17 *
Fa
0  0.000000100000000 2 0

0111000
+72 0 *
Ve
0.000000100000000
-0.000000000000000 1.000000000000000 -0.000000000000000
0 0

0101101
*
Ed
 0.000000100000000 1 1 0
1  6 0 0.000000000000000 91.000000000000000
2  18 3 0 0.000000000000000 91.000000000000000
4 C1 3 0 10 0
2  19 10 0 0.000000000000000 91.000000000000000
0

0101000
+70 15 -70 17 *
Ed
 0.000000100000000 1 1 0
1  7 0 -0.000000000000001 1.570796326794897
2  20 11 0 -0.000000000000001 1.570796326794897
2  21 6 27 -0.000000000000001 1.570796326794897
2  22 12 30 -0.000000000000001 1.570796326794897
2  23 12 32 -0.000000000000001 1.570796326794897
2  24 13 36 -0.000000000000001 1.570796326794897
2  25 13 38 -0.000000000000001 1.570796326794897
2  26 14 42 -0.000000000000001 1.570796326794897
2  27 14 44 -0.000000000000001 1.570796326794897
2  28 3 45 -0.000000000000001 1.570796326794897
2  29 3 46 -0.000000000000001 1.570796326794897
0

0101000
+80 0 -70 0 *
Wi

0101100
+79 0 -69 0 -68 15 +68 17 *
Fa
0  0.000000100000000 3 0

0111000
+67 0 *
Ve
0.000000100000000
25.399999999999999 2.175000000011513 -0.000000000000001
0 0

0101101
*
Ed
 0.000000100000000 1 1 0
1  8 0 1.000000000000000 2.175000000011514
0

0101000
+65 25 -75 25 *
Ve
0.000000100000000
-0.000000000000000 24.399999999999999 -0.000000000000011
0 0

0101101
*
Ed
 0.000000100000000 1 1 0
1  9 0 1.000000000000000 24.399999999999999
2  30 10 23 1.000000000000000 24.399999999999999
2  31 10 24 1.000000000000000 24.399999999999999
0

0101000
+70 25 -63 25 *
Ve
0.000000100000000
24.399999999999999 3.175000000011513 -0.000000000000001
0 0

0101101
*
Ed
 0.000000100000000 1 1 0
1  10 0 3.141592653589793 4.712388980384690
2  32 15 0 3.141592653589793 4.712388980384690
2  33 6 27 3.141592653589793 4.712388980384690
2  34 16 30 3.141592653589793 4.712388980384690
2  35 16 32 3.141592653589793 4.712388980384690
2  36 17 36 3.141592653589793 4.712388980384690
2  37 17 38 3.141592653589793 4.712388980384690
2  38 18 42 3.141592653589793 4.712388980384690
2  39 18 44 3.141592653589793 4.712388980384690
2  40 19 45 3.141592653589793 4.712388980384690
2  41 19 46 3.141592653589793 4.712388980384690
0

0101000
+61 0 -65 0 *
Ve
0.000000100000000
1.000000000000000 25.399999999999999 -0.000000000000011
0 0

0101101
*
Ed
 0.000000100000000 1 1 0
1  11 0 1.570796326794897 3.141592653589793
2  42 20 0 1.570796326794897 3.141592653589793
2  43 6 27 1.570796326794897 3.141592653589793
2  44 21 30 1.570796326794897 3.141592653589793
2  45 21 32 1.570796326794897 3.141592653589793
2  46 22 36 1.570796326794897 3.141592653589793
2  47 22 38 1.570796326794897 3.141592653589793
2  48 23 42 1.570796326794897 3.141592653589793
2  49 23 44 1.570796326794897 3.141592653589793
2  50 24 45 1.570796326794897 3.141592653589793
2  51 24 46 1.570796326794897 3.141592653589793
0

0101000
+63 0 -59 0 *
Ve
0.000000100000000
4.175000000000000 3.175000000011514 -0.000000000000001
0 0

0101101
*
Ed
 0.000000100000000 1 1 0
1  12 0 1.000000000000000 21.224999999999998
2  52 25 23 1.000000000000000 21.224999999999998
2  53 25 24 1.000000000000000 21.224999999999998
0

0101000
+57 25 -61 25 *
Ve
0.000000100000000
2.175000000000000 25.399999999999999 -0.000000000000011
0 0

0101101
*
Ed
 0.000000100000000 1 1 0
1  13 0 1.000000000000000 2.175000000000000
0

0101000
+59 25 -55 25 *
Ve
0.000000100000000
3.175000000000000 4.175000000011514 -0.000000000000002
0 0

0101101
*
Ed
 0.000000100000000 1 1 0
1  14 0 4.712388980384689 6.283185307179586
2  54 26 0 4.712388980384689 6.283185307179586
2  55 6 27 4.712388980384689 6.283185307179586
2  56 27 30 4.712388980384689 6.283185307179586
2  57 27 32 4.712388980384689 6.283185307179586
2  58 28 36 4.712388980384689 6.283185307179586
2  59 28 38 4.712388980384689 6.283185307179586
2  60 29 42 4.712388980384689 6.283185307179586
2  61 29 44 4.712388980384689 6.283185307179586
2  62 30 45 4.712388980384689 6.283185307179586
2  63 30 46 4.712388980384689 6.283185307179586
0

0101000
+53 0 -57 0 *
Ve
0.000000100000000
3.175000000000000 24.399999999999999 -0.000000000000011
0 0

0101101
*
Ed
 0.000000100000000 1 1 0
1  15 0 3.141592653589793 4.712388980384690
2  64 31 0 3.141592653589793 4.712388980384690
2  65 6 27 3.141592653589793 4.712388980384690
2  66 32 30 3.141592653589793 4.712388980384690
2  67 32 32 3.141592653589793 4.712388980384690
2  68 33 36 3.141592653589793 4.712388980384690
2  69 33 38 3.141592653589793 4.712388980384690
2  70 34 42 3.141592653589793 4.712388980384690
2  71 34 44 3.141592653589793 4.712388980384690
2  72 35 45 3.141592653589793 4.712388980384690
2  73 35 46 3.141592653589793 4.712388980384690
0

0101000
+55 0 -51 0 *
Ed
 0.000000100000000 1 1 0
1  16 0 1.000000000000000 21.224999999988484
2  74 36 23 1.000000000000000 21.224999999988484
2  75 36 24 1.000000000000000 21.224999999988484
0

0101000
+51 25 -53 25 *
Wi

0101100
+78 49 -73 0 +68 0 +64 49 +62 49 +60 0 +58 0 +56 49 +54 49 +52 0 
+50 0 +49 49 *
Fa
0  0.000000100000000 6 0

0111000
+48 48 *
Ed
 0.000000100000000 1 1 0
1  17 0 0.000000000000000 91.000000000000000
2  76 19 0 0.000000000000000 91.000000000000000
4 C1 4 0 19 0
0

0101000
+65 15 -65 17 *
Wi

0101100
+46 0 -74 0 -64 22 +64 26 *
Fa
0  0.000000100000000 4 0

0111000
+45 0 *
Ed
 0.000000100000000 1 1 0
1  18 0 0.000000000000000 91.000000000000000
2  77 24 0 0.000000000000000 91.000000000000000
4 C1 10 0 24 0
2  78 10 0 0.000000000000000 91.000000000000000
0

0101000
+63 15 -63 17 *
Wi

0101100
+69 4 -62 51 +62 52 -43 4 *
Ve
0.000000100000000
-28.831250000000011 12.699999999999999 0.000000000000000
0 0

0101101
*
Ed
 0.000000100000000 1 1 0
1  19 0 0.000000000000000 6.283185307179586
2  79 37 56 0.000000000000000 6.283185307179586
2  80 37 58 0.000000000000000 6.283185307179586
2  81 38 59 0.000000000000000 6.283185307179586
2  82 10 60 0.000000000000000 6.283185307179586
0

0101000
+41 0 -41 0 *
Wi

0101100
+40 55 *
Ve
0.000000100000000
36.768750000000011 12.699999999999999 0.000000000000000
0 0

0101101
*
Ed
 0.000000100000000 1 1 0
1  20 0 0.000000000000000 6.283185307179586
2  83 39 56 0.000000000000000 6.283185307179586
2  84 39 58 0.000000000000000 6.283185307179586
2  85 40 59 0.000000000000000 6.283185307179586
2  86 10 60 0.000000000000000 6.283185307179586
0

0101000
+38 0 -38 0 *
Wi

0101100
+37 55 *
Fa
0  0.000000100000000 10 4

0111000
+42 0 +39 0 +36 0 *
Ed
 0.000000100000000 1 1 0
1  21 0 0.000000000000000 91.000000000000000
2  87 19 0 0.000000000000000 91.000000000000000
4 C1 19 0 25 0
2  88 25 0 0.000000000000000 91.000000000000000
0

0101000
+61 15 -61 17 *
Wi

0101100
+34 0 -46 0 -60 15 +60 17 *
Fa
0  0.000000100000000 19 0

0111000
+33 0 *
Ed
 0.000000100000000 1 1 0
1  22 0 0.000000000000000 91.000000000000000
2  89 24 0 0.000000000000000 91.000000000000000
4 C1 24 0 41 0
0

0101000
+59 15 -59 17 *
Wi

0101100
+43 0 -31 0 -58 15 +58 17 *
Fa
0  0.000000100000000 24 0

0111000
+30 0 *
Ed
 0.000000100000000 1 1 0
1  23 0 0.000000000000000 91.000000000000000
2  90 30 0 0.000000000000000 91.000000000000000
4 C1 25 0 30 0
2  91 25 0 0.000000000000000 91.000000000000000
0

0101000
+57 15 -57 17 *
Wi

0101100
+28 0 -34 0 -56 22 +56 26 *
Fa
0  0.000000100000000 25 0

0111000
+27 0 *
Ed
 0.000000100000000 1 1 0
1  24 0 0.000000000000000 91.000000000000000
2  92 35 0 0.000000000000000 91.000000000000000
4 C1 41 0 35 0
0

0101000
+55 15 -55 17 *
Wi

0101100
+31 0 -25 0 -54 22 +54 26 *
Fa
0  0.000000100000000 41 0

0111000
+24 0 *
Ed
 0.000000100000000 1 1 0
1  25 0 0.000000000000000 91.000000000000000
2  93 30 0 0.000000000000000 91.000000000000000
4 C1 30 0 36 0
2  94 36 0 0.000000000000000 91.000000000000000
0

0101000
+53 15 -53 17 *
Wi

0101100
+22 0 -28 0 -52 15 +52 17 *
Fa
0  0.000000100000000 30 0

0111000
+21 0 *
Ed
 0.000000100000000 1 1 0
1  26 0 0.000000000000000 91.000000000000000
2  95 35 0 0.000000000000000 91.000000000000000
4 C1 35 0 36 0
2  96 36 0 0.000000000000000 91.000000000000000
0

0101000
+51 15 -51 17 *
Wi

0101100
+25 0 -19 0 -50 15 +50 17 *
Fa
0  0.000000100000000 35 0

0111000
+18 0 *
Wi

0101100
+19 4 -49 51 +49 52 -22 4 *
Ve
0.000000100000002
3.175000000000000 28.831250000000011 12.699999999999999
0 0

0101101
*
Ed
 0.000000100000000 1 1 0
1  27 0 0.000000000000000 6.283185307179586
2  97 36 4 0.000000000000000 6.283185307179586
2  98 37 0 0.000000000000000 6.283185307179586
0

0101000
+15 0 -15 0 *
Wi

0101100
-14 0 *
Ve
0.000000100000002
3.175000000000000 -36.768750000000011 12.699999999999999
0 0

0101101
*
Ed
 0.000000100000000 1 1 0
1  28 0 0.000000000000000 6.283185307179586
2  99 36 4 0.000000000000000 6.283185307179586
2  100 39 0 0.000000000000000 6.283185307179586
0

0101000
+12 0 -12 0 *
Wi

0101100
-11 0 *
Fa
0  0.000000100000000 36 4

0111000
+16 0 +13 0 +10 0 *
Ed
 0.000000100000000 1 1 0
1  29 0 0.000000000000000 3.175000000000000
3  101 102CN 37 0 0.000000000000000 3.175000000000000
0

0101000
+41 55 -15 0 *
Wi

0101100
-40 55 -8 0 +14 0 +8 0 *
Fa
0  0.000000100000000 37 0

0111000
+7 0 *
Ed
 0.000000100000000 1 1 0
1  30 0 0.000000000000000 3.175000000000000
3  103 104CN 39 0 0.000000000000000 3.175000000000000
0

0101000
+38 55 -12 0 *
Wi

0101100
-37 55 -5 0 +11 0 +5 0 *
Fa
0  0.000000100000000 39 0

0111000
+4 0 *
Sh

0101100
-76 4 +71 4 -66 4 -47 47 +47 50 -44 4 -35 0 -32 4 -29 4 -26 4 
-23 4 -20 4 -17 4 -9 0 -6 0 -3 0 *
So

0100000
+2 0 *

+1 1 