
CASCADE Topology V1, (c) Matra-Datavision
Locations 48
1
1.000000000000000 0.000000000000000 0.000000000000000 0.000000000000000 
0.000000000000000 1.000000000000000 0.000000000000000 0.000000000000000 
0.000000000000000 0.000000000000000 1.000000000000000 0.000000000000000 
1
0.000000000000000 0.000000000000000 -1.000000000000000 0.000000000000000 
-1.000000000000000 0.000000000000000 0.000000000000000 0.000000000000000 
0.000000000000000 1.000000000000000 0.000000000000000 0.000000000000000 
1
1.000000000000000 0.000000000000000 0.000000000000000 0.000000000000000 
0.000000000000000 1.000000000000000 0.000000000000000 0.000000000000000 
0.000000000000000 0.000000000000000 1.000000000000000 0.000000000000000 
2  1 1 2 1 3 -1 0
1
1.000000000000000 0.000000000000000 0.000000000000000 197.622908914933248 
0.000000000000000 1.000000000000000 0.000000000000000 0.000000000000000 
0.000000000000000 0.000000000000000 1.000000000000000 0.000000000000000 
2  1 1 2 1 3 -1 5 1 0
1
1.000000000000000 0.000000000000000 0.000000000000000 0.000000000000000 
0.000000000000000 1.000000000000000 0.000000000000000 0.000000000000000 
0.000000000000000 0.000000000000000 1.000000000000000 0.000000000000000 
1
0.000000000000000 0.000000000000000 -1.000000000000000 0.000000000000000 
-1.000000000000000 0.000000000000000 0.000000000000000 0.000000000000000 
0.000000000000000 1.000000000000000 0.000000000000000 0.000000000000000 
1
1.000000000000000 0.000000000000000 0.000000000000000 0.000000000000000 
0.000000000000000 1.000000000000000 0.000000000000000 0.000000000000000 
0.000000000000000 0.000000000000000 1.000000000000000 0.000000000000000 
2  7 1 8 -1 9 -1 0
1
1.000000000000000 0.000000000000000 0.000000000000000 197.622908914933276 
0.000000000000000 1.000000000000000 0.000000000000000 0.000000000000000 
0.000000000000000 0.000000000000000 1.000000000000000 0.000000000000000 
2  11 -1 7 1 8 -1 9 -1 0
2  8 -1 9 -1 0
1
1.000000000000000 0.000000000000000 0.000000000000000 0.000000000000000 
0.000000000000000 1.000000000000000 0.000000000000000 0.000000000000000 
0.000000000000000 0.000000000000000 1.000000000000000 0.000000000000000 
2  14 1 8 -1 9 -1 0
1
1.000000000000000 0.000000000000000 0.000000000000000 0.000000000000000 
0.000000000000000 1.000000000000000 0.000000000000000 0.000000000000000 
0.000000000000000 0.000000000000000 1.000000000000000 0.000000000000000 
1
0.000000000000000 0.000000000000000 -1.000000000000000 0.000000000000000 
-1.000000000000000 0.000000000000000 0.000000000000000 0.000000000000000 
0.000000000000000 1.000000000000000 0.000000000000000 0.000000000000000 
1
1.000000000000000 0.000000000000000 0.000000000000000 0.000000000000000 
0.000000000000000 1.000000000000000 0.000000000000000 0.000000000000000 
0.000000000000000 0.000000000000000 1.000000000000000 0.000000000000000 
2  16 1 17 -1 18 -1 0
1
1.000000000000000 0.000000000000000 0.000000000000000 197.622908914933248 
0.000000000000000 1.000000000000000 0.000000000000000 0.000000000000000 
0.000000000000000 0.000000000000000 1.000000000000000 0.000000000000000 
2  20 -1 16 1 17 -1 18 -1 0
1
1.000000000000000 0.000000000000000 0.000000000000000 0.000000000000000 
0.000000000000000 1.000000000000000 0.000000000000000 0.000000000000000 
0.000000000000000 0.000000000000000 1.000000000000000 0.000000000000000 
1
1.000000000000000 0.000000000000000 0.000000000000000 0.000000000000000 
0.000000000000000 1.000000000000000 0.000000000000000 0.000000000000000 
0.000000000000000 0.000000000000000 1.000000000000000 0.000000000000000 
2  22 1 23 1 17 -1 18 -1 0
1
1.000000000000000 0.000000000000000 0.000000000000000 0.000000000000000 
0.000000000000000 1.000000000000000 0.000000000000000 0.000000000000000 
0.000000000000000 0.000000000000000 1.000000000000000 0.000000000000000 
1
0.000000000000000 0.000000000000000 -1.000000000000000 0.000000000000000 
-1.000000000000000 0.000000000000000 0.000000000000000 0.000000000000000 
0.000000000000000 1.000000000000000 0.000000000000000 0.000000000000000 
1
1.000000000000000 0.000000000000000 0.000000000000000 0.000000000000000 
0.000000000000000 1.000000000000000 0.000000000000000 0.000000000000000 
0.000000000000000 0.000000000000000 1.000000000000000 0.000000000000000 
2  25 1 26 -1 27 -1 0
1
1.000000000000000 0.000000000000000 0.000000000000000 197.622908914933276 
0.000000000000000 1.000000000000000 0.000000000000000 0.000000000000000 
0.000000000000000 0.000000000000000 1.000000000000000 0.000000000000000 
2  29 -1 25 1 26 -1 27 -1 0
1
1.000000000000000 0.000000000000000 0.000000000000000 0.000000000000000 
0.000000000000000 1.000000000000000 0.000000000000000 0.000000000000000 
0.000000000000000 0.000000000000000 1.000000000000000 0.000000000000000 
2  31 1 26 -1 27 -1 0
1
1.000000000000000 0.000000000000000 0.000000000000000 0.000000000000000 
0.000000000000000 1.000000000000000 0.000000000000000 0.000000000000000 
0.000000000000000 0.000000000000000 1.000000000000000 0.000000000000000 
1
0.000000000000000 0.000000000000000 -1.000000000000000 0.000000000000000 
-1.000000000000000 0.000000000000000 0.000000000000000 0.000000000000000 
0.000000000000000 1.000000000000000 0.000000000000000 0.000000000000000 
1
1.000000000000000 0.000000000000000 0.000000000000000 0.000000000000000 
0.000000000000000 1.000000000000000 0.000000000000000 0.000000000000000 
0.000000000000000 0.000000000000000 1.000000000000000 0.000000000000000 
2  33 1 34 -1 35 -1 0
1
1.000000000000000 0.000000000000000 0.000000000000000 197.622908914933248 
0.000000000000000 1.000000000000000 0.000000000000000 0.000000000000000 
0.000000000000000 0.000000000000000 1.000000000000000 0.000000000000000 
2  37 -1 33 1 34 -1 35 -1 0
1
1.000000000000000 0.000000000000000 0.000000000000000 0.000000000000000 
0.000000000000000 1.000000000000000 0.000000000000000 0.000000000000000 
0.000000000000000 0.000000000000000 1.000000000000000 0.000000000000000 
1
1.000000000000000 0.000000000000000 0.000000000000000 0.000000000000000 
0.000000000000000 1.000000000000000 0.000000000000000 0.000000000000000 
0.000000000000000 0.000000000000000 1.000000000000000 0.000000000000000 
2  39 1 40 1 34 -1 35 -1 0
2  3 1 2 -1 1 -1 0
2  5 -1 3 1 2 -1 1 -1 0
2  39 1 40 1 2 -1 1 -1 0
2  3 -1 0
2  8 -1 9 -1 1 1 2 1 0
2  1 1 2 1 0
2  3 -1 5 1 0
Curve2ds 36
1 0.00000000000000000 0.00000000000000000 0.00000000000000000 -1.00000000000000000 
1 6.28318530717958623 0.00000000000000000 0.00000000000000000 -1.00000000000000000 
1 0.00000000000000000 0.00000000000000000 1.00000000000000000 0.00000000000000000 
1 0.00000000000000000 -197.62290891493327649 1.00000000000000000 0.00000000000000000 
2 0.00000000000000000 0.00000000000000000 0.00000000000000000 1.00000000000000000 -1.00000000000000000 0.00000000000000000 3.96875000000000000
2 11.69999999999998863 -12.69999999999998863 0.00000000000000000 1.00000000000000000 1.00000000000000000 -0.00000000000000000 3.96875000000000000
1 0.00000000000000000 0.00000000000000000 1.00000000000000000 0.00000000000000000 
1 0.00000000000000000 -197.62290891493324807 1.00000000000000000 0.00000000000000000 
2 11.69999999999998863 -12.69999999999998863 0.00000000000000000 1.00000000000000000 1.00000000000000000 -0.00000000000000000 3.96875000000000000
1 0.00000000000000000 0.00000000000000000 1.00000000000000000 0.00000000000000000 
1 0.00000000000000000 -197.62290891493327649 1.00000000000000000 0.00000000000000000 
2 11.69999999999998863 -12.69999999999998863 0.00000000000000000 1.00000000000000000 1.00000000000000000 -0.00000000000000000 3.96875000000000000
1 0.00000000000000000 0.00000000000000000 1.00000000000000000 0.00000000000000000 
1 0.00000000000000000 -197.62290891493324807 1.00000000000000000 0.00000000000000000 
2 11.69999999999998863 -12.69999999999998863 0.00000000000000000 1.00000000000000000 1.00000000000000000 -0.00000000000000000 3.96875000000000000
1 0.00000000000000000 0.00000000000000000 1.00000000000000000 0.00000000000000000 
1 0.00000000000000000 -197.62290891493324807 1.00000000000000000 0.00000000000000000 
2 11.69999999999998863 -12.69999999999998863 0.00000000000000000 1.00000000000000000 1.00000000000000000 -0.00000000000000000 3.96875000000000000
1 0.00000000000000000 0.00000000000000000 0.00000000000000000 -1.00000000000000000 
1 6.28318530717958623 0.00000000000000000 0.00000000000000000 -1.00000000000000000 
1 0.00000000000000000 0.00000000000000000 1.00000000000000000 0.00000000000000000 
1 0.00000000000000000 -197.62290891493327649 1.00000000000000000 0.00000000000000000 
2 0.00000000000000000 0.00000000000000000 0.00000000000000000 1.00000000000000000 -1.00000000000000000 0.00000000000000000 3.96875000000000000
2 11.69999999999998863 -78.30000000000001137 0.00000000000000000 1.00000000000000000 1.00000000000000000 -0.00000000000000000 3.96875000000000000
1 0.00000000000000000 0.00000000000000000 1.00000000000000000 0.00000000000000000 
1 0.00000000000000000 -197.62290891493324807 1.00000000000000000 0.00000000000000000 
2 11.69999999999998863 -78.30000000000001137 0.00000000000000000 1.00000000000000000 1.00000000000000000 -0.00000000000000000 3.96875000000000000
1 0.00000000000000000 0.00000000000000000 1.00000000000000000 0.00000000000000000 
1 0.00000000000000000 -197.62290891493327649 1.00000000000000000 0.00000000000000000 
2 11.69999999999998863 -78.30000000000001137 0.00000000000000000 1.00000000000000000 1.00000000000000000 -0.00000000000000000 3.96875000000000000
1 0.00000000000000000 0.00000000000000000 1.00000000000000000 0.00000000000000000 
1 0.00000000000000000 -197.62290891493324807 1.00000000000000000 0.00000000000000000 
2 11.69999999999998863 -78.30000000000001137 0.00000000000000000 1.00000000000000000 1.00000000000000000 -0.00000000000000000 3.96875000000000000
1 0.00000000000000000 0.00000000000000000 1.00000000000000000 0.00000000000000000 
1 0.00000000000000000 -197.62290891493324807 1.00000000000000000 0.00000000000000000 
2 11.69999999999998863 -78.30000000000001137 0.00000000000000000 1.00000000000000000 1.00000000000000000 -0.00000000000000000 3.96875000000000000
Curves 4
1 0.00000000000000000 -36.76875000000001137 12.69999999999999929 1.00000000000000000 0.00000000000000000 0.00000000000000000 
2 32.80000000000001137 12.69999999999999929 0.00000000000000000 0.00000000000000000 0.00000000000000000 1.00000000000000000 1.00000000000000000 0.00000000000000000 -0.00000000000000000 -0.00000000000000000 1.00000000000000000 0.00000000000000000 3.96875000000000000
1 0.00000000000000000 28.83125000000001137 12.69999999999999929 1.00000000000000000 0.00000000000000000 0.00000000000000000 
2 -32.80000000000001137 12.69999999999999929 0.00000000000000000 0.00000000000000000 0.00000000000000000 1.00000000000000000 1.00000000000000000 0.00000000000000000 -0.00000000000000000 -0.00000000000000000 1.00000000000000000 0.00000000000000000 3.96875000000000000
Polygon3D 0
PolygonOnTriangulations 0
Surfaces 14
2 0.00000000000000000 -32.80000000000001137 12.69999999999999929 -1.00000000000000000 0.00000000000000000 0.00000000000000000 0.00000000000000000 -1.00000000000000000 0.00000000000000000 0.00000000000000000 0.00000000000000000 1.00000000000000000 3.96875000000000000
2 0.00000000000000000 -32.80000000000001137 12.69999999999999929 -1.00000000000000000 0.00000000000000000 0.00000000000000000 0.00000000000000000 -1.00000000000000000 0.00000000000000000 0.00000000000000000 0.00000000000000000 1.00000000000000000 3.96875000000000000
1 0.00000000000000000 -32.80000000000001137 12.69999999999999929 -1.00000000000000000 -0.00000000000000000 -0.00000000000000000 0.00000000000000000 0.00000000000000000 -1.00000000000000000 0.00000000000000000 -1.00000000000000000 0.00000000000000000 
1 0.00000000000000000 -45.50000000000000000 1.00000000000000999 1.00000000000000000 -0.00000000000000000 0.00000000000000000 0.00000000000000000 0.00000000000000000 1.00000000000000000 -0.00000000000000000 -1.00000000000000000 0.00000000000000000 
2 0.00000000000000000 -32.80000000000001137 12.69999999999999929 -1.00000000000000000 0.00000000000000000 0.00000000000000000 0.00000000000000000 -1.00000000000000000 0.00000000000000000 0.00000000000000000 0.00000000000000000 1.00000000000000000 3.96875000000000000
1 0.00000000000000000 -45.50000000000000000 1.00000000000000999 1.00000000000000000 -0.00000000000000000 0.00000000000000000 0.00000000000000000 0.00000000000000000 1.00000000000000000 -0.00000000000000000 -1.00000000000000000 0.00000000000000000 
2 0.00000000000000000 -32.80000000000001137 12.69999999999999929 -1.00000000000000000 0.00000000000000000 0.00000000000000000 0.00000000000000000 -1.00000000000000000 0.00000000000000000 0.00000000000000000 0.00000000000000000 1.00000000000000000 3.96875000000000000
2 0.00000000000000000 -32.80000000000001137 12.69999999999999929 -1.00000000000000000 0.00000000000000000 0.00000000000000000 0.00000000000000000 -1.00000000000000000 0.00000000000000000 0.00000000000000000 0.00000000000000000 1.00000000000000000 3.96875000000000000
2 0.00000000000000000 32.80000000000001137 12.69999999999999929 -1.00000000000000000 0.00000000000000000 0.00000000000000000 0.00000000000000000 -1.00000000000000000 0.00000000000000000 0.00000000000000000 0.00000000000000000 1.00000000000000000 3.96875000000000000
2 0.00000000000000000 32.80000000000001137 12.69999999999999929 -1.00000000000000000 0.00000000000000000 0.00000000000000000 0.00000000000000000 -1.00000000000000000 0.00000000000000000 0.00000000000000000 0.00000000000000000 1.00000000000000000 3.96875000000000000
1 0.00000000000000000 32.80000000000001137 12.69999999999999929 -1.00000000000000000 -0.00000000000000000 -0.00000000000000000 0.00000000000000000 0.00000000000000000 -1.00000000000000000 0.00000000000000000 -1.00000000000000000 0.00000000000000000 
2 0.00000000000000000 32.80000000000001137 12.69999999999999929 -1.00000000000000000 0.00000000000000000 0.00000000000000000 0.00000000000000000 -1.00000000000000000 0.00000000000000000 0.00000000000000000 0.00000000000000000 1.00000000000000000 3.96875000000000000
2 0.00000000000000000 32.80000000000001137 12.69999999999999929 -1.00000000000000000 0.00000000000000000 0.00000000000000000 0.00000000000000000 -1.00000000000000000 0.00000000000000000 0.00000000000000000 0.00000000000000000 1.00000000000000000 3.96875000000000000
2 0.00000000000000000 32.80000000000001137 12.69999999999999929 -1.00000000000000000 0.00000000000000000 0.00000000000000000 0.00000000000000000 -1.00000000000000000 0.00000000000000000 0.00000000000000000 0.00000000000000000 1.00000000000000000 3.96875000000000000
Triangulations 0

TShapes 19
Ve
0.000000100000000
36.768750000000011 12.699999999999999 0.000000000000000
0 0

0101101
*
Ed
 0.000000100000000 1 1 0
1  1 0 0.000000000000000 197.622908914933248
3  1 2CN 1 0 0.000000000000000 197.622908914933248
0

0101000
+19 4 -19 6 *
Ed
 0.000000100000000 1 1 0
1  2 0 0.000000000000000 6.283185307179586
2  3 2 10 0.000000000000000 6.283185307179586
2  4 2 12 0.000000000000000 6.283185307179586
2  5 3 13 0.000000000000000 6.283185307179586
2  6 4 15 0.000000000000000 6.283185307179586
2  7 5 19 0.000000000000000 6.283185307179586
2  8 5 21 0.000000000000000 6.283185307179586
2  9 6 24 0.000000000000000 6.283185307179586
2  10 7 28 0.000000000000000 6.283185307179586
2  11 7 30 0.000000000000000 6.283185307179586
2  12 6 32 0.000000000000000 6.283185307179586
2  13 8 36 0.000000000000000 6.283185307179586
2  14 8 38 0.000000000000000 6.283185307179586
2  15 6 41 0.000000000000000 6.283185307179586
2  16 1 42 0.000000000000000 6.283185307179586
2  17 1 43 0.000000000000000 6.283185307179586
2  18 6 44 0.000000000000000 6.283185307179586
0

0101000
+19 0 -19 0 *
Wi

0101100
+18 0 -18 0 -17 4 +17 6 *
Fa
0  0.000000100000000 1 0

0101000
+16 0 *
Wi

0101100
+17 0 *
Fa
0  0.000000100000000 3 46

0101000
+14 47 *
Sh

0101100
+15 0 +13 45 -13 48 *
So

0100000
+12 0 *
Ve
0.000000100000000
-28.831250000000011 12.699999999999999 0.000000000000000
0 0

0101101
*
Ed
 0.000000100000000 1 1 0
1  3 0 0.000000000000000 197.622908914933248
3  19 20CN 9 0 0.000000000000000 197.622908914933248
0

0101000
+10 4 -10 6 *
Ed
 0.000000100000000 1 1 0
1  4 0 0.000000000000000 6.283185307179586
2  21 10 10 0.000000000000000 6.283185307179586
2  22 10 12 0.000000000000000 6.283185307179586
2  23 11 13 0.000000000000000 6.283185307179586
2  24 4 15 0.000000000000000 6.283185307179586
2  25 12 19 0.000000000000000 6.283185307179586
2  26 12 21 0.000000000000000 6.283185307179586
2  27 6 24 0.000000000000000 6.283185307179586
2  28 13 28 0.000000000000000 6.283185307179586
2  29 13 30 0.000000000000000 6.283185307179586
2  30 6 32 0.000000000000000 6.283185307179586
2  31 14 36 0.000000000000000 6.283185307179586
2  32 14 38 0.000000000000000 6.283185307179586
2  33 6 41 0.000000000000000 6.283185307179586
2  34 9 42 0.000000000000000 6.283185307179586
2  35 9 43 0.000000000000000 6.283185307179586
2  36 6 44 0.000000000000000 6.283185307179586
0

0101000
+10 0 -10 0 *
Wi

0101100
+9 0 -9 0 -8 4 +8 6 *
Fa
0  0.000000100000000 9 0

0101000
+7 0 *
Wi

0101100
+8 0 *
Fa
0  0.000000100000000 11 46

0101000
+5 47 *
Sh

0101100
+6 0 +4 45 -4 48 *
So

0100000
+3 0 *
Co

1100000
+11 0 +2 0 *

+1 0 