
CASCADE Topology V1, (c) Matra-Datavision
Locations 37
1
1.000000000000000 0.000000000000000 0.000000000000000 0.000000000000000 
0.000000000000000 1.000000000000000 0.000000000000000 0.000000000000000 
0.000000000000000 0.000000000000000 1.000000000000000 0.000000000000000 
1
1.000000000000000 0.000000000000000 0.000000000000000 0.000000000000000 
0.000000000000000 1.000000000000000 0.000000000000000 0.000000000000000 
0.000000000000000 0.000000000000000 1.000000000000000 0.000000000000000 
1
1.000000000000000 0.000000000000000 0.000000000000000 0.000000000000000 
0.000000000000000 0.000000000000000 -1.000000000000000 0.000000000000000 
0.000000000000000 1.000000000000000 0.000000000000000 0.000000000000000 
1
1.000000000000000 0.000000000000000 0.000000000000000 0.000000000000000 
0.000000000000000 1.000000000000000 0.000000000000000 0.000000000000000 
0.000000000000000 0.000000000000000 1.000000000000000 0.000000000000000 
1
1.000000000000000 0.000000000000000 0.000000000000000 0.000000000000000 
0.000000000000000 1.000000000000000 0.000000000000000 0.000000000000000 
0.000000000000000 0.000000000000000 1.000000000000000 0.000000000000000 
1
1.000000000000000 0.000000000000000 0.000000000000000 0.000000000000000 
0.000000000000000 1.000000000000000 0.000000000000000 0.000000000000000 
0.000000000000000 0.000000000000000 1.000000000000000 0.000000000000000 
1
1.000000000000000 0.000000000000000 0.000000000000000 0.000000000000000 
0.000000000000000 1.000000000000000 0.000000000000000 0.000000000000000 
0.000000000000000 0.000000000000000 1.000000000000000 0.000000000000000 
1
1.000000000000000 0.000000000000000 0.000000000000000 0.000000000000000 
0.000000000000000 1.000000000000000 0.000000000000000 0.000000000000000 
0.000000000000000 0.000000000000000 1.000000000000000 0.000000000000000 
1
1.000000000000000 0.000000000000000 0.000000000000000 0.000000000000000 
0.000000000000000 1.000000000000000 0.000000000000000 0.000000000000000 
0.000000000000000 0.000000000000000 1.000000000000000 0.000000000000000 
1
1.000000000000000 0.000000000000000 0.000000000000000 0.000000000000000 
0.000000000000000 1.000000000000000 0.000000000000000 0.000000000000000 
0.000000000000000 0.000000000000000 1.000000000000000 0.000000000000000 
1
1.000000000000000 0.000000000000000 0.000000000000000 -0.000000000000000 
0.000000000000000 1.000000000000000 0.000000000000000 -17.500000000000000 
0.000000000000000 0.000000000000000 1.000000000000000 0.000000000000004 
2  2 1 3 1 4 1 5 1 6 1 7 1 8 1 9 1 10 -1 11 1 0
1
1.000000000000000 0.000000000000000 0.000000000000000 0.000000000000000 
0.000000000000000 1.000000000000000 0.000000000000000 35.000000000000000 
0.000000000000000 0.000000000000000 1.000000000000000 -0.000000000000008 
2  2 1 3 1 4 1 5 1 6 1 7 1 8 1 9 1 10 -1 11 1 13 1 0
1
1.000000000000000 0.000000000000000 0.000000000000000 0.000000000000000 
0.000000000000000 1.000000000000000 0.000000000000000 0.000000000000000 
0.000000000000000 0.000000000000000 1.000000000000000 0.000000000000000 
1
1.000000000000000 0.000000000000000 0.000000000000000 0.000000000000000 
0.000000000000000 0.000000000000000 -1.000000000000000 0.000000000000000 
0.000000000000000 1.000000000000000 0.000000000000000 0.000000000000000 
1
1.000000000000000 0.000000000000000 0.000000000000000 0.000000000000000 
0.000000000000000 -0.000000000000000 -1.000000000000000 0.000000000000000 
0.000000000000000 1.000000000000000 -0.000000000000000 0.000000000000000 
1
1.000000000000000 0.000000000000000 0.000000000000000 0.000000000000000 
0.000000000000000 1.000000000000000 0.000000000000000 0.000000000000000 
0.000000000000000 0.000000000000000 1.000000000000000 0.000000000000000 
1
1.000000000000000 0.000000000000000 0.000000000000000 0.000000000000000 
0.000000000000000 1.000000000000000 0.000000000000000 0.000000000000000 
0.000000000000000 0.000000000000000 1.000000000000000 0.000000000000000 
2  15 1 16 1 17 -1 18 1 19 1 2 1 3 1 4 1 5 1 6 1 7 1 8 1 9 1 10 -1 11 1 0
2  19 -1 18 -1 17 1 16 -1 15 -1 0
2  15 1 16 1 17 -1 18 1 19 1 2 1 3 1 4 1 5 1 6 1 7 1 8 1 9 1 10 -1 11 1 13 1 0
2  17 -1 18 1 19 1 0
2  11 -1 10 1 9 -1 8 -1 7 -1 6 -1 5 -1 4 -1 3 -1 2 -1 0
2  13 -1 11 -1 10 1 9 -1 8 -1 7 -1 6 -1 5 -1 4 -1 3 -1 2 -1 0
2  19 1 2 1 3 1 4 1 5 1 6 1 7 1 8 1 9 1 10 -1 11 1 0
2  19 1 2 1 3 1 4 1 5 1 6 1 7 1 8 1 9 1 10 -1 11 1 13 1 0
2  18 -1 17 1 16 -1 15 -1 0
2  17 -1 18 1 0
2  11 -1 10 1 9 -1 8 -1 7 -1 6 -1 5 -1 4 -1 3 -1 2 -1 19 -1 0
2  13 -1 11 -1 10 1 9 -1 8 -1 7 -1 6 -1 5 -1 4 -1 3 -1 2 -1 19 -1 0
2  17 -1 18 1 19 1 2 1 3 1 4 1 5 1 6 1 7 1 8 1 9 1 10 -1 11 1 0
2  19 -1 18 -1 17 1 0
2  15 1 16 1 17 -1 18 1 19 1 0
2  18 -1 17 1 0
2  15 1 16 1 17 -1 18 1 0
2  17 -1 18 1 19 1 2 1 3 1 4 1 5 1 6 1 7 1 8 1 9 1 10 -1 11 1 13 1 0
Curve2ds 48
1 4.71238898038468967 0.00000000000000000 0.00000000000000000 -1.00000000000000000 
1 1.57079632679489700 0.00000000000000000 0.00000000000000000 -1.00000000000000000 
1 6.28318530717958623 0.00000000000000000 0.00000000000000000 -1.00000000000000000 
1 -4.71238898038468967 0.00000000000000000 1.00000000000000000 0.00000000000000000 
2 -17.41250000000000142 -17.41250000000000497 -1.00000000000000000 0.00000000000000000 0.00000000000000000 1.00000000000000000 1.00000000000000000
1 0.00000000000000000 0.00000000000000000 1.00000000000000000 0.00000000000000000 
1 0.00000000000000000 -35.00000000000000000 1.00000000000000000 0.00000000000000000 
1 3.14159265358979312 0.00000000000000000 0.00000000000000000 -1.00000000000000000 
1 -1.57079632679489656 0.00000000000000000 1.00000000000000000 0.00000000000000000 
2 17.41250000000000142 -17.41250000000000497 -1.00000000000000000 0.00000000000000000 -0.00000000000000000 -1.00000000000000000 1.00000000000000000
1 0.00000000000000000 0.00000000000000000 1.00000000000000000 0.00000000000000000 
1 0.00000000000000000 -35.00000000000000000 1.00000000000000000 0.00000000000000000 
1 0.00000000000000000 0.00000000000000000 0.00000000000000000 -1.00000000000000000 
1 3.14159265358979312 0.00000000000000000 0.00000000000000000 -1.00000000000000000 
1 1.57079632679489700 0.00000000000000000 0.00000000000000000 -1.00000000000000000 
1 0.00000000000000000 0.00000000000000000 1.00000000000000000 0.00000000000000000 
2 -17.41250000000000142 17.41249999999999787 -1.00000000000000000 0.00000000000000000 0.00000000000000000 1.00000000000000000 1.00000000000000000
1 0.00000000000000000 0.00000000000000000 1.00000000000000000 0.00000000000000000 
1 0.00000000000000000 -35.00000000000000000 1.00000000000000000 0.00000000000000000 
1 1.57079632679489700 0.00000000000000000 0.00000000000000000 -1.00000000000000000 
1 -1.57079632679489656 0.00000000000000000 1.00000000000000000 0.00000000000000000 
2 17.41250000000000142 17.41249999999999787 -1.00000000000000000 0.00000000000000000 0.00000000000000000 1.00000000000000000 1.00000000000000000
1 0.00000000000000000 0.00000000000000000 1.00000000000000000 0.00000000000000000 
1 0.00000000000000000 -35.00000000000000000 1.00000000000000000 0.00000000000000000 
1 3.14159265358979312 0.00000000000000000 0.00000000000000000 -1.00000000000000000 
1 3.14159265358979312 0.00000000000000000 0.00000000000000000 -1.00000000000000000 
1 4.71238898038468967 0.00000000000000000 0.00000000000000000 -1.00000000000000000 
1 -3.14159265358979312 0.00000000000000000 1.00000000000000000 0.00000000000000000 
2 18.00000000000000000 -18.00000000000000000 -1.00000000000000000 0.00000000000000000 0.00000000000000000 1.00000000000000000 2.00000000000000000
1 0.00000000000000000 0.00000000000000000 1.00000000000000000 0.00000000000000000 
1 0.00000000000000000 -35.00000000000000000 1.00000000000000000 0.00000000000000000 
1 4.71238898038468967 0.00000000000000000 0.00000000000000000 -1.00000000000000000 
1 -3.14159265358979312 0.00000000000000000 1.00000000000000000 0.00000000000000000 
2 18.00000000000000000 18.00000000000000000 -1.00000000000000000 0.00000000000000000 -0.00000000000000000 -1.00000000000000000 2.00000000000000000
1 0.00000000000000000 0.00000000000000000 1.00000000000000000 0.00000000000000000 
1 0.00000000000000000 -35.00000000000000000 1.00000000000000000 0.00000000000000000 
1 1.57079632679489700 0.00000000000000000 0.00000000000000000 -1.00000000000000000 
1 4.71238898038468967 0.00000000000000000 0.00000000000000000 -1.00000000000000000 
1 0.00000000000000000 0.00000000000000000 0.00000000000000000 -1.00000000000000000 
1 0.00000000000000000 0.00000000000000000 1.00000000000000000 0.00000000000000000 
2 -18.00000000000000000 -18.00000000000000000 -1.00000000000000000 0.00000000000000000 -0.00000000000000000 -1.00000000000000000 2.00000000000000000
1 0.00000000000000000 0.00000000000000000 1.00000000000000000 0.00000000000000000 
1 0.00000000000000000 -35.00000000000000000 1.00000000000000000 0.00000000000000000 
1 6.28318530717958623 0.00000000000000000 0.00000000000000000 -1.00000000000000000 
1 -4.71238898038468967 0.00000000000000000 1.00000000000000000 0.00000000000000000 
2 -18.00000000000000000 18.00000000000000000 -1.00000000000000000 0.00000000000000000 -0.00000000000000000 -1.00000000000000000 2.00000000000000000
1 0.00000000000000000 0.00000000000000000 1.00000000000000000 0.00000000000000000 
1 0.00000000000000000 -35.00000000000000000 1.00000000000000000 0.00000000000000000 
Curves 32
1 -18.41250000000000142 -17.50000000000000711 -17.41249999999999787 0.00000000000000000 1.00000000000000000 -0.00000000000000022 
1 -18.41250000000000142 -17.49999999999999289 17.41250000000000497 0.00000000000000000 1.00000000000000000 -0.00000000000000022 
1 -18.41250000000000142 -18.41250000000000497 0.00000000000000000 0.00000000000000000 1.00000000000000000 0.00000000000000000 
1 -17.41250000000000142 -17.50000000000000711 -18.41249999999999787 0.00000000000000000 1.00000000000000000 -0.00000000000000022 
8 4.71238898038468967 6.28318530717958623
2 -17.41250000000000142 -17.41250000000000142 0.00000000000000773 0.00000000000000000 0.00000000000000044 1.00000000000000000 0.00000000000000000 -1.00000000000000000 0.00000000000000044 1.00000000000000000 0.00000000000000000 -0.00000000000000000 1.00000000000000000
1 -17.41250000000000142 -17.49999999999999289 18.41250000000000497 0.00000000000000000 1.00000000000000000 -0.00000000000000022 
8 1.57079632679489656 3.14159265358979312
2 -17.41250000000000142 17.41250000000000142 -0.00000000000000773 -0.00000000000000000 -0.00000000000000044 -1.00000000000000000 0.00000000000000000 -1.00000000000000000 0.00000000000000044 -1.00000000000000000 0.00000000000000000 0.00000000000000000 1.00000000000000000
1 17.41250000000000142 -17.50000000000000711 -18.41249999999999787 0.00000000000000000 1.00000000000000000 -0.00000000000000022 
1 18.41250000000000142 -18.41250000000000142 0.00000000000000000 -1.00000000000000000 -0.00000000000000010 0.00000000000000000 
1 17.41250000000000142 -17.49999999999999289 18.41250000000000497 0.00000000000000000 1.00000000000000000 -0.00000000000000022 
1 -18.41250000000000142 18.41250000000000142 0.00000000000000000 1.00000000000000000 0.00000000000000000 0.00000000000000000 
1 18.41250000000000142 -17.50000000000000711 -17.41249999999999787 0.00000000000000000 1.00000000000000000 -0.00000000000000022 
8 0.00000000000000000 1.57079632679489656
2 17.41250000000000142 -17.41250000000000142 0.00000000000000773 0.00000000000000000 0.00000000000000044 1.00000000000000000 0.00000000000000000 -1.00000000000000000 0.00000000000000044 1.00000000000000000 0.00000000000000000 -0.00000000000000000 1.00000000000000000
1 18.41250000000000142 -17.49999999999999289 17.41250000000000497 0.00000000000000000 1.00000000000000000 -0.00000000000000022 
8 1.57079632679489656 3.14159265358979312
2 17.41250000000000142 17.41250000000000142 -0.00000000000000773 0.00000000000000000 0.00000000000000044 1.00000000000000000 0.00000000000000000 -1.00000000000000000 0.00000000000000044 1.00000000000000000 0.00000000000000000 -0.00000000000000000 1.00000000000000000
1 18.41250000000000142 18.41250000000000142 0.00000000000000000 0.00000000000000000 -1.00000000000000000 0.00000000000000000 
1 -17.99999999999999645 -17.49999999999998934 20.00000000000000355 0.00000000000000000 1.00000000000000000 -0.00000000000000022 
1 18.00000000000000355 -17.49999999999998934 20.00000000000000355 0.00000000000000000 1.00000000000000000 -0.00000000000000022 
1 -19.99999999999999645 20.00000000000000000 0.00000000000000000 1.00000000000000000 0.00000000000000000 0.00000000000000000 
1 -19.99999999999999645 -17.49999999999999289 18.00000000000000355 0.00000000000000000 1.00000000000000000 -0.00000000000000022 
8 3.14159265358979312 4.71238898038468967
2 -17.99999999999999645 18.00000000000000000 -0.00000000000000799 0.00000000000000000 0.00000000000000044 1.00000000000000000 0.00000000000000000 -1.00000000000000000 0.00000000000000044 1.00000000000000000 0.00000000000000000 -0.00000000000000000 2.00000000000000000
1 20.00000000000000355 -17.49999999999999289 18.00000000000000355 0.00000000000000000 1.00000000000000000 -0.00000000000000022 
8 3.14159265358979312 4.71238898038468967
2 18.00000000000000355 18.00000000000000000 -0.00000000000000799 -0.00000000000000000 -0.00000000000000044 -1.00000000000000000 0.00000000000000000 -1.00000000000000000 0.00000000000000044 -1.00000000000000000 0.00000000000000000 0.00000000000000000 2.00000000000000000
1 -19.99999999999999645 -17.50000000000000711 -17.99999999999999645 0.00000000000000000 1.00000000000000000 -0.00000000000000022 
1 -19.99999999999999645 -20.00000000000000000 0.00000000000000000 0.00000000000000000 1.00000000000000000 0.00000000000000000 
1 20.00000000000000355 -17.50000000000000711 -17.99999999999999645 0.00000000000000000 1.00000000000000000 -0.00000000000000022 
1 20.00000000000000355 20.00000000000000000 0.00000000000000000 0.00000000000000000 -1.00000000000000000 0.00000000000000000 
1 -17.99999999999999645 -17.50000000000001066 -19.99999999999999645 0.00000000000000000 1.00000000000000000 -0.00000000000000022 
8 0.00000000000000000 1.57079632679489656
2 -17.99999999999999645 -18.00000000000000000 0.00000000000000799 -0.00000000000000000 -0.00000000000000044 -1.00000000000000000 0.00000000000000000 -1.00000000000000000 0.00000000000000044 -1.00000000000000000 0.00000000000000000 0.00000000000000000 2.00000000000000000
1 18.00000000000000355 -17.50000000000001066 -19.99999999999999645 0.00000000000000000 1.00000000000000000 -0.00000000000000022 
8 4.71238898038468967 6.28318530717958623
2 18.00000000000000355 -18.00000000000000000 0.00000000000000799 -0.00000000000000000 -0.00000000000000044 -1.00000000000000000 0.00000000000000000 -1.00000000000000000 0.00000000000000044 -1.00000000000000000 0.00000000000000000 0.00000000000000000 2.00000000000000000
1 20.00000000000000355 -20.00000000000000000 0.00000000000000000 -1.00000000000000000 0.00000000000000000 0.00000000000000000 
Polygon3D 0
PolygonOnTriangulations 0
Surfaces 25
1 -18.41250000000000142 -17.50000000000000000 -17.41249999999999787 1.00000000000000000 -0.00000000000000000 0.00000000000000000 0.00000000000000000 0.00000000000000000 1.00000000000000000 -0.00000000000000000 -1.00000000000000000 0.00000000000000000 
2 -17.41250000000000142 -17.50000000000000711 -17.41249999999999787 0.00000000000000000 -1.00000000000000000 0.00000000000000044 0.00000000000000000 -0.00000000000000044 -1.00000000000000000 1.00000000000000000 0.00000000000000000 0.00000000000000000 1.00000000000000000
2 -17.41250000000000142 -17.49999999999999289 17.41250000000000497 -0.00000000000000000 -1.00000000000000000 0.00000000000000044 0.00000000000000000 -0.00000000000000044 -1.00000000000000000 -1.00000000000000000 -0.00000000000000000 -0.00000000000000000 1.00000000000000000
1 17.41250000000000142 -17.50000000000000000 -18.41249999999999787 -0.00000000000000010 0.00000000000000022 1.00000000000000000 -1.00000000000000000 0.00000000000000000 -0.00000000000000010 -0.00000000000000000 -1.00000000000000000 0.00000000000000022 
2 -17.41250000000000142 -17.41250000000000142 0.00000000000000773 0.00000000000000000 0.00000000000000044 1.00000000000000000 -1.00000000000000000 0.00000000000000000 0.00000000000000000 0.00000000000000000 -1.00000000000000000 0.00000000000000044 1.00000000000000000
1 0.00000000000000213 0.00000000000000000 0.00000000000000000 0.00000000000000000 1.00000000000000000 -0.00000000000000022 0.00000000000000000 0.00000000000000022 1.00000000000000000 1.00000000000000000 -0.00000000000000000 0.00000000000000000 
1 -17.41250000000000142 -17.50000000000000000 18.41250000000000497 0.00000000000000000 -0.00000000000000022 -1.00000000000000000 1.00000000000000000 0.00000000000000000 0.00000000000000000 0.00000000000000000 -1.00000000000000000 0.00000000000000022 
2 -17.41250000000000142 17.41250000000000142 -0.00000000000000773 0.00000000000000000 0.00000000000000044 1.00000000000000000 -1.00000000000000000 0.00000000000000000 0.00000000000000000 -0.00000000000000000 1.00000000000000000 -0.00000000000000044 1.00000000000000000
2 17.41250000000000142 -17.50000000000000711 -17.41249999999999787 0.00000000000000000 -1.00000000000000000 0.00000000000000044 0.00000000000000000 -0.00000000000000044 -1.00000000000000000 1.00000000000000000 0.00000000000000000 0.00000000000000000 1.00000000000000000
2 17.41250000000000142 -17.49999999999999289 17.41250000000000497 0.00000000000000000 -1.00000000000000000 0.00000000000000044 0.00000000000000000 -0.00000000000000044 -1.00000000000000000 1.00000000000000000 0.00000000000000000 0.00000000000000000 1.00000000000000000
1 18.41250000000000142 -17.50000000000000000 17.41250000000000497 -1.00000000000000000 0.00000000000000000 0.00000000000000000 0.00000000000000000 0.00000000000000000 -1.00000000000000000 -0.00000000000000000 -1.00000000000000000 -0.00000000000000000 
2 17.41250000000000142 -17.41250000000000142 0.00000000000000773 0.00000000000000000 0.00000000000000044 1.00000000000000000 0.00000000000000010 -1.00000000000000000 0.00000000000000044 1.00000000000000000 0.00000000000000010 -0.00000000000000000 1.00000000000000000
2 17.41250000000000142 17.41250000000000142 -0.00000000000000773 0.00000000000000000 0.00000000000000044 1.00000000000000000 1.00000000000000000 0.00000000000000000 -0.00000000000000000 -0.00000000000000000 1.00000000000000000 -0.00000000000000044 1.00000000000000000
1 -17.99999999999999645 -17.50000000000000000 20.00000000000000355 0.00000000000000000 -0.00000000000000022 -1.00000000000000000 1.00000000000000000 0.00000000000000000 0.00000000000000000 0.00000000000000000 -1.00000000000000000 0.00000000000000022 
2 -17.99999999999999645 -17.49999999999999289 18.00000000000000355 0.00000000000000000 -1.00000000000000000 0.00000000000000044 0.00000000000000000 -0.00000000000000044 -1.00000000000000000 1.00000000000000000 0.00000000000000000 0.00000000000000000 2.00000000000000000
2 18.00000000000000355 -17.49999999999999289 18.00000000000000355 -0.00000000000000000 -1.00000000000000000 0.00000000000000044 0.00000000000000000 -0.00000000000000044 -1.00000000000000000 -1.00000000000000000 -0.00000000000000000 -0.00000000000000000 2.00000000000000000
1 -19.99999999999999645 -17.50000000000000000 -17.99999999999999645 1.00000000000000000 -0.00000000000000000 0.00000000000000000 0.00000000000000000 0.00000000000000000 1.00000000000000000 -0.00000000000000000 -1.00000000000000000 0.00000000000000000 
2 -17.99999999999999645 18.00000000000000000 -0.00000000000000799 0.00000000000000000 0.00000000000000044 1.00000000000000000 0.00000000000000000 1.00000000000000000 -0.00000000000000044 -1.00000000000000000 0.00000000000000000 0.00000000000000000 2.00000000000000000
1 20.00000000000000355 -17.50000000000000000 18.00000000000000355 -1.00000000000000000 0.00000000000000000 0.00000000000000000 0.00000000000000000 0.00000000000000000 -1.00000000000000000 -0.00000000000000000 -1.00000000000000000 -0.00000000000000000 
2 18.00000000000000355 18.00000000000000000 -0.00000000000000799 0.00000000000000000 0.00000000000000044 1.00000000000000000 0.00000000000000000 1.00000000000000000 -0.00000000000000044 1.00000000000000000 -0.00000000000000000 -0.00000000000000000 2.00000000000000000
2 -17.99999999999999645 -17.50000000000000711 -17.99999999999999645 -0.00000000000000000 -1.00000000000000000 0.00000000000000044 0.00000000000000000 -0.00000000000000044 -1.00000000000000000 -1.00000000000000000 -0.00000000000000000 -0.00000000000000000 2.00000000000000000
2 18.00000000000000355 -17.50000000000000711 -17.99999999999999645 -0.00000000000000000 -1.00000000000000000 0.00000000000000044 0.00000000000000000 -0.00000000000000044 -1.00000000000000000 -1.00000000000000000 -0.00000000000000000 -0.00000000000000000 2.00000000000000000
1 18.00000000000000355 -17.50000000000000000 -19.99999999999999645 0.00000000000000000 0.00000000000000022 1.00000000000000000 -1.00000000000000000 0.00000000000000000 0.00000000000000000 0.00000000000000000 -1.00000000000000000 0.00000000000000022 
2 -17.99999999999999645 -18.00000000000000000 0.00000000000000799 0.00000000000000000 0.00000000000000044 1.00000000000000000 0.00000000000000000 -1.00000000000000000 0.00000000000000044 -1.00000000000000000 -0.00000000000000000 0.00000000000000000 2.00000000000000000
2 18.00000000000000355 -18.00000000000000000 0.00000000000000799 0.00000000000000000 0.00000000000000044 1.00000000000000000 1.00000000000000000 0.00000000000000000 -0.00000000000000000 0.00000000000000000 -1.00000000000000000 0.00000000000000044 2.00000000000000000
Triangulations 0

TShapes 85
Ve
0.000000100000000
-18.412500000000001 -17.412500000000001 0.000000000000008
0 0

0101101
*
Ed
 0.000000100000000 1 1 0
1  1 0 0.000000000000000 35.000000000000000
2  1 2 0 0.000000000000000 35.000000000000000
4 C1 1 0 2 0
0

0101000
+85 12 -85 14 *
Ve
0.000000100000000
-18.412500000000001 17.412500000000001 -0.000000000000008
0 0

0101101
*
Ed
 0.000000100000000 1 1 0
1  2 0 0.000000000000000 35.000000000000000
2  2 3 0 0.000000000000000 35.000000000000000
4 C1 1 0 3 0
0

0101000
+83 12 -83 14 *
Ed
 0.000000100000000 1 1 0
1  3 0 1.000000000000004 35.825000000000003
0

0101000
+85 21 -83 21 *
Wi

0101100
+84 0 -82 0 -81 20 +81 22 *
Fa
0  0.000000100000000 1 0

0101000
+80 0 *
Ve
0.000000100000000
-17.412500000000001 -18.412500000000001 0.000000000000008
0 0

0101101
*
Ed
 0.000000100000000 1 1 0
1  4 0 0.000000000000000 35.000000000000000
2  3 2 0 0.000000000000000 35.000000000000000
4 C1 2 0 4 0
0

0101000
+78 12 -78 14 *
Ed
 0.000000100000000 1 1 0
1  5 0 4.712388980384690 6.283185307179586
2  4 5 0 4.712388980384690 6.283185307179586
2  5 6 23 4.712388980384690 6.283185307179586
2  6 2 24 4.712388980384690 6.283185307179586
2  7 2 25 4.712388980384690 6.283185307179586
0

0101000
+85 0 -78 0 *
Wi

0101100
+84 0 -77 0 -76 12 +76 14 *
Fa
0  0.000000100000000 2 0

0101000
+75 0 *
Ve
0.000000100000000
-17.412500000000001 18.412500000000001 -0.000000000000008
0 0

0101101
*
Ed
 0.000000100000000 1 1 0
1  6 0 0.000000000000000 35.000000000000000
2  8 3 0 0.000000000000000 35.000000000000000
4 C1 3 0 7 0
0

0101000
+73 12 -73 14 *
Ed
 0.000000100000000 1 1 0
1  7 0 1.570796326794897 3.141592653589793
2  9 8 0 1.570796326794897 3.141592653589793
2  10 6 23 1.570796326794897 3.141592653589793
2  11 3 24 1.570796326794897 3.141592653589793
2  12 3 25 1.570796326794897 3.141592653589793
0

0101000
+83 0 -73 0 *
Wi

0101100
+82 0 -72 0 -71 12 +71 14 *
Fa
0  0.000000100000000 3 0

0101000
+70 0 *
Ve
0.000000100000000
17.412500000000001 -18.412500000000001 0.000000000000008
0 0

0101101
*
Ed
 0.000000100000000 1 1 0
1  8 0 0.000000000000000 35.000000000000000
2  13 9 0 0.000000000000000 35.000000000000000
4 C1 4 0 9 0
0

0101000
+68 12 -68 14 *
Ed
 0.000000100000000 1 1 0
1  9 0 1.000000000000000 35.825000000000003
0

0101000
+68 21 -78 21 *
Wi

0101100
+67 0 -77 0 -66 20 +66 22 *
Fa
0  0.000000100000000 4 0

0101000
+65 0 *
Ve
0.000000100000000
17.412500000000001 18.412500000000001 -0.000000000000008
0 0

0101101
*
Ed
 0.000000100000000 1 1 0
1  10 0 0.000000000000000 35.000000000000000
2  14 10 0 0.000000000000000 35.000000000000000
4 C1 7 0 10 0
0

0101000
+63 12 -63 14 *
Ed
 0.000000100000000 1 1 0
1  11 0 1.000000000000000 35.825000000000003
0

0101000
+73 21 -63 21 *
Wi

0101100
+72 0 -62 0 -61 20 +61 22 *
Fa
0  0.000000100000000 7 0

0101000
+60 0 *
Ve
0.000000100000000
18.412500000000001 -17.412500000000001 0.000000000000008
0 0

0101101
*
Ed
 0.000000100000000 1 1 0
1  12 0 0.000000000000000 35.000000000000000
2  15 9 0 0.000000000000000 35.000000000000000
4 C1 9 0 11 0
0

0101000
+58 12 -58 14 *
Ed
 0.000000100000000 1 1 0
1  13 0 0.000000000000000 1.570796326794897
2  16 12 0 0.000000000000000 1.570796326794897
2  17 6 23 0.000000000000000 1.570796326794897
2  18 9 24 0.000000000000000 1.570796326794897
2  19 9 25 0.000000000000000 1.570796326794897
0

0101000
+68 0 -58 0 *
Wi

0101100
+67 0 -57 0 -56 12 +56 14 *
Fa
0  0.000000100000000 9 0

0101000
+55 0 *
Ve
0.000000100000000
18.412500000000001 17.412500000000001 -0.000000000000008
0 0

0101101
*
Ed
 0.000000100000000 1 1 0
1  14 0 0.000000000000000 35.000000000000000
2  20 10 0 0.000000000000000 35.000000000000000
4 C1 10 0 11 0
0

0101000
+53 12 -53 14 *
Ed
 0.000000100000000 1 1 0
1  15 0 1.570796326794897 3.141592653589793
2  21 13 0 1.570796326794897 3.141592653589793
2  22 6 23 1.570796326794897 3.141592653589793
2  23 10 24 1.570796326794897 3.141592653589793
2  24 10 25 1.570796326794897 3.141592653589793
0

0101000
+53 0 -63 0 *
Wi

0101100
+52 0 -62 0 -51 12 +51 14 *
Fa
0  0.000000100000000 10 0

0101000
+50 0 *
Ed
 0.000000100000000 1 1 0
1  16 0 1.000000000000000 35.825000000000003
0

0101000
+53 21 -58 21 *
Wi

0101100
+52 0 -57 0 -48 20 +48 22 *
Fa
0  0.000000100000000 11 0

0101000
+47 0 *
Ve
0.000000100000000
-17.999999999999996 20.000000000000000 -0.000000000000009
0 0

0101101
*
Ed
 0.000000100000000 1 1 0
1  17 0 0.000000000000000 35.000000000000000
2  25 15 0 0.000000000000000 35.000000000000000
4 G1 14 0 15 0
0

0101000
+45 26 -45 27 *
Ve
0.000000100000000
18.000000000000004 20.000000000000000 -0.000000000000009
0 0

0101101
*
Ed
 0.000000100000000 1 1 0
1  18 0 0.000000000000000 35.000000000000000
2  26 16 0 0.000000000000000 35.000000000000000
4 G1 14 0 16 0
0

0101000
+43 26 -43 27 *
Ed
 0.000000100000000 1 1 0
1  19 0 2.000000000000000 38.000000000000000
0

0101000
+45 28 -43 28 *
Wi

0101100
+44 0 -42 0 -41 20 +41 22 *
Fa
0  0.000000100000000 14 0

0101000
+40 0 *
Ve
0.000000100000000
-19.999999999999996 18.000000000000000 -0.000000000000008
0 0

0101101
*
Ed
 0.000000100000000 1 1 0
1  20 0 0.000000000000000 35.000000000000000
2  27 15 0 0.000000000000000 35.000000000000000
4 G1 15 0 17 0
0

0101000
+38 26 -38 27 *
Ed
 0.000000100000000 1 1 0
1  21 0 3.141592653589793 4.712388980384690
2  28 18 0 3.141592653589793 4.712388980384690
2  29 6 29 3.141592653589793 4.712388980384690
2  30 15 30 3.141592653589793 4.712388980384690
2  31 15 31 3.141592653589793 4.712388980384690
0

0101000
+45 0 -38 0 *
Wi

0101100
+44 0 -37 0 -36 26 +36 27 *
Fa
0  0.000000100000000 15 0

0101000
+35 0 *
Ve
0.000000100000000
20.000000000000004 18.000000000000000 -0.000000000000008
0 0

0101101
*
Ed
 0.000000100000000 1 1 0
1  22 0 0.000000000000000 35.000000000000000
2  32 16 0 0.000000000000000 35.000000000000000
4 G1 16 0 19 0
0

0101000
+33 26 -33 27 *
Ed
 0.000000100000000 1 1 0
1  23 0 3.141592653589793 4.712388980384690
2  33 20 0 3.141592653589793 4.712388980384690
2  34 6 29 3.141592653589793 4.712388980384690
2  35 16 30 3.141592653589793 4.712388980384690
2  36 16 31 3.141592653589793 4.712388980384690
0

0101000
+43 0 -33 0 *
Wi

0101100
+42 0 -32 0 -31 26 +31 27 *
Fa
0  0.000000100000000 16 0

0101000
+30 0 *
Ve
0.000000100000000
-19.999999999999996 -18.000000000000000 0.000000000000008
0 0

0101101
*
Ed
 0.000000100000000 1 1 0
1  24 0 0.000000000000000 35.000000000000000
2  37 21 0 0.000000000000000 35.000000000000000
4 G1 17 0 21 0
0

0101000
+28 26 -28 27 *
Ed
 0.000000100000000 1 1 0
1  25 0 2.000000000000000 38.000000000000000
0

0101000
+28 28 -38 28 *
Wi

0101100
+27 0 -37 0 -26 20 +26 22 *
Fa
0  0.000000100000000 17 0

0101000
+25 0 *
Ve
0.000000100000000
20.000000000000004 -18.000000000000000 0.000000000000008
0 0

0101101
*
Ed
 0.000000100000000 1 1 0
1  26 0 0.000000000000000 35.000000000000000
2  38 22 0 0.000000000000000 35.000000000000000
4 G1 19 0 22 0
0

0101000
+23 26 -23 27 *
Ed
 0.000000100000000 1 1 0
1  27 0 2.000000000000000 38.000000000000000
0

0101000
+33 28 -23 28 *
Wi

0101100
+32 0 -22 0 -21 20 +21 22 *
Fa
0  0.000000100000000 19 0

0101000
+20 0 *
Ve
0.000000100000000
-17.999999999999996 -20.000000000000000 0.000000000000009
0 0

0101101
*
Ed
 0.000000100000000 1 1 0
1  28 0 0.000000000000000 35.000000000000000
2  39 21 0 0.000000000000000 35.000000000000000
4 G1 21 0 23 0
0

0101000
+18 26 -18 27 *
Ed
 0.000000100000000 1 1 0
1  29 0 0.000000000000000 1.570796326794897
2  40 24 0 0.000000000000000 1.570796326794897
2  41 6 29 0.000000000000000 1.570796326794897
2  42 21 30 0.000000000000000 1.570796326794897
2  43 21 31 0.000000000000000 1.570796326794897
0

0101000
+18 0 -28 0 *
Wi

0101100
+17 0 -27 0 -16 26 +16 27 *
Fa
0  0.000000100000000 21 0

0101000
+15 0 *
Ve
0.000000100000000
18.000000000000004 -20.000000000000000 0.000000000000009
0 0

0101101
*
Ed
 0.000000100000000 1 1 0
1  30 0 0.000000000000000 35.000000000000000
2  44 22 0 0.000000000000000 35.000000000000000
4 G1 22 0 23 0
0

0101000
+13 26 -13 27 *
Ed
 0.000000100000000 1 1 0
1  31 0 4.712388980384690 6.283185307179586
2  45 25 0 4.712388980384690 6.283185307179586
2  46 6 29 4.712388980384690 6.283185307179586
2  47 22 30 4.712388980384690 6.283185307179586
2  48 22 31 4.712388980384690 6.283185307179586
0

0101000
+23 0 -13 0 *
Wi

0101100
+22 0 -12 0 -11 26 +11 27 *
Fa
0  0.000000100000000 22 0

0101000
+10 0 *
Ed
 0.000000100000000 1 1 0
1  32 0 2.000000000000000 38.000000000000000
0

0101000
+13 28 -18 28 *
Wi

0101100
+12 0 -17 0 -8 20 +8 22 *
Fa
0  0.000000100000000 23 0

0101000
+7 0 *
Wi

0101100
-81 34 +76 0 -71 0 -66 34 -61 34 +56 0 +51 0 -48 34 *
Wi

0101100
+41 36 -36 0 +31 0 +26 36 +21 36 +16 0 +11 0 +8 36 *
Fa
0  0.000000100000000 6 0

0101000
+5 33 +4 35 *
Sh

0101100
-79 0 +74 0 -69 0 -64 0 -59 0 +54 0 +49 0 -46 0 +39 0 -34 0 
+29 0 +24 0 +19 0 +14 0 +9 0 +6 0 +3 32 -3 37 *
So

1100000
-2 0 *

+1 1 