
CASCADE Topology V1, (c) Matra-Datavision
Locations 12
1
1.000000000000000 0.000000000000000 0.000000000000000 0.000000000000000 
0.000000000000000 1.000000000000000 0.000000000000000 0.000000000000000 
0.000000000000000 0.000000000000000 1.000000000000000 0.000000000000000 
1
0.000000000000000 -0.000000000000000 1.000000000000000 0.000000000000000 
1.000000000000000 0.000000000000000 -0.000000000000000 0.000000000000000 
-0.000000000000000 1.000000000000000 0.000000000000000 0.000000000000000 
1
1.000000000000000 0.000000000000000 0.000000000000000 0.000000000000000 
0.000000000000000 1.000000000000000 0.000000000000000 0.000000000000000 
0.000000000000000 0.000000000000000 1.000000000000000 0.000000000000000 
1
1.000000000000000 0.000000000000000 0.000000000000000 67.185880213032874 
0.000000000000000 1.000000000000000 0.000000000000000 -0.000000000000015 
0.000000000000000 0.000000000000000 1.000000000000000 0.000000000000019 
2  1 1 2 1 3 -1 4 1 0
1
1.000000000000000 0.000000000000000 0.000000000000000 -134.371760426065748 
0.000000000000000 1.000000000000000 0.000000000000000 0.000000000000030 
0.000000000000000 0.000000000000000 1.000000000000000 -0.000000000000037 
2  1 1 2 1 3 -1 4 1 6 1 0
2  4 -1 3 1 2 -1 1 -1 0
2  6 -1 4 -1 3 1 2 -1 1 -1 0
2  3 -1 4 1 0
2  1 1 2 1 0
2  3 -1 4 1 6 1 0
Curve2ds 4
1 0.00000000000000000 0.00000000000000000 0.00000000000000000 -1.00000000000000000 
1 6.28318530717958623 0.00000000000000000 0.00000000000000000 -1.00000000000000000 
1 0.00000000000000000 0.00000000000000000 1.00000000000000000 0.00000000000000000 
1 0.00000000000000000 -134.37176042606574811 1.00000000000000000 0.00000000000000000 
Curves 2
1 67.18588021303287405 3.96874999999998490 0.00000000000001777 -1.00000000000000000 0.00000000000000022 -0.00000000000000028 
2 0.00000000000000000 0.00000000000000000 0.00000000000000000 0.00000000000000000 0.00000000000000000 1.00000000000000000 1.00000000000000000 0.00000000000000000 0.00000000000000000 0.00000000000000000 1.00000000000000000 0.00000000000000000 3.96875000000000000
Polygon3D 0
PolygonOnTriangulations 0
Surfaces 2
2 67.18588021303287405 -0.00000000000001492 0.00000000000001865 1.00000000000000000 -0.00000000000000022 0.00000000000000022 0.00000000000000022 1.00000000000000000 -0.00000000000000022 -0.00000000000000022 0.00000000000000022 1.00000000000000000 3.96875000000000000
1 -0.00000000000000000 -0.00000000000000009 0.00000000000000021 1.00000000000000000 -0.00000000000000022 0.00000000000000022 -0.00000000000000022 0.00000000000000000 1.00000000000000000 -0.00000000000000022 -1.00000000000000000 -0.00000000000000000 
Triangulations 0

TShapes 9
Ve
0.000000100000000
3.968750000000000 0.000000000000000 0.000000000000000
0 0

0101101
*
Ed
 0.000000100000000 1 1 0
1  1 0 0.000000000000000 134.371760426065748
3  1 2CN 1 0 0.000000000000000 134.371760426065748
0

0101000
+9 5 -9 7 *
Ed
 0.000000100000000 1 1 0
1  2 0 0.000000000000000 6.283185307179586
2  3 1 8 0.000000000000000 6.283185307179586
2  4 1 9 0.000000000000000 6.283185307179586
0

0101000
+9 0 -9 0 *
Wi

0101100
+8 0 -8 0 -7 5 +7 7 *
Fa
0  0.000000100000000 1 0

0101000
+6 0 *
Wi

0101100
+7 0 *
Fa
0  0.000000100000000 2 0

0101000
+4 11 *
Sh

0101100
+5 0 +3 10 -3 12 *
So

1100000
+2 0 *

+1 0 