
CASCADE Topology V1, (c) Matra-Datavision
Locations 48
1
1.000000000000000 0.000000000000000 0.000000000000000 0.000000000000000 
0.000000000000000 1.000000000000000 0.000000000000000 0.000000000000000 
0.000000000000000 0.000000000000000 1.000000000000000 0.000000000000000 
1
1.000000000000000 0.000000000000000 0.000000000000000 0.000000000000000 
0.000000000000000 1.000000000000000 0.000000000000000 0.000000000000000 
0.000000000000000 0.000000000000000 1.000000000000000 0.000000000000000 
1
1.000000000000000 0.000000000000000 0.000000000000000 0.000000000000000 
0.000000000000000 1.000000000000000 0.000000000000000 0.000000000000000 
0.000000000000000 0.000000000000000 1.000000000000000 0.000000000000000 
2  2 1 3 -1 0
1
1.000000000000000 0.000000000000000 0.000000000000000 0.000000000000000 
0.000000000000000 1.000000000000000 0.000000000000000 0.000000000000000 
0.000000000000000 0.000000000000000 1.000000000000000 0.000000000000000 
2  5 -1 0
1
1.000000000000000 0.000000000000000 0.000000000000000 0.000000000000000 
0.000000000000000 1.000000000000000 0.000000000000000 0.000000000000000 
0.000000000000000 0.000000000000000 1.000000000000000 0.000000000000000 
1
1.000000000000000 0.000000000000000 0.000000000000000 0.000000000000000 
0.000000000000000 0.000000000000000 -1.000000000000000 0.000000000000000 
0.000000000000000 1.000000000000000 0.000000000000000 0.000000000000000 
1
1.000000000000000 0.000000000000000 0.000000000000000 0.000000000000000 
0.000000000000000 -0.000000000000000 -1.000000000000000 0.000000000000000 
0.000000000000000 1.000000000000000 -0.000000000000000 0.000000000000000 
1
1.000000000000000 0.000000000000000 0.000000000000000 0.000000000000000 
0.000000000000000 1.000000000000000 0.000000000000000 0.000000000000000 
0.000000000000000 0.000000000000000 1.000000000000000 0.000000000000000 
1
1.000000000000000 0.000000000000000 0.000000000000000 0.000000000000000 
0.000000000000000 1.000000000000000 0.000000000000000 0.000000000000000 
0.000000000000000 0.000000000000000 1.000000000000000 0.000000000000000 
1
1.000000000000000 0.000000000000000 0.000000000000000 0.000000000000000 
0.000000000000000 1.000000000000000 0.000000000000000 0.000000000000000 
0.000000000000000 0.000000000000000 1.000000000000000 0.000000000000000 
1
1.000000000000000 0.000000000000000 0.000000000000000 0.000000000000000 
0.000000000000000 0.000000000000000 -1.000000000000000 0.000000000000000 
0.000000000000000 1.000000000000000 0.000000000000000 0.000000000000000 
1
1.000000000000000 0.000000000000000 0.000000000000000 0.000000000000000 
0.000000000000000 1.000000000000000 0.000000000000000 0.000000000000000 
0.000000000000000 0.000000000000000 1.000000000000000 0.000000000000000 
1
1.000000000000000 0.000000000000000 0.000000000000000 0.000000000000000 
0.000000000000000 1.000000000000000 0.000000000000000 0.000000000000000 
0.000000000000000 0.000000000000000 1.000000000000000 0.000000000000000 
1
1.000000000000000 0.000000000000000 0.000000000000000 0.000000000000000 
0.000000000000000 1.000000000000000 0.000000000000000 0.000000000000000 
0.000000000000000 0.000000000000000 1.000000000000000 0.000000000000000 
1
1.000000000000000 0.000000000000000 0.000000000000000 0.000000000000000 
0.000000000000000 1.000000000000000 0.000000000000000 0.000000000000000 
0.000000000000000 0.000000000000000 1.000000000000000 0.000000000000000 
1
1.000000000000000 0.000000000000000 0.000000000000000 0.000000000000000 
0.000000000000000 1.000000000000000 0.000000000000000 0.000000000000000 
0.000000000000000 0.000000000000000 1.000000000000000 0.000000000000000 
1
1.000000000000000 0.000000000000000 0.000000000000000 0.000000000000000 
0.000000000000000 1.000000000000000 0.000000000000000 0.000000000000000 
0.000000000000000 0.000000000000000 1.000000000000000 0.000000000000000 
1
1.000000000000000 0.000000000000000 0.000000000000000 0.000000000000000 
0.000000000000000 1.000000000000000 0.000000000000000 0.000000000000000 
0.000000000000000 0.000000000000000 1.000000000000000 0.000000000000000 
1
1.000000000000000 0.000000000000000 0.000000000000000 -0.000000000000000 
0.000000000000000 1.000000000000000 0.000000000000000 -17.500000000000000 
0.000000000000000 0.000000000000000 1.000000000000000 0.000000000000004 
2  7 1 8 1 9 -1 10 1 11 1 12 1 13 1 14 1 15 1 16 1 17 1 18 1 19 1 20 -1 21 1 0
2  21 -1 20 1 19 -1 18 -1 17 -1 16 -1 15 -1 14 -1 13 -1 12 -1 11 -1 10 -1 9 1 8 -1 7 -1 0
2  5 -1 21 -1 20 1 19 -1 18 -1 17 -1 16 -1 15 -1 14 -1 13 -1 12 -1 11 -1 10 -1 9 1 8 -1 7 -1 0
1
1.000000000000000 0.000000000000000 0.000000000000000 0.000000000000000 
0.000000000000000 1.000000000000000 0.000000000000000 35.000000000000000 
0.000000000000000 0.000000000000000 1.000000000000000 -0.000000000000008 
2  7 1 8 1 9 -1 10 1 11 1 12 1 13 1 14 1 15 1 16 1 17 1 18 1 19 1 20 -1 21 1 25 1 0
2  25 -1 21 -1 20 1 19 -1 18 -1 17 -1 16 -1 15 -1 14 -1 13 -1 12 -1 11 -1 10 -1 9 1 8 -1 7 -1 0
2  5 -1 25 -1 21 -1 20 1 19 -1 18 -1 17 -1 16 -1 15 -1 14 -1 13 -1 12 -1 11 -1 10 -1 9 1 8 -1 7 -1 0
2  12 1 13 1 14 1 15 1 16 1 17 1 18 1 19 1 20 -1 21 1 0
2  21 -1 20 1 19 -1 18 -1 17 -1 16 -1 15 -1 14 -1 13 -1 12 -1 0
2  5 -1 21 -1 20 1 19 -1 18 -1 17 -1 16 -1 15 -1 14 -1 13 -1 12 -1 0
2  12 1 13 1 14 1 15 1 16 1 17 1 18 1 19 1 20 -1 21 1 25 1 0
2  25 -1 21 -1 20 1 19 -1 18 -1 17 -1 16 -1 15 -1 14 -1 13 -1 12 -1 0
2  5 -1 25 -1 21 -1 20 1 19 -1 18 -1 17 -1 16 -1 15 -1 14 -1 13 -1 12 -1 0
2  9 -1 10 1 11 1 12 1 13 1 14 1 15 1 16 1 17 1 18 1 19 1 20 -1 21 1 2 1 3 -1 0
2  11 -1 10 -1 9 1 0
2  7 1 8 1 9 -1 10 1 11 1 0
2  10 -1 9 1 0
2  7 1 8 1 9 -1 10 1 0
2  21 -1 20 1 19 -1 18 -1 17 -1 16 -1 15 -1 14 -1 13 -1 12 -1 11 -1 0
2  5 -1 21 -1 20 1 19 -1 18 -1 17 -1 16 -1 15 -1 14 -1 13 -1 12 -1 11 -1 0
2  9 -1 10 1 11 1 12 1 13 1 14 1 15 1 16 1 17 1 18 1 19 1 20 -1 21 1 25 1 2 1 3 -1 0
2  25 -1 21 -1 20 1 19 -1 18 -1 17 -1 16 -1 15 -1 14 -1 13 -1 12 -1 11 -1 0
2  5 -1 25 -1 21 -1 20 1 19 -1 18 -1 17 -1 16 -1 15 -1 14 -1 13 -1 12 -1 11 -1 0
2  7 1 8 1 9 -1 10 1 11 1 12 1 13 1 14 1 15 1 16 1 17 1 18 1 19 1 20 -1 21 1 2 1 3 -1 0
2  7 1 8 1 9 -1 10 1 11 1 12 1 13 1 14 1 15 1 16 1 17 1 18 1 19 1 20 -1 21 1 25 1 2 1 3 -1 0
2  11 1 12 1 13 1 14 1 15 1 16 1 17 1 18 1 19 1 20 -1 21 1 0
2  11 1 12 1 13 1 14 1 15 1 16 1 17 1 18 1 19 1 20 -1 21 1 25 1 0
Curve2ds 70
1 4.71238898038468967 0.00000000000000000 0.00000000000000000 -1.00000000000000000 
1 0.00000000000000000 0.00000000000000711 -0.00000000000000022 -1.00000000000000000 
1 1.57079632679489700 0.00000000000000000 0.00000000000000000 -1.00000000000000000 
1 34.82500000000000284 -0.00000000000000711 -0.00000000000000022 -1.00000000000000000 
1 -1.00000000000000355 0.00000000000000000 1.00000000000000000 0.00000000000000000 
1 -1.00000000000001066 -35.00000000000000000 1.00000000000000000 0.00000000000000000 
1 6.28318530717958623 0.00000000000000000 0.00000000000000000 -1.00000000000000000 
1 34.82500000000000284 0.00000000000000711 0.00000000000000000 -1.00000000000000000 
1 0.00000000000000000 0.00000000000000000 1.00000000000000000 0.00000000000000000 
1 0.00000000000000000 -35.00000000000000000 1.00000000000000000 0.00000000000000000 
1 3.14159265358979312 0.00000000000000000 0.00000000000000000 -1.00000000000000000 
1 0.00000000000000000 -0.00000000000000711 0.00000000000000000 -1.00000000000000000 
1 0.00000000000000000 0.00000000000000000 1.00000000000000000 0.00000000000000000 
1 0.00000000000000000 -35.00000000000000000 1.00000000000000000 0.00000000000000000 
1 -1.00000000000000000 -0.00000000000000000 1.00000000000000000 0.00000000000000000 
1 -1.00000000000000000 0.00000000000000000 1.00000000000000000 0.00000000000000000 
1 0.00000000000000000 0.00000000000000000 1.00000000000000000 0.00000000000000000 
1 0.00000000000000000 0.00000000000000000 1.00000000000000000 0.00000000000000000 
1 -1.00000000000000000 -0.00000000000000000 1.00000000000000000 0.00000000000000000 
1 -2.00000000000000000 0.00000000000000000 1.00000000000000000 0.00000000000000000 
1 0.00000000000000000 0.00000000000000000 1.00000000000000000 0.00000000000000000 
1 0.00000000000000000 0.00000000000000000 1.00000000000000000 0.00000000000000000 
1 -2.00000000000000000 0.00000000000000000 1.00000000000000000 0.00000000000000000 
1 -2.00000000000000000 -0.00000000000000000 1.00000000000000000 0.00000000000000000 
1 0.00000000000000000 0.00000000000000000 1.00000000000000000 0.00000000000000000 
1 0.00000000000000000 0.00000000000000000 1.00000000000000000 0.00000000000000000 
1 -2.00000000000000000 0.00000000000000000 1.00000000000000000 0.00000000000000000 
1 -1.00000000000000000 -35.00000000000000000 1.00000000000000000 0.00000000000000000 
1 -1.00000000000000000 -35.00000000000000000 1.00000000000000000 0.00000000000000000 
1 0.00000000000000000 -35.00000000000000000 1.00000000000000000 0.00000000000000000 
1 0.00000000000000000 -35.00000000000000000 1.00000000000000000 0.00000000000000000 
1 -0.99999999999999289 -35.00000000000000000 1.00000000000000000 0.00000000000000000 
1 -2.00000000000000000 -35.00000000000000000 1.00000000000000000 0.00000000000000000 
1 0.00000000000000000 -35.00000000000000000 1.00000000000000000 0.00000000000000000 
1 0.00000000000000000 -35.00000000000000000 1.00000000000000000 0.00000000000000000 
1 -2.00000000000000711 -35.00000000000000000 1.00000000000000000 0.00000000000000000 
1 -1.99999999999999289 -35.00000000000000000 1.00000000000000000 0.00000000000000000 
1 0.00000000000000000 -35.00000000000000000 1.00000000000000000 0.00000000000000000 
1 0.00000000000000000 -35.00000000000000000 1.00000000000000000 0.00000000000000000 
1 -2.00000000000000000 -35.00000000000000000 1.00000000000000000 0.00000000000000000 
1 0.00000000000000000 0.00000000000000000 0.00000000000000000 -1.00000000000000000 
1 -0.00000000000000000 0.00000000000000711 0.00000000000000000 -1.00000000000000000 
2 17.41250000000000142 -16.81501400000000146 -1.00000000000000000 -0.00000000000000000 0.00000000000000000 -1.00000000000000000 3.96875000000000000
1 0.00000000000000000 -18.41250000000000497 1.00000000000000000 0.00000000000000000 
1 3.14159265358979312 0.00000000000000000 0.00000000000000000 -1.00000000000000000 
1 34.82500000000000284 -0.00000000000000711 0.00000000000000000 -1.00000000000000000 
1 1.57079632679489700 0.00000000000000000 0.00000000000000000 -1.00000000000000000 
1 34.82500000000000284 0.00000000000000711 0.00000000000000022 -1.00000000000000000 
1 1.57079632679489700 0.00000000000000000 0.00000000000000000 -1.00000000000000000 
1 0.00000000000000000 -0.00000000000000711 0.00000000000000022 -1.00000000000000000 
1 3.14159265358979312 0.00000000000000000 0.00000000000000000 -1.00000000000000000 
1 0.00000000000000000 -0.00000000000001066 0.00000000000000000 -1.00000000000000000 
1 3.14159265358979312 0.00000000000000000 0.00000000000000000 -1.00000000000000000 
1 36.00000000000000000 -0.00000000000001066 0.00000000000000000 -1.00000000000000000 
1 4.71238898038468967 0.00000000000000000 0.00000000000000000 -1.00000000000000000 
1 36.00000000000000000 -0.00000000000000711 -0.00000000000000022 -1.00000000000000000 
1 4.71238898038468967 0.00000000000000000 0.00000000000000000 -1.00000000000000000 
1 0.00000000000000000 -0.00000000000000711 0.00000000000000022 -1.00000000000000000 
1 1.57079632679489700 0.00000000000000000 0.00000000000000000 -1.00000000000000000 
1 0.00000000000000000 0.00000000000000711 -0.00000000000000022 -1.00000000000000000 
1 4.71238898038468967 0.00000000000000000 0.00000000000000000 -1.00000000000000000 
1 36.00000000000000000 0.00000000000000711 0.00000000000000022 -1.00000000000000000 
1 0.00000000000000000 0.00000000000000000 0.00000000000000000 -1.00000000000000000 
1 36.00000000000000000 0.00000000000001066 0.00000000000000000 -1.00000000000000000 
1 6.28318530717958623 0.00000000000000000 0.00000000000000000 -1.00000000000000000 
1 0.00000000000000000 0.00000000000001066 0.00000000000000000 -1.00000000000000000 
2 18.00000000000000355 -16.81501400000000146 -1.00000000000000000 0.00000000000000000 -0.00000000000000000 -1.00000000000000000 3.96875000000000000
1 0.00000000000000000 -20.00000000000000000 1.00000000000000000 0.00000000000000000 
1 0.00000000000000000 0.00000000000000000 0.00000000000000000 -1.00000000000000000 
1 6.28318530717958623 0.00000000000000000 0.00000000000000000 -1.00000000000000000 
Curves 51
1 -18.41250000000000142 -17.50000000000000711 -17.41249999999999787 0.00000000000000000 1.00000000000000000 -0.00000000000000022 
1 -18.41250000000000142 -17.49999999999999289 17.41250000000000497 0.00000000000000000 1.00000000000000000 -0.00000000000000022 
1 -18.41250000000000142 -18.41250000000000497 0.00000000000000000 0.00000000000000000 1.00000000000000000 0.00000000000000000 
1 -18.41250000000000142 -18.41250000000000497 0.00000000000000000 0.00000000000000000 1.00000000000000000 0.00000000000000000 
1 -17.41250000000000142 -17.50000000000000711 -18.41249999999999787 0.00000000000000000 1.00000000000000000 -0.00000000000000022 
8 4.71238898038468967 6.28318530717958623
2 -17.41250000000000142 -17.41250000000000142 0.00000000000000773 -0.00000000000000000 0.00000000000000044 1.00000000000000000 0.00000000000000000 -1.00000000000000000 0.00000000000000044 1.00000000000000000 0.00000000000000000 0.00000000000000000 1.00000000000000000
8 4.71238898038468967 6.28318530717958623
2 -17.41250000000000142 -17.41250000000000142 0.00000000000000773 -0.00000000000000000 0.00000000000000044 1.00000000000000000 0.00000000000000000 -1.00000000000000000 0.00000000000000044 1.00000000000000000 0.00000000000000000 0.00000000000000000 1.00000000000000000
1 -17.41250000000000142 -17.49999999999999289 18.41250000000000497 0.00000000000000000 1.00000000000000000 -0.00000000000000022 
8 1.57079632679489656 3.14159265358979312
2 -17.41250000000000142 17.41250000000000142 -0.00000000000000773 -0.00000000000000000 -0.00000000000000044 -1.00000000000000000 0.00000000000000000 -1.00000000000000000 0.00000000000000044 -1.00000000000000000 0.00000000000000000 0.00000000000000000 1.00000000000000000
8 1.57079632679489656 3.14159265358979312
2 -17.41250000000000142 17.41250000000000142 -0.00000000000000773 -0.00000000000000000 -0.00000000000000044 -1.00000000000000000 0.00000000000000000 -1.00000000000000000 0.00000000000000044 -1.00000000000000000 0.00000000000000000 0.00000000000000000 1.00000000000000000
1 18.41250000000000142 -18.41250000000000142 0.00000000000000000 -1.00000000000000000 -0.00000000000000010 0.00000000000000000 
1 -18.41250000000000142 18.41250000000000142 0.00000000000000000 1.00000000000000000 0.00000000000000000 0.00000000000000000 
8 0.00000000000000000 1.57079632679489656
2 17.41250000000000142 -17.41250000000000142 0.00000000000000773 -0.00000000000000000 0.00000000000000044 1.00000000000000000 0.00000000000000000 -1.00000000000000000 0.00000000000000044 1.00000000000000000 0.00000000000000000 0.00000000000000000 1.00000000000000000
8 1.57079632679489656 3.14159265358979312
2 17.41250000000000142 17.41250000000000142 -0.00000000000000773 -0.00000000000000000 0.00000000000000044 1.00000000000000000 0.00000000000000000 -1.00000000000000000 0.00000000000000044 1.00000000000000000 0.00000000000000000 0.00000000000000000 1.00000000000000000
1 18.41250000000000142 18.41250000000000142 0.00000000000000000 0.00000000000000000 -1.00000000000000000 0.00000000000000000 
1 -19.99999999999999645 20.00000000000000000 0.00000000000000000 1.00000000000000000 0.00000000000000000 0.00000000000000000 
8 3.14159265358979312 4.71238898038468967
2 -17.99999999999999645 18.00000000000000000 -0.00000000000000799 -0.00000000000000000 0.00000000000000044 1.00000000000000000 0.00000000000000000 -1.00000000000000000 0.00000000000000044 1.00000000000000000 0.00000000000000000 0.00000000000000000 2.00000000000000000
8 3.14159265358979312 4.71238898038468967
2 18.00000000000000355 18.00000000000000000 -0.00000000000000799 -0.00000000000000000 -0.00000000000000044 -1.00000000000000000 0.00000000000000000 -1.00000000000000000 0.00000000000000044 -1.00000000000000000 0.00000000000000000 0.00000000000000000 2.00000000000000000
1 -19.99999999999999645 -20.00000000000000000 0.00000000000000000 0.00000000000000000 1.00000000000000000 0.00000000000000000 
1 20.00000000000000355 20.00000000000000000 0.00000000000000000 0.00000000000000000 -1.00000000000000000 0.00000000000000000 
8 0.00000000000000000 1.57079632679489656
2 -17.99999999999999645 -18.00000000000000000 0.00000000000000799 -0.00000000000000000 -0.00000000000000044 -1.00000000000000000 0.00000000000000000 -1.00000000000000000 0.00000000000000044 -1.00000000000000000 0.00000000000000000 0.00000000000000000 2.00000000000000000
8 4.71238898038468967 6.28318530717958623
2 18.00000000000000355 -18.00000000000000000 0.00000000000000799 -0.00000000000000000 -0.00000000000000044 -1.00000000000000000 0.00000000000000000 -1.00000000000000000 0.00000000000000044 -1.00000000000000000 0.00000000000000000 0.00000000000000000 2.00000000000000000
1 20.00000000000000355 -20.00000000000000000 0.00000000000000000 -1.00000000000000000 0.00000000000000000 0.00000000000000000 
1 18.41250000000000142 -18.41250000000000142 0.00000000000000000 -1.00000000000000000 -0.00000000000000010 0.00000000000000000 
1 -18.41250000000000142 18.41250000000000142 0.00000000000000000 1.00000000000000000 0.00000000000000000 0.00000000000000000 
8 0.00000000000000000 1.57079632679489656
2 17.41250000000000142 -17.41250000000000142 0.00000000000000773 -0.00000000000000000 0.00000000000000044 1.00000000000000000 0.00000000000000000 -1.00000000000000000 0.00000000000000044 1.00000000000000000 0.00000000000000000 0.00000000000000000 1.00000000000000000
8 1.57079632679489656 3.14159265358979312
2 17.41250000000000142 17.41250000000000142 -0.00000000000000773 -0.00000000000000000 0.00000000000000044 1.00000000000000000 0.00000000000000000 -1.00000000000000000 0.00000000000000044 1.00000000000000000 0.00000000000000000 0.00000000000000000 1.00000000000000000
1 18.41250000000000142 18.41250000000000142 0.00000000000000000 0.00000000000000000 -1.00000000000000000 0.00000000000000000 
1 -19.99999999999999645 20.00000000000000000 0.00000000000000000 1.00000000000000000 0.00000000000000000 0.00000000000000000 
8 3.14159265358979312 4.71238898038468967
2 -17.99999999999999645 18.00000000000000000 -0.00000000000000799 -0.00000000000000000 0.00000000000000044 1.00000000000000000 0.00000000000000000 -1.00000000000000000 0.00000000000000044 1.00000000000000000 0.00000000000000000 0.00000000000000000 2.00000000000000000
8 3.14159265358979312 4.71238898038468967
2 18.00000000000000355 18.00000000000000000 -0.00000000000000799 -0.00000000000000000 -0.00000000000000044 -1.00000000000000000 0.00000000000000000 -1.00000000000000000 0.00000000000000044 -1.00000000000000000 0.00000000000000000 0.00000000000000000 2.00000000000000000
1 -19.99999999999999645 -20.00000000000000000 0.00000000000000000 0.00000000000000000 1.00000000000000000 0.00000000000000000 
1 20.00000000000000355 20.00000000000000000 0.00000000000000000 0.00000000000000000 -1.00000000000000000 0.00000000000000000 
8 0.00000000000000000 1.57079632679489656
2 -17.99999999999999645 -18.00000000000000000 0.00000000000000799 -0.00000000000000000 -0.00000000000000044 -1.00000000000000000 0.00000000000000000 -1.00000000000000000 0.00000000000000044 -1.00000000000000000 0.00000000000000000 0.00000000000000000 2.00000000000000000
8 4.71238898038468967 6.28318530717958623
2 18.00000000000000355 -18.00000000000000000 0.00000000000000799 -0.00000000000000000 -0.00000000000000044 -1.00000000000000000 0.00000000000000000 -1.00000000000000000 0.00000000000000044 -1.00000000000000000 0.00000000000000000 0.00000000000000000 2.00000000000000000
1 20.00000000000000355 -20.00000000000000000 0.00000000000000000 -1.00000000000000000 0.00000000000000000 0.00000000000000000 
1 17.41250000000000142 -17.50000000000000711 -18.41249999999999787 0.00000000000000000 1.00000000000000000 -0.00000000000000022 
2 0.00000000000000000 -0.68498599999999998 -18.41250000000000497 0.00000000000000000 0.00000000000000000 1.00000000000000000 1.00000000000000000 0.00000000000000000 -0.00000000000000000 -0.00000000000000000 1.00000000000000000 0.00000000000000000 3.96875000000000000
1 17.41250000000000142 -17.49999999999999289 18.41250000000000497 0.00000000000000000 1.00000000000000000 -0.00000000000000022 
1 18.41250000000000142 -17.50000000000000711 -17.41249999999999787 0.00000000000000000 1.00000000000000000 -0.00000000000000022 
1 18.41250000000000142 -17.49999999999999289 17.41250000000000497 0.00000000000000000 1.00000000000000000 -0.00000000000000022 
1 -17.99999999999999645 -17.49999999999998934 20.00000000000000355 0.00000000000000000 1.00000000000000000 -0.00000000000000022 
1 18.00000000000000355 -17.49999999999998934 20.00000000000000355 0.00000000000000000 1.00000000000000000 -0.00000000000000022 
1 -19.99999999999999645 -17.49999999999999289 18.00000000000000355 0.00000000000000000 1.00000000000000000 -0.00000000000000022 
1 20.00000000000000355 -17.49999999999999289 18.00000000000000355 0.00000000000000000 1.00000000000000000 -0.00000000000000022 
1 -19.99999999999999645 -17.50000000000000711 -17.99999999999999645 0.00000000000000000 1.00000000000000000 -0.00000000000000022 
1 20.00000000000000355 -17.50000000000000711 -17.99999999999999645 0.00000000000000000 1.00000000000000000 -0.00000000000000022 
1 -17.99999999999999645 -17.50000000000001066 -19.99999999999999645 0.00000000000000000 1.00000000000000000 -0.00000000000000022 
1 18.00000000000000355 -17.50000000000001066 -19.99999999999999645 0.00000000000000000 1.00000000000000000 -0.00000000000000022 
2 0.00000000000000000 -0.68498599999999998 -20.00000000000000000 0.00000000000000000 0.00000000000000000 1.00000000000000000 1.00000000000000000 0.00000000000000000 -0.00000000000000000 -0.00000000000000000 1.00000000000000000 0.00000000000000000 3.96875000000000000
1 3.96875000000000000 -0.68498599999999998 0.00000000000000000 -0.00000000000000000 -0.00000000000000000 -1.00000000000000000 
Polygon3D 0
PolygonOnTriangulations 0
Surfaces 19
1 -18.41250000000000142 -17.50000000000000000 -17.41249999999999787 1.00000000000000000 0.00000000000000000 0.00000000000000000 0.00000000000000000 0.00000000000000000 1.00000000000000000 0.00000000000000000 -1.00000000000000000 0.00000000000000000 
2 -17.41250000000000142 -17.50000000000000711 -17.41249999999999787 0.00000000000000000 -1.00000000000000000 0.00000000000000044 0.00000000000000000 -0.00000000000000044 -1.00000000000000000 1.00000000000000000 0.00000000000000000 0.00000000000000000 1.00000000000000000
2 -17.41250000000000142 -17.49999999999999289 17.41250000000000497 0.00000000000000000 -1.00000000000000000 0.00000000000000044 0.00000000000000000 -0.00000000000000044 -1.00000000000000000 -1.00000000000000000 0.00000000000000000 0.00000000000000000 1.00000000000000000
1 17.41250000000000142 -17.50000000000000000 -18.41249999999999787 -0.00000000000000010 0.00000000000000022 1.00000000000000000 -1.00000000000000000 0.00000000000000000 -0.00000000000000010 -0.00000000000000000 -1.00000000000000000 0.00000000000000022 
1 -17.41250000000000142 -17.50000000000000000 18.41250000000000497 0.00000000000000000 -0.00000000000000022 -1.00000000000000000 1.00000000000000000 0.00000000000000000 0.00000000000000000 0.00000000000000000 -1.00000000000000000 0.00000000000000022 
1 0.00000000000000213 0.00000000000000000 0.00000000000000000 0.00000000000000000 1.00000000000000000 -0.00000000000000022 0.00000000000000000 0.00000000000000022 1.00000000000000000 1.00000000000000000 0.00000000000000000 0.00000000000000000 
2 17.41250000000000142 -17.50000000000000711 -17.41249999999999787 0.00000000000000000 -1.00000000000000000 0.00000000000000044 0.00000000000000000 -0.00000000000000044 -1.00000000000000000 1.00000000000000000 0.00000000000000000 0.00000000000000000 1.00000000000000000
2 17.41250000000000142 -17.49999999999999289 17.41250000000000497 0.00000000000000000 -1.00000000000000000 0.00000000000000044 0.00000000000000000 -0.00000000000000044 -1.00000000000000000 1.00000000000000000 0.00000000000000000 0.00000000000000000 1.00000000000000000
1 18.41250000000000142 -17.50000000000000000 17.41250000000000497 -1.00000000000000000 0.00000000000000000 0.00000000000000000 0.00000000000000000 0.00000000000000000 -1.00000000000000000 -0.00000000000000000 -1.00000000000000000 -0.00000000000000000 
1 -17.99999999999999645 -17.50000000000000000 20.00000000000000355 0.00000000000000000 -0.00000000000000022 -1.00000000000000000 1.00000000000000000 0.00000000000000000 0.00000000000000000 0.00000000000000000 -1.00000000000000000 0.00000000000000022 
2 -17.99999999999999645 -17.49999999999999289 18.00000000000000355 0.00000000000000000 -1.00000000000000000 0.00000000000000044 0.00000000000000000 -0.00000000000000044 -1.00000000000000000 1.00000000000000000 0.00000000000000000 0.00000000000000000 2.00000000000000000
2 18.00000000000000355 -17.49999999999999289 18.00000000000000355 0.00000000000000000 -1.00000000000000000 0.00000000000000044 0.00000000000000000 -0.00000000000000044 -1.00000000000000000 -1.00000000000000000 0.00000000000000000 0.00000000000000000 2.00000000000000000
1 -19.99999999999999645 -17.50000000000000000 -17.99999999999999645 1.00000000000000000 0.00000000000000000 0.00000000000000000 0.00000000000000000 0.00000000000000000 1.00000000000000000 0.00000000000000000 -1.00000000000000000 0.00000000000000000 
1 20.00000000000000355 -17.50000000000000000 18.00000000000000355 -1.00000000000000000 0.00000000000000000 0.00000000000000000 0.00000000000000000 0.00000000000000000 -1.00000000000000000 -0.00000000000000000 -1.00000000000000000 -0.00000000000000000 
2 -17.99999999999999645 -17.50000000000000711 -17.99999999999999645 0.00000000000000000 -1.00000000000000000 0.00000000000000044 0.00000000000000000 -0.00000000000000044 -1.00000000000000000 -1.00000000000000000 0.00000000000000000 0.00000000000000000 2.00000000000000000
2 18.00000000000000355 -17.50000000000000711 -17.99999999999999645 0.00000000000000000 -1.00000000000000000 0.00000000000000044 0.00000000000000000 -0.00000000000000044 -1.00000000000000000 -1.00000000000000000 0.00000000000000000 0.00000000000000000 2.00000000000000000
1 18.00000000000000355 -17.50000000000000000 -19.99999999999999645 0.00000000000000000 0.00000000000000022 1.00000000000000000 -1.00000000000000000 0.00000000000000000 0.00000000000000000 0.00000000000000000 -1.00000000000000000 0.00000000000000022 
1 0.00000000000000213 0.00000000000000000 0.00000000000000000 0.00000000000000000 1.00000000000000000 -0.00000000000000022 0.00000000000000000 0.00000000000000022 1.00000000000000000 1.00000000000000000 0.00000000000000000 0.00000000000000000 
2 0.00000000000000000 -0.68498599999999998 0.00000000000000000 0.00000000000000000 0.00000000000000000 1.00000000000000000 1.00000000000000000 0.00000000000000000 0.00000000000000000 0.00000000000000000 1.00000000000000000 0.00000000000000000 3.96875000000000000
Triangulations 0

TShapes 129
Ve
0.000000100000000
-18.412500000000001 -17.500000000000007 -17.412499999999998
0 0

0101101
*
Ve
0.000000100000000
-18.412500000000001 17.499999999999993 -17.412500000000005
0 0

0101101
*
Ed
 0.000000100000000 1 1 0
1  1 0 0.000000000000000 35.000000000000000
2  1 2 0 0.000000000000000 35.000000000000000
4 C1 1 0 2 0
2  2 1 0 0.000000000000000 35.000000000000000
0

0101000
+129 6 -128 6 *
Ve
0.000000100000000
-18.412500000000001 -17.499999999999993 17.412500000000005
0 0

0101101
*
Ve
0.000000100000000
-18.412500000000001 17.500000000000007 17.412499999999998
0 0

0101101
*
Ed
 0.000000100000000 1 1 0
1  2 0 0.000000000000000 35.000000000000000
2  3 3 0 0.000000000000000 35.000000000000000
4 C1 1 0 3 0
2  4 1 0 0.000000000000000 35.000000000000000
0

0101000
+126 6 -125 6 *
Ed
 0.000000100000000 1 1 0
1  3 0 1.000000000000004 35.825000000000003
2  5 1 23 1.000000000000004 35.825000000000003
0

0101000
+129 24 -126 24 *
Ed
 0.000000100000000 1 1 0
1  4 0 1.000000000000004 35.825000000000003
2  6 1 27 1.000000000000004 35.825000000000003
0

0101000
+128 28 -125 28 *
Wi

0101100
+127 0 -124 0 -123 22 +122 26 *
Fa
0  0.000000100000000 1 0

0111000
+121 0 *
Ve
0.000000100000000
-17.412500000000001 -17.500000000000007 -18.412499999999998
0 0

0101101
*
Ve
0.000000100000000
-17.412500000000001 17.499999999999993 -18.412500000000005
0 0

0101101
*
Ed
 0.000000100000000 1 1 0
1  5 0 0.000000000000000 35.000000000000000
2  7 2 0 0.000000000000000 35.000000000000000
4 C1 2 0 4 0
2  8 4 0 0.000000000000000 35.000000000000000
0

0101000
+119 6 -118 6 *
Ed
 0.000000100000000 1 1 0
1  6 0 4.712388980384690 6.283185307179586
2  9 2 30 4.712388980384690 6.283185307179586
0

0101000
+129 31 -119 31 *
Ed
 0.000000100000000 1 1 0
1  7 0 4.712388980384690 6.283185307179586
2  10 2 33 4.712388980384690 6.283185307179586
0

0101000
+128 34 -118 34 *
Wi

0101100
+127 0 -117 0 -116 29 +115 32 *
Fa
0  0.000000100000000 2 0

0111000
+114 0 *
Ve
0.000000100000000
-17.412500000000001 -17.499999999999993 18.412500000000005
0 0

0101101
*
Ve
0.000000100000000
-17.412500000000001 17.500000000000007 18.412499999999998
0 0

0101101
*
Ed
 0.000000100000000 1 1 0
1  8 0 0.000000000000000 35.000000000000000
2  11 3 0 0.000000000000000 35.000000000000000
4 C1 3 0 5 0
2  12 5 0 0.000000000000000 35.000000000000000
0

0101000
+112 6 -111 6 *
Ed
 0.000000100000000 1 1 0
1  9 0 1.570796326794897 3.141592653589793
2  13 3 30 1.570796326794897 3.141592653589793
0

0101000
+126 31 -112 31 *
Ed
 0.000000100000000 1 1 0
1  10 0 1.570796326794897 3.141592653589793
2  14 3 33 1.570796326794897 3.141592653589793
0

0101000
+125 34 -111 34 *
Wi

0101100
+124 0 -110 0 -109 29 +108 32 *
Fa
0  0.000000100000000 3 0

0111000
+107 0 *
Ve
0.000000100000000
17.412500000000001 -17.500000000000007 -18.412499999999998
0 0

0101101
*
Ed
 0.000000100000000 1 1 0
1  11 0 1.000000000000000 35.825000000000003
2  15 4 23 1.000000000000000 35.825000000000003
0

0101000
+105 24 -119 24 *
Ve
0.000000100000000
17.412500000000001 -17.499999999999993 18.412500000000005
0 0

0101101
*
Ed
 0.000000100000000 1 1 0
1  12 0 1.000000000000000 35.825000000000003
2  16 5 23 1.000000000000000 35.825000000000003
0

0101000
+112 24 -103 24 *
Ve
0.000000100000000
18.412500000000001 -17.500000000000007 -17.412499999999998
0 0

0101101
*
Ed
 0.000000100000000 1 1 0
1  13 0 0.000000000000000 1.570796326794897
2  17 7 30 0.000000000000000 1.570796326794897
0

0101000
+105 31 -101 31 *
Ve
0.000000100000000
18.412500000000001 -17.499999999999993 17.412500000000005
0 0

0101101
*
Ed
 0.000000100000000 1 1 0
1  14 0 1.570796326794897 3.141592653589793
2  18 8 30 1.570796326794897 3.141592653589793
0

0101000
+99 31 -103 31 *
Ed
 0.000000100000000 1 1 0
1  15 0 1.000000000000000 35.825000000000003
2  19 9 23 1.000000000000000 35.825000000000003
0

0101000
+99 24 -101 24 *
Wi

0101100
-123 37 +116 0 -109 0 -104 37 -102 37 +100 0 +98 0 -97 37 *
Ve
0.000000100000000
-17.999999999999996 -17.499999999999989 20.000000000000004
0 0

0101101
*
Ve
0.000000100000000
18.000000000000004 -17.499999999999989 20.000000000000004
0 0

0101101
*
Ed
 0.000000100000000 1 1 0
1  16 0 2.000000000000000 38.000000000000000
2  20 10 23 2.000000000000000 38.000000000000000
0

0101000
+95 24 -94 24 *
Ve
0.000000100000000
-19.999999999999996 -17.499999999999993 18.000000000000004
0 0

0101101
*
Ed
 0.000000100000000 1 1 0
1  17 0 3.141592653589793 4.712388980384690
2  21 11 40 3.141592653589793 4.712388980384690
0

0101000
+95 41 -92 41 *
Ve
0.000000100000000
20.000000000000004 -17.499999999999993 18.000000000000004
0 0

0101101
*
Ed
 0.000000100000000 1 1 0
1  18 0 3.141592653589793 4.712388980384690
2  22 12 40 3.141592653589793 4.712388980384690
0

0101000
+94 41 -90 41 *
Ve
0.000000100000000
-19.999999999999996 -17.500000000000007 -17.999999999999996
0 0

0101101
*
Ed
 0.000000100000000 1 1 0
1  19 0 2.000000000000000 38.000000000000000
2  23 13 23 2.000000000000000 38.000000000000000
0

0101000
+88 24 -92 24 *
Ve
0.000000100000000
20.000000000000004 -17.500000000000007 -17.999999999999996
0 0

0101101
*
Ed
 0.000000100000000 1 1 0
1  20 0 2.000000000000000 38.000000000000000
2  24 14 23 2.000000000000000 38.000000000000000
0

0101000
+90 24 -86 24 *
Ve
0.000000100000000
-17.999999999999996 -17.500000000000011 -19.999999999999996
0 0

0101101
*
Ed
 0.000000100000000 1 1 0
1  21 0 0.000000000000000 1.570796326794897
2  25 15 40 0.000000000000000 1.570796326794897
0

0101000
+84 41 -88 41 *
Ve
0.000000100000000
18.000000000000004 -17.500000000000011 -19.999999999999996
0 0

0101101
*
Ed
 0.000000100000000 1 1 0
1  22 0 4.712388980384690 6.283185307179586
2  26 16 40 4.712388980384690 6.283185307179586
0

0101000
+86 41 -82 41 *
Ed
 0.000000100000000 1 1 0
1  23 0 2.000000000000000 38.000000000000000
2  27 17 23 2.000000000000000 38.000000000000000
0

0101000
+82 24 -84 24 *
Wi

0101100
+93 39 -91 0 +89 0 +87 39 +85 39 +83 0 +81 0 +80 39 *
Fa
0  0.000000100000000 6 0

0111000
+96 36 +79 38 *
Ve
0.000000100000000
17.412500000000001 17.499999999999993 -18.412500000000005
0 0

0101101
*
Ed
 0.000000100000000 1 1 0
1  24 0 1.000000000000000 35.825000000000003
2  28 4 27 1.000000000000000 35.825000000000003
0

0101000
+77 28 -118 28 *
Ve
0.000000100000000
17.412500000000001 17.500000000000007 18.412499999999998
0 0

0101101
*
Ed
 0.000000100000000 1 1 0
1  25 0 1.000000000000000 35.825000000000003
2  29 5 27 1.000000000000000 35.825000000000003
0

0101000
+111 28 -75 28 *
Ve
0.000000100000000
18.412500000000001 17.499999999999993 -17.412500000000005
0 0

0101101
*
Ed
 0.000000100000000 1 1 0
1  26 0 0.000000000000000 1.570796326794897
2  30 7 33 0.000000000000000 1.570796326794897
0

0101000
+77 34 -73 34 *
Ve
0.000000100000000
18.412500000000001 17.500000000000007 17.412499999999998
0 0

0101101
*
Ed
 0.000000100000000 1 1 0
1  27 0 1.570796326794897 3.141592653589793
2  31 8 33 1.570796326794897 3.141592653589793
0

0101000
+71 34 -75 34 *
Ed
 0.000000100000000 1 1 0
1  28 0 1.000000000000000 35.825000000000003
2  32 9 27 1.000000000000000 35.825000000000003
0

0101000
+71 28 -73 28 *
Wi

0101100
-122 37 +115 0 -108 0 -76 37 -74 37 +72 0 +70 0 -69 37 *
Ve
0.000000100000000
-17.999999999999996 17.500000000000011 19.999999999999996
0 0

0101101
*
Ve
0.000000100000000
18.000000000000004 17.500000000000011 19.999999999999996
0 0

0101101
*
Ed
 0.000000100000000 1 1 0
1  29 0 2.000000000000000 38.000000000000000
2  33 10 27 2.000000000000000 38.000000000000000
0

0101000
+67 28 -66 28 *
Ve
0.000000100000000
-19.999999999999996 17.500000000000007 17.999999999999996
0 0

0101101
*
Ed
 0.000000100000000 1 1 0
1  30 0 3.141592653589793 4.712388980384690
2  34 11 43 3.141592653589793 4.712388980384690
0

0101000
+67 44 -64 44 *
Ve
0.000000100000000
20.000000000000004 17.500000000000007 17.999999999999996
0 0

0101101
*
Ed
 0.000000100000000 1 1 0
1  31 0 3.141592653589793 4.712388980384690
2  35 12 43 3.141592653589793 4.712388980384690
0

0101000
+66 44 -62 44 *
Ve
0.000000100000000
-19.999999999999996 17.499999999999993 -18.000000000000004
0 0

0101101
*
Ed
 0.000000100000000 1 1 0
1  32 0 2.000000000000000 38.000000000000000
2  36 13 27 2.000000000000000 38.000000000000000
0

0101000
+60 28 -64 28 *
Ve
0.000000100000000
20.000000000000004 17.499999999999993 -18.000000000000004
0 0

0101101
*
Ed
 0.000000100000000 1 1 0
1  33 0 2.000000000000000 38.000000000000000
2  37 14 27 2.000000000000000 38.000000000000000
0

0101000
+62 28 -58 28 *
Ve
0.000000100000000
-17.999999999999996 17.499999999999989 -20.000000000000004
0 0

0101101
*
Ed
 0.000000100000000 1 1 0
1  34 0 0.000000000000000 1.570796326794897
2  38 15 43 0.000000000000000 1.570796326794897
0

0101000
+56 44 -60 44 *
Ve
0.000000100000000
18.000000000000004 17.499999999999989 -20.000000000000004
0 0

0101101
*
Ed
 0.000000100000000 1 1 0
1  35 0 4.712388980384690 6.283185307179586
2  39 16 43 4.712388980384690 6.283185307179586
0

0101000
+58 44 -54 44 *
Ed
 0.000000100000000 1 1 0
1  36 0 2.000000000000000 38.000000000000000
2  40 17 27 2.000000000000000 38.000000000000000
0

0101000
+54 28 -56 28 *
Wi

0101100
+65 39 -63 0 +61 0 +59 39 +57 39 +55 0 +53 0 +52 39 *
Fa
0  0.000000100000000 18 0

0111000
+68 36 +51 38 *
Ed
 0.000000100000000 1 1 0
1  37 0 0.000000000000000 35.000000000000000
2  41 7 0 0.000000000000000 35.000000000000000
4 C1 4 0 7 0
2  42 4 0 0.000000000000000 35.000000000000000
0

0101000
+105 6 -77 6 *
Wi

0101100
+49 4 -104 45 +76 46 -117 4 *
Ve
0.000000100000004
3.968750000000000 -0.684986000000000 -18.412500000000001
0 0

0101101
*
Ed
 0.000000100000000 1 1 0
1  38 0 0.000000000000000 6.283185307179586
2  43 4 4 0.000000000000000 6.283185307179586
2  44 19 0 0.000000000000000 6.283185307179586
0

0101000
+47 0 -47 0 *
Wi

0101100
-46 0 *
Fa
0  0.000000100000000 4 4

0111000
+48 0 +45 0 *
Ed
 0.000000100000000 1 1 0
1  39 0 0.000000000000000 35.000000000000000
2  45 8 0 0.000000000000000 35.000000000000000
4 C1 5 0 8 0
2  46 5 0 0.000000000000000 35.000000000000000
0

0101000
+103 6 -75 6 *
Wi

0101100
+110 0 -43 0 -102 22 +74 26 *
Fa
0  0.000000100000000 5 0

0111000
+42 0 *
Ed
 0.000000100000000 1 1 0
1  40 0 0.000000000000000 35.000000000000000
2  47 7 0 0.000000000000000 35.000000000000000
4 C1 7 0 9 0
2  48 9 0 0.000000000000000 35.000000000000000
0

0101000
+101 6 -73 6 *
Wi

0101100
+49 0 -40 0 -100 29 +72 32 *
Fa
0  0.000000100000000 7 0

0111000
+39 0 *
Ed
 0.000000100000000 1 1 0
1  41 0 0.000000000000000 35.000000000000000
2  49 8 0 0.000000000000000 35.000000000000000
4 C1 8 0 9 0
2  50 9 0 0.000000000000000 35.000000000000000
0

0101000
+99 6 -71 6 *
Wi

0101100
+37 0 -43 0 -98 29 +70 32 *
Fa
0  0.000000100000000 8 0

0111000
+36 0 *
Wi

0101100
+37 0 -40 0 -97 22 +69 26 *
Fa
0  0.000000100000000 9 0

0111000
+34 0 *
Ed
 0.000000100000000 1 1 0
1  42 0 0.000000000000000 35.000000000000000
2  51 11 0 0.000000000000000 35.000000000000000
4 G1 10 0 11 0
2  52 10 0 0.000000000000000 35.000000000000000
0

0101000
+95 6 -67 6 *
Ed
 0.000000100000000 1 1 0
1  43 0 0.000000000000000 35.000000000000000
2  53 12 0 0.000000000000000 35.000000000000000
4 G1 10 0 12 0
2  54 10 0 0.000000000000000 35.000000000000000
0

0101000
+94 6 -66 6 *
Wi

0101100
+32 0 -31 0 -93 22 +65 26 *
Fa
0  0.000000100000000 10 0

0111000
+30 0 *
Ed
 0.000000100000000 1 1 0
1  44 0 0.000000000000000 35.000000000000000
2  55 11 0 0.000000000000000 35.000000000000000
4 G1 11 0 13 0
2  56 13 0 0.000000000000000 35.000000000000000
0

0101000
+92 6 -64 6 *
Wi

0101100
+32 0 -28 0 -91 47 +63 48 *
Fa
0  0.000000100000000 11 0

0111000
+27 0 *
Ed
 0.000000100000000 1 1 0
1  45 0 0.000000000000000 35.000000000000000
2  57 12 0 0.000000000000000 35.000000000000000
4 G1 12 0 14 0
2  58 14 0 0.000000000000000 35.000000000000000
0

0101000
+90 6 -62 6 *
Wi

0101100
+31 0 -25 0 -89 47 +61 48 *
Fa
0  0.000000100000000 12 0

0111000
+24 0 *
Ed
 0.000000100000000 1 1 0
1  46 0 0.000000000000000 35.000000000000000
2  59 15 0 0.000000000000000 35.000000000000000
4 G1 13 0 15 0
2  60 13 0 0.000000000000000 35.000000000000000
0

0101000
+88 6 -60 6 *
Wi

0101100
+22 0 -28 0 -87 22 +59 26 *
Fa
0  0.000000100000000 13 0

0111000
+21 0 *
Ed
 0.000000100000000 1 1 0
1  47 0 0.000000000000000 35.000000000000000
2  61 16 0 0.000000000000000 35.000000000000000
4 G1 14 0 16 0
2  62 14 0 0.000000000000000 35.000000000000000
0

0101000
+86 6 -58 6 *
Wi

0101100
+25 0 -19 0 -85 22 +57 26 *
Fa
0  0.000000100000000 14 0

0111000
+18 0 *
Ed
 0.000000100000000 1 1 0
1  48 0 0.000000000000000 35.000000000000000
2  63 15 0 0.000000000000000 35.000000000000000
4 G1 15 0 17 0
2  64 17 0 0.000000000000000 35.000000000000000
0

0101000
+84 6 -56 6 *
Wi

0101100
+16 0 -22 0 -83 47 +55 48 *
Fa
0  0.000000100000000 15 0

0111000
+15 0 *
Ed
 0.000000100000000 1 1 0
1  49 0 0.000000000000000 35.000000000000000
2  65 16 0 0.000000000000000 35.000000000000000
4 G1 16 0 17 0
2  66 17 0 0.000000000000000 35.000000000000000
0

0101000
+82 6 -54 6 *
Wi

0101100
+19 0 -13 0 -81 47 +53 48 *
Fa
0  0.000000100000000 16 0

0111000
+12 0 *
Wi

0101100
+13 4 -80 45 +52 46 -16 4 *
Ve
0.000000100000001
3.968750000000000 -0.684986000000000 -20.000000000000000
0 0

0101101
*
Ed
 0.000000100000000 1 1 0
1  50 0 0.000000000000000 6.283185307179586
2  67 17 4 0.000000000000000 6.283185307179586
2  68 19 0 0.000000000000000 6.283185307179586
0

0101000
+9 0 -9 0 *
Wi

0101100
-8 0 *
Fa
0  0.000000100000000 17 4

0111000
+10 0 +7 0 *
Ed
 0.000000100000000 1 1 0
1  51 0 18.412500000000001 20.000000000000000
3  69 70CN 19 0 18.412500000000001 20.000000000000000
0

0101000
+47 0 -9 0 *
Wi

0101100
-46 0 -5 0 +8 0 +5 0 *
Fa
0  0.000000100000000 19 0

0111000
+4 0 *
Sh

0101100
+120 4 -113 4 +106 4 -78 35 +50 42 +44 0 +41 4 -38 4 -35 4 +33 4 
-29 4 +26 4 -23 4 -20 4 -17 4 -14 4 -11 4 -6 0 -3 0 *
So

0100000
+2 0 *

+1 1 