
CASCADE Topology V1, (c) Matra-Datavision
Locations 43
1
1.000000000000000 0.000000000000000 0.000000000000000 0.000000000000000 
0.000000000000000 1.000000000000000 0.000000000000000 0.000000000000000 
0.000000000000000 0.000000000000000 1.000000000000000 0.000000000000000 
1
1.000000000000000 0.000000000000000 0.000000000000000 0.000000000000000 
0.000000000000000 1.000000000000000 0.000000000000000 0.000000000000000 
0.000000000000000 0.000000000000000 1.000000000000000 0.000000000000000 
2  2 -1 0
1
1.000000000000000 0.000000000000000 0.000000000000000 0.000000000000000 
0.000000000000000 1.000000000000000 0.000000000000000 0.000000000000000 
0.000000000000000 0.000000000000000 1.000000000000000 0.000000000000000 
1
1.000000000000000 0.000000000000000 0.000000000000000 0.000000000000000 
0.000000000000000 0.000000000000000 -1.000000000000000 0.000000000000000 
0.000000000000000 1.000000000000000 0.000000000000000 0.000000000000000 
1
1.000000000000000 0.000000000000000 0.000000000000000 0.000000000000000 
0.000000000000000 -0.000000000000000 -1.000000000000000 0.000000000000000 
0.000000000000000 1.000000000000000 -0.000000000000000 0.000000000000000 
1
1.000000000000000 0.000000000000000 0.000000000000000 0.000000000000000 
0.000000000000000 1.000000000000000 0.000000000000000 0.000000000000000 
0.000000000000000 0.000000000000000 1.000000000000000 0.000000000000000 
1
1.000000000000000 0.000000000000000 0.000000000000000 0.000000000000000 
0.000000000000000 1.000000000000000 0.000000000000000 0.000000000000000 
0.000000000000000 0.000000000000000 1.000000000000000 0.000000000000000 
1
1.000000000000000 0.000000000000000 0.000000000000000 0.000000000000000 
0.000000000000000 1.000000000000000 0.000000000000000 0.000000000000000 
0.000000000000000 0.000000000000000 1.000000000000000 0.000000000000000 
1
1.000000000000000 0.000000000000000 0.000000000000000 0.000000000000000 
0.000000000000000 0.000000000000000 -1.000000000000000 0.000000000000000 
0.000000000000000 1.000000000000000 0.000000000000000 0.000000000000000 
1
1.000000000000000 0.000000000000000 0.000000000000000 0.000000000000000 
0.000000000000000 1.000000000000000 0.000000000000000 0.000000000000000 
0.000000000000000 0.000000000000000 1.000000000000000 0.000000000000000 
1
1.000000000000000 0.000000000000000 0.000000000000000 0.000000000000000 
0.000000000000000 1.000000000000000 0.000000000000000 0.000000000000000 
0.000000000000000 0.000000000000000 1.000000000000000 0.000000000000000 
1
1.000000000000000 0.000000000000000 0.000000000000000 0.000000000000000 
0.000000000000000 1.000000000000000 0.000000000000000 0.000000000000000 
0.000000000000000 0.000000000000000 1.000000000000000 0.000000000000000 
1
1.000000000000000 0.000000000000000 0.000000000000000 0.000000000000000 
0.000000000000000 1.000000000000000 0.000000000000000 0.000000000000000 
0.000000000000000 0.000000000000000 1.000000000000000 0.000000000000000 
1
1.000000000000000 0.000000000000000 0.000000000000000 0.000000000000000 
0.000000000000000 1.000000000000000 0.000000000000000 0.000000000000000 
0.000000000000000 0.000000000000000 1.000000000000000 0.000000000000000 
1
1.000000000000000 0.000000000000000 0.000000000000000 0.000000000000000 
0.000000000000000 1.000000000000000 0.000000000000000 0.000000000000000 
0.000000000000000 0.000000000000000 1.000000000000000 0.000000000000000 
1
1.000000000000000 0.000000000000000 0.000000000000000 0.000000000000000 
0.000000000000000 1.000000000000000 0.000000000000000 0.000000000000000 
0.000000000000000 0.000000000000000 1.000000000000000 0.000000000000000 
1
1.000000000000000 0.000000000000000 0.000000000000000 -0.000000000000000 
0.000000000000000 1.000000000000000 0.000000000000000 -17.500000000000000 
0.000000000000000 0.000000000000000 1.000000000000000 0.000000000000004 
2  4 1 5 1 6 -1 7 1 8 1 9 1 10 1 11 1 12 1 13 1 14 1 15 1 16 1 17 -1 18 1 0
2  18 -1 17 1 16 -1 15 -1 14 -1 13 -1 12 -1 11 -1 10 -1 9 -1 8 -1 7 -1 6 1 5 -1 4 -1 0
2  2 -1 18 -1 17 1 16 -1 15 -1 14 -1 13 -1 12 -1 11 -1 10 -1 9 -1 8 -1 7 -1 6 1 5 -1 4 -1 0
1
1.000000000000000 0.000000000000000 0.000000000000000 0.000000000000000 
0.000000000000000 1.000000000000000 0.000000000000000 35.000000000000000 
0.000000000000000 0.000000000000000 1.000000000000000 -0.000000000000008 
2  4 1 5 1 6 -1 7 1 8 1 9 1 10 1 11 1 12 1 13 1 14 1 15 1 16 1 17 -1 18 1 22 1 0
2  22 -1 18 -1 17 1 16 -1 15 -1 14 -1 13 -1 12 -1 11 -1 10 -1 9 -1 8 -1 7 -1 6 1 5 -1 4 -1 0
2  2 -1 22 -1 18 -1 17 1 16 -1 15 -1 14 -1 13 -1 12 -1 11 -1 10 -1 9 -1 8 -1 7 -1 6 1 5 -1 4 -1 0
2  9 1 10 1 11 1 12 1 13 1 14 1 15 1 16 1 17 -1 18 1 0
2  18 -1 17 1 16 -1 15 -1 14 -1 13 -1 12 -1 11 -1 10 -1 9 -1 0
2  2 -1 18 -1 17 1 16 -1 15 -1 14 -1 13 -1 12 -1 11 -1 10 -1 9 -1 0
2  9 1 10 1 11 1 12 1 13 1 14 1 15 1 16 1 17 -1 18 1 22 1 0
2  22 -1 18 -1 17 1 16 -1 15 -1 14 -1 13 -1 12 -1 11 -1 10 -1 9 -1 0
2  2 -1 22 -1 18 -1 17 1 16 -1 15 -1 14 -1 13 -1 12 -1 11 -1 10 -1 9 -1 0
2  8 1 9 1 10 1 11 1 12 1 13 1 14 1 15 1 16 1 17 -1 18 1 0
2  18 -1 17 1 16 -1 15 -1 14 -1 13 -1 12 -1 11 -1 10 -1 9 -1 8 -1 0
2  2 -1 18 -1 17 1 16 -1 15 -1 14 -1 13 -1 12 -1 11 -1 10 -1 9 -1 8 -1 0
2  8 1 9 1 10 1 11 1 12 1 13 1 14 1 15 1 16 1 17 -1 18 1 22 1 0
2  22 -1 18 -1 17 1 16 -1 15 -1 14 -1 13 -1 12 -1 11 -1 10 -1 9 -1 8 -1 0
2  2 -1 22 -1 18 -1 17 1 16 -1 15 -1 14 -1 13 -1 12 -1 11 -1 10 -1 9 -1 8 -1 0
2  6 -1 7 1 8 1 9 1 10 1 11 1 12 1 13 1 14 1 15 1 16 1 17 -1 18 1 0
2  8 -1 7 -1 6 1 0
2  4 1 5 1 6 -1 7 1 8 1 0
2  7 -1 6 1 0
2  4 1 5 1 6 -1 7 1 0
2  6 -1 7 1 8 1 9 1 10 1 11 1 12 1 13 1 14 1 15 1 16 1 17 -1 18 1 22 1 0
Curve2ds 64
1 4.71238898038468967 0.00000000000000000 0.00000000000000000 -1.00000000000000000 
1 0.00000000000000000 0.00000000000000711 -0.00000000000000022 -1.00000000000000000 
1 1.57079632679489700 0.00000000000000000 0.00000000000000000 -1.00000000000000000 
1 34.82500000000000284 -0.00000000000000711 -0.00000000000000022 -1.00000000000000000 
1 -1.00000000000000355 0.00000000000000000 1.00000000000000000 0.00000000000000000 
1 -1.00000000000001066 -35.00000000000000000 1.00000000000000000 0.00000000000000000 
1 6.28318530717958623 0.00000000000000000 0.00000000000000000 -1.00000000000000000 
1 34.82500000000000284 0.00000000000000711 0.00000000000000000 -1.00000000000000000 
1 0.00000000000000000 0.00000000000000000 1.00000000000000000 0.00000000000000000 
1 0.00000000000000000 -35.00000000000000000 1.00000000000000000 0.00000000000000000 
1 3.14159265358979312 0.00000000000000000 0.00000000000000000 -1.00000000000000000 
1 0.00000000000000000 -0.00000000000000711 0.00000000000000000 -1.00000000000000000 
1 0.00000000000000000 0.00000000000000000 1.00000000000000000 0.00000000000000000 
1 0.00000000000000000 -35.00000000000000000 1.00000000000000000 0.00000000000000000 
1 0.00000000000000000 0.00000000000000000 0.00000000000000000 -1.00000000000000000 
1 -0.00000000000000000 0.00000000000000711 0.00000000000000000 -1.00000000000000000 
1 -1.00000000000000000 -0.00000000000000000 1.00000000000000000 0.00000000000000000 
1 -1.00000000000000000 -35.00000000000000000 1.00000000000000000 0.00000000000000000 
1 3.14159265358979312 0.00000000000000000 0.00000000000000000 -1.00000000000000000 
1 34.82500000000000284 -0.00000000000000711 0.00000000000000000 -1.00000000000000000 
1 -1.00000000000000000 0.00000000000000000 1.00000000000000000 0.00000000000000000 
1 -1.00000000000000000 -35.00000000000000000 1.00000000000000000 0.00000000000000000 
1 1.57079632679489700 0.00000000000000000 0.00000000000000000 -1.00000000000000000 
1 34.82500000000000284 0.00000000000000711 0.00000000000000022 -1.00000000000000000 
1 0.00000000000000000 0.00000000000000000 1.00000000000000000 0.00000000000000000 
1 0.00000000000000000 -35.00000000000000000 1.00000000000000000 0.00000000000000000 
1 1.57079632679489700 0.00000000000000000 0.00000000000000000 -1.00000000000000000 
1 0.00000000000000000 -0.00000000000000711 0.00000000000000022 -1.00000000000000000 
1 0.00000000000000000 0.00000000000000000 1.00000000000000000 0.00000000000000000 
1 0.00000000000000000 -35.00000000000000000 1.00000000000000000 0.00000000000000000 
1 -1.00000000000000000 -0.00000000000000000 1.00000000000000000 0.00000000000000000 
1 -0.99999999999999289 -35.00000000000000000 1.00000000000000000 0.00000000000000000 
1 3.14159265358979312 0.00000000000000000 0.00000000000000000 -1.00000000000000000 
1 0.00000000000000000 -0.00000000000001066 0.00000000000000000 -1.00000000000000000 
1 3.14159265358979312 0.00000000000000000 0.00000000000000000 -1.00000000000000000 
1 36.00000000000000000 -0.00000000000001066 0.00000000000000000 -1.00000000000000000 
1 -2.00000000000000000 0.00000000000000000 1.00000000000000000 0.00000000000000000 
1 -2.00000000000000000 -35.00000000000000000 1.00000000000000000 0.00000000000000000 
1 4.71238898038468967 0.00000000000000000 0.00000000000000000 -1.00000000000000000 
1 36.00000000000000000 -0.00000000000000711 -0.00000000000000022 -1.00000000000000000 
1 0.00000000000000000 0.00000000000000000 1.00000000000000000 0.00000000000000000 
1 0.00000000000000000 -35.00000000000000000 1.00000000000000000 0.00000000000000000 
1 4.71238898038468967 0.00000000000000000 0.00000000000000000 -1.00000000000000000 
1 0.00000000000000000 -0.00000000000000711 0.00000000000000022 -1.00000000000000000 
1 0.00000000000000000 0.00000000000000000 1.00000000000000000 0.00000000000000000 
1 0.00000000000000000 -35.00000000000000000 1.00000000000000000 0.00000000000000000 
1 1.57079632679489700 0.00000000000000000 0.00000000000000000 -1.00000000000000000 
1 0.00000000000000000 0.00000000000000711 -0.00000000000000022 -1.00000000000000000 
1 -2.00000000000000000 0.00000000000000000 1.00000000000000000 0.00000000000000000 
1 -2.00000000000000711 -35.00000000000000000 1.00000000000000000 0.00000000000000000 
1 4.71238898038468967 0.00000000000000000 0.00000000000000000 -1.00000000000000000 
1 36.00000000000000000 0.00000000000000711 0.00000000000000022 -1.00000000000000000 
1 -2.00000000000000000 -0.00000000000000000 1.00000000000000000 0.00000000000000000 
1 -1.99999999999999289 -35.00000000000000000 1.00000000000000000 0.00000000000000000 
1 0.00000000000000000 0.00000000000000000 0.00000000000000000 -1.00000000000000000 
1 36.00000000000000000 0.00000000000001066 0.00000000000000000 -1.00000000000000000 
1 0.00000000000000000 0.00000000000000000 1.00000000000000000 0.00000000000000000 
1 0.00000000000000000 -35.00000000000000000 1.00000000000000000 0.00000000000000000 
1 6.28318530717958623 0.00000000000000000 0.00000000000000000 -1.00000000000000000 
1 0.00000000000000000 0.00000000000001066 0.00000000000000000 -1.00000000000000000 
1 0.00000000000000000 0.00000000000000000 1.00000000000000000 0.00000000000000000 
1 0.00000000000000000 -35.00000000000000000 1.00000000000000000 0.00000000000000000 
1 -2.00000000000000000 0.00000000000000000 1.00000000000000000 0.00000000000000000 
1 -2.00000000000000000 -35.00000000000000000 1.00000000000000000 0.00000000000000000 
Curves 48
1 -18.41250000000000142 -17.50000000000000711 -17.41249999999999787 0.00000000000000000 1.00000000000000000 -0.00000000000000022 
1 -18.41250000000000142 -17.49999999999999289 17.41250000000000497 0.00000000000000000 1.00000000000000000 -0.00000000000000022 
1 -18.41250000000000142 -18.41250000000000497 0.00000000000000000 0.00000000000000000 1.00000000000000000 0.00000000000000000 
1 -18.41250000000000142 -18.41250000000000497 0.00000000000000000 0.00000000000000000 1.00000000000000000 0.00000000000000000 
1 -17.41250000000000142 -17.50000000000000711 -18.41249999999999787 0.00000000000000000 1.00000000000000000 -0.00000000000000022 
8 4.71238898038468967 6.28318530717958623
2 -17.41250000000000142 -17.41250000000000142 0.00000000000000773 -0.00000000000000000 0.00000000000000044 1.00000000000000000 0.00000000000000000 -1.00000000000000000 0.00000000000000044 1.00000000000000000 0.00000000000000000 0.00000000000000000 1.00000000000000000
8 4.71238898038468967 6.28318530717958623
2 -17.41250000000000142 -17.41250000000000142 0.00000000000000773 -0.00000000000000000 0.00000000000000044 1.00000000000000000 0.00000000000000000 -1.00000000000000000 0.00000000000000044 1.00000000000000000 0.00000000000000000 0.00000000000000000 1.00000000000000000
1 -17.41250000000000142 -17.49999999999999289 18.41250000000000497 0.00000000000000000 1.00000000000000000 -0.00000000000000022 
8 1.57079632679489656 3.14159265358979312
2 -17.41250000000000142 17.41250000000000142 -0.00000000000000773 -0.00000000000000000 -0.00000000000000044 -1.00000000000000000 0.00000000000000000 -1.00000000000000000 0.00000000000000044 -1.00000000000000000 0.00000000000000000 0.00000000000000000 1.00000000000000000
8 1.57079632679489656 3.14159265358979312
2 -17.41250000000000142 17.41250000000000142 -0.00000000000000773 -0.00000000000000000 -0.00000000000000044 -1.00000000000000000 0.00000000000000000 -1.00000000000000000 0.00000000000000044 -1.00000000000000000 0.00000000000000000 0.00000000000000000 1.00000000000000000
1 17.41250000000000142 -17.50000000000000711 -18.41249999999999787 0.00000000000000000 1.00000000000000000 -0.00000000000000022 
1 18.41250000000000142 -18.41250000000000142 0.00000000000000000 -1.00000000000000000 -0.00000000000000010 0.00000000000000000 
1 18.41250000000000142 -18.41250000000000142 0.00000000000000000 -1.00000000000000000 -0.00000000000000010 0.00000000000000000 
1 17.41250000000000142 -17.49999999999999289 18.41250000000000497 0.00000000000000000 1.00000000000000000 -0.00000000000000022 
1 -18.41250000000000142 18.41250000000000142 0.00000000000000000 1.00000000000000000 0.00000000000000000 0.00000000000000000 
1 -18.41250000000000142 18.41250000000000142 0.00000000000000000 1.00000000000000000 0.00000000000000000 0.00000000000000000 
1 18.41250000000000142 -17.50000000000000711 -17.41249999999999787 0.00000000000000000 1.00000000000000000 -0.00000000000000022 
8 0.00000000000000000 1.57079632679489656
2 17.41250000000000142 -17.41250000000000142 0.00000000000000773 -0.00000000000000000 0.00000000000000044 1.00000000000000000 0.00000000000000000 -1.00000000000000000 0.00000000000000044 1.00000000000000000 0.00000000000000000 0.00000000000000000 1.00000000000000000
8 0.00000000000000000 1.57079632679489656
2 17.41250000000000142 -17.41250000000000142 0.00000000000000773 -0.00000000000000000 0.00000000000000044 1.00000000000000000 0.00000000000000000 -1.00000000000000000 0.00000000000000044 1.00000000000000000 0.00000000000000000 0.00000000000000000 1.00000000000000000
1 18.41250000000000142 -17.49999999999999289 17.41250000000000497 0.00000000000000000 1.00000000000000000 -0.00000000000000022 
8 1.57079632679489656 3.14159265358979312
2 17.41250000000000142 17.41250000000000142 -0.00000000000000773 -0.00000000000000000 0.00000000000000044 1.00000000000000000 0.00000000000000000 -1.00000000000000000 0.00000000000000044 1.00000000000000000 0.00000000000000000 0.00000000000000000 1.00000000000000000
8 1.57079632679489656 3.14159265358979312
2 17.41250000000000142 17.41250000000000142 -0.00000000000000773 -0.00000000000000000 0.00000000000000044 1.00000000000000000 0.00000000000000000 -1.00000000000000000 0.00000000000000044 1.00000000000000000 0.00000000000000000 0.00000000000000000 1.00000000000000000
1 18.41250000000000142 18.41250000000000142 0.00000000000000000 0.00000000000000000 -1.00000000000000000 0.00000000000000000 
1 18.41250000000000142 18.41250000000000142 0.00000000000000000 0.00000000000000000 -1.00000000000000000 0.00000000000000000 
1 -17.99999999999999645 -17.49999999999998934 20.00000000000000355 0.00000000000000000 1.00000000000000000 -0.00000000000000022 
1 18.00000000000000355 -17.49999999999998934 20.00000000000000355 0.00000000000000000 1.00000000000000000 -0.00000000000000022 
1 -19.99999999999999645 20.00000000000000000 0.00000000000000000 1.00000000000000000 0.00000000000000000 0.00000000000000000 
1 -19.99999999999999645 20.00000000000000000 0.00000000000000000 1.00000000000000000 0.00000000000000000 0.00000000000000000 
1 -19.99999999999999645 -17.49999999999999289 18.00000000000000355 0.00000000000000000 1.00000000000000000 -0.00000000000000022 
8 3.14159265358979312 4.71238898038468967
2 -17.99999999999999645 18.00000000000000000 -0.00000000000000799 -0.00000000000000000 0.00000000000000044 1.00000000000000000 0.00000000000000000 -1.00000000000000000 0.00000000000000044 1.00000000000000000 0.00000000000000000 0.00000000000000000 2.00000000000000000
8 3.14159265358979312 4.71238898038468967
2 -17.99999999999999645 18.00000000000000000 -0.00000000000000799 -0.00000000000000000 0.00000000000000044 1.00000000000000000 0.00000000000000000 -1.00000000000000000 0.00000000000000044 1.00000000000000000 0.00000000000000000 0.00000000000000000 2.00000000000000000
1 20.00000000000000355 -17.49999999999999289 18.00000000000000355 0.00000000000000000 1.00000000000000000 -0.00000000000000022 
8 3.14159265358979312 4.71238898038468967
2 18.00000000000000355 18.00000000000000000 -0.00000000000000799 -0.00000000000000000 -0.00000000000000044 -1.00000000000000000 0.00000000000000000 -1.00000000000000000 0.00000000000000044 -1.00000000000000000 0.00000000000000000 0.00000000000000000 2.00000000000000000
8 3.14159265358979312 4.71238898038468967
2 18.00000000000000355 18.00000000000000000 -0.00000000000000799 -0.00000000000000000 -0.00000000000000044 -1.00000000000000000 0.00000000000000000 -1.00000000000000000 0.00000000000000044 -1.00000000000000000 0.00000000000000000 0.00000000000000000 2.00000000000000000
1 -19.99999999999999645 -17.50000000000000711 -17.99999999999999645 0.00000000000000000 1.00000000000000000 -0.00000000000000022 
1 -19.99999999999999645 -20.00000000000000000 0.00000000000000000 0.00000000000000000 1.00000000000000000 0.00000000000000000 
1 -19.99999999999999645 -20.00000000000000000 0.00000000000000000 0.00000000000000000 1.00000000000000000 0.00000000000000000 
1 20.00000000000000355 -17.50000000000000711 -17.99999999999999645 0.00000000000000000 1.00000000000000000 -0.00000000000000022 
1 20.00000000000000355 20.00000000000000000 0.00000000000000000 0.00000000000000000 -1.00000000000000000 0.00000000000000000 
1 20.00000000000000355 20.00000000000000000 0.00000000000000000 0.00000000000000000 -1.00000000000000000 0.00000000000000000 
1 -17.99999999999999645 -17.50000000000001066 -19.99999999999999645 0.00000000000000000 1.00000000000000000 -0.00000000000000022 
8 0.00000000000000000 1.57079632679489656
2 -17.99999999999999645 -18.00000000000000000 0.00000000000000799 -0.00000000000000000 -0.00000000000000044 -1.00000000000000000 0.00000000000000000 -1.00000000000000000 0.00000000000000044 -1.00000000000000000 0.00000000000000000 0.00000000000000000 2.00000000000000000
8 0.00000000000000000 1.57079632679489656
2 -17.99999999999999645 -18.00000000000000000 0.00000000000000799 -0.00000000000000000 -0.00000000000000044 -1.00000000000000000 0.00000000000000000 -1.00000000000000000 0.00000000000000044 -1.00000000000000000 0.00000000000000000 0.00000000000000000 2.00000000000000000
1 18.00000000000000355 -17.50000000000001066 -19.99999999999999645 0.00000000000000000 1.00000000000000000 -0.00000000000000022 
8 4.71238898038468967 6.28318530717958623
2 18.00000000000000355 -18.00000000000000000 0.00000000000000799 -0.00000000000000000 -0.00000000000000044 -1.00000000000000000 0.00000000000000000 -1.00000000000000000 0.00000000000000044 -1.00000000000000000 0.00000000000000000 0.00000000000000000 2.00000000000000000
8 4.71238898038468967 6.28318530717958623
2 18.00000000000000355 -18.00000000000000000 0.00000000000000799 -0.00000000000000000 -0.00000000000000044 -1.00000000000000000 0.00000000000000000 -1.00000000000000000 0.00000000000000044 -1.00000000000000000 0.00000000000000000 0.00000000000000000 2.00000000000000000
1 20.00000000000000355 -20.00000000000000000 0.00000000000000000 -1.00000000000000000 0.00000000000000000 0.00000000000000000 
1 20.00000000000000355 -20.00000000000000000 0.00000000000000000 -1.00000000000000000 0.00000000000000000 0.00000000000000000 
Polygon3D 0
PolygonOnTriangulations 0
Surfaces 18
1 -18.41250000000000142 -17.50000000000000000 -17.41249999999999787 1.00000000000000000 0.00000000000000000 0.00000000000000000 0.00000000000000000 0.00000000000000000 1.00000000000000000 0.00000000000000000 -1.00000000000000000 0.00000000000000000 
2 -17.41250000000000142 -17.50000000000000711 -17.41249999999999787 0.00000000000000000 -1.00000000000000000 0.00000000000000044 0.00000000000000000 -0.00000000000000044 -1.00000000000000000 1.00000000000000000 0.00000000000000000 0.00000000000000000 1.00000000000000000
2 -17.41250000000000142 -17.49999999999999289 17.41250000000000497 0.00000000000000000 -1.00000000000000000 0.00000000000000044 0.00000000000000000 -0.00000000000000044 -1.00000000000000000 -1.00000000000000000 -0.00000000000000000 -0.00000000000000000 1.00000000000000000
1 17.41250000000000142 -17.50000000000000000 -18.41249999999999787 -0.00000000000000010 0.00000000000000022 1.00000000000000000 -1.00000000000000000 0.00000000000000000 -0.00000000000000010 -0.00000000000000000 -1.00000000000000000 0.00000000000000022 
1 -17.41250000000000142 -17.50000000000000000 18.41250000000000497 0.00000000000000000 -0.00000000000000022 -1.00000000000000000 1.00000000000000000 0.00000000000000000 0.00000000000000000 0.00000000000000000 -1.00000000000000000 0.00000000000000022 
2 17.41250000000000142 -17.50000000000000711 -17.41249999999999787 0.00000000000000000 -1.00000000000000000 0.00000000000000044 0.00000000000000000 -0.00000000000000044 -1.00000000000000000 1.00000000000000000 0.00000000000000000 0.00000000000000000 1.00000000000000000
2 17.41250000000000142 -17.49999999999999289 17.41250000000000497 0.00000000000000000 -1.00000000000000000 0.00000000000000044 0.00000000000000000 -0.00000000000000044 -1.00000000000000000 1.00000000000000000 0.00000000000000000 0.00000000000000000 1.00000000000000000
1 18.41250000000000142 -17.50000000000000000 17.41250000000000497 -1.00000000000000000 0.00000000000000000 0.00000000000000000 0.00000000000000000 0.00000000000000000 -1.00000000000000000 -0.00000000000000000 -1.00000000000000000 -0.00000000000000000 
1 -17.99999999999999645 -17.50000000000000000 20.00000000000000355 0.00000000000000000 -0.00000000000000022 -1.00000000000000000 1.00000000000000000 0.00000000000000000 0.00000000000000000 0.00000000000000000 -1.00000000000000000 0.00000000000000022 
2 -17.99999999999999645 -17.49999999999999289 18.00000000000000355 0.00000000000000000 -1.00000000000000000 0.00000000000000044 0.00000000000000000 -0.00000000000000044 -1.00000000000000000 1.00000000000000000 0.00000000000000000 0.00000000000000000 2.00000000000000000
2 18.00000000000000355 -17.49999999999999289 18.00000000000000355 0.00000000000000000 -1.00000000000000000 0.00000000000000044 0.00000000000000000 -0.00000000000000044 -1.00000000000000000 -1.00000000000000000 -0.00000000000000000 -0.00000000000000000 2.00000000000000000
1 -19.99999999999999645 -17.50000000000000000 -17.99999999999999645 1.00000000000000000 0.00000000000000000 0.00000000000000000 0.00000000000000000 0.00000000000000000 1.00000000000000000 0.00000000000000000 -1.00000000000000000 0.00000000000000000 
1 20.00000000000000355 -17.50000000000000000 18.00000000000000355 -1.00000000000000000 0.00000000000000000 0.00000000000000000 0.00000000000000000 0.00000000000000000 -1.00000000000000000 -0.00000000000000000 -1.00000000000000000 -0.00000000000000000 
2 -17.99999999999999645 -17.50000000000000711 -17.99999999999999645 0.00000000000000000 -1.00000000000000000 0.00000000000000044 0.00000000000000000 -0.00000000000000044 -1.00000000000000000 -1.00000000000000000 -0.00000000000000000 -0.00000000000000000 2.00000000000000000
2 18.00000000000000355 -17.50000000000000711 -17.99999999999999645 0.00000000000000000 -1.00000000000000000 0.00000000000000044 0.00000000000000000 -0.00000000000000044 -1.00000000000000000 -1.00000000000000000 -0.00000000000000000 -0.00000000000000000 2.00000000000000000
1 18.00000000000000355 -17.50000000000000000 -19.99999999999999645 0.00000000000000000 0.00000000000000022 1.00000000000000000 -1.00000000000000000 0.00000000000000000 0.00000000000000000 0.00000000000000000 -1.00000000000000000 0.00000000000000022 
1 0.00000000000000213 0.00000000000000000 0.00000000000000000 0.00000000000000000 1.00000000000000000 -0.00000000000000022 0.00000000000000000 0.00000000000000022 1.00000000000000000 1.00000000000000000 -0.00000000000000000 0.00000000000000000 
1 0.00000000000000213 0.00000000000000000 0.00000000000000000 0.00000000000000000 1.00000000000000000 -0.00000000000000022 0.00000000000000000 0.00000000000000022 1.00000000000000000 1.00000000000000000 -0.00000000000000000 0.00000000000000000 
Triangulations 0

TShapes 120
Ve
0.000000100000000
-18.412500000000001 -17.500000000000007 -17.412499999999998
0 0

0101101
*
Ve
0.000000100000000
-18.412500000000001 17.499999999999993 -17.412500000000005
0 0

0101101
*
Ed
 0.000000100000000 1 1 0
1  1 0 0.000000000000000 35.000000000000000
2  1 2 0 0.000000000000000 35.000000000000000
4 C1 1 0 2 0
2  2 1 0 0.000000000000000 35.000000000000000
0

0101000
+120 3 -119 3 *
Ve
0.000000100000000
-18.412500000000001 -17.499999999999993 17.412500000000005
0 0

0101101
*
Ve
0.000000100000000
-18.412500000000001 17.500000000000007 17.412499999999998
0 0

0101101
*
Ed
 0.000000100000000 1 1 0
1  2 0 0.000000000000000 35.000000000000000
2  3 3 0 0.000000000000000 35.000000000000000
4 C1 1 0 3 0
2  4 1 0 0.000000000000000 35.000000000000000
0

0101000
+117 3 -116 3 *
Ed
 0.000000100000000 1 1 0
1  3 0 1.000000000000004 35.825000000000003
2  5 1 20 1.000000000000004 35.825000000000003
0

0101000
+120 21 -117 21 *
Ed
 0.000000100000000 1 1 0
1  4 0 1.000000000000004 35.825000000000003
2  6 1 24 1.000000000000004 35.825000000000003
0

0101000
+119 25 -116 25 *
Wi

0101100
+118 0 -115 0 -114 19 +113 23 *
Fa
0  0.000000100000000 1 0

0101000
+112 0 *
Ve
0.000000100000000
-17.412500000000001 -17.500000000000007 -18.412499999999998
0 0

0101101
*
Ve
0.000000100000000
-17.412500000000001 17.499999999999993 -18.412500000000005
0 0

0101101
*
Ed
 0.000000100000000 1 1 0
1  5 0 0.000000000000000 35.000000000000000
2  7 2 0 0.000000000000000 35.000000000000000
4 C1 2 0 4 0
2  8 4 0 0.000000000000000 35.000000000000000
0

0101000
+110 3 -109 3 *
Ed
 0.000000100000000 1 1 0
1  6 0 4.712388980384690 6.283185307179586
2  9 2 27 4.712388980384690 6.283185307179586
0

0101000
+120 28 -110 28 *
Ed
 0.000000100000000 1 1 0
1  7 0 4.712388980384690 6.283185307179586
2  10 2 30 4.712388980384690 6.283185307179586
0

0101000
+119 31 -109 31 *
Wi

0101100
+118 0 -108 0 -107 26 +106 29 *
Fa
0  0.000000100000000 2 0

0101000
+105 0 *
Ve
0.000000100000000
-17.412500000000001 -17.499999999999993 18.412500000000005
0 0

0101101
*
Ve
0.000000100000000
-17.412500000000001 17.500000000000007 18.412499999999998
0 0

0101101
*
Ed
 0.000000100000000 1 1 0
1  8 0 0.000000000000000 35.000000000000000
2  11 3 0 0.000000000000000 35.000000000000000
4 C1 3 0 5 0
2  12 5 0 0.000000000000000 35.000000000000000
0

0101000
+103 3 -102 3 *
Ed
 0.000000100000000 1 1 0
1  9 0 1.570796326794897 3.141592653589793
2  13 3 27 1.570796326794897 3.141592653589793
0

0101000
+117 28 -103 28 *
Ed
 0.000000100000000 1 1 0
1  10 0 1.570796326794897 3.141592653589793
2  14 3 30 1.570796326794897 3.141592653589793
0

0101000
+116 31 -102 31 *
Wi

0101100
+115 0 -101 0 -100 26 +99 29 *
Fa
0  0.000000100000000 3 0

0101000
+98 0 *
Ve
0.000000100000000
17.412500000000001 -17.500000000000007 -18.412499999999998
0 0

0101101
*
Ve
0.000000100000000
17.412500000000001 17.499999999999993 -18.412500000000005
0 0

0101101
*
Ed
 0.000000100000000 1 1 0
1  11 0 0.000000000000000 35.000000000000000
2  15 6 0 0.000000000000000 35.000000000000000
4 C1 4 0 6 0
2  16 4 0 0.000000000000000 35.000000000000000
0

0101000
+96 3 -95 3 *
Ed
 0.000000100000000 1 1 0
1  12 0 1.000000000000000 35.825000000000003
2  17 4 20 1.000000000000000 35.825000000000003
0

0101000
+96 21 -110 21 *
Ed
 0.000000100000000 1 1 0
1  13 0 1.000000000000000 35.825000000000003
2  18 4 24 1.000000000000000 35.825000000000003
0

0101000
+95 25 -109 25 *
Wi

0101100
+94 0 -108 0 -93 19 +92 23 *
Fa
0  0.000000100000000 4 0

0101000
+91 0 *
Ve
0.000000100000000
17.412500000000001 -17.499999999999993 18.412500000000005
0 0

0101101
*
Ve
0.000000100000000
17.412500000000001 17.500000000000007 18.412499999999998
0 0

0101101
*
Ed
 0.000000100000000 1 1 0
1  14 0 0.000000000000000 35.000000000000000
2  19 7 0 0.000000000000000 35.000000000000000
4 C1 5 0 7 0
2  20 5 0 0.000000000000000 35.000000000000000
0

0101000
+89 3 -88 3 *
Ed
 0.000000100000000 1 1 0
1  15 0 1.000000000000000 35.825000000000003
2  21 5 20 1.000000000000000 35.825000000000003
0

0101000
+103 21 -89 21 *
Ed
 0.000000100000000 1 1 0
1  16 0 1.000000000000000 35.825000000000003
2  22 5 24 1.000000000000000 35.825000000000003
0

0101000
+102 25 -88 25 *
Wi

0101100
+101 0 -87 0 -86 19 +85 23 *
Fa
0  0.000000100000000 5 0

0101000
+84 0 *
Ve
0.000000100000000
18.412500000000001 -17.500000000000007 -17.412499999999998
0 0

0101101
*
Ve
0.000000100000000
18.412500000000001 17.499999999999993 -17.412500000000005
0 0

0101101
*
Ed
 0.000000100000000 1 1 0
1  17 0 0.000000000000000 35.000000000000000
2  23 6 0 0.000000000000000 35.000000000000000
4 C1 6 0 8 0
2  24 8 0 0.000000000000000 35.000000000000000
0

0101000
+82 3 -81 3 *
Ed
 0.000000100000000 1 1 0
1  18 0 0.000000000000000 1.570796326794897
2  25 6 27 0.000000000000000 1.570796326794897
0

0101000
+96 28 -82 28 *
Ed
 0.000000100000000 1 1 0
1  19 0 0.000000000000000 1.570796326794897
2  26 6 30 0.000000000000000 1.570796326794897
0

0101000
+95 31 -81 31 *
Wi

0101100
+94 0 -80 0 -79 26 +78 29 *
Fa
0  0.000000100000000 6 0

0101000
+77 0 *
Ve
0.000000100000000
18.412500000000001 -17.499999999999993 17.412500000000005
0 0

0101101
*
Ve
0.000000100000000
18.412500000000001 17.500000000000007 17.412499999999998
0 0

0101101
*
Ed
 0.000000100000000 1 1 0
1  20 0 0.000000000000000 35.000000000000000
2  27 7 0 0.000000000000000 35.000000000000000
4 C1 7 0 8 0
2  28 8 0 0.000000000000000 35.000000000000000
0

0101000
+75 3 -74 3 *
Ed
 0.000000100000000 1 1 0
1  21 0 1.570796326794897 3.141592653589793
2  29 7 27 1.570796326794897 3.141592653589793
0

0101000
+75 28 -89 28 *
Ed
 0.000000100000000 1 1 0
1  22 0 1.570796326794897 3.141592653589793
2  30 7 30 1.570796326794897 3.141592653589793
0

0101000
+74 31 -88 31 *
Wi

0101100
+73 0 -87 0 -72 26 +71 29 *
Fa
0  0.000000100000000 7 0

0101000
+70 0 *
Ed
 0.000000100000000 1 1 0
1  23 0 1.000000000000000 35.825000000000003
2  31 8 20 1.000000000000000 35.825000000000003
0

0101000
+75 21 -82 21 *
Ed
 0.000000100000000 1 1 0
1  24 0 1.000000000000000 35.825000000000003
2  32 8 24 1.000000000000000 35.825000000000003
0

0101000
+74 25 -81 25 *
Wi

0101100
+73 0 -80 0 -68 19 +67 23 *
Fa
0  0.000000100000000 8 0

0101000
+66 0 *
Ve
0.000000100000000
-17.999999999999996 -17.499999999999989 20.000000000000004
0 0

0101101
*
Ve
0.000000100000000
-17.999999999999996 17.500000000000011 19.999999999999996
0 0

0101101
*
Ed
 0.000000100000000 1 1 0
1  25 0 0.000000000000000 35.000000000000000
2  33 10 0 0.000000000000000 35.000000000000000
4 G1 9 0 10 0
2  34 9 0 0.000000000000000 35.000000000000000
0

0101000
+64 3 -63 3 *
Ve
0.000000100000000
18.000000000000004 -17.499999999999989 20.000000000000004
0 0

0101101
*
Ve
0.000000100000000
18.000000000000004 17.500000000000011 19.999999999999996
0 0

0101101
*
Ed
 0.000000100000000 1 1 0
1  26 0 0.000000000000000 35.000000000000000
2  35 11 0 0.000000000000000 35.000000000000000
4 G1 9 0 11 0
2  36 9 0 0.000000000000000 35.000000000000000
0

0101000
+61 3 -60 3 *
Ed
 0.000000100000000 1 1 0
1  27 0 2.000000000000000 38.000000000000000
2  37 9 20 2.000000000000000 38.000000000000000
0

0101000
+64 21 -61 21 *
Ed
 0.000000100000000 1 1 0
1  28 0 2.000000000000000 38.000000000000000
2  38 9 24 2.000000000000000 38.000000000000000
0

0101000
+63 25 -60 25 *
Wi

0101100
+62 0 -59 0 -58 19 +57 23 *
Fa
0  0.000000100000000 9 0

0101000
+56 0 *
Ve
0.000000100000000
-19.999999999999996 -17.499999999999993 18.000000000000004
0 0

0101101
*
Ve
0.000000100000000
-19.999999999999996 17.500000000000007 17.999999999999996
0 0

0101101
*
Ed
 0.000000100000000 1 1 0
1  29 0 0.000000000000000 35.000000000000000
2  39 10 0 0.000000000000000 35.000000000000000
4 G1 10 0 12 0
2  40 12 0 0.000000000000000 35.000000000000000
0

0101000
+54 3 -53 3 *
Ed
 0.000000100000000 1 1 0
1  30 0 3.141592653589793 4.712388980384690
2  41 10 33 3.141592653589793 4.712388980384690
0

0101000
+64 34 -54 34 *
Ed
 0.000000100000000 1 1 0
1  31 0 3.141592653589793 4.712388980384690
2  42 10 36 3.141592653589793 4.712388980384690
0

0101000
+63 37 -53 37 *
Wi

0101100
+62 0 -52 0 -51 32 +50 35 *
Fa
0  0.000000100000000 10 0

0101000
+49 0 *
Ve
0.000000100000000
20.000000000000004 -17.499999999999993 18.000000000000004
0 0

0101101
*
Ve
0.000000100000000
20.000000000000004 17.500000000000007 17.999999999999996
0 0

0101101
*
Ed
 0.000000100000000 1 1 0
1  32 0 0.000000000000000 35.000000000000000
2  43 11 0 0.000000000000000 35.000000000000000
4 G1 11 0 13 0
2  44 13 0 0.000000000000000 35.000000000000000
0

0101000
+47 3 -46 3 *
Ed
 0.000000100000000 1 1 0
1  33 0 3.141592653589793 4.712388980384690
2  45 11 33 3.141592653589793 4.712388980384690
0

0101000
+61 34 -47 34 *
Ed
 0.000000100000000 1 1 0
1  34 0 3.141592653589793 4.712388980384690
2  46 11 36 3.141592653589793 4.712388980384690
0

0101000
+60 37 -46 37 *
Wi

0101100
+59 0 -45 0 -44 32 +43 35 *
Fa
0  0.000000100000000 11 0

0101000
+42 0 *
Ve
0.000000100000000
-19.999999999999996 -17.500000000000007 -17.999999999999996
0 0

0101101
*
Ve
0.000000100000000
-19.999999999999996 17.499999999999993 -18.000000000000004
0 0

0101101
*
Ed
 0.000000100000000 1 1 0
1  35 0 0.000000000000000 35.000000000000000
2  47 14 0 0.000000000000000 35.000000000000000
4 G1 12 0 14 0
2  48 12 0 0.000000000000000 35.000000000000000
0

0101000
+40 3 -39 3 *
Ed
 0.000000100000000 1 1 0
1  36 0 2.000000000000000 38.000000000000000
2  49 12 20 2.000000000000000 38.000000000000000
0

0101000
+40 21 -54 21 *
Ed
 0.000000100000000 1 1 0
1  37 0 2.000000000000000 38.000000000000000
2  50 12 24 2.000000000000000 38.000000000000000
0

0101000
+39 25 -53 25 *
Wi

0101100
+38 0 -52 0 -37 19 +36 23 *
Fa
0  0.000000100000000 12 0

0101000
+35 0 *
Ve
0.000000100000000
20.000000000000004 -17.500000000000007 -17.999999999999996
0 0

0101101
*
Ve
0.000000100000000
20.000000000000004 17.499999999999993 -18.000000000000004
0 0

0101101
*
Ed
 0.000000100000000 1 1 0
1  38 0 0.000000000000000 35.000000000000000
2  51 15 0 0.000000000000000 35.000000000000000
4 G1 13 0 15 0
2  52 13 0 0.000000000000000 35.000000000000000
0

0101000
+33 3 -32 3 *
Ed
 0.000000100000000 1 1 0
1  39 0 2.000000000000000 38.000000000000000
2  53 13 20 2.000000000000000 38.000000000000000
0

0101000
+47 21 -33 21 *
Ed
 0.000000100000000 1 1 0
1  40 0 2.000000000000000 38.000000000000000
2  54 13 24 2.000000000000000 38.000000000000000
0

0101000
+46 25 -32 25 *
Wi

0101100
+45 0 -31 0 -30 19 +29 23 *
Fa
0  0.000000100000000 13 0

0101000
+28 0 *
Ve
0.000000100000000
-17.999999999999996 -17.500000000000011 -19.999999999999996
0 0

0101101
*
Ve
0.000000100000000
-17.999999999999996 17.499999999999989 -20.000000000000004
0 0

0101101
*
Ed
 0.000000100000000 1 1 0
1  41 0 0.000000000000000 35.000000000000000
2  55 14 0 0.000000000000000 35.000000000000000
4 G1 14 0 16 0
2  56 16 0 0.000000000000000 35.000000000000000
0

0101000
+26 3 -25 3 *
Ed
 0.000000100000000 1 1 0
1  42 0 0.000000000000000 1.570796326794897
2  57 14 33 0.000000000000000 1.570796326794897
0

0101000
+26 34 -40 34 *
Ed
 0.000000100000000 1 1 0
1  43 0 0.000000000000000 1.570796326794897
2  58 14 36 0.000000000000000 1.570796326794897
0

0101000
+25 37 -39 37 *
Wi

0101100
+24 0 -38 0 -23 32 +22 35 *
Fa
0  0.000000100000000 14 0

0101000
+21 0 *
Ve
0.000000100000000
18.000000000000004 -17.500000000000011 -19.999999999999996
0 0

0101101
*
Ve
0.000000100000000
18.000000000000004 17.499999999999989 -20.000000000000004
0 0

0101101
*
Ed
 0.000000100000000 1 1 0
1  44 0 0.000000000000000 35.000000000000000
2  59 15 0 0.000000000000000 35.000000000000000
4 G1 15 0 16 0
2  60 16 0 0.000000000000000 35.000000000000000
0

0101000
+19 3 -18 3 *
Ed
 0.000000100000000 1 1 0
1  45 0 4.712388980384690 6.283185307179586
2  61 15 33 4.712388980384690 6.283185307179586
0

0101000
+33 34 -19 34 *
Ed
 0.000000100000000 1 1 0
1  46 0 4.712388980384690 6.283185307179586
2  62 15 36 4.712388980384690 6.283185307179586
0

0101000
+32 37 -18 37 *
Wi

0101100
+31 0 -17 0 -16 32 +15 35 *
Fa
0  0.000000100000000 15 0

0101000
+14 0 *
Ed
 0.000000100000000 1 1 0
1  47 0 2.000000000000000 38.000000000000000
2  63 16 20 2.000000000000000 38.000000000000000
0

0101000
+19 21 -26 21 *
Ed
 0.000000100000000 1 1 0
1  48 0 2.000000000000000 38.000000000000000
2  64 16 24 2.000000000000000 38.000000000000000
0

0101000
+18 25 -25 25 *
Wi

0101100
+17 0 -24 0 -12 19 +11 23 *
Fa
0  0.000000100000000 16 0

0101000
+10 0 *
Wi

0101100
-114 40 +107 0 -100 0 -93 40 -86 40 +79 0 +72 0 -68 40 *
Wi

0101100
+58 42 -51 0 +44 0 +37 42 +30 42 +23 0 +16 0 +12 42 *
Fa
0  0.000000100000000 17 0

0101000
+8 39 +7 41 *
Wi

0101100
-113 40 +106 0 -99 0 -92 40 -85 40 +78 0 +71 0 -67 40 *
Wi

0101100
+57 42 -50 0 +43 0 +36 42 +29 42 +22 0 +15 0 +11 42 *
Fa
0  0.000000100000000 18 0

0101000
+5 39 +4 41 *
Sh

0101100
-111 0 +104 0 -97 0 -90 0 -83 0 +76 0 +69 0 -65 0 +55 0 -48 0 
+41 0 +34 0 +27 0 +20 0 +13 0 +9 0 +6 38 -3 43 *
So

1100000
-2 0 *

+1 1 