
CASCADE Topology V1, (c) Matra-Datavision
Locations 54
1
1.000000000000000 0.000000000000000 0.000000000000000 0.000000000000000 
0.000000000000000 1.000000000000000 0.000000000000000 0.000000000000000 
0.000000000000000 0.000000000000000 1.000000000000000 0.000000000000000 
1
1.000000000000000 0.000000000000000 0.000000000000000 0.000000000000000 
0.000000000000000 1.000000000000000 0.000000000000000 0.000000000000000 
0.000000000000000 0.000000000000000 1.000000000000000 0.000000000000000 
1
1.000000000000000 0.000000000000000 0.000000000000000 0.000000000000000 
0.000000000000000 1.000000000000000 0.000000000000000 0.000000000000000 
0.000000000000000 0.000000000000000 1.000000000000000 0.000000000000000 
2  2 1 3 -1 0
1
1.000000000000000 0.000000000000000 0.000000000000000 0.000000000000000 
0.000000000000000 1.000000000000000 0.000000000000000 0.000000000000000 
0.000000000000000 0.000000000000000 1.000000000000000 0.000000000000000 
1
1.000000000000000 0.000000000000000 0.000000000000000 0.000000000000000 
0.000000000000000 1.000000000000000 0.000000000000000 0.000000000000000 
0.000000000000000 0.000000000000000 1.000000000000000 0.000000000000000 
2  5 1 6 -1 0
1
1.000000000000000 0.000000000000000 0.000000000000000 0.000000000000000 
0.000000000000000 1.000000000000000 0.000000000000000 0.000000000000000 
0.000000000000000 0.000000000000000 1.000000000000000 0.000000000000000 
2  8 -1 0
1
1.000000000000000 0.000000000000000 0.000000000000000 0.000000000000000 
0.000000000000000 1.000000000000000 0.000000000000000 0.000000000000000 
0.000000000000000 0.000000000000000 1.000000000000000 0.000000000000000 
1
1.000000000000000 0.000000000000000 0.000000000000000 0.000000000000000 
0.000000000000000 0.000000000000000 -1.000000000000000 0.000000000000000 
0.000000000000000 1.000000000000000 0.000000000000000 0.000000000000000 
1
1.000000000000000 0.000000000000000 0.000000000000000 0.000000000000000 
0.000000000000000 -0.000000000000000 -1.000000000000000 0.000000000000000 
0.000000000000000 1.000000000000000 -0.000000000000000 0.000000000000000 
1
1.000000000000000 0.000000000000000 0.000000000000000 0.000000000000000 
0.000000000000000 1.000000000000000 0.000000000000000 0.000000000000000 
0.000000000000000 0.000000000000000 1.000000000000000 0.000000000000000 
1
1.000000000000000 0.000000000000000 0.000000000000000 0.000000000000000 
0.000000000000000 1.000000000000000 0.000000000000000 0.000000000000000 
0.000000000000000 0.000000000000000 1.000000000000000 0.000000000000000 
1
1.000000000000000 0.000000000000000 0.000000000000000 0.000000000000000 
0.000000000000000 1.000000000000000 0.000000000000000 0.000000000000000 
0.000000000000000 0.000000000000000 1.000000000000000 0.000000000000000 
1
1.000000000000000 0.000000000000000 0.000000000000000 0.000000000000000 
0.000000000000000 0.000000000000000 -1.000000000000000 0.000000000000000 
0.000000000000000 1.000000000000000 0.000000000000000 0.000000000000000 
1
1.000000000000000 0.000000000000000 0.000000000000000 0.000000000000000 
0.000000000000000 1.000000000000000 0.000000000000000 0.000000000000000 
0.000000000000000 0.000000000000000 1.000000000000000 0.000000000000000 
1
1.000000000000000 0.000000000000000 0.000000000000000 0.000000000000000 
0.000000000000000 1.000000000000000 0.000000000000000 0.000000000000000 
0.000000000000000 0.000000000000000 1.000000000000000 0.000000000000000 
1
1.000000000000000 0.000000000000000 0.000000000000000 0.000000000000000 
0.000000000000000 1.000000000000000 0.000000000000000 0.000000000000000 
0.000000000000000 0.000000000000000 1.000000000000000 0.000000000000000 
1
1.000000000000000 0.000000000000000 0.000000000000000 0.000000000000000 
0.000000000000000 1.000000000000000 0.000000000000000 0.000000000000000 
0.000000000000000 0.000000000000000 1.000000000000000 0.000000000000000 
1
1.000000000000000 0.000000000000000 0.000000000000000 0.000000000000000 
0.000000000000000 1.000000000000000 0.000000000000000 0.000000000000000 
0.000000000000000 0.000000000000000 1.000000000000000 0.000000000000000 
1
1.000000000000000 0.000000000000000 0.000000000000000 0.000000000000000 
0.000000000000000 1.000000000000000 0.000000000000000 0.000000000000000 
0.000000000000000 0.000000000000000 1.000000000000000 0.000000000000000 
1
1.000000000000000 0.000000000000000 0.000000000000000 0.000000000000000 
0.000000000000000 1.000000000000000 0.000000000000000 0.000000000000000 
0.000000000000000 0.000000000000000 1.000000000000000 0.000000000000000 
1
1.000000000000000 0.000000000000000 0.000000000000000 -0.000000000000000 
0.000000000000000 1.000000000000000 0.000000000000000 -17.500000000000000 
0.000000000000000 0.000000000000000 1.000000000000000 0.000000000000004 
2  10 1 11 1 12 -1 13 1 14 1 15 1 16 1 17 1 18 1 19 1 20 1 21 1 22 1 23 -1 24 1 5 1 6 -1 0
2  24 -1 23 1 22 -1 21 -1 20 -1 19 -1 18 -1 17 -1 16 -1 15 -1 14 -1 13 -1 12 1 11 -1 10 -1 0
2  8 -1 24 -1 23 1 22 -1 21 -1 20 -1 19 -1 18 -1 17 -1 16 -1 15 -1 14 -1 13 -1 12 1 11 -1 10 -1 0
1
1.000000000000000 0.000000000000000 0.000000000000000 0.000000000000000 
0.000000000000000 1.000000000000000 0.000000000000000 35.000000000000000 
0.000000000000000 0.000000000000000 1.000000000000000 -0.000000000000008 
2  10 1 11 1 12 -1 13 1 14 1 15 1 16 1 17 1 18 1 19 1 20 1 21 1 22 1 23 -1 24 1 28 1 5 1 6 -1 0
2  28 -1 24 -1 23 1 22 -1 21 -1 20 -1 19 -1 18 -1 17 -1 16 -1 15 -1 14 -1 13 -1 12 1 11 -1 10 -1 0
2  8 -1 28 -1 24 -1 23 1 22 -1 21 -1 20 -1 19 -1 18 -1 17 -1 16 -1 15 -1 14 -1 13 -1 12 1 11 -1 10 -1 0
2  5 1 6 -1 2 1 3 -1 0
2  15 1 16 1 17 1 18 1 19 1 20 1 21 1 22 1 23 -1 24 1 0
2  24 -1 23 1 22 -1 21 -1 20 -1 19 -1 18 -1 17 -1 16 -1 15 -1 0
2  8 -1 24 -1 23 1 22 -1 21 -1 20 -1 19 -1 18 -1 17 -1 16 -1 15 -1 0
2  15 1 16 1 17 1 18 1 19 1 20 1 21 1 22 1 23 -1 24 1 28 1 0
2  28 -1 24 -1 23 1 22 -1 21 -1 20 -1 19 -1 18 -1 17 -1 16 -1 15 -1 0
2  8 -1 28 -1 24 -1 23 1 22 -1 21 -1 20 -1 19 -1 18 -1 17 -1 16 -1 15 -1 0
2  12 -1 13 1 14 1 15 1 16 1 17 1 18 1 19 1 20 1 21 1 22 1 23 -1 24 1 5 1 6 -1 2 1 3 -1 0
2  14 -1 13 -1 12 1 0
2  10 1 11 1 12 -1 13 1 14 1 0
2  13 -1 12 1 0
2  10 1 11 1 12 -1 13 1 0
2  24 -1 23 1 22 -1 21 -1 20 -1 19 -1 18 -1 17 -1 16 -1 15 -1 14 -1 0
2  8 -1 24 -1 23 1 22 -1 21 -1 20 -1 19 -1 18 -1 17 -1 16 -1 15 -1 14 -1 0
2  12 -1 13 1 14 1 15 1 16 1 17 1 18 1 19 1 20 1 21 1 22 1 23 -1 24 1 28 1 5 1 6 -1 2 1 3 -1 0
2  28 -1 24 -1 23 1 22 -1 21 -1 20 -1 19 -1 18 -1 17 -1 16 -1 15 -1 14 -1 0
2  8 -1 28 -1 24 -1 23 1 22 -1 21 -1 20 -1 19 -1 18 -1 17 -1 16 -1 15 -1 14 -1 0
2  10 1 11 1 12 -1 13 1 14 1 15 1 16 1 17 1 18 1 19 1 20 1 21 1 22 1 23 -1 24 1 0
2  10 1 11 1 12 -1 13 1 14 1 15 1 16 1 17 1 18 1 19 1 20 1 21 1 22 1 23 -1 24 1 28 1 0
2  10 1 11 1 12 -1 13 1 14 1 15 1 16 1 17 1 18 1 19 1 20 1 21 1 22 1 23 -1 24 1 5 1 6 -1 2 1 3 -1 0
2  10 1 11 1 12 -1 13 1 14 1 15 1 16 1 17 1 18 1 19 1 20 1 21 1 22 1 23 -1 24 1 28 1 5 1 6 -1 2 1 3 -1 0
2  14 1 15 1 16 1 17 1 18 1 19 1 20 1 21 1 22 1 23 -1 24 1 0
2  14 1 15 1 16 1 17 1 18 1 19 1 20 1 21 1 22 1 23 -1 24 1 28 1 0
Curve2ds 86
1 4.71238898038468967 0.00000000000000000 0.00000000000000000 -1.00000000000000000 
1 0.00000000000000000 0.00000000000000711 -0.00000000000000022 -1.00000000000000000 
1 -1.00000000000000355 0.00000000000000000 1.00000000000000000 0.00000000000000000 
1 -1.00000000000001066 -35.00000000000000000 1.00000000000000000 0.00000000000000000 
1 1.57079632679489700 0.00000000000000000 0.00000000000000000 -1.00000000000000000 
1 34.82500000000000284 -0.00000000000000711 -0.00000000000000022 -1.00000000000000000 
2 17.41249999999999787 -17.50000000000000355 -0.00000000000000022 -1.00000000000000000 1.00000000000000000 -0.00000000000000022 3.96875000000000000
1 0.00000000000000000 -85.59838021303286837 1.00000000000000000 0.00000000000000000 
1 6.28318530717958623 0.00000000000000000 0.00000000000000000 -1.00000000000000000 
1 34.82500000000000284 0.00000000000000711 0.00000000000000000 -1.00000000000000000 
1 0.00000000000000000 0.00000000000000000 1.00000000000000000 0.00000000000000000 
1 0.00000000000000000 -35.00000000000000000 1.00000000000000000 0.00000000000000000 
1 0.00000000000000000 0.00000000000000000 1.00000000000000000 0.00000000000000000 
1 -1.00000000000000000 -0.00000000000000000 1.00000000000000000 0.00000000000000000 
1 -1.00000000000000000 0.00000000000000000 1.00000000000000000 0.00000000000000000 
1 0.00000000000000000 0.00000000000000000 1.00000000000000000 0.00000000000000000 
1 0.00000000000000000 0.00000000000000000 1.00000000000000000 0.00000000000000000 
1 -1.00000000000000000 -0.00000000000000000 1.00000000000000000 0.00000000000000000 
1 -2.00000000000000000 0.00000000000000000 1.00000000000000000 0.00000000000000000 
1 0.00000000000000000 0.00000000000000000 1.00000000000000000 0.00000000000000000 
1 0.00000000000000000 0.00000000000000000 1.00000000000000000 0.00000000000000000 
1 -2.00000000000000000 0.00000000000000000 1.00000000000000000 0.00000000000000000 
1 -2.00000000000000000 -0.00000000000000000 1.00000000000000000 0.00000000000000000 
1 0.00000000000000000 0.00000000000000000 1.00000000000000000 0.00000000000000000 
1 0.00000000000000000 0.00000000000000000 1.00000000000000000 0.00000000000000000 
1 -2.00000000000000000 0.00000000000000000 1.00000000000000000 0.00000000000000000 
1 0.00000000000000000 -35.00000000000000000 1.00000000000000000 0.00000000000000000 
1 -1.00000000000000000 -35.00000000000000000 1.00000000000000000 0.00000000000000000 
1 -1.00000000000000000 -35.00000000000000000 1.00000000000000000 0.00000000000000000 
1 0.00000000000000000 -35.00000000000000000 1.00000000000000000 0.00000000000000000 
1 0.00000000000000000 -35.00000000000000000 1.00000000000000000 0.00000000000000000 
1 -0.99999999999999289 -35.00000000000000000 1.00000000000000000 0.00000000000000000 
1 -2.00000000000000000 -35.00000000000000000 1.00000000000000000 0.00000000000000000 
1 0.00000000000000000 -35.00000000000000000 1.00000000000000000 0.00000000000000000 
1 0.00000000000000000 -35.00000000000000000 1.00000000000000000 0.00000000000000000 
1 -2.00000000000000711 -35.00000000000000000 1.00000000000000000 0.00000000000000000 
1 -1.99999999999999289 -35.00000000000000000 1.00000000000000000 0.00000000000000000 
1 0.00000000000000000 -35.00000000000000000 1.00000000000000000 0.00000000000000000 
1 0.00000000000000000 -35.00000000000000000 1.00000000000000000 0.00000000000000000 
1 -2.00000000000000000 -35.00000000000000000 1.00000000000000000 0.00000000000000000 
1 3.14159265358979312 0.00000000000000000 0.00000000000000000 -1.00000000000000000 
1 0.00000000000000000 -0.00000000000000711 0.00000000000000000 -1.00000000000000000 
1 0.00000000000000000 0.00000000000000000 0.00000000000000000 -1.00000000000000000 
1 6.28318530717958623 0.00000000000000000 0.00000000000000000 -1.00000000000000000 
2 17.99999999999999645 -17.50000000000000355 -0.00000000000000022 -1.00000000000000000 1.00000000000000000 -0.00000000000000022 3.96875000000000000
1 0.00000000000000000 -87.18588021303287405 1.00000000000000000 0.00000000000000000 
1 0.00000000000000000 0.00000000000000000 0.00000000000000000 -1.00000000000000000 
1 -0.00000000000000000 0.00000000000000711 0.00000000000000000 -1.00000000000000000 
1 3.14159265358979312 0.00000000000000000 0.00000000000000000 -1.00000000000000000 
1 34.82500000000000284 -0.00000000000000711 0.00000000000000000 -1.00000000000000000 
2 17.41250000000000142 -22.50000000000000000 1.00000000000000000 0.00000000000000000 -0.00000000000000000 1.00000000000000000 3.00000000000000000
1 6.28318530717958623 -18.41250000000000142 -1.00000000000000000 0.00000000000000000 
2 17.41250000000000142 -6.50000000000000000 1.00000000000000000 0.00000000000000000 -0.00000000000000000 1.00000000000000000 3.00000000000000000
1 6.28318530717958623 -18.41250000000000497 -1.00000000000000000 0.00000000000000000 
1 1.57079632679489700 0.00000000000000000 0.00000000000000000 -1.00000000000000000 
1 34.82500000000000284 0.00000000000000711 0.00000000000000022 -1.00000000000000000 
1 1.57079632679489700 0.00000000000000000 0.00000000000000000 -1.00000000000000000 
1 0.00000000000000000 -0.00000000000000711 0.00000000000000022 -1.00000000000000000 
2 17.41249999999999787 -17.49999999999999645 0.00000000000000022 -1.00000000000000000 -1.00000000000000000 -0.00000000000000022 3.96875000000000000
1 0.00000000000000000 -48.77338021303287263 1.00000000000000000 0.00000000000000000 
1 3.14159265358979312 0.00000000000000000 0.00000000000000000 -1.00000000000000000 
1 0.00000000000000000 -0.00000000000001066 0.00000000000000000 -1.00000000000000000 
1 3.14159265358979312 0.00000000000000000 0.00000000000000000 -1.00000000000000000 
1 36.00000000000000000 -0.00000000000001066 0.00000000000000000 -1.00000000000000000 
2 17.99999999999999645 -22.50000000000000000 1.00000000000000000 0.00000000000000000 -0.00000000000000000 1.00000000000000000 3.00000000000000000
1 6.28318530717958623 -20.00000000000000000 -1.00000000000000000 0.00000000000000000 
2 17.99999999999999645 -6.50000000000000000 1.00000000000000000 0.00000000000000000 -0.00000000000000000 1.00000000000000000 3.00000000000000000
1 6.28318530717958623 -20.00000000000000355 -1.00000000000000000 0.00000000000000000 
1 4.71238898038468967 0.00000000000000000 0.00000000000000000 -1.00000000000000000 
1 36.00000000000000000 -0.00000000000000711 -0.00000000000000022 -1.00000000000000000 
1 4.71238898038468967 0.00000000000000000 0.00000000000000000 -1.00000000000000000 
1 0.00000000000000000 -0.00000000000000711 0.00000000000000022 -1.00000000000000000 
1 1.57079632679489700 0.00000000000000000 0.00000000000000000 -1.00000000000000000 
1 0.00000000000000000 0.00000000000000711 -0.00000000000000022 -1.00000000000000000 
1 4.71238898038468967 0.00000000000000000 0.00000000000000000 -1.00000000000000000 
1 36.00000000000000000 0.00000000000000711 0.00000000000000022 -1.00000000000000000 
2 17.99999999999999645 -17.49999999999999645 0.00000000000000022 -1.00000000000000000 -1.00000000000000000 -0.00000000000000022 3.96875000000000000
1 0.00000000000000000 -47.18588021303287405 1.00000000000000000 0.00000000000000000 
1 0.00000000000000000 0.00000000000000000 0.00000000000000000 -1.00000000000000000 
1 36.00000000000000000 0.00000000000001066 0.00000000000000000 -1.00000000000000000 
1 6.28318530717958623 0.00000000000000000 0.00000000000000000 -1.00000000000000000 
1 0.00000000000000000 0.00000000000001066 0.00000000000000000 -1.00000000000000000 
1 0.00000000000000000 0.00000000000000000 0.00000000000000000 -1.00000000000000000 
1 6.28318530717958623 0.00000000000000000 0.00000000000000000 -1.00000000000000000 
1 0.00000000000000000 0.00000000000000000 0.00000000000000000 -1.00000000000000000 
1 6.28318530717958623 0.00000000000000000 0.00000000000000000 -1.00000000000000000 
Curves 59
1 -18.41250000000000142 -17.50000000000000711 -17.41249999999999787 0.00000000000000000 1.00000000000000000 -0.00000000000000022 
1 -18.41250000000000142 -18.41250000000000497 0.00000000000000000 0.00000000000000000 1.00000000000000000 0.00000000000000000 
1 -18.41250000000000142 -18.41250000000000497 0.00000000000000000 0.00000000000000000 1.00000000000000000 0.00000000000000000 
1 -18.41250000000000142 -17.49999999999999289 17.41250000000000497 0.00000000000000000 1.00000000000000000 -0.00000000000000022 
2 -18.41249999999999432 0.00000000000000409 -0.00000000000000036 1.00000000000000000 -0.00000000000000022 0.00000000000000022 0.00000000000000022 1.00000000000000000 -0.00000000000000022 -0.00000000000000022 0.00000000000000022 1.00000000000000000 3.96875000000000000
1 -17.41250000000000142 -17.50000000000000711 -18.41249999999999787 0.00000000000000000 1.00000000000000000 -0.00000000000000022 
8 4.71238898038468967 6.28318530717958623
2 -17.41250000000000142 -17.41250000000000142 0.00000000000000773 -0.00000000000000000 0.00000000000000044 1.00000000000000000 0.00000000000000000 -1.00000000000000000 0.00000000000000044 1.00000000000000000 0.00000000000000000 0.00000000000000000 1.00000000000000000
8 4.71238898038468967 6.28318530717958623
2 -17.41250000000000142 -17.41250000000000142 0.00000000000000773 -0.00000000000000000 0.00000000000000044 1.00000000000000000 0.00000000000000000 -1.00000000000000000 0.00000000000000044 1.00000000000000000 0.00000000000000000 0.00000000000000000 1.00000000000000000
8 1.57079632679489656 3.14159265358979312
2 -17.41250000000000142 17.41250000000000142 -0.00000000000000773 -0.00000000000000000 -0.00000000000000044 -1.00000000000000000 0.00000000000000000 -1.00000000000000000 0.00000000000000044 -1.00000000000000000 0.00000000000000000 0.00000000000000000 1.00000000000000000
1 18.41250000000000142 -18.41250000000000142 0.00000000000000000 -1.00000000000000000 -0.00000000000000010 0.00000000000000000 
1 -18.41250000000000142 18.41250000000000142 0.00000000000000000 1.00000000000000000 0.00000000000000000 0.00000000000000000 
8 0.00000000000000000 1.57079632679489656
2 17.41250000000000142 -17.41250000000000142 0.00000000000000773 -0.00000000000000000 0.00000000000000044 1.00000000000000000 0.00000000000000000 -1.00000000000000000 0.00000000000000044 1.00000000000000000 0.00000000000000000 0.00000000000000000 1.00000000000000000
8 1.57079632679489656 3.14159265358979312
2 17.41250000000000142 17.41250000000000142 -0.00000000000000773 -0.00000000000000000 0.00000000000000044 1.00000000000000000 0.00000000000000000 -1.00000000000000000 0.00000000000000044 1.00000000000000000 0.00000000000000000 0.00000000000000000 1.00000000000000000
1 18.41250000000000142 18.41250000000000142 0.00000000000000000 0.00000000000000000 -1.00000000000000000 0.00000000000000000 
1 -19.99999999999999645 20.00000000000000000 0.00000000000000000 1.00000000000000000 0.00000000000000000 0.00000000000000000 
8 3.14159265358979312 4.71238898038468967
2 -17.99999999999999645 18.00000000000000000 -0.00000000000000799 -0.00000000000000000 0.00000000000000044 1.00000000000000000 0.00000000000000000 -1.00000000000000000 0.00000000000000044 1.00000000000000000 0.00000000000000000 0.00000000000000000 2.00000000000000000
8 3.14159265358979312 4.71238898038468967
2 18.00000000000000355 18.00000000000000000 -0.00000000000000799 -0.00000000000000000 -0.00000000000000044 -1.00000000000000000 0.00000000000000000 -1.00000000000000000 0.00000000000000044 -1.00000000000000000 0.00000000000000000 0.00000000000000000 2.00000000000000000
1 -19.99999999999999645 -20.00000000000000000 0.00000000000000000 0.00000000000000000 1.00000000000000000 0.00000000000000000 
1 20.00000000000000355 20.00000000000000000 0.00000000000000000 0.00000000000000000 -1.00000000000000000 0.00000000000000000 
8 0.00000000000000000 1.57079632679489656
2 -17.99999999999999645 -18.00000000000000000 0.00000000000000799 -0.00000000000000000 -0.00000000000000044 -1.00000000000000000 0.00000000000000000 -1.00000000000000000 0.00000000000000044 -1.00000000000000000 0.00000000000000000 0.00000000000000000 2.00000000000000000
8 4.71238898038468967 6.28318530717958623
2 18.00000000000000355 -18.00000000000000000 0.00000000000000799 -0.00000000000000000 -0.00000000000000044 -1.00000000000000000 0.00000000000000000 -1.00000000000000000 0.00000000000000044 -1.00000000000000000 0.00000000000000000 0.00000000000000000 2.00000000000000000
1 20.00000000000000355 -20.00000000000000000 0.00000000000000000 -1.00000000000000000 0.00000000000000000 0.00000000000000000 
8 1.57079632679489656 3.14159265358979312
2 -17.41250000000000142 17.41250000000000142 -0.00000000000000773 -0.00000000000000000 -0.00000000000000044 -1.00000000000000000 0.00000000000000000 -1.00000000000000000 0.00000000000000044 -1.00000000000000000 0.00000000000000000 0.00000000000000000 1.00000000000000000
1 18.41250000000000142 -18.41250000000000142 0.00000000000000000 -1.00000000000000000 -0.00000000000000010 0.00000000000000000 
1 -18.41250000000000142 18.41250000000000142 0.00000000000000000 1.00000000000000000 0.00000000000000000 0.00000000000000000 
8 0.00000000000000000 1.57079632679489656
2 17.41250000000000142 -17.41250000000000142 0.00000000000000773 -0.00000000000000000 0.00000000000000044 1.00000000000000000 0.00000000000000000 -1.00000000000000000 0.00000000000000044 1.00000000000000000 0.00000000000000000 0.00000000000000000 1.00000000000000000
8 1.57079632679489656 3.14159265358979312
2 17.41250000000000142 17.41250000000000142 -0.00000000000000773 -0.00000000000000000 0.00000000000000044 1.00000000000000000 0.00000000000000000 -1.00000000000000000 0.00000000000000044 1.00000000000000000 0.00000000000000000 0.00000000000000000 1.00000000000000000
1 18.41250000000000142 18.41250000000000142 0.00000000000000000 0.00000000000000000 -1.00000000000000000 0.00000000000000000 
1 -19.99999999999999645 20.00000000000000000 0.00000000000000000 1.00000000000000000 0.00000000000000000 0.00000000000000000 
8 3.14159265358979312 4.71238898038468967
2 -17.99999999999999645 18.00000000000000000 -0.00000000000000799 -0.00000000000000000 0.00000000000000044 1.00000000000000000 0.00000000000000000 -1.00000000000000000 0.00000000000000044 1.00000000000000000 0.00000000000000000 0.00000000000000000 2.00000000000000000
8 3.14159265358979312 4.71238898038468967
2 18.00000000000000355 18.00000000000000000 -0.00000000000000799 -0.00000000000000000 -0.00000000000000044 -1.00000000000000000 0.00000000000000000 -1.00000000000000000 0.00000000000000044 -1.00000000000000000 0.00000000000000000 0.00000000000000000 2.00000000000000000
1 -19.99999999999999645 -20.00000000000000000 0.00000000000000000 0.00000000000000000 1.00000000000000000 0.00000000000000000 
1 20.00000000000000355 20.00000000000000000 0.00000000000000000 0.00000000000000000 -1.00000000000000000 0.00000000000000000 
8 0.00000000000000000 1.57079632679489656
2 -17.99999999999999645 -18.00000000000000000 0.00000000000000799 -0.00000000000000000 -0.00000000000000044 -1.00000000000000000 0.00000000000000000 -1.00000000000000000 0.00000000000000044 -1.00000000000000000 0.00000000000000000 0.00000000000000000 2.00000000000000000
8 4.71238898038468967 6.28318530717958623
2 18.00000000000000355 -18.00000000000000000 0.00000000000000799 -0.00000000000000000 -0.00000000000000044 -1.00000000000000000 0.00000000000000000 -1.00000000000000000 0.00000000000000044 -1.00000000000000000 0.00000000000000000 0.00000000000000000 2.00000000000000000
1 20.00000000000000355 -20.00000000000000000 0.00000000000000000 -1.00000000000000000 0.00000000000000000 0.00000000000000000 
1 -17.41250000000000142 -17.49999999999999289 18.41250000000000497 0.00000000000000000 1.00000000000000000 -0.00000000000000022 
1 67.18588021303287405 3.96874999999998490 0.00000000000001777 -1.00000000000000000 0.00000000000000022 -0.00000000000000028 
2 -20.00000000000000000 0.00000000000000444 -0.00000000000000071 1.00000000000000000 -0.00000000000000022 0.00000000000000022 0.00000000000000022 1.00000000000000000 -0.00000000000000022 -0.00000000000000022 0.00000000000000022 1.00000000000000000 3.96875000000000000
1 17.41250000000000142 -17.50000000000000711 -18.41249999999999787 0.00000000000000000 1.00000000000000000 -0.00000000000000022 
1 17.41250000000000142 -17.49999999999999289 18.41250000000000497 0.00000000000000000 1.00000000000000000 -0.00000000000000022 
2 0.00000000000000000 5.00000000000000000 18.41250000000000142 0.00000000000000000 0.00000000000000000 -1.00000000000000000 1.00000000000000000 0.00000000000000000 0.00000000000000000 0.00000000000000000 -1.00000000000000000 0.00000000000000000 3.00000000000000000
2 0.00000000000000000 -11.00000000000000000 18.41250000000000497 0.00000000000000000 0.00000000000000000 -1.00000000000000000 1.00000000000000000 0.00000000000000000 0.00000000000000000 0.00000000000000000 -1.00000000000000000 0.00000000000000000 3.00000000000000000
1 18.41250000000000142 -17.50000000000000711 -17.41249999999999787 0.00000000000000000 1.00000000000000000 -0.00000000000000022 
1 18.41250000000000142 -17.49999999999999289 17.41250000000000497 0.00000000000000000 1.00000000000000000 -0.00000000000000022 
2 18.41250000000000142 -0.00000000000000409 0.00000000000000782 1.00000000000000000 -0.00000000000000022 0.00000000000000022 0.00000000000000022 1.00000000000000000 -0.00000000000000022 -0.00000000000000022 0.00000000000000022 1.00000000000000000 3.96875000000000000
1 -17.99999999999999645 -17.49999999999998934 20.00000000000000355 0.00000000000000000 1.00000000000000000 -0.00000000000000022 
1 18.00000000000000355 -17.49999999999998934 20.00000000000000355 0.00000000000000000 1.00000000000000000 -0.00000000000000022 
2 0.00000000000000000 5.00000000000000000 20.00000000000000000 0.00000000000000000 0.00000000000000000 -1.00000000000000000 1.00000000000000000 0.00000000000000000 0.00000000000000000 0.00000000000000000 -1.00000000000000000 0.00000000000000000 3.00000000000000000
2 0.00000000000000000 -11.00000000000000000 20.00000000000000355 0.00000000000000000 0.00000000000000000 -1.00000000000000000 1.00000000000000000 0.00000000000000000 0.00000000000000000 0.00000000000000000 -1.00000000000000000 0.00000000000000000 3.00000000000000000
1 -19.99999999999999645 -17.49999999999999289 18.00000000000000355 0.00000000000000000 1.00000000000000000 -0.00000000000000022 
1 20.00000000000000355 -17.49999999999999289 18.00000000000000355 0.00000000000000000 1.00000000000000000 -0.00000000000000022 
1 -19.99999999999999645 -17.50000000000000711 -17.99999999999999645 0.00000000000000000 1.00000000000000000 -0.00000000000000022 
1 20.00000000000000355 -17.50000000000000711 -17.99999999999999645 0.00000000000000000 1.00000000000000000 -0.00000000000000022 
2 20.00000000000000000 -0.00000000000000444 0.00000000000000817 1.00000000000000000 -0.00000000000000022 0.00000000000000022 0.00000000000000022 1.00000000000000000 -0.00000000000000022 -0.00000000000000022 0.00000000000000022 1.00000000000000000 3.96875000000000000
1 -17.99999999999999645 -17.50000000000001066 -19.99999999999999645 0.00000000000000000 1.00000000000000000 -0.00000000000000022 
1 18.00000000000000355 -17.50000000000001066 -19.99999999999999645 0.00000000000000000 1.00000000000000000 -0.00000000000000022 
1 3.00000000000000000 5.00000000000000000 0.00000000000000000 0.00000000000000000 0.00000000000000000 1.00000000000000000 
1 3.00000000000000000 -11.00000000000000000 0.00000000000000000 0.00000000000000000 0.00000000000000000 1.00000000000000000 
Polygon3D 0
PolygonOnTriangulations 0
Surfaces 21
1 -18.41250000000000142 -17.50000000000000000 -17.41249999999999787 1.00000000000000000 0.00000000000000000 0.00000000000000000 0.00000000000000000 0.00000000000000000 1.00000000000000000 0.00000000000000000 -1.00000000000000000 0.00000000000000000 
2 -17.41250000000000142 -17.50000000000000711 -17.41249999999999787 0.00000000000000000 -1.00000000000000000 0.00000000000000044 0.00000000000000000 -0.00000000000000044 -1.00000000000000000 1.00000000000000000 0.00000000000000000 0.00000000000000000 1.00000000000000000
2 -17.41250000000000142 -17.49999999999999289 17.41250000000000497 0.00000000000000000 -1.00000000000000000 0.00000000000000044 0.00000000000000000 -0.00000000000000044 -1.00000000000000000 -1.00000000000000000 -0.00000000000000000 -0.00000000000000000 1.00000000000000000
2 67.18588021303287405 -0.00000000000001492 0.00000000000001865 1.00000000000000000 -0.00000000000000022 0.00000000000000022 0.00000000000000022 1.00000000000000000 -0.00000000000000022 -0.00000000000000022 0.00000000000000022 1.00000000000000000 3.96875000000000000
1 17.41250000000000142 -17.50000000000000000 -18.41249999999999787 -0.00000000000000010 0.00000000000000022 1.00000000000000000 -1.00000000000000000 0.00000000000000000 -0.00000000000000010 -0.00000000000000000 -1.00000000000000000 0.00000000000000022 
1 0.00000000000000213 0.00000000000000000 0.00000000000000000 0.00000000000000000 1.00000000000000000 -0.00000000000000022 0.00000000000000000 0.00000000000000022 1.00000000000000000 1.00000000000000000 -0.00000000000000000 0.00000000000000000 
1 -17.41250000000000142 -17.50000000000000000 18.41250000000000497 0.00000000000000000 -0.00000000000000022 -1.00000000000000000 1.00000000000000000 0.00000000000000000 0.00000000000000000 0.00000000000000000 -1.00000000000000000 0.00000000000000022 
2 17.41250000000000142 -17.50000000000000711 -17.41249999999999787 0.00000000000000000 -1.00000000000000000 0.00000000000000044 0.00000000000000000 -0.00000000000000044 -1.00000000000000000 1.00000000000000000 0.00000000000000000 0.00000000000000000 1.00000000000000000
2 17.41250000000000142 -17.49999999999999289 17.41250000000000497 0.00000000000000000 -1.00000000000000000 0.00000000000000044 0.00000000000000000 -0.00000000000000044 -1.00000000000000000 1.00000000000000000 0.00000000000000000 0.00000000000000000 1.00000000000000000
1 18.41250000000000142 -17.50000000000000000 17.41250000000000497 -1.00000000000000000 0.00000000000000000 0.00000000000000000 0.00000000000000000 0.00000000000000000 -1.00000000000000000 -0.00000000000000000 -1.00000000000000000 -0.00000000000000000 
1 -17.99999999999999645 -17.50000000000000000 20.00000000000000355 0.00000000000000000 -0.00000000000000022 -1.00000000000000000 1.00000000000000000 0.00000000000000000 0.00000000000000000 0.00000000000000000 -1.00000000000000000 0.00000000000000022 
2 -17.99999999999999645 -17.49999999999999289 18.00000000000000355 0.00000000000000000 -1.00000000000000000 0.00000000000000044 0.00000000000000000 -0.00000000000000044 -1.00000000000000000 1.00000000000000000 0.00000000000000000 0.00000000000000000 2.00000000000000000
2 18.00000000000000355 -17.49999999999999289 18.00000000000000355 0.00000000000000000 -1.00000000000000000 0.00000000000000044 0.00000000000000000 -0.00000000000000044 -1.00000000000000000 -1.00000000000000000 -0.00000000000000000 -0.00000000000000000 2.00000000000000000
1 -19.99999999999999645 -17.50000000000000000 -17.99999999999999645 1.00000000000000000 0.00000000000000000 0.00000000000000000 0.00000000000000000 0.00000000000000000 1.00000000000000000 0.00000000000000000 -1.00000000000000000 0.00000000000000000 
1 20.00000000000000355 -17.50000000000000000 18.00000000000000355 -1.00000000000000000 0.00000000000000000 0.00000000000000000 0.00000000000000000 0.00000000000000000 -1.00000000000000000 -0.00000000000000000 -1.00000000000000000 -0.00000000000000000 
2 -17.99999999999999645 -17.50000000000000711 -17.99999999999999645 0.00000000000000000 -1.00000000000000000 0.00000000000000044 0.00000000000000000 -0.00000000000000044 -1.00000000000000000 -1.00000000000000000 -0.00000000000000000 -0.00000000000000000 2.00000000000000000
2 18.00000000000000355 -17.50000000000000711 -17.99999999999999645 0.00000000000000000 -1.00000000000000000 0.00000000000000044 0.00000000000000000 -0.00000000000000044 -1.00000000000000000 -1.00000000000000000 -0.00000000000000000 -0.00000000000000000 2.00000000000000000
1 18.00000000000000355 -17.50000000000000000 -19.99999999999999645 0.00000000000000000 0.00000000000000022 1.00000000000000000 -1.00000000000000000 0.00000000000000000 0.00000000000000000 0.00000000000000000 -1.00000000000000000 0.00000000000000022 
1 0.00000000000000213 0.00000000000000000 0.00000000000000000 0.00000000000000000 1.00000000000000000 -0.00000000000000022 0.00000000000000000 0.00000000000000022 1.00000000000000000 1.00000000000000000 -0.00000000000000000 0.00000000000000000 
2 0.00000000000000000 5.00000000000000000 0.00000000000000000 -0.00000000000000000 -0.00000000000000000 -1.00000000000000000 1.00000000000000000 0.00000000000000000 0.00000000000000000 -0.00000000000000000 1.00000000000000000 -0.00000000000000000 3.00000000000000000
2 0.00000000000000000 -11.00000000000000000 0.00000000000000000 -0.00000000000000000 -0.00000000000000000 -1.00000000000000000 1.00000000000000000 0.00000000000000000 0.00000000000000000 -0.00000000000000000 1.00000000000000000 -0.00000000000000000 3.00000000000000000
Triangulations 0

TShapes 156
Ve
0.000000100000000
-18.412500000000001 -17.500000000000007 -17.412499999999998
0 0

0101101
*
Ve
0.000000100000000
-18.412500000000001 17.499999999999993 -17.412500000000005
0 0

0101101
*
Ed
 0.000000100000000 1 1 0
1  1 0 0.000000000000000 35.000000000000000
2  1 2 0 0.000000000000000 35.000000000000000
4 C1 1 0 2 0
2  2 1 0 0.000000000000000 35.000000000000000
0

0101000
+156 9 -155 9 *
Ve
0.000000100000000
-18.412500000000001 -17.499999999999993 17.412500000000005
0 0

0101101
*
Ed
 0.000000100000000 1 1 0
1  2 0 1.000000000000004 35.825000000000003
2  3 1 26 1.000000000000004 35.825000000000003
0

0101000
+156 27 -153 27 *
Ve
0.000000100000000
-18.412500000000001 17.500000000000007 17.412499999999998
0 0

0101101
*
Ed
 0.000000100000000 1 1 0
1  3 0 1.000000000000004 35.825000000000003
2  4 1 30 1.000000000000004 35.825000000000003
0

0101000
+155 31 -151 31 *
Ed
 0.000000100000000 1 1 0
1  4 0 0.000000000000000 35.000000000000000
2  5 3 0 0.000000000000000 35.000000000000000
4 C1 1 0 3 0
2  6 1 0 0.000000000000000 35.000000000000000
0

0101000
+153 9 -151 9 *
Wi

0101100
+154 7 -152 25 +150 29 -149 7 *
Ve
0.000000100000005
-18.412499999999994 3.968750000000004 -0.000000000000006
0 0

0101101
*
Ed
 0.000000100000000 1 1 0
1  5 0 0.000000000000000 6.283185307179586
2  7 1 7 0.000000000000000 6.283185307179586
2  8 4 0 0.000000000000000 6.283185307179586
0

0101000
+147 0 -147 0 *
Wi

0101100
-146 0 *
Fa
0  0.000000100000000 1 7

0101000
+148 0 +145 0 *
Ve
0.000000100000000
-17.412500000000001 -17.500000000000007 -18.412499999999998
0 0

0101101
*
Ve
0.000000100000000
-17.412500000000001 17.499999999999993 -18.412500000000005
0 0

0101101
*
Ed
 0.000000100000000 1 1 0
1  6 0 0.000000000000000 35.000000000000000
2  9 2 0 0.000000000000000 35.000000000000000
4 C1 2 0 5 0
2  10 5 0 0.000000000000000 35.000000000000000
0

0101000
+143 9 -142 9 *
Ed
 0.000000100000000 1 1 0
1  7 0 4.712388980384690 6.283185307179586
2  11 2 34 4.712388980384690 6.283185307179586
0

0101000
+156 35 -143 35 *
Ed
 0.000000100000000 1 1 0
1  8 0 4.712388980384690 6.283185307179586
2  12 2 37 4.712388980384690 6.283185307179586
0

0101000
+155 38 -142 38 *
Wi

0101100
+154 0 -141 0 -140 33 +139 36 *
Fa
0  0.000000100000000 2 0

0101000
+138 0 *
Ve
0.000000100000000
-17.412500000000001 -17.499999999999993 18.412500000000005
0 0

0101101
*
Ed
 0.000000100000000 1 1 0
1  9 0 1.570796326794897 3.141592653589793
2  13 3 34 1.570796326794897 3.141592653589793
0

0101000
+153 35 -136 35 *
Ve
0.000000100000000
17.412500000000001 -17.500000000000007 -18.412499999999998
0 0

0101101
*
Ed
 0.000000100000000 1 1 0
1  10 0 1.000000000000000 35.825000000000003
2  14 5 26 1.000000000000000 35.825000000000003
0

0101000
+134 27 -143 27 *
Ve
0.000000100000000
17.412500000000001 -17.499999999999993 18.412500000000005
0 0

0101101
*
Ed
 0.000000100000000 1 1 0
1  11 0 1.000000000000000 35.825000000000003
2  15 7 26 1.000000000000000 35.825000000000003
0

0101000
+136 27 -132 27 *
Ve
0.000000100000000
18.412500000000001 -17.500000000000007 -17.412499999999998
0 0

0101101
*
Ed
 0.000000100000000 1 1 0
1  12 0 0.000000000000000 1.570796326794897
2  16 8 34 0.000000000000000 1.570796326794897
0

0101000
+134 35 -130 35 *
Ve
0.000000100000000
18.412500000000001 -17.499999999999993 17.412500000000005
0 0

0101101
*
Ed
 0.000000100000000 1 1 0
1  13 0 1.570796326794897 3.141592653589793
2  17 9 34 1.570796326794897 3.141592653589793
0

0101000
+128 35 -132 35 *
Ed
 0.000000100000000 1 1 0
1  14 0 1.000000000000000 35.825000000000003
2  18 10 26 1.000000000000000 35.825000000000003
0

0101000
+128 27 -130 27 *
Wi

0101100
-152 41 +140 0 -135 0 -133 41 -131 41 +129 0 +127 0 -126 41 *
Ve
0.000000100000000
-17.999999999999996 -17.499999999999989 20.000000000000004
0 0

0101101
*
Ve
0.000000100000000
18.000000000000004 -17.499999999999989 20.000000000000004
0 0

0101101
*
Ed
 0.000000100000000 1 1 0
1  15 0 2.000000000000000 38.000000000000000
2  19 11 26 2.000000000000000 38.000000000000000
0

0101000
+124 27 -123 27 *
Ve
0.000000100000000
-19.999999999999996 -17.499999999999993 18.000000000000004
0 0

0101101
*
Ed
 0.000000100000000 1 1 0
1  16 0 3.141592653589793 4.712388980384690
2  20 12 44 3.141592653589793 4.712388980384690
0

0101000
+124 45 -121 45 *
Ve
0.000000100000000
20.000000000000004 -17.499999999999993 18.000000000000004
0 0

0101101
*
Ed
 0.000000100000000 1 1 0
1  17 0 3.141592653589793 4.712388980384690
2  21 13 44 3.141592653589793 4.712388980384690
0

0101000
+123 45 -119 45 *
Ve
0.000000100000000
-19.999999999999996 -17.500000000000007 -17.999999999999996
0 0

0101101
*
Ed
 0.000000100000000 1 1 0
1  18 0 2.000000000000000 38.000000000000000
2  22 14 26 2.000000000000000 38.000000000000000
0

0101000
+117 27 -121 27 *
Ve
0.000000100000000
20.000000000000004 -17.500000000000007 -17.999999999999996
0 0

0101101
*
Ed
 0.000000100000000 1 1 0
1  19 0 2.000000000000000 38.000000000000000
2  23 15 26 2.000000000000000 38.000000000000000
0

0101000
+119 27 -115 27 *
Ve
0.000000100000000
-17.999999999999996 -17.500000000000011 -19.999999999999996
0 0

0101101
*
Ed
 0.000000100000000 1 1 0
1  20 0 0.000000000000000 1.570796326794897
2  24 16 44 0.000000000000000 1.570796326794897
0

0101000
+113 45 -117 45 *
Ve
0.000000100000000
18.000000000000004 -17.500000000000011 -19.999999999999996
0 0

0101101
*
Ed
 0.000000100000000 1 1 0
1  21 0 4.712388980384690 6.283185307179586
2  25 17 44 4.712388980384690 6.283185307179586
0

0101000
+115 45 -111 45 *
Ed
 0.000000100000000 1 1 0
1  22 0 2.000000000000000 38.000000000000000
2  26 18 26 2.000000000000000 38.000000000000000
0

0101000
+111 27 -113 27 *
Wi

0101100
+122 43 -120 0 +118 0 +116 43 +114 43 +112 0 +110 0 +109 43 *
Fa
0  0.000000100000000 6 0

0101000
+125 40 +108 42 *
Ve
0.000000100000000
-17.412500000000001 17.500000000000007 18.412499999999998
0 0

0101101
*
Ed
 0.000000100000000 1 1 0
1  23 0 1.570796326794897 3.141592653589793
2  27 3 37 1.570796326794897 3.141592653589793
0

0101000
+151 38 -106 38 *
Ve
0.000000100000000
17.412500000000001 17.499999999999993 -18.412500000000005
0 0

0101101
*
Ed
 0.000000100000000 1 1 0
1  24 0 1.000000000000000 35.825000000000003
2  28 5 30 1.000000000000000 35.825000000000003
0

0101000
+104 31 -142 31 *
Ve
0.000000100000000
17.412500000000001 17.500000000000007 18.412499999999998
0 0

0101101
*
Ed
 0.000000100000000 1 1 0
1  25 0 1.000000000000000 35.825000000000003
2  29 7 30 1.000000000000000 35.825000000000003
0

0101000
+106 31 -102 31 *
Ve
0.000000100000000
18.412500000000001 17.499999999999993 -17.412500000000005
0 0

0101101
*
Ed
 0.000000100000000 1 1 0
1  26 0 0.000000000000000 1.570796326794897
2  30 8 37 0.000000000000000 1.570796326794897
0

0101000
+104 38 -100 38 *
Ve
0.000000100000000
18.412500000000001 17.500000000000007 17.412499999999998
0 0

0101101
*
Ed
 0.000000100000000 1 1 0
1  27 0 1.570796326794897 3.141592653589793
2  31 9 37 1.570796326794897 3.141592653589793
0

0101000
+98 38 -102 38 *
Ed
 0.000000100000000 1 1 0
1  28 0 1.000000000000000 35.825000000000003
2  32 10 30 1.000000000000000 35.825000000000003
0

0101000
+98 31 -100 31 *
Wi

0101100
-150 41 +139 0 -105 0 -103 41 -101 41 +99 0 +97 0 -96 41 *
Ve
0.000000100000000
-17.999999999999996 17.500000000000011 19.999999999999996
0 0

0101101
*
Ve
0.000000100000000
18.000000000000004 17.500000000000011 19.999999999999996
0 0

0101101
*
Ed
 0.000000100000000 1 1 0
1  29 0 2.000000000000000 38.000000000000000
2  33 11 30 2.000000000000000 38.000000000000000
0

0101000
+94 31 -93 31 *
Ve
0.000000100000000
-19.999999999999996 17.500000000000007 17.999999999999996
0 0

0101101
*
Ed
 0.000000100000000 1 1 0
1  30 0 3.141592653589793 4.712388980384690
2  34 12 47 3.141592653589793 4.712388980384690
0

0101000
+94 48 -91 48 *
Ve
0.000000100000000
20.000000000000004 17.500000000000007 17.999999999999996
0 0

0101101
*
Ed
 0.000000100000000 1 1 0
1  31 0 3.141592653589793 4.712388980384690
2  35 13 47 3.141592653589793 4.712388980384690
0

0101000
+93 48 -89 48 *
Ve
0.000000100000000
-19.999999999999996 17.499999999999993 -18.000000000000004
0 0

0101101
*
Ed
 0.000000100000000 1 1 0
1  32 0 2.000000000000000 38.000000000000000
2  36 14 30 2.000000000000000 38.000000000000000
0

0101000
+87 31 -91 31 *
Ve
0.000000100000000
20.000000000000004 17.499999999999993 -18.000000000000004
0 0

0101101
*
Ed
 0.000000100000000 1 1 0
1  33 0 2.000000000000000 38.000000000000000
2  37 15 30 2.000000000000000 38.000000000000000
0

0101000
+89 31 -85 31 *
Ve
0.000000100000000
-17.999999999999996 17.499999999999989 -20.000000000000004
0 0

0101101
*
Ed
 0.000000100000000 1 1 0
1  34 0 0.000000000000000 1.570796326794897
2  38 16 47 0.000000000000000 1.570796326794897
0

0101000
+83 48 -87 48 *
Ve
0.000000100000000
18.000000000000004 17.499999999999989 -20.000000000000004
0 0

0101101
*
Ed
 0.000000100000000 1 1 0
1  35 0 4.712388980384690 6.283185307179586
2  39 17 47 4.712388980384690 6.283185307179586
0

0101000
+85 48 -81 48 *
Ed
 0.000000100000000 1 1 0
1  36 0 2.000000000000000 38.000000000000000
2  40 18 30 2.000000000000000 38.000000000000000
0

0101000
+81 31 -83 31 *
Wi

0101100
+92 43 -90 0 +88 0 +86 43 +84 43 +82 0 +80 0 +79 43 *
Fa
0  0.000000100000000 19 0

0101000
+95 40 +78 42 *
Ed
 0.000000100000000 1 1 0
1  37 0 0.000000000000000 35.000000000000000
2  41 3 0 0.000000000000000 35.000000000000000
4 C1 3 0 7 0
2  42 7 0 0.000000000000000 35.000000000000000
0

0101000
+136 9 -106 9 *
Wi

0101100
+149 0 -76 0 -135 33 +105 36 *
Fa
0  0.000000100000000 3 0

0101000
+75 0 *
Ve
0.000000100000005
-20.000000000000000 3.968750000000004 -0.000000000000006
0 0

0101101
*
Ed
 0.000000100000000 1 1 0
1  38 0 85.598380213032868 87.185880213032874
3  43 44CN 4 0 85.598380213032868 87.185880213032874
0

0101000
+147 0 -73 0 *
Ed
 0.000000100000000 1 1 0
1  39 0 0.000000000000000 6.283185307179586
2  45 14 7 0.000000000000000 6.283185307179586
2  46 4 0 0.000000000000000 6.283185307179586
0

0101000
+73 0 -73 0 *
Wi

0101100
-146 0 -72 0 +71 0 +72 0 *
Fa
0  0.000000100000000 4 0

0101000
+70 0 *
Ed
 0.000000100000000 1 1 0
1  40 0 0.000000000000000 35.000000000000000
2  47 8 0 0.000000000000000 35.000000000000000
4 C1 5 0 8 0
2  48 5 0 0.000000000000000 35.000000000000000
0

0101000
+134 9 -104 9 *
Wi

0101100
+68 0 -141 0 -133 49 +103 50 *
Fa
0  0.000000100000000 5 0

0101000
+67 0 *
Ed
 0.000000100000000 1 1 0
1  41 0 0.000000000000000 35.000000000000000
2  49 9 0 0.000000000000000 35.000000000000000
4 C1 7 0 9 0
2  50 7 0 0.000000000000000 35.000000000000000
0

0101000
+132 9 -102 9 *
Wi

0101100
+76 32 -131 51 +101 52 -65 32 *
Ve
0.000000100000001
3.000000000000000 5.000000000000000 18.412500000000001
0 0

0101101
*
Ed
 0.000000100000000 1 1 0
1  42 0 0.000000000000000 6.283185307179586
2  51 7 32 0.000000000000000 6.283185307179586
2  52 20 0 0.000000000000000 6.283185307179586
0

0101000
+63 0 -63 0 *
Wi

0101100
-62 0 *
Ve
0.000000100000000
3.000000000000000 -11.000000000000000 18.412500000000005
0 0

0101101
*
Ed
 0.000000100000000 1 1 0
1  43 0 0.000000000000000 6.283185307179586
2  53 7 32 0.000000000000000 6.283185307179586
2  54 21 0 0.000000000000000 6.283185307179586
0

0101000
+60 0 -60 0 *
Wi

0101100
-59 0 *
Fa
0  0.000000100000000 7 32

0101000
+64 0 +61 0 +58 0 *
Ed
 0.000000100000000 1 1 0
1  44 0 0.000000000000000 35.000000000000000
2  55 8 0 0.000000000000000 35.000000000000000
4 C1 8 0 10 0
2  56 10 0 0.000000000000000 35.000000000000000
0

0101000
+130 9 -100 9 *
Wi

0101100
+68 0 -56 0 -129 33 +99 36 *
Fa
0  0.000000100000000 8 0

0101000
+55 0 *
Ed
 0.000000100000000 1 1 0
1  45 0 0.000000000000000 35.000000000000000
2  57 9 0 0.000000000000000 35.000000000000000
4 C1 9 0 10 0
2  58 10 0 0.000000000000000 35.000000000000000
0

0101000
+128 9 -98 9 *
Wi

0101100
+53 0 -65 0 -127 33 +97 36 *
Fa
0  0.000000100000000 9 0

0101000
+52 0 *
Wi

0101100
+53 7 -126 25 +96 29 -56 7 *
Ve
0.000000100000003
18.412500000000001 3.968749999999996 0.000000000000004
0 0

0101101
*
Ed
 0.000000100000000 1 1 0
1  46 0 0.000000000000000 6.283185307179586
2  59 10 7 0.000000000000000 6.283185307179586
2  60 4 0 0.000000000000000 6.283185307179586
0

0101000
+49 0 -49 0 *
Wi

0101100
+48 0 *
Fa
0  0.000000100000000 10 7

0101000
+50 0 +47 0 *
Ed
 0.000000100000000 1 1 0
1  47 0 0.000000000000000 35.000000000000000
2  61 12 0 0.000000000000000 35.000000000000000
4 G1 11 0 12 0
2  62 11 0 0.000000000000000 35.000000000000000
0

0101000
+124 9 -94 9 *
Ed
 0.000000100000000 1 1 0
1  48 0 0.000000000000000 35.000000000000000
2  63 13 0 0.000000000000000 35.000000000000000
4 G1 11 0 13 0
2  64 11 0 0.000000000000000 35.000000000000000
0

0101000
+123 9 -93 9 *
Wi

0101100
+45 32 -122 51 +92 52 -44 32 *
Ve
0.000000100000001
3.000000000000000 5.000000000000000 20.000000000000000
0 0

0101101
*
Ed
 0.000000100000000 1 1 0
1  49 0 0.000000000000000 6.283185307179586
2  65 11 32 0.000000000000000 6.283185307179586
2  66 20 0 0.000000000000000 6.283185307179586
0

0101000
+42 0 -42 0 *
Wi

0101100
-41 0 *
Ve
0.000000100000000
3.000000000000000 -11.000000000000000 20.000000000000004
0 0

0101101
*
Ed
 0.000000100000000 1 1 0
1  50 0 0.000000000000000 6.283185307179586
2  67 11 32 0.000000000000000 6.283185307179586
2  68 21 0 0.000000000000000 6.283185307179586
0

0101000
+39 0 -39 0 *
Wi

0101100
-38 0 *
Fa
0  0.000000100000000 11 32

0101000
+43 0 +40 0 +37 0 *
Ed
 0.000000100000000 1 1 0
1  51 0 0.000000000000000 35.000000000000000
2  69 12 0 0.000000000000000 35.000000000000000
4 G1 12 0 14 0
2  70 14 0 0.000000000000000 35.000000000000000
0

0101000
+121 9 -91 9 *
Wi

0101100
+45 0 -35 0 -120 53 +90 54 *
Fa
0  0.000000100000000 12 0

0101000
+34 0 *
Ed
 0.000000100000000 1 1 0
1  52 0 0.000000000000000 35.000000000000000
2  71 13 0 0.000000000000000 35.000000000000000
4 G1 13 0 15 0
2  72 15 0 0.000000000000000 35.000000000000000
0

0101000
+119 9 -89 9 *
Wi

0101100
+44 0 -32 0 -118 53 +88 54 *
Fa
0  0.000000100000000 13 0

0101000
+31 0 *
Ed
 0.000000100000000 1 1 0
1  53 0 0.000000000000000 35.000000000000000
2  73 16 0 0.000000000000000 35.000000000000000
4 G1 14 0 16 0
2  74 14 0 0.000000000000000 35.000000000000000
0

0101000
+117 9 -87 9 *
Wi

0101100
+29 7 -116 25 +86 29 -35 7 *
Wi

0101100
-71 0 *
Fa
0  0.000000100000000 14 7

0101000
+28 0 +27 0 *
Ed
 0.000000100000000 1 1 0
1  54 0 0.000000000000000 35.000000000000000
2  75 17 0 0.000000000000000 35.000000000000000
4 G1 15 0 17 0
2  76 15 0 0.000000000000000 35.000000000000000
0

0101000
+115 9 -85 9 *
Wi

0101100
+32 7 -114 25 +84 29 -25 7 *
Ve
0.000000100000003
20.000000000000000 3.968749999999996 0.000000000000005
0 0

0101101
*
Ed
 0.000000100000000 1 1 0
1  55 0 0.000000000000000 6.283185307179586
2  77 15 7 0.000000000000000 6.283185307179586
2  78 4 0 0.000000000000000 6.283185307179586
0

0101000
+23 0 -23 0 *
Wi

0101100
+22 0 *
Fa
0  0.000000100000000 15 7

0101000
+24 0 +21 0 *
Ed
 0.000000100000000 1 1 0
1  56 0 0.000000000000000 35.000000000000000
2  79 16 0 0.000000000000000 35.000000000000000
4 G1 16 0 18 0
2  80 18 0 0.000000000000000 35.000000000000000
0

0101000
+113 9 -83 9 *
Wi

0101100
+19 0 -29 0 -112 53 +82 54 *
Fa
0  0.000000100000000 16 0

0101000
+18 0 *
Ed
 0.000000100000000 1 1 0
1  57 0 0.000000000000000 35.000000000000000
2  81 17 0 0.000000000000000 35.000000000000000
4 G1 17 0 18 0
2  82 18 0 0.000000000000000 35.000000000000000
0

0101000
+111 9 -81 9 *
Wi

0101100
+25 0 -16 0 -110 53 +80 54 *
Fa
0  0.000000100000000 17 0

0101000
+15 0 *
Wi

0101100
+16 0 -19 0 -109 49 +79 50 *
Fa
0  0.000000100000000 18 0

0101000
+13 0 *
Ed
 0.000000100000000 1 1 0
1  58 0 18.412500000000001 20.000000000000000
3  83 84CN 20 0 18.412500000000001 20.000000000000000
0

0101000
+63 0 -42 0 *
Wi

0101100
+62 0 -11 0 -41 0 +11 0 *
Fa
0  0.000000100000000 20 0

0101000
+10 0 *
Ed
 0.000000100000000 1 1 0
1  59 0 18.412500000000005 20.000000000000004
3  85 86CN 21 0 18.412500000000005 20.000000000000004
0

0101000
+60 0 -39 0 *
Wi

0101100
+59 0 -8 0 -38 0 +8 0 *
Fa
0  0.000000100000000 21 0

0101000
+7 0 *
Ed
 0.000000100000000 1 1 0
1  38 0 47.185880213032874 48.773380213032873
3  43 44CN 4 0 47.185880213032874 48.773380213032873
0

0101000
+23 0 -49 0 *
Wi

0101100
-22 0 -5 0 +48 0 +5 0 *
Fa
0  0.000000100000000 4 0

0101000
+4 0 *
Sh

0101100
+144 4 -137 32 -107 39 +77 46 +74 32 -69 4 +66 32 +57 0 -54 32 -51 32 
+46 4 -36 0 +33 32 -30 32 -26 4 -20 4 -17 32 -14 32 -12 32 +9 0 
+6 0 -3 4 *
So

0100000
+2 0 *

+1 1 