
CASCADE Topology V1, (c) Matra-Datavision
Locations 62
1
1.000000000000000 0.000000000000000 0.000000000000000 0.000000000000000 
0.000000000000000 1.000000000000000 0.000000000000000 0.000000000000000 
0.000000000000000 0.000000000000000 1.000000000000000 0.000000000000000 
1
1.000000000000000 0.000000000000000 0.000000000000000 0.000000000000000 
0.000000000000000 1.000000000000000 0.000000000000000 0.000000000000000 
0.000000000000000 0.000000000000000 1.000000000000000 0.000000000000000 
1
1.000000000000000 0.000000000000000 0.000000000000000 0.000000000000000 
0.000000000000000 1.000000000000000 0.000000000000000 0.000000000000000 
0.000000000000000 0.000000000000000 1.000000000000000 0.000000000000000 
2  2 1 3 -1 0
1
1.000000000000000 0.000000000000000 0.000000000000000 0.000000000000000 
0.000000000000000 1.000000000000000 0.000000000000000 0.000000000000000 
0.000000000000000 0.000000000000000 1.000000000000000 0.000000000000000 
1
1.000000000000000 0.000000000000000 0.000000000000000 0.000000000000000 
0.000000000000000 1.000000000000000 0.000000000000000 0.000000000000000 
0.000000000000000 0.000000000000000 1.000000000000000 0.000000000000000 
2  5 1 6 -1 0
1
1.000000000000000 0.000000000000000 0.000000000000000 0.000000000000000 
0.000000000000000 1.000000000000000 0.000000000000000 0.000000000000000 
0.000000000000000 0.000000000000000 1.000000000000000 0.000000000000000 
2  8 -1 3 1 2 -1 6 1 5 -1 0
1
1.000000000000000 0.000000000000000 0.000000000000000 0.000000000000000 
0.000000000000000 1.000000000000000 0.000000000000000 0.000000000000000 
0.000000000000000 0.000000000000000 1.000000000000000 0.000000000000000 
1
1.000000000000000 0.000000000000000 0.000000000000000 0.000000000000000 
0.000000000000000 0.000000000000000 -1.000000000000000 0.000000000000000 
0.000000000000000 1.000000000000000 0.000000000000000 0.000000000000000 
1
1.000000000000000 0.000000000000000 0.000000000000000 0.000000000000000 
0.000000000000000 -0.000000000000000 -1.000000000000000 0.000000000000000 
0.000000000000000 1.000000000000000 -0.000000000000000 0.000000000000000 
1
1.000000000000000 0.000000000000000 0.000000000000000 0.000000000000000 
0.000000000000000 1.000000000000000 0.000000000000000 0.000000000000000 
0.000000000000000 0.000000000000000 1.000000000000000 0.000000000000000 
1
1.000000000000000 0.000000000000000 0.000000000000000 0.000000000000000 
0.000000000000000 1.000000000000000 0.000000000000000 0.000000000000000 
0.000000000000000 0.000000000000000 1.000000000000000 0.000000000000000 
1
1.000000000000000 0.000000000000000 0.000000000000000 0.000000000000000 
0.000000000000000 1.000000000000000 0.000000000000000 0.000000000000000 
0.000000000000000 0.000000000000000 1.000000000000000 0.000000000000000 
1
1.000000000000000 0.000000000000000 0.000000000000000 0.000000000000000 
0.000000000000000 0.000000000000000 -1.000000000000000 0.000000000000000 
0.000000000000000 1.000000000000000 0.000000000000000 0.000000000000000 
1
1.000000000000000 0.000000000000000 0.000000000000000 0.000000000000000 
0.000000000000000 1.000000000000000 0.000000000000000 0.000000000000000 
0.000000000000000 0.000000000000000 1.000000000000000 0.000000000000000 
1
1.000000000000000 0.000000000000000 0.000000000000000 0.000000000000000 
0.000000000000000 1.000000000000000 0.000000000000000 0.000000000000000 
0.000000000000000 0.000000000000000 1.000000000000000 0.000000000000000 
1
1.000000000000000 0.000000000000000 0.000000000000000 0.000000000000000 
0.000000000000000 1.000000000000000 0.000000000000000 0.000000000000000 
0.000000000000000 0.000000000000000 1.000000000000000 0.000000000000000 
1
1.000000000000000 0.000000000000000 0.000000000000000 0.000000000000000 
0.000000000000000 1.000000000000000 0.000000000000000 0.000000000000000 
0.000000000000000 0.000000000000000 1.000000000000000 0.000000000000000 
1
1.000000000000000 0.000000000000000 0.000000000000000 0.000000000000000 
0.000000000000000 1.000000000000000 0.000000000000000 0.000000000000000 
0.000000000000000 0.000000000000000 1.000000000000000 0.000000000000000 
1
1.000000000000000 0.000000000000000 0.000000000000000 0.000000000000000 
0.000000000000000 1.000000000000000 0.000000000000000 0.000000000000000 
0.000000000000000 0.000000000000000 1.000000000000000 0.000000000000000 
1
1.000000000000000 0.000000000000000 0.000000000000000 0.000000000000000 
0.000000000000000 1.000000000000000 0.000000000000000 0.000000000000000 
0.000000000000000 0.000000000000000 1.000000000000000 0.000000000000000 
1
1.000000000000000 0.000000000000000 0.000000000000000 -0.000000000000000 
0.000000000000000 1.000000000000000 0.000000000000000 -550.000000000000000 
0.000000000000000 0.000000000000000 1.000000000000000 0.000000000000121 
2  10 1 11 1 12 -1 13 1 14 1 15 1 16 1 17 1 18 1 19 1 20 1 21 1 22 1 23 -1 24 1 5 1 6 -1 0
2  8 -1 3 1 2 -1 6 1 5 -1 24 -1 23 1 22 -1 21 -1 20 -1 19 -1 18 -1 17 -1 16 -1 15 -1 14 -1 13 -1 12 1 11 -1 10 -1 0
1
1.000000000000000 0.000000000000000 0.000000000000000 0.000000000000000 
0.000000000000000 1.000000000000000 0.000000000000000 1100.000000000000000 
0.000000000000000 0.000000000000000 1.000000000000000 -0.000000000000242 
2  10 1 11 1 12 -1 13 1 14 1 15 1 16 1 17 1 18 1 19 1 20 1 21 1 22 1 23 -1 24 1 27 1 5 1 6 -1 0
2  8 -1 3 1 2 -1 6 1 5 -1 27 -1 24 -1 23 1 22 -1 21 -1 20 -1 19 -1 18 -1 17 -1 16 -1 15 -1 14 -1 13 -1 12 1 11 -1 10 -1 0
2  8 -1 3 1 2 -1 0
2  5 1 6 -1 2 1 3 -1 0
2  15 1 16 1 17 1 18 1 19 1 20 1 21 1 22 1 23 -1 24 1 0
2  24 -1 23 1 22 -1 21 -1 20 -1 19 -1 18 -1 17 -1 16 -1 15 -1 0
2  8 -1 3 1 2 -1 6 1 5 -1 24 -1 23 1 22 -1 21 -1 20 -1 19 -1 18 -1 17 -1 16 -1 15 -1 0
2  15 1 16 1 17 1 18 1 19 1 20 1 21 1 22 1 23 -1 24 1 27 1 0
2  27 -1 24 -1 23 1 22 -1 21 -1 20 -1 19 -1 18 -1 17 -1 16 -1 15 -1 0
2  8 -1 3 1 2 -1 6 1 5 -1 27 -1 24 -1 23 1 22 -1 21 -1 20 -1 19 -1 18 -1 17 -1 16 -1 15 -1 0
2  12 -1 13 1 14 1 15 1 16 1 17 1 18 1 19 1 20 1 21 1 22 1 23 -1 24 1 5 1 6 -1 2 1 3 -1 0
2  14 -1 13 -1 12 1 0
2  10 1 11 1 12 -1 13 1 14 1 0
2  13 -1 12 1 0
2  10 1 11 1 12 -1 13 1 0
2  24 -1 23 1 22 -1 21 -1 20 -1 19 -1 18 -1 17 -1 16 -1 15 -1 14 -1 0
2  8 -1 3 1 2 -1 6 1 5 -1 24 -1 23 1 22 -1 21 -1 20 -1 19 -1 18 -1 17 -1 16 -1 15 -1 14 -1 0
2  12 -1 13 1 14 1 15 1 16 1 17 1 18 1 19 1 20 1 21 1 22 1 23 -1 24 1 27 1 5 1 6 -1 2 1 3 -1 0
2  27 -1 24 -1 23 1 22 -1 21 -1 20 -1 19 -1 18 -1 17 -1 16 -1 15 -1 14 -1 0
2  8 -1 3 1 2 -1 6 1 5 -1 27 -1 24 -1 23 1 22 -1 21 -1 20 -1 19 -1 18 -1 17 -1 16 -1 15 -1 14 -1 0
2  10 1 11 1 12 -1 13 1 14 1 15 1 16 1 17 1 18 1 19 1 20 1 21 1 22 1 23 -1 24 1 5 1 6 -1 2 1 3 -1 0
2  10 1 11 1 12 -1 13 1 14 1 15 1 16 1 17 1 18 1 19 1 20 1 21 1 22 1 23 -1 24 1 27 1 5 1 6 -1 2 1 3 -1 0
2  8 -1 0
1
1.000000000000000 0.000000000000000 0.000000000000000 0.000000000000000 
0.000000000000000 1.000000000000000 0.000000000000000 0.000000000000000 
0.000000000000000 0.000000000000000 1.000000000000000 0.000000000000000 
1
1.000000000000000 0.000000000000000 0.000000000000000 0.000000000000000 
0.000000000000000 1.000000000000000 0.000000000000000 0.000000000000004 
0.000000000000000 -0.000000000000000 1.000000000000000 20.000000000000000 
2  51 1 52 1 3 -1 0
2  3 1 52 -1 51 -1 0
2  8 -1 3 1 52 -1 51 -1 0
2  14 1 15 1 16 1 17 1 18 1 19 1 20 1 21 1 22 1 23 -1 24 1 0
2  14 1 15 1 16 1 17 1 18 1 19 1 20 1 21 1 22 1 23 -1 24 1 27 1 0
1
1.000000000000000 0.000000000000000 0.000000000000000 0.000000000000000 
0.000000000000000 1.000000000000000 0.000000000000000 0.000000000000000 
0.000000000000000 0.000000000000000 1.000000000000000 0.000000000000000 
1
0.000000000000000 0.000000000000000 1.000000000000000 20.000000000000004 
1.000000000000000 0.000000000000000 0.000000000000000 0.000000000000000 
0.000000000000000 1.000000000000000 0.000000000000000 0.000000000000000 
2  58 1 59 1 6 -1 0
2  6 1 59 -1 58 -1 0
2  8 -1 3 1 2 -1 6 1 59 -1 58 -1 0
Curve2ds 56
1 4.71238898038468967 0.00000000000000000 0.00000000000000000 -1.00000000000000000 
1 1.57079632679489700 0.00000000000000000 0.00000000000000000 -1.00000000000000000 
1 0.00000000000000000 -38.41250000000000853 1.00000000000000000 0.00000000000000000 
1 0.00000000000000000 -38.41250000000000853 1.00000000000000000 0.00000000000000000 
1 6.28318530717958623 0.00000000000000000 0.00000000000000000 -1.00000000000000000 
1 0.00000000000000000 0.00000000000000000 1.00000000000000000 0.00000000000000000 
1 0.00000000000000000 -1100.00000000000000000 1.00000000000000000 0.00000000000000000 
1 0.00000000000000000 0.00000000000000000 1.00000000000000000 0.00000000000000000 
1 0.00000000000000000 0.00000000000000000 1.00000000000000000 0.00000000000000000 
1 0.00000000000000000 0.00000000000000000 1.00000000000000000 0.00000000000000000 
1 0.00000000000000000 0.00000000000000000 1.00000000000000000 0.00000000000000000 
1 0.00000000000000000 0.00000000000000000 1.00000000000000000 0.00000000000000000 
1 0.00000000000000000 0.00000000000000000 1.00000000000000000 0.00000000000000000 
1 0.00000000000000000 0.00000000000000000 1.00000000000000000 0.00000000000000000 
1 0.00000000000000000 -1100.00000000000000000 1.00000000000000000 0.00000000000000000 
1 0.00000000000000000 -1100.00000000000000000 1.00000000000000000 0.00000000000000000 
1 0.00000000000000000 -1100.00000000000000000 1.00000000000000000 0.00000000000000000 
1 0.00000000000000000 -1100.00000000000000000 1.00000000000000000 0.00000000000000000 
1 0.00000000000000000 -1100.00000000000000000 1.00000000000000000 0.00000000000000000 
1 0.00000000000000000 -1100.00000000000000000 1.00000000000000000 0.00000000000000000 
1 0.00000000000000000 -1100.00000000000000000 1.00000000000000000 0.00000000000000000 
1 3.14159265358979312 0.00000000000000000 0.00000000000000000 -1.00000000000000000 
1 0.00000000000000000 0.00000000000000000 0.00000000000000000 -1.00000000000000000 
1 6.28318530717958623 0.00000000000000000 0.00000000000000000 -1.00000000000000000 
1 0.00000000000000000 -40.00000000000000000 1.00000000000000000 0.00000000000000000 
1 0.00000000000000000 0.00000000000000000 0.00000000000000000 -1.00000000000000000 
1 6.28318530717958623 0.00000000000000000 0.00000000000000000 -1.00000000000000000 
1 0.00000000000000000 -40.00000000000000000 1.00000000000000000 0.00000000000000000 
1 0.00000000000000000 0.00000000000000000 0.00000000000000000 -1.00000000000000000 
1 0.00000000000000000 -38.41250000000000853 1.00000000000000000 0.00000000000000000 
1 0.00000000000000000 -38.41250000000000853 1.00000000000000000 0.00000000000000000 
1 3.14159265358979312 0.00000000000000000 0.00000000000000000 -1.00000000000000000 
1 0.00000000000000000 -1.58749999999999858 1.00000000000000000 0.00000000000000000 
1 0.00000000000000000 -1.58749999999999858 1.00000000000000000 0.00000000000000000 
1 1.57079632679489700 0.00000000000000000 0.00000000000000000 -1.00000000000000000 
1 1.57079632679489700 0.00000000000000000 0.00000000000000000 -1.00000000000000000 
1 0.00000000000000000 -1.58750000000000213 1.00000000000000000 0.00000000000000000 
1 0.00000000000000000 -1.58750000000000213 1.00000000000000000 0.00000000000000000 
1 3.14159265358979312 0.00000000000000000 0.00000000000000000 -1.00000000000000000 
1 3.14159265358979312 0.00000000000000000 0.00000000000000000 -1.00000000000000000 
1 0.00000000000000000 0.00000000000000000 1.00000000000000000 0.00000000000000000 
1 0.00000000000000000 0.00000000000000000 1.00000000000000000 0.00000000000000000 
1 4.71238898038468967 0.00000000000000000 0.00000000000000000 -1.00000000000000000 
1 4.71238898038468967 0.00000000000000000 0.00000000000000000 -1.00000000000000000 
1 1.57079632679489700 0.00000000000000000 0.00000000000000000 -1.00000000000000000 
1 4.71238898038468967 0.00000000000000000 0.00000000000000000 -1.00000000000000000 
1 0.00000000000000000 0.00000000000000000 1.00000000000000000 0.00000000000000000 
1 0.00000000000000000 0.00000000000000000 1.00000000000000000 0.00000000000000000 
1 0.00000000000000000 0.00000000000000000 0.00000000000000000 -1.00000000000000000 
1 6.28318530717958623 0.00000000000000000 0.00000000000000000 -1.00000000000000000 
1 0.00000000000000000 -40.00000000000000000 1.00000000000000000 0.00000000000000000 
1 0.00000000000000000 -40.00000000000000000 1.00000000000000000 0.00000000000000000 
1 0.00000000000000000 0.00000000000000000 0.00000000000000000 -1.00000000000000000 
1 6.28318530717958623 0.00000000000000000 0.00000000000000000 -1.00000000000000000 
1 0.00000000000000000 0.00000000000000000 0.00000000000000000 -1.00000000000000000 
1 6.28318530717958623 0.00000000000000000 0.00000000000000000 -1.00000000000000000 
Curves 72
1 -18.41250000000000142 -550.00000000000000000 -17.41249999999988063 0.00000000000000000 1.00000000000000000 -0.00000000000000022 
1 -18.41250000000000142 -18.41250000000000497 0.00000000000000000 0.00000000000000000 1.00000000000000000 0.00000000000000000 
1 -18.41250000000000142 -18.41250000000000497 0.00000000000000000 0.00000000000000000 1.00000000000000000 0.00000000000000000 
1 -18.41250000000000142 -550.00000000000000000 17.41250000000012221 0.00000000000000000 1.00000000000000000 -0.00000000000000022 
2 -18.41250000000000497 537.29999999999995453 -5.40000000045653383 1.00000000000000000 0.00000000000000000 0.00000000000000000 0.00000000000000000 1.00000000000000000 0.00000000000000000 0.00000000000000000 0.00000000000000000 1.00000000000000000 3.96875000000000000
2 -18.41250000000000497 -537.29999999999995453 -5.40000000045653383 1.00000000000000000 0.00000000000000000 0.00000000000000000 0.00000000000000000 1.00000000000000000 0.00000000000000000 0.00000000000000000 0.00000000000000000 1.00000000000000000 3.96875000000000000
1 -17.41250000000000142 -550.00000000000000000 -18.41249999999988063 0.00000000000000000 1.00000000000000000 -0.00000000000000022 
8 4.71238898038468967 6.28318530717958623
2 -17.41250000000000142 -17.41250000000000142 0.00000000000000773 -0.00000000000000000 0.00000000000000044 1.00000000000000000 0.00000000000000000 -1.00000000000000000 0.00000000000000044 1.00000000000000000 0.00000000000000000 0.00000000000000000 1.00000000000000000
8 4.71238898038468967 6.28318530717958623
2 -17.41250000000000142 -17.41250000000000142 0.00000000000000773 -0.00000000000000000 0.00000000000000044 1.00000000000000000 0.00000000000000000 -1.00000000000000000 0.00000000000000044 1.00000000000000000 0.00000000000000000 0.00000000000000000 1.00000000000000000
8 1.57079632679489656 3.14159265358979312
2 -17.41250000000000142 17.41250000000000142 -0.00000000000000773 -0.00000000000000000 -0.00000000000000044 -1.00000000000000000 0.00000000000000000 -1.00000000000000000 0.00000000000000044 -1.00000000000000000 0.00000000000000000 0.00000000000000000 1.00000000000000000
1 18.41250000000000142 -18.41250000000000142 0.00000000000000000 -1.00000000000000000 -0.00000000000000010 0.00000000000000000 
1 -18.41250000000000142 18.41250000000000142 0.00000000000000000 1.00000000000000000 0.00000000000000000 0.00000000000000000 
8 0.00000000000000000 1.57079632679489656
2 17.41250000000000142 -17.41250000000000142 0.00000000000000773 -0.00000000000000000 0.00000000000000044 1.00000000000000000 0.00000000000000000 -1.00000000000000000 0.00000000000000044 1.00000000000000000 0.00000000000000000 0.00000000000000000 1.00000000000000000
8 1.57079632679489656 3.14159265358979312
2 17.41250000000000142 17.41250000000000142 -0.00000000000000773 -0.00000000000000000 0.00000000000000044 1.00000000000000000 0.00000000000000000 -1.00000000000000000 0.00000000000000044 1.00000000000000000 0.00000000000000000 0.00000000000000000 1.00000000000000000
1 18.41250000000000142 18.41250000000000142 0.00000000000000000 0.00000000000000000 -1.00000000000000000 0.00000000000000000 
1 -19.99999999999999645 20.00000000000000000 0.00000000000000000 1.00000000000000000 0.00000000000000000 0.00000000000000000 
8 3.14159265358979312 4.71238898038468967
2 -17.99999999999999645 18.00000000000000000 -0.00000000000000799 -0.00000000000000000 0.00000000000000044 1.00000000000000000 0.00000000000000000 -1.00000000000000000 0.00000000000000044 1.00000000000000000 0.00000000000000000 0.00000000000000000 2.00000000000000000
8 3.14159265358979312 4.71238898038468967
2 18.00000000000000355 18.00000000000000000 -0.00000000000000799 -0.00000000000000000 -0.00000000000000044 -1.00000000000000000 0.00000000000000000 -1.00000000000000000 0.00000000000000044 -1.00000000000000000 0.00000000000000000 0.00000000000000000 2.00000000000000000
1 -19.99999999999999645 -20.00000000000000000 0.00000000000000000 0.00000000000000000 1.00000000000000000 0.00000000000000000 
1 20.00000000000000355 20.00000000000000000 0.00000000000000000 0.00000000000000000 -1.00000000000000000 0.00000000000000000 
8 0.00000000000000000 1.57079632679489656
2 -17.99999999999999645 -18.00000000000000000 0.00000000000000799 -0.00000000000000000 -0.00000000000000044 -1.00000000000000000 0.00000000000000000 -1.00000000000000000 0.00000000000000044 -1.00000000000000000 0.00000000000000000 0.00000000000000000 2.00000000000000000
8 4.71238898038468967 6.28318530717958623
2 18.00000000000000355 -18.00000000000000000 0.00000000000000799 -0.00000000000000000 -0.00000000000000044 -1.00000000000000000 0.00000000000000000 -1.00000000000000000 0.00000000000000044 -1.00000000000000000 0.00000000000000000 0.00000000000000000 2.00000000000000000
1 20.00000000000000355 -20.00000000000000000 0.00000000000000000 -1.00000000000000000 0.00000000000000000 0.00000000000000000 
8 1.57079632679489656 3.14159265358979312
2 -17.41250000000000142 17.41250000000000142 -0.00000000000000773 -0.00000000000000000 -0.00000000000000044 -1.00000000000000000 0.00000000000000000 -1.00000000000000000 0.00000000000000044 -1.00000000000000000 0.00000000000000000 0.00000000000000000 1.00000000000000000
1 18.41250000000000142 -18.41250000000000142 0.00000000000000000 -1.00000000000000000 -0.00000000000000010 0.00000000000000000 
1 -18.41250000000000142 18.41250000000000142 0.00000000000000000 1.00000000000000000 0.00000000000000000 0.00000000000000000 
8 0.00000000000000000 1.57079632679489656
2 17.41250000000000142 -17.41250000000000142 0.00000000000000773 -0.00000000000000000 0.00000000000000044 1.00000000000000000 0.00000000000000000 -1.00000000000000000 0.00000000000000044 1.00000000000000000 0.00000000000000000 0.00000000000000000 1.00000000000000000
8 1.57079632679489656 3.14159265358979312
2 17.41250000000000142 17.41250000000000142 -0.00000000000000773 -0.00000000000000000 0.00000000000000044 1.00000000000000000 0.00000000000000000 -1.00000000000000000 0.00000000000000044 1.00000000000000000 0.00000000000000000 0.00000000000000000 1.00000000000000000
1 18.41250000000000142 18.41250000000000142 0.00000000000000000 0.00000000000000000 -1.00000000000000000 0.00000000000000000 
1 -19.99999999999999645 20.00000000000000000 0.00000000000000000 1.00000000000000000 0.00000000000000000 0.00000000000000000 
8 3.14159265358979312 4.71238898038468967
2 -17.99999999999999645 18.00000000000000000 -0.00000000000000799 -0.00000000000000000 0.00000000000000044 1.00000000000000000 0.00000000000000000 -1.00000000000000000 0.00000000000000044 1.00000000000000000 0.00000000000000000 0.00000000000000000 2.00000000000000000
8 3.14159265358979312 4.71238898038468967
2 18.00000000000000355 18.00000000000000000 -0.00000000000000799 -0.00000000000000000 -0.00000000000000044 -1.00000000000000000 0.00000000000000000 -1.00000000000000000 0.00000000000000044 -1.00000000000000000 0.00000000000000000 0.00000000000000000 2.00000000000000000
1 -19.99999999999999645 -20.00000000000000000 0.00000000000000000 0.00000000000000000 1.00000000000000000 0.00000000000000000 
1 20.00000000000000355 20.00000000000000000 0.00000000000000000 0.00000000000000000 -1.00000000000000000 0.00000000000000000 
8 0.00000000000000000 1.57079632679489656
2 -17.99999999999999645 -18.00000000000000000 0.00000000000000799 -0.00000000000000000 -0.00000000000000044 -1.00000000000000000 0.00000000000000000 -1.00000000000000000 0.00000000000000044 -1.00000000000000000 0.00000000000000000 0.00000000000000000 2.00000000000000000
8 4.71238898038468967 6.28318530717958623
2 18.00000000000000355 -18.00000000000000000 0.00000000000000799 -0.00000000000000000 -0.00000000000000044 -1.00000000000000000 0.00000000000000000 -1.00000000000000000 0.00000000000000044 -1.00000000000000000 0.00000000000000000 0.00000000000000000 2.00000000000000000
1 20.00000000000000355 -20.00000000000000000 0.00000000000000000 -1.00000000000000000 0.00000000000000000 0.00000000000000000 
1 -17.41250000000000142 -550.00000000000000000 18.41250000000012221 0.00000000000000000 1.00000000000000000 -0.00000000000000022 
1 20.00000000000000355 541.26874999999995453 -5.40000000045653383 -1.00000000000000000 -0.00000000000000000 -0.00000000000000000 
2 -19.99999999999999645 537.29999999999995453 -5.40000000045653383 1.00000000000000000 0.00000000000000000 0.00000000000000000 0.00000000000000000 1.00000000000000000 0.00000000000000000 0.00000000000000000 0.00000000000000000 1.00000000000000000 3.96875000000000000
1 20.00000000000000355 -533.33124999999995453 -5.40000000045653383 -1.00000000000000000 -0.00000000000000000 -0.00000000000000000 
2 -19.99999999999999645 -537.29999999999995453 -5.40000000045653383 1.00000000000000000 0.00000000000000000 0.00000000000000000 0.00000000000000000 1.00000000000000000 0.00000000000000000 0.00000000000000000 0.00000000000000000 1.00000000000000000 3.96875000000000000
1 17.41250000000000142 -550.00000000000000000 -18.41249999999988063 0.00000000000000000 1.00000000000000000 -0.00000000000000022 
2 0.00000000000000000 490.00000000000000000 -18.41250000000011511 -0.00000000000000000 0.00000000000000022 1.00000000000000000 1.00000000000000000 0.00000000000000000 0.00000000000000000 0.00000000000000000 1.00000000000000000 -0.00000000000000022 3.97000000000000020
2 0.00000000000000000 -460.00000000000000000 -18.41249999999990905 -0.00000000000000000 0.00000000000000022 1.00000000000000000 1.00000000000000000 0.00000000000000000 0.00000000000000000 0.00000000000000000 1.00000000000000000 -0.00000000000000022 3.97000000000000020
1 17.41250000000000142 -550.00000000000000000 18.41250000000012221 0.00000000000000000 1.00000000000000000 -0.00000000000000022 
2 0.00000000000000000 490.00000000000000000 18.41249999999989484 -0.00000000000000000 0.00000000000000022 1.00000000000000000 1.00000000000000000 0.00000000000000000 0.00000000000000000 0.00000000000000000 1.00000000000000000 -0.00000000000000022 3.97000000000000020
2 0.00000000000000000 -460.00000000000000000 18.41250000000010090 -0.00000000000000000 0.00000000000000022 1.00000000000000000 1.00000000000000000 0.00000000000000000 0.00000000000000000 0.00000000000000000 1.00000000000000000 -0.00000000000000022 3.97000000000000020
1 18.41250000000000142 -550.00000000000000000 -17.41249999999988063 0.00000000000000000 1.00000000000000000 -0.00000000000000022 
1 18.41250000000000142 -550.00000000000000000 17.41250000000012221 0.00000000000000000 1.00000000000000000 -0.00000000000000022 
2 18.41250000000000142 537.29999999999995453 -5.40000000045653383 1.00000000000000000 0.00000000000000000 0.00000000000000000 0.00000000000000000 1.00000000000000000 0.00000000000000000 0.00000000000000000 0.00000000000000000 1.00000000000000000 3.96875000000000000
2 18.41250000000000142 -537.29999999999995453 -5.40000000045653383 1.00000000000000000 0.00000000000000000 0.00000000000000000 0.00000000000000000 1.00000000000000000 0.00000000000000000 0.00000000000000000 0.00000000000000000 1.00000000000000000 3.96875000000000000
1 -17.99999999999999645 -550.00000000000000000 20.00000000000012079 0.00000000000000000 1.00000000000000000 -0.00000000000000022 
1 18.00000000000000355 -550.00000000000000000 20.00000000000012079 0.00000000000000000 1.00000000000000000 -0.00000000000000022 
2 0.00000000000000000 490.00000000000000000 0.00000000000000000 0.00000000000000000 0.00000000000000000 1.00000000000000000 1.00000000000000000 0.00000000000000000 0.00000000000000000 0.00000000000000000 1.00000000000000000 0.00000000000000000 3.97000000000000020
2 0.00000000000000000 -460.00000000000000000 0.00000000000000000 0.00000000000000000 0.00000000000000000 1.00000000000000000 1.00000000000000000 0.00000000000000000 0.00000000000000000 0.00000000000000000 1.00000000000000000 0.00000000000000000 3.97000000000000020
1 -19.99999999999999645 -550.00000000000000000 18.00000000000012079 0.00000000000000000 1.00000000000000000 -0.00000000000000022 
1 20.00000000000000355 -550.00000000000000000 18.00000000000012079 0.00000000000000000 1.00000000000000000 -0.00000000000000022 
1 -19.99999999999999645 -550.00000000000000000 -17.99999999999987921 0.00000000000000000 1.00000000000000000 -0.00000000000000022 
1 20.00000000000000355 -550.00000000000000000 -17.99999999999987921 0.00000000000000000 1.00000000000000000 -0.00000000000000022 
2 537.29999999999995453 -5.40000000045653383 0.00000000000000000 0.00000000000000000 0.00000000000000000 1.00000000000000000 1.00000000000000000 0.00000000000000000 0.00000000000000000 0.00000000000000000 1.00000000000000000 0.00000000000000000 3.96875000000000000
2 -537.29999999999995453 -5.40000000045653383 0.00000000000000000 0.00000000000000000 0.00000000000000000 1.00000000000000000 1.00000000000000000 0.00000000000000000 0.00000000000000000 0.00000000000000000 1.00000000000000000 0.00000000000000000 3.96875000000000000
1 -17.99999999999999645 -550.00000000000000000 -19.99999999999987921 0.00000000000000000 1.00000000000000000 -0.00000000000000022 
1 18.00000000000000355 -550.00000000000000000 -19.99999999999987921 0.00000000000000000 1.00000000000000000 -0.00000000000000022 
2 0.00000000000000000 490.00000000000000000 -20.00000000000010658 -0.00000000000000000 0.00000000000000022 1.00000000000000000 1.00000000000000000 0.00000000000000000 0.00000000000000000 0.00000000000000000 1.00000000000000000 -0.00000000000000022 3.97000000000000020
2 0.00000000000000000 -460.00000000000000000 -19.99999999999990052 -0.00000000000000000 0.00000000000000022 1.00000000000000000 1.00000000000000000 0.00000000000000000 0.00000000000000000 0.00000000000000000 1.00000000000000000 -0.00000000000000022 3.97000000000000020
1 3.97000000000000020 490.00000000000000000 19.99999999999989342 -0.00000000000000000 -0.00000000000000022 -1.00000000000000000 
1 3.97000000000000020 -460.00000000000000000 20.00000000000009948 -0.00000000000000000 -0.00000000000000022 -1.00000000000000000 
1 3.97000000000000020 490.00000000000000000 19.99999999999989342 -0.00000000000000000 -0.00000000000000022 -1.00000000000000000 
1 3.97000000000000020 -460.00000000000000000 20.00000000000009948 -0.00000000000000000 -0.00000000000000022 -1.00000000000000000 
1 20.00000000000000355 541.26874999999995453 -5.40000000045653383 -1.00000000000000000 -0.00000000000000000 -0.00000000000000000 
1 20.00000000000000355 -533.33124999999995453 -5.40000000045653383 -1.00000000000000000 -0.00000000000000000 -0.00000000000000000 
Polygon3D 0
PolygonOnTriangulations 0
Surfaces 26
1 -18.41250000000000142 -550.00000000000000000 -17.41249999999988063 1.00000000000000000 0.00000000000000000 0.00000000000000000 0.00000000000000000 0.00000000000000000 1.00000000000000000 0.00000000000000000 -1.00000000000000000 0.00000000000000000 
2 -17.41250000000000142 -550.00000000000000000 -17.41249999999988063 0.00000000000000000 -1.00000000000000000 0.00000000000000044 0.00000000000000000 -0.00000000000000044 -1.00000000000000000 1.00000000000000000 0.00000000000000000 0.00000000000000000 1.00000000000000000
2 -17.41250000000000142 -550.00000000000000000 17.41250000000012221 0.00000000000000000 -1.00000000000000000 0.00000000000000044 0.00000000000000000 -0.00000000000000044 -1.00000000000000000 -1.00000000000000000 -0.00000000000000000 -0.00000000000000000 1.00000000000000000
2 20.00000000000000355 537.29999999999995453 -5.40000000045653383 1.00000000000000000 0.00000000000000000 0.00000000000000000 0.00000000000000000 1.00000000000000000 0.00000000000000000 0.00000000000000000 0.00000000000000000 1.00000000000000000 3.96875000000000000
2 20.00000000000000355 -537.29999999999995453 -5.40000000045653383 1.00000000000000000 0.00000000000000000 0.00000000000000000 0.00000000000000000 1.00000000000000000 0.00000000000000000 0.00000000000000000 0.00000000000000000 1.00000000000000000 3.96875000000000000
1 17.41250000000000142 -550.00000000000000000 -18.41249999999988063 -0.00000000000000010 0.00000000000000022 1.00000000000000000 -1.00000000000000000 0.00000000000000000 -0.00000000000000010 -0.00000000000000000 -1.00000000000000000 0.00000000000000022 
1 0.00000000000000213 0.00000000000000000 0.00000000000000000 0.00000000000000000 1.00000000000000000 -0.00000000000000022 0.00000000000000000 0.00000000000000022 1.00000000000000000 1.00000000000000000 0.00000000000000000 0.00000000000000000 
2 17.41250000000000142 -550.00000000000000000 -17.41249999999988063 0.00000000000000000 -1.00000000000000000 0.00000000000000044 0.00000000000000000 -0.00000000000000044 -1.00000000000000000 1.00000000000000000 0.00000000000000000 0.00000000000000000 1.00000000000000000
2 17.41250000000000142 -550.00000000000000000 17.41250000000012221 0.00000000000000000 -1.00000000000000000 0.00000000000000044 0.00000000000000000 -0.00000000000000044 -1.00000000000000000 1.00000000000000000 0.00000000000000000 0.00000000000000000 1.00000000000000000
2 -17.99999999999999645 -550.00000000000000000 18.00000000000012079 0.00000000000000000 -1.00000000000000000 0.00000000000000044 0.00000000000000000 -0.00000000000000044 -1.00000000000000000 1.00000000000000000 0.00000000000000000 0.00000000000000000 2.00000000000000000
2 18.00000000000000355 -550.00000000000000000 18.00000000000012079 0.00000000000000000 -1.00000000000000000 0.00000000000000044 0.00000000000000000 -0.00000000000000044 -1.00000000000000000 -1.00000000000000000 -0.00000000000000000 -0.00000000000000000 2.00000000000000000
2 -17.99999999999999645 -550.00000000000000000 -17.99999999999987921 0.00000000000000000 -1.00000000000000000 0.00000000000000044 0.00000000000000000 -0.00000000000000044 -1.00000000000000000 -1.00000000000000000 -0.00000000000000000 -0.00000000000000000 2.00000000000000000
2 18.00000000000000355 -550.00000000000000000 -17.99999999999987921 0.00000000000000000 -1.00000000000000000 0.00000000000000044 0.00000000000000000 -0.00000000000000044 -1.00000000000000000 -1.00000000000000000 -0.00000000000000000 -0.00000000000000000 2.00000000000000000
1 0.00000000000000213 0.00000000000000000 0.00000000000000000 0.00000000000000000 1.00000000000000000 -0.00000000000000022 0.00000000000000000 0.00000000000000022 1.00000000000000000 1.00000000000000000 0.00000000000000000 0.00000000000000000 
1 -17.41250000000000142 -550.00000000000000000 18.41250000000012221 0.00000000000000000 -0.00000000000000022 -1.00000000000000000 1.00000000000000000 0.00000000000000000 0.00000000000000000 0.00000000000000000 -1.00000000000000000 0.00000000000000022 
2 0.00000000000000000 490.00000000000000000 19.99999999999989342 0.00000000000000000 0.00000000000000022 1.00000000000000000 1.00000000000000000 0.00000000000000000 0.00000000000000000 0.00000000000000000 1.00000000000000000 -0.00000000000000022 3.97000000000000020
2 0.00000000000000000 -460.00000000000000000 20.00000000000009948 0.00000000000000000 0.00000000000000022 1.00000000000000000 1.00000000000000000 0.00000000000000000 0.00000000000000000 0.00000000000000000 1.00000000000000000 -0.00000000000000022 3.97000000000000020
2 0.00000000000000000 490.00000000000000000 19.99999999999989342 0.00000000000000000 0.00000000000000022 1.00000000000000000 1.00000000000000000 0.00000000000000000 0.00000000000000000 0.00000000000000000 1.00000000000000000 -0.00000000000000022 3.97000000000000020
2 0.00000000000000000 -460.00000000000000000 20.00000000000009948 0.00000000000000000 0.00000000000000022 1.00000000000000000 1.00000000000000000 0.00000000000000000 0.00000000000000000 0.00000000000000000 1.00000000000000000 -0.00000000000000022 3.97000000000000020
1 18.41250000000000142 -550.00000000000000000 17.41250000000012221 -1.00000000000000000 0.00000000000000000 0.00000000000000000 0.00000000000000000 0.00000000000000000 -1.00000000000000000 -0.00000000000000000 -1.00000000000000000 -0.00000000000000000 
2 20.00000000000000355 537.29999999999995453 -5.40000000045653383 1.00000000000000000 0.00000000000000000 0.00000000000000000 0.00000000000000000 1.00000000000000000 0.00000000000000000 0.00000000000000000 0.00000000000000000 1.00000000000000000 3.96875000000000000
2 20.00000000000000355 -537.29999999999995453 -5.40000000045653383 1.00000000000000000 0.00000000000000000 0.00000000000000000 0.00000000000000000 1.00000000000000000 0.00000000000000000 0.00000000000000000 0.00000000000000000 1.00000000000000000 3.96875000000000000
1 -17.99999999999999645 -550.00000000000000000 20.00000000000012079 0.00000000000000000 -0.00000000000000022 -1.00000000000000000 1.00000000000000000 0.00000000000000000 0.00000000000000000 0.00000000000000000 -1.00000000000000000 0.00000000000000022 
1 -19.99999999999999645 -550.00000000000000000 -17.99999999999987921 1.00000000000000000 0.00000000000000000 0.00000000000000000 0.00000000000000000 0.00000000000000000 1.00000000000000000 0.00000000000000000 -1.00000000000000000 0.00000000000000000 
1 20.00000000000000355 -550.00000000000000000 18.00000000000012079 -1.00000000000000000 0.00000000000000000 0.00000000000000000 0.00000000000000000 0.00000000000000000 -1.00000000000000000 -0.00000000000000000 -1.00000000000000000 -0.00000000000000000 
1 18.00000000000000355 -550.00000000000000000 -19.99999999999987921 0.00000000000000000 0.00000000000000022 1.00000000000000000 -1.00000000000000000 0.00000000000000000 0.00000000000000000 0.00000000000000000 -1.00000000000000000 0.00000000000000022 
Triangulations 0

TShapes 192
Ve
0.000000100000000
-18.412500000000001 -550.000000000000000 -17.412499999999881
0 0

0101101
*
Ve
0.000000100000000
-18.412500000000001 550.000000000000000 -17.412500000000122
0 0

0101101
*
Ed
 0.000000100000000 1 1 0
1  1 0 0.000000000000000 1100.000000000000000
2  1 2 0 0.000000000000000 1100.000000000000000
4 C1 1 0 2 0
0

0101000
+192 9 -191 9 *
Ve
0.000000100000000
-18.412500000000001 -550.000000000000000 17.412500000000122
0 0

0101101
*
Ed
 0.000000100000000 1 1 0
1  2 0 1.000000000000004 35.825000000000003
0

0101000
+192 26 -189 26 *
Ve
0.000000100000000
-18.412500000000001 550.000000000000000 17.412499999999881
0 0

0101101
*
Ed
 0.000000100000000 1 1 0
1  3 0 1.000000000000004 35.825000000000003
0

0101000
+191 29 -187 29 *
Ed
 0.000000100000000 1 1 0
1  4 0 0.000000000000000 1100.000000000000000
2  2 3 0 0.000000000000000 1100.000000000000000
4 C1 1 0 3 0
0

0101000
+189 9 -187 9 *
Wi

0101100
+190 7 -188 25 +186 28 -185 7 *
Ve
0.000000100000001
-18.412500000000005 541.268749999999955 -5.400000000456534
0 0

0101101
*
Ed
 0.000000100000000 1 1 0
1  5 0 0.000000000000000 6.283185307179586
2  3 4 0 0.000000000000000 6.283185307179586
0

0101000
+183 30 -183 30 *
Wi

0101100
-182 0 *
Ve
0.000000100000001
-18.412500000000005 -533.331249999999955 -5.400000000456534
0 0

0101101
*
Ed
 0.000000100000000 1 1 0
1  6 0 0.000000000000000 6.283185307179586
2  4 5 0 0.000000000000000 6.283185307179586
0

0101000
+180 30 -180 30 *
Wi

0101100
-179 0 *
Fa
0  0.000000100000000 1 7

0111000
+184 0 +181 0 +178 0 *
Ve
0.000000100000000
-17.412500000000001 -550.000000000000000 -18.412499999999881
0 0

0101101
*
Ve
0.000000100000000
-17.412500000000001 550.000000000000000 -18.412500000000122
0 0

0101101
*
Ed
 0.000000100000000 1 1 0
1  7 0 0.000000000000000 1100.000000000000000
2  5 2 0 0.000000000000000 1100.000000000000000
4 C1 2 0 6 0
0

0101000
+176 9 -175 9 *
Ed
 0.000000100000000 1 1 0
1  8 0 4.712388980384690 6.283185307179586
2  6 2 33 4.712388980384690 6.283185307179586
0

0101000
+192 34 -176 34 *
Ed
 0.000000100000000 1 1 0
1  9 0 4.712388980384690 6.283185307179586
2  7 2 36 4.712388980384690 6.283185307179586
0

0101000
+191 37 -175 37 *
Wi

0101100
+190 0 -174 0 -173 32 +172 35 *
Fa
0  0.000000100000000 2 0

0111000
+171 0 *
Ve
0.000000100000000
-17.412500000000001 -550.000000000000000 18.412500000000122
0 0

0101101
*
Ed
 0.000000100000000 1 1 0
1  10 0 1.570796326794897 3.141592653589793
2  8 3 33 1.570796326794897 3.141592653589793
0

0101000
+189 34 -169 34 *
Ve
0.000000100000000
17.412500000000001 -550.000000000000000 -18.412499999999881
0 0

0101101
*
Ed
 0.000000100000000 1 1 0
1  11 0 1.000000000000000 35.825000000000003
0

0101000
+167 26 -176 26 *
Ve
0.000000100000000
17.412500000000001 -550.000000000000000 18.412500000000122
0 0

0101101
*
Ed
 0.000000100000000 1 1 0
1  12 0 1.000000000000000 35.825000000000003
0

0101000
+169 26 -165 26 *
Ve
0.000000100000000
18.412500000000001 -550.000000000000000 -17.412499999999881
0 0

0101101
*
Ed
 0.000000100000000 1 1 0
1  13 0 0.000000000000000 1.570796326794897
2  9 8 33 0.000000000000000 1.570796326794897
0

0101000
+167 34 -163 34 *
Ve
0.000000100000000
18.412500000000001 -550.000000000000000 17.412500000000122
0 0

0101101
*
Ed
 0.000000100000000 1 1 0
1  14 0 1.570796326794897 3.141592653589793
2  10 9 33 1.570796326794897 3.141592653589793
0

0101000
+161 34 -165 34 *
Ed
 0.000000100000000 1 1 0
1  15 0 1.000000000000000 35.825000000000003
0

0101000
+161 26 -163 26 *
Wi

0101100
-188 40 +173 0 -168 0 -166 40 -164 40 +162 0 +160 0 -159 40 *
Ve
0.000000100000000
-17.999999999999996 -550.000000000000000 20.000000000000121
0 0

0101101
*
Ve
0.000000100000000
18.000000000000004 -550.000000000000000 20.000000000000121
0 0

0101101
*
Ed
 0.000000100000000 1 1 0
1  16 0 2.000000000000000 38.000000000000000
0

0101000
+157 26 -156 26 *
Ve
0.000000100000000
-19.999999999999996 -550.000000000000000 18.000000000000121
0 0

0101101
*
Ed
 0.000000100000000 1 1 0
1  17 0 3.141592653589793 4.712388980384690
2  11 10 43 3.141592653589793 4.712388980384690
0

0101000
+157 44 -154 44 *
Ve
0.000000100000000
20.000000000000004 -550.000000000000000 18.000000000000121
0 0

0101101
*
Ed
 0.000000100000000 1 1 0
1  18 0 3.141592653589793 4.712388980384690
2  12 11 43 3.141592653589793 4.712388980384690
0

0101000
+156 44 -152 44 *
Ve
0.000000100000000
-19.999999999999996 -550.000000000000000 -17.999999999999879
0 0

0101101
*
Ed
 0.000000100000000 1 1 0
1  19 0 2.000000000000000 38.000000000000000
0

0101000
+150 26 -154 26 *
Ve
0.000000100000000
20.000000000000004 -550.000000000000000 -17.999999999999879
0 0

0101101
*
Ed
 0.000000100000000 1 1 0
1  20 0 2.000000000000000 38.000000000000000
0

0101000
+152 26 -148 26 *
Ve
0.000000100000000
-17.999999999999996 -550.000000000000000 -19.999999999999879
0 0

0101101
*
Ed
 0.000000100000000 1 1 0
1  21 0 0.000000000000000 1.570796326794897
2  13 12 43 0.000000000000000 1.570796326794897
0

0101000
+146 44 -150 44 *
Ve
0.000000100000000
18.000000000000004 -550.000000000000000 -19.999999999999879
0 0

0101101
*
Ed
 0.000000100000000 1 1 0
1  22 0 4.712388980384690 6.283185307179586
2  14 13 43 4.712388980384690 6.283185307179586
0

0101000
+148 44 -144 44 *
Ed
 0.000000100000000 1 1 0
1  23 0 2.000000000000000 38.000000000000000
0

0101000
+144 26 -146 26 *
Wi

0101100
+155 42 -153 0 +151 0 +149 42 +147 42 +145 0 +143 0 +142 42 *
Fa
0  0.000000100000000 7 0

0111000
+158 39 +141 41 *
Ve
0.000000100000000
-17.412500000000001 550.000000000000000 18.412499999999881
0 0

0101101
*
Ed
 0.000000100000000 1 1 0
1  24 0 1.570796326794897 3.141592653589793
2  15 3 36 1.570796326794897 3.141592653589793
0

0101000
+187 37 -139 37 *
Ve
0.000000100000000
17.412500000000001 550.000000000000000 -18.412500000000122
0 0

0101101
*
Ed
 0.000000100000000 1 1 0
1  25 0 1.000000000000000 35.825000000000003
0

0101000
+137 29 -175 29 *
Ve
0.000000100000000
17.412500000000001 550.000000000000000 18.412499999999881
0 0

0101101
*
Ed
 0.000000100000000 1 1 0
1  26 0 1.000000000000000 35.825000000000003
0

0101000
+139 29 -135 29 *
Ve
0.000000100000000
18.412500000000001 550.000000000000000 -17.412500000000122
0 0

0101101
*
Ed
 0.000000100000000 1 1 0
1  27 0 0.000000000000000 1.570796326794897
2  16 8 36 0.000000000000000 1.570796326794897
0

0101000
+137 37 -133 37 *
Ve
0.000000100000000
18.412500000000001 550.000000000000000 17.412499999999881
0 0

0101101
*
Ed
 0.000000100000000 1 1 0
1  28 0 1.570796326794897 3.141592653589793
2  17 9 36 1.570796326794897 3.141592653589793
0

0101000
+131 37 -135 37 *
Ed
 0.000000100000000 1 1 0
1  29 0 1.000000000000000 35.825000000000003
0

0101000
+131 29 -133 29 *
Wi

0101100
-186 40 +172 0 -138 0 -136 40 -134 40 +132 0 +130 0 -129 40 *
Ve
0.000000100000000
-17.999999999999996 550.000000000000000 19.999999999999879
0 0

0101101
*
Ve
0.000000100000000
18.000000000000004 550.000000000000000 19.999999999999879
0 0

0101101
*
Ed
 0.000000100000000 1 1 0
1  30 0 2.000000000000000 38.000000000000000
0

0101000
+127 29 -126 29 *
Ve
0.000000100000000
-19.999999999999996 550.000000000000000 17.999999999999879
0 0

0101101
*
Ed
 0.000000100000000 1 1 0
1  31 0 3.141592653589793 4.712388980384690
2  18 10 46 3.141592653589793 4.712388980384690
0

0101000
+127 47 -124 47 *
Ve
0.000000100000000
20.000000000000004 550.000000000000000 17.999999999999879
0 0

0101101
*
Ed
 0.000000100000000 1 1 0
1  32 0 3.141592653589793 4.712388980384690
2  19 11 46 3.141592653589793 4.712388980384690
0

0101000
+126 47 -122 47 *
Ve
0.000000100000000
-19.999999999999996 550.000000000000000 -18.000000000000121
0 0

0101101
*
Ed
 0.000000100000000 1 1 0
1  33 0 2.000000000000000 38.000000000000000
0

0101000
+120 29 -124 29 *
Ve
0.000000100000000
20.000000000000004 550.000000000000000 -18.000000000000121
0 0

0101101
*
Ed
 0.000000100000000 1 1 0
1  34 0 2.000000000000000 38.000000000000000
0

0101000
+122 29 -118 29 *
Ve
0.000000100000000
-17.999999999999996 550.000000000000000 -20.000000000000121
0 0

0101101
*
Ed
 0.000000100000000 1 1 0
1  35 0 0.000000000000000 1.570796326794897
2  20 12 46 0.000000000000000 1.570796326794897
0

0101000
+116 47 -120 47 *
Ve
0.000000100000000
18.000000000000004 550.000000000000000 -20.000000000000121
0 0

0101101
*
Ed
 0.000000100000000 1 1 0
1  36 0 4.712388980384690 6.283185307179586
2  21 13 46 4.712388980384690 6.283185307179586
0

0101000
+118 47 -114 47 *
Ed
 0.000000100000000 1 1 0
1  37 0 2.000000000000000 38.000000000000000
0

0101000
+114 29 -116 29 *
Wi

0101100
+125 42 -123 0 +121 0 +119 42 +117 42 +115 0 +113 0 +112 42 *
Fa
0  0.000000100000000 14 0

0111000
+128 39 +111 41 *
Ed
 0.000000100000000 1 1 0
1  38 0 0.000000000000000 1100.000000000000000
2  22 3 0 0.000000000000000 1100.000000000000000
4 C1 3 0 15 0
0

0101000
+169 9 -139 9 *
Wi

0101100
+185 0 -109 0 -168 32 +138 35 *
Fa
0  0.000000100000000 3 0

0111000
+108 0 *
Ve
0.000000100000001
-19.999999999999996 541.268749999999955 -5.400000000456534
0 0

0101101
*
Ed
 0.000000100000000 1 1 0
1  39 0 38.412500000000009 40.000000000000000
3  23 24CN 4 0 38.412500000000009 40.000000000000000
0

0101000
+183 30 -106 30 *
Ed
 0.000000100000000 1 1 0
1  40 0 0.000000000000000 6.283185307179586
2  25 4 0 0.000000000000000 6.283185307179586
0

0101000
+106 30 -106 30 *
Wi

0101100
-182 0 -105 0 +104 0 +105 0 *
Fa
0  0.000000100000000 4 0

0111000
+103 0 *
Ve
0.000000100000001
-19.999999999999996 -533.331249999999955 -5.400000000456534
0 0

0101101
*
Ed
 0.000000100000000 1 1 0
1  41 0 38.412500000000009 40.000000000000000
3  26 27CN 5 0 38.412500000000009 40.000000000000000
0

0101000
+180 30 -101 30 *
Ed
 0.000000100000000 1 1 0
1  42 0 0.000000000000000 6.283185307179586
2  28 5 0 0.000000000000000 6.283185307179586
0

0101000
+101 30 -101 30 *
Wi

0101100
-179 0 -100 0 +99 0 +100 0 *
Fa
0  0.000000100000000 5 0

0111000
+98 0 *
Ed
 0.000000100000000 1 1 0
1  43 0 0.000000000000000 1100.000000000000000
2  29 8 0 0.000000000000000 1100.000000000000000
4 C1 6 0 8 0
0

0101000
+167 9 -137 9 *
Wi

0101100
+96 31 -166 48 +136 49 -174 31 *
Ve
0.000000100000000
3.970000000000000 490.000000000000000 -18.412500000000115
0 0

0101101
*
Ed
 0.000000100000000 1 1 0
1  44 0 0.000000000000000 6.283185307179586
2  30 16 0 0.000000000000000 6.283185307179586
0

0101000
+94 50 -94 50 *
Wi

0101100
-93 0 *
Ve
0.000000100000007
3.970000000000000 -460.000000000000000 -18.412499999999902
0 0

0101101
*
Ed
 0.000000100000000 1 1 0
1  45 0 0.000000000000000 6.283185307179586
2  31 17 0 0.000000000000000 6.283185307179586
0

0101000
+91 50 -91 50 *
Wi

0101100
-90 0 *
Fa
0  0.000000100000000 6 31

0111000
+95 0 +92 0 +89 0 *
Ed
 0.000000100000000 1 1 0
1  46 0 0.000000000000000 1100.000000000000000
2  32 9 0 0.000000000000000 1100.000000000000000
4 C1 15 0 9 0
0

0101000
+165 9 -135 9 *
Wi

0101100
+109 31 -164 48 +134 49 -87 31 *
Ve
0.000000100000000
3.970000000000000 490.000000000000000 18.412499999999895
0 0

0101101
*
Ed
 0.000000100000000 1 1 0
1  47 0 0.000000000000000 6.283185307179586
2  33 18 0 0.000000000000000 6.283185307179586
0

0101000
+85 50 -85 50 *
Wi

0101100
+84 0 *
Ve
0.000000100000000
3.970000000000000 -460.000000000000000 18.412500000000101
0 0

0101101
*
Ed
 0.000000100000000 1 1 0
1  48 0 0.000000000000000 6.283185307179586
2  34 19 0 0.000000000000000 6.283185307179586
0

0101000
+82 50 -82 50 *
Wi

0101100
+81 0 *
Fa
0  0.000000100000000 15 31

0111000
+86 0 +83 0 +80 0 *
Ed
 0.000000100000000 1 1 0
1  49 0 0.000000000000000 1100.000000000000000
2  35 8 0 0.000000000000000 1100.000000000000000
4 C1 8 0 20 0
0

0101000
+163 9 -133 9 *
Wi

0101100
+96 0 -78 0 -162 32 +132 35 *
Fa
0  0.000000100000000 8 0

0111000
+77 0 *
Ed
 0.000000100000000 1 1 0
1  50 0 0.000000000000000 1100.000000000000000
2  36 9 0 0.000000000000000 1100.000000000000000
4 C1 9 0 20 0
0

0101000
+161 9 -131 9 *
Wi

0101100
+75 0 -87 0 -160 32 +130 35 *
Fa
0  0.000000100000000 9 0

0111000
+74 0 *
Wi

0101100
+75 7 -159 25 +129 28 -78 7 *
Ve
0.000000100000001
18.412500000000001 541.268749999999955 -5.400000000456534
0 0

0101101
*
Ed
 0.000000100000000 1 1 0
1  51 0 0.000000000000000 6.283185307179586
2  37 21 0 0.000000000000000 6.283185307179586
0

0101000
+71 30 -71 30 *
Wi

0101100
+70 0 *
Ve
0.000000100000001
18.412500000000001 -533.331249999999955 -5.400000000456534
0 0

0101101
*
Ed
 0.000000100000000 1 1 0
1  52 0 0.000000000000000 6.283185307179586
2  38 22 0 0.000000000000000 6.283185307179586
0

0101000
+68 30 -68 30 *
Wi

0101100
+67 0 *
Fa
0  0.000000100000000 20 7

0111000
+72 0 +69 0 +66 0 *
Ed
 0.000000100000000 1 1 0
1  53 0 0.000000000000000 1100.000000000000000
2  39 10 0 0.000000000000000 1100.000000000000000
4 G1 23 0 10 0
0

0101000
+157 9 -127 9 *
Ed
 0.000000100000000 1 1 0
1  54 0 0.000000000000000 1100.000000000000000
2  40 11 0 0.000000000000000 1100.000000000000000
4 G1 23 0 11 0
0

0101000
+156 9 -126 9 *
Wi

0101100
+64 31 -155 48 +125 49 -63 31 *
Ve
0.000000100000004
3.970000000000000 490.000000000000000 20.000000000000000
0 0

0101101
*
Ed
 0.000000100000004 1 1 0
1  55 0 0.000000000000000 6.283185307179586
2  41 18 54 0.000000000000000 6.283185307179586
0

0101000
+61 55 -61 55 *
Wi

0101100
+60 53 *
Ve
0.000000100000004
3.970000000000000 -460.000000000000000 20.000000000000000
0 0

0101101
*
Ed
 0.000000100000004 1 1 0
1  56 0 0.000000000000000 6.283185307179586
2  42 19 54 0.000000000000000 6.283185307179586
0

0101000
+58 55 -58 55 *
Wi

0101100
+57 53 *
Fa
0  0.000000100000000 23 31

0111000
+62 0 +59 0 +56 0 *
Ed
 0.000000100000000 1 1 0
1  57 0 0.000000000000000 1100.000000000000000
2  43 10 0 0.000000000000000 1100.000000000000000
4 G1 10 0 24 0
0

0101000
+154 9 -124 9 *
Wi

0101100
+64 0 -54 0 -153 56 +123 57 *
Fa
0  0.000000100000000 10 0

0111000
+53 0 *
Ed
 0.000000100000000 1 1 0
1  58 0 0.000000000000000 1100.000000000000000
2  44 11 0 0.000000000000000 1100.000000000000000
4 G1 11 0 25 0
0

0101000
+152 9 -122 9 *
Wi

0101100
+63 0 -51 0 -151 56 +121 57 *
Fa
0  0.000000100000000 11 0

0111000
+50 0 *
Ed
 0.000000100000000 1 1 0
1  59 0 0.000000000000000 1100.000000000000000
2  45 12 0 0.000000000000000 1100.000000000000000
4 G1 24 0 12 0
0

0101000
+150 9 -120 9 *
Wi

0101100
+48 7 -149 25 +119 28 -54 7 *
Wi

0101100
-104 0 *
Wi

0101100
-99 0 *
Fa
0  0.000000100000000 24 7

0111000
+47 0 +46 0 +45 0 *
Ed
 0.000000100000000 1 1 0
1  60 0 0.000000000000000 1100.000000000000000
2  46 13 0 0.000000000000000 1100.000000000000000
4 G1 25 0 13 0
0

0101000
+148 9 -118 9 *
Wi

0101100
+51 7 -147 25 +117 28 -43 7 *
Ve
0.000000100000000
20.000000000000004 541.268749999999955 -5.400000000456534
0 0

0101101
*
Ed
 0.000000100000000 1 1 0
1  61 0 0.000000000000000 6.283185307179586
2  47 21 61 0.000000000000000 6.283185307179586
0

0101000
+41 62 -41 62 *
Wi

0101100
+40 60 *
Ve
0.000000100000000
20.000000000000004 -533.331249999999955 -5.400000000456534
0 0

0101101
*
Ed
 0.000000100000000 1 1 0
1  62 0 0.000000000000000 6.283185307179586
2  48 22 61 0.000000000000000 6.283185307179586
0

0101000
+38 62 -38 62 *
Wi

0101100
+37 60 *
Fa
0  0.000000100000000 25 7

0111000
+42 0 +39 0 +36 0 *
Ed
 0.000000100000000 1 1 0
1  63 0 0.000000000000000 1100.000000000000000
2  49 12 0 0.000000000000000 1100.000000000000000
4 G1 12 0 26 0
0

0101000
+146 9 -116 9 *
Wi

0101100
+34 0 -48 0 -145 56 +115 57 *
Fa
0  0.000000100000000 12 0

0111000
+33 0 *
Ed
 0.000000100000000 1 1 0
1  64 0 0.000000000000000 1100.000000000000000
2  50 13 0 0.000000000000000 1100.000000000000000
4 G1 13 0 26 0
0

0101000
+144 9 -114 9 *
Wi

0101100
+43 0 -31 0 -143 56 +113 57 *
Fa
0  0.000000100000000 13 0

0111000
+30 0 *
Wi

0101100
+31 31 -142 48 +112 49 -34 31 *
Ve
0.000000100000000
3.970000000000000 490.000000000000000 -20.000000000000107
0 0

0101101
*
Ed
 0.000000100000000 1 1 0
1  65 0 0.000000000000000 6.283185307179586
2  51 16 0 0.000000000000000 6.283185307179586
0

0101000
+27 50 -27 50 *
Wi

0101100
-26 0 *
Ve
0.000000100000000
3.970000000000000 -460.000000000000000 -19.999999999999901
0 0

0101101
*
Ed
 0.000000100000000 1 1 0
1  66 0 0.000000000000000 6.283185307179586
2  52 17 0 0.000000000000000 6.283185307179586
0

0101000
+24 50 -24 50 *
Wi

0101100
-23 0 *
Fa
0  0.000000100000000 26 31

0111000
+28 0 +25 0 +22 0 *
Ed
 0.000000100000000 1 1 0
1  67 0 38.412500000000009 40.000000000000000
3  53 54CN 16 0 38.412500000000009 40.000000000000000
0

0101000
+94 50 -27 50 *
Wi

0101100
-93 0 -20 0 +26 0 +20 0 *
Fa
0  0.000000100000000 16 0

0111000
+19 0 *
Ed
 0.000000100000000 1 1 0
1  68 0 38.412500000000001 40.000000000000000
3  55 56CN 17 0 38.412500000000001 40.000000000000000
0

0101000
+91 50 -24 50 *
Wi

0101100
-90 0 -17 0 +23 0 +17 0 *
Fa
0  0.000000100000000 17 0

0111000
+16 0 *
Ed
 0.000000100000000 1 1 0
1  69 0 0.000000000000000 1.587499999999999
3  53 54CN 18 0 0.000000000000000 1.587499999999999
0

0101000
+61 50 -85 50 *
Wi

0101100
-60 53 -14 0 +84 0 +14 0 *
Fa
0  0.000000100000000 18 0

0111000
+13 0 *
Ed
 0.000000100000000 1 1 0
1  70 0 0.000000000000000 1.587499999999999
3  55 56CN 19 0 0.000000000000000 1.587499999999999
0

0101000
+58 50 -82 50 *
Wi

0101100
-57 53 -11 0 +81 0 +11 0 *
Fa
0  0.000000100000000 19 0

0111000
+10 0 *
Ed
 0.000000100000000 1 1 0
1  71 0 0.000000000000000 1.587500000000002
3  23 24CN 21 0 0.000000000000000 1.587500000000002
0

0101000
+41 30 -71 30 *
Wi

0101100
-40 60 -8 0 +70 0 +8 0 *
Fa
0  0.000000100000000 21 0

0111000
+7 0 *
Ed
 0.000000100000000 1 1 0
1  72 0 0.000000000000000 1.587500000000002
3  26 27CN 22 0 0.000000000000000 1.587500000000002
0

0101000
+38 30 -68 30 *
Wi

0101100
-37 60 -5 0 +67 0 +5 0 *
Fa
0  0.000000100000000 22 0

0111000
+4 0 *
Sh

0101100
+177 4 -170 31 -140 38 +110 45 +107 31 -102 4 -97 4 +88 0 +79 0 -76 31 
-73 31 +65 4 -55 0 +52 31 -49 31 -44 4 -35 4 -32 31 -29 31 -21 0 
-18 0 -15 0 -12 0 -9 0 -6 4 -3 4 *
So

1100000
+2 0 *

+1 1 