
CASCADE Topology V1, (c) Matra-Datavision
Locations 12
1
1.000000000000000 0.000000000000000 0.000000000000000 0.000000000000000 
0.000000000000000 1.000000000000000 0.000000000000000 0.000000000000000 
0.000000000000000 0.000000000000000 1.000000000000000 0.000000000000000 
1
-1.000000000000000 0.000000000000000 0.000000000000000 0.000000000000000 
0.000000000000000 0.000000000000000 1.000000000000000 0.000000000000000 
-0.000000000000000 1.000000000000000 0.000000000000000 0.000000000000000 
1
1.000000000000000 0.000000000000000 0.000000000000000 0.000000000000000 
0.000000000000000 1.000000000000000 0.000000000000000 0.000000000000000 
0.000000000000000 0.000000000000000 1.000000000000000 0.000000000000000 
2  1 1 2 1 3 -1 0
1
1.000000000000000 0.000000000000000 0.000000000000000 0.000000000000023 
0.000000000000000 1.000000000000000 0.000000000000000 74.137027186150377 
0.000000000000000 0.000000000000000 1.000000000000000 0.000000000000000 
2  1 1 2 1 3 -1 5 1 0
2  3 1 2 -1 1 -1 0
2  5 -1 3 1 2 -1 1 -1 0
2  2 -1 1 -1 0
2  3 -1 0
2  1 1 2 1 0
2  3 -1 5 1 0
Curve2ds 10
1 0.00000000000000000 0.00000000000000000 0.00000000000000000 -1.00000000000000000 
1 6.28318530717958623 0.00000000000000000 0.00000000000000000 -1.00000000000000000 
1 0.00000000000000000 0.00000000000000000 1.00000000000000000 0.00000000000000000 
1 0.00000000000000000 -74.13702718615037668 1.00000000000000000 0.00000000000000000 
2 -0.00000000000000007 -0.00000000000000000 -1.00000000000000000 0.00000000000000016 -0.00000000000000016 -1.00000000000000000 2.00000000000000044
1 0.00000000000000000 0.00000000000000000 0.00000000000000000 -1.00000000000000000 
1 6.28318530717958623 0.00000000000000000 0.00000000000000000 -1.00000000000000000 
1 0.00000000000000000 0.00000000000000000 1.00000000000000000 0.00000000000000000 
1 0.00000000000000000 -74.13702718615037668 1.00000000000000000 0.00000000000000000 
2 0.00000000000000003 0.00000000000000355 -1.00000000000000000 0.00000000000000016 -0.00000000000000016 -1.00000000000000000 2.00000000000000044
Curves 4
1 -2.00000000000000133 -0.00000000000000037 4.50000000000000089 0.00000000000000031 1.00000000000000000 0.00000000000000000 
2 0.00000000000000000 4.50000000000000000 0.00000000000000000 0.00000000000000000 0.00000000000000000 1.00000000000000000 1.00000000000000000 0.00000000000000000 -0.00000000000000000 -0.00000000000000000 1.00000000000000000 0.00000000000000000 2.00000000000000000
1 -2.00000000000000355 -0.00000000000000392 20.50000000000000355 0.00000000000000031 1.00000000000000000 0.00000000000000000 
2 0.00000000000000000 20.50000000000000000 0.00000000000000000 0.00000000000000000 0.00000000000000000 1.00000000000000000 1.00000000000000000 0.00000000000000000 -0.00000000000000000 -0.00000000000000000 1.00000000000000000 0.00000000000000000 2.00000000000000000
Polygon3D 0
PolygonOnTriangulations 0
Surfaces 4
2 -0.00000000000000071 -0.00000000000000100 4.50000000000000089 -0.00000000000000031 -1.00000000000000000 -0.00000000000000022 -1.00000000000000000 0.00000000000000031 -0.00000000000000016 -0.00000000000000016 -0.00000000000000022 1.00000000000000000 2.00000000000000044
1 -0.00000000000000064 -0.00000000000000100 4.50000000000000089 0.00000000000000031 1.00000000000000000 0.00000000000000022 1.00000000000000000 -0.00000000000000031 0.00000000000000000 0.00000000000000000 0.00000000000000022 -1.00000000000000000 
2 -0.00000000000000322 -0.00000000000000455 20.50000000000000355 -0.00000000000000031 -1.00000000000000000 -0.00000000000000022 -1.00000000000000000 0.00000000000000031 -0.00000000000000016 -0.00000000000000016 -0.00000000000000022 1.00000000000000000 2.00000000000000044
1 -0.00000000000000325 -0.00000000000000455 20.50000000000000711 0.00000000000000031 1.00000000000000000 0.00000000000000022 1.00000000000000000 -0.00000000000000031 0.00000000000000000 0.00000000000000000 0.00000000000000022 -1.00000000000000000 
Triangulations 0

TShapes 19
Ve
0.000000100000000
2.000000000000000 4.500000000000000 0.000000000000000
0 0

0101101
*
Ed
 0.000000100000000 1 1 0
1  1 0 0.000000000000000 74.137027186150377
3  1 2CN 1 0 0.000000000000000 74.137027186150377
0

0101000
+19 4 -19 6 *
Ed
 0.000000100000000 1 1 0
1  2 0 0.000000000000000 6.283185307179586
2  3 1 7 0.000000000000000 6.283185307179586
2  4 1 8 0.000000000000000 6.283185307179586
2  5 2 9 0.000000000000000 6.283185307179586
0

0101000
+19 0 -19 0 *
Wi

0101100
+18 0 -18 0 -17 4 +17 6 *
Fa
0  0.000000100000000 1 0

0111000
+16 0 *
Wi

0101100
+17 0 *
Fa
0  0.000000100000000 2 0

0111000
+14 11 *
Sh

0101100
+15 0 +13 10 -13 12 *
So

0100000
-12 0 *
Ve
0.000000100000000
2.000000000000000 20.500000000000000 0.000000000000000
0 0

0101101
*
Ed
 0.000000100000000 1 1 0
1  3 0 0.000000000000000 74.137027186150377
3  6 7CN 3 0 0.000000000000000 74.137027186150377
0

0101000
+10 4 -10 6 *
Ed
 0.000000100000000 1 1 0
1  4 0 0.000000000000000 6.283185307179586
2  8 3 7 0.000000000000000 6.283185307179586
2  9 3 8 0.000000000000000 6.283185307179586
2  10 4 9 0.000000000000000 6.283185307179586
0

0101000
+10 0 -10 0 *
Wi

0101100
+9 0 -9 0 -8 4 +8 6 *
Fa
0  0.000000100000000 3 0

0111000
+7 0 *
Wi

0101100
+8 0 *
Fa
0  0.000000100000000 4 0

0111000
+5 11 *
Sh

0101100
+6 0 +4 10 -4 12 *
So

0100000
-3 0 *
Co

1100000
+11 0 +2 0 *

+1 0 