
CASCADE Topology V1, (c) Matra-Datavision
Locations 15
1
1.000000000000000 0.000000000000000 0.000000000000000 0.000000000000000 
0.000000000000000 1.000000000000000 0.000000000000000 0.000000000000000 
0.000000000000000 0.000000000000000 1.000000000000000 0.000000000000000 
1
1.000000000000000 0.000000000000000 0.000000000000000 0.000000000000000 
0.000000000000000 0.000000000000000 -1.000000000000000 0.000000000000000 
0.000000000000000 1.000000000000000 0.000000000000000 0.000000000000000 
2  2 -1 0
1
1.000000000000000 0.000000000000000 0.000000000000000 0.000000000000000 
0.000000000000000 1.000000000000000 0.000000000000000 0.000000000000000 
0.000000000000000 0.000000000000000 1.000000000000000 0.000000000000000 
1
1.000000000000000 0.000000000000000 0.000000000000000 0.000000000000000 
0.000000000000000 0.000000000000000 -1.000000000000000 0.000000000000000 
0.000000000000000 1.000000000000000 0.000000000000000 0.000000000000000 
1
1.000000000000000 0.000000000000000 0.000000000000000 0.000000000000000 
0.000000000000000 -0.000000000000000 -1.000000000000000 0.000000000000000 
0.000000000000000 1.000000000000000 -0.000000000000000 0.000000000000000 
1
1.000000000000000 0.000000000000000 0.000000000000000 -0.000000000000000 
0.000000000000000 1.000000000000000 0.000000000000000 -0.000000000000020 
0.000000000000000 0.000000000000000 1.000000000000000 -45.500000000000007 
2  4 1 5 1 6 -1 7 1 0
2  2 -1 7 -1 6 1 5 -1 4 -1 0
1
1.000000000000000 0.000000000000000 0.000000000000000 0.000000000000000 
0.000000000000000 1.000000000000000 0.000000000000000 0.000000000000040 
0.000000000000000 0.000000000000000 1.000000000000000 91.000000000000014 
2  4 1 5 1 6 -1 7 1 10 1 0
2  2 -1 10 -1 7 -1 6 1 5 -1 4 -1 0
2  6 -1 7 1 0
2  4 1 5 1 0
2  6 -1 7 1 10 1 0
Curve2ds 0
Curves 12
1 -646.39999999999986358 45.50000000000005684 84.69999999999996021 0.00000000000000000 -1.00000000000000000 0.00000000000000067 
1 646.39999999999986358 45.50000000000005684 84.69999999999996021 0.00000000000000000 -1.00000000000000000 0.00000000000000067 
1 -646.39999999999986358 45.50000000000002132 130.19999999999998863 1.00000000000000000 0.00000000000000000 0.00000000000000000 
1 -646.39999999999986358 -45.49999999999997868 39.19999999999998863 1.00000000000000000 0.00000000000000000 0.00000000000000000 
1 646.39999999999986358 45.49999999999994316 -84.70000000000001705 0.00000000000000000 -1.00000000000000000 0.00000000000000067 
1 646.39999999999986358 45.50000000000002132 130.19999999999998863 0.00000000000000000 -0.00000000000000022 -1.00000000000000000 
1 646.39999999999986358 -45.49999999999997868 39.19999999999998863 0.00000000000000000 -0.00000000000000022 -1.00000000000000000 
1 -646.39999999999986358 45.49999999999994316 -84.70000000000001705 0.00000000000000000 -1.00000000000000000 0.00000000000000067 
1 646.39999999999986358 45.49999999999997868 -39.19999999999998863 -1.00000000000000000 0.00000000000000000 0.00000000000000000 
1 646.39999999999986358 -45.50000000000002132 -130.19999999999998863 -1.00000000000000000 0.00000000000000000 0.00000000000000000 
1 -646.39999999999986358 45.49999999999997868 -39.19999999999998863 0.00000000000000000 0.00000000000000022 1.00000000000000000 
1 -646.39999999999986358 -45.50000000000002132 -130.19999999999998863 0.00000000000000000 0.00000000000000022 1.00000000000000000 
Polygon3D 0
PolygonOnTriangulations 0
Surfaces 6
1 -646.39999999999986358 45.50000000000005684 84.69999999999996021 0.00000000000000000 0.00000000000000067 1.00000000000000000 1.00000000000000000 0.00000000000000000 -0.00000000000000000 -0.00000000000000000 1.00000000000000000 -0.00000000000000067 
1 646.39999999999986358 45.50000000000005684 84.69999999999996021 1.00000000000000000 0.00000000000000000 0.00000000000000000 0.00000000000000000 -0.00000000000000067 -1.00000000000000000 0.00000000000000000 1.00000000000000000 -0.00000000000000067 
1 646.39999999999986358 45.49999999999994316 -84.70000000000001705 0.00000000000000000 -0.00000000000000067 -1.00000000000000000 -1.00000000000000000 -0.00000000000000000 0.00000000000000000 -0.00000000000000000 1.00000000000000000 -0.00000000000000067 
1 -646.39999999999986358 45.49999999999994316 -84.70000000000001705 -1.00000000000000000 0.00000000000000000 0.00000000000000000 0.00000000000000000 0.00000000000000067 1.00000000000000000 0.00000000000000000 1.00000000000000000 -0.00000000000000067 
1 0.00000000000000995 -45.49999999999998579 45.50000000000000711 0.00000000000000000 0.00000000000000044 1.00000000000000000 0.00000000000000000 -1.00000000000000000 0.00000000000000044 1.00000000000000000 0.00000000000000000 -0.00000000000000000 
1 0.00000000000000995 45.49999999999998579 -45.50000000000000711 0.00000000000000000 0.00000000000000044 1.00000000000000000 0.00000000000000000 -1.00000000000000000 0.00000000000000044 1.00000000000000000 0.00000000000000000 -0.00000000000000000 
Triangulations 0

TShapes 34
Ve
0.000000100000000
-646.399999999999750 -84.699999999999932 45.500000000000071
0 0

0101101
*
Ve
0.000000100000000
-646.399999999999750 -84.700000000000017 -45.499999999999915
0 0

0101101
*
Ed
 0.000000100000000 1 1 0
1  1 0 0.000000000000000 91.000000000000000
0

0101000
+34 3 -33 3 *
Ve
0.000000100000000
646.399999999999750 -84.699999999999932 45.500000000000071
0 0

0101101
*
Ve
0.000000100000000
646.399999999999750 -84.700000000000017 -45.499999999999915
0 0

0101101
*
Ed
 0.000000100000000 1 1 0
1  2 0 0.000000000000000 91.000000000000000
0

0101000
+31 3 -30 3 *
Ed
 0.000000100000000 1 1 0
1  3 0 0.000000000000000 1292.799999999999727
0

0101000
+34 9 -31 9 *
Ed
 0.000000100000000 1 1 0
1  4 0 0.000000000000000 1292.799999999999727
0

0101000
+33 12 -30 12 *
Wi

0101100
+32 0 -29 0 -28 8 +27 11 *
Fa
0  0.000000100000000 1 0

0111000
+26 0 *
Ve
0.000000100000000
646.399999999999750 84.700000000000017 45.499999999999915
0 0

0101101
*
Ve
0.000000100000000
646.399999999999750 84.699999999999932 -45.500000000000071
0 0

0101101
*
Ed
 0.000000100000000 1 1 0
1  5 0 0.000000000000000 91.000000000000000
0

0101000
+24 3 -23 3 *
Ed
 0.000000100000000 1 1 0
1  6 0 0.000000000000000 169.399999999999977
0

0101000
+31 9 -24 9 *
Ed
 0.000000100000000 1 1 0
1  7 0 0.000000000000000 169.399999999999977
0

0101000
+30 12 -23 12 *
Wi

0101100
+29 0 -22 0 -21 8 +20 11 *
Fa
0  0.000000100000000 2 0

0111000
+19 0 *
Ve
0.000000100000000
-646.399999999999750 84.700000000000017 45.499999999999915
0 0

0101101
*
Ve
0.000000100000000
-646.399999999999750 84.699999999999932 -45.500000000000071
0 0

0101101
*
Ed
 0.000000100000000 1 1 0
1  8 0 0.000000000000000 91.000000000000000
0

0101000
+17 3 -16 3 *
Ed
 0.000000100000000 1 1 0
1  9 0 0.000000000000000 1292.799999999999727
0

0101000
+24 9 -17 9 *
Ed
 0.000000100000000 1 1 0
1  10 0 0.000000000000000 1292.799999999999727
0

0101000
+23 12 -16 12 *
Wi

0101100
+22 0 -15 0 -14 8 +13 11 *
Fa
0  0.000000100000000 3 0

0111000
+12 0 *
Ed
 0.000000100000000 1 1 0
1  11 0 0.000000000000000 169.399999999999977
0

0101000
+17 9 -34 9 *
Ed
 0.000000100000000 1 1 0
1  12 0 0.000000000000000 169.399999999999977
0

0101000
+16 12 -33 12 *
Wi

0101100
+15 0 -32 0 -10 8 +9 11 *
Fa
0  0.000000100000000 4 0

0111000
+8 0 *
Wi

0101100
+28 0 +21 0 +14 0 +10 0 *
Fa
0  0.000000100000000 5 0

0111000
+6 14 *
Wi

0101100
+27 0 +20 0 +13 0 +9 0 *
Fa
0  0.000000100000000 6 0

0111000
+4 14 *
Sh

0101100
+25 0 +18 0 +11 0 +7 0 +5 13 -3 15 *
So

1100000
+2 0 *

+1 1 