<?xml version="1.0" encoding="UTF-8" standalone="no"?>
<!DOCTYPE svg PUBLIC "-//W3C//DTD SVG 1.1//EN"
 "http://www.w3.org/Graphics/SVG/1.1/DTD/svg11.dtd">
<!-- Generated by graphviz version 2.43.0 (0)
 -->
<!-- Title: Nema 17 Pages: 1 -->
<svg width="1854pt" height="692pt"
 viewBox="0.00 0.00 1854.00 692.00" xmlns="http://www.w3.org/2000/svg" xmlns:xlink="http://www.w3.org/1999/xlink">
<g id="graph0" class="graph" transform="scale(1 1) rotate(0) translate(4 688)">
<title>Nema 17</title>
<polygon fill="white" stroke="transparent" points="-4,4 -4,-688 1850,-688 1850,4 -4,4"/>
<g id="clust1" class="cluster">
<title>cluster_ClusterBodyBase</title>
<polygon fill="none" stroke="black" points="8,-385 8,-676 622,-676 622,-385 8,-385"/>
<text text-anchor="middle" x="315" y="-392.8" font-family="Times,serif" font-size="14.00">BodyBase</text>
</g>
<g id="clust2" class="cluster">
<title>cluster_ClusterBodyMeio</title>
<polygon fill="none" stroke="black" points="630,-302 630,-532 874,-532 874,-302 630,-302"/>
<text text-anchor="middle" x="752" y="-309.8" font-family="Times,serif" font-size="14.00">BodyMeio</text>
</g>
<g id="clust3" class="cluster">
<title>cluster_ClusterBodyTopo</title>
<polygon fill="none" stroke="black" points="882,-83 882,-377 1602,-377 1602,-83 882,-83"/>
<text text-anchor="middle" x="1242" y="-90.8" font-family="Times,serif" font-size="14.00">BodyTopo</text>
</g>
<g id="clust4" class="cluster">
<title>cluster_ClusterBodyFuso</title>
<polygon fill="none" stroke="black" points="1610,-8 1610,-158 1838,-158 1838,-8 1610,-8"/>
<text text-anchor="middle" x="1724" y="-15.8" font-family="Times,serif" font-size="14.00">BodyFuso</text>
</g>
<!-- BodyBaseSketch -->
<g id="node1" class="node">
<title>BodyBaseSketch</title>
<ellipse fill="none" stroke="black" cx="397" cy="-650" rx="88.28" ry="18"/>
<text text-anchor="middle" x="397" y="-646.3" font-family="Times,serif" font-size="14.00">BodyBaseSketch</text>
</g>
<!-- BodyBasePad -->
<g id="node2" class="node">
<title>BodyBasePad</title>
<ellipse fill="none" stroke="black" cx="397" cy="-578" rx="73.39" ry="18"/>
<text text-anchor="middle" x="397" y="-574.3" font-family="Times,serif" font-size="14.00">BodyBasePad</text>
</g>
<!-- BodyBasePad&#45;&gt;BodyBaseSketch -->
<g id="edge1" class="edge">
<title>BodyBasePad&#45;&gt;BodyBaseSketch</title>
<path fill="none" stroke="black" d="M397,-596.3C397,-604.02 397,-613.29 397,-621.89"/>
<polygon fill="black" stroke="black" points="393.5,-621.9 397,-631.9 400.5,-621.9 393.5,-621.9"/>
</g>
<!-- BodyBaseSketch001 -->
<g id="node3" class="node">
<title>BodyBaseSketch001</title>
<ellipse fill="none" stroke="black" cx="508" cy="-506" rx="105.88" ry="18"/>
<text text-anchor="middle" x="508" y="-502.3" font-family="Times,serif" font-size="14.00">BodyBaseSketch001</text>
</g>
<!-- BodyBaseSketch001&#45;&gt;BodyBasePad -->
<g id="edge2" class="edge">
<title>BodyBaseSketch001&#45;&gt;BodyBasePad</title>
<path fill="none" stroke="black" d="M481.69,-523.59C466.55,-533.14 447.35,-545.25 431.06,-555.52"/>
<polygon fill="black" stroke="black" points="428.94,-552.72 422.35,-561.01 432.68,-558.64 428.94,-552.72"/>
</g>
<!-- BodyBasePad001 -->
<g id="node4" class="node">
<title>BodyBasePad001</title>
<ellipse fill="none" stroke="black" cx="508" cy="-434" rx="90.98" ry="18"/>
<text text-anchor="middle" x="508" y="-430.3" font-family="Times,serif" font-size="14.00">BodyBasePad001</text>
</g>
<!-- BodyBasePad001&#45;&gt;BodyBaseSketch001 -->
<g id="edge3" class="edge">
<title>BodyBasePad001&#45;&gt;BodyBaseSketch001</title>
<path fill="none" stroke="black" d="M508,-452.3C508,-460.02 508,-469.29 508,-477.89"/>
<polygon fill="black" stroke="black" points="504.5,-477.9 508,-487.9 511.5,-477.9 504.5,-477.9"/>
</g>
<!-- BodyBaseChamfer -->
<g id="node5" class="node">
<title>BodyBaseChamfer</title>
<ellipse fill="none" stroke="black" cx="287" cy="-506" rx="96.68" ry="18"/>
<text text-anchor="middle" x="287" y="-502.3" font-family="Times,serif" font-size="14.00">BodyBaseChamfer</text>
</g>
<!-- BodyBaseChamfer&#45;&gt;BodyBasePad -->
<g id="edge4" class="edge">
<title>BodyBaseChamfer&#45;&gt;BodyBasePad</title>
<path fill="none" stroke="black" d="M312.79,-523.41C327.79,-532.96 346.88,-545.1 363.09,-555.42"/>
<polygon fill="black" stroke="black" points="361.44,-558.52 371.75,-560.93 365.19,-552.61 361.44,-558.52"/>
</g>
<!-- BodyBaseHole -->
<g id="node6" class="node">
<title>BodyBaseHole</title>
<ellipse fill="none" stroke="black" cx="94" cy="-506" rx="77.99" ry="18"/>
<text text-anchor="middle" x="94" y="-502.3" font-family="Times,serif" font-size="14.00">BodyBaseHole</text>
</g>
<!-- BodyBaseHole&#45;&gt;BodyBasePad -->
<g id="edge5" class="edge">
<title>BodyBaseHole&#45;&gt;BodyBasePad</title>
<path fill="none" stroke="black" d="M139.43,-520.75C152.77,-524.59 167.42,-528.64 181,-532 230.74,-544.31 287.48,-556.04 330.32,-564.44"/>
<polygon fill="black" stroke="black" points="329.86,-567.92 340.35,-566.39 331.2,-561.05 329.86,-567.92"/>
</g>
<!-- BodyMeioBinder -->
<g id="node7" class="node">
<title>BodyMeioBinder</title>
<ellipse fill="none" stroke="black" cx="739" cy="-506" rx="88.28" ry="18"/>
<text text-anchor="middle" x="739" y="-502.3" font-family="Times,serif" font-size="14.00">BodyMeioBinder</text>
</g>
<!-- BodyMeioBinder&#45;&gt;BodyBasePad -->
<g id="edge6" class="edge">
<title>BodyMeioBinder&#45;&gt;BodyBasePad</title>
<path fill="none" stroke="black" d="M682.15,-519.85C664.21,-523.84 644.29,-528.18 626,-532 571.24,-543.44 508.95,-555.62 463.16,-564.43"/>
<polygon fill="black" stroke="black" points="462.23,-561.04 453.07,-566.37 463.55,-567.92 462.23,-561.04"/>
</g>
<!-- BodyMeioPad002 -->
<g id="node8" class="node">
<title>BodyMeioPad002</title>
<ellipse fill="none" stroke="black" cx="752" cy="-434" rx="91.78" ry="18"/>
<text text-anchor="middle" x="752" y="-430.3" font-family="Times,serif" font-size="14.00">BodyMeioPad002</text>
</g>
<!-- BodyMeioPad002&#45;&gt;BodyMeioBinder -->
<g id="edge7" class="edge">
<title>BodyMeioPad002&#45;&gt;BodyMeioBinder</title>
<path fill="none" stroke="black" d="M748.79,-452.3C747.35,-460.02 745.63,-469.29 744.04,-477.89"/>
<polygon fill="black" stroke="black" points="740.56,-477.42 742.18,-487.9 747.44,-478.7 740.56,-477.42"/>
</g>
<!-- BodyMeioChamfer001 -->
<g id="node9" class="node">
<title>BodyMeioChamfer001</title>
<ellipse fill="none" stroke="black" cx="752" cy="-351" rx="114.28" ry="18"/>
<text text-anchor="middle" x="752" y="-347.3" font-family="Times,serif" font-size="14.00">BodyMeioChamfer001</text>
</g>
<!-- BodyMeioChamfer001&#45;&gt;BodyMeioPad002 -->
<g id="edge8" class="edge">
<title>BodyMeioChamfer001&#45;&gt;BodyMeioPad002</title>
<path fill="none" stroke="black" d="M752,-369.18C752,-379.81 752,-393.69 752,-405.8"/>
<polygon fill="black" stroke="black" points="748.5,-405.85 752,-415.85 755.5,-405.85 748.5,-405.85"/>
</g>
<!-- BodyTopoBinder001 -->
<g id="node10" class="node">
<title>BodyTopoBinder001</title>
<ellipse fill="none" stroke="black" cx="1115" cy="-351" rx="105.08" ry="18"/>
<text text-anchor="middle" x="1115" y="-347.3" font-family="Times,serif" font-size="14.00">BodyTopoBinder001</text>
</g>
<!-- BodyTopoBinder001&#45;&gt;BodyMeioPad002 -->
<g id="edge9" class="edge">
<title>BodyTopoBinder001&#45;&gt;BodyMeioPad002</title>
<path fill="none" stroke="black" d="M1053.42,-365.74C988.78,-380.17 887.39,-402.79 820.32,-417.76"/>
<polygon fill="black" stroke="black" points="819.27,-414.4 810.27,-420 820.79,-421.24 819.27,-414.4"/>
</g>
<!-- BodyTopoPad003 -->
<g id="node11" class="node">
<title>BodyTopoPad003</title>
<ellipse fill="none" stroke="black" cx="1115" cy="-276" rx="90.98" ry="18"/>
<text text-anchor="middle" x="1115" y="-272.3" font-family="Times,serif" font-size="14.00">BodyTopoPad003</text>
</g>
<!-- BodyTopoPad003&#45;&gt;BodyTopoBinder001 -->
<g id="edge10" class="edge">
<title>BodyTopoPad003&#45;&gt;BodyTopoBinder001</title>
<path fill="none" stroke="black" d="M1115,-294.3C1115,-302.75 1115,-313.13 1115,-322.63"/>
<polygon fill="black" stroke="black" points="1111.5,-322.82 1115,-332.82 1118.5,-322.82 1111.5,-322.82"/>
</g>
<!-- BodyTopoDatumPlane -->
<g id="node12" class="node">
<title>BodyTopoDatumPlane</title>
<ellipse fill="none" stroke="black" cx="1480" cy="-204" rx="113.98" ry="18"/>
<text text-anchor="middle" x="1480" y="-200.3" font-family="Times,serif" font-size="14.00">BodyTopoDatumPlane</text>
</g>
<!-- BodyTopoDatumPlane&#45;&gt;BodyTopoPad003 -->
<g id="edge11" class="edge">
<title>BodyTopoDatumPlane&#45;&gt;BodyTopoPad003</title>
<path fill="none" stroke="black" d="M1410.49,-218.33C1346.78,-230.55 1252.78,-248.58 1187.99,-261"/>
<polygon fill="black" stroke="black" points="1187.02,-257.62 1177.86,-262.95 1188.34,-264.5 1187.02,-257.62"/>
</g>
<!-- BodyTopoChamfer002 -->
<g id="node13" class="node">
<title>BodyTopoChamfer002</title>
<ellipse fill="none" stroke="black" cx="1234" cy="-204" rx="114.28" ry="18"/>
<text text-anchor="middle" x="1234" y="-200.3" font-family="Times,serif" font-size="14.00">BodyTopoChamfer002</text>
</g>
<!-- BodyTopoChamfer002&#45;&gt;BodyTopoPad003 -->
<g id="edge12" class="edge">
<title>BodyTopoChamfer002&#45;&gt;BodyTopoPad003</title>
<path fill="none" stroke="black" d="M1205.8,-221.59C1189.53,-231.16 1168.89,-243.3 1151.41,-253.58"/>
<polygon fill="black" stroke="black" points="1149.43,-250.68 1142.59,-258.77 1152.98,-256.72 1149.43,-250.68"/>
</g>
<!-- BodyTopoSketch002 -->
<g id="node14" class="node">
<title>BodyTopoSketch002</title>
<ellipse fill="none" stroke="black" cx="996" cy="-204" rx="105.88" ry="18"/>
<text text-anchor="middle" x="996" y="-200.3" font-family="Times,serif" font-size="14.00">BodyTopoSketch002</text>
</g>
<!-- BodyTopoSketch002&#45;&gt;BodyTopoPad003 -->
<g id="edge13" class="edge">
<title>BodyTopoSketch002&#45;&gt;BodyTopoPad003</title>
<path fill="none" stroke="black" d="M1023.9,-221.41C1040.16,-230.98 1060.86,-243.15 1078.42,-253.48"/>
<polygon fill="black" stroke="black" points="1076.88,-256.64 1087.27,-258.69 1080.43,-250.6 1076.88,-256.64"/>
</g>
<!-- BodyTopoPad004 -->
<g id="node15" class="node">
<title>BodyTopoPad004</title>
<ellipse fill="none" stroke="black" cx="996" cy="-132" rx="90.98" ry="18"/>
<text text-anchor="middle" x="996" y="-128.3" font-family="Times,serif" font-size="14.00">BodyTopoPad004</text>
</g>
<!-- BodyTopoPad004&#45;&gt;BodyTopoSketch002 -->
<g id="edge14" class="edge">
<title>BodyTopoPad004&#45;&gt;BodyTopoSketch002</title>
<path fill="none" stroke="black" d="M996,-150.3C996,-158.02 996,-167.29 996,-175.89"/>
<polygon fill="black" stroke="black" points="992.5,-175.9 996,-185.9 999.5,-175.9 992.5,-175.9"/>
</g>
<!-- BodyFusoSketch003 -->
<g id="node16" class="node">
<title>BodyFusoSketch003</title>
<ellipse fill="none" stroke="black" cx="1724" cy="-132" rx="105.88" ry="18"/>
<text text-anchor="middle" x="1724" y="-128.3" font-family="Times,serif" font-size="14.00">BodyFusoSketch003</text>
</g>
<!-- BodyFusoSketch003&#45;&gt;BodyTopoDatumPlane -->
<g id="edge15" class="edge">
<title>BodyFusoSketch003&#45;&gt;BodyTopoDatumPlane</title>
<path fill="none" stroke="black" d="M1672.55,-147.76C1634.58,-158.65 1582.71,-173.54 1542.37,-185.11"/>
<polygon fill="black" stroke="black" points="1541.29,-181.78 1532.64,-187.9 1543.22,-188.5 1541.29,-181.78"/>
</g>
<!-- BodyFusoPad005 -->
<g id="node17" class="node">
<title>BodyFusoPad005</title>
<ellipse fill="none" stroke="black" cx="1724" cy="-57" rx="90.98" ry="18"/>
<text text-anchor="middle" x="1724" y="-53.3" font-family="Times,serif" font-size="14.00">BodyFusoPad005</text>
</g>
<!-- BodyFusoPad005&#45;&gt;BodyFusoSketch003 -->
<g id="edge16" class="edge">
<title>BodyFusoPad005&#45;&gt;BodyFusoSketch003</title>
<path fill="none" stroke="black" d="M1724,-75.3C1724,-83.75 1724,-94.13 1724,-103.63"/>
<polygon fill="black" stroke="black" points="1720.5,-103.82 1724,-113.82 1727.5,-103.82 1720.5,-103.82"/>
</g>
</g>
</svg>
