
CASCADE Topology V1, (c) Matra-Datavision
Locations 23
1
1.000000000000000 0.000000000000000 0.000000000000000 0.000000000000000 
0.000000000000000 1.000000000000000 0.000000000000000 0.000000000000000 
0.000000000000000 0.000000000000000 1.000000000000000 0.000000000000000 
1
1.000000000000000 0.000000000000000 0.000000000000000 0.000000000000000 
0.000000000000000 1.000000000000000 0.000000000000000 0.000000000000000 
0.000000000000000 0.000000000000000 1.000000000000000 0.000000000000000 
2  2 -1 0
1
1.000000000000000 0.000000000000000 0.000000000000000 0.000000000000000 
0.000000000000000 1.000000000000000 0.000000000000000 0.000000000000000 
0.000000000000000 0.000000000000000 1.000000000000000 0.000000000000000 
1
1.000000000000000 0.000000000000000 0.000000000000000 0.000000000000000 
0.000000000000000 -0.000000000000000 -1.000000000000000 0.000000000000000 
0.000000000000000 1.000000000000000 -0.000000000000000 0.000000000000000 
1
1.000000000000000 0.000000000000000 0.000000000000000 0.000000000000000 
0.000000000000000 1.000000000000000 0.000000000000000 0.000000000000000 
0.000000000000000 0.000000000000000 1.000000000000000 0.000000000000000 
1
1.000000000000000 0.000000000000000 0.000000000000000 0.000000000000000 
0.000000000000000 1.000000000000000 0.000000000000000 0.000000000000000 
0.000000000000000 0.000000000000000 1.000000000000000 0.000000000000000 
1
1.000000000000000 0.000000000000000 0.000000000000000 0.000000000000000 
0.000000000000000 1.000000000000000 0.000000000000000 0.000000000000000 
0.000000000000000 0.000000000000000 1.000000000000000 0.000000000000000 
1
1.000000000000000 0.000000000000000 0.000000000000000 0.000000000000000 
0.000000000000000 1.000000000000000 0.000000000000000 0.000000000000000 
0.000000000000000 0.000000000000000 1.000000000000000 0.000000000000000 
1
1.000000000000000 0.000000000000000 0.000000000000000 0.000000000000000 
0.000000000000000 1.000000000000000 0.000000000000000 0.000000000000000 
0.000000000000000 0.000000000000000 1.000000000000000 0.000000000000000 
1
1.000000000000000 0.000000000000000 0.000000000000000 0.000000000000000 
0.000000000000000 1.000000000000000 0.000000000000000 0.000000000000000 
0.000000000000000 0.000000000000000 1.000000000000000 0.000000000000000 
1
1.000000000000000 0.000000000000000 0.000000000000000 0.000000000000000 
0.000000000000000 1.000000000000000 0.000000000000000 0.000000000000000 
0.000000000000000 0.000000000000000 1.000000000000000 0.000000000000000 
1
1.000000000000000 0.000000000000000 0.000000000000000 -0.000000000000000 
0.000000000000000 1.000000000000000 0.000000000000000 -475.000000000000000 
0.000000000000000 0.000000000000000 1.000000000000000 -0.000000000000104 
2  4 1 5 1 6 1 7 1 8 1 9 1 10 1 11 1 12 -1 13 1 0
2  13 -1 12 1 11 -1 10 -1 9 -1 8 -1 7 -1 6 -1 5 -1 4 -1 0
2  2 -1 13 -1 12 1 11 -1 10 -1 9 -1 8 -1 7 -1 6 -1 5 -1 4 -1 0
1
1.000000000000000 0.000000000000000 0.000000000000000 0.000000000000000 
0.000000000000000 1.000000000000000 0.000000000000000 950.000000000000000 
0.000000000000000 0.000000000000000 1.000000000000000 0.000000000000209 
2  4 1 5 1 6 1 7 1 8 1 9 1 10 1 11 1 12 -1 13 1 17 1 0
2  17 -1 13 -1 12 1 11 -1 10 -1 9 -1 8 -1 7 -1 6 -1 5 -1 4 -1 0
2  2 -1 17 -1 13 -1 12 1 11 -1 10 -1 9 -1 8 -1 7 -1 6 -1 5 -1 4 -1 0
2  7 1 8 1 9 1 10 1 11 1 12 -1 13 1 0
2  4 1 5 1 6 1 0
2  7 1 8 1 9 1 10 1 11 1 12 -1 13 1 17 1 0
Curve2ds 4
1 0.00000000000000000 0.00000000000000000 0.00000000000000000 -1.00000000000000000 
1 6.28318530717958623 0.00000000000000000 0.00000000000000000 -1.00000000000000000 
1 0.00000000000000000 0.00000000000000000 1.00000000000000000 0.00000000000000000 
1 0.00000000000000000 -950.00000000000000000 1.00000000000000000 0.00000000000000000 
Curves 3
1 3.96875000000000000 -475.00000000000000000 -0.00000000000010450 0.00000000000000000 1.00000000000000000 0.00000000000000022 
2 0.00000000000000000 0.00000000000000000 0.00000000000000000 0.00000000000000000 0.00000000000000000 1.00000000000000000 1.00000000000000000 0.00000000000000000 -0.00000000000000000 -0.00000000000000000 1.00000000000000000 0.00000000000000000 3.96875000000000000
2 0.00000000000000000 0.00000000000000000 0.00000000000000000 0.00000000000000000 0.00000000000000000 1.00000000000000000 1.00000000000000000 0.00000000000000000 -0.00000000000000000 -0.00000000000000000 1.00000000000000000 0.00000000000000000 3.96875000000000000
Polygon3D 0
PolygonOnTriangulations 0
Surfaces 3
2 0.00000000000000000 -475.00000000000000000 -0.00000000000010450 0.00000000000000000 -1.00000000000000000 0.00000000000000000 1.00000000000000000 0.00000000000000000 0.00000000000000000 -0.00000000000000000 0.00000000000000000 1.00000000000000000 3.96875000000000000
1 -0.00000000000000009 0.00000000000000000 0.00000000000000018 0.00000000000000000 1.00000000000000000 0.00000000000000022 0.00000000000000000 -0.00000000000000022 1.00000000000000000 1.00000000000000000 0.00000000000000000 -0.00000000000000000 
1 -0.00000000000000009 0.00000000000000000 0.00000000000000018 0.00000000000000000 1.00000000000000000 0.00000000000000022 0.00000000000000000 -0.00000000000000022 1.00000000000000000 1.00000000000000000 0.00000000000000000 -0.00000000000000000 
Triangulations 0

TShapes 13
Ve
0.000000100000000
3.968750000000000 -475.000000000000000 -0.000000000000104
0 0

0101101
*
Ve
0.000000100000000
3.968750000000000 475.000000000000000 0.000000000000104
0 0

0101101
*
Ed
 0.000000100000000 1 1 0
1  1 0 0.000000000000000 950.000000000000000
3  1 2CN 1 0 0.000000000000000 950.000000000000000
0

0101000
+13 3 -12 3 *
Ed
 0.000000100000000 1 1 0
1  2 0 0.000000000000000 6.283185307179586
2  3 1 15 0.000000000000000 6.283185307179586
0

0101000
+13 16 -13 16 *
Ed
 0.000000100000000 1 1 0
1  3 0 0.000000000000000 6.283185307179586
2  4 1 19 0.000000000000000 6.283185307179586
0

0101000
+12 20 -12 20 *
Wi

0101100
+11 0 -11 0 -10 14 +9 18 *
Fa
0  0.000000100000000 1 0

0111000
+8 0 *
Wi

0101100
+10 22 *
Fa
0  0.000000100000000 2 0

0111000
-6 0 *
Wi

0101100
+9 22 *
Fa
0  0.000000100000000 3 0

0111000
-4 0 *
Sh

0101100
-7 0 +5 21 -3 23 *
So

1100000
-2 0 *

+1 1 