
CASCADE Topology V1, (c) Matra-Datavision
Locations 35
1
1.000000000000000 0.000000000000000 0.000000000000000 0.000000000000000 
0.000000000000000 1.000000000000000 0.000000000000000 0.000000000000000 
0.000000000000000 0.000000000000000 1.000000000000000 0.000000000000000 
1
1.000000000000000 0.000000000000000 0.000000000000000 0.000000000000000 
0.000000000000000 1.000000000000000 0.000000000000000 0.000000000000000 
0.000000000000000 0.000000000000000 1.000000000000000 0.000000000000000 
1
1.000000000000000 0.000000000000000 0.000000000000000 0.000000000000000 
0.000000000000000 1.000000000000000 0.000000000000000 0.000000000000000 
0.000000000000000 0.000000000000000 1.000000000000000 0.000000000000000 
1
1.000000000000000 0.000000000000000 0.000000000000000 0.000000000000000 
0.000000000000000 1.000000000000000 0.000000000000000 0.000000000000000 
0.000000000000000 0.000000000000000 1.000000000000000 0.000000000000000 
2  3 1 4 -1 0
2  2 -1 0
2  3 1 4 -1 2 1 0
1
1.000000000000000 0.000000000000000 0.000000000000000 0.000000000000000 
0.000000000000000 1.000000000000000 0.000000000000000 0.000000000000000 
0.000000000000000 0.000000000000000 1.000000000000000 0.000000000000000 
2  8 -1 2 -1 4 1 3 -1 0
2  8 -1 0
1
1.000000000000000 0.000000000000000 0.000000000000000 0.000000000000000 
0.000000000000000 1.000000000000000 0.000000000000000 0.000000000000000 
0.000000000000000 0.000000000000000 1.000000000000000 0.000000000000000 
1
1.000000000000000 0.000000000000000 0.000000000000000 0.000000000000000 
0.000000000000000 0.000000000000000 -1.000000000000000 0.000000000000000 
0.000000000000000 1.000000000000000 0.000000000000000 0.000000000000000 
1
1.000000000000000 0.000000000000000 0.000000000000000 0.000000000000000 
0.000000000000000 -0.000000000000000 -1.000000000000000 0.000000000000000 
0.000000000000000 1.000000000000000 -0.000000000000000 0.000000000000000 
1
1.000000000000000 0.000000000000000 0.000000000000000 0.000000000000000 
0.000000000000000 1.000000000000000 0.000000000000000 0.000000000000000 
0.000000000000000 0.000000000000000 1.000000000000000 0.000000000000000 
1
1.000000000000000 0.000000000000000 0.000000000000000 0.000000000000000 
0.000000000000000 0.000000000000000 -1.000000000000000 0.000000000000000 
0.000000000000000 1.000000000000000 0.000000000000000 0.000000000000000 
1
1.000000000000000 0.000000000000000 0.000000000000000 0.000000000000000 
0.000000000000000 1.000000000000000 0.000000000000000 0.000000000000000 
0.000000000000000 0.000000000000000 1.000000000000000 0.000000000000000 
1
1.000000000000000 0.000000000000000 0.000000000000000 0.000000000000000 
0.000000000000000 1.000000000000000 0.000000000000000 0.000000000000000 
0.000000000000000 0.000000000000000 1.000000000000000 0.000000000000000 
1
1.000000000000000 0.000000000000000 0.000000000000000 0.000000000000000 
0.000000000000000 1.000000000000000 0.000000000000000 0.000000000000000 
0.000000000000000 0.000000000000000 1.000000000000000 0.000000000000000 
1
1.000000000000000 0.000000000000000 0.000000000000000 0.000000000000000 
0.000000000000000 1.000000000000000 0.000000000000000 0.000000000000000 
0.000000000000000 0.000000000000000 1.000000000000000 0.000000000000000 
1
1.000000000000000 0.000000000000000 0.000000000000000 0.000000000000000 
0.000000000000000 1.000000000000000 0.000000000000000 0.000000000000000 
0.000000000000000 0.000000000000000 1.000000000000000 0.000000000000000 
1
1.000000000000000 0.000000000000000 0.000000000000000 0.000000000000000 
0.000000000000000 1.000000000000000 0.000000000000000 0.000000000000000 
0.000000000000000 0.000000000000000 1.000000000000000 0.000000000000000 
1
1.000000000000000 0.000000000000000 0.000000000000000 0.000000000000000 
0.000000000000000 1.000000000000000 0.000000000000000 0.000000000000000 
0.000000000000000 0.000000000000000 1.000000000000000 0.000000000000000 
1
1.000000000000000 0.000000000000000 0.000000000000000 -0.000000000000000 
0.000000000000000 1.000000000000000 0.000000000000000 -55.000000000000000 
0.000000000000000 0.000000000000000 1.000000000000000 0.000000000000012 
2  11 1 12 1 13 -1 14 1 15 1 16 1 17 1 18 1 19 1 20 1 21 1 22 -1 23 1 3 1 4 -1 2 1 0
2  23 -1 22 1 21 -1 20 -1 19 -1 18 -1 17 -1 16 -1 15 -1 14 -1 13 1 12 -1 11 -1 0
2  4 1 3 -1 23 -1 22 1 21 -1 20 -1 19 -1 18 -1 17 -1 16 -1 15 -1 14 -1 13 1 12 -1 11 -1 0
2  8 -1 2 -1 4 1 3 -1 23 -1 22 1 21 -1 20 -1 19 -1 18 -1 17 -1 16 -1 15 -1 14 -1 13 1 12 -1 11 -1 0
2  8 -1 2 -1 0
1
1.000000000000000 0.000000000000000 0.000000000000000 0.000000000000000 
0.000000000000000 1.000000000000000 0.000000000000000 110.000000000000000 
0.000000000000000 0.000000000000000 1.000000000000000 -0.000000000000024 
2  13 -1 14 1 15 1 16 1 17 1 18 1 19 1 20 1 21 1 22 -1 23 1 29 1 3 1 4 -1 2 1 0
2  2 -1 4 1 3 -1 29 -1 23 -1 22 1 21 -1 20 -1 19 -1 18 -1 17 -1 16 -1 15 -1 14 -1 13 1 0
1
1.000000000000000 0.000000000000000 0.000000000000000 0.000000000000000 
0.000000000000000 1.000000000000000 0.000000000000000 0.000000000000000 
0.000000000000000 0.000000000000000 1.000000000000000 0.000000000000000 
1
1.000000000000000 0.000000000000000 0.000000000000000 0.000000000000000 
0.000000000000000 1.000000000000000 0.000000000000000 -25.000000000000000 
0.000000000000000 0.000000000000000 1.000000000000000 0.000000000000006 
2  13 -1 14 1 15 1 16 1 17 1 18 1 19 1 20 1 21 1 22 -1 23 1 3 1 32 1 4 -1 33 1 2 1 0
2  2 -1 33 -1 4 1 32 -1 3 -1 23 -1 22 1 21 -1 20 -1 19 -1 18 -1 17 -1 16 -1 15 -1 14 -1 13 1 0
Curve2ds 16
1 0.00000000000000000 0.00000000000000000 0.00000000000000000 -1.00000000000000000 
1 6.28318530717958623 0.00000000000000000 0.00000000000000000 -1.00000000000000000 
1 0.00000000000000000 -109.00000000000000000 1.00000000000000000 0.00000000000000000 
1 0.00000000000000000 0.00000000000000000 1.00000000000000000 0.00000000000000000 
1 0.00000000000000000 0.00000000000000000 1.00000000000000000 0.00000000000000000 
1 0.00000000000000000 0.00000000000000000 1.00000000000000000 0.00000000000000000 
1 6.28318530717958623 0.00000000000000000 0.00000000000000000 1.00000000000000000 
1 0.00000000000000000 0.00000000000000000 0.00000000000000000 1.00000000000000000 
1 0.00000000000000000 1.41421356237309515 1.00000000000000000 0.00000000000000000 
1 0.00000000000000000 0.00000000000000000 0.00000000000000000 -1.00000000000000000 
1 6.28318530717958623 0.00000000000000000 0.00000000000000000 -1.00000000000000000 
1 0.00000000000000133 -24.00000000000000000 1.00000000000000000 0.00000000000000000 
1 0.00000000000000000 0.00000000000000000 1.00000000000000000 0.00000000000000000 
1 6.28318530717958534 0.00000000000000000 0.00000000000000000 1.00000000000000000 
1 -0.00000000000000133 0.00000000000000000 0.00000000000000000 1.00000000000000000 
1 0.00000000000000000 1.41421356237309515 1.00000000000000000 0.00000000000000000 
Curves 9
1 3.96875000000000000 -55.00000000000000000 0.00000000000001210 0.00000000000000000 1.00000000000000000 -0.00000000000000022 
2 0.00000000000000000 54.00000000000000000 -0.00000000000001188 0.00000000000000000 -1.00000000000000000 0.00000000000000022 1.00000000000000000 0.00000000000000000 0.00000000000000003 -0.00000000000000003 0.00000000000000022 1.00000000000000000 3.96875000000000000
2 0.00000000000000000 0.00000000000000000 0.00000000000000000 0.00000000000000000 0.00000000000000000 1.00000000000000000 1.00000000000000000 0.00000000000000000 -0.00000000000000000 -0.00000000000000000 1.00000000000000000 0.00000000000000000 3.96875000000000000
1 3.96875000000000000 54.00000000000000000 -0.00000000000001178 -0.70710678118654757 0.70710678118654746 -0.00000000000000017 
2 0.00000000000000000 55.00000000000000000 -0.00000000000001210 0.00000000000000000 -1.00000000000000000 0.00000000000000022 1.00000000000000000 0.00000000000000000 0.00000000000000003 -0.00000000000000003 0.00000000000000022 1.00000000000000000 2.96875000000000000
1 3.96875000000000000 -55.00000000000000000 0.00000000000001200 0.00000000000000000 -1.00000000000000000 0.00000000000000022 
2 0.00000000000000000 -79.00000000000000000 0.00000000000001728 0.00000000000000000 -1.00000000000000000 0.00000000000000022 1.00000000000000000 0.00000000000000000 0.00000000000000000 -0.00000000000000000 0.00000000000000022 1.00000000000000000 3.96875000000000000
1 3.96875000000000000 -79.00000000000000000 0.00000000000001200 -0.70710678118654746 -0.70710678118654757 0.00000000000000110 
2 0.00000000000000000 -80.00000000000000000 0.00000000000001750 0.00000000000000000 -1.00000000000000000 0.00000000000000022 1.00000000000000000 0.00000000000000000 0.00000000000000000 -0.00000000000000000 0.00000000000000022 1.00000000000000000 2.96875000000000000
Polygon3D 0
PolygonOnTriangulations 0
Surfaces 6
2 0.00000000000000000 -55.00000000000000000 0.00000000000001210 0.00000000000000000 -1.00000000000000000 0.00000000000000000 1.00000000000000000 0.00000000000000000 0.00000000000000000 -0.00000000000000000 0.00000000000000000 1.00000000000000000 3.96875000000000000
3 0.00000000000000000 54.00000000000000000 -0.00000000000001188 0.00000000000000000 1.00000000000000000 -0.00000000000000022 1.00000000000000000 0.00000000000000000 0.00000000000000003 -0.00000000000000003 0.00000000000000022 1.00000000000000000 3.96875000000000000
-0.78539816339744839
2 0.00000000000000000 -55.00000000000000000 0.00000000000001200 0.00000000000000000 1.00000000000000000 0.00000000000000000 1.00000000000000000 0.00000000000000000 0.00000000000000000 -0.00000000000000000 -0.00000000000000000 1.00000000000000000 3.96875000000000000
3 0.00000000000000000 -79.00000000000000000 0.00000000000001728 0.00000000000000000 -1.00000000000000000 0.00000000000000022 1.00000000000000000 0.00000000000000000 0.00000000000000000 -0.00000000000000000 0.00000000000000022 1.00000000000000000 3.96875000000000000
-0.78539816339744828
1 -0.00000000000000009 0.00000000000000000 0.00000000000000018 0.00000000000000000 -1.00000000000000000 0.00000000000000022 0.00000000000000000 -0.00000000000000022 -1.00000000000000000 1.00000000000000000 0.00000000000000000 0.00000000000000000 
1 -0.00000000000000009 0.00000000000000000 0.00000000000000018 0.00000000000000000 -1.00000000000000000 0.00000000000000022 0.00000000000000000 -0.00000000000000022 -1.00000000000000000 1.00000000000000000 0.00000000000000000 0.00000000000000000 
Triangulations 0

TShapes 28
Ve
0.000000100000000
3.968750000000000 54.000000000000000 -0.000000000000012
0 0

0101101
*
Ve
0.000000100000004
3.968750000000000 -55.000000000000000 0.000000000000012
0 0

0101101
*
Ed
 0.000000100000000 1 1 0
1  1 0 0.000000000000000 109.000000000000000
3  1 2CN 1 0 0.000000000000000 109.000000000000000
0

0101000
-28 9 +27 9 *
Ed
 0.000000100000000 1 1 0
1  2 0 0.000000000000000 6.283185307179586
2  3 1 7 0.000000000000000 6.283185307179586
2  4 2 0 0.000000000000000 6.283185307179586
0

0101000
+28 10 -28 10 *
Ed
 0.000000100000004 1 1 0
1  3 0 0.000000000000000 6.283185307179586
2  5 1 25 0.000000000000000 6.283185307179586
2  6 3 26 0.000000000000000 6.283185307179586
0

0101000
+27 27 -27 27 *
Wi

0101100
+26 7 +25 0 -24 24 -26 7 *
Fa
0  0.000000100000000 1 5

0111000
+23 6 *
Ve
0.000000100000000
2.968750000000000 55.000000000000000 -0.000000000000012
0 0

0101101
*
Ed
 0.000000100000000 1 1 0
1  4 0 0.000000000000000 1.414213562373095
3  7 8CN 2 0 0.000000000000000 1.414213562373095
0

0101000
+28 10 -21 10 *
Ed
 0.000000100000000 1 1 0
1  5 0 0.000000000000000 6.283185307179586
2  9 2 0 0.000000000000000 6.283185307179586
0

0101000
+21 10 -21 10 *
Wi

0101100
-20 0 +25 0 -19 0 +20 0 *
Fa
0  0.000000100000000 2 0

0111000
+18 0 *
Ve
0.000000100000000
3.968750000000000 -79.000000000000000 0.000000000000012
0 0

0101101
*
Ed
 0.000000100000000 1 1 0
1  6 0 0.000000000000000 24.000000000000000
3  10 11CN 3 0 0.000000000000000 24.000000000000000
0

0101000
-16 28 +27 28 *
Ed
 0.000000100000000 1 1 0
1  7 0 -0.000000000000001 6.283185307179585
2  12 3 2 -0.000000000000001 6.283185307179585
2  13 4 0 -0.000000000000001 6.283185307179585
0

0101000
+16 10 -16 10 *
Wi

0101100
+15 2 +14 0 -24 24 -15 2 *
Fa
0  0.000000100000000 3 0

0111000
+13 6 *
Wi

0101100
+19 0 *
Fa
0  0.000000100000000 5 0

0111000
+11 31 *
Ve
0.000000100000000
2.968750000000000 -80.000000000000000 0.000000000000014
0 0

0101101
*
Ed
 0.000000100000000 1 1 0
1  8 0 0.000000000000000 1.414213562373095
3  14 15CN 4 0 0.000000000000000 1.414213562373095
0

0101000
+16 10 -9 10 *
Ed
 0.000000100000000 1 1 0
1  9 0 -0.000000000000001 6.283185307179585
2  16 4 0 -0.000000000000001 6.283185307179585
0

0101000
+9 10 -9 10 *
Wi

0101100
-8 0 +14 0 -7 0 +8 0 *
Fa
0  0.000000100000000 4 0

0111000
+6 0 *
Wi

0101100
+7 0 *
Fa
0  0.000000100000000 6 0

0111000
+4 35 *
Sh

0101100
+22 2 -17 0 -12 2 -10 30 +5 0 +3 34 *
So

1100000
+2 0 *

+1 1 