
CASCADE Topology V1, (c) Matra-Datavision
Locations 143
1
1.000000000000000 0.000000000000000 0.000000000000000 0.000000000000000 
0.000000000000000 1.000000000000000 0.000000000000000 0.000000000000000 
0.000000000000000 0.000000000000000 1.000000000000000 0.000000000000000 
1
1.000000000000000 0.000000000000000 0.000000000000000 0.000000000000000 
0.000000000000000 1.000000000000000 0.000000000000000 0.000000000000000 
0.000000000000000 0.000000000000000 1.000000000000000 0.000000000000000 
1
1.000000000000000 0.000000000000000 0.000000000000000 0.000000000000000 
0.000000000000000 1.000000000000000 0.000000000000000 0.000000000000000 
0.000000000000000 0.000000000000000 1.000000000000000 0.000000000000000 
1
1.000000000000000 0.000000000000000 0.000000000000000 0.000000000000000 
0.000000000000000 1.000000000000000 0.000000000000000 0.000000000000000 
0.000000000000000 0.000000000000000 1.000000000000000 0.000000000000000 
2  3 1 4 -1 0
2  2 -1 0
2  3 1 4 -1 2 1 0
2  2 -1 4 1 3 -1 0
2  4 1 3 -1 0
1
1.000000000000000 0.000000000000000 0.000000000000000 0.000000000000000 
0.000000000000000 1.000000000000000 0.000000000000000 0.000000000000000 
0.000000000000000 0.000000000000000 1.000000000000000 0.000000000000000 
1
1.000000000000000 0.000000000000000 0.000000000000000 0.000000000000000 
0.000000000000000 0.000000000000000 -1.000000000000000 0.000000000000000 
0.000000000000000 1.000000000000000 0.000000000000000 0.000000000000000 
1
1.000000000000000 0.000000000000000 0.000000000000000 0.000000000000000 
0.000000000000000 -0.000000000000000 -1.000000000000000 0.000000000000000 
0.000000000000000 1.000000000000000 -0.000000000000000 0.000000000000000 
1
1.000000000000000 0.000000000000000 0.000000000000000 0.000000000000000 
0.000000000000000 1.000000000000000 0.000000000000000 0.000000000000000 
0.000000000000000 0.000000000000000 1.000000000000000 0.000000000000000 
1
1.000000000000000 0.000000000000000 0.000000000000000 0.000000000000000 
0.000000000000000 0.000000000000000 -1.000000000000000 0.000000000000000 
0.000000000000000 1.000000000000000 0.000000000000000 0.000000000000000 
1
1.000000000000000 0.000000000000000 0.000000000000000 0.000000000000000 
0.000000000000000 1.000000000000000 0.000000000000000 0.000000000000000 
0.000000000000000 0.000000000000000 1.000000000000000 0.000000000000000 
1
1.000000000000000 0.000000000000000 0.000000000000000 0.000000000000000 
0.000000000000000 1.000000000000000 0.000000000000000 0.000000000000000 
0.000000000000000 0.000000000000000 1.000000000000000 0.000000000000000 
1
1.000000000000000 0.000000000000000 0.000000000000000 0.000000000000000 
0.000000000000000 1.000000000000000 0.000000000000000 0.000000000000000 
0.000000000000000 0.000000000000000 1.000000000000000 0.000000000000000 
1
1.000000000000000 0.000000000000000 0.000000000000000 0.000000000000000 
0.000000000000000 1.000000000000000 0.000000000000000 0.000000000000000 
0.000000000000000 0.000000000000000 1.000000000000000 0.000000000000000 
1
1.000000000000000 0.000000000000000 0.000000000000000 0.000000000000000 
0.000000000000000 1.000000000000000 0.000000000000000 0.000000000000000 
0.000000000000000 0.000000000000000 1.000000000000000 0.000000000000000 
1
1.000000000000000 0.000000000000000 0.000000000000000 0.000000000000000 
0.000000000000000 1.000000000000000 0.000000000000000 0.000000000000000 
0.000000000000000 0.000000000000000 1.000000000000000 0.000000000000000 
1
1.000000000000000 0.000000000000000 0.000000000000000 0.000000000000000 
0.000000000000000 1.000000000000000 0.000000000000000 0.000000000000000 
0.000000000000000 0.000000000000000 1.000000000000000 0.000000000000000 
1
1.000000000000000 0.000000000000000 0.000000000000000 -0.000000000000000 
0.000000000000000 1.000000000000000 0.000000000000000 -55.000000000000000 
0.000000000000000 0.000000000000000 1.000000000000000 0.000000000000012 
2  10 1 11 1 12 -1 13 1 14 1 15 1 16 1 17 1 18 1 19 1 20 1 21 -1 22 1 3 1 4 -1 2 1 0
1
1.000000000000000 0.000000000000000 0.000000000000000 0.000000000000000 
0.000000000000000 1.000000000000000 0.000000000000000 0.000000000000000 
0.000000000000000 0.000000000000000 1.000000000000000 0.000000000000000 
1
1.000000000000000 0.000000000000000 0.000000000000000 0.000000000000000 
0.000000000000000 1.000000000000000 0.000000000000000 0.000000000000000 
0.000000000000000 0.000000000000000 1.000000000000000 0.000000000000000 
1
1.000000000000000 0.000000000000000 0.000000000000000 0.000000000000000 
0.000000000000000 1.000000000000000 0.000000000000000 0.000000000000000 
0.000000000000000 0.000000000000000 1.000000000000000 0.000000000000000 
1
1.000000000000000 0.000000000000000 0.000000000000000 0.000000000000000 
0.000000000000000 1.000000000000000 0.000000000000000 0.000000000000000 
0.000000000000000 0.000000000000000 1.000000000000000 0.000000000000000 
1
1.000000000000000 0.000000000000000 0.000000000000000 0.000000000000000 
0.000000000000000 1.000000000000000 0.000000000000000 0.000000000000000 
0.000000000000000 0.000000000000000 1.000000000000000 0.000000000000000 
2  24 1 25 -1 26 -1 27 -1 28 -1 16 -1 15 -1 14 -1 13 -1 12 1 11 -1 10 -1 0
1
1.000000000000000 0.000000000000000 0.000000000000000 0.000000000000000 
0.000000000000000 1.000000000000000 0.000000000000000 10.000000000000000 
0.000000000000000 0.000000000000000 1.000000000000000 -0.000000000000002 
2  30 -1 24 1 25 -1 26 -1 27 -1 28 -1 16 -1 15 -1 14 -1 13 -1 12 1 11 -1 10 -1 0
1
1.000000000000000 0.000000000000000 0.000000000000000 -0.000000000000000 
0.000000000000000 1.000000000000000 0.000000000000000 -5.000000000000000 
0.000000000000000 0.000000000000000 1.000000000000000 0.000000000000001 
1
1.000000000000000 0.000000000000000 0.000000000000000 0.000000000000000 
0.000000000000000 1.000000000000000 0.000000000000000 0.000000000000000 
0.000000000000000 0.000000000000000 1.000000000000000 0.000000000000000 
1
1.000000000000000 0.000000000000000 0.000000000000000 0.000000000000000 
0.000000000000000 1.000000000000000 0.000000000000000 0.000000000000000 
0.000000000000000 0.000000000000000 1.000000000000000 0.000000000000000 
2  32 -1 33 1 34 -1 26 -1 27 -1 28 -1 16 -1 15 -1 14 -1 13 -1 12 1 11 -1 10 -1 0
1
1.000000000000000 0.000000000000000 0.000000000000000 0.000000000000000 
0.000000000000000 1.000000000000000 0.000000000000000 10.000000000000000 
0.000000000000000 0.000000000000000 1.000000000000000 -0.000000000000002 
2  36 -1 32 -1 33 1 34 -1 26 -1 27 -1 28 -1 16 -1 15 -1 14 -1 13 -1 12 1 11 -1 10 -1 0
1
1.000000000000000 0.000000000000000 0.000000000000000 -0.000000000000000 
0.000000000000000 1.000000000000000 0.000000000000000 -4.500000000000000 
0.000000000000000 0.000000000000000 1.000000000000000 0.000000000000001 
1
1.000000000000000 0.000000000000000 0.000000000000000 0.000000000000000 
0.000000000000000 1.000000000000000 0.000000000000000 0.000000000000000 
0.000000000000000 0.000000000000000 1.000000000000000 0.000000000000000 
1
1.000000000000000 0.000000000000000 0.000000000000000 0.000000000000000 
0.000000000000000 1.000000000000000 0.000000000000000 0.000000000000000 
0.000000000000000 0.000000000000000 1.000000000000000 0.000000000000000 
2  38 -1 39 1 40 -1 26 -1 27 -1 28 -1 16 -1 15 -1 14 -1 13 -1 12 1 11 -1 10 -1 0
1
1.000000000000000 0.000000000000000 0.000000000000000 0.000000000000000 
0.000000000000000 1.000000000000000 0.000000000000000 9.000000000000000 
0.000000000000000 0.000000000000000 1.000000000000000 -0.000000000000002 
2  42 -1 38 -1 39 1 40 -1 26 -1 27 -1 28 -1 16 -1 15 -1 14 -1 13 -1 12 1 11 -1 10 -1 0
1
1.000000000000000 0.000000000000000 0.000000000000000 -0.000000000000000 
0.000000000000000 1.000000000000000 0.000000000000000 -100.000000000000000 
0.000000000000000 0.000000000000000 1.000000000000000 0.000000000000022 
1
1.000000000000000 0.000000000000000 0.000000000000000 0.000000000000000 
0.000000000000000 1.000000000000000 0.000000000000000 0.000000000000000 
0.000000000000000 0.000000000000000 1.000000000000000 0.000000000000000 
1
1.000000000000000 0.000000000000000 0.000000000000000 0.000000000000000 
0.000000000000000 1.000000000000000 0.000000000000000 0.000000000000000 
0.000000000000000 0.000000000000000 1.000000000000000 0.000000000000000 
2  44 -1 45 1 46 -1 26 -1 27 -1 28 -1 16 -1 15 -1 14 -1 13 -1 12 1 11 -1 10 -1 0
1
1.000000000000000 0.000000000000000 0.000000000000000 0.000000000000000 
0.000000000000000 1.000000000000000 0.000000000000000 200.000000000000000 
0.000000000000000 0.000000000000000 1.000000000000000 -0.000000000000044 
2  48 -1 44 -1 45 1 46 -1 26 -1 27 -1 28 -1 16 -1 15 -1 14 -1 13 -1 12 1 11 -1 10 -1 0
1
1.000000000000000 0.000000000000000 0.000000000000000 -0.000000000000000 
0.000000000000000 1.000000000000000 0.000000000000000 -100.000000000000000 
0.000000000000000 0.000000000000000 1.000000000000000 0.000000000000022 
1
1.000000000000000 0.000000000000000 0.000000000000000 0.000000000000000 
0.000000000000000 1.000000000000000 0.000000000000000 0.000000000000000 
0.000000000000000 0.000000000000000 1.000000000000000 0.000000000000000 
1
1.000000000000000 0.000000000000000 0.000000000000000 0.000000000000000 
0.000000000000000 1.000000000000000 0.000000000000000 0.000000000000000 
0.000000000000000 0.000000000000000 1.000000000000000 0.000000000000000 
2  50 -1 51 1 52 -1 26 -1 27 -1 28 -1 16 -1 15 -1 14 -1 13 -1 12 1 11 -1 10 -1 0
1
1.000000000000000 0.000000000000000 0.000000000000000 0.000000000000000 
0.000000000000000 1.000000000000000 0.000000000000000 200.000000000000000 
0.000000000000000 0.000000000000000 1.000000000000000 -0.000000000000044 
2  54 -1 50 -1 51 1 52 -1 26 -1 27 -1 28 -1 16 -1 15 -1 14 -1 13 -1 12 1 11 -1 10 -1 0
1
1.000000000000000 0.000000000000000 0.000000000000000 0.000000000000000 
0.000000000000000 1.000000000000000 0.000000000000000 0.000000000000000 
0.000000000000000 0.000000000000000 1.000000000000000 0.000000000000000 
1
1.000000000000000 0.000000000000000 0.000000000000000 0.000000000000000 
0.000000000000000 1.000000000000000 0.000000000000000 0.000000000000000 
0.000000000000000 0.000000000000000 1.000000000000000 0.000000000000000 
2  56 1 57 -1 19 -1 18 -1 17 -1 16 -1 15 -1 14 -1 13 -1 12 1 11 -1 10 -1 0
1
1.000000000000000 0.000000000000000 0.000000000000000 0.000000000000000 
0.000000000000000 1.000000000000000 0.000000000000000 10.000000000000000 
0.000000000000000 0.000000000000000 1.000000000000000 -0.000000000000002 
2  59 -1 56 1 57 -1 19 -1 18 -1 17 -1 16 -1 15 -1 14 -1 13 -1 12 1 11 -1 10 -1 0
1
1.000000000000000 0.000000000000000 0.000000000000000 -0.000000000000000 
0.000000000000000 1.000000000000000 0.000000000000000 -5.000000000000000 
0.000000000000000 0.000000000000000 1.000000000000000 0.000000000000001 
1
1.000000000000000 0.000000000000000 0.000000000000000 0.000000000000000 
0.000000000000000 1.000000000000000 0.000000000000000 0.000000000000000 
0.000000000000000 0.000000000000000 1.000000000000000 0.000000000000000 
1
1.000000000000000 0.000000000000000 0.000000000000000 0.000000000000000 
0.000000000000000 1.000000000000000 0.000000000000000 0.000000000000000 
0.000000000000000 0.000000000000000 1.000000000000000 0.000000000000000 
2  61 -1 62 1 63 -1 19 -1 18 -1 17 -1 16 -1 15 -1 14 -1 13 -1 12 1 11 -1 10 -1 0
1
1.000000000000000 0.000000000000000 0.000000000000000 0.000000000000000 
0.000000000000000 1.000000000000000 0.000000000000000 10.000000000000000 
0.000000000000000 0.000000000000000 1.000000000000000 -0.000000000000002 
2  65 -1 61 -1 62 1 63 -1 19 -1 18 -1 17 -1 16 -1 15 -1 14 -1 13 -1 12 1 11 -1 10 -1 0
1
1.000000000000000 0.000000000000000 0.000000000000000 -0.000000000000000 
0.000000000000000 1.000000000000000 0.000000000000000 -50.000000000000000 
0.000000000000000 0.000000000000000 1.000000000000000 0.000000000000011 
1
1.000000000000000 0.000000000000000 0.000000000000000 0.000000000000000 
0.000000000000000 1.000000000000000 0.000000000000000 0.000000000000000 
0.000000000000000 0.000000000000000 1.000000000000000 0.000000000000000 
1
1.000000000000000 0.000000000000000 0.000000000000000 0.000000000000000 
0.000000000000000 1.000000000000000 0.000000000000000 0.000000000000000 
0.000000000000000 0.000000000000000 1.000000000000000 0.000000000000000 
2  67 -1 68 1 69 -1 19 -1 18 -1 17 -1 16 -1 15 -1 14 -1 13 -1 12 1 11 -1 10 -1 0
1
1.000000000000000 0.000000000000000 0.000000000000000 0.000000000000000 
0.000000000000000 1.000000000000000 0.000000000000000 100.000000000000000 
0.000000000000000 0.000000000000000 1.000000000000000 -0.000000000000022 
2  71 -1 67 -1 68 1 69 -1 19 -1 18 -1 17 -1 16 -1 15 -1 14 -1 13 -1 12 1 11 -1 10 -1 0
1
1.000000000000000 0.000000000000000 0.000000000000000 -0.000000000000000 
0.000000000000000 1.000000000000000 0.000000000000000 -50.000000000000000 
0.000000000000000 0.000000000000000 1.000000000000000 0.000000000000011 
1
1.000000000000000 0.000000000000000 0.000000000000000 0.000000000000000 
0.000000000000000 1.000000000000000 0.000000000000000 0.000000000000000 
0.000000000000000 0.000000000000000 1.000000000000000 0.000000000000000 
1
1.000000000000000 0.000000000000000 0.000000000000000 0.000000000000000 
0.000000000000000 1.000000000000000 0.000000000000000 0.000000000000000 
0.000000000000000 0.000000000000000 1.000000000000000 0.000000000000000 
2  73 -1 74 1 75 -1 19 -1 18 -1 17 -1 16 -1 15 -1 14 -1 13 -1 12 1 11 -1 10 -1 0
1
1.000000000000000 0.000000000000000 0.000000000000000 0.000000000000000 
0.000000000000000 1.000000000000000 0.000000000000000 100.000000000000000 
0.000000000000000 0.000000000000000 1.000000000000000 -0.000000000000022 
2  77 -1 73 -1 74 1 75 -1 19 -1 18 -1 17 -1 16 -1 15 -1 14 -1 13 -1 12 1 11 -1 10 -1 0
1
1.000000000000000 0.000000000000000 0.000000000000000 -0.000000000000000 
0.000000000000000 1.000000000000000 0.000000000000000 -50.000000000000000 
0.000000000000000 0.000000000000000 1.000000000000000 0.000000000000011 
1
1.000000000000000 0.000000000000000 0.000000000000000 0.000000000000000 
0.000000000000000 1.000000000000000 0.000000000000000 0.000000000000000 
0.000000000000000 0.000000000000000 1.000000000000000 0.000000000000000 
1
1.000000000000000 0.000000000000000 0.000000000000000 0.000000000000000 
0.000000000000000 1.000000000000000 0.000000000000000 0.000000000000000 
0.000000000000000 0.000000000000000 1.000000000000000 0.000000000000000 
2  79 -1 80 1 81 -1 19 -1 18 -1 17 -1 16 -1 15 -1 14 -1 13 -1 12 1 11 -1 10 -1 0
1
1.000000000000000 0.000000000000000 0.000000000000000 0.000000000000000 
0.000000000000000 1.000000000000000 0.000000000000000 100.000000000000000 
0.000000000000000 0.000000000000000 1.000000000000000 -0.000000000000022 
2  83 -1 79 -1 80 1 81 -1 19 -1 18 -1 17 -1 16 -1 15 -1 14 -1 13 -1 12 1 11 -1 10 -1 0
1
1.000000000000000 0.000000000000000 0.000000000000000 -0.000000000000000 
0.000000000000000 1.000000000000000 0.000000000000000 -50.000000000000000 
0.000000000000000 0.000000000000000 1.000000000000000 0.000000000000011 
1
1.000000000000000 0.000000000000000 0.000000000000000 0.000000000000000 
0.000000000000000 1.000000000000000 0.000000000000000 0.000000000000000 
0.000000000000000 0.000000000000000 1.000000000000000 0.000000000000000 
1
1.000000000000000 0.000000000000000 0.000000000000000 0.000000000000000 
0.000000000000000 1.000000000000000 0.000000000000000 0.000000000000000 
0.000000000000000 0.000000000000000 1.000000000000000 0.000000000000000 
2  85 -1 86 1 87 -1 19 -1 18 -1 17 -1 16 -1 15 -1 14 -1 13 -1 12 1 11 -1 10 -1 0
1
1.000000000000000 0.000000000000000 0.000000000000000 0.000000000000000 
0.000000000000000 1.000000000000000 0.000000000000000 100.000000000000000 
0.000000000000000 0.000000000000000 1.000000000000000 -0.000000000000022 
2  89 -1 85 -1 86 1 87 -1 19 -1 18 -1 17 -1 16 -1 15 -1 14 -1 13 -1 12 1 11 -1 10 -1 0
2  22 -1 21 1 20 -1 19 -1 18 -1 17 -1 16 -1 15 -1 14 -1 13 -1 12 1 11 -1 10 -1 0
1
1.000000000000000 0.000000000000000 0.000000000000000 0.000000000000000 
0.000000000000000 1.000000000000000 0.000000000000000 110.000000000000000 
0.000000000000000 0.000000000000000 1.000000000000000 -0.000000000000024 
2  92 -1 22 -1 21 1 20 -1 19 -1 18 -1 17 -1 16 -1 15 -1 14 -1 13 -1 12 1 11 -1 10 -1 0
1
1.000000000000000 0.000000000000000 0.000000000000000 0.000000000000000 
0.000000000000000 1.000000000000000 0.000000000000000 0.000000000000000 
0.000000000000000 0.000000000000000 1.000000000000000 0.000000000000000 
1
1.000000000000000 0.000000000000000 0.000000000000000 0.000000000000000 
0.000000000000000 1.000000000000000 0.000000000000000 0.000000000000000 
0.000000000000000 0.000000000000000 1.000000000000000 0.000000000000000 
2  94 1 95 -1 3 -1 22 -1 21 1 20 -1 19 -1 18 -1 17 -1 16 -1 15 -1 14 -1 13 -1 12 1 11 -1 10 -1 0
1
1.000000000000000 0.000000000000000 0.000000000000000 0.000000000000000 
0.000000000000000 1.000000000000000 0.000000000000000 -10.000000000000000 
0.000000000000000 0.000000000000000 1.000000000000000 0.000000000000002 
2  97 -1 94 1 95 -1 3 -1 22 -1 21 1 20 -1 19 -1 18 -1 17 -1 16 -1 15 -1 14 -1 13 -1 12 1 11 -1 10 -1 0
2  11 -1 10 -1 0
1
1.000000000000000 0.000000000000000 0.000000000000000 0.000000000000000 
0.000000000000000 1.000000000000000 0.000000000000000 0.000000000000000 
0.000000000000000 0.000000000000000 1.000000000000000 0.000000000000000 
1
1.000000000000000 0.000000000000000 0.000000000000000 0.000000000000000 
0.000000000000000 1.000000000000000 0.000000000000000 0.000000000000000 
0.000000000000000 0.000000000000000 1.000000000000000 0.000000000000000 
2  100 1 101 -1 3 -1 22 -1 21 1 20 -1 19 -1 18 -1 17 -1 16 -1 15 -1 14 -1 13 -1 12 1 11 -1 10 -1 0
1
1.000000000000000 0.000000000000000 0.000000000000000 0.000000000000000 
0.000000000000000 1.000000000000000 0.000000000000000 -30.000000000000000 
0.000000000000000 0.000000000000000 1.000000000000000 0.000000000000007 
2  103 -1 100 1 101 -1 3 -1 22 -1 21 1 20 -1 19 -1 18 -1 17 -1 16 -1 15 -1 14 -1 13 -1 12 1 11 -1 10 -1 0
1
1.000000000000000 0.000000000000000 0.000000000000000 0.000000000000000 
0.000000000000000 1.000000000000000 0.000000000000000 0.000000000000000 
0.000000000000000 0.000000000000000 1.000000000000000 0.000000000000000 
1
1.000000000000000 0.000000000000000 0.000000000000000 0.000000000000000 
0.000000000000000 1.000000000000000 0.000000000000000 0.000000000000000 
0.000000000000000 0.000000000000000 1.000000000000000 0.000000000000000 
2  105 1 106 -1 3 -1 22 -1 21 1 20 -1 19 -1 18 -1 17 -1 16 -1 15 -1 14 -1 13 -1 12 1 11 -1 10 -1 0
1
1.000000000000000 0.000000000000000 0.000000000000000 0.000000000000000 
0.000000000000000 1.000000000000000 0.000000000000000 -30.000000000000000 
0.000000000000000 0.000000000000000 1.000000000000000 0.000000000000007 
2  108 -1 105 1 106 -1 3 -1 22 -1 21 1 20 -1 19 -1 18 -1 17 -1 16 -1 15 -1 14 -1 13 -1 12 1 11 -1 10 -1 0
1
1.000000000000000 0.000000000000000 0.000000000000000 0.000000000000000 
0.000000000000000 1.000000000000000 0.000000000000000 0.000000000000000 
0.000000000000000 0.000000000000000 1.000000000000000 0.000000000000000 
1
1.000000000000000 0.000000000000000 0.000000000000000 0.000000000000000 
0.000000000000000 1.000000000000000 0.000000000000000 0.000000000000000 
0.000000000000000 0.000000000000000 1.000000000000000 0.000000000000000 
2  110 1 111 -1 3 -1 22 -1 21 1 20 -1 19 -1 18 -1 17 -1 16 -1 15 -1 14 -1 13 -1 12 1 11 -1 10 -1 0
1
1.000000000000000 0.000000000000000 0.000000000000000 0.000000000000000 
0.000000000000000 1.000000000000000 0.000000000000000 -29.000000000000000 
0.000000000000000 0.000000000000000 1.000000000000000 0.000000000000006 
2  113 -1 110 1 111 -1 3 -1 22 -1 21 1 20 -1 19 -1 18 -1 17 -1 16 -1 15 -1 14 -1 13 -1 12 1 11 -1 10 -1 0
1
1.000000000000000 0.000000000000000 0.000000000000000 0.000000000000000 
0.000000000000000 1.000000000000000 0.000000000000000 0.000000000000000 
0.000000000000000 0.000000000000000 1.000000000000000 0.000000000000000 
1
1.000000000000000 0.000000000000000 0.000000000000000 0.000000000000000 
0.000000000000000 1.000000000000000 0.000000000000000 0.000000000000000 
0.000000000000000 0.000000000000000 1.000000000000000 0.000000000000000 
2  115 1 116 -1 3 -1 22 -1 21 1 20 -1 19 -1 18 -1 17 -1 16 -1 15 -1 14 -1 13 -1 12 1 11 -1 10 -1 0
1
1.000000000000000 0.000000000000000 0.000000000000000 0.000000000000000 
0.000000000000000 1.000000000000000 0.000000000000000 -28.000000000000000 
0.000000000000000 0.000000000000000 1.000000000000000 0.000000000000006 
2  118 -1 115 1 116 -1 3 -1 22 -1 21 1 20 -1 19 -1 18 -1 17 -1 16 -1 15 -1 14 -1 13 -1 12 1 11 -1 10 -1 0
1
1.000000000000000 0.000000000000000 0.000000000000000 0.000000000000000 
0.000000000000000 1.000000000000000 0.000000000000000 0.000000000000000 
0.000000000000000 0.000000000000000 1.000000000000000 0.000000000000000 
1
1.000000000000000 0.000000000000000 0.000000000000000 0.000000000000000 
0.000000000000000 1.000000000000000 0.000000000000000 0.000000000000000 
0.000000000000000 0.000000000000000 1.000000000000000 0.000000000000000 
2  120 1 121 -1 3 -1 22 -1 21 1 20 -1 19 -1 18 -1 17 -1 16 -1 15 -1 14 -1 13 -1 12 1 11 -1 10 -1 0
1
1.000000000000000 0.000000000000000 0.000000000000000 0.000000000000000 
0.000000000000000 1.000000000000000 0.000000000000000 -27.000000000000000 
0.000000000000000 0.000000000000000 1.000000000000000 0.000000000000006 
2  123 -1 120 1 121 -1 3 -1 22 -1 21 1 20 -1 19 -1 18 -1 17 -1 16 -1 15 -1 14 -1 13 -1 12 1 11 -1 10 -1 0
1
1.000000000000000 0.000000000000000 0.000000000000000 0.000000000000000 
0.000000000000000 1.000000000000000 0.000000000000000 0.000000000000000 
0.000000000000000 0.000000000000000 1.000000000000000 0.000000000000000 
1
1.000000000000000 0.000000000000000 0.000000000000000 0.000000000000000 
0.000000000000000 1.000000000000000 0.000000000000000 0.000000000000000 
0.000000000000000 0.000000000000000 1.000000000000000 0.000000000000000 
2  125 1 126 -1 3 -1 22 -1 21 1 20 -1 19 -1 18 -1 17 -1 16 -1 15 -1 14 -1 13 -1 12 1 11 -1 10 -1 0
1
1.000000000000000 0.000000000000000 0.000000000000000 0.000000000000000 
0.000000000000000 1.000000000000000 0.000000000000000 -26.000000000000000 
0.000000000000000 0.000000000000000 1.000000000000000 0.000000000000006 
2  128 -1 125 1 126 -1 3 -1 22 -1 21 1 20 -1 19 -1 18 -1 17 -1 16 -1 15 -1 14 -1 13 -1 12 1 11 -1 10 -1 0
1
1.000000000000000 0.000000000000000 0.000000000000000 0.000000000000000 
0.000000000000000 1.000000000000000 0.000000000000000 0.000000000000000 
0.000000000000000 0.000000000000000 1.000000000000000 0.000000000000000 
1
1.000000000000000 0.000000000000000 0.000000000000000 0.000000000000000 
0.000000000000000 1.000000000000000 0.000000000000000 0.000000000000000 
0.000000000000000 0.000000000000000 1.000000000000000 0.000000000000000 
2  130 1 131 -1 3 -1 22 -1 21 1 20 -1 19 -1 18 -1 17 -1 16 -1 15 -1 14 -1 13 -1 12 1 11 -1 10 -1 0
1
1.000000000000000 0.000000000000000 0.000000000000000 0.000000000000000 
0.000000000000000 1.000000000000000 0.000000000000000 -25.000000000000000 
0.000000000000000 0.000000000000000 1.000000000000000 0.000000000000006 
2  133 -1 130 1 131 -1 3 -1 22 -1 21 1 20 -1 19 -1 18 -1 17 -1 16 -1 15 -1 14 -1 13 -1 12 1 11 -1 10 -1 0
1
1.000000000000000 0.000000000000000 0.000000000000000 0.000000000000000 
0.000000000000000 1.000000000000000 0.000000000000000 0.000000000000000 
0.000000000000000 0.000000000000000 1.000000000000000 0.000000000000000 
2  4 1 135 -1 3 -1 22 -1 21 1 20 -1 19 -1 18 -1 17 -1 16 -1 15 -1 14 -1 13 -1 12 1 11 -1 10 -1 0
1
1.000000000000000 0.000000000000000 0.000000000000000 0.000000000000000 
0.000000000000000 1.000000000000000 0.000000000000000 -25.000000000000000 
0.000000000000000 0.000000000000000 1.000000000000000 0.000000000000006 
2  137 -1 4 1 135 -1 3 -1 22 -1 21 1 20 -1 19 -1 18 -1 17 -1 16 -1 15 -1 14 -1 13 -1 12 1 11 -1 10 -1 0
2  4 1 3 -1 22 -1 21 1 20 -1 19 -1 18 -1 17 -1 16 -1 15 -1 14 -1 13 -1 12 1 11 -1 10 -1 0
2  12 -1 13 1 14 1 15 1 16 1 17 1 18 1 19 1 20 1 21 -1 22 1 92 1 3 1 4 -1 2 1 0
2  2 -1 4 1 3 -1 92 -1 22 -1 21 1 20 -1 19 -1 18 -1 17 -1 16 -1 15 -1 14 -1 13 -1 12 1 0
2  12 -1 13 1 14 1 15 1 16 1 17 1 18 1 19 1 20 1 21 -1 22 1 3 1 135 1 4 -1 137 1 2 1 0
2  2 -1 137 -1 4 1 135 -1 3 -1 22 -1 21 1 20 -1 19 -1 18 -1 17 -1 16 -1 15 -1 14 -1 13 -1 12 1 0
Curve2ds 60
1 0.00000000000000000 0.00000000000000000 0.00000000000000000 -1.00000000000000000 
1 6.28318530717958623 0.00000000000000000 0.00000000000000000 -1.00000000000000000 
1 0.00000000000000000 0.00000000000000000 1.00000000000000000 0.00000000000000000 
1 0.00000000000000000 -109.00000000000000000 1.00000000000000000 0.00000000000000000 
1 0.00000000000000000 0.00000000000000000 1.00000000000000000 0.00000000000000000 
1 0.00000000000000000 -10.00000000000000000 1.00000000000000000 0.00000000000000000 
1 0.00000000000000000 0.00000000000000000 1.00000000000000000 0.00000000000000000 
1 0.00000000000000000 -10.00000000000000000 1.00000000000000000 0.00000000000000000 
1 0.00000000000000000 0.00000000000000000 1.00000000000000000 0.00000000000000000 
1 0.00000000000000000 -9.00000000000000000 1.00000000000000000 0.00000000000000000 
1 0.00000000000000000 0.00000000000000000 1.00000000000000000 0.00000000000000000 
1 0.00000000000000000 -200.00000000000000000 1.00000000000000000 0.00000000000000000 
1 0.00000000000000000 0.00000000000000000 1.00000000000000000 0.00000000000000000 
1 0.00000000000000000 -200.00000000000000000 1.00000000000000000 0.00000000000000000 
1 0.00000000000000000 0.00000000000000000 1.00000000000000000 0.00000000000000000 
1 0.00000000000000000 -10.00000000000000000 1.00000000000000000 0.00000000000000000 
1 0.00000000000000000 0.00000000000000000 1.00000000000000000 0.00000000000000000 
1 0.00000000000000000 -10.00000000000000000 1.00000000000000000 0.00000000000000000 
1 0.00000000000000000 0.00000000000000000 1.00000000000000000 0.00000000000000000 
1 0.00000000000000000 -100.00000000000000000 1.00000000000000000 0.00000000000000000 
1 0.00000000000000000 0.00000000000000000 1.00000000000000000 0.00000000000000000 
1 0.00000000000000000 -100.00000000000000000 1.00000000000000000 0.00000000000000000 
1 0.00000000000000000 0.00000000000000000 1.00000000000000000 0.00000000000000000 
1 0.00000000000000000 -100.00000000000000000 1.00000000000000000 0.00000000000000000 
1 0.00000000000000000 0.00000000000000000 1.00000000000000000 0.00000000000000000 
1 0.00000000000000000 -100.00000000000000000 1.00000000000000000 0.00000000000000000 
1 0.00000000000000000 0.00000000000000000 1.00000000000000000 0.00000000000000000 
1 0.00000000000000000 -110.00000000000000000 1.00000000000000000 0.00000000000000000 
1 0.00000000000000000 0.00000000000000000 1.00000000000000000 0.00000000000000000 
1 0.00000000000000000 -10.00000000000000000 1.00000000000000000 0.00000000000000000 
2 0.00000000000000018 0.00000000000000009 0.00000000000000000 1.00000000000000000 -1.00000000000000000 0.00000000000000000 3.96875000000000000
1 0.00000000000000000 0.00000000000000000 1.00000000000000000 0.00000000000000000 
1 0.00000000000000000 -30.00000000000000000 1.00000000000000000 0.00000000000000000 
1 0.00000000000000000 0.00000000000000000 1.00000000000000000 0.00000000000000000 
1 0.00000000000000000 -30.00000000000000000 1.00000000000000000 0.00000000000000000 
1 0.00000000000000000 0.00000000000000000 1.00000000000000000 0.00000000000000000 
1 0.00000000000000000 -29.00000000000000000 1.00000000000000000 0.00000000000000000 
1 0.00000000000000000 0.00000000000000000 1.00000000000000000 0.00000000000000000 
1 0.00000000000000000 -28.00000000000000000 1.00000000000000000 0.00000000000000000 
1 0.00000000000000000 0.00000000000000000 1.00000000000000000 0.00000000000000000 
1 0.00000000000000000 -27.00000000000000000 1.00000000000000000 0.00000000000000000 
1 0.00000000000000000 0.00000000000000000 1.00000000000000000 0.00000000000000000 
1 0.00000000000000000 -26.00000000000000000 1.00000000000000000 0.00000000000000000 
1 0.00000000000000000 0.00000000000000000 1.00000000000000000 0.00000000000000000 
1 0.00000000000000000 -25.00000000000000000 1.00000000000000000 0.00000000000000000 
1 0.00000000000000000 0.00000000000000000 1.00000000000000000 0.00000000000000000 
1 0.00000000000000000 -25.00000000000000000 1.00000000000000000 0.00000000000000000 
8 0.00000000000000000 6.28318530717958623
1 0.00000000000000000 0.00000000000000000 1.00000000000000000 0.00000000000000000 
8 0.00000000000000000 1.41421356237309515
1 6.28318530717958623 0.00000000000000000 0.00000000000000000 1.00000000000000000 
8 0.00000000000000000 1.41421356237309515
1 0.00000000000000000 0.00000000000000000 0.00000000000000000 1.00000000000000000 
1 0.00000000000000000 1.41421356237309515 1.00000000000000000 0.00000000000000000 
2 0.00000000000000028 0.00000000000000009 -0.00000000000000003 1.00000000000000000 -1.00000000000000000 -0.00000000000000003 2.96875000000000000
1 0.00000000000000000 0.00000000000000000 0.00000000000000000 -1.00000000000000000 
1 6.28318530717958623 0.00000000000000000 0.00000000000000000 -1.00000000000000000 
1 0.00000000000000000 0.00000000000000000 1.00000000000000000 0.00000000000000000 
1 0.00000000000000133 -24.00000000000000000 1.00000000000000000 0.00000000000000000 
8 0.00000000000000000 1.41421356237309515
1 6.28318530717958534 0.00000000000000000 0.00000000000000000 1.00000000000000000 
8 0.00000000000000000 1.41421356237309515
1 -0.00000000000000133 0.00000000000000000 0.00000000000000000 1.00000000000000000 
1 0.00000000000000000 1.41421356237309515 1.00000000000000000 0.00000000000000000 
2 0.00000000000000018 0.00000000000000009 0.00000000000000000 1.00000000000000000 -1.00000000000000000 0.00000000000000000 2.96875000000000000
Curves 9
1 3.96875000000000000 -55.00000000000000000 0.00000000000001210 0.00000000000000000 1.00000000000000000 -0.00000000000000022 
2 0.00000000000000000 54.00000000000000000 -0.00000000000001188 0.00000000000000000 -1.00000000000000000 0.00000000000000022 1.00000000000000000 0.00000000000000000 0.00000000000000003 -0.00000000000000003 0.00000000000000022 1.00000000000000000 3.96875000000000000
2 0.00000000000000000 0.00000000000000000 0.00000000000000000 0.00000000000000000 0.00000000000000000 1.00000000000000000 1.00000000000000000 0.00000000000000000 -0.00000000000000000 -0.00000000000000000 1.00000000000000000 0.00000000000000000 3.96875000000000000
1 3.96875000000000000 54.00000000000000000 -0.00000000000001178 -0.70710678118654757 0.70710678118654746 -0.00000000000000017 
2 0.00000000000000000 55.00000000000000000 -0.00000000000001210 0.00000000000000000 -1.00000000000000000 0.00000000000000022 1.00000000000000000 0.00000000000000000 0.00000000000000003 -0.00000000000000003 0.00000000000000022 1.00000000000000000 2.96875000000000000
1 3.96875000000000000 -55.00000000000000000 0.00000000000001200 0.00000000000000000 -1.00000000000000000 0.00000000000000022 
2 0.00000000000000000 -79.00000000000000000 0.00000000000001728 0.00000000000000000 -1.00000000000000000 0.00000000000000022 1.00000000000000000 0.00000000000000000 0.00000000000000000 -0.00000000000000000 0.00000000000000022 1.00000000000000000 3.96875000000000000
1 3.96875000000000000 -79.00000000000000000 0.00000000000001200 -0.70710678118654746 -0.70710678118654757 0.00000000000000110 
2 0.00000000000000000 -80.00000000000000000 0.00000000000001750 0.00000000000000000 -1.00000000000000000 0.00000000000000022 1.00000000000000000 0.00000000000000000 0.00000000000000000 -0.00000000000000000 0.00000000000000022 1.00000000000000000 2.96875000000000000
Polygon3D 0
PolygonOnTriangulations 0
Surfaces 24
2 0.00000000000000000 -55.00000000000000000 0.00000000000001210 0.00000000000000000 -1.00000000000000000 0.00000000000000000 1.00000000000000000 0.00000000000000000 0.00000000000000000 -0.00000000000000000 0.00000000000000000 1.00000000000000000 3.96875000000000000
3 0.00000000000000000 54.00000000000000000 -0.00000000000001188 -0.00000000000000000 1.00000000000000000 -0.00000000000000022 1.00000000000000000 0.00000000000000000 0.00000000000000003 -0.00000000000000003 0.00000000000000022 1.00000000000000000 3.96875000000000000
-0.78539816339744839
2 0.00000000000000000 0.00000000000000000 0.00000000000000000 0.00000000000000000 -1.00000000000000000 0.00000000000000000 1.00000000000000000 0.00000000000000000 0.00000000000000000 -0.00000000000000000 0.00000000000000000 1.00000000000000000 3.96875000000000000
2 0.00000000000000000 -5.00000000000000000 0.00000000000000110 0.00000000000000000 -1.00000000000000000 0.00000000000000000 1.00000000000000000 0.00000000000000000 0.00000000000000000 -0.00000000000000000 0.00000000000000000 1.00000000000000000 3.96875000000000000
2 0.00000000000000000 -4.50000000000000000 0.00000000000000099 0.00000000000000000 -1.00000000000000000 0.00000000000000000 1.00000000000000000 0.00000000000000000 0.00000000000000000 -0.00000000000000000 0.00000000000000000 1.00000000000000000 3.96875000000000000
2 0.00000000000000000 -100.00000000000000000 0.00000000000002200 0.00000000000000000 -1.00000000000000000 0.00000000000000000 1.00000000000000000 0.00000000000000000 0.00000000000000000 -0.00000000000000000 0.00000000000000000 1.00000000000000000 3.96875000000000000
2 0.00000000000000000 -100.00000000000000000 0.00000000000002200 0.00000000000000000 -1.00000000000000000 0.00000000000000000 1.00000000000000000 0.00000000000000000 0.00000000000000000 -0.00000000000000000 0.00000000000000000 1.00000000000000000 3.96875000000000000
2 0.00000000000000000 0.00000000000000000 0.00000000000000000 0.00000000000000000 -1.00000000000000000 0.00000000000000000 1.00000000000000000 0.00000000000000000 0.00000000000000000 -0.00000000000000000 0.00000000000000000 1.00000000000000000 3.96875000000000000
2 0.00000000000000000 -5.00000000000000000 0.00000000000000110 0.00000000000000000 -1.00000000000000000 0.00000000000000000 1.00000000000000000 0.00000000000000000 0.00000000000000000 -0.00000000000000000 0.00000000000000000 1.00000000000000000 3.96875000000000000
2 0.00000000000000000 -50.00000000000000000 0.00000000000001100 0.00000000000000000 -1.00000000000000000 0.00000000000000000 1.00000000000000000 0.00000000000000000 0.00000000000000000 -0.00000000000000000 0.00000000000000000 1.00000000000000000 3.96875000000000000
2 0.00000000000000000 -50.00000000000000000 0.00000000000001100 0.00000000000000000 -1.00000000000000000 0.00000000000000000 1.00000000000000000 0.00000000000000000 0.00000000000000000 -0.00000000000000000 0.00000000000000000 1.00000000000000000 3.96875000000000000
2 0.00000000000000000 -50.00000000000000000 0.00000000000001100 0.00000000000000000 -1.00000000000000000 0.00000000000000000 1.00000000000000000 0.00000000000000000 0.00000000000000000 -0.00000000000000000 0.00000000000000000 1.00000000000000000 3.96875000000000000
2 0.00000000000000000 -50.00000000000000000 0.00000000000001100 0.00000000000000000 -1.00000000000000000 0.00000000000000000 1.00000000000000000 0.00000000000000000 0.00000000000000000 -0.00000000000000000 0.00000000000000000 1.00000000000000000 3.96875000000000000
2 0.00000000000000000 -55.00000000000000000 0.00000000000001200 -0.00000000000000000 1.00000000000000000 -0.00000000000000000 1.00000000000000000 0.00000000000000000 0.00000000000000000 -0.00000000000000000 -0.00000000000000000 1.00000000000000000 3.96875000000000000
1 -0.00000000000000009 0.00000000000000000 0.00000000000000018 0.00000000000000000 -1.00000000000000000 0.00000000000000022 0.00000000000000000 -0.00000000000000022 -1.00000000000000000 1.00000000000000000 0.00000000000000000 0.00000000000000000 
2 0.00000000000000000 -55.00000000000000000 0.00000000000001200 -0.00000000000000000 1.00000000000000000 -0.00000000000000000 1.00000000000000000 0.00000000000000000 0.00000000000000000 -0.00000000000000000 -0.00000000000000000 1.00000000000000000 3.96875000000000000
2 0.00000000000000000 -55.00000000000000000 0.00000000000001200 -0.00000000000000000 1.00000000000000000 -0.00000000000000000 1.00000000000000000 0.00000000000000000 0.00000000000000000 -0.00000000000000000 -0.00000000000000000 1.00000000000000000 3.96875000000000000
2 0.00000000000000000 -55.00000000000000000 0.00000000000001200 -0.00000000000000000 1.00000000000000000 -0.00000000000000000 1.00000000000000000 0.00000000000000000 0.00000000000000000 -0.00000000000000000 -0.00000000000000000 1.00000000000000000 3.96875000000000000
2 0.00000000000000000 -55.00000000000000000 0.00000000000001200 -0.00000000000000000 1.00000000000000000 -0.00000000000000000 1.00000000000000000 0.00000000000000000 0.00000000000000000 -0.00000000000000000 -0.00000000000000000 1.00000000000000000 3.96875000000000000
2 0.00000000000000000 -55.00000000000000000 0.00000000000001200 -0.00000000000000000 1.00000000000000000 -0.00000000000000000 1.00000000000000000 0.00000000000000000 0.00000000000000000 -0.00000000000000000 -0.00000000000000000 1.00000000000000000 3.96875000000000000
2 0.00000000000000000 -55.00000000000000000 0.00000000000001200 -0.00000000000000000 1.00000000000000000 -0.00000000000000000 1.00000000000000000 0.00000000000000000 0.00000000000000000 -0.00000000000000000 -0.00000000000000000 1.00000000000000000 3.96875000000000000
2 0.00000000000000000 -55.00000000000000000 0.00000000000001200 -0.00000000000000000 1.00000000000000000 -0.00000000000000000 1.00000000000000000 0.00000000000000000 0.00000000000000000 -0.00000000000000000 -0.00000000000000000 1.00000000000000000 3.96875000000000000
2 0.00000000000000000 -55.00000000000000000 0.00000000000001200 -0.00000000000000000 1.00000000000000000 -0.00000000000000000 1.00000000000000000 0.00000000000000000 0.00000000000000000 -0.00000000000000000 -0.00000000000000000 1.00000000000000000 3.96875000000000000
3 0.00000000000000000 -79.00000000000000000 0.00000000000001728 0.00000000000000000 -1.00000000000000000 0.00000000000000022 1.00000000000000000 0.00000000000000000 0.00000000000000000 -0.00000000000000000 0.00000000000000022 1.00000000000000000 3.96875000000000000
-0.78539816339744828
Triangulations 0

TShapes 28
Ve
0.000000100000000
3.968750000000000 54.000000000000000 -0.000000000000012
0 0

0101101
*
Ve
0.000000100000004
3.968750000000000 -55.000000000000000 0.000000000000012
0 0

0101101
*
Ed
 0.000000100000000 1 1 0
1  1 0 0.000000000000000 109.000000000000000
3  1 2CN 1 0 0.000000000000000 109.000000000000000
0

0101000
-28 8 +27 9 *
Ed
 0.000000100000000 1 1 0
1  2 0 0.000000000000000 6.283185307179586
2  3 2 0 0.000000000000000 6.283185307179586
2  4 1 7 0.000000000000000 6.283185307179586
0

0101000
+28 0 -28 0 *
Ed
 0.000000100000004 1 1 0
1  3 0 0.000000000000000 6.283185307179586
2  5 3 29 0.000000000000000 6.283185307179586
2  6 3 31 0.000000000000000 6.283185307179586
2  7 4 35 0.000000000000000 6.283185307179586
2  8 4 37 0.000000000000000 6.283185307179586
2  9 5 41 0.000000000000000 6.283185307179586
2  10 5 43 0.000000000000000 6.283185307179586
2  11 6 47 0.000000000000000 6.283185307179586
2  12 6 49 0.000000000000000 6.283185307179586
2  13 7 53 0.000000000000000 6.283185307179586
2  14 7 55 0.000000000000000 6.283185307179586
2  15 8 58 0.000000000000000 6.283185307179586
2  16 8 60 0.000000000000000 6.283185307179586
2  17 9 64 0.000000000000000 6.283185307179586
2  18 9 66 0.000000000000000 6.283185307179586
2  19 10 70 0.000000000000000 6.283185307179586
2  20 10 72 0.000000000000000 6.283185307179586
2  21 11 76 0.000000000000000 6.283185307179586
2  22 11 78 0.000000000000000 6.283185307179586
2  23 12 82 0.000000000000000 6.283185307179586
2  24 12 84 0.000000000000000 6.283185307179586
2  25 13 88 0.000000000000000 6.283185307179586
2  26 13 90 0.000000000000000 6.283185307179586
2  27 1 91 0.000000000000000 6.283185307179586
2  28 1 93 0.000000000000000 6.283185307179586
2  29 14 96 0.000000000000000 6.283185307179586
2  30 14 98 0.000000000000000 6.283185307179586
2  31 15 99 0.000000000000000 6.283185307179586
2  32 16 102 0.000000000000000 6.283185307179586
2  33 16 104 0.000000000000000 6.283185307179586
2  34 17 107 0.000000000000000 6.283185307179586
2  35 17 109 0.000000000000000 6.283185307179586
2  36 18 112 0.000000000000000 6.283185307179586
2  37 18 114 0.000000000000000 6.283185307179586
2  38 19 117 0.000000000000000 6.283185307179586
2  39 19 119 0.000000000000000 6.283185307179586
2  40 20 122 0.000000000000000 6.283185307179586
2  41 20 124 0.000000000000000 6.283185307179586
2  42 21 127 0.000000000000000 6.283185307179586
2  43 21 129 0.000000000000000 6.283185307179586
2  44 22 132 0.000000000000000 6.283185307179586
2  45 22 134 0.000000000000000 6.283185307179586
2  46 23 136 0.000000000000000 6.283185307179586
2  47 23 138 0.000000000000000 6.283185307179586
2  48 23 139 0.000000000000000 6.283185307179586
0

0101000
+27 139 -27 139 *
Wi

0101100
+26 7 +25 0 -24 23 -26 7 *
Fa
0  0.000000100000000 1 5

0101000
+23 6 *
Ve
0.000000100000000
2.968750000000000 55.000000000000000 -0.000000000000012
0 0

0101101
*
Ed
 0.000000100000000 1 1 0
1  4 0 0.000000000000000 1.414213562373095
3  49 50CN 2 0 0.000000000000000 1.414213562373095
0

0101000
+28 0 -21 0 *
Ed
 0.000000100000000 1 1 0
1  5 0 0.000000000000000 6.283185307179586
2  51 2 0 0.000000000000000 6.283185307179586
2  52 15 140 0.000000000000000 6.283185307179586
0

0101000
+21 0 -21 0 *
Wi

0101100
-20 0 +25 0 -19 0 +20 0 *
Fa
0  0.000000000000000 2 0

0101000
+18 0 *
Ve
0.000000100000000
3.968750000000000 -79.000000000000000 0.000000000000012
0 0

0101101
*
Ed
 0.000000100000000 1 1 0
1  6 0 0.000000000000000 24.000000000000000
3  53 54CN 23 0 0.000000000000000 24.000000000000000
0

0101000
-16 6 +27 0 *
Ed
 0.000000100000000 1 1 0
1  7 0 -0.000000000000001 6.283185307179585
2  55 24 0 -0.000000000000001 6.283185307179585
2  56 23 2 -0.000000000000001 6.283185307179585
0

0101000
+16 0 -16 0 *
Wi

0101100
+15 2 +14 0 -24 23 -15 2 *
Fa
0  0.000000100000000 23 0

0101000
+13 6 *
Wi

0101100
+19 0 *
Fa
0  0.000000100000000 15 0

0101000
+11 141 *
Ve
0.000000100000000
2.968750000000000 -80.000000000000000 0.000000000000014
0 0

0101101
*
Ed
 0.000000100000000 1 1 0
1  8 0 0.000000000000000 1.414213562373095
3  57 58CN 24 0 0.000000000000000 1.414213562373095
0

0101000
+16 0 -9 0 *
Ed
 0.000000100000000 1 1 0
1  9 0 -0.000000000000001 6.283185307179585
2  59 24 0 -0.000000000000001 6.283185307179585
2  60 15 142 -0.000000000000001 6.283185307179585
0

0101000
+9 0 -9 0 *
Wi

0101100
-8 0 +14 0 -7 0 +8 0 *
Fa
0  0.000000000000000 24 0

0101000
+6 0 *
Wi

0101100
+7 0 *
Fa
0  0.000000100000000 15 0

0101000
+4 143 *
Sh

0101100
+22 2 -17 0 -12 2 -10 140 +5 0 +3 142 *
So

0100000
+2 0 *

+1 1 