
CASCADE Topology V1, (c) Matra-Datavision
Locations 35
1
1.000000000000000 0.000000000000000 0.000000000000000 0.000000000000000 
0.000000000000000 1.000000000000000 0.000000000000000 0.000000000000000 
0.000000000000000 0.000000000000000 1.000000000000000 0.000000000000000 
1
1.000000000000000 0.000000000000000 0.000000000000000 0.000000000000000 
0.000000000000000 1.000000000000000 0.000000000000000 0.000000000000000 
0.000000000000000 0.000000000000000 1.000000000000000 0.000000000000000 
1
1.000000000000000 0.000000000000000 0.000000000000000 0.000000000000000 
0.000000000000000 1.000000000000000 0.000000000000000 0.000000000000000 
0.000000000000000 0.000000000000000 1.000000000000000 0.000000000000000 
1
1.000000000000000 0.000000000000000 0.000000000000000 0.000000000000000 
0.000000000000000 1.000000000000000 0.000000000000000 0.000000000000000 
0.000000000000000 0.000000000000000 1.000000000000000 0.000000000000000 
2  2 1 3 1 4 -1 0
1
1.000000000000000 0.000000000000000 0.000000000000000 0.000000000000000 
0.000000000000000 1.000000000000000 0.000000000000000 0.000000000000000 
0.000000000000000 0.000000000000000 1.000000000000000 0.000000000000000 
2  6 -1 4 1 3 -1 2 -1 0
2  3 1 4 -1 0
2  6 -1 4 1 3 -1 0
1
1.000000000000000 0.000000000000000 0.000000000000000 0.000000000000000 
0.000000000000000 1.000000000000000 0.000000000000000 0.000000000000000 
0.000000000000000 0.000000000000000 1.000000000000000 0.000000000000000 
1
1.000000000000000 0.000000000000000 0.000000000000000 0.000000000000000 
0.000000000000000 1.000000000000000 0.000000000000000 0.000000000000000 
0.000000000000000 -0.000000000000000 1.000000000000000 1.587500000000000 
2  10 1 11 1 4 -1 0
2  4 1 11 -1 10 -1 0
2  6 -1 4 1 11 -1 10 -1 0
2  2 -1 0
1
1.000000000000000 0.000000000000000 0.000000000000000 0.000000000000000 
0.000000000000000 -0.000000000000000 -1.000000000000000 0.000000000000000 
0.000000000000000 1.000000000000000 -0.000000000000000 0.000000000000000 
1
1.000000000000000 0.000000000000000 0.000000000000000 0.000000000000000 
0.000000000000000 1.000000000000000 0.000000000000000 0.000000000000000 
0.000000000000000 0.000000000000000 1.000000000000000 0.000000000000000 
1
1.000000000000000 0.000000000000000 0.000000000000000 0.000000000000000 
0.000000000000000 1.000000000000000 0.000000000000000 0.000000000000000 
0.000000000000000 0.000000000000000 1.000000000000000 0.000000000000000 
1
1.000000000000000 0.000000000000000 0.000000000000000 0.000000000000000 
0.000000000000000 0.000000000000000 -1.000000000000000 0.000000000000000 
0.000000000000000 1.000000000000000 0.000000000000000 0.000000000000000 
1
1.000000000000000 0.000000000000000 0.000000000000000 0.000000000000000 
0.000000000000000 1.000000000000000 0.000000000000000 0.000000000000000 
0.000000000000000 0.000000000000000 1.000000000000000 0.000000000000000 
1
1.000000000000000 0.000000000000000 0.000000000000000 0.000000000000000 
0.000000000000000 1.000000000000000 0.000000000000000 0.000000000000000 
0.000000000000000 0.000000000000000 1.000000000000000 0.000000000000000 
1
1.000000000000000 0.000000000000000 0.000000000000000 0.000000000000000 
0.000000000000000 1.000000000000000 0.000000000000000 0.000000000000000 
0.000000000000000 0.000000000000000 1.000000000000000 0.000000000000000 
1
1.000000000000000 0.000000000000000 0.000000000000000 0.000000000000000 
0.000000000000000 1.000000000000000 0.000000000000000 0.000000000000000 
0.000000000000000 0.000000000000000 1.000000000000000 0.000000000000000 
1
1.000000000000000 0.000000000000000 0.000000000000000 0.000000000000000 
0.000000000000000 1.000000000000000 0.000000000000000 0.000000000000000 
0.000000000000000 0.000000000000000 1.000000000000000 0.000000000000000 
1
1.000000000000000 0.000000000000000 0.000000000000000 0.000000000000000 
0.000000000000000 1.000000000000000 0.000000000000000 0.000000000000000 
0.000000000000000 0.000000000000000 1.000000000000000 0.000000000000000 
1
1.000000000000000 0.000000000000000 0.000000000000000 0.000000000000000 
0.000000000000000 1.000000000000000 0.000000000000000 0.000000000000000 
0.000000000000000 0.000000000000000 1.000000000000000 0.000000000000000 
1
1.000000000000000 0.000000000000000 0.000000000000000 -0.000000000000000 
0.000000000000000 1.000000000000000 0.000000000000000 -43.700000000000003 
0.000000000000000 0.000000000000000 1.000000000000000 0.000000000000010 
2  16 -1 17 1 18 1 19 1 20 1 21 1 22 1 23 1 24 1 25 1 26 -1 27 1 2 1 0
1
1.000000000000000 0.000000000000000 0.000000000000000 0.000000000000000 
0.000000000000000 1.000000000000000 0.000000000000000 87.400000000000006 
0.000000000000000 0.000000000000000 1.000000000000000 -0.000000000000019 
2  16 -1 17 1 18 1 19 1 20 1 21 1 22 1 23 1 24 1 25 1 26 -1 27 1 29 1 2 1 0
2  6 -1 0
2  16 -1 17 1 18 1 19 1 20 1 21 1 22 1 23 1 24 1 25 1 26 -1 27 1 2 1 3 1 4 -1 0
2  2 -1 27 -1 26 1 25 -1 24 -1 23 -1 22 -1 21 -1 20 -1 19 -1 18 -1 17 -1 16 1 0
2  16 -1 17 1 18 1 19 1 20 1 21 1 22 1 23 1 24 1 25 1 26 -1 27 1 29 1 2 1 3 1 4 -1 0
2  2 -1 29 -1 27 -1 26 1 25 -1 24 -1 23 -1 22 -1 21 -1 20 -1 19 -1 18 -1 17 -1 16 1 0
Curve2ds 88
1 3.14159265358979312 0.00000000000000000 0.00000000000000000 -1.00000000000000000 
1 0.00000000000000000 0.00000000000000000 0.00000000000000000 1.00000000000000000 
1 0.00000000000000000 0.00000000000000000 0.00000000000000000 1.00000000000000000 
1 3.14159265358979312 0.00000000000000000 0.00000000000000000 -1.00000000000000000 
1 0.00000000000000000 0.00000000000000000 1.00000000000000000 0.00000000000000000 
1 0.00000000000000000 0.00000000000000000 1.00000000000000000 0.00000000000000000 
1 4.71238898038468967 -1.00000000000000000 -1.00000000000000000 -0.00000000000000000 
1 0.00000000000000000 0.00000000000000000 1.00000000000000000 0.00000000000000000 
1 4.71238898038467013 -86.40000000000000568 -1.00000000000000000 -0.00000000000000000 
1 0.00000000000000000 0.00000000000000000 1.00000000000000000 0.00000000000000000 
1 4.71238898038468967 0.00000000000000000 0.00000000000000000 -1.00000000000000000 
1 0.00000000000000000 0.00000000000000000 1.00000000000000000 0.00000000000000000 
1 1.57079632679489656 0.00000000000000000 0.00000000000000000 1.00000000000000000 
1 1.57079632679489656 0.00000000000000000 0.00000000000000000 1.00000000000000000 
1 0.00000000000000000 23.39999999999999858 1.00000000000000000 0.00000000000000000 
1 0.00000000000000000 0.00000000000000000 0.00000000000000000 1.00000000000000000 
1 0.00000000000000000 0.00000000000000000 1.00000000000000000 0.00000000000000000 
1 1.57079632679487702 0.00000000000000000 0.00000000000000000 1.00000000000000000 
1 1.57079632679489656 0.00000000000000000 0.00000000000000000 1.00000000000000000 
1 0.00000000000000000 23.39999999999999858 1.00000000000000000 0.00000000000000000 
1 0.00000000000000000 0.00000000000000000 0.00000000000000000 1.00000000000000000 
1 3.14159265358979312 -1.00000000000000000 1.00000000000000000 0.00000000000000000 
1 0.00000000000000000 0.00000000000000000 1.00000000000000000 0.00000000000000000 
1 3.14159265358979312 -86.40000000000000568 1.00000000000000000 0.00000000000000000 
1 0.00000000000000000 0.00000000000000000 1.00000000000000000 0.00000000000000000 
1 4.71238898038468967 0.00000000000000000 0.00000000000000000 -1.00000000000000000 
1 0.00000000000000000 0.00000000000000000 0.00000000000000000 -1.00000000000000000 
1 6.28318530717958623 0.00000000000000000 0.00000000000000000 -1.00000000000000000 
1 0.00000000000000000 -3.17500000000000071 1.00000000000000000 0.00000000000000000 
1 0.00000000000000000 0.00000000000000000 0.00000000000000000 -1.00000000000000000 
1 6.28318530717958623 0.00000000000000000 0.00000000000000000 -1.00000000000000000 
1 0.00000000000000000 -3.17500000000000071 1.00000000000000000 0.00000000000000000 
1 0.00000000000000000 0.00000000000000000 0.00000000000000000 1.00000000000000000 
1 0.00000000000000000 1.17500000000000138 1.00000000000000000 0.00000000000000000 
1 0.00000000000000000 1.57079632679489656 1.00000000000000000 0.00000000000000000 
1 -0.00000000000001954 0.00000000000000000 0.00000000000000000 1.00000000000000000 
1 0.00000000000000000 1.17500000000000160 1.00000000000000000 0.00000000000000000 
1 0.00000000000000000 1.57079632679489656 1.00000000000000000 0.00000000000000000 
1 1.57079632679489700 0.00000000000000000 0.00000000000000000 -1.00000000000000000 
1 0.00000000000000000 0.00000000000000000 0.00000000000000000 1.00000000000000000 
1 0.00000000000000000 0.00000000000000000 0.00000000000000000 1.00000000000000000 
1 1.57079632679489656 0.00000000000000000 0.00000000000000000 1.00000000000000000 
1 1.57079632679489656 0.00000000000000000 0.00000000000000000 1.00000000000000000 
1 1.57079632679489656 0.00000000000000000 0.00000000000000000 1.00000000000000000 
1 0.00000000000000000 1.57079632679489656 1.00000000000000000 0.00000000000000000 
1 1.57079632679489656 0.00000000000000000 0.00000000000000000 1.00000000000000000 
1 0.00000000000000000 -0.00000000000000067 1.00000000000000000 0.00000000000000000 
1 1.57079632679489656 0.00000000000000000 0.00000000000000000 1.00000000000000000 
1 1.57079632679489656 0.00000000000000000 0.00000000000000000 1.00000000000000000 
1 1.57079632679489656 0.00000000000000000 0.00000000000000000 1.00000000000000000 
1 0.00000000000000000 1.57079632679489656 1.00000000000000000 0.00000000000000000 
1 1.57079632679489656 0.00000000000000000 0.00000000000000000 1.00000000000000000 
1 0.00000000000000000 -0.00000000000000075 1.00000000000000000 0.00000000000000000 
1 0.00000000000000000 0.00000000000000000 0.00000000000000000 1.00000000000000000 
1 0.00000000000000000 0.00000000000000000 0.00000000000000000 1.00000000000000000 
1 4.71238898038468967 0.00000000000000000 0.00000000000000000 -1.00000000000000000 
1 6.28318530717958623 0.00000000000000000 0.00000000000000000 -1.00000000000000000 
1 0.00000000000000000 0.00000000000000000 0.00000000000000000 1.00000000000000000 
1 0.00000000000000000 0.00000000000000000 0.00000000000000000 1.00000000000000000 
1 0.00000000000000000 0.00000000000000000 0.00000000000000000 -1.00000000000000000 
1 0.00000000000000000 -0.00000000000000066 1.00000000000000000 0.00000000000000000 
1 1.57079632679489700 0.00000000000000000 0.00000000000000000 1.00000000000000000 
1 0.00000000000000000 -0.00000000000000058 1.00000000000000000 0.00000000000000000 
1 1.57079632679489700 0.00000000000000000 0.00000000000000000 1.00000000000000000 
1 0.00000000000000000 -1.00000000000000000 1.00000000000000000 0.00000000000000000 
1 0.00000000000000000 0.00000000000000000 1.00000000000000000 0.00000000000000000 
1 0.00000000000000000 -86.40000000000000568 1.00000000000000000 0.00000000000000000 
1 0.00000000000000000 0.00000000000000000 1.00000000000000000 0.00000000000000000 
1 0.00000000000000000 1.17500000000000138 1.00000000000000000 0.00000000000000000 
1 0.00000000000000000 0.00000000000000000 0.00000000000000000 1.00000000000000000 
1 0.00000000000000000 0.00000000000000000 1.00000000000000000 0.00000000000000000 
1 1.57079632679489656 0.00000000000000000 0.00000000000000000 1.00000000000000000 
1 0.00000000000000000 23.39999999999999858 1.00000000000000000 0.00000000000000000 
1 0.00000000000000000 0.00000000000000000 0.00000000000000000 1.00000000000000000 
1 0.00000000000000000 1.17500000000000115 1.00000000000000000 0.00000000000000000 
1 0.00000000000000000 0.00000000000000000 0.00000000000000000 1.00000000000000000 
1 0.00000000000000000 0.00000000000000000 1.00000000000000000 0.00000000000000000 
1 1.57079632679489656 0.00000000000000000 0.00000000000000000 1.00000000000000000 
1 0.00000000000000000 23.39999999999999858 1.00000000000000000 0.00000000000000000 
1 0.00000000000000000 0.00000000000000000 0.00000000000000000 1.00000000000000000 
1 4.71238898038468967 -1.00000000000000000 1.00000000000000000 0.00000000000000000 
1 0.00000000000000000 0.00000000000000000 1.00000000000000000 0.00000000000000000 
1 4.71238898038468967 -86.40000000000000568 1.00000000000000000 0.00000000000000000 
1 0.00000000000000000 0.00000000000000000 1.00000000000000000 0.00000000000000000 
1 0.00000000000000000 1.57079632679489656 1.00000000000000000 0.00000000000000000 
1 0.00000000000000000 1.57079632679489656 1.00000000000000000 0.00000000000000000 
1 0.00000000000000000 1.57079632679489656 1.00000000000000000 0.00000000000000000 
1 0.00000000000000000 1.57079632679489656 1.00000000000000000 0.00000000000000000 
Curves 54
1 -11.69999999999999929 -43.70000000000000284 1.58750000000001057 0.00000000000000000 1.00000000000000000 -0.00000000000000022 
1 -11.69999999999999929 -42.70000000000000284 1.58750000000000968 1.00000000000000000 0.00000000000000000 0.00000000000000000 
1 -11.69999999999999929 42.70000000000000284 1.58749999999999103 1.00000000000000000 0.00000000000000000 0.00000000000000000 
1 11.69999999999999929 -43.70000000000000284 1.58750000000001057 0.00000000000000000 1.00000000000000000 -0.00000000000000022 
2 0.00000000000000000 31.00000000000000000 0.00000000000000000 0.00000000000000000 0.00000000000000000 1.00000000000000000 1.00000000000000000 0.00000000000000000 0.00000000000000000 0.00000000000000000 1.00000000000000000 0.00000000000000000 3.96875000000000000
2 0.00000000000000000 -31.00000000000000000 0.00000000000000000 0.00000000000000000 0.00000000000000000 1.00000000000000000 1.00000000000000000 0.00000000000000000 0.00000000000000000 0.00000000000000000 1.00000000000000000 0.00000000000000000 3.96875000000000000
2 -11.69999999999999929 -42.70000000000000284 0.58750000000001001 0.00000000000000000 1.00000000000000000 -0.00000000000000022 -1.00000000000000000 0.00000000000000000 0.00000000000000022 0.00000000000000022 0.00000000000000022 1.00000000000000000 1.00000000000000000
2 -11.69999999999999929 42.70000000000000284 0.58749999999999114 0.00000000000000000 1.00000000000000000 -0.00000000000000022 -1.00000000000000000 0.00000000000000000 0.00000000000000022 0.00000000000000022 0.00000000000000022 1.00000000000000000 1.00000000000000000
1 -12.69999999999999929 -43.70000000000000284 0.58750000000001068 0.00000000000000000 1.00000000000000000 -0.00000000000000022 
2 -11.69999999999999929 -42.70000000000000284 0.58750000000000968 1.00000000000000000 0.00000000000000000 -0.00000000000000000 0.00000000000000000 0.00000000000000022 1.00000000000000000 0.00000000000000000 -1.00000000000000000 0.00000000000000022 1.00000000000000000
1 -11.69999999999999929 -43.70000000000000284 0.58750000000001001 1.00000000000000000 0.00000000000000000 0.00000000000000000 
2 11.69999999999999929 -42.70000000000000284 0.58750000000000968 1.00000000000000000 0.00000000000000000 -0.00000000000000000 0.00000000000000000 0.00000000000000022 1.00000000000000000 0.00000000000000000 -1.00000000000000000 0.00000000000000022 1.00000000000000000
2 -11.69999999999999929 42.70000000000000284 0.58749999999999092 -1.00000000000000000 0.00000000000000000 0.00000000000000000 0.00000000000000000 0.00000000000000022 1.00000000000000000 0.00000000000000000 1.00000000000000000 -0.00000000000000022 1.00000000000000000
1 -11.69999999999999929 43.70000000000000284 0.58749999999999081 1.00000000000000000 0.00000000000000000 0.00000000000000000 
2 11.69999999999999929 42.70000000000000284 0.58749999999999092 -1.00000000000000000 0.00000000000000000 0.00000000000000000 0.00000000000000000 0.00000000000000022 1.00000000000000000 0.00000000000000000 1.00000000000000000 -0.00000000000000022 1.00000000000000000
2 11.69999999999999929 -42.70000000000000284 0.58750000000001001 0.00000000000000000 1.00000000000000000 -0.00000000000000022 0.00000000000000000 0.00000000000000022 1.00000000000000000 1.00000000000000000 0.00000000000000000 0.00000000000000000 1.00000000000000000
2 11.69999999999999929 42.70000000000000284 0.58749999999999114 0.00000000000000000 1.00000000000000000 -0.00000000000000022 0.00000000000000000 0.00000000000000022 1.00000000000000000 1.00000000000000000 0.00000000000000000 0.00000000000000000 1.00000000000000000
1 12.69999999999999929 -43.70000000000000284 0.58750000000001068 0.00000000000000000 1.00000000000000000 -0.00000000000000022 
1 3.96875000000000000 31.00000000000000000 1.58749999999999347 -0.00000000000000000 -0.00000000000000022 -1.00000000000000000 
2 0.00000000000000000 31.00000000000000000 -1.58750000000000724 -0.00000000000000000 0.00000000000000022 1.00000000000000000 1.00000000000000000 0.00000000000000000 0.00000000000000000 0.00000000000000000 1.00000000000000000 -0.00000000000000022 3.96875000000000000
1 3.96875000000000000 -31.00000000000000000 1.58750000000000724 -0.00000000000000000 -0.00000000000000022 -1.00000000000000000 
2 0.00000000000000000 -31.00000000000000000 -1.58749999999999347 -0.00000000000000000 0.00000000000000022 1.00000000000000000 1.00000000000000000 0.00000000000000000 0.00000000000000000 0.00000000000000000 1.00000000000000000 -0.00000000000000022 3.96875000000000000
2 -11.69999999999999929 -42.70000000000000284 0.58750000000001046 0.00000000000000000 0.00000000000000000 1.00000000000000000 -1.00000000000000000 0.00000000000000000 0.00000000000000000 0.00000000000000000 -1.00000000000000000 0.00000000000000000 1.00000000000000000
2 -11.69999999999999929 42.70000000000000284 0.58749999999999181 0.00000000000000000 0.00000000000000000 -1.00000000000000000 -1.00000000000000000 0.00000000000000000 0.00000000000000000 0.00000000000000000 1.00000000000000000 0.00000000000000000 1.00000000000000000
1 -12.69999999999999929 -43.70000000000000284 -0.58749999999999136 0.00000000000000000 1.00000000000000000 -0.00000000000000022 
1 -12.69999999999999929 -42.70000000000000284 -0.58749999999999092 0.00000000000000000 0.00000000000000000 1.00000000000000000 
1 -12.69999999999999929 42.70000000000000284 -0.58750000000000979 0.00000000000000000 0.00000000000000000 1.00000000000000000 
1 -11.69999999999999929 -43.70000000000000284 -0.58749999999999092 0.00000000000000000 0.00000000000000000 1.00000000000000000 
1 11.69999999999999929 -43.70000000000000284 0.58750000000000979 0.00000000000000000 0.00000000000000000 -1.00000000000000000 
1 11.69999999999999929 -43.70000000000000284 -0.58749999999999103 -1.00000000000000000 0.00000000000000000 0.00000000000000000 
2 11.69999999999999929 -42.70000000000000284 0.58750000000001001 0.00000000000000006 -0.00000000000000022 -1.00000000000000000 1.00000000000000000 0.00000000000000000 0.00000000000000006 0.00000000000000000 -1.00000000000000000 0.00000000000000022 1.00000000000000000
1 -11.69999999999999929 43.70000000000000284 -0.58750000000000979 0.00000000000000000 0.00000000000000000 1.00000000000000000 
1 11.69999999999999929 43.70000000000000284 0.58749999999999092 0.00000000000000000 0.00000000000000000 -1.00000000000000000 
1 11.69999999999999929 43.70000000000000284 -0.58750000000001024 -1.00000000000000000 0.00000000000000000 0.00000000000000000 
2 11.69999999999999929 42.70000000000000284 0.58749999999999114 -0.00000000000000006 0.00000000000000022 1.00000000000000000 1.00000000000000000 0.00000000000000000 0.00000000000000006 0.00000000000000000 1.00000000000000000 -0.00000000000000022 1.00000000000000000
1 12.69999999999999929 -42.70000000000000284 0.58750000000000979 0.00000000000000000 0.00000000000000000 -1.00000000000000000 
1 12.69999999999999929 42.70000000000000284 0.58749999999999092 0.00000000000000000 0.00000000000000000 -1.00000000000000000 
1 12.69999999999999929 -43.70000000000000284 -0.58749999999999136 0.00000000000000000 1.00000000000000000 -0.00000000000000022 
1 11.69999999999999929 -43.70000000000000284 -1.58749999999999147 0.00000000000000000 1.00000000000000000 -0.00000000000000022 
1 11.69999999999999929 -42.70000000000000284 -1.58749999999999103 -1.00000000000000000 0.00000000000000000 0.00000000000000000 
1 11.69999999999999929 42.70000000000000284 -1.58750000000000990 -1.00000000000000000 0.00000000000000000 0.00000000000000000 
1 -11.69999999999999929 -43.70000000000000284 -1.58749999999999147 0.00000000000000000 1.00000000000000000 -0.00000000000000022 
2 -11.69999999999999929 -42.70000000000000284 -0.58749999999999114 0.00000000000000038 0.00000000000000022 1.00000000000000000 -1.00000000000000000 0.00000000000000000 0.00000000000000038 0.00000000000000000 -1.00000000000000000 0.00000000000000022 1.00000000000000000
2 -11.69999999999999929 42.70000000000000284 -0.58750000000001001 -0.00000000000000038 -0.00000000000000022 -1.00000000000000000 -1.00000000000000000 0.00000000000000000 0.00000000000000038 0.00000000000000000 1.00000000000000000 -0.00000000000000022 1.00000000000000000
2 -11.69999999999999929 -42.70000000000000284 -0.58749999999999114 0.00000000000000000 1.00000000000000000 -0.00000000000000022 0.00000000000000000 -0.00000000000000022 -1.00000000000000000 -1.00000000000000000 0.00000000000000000 0.00000000000000000 1.00000000000000000
2 -11.69999999999999929 42.70000000000000284 -0.58750000000001001 0.00000000000000000 1.00000000000000000 -0.00000000000000022 0.00000000000000000 -0.00000000000000022 -1.00000000000000000 -1.00000000000000000 0.00000000000000000 0.00000000000000000 1.00000000000000000
2 11.69999999999999929 -42.70000000000000284 -0.58749999999999158 0.00000000000000000 0.00000000000000000 -1.00000000000000000 1.00000000000000000 0.00000000000000000 0.00000000000000000 0.00000000000000000 -1.00000000000000000 0.00000000000000000 1.00000000000000000
2 11.69999999999999929 -42.70000000000000284 -0.58749999999999114 -1.00000000000000000 -0.00000000000000000 -0.00000000000000029 0.00000000000000029 -0.00000000000000022 -1.00000000000000000 0.00000000000000000 -1.00000000000000000 0.00000000000000022 1.00000000000000000
2 -11.69999999999999929 -42.70000000000000284 -0.58749999999999114 -1.00000000000000000 0.00000000000000000 0.00000000000000000 -0.00000000000000000 -0.00000000000000022 -1.00000000000000000 0.00000000000000000 -1.00000000000000000 0.00000000000000022 1.00000000000000000
2 11.69999999999999929 42.70000000000000284 -0.58750000000001024 0.00000000000000000 0.00000000000000000 1.00000000000000000 1.00000000000000000 0.00000000000000000 0.00000000000000000 0.00000000000000000 1.00000000000000000 0.00000000000000000 1.00000000000000000
2 11.69999999999999929 42.70000000000000284 -0.58750000000001001 1.00000000000000000 0.00000000000000000 0.00000000000000028 0.00000000000000028 -0.00000000000000022 -1.00000000000000000 0.00000000000000000 1.00000000000000000 -0.00000000000000022 1.00000000000000000
2 -11.69999999999999929 42.70000000000000284 -0.58750000000000990 1.00000000000000000 -0.00000000000000000 0.00000000000000000 -0.00000000000000000 -0.00000000000000022 -1.00000000000000000 0.00000000000000000 1.00000000000000000 -0.00000000000000022 1.00000000000000000
2 11.69999999999999929 -42.70000000000000284 -0.58749999999999114 0.00000000000000000 1.00000000000000000 -0.00000000000000022 1.00000000000000000 0.00000000000000000 0.00000000000000022 0.00000000000000022 -0.00000000000000022 -1.00000000000000000 1.00000000000000000
2 11.69999999999999929 42.70000000000000284 -0.58750000000001001 0.00000000000000000 1.00000000000000000 -0.00000000000000022 1.00000000000000000 0.00000000000000000 0.00000000000000022 0.00000000000000022 -0.00000000000000022 -1.00000000000000000 1.00000000000000000
Polygon3D 0
PolygonOnTriangulations 0
Surfaces 28
1 -11.69999999999999929 -43.70000000000000284 1.58750000000000990 0.00000000000000000 -0.00000000000000022 -1.00000000000000000 1.00000000000000000 0.00000000000000000 0.00000000000000000 0.00000000000000000 -1.00000000000000000 0.00000000000000022 
2 -11.69999999999999929 -43.70000000000000284 0.58750000000001024 0.00000000000000000 -1.00000000000000000 0.00000000000000044 0.00000000000000000 -0.00000000000000044 -1.00000000000000000 1.00000000000000000 0.00000000000000000 0.00000000000000000 1.00000000000000000
2 -11.69999999999999929 -42.70000000000000284 0.58750000000000968 1.00000000000000000 0.00000000000000000 0.00000000000000000 0.00000000000000000 0.00000000000000022 1.00000000000000000 0.00000000000000000 -1.00000000000000000 0.00000000000000022 1.00000000000000000
2 -11.69999999999999929 42.70000000000000284 0.58749999999999092 1.00000000000000000 0.00000000000000000 0.00000000000000000 0.00000000000000000 0.00000000000000022 1.00000000000000000 0.00000000000000000 1.00000000000000000 -0.00000000000000022 1.00000000000000000
2 11.69999999999999929 -43.70000000000000284 0.58750000000001024 0.00000000000000000 -1.00000000000000000 0.00000000000000044 0.00000000000000000 -0.00000000000000044 -1.00000000000000000 -1.00000000000000000 0.00000000000000000 0.00000000000000000 1.00000000000000000
2 0.00000000000000000 31.00000000000000000 1.58749999999999347 0.00000000000000000 0.00000000000000022 1.00000000000000000 1.00000000000000000 0.00000000000000000 0.00000000000000000 0.00000000000000000 1.00000000000000000 -0.00000000000000022 3.96875000000000000
2 0.00000000000000000 -31.00000000000000000 1.58750000000000724 0.00000000000000000 0.00000000000000022 1.00000000000000000 1.00000000000000000 0.00000000000000000 0.00000000000000000 0.00000000000000000 1.00000000000000000 -0.00000000000000022 3.96875000000000000
4 -11.69999999999999929 -42.70000000000000284 0.58750000000001001 0.00000000000000000 -1.00000000000000000 0.00000000000000022 -1.00000000000000000 0.00000000000000000 0.00000000000000022 0.00000000000000022 0.00000000000000022 1.00000000000000000 1.00000000000000000
4 -11.69999999999999929 42.70000000000000284 0.58749999999999114 0.00000000000000000 1.00000000000000000 -0.00000000000000022 -1.00000000000000000 0.00000000000000000 0.00000000000000022 0.00000000000000022 0.00000000000000022 1.00000000000000000 1.00000000000000000
1 -12.69999999999999929 -43.70000000000000284 -0.58749999999999081 1.00000000000000000 0.00000000000000000 0.00000000000000000 0.00000000000000000 0.00000000000000000 1.00000000000000000 0.00000000000000000 -1.00000000000000000 0.00000000000000000 
1 0.00000000000000025 0.00000000000000000 0.00000000000000000 0.00000000000000000 1.00000000000000000 -0.00000000000000022 0.00000000000000000 0.00000000000000022 1.00000000000000000 1.00000000000000000 0.00000000000000000 0.00000000000000000 
4 11.69999999999999929 -42.70000000000000284 0.58750000000001001 0.00000000000000000 -1.00000000000000000 0.00000000000000022 0.00000000000000000 0.00000000000000022 1.00000000000000000 1.00000000000000000 0.00000000000000000 0.00000000000000000 1.00000000000000000
1 0.00000000000000025 0.00000000000000000 0.00000000000000000 0.00000000000000000 1.00000000000000000 -0.00000000000000022 0.00000000000000000 0.00000000000000022 1.00000000000000000 1.00000000000000000 0.00000000000000000 0.00000000000000000 
4 11.69999999999999929 42.70000000000000284 0.58749999999999114 0.00000000000000000 1.00000000000000000 -0.00000000000000022 0.00000000000000000 0.00000000000000022 1.00000000000000000 1.00000000000000000 0.00000000000000000 0.00000000000000000 1.00000000000000000
1 12.69999999999999929 -43.70000000000000284 0.58750000000000990 -1.00000000000000000 0.00000000000000000 0.00000000000000000 0.00000000000000000 0.00000000000000000 -1.00000000000000000 -0.00000000000000000 -1.00000000000000000 -0.00000000000000000 
2 -11.69999999999999929 -42.70000000000000284 -0.58749999999999092 0.00000000000000000 0.00000000000000000 1.00000000000000000 -1.00000000000000000 0.00000000000000000 0.00000000000000000 0.00000000000000000 -1.00000000000000000 0.00000000000000000 1.00000000000000000
2 -11.69999999999999929 42.70000000000000284 -0.58750000000000979 0.00000000000000000 0.00000000000000000 1.00000000000000000 -1.00000000000000000 0.00000000000000000 0.00000000000000000 0.00000000000000000 1.00000000000000000 0.00000000000000000 1.00000000000000000
2 -11.69999999999999929 -43.70000000000000284 -0.58749999999999092 0.00000000000000000 -1.00000000000000000 0.00000000000000044 0.00000000000000000 -0.00000000000000044 -1.00000000000000000 -1.00000000000000000 0.00000000000000000 0.00000000000000000 1.00000000000000000
2 11.69999999999999929 -42.70000000000000284 0.58750000000000979 0.00000000000000000 0.00000000000000000 -1.00000000000000000 1.00000000000000000 0.00000000000000000 0.00000000000000000 0.00000000000000000 -1.00000000000000000 0.00000000000000000 1.00000000000000000
2 11.69999999999999929 -42.70000000000000284 -0.58749999999999114 -1.00000000000000000 0.00000000000000000 0.00000000000000000 -0.00000000000000000 -0.00000000000000022 -1.00000000000000000 0.00000000000000000 -1.00000000000000000 0.00000000000000022 1.00000000000000000
2 11.69999999999999929 42.70000000000000284 0.58749999999999092 0.00000000000000000 0.00000000000000000 -1.00000000000000000 1.00000000000000000 0.00000000000000000 0.00000000000000000 0.00000000000000000 1.00000000000000000 0.00000000000000000 1.00000000000000000
2 11.69999999999999929 42.70000000000000284 -0.58750000000000990 -1.00000000000000000 0.00000000000000000 0.00000000000000000 -0.00000000000000000 -0.00000000000000022 -1.00000000000000000 0.00000000000000000 1.00000000000000000 -0.00000000000000022 1.00000000000000000
2 11.69999999999999929 -43.70000000000000284 -0.58749999999999092 0.00000000000000000 -1.00000000000000000 0.00000000000000044 0.00000000000000000 -0.00000000000000044 -1.00000000000000000 -1.00000000000000000 0.00000000000000000 0.00000000000000000 1.00000000000000000
1 11.69999999999999929 -43.70000000000000284 -1.58749999999999081 0.00000000000000000 0.00000000000000022 1.00000000000000000 -1.00000000000000000 0.00000000000000000 0.00000000000000000 0.00000000000000000 -1.00000000000000000 0.00000000000000022 
4 -11.69999999999999929 -42.70000000000000284 -0.58749999999999114 0.00000000000000000 -1.00000000000000000 0.00000000000000022 0.00000000000000000 -0.00000000000000022 -1.00000000000000000 -1.00000000000000000 -0.00000000000000000 -0.00000000000000000 1.00000000000000000
4 -11.69999999999999929 42.70000000000000284 -0.58750000000001001 0.00000000000000000 1.00000000000000000 -0.00000000000000022 0.00000000000000000 -0.00000000000000022 -1.00000000000000000 -1.00000000000000000 0.00000000000000000 0.00000000000000000 1.00000000000000000
4 11.69999999999999929 -42.70000000000000284 -0.58749999999999114 0.00000000000000000 -1.00000000000000000 0.00000000000000022 1.00000000000000000 0.00000000000000000 0.00000000000000022 0.00000000000000022 -0.00000000000000022 -1.00000000000000000 1.00000000000000000
4 11.69999999999999929 42.70000000000000284 -0.58750000000001001 0.00000000000000000 1.00000000000000000 -0.00000000000000022 1.00000000000000000 0.00000000000000000 0.00000000000000022 0.00000000000000022 -0.00000000000000022 -1.00000000000000000 1.00000000000000000
Triangulations 0

TShapes 152
Ve
0.000000100000000
-11.699999999999999 -42.700000000000003 1.587500000000010
0 0

0101101
*
Ve
0.000000100000000
-11.699999999999999 42.700000000000003 1.587499999999991
0 0

0101101
*
Ed
 0.000000100000000 1 1 0
1  1 0 1.000000000000000 86.400000000000006
2  1 2 0 1.000000000000000 86.400000000000006
4 C1 1 0 2 0
0

0101000
+152 7 -151 7 *
Ve
0.000000100000000
11.699999999999999 -42.700000000000003 1.587500000000010
0 0

0101101
*
Ed
 0.000000100000000 1 1 0
1  2 0 0.000000000000000 23.399999999999999
2  2 3 0 0.000000000000000 23.399999999999999
4 G1 1 2 3 0
0

0101000
+152 9 -149 9 *
Ve
0.000000100000000
11.699999999999999 42.700000000000003 1.587499999999991
0 0

0101101
*
Ed
 0.000000100000000 1 1 0
1  3 0 0.000000000000000 23.399999999999999
2  3 4 0 0.000000000000000 23.399999999999999
4 G1 1 2 4 0
0

0101000
+151 9 -147 9 *
Ed
 0.000000100000000 1 1 0
1  4 0 1.000000000000000 86.400000000000006
2  4 5 0 1.000000000000000 86.400000000000006
4 C1 1 0 5 0
0

0101000
+149 7 -147 7 *
Wi

0101100
+150 5 -148 8 +146 8 -145 5 *
Ve
0.000000100000000
3.968750000000000 31.000000000000000 1.587499999999993
0 0

0101101
*
Ed
 0.000000100000000 1 1 0
1  5 0 0.000000000000000 6.283185307179586
2  5 6 13 0.000000000000000 6.283185307179586
0

0101000
+143 14 -143 14 *
Wi

0101100
+142 12 *
Ve
0.000000100000000
3.968750000000000 -31.000000000000000 1.587500000000007
0 0

0101101
*
Ed
 0.000000100000000 1 1 0
1  6 0 0.000000000000000 6.283185307179586
2  6 7 13 0.000000000000000 6.283185307179586
0

0101000
+140 14 -140 14 *
Wi

0101100
+139 12 *
Fa
0  0.000000100000000 1 5

0111000
+144 0 +141 0 +138 0 *
Ve
0.000000100000000
-12.699999999999999 -42.700000000000003 0.587500000000010
0 0

0101101
*
Ed
 0.000000100000000 1 1 0
1  7 0 -0.000000000000000 1.570796326794897
2  7 2 2 -0.000000000000000 1.570796326794897
2  8 8 0 -0.000000000000000 1.570796326794897
4 G1 2 2 8 0
0

0101000
+136 9 -152 9 *
Ve
0.000000100000000
-12.699999999999999 42.700000000000003 0.587499999999992
0 0

0101101
*
Ed
 0.000000100000000 1 1 0
1  8 0 -0.000000000000020 1.570796326794877
2  9 2 2 -0.000000000000020 1.570796326794877
2  10 9 0 -0.000000000000020 1.570796326794877
4 G1 2 2 9 0
0

0101000
+134 9 -151 9 *
Ed
 0.000000100000000 1 1 0
1  9 0 1.000000000000000 86.400000000000006
2  11 2 0 1.000000000000000 86.400000000000006
4 C1 2 0 10 0
0

0101000
+136 7 -134 7 *
Wi

0101100
+150 2 +135 0 -133 0 -132 2 *
Fa
0  0.000000100000000 2 0

0111000
+131 15 *
Ve
0.000000100000000
-11.699999999999999 -43.700000000000003 0.587500000000010
0 0

0101101
*
Ed
 0.000000100000000 1 1 0
1  10 0 0.000000000000000 1.570796326794897
2  12 3 0 0.000000000000000 1.570796326794897
2  13 8 0 0.000000000000000 1.570796326794897
4 G1 3 0 8 0
0

0101000
+152 9 -129 9 *
Ve
0.000000100000000
11.699999999999999 -43.700000000000003 0.587500000000010
0 0

0101101
*
Ed
 0.000000100000000 1 1 0
1  11 0 0.000000000000000 23.399999999999999
2  14 3 0 0.000000000000000 23.399999999999999
4 G1 3 0 11 28
0

0101000
+129 9 -127 9 *
Ed
 0.000000100000000 1 1 0
1  12 0 0.000000000000000 1.570796326794897
2  15 3 0 0.000000000000000 1.570796326794897
2  16 12 0 0.000000000000000 1.570796326794897
4 G1 3 0 12 0
0

0101000
+149 9 -127 9 *
Wi

0101100
+128 0 -148 0 +126 0 -125 0 *
Fa
0  0.000000100000000 3 0

0111000
+124 0 *
Ve
0.000000100000000
-11.699999999999999 43.700000000000003 0.587499999999991
0 0

0101101
*
Ed
 0.000000100000000 1 1 0
1  13 0 0.000000000000000 1.570796326794897
2  17 4 0 0.000000000000000 1.570796326794897
2  18 9 0 0.000000000000000 1.570796326794897
4 G1 4 0 9 0
0

0101000
+151 9 -122 9 *
Ve
0.000000100000000
11.699999999999999 43.700000000000003 0.587499999999991
0 0

0101101
*
Ed
 0.000000100000000 1 1 0
1  14 0 0.000000000000000 23.399999999999999
2  19 4 0 0.000000000000000 23.399999999999999
4 G1 4 0 13 30
0

0101000
+122 9 -120 9 *
Ed
 0.000000100000000 1 1 0
1  15 0 0.000000000000000 1.570796326794897
2  20 4 0 0.000000000000000 1.570796326794897
2  21 14 0 0.000000000000000 1.570796326794897
4 G1 4 0 14 0
0

0101000
+147 9 -120 9 *
Wi

0101100
+121 0 -146 0 +119 0 -118 0 *
Fa
0  0.000000100000000 4 0

0111000
+117 0 *
Ve
0.000000100000000
12.699999999999999 -42.700000000000003 0.587500000000010
0 0

0101101
*
Ed
 0.000000100000000 1 1 0
1  16 0 0.000000000000000 1.570796326794897
2  22 5 2 0.000000000000000 1.570796326794897
2  23 12 0 0.000000000000000 1.570796326794897
4 G1 5 2 12 0
0

0101000
+149 9 -115 9 *
Ve
0.000000100000000
12.699999999999999 42.700000000000003 0.587499999999991
0 0

0101101
*
Ed
 0.000000100000000 1 1 0
1  17 0 0.000000000000000 1.570796326794897
2  24 5 2 0.000000000000000 1.570796326794897
2  25 14 0 0.000000000000000 1.570796326794897
4 G1 5 2 14 0
0

0101000
+147 9 -113 9 *
Ed
 0.000000100000000 1 1 0
1  18 0 1.000000000000000 86.400000000000006
2  26 5 0 1.000000000000000 86.400000000000006
4 C1 5 0 15 0
0

0101000
+115 7 -113 7 *
Wi

0101100
+145 2 -114 0 +112 0 -111 2 *
Fa
0  0.000000100000000 5 0

0111000
+110 15 *
Ve
0.000000100000000
3.968750000000000 31.000000000000000 -1.587500000000007
0 0

0101101
*
Ed
 0.000000100000000 1 1 0
1  19 0 0.000000000000000 3.175000000000001
3  27 28CN 6 0 0.000000000000000 3.175000000000001
0

0101000
+143 31 -108 31 *
Ed
 0.000000100000000 1 1 0
1  20 0 0.000000000000000 6.283185307179586
2  29 6 0 0.000000000000000 6.283185307179586
0

0101000
+108 31 -108 31 *
Wi

0101100
-142 12 -107 0 +106 0 +107 0 *
Fa
0  0.000000100000000 6 0

0111000
+105 0 *
Ve
0.000000100000000
3.968750000000000 -31.000000000000000 -1.587499999999993
0 0

0101101
*
Ed
 0.000000100000000 1 1 0
1  21 0 0.000000000000000 3.175000000000001
3  30 31CN 7 0 0.000000000000000 3.175000000000001
0

0101000
+140 31 -103 31 *
Ed
 0.000000100000000 1 1 0
1  22 0 0.000000000000000 6.283185307179586
2  32 7 0 0.000000000000000 6.283185307179586
0

0101000
+103 31 -103 31 *
Wi

0101100
-139 12 -102 0 +101 0 +102 0 *
Fa
0  0.000000100000000 7 0

0111000
+100 0 *
Ed
 0.000000100000000 1 1 0
1  23 0 0.000000000000000 1.570796326794897
2  33 8 0 0.000000000000000 1.570796326794897
2  34 16 0 0.000000000000000 1.570796326794897
4 G1 8 0 16 0
0

0101000
+136 9 -129 9 *
Ed
 0.000000100000000 1 1 1
2  35 8 0 -0.000000000000000 1.570796326794897
0

0101000
+129 9 -129 9 *
Wi

0101100
-98 0 +135 0 -97 0 +128 0 *
Fa
0  0.000000100000000 8 0

0111000
+96 0 *
Ed
 0.000000100000000 1 1 0
1  24 0 0.000000000000000 1.570796326794897
2  36 9 0 0.000000000000000 1.570796326794897
2  37 17 0 0.000000000000000 1.570796326794897
4 G1 9 0 17 0
0

0101000
+134 9 -122 9 *
Ed
 0.000000100000000 1 1 1
2  38 9 0 -0.000000000000020 1.570796326794877
0

0101000
+122 9 -122 9 *
Wi

0101100
-94 0 +133 0 -93 0 +121 0 *
Fa
0  0.000000100000000 9 0

0111000
+92 0 *
Ve
0.000000100000000
-12.699999999999999 -42.700000000000003 -0.587499999999991
0 0

0101101
*
Ve
0.000000100000000
-12.699999999999999 42.700000000000003 -0.587500000000010
0 0

0101101
*
Ed
 0.000000100000000 1 1 0
1  25 0 1.000000000000000 86.400000000000006
2  39 18 0 1.000000000000000 86.400000000000006
4 C1 10 0 18 0
0

0101000
+90 7 -89 7 *
Ed
 0.000000100000000 1 1 0
1  26 0 -0.000000000000001 1.175000000000001
2  40 16 0 -0.000000000000001 1.175000000000001
4 G1 10 2 16 0
0

0101000
+90 9 -136 9 *
Ed
 0.000000100000000 1 1 0
1  27 0 -0.000000000000001 1.175000000000002
2  41 17 0 -0.000000000000001 1.175000000000002
4 G1 10 2 17 0
0

0101000
+89 9 -134 9 *
Wi

0101100
+88 2 -87 0 +86 0 -132 2 *
Fa
0  0.000000100000000 10 0

0111000
+85 15 *
Ve
0.000000100000000
-11.699999999999999 -43.700000000000003 -0.587499999999991
0 0

0101101
*
Ed
 0.000000100000000 1 1 0
1  28 0 -0.000000000000001 1.175000000000001
2  42 16 0 -0.000000000000001 1.175000000000001
4 G1 11 28 16 0
0

0101000
+83 9 -129 9 *
Ve
0.000000100000000
11.699999999999999 -43.700000000000003 -0.587499999999992
0 0

0101101
*
Ed
 0.000000100000000 1 1 0
1  29 0 -0.000000000000001 1.175000000000001
2  43 19 0 -0.000000000000001 1.175000000000001
4 G1 11 28 19 0
0

0101000
+127 9 -81 9 *
Ed
 0.000000100000000 1 1 0
1  30 0 0.000000000000000 23.399999999999999
2  44 20 0 0.000000000000000 23.399999999999999
4 G1 11 28 20 0
0

0101000
+81 9 -83 9 *
Wi

0101100
+126 0 +82 0 +80 0 +79 0 *
Fa
0  0.000000100000000 11 0

0111000
+78 33 *
Ed
 0.000000100000000 1 1 1
2  45 12 0 0.000000000000000 1.570796326794897
0

0101000
+127 9 -127 9 *
Ed
 0.000000100000000 1 1 0
1  31 0 0.000000000000000 1.570796326794897
2  46 12 0 0.000000000000000 1.570796326794897
2  47 19 0 0.000000000000000 1.570796326794897
4 G1 12 0 19 0
0

0101000
+115 9 -127 9 *
Wi

0101100
-125 0 +114 0 -76 0 +75 0 *
Fa
0  0.000000100000000 12 0

0111000
+74 0 *
Ve
0.000000100000000
-11.699999999999999 43.700000000000003 -0.587500000000010
0 0

0101101
*
Ed
 0.000000100000000 1 1 0
1  32 0 -0.000000000000001 1.175000000000002
2  48 17 0 -0.000000000000001 1.175000000000002
4 G1 13 30 17 0
0

0101000
+72 9 -122 9 *
Ve
0.000000100000000
11.699999999999999 43.700000000000003 -0.587500000000010
0 0

0101101
*
Ed
 0.000000100000000 1 1 0
1  33 0 -0.000000000000001 1.175000000000001
2  49 21 0 -0.000000000000001 1.175000000000001
4 G1 13 30 21 0
0

0101000
+120 9 -70 9 *
Ed
 0.000000100000000 1 1 0
1  34 0 0.000000000000000 23.399999999999999
2  50 22 0 0.000000000000000 23.399999999999999
4 G1 13 30 22 0
0

0101000
+70 9 -72 9 *
Wi

0101100
+119 0 +71 0 +69 0 +68 0 *
Fa
0  0.000000100000000 13 0

0111000
+67 35 *
Ed
 0.000000100000000 1 1 1
2  51 14 0 0.000000000000000 1.570796326794897
0

0101000
+120 9 -120 9 *
Ed
 0.000000100000000 1 1 0
1  35 0 0.000000000000000 1.570796326794897
2  52 14 0 0.000000000000000 1.570796326794897
2  53 21 0 0.000000000000000 1.570796326794897
4 G1 14 0 21 0
0

0101000
+113 9 -120 9 *
Wi

0101100
-118 0 +112 0 -65 0 +64 0 *
Fa
0  0.000000100000000 14 0

0111000
+63 0 *
Ve
0.000000100000000
12.699999999999999 -42.700000000000003 -0.587499999999992
0 0

0101101
*
Ed
 0.000000100000000 1 1 0
1  36 0 -0.000000000000001 1.175000000000001
2  54 19 0 -0.000000000000001 1.175000000000001
4 G1 15 2 19 0
0

0101000
+115 9 -61 9 *
Ve
0.000000100000000
12.699999999999999 42.700000000000003 -0.587500000000010
0 0

0101101
*
Ed
 0.000000100000000 1 1 0
1  37 0 -0.000000000000001 1.175000000000001
2  55 21 0 -0.000000000000001 1.175000000000001
4 G1 15 2 21 0
0

0101000
+113 9 -59 9 *
Ed
 0.000000100000000 1 1 0
1  38 0 1.000000000000000 86.400000000000006
2  56 23 0 1.000000000000000 86.400000000000006
4 C1 15 0 23 0
0

0101000
+61 7 -59 7 *
Wi

0101100
+111 2 -60 0 +58 0 -57 2 *
Fa
0  0.000000100000000 15 0

0111000
+56 15 *
Ve
0.000000100000000
11.699999999999999 -42.700000000000003 -1.587499999999991
0 0

0101101
*
Ve
0.000000100000000
11.699999999999999 42.700000000000003 -1.587500000000010
0 0

0101101
*
Ed
 0.000000100000000 1 1 0
1  39 0 1.000000000000000 86.400000000000006
2  57 23 0 1.000000000000000 86.400000000000006
4 C1 24 0 23 0
0

0101000
+54 7 -53 7 *
Ve
0.000000100000000
-11.699999999999999 -42.700000000000003 -1.587499999999991
0 0

0101101
*
Ed
 0.000000100000000 1 1 0
1  40 0 0.000000000000000 23.399999999999999
2  58 20 0 0.000000000000000 23.399999999999999
4 G1 24 2 20 0
0

0101000
+54 9 -51 9 *
Ve
0.000000100000000
-11.699999999999999 42.700000000000003 -1.587500000000010
0 0

0101101
*
Ed
 0.000000100000000 1 1 0
1  41 0 0.000000000000000 23.399999999999999
2  59 22 0 0.000000000000000 23.399999999999999
4 G1 24 2 22 0
0

0101000
+53 9 -49 9 *
Ed
 0.000000100000000 1 1 0
1  42 0 1.000000000000000 86.400000000000006
2  60 18 0 1.000000000000000 86.400000000000006
4 C1 24 0 18 0
0

0101000
+51 7 -49 7 *
Wi

0101100
+52 5 -50 8 +48 8 -47 5 *
Wi

0101100
-106 0 *
Wi

0101100
-101 0 *
Fa
0  0.000000100000000 24 5

0111000
+46 0 +45 0 +44 0 *
Ed
 0.000000100000000 1 1 0
1  43 0 0.000000000000000 1.570796326794897
2  61 16 0 0.000000000000000 1.570796326794897
2  62 25 0 0.000000000000000 1.570796326794897
4 G1 16 0 25 0
0

0101000
+90 9 -83 9 *
Wi

0101100
+42 0 -87 0 +82 0 -98 0 *
Fa
0  0.000000100000000 16 0

0111000
+41 0 *
Ed
 0.000000100000000 1 1 0
1  44 0 0.000000000000000 1.570796326794897
2  63 17 0 0.000000000000000 1.570796326794897
2  64 26 0 0.000000000000000 1.570796326794897
4 G1 17 0 26 0
0

0101000
+89 9 -72 9 *
Wi

0101100
+39 0 -86 0 +71 0 -94 0 *
Fa
0  0.000000100000000 17 0

0111000
+38 0 *
Ed
 0.000000100000000 1 1 0
1  45 0 0.000000000000000 1.570796326794897
2  65 18 2 0.000000000000000 1.570796326794897
2  66 25 0 0.000000000000000 1.570796326794897
4 G1 18 2 25 0
0

0101000
+51 9 -90 9 *
Ed
 0.000000100000000 1 1 0
1  46 0 0.000000000000000 1.570796326794897
2  67 18 2 0.000000000000000 1.570796326794897
2  68 26 0 0.000000000000000 1.570796326794897
4 G1 18 2 26 0
0

0101000
+49 9 -89 9 *
Wi

0101100
+47 2 -36 0 +35 0 -88 2 *
Fa
0  0.000000100000000 18 0

0111000
+34 15 *
Ed
 0.000000100000000 1 1 0
1  47 0 0.000000000000000 1.570796326794897
2  69 19 0 0.000000000000000 1.570796326794897
2  70 27 0 0.000000000000000 1.570796326794897
4 G1 19 0 27 0
0

0101000
+61 9 -81 9 *
Wi

0101100
+75 0 -60 0 +80 0 -32 0 *
Fa
0  0.000000100000000 19 0

0111000
+31 0 *
Ed
 0.000000100000000 1 1 0
1  48 0 0.000000000000000 1.570796326794897
2  71 20 0 0.000000000000000 1.570796326794897
2  72 27 0 0.000000000000000 1.570796326794897
4 G1 20 0 27 0
0

0101000
+54 9 -81 9 *
Ed
 0.000000100000000 1 1 0
1  49 0 0.000000000000000 1.570796326794897
2  73 20 0 0.000000000000000 1.570796326794897
2  74 25 0 0.000000000000000 1.570796326794897
4 G1 20 0 25 0
0

0101000
+51 9 -83 9 *
Wi

0101100
+29 0 -50 0 +79 0 -28 0 *
Fa
0  0.000000100000000 20 0

0111000
+27 0 *
Ed
 0.000000100000000 1 1 0
1  50 0 0.000000000000000 1.570796326794897
2  75 21 0 0.000000000000000 1.570796326794897
2  76 28 0 0.000000000000000 1.570796326794897
4 G1 21 0 28 0
0

0101000
+59 9 -70 9 *
Wi

0101100
+64 0 -58 0 +69 0 -25 0 *
Fa
0  0.000000100000000 21 0

0111000
+24 0 *
Ed
 0.000000100000000 1 1 0
1  51 0 0.000000000000000 1.570796326794897
2  77 22 0 0.000000000000000 1.570796326794897
2  78 28 0 0.000000000000000 1.570796326794897
4 G1 22 0 28 0
0

0101000
+53 9 -70 9 *
Ed
 0.000000100000000 1 1 0
1  52 0 0.000000000000000 1.570796326794897
2  79 22 0 0.000000000000000 1.570796326794897
2  80 26 0 0.000000000000000 1.570796326794897
4 G1 22 0 26 0
0

0101000
+49 9 -72 9 *
Wi

0101100
+22 0 -48 0 +68 0 -21 0 *
Fa
0  0.000000100000000 22 0

0111000
+20 0 *
Ed
 0.000000100000000 1 1 0
1  53 0 0.000000000000000 1.570796326794897
2  81 23 2 0.000000000000000 1.570796326794897
2  82 27 0 0.000000000000000 1.570796326794897
4 G1 23 2 27 0
0

0101000
+61 9 -54 9 *
Ed
 0.000000100000000 1 1 0
1  54 0 0.000000000000000 1.570796326794897
2  83 23 2 0.000000000000000 1.570796326794897
2  84 28 0 0.000000000000000 1.570796326794897
4 G1 23 2 28 0
0

0101000
+59 9 -53 9 *
Wi

0101100
+57 2 -18 0 +17 0 -52 2 *
Fa
0  0.000000100000000 23 0

0111000
+16 15 *
Ed
 0.000000100000000 1 1 1
2  85 25 0 0.000000000000000 1.570796326794897
0

0101000
+83 9 -83 9 *
Wi

0101100
-28 0 +36 0 -14 0 +42 0 *
Fa
0  0.000000100000000 25 0

0111000
+13 0 *
Ed
 0.000000100000000 1 1 1
2  86 26 0 0.000000000000000 1.570796326794897
0

0101000
+72 9 -72 9 *
Wi

0101100
-21 0 +35 0 -11 0 +39 0 *
Fa
0  0.000000100000000 26 0

0111000
+10 0 *
Ed
 0.000000100000000 1 1 1
2  87 27 0 0.000000000000000 1.570796326794897
0

0101000
+81 9 -81 9 *
Wi

0101100
-32 0 +18 0 -8 0 +29 0 *
Fa
0  0.000000100000000 27 0

0111000
+7 0 *
Ed
 0.000000100000000 1 1 1
2  88 28 0 0.000000000000000 1.570796326794897
0

0101000
+70 9 -70 9 *
Wi

0101100
-25 0 +17 0 -5 0 +22 0 *
Fa
0  0.000000100000000 28 0

0111000
+4 0 *
Sh

0101100
-137 0 +130 5 +123 8 -116 8 -109 5 -104 0 -99 0 -95 8 +91 8 -84 5 
-77 32 -73 8 +66 34 +62 8 -55 5 -43 0 +40 8 -37 8 -33 5 +30 8 
+26 8 -23 8 -19 8 -15 5 -12 8 +9 8 -6 8 +3 8 *
So

1100000
+2 0 *

+1 1 