
CASCADE Topology V1, (c) Matra-Datavision
Locations 20
1
1.000000000000000 0.000000000000000 0.000000000000000 0.000000000000000 
0.000000000000000 1.000000000000000 0.000000000000000 0.000000000000000 
0.000000000000000 0.000000000000000 1.000000000000000 0.000000000000000 
1
1.000000000000000 0.000000000000000 0.000000000000000 0.000000000000000 
0.000000000000000 1.000000000000000 0.000000000000000 0.000000000000000 
0.000000000000000 0.000000000000000 1.000000000000000 0.000000000000000 
2  2 -1 0
1
1.000000000000000 0.000000000000000 0.000000000000000 0.000000000000000 
0.000000000000000 -0.000000000000000 -1.000000000000000 0.000000000000000 
0.000000000000000 1.000000000000000 -0.000000000000000 0.000000000000000 
1
1.000000000000000 0.000000000000000 0.000000000000000 0.000000000000000 
0.000000000000000 1.000000000000000 0.000000000000000 0.000000000000000 
0.000000000000000 0.000000000000000 1.000000000000000 0.000000000000000 
1
1.000000000000000 0.000000000000000 0.000000000000000 0.000000000000000 
0.000000000000000 1.000000000000000 0.000000000000000 0.000000000000000 
0.000000000000000 0.000000000000000 1.000000000000000 0.000000000000000 
1
1.000000000000000 0.000000000000000 0.000000000000000 0.000000000000000 
0.000000000000000 0.000000000000000 -1.000000000000000 0.000000000000000 
0.000000000000000 1.000000000000000 0.000000000000000 0.000000000000000 
1
1.000000000000000 0.000000000000000 0.000000000000000 0.000000000000000 
0.000000000000000 1.000000000000000 0.000000000000000 0.000000000000000 
0.000000000000000 0.000000000000000 1.000000000000000 0.000000000000000 
1
1.000000000000000 0.000000000000000 0.000000000000000 0.000000000000000 
0.000000000000000 1.000000000000000 0.000000000000000 0.000000000000000 
0.000000000000000 0.000000000000000 1.000000000000000 0.000000000000000 
1
1.000000000000000 0.000000000000000 0.000000000000000 0.000000000000000 
0.000000000000000 1.000000000000000 0.000000000000000 0.000000000000000 
0.000000000000000 0.000000000000000 1.000000000000000 0.000000000000000 
1
1.000000000000000 0.000000000000000 0.000000000000000 0.000000000000000 
0.000000000000000 1.000000000000000 0.000000000000000 0.000000000000000 
0.000000000000000 0.000000000000000 1.000000000000000 0.000000000000000 
1
1.000000000000000 0.000000000000000 0.000000000000000 0.000000000000000 
0.000000000000000 1.000000000000000 0.000000000000000 0.000000000000000 
0.000000000000000 0.000000000000000 1.000000000000000 0.000000000000000 
1
1.000000000000000 0.000000000000000 0.000000000000000 0.000000000000000 
0.000000000000000 1.000000000000000 0.000000000000000 0.000000000000000 
0.000000000000000 0.000000000000000 1.000000000000000 0.000000000000000 
1
1.000000000000000 0.000000000000000 0.000000000000000 0.000000000000000 
0.000000000000000 1.000000000000000 0.000000000000000 0.000000000000000 
0.000000000000000 0.000000000000000 1.000000000000000 0.000000000000000 
1
1.000000000000000 0.000000000000000 0.000000000000000 -0.000000000000000 
0.000000000000000 1.000000000000000 0.000000000000000 -43.700000000000003 
0.000000000000000 0.000000000000000 1.000000000000000 0.000000000000010 
2  4 -1 5 1 6 1 7 1 8 1 9 1 10 1 11 1 12 1 13 1 14 -1 15 1 2 1 0
1
1.000000000000000 0.000000000000000 0.000000000000000 0.000000000000000 
0.000000000000000 1.000000000000000 0.000000000000000 87.400000000000006 
0.000000000000000 0.000000000000000 1.000000000000000 -0.000000000000019 
2  4 -1 5 1 6 1 7 1 8 1 9 1 10 1 11 1 12 1 13 1 14 -1 15 1 17 1 2 1 0
2  2 -1 15 -1 14 1 13 -1 12 -1 11 -1 10 -1 9 -1 8 -1 7 -1 6 -1 5 -1 4 1 0
2  2 -1 17 -1 15 -1 14 1 13 -1 12 -1 11 -1 10 -1 9 -1 8 -1 7 -1 6 -1 5 -1 4 1 0
Curve2ds 100
1 3.14159265358979312 0.00000000000000000 0.00000000000000000 -1.00000000000000000 
1 0.00000000000000000 0.00000000000000000 0.00000000000000000 -1.00000000000000000 
1 0.00000000000000000 0.00000000000000000 0.00000000000000000 1.00000000000000000 
1 0.00000000000000000 -1.00000000000000000 1.00000000000000000 0.00000000000000000 
1 0.00000000000000000 0.00000000000000000 0.00000000000000000 1.00000000000000000 
1 0.00000000000000000 -86.40000000000000568 1.00000000000000000 0.00000000000000000 
1 3.14159265358979312 0.00000000000000000 0.00000000000000000 -1.00000000000000000 
1 23.39999999999999858 0.00000000000000000 0.00000000000000000 -1.00000000000000000 
1 0.00000000000000000 0.00000000000000000 1.00000000000000000 0.00000000000000000 
1 4.71238898038468967 -1.00000000000000000 -1.00000000000000000 -0.00000000000000000 
1 0.00000000000000000 0.00000000000000000 1.00000000000000000 0.00000000000000000 
1 4.71238898038467013 -86.40000000000000568 -1.00000000000000000 -0.00000000000000000 
1 4.71238898038468967 0.00000000000000000 0.00000000000000000 -1.00000000000000000 
8 0.00000000000000000 1.57079632679489656
1 0.00000000000000000 0.00000000000000000 1.00000000000000000 0.00000000000000000 
8 0.00000000000000000 1.57079632679489656
1 1.57079632679489656 0.00000000000000000 0.00000000000000000 1.00000000000000000 
1 1.57079632679489656 0.00000000000000000 0.00000000000000000 1.00000000000000000 
1 0.58750000000000036 -11.69999999999999929 0.00000000000000000 1.00000000000000000 
8 0.00000000000000000 1.57079632679489656
1 0.00000000000000000 23.39999999999999858 1.00000000000000000 0.00000000000000000 
8 0.00000000000000000 1.57079632679489656
1 0.00000000000000000 0.00000000000000000 0.00000000000000000 1.00000000000000000 
8 0.00000000000000000 1.57079632679489656
1 0.00000000000000000 0.00000000000000000 1.00000000000000000 0.00000000000000000 
8 0.00000000000000000 1.57079632679489656
1 1.57079632679487702 0.00000000000000000 0.00000000000000000 1.00000000000000000 
1 1.57079632679489656 0.00000000000000000 0.00000000000000000 1.00000000000000000 
1 0.58750000000000047 -11.69999999999999929 0.00000000000000000 1.00000000000000000 
8 0.00000000000000000 1.57079632679489656
1 0.00000000000000000 23.39999999999999858 1.00000000000000000 0.00000000000000000 
8 0.00000000000000000 1.57079632679489656
1 0.00000000000000000 0.00000000000000000 0.00000000000000000 1.00000000000000000 
1 0.00000000000000000 0.00000000000000000 1.00000000000000000 0.00000000000000000 
1 3.14159265358979312 -1.00000000000000000 1.00000000000000000 0.00000000000000000 
1 0.00000000000000000 0.00000000000000000 1.00000000000000000 0.00000000000000000 
1 3.14159265358979312 -86.40000000000000568 1.00000000000000000 0.00000000000000000 
1 4.71238898038468967 0.00000000000000000 0.00000000000000000 -1.00000000000000000 
8 0.00000000000000000 1.57079632679489656
1 0.00000000000000000 1.17500000000000138 1.00000000000000000 0.00000000000000000 
8 0.00000000000000000 1.57079632679489656
1 0.00000000000000000 0.00000000000000000 0.00000000000000000 1.00000000000000000 
1 0.00000000000000000 1.57079632679489656 1.00000000000000000 0.00000000000000000 
8 0.00000000000000000 1.57079632679489656
1 0.00000000000000000 1.17500000000000160 1.00000000000000000 0.00000000000000000 
8 0.00000000000000000 1.57079632679489656
1 -0.00000000000001954 0.00000000000000000 0.00000000000000000 1.00000000000000000 
1 0.00000000000000000 1.57079632679489656 1.00000000000000000 0.00000000000000000 
1 1.57079632679489700 0.00000000000000000 0.00000000000000000 -1.00000000000000000 
1 0.00000000000000000 0.00000000000000000 0.00000000000000000 1.00000000000000000 
1 -0.00000000000000011 -1.00000000000000000 1.00000000000000000 0.00000000000000000 
1 0.00000000000000000 0.00000000000000000 0.00000000000000000 1.00000000000000000 
1 -0.00000000000001898 -86.40000000000000568 1.00000000000000000 0.00000000000000000 
1 1.57079632679489656 0.00000000000000000 0.00000000000000000 1.00000000000000000 
1 -0.58750000000000058 -11.69999999999999929 1.00000000000000000 0.00000000000000000 
1 1.57079632679489656 0.00000000000000000 0.00000000000000000 1.00000000000000000 
1 0.58750000000000013 11.69999999999999929 -1.00000000000000000 0.00000000000000000 
1 1.57079632679489656 0.00000000000000000 0.00000000000000000 1.00000000000000000 
1 -0.58750000000000069 11.69999999999999929 0.00000000000000000 -1.00000000000000000 
1 0.00000000000000000 1.57079632679489656 1.00000000000000000 0.00000000000000000 
8 0.00000000000000000 1.57079632679489656
1 1.57079632679489656 0.00000000000000000 0.00000000000000000 1.00000000000000000 
8 0.00000000000000000 1.57079632679489656
1 0.00000000000000000 -0.00000000000000067 1.00000000000000000 0.00000000000000000 
1 1.57079632679489656 0.00000000000000000 0.00000000000000000 1.00000000000000000 
1 -0.58750000000000013 -11.69999999999999929 1.00000000000000000 0.00000000000000000 
1 1.57079632679489656 0.00000000000000000 0.00000000000000000 1.00000000000000000 
1 0.58750000000000058 11.69999999999999929 -1.00000000000000000 0.00000000000000000 
1 1.57079632679489656 0.00000000000000000 0.00000000000000000 1.00000000000000000 
1 -0.58750000000000058 11.69999999999999929 0.00000000000000000 -1.00000000000000000 
1 0.00000000000000000 1.57079632679489656 1.00000000000000000 0.00000000000000000 
8 0.00000000000000000 1.57079632679489656
1 1.57079632679489656 0.00000000000000000 0.00000000000000000 1.00000000000000000 
8 0.00000000000000000 1.57079632679489656
1 0.00000000000000000 -0.00000000000000075 1.00000000000000000 0.00000000000000000 
1 0.00000000000000000 0.00000000000000000 0.00000000000000000 1.00000000000000000 
1 0.00000000000000011 -1.00000000000000000 1.00000000000000000 0.00000000000000000 
1 0.00000000000000000 0.00000000000000000 0.00000000000000000 1.00000000000000000 
1 0.00000000000001898 -86.40000000000000568 1.00000000000000000 0.00000000000000000 
1 4.71238898038468967 0.00000000000000000 0.00000000000000000 -1.00000000000000000 
8 0.00000000000000000 1.57079632679489656
1 1.57079632679489700 0.00000000000000000 0.00000000000000000 1.00000000000000000 
8 0.00000000000000000 1.57079632679489656
1 0.00000000000000000 -0.00000000000000066 1.00000000000000000 0.00000000000000000 
8 0.00000000000000000 1.57079632679489656
1 1.57079632679489700 0.00000000000000000 0.00000000000000000 1.00000000000000000 
8 0.00000000000000000 1.57079632679489656
1 0.00000000000000000 -0.00000000000000058 1.00000000000000000 0.00000000000000000 
1 0.00000000000000000 0.00000000000000000 0.00000000000000000 -1.00000000000000000 
1 23.39999999999999858 0.00000000000000000 0.00000000000000000 -1.00000000000000000 
1 0.00000000000000000 0.00000000000000000 1.00000000000000000 0.00000000000000000 
1 0.00000000000000000 -1.00000000000000000 1.00000000000000000 0.00000000000000000 
1 0.00000000000000000 0.00000000000000000 1.00000000000000000 0.00000000000000000 
1 0.00000000000000000 -86.40000000000000568 1.00000000000000000 0.00000000000000000 
8 0.00000000000000000 1.57079632679489656
1 0.00000000000000000 1.17500000000000138 1.00000000000000000 0.00000000000000000 
8 0.00000000000000000 1.57079632679489656
1 0.00000000000000000 0.00000000000000000 0.00000000000000000 1.00000000000000000 
8 0.00000000000000000 1.57079632679489656
1 1.57079632679489656 0.00000000000000000 0.00000000000000000 1.00000000000000000 
8 0.00000000000000000 1.57079632679489656
1 0.00000000000000000 0.00000000000000000 1.00000000000000000 0.00000000000000000 
1 0.00000000000000000 0.00000000000000000 0.00000000000000000 1.00000000000000000 
1 0.00000000000000000 -1.00000000000000000 1.00000000000000000 0.00000000000000000 
8 0.00000000000000000 1.57079632679489656
1 0.00000000000000000 23.39999999999999858 1.00000000000000000 0.00000000000000000 
8 0.00000000000000000 1.57079632679489656
1 0.00000000000000000 0.00000000000000000 0.00000000000000000 1.00000000000000000 
8 0.00000000000000000 1.57079632679489656
1 0.00000000000000000 1.17500000000000115 1.00000000000000000 0.00000000000000000 
8 0.00000000000000000 1.57079632679489656
1 0.00000000000000000 0.00000000000000000 0.00000000000000000 1.00000000000000000 
8 0.00000000000000000 1.57079632679489656
1 1.57079632679489656 0.00000000000000000 0.00000000000000000 1.00000000000000000 
8 0.00000000000000000 1.57079632679489656
1 0.00000000000000000 0.00000000000000000 1.00000000000000000 0.00000000000000000 
1 0.00000000000000000 0.00000000000000000 0.00000000000000000 1.00000000000000000 
1 0.00000000000000000 -86.40000000000000568 1.00000000000000000 0.00000000000000000 
8 0.00000000000000000 1.57079632679489656
1 0.00000000000000000 23.39999999999999858 1.00000000000000000 0.00000000000000000 
8 0.00000000000000000 1.57079632679489656
1 0.00000000000000000 0.00000000000000000 0.00000000000000000 1.00000000000000000 
1 0.00000000000000000 0.00000000000000000 1.00000000000000000 0.00000000000000000 
1 4.71238898038468967 -1.00000000000000000 1.00000000000000000 0.00000000000000000 
1 0.00000000000000000 0.00000000000000000 1.00000000000000000 0.00000000000000000 
1 4.71238898038468967 -86.40000000000000568 1.00000000000000000 0.00000000000000000 
1 6.28318530717958623 0.00000000000000000 0.00000000000000000 -1.00000000000000000 
1 0.00000000000000000 0.00000000000000000 0.00000000000000000 -1.00000000000000000 
1 0.00000000000000000 1.57079632679489656 1.00000000000000000 0.00000000000000000 
1 0.00000000000000000 1.57079632679489656 1.00000000000000000 0.00000000000000000 
1 0.00000000000000000 1.57079632679489656 1.00000000000000000 0.00000000000000000 
1 0.00000000000000000 1.57079632679489656 1.00000000000000000 0.00000000000000000 
Curves 48
1 -11.69999999999999929 -43.70000000000000284 1.58750000000001057 0.00000000000000000 1.00000000000000000 -0.00000000000000022 
1 -11.69999999999999929 -42.70000000000000284 1.58750000000000968 1.00000000000000000 0.00000000000000000 0.00000000000000000 
1 -11.69999999999999929 42.70000000000000284 1.58749999999999103 1.00000000000000000 0.00000000000000000 0.00000000000000000 
1 11.69999999999999929 -43.70000000000000284 1.58750000000001057 0.00000000000000000 1.00000000000000000 -0.00000000000000022 
2 -11.69999999999999929 -42.70000000000000284 0.58750000000001001 0.00000000000000000 1.00000000000000000 -0.00000000000000022 -1.00000000000000000 0.00000000000000000 0.00000000000000022 0.00000000000000022 0.00000000000000022 1.00000000000000000 1.00000000000000000
2 -11.69999999999999929 42.70000000000000284 0.58749999999999114 0.00000000000000000 1.00000000000000000 -0.00000000000000022 -1.00000000000000000 0.00000000000000000 0.00000000000000022 0.00000000000000022 0.00000000000000022 1.00000000000000000 1.00000000000000000
1 -12.69999999999999929 -43.70000000000000284 0.58750000000001068 0.00000000000000000 1.00000000000000000 -0.00000000000000022 
2 -11.69999999999999929 -42.70000000000000284 0.58750000000000968 1.00000000000000000 0.00000000000000000 0.00000000000000000 -0.00000000000000000 0.00000000000000022 1.00000000000000000 0.00000000000000000 -1.00000000000000000 0.00000000000000022 1.00000000000000000
1 -11.69999999999999929 -43.70000000000000284 0.58750000000001001 1.00000000000000000 0.00000000000000000 0.00000000000000000 
2 11.69999999999999929 -42.70000000000000284 0.58750000000000968 1.00000000000000000 0.00000000000000000 0.00000000000000000 -0.00000000000000000 0.00000000000000022 1.00000000000000000 0.00000000000000000 -1.00000000000000000 0.00000000000000022 1.00000000000000000
2 -11.69999999999999929 42.70000000000000284 0.58749999999999092 -1.00000000000000000 -0.00000000000000000 -0.00000000000000000 -0.00000000000000000 0.00000000000000022 1.00000000000000000 0.00000000000000000 1.00000000000000000 -0.00000000000000022 1.00000000000000000
1 -11.69999999999999929 43.70000000000000284 0.58749999999999081 1.00000000000000000 0.00000000000000000 0.00000000000000000 
2 11.69999999999999929 42.70000000000000284 0.58749999999999092 -1.00000000000000000 -0.00000000000000000 -0.00000000000000000 -0.00000000000000000 0.00000000000000022 1.00000000000000000 0.00000000000000000 1.00000000000000000 -0.00000000000000022 1.00000000000000000
2 11.69999999999999929 -42.70000000000000284 0.58750000000001001 0.00000000000000000 1.00000000000000000 -0.00000000000000022 0.00000000000000000 0.00000000000000022 1.00000000000000000 1.00000000000000000 -0.00000000000000000 0.00000000000000000 1.00000000000000000
2 11.69999999999999929 42.70000000000000284 0.58749999999999114 0.00000000000000000 1.00000000000000000 -0.00000000000000022 0.00000000000000000 0.00000000000000022 1.00000000000000000 1.00000000000000000 -0.00000000000000000 0.00000000000000000 1.00000000000000000
1 12.69999999999999929 -43.70000000000000284 0.58750000000001068 0.00000000000000000 1.00000000000000000 -0.00000000000000022 
2 -11.69999999999999929 -42.70000000000000284 0.58750000000001046 0.00000000000000000 0.00000000000000000 1.00000000000000000 -1.00000000000000000 -0.00000000000000000 0.00000000000000000 0.00000000000000000 -1.00000000000000000 0.00000000000000000 1.00000000000000000
2 -11.69999999999999929 42.70000000000000284 0.58749999999999181 -0.00000000000000000 -0.00000000000000000 -1.00000000000000000 -1.00000000000000000 0.00000000000000000 0.00000000000000000 0.00000000000000000 1.00000000000000000 -0.00000000000000000 1.00000000000000000
1 -12.69999999999999929 -43.70000000000000284 -0.58749999999999136 0.00000000000000000 1.00000000000000000 -0.00000000000000022 
1 -12.69999999999999929 -42.70000000000000284 -0.58749999999999092 0.00000000000000000 0.00000000000000000 1.00000000000000000 
1 -12.69999999999999929 42.70000000000000284 -0.58750000000000979 0.00000000000000000 0.00000000000000000 1.00000000000000000 
1 -11.69999999999999929 -43.70000000000000284 -0.58749999999999092 0.00000000000000000 0.00000000000000000 1.00000000000000000 
1 11.69999999999999929 -43.70000000000000284 0.58750000000000979 0.00000000000000000 0.00000000000000000 -1.00000000000000000 
1 11.69999999999999929 -43.70000000000000284 -0.58749999999999103 -1.00000000000000000 0.00000000000000000 0.00000000000000000 
2 11.69999999999999929 -42.70000000000000284 0.58750000000001001 0.00000000000000006 -0.00000000000000022 -1.00000000000000000 1.00000000000000000 0.00000000000000000 0.00000000000000006 0.00000000000000000 -1.00000000000000000 0.00000000000000022 1.00000000000000000
1 -11.69999999999999929 43.70000000000000284 -0.58750000000000979 0.00000000000000000 0.00000000000000000 1.00000000000000000 
1 11.69999999999999929 43.70000000000000284 0.58749999999999092 0.00000000000000000 0.00000000000000000 -1.00000000000000000 
1 11.69999999999999929 43.70000000000000284 -0.58750000000001024 -1.00000000000000000 0.00000000000000000 0.00000000000000000 
2 11.69999999999999929 42.70000000000000284 0.58749999999999114 -0.00000000000000006 0.00000000000000022 1.00000000000000000 1.00000000000000000 0.00000000000000000 0.00000000000000006 0.00000000000000000 1.00000000000000000 -0.00000000000000022 1.00000000000000000
1 12.69999999999999929 -42.70000000000000284 0.58750000000000979 0.00000000000000000 0.00000000000000000 -1.00000000000000000 
1 12.69999999999999929 42.70000000000000284 0.58749999999999092 0.00000000000000000 0.00000000000000000 -1.00000000000000000 
1 12.69999999999999929 -43.70000000000000284 -0.58749999999999136 0.00000000000000000 1.00000000000000000 -0.00000000000000022 
2 -11.69999999999999929 -42.70000000000000284 -0.58749999999999114 0.00000000000000038 0.00000000000000022 1.00000000000000000 -1.00000000000000000 0.00000000000000000 0.00000000000000038 0.00000000000000000 -1.00000000000000000 0.00000000000000022 1.00000000000000000
2 -11.69999999999999929 42.70000000000000284 -0.58750000000001001 -0.00000000000000038 -0.00000000000000022 -1.00000000000000000 -1.00000000000000000 0.00000000000000000 0.00000000000000038 0.00000000000000000 1.00000000000000000 -0.00000000000000022 1.00000000000000000
1 -11.69999999999999929 -43.70000000000000284 -1.58749999999999147 0.00000000000000000 1.00000000000000000 -0.00000000000000022 
2 -11.69999999999999929 -42.70000000000000284 -0.58749999999999114 0.00000000000000000 1.00000000000000000 -0.00000000000000022 0.00000000000000000 -0.00000000000000022 -1.00000000000000000 -1.00000000000000000 0.00000000000000000 -0.00000000000000000 1.00000000000000000
2 -11.69999999999999929 42.70000000000000284 -0.58750000000001001 0.00000000000000000 1.00000000000000000 -0.00000000000000022 0.00000000000000000 -0.00000000000000022 -1.00000000000000000 -1.00000000000000000 0.00000000000000000 -0.00000000000000000 1.00000000000000000
2 11.69999999999999929 -42.70000000000000284 -0.58749999999999158 0.00000000000000000 0.00000000000000000 -1.00000000000000000 1.00000000000000000 -0.00000000000000000 0.00000000000000000 0.00000000000000000 -1.00000000000000000 -0.00000000000000000 1.00000000000000000
2 11.69999999999999929 -42.70000000000000284 -0.58749999999999114 -1.00000000000000000 -0.00000000000000000 -0.00000000000000029 0.00000000000000029 -0.00000000000000022 -1.00000000000000000 0.00000000000000000 -1.00000000000000000 0.00000000000000022 1.00000000000000000
1 11.69999999999999929 -42.70000000000000284 -1.58749999999999103 -1.00000000000000000 0.00000000000000000 0.00000000000000000 
2 -11.69999999999999929 -42.70000000000000284 -0.58749999999999114 -1.00000000000000000 0.00000000000000000 0.00000000000000000 -0.00000000000000000 -0.00000000000000022 -1.00000000000000000 0.00000000000000000 -1.00000000000000000 0.00000000000000022 1.00000000000000000
2 11.69999999999999929 42.70000000000000284 -0.58750000000001024 -0.00000000000000000 -0.00000000000000000 1.00000000000000000 1.00000000000000000 0.00000000000000000 0.00000000000000000 -0.00000000000000000 1.00000000000000000 0.00000000000000000 1.00000000000000000
2 11.69999999999999929 42.70000000000000284 -0.58750000000001001 1.00000000000000000 0.00000000000000000 0.00000000000000028 0.00000000000000028 -0.00000000000000022 -1.00000000000000000 0.00000000000000000 1.00000000000000000 -0.00000000000000022 1.00000000000000000
1 11.69999999999999929 42.70000000000000284 -1.58750000000000990 -1.00000000000000000 0.00000000000000000 0.00000000000000000 
2 -11.69999999999999929 42.70000000000000284 -0.58750000000000990 1.00000000000000000 -0.00000000000000000 -0.00000000000000000 -0.00000000000000000 -0.00000000000000022 -1.00000000000000000 0.00000000000000000 1.00000000000000000 -0.00000000000000022 1.00000000000000000
2 11.69999999999999929 -42.70000000000000284 -0.58749999999999114 0.00000000000000000 1.00000000000000000 -0.00000000000000022 1.00000000000000000 0.00000000000000000 0.00000000000000022 0.00000000000000022 -0.00000000000000022 -1.00000000000000000 1.00000000000000000
2 11.69999999999999929 42.70000000000000284 -0.58750000000001001 0.00000000000000000 1.00000000000000000 -0.00000000000000022 1.00000000000000000 0.00000000000000000 0.00000000000000022 0.00000000000000022 -0.00000000000000022 -1.00000000000000000 1.00000000000000000
1 11.69999999999999929 -43.70000000000000284 -1.58749999999999147 0.00000000000000000 1.00000000000000000 -0.00000000000000022 
Polygon3D 0
PolygonOnTriangulations 0
Surfaces 25
1 -11.69999999999999929 -43.70000000000000284 1.58750000000000990 0.00000000000000000 -0.00000000000000022 -1.00000000000000000 1.00000000000000000 0.00000000000000000 0.00000000000000000 0.00000000000000000 -1.00000000000000000 0.00000000000000022 
2 -11.69999999999999929 -43.70000000000000284 0.58750000000001024 0.00000000000000000 -1.00000000000000000 0.00000000000000044 0.00000000000000000 -0.00000000000000044 -1.00000000000000000 1.00000000000000000 0.00000000000000000 0.00000000000000000 1.00000000000000000
2 -11.69999999999999929 -42.70000000000000284 0.58750000000000968 1.00000000000000000 0.00000000000000000 0.00000000000000000 -0.00000000000000000 0.00000000000000022 1.00000000000000000 0.00000000000000000 -1.00000000000000000 0.00000000000000022 1.00000000000000000
2 -11.69999999999999929 42.70000000000000284 0.58749999999999092 1.00000000000000000 0.00000000000000000 0.00000000000000000 -0.00000000000000000 0.00000000000000022 1.00000000000000000 -0.00000000000000000 1.00000000000000000 -0.00000000000000022 1.00000000000000000
2 11.69999999999999929 -43.70000000000000284 0.58750000000001024 -0.00000000000000000 -1.00000000000000000 0.00000000000000044 0.00000000000000000 -0.00000000000000044 -1.00000000000000000 -1.00000000000000000 0.00000000000000000 0.00000000000000000 1.00000000000000000
4 -11.69999999999999929 -42.70000000000000284 0.58750000000001001 -0.00000000000000000 -1.00000000000000000 0.00000000000000022 -1.00000000000000000 0.00000000000000000 0.00000000000000022 0.00000000000000022 0.00000000000000022 1.00000000000000000 1.00000000000000000
4 -11.69999999999999929 42.70000000000000284 0.58749999999999114 0.00000000000000000 1.00000000000000000 -0.00000000000000022 -1.00000000000000000 0.00000000000000000 0.00000000000000022 0.00000000000000022 0.00000000000000022 1.00000000000000000 1.00000000000000000
1 -12.69999999999999929 -43.70000000000000284 -0.58749999999999081 1.00000000000000000 -0.00000000000000000 0.00000000000000000 0.00000000000000000 0.00000000000000000 1.00000000000000000 -0.00000000000000000 -1.00000000000000000 0.00000000000000000 
1 0.00000000000000025 0.00000000000000000 0.00000000000000000 0.00000000000000000 1.00000000000000000 -0.00000000000000022 0.00000000000000000 0.00000000000000022 1.00000000000000000 1.00000000000000000 -0.00000000000000000 0.00000000000000000 
4 11.69999999999999929 -42.70000000000000284 0.58750000000001001 -0.00000000000000000 -1.00000000000000000 0.00000000000000022 0.00000000000000000 0.00000000000000022 1.00000000000000000 1.00000000000000000 -0.00000000000000000 -0.00000000000000000 1.00000000000000000
4 11.69999999999999929 42.70000000000000284 0.58749999999999114 0.00000000000000000 1.00000000000000000 -0.00000000000000022 0.00000000000000000 0.00000000000000022 1.00000000000000000 1.00000000000000000 -0.00000000000000000 0.00000000000000000 1.00000000000000000
1 12.69999999999999929 -43.70000000000000284 0.58750000000000990 -1.00000000000000000 0.00000000000000000 0.00000000000000000 0.00000000000000000 0.00000000000000000 -1.00000000000000000 -0.00000000000000000 -1.00000000000000000 -0.00000000000000000 
2 -11.69999999999999929 -42.70000000000000284 -0.58749999999999092 0.00000000000000000 0.00000000000000000 1.00000000000000000 -1.00000000000000000 -0.00000000000000000 0.00000000000000000 0.00000000000000000 -1.00000000000000000 0.00000000000000000 1.00000000000000000
2 -11.69999999999999929 42.70000000000000284 -0.58750000000000979 0.00000000000000000 0.00000000000000000 1.00000000000000000 -1.00000000000000000 -0.00000000000000000 0.00000000000000000 -0.00000000000000000 1.00000000000000000 -0.00000000000000000 1.00000000000000000
2 -11.69999999999999929 -43.70000000000000284 -0.58749999999999092 -0.00000000000000000 -1.00000000000000000 0.00000000000000044 0.00000000000000000 -0.00000000000000044 -1.00000000000000000 -1.00000000000000000 0.00000000000000000 0.00000000000000000 1.00000000000000000
2 11.69999999999999929 -42.70000000000000284 0.58750000000000979 0.00000000000000000 0.00000000000000000 -1.00000000000000000 1.00000000000000000 -0.00000000000000000 0.00000000000000000 0.00000000000000000 -1.00000000000000000 -0.00000000000000000 1.00000000000000000
2 11.69999999999999929 -42.70000000000000284 -0.58749999999999114 -1.00000000000000000 0.00000000000000000 0.00000000000000000 -0.00000000000000000 -0.00000000000000022 -1.00000000000000000 0.00000000000000000 -1.00000000000000000 0.00000000000000022 1.00000000000000000
2 11.69999999999999929 42.70000000000000284 0.58749999999999092 0.00000000000000000 0.00000000000000000 -1.00000000000000000 1.00000000000000000 -0.00000000000000000 0.00000000000000000 -0.00000000000000000 1.00000000000000000 0.00000000000000000 1.00000000000000000
2 11.69999999999999929 42.70000000000000284 -0.58750000000000990 -1.00000000000000000 0.00000000000000000 0.00000000000000000 -0.00000000000000000 -0.00000000000000022 -1.00000000000000000 -0.00000000000000000 1.00000000000000000 -0.00000000000000022 1.00000000000000000
2 11.69999999999999929 -43.70000000000000284 -0.58749999999999092 -0.00000000000000000 -1.00000000000000000 0.00000000000000044 0.00000000000000000 -0.00000000000000044 -1.00000000000000000 -1.00000000000000000 0.00000000000000000 0.00000000000000000 1.00000000000000000
4 -11.69999999999999929 -42.70000000000000284 -0.58749999999999114 -0.00000000000000000 -1.00000000000000000 0.00000000000000022 0.00000000000000000 -0.00000000000000022 -1.00000000000000000 -1.00000000000000000 -0.00000000000000000 -0.00000000000000000 1.00000000000000000
4 -11.69999999999999929 42.70000000000000284 -0.58750000000001001 0.00000000000000000 1.00000000000000000 -0.00000000000000022 0.00000000000000000 -0.00000000000000022 -1.00000000000000000 -1.00000000000000000 0.00000000000000000 -0.00000000000000000 1.00000000000000000
1 11.69999999999999929 -43.70000000000000284 -1.58749999999999081 0.00000000000000000 0.00000000000000022 1.00000000000000000 -1.00000000000000000 0.00000000000000000 0.00000000000000000 0.00000000000000000 -1.00000000000000000 0.00000000000000022 
4 11.69999999999999929 -42.70000000000000284 -0.58749999999999114 -0.00000000000000000 -1.00000000000000000 0.00000000000000022 1.00000000000000000 0.00000000000000000 0.00000000000000022 0.00000000000000022 -0.00000000000000022 -1.00000000000000000 1.00000000000000000
4 11.69999999999999929 42.70000000000000284 -0.58750000000001001 0.00000000000000000 1.00000000000000000 -0.00000000000000022 1.00000000000000000 0.00000000000000000 0.00000000000000022 0.00000000000000022 -0.00000000000000022 -1.00000000000000000 1.00000000000000000
Triangulations 0

TShapes 134
Ve
0.000000100000000
-11.699999999999999 -42.700000000000003 1.587500000000010
0 0

0101101
*
Ve
0.000000100000000
-11.699999999999999 42.700000000000003 1.587499999999991
0 0

0101101
*
Ed
 0.000000100000000 1 1 0
1  1 0 1.000000000000000 86.400000000000006
2  1 2 0 1.000000000000000 86.400000000000006
4 C1 1 0 2 0
2  2 1 0 1.000000000000000 86.400000000000006
0

0101000
+134 3 -133 3 *
Ve
0.000000100000000
11.699999999999999 -42.700000000000003 1.587500000000010
0 0

0101101
*
Ed
 0.000000100000000 1 1 0
1  2 0 0.000000000000000 23.399999999999999
2  3 3 0 0.000000000000000 23.399999999999999
2  4 1 2 0.000000000000000 23.399999999999999
4 G1 3 0 1 2
0

0101000
+134 0 -131 0 *
Ve
0.000000100000000
11.699999999999999 42.700000000000003 1.587499999999991
0 0

0101101
*
Ed
 0.000000100000000 1 1 0
1  3 0 0.000000000000000 23.399999999999999
2  5 4 0 0.000000000000000 23.399999999999999
2  6 1 2 0.000000000000000 23.399999999999999
4 G1 4 0 1 2
0

0101000
+133 0 -129 0 *
Ed
 0.000000100000000 1 1 0
1  4 0 1.000000000000000 86.400000000000006
2  7 5 0 1.000000000000000 86.400000000000006
4 C1 1 0 5 0
2  8 1 0 1.000000000000000 86.400000000000006
0

0101000
+131 3 -129 3 *
Wi

0101100
+132 2 -130 0 +128 0 -127 2 *
Fa
0  0.000000100000000 1 0

0101000
+126 3 *
Ve
0.000000100000000
-12.699999999999999 -42.700000000000003 0.587500000000010
0 0

0101101
*
Ed
 0.000000100000000 1 1 0
1  5 0 -0.000000000000000 1.570796326794897
2  9 6 0 -0.000000000000000 1.570796326794897
2  10 2 2 -0.000000000000000 1.570796326794897
4 G1 6 0 2 2
0

0101000
+124 0 -134 0 *
Ve
0.000000100000000
-12.699999999999999 42.700000000000003 0.587499999999992
0 0

0101101
*
Ed
 0.000000100000000 1 1 0
1  6 0 -0.000000000000020 1.570796326794877
2  11 7 0 -0.000000000000020 1.570796326794877
2  12 2 2 -0.000000000000020 1.570796326794877
4 G1 7 0 2 2
0

0101000
+122 0 -133 0 *
Ed
 0.000000100000000 1 1 0
1  7 0 1.000000000000000 86.400000000000006
2  13 2 0 1.000000000000000 86.400000000000006
4 C1 2 0 8 0
0

0101000
+124 3 -122 3 *
Wi

0101100
+132 2 +123 0 -121 0 -120 2 *
Fa
0  0.000000100000000 2 0

0111000
+119 3 *
Ve
0.000000100000000
-11.699999999999999 -43.700000000000003 0.587500000000010
0 0

0101101
*
Ed
 0.000000100000000 1 1 0
1  8 0 0.000000000000000 1.570796326794897
2  14 3 0 0.000000000000000 1.570796326794897
2  15 6 0 0.000000000000000 1.570796326794897
4 G1 3 0 6 0
0

0101000
+134 0 -117 0 *
Ve
0.000000100000000
11.699999999999999 -43.700000000000003 0.587500000000010
0 0

0101101
*
Ed
 0.000000100000000 1 1 0
1  9 0 0.000000000000000 23.399999999999999
2  16 3 0 0.000000000000000 23.399999999999999
2  17 9 16 0.000000000000000 23.399999999999999
4 G1 3 0 9 16
0

0101000
+117 0 -115 0 *
Ed
 0.000000100000000 1 1 0
1  10 0 0.000000000000000 1.570796326794897
2  18 3 0 0.000000000000000 1.570796326794897
2  19 10 0 0.000000000000000 1.570796326794897
4 G1 3 0 10 0
0

0101000
+131 0 -115 0 *
Wi

0101100
+116 0 -130 0 +114 0 -113 0 *
Fa
0  0.000000000000000 3 0

0111000
+112 0 *
Ve
0.000000100000000
-11.699999999999999 43.700000000000003 0.587499999999991
0 0

0101101
*
Ed
 0.000000100000000 1 1 0
1  11 0 0.000000000000000 1.570796326794897
2  20 4 0 0.000000000000000 1.570796326794897
2  21 7 0 0.000000000000000 1.570796326794897
4 G1 4 0 7 0
0

0101000
+133 0 -110 0 *
Ve
0.000000100000000
11.699999999999999 43.700000000000003 0.587499999999991
0 0

0101101
*
Ed
 0.000000100000000 1 1 0
1  12 0 0.000000000000000 23.399999999999999
2  22 4 0 0.000000000000000 23.399999999999999
2  23 9 18 0.000000000000000 23.399999999999999
4 G1 4 0 9 18
0

0101000
+110 0 -108 0 *
Ed
 0.000000100000000 1 1 0
1  13 0 0.000000000000000 1.570796326794897
2  24 4 0 0.000000000000000 1.570796326794897
2  25 11 0 0.000000000000000 1.570796326794897
4 G1 4 0 11 0
0

0101000
+129 0 -108 0 *
Wi

0101100
+109 0 -128 0 +107 0 -106 0 *
Fa
0  0.000000000000000 4 0

0111000
+105 0 *
Ve
0.000000100000000
12.699999999999999 -42.700000000000003 0.587500000000010
0 0

0101101
*
Ed
 0.000000100000000 1 1 0
1  14 0 0.000000000000000 1.570796326794897
2  26 10 0 0.000000000000000 1.570796326794897
2  27 5 2 0.000000000000000 1.570796326794897
4 G1 10 0 5 2
0

0101000
+131 0 -103 0 *
Ve
0.000000100000000
12.699999999999999 42.700000000000003 0.587499999999991
0 0

0101101
*
Ed
 0.000000100000000 1 1 0
1  15 0 0.000000000000000 1.570796326794897
2  28 11 0 0.000000000000000 1.570796326794897
2  29 5 2 0.000000000000000 1.570796326794897
4 G1 11 0 5 2
0

0101000
+129 0 -101 0 *
Ed
 0.000000100000000 1 1 0
1  16 0 1.000000000000000 86.400000000000006
2  30 5 0 1.000000000000000 86.400000000000006
4 C1 5 0 12 0
0

0101000
+103 3 -101 3 *
Wi

0101100
+127 2 -102 0 +100 0 -99 2 *
Fa
0  0.000000100000000 5 0

0111000
+98 3 *
Ed
 0.000000100000000 1 1 0
1  17 0 0.000000000000000 1.570796326794897
2  31 13 0 0.000000000000000 1.570796326794897
2  32 6 0 0.000000000000000 1.570796326794897
4 G1 13 0 6 0
0

0101000
+124 0 -117 0 *
Ed
 0.000000000000000 1 1 1
2  33 6 0 -0.000000000000000 1.570796326794897
0

0101000
+117 0 -117 0 *
Wi

0101100
-96 0 +123 0 -95 0 +116 0 *
Fa
0  0.000000000000000 6 0

0111000
+94 0 *
Ed
 0.000000100000000 1 1 0
1  18 0 0.000000000000000 1.570796326794897
2  34 14 0 0.000000000000000 1.570796326794897
2  35 7 0 0.000000000000000 1.570796326794897
4 G1 14 0 7 0
0

0101000
+122 0 -110 0 *
Ed
 0.000000000000000 1 1 1
2  36 7 0 -0.000000000000020 1.570796326794877
0

0101000
+110 0 -110 0 *
Wi

0101100
-92 0 +121 0 -91 0 +109 0 *
Fa
0  0.000000000000000 7 0

0111000
+90 0 *
Ve
0.000000100000000
-12.699999999999999 -42.700000000000003 -0.587499999999991
0 0

0101101
*
Ve
0.000000100000000
-12.699999999999999 42.700000000000003 -0.587500000000010
0 0

0101101
*
Ed
 0.000000100000000 1 1 0
1  19 0 1.000000000000000 86.400000000000006
2  37 15 0 1.000000000000000 86.400000000000006
4 C1 8 0 15 0
0

0101000
+88 3 -87 3 *
Ed
 0.000000100000000 1 1 0
1  20 0 -0.000000000000001 1.175000000000001
2  38 13 0 -0.000000000000001 1.175000000000001
2  39 8 2 -0.000000000000001 1.175000000000001
4 G1 13 0 8 2
0

0101000
+88 0 -124 0 *
Ed
 0.000000100000000 1 1 0
1  21 0 -0.000000000000001 1.175000000000002
2  40 14 0 -0.000000000000001 1.175000000000002
2  41 8 2 -0.000000000000001 1.175000000000002
4 G1 14 0 8 2
0

0101000
+87 0 -122 0 *
Wi

0101100
+86 2 -85 0 +84 0 -120 2 *
Fa
0  0.000000100000000 8 0

0111000
+83 3 *
Ve
0.000000100000000
-11.699999999999999 -43.700000000000003 -0.587499999999991
0 0

0101101
*
Ed
 0.000000100000000 1 1 0
1  22 0 -0.000000000000001 1.175000000000001
2  42 13 0 -0.000000000000001 1.175000000000001
2  43 9 16 -0.000000000000001 1.175000000000001
4 G1 13 0 9 16
0

0101000
+81 0 -117 0 *
Ve
0.000000100000000
11.699999999999999 -43.700000000000003 -0.587499999999992
0 0

0101101
*
Ed
 0.000000100000000 1 1 0
1  23 0 -0.000000000000001 1.175000000000001
2  44 16 0 -0.000000000000001 1.175000000000001
2  45 9 16 -0.000000000000001 1.175000000000001
4 G1 16 0 9 16
0

0101000
+115 0 -79 0 *
Ed
 0.000000100000000 1 1 0
1  24 0 0.000000000000000 23.399999999999999
2  46 17 0 0.000000000000000 23.399999999999999
2  47 9 16 0.000000000000000 23.399999999999999
4 G1 17 0 9 16
0

0101000
+79 0 -81 0 *
Wi

0101100
+114 0 +80 0 +78 0 +77 0 *
Fa
0  0.000000100000000 9 0

0111000
+76 19 *
Ed
 0.000000000000000 1 1 1
2  48 10 0 0.000000000000000 1.570796326794897
0

0101000
+115 0 -115 0 *
Ed
 0.000000100000000 1 1 0
1  25 0 0.000000000000000 1.570796326794897
2  49 10 0 0.000000000000000 1.570796326794897
2  50 16 0 0.000000000000000 1.570796326794897
4 G1 10 0 16 0
0

0101000
+103 0 -115 0 *
Wi

0101100
-113 0 +102 0 -74 0 +73 0 *
Fa
0  0.000000000000000 10 0

0111000
+72 0 *
Ve
0.000000100000000
-11.699999999999999 43.700000000000003 -0.587500000000010
0 0

0101101
*
Ed
 0.000000100000000 1 1 0
1  26 0 -0.000000000000001 1.175000000000002
2  51 14 0 -0.000000000000001 1.175000000000002
2  52 9 18 -0.000000000000001 1.175000000000002
4 G1 14 0 9 18
0

0101000
+70 0 -110 0 *
Ve
0.000000100000000
11.699999999999999 43.700000000000003 -0.587500000000010
0 0

0101101
*
Ed
 0.000000100000000 1 1 0
1  27 0 -0.000000000000001 1.175000000000001
2  53 18 0 -0.000000000000001 1.175000000000001
2  54 9 18 -0.000000000000001 1.175000000000001
4 G1 18 0 9 18
0

0101000
+108 0 -68 0 *
Ed
 0.000000100000000 1 1 0
1  28 0 0.000000000000000 23.399999999999999
2  55 19 0 0.000000000000000 23.399999999999999
2  56 9 18 0.000000000000000 23.399999999999999
4 G1 19 0 9 18
0

0101000
+68 0 -70 0 *
Wi

0101100
+107 0 +69 0 +67 0 +66 0 *
Fa
0  0.000000100000000 9 0

0111000
+65 20 *
Ed
 0.000000000000000 1 1 1
2  57 11 0 0.000000000000000 1.570796326794897
0

0101000
+108 0 -108 0 *
Ed
 0.000000100000000 1 1 0
1  29 0 0.000000000000000 1.570796326794897
2  58 11 0 0.000000000000000 1.570796326794897
2  59 18 0 0.000000000000000 1.570796326794897
4 G1 11 0 18 0
0

0101000
+101 0 -108 0 *
Wi

0101100
-106 0 +100 0 -63 0 +62 0 *
Fa
0  0.000000000000000 11 0

0111000
+61 0 *
Ve
0.000000100000000
12.699999999999999 -42.700000000000003 -0.587499999999992
0 0

0101101
*
Ed
 0.000000100000000 1 1 0
1  30 0 -0.000000000000001 1.175000000000001
2  60 16 0 -0.000000000000001 1.175000000000001
2  61 12 2 -0.000000000000001 1.175000000000001
4 G1 16 0 12 2
0

0101000
+103 0 -59 0 *
Ve
0.000000100000000
12.699999999999999 42.700000000000003 -0.587500000000010
0 0

0101101
*
Ed
 0.000000100000000 1 1 0
1  31 0 -0.000000000000001 1.175000000000001
2  62 18 0 -0.000000000000001 1.175000000000001
2  63 12 2 -0.000000000000001 1.175000000000001
4 G1 18 0 12 2
0

0101000
+101 0 -57 0 *
Ed
 0.000000100000000 1 1 0
1  32 0 1.000000000000000 86.400000000000006
2  64 20 0 1.000000000000000 86.400000000000006
4 C1 12 0 20 0
0

0101000
+59 3 -57 3 *
Wi

0101100
+99 2 -58 0 +56 0 -55 2 *
Fa
0  0.000000100000000 12 0

0111000
+54 3 *
Ed
 0.000000100000000 1 1 0
1  33 0 0.000000000000000 1.570796326794897
2  65 21 0 0.000000000000000 1.570796326794897
2  66 13 0 0.000000000000000 1.570796326794897
4 G1 21 0 13 0
0

0101000
+88 0 -81 0 *
Wi

0101100
+52 0 -85 0 +80 0 -96 0 *
Fa
0  0.000000000000000 13 0

0111000
+51 0 *
Ed
 0.000000100000000 1 1 0
1  34 0 0.000000000000000 1.570796326794897
2  67 22 0 0.000000000000000 1.570796326794897
2  68 14 0 0.000000000000000 1.570796326794897
4 G1 22 0 14 0
0

0101000
+87 0 -70 0 *
Wi

0101100
+49 0 -84 0 +69 0 -92 0 *
Fa
0  0.000000000000000 14 0

0111000
+48 0 *
Ve
0.000000100000000
-11.699999999999999 -42.700000000000003 -1.587499999999991
0 0

0101101
*
Ve
0.000000100000000
-11.699999999999999 42.700000000000003 -1.587500000000010
0 0

0101101
*
Ed
 0.000000100000000 1 1 0
1  35 0 1.000000000000000 86.400000000000006
2  69 15 0 1.000000000000000 86.400000000000006
4 C1 15 0 23 0
2  70 23 0 1.000000000000000 86.400000000000006
0

0101000
+46 3 -45 3 *
Ed
 0.000000100000000 1 1 0
1  36 0 0.000000000000000 1.570796326794897
2  71 21 0 0.000000000000000 1.570796326794897
2  72 15 2 0.000000000000000 1.570796326794897
4 G1 21 0 15 2
0

0101000
+46 0 -88 0 *
Ed
 0.000000100000000 1 1 0
1  37 0 0.000000000000000 1.570796326794897
2  73 22 0 0.000000000000000 1.570796326794897
2  74 15 2 0.000000000000000 1.570796326794897
4 G1 22 0 15 2
0

0101000
+45 0 -87 0 *
Wi

0101100
+44 2 -43 0 +42 0 -86 2 *
Fa
0  0.000000100000000 15 0

0111000
+41 3 *
Ed
 0.000000100000000 1 1 0
1  38 0 0.000000000000000 1.570796326794897
2  75 16 0 0.000000000000000 1.570796326794897
2  76 24 0 0.000000000000000 1.570796326794897
4 G1 16 0 24 0
0

0101000
+59 0 -79 0 *
Wi

0101100
+73 0 -58 0 +78 0 -39 0 *
Fa
0  0.000000000000000 16 0

0111000
+38 0 *
Ve
0.000000100000000
11.699999999999999 -42.700000000000003 -1.587499999999991
0 0

0101101
*
Ed
 0.000000100000000 1 1 0
1  39 0 0.000000000000000 1.570796326794897
2  77 24 0 0.000000000000000 1.570796326794897
2  78 17 0 0.000000000000000 1.570796326794897
4 G1 24 0 17 0
0

0101000
+36 0 -79 0 *
Ed
 0.000000100000000 1 1 0
1  40 0 0.000000000000000 23.399999999999999
2  79 17 0 0.000000000000000 23.399999999999999
2  80 23 2 0.000000000000000 23.399999999999999
4 G1 17 0 23 2
0

0101000
+36 0 -46 0 *
Ed
 0.000000100000000 1 1 0
1  41 0 0.000000000000000 1.570796326794897
2  81 17 0 0.000000000000000 1.570796326794897
2  82 21 0 0.000000000000000 1.570796326794897
4 G1 17 0 21 0
0

0101000
+46 0 -81 0 *
Wi

0101100
+35 0 -34 0 +77 0 -33 0 *
Fa
0  0.000000000000000 17 0

0111000
+32 0 *
Ed
 0.000000100000000 1 1 0
1  42 0 0.000000000000000 1.570796326794897
2  83 18 0 0.000000000000000 1.570796326794897
2  84 25 0 0.000000000000000 1.570796326794897
4 G1 18 0 25 0
0

0101000
+57 0 -68 0 *
Wi

0101100
+62 0 -56 0 +67 0 -30 0 *
Fa
0  0.000000000000000 18 0

0111000
+29 0 *
Ve
0.000000100000000
11.699999999999999 42.700000000000003 -1.587500000000010
0 0

0101101
*
Ed
 0.000000100000000 1 1 0
1  43 0 0.000000000000000 1.570796326794897
2  85 25 0 0.000000000000000 1.570796326794897
2  86 19 0 0.000000000000000 1.570796326794897
4 G1 25 0 19 0
0

0101000
+27 0 -68 0 *
Ed
 0.000000100000000 1 1 0
1  44 0 0.000000000000000 23.399999999999999
2  87 19 0 0.000000000000000 23.399999999999999
2  88 23 2 0.000000000000000 23.399999999999999
4 G1 19 0 23 2
0

0101000
+27 0 -45 0 *
Ed
 0.000000100000000 1 1 0
1  45 0 0.000000000000000 1.570796326794897
2  89 19 0 0.000000000000000 1.570796326794897
2  90 22 0 0.000000000000000 1.570796326794897
4 G1 19 0 22 0
0

0101000
+45 0 -70 0 *
Wi

0101100
+26 0 -25 0 +66 0 -24 0 *
Fa
0  0.000000000000000 19 0

0111000
+23 0 *
Ed
 0.000000100000000 1 1 0
1  46 0 0.000000000000000 1.570796326794897
2  91 24 0 0.000000000000000 1.570796326794897
2  92 20 2 0.000000000000000 1.570796326794897
4 G1 24 0 20 2
0

0101000
+59 0 -36 0 *
Ed
 0.000000100000000 1 1 0
1  47 0 0.000000000000000 1.570796326794897
2  93 25 0 0.000000000000000 1.570796326794897
2  94 20 2 0.000000000000000 1.570796326794897
4 G1 25 0 20 2
0

0101000
+57 0 -27 0 *
Ed
 0.000000100000000 1 1 0
1  48 0 1.000000000000000 86.400000000000006
2  95 20 0 1.000000000000000 86.400000000000006
4 C1 20 0 23 0
2  96 23 0 1.000000000000000 86.400000000000006
0

0101000
+36 3 -27 3 *
Wi

0101100
+55 2 -21 0 +20 0 -19 2 *
Fa
0  0.000000100000000 20 0

0111000
+18 3 *
Ed
 0.000000000000000 1 1 1
2  97 21 0 0.000000000000000 1.570796326794897
0

0101000
+81 0 -81 0 *
Wi

0101100
-33 0 +43 0 -16 0 +52 0 *
Fa
0  0.000000000000000 21 0

0111000
+15 0 *
Ed
 0.000000000000000 1 1 1
2  98 22 0 0.000000000000000 1.570796326794897
0

0101000
+70 0 -70 0 *
Wi

0101100
-24 0 +42 0 -13 0 +49 0 *
Fa
0  0.000000000000000 22 0

0111000
+12 0 *
Wi

0101100
+19 2 -34 0 +25 0 -44 2 *
Fa
0  0.000000100000000 23 0

0101000
+10 3 *
Ed
 0.000000000000000 1 1 1
2  99 24 0 0.000000000000000 1.570796326794897
0

0101000
+79 0 -79 0 *
Wi

0101100
-39 0 +21 0 -8 0 +35 0 *
Fa
0  0.000000000000000 24 0

0111000
+7 0 *
Ed
 0.000000000000000 1 1 1
2  100 25 0 0.000000000000000 1.570796326794897
0

0101000
+68 0 -68 0 *
Wi

0101100
-30 0 +20 0 -5 0 +26 0 *
Fa
0  0.000000000000000 25 0

0111000
+4 0 *
Sh

0101100
-125 2 +118 2 +111 0 -104 0 -97 2 -93 0 +89 0 -82 2 -75 16 -71 0 
+64 18 +60 0 -53 2 +50 0 -47 0 -40 2 +37 0 +31 0 -28 0 -22 0 
-17 2 -14 0 +11 0 -9 2 -6 0 +3 0 *
So

0100000
+2 0 *

+1 1 