
CASCADE Topology V1, (c) Matra-Datavision
Locations 54
1
1.000000000000000 0.000000000000000 0.000000000000000 0.000000000000000 
0.000000000000000 1.000000000000000 0.000000000000000 0.000000000000000 
0.000000000000000 0.000000000000000 1.000000000000000 0.000000000000000 
1
1.000000000000000 0.000000000000000 0.000000000000000 0.000000000000000 
0.000000000000000 0.000000000000000 -1.000000000000000 0.000000000000000 
0.000000000000000 1.000000000000000 0.000000000000000 0.000000000000000 
1
1.000000000000000 0.000000000000000 0.000000000000000 0.000000000000000 
0.000000000000000 1.000000000000000 0.000000000000000 0.000000000000000 
0.000000000000000 0.000000000000000 1.000000000000000 0.000000000000000 
1
1.000000000000000 0.000000000000000 0.000000000000000 0.000000000000000 
0.000000000000000 1.000000000000000 0.000000000000000 0.000000000000000 
0.000000000000000 0.000000000000000 1.000000000000000 0.000000000000000 
1
1.000000000000000 0.000000000000000 0.000000000000000 0.000000000000000 
0.000000000000000 1.000000000000000 0.000000000000000 0.000000000000000 
0.000000000000000 0.000000000000000 1.000000000000000 0.000000000000000 
1
1.000000000000000 0.000000000000000 0.000000000000000 0.000000000000000 
0.000000000000000 1.000000000000000 0.000000000000000 0.000000000000000 
0.000000000000000 0.000000000000000 1.000000000000000 0.000000000000000 
1
1.000000000000000 0.000000000000000 0.000000000000000 0.000000000000000 
0.000000000000000 1.000000000000000 0.000000000000000 0.000000000000000 
0.000000000000000 0.000000000000000 1.000000000000000 0.000000000000000 
1
1.000000000000000 0.000000000000000 0.000000000000000 0.000000000000000 
0.000000000000000 1.000000000000000 0.000000000000000 0.000000000000000 
0.000000000000000 0.000000000000000 1.000000000000000 0.000000000000000 
1
1.000000000000000 0.000000000000000 0.000000000000000 0.000000000000000 
0.000000000000000 1.000000000000000 0.000000000000000 0.000000000000000 
0.000000000000000 0.000000000000000 1.000000000000000 0.000000000000000 
1
1.000000000000000 0.000000000000000 0.000000000000000 -0.000000000000000 
0.000000000000000 1.000000000000000 0.000000000000000 -43.700000000000003 
0.000000000000000 0.000000000000000 1.000000000000000 0.000000000000010 
2  1 1 2 1 3 1 4 1 5 1 6 1 7 1 8 1 9 -1 10 1 0
1
1.000000000000000 0.000000000000000 0.000000000000000 0.000000000000000 
0.000000000000000 1.000000000000000 0.000000000000000 87.400000000000006 
0.000000000000000 0.000000000000000 1.000000000000000 -0.000000000000019 
2  1 1 2 1 3 1 4 1 5 1 6 1 7 1 8 1 9 -1 10 1 12 1 0
1
1.000000000000000 0.000000000000000 0.000000000000000 0.000000000000000 
0.000000000000000 1.000000000000000 0.000000000000000 0.000000000000000 
0.000000000000000 0.000000000000000 1.000000000000000 0.000000000000000 
1
1.000000000000000 0.000000000000000 0.000000000000000 0.000000000000000 
0.000000000000000 0.000000000000000 -1.000000000000000 0.000000000000000 
0.000000000000000 1.000000000000000 0.000000000000000 0.000000000000000 
1
1.000000000000000 0.000000000000000 0.000000000000000 0.000000000000000 
0.000000000000000 -0.000000000000000 -1.000000000000000 0.000000000000000 
0.000000000000000 1.000000000000000 -0.000000000000000 0.000000000000000 
1
1.000000000000000 0.000000000000000 0.000000000000000 0.000000000000000 
0.000000000000000 1.000000000000000 0.000000000000000 0.000000000000000 
0.000000000000000 0.000000000000000 1.000000000000000 0.000000000000000 
2  14 1 15 1 16 -1 17 1 1 1 2 1 3 1 4 1 5 1 6 1 7 1 8 1 9 -1 10 1 0
2  17 -1 16 1 15 -1 14 -1 0
2  14 1 15 1 16 -1 17 1 1 1 2 1 3 1 4 1 5 1 6 1 7 1 8 1 9 -1 10 1 12 1 0
2  16 -1 17 1 0
1
1.000000000000000 0.000000000000000 0.000000000000000 0.000000000000000 
0.000000000000000 1.000000000000000 0.000000000000000 0.000000000000000 
0.000000000000000 0.000000000000000 1.000000000000000 0.000000000000000 
1
1.000000000000000 0.000000000000000 0.000000000000000 0.000000000000000 
0.000000000000000 1.000000000000000 0.000000000000000 0.000000000000000 
0.000000000000000 0.000000000000000 1.000000000000000 0.000000000000000 
2  22 1 23 -1 7 -1 6 -1 5 -1 4 -1 3 -1 2 -1 1 -1 0
1
1.000000000000000 0.000000000000000 0.000000000000000 0.000000000000000 
0.000000000000000 1.000000000000000 0.000000000000000 10.000000000000000 
0.000000000000000 0.000000000000000 1.000000000000000 -0.000000000000002 
2  25 -1 22 1 23 -1 7 -1 6 -1 5 -1 4 -1 3 -1 2 -1 1 -1 0
1
1.000000000000000 0.000000000000000 0.000000000000000 0.000000000000000 
0.000000000000000 1.000000000000000 0.000000000000000 0.000000000000000 
0.000000000000000 0.000000000000000 1.000000000000000 0.000000000000000 
1
1.000000000000000 0.000000000000000 0.000000000000000 0.000000000000000 
0.000000000000000 1.000000000000000 0.000000000000000 0.000000000000000 
0.000000000000000 0.000000000000000 1.000000000000000 0.000000000000000 
2  27 1 28 -1 7 -1 6 -1 5 -1 4 -1 3 -1 2 -1 1 -1 0
1
1.000000000000000 0.000000000000000 0.000000000000000 0.000000000000000 
0.000000000000000 1.000000000000000 0.000000000000000 87.400000000000006 
0.000000000000000 0.000000000000000 1.000000000000000 -0.000000000000019 
2  30 -1 27 1 28 -1 7 -1 6 -1 5 -1 4 -1 3 -1 2 -1 1 -1 0
1
1.000000000000000 0.000000000000000 0.000000000000000 0.000000000000000 
0.000000000000000 1.000000000000000 0.000000000000000 0.000000000000000 
0.000000000000000 0.000000000000000 1.000000000000000 0.000000000000000 
1
1.000000000000000 0.000000000000000 0.000000000000000 0.000000000000000 
0.000000000000000 1.000000000000000 0.000000000000000 0.000000000000000 
0.000000000000000 0.000000000000000 1.000000000000000 0.000000000000000 
2  32 1 33 -1 7 -1 6 -1 5 -1 4 -1 3 -1 2 -1 1 -1 0
1
1.000000000000000 0.000000000000000 0.000000000000000 0.000000000000000 
0.000000000000000 1.000000000000000 0.000000000000000 87.400000000000006 
0.000000000000000 0.000000000000000 1.000000000000000 -0.000000000000019 
2  35 -1 32 1 33 -1 7 -1 6 -1 5 -1 4 -1 3 -1 2 -1 1 -1 0
1
1.000000000000000 0.000000000000000 0.000000000000000 -0.000000000000000 
0.000000000000000 1.000000000000000 0.000000000000000 -43.700000000000003 
0.000000000000000 0.000000000000000 1.000000000000000 0.000000000000010 
1
1.000000000000000 0.000000000000000 0.000000000000000 0.000000000000000 
0.000000000000000 1.000000000000000 0.000000000000000 0.000000000000000 
0.000000000000000 0.000000000000000 1.000000000000000 0.000000000000000 
1
1.000000000000000 0.000000000000000 0.000000000000000 0.000000000000000 
0.000000000000000 1.000000000000000 0.000000000000000 0.000000000000000 
0.000000000000000 0.000000000000000 1.000000000000000 0.000000000000000 
2  37 -1 38 1 39 -1 7 -1 6 -1 5 -1 4 -1 3 -1 2 -1 1 -1 0
1
1.000000000000000 0.000000000000000 0.000000000000000 0.000000000000000 
0.000000000000000 1.000000000000000 0.000000000000000 87.400000000000006 
0.000000000000000 0.000000000000000 1.000000000000000 -0.000000000000019 
2  41 -1 37 -1 38 1 39 -1 7 -1 6 -1 5 -1 4 -1 3 -1 2 -1 1 -1 0
1
1.000000000000000 0.000000000000000 0.000000000000000 -0.000000000000000 
0.000000000000000 1.000000000000000 0.000000000000000 -43.700000000000003 
0.000000000000000 0.000000000000000 1.000000000000000 0.000000000000010 
1
1.000000000000000 0.000000000000000 0.000000000000000 0.000000000000000 
0.000000000000000 1.000000000000000 0.000000000000000 0.000000000000000 
0.000000000000000 0.000000000000000 1.000000000000000 0.000000000000000 
1
1.000000000000000 0.000000000000000 0.000000000000000 0.000000000000000 
0.000000000000000 1.000000000000000 0.000000000000000 0.000000000000000 
0.000000000000000 0.000000000000000 1.000000000000000 0.000000000000000 
2  43 -1 44 1 45 -1 7 -1 6 -1 5 -1 4 -1 3 -1 2 -1 1 -1 0
1
1.000000000000000 0.000000000000000 0.000000000000000 0.000000000000000 
0.000000000000000 1.000000000000000 0.000000000000000 87.400000000000006 
0.000000000000000 0.000000000000000 1.000000000000000 -0.000000000000019 
2  47 -1 43 -1 44 1 45 -1 7 -1 6 -1 5 -1 4 -1 3 -1 2 -1 1 -1 0
2  10 -1 9 1 8 -1 7 -1 6 -1 5 -1 4 -1 3 -1 2 -1 1 -1 0
2  12 -1 10 -1 9 1 8 -1 7 -1 6 -1 5 -1 4 -1 3 -1 2 -1 1 -1 0
2  16 -1 17 1 1 1 2 1 3 1 4 1 5 1 6 1 7 1 8 1 9 -1 10 1 0
2  17 -1 16 1 0
2  14 1 15 1 16 -1 17 1 0
2  16 -1 17 1 1 1 2 1 3 1 4 1 5 1 6 1 7 1 8 1 9 -1 10 1 12 1 0
Curve2ds 64
1 3.14159265358979312 0.00000000000000000 0.00000000000000000 -1.00000000000000000 
1 3.14159265358979312 0.00000000000000000 0.00000000000000000 -1.00000000000000000 
1 4.71238898038468967 0.00000000000000000 0.00000000000000000 -1.00000000000000000 
1 -3.14159265358979312 0.00000000000000000 1.00000000000000000 0.00000000000000000 
2 0.58750000000000058 -11.69999999999999929 -1.00000000000000000 0.00000000000000000 0.00000000000000000 1.00000000000000000 1.00000000000000000
1 0.00000000000000000 0.00000000000000000 1.00000000000000000 0.00000000000000000 
1 0.00000000000000000 -10.00000000000000000 1.00000000000000000 0.00000000000000000 
1 0.00000000000000000 0.00000000000000000 1.00000000000000000 0.00000000000000000 
1 0.00000000000000000 -87.40000000000000568 1.00000000000000000 0.00000000000000000 
1 0.00000000000000000 0.00000000000000000 1.00000000000000000 0.00000000000000000 
1 0.00000000000000000 -87.40000000000000568 1.00000000000000000 0.00000000000000000 
1 0.00000000000000000 0.00000000000000000 1.00000000000000000 0.00000000000000000 
1 0.00000000000000000 -87.40000000000000568 1.00000000000000000 0.00000000000000000 
1 0.00000000000000000 0.00000000000000000 1.00000000000000000 0.00000000000000000 
1 0.00000000000000000 -87.40000000000000568 1.00000000000000000 0.00000000000000000 
1 0.00000000000000000 0.00000000000000000 1.00000000000000000 0.00000000000000000 
1 0.00000000000000000 -87.40000000000000568 1.00000000000000000 0.00000000000000000 
1 4.71238898038468967 0.00000000000000000 0.00000000000000000 -1.00000000000000000 
1 -3.14159265358979312 0.00000000000000000 1.00000000000000000 0.00000000000000000 
2 0.58750000000000058 11.69999999999999929 -1.00000000000000000 0.00000000000000000 -0.00000000000000000 -1.00000000000000000 1.00000000000000000
1 0.00000000000000000 0.00000000000000000 1.00000000000000000 0.00000000000000000 
1 0.00000000000000000 -10.00000000000000000 1.00000000000000000 0.00000000000000000 
1 0.00000000000000000 0.00000000000000000 1.00000000000000000 0.00000000000000000 
1 0.00000000000000000 -87.40000000000000568 1.00000000000000000 0.00000000000000000 
1 0.00000000000000000 0.00000000000000000 1.00000000000000000 0.00000000000000000 
1 0.00000000000000000 -87.40000000000000568 1.00000000000000000 0.00000000000000000 
1 0.00000000000000000 0.00000000000000000 1.00000000000000000 0.00000000000000000 
1 0.00000000000000000 -87.40000000000000568 1.00000000000000000 0.00000000000000000 
1 0.00000000000000000 0.00000000000000000 1.00000000000000000 0.00000000000000000 
1 0.00000000000000000 -87.40000000000000568 1.00000000000000000 0.00000000000000000 
1 0.00000000000000000 0.00000000000000000 1.00000000000000000 0.00000000000000000 
1 0.00000000000000000 -87.40000000000000568 1.00000000000000000 0.00000000000000000 
1 1.57079632679489700 0.00000000000000000 0.00000000000000000 -1.00000000000000000 
1 4.71238898038468967 0.00000000000000000 0.00000000000000000 -1.00000000000000000 
1 0.00000000000000000 0.00000000000000000 0.00000000000000000 -1.00000000000000000 
1 0.00000000000000000 0.00000000000000000 1.00000000000000000 0.00000000000000000 
2 -0.58750000000000058 -11.69999999999999929 -1.00000000000000000 0.00000000000000000 -0.00000000000000000 -1.00000000000000000 1.00000000000000000
1 0.00000000000000000 0.00000000000000000 1.00000000000000000 0.00000000000000000 
1 0.00000000000000000 -10.00000000000000000 1.00000000000000000 0.00000000000000000 
1 0.00000000000000000 0.00000000000000000 1.00000000000000000 0.00000000000000000 
1 0.00000000000000000 -87.40000000000000568 1.00000000000000000 0.00000000000000000 
1 0.00000000000000000 0.00000000000000000 1.00000000000000000 0.00000000000000000 
1 0.00000000000000000 -87.40000000000000568 1.00000000000000000 0.00000000000000000 
1 0.00000000000000000 0.00000000000000000 1.00000000000000000 0.00000000000000000 
1 0.00000000000000000 -87.40000000000000568 1.00000000000000000 0.00000000000000000 
1 0.00000000000000000 0.00000000000000000 1.00000000000000000 0.00000000000000000 
1 0.00000000000000000 -87.40000000000000568 1.00000000000000000 0.00000000000000000 
1 0.00000000000000000 0.00000000000000000 1.00000000000000000 0.00000000000000000 
1 0.00000000000000000 -87.40000000000000568 1.00000000000000000 0.00000000000000000 
1 6.28318530717958623 0.00000000000000000 0.00000000000000000 -1.00000000000000000 
1 -4.71238898038468967 0.00000000000000000 1.00000000000000000 0.00000000000000000 
2 -0.58750000000000058 11.69999999999999929 -1.00000000000000000 0.00000000000000000 -0.00000000000000000 -1.00000000000000000 1.00000000000000000
1 0.00000000000000000 0.00000000000000000 1.00000000000000000 0.00000000000000000 
1 0.00000000000000000 -10.00000000000000000 1.00000000000000000 0.00000000000000000 
1 0.00000000000000000 0.00000000000000000 1.00000000000000000 0.00000000000000000 
1 0.00000000000000000 -87.40000000000000568 1.00000000000000000 0.00000000000000000 
1 0.00000000000000000 0.00000000000000000 1.00000000000000000 0.00000000000000000 
1 0.00000000000000000 -87.40000000000000568 1.00000000000000000 0.00000000000000000 
1 0.00000000000000000 0.00000000000000000 1.00000000000000000 0.00000000000000000 
1 0.00000000000000000 -87.40000000000000568 1.00000000000000000 0.00000000000000000 
1 0.00000000000000000 0.00000000000000000 1.00000000000000000 0.00000000000000000 
1 0.00000000000000000 -87.40000000000000568 1.00000000000000000 0.00000000000000000 
1 0.00000000000000000 0.00000000000000000 1.00000000000000000 0.00000000000000000 
1 0.00000000000000000 -87.40000000000000568 1.00000000000000000 0.00000000000000000 
Curves 16
1 -11.69999999999999929 -43.70000000000000284 1.58750000000001057 0.00000000000000000 1.00000000000000000 -0.00000000000000022 
1 11.69999999999999929 -43.70000000000000284 1.58750000000001057 0.00000000000000000 1.00000000000000000 -0.00000000000000022 
1 -12.69999999999999929 1.58750000000000036 0.00000000000000000 1.00000000000000000 0.00000000000000000 0.00000000000000000 
1 -12.69999999999999929 -43.70000000000000284 0.58750000000001068 0.00000000000000000 1.00000000000000000 -0.00000000000000022 
8 3.14159265358979312 4.71238898038468967
2 -11.69999999999999929 0.58750000000000058 -0.00000000000000026 0.00000000000000000 0.00000000000000044 1.00000000000000000 0.00000000000000000 -1.00000000000000000 0.00000000000000044 1.00000000000000000 0.00000000000000000 -0.00000000000000000 1.00000000000000000
1 12.69999999999999929 -43.70000000000000284 0.58750000000001068 0.00000000000000000 1.00000000000000000 -0.00000000000000022 
8 3.14159265358979312 4.71238898038468967
2 11.69999999999999929 0.58750000000000058 -0.00000000000000026 -0.00000000000000000 -0.00000000000000044 -1.00000000000000000 0.00000000000000000 -1.00000000000000000 0.00000000000000044 -1.00000000000000000 0.00000000000000000 0.00000000000000000 1.00000000000000000
1 -12.69999999999999929 -43.70000000000000284 -0.58749999999999136 0.00000000000000000 1.00000000000000000 -0.00000000000000022 
1 -12.69999999999999929 -1.58750000000000036 0.00000000000000000 0.00000000000000000 1.00000000000000000 0.00000000000000000 
1 12.69999999999999929 -43.70000000000000284 -0.58749999999999136 0.00000000000000000 1.00000000000000000 -0.00000000000000022 
1 12.69999999999999929 1.58750000000000036 0.00000000000000000 0.00000000000000000 -1.00000000000000000 0.00000000000000000 
1 -11.69999999999999929 -43.70000000000000284 -1.58749999999999147 0.00000000000000000 1.00000000000000000 -0.00000000000000022 
8 0.00000000000000000 1.57079632679489656
2 -11.69999999999999929 -0.58750000000000058 0.00000000000000026 -0.00000000000000000 -0.00000000000000044 -1.00000000000000000 0.00000000000000000 -1.00000000000000000 0.00000000000000044 -1.00000000000000000 0.00000000000000000 0.00000000000000000 1.00000000000000000
1 11.69999999999999929 -43.70000000000000284 -1.58749999999999147 0.00000000000000000 1.00000000000000000 -0.00000000000000022 
8 4.71238898038468967 6.28318530717958623
2 11.69999999999999929 -0.58750000000000058 0.00000000000000026 -0.00000000000000000 -0.00000000000000044 -1.00000000000000000 0.00000000000000000 -1.00000000000000000 0.00000000000000044 -1.00000000000000000 0.00000000000000000 0.00000000000000000 1.00000000000000000
1 12.69999999999999929 -1.58750000000000036 0.00000000000000000 -1.00000000000000000 0.00000000000000000 0.00000000000000000 
Polygon3D 0
PolygonOnTriangulations 0
Surfaces 33
1 -11.69999999999999929 -43.70000000000000284 1.58750000000000990 0.00000000000000000 -0.00000000000000022 -1.00000000000000000 1.00000000000000000 0.00000000000000000 0.00000000000000000 0.00000000000000000 -1.00000000000000000 0.00000000000000022 
2 -11.69999999999999929 -43.70000000000000284 0.58750000000001024 0.00000000000000000 -1.00000000000000000 0.00000000000000044 0.00000000000000000 -0.00000000000000044 -1.00000000000000000 1.00000000000000000 0.00000000000000000 0.00000000000000000 1.00000000000000000
2 11.69999999999999929 -43.70000000000000284 0.58750000000001024 -0.00000000000000000 -1.00000000000000000 0.00000000000000044 0.00000000000000000 -0.00000000000000044 -1.00000000000000000 -1.00000000000000000 0.00000000000000000 0.00000000000000000 1.00000000000000000
1 -12.69999999999999929 -43.70000000000000284 -0.58749999999999081 1.00000000000000000 -0.00000000000000000 0.00000000000000000 0.00000000000000000 0.00000000000000000 1.00000000000000000 -0.00000000000000000 -1.00000000000000000 0.00000000000000000 
2 -11.69999999999999929 0.58750000000000058 -0.00000000000000026 0.00000000000000000 0.00000000000000044 1.00000000000000000 0.00000000000000000 1.00000000000000000 -0.00000000000000044 -1.00000000000000000 0.00000000000000000 0.00000000000000000 1.00000000000000000
1 0.00000000000000025 0.00000000000000000 0.00000000000000000 0.00000000000000000 1.00000000000000000 -0.00000000000000022 0.00000000000000000 0.00000000000000022 1.00000000000000000 1.00000000000000000 -0.00000000000000000 0.00000000000000000 
2 -11.69999999999999929 0.00000000000000026 0.58750000000000058 0.00000000000000000 -1.00000000000000000 0.00000000000000044 0.00000000000000000 -0.00000000000000044 -1.00000000000000000 1.00000000000000000 0.00000000000000000 0.00000000000000000 1.00000000000000000
2 -11.69999999999999929 0.00000000000000026 0.58750000000000058 0.00000000000000000 -1.00000000000000000 0.00000000000000044 0.00000000000000000 -0.00000000000000044 -1.00000000000000000 1.00000000000000000 0.00000000000000000 0.00000000000000000 1.00000000000000000
2 -11.69999999999999929 0.00000000000000026 0.58750000000000058 0.00000000000000000 -1.00000000000000000 0.00000000000000044 0.00000000000000000 -0.00000000000000044 -1.00000000000000000 1.00000000000000000 0.00000000000000000 0.00000000000000000 1.00000000000000000
2 -11.69999999999999929 -43.70000000000000284 0.58750000000001024 0.00000000000000000 -1.00000000000000000 0.00000000000000044 0.00000000000000000 -0.00000000000000044 -1.00000000000000000 1.00000000000000000 0.00000000000000000 0.00000000000000000 1.00000000000000000
2 -11.69999999999999929 -43.70000000000000284 0.58750000000001024 0.00000000000000000 -1.00000000000000000 0.00000000000000044 0.00000000000000000 -0.00000000000000044 -1.00000000000000000 1.00000000000000000 0.00000000000000000 0.00000000000000000 1.00000000000000000
1 12.69999999999999929 -43.70000000000000284 0.58750000000000990 -1.00000000000000000 0.00000000000000000 0.00000000000000000 0.00000000000000000 0.00000000000000000 -1.00000000000000000 -0.00000000000000000 -1.00000000000000000 -0.00000000000000000 
2 11.69999999999999929 0.58750000000000058 -0.00000000000000026 0.00000000000000000 0.00000000000000044 1.00000000000000000 0.00000000000000000 1.00000000000000000 -0.00000000000000044 1.00000000000000000 -0.00000000000000000 -0.00000000000000000 1.00000000000000000
2 11.69999999999999929 0.00000000000000026 0.58750000000000058 -0.00000000000000000 -1.00000000000000000 0.00000000000000044 0.00000000000000000 -0.00000000000000044 -1.00000000000000000 -1.00000000000000000 0.00000000000000000 0.00000000000000000 1.00000000000000000
2 11.69999999999999929 0.00000000000000026 0.58750000000000058 -0.00000000000000000 -1.00000000000000000 0.00000000000000044 0.00000000000000000 -0.00000000000000044 -1.00000000000000000 -1.00000000000000000 0.00000000000000000 0.00000000000000000 1.00000000000000000
2 11.69999999999999929 0.00000000000000026 0.58750000000000058 -0.00000000000000000 -1.00000000000000000 0.00000000000000044 0.00000000000000000 -0.00000000000000044 -1.00000000000000000 -1.00000000000000000 0.00000000000000000 0.00000000000000000 1.00000000000000000
2 11.69999999999999929 -43.70000000000000284 0.58750000000001024 -0.00000000000000000 -1.00000000000000000 0.00000000000000044 0.00000000000000000 -0.00000000000000044 -1.00000000000000000 -1.00000000000000000 0.00000000000000000 0.00000000000000000 1.00000000000000000
2 11.69999999999999929 -43.70000000000000284 0.58750000000001024 -0.00000000000000000 -1.00000000000000000 0.00000000000000044 0.00000000000000000 -0.00000000000000044 -1.00000000000000000 -1.00000000000000000 0.00000000000000000 0.00000000000000000 1.00000000000000000
2 -11.69999999999999929 -43.70000000000000284 -0.58749999999999092 -0.00000000000000000 -1.00000000000000000 0.00000000000000044 0.00000000000000000 -0.00000000000000044 -1.00000000000000000 -1.00000000000000000 0.00000000000000000 0.00000000000000000 1.00000000000000000
2 11.69999999999999929 -43.70000000000000284 -0.58749999999999092 -0.00000000000000000 -1.00000000000000000 0.00000000000000044 0.00000000000000000 -0.00000000000000044 -1.00000000000000000 -1.00000000000000000 0.00000000000000000 0.00000000000000000 1.00000000000000000
1 11.69999999999999929 -43.70000000000000284 -1.58749999999999081 0.00000000000000000 0.00000000000000022 1.00000000000000000 -1.00000000000000000 0.00000000000000000 0.00000000000000000 0.00000000000000000 -1.00000000000000000 0.00000000000000022 
2 -11.69999999999999929 -0.58750000000000058 0.00000000000000026 0.00000000000000000 0.00000000000000044 1.00000000000000000 0.00000000000000000 -1.00000000000000000 0.00000000000000044 -1.00000000000000000 -0.00000000000000000 0.00000000000000000 1.00000000000000000
2 -11.69999999999999929 -0.00000000000000026 -0.58750000000000058 -0.00000000000000000 -1.00000000000000000 0.00000000000000044 0.00000000000000000 -0.00000000000000044 -1.00000000000000000 -1.00000000000000000 0.00000000000000000 0.00000000000000000 1.00000000000000000
2 -11.69999999999999929 -0.00000000000000026 -0.58750000000000058 -0.00000000000000000 -1.00000000000000000 0.00000000000000044 0.00000000000000000 -0.00000000000000044 -1.00000000000000000 -1.00000000000000000 0.00000000000000000 0.00000000000000000 1.00000000000000000
2 -11.69999999999999929 -0.00000000000000026 -0.58750000000000058 -0.00000000000000000 -1.00000000000000000 0.00000000000000044 0.00000000000000000 -0.00000000000000044 -1.00000000000000000 -1.00000000000000000 0.00000000000000000 0.00000000000000000 1.00000000000000000
2 -11.69999999999999929 -43.70000000000000284 -0.58749999999999092 -0.00000000000000000 -1.00000000000000000 0.00000000000000044 0.00000000000000000 -0.00000000000000044 -1.00000000000000000 -1.00000000000000000 0.00000000000000000 0.00000000000000000 1.00000000000000000
2 -11.69999999999999929 -43.70000000000000284 -0.58749999999999092 -0.00000000000000000 -1.00000000000000000 0.00000000000000044 0.00000000000000000 -0.00000000000000044 -1.00000000000000000 -1.00000000000000000 0.00000000000000000 0.00000000000000000 1.00000000000000000
2 11.69999999999999929 -0.58750000000000058 0.00000000000000026 0.00000000000000000 0.00000000000000044 1.00000000000000000 1.00000000000000000 0.00000000000000000 -0.00000000000000000 0.00000000000000000 -1.00000000000000000 0.00000000000000044 1.00000000000000000
2 11.69999999999999929 -0.00000000000000026 -0.58750000000000058 -0.00000000000000000 -1.00000000000000000 0.00000000000000044 0.00000000000000000 -0.00000000000000044 -1.00000000000000000 -1.00000000000000000 0.00000000000000000 0.00000000000000000 1.00000000000000000
2 11.69999999999999929 -0.00000000000000026 -0.58750000000000058 -0.00000000000000000 -1.00000000000000000 0.00000000000000044 0.00000000000000000 -0.00000000000000044 -1.00000000000000000 -1.00000000000000000 0.00000000000000000 0.00000000000000000 1.00000000000000000
2 11.69999999999999929 -0.00000000000000026 -0.58750000000000058 -0.00000000000000000 -1.00000000000000000 0.00000000000000044 0.00000000000000000 -0.00000000000000044 -1.00000000000000000 -1.00000000000000000 0.00000000000000000 0.00000000000000000 1.00000000000000000
2 11.69999999999999929 -43.70000000000000284 -0.58749999999999092 -0.00000000000000000 -1.00000000000000000 0.00000000000000044 0.00000000000000000 -0.00000000000000044 -1.00000000000000000 -1.00000000000000000 0.00000000000000000 0.00000000000000000 1.00000000000000000
2 11.69999999999999929 -43.70000000000000284 -0.58749999999999092 -0.00000000000000000 -1.00000000000000000 0.00000000000000044 0.00000000000000000 -0.00000000000000044 -1.00000000000000000 -1.00000000000000000 0.00000000000000000 0.00000000000000000 1.00000000000000000
Triangulations 0

TShapes 44
Ve
0.000000100000000
-11.699999999999999 1.587500000000001 -0.000000000000001
0 0

0101101
*
Ed
 0.000000100000000 1 1 0
1  1 0 0.000000000000000 87.400000000000006
2  1 2 0 0.000000000000000 87.400000000000006
4 C1 1 0 2 0
0

0101000
+44 11 -44 13 *
Ve
0.000000100000000
11.699999999999999 1.587500000000001 -0.000000000000001
0 0

0101101
*
Ed
 0.000000100000000 1 1 0
1  2 0 0.000000000000000 87.400000000000006
2  2 3 0 0.000000000000000 87.400000000000006
4 C1 1 0 3 0
0

0101000
+42 11 -42 13 *
Ed
 0.000000100000000 1 1 0
1  3 0 1.000000000000000 24.399999999999999
0

0101000
+44 19 -42 19 *
Wi

0101100
+43 0 -41 0 -40 18 +40 20 *
Fa
0  0.000000100000000 1 0

0101000
+39 0 *
Ve
0.000000100000000
-12.699999999999999 0.587500000000001 -0.000000000000000
0 0

0101101
*
Ed
 0.000000100000000 1 1 0
1  4 0 0.000000000000000 87.400000000000006
2  3 2 0 0.000000000000000 87.400000000000006
4 C1 2 0 4 0
0

0101000
+37 11 -37 13 *
Ed
 0.000000100000000 1 1 0
1  5 0 3.141592653589793 4.712388980384690
2  4 5 0 3.141592653589793 4.712388980384690
2  5 6 21 3.141592653589793 4.712388980384690
2  6 7 24 3.141592653589793 4.712388980384690
2  7 7 26 3.141592653589793 4.712388980384690
2  8 8 29 3.141592653589793 4.712388980384690
2  9 8 31 3.141592653589793 4.712388980384690
2  10 9 34 3.141592653589793 4.712388980384690
2  11 9 36 3.141592653589793 4.712388980384690
2  12 10 40 3.141592653589793 4.712388980384690
2  13 10 42 3.141592653589793 4.712388980384690
2  14 11 46 3.141592653589793 4.712388980384690
2  15 11 48 3.141592653589793 4.712388980384690
2  16 2 49 3.141592653589793 4.712388980384690
2  17 2 50 3.141592653589793 4.712388980384690
0

0101000
+44 0 -37 0 *
Wi

0101100
+43 0 -36 0 -35 11 +35 13 *
Fa
0  0.000000100000000 2 0

0101000
+34 0 *
Ve
0.000000100000000
12.699999999999999 0.587500000000001 -0.000000000000000
0 0

0101101
*
Ed
 0.000000100000000 1 1 0
1  6 0 0.000000000000000 87.400000000000006
2  18 3 0 0.000000000000000 87.400000000000006
4 C1 3 0 12 0
0

0101000
+32 11 -32 13 *
Ed
 0.000000100000000 1 1 0
1  7 0 3.141592653589793 4.712388980384690
2  19 13 0 3.141592653589793 4.712388980384690
2  20 6 21 3.141592653589793 4.712388980384690
2  21 14 24 3.141592653589793 4.712388980384690
2  22 14 26 3.141592653589793 4.712388980384690
2  23 15 29 3.141592653589793 4.712388980384690
2  24 15 31 3.141592653589793 4.712388980384690
2  25 16 34 3.141592653589793 4.712388980384690
2  26 16 36 3.141592653589793 4.712388980384690
2  27 17 40 3.141592653589793 4.712388980384690
2  28 17 42 3.141592653589793 4.712388980384690
2  29 18 46 3.141592653589793 4.712388980384690
2  30 18 48 3.141592653589793 4.712388980384690
2  31 3 49 3.141592653589793 4.712388980384690
2  32 3 50 3.141592653589793 4.712388980384690
0

0101000
+42 0 -32 0 *
Wi

0101100
+41 0 -31 0 -30 11 +30 13 *
Fa
0  0.000000100000000 3 0

0101000
+29 0 *
Ve
0.000000100000000
-12.699999999999999 -0.587500000000001 0.000000000000000
0 0

0101101
*
Ed
 0.000000100000000 1 1 0
1  8 0 0.000000000000000 87.400000000000006
2  33 19 0 0.000000000000000 87.400000000000006
4 C1 4 0 19 0
0

0101000
+27 11 -27 13 *
Ed
 0.000000100000000 1 1 0
1  9 0 1.000000000000000 2.175000000000001
0

0101000
+27 19 -37 19 *
Wi

0101100
+26 0 -36 0 -25 18 +25 20 *
Fa
0  0.000000100000000 4 0

0101000
+24 0 *
Ve
0.000000100000000
12.699999999999999 -0.587500000000001 0.000000000000000
0 0

0101101
*
Ed
 0.000000100000000 1 1 0
1  10 0 0.000000000000000 87.400000000000006
2  34 20 0 0.000000000000000 87.400000000000006
4 C1 12 0 20 0
0

0101000
+22 11 -22 13 *
Ed
 0.000000100000000 1 1 0
1  11 0 1.000000000000000 2.175000000000001
0

0101000
+32 19 -22 19 *
Wi

0101100
+31 0 -21 0 -20 18 +20 20 *
Fa
0  0.000000100000000 12 0

0101000
+19 0 *
Ve
0.000000100000000
-11.699999999999999 -1.587500000000001 0.000000000000001
0 0

0101101
*
Ed
 0.000000100000000 1 1 0
1  12 0 0.000000000000000 87.400000000000006
2  35 19 0 0.000000000000000 87.400000000000006
4 C1 19 0 21 0
0

0101000
+17 11 -17 13 *
Ed
 0.000000100000000 1 1 0
1  13 0 0.000000000000000 1.570796326794897
2  36 22 0 0.000000000000000 1.570796326794897
2  37 6 21 0.000000000000000 1.570796326794897
2  38 23 24 0.000000000000000 1.570796326794897
2  39 23 26 0.000000000000000 1.570796326794897
2  40 24 29 0.000000000000000 1.570796326794897
2  41 24 31 0.000000000000000 1.570796326794897
2  42 25 34 0.000000000000000 1.570796326794897
2  43 25 36 0.000000000000000 1.570796326794897
2  44 26 40 0.000000000000000 1.570796326794897
2  45 26 42 0.000000000000000 1.570796326794897
2  46 27 46 0.000000000000000 1.570796326794897
2  47 27 48 0.000000000000000 1.570796326794897
2  48 19 49 0.000000000000000 1.570796326794897
2  49 19 50 0.000000000000000 1.570796326794897
0

0101000
+17 0 -27 0 *
Wi

0101100
+16 0 -26 0 -15 11 +15 13 *
Fa
0  0.000000100000000 19 0

0101000
+14 0 *
Ve
0.000000100000000
11.699999999999999 -1.587500000000001 0.000000000000001
0 0

0101101
*
Ed
 0.000000100000000 1 1 0
1  14 0 0.000000000000000 87.400000000000006
2  50 20 0 0.000000000000000 87.400000000000006
4 C1 20 0 21 0
0

0101000
+12 11 -12 13 *
Ed
 0.000000100000000 1 1 0
1  15 0 4.712388980384690 6.283185307179586
2  51 28 0 4.712388980384690 6.283185307179586
2  52 6 21 4.712388980384690 6.283185307179586
2  53 29 24 4.712388980384690 6.283185307179586
2  54 29 26 4.712388980384690 6.283185307179586
2  55 30 29 4.712388980384690 6.283185307179586
2  56 30 31 4.712388980384690 6.283185307179586
2  57 31 34 4.712388980384690 6.283185307179586
2  58 31 36 4.712388980384690 6.283185307179586
2  59 32 40 4.712388980384690 6.283185307179586
2  60 32 42 4.712388980384690 6.283185307179586
2  61 33 46 4.712388980384690 6.283185307179586
2  62 33 48 4.712388980384690 6.283185307179586
2  63 20 49 4.712388980384690 6.283185307179586
2  64 20 50 4.712388980384690 6.283185307179586
0

0101000
+22 0 -12 0 *
Wi

0101100
+21 0 -11 0 -10 11 +10 13 *
Fa
0  0.000000100000000 20 0

0101000
+9 0 *
Ed
 0.000000100000000 1 1 0
1  16 0 1.000000000000000 24.399999999999999
0

0101000
+12 19 -17 19 *
Wi

0101100
+11 0 -16 0 -7 18 +7 20 *
Fa
0  0.000000100000000 21 0

0101000
+6 0 *
Wi

0101100
+40 53 -35 0 +30 0 +25 53 +20 53 +15 0 +10 0 +7 53 *
Fa
0  0.000000100000000 6 0

0111000
+4 52 *
Sh

0101100
+38 0 -33 0 +28 0 +23 0 +18 0 +13 0 +8 0 +5 0 +3 51 -3 54 
*
So

1100000
-2 0 *

+1 0 