
CASCADE Topology V1, (c) Matra-Datavision
Locations 48
1
1.000000000000000 0.000000000000000 0.000000000000000 0.000000000000000 
0.000000000000000 1.000000000000000 0.000000000000000 0.000000000000000 
0.000000000000000 0.000000000000000 1.000000000000000 0.000000000000000 
1
1.000000000000000 0.000000000000000 0.000000000000000 0.000000000000000 
0.000000000000000 1.000000000000000 0.000000000000000 0.000000000000000 
0.000000000000000 0.000000000000000 1.000000000000000 0.000000000000000 
1
1.000000000000000 0.000000000000000 0.000000000000000 0.000000000000000 
0.000000000000000 1.000000000000000 0.000000000000000 0.000000000000000 
0.000000000000000 0.000000000000000 1.000000000000000 0.000000000000000 
1
1.000000000000000 0.000000000000000 0.000000000000000 0.000000000000000 
0.000000000000000 1.000000000000000 0.000000000000000 0.000000000000000 
0.000000000000000 0.000000000000000 1.000000000000000 0.000000000000000 
1
1.000000000000000 0.000000000000000 0.000000000000000 0.000000000000000 
0.000000000000000 1.000000000000000 0.000000000000000 0.000000000000000 
0.000000000000000 0.000000000000000 1.000000000000000 0.000000000000000 
2  2 1 3 -1 4 1 5 1 0
2  5 -1 4 -1 3 1 2 -1 0
1
1.000000000000000 0.000000000000000 0.000000000000000 0.000000000000000 
0.000000000000000 1.000000000000000 0.000000000000000 0.000000000000000 
0.000000000000000 0.000000000000000 1.000000000000000 0.000000000000000 
1
1.000000000000000 0.000000000000000 0.000000000000000 0.000000000000000 
0.000000000000000 1.000000000000000 0.000000000000000 0.000000000000000 
0.000000000000000 0.000000000000000 1.000000000000000 0.000000000000000 
1
1.000000000000000 0.000000000000000 0.000000000000000 0.000000000000000 
0.000000000000000 1.000000000000000 0.000000000000000 0.000000000000000 
0.000000000000000 0.000000000000000 1.000000000000000 0.000000000000000 
2  8 1 9 1 10 -1 2 1 3 -1 4 1 5 1 0
2  10 1 9 -1 8 -1 0
1
1.000000000000000 0.000000000000000 0.000000000000000 0.000000000000000 
0.000000000000000 1.000000000000000 0.000000000000000 0.000000000000000 
0.000000000000000 0.000000000000000 1.000000000000000 4.000000000000000 
2  13 -1 10 1 9 -1 8 -1 0
2  9 -1 8 -1 0
2  5 -1 4 -1 3 1 2 -1 10 1 9 -1 8 -1 0
2  4 -1 3 1 2 -1 10 1 9 -1 8 -1 0
2  2 1 3 -1 4 1 0
2  8 1 9 1 10 -1 13 1 2 1 3 -1 4 1 5 1 0
2  5 -1 4 -1 3 1 2 -1 13 -1 10 1 9 -1 8 -1 0
2  4 -1 3 1 2 -1 13 -1 10 1 9 -1 8 -1 0
2  10 -1 2 1 3 -1 4 1 5 1 0
2  5 -1 4 -1 3 1 2 -1 10 1 0
2  10 -1 2 1 3 -1 4 1 0
2  8 1 9 1 0
2  10 -1 13 1 2 1 3 -1 4 1 5 1 0
2  10 -1 13 1 2 1 3 -1 4 1 0
2  4 1 5 1 0
2  10 -1 13 1 2 1 3 -1 0
2  5 -1 4 -1 0
2  8 1 9 1 10 -1 13 1 2 1 3 -1 0
1
1.000000000000000 0.000000000000000 0.000000000000000 0.000000000000000 
0.000000000000000 1.000000000000000 0.000000000000000 0.000000000000000 
0.000000000000000 0.000000000000000 1.000000000000000 0.000000000000000 
1
1.000000000000000 0.000000000000000 0.000000000000000 0.000000000000000 
0.000000000000000 1.000000000000000 0.000000000000000 0.000000000000000 
0.000000000000000 0.000000000000000 1.000000000000000 4.000000000000000 
2  32 1 33 1 3 -1 0
2  3 1 33 -1 32 -1 0
1
1.000000000000000 0.000000000000000 0.000000000000000 0.000000000000000 
0.000000000000000 1.000000000000000 0.000000000000000 0.000000000000000 
0.000000000000000 0.000000000000000 1.000000000000000 3.000000000000000 
2  36 -1 3 1 33 -1 32 -1 0
2  33 -1 32 -1 0
2  10 -1 13 1 2 1 33 -1 32 -1 0
2  2 1 3 -1 0
2  8 1 9 1 10 -1 0
2  3 1 2 -1 0
2  8 1 9 1 10 -1 2 1 3 -1 0
2  3 1 2 -1 13 -1 10 1 9 -1 8 -1 0
2  8 1 9 1 10 -1 13 1 0
2  32 1 33 1 3 -1 36 1 0
2  3 -1 36 1 4 1 5 1 0
2  32 1 33 1 0
Curve2ds 71
1 0.00000000000000000 0.00000000000000000 1.00000000000000000 0.00000000000000000 
1 0.00000000000000000 -4.00000000000000000 1.00000000000000000 0.00000000000000000 
1 30.00000000000000000 -0.00000000000000085 -0.89442719099991597 0.44721359549995804 
1 0.00000000000000000 0.00000000000000000 0.00000000000000000 1.00000000000000000 
1 27.04101966249686129 0.00000000000000000 0.00000000000000000 -1.00000000000000000 
1 0.00000000000000000 0.00000000000000000 0.00000000000000000 1.00000000000000000 
1 11.99999999999999645 0.00000000000000000 0.00000000000000000 -1.00000000000000000 
1 -2.67794504458898697 0.00000000000000000 1.00000000000000000 0.00000000000000000 
2 -0.00000000000001243 0.46555814625137609 0.00000000000000000 -1.00000000000000000 1.00000000000000000 0.00000000000000000 13.00000000000000000
1 -3.60524026259059927 0.00000000000000000 1.00000000000000000 0.00000000000000000 
2 16.58359213500126472 0.00000000000000271 0.00000000000000000 -1.00000000000000000 -1.00000000000000000 -0.00000000000000000 6.00000000000000000
1 0.00000000000000000 15.00000000000000178 -0.89442719099991597 -0.44721359549995804 
1 0.00000000000000000 0.00000000000000000 1.00000000000000000 0.00000000000000000 
1 0.00000000000000000 -4.00000000000000000 1.00000000000000000 0.00000000000000000 
1 0.00000000000000000 0.00000000000000000 1.00000000000000000 0.00000000000000000 
1 0.00000000000000000 -4.00000000000000000 1.00000000000000000 0.00000000000000000 
1 0.00000000000000000 -14.99999999999999822 0.89442719099991597 0.44721359549995793 
1 -3.60524026259059927 0.00000000000000000 1.00000000000000000 0.00000000000000000 
2 -16.58359213500126472 -0.00000000000000529 0.00000000000000000 -1.00000000000000000 1.00000000000000000 0.00000000000000000 6.00000000000000000
1 -5.81953769817878008 0.00000000000000000 1.00000000000000000 0.00000000000000000 
2 0.00000000000000888 -0.46555814625137065 0.00000000000000000 -1.00000000000000000 -1.00000000000000000 -0.00000000000000000 13.00000000000000000
1 -30.00000000000000000 -0.00000000000000085 0.89442719099991597 -0.44721359549995793 
1 0.00000000000000000 0.00000000000000000 1.00000000000000000 0.00000000000000000 
1 0.00000000000000000 -4.00000000000000000 1.00000000000000000 0.00000000000000000 
1 0.00000000000000000 0.00000000000000000 1.00000000000000000 0.00000000000000000 
1 0.00000000000000000 -4.00000000000000000 1.00000000000000000 0.00000000000000000 
2 0.00000000000000000 -0.00000000000000085 1.00000000000000000 0.00000000000000000 -0.00000000000000000 1.00000000000000000 11.00000000000000000
1 0.00000000000000000 0.00000000000000000 1.00000000000000000 0.00000000000000000 
1 0.00000000000000000 -4.00000000000000000 1.00000000000000000 0.00000000000000000 
2 18.00000000000000000 -0.00000000000000085 1.00000000000000000 0.00000000000000000 -0.00000000000000000 1.00000000000000000 2.50000000000000000
1 0.00000000000000000 0.00000000000000000 1.00000000000000000 0.00000000000000000 
1 0.00000000000000000 -4.00000000000000000 1.00000000000000000 0.00000000000000000 
2 -18.00000000000000000 -0.00000000000000085 1.00000000000000000 0.00000000000000000 -0.00000000000000000 1.00000000000000000 2.50000000000000000
1 0.92729521800161208 0.00000000000000000 0.00000000000000000 1.00000000000000000 
1 6.50000000000000622 0.00000000000000000 0.00000000000000000 -1.00000000000000000 
1 -2.67794504458898697 4.00000000000000000 1.00000000000000000 0.00000000000000000 
2 -0.00000000000001243 0.46555814625137609 0.00000000000000000 -1.00000000000000000 1.00000000000000000 0.00000000000000000 13.00000000000000000
1 2.21429743558818126 0.00000000000000000 0.00000000000000000 1.00000000000000000 
1 21.54101966249685063 0.00000000000000000 0.00000000000000000 -1.00000000000000000 
1 -3.60524026259059927 4.00000000000000000 1.00000000000000000 0.00000000000000000 
2 16.58359213500126472 0.00000000000000271 0.00000000000000000 -1.00000000000000000 -1.00000000000000000 -0.00000000000000000 6.00000000000000000
1 -3.60524026259059927 4.00000000000000000 1.00000000000000000 0.00000000000000000 
2 -16.58359213500126472 -0.00000000000000529 0.00000000000000000 -1.00000000000000000 1.00000000000000000 0.00000000000000000 6.00000000000000000
1 -5.81953769817878008 4.00000000000000000 1.00000000000000000 0.00000000000000000 
2 0.00000000000000888 -0.46555814625137065 0.00000000000000000 -1.00000000000000000 -1.00000000000000000 -0.00000000000000000 13.00000000000000000
1 0.00000000000000000 0.00000000000000000 1.00000000000000000 0.00000000000000000 
1 0.00000000000000000 -3.00000000000000000 1.00000000000000000 0.00000000000000000 
2 0.00000000000000044 -0.00000000000000080 1.00000000000000000 0.00000000000000000 -0.00000000000000000 1.00000000000000000 12.50000000000000000
2 0.00000000000000000 -0.00000000000000085 1.00000000000000000 0.00000000000000000 -0.00000000000000000 1.00000000000000000 12.50000000000000000
1 0.00000000000000000 0.00000000000000000 0.00000000000000000 1.00000000000000000 
1 21.54101966249685773 0.00000000000000000 0.00000000000000000 -1.00000000000000000 
1 0.00000000000000000 0.00000000000000000 0.00000000000000000 1.00000000000000000 
1 6.50000000000000622 0.00000000000000000 0.00000000000000000 -1.00000000000000000 
1 2.21429743558818126 0.00000000000000000 0.00000000000000000 1.00000000000000000 
1 12.00000000000000000 -0.00000000000000000 0.00000000000000000 -1.00000000000000000 
1 0.92729521800161196 0.00000000000000000 0.00000000000000000 1.00000000000000000 
1 27.04101966249685773 -0.00000000000000000 0.00000000000000000 -1.00000000000000000 
1 0.00000000000000000 0.00000000000000000 0.00000000000000000 -1.00000000000000000 
1 6.28318530717958623 0.00000000000000000 0.00000000000000000 -1.00000000000000000 
8 0.00000000000000000 6.28318530717958623
1 0.00000000000000000 0.00000000000000000 1.00000000000000000 0.00000000000000000 
1 0.00000000000000000 0.00000000000000000 0.00000000000000000 -1.00000000000000000 
1 6.28318530717958623 0.00000000000000000 0.00000000000000000 -1.00000000000000000 
1 0.00000000000000000 0.00000000000000000 0.00000000000000000 -1.00000000000000000 
1 6.28318530717958623 0.00000000000000000 0.00000000000000000 -1.00000000000000000 
1 0.00000000000000000 0.00000000000000000 0.00000000000000000 -1.00000000000000000 
1 6.28318530717958623 0.00000000000000000 0.00000000000000000 -1.00000000000000000 
1 0.00000000000000000 0.00000000000000000 0.00000000000000000 -1.00000000000000000 
1 6.28318530717958623 0.00000000000000000 0.00000000000000000 -1.00000000000000000 
1 0.00000000000000000 0.00000000000000000 1.00000000000000000 0.00000000000000000 
1 0.00000000000000000 -3.00000000000000000 1.00000000000000000 0.00000000000000000 
2 0.00000000000000044 -0.00000000000000080 1.00000000000000000 0.00000000000000000 -0.00000000000000000 1.00000000000000000 11.00000000000000000
Curves 30
1 30.00000000000000000 0.00000000000000000 0.00000000000000000 -0.89442719099991597 0.44721359549995804 0.00000000000000000 
1 5.81377674149944212 12.09311162925028427 0.00000000000000000 0.00000000000000000 0.00000000000000000 1.00000000000000000 
1 19.26687370800101462 5.36656314599949980 0.00000000000000000 0.00000000000000000 0.00000000000000000 1.00000000000000000 
8 2.67794504458898697 3.60524026259059927
2 -0.00000000000001243 0.46555814625137693 0.00000000000000000 0.00000000000000000 0.00000000000000000 1.00000000000000000 0.00000000000000000 -1.00000000000000000 0.00000000000000000 1.00000000000000000 0.00000000000000000 -0.00000000000000000 13.00000000000000000
8 3.60524026259059971 5.81953769817878008
2 16.58359213500126472 0.00000000000000355 0.00000000000000000 -0.00000000000000000 -0.00000000000000000 -1.00000000000000000 0.00000000000000000 -1.00000000000000000 0.00000000000000000 -1.00000000000000000 0.00000000000000000 0.00000000000000000 6.00000000000000000
1 0.00000000000000000 15.00000000000000178 0.00000000000000000 -0.89442719099991597 -0.44721359549995804 0.00000000000000000 
1 0.00000000000000000 -14.99999999999999822 0.00000000000000000 0.89442719099991597 0.44721359549995793 0.00000000000000000 
8 3.60524026259059927 5.81953769817878097
2 -16.58359213500126472 -0.00000000000000444 0.00000000000000000 0.00000000000000000 0.00000000000000000 1.00000000000000000 0.00000000000000000 -1.00000000000000000 0.00000000000000000 1.00000000000000000 0.00000000000000000 -0.00000000000000000 6.00000000000000000
8 5.81953769817878008 6.74683291618039238
2 0.00000000000000888 -0.46555814625136982 0.00000000000000000 -0.00000000000000000 -0.00000000000000000 -1.00000000000000000 0.00000000000000000 -1.00000000000000000 0.00000000000000000 -1.00000000000000000 0.00000000000000000 0.00000000000000000 13.00000000000000000
1 -30.00000000000000000 0.00000000000000000 0.00000000000000000 0.89442719099991597 -0.44721359549995793 0.00000000000000000 
2 0.00000000000000000 0.00000000000000000 0.00000000000000000 0.00000000000000000 0.00000000000000000 1.00000000000000000 1.00000000000000000 0.00000000000000000 -0.00000000000000000 -0.00000000000000000 1.00000000000000000 0.00000000000000000 11.00000000000000000
2 18.00000000000000000 0.00000000000000000 0.00000000000000000 0.00000000000000000 0.00000000000000000 1.00000000000000000 1.00000000000000000 0.00000000000000000 -0.00000000000000000 -0.00000000000000000 1.00000000000000000 0.00000000000000000 2.50000000000000000
2 -18.00000000000000000 0.00000000000000000 0.00000000000000000 0.00000000000000000 0.00000000000000000 1.00000000000000000 1.00000000000000000 0.00000000000000000 -0.00000000000000000 -0.00000000000000000 1.00000000000000000 0.00000000000000000 2.50000000000000000
1 -5.81377674149946522 12.09311162925028604 0.00000000000000000 0.00000000000000000 0.00000000000000000 1.00000000000000000 
8 2.67794504458898697 3.60524026259059927
2 -0.00000000000001243 0.46555814625137693 4.00000000000000000 0.00000000000000000 0.00000000000000000 1.00000000000000000 0.00000000000000000 -1.00000000000000000 0.00000000000000000 1.00000000000000000 0.00000000000000000 -0.00000000000000000 13.00000000000000000
1 19.26687370800101107 -5.36656314599949358 0.00000000000000000 0.00000000000000000 0.00000000000000000 1.00000000000000000 
8 3.60524026259059971 5.81953769817878008
2 16.58359213500126472 0.00000000000000355 4.00000000000000000 -0.00000000000000000 -0.00000000000000000 -1.00000000000000000 0.00000000000000000 -1.00000000000000000 0.00000000000000000 -1.00000000000000000 0.00000000000000000 0.00000000000000000 6.00000000000000000
8 3.60524026259059927 5.81953769817878097
2 -16.58359213500126472 -0.00000000000000444 4.00000000000000000 0.00000000000000000 0.00000000000000000 1.00000000000000000 0.00000000000000000 -1.00000000000000000 0.00000000000000000 1.00000000000000000 0.00000000000000000 -0.00000000000000000 6.00000000000000000
8 5.81953769817878008 6.74683291618039238
2 0.00000000000000888 -0.46555814625136982 4.00000000000000000 -0.00000000000000000 -0.00000000000000000 -1.00000000000000000 0.00000000000000000 -1.00000000000000000 0.00000000000000000 -1.00000000000000000 0.00000000000000000 0.00000000000000000 13.00000000000000000
2 0.00000000000000000 0.00000000000000000 0.00000000000000000 0.00000000000000000 0.00000000000000000 1.00000000000000000 1.00000000000000000 0.00000000000000000 -0.00000000000000000 -0.00000000000000000 1.00000000000000000 0.00000000000000000 12.50000000000000000
1 -19.26687370800101462 5.36656314599949180 0.00000000000000000 0.00000000000000000 0.00000000000000000 1.00000000000000000 
1 5.81377674149946166 -12.09311162925027716 0.00000000000000000 0.00000000000000000 0.00000000000000000 1.00000000000000000 
1 -19.26687370800101107 -5.36656314599950157 0.00000000000000000 0.00000000000000000 0.00000000000000000 1.00000000000000000 
1 -5.81377674149944390 -12.09311162925027894 0.00000000000000000 0.00000000000000000 0.00000000000000000 1.00000000000000000 
1 11.00000000000000000 0.00000000000000000 0.00000000000000000 0.00000000000000000 0.00000000000000000 1.00000000000000000 
1 20.50000000000000000 0.00000000000000000 0.00000000000000000 0.00000000000000000 0.00000000000000000 1.00000000000000000 
1 -15.50000000000000000 0.00000000000000000 0.00000000000000000 0.00000000000000000 0.00000000000000000 1.00000000000000000 
1 12.50000000000000000 0.00000000000000000 4.00000000000000000 0.00000000000000000 0.00000000000000000 1.00000000000000000 
1 11.00000000000000000 0.00000000000000000 4.00000000000000000 0.00000000000000000 0.00000000000000000 1.00000000000000000 
2 0.00000000000000000 0.00000000000000000 0.00000000000000000 0.00000000000000000 0.00000000000000000 1.00000000000000000 1.00000000000000000 0.00000000000000000 -0.00000000000000000 -0.00000000000000000 1.00000000000000000 0.00000000000000000 11.00000000000000000
Polygon3D 0
PolygonOnTriangulations 0
Surfaces 15
1 30.00000000000000000 0.00000000000000000 0.00000000000000000 -0.44721359549995804 -0.89442719099991597 0.00000000000000000 -0.89442719099991574 0.44721359549995793 0.00000000000000000 -0.00000000000000000 0.00000000000000000 -1.00000000000000000 
1 0.00000000000000000 0.00000000000000085 0.00000000000000000 0.00000000000000000 0.00000000000000000 1.00000000000000000 1.00000000000000000 0.00000000000000000 -0.00000000000000000 -0.00000000000000000 1.00000000000000000 0.00000000000000000 
2 -0.00000000000001243 0.46555814625137693 0.00000000000000000 0.00000000000000000 0.00000000000000000 1.00000000000000000 0.44721359549995804 0.89442719099991597 -0.00000000000000000 -0.89442719099991597 0.44721359549995804 0.00000000000000000 13.00000000000000000
2 16.58359213500126472 0.00000000000000355 0.00000000000000000 0.00000000000000000 0.00000000000000000 1.00000000000000000 0.44721359549995804 0.89442719099991597 -0.00000000000000000 0.89442719099991597 -0.44721359549995804 -0.00000000000000000 6.00000000000000000
1 0.00000000000000000 15.00000000000000178 0.00000000000000000 0.44721359549995804 -0.89442719099991597 0.00000000000000000 -0.89442719099991574 -0.44721359549995793 0.00000000000000000 0.00000000000000000 -0.00000000000000000 -1.00000000000000000 
1 0.00000000000000000 -14.99999999999999822 0.00000000000000000 -0.44721359549995793 0.89442719099991597 0.00000000000000000 0.89442719099991597 0.44721359549995793 0.00000000000000000 0.00000000000000000 0.00000000000000000 -1.00000000000000000 
2 -16.58359213500126472 -0.00000000000000444 0.00000000000000000 0.00000000000000000 0.00000000000000000 1.00000000000000000 -0.44721359549995804 0.89442719099991597 0.00000000000000000 -0.89442719099991597 -0.44721359549995804 0.00000000000000000 6.00000000000000000
2 0.00000000000000888 -0.46555814625136982 0.00000000000000000 0.00000000000000000 0.00000000000000000 1.00000000000000000 0.44721359549995793 -0.89442719099991597 0.00000000000000000 -0.89442719099991597 -0.44721359549995793 0.00000000000000000 13.00000000000000000
1 -30.00000000000000000 0.00000000000000000 0.00000000000000000 0.44721359549995793 0.89442719099991597 -0.00000000000000000 0.89442719099991597 -0.44721359549995793 0.00000000000000000 0.00000000000000000 -0.00000000000000000 -1.00000000000000000 
2 0.00000000000000000 0.00000000000000000 0.00000000000000000 -0.00000000000000000 -0.00000000000000000 -1.00000000000000000 1.00000000000000000 0.00000000000000000 0.00000000000000000 -0.00000000000000000 1.00000000000000000 -0.00000000000000000 11.00000000000000000
2 18.00000000000000000 0.00000000000000000 0.00000000000000000 -0.00000000000000000 -0.00000000000000000 -1.00000000000000000 1.00000000000000000 0.00000000000000000 0.00000000000000000 -0.00000000000000000 1.00000000000000000 -0.00000000000000000 2.50000000000000000
2 -18.00000000000000000 0.00000000000000000 0.00000000000000000 -0.00000000000000000 -0.00000000000000000 -1.00000000000000000 1.00000000000000000 0.00000000000000000 0.00000000000000000 -0.00000000000000000 1.00000000000000000 -0.00000000000000000 2.50000000000000000
2 0.00000000000000000 0.00000000000000000 4.00000000000000000 -0.00000000000000000 -0.00000000000000000 -1.00000000000000000 1.00000000000000000 0.00000000000000000 0.00000000000000000 -0.00000000000000000 1.00000000000000000 -0.00000000000000000 12.50000000000000000
1 -0.00000000000000044 0.00000000000000080 4.00000000000000000 0.00000000000000000 0.00000000000000000 1.00000000000000000 1.00000000000000000 0.00000000000000000 -0.00000000000000000 -0.00000000000000000 1.00000000000000000 0.00000000000000000 
2 0.00000000000000000 0.00000000000000000 4.00000000000000000 -0.00000000000000000 -0.00000000000000000 -1.00000000000000000 1.00000000000000000 0.00000000000000000 0.00000000000000000 -0.00000000000000000 1.00000000000000000 -0.00000000000000000 11.00000000000000000
Triangulations 0

TShapes 98
Ve
0.000000100000000
5.813776741499442 12.093111629250284 0.000000000000000
0 0

0101101
*
Ve
0.000000100000000
19.266873708001015 5.366563145999500 0.000000000000000
0 0

0101101
*
Ed
 0.000000100000000 1 1 0
1  1 0 11.999999999999996 27.041019662496854
2  1 1 12 11.999999999999996 27.041019662496854
2  2 1 14 11.999999999999996 27.041019662496854
2  3 2 15 11.999999999999996 27.041019662496854
0

0101000
-98 16 +97 17 *
Ve
0.000000100000000
5.813776741499442 12.093111629250284 4.000000000000000
0 0

0101101
*
Ed
 0.000000100000000 1 1 0
1  2 0 -0.000000000000000 4.000000000000000
2  4 3 0 -0.000000000000000 4.000000000000000
2  5 1 6 -0.000000000000000 4.000000000000000
4 G1 3 0 1 6
0

0101000
+98 0 -95 0 *
Ve
0.000000100000000
19.266873708001015 5.366563145999500 4.000000000000000
0 0

0101101
*
Ed
 0.000000100000000 1 1 0
1  3 0 -0.000000000000000 4.000000000000000
2  6 4 0 -0.000000000000000 4.000000000000000
2  7 1 18 -0.000000000000000 4.000000000000000
4 G1 4 0 1 18
0

0101000
+97 0 -93 0 *
Ed
 0.000000100000000 1 1 0
1  1 0 11.999999999999996 27.041019662496854
2  1 1 12 11.999999999999996 27.041019662496854
2  2 1 14 11.999999999999996 27.041019662496854
2  3 2 15 11.999999999999996 27.041019662496854
0

0101000
-95 20 +93 21 *
Wi

0101100
-96 11 -94 0 +92 5 +91 19 *
Fa
0  0.000000100000000 1 0

0101000
+90 7 *
Ve
0.000000100000000
-5.813776741499465 12.093111629250286 0.000000000000000
0 0

0101101
*
Ed
 0.000000100000000 1 1 0
1  4 0 2.677945044588987 3.605240262590599
2  8 3 0 2.677945044588987 3.605240262590599
2  9 2 22 2.677945044588987 3.605240262590599
0

0101000
+98 0 -88 0 *
Ve
0.000000100000000
19.266873708001011 -5.366563145999494 0.000000000000000
0 0

0101101
*
Ed
 0.000000100000000 1 1 0
1  5 0 3.605240262590600 5.819537698178780
2  10 4 0 3.605240262590600 5.819537698178780
2  11 2 24 3.605240262590600 5.819537698178780
0

0101000
+97 0 -86 0 *
Ve
0.000000100000000
-19.266873708001015 5.366563145999492 0.000000000000000
0 0

0101101
*
Ed
 0.000000100000000 1 1 0
1  6 0 6.500000000000005 21.541019662496851
2  12 2 15 6.500000000000005 21.541019662496851
2  13 5 12 6.500000000000005 21.541019662496851
2  14 5 14 6.500000000000005 21.541019662496851
0

0101000
+88 16 -84 17 *
Ve
0.000000100000000
5.813776741499462 -12.093111629250277 0.000000000000000
0 0

0101101
*
Ed
 0.000000100000000 1 1 0
1  7 0 6.500000000000004 21.541019662496847
2  15 6 12 6.500000000000004 21.541019662496847
2  16 6 14 6.500000000000004 21.541019662496847
2  17 2 15 6.500000000000004 21.541019662496847
0

0101000
+82 16 -86 17 *
Ve
0.000000100000000
-19.266873708001011 -5.366563145999502 0.000000000000000
0 0

0101101
*
Ed
 0.000000100000000 1 1 0
1  8 0 3.605240262590599 5.819537698178781
2  18 7 0 3.605240262590599 5.819537698178781
2  19 2 24 3.605240262590599 5.819537698178781
0

0101000
+84 0 -80 0 *
Ve
0.000000100000000
-5.813776741499444 -12.093111629250279 0.000000000000000
0 0

0101101
*
Ed
 0.000000100000000 1 1 0
1  9 0 5.819537698178780 6.746832916180392
2  20 8 0 5.819537698178780 6.746832916180392
2  21 2 22 5.819537698178780 6.746832916180392
0

0101000
+82 0 -78 0 *
Ed
 0.000000100000000 1 1 0
1  10 0 12.000000000000000 27.041019662496854
2  22 2 15 12.000000000000000 27.041019662496854
2  23 9 12 12.000000000000000 27.041019662496854
2  24 9 14 12.000000000000000 27.041019662496854
0

0101000
-78 16 +80 17 *
Wi

0101100
+96 11 +87 0 -85 5 +83 11 +81 11 +79 5 -77 0 +76 11 *
Ve
0.000000100000000
11.000000000000000 0.000000000000000 0.000000000000000
0 0

0101101
*
Ed
 0.000000100000000 1 1 0
1  11 0 0.000000000000000 6.283185307179586
2  25 10 12 0.000000000000000 6.283185307179586
2  26 10 14 0.000000000000000 6.283185307179586
2  27 2 15 0.000000000000000 6.283185307179586
0

0101000
+74 0 -74 0 *
Wi

0101100
-73 25 *
Ve
0.000000100000000
20.500000000000000 0.000000000000000 0.000000000000000
0 0

0101101
*
Ed
 0.000000100000000 1 1 0
1  12 0 0.000000000000000 6.283185307179586
2  28 11 12 0.000000000000000 6.283185307179586
2  29 11 14 0.000000000000000 6.283185307179586
2  30 2 15 0.000000000000000 6.283185307179586
0

0101000
+71 0 -71 0 *
Wi

0101100
-70 25 *
Ve
0.000000100000000
-15.500000000000000 0.000000000000000 0.000000000000000
0 0

0101101
*
Ed
 0.000000100000000 1 1 0
1  13 0 0.000000000000000 6.283185307179586
2  31 12 12 0.000000000000000 6.283185307179586
2  32 12 14 0.000000000000000 6.283185307179586
2  33 2 15 0.000000000000000 6.283185307179586
0

0101000
+68 0 -68 0 *
Wi

0101100
-67 25 *
Fa
0  0.000000100000000 2 0

0101000
+75 23 +72 0 +69 0 +66 0 *
Ve
0.000000100000000
-5.813776741499465 12.093111629250286 4.000000000000000
0 0

0101101
*
Ed
 0.000000100000000 1 1 0
1  14 0 0.000000000000000 4.000000000000000
2  34 3 0 0.000000000000000 4.000000000000000
2  35 5 6 0.000000000000000 4.000000000000000
4 G1 3 0 5 6
0

0101000
+88 0 -64 0 *
Ed
 0.000000100000000 1 1 0
1  15 0 2.677945044588987 3.605240262590599
2  36 3 0 2.677945044588987 3.605240262590599
2  37 2 26 2.677945044588987 3.605240262590599
0

0101000
+95 0 -64 0 *
Wi

0101100
+87 0 -94 0 +63 0 -62 0 *
Fa
0  0.000000000000000 3 0

0101000
+61 0 *
Ve
0.000000100000000
19.266873708001011 -5.366563145999494 4.000000000000000
0 0

0101101
*
Ed
 0.000000100000000 1 1 0
1  16 0 -0.000000000000000 4.000000000000000
2  38 4 0 -0.000000000000000 4.000000000000000
2  39 6 18 -0.000000000000000 4.000000000000000
4 G1 4 0 6 18
0

0101000
+86 0 -59 0 *
Ed
 0.000000100000000 1 1 0
1  17 0 3.605240262590600 5.819537698178780
2  40 4 0 3.605240262590600 5.819537698178780
2  41 2 27 3.605240262590600 5.819537698178780
0

0101000
+93 0 -59 0 *
Wi

0101100
+85 0 -92 0 +58 0 -57 0 *
Fa
0  0.000000000000000 4 0

0101000
+56 0 *
Ve
0.000000100000000
-19.266873708001015 5.366563145999492 4.000000000000000
0 0

0101101
*
Ed
 0.000000100000000 1 1 0
1  6 0 6.500000000000005 21.541019662496851
2  12 2 15 6.500000000000005 21.541019662496851
2  13 5 12 6.500000000000005 21.541019662496851
2  14 5 14 6.500000000000005 21.541019662496851
0

0101000
+64 20 -54 21 *
Ve
0.000000100000000
5.813776741499462 -12.093111629250277 4.000000000000000
0 0

0101101
*
Ed
 0.000000100000000 1 1 0
1  7 0 6.500000000000004 21.541019662496847
2  15 6 12 6.500000000000004 21.541019662496847
2  16 6 14 6.500000000000004 21.541019662496847
2  17 2 15 6.500000000000004 21.541019662496847
0

0101000
+52 20 -59 21 *
Ve
0.000000100000000
-19.266873708001011 -5.366563145999502 4.000000000000000
0 0

0101101
*
Ed
 0.000000100000000 1 1 0
1  18 0 3.605240262590599 5.819537698178781
2  42 7 0 3.605240262590599 5.819537698178781
2  43 2 27 3.605240262590599 5.819537698178781
0

0101000
+54 0 -50 0 *
Ve
0.000000100000000
-5.813776741499444 -12.093111629250279 4.000000000000000
0 0

0101101
*
Ed
 0.000000100000000 1 1 0
1  19 0 5.819537698178780 6.746832916180392
2  44 8 0 5.819537698178780 6.746832916180392
2  45 2 26 5.819537698178780 6.746832916180392
0

0101000
+52 0 -48 0 *
Ed
 0.000000100000000 1 1 0
1  10 0 12.000000000000000 27.041019662496854
2  22 2 15 12.000000000000000 27.041019662496854
2  23 9 12 12.000000000000000 27.041019662496854
2  24 9 14 12.000000000000000 27.041019662496854
0

0101000
-48 20 +50 21 *
Wi

0101100
+91 19 +62 0 -57 5 +53 19 +51 19 +49 5 -47 0 +46 19 *
Wi

0101100
-67 31 *
Ve
0.000000100000000
12.500000000000000 0.000000000000000 0.000000000000000
0 0

0101101
*
Ed
 0.000000100000000 1 1 0
1  20 0 0.000000000000000 6.283185307179586
2  46 13 35 0.000000000000000 6.283185307179586
2  47 13 37 0.000000000000000 6.283185307179586
2  48 14 38 0.000000000000000 6.283185307179586
2  49 2 39 0.000000000000000 6.283185307179586
0

0101000
+43 0 -43 0 *
Wi

0101100
-42 34 *
Wi

0101100
-70 31 *
Fa
0  0.000000100000000 2 29

0101000
+45 30 +44 0 +41 0 +40 0 *
Ed
 0.000000100000000 1 1 0
1  21 0 0.000000000000000 4.000000000000000
2  50 7 0 0.000000000000000 4.000000000000000
2  51 5 18 0.000000000000000 4.000000000000000
4 G1 7 0 5 18
0

0101000
+84 0 -54 0 *
Wi

0101100
-83 11 +63 0 -38 5 +53 19 *
Fa
0  0.000000100000000 5 0

0101000
+37 7 *
Ed
 0.000000100000000 1 1 0
1  22 0 -0.000000000000000 4.000000000000000
2  52 8 0 -0.000000000000000 4.000000000000000
2  53 6 6 -0.000000000000000 4.000000000000000
4 G1 8 0 6 6
0

0101000
+82 0 -52 0 *
Wi

0101100
-81 11 +35 0 -58 5 +51 19 *
Fa
0  0.000000100000000 6 0

0101000
+34 7 *
Ed
 0.000000100000000 1 1 0
1  23 0 -0.000000000000000 4.000000000000000
2  54 7 0 -0.000000000000000 4.000000000000000
2  55 9 18 -0.000000000000000 4.000000000000000
4 G1 7 0 9 18
0

0101000
+80 0 -50 0 *
Wi

0101100
+79 0 -38 0 +32 0 -49 0 *
Fa
0  0.000000000000000 7 0

0101000
+31 0 *
Ed
 0.000000100000000 1 1 0
1  24 0 -0.000000000000000 4.000000000000000
2  56 8 0 -0.000000000000000 4.000000000000000
2  57 9 6 -0.000000000000000 4.000000000000000
4 G1 8 0 9 6
0

0101000
+78 0 -48 0 *
Wi

0101100
+77 0 -35 0 +29 0 -47 0 *
Fa
0  0.000000000000000 8 0

0101000
+28 0 *
Wi

0101100
-76 11 -29 0 +32 5 +46 19 *
Fa
0  0.000000100000000 9 0

0101000
+26 7 *
Ve
0.000000100000010
11.000000000000000 0.000000000000000 4.000000000000000
0 0

0101101
*
Ed
 0.000000100000000 1 1 0
1  25 0 0.000000000000000 4.000000000000000
3  58 59CN 10 0 0.000000000000000 4.000000000000000
0

0101000
+74 41 -24 42 *
Ed
 0.000000100000010 1 1 0
1  11 0 0.000000000000000 6.283185307179586
2  25 10 12 0.000000000000000 6.283185307179586
2  26 10 14 0.000000000000000 6.283185307179586
2  27 2 15 0.000000000000000 6.283185307179586
2  60 15 44 0.000000000000000 6.283185307179586
0

0101000
+24 44 -24 44 *
Wi

0101100
+23 40 -23 40 -73 43 +22 31 *
Fa
0  0.000000100000000 10 40

0101000
+21 0 *
Ed
 0.000000100000000 1 1 0
1  26 0 0.000000000000000 4.000000000000000
3  61 62CN 11 0 0.000000000000000 4.000000000000000
0

0101000
+71 41 -71 45 *
Wi

0101100
+19 0 -19 0 -70 41 +70 45 *
Fa
0  0.000000100000000 11 0

0101000
+18 0 *
Ed
 0.000000100000000 1 1 0
1  27 0 0.000000000000000 4.000000000000000
3  63 64CN 12 0 0.000000000000000 4.000000000000000
0

0101000
+68 41 -68 45 *
Wi

0101100
+16 0 -16 0 -67 41 +67 45 *
Fa
0  0.000000100000000 12 0

0101000
+15 0 *
Ed
 0.000000100000000 1 1 0
1  28 0 0.000000000000000 3.000000000000000
3  65 66CN 13 0 0.000000000000000 3.000000000000000
0

0101000
+43 34 -43 46 *
Wi

0101100
+13 0 -13 0 -42 34 +42 46 *
Fa
0  0.000000100000000 13 0

0101000
+12 0 *
Ve
0.000000100000000
11.000000000000000 0.000000000000000 0.000000000000000
0 0

0101101
*
Ed
 0.000000100000000 1 1 0
1  29 0 0.000000000000000 3.000000000000000
3  67 68CN 15 0 0.000000000000000 3.000000000000000
0

0101000
+24 0 -10 46 *
Ed
 0.000000100000000 1 1 0
1  30 0 0.000000000000000 6.283185307179586
2  69 15 35 0.000000000000000 6.283185307179586
2  70 15 37 0.000000000000000 6.283185307179586
2  71 14 38 0.000000000000000 6.283185307179586
0

0101000
+10 0 -10 0 *
Wi

0101100
+9 0 -9 0 -22 31 +8 46 *
Fa
0  0.000000100000000 15 0

0101000
+7 0 *
Wi

0101100
+42 48 *
Wi

0101100
-8 48 *
Fa
0  0.000000100000000 14 0

0101000
+5 0 +4 0 *
Sh

0101100
-89 6 -65 22 +60 0 -55 5 +39 28 -36 6 -33 6 +30 5 -27 0 -25 6 
+20 28 +17 6 +14 6 -11 28 +6 28 +3 47 *
So

0100000
+2 0 *

+1 1 