
CASCADE Topology V1, (c) Matra-Datavision
Locations 46
1
1.000000000000000 0.000000000000000 0.000000000000000 0.000000000000000 
0.000000000000000 1.000000000000000 0.000000000000000 0.000000000000000 
0.000000000000000 0.000000000000000 1.000000000000000 0.000000000000000 
1
1.000000000000000 0.000000000000000 0.000000000000000 0.000000000000000 
0.000000000000000 1.000000000000000 0.000000000000000 0.000000000000000 
0.000000000000000 0.000000000000000 1.000000000000000 0.000000000000000 
1
1.000000000000000 0.000000000000000 0.000000000000000 0.000000000000000 
0.000000000000000 1.000000000000000 0.000000000000000 0.000000000000000 
0.000000000000000 0.000000000000000 1.000000000000000 0.000000000000000 
1
1.000000000000000 0.000000000000000 0.000000000000000 0.000000000000000 
0.000000000000000 1.000000000000000 0.000000000000000 0.000000000000000 
0.000000000000000 0.000000000000000 1.000000000000000 0.000000000000000 
1
1.000000000000000 0.000000000000000 0.000000000000000 0.000000000000000 
0.000000000000000 1.000000000000000 0.000000000000000 0.000000000000000 
0.000000000000000 0.000000000000000 1.000000000000000 0.000000000000000 
2  2 1 3 -1 4 1 5 1 0
2  5 -1 4 -1 3 1 2 -1 0
1
1.000000000000000 0.000000000000000 0.000000000000000 0.000000000000000 
0.000000000000000 1.000000000000000 0.000000000000000 0.000000000000000 
0.000000000000000 0.000000000000000 1.000000000000000 0.000000000000000 
1
1.000000000000000 0.000000000000000 0.000000000000000 0.000000000000000 
0.000000000000000 1.000000000000000 0.000000000000000 0.000000000000000 
0.000000000000000 0.000000000000000 1.000000000000000 0.000000000000000 
1
1.000000000000000 0.000000000000000 0.000000000000000 0.000000000000000 
0.000000000000000 1.000000000000000 0.000000000000000 0.000000000000000 
0.000000000000000 0.000000000000000 1.000000000000000 0.000000000000000 
2  8 1 9 1 10 -1 2 1 3 -1 4 1 5 1 0
1
1.000000000000000 0.000000000000000 0.000000000000000 0.000000000000000 
0.000000000000000 1.000000000000000 0.000000000000000 0.000000000000000 
0.000000000000000 0.000000000000000 1.000000000000000 0.000000000000000 
2  12 -1 5 -1 4 -1 3 1 2 -1 10 1 9 -1 8 -1 0
2  12 -1 0
2  2 1 3 -1 4 1 0
2  12 -1 5 -1 0
1
1.000000000000000 0.000000000000000 0.000000000000000 0.000000000000000 
0.000000000000000 1.000000000000000 0.000000000000000 0.000000000000000 
0.000000000000000 0.000000000000000 1.000000000000000 4.000000000000000 
2  8 1 9 1 10 -1 17 1 2 1 3 -1 4 1 5 1 0
2  12 -1 5 -1 4 -1 3 1 2 -1 17 -1 10 1 9 -1 8 -1 0
2  10 -1 2 1 3 -1 4 1 5 1 0
2  5 -1 4 -1 3 1 2 -1 10 1 0
2  8 1 9 1 0
2  10 1 9 -1 8 -1 0
2  4 1 5 1 0
2  10 -1 17 1 2 1 3 -1 0
2  5 -1 4 -1 0
2  8 1 9 1 10 -1 17 1 2 1 3 -1 0
2  17 -1 10 1 9 -1 8 -1 0
1
1.000000000000000 0.000000000000000 0.000000000000000 0.000000000000000 
0.000000000000000 1.000000000000000 0.000000000000000 0.000000000000000 
0.000000000000000 0.000000000000000 1.000000000000000 0.000000000000000 
1
1.000000000000000 0.000000000000000 0.000000000000000 0.000000000000000 
0.000000000000000 1.000000000000000 0.000000000000000 0.000000000000000 
0.000000000000000 0.000000000000000 1.000000000000000 4.000000000000000 
2  29 1 30 1 3 -1 0
2  3 1 30 -1 29 -1 0
2  12 -1 5 -1 4 -1 3 1 30 -1 29 -1 0
2  2 1 3 -1 0
2  12 -1 5 -1 4 -1 3 1 2 -1 0
2  8 1 9 1 10 -1 2 1 3 -1 0
2  3 1 2 -1 17 -1 10 1 9 -1 8 -1 0
2  8 1 9 1 10 -1 0
2  8 1 9 1 10 -1 17 1 0
2  12 -1 5 -1 4 -1 0
1
1.000000000000000 0.000000000000000 0.000000000000000 0.000000000000000 
0.000000000000000 1.000000000000000 0.000000000000000 0.000000000000000 
0.000000000000000 0.000000000000000 1.000000000000000 3.000000000000000 
2  29 1 30 1 3 -1 41 1 0
2  41 -1 3 1 30 -1 29 -1 0
2  12 -1 5 -1 4 -1 41 -1 3 1 30 -1 29 -1 0
2  3 -1 41 1 4 1 5 1 0
2  29 1 30 1 0
Curve2ds 36
1 0.00000000000000000 0.00000000000000000 0.00000000000000000 1.00000000000000000 
1 0.00000000000000000 0.00000000000000000 0.00000000000000000 1.00000000000000000 
1 -2.67794504458898697 0.00000000000000000 1.00000000000000000 0.00000000000000000 
1 -3.60524026259059927 0.00000000000000000 1.00000000000000000 0.00000000000000000 
1 -3.60524026259059927 0.00000000000000000 1.00000000000000000 0.00000000000000000 
1 -5.81953769817878008 0.00000000000000000 1.00000000000000000 0.00000000000000000 
1 0.00000000000000000 0.00000000000000000 1.00000000000000000 0.00000000000000000 
1 0.00000000000000000 0.00000000000000000 1.00000000000000000 0.00000000000000000 
1 0.00000000000000000 0.00000000000000000 1.00000000000000000 0.00000000000000000 
1 0.92729521800161208 0.00000000000000000 0.00000000000000000 1.00000000000000000 
1 -2.67794504458898697 4.00000000000000000 1.00000000000000000 0.00000000000000000 
1 2.21429743558818126 0.00000000000000000 0.00000000000000000 1.00000000000000000 
1 -3.60524026259059927 4.00000000000000000 1.00000000000000000 0.00000000000000000 
1 -3.60524026259059927 4.00000000000000000 1.00000000000000000 0.00000000000000000 
1 -5.81953769817878008 4.00000000000000000 1.00000000000000000 0.00000000000000000 
1 0.00000000000000000 -4.00000000000000000 1.00000000000000000 0.00000000000000000 
1 0.00000000000000000 0.00000000000000000 1.00000000000000000 0.00000000000000000 
1 0.00000000000000000 -4.00000000000000000 1.00000000000000000 0.00000000000000000 
1 0.00000000000000000 0.00000000000000000 0.00000000000000000 1.00000000000000000 
1 0.00000000000000000 0.00000000000000000 0.00000000000000000 1.00000000000000000 
1 2.21429743558818126 0.00000000000000000 0.00000000000000000 1.00000000000000000 
1 0.92729521800161196 0.00000000000000000 0.00000000000000000 1.00000000000000000 
1 0.00000000000000000 0.00000000000000000 0.00000000000000000 -1.00000000000000000 
1 6.28318530717958623 0.00000000000000000 0.00000000000000000 -1.00000000000000000 
1 0.00000000000000000 -4.00000000000000000 1.00000000000000000 0.00000000000000000 
1 0.00000000000000000 0.00000000000000000 1.00000000000000000 0.00000000000000000 
1 0.00000000000000000 0.00000000000000000 0.00000000000000000 -1.00000000000000000 
1 6.28318530717958623 0.00000000000000000 0.00000000000000000 -1.00000000000000000 
1 0.00000000000000000 0.00000000000000000 0.00000000000000000 -1.00000000000000000 
1 6.28318530717958623 0.00000000000000000 0.00000000000000000 -1.00000000000000000 
1 0.00000000000000000 0.00000000000000000 0.00000000000000000 -1.00000000000000000 
1 6.28318530717958623 0.00000000000000000 0.00000000000000000 -1.00000000000000000 
1 0.00000000000000000 -3.00000000000000000 1.00000000000000000 0.00000000000000000 
1 0.00000000000000000 0.00000000000000000 0.00000000000000000 -1.00000000000000000 
1 6.28318530717958623 0.00000000000000000 0.00000000000000000 -1.00000000000000000 
1 0.00000000000000000 -3.00000000000000000 1.00000000000000000 0.00000000000000000 
Curves 38
1 30.00000000000000000 0.00000000000000000 0.00000000000000000 -0.89442719099991597 0.44721359549995804 0.00000000000000000 
1 5.81377674149944212 12.09311162925028427 0.00000000000000000 0.00000000000000000 0.00000000000000000 1.00000000000000000 
1 19.26687370800101462 5.36656314599949980 0.00000000000000000 0.00000000000000000 0.00000000000000000 1.00000000000000000 
1 30.00000000000000000 0.00000000000000000 0.00000000000000000 -0.89442719099991597 0.44721359549995804 0.00000000000000000 
8 2.67794504458898697 3.60524026259059927
2 -0.00000000000001243 0.46555814625137693 0.00000000000000000 -0.00000000000000000 0.00000000000000000 1.00000000000000000 0.00000000000000000 -1.00000000000000000 0.00000000000000000 1.00000000000000000 0.00000000000000000 0.00000000000000000 13.00000000000000000
8 3.60524026259059971 5.81953769817878008
2 16.58359213500126472 0.00000000000000355 0.00000000000000000 -0.00000000000000000 -0.00000000000000000 -1.00000000000000000 0.00000000000000000 -1.00000000000000000 0.00000000000000000 -1.00000000000000000 0.00000000000000000 0.00000000000000000 6.00000000000000000
1 0.00000000000000000 15.00000000000000178 0.00000000000000000 -0.89442719099991597 -0.44721359549995804 0.00000000000000000 
1 0.00000000000000000 -14.99999999999999822 0.00000000000000000 0.89442719099991597 0.44721359549995793 0.00000000000000000 
8 3.60524026259059927 5.81953769817878097
2 -16.58359213500126472 -0.00000000000000444 0.00000000000000000 -0.00000000000000000 0.00000000000000000 1.00000000000000000 0.00000000000000000 -1.00000000000000000 0.00000000000000000 1.00000000000000000 0.00000000000000000 0.00000000000000000 6.00000000000000000
8 5.81953769817878008 6.74683291618039238
2 0.00000000000000888 -0.46555814625136982 0.00000000000000000 -0.00000000000000000 -0.00000000000000000 -1.00000000000000000 0.00000000000000000 -1.00000000000000000 0.00000000000000000 -1.00000000000000000 0.00000000000000000 0.00000000000000000 13.00000000000000000
1 -30.00000000000000000 0.00000000000000000 0.00000000000000000 0.89442719099991597 -0.44721359549995793 0.00000000000000000 
2 0.00000000000000000 0.00000000000000000 0.00000000000000000 0.00000000000000000 0.00000000000000000 1.00000000000000000 1.00000000000000000 0.00000000000000000 0.00000000000000000 0.00000000000000000 1.00000000000000000 0.00000000000000000 11.00000000000000000
2 18.00000000000000000 0.00000000000000000 0.00000000000000000 0.00000000000000000 0.00000000000000000 1.00000000000000000 1.00000000000000000 0.00000000000000000 0.00000000000000000 0.00000000000000000 1.00000000000000000 0.00000000000000000 2.50000000000000000
2 -18.00000000000000000 0.00000000000000000 0.00000000000000000 0.00000000000000000 0.00000000000000000 1.00000000000000000 1.00000000000000000 0.00000000000000000 0.00000000000000000 0.00000000000000000 1.00000000000000000 0.00000000000000000 2.50000000000000000
1 -5.81377674149946522 12.09311162925028604 0.00000000000000000 0.00000000000000000 0.00000000000000000 1.00000000000000000 
8 2.67794504458898697 3.60524026259059927
2 -0.00000000000001243 0.46555814625137693 4.00000000000000000 -0.00000000000000000 0.00000000000000000 1.00000000000000000 0.00000000000000000 -1.00000000000000000 0.00000000000000000 1.00000000000000000 0.00000000000000000 0.00000000000000000 13.00000000000000000
1 19.26687370800101107 -5.36656314599949358 0.00000000000000000 0.00000000000000000 0.00000000000000000 1.00000000000000000 
8 3.60524026259059971 5.81953769817878008
2 16.58359213500126472 0.00000000000000355 4.00000000000000000 -0.00000000000000000 -0.00000000000000000 -1.00000000000000000 0.00000000000000000 -1.00000000000000000 0.00000000000000000 -1.00000000000000000 0.00000000000000000 0.00000000000000000 6.00000000000000000
1 0.00000000000000000 15.00000000000000178 0.00000000000000000 -0.89442719099991597 -0.44721359549995804 0.00000000000000000 
1 0.00000000000000000 -14.99999999999999822 0.00000000000000000 0.89442719099991597 0.44721359549995793 0.00000000000000000 
8 3.60524026259059927 5.81953769817878097
2 -16.58359213500126472 -0.00000000000000444 4.00000000000000000 -0.00000000000000000 0.00000000000000000 1.00000000000000000 0.00000000000000000 -1.00000000000000000 0.00000000000000000 1.00000000000000000 0.00000000000000000 0.00000000000000000 6.00000000000000000
8 5.81953769817878008 6.74683291618039238
2 0.00000000000000888 -0.46555814625136982 4.00000000000000000 -0.00000000000000000 -0.00000000000000000 -1.00000000000000000 0.00000000000000000 -1.00000000000000000 0.00000000000000000 -1.00000000000000000 0.00000000000000000 0.00000000000000000 13.00000000000000000
1 -30.00000000000000000 0.00000000000000000 0.00000000000000000 0.89442719099991597 -0.44721359549995793 0.00000000000000000 
2 -18.00000000000000000 0.00000000000000000 0.00000000000000000 0.00000000000000000 0.00000000000000000 1.00000000000000000 1.00000000000000000 0.00000000000000000 0.00000000000000000 0.00000000000000000 1.00000000000000000 0.00000000000000000 2.50000000000000000
2 0.00000000000000000 0.00000000000000000 0.00000000000000000 0.00000000000000000 0.00000000000000000 1.00000000000000000 1.00000000000000000 0.00000000000000000 0.00000000000000000 0.00000000000000000 1.00000000000000000 0.00000000000000000 12.50000000000000000
2 18.00000000000000000 0.00000000000000000 0.00000000000000000 0.00000000000000000 0.00000000000000000 1.00000000000000000 1.00000000000000000 0.00000000000000000 0.00000000000000000 0.00000000000000000 1.00000000000000000 0.00000000000000000 2.50000000000000000
1 -19.26687370800101462 5.36656314599949180 0.00000000000000000 0.00000000000000000 0.00000000000000000 1.00000000000000000 
1 5.81377674149946166 -12.09311162925027716 0.00000000000000000 0.00000000000000000 0.00000000000000000 1.00000000000000000 
1 -19.26687370800101107 -5.36656314599950157 0.00000000000000000 0.00000000000000000 0.00000000000000000 1.00000000000000000 
1 -5.81377674149944390 -12.09311162925027894 0.00000000000000000 0.00000000000000000 0.00000000000000000 1.00000000000000000 
1 11.00000000000000000 0.00000000000000000 0.00000000000000000 0.00000000000000000 0.00000000000000000 1.00000000000000000 
2 0.00000000000000000 0.00000000000000000 0.00000000000000000 0.00000000000000000 0.00000000000000000 1.00000000000000000 1.00000000000000000 0.00000000000000000 0.00000000000000000 0.00000000000000000 1.00000000000000000 0.00000000000000000 11.00000000000000000
1 20.50000000000000000 0.00000000000000000 0.00000000000000000 0.00000000000000000 0.00000000000000000 1.00000000000000000 
1 -15.50000000000000000 0.00000000000000000 0.00000000000000000 0.00000000000000000 0.00000000000000000 1.00000000000000000 
1 12.50000000000000000 0.00000000000000000 4.00000000000000000 0.00000000000000000 0.00000000000000000 1.00000000000000000 
2 0.00000000000000000 0.00000000000000000 0.00000000000000000 0.00000000000000000 0.00000000000000000 1.00000000000000000 1.00000000000000000 0.00000000000000000 0.00000000000000000 0.00000000000000000 1.00000000000000000 0.00000000000000000 12.50000000000000000
1 11.00000000000000000 0.00000000000000000 4.00000000000000000 0.00000000000000000 0.00000000000000000 1.00000000000000000 
2 0.00000000000000000 0.00000000000000000 0.00000000000000000 0.00000000000000000 0.00000000000000000 1.00000000000000000 1.00000000000000000 0.00000000000000000 0.00000000000000000 0.00000000000000000 1.00000000000000000 0.00000000000000000 11.00000000000000000
Polygon3D 0
PolygonOnTriangulations 0
Surfaces 16
1 30.00000000000000000 0.00000000000000000 0.00000000000000000 -0.44721359549995804 -0.89442719099991597 0.00000000000000000 -0.89442719099991597 0.44721359549995804 0.00000000000000000 0.00000000000000000 0.00000000000000000 -1.00000000000000000 
2 -0.00000000000001243 0.46555814625137693 0.00000000000000000 0.00000000000000000 0.00000000000000000 1.00000000000000000 0.44721359549995804 0.89442719099991597 0.00000000000000000 -0.89442719099991597 0.44721359549995804 0.00000000000000000 13.00000000000000000
2 16.58359213500126472 0.00000000000000355 0.00000000000000000 0.00000000000000000 0.00000000000000000 1.00000000000000000 0.44721359549995804 0.89442719099991597 0.00000000000000000 0.89442719099991597 -0.44721359549995804 0.00000000000000000 6.00000000000000000
1 0.00000000000000000 0.00000000000000085 0.00000000000000000 0.00000000000000000 0.00000000000000000 1.00000000000000000 1.00000000000000000 0.00000000000000000 0.00000000000000000 0.00000000000000000 1.00000000000000000 0.00000000000000000 
2 -16.58359213500126472 -0.00000000000000444 0.00000000000000000 0.00000000000000000 0.00000000000000000 1.00000000000000000 -0.44721359549995804 0.89442719099991597 0.00000000000000000 -0.89442719099991597 -0.44721359549995804 0.00000000000000000 6.00000000000000000
2 0.00000000000000888 -0.46555814625136982 0.00000000000000000 0.00000000000000000 0.00000000000000000 1.00000000000000000 0.44721359549995793 -0.89442719099991597 0.00000000000000000 -0.89442719099991597 -0.44721359549995793 0.00000000000000000 13.00000000000000000
2 0.00000000000000000 0.00000000000000000 0.00000000000000000 -0.00000000000000000 -0.00000000000000000 -1.00000000000000000 1.00000000000000000 0.00000000000000000 0.00000000000000000 0.00000000000000000 1.00000000000000000 0.00000000000000000 11.00000000000000000
2 18.00000000000000000 0.00000000000000000 0.00000000000000000 -0.00000000000000000 -0.00000000000000000 -1.00000000000000000 1.00000000000000000 0.00000000000000000 0.00000000000000000 0.00000000000000000 1.00000000000000000 0.00000000000000000 2.50000000000000000
2 -18.00000000000000000 0.00000000000000000 0.00000000000000000 -0.00000000000000000 -0.00000000000000000 -1.00000000000000000 1.00000000000000000 0.00000000000000000 0.00000000000000000 0.00000000000000000 1.00000000000000000 0.00000000000000000 2.50000000000000000
1 0.00000000000000000 15.00000000000000178 0.00000000000000000 0.44721359549995804 -0.89442719099991597 0.00000000000000000 -0.89442719099991597 -0.44721359549995804 0.00000000000000000 0.00000000000000000 0.00000000000000000 -1.00000000000000000 
1 0.00000000000000000 -14.99999999999999822 0.00000000000000000 -0.44721359549995793 0.89442719099991597 0.00000000000000000 0.89442719099991597 0.44721359549995793 0.00000000000000000 0.00000000000000000 0.00000000000000000 -1.00000000000000000 
1 0.00000000000000000 0.00000000000000085 0.00000000000000000 0.00000000000000000 0.00000000000000000 1.00000000000000000 1.00000000000000000 0.00000000000000000 0.00000000000000000 0.00000000000000000 1.00000000000000000 0.00000000000000000 
2 0.00000000000000000 0.00000000000000000 4.00000000000000000 -0.00000000000000000 -0.00000000000000000 -1.00000000000000000 1.00000000000000000 0.00000000000000000 0.00000000000000000 0.00000000000000000 1.00000000000000000 0.00000000000000000 12.50000000000000000
1 -30.00000000000000000 0.00000000000000000 0.00000000000000000 0.44721359549995793 0.89442719099991597 0.00000000000000000 0.89442719099991597 -0.44721359549995793 0.00000000000000000 0.00000000000000000 0.00000000000000000 -1.00000000000000000 
2 0.00000000000000000 0.00000000000000000 4.00000000000000000 -0.00000000000000000 -0.00000000000000000 -1.00000000000000000 1.00000000000000000 0.00000000000000000 0.00000000000000000 0.00000000000000000 1.00000000000000000 0.00000000000000000 11.00000000000000000
1 -0.00000000000000044 0.00000000000000080 4.00000000000000000 0.00000000000000000 0.00000000000000000 1.00000000000000000 1.00000000000000000 0.00000000000000000 0.00000000000000000 0.00000000000000000 1.00000000000000000 0.00000000000000000 
Triangulations 0

TShapes 104
Ve
0.000000100000000
5.813776741499442 12.093111629250284 0.000000000000000
0 0

0101101
*
Ve
0.000000100000000
19.266873708001015 5.366563145999500 0.000000000000000
0 0

0101101
*
Ed
 0.000000100000000 1 1 0
1  1 0 11.999999999999996 27.041019662496854
0

0101000
-104 13 +103 13 *
Ve
0.000000100000000
5.813776741499442 12.093111629250284 4.000000000000000
0 0

0101101
*
Ed
 0.000000100000000 1 1 0
1  2 0 -0.000000000000000 4.000000000000000
2  1 2 0 -0.000000000000000 4.000000000000000
4 G1 1 6 2 0
0

0101000
+104 14 -101 14 *
Ve
0.000000100000000
19.266873708001015 5.366563145999500 4.000000000000000
0 0

0101101
*
Ed
 0.000000100000000 1 1 0
1  3 0 -0.000000000000000 4.000000000000000
2  2 3 0 -0.000000000000000 4.000000000000000
4 G1 1 15 3 0
0

0101000
+103 16 -99 16 *
Ed
 0.000000100000000 1 1 0
1  4 0 11.999999999999996 27.041019662496854
0

0101000
-101 19 +99 19 *
Wi

0101100
-102 11 -100 0 +98 5 +97 18 *
Fa
0  0.000000100000000 1 0

0111000
+96 7 *
Ve
0.000000100000000
-5.813776741499465 12.093111629250286 0.000000000000000
0 0

0101101
*
Ed
 0.000000100000000 1 1 0
1  5 0 2.677945044588987 3.605240262590599
2  3 2 0 2.677945044588987 3.605240262590599
0

0101000
+104 14 -94 14 *
Ve
0.000000100000000
19.266873708001011 -5.366563145999494 0.000000000000000
0 0

0101101
*
Ed
 0.000000100000000 1 1 0
1  6 0 3.605240262590600 5.819537698178780
2  4 3 0 3.605240262590600 5.819537698178780
0

0101000
+103 16 -92 16 *
Ve
0.000000100000000
-19.266873708001015 5.366563145999492 0.000000000000000
0 0

0101101
*
Ed
 0.000000100000000 1 1 0
1  7 0 6.500000000000005 21.541019662496851
0

0101000
+94 13 -90 13 *
Ve
0.000000100000000
5.813776741499462 -12.093111629250277 0.000000000000000
0 0

0101101
*
Ed
 0.000000100000000 1 1 0
1  8 0 6.500000000000004 21.541019662496847
0

0101000
+88 13 -92 13 *
Ve
0.000000100000000
-19.266873708001011 -5.366563145999502 0.000000000000000
0 0

0101101
*
Ed
 0.000000100000000 1 1 0
1  9 0 3.605240262590599 5.819537698178781
2  5 5 0 3.605240262590599 5.819537698178781
0

0101000
+90 16 -86 16 *
Ve
0.000000100000000
-5.813776741499444 -12.093111629250279 0.000000000000000
0 0

0101101
*
Ed
 0.000000100000000 1 1 0
1  10 0 5.819537698178780 6.746832916180392
2  6 6 0 5.819537698178780 6.746832916180392
0

0101000
+88 14 -84 14 *
Ed
 0.000000100000000 1 1 0
1  11 0 12.000000000000000 27.041019662496854
0

0101000
-84 13 +86 13 *
Wi

0101100
+102 11 +93 0 -91 5 +89 11 +87 11 +85 5 -83 0 +82 11 *
Ve
0.000000100000000
11.000000000000000 0.000000000000000 0.000000000000000
0 0

0101101
*
Ed
 0.000000100000000 1 1 0
1  12 0 0.000000000000000 6.283185307179586
2  7 7 23 0.000000000000000 6.283185307179586
0

0101000
+80 13 -80 13 *
Wi

0101100
-79 22 *
Ve
0.000000100000000
20.500000000000000 0.000000000000000 0.000000000000000
0 0

0101101
*
Ed
 0.000000100000000 1 1 0
1  13 0 0.000000000000000 6.283185307179586
2  8 8 23 0.000000000000000 6.283185307179586
0

0101000
+77 13 -77 13 *
Wi

0101100
-76 22 *
Ve
0.000000100000000
-15.500000000000000 0.000000000000000 0.000000000000000
0 0

0101101
*
Ed
 0.000000100000000 1 1 0
1  14 0 0.000000000000000 6.283185307179586
2  9 9 23 0.000000000000000 6.283185307179586
0

0101000
+74 13 -74 13 *
Wi

0101100
-73 22 *
Fa
0  0.000000100000000 4 0

0111000
+81 21 +78 0 +75 0 +72 0 *
Ve
0.000000100000000
-5.813776741499465 12.093111629250286 4.000000000000000
0 0

0101101
*
Ed
 0.000000100000000 1 1 0
1  15 0 0.000000000000000 4.000000000000000
2  10 2 0 0.000000000000000 4.000000000000000
4 G1 2 0 10 6
0

0101000
+94 14 -70 14 *
Ed
 0.000000100000000 1 1 0
1  16 0 2.677945044588987 3.605240262590599
2  11 2 0 2.677945044588987 3.605240262590599
0

0101000
+101 14 -70 14 *
Wi

0101100
+93 0 -100 0 +69 0 -68 0 *
Fa
0  0.000000100000000 2 0

0111000
+67 0 *
Ve
0.000000100000000
19.266873708001011 -5.366563145999494 4.000000000000000
0 0

0101101
*
Ed
 0.000000100000000 1 1 0
1  17 0 -0.000000000000000 4.000000000000000
2  12 3 0 -0.000000000000000 4.000000000000000
4 G1 3 0 11 15
0

0101000
+92 16 -65 16 *
Ed
 0.000000100000000 1 1 0
1  18 0 3.605240262590600 5.819537698178780
2  13 3 0 3.605240262590600 5.819537698178780
0

0101000
+99 16 -65 16 *
Wi

0101100
+91 0 -98 0 +64 0 -63 0 *
Fa
0  0.000000100000000 3 0

0111000
+62 0 *
Ve
0.000000100000000
-19.266873708001015 5.366563145999492 4.000000000000000
0 0

0101101
*
Ed
 0.000000100000000 1 1 0
1  19 0 6.500000000000005 21.541019662496851
0

0101000
+70 19 -60 19 *
Ve
0.000000100000000
5.813776741499462 -12.093111629250277 4.000000000000000
0 0

0101101
*
Ed
 0.000000100000000 1 1 0
1  20 0 6.500000000000004 21.541019662496847
0

0101000
+58 19 -65 19 *
Ve
0.000000100000000
-19.266873708001011 -5.366563145999502 4.000000000000000
0 0

0101101
*
Ed
 0.000000100000000 1 1 0
1  21 0 3.605240262590599 5.819537698178781
2  14 5 0 3.605240262590599 5.819537698178781
0

0101000
+60 16 -56 16 *
Ve
0.000000100000000
-5.813776741499444 -12.093111629250279 4.000000000000000
0 0

0101101
*
Ed
 0.000000100000000 1 1 0
1  22 0 5.819537698178780 6.746832916180392
2  15 6 0 5.819537698178780 6.746832916180392
0

0101000
+58 14 -54 14 *
Ed
 0.000000100000000 1 1 0
1  23 0 12.000000000000000 27.041019662496854
0

0101000
-54 19 +56 19 *
Wi

0101100
+97 18 +68 0 -63 5 +59 18 +57 18 +55 5 -53 0 +52 18 *
Ve
0.000000100000000
-15.500000000000000 0.000000000000000 4.000000000000000
0 0

0101101
*
Ed
 0.000000100000000 1 1 0
1  24 0 0.000000000000000 6.283185307179586
2  16 9 28 0.000000000000000 6.283185307179586
0

0101000
+50 19 -50 19 *
Wi

0101100
-49 27 *
Ve
0.000000100000000
12.500000000000000 0.000000000000000 4.000000000000000
0 0

0101101
*
Ed
 0.000000100000000 1 1 0
1  25 0 0.000000000000000 6.283185307179586
2  17 13 32 0.000000000000000 6.283185307179586
0

0101000
+47 33 -47 33 *
Wi

0101100
-46 31 *
Ve
0.000000100000000
20.500000000000000 0.000000000000000 4.000000000000000
0 0

0101101
*
Ed
 0.000000100000000 1 1 0
1  26 0 0.000000000000000 6.283185307179586
2  18 8 28 0.000000000000000 6.283185307179586
0

0101000
+44 19 -44 19 *
Wi

0101100
-43 27 *
Fa
0  0.000000100000000 12 25

0111000
+51 26 +48 0 +45 0 +42 0 *
Ed
 0.000000100000000 1 1 0
1  27 0 0.000000000000000 4.000000000000000
2  19 5 0 0.000000000000000 4.000000000000000
4 G1 10 15 5 0
0

0101000
+90 16 -60 16 *
Wi

0101100
-89 11 +69 0 -40 5 +59 18 *
Fa
0  0.000000100000000 10 0

0111000
+39 7 *
Ed
 0.000000100000000 1 1 0
1  28 0 -0.000000000000000 4.000000000000000
2  20 6 0 -0.000000000000000 4.000000000000000
4 G1 11 6 6 0
0

0101000
+88 14 -58 14 *
Wi

0101100
-87 11 +37 0 -64 5 +57 18 *
Fa
0  0.000000100000000 11 0

0111000
+36 7 *
Ed
 0.000000100000000 1 1 0
1  29 0 -0.000000000000000 4.000000000000000
2  21 5 0 -0.000000000000000 4.000000000000000
4 G1 5 0 14 15
0

0101000
+86 16 -56 16 *
Wi

0101100
+85 0 -40 0 +34 0 -55 0 *
Fa
0  0.000000100000000 5 0

0111000
+33 0 *
Ed
 0.000000100000000 1 1 0
1  30 0 -0.000000000000000 4.000000000000000
2  22 6 0 -0.000000000000000 4.000000000000000
4 G1 6 0 14 6
0

0101000
+84 14 -54 14 *
Wi

0101100
+83 0 -37 0 +31 0 -53 0 *
Fa
0  0.000000100000000 6 0

0111000
+30 0 *
Wi

0101100
-82 11 -31 0 +34 5 +52 18 *
Fa
0  0.000000100000000 14 0

0111000
+28 7 *
Ve
0.000000100000010
11.000000000000000 0.000000000000000 4.000000000000000
0 0

0101101
*
Ed
 0.000000100000000 1 1 0
1  31 0 0.000000000000000 4.000000000000000
3  23 24CN 7 0 0.000000000000000 4.000000000000000
0

0101000
+80 35 -26 35 *
Ed
 0.000000100000010 1 1 0
1  32 0 0.000000000000000 6.283185307179586
2  25 7 28 0.000000000000000 6.283185307179586
2  26 15 37 0.000000000000000 6.283185307179586
0

0101000
+26 19 -26 19 *
Wi

0101100
+25 34 -25 34 -79 36 +24 27 *
Fa
0  0.000000100000000 7 34

0111000
+23 0 *
Ed
 0.000000100000000 1 1 0
1  33 0 0.000000000000000 4.000000000000000
3  27 28CN 8 0 0.000000000000000 4.000000000000000
0

0101000
+77 35 -44 35 *
Wi

0101100
+21 0 -21 0 -76 38 +43 39 *
Fa
0  0.000000100000000 8 0

0111000
+20 0 *
Ed
 0.000000100000000 1 1 0
1  34 0 0.000000000000000 4.000000000000000
3  29 30CN 9 0 0.000000000000000 4.000000000000000
0

0101000
+74 35 -50 35 *
Wi

0101100
+18 0 -18 0 -73 38 +49 39 *
Fa
0  0.000000100000000 9 0

0111000
+17 0 *
Ve
0.000000100000000
12.500000000000000 0.000000000000000 7.000000000000000
0 0

0101101
*
Ed
 0.000000100000000 1 1 0
1  35 0 0.000000000000000 3.000000000000000
3  31 32CN 13 0 0.000000000000000 3.000000000000000
0

0101000
+47 40 -15 40 *
Ed
 0.000000100000000 1 1 0
1  36 0 0.000000000000000 6.283185307179586
2  33 13 43 0.000000000000000 6.283185307179586
0

0101000
+15 44 -15 44 *
Wi

0101100
+14 0 -14 0 -46 31 +13 42 *
Fa
0  0.000000100000000 13 0

0111000
+12 0 *
Ve
0.000000100000000
11.000000000000000 0.000000000000000 7.000000000000000
0 0

0101101
*
Ed
 0.000000100000000 1 1 0
1  37 0 0.000000000000000 3.000000000000000
3  34 35CN 15 0 0.000000000000000 3.000000000000000
0

0101000
+26 40 -10 40 *
Ed
 0.000000100000000 1 1 0
1  38 0 0.000000000000000 6.283185307179586
2  36 15 43 0.000000000000000 6.283185307179586
0

0101000
+10 44 -10 44 *
Wi

0101100
+9 0 -9 0 -24 27 +8 42 *
Fa
0  0.000000100000000 15 0

0111000
+7 0 *
Wi

0101100
+13 46 *
Wi

0101100
-8 46 *
Fa
0  0.000000100000000 16 0

0111000
+5 0 +4 0 *
Sh

0101100
-95 6 -71 20 +66 0 -61 5 +41 24 -38 6 -35 6 +32 5 -29 0 -27 6 
+22 24 +19 6 +16 6 -11 24 +6 24 +3 45 *
So

1100000
+2 0 *

+1 1 