
CASCADE Topology V1, (c) Matra-Datavision
Locations 13
1
1.000000000000000 0.000000000000000 0.000000000000000 0.000000000000000 
0.000000000000000 1.000000000000000 0.000000000000000 0.000000000000000 
0.000000000000000 0.000000000000000 1.000000000000000 0.000000000000000 
1
1.000000000000000 0.000000000000000 0.000000000000000 0.000000000000000 
0.000000000000000 1.000000000000000 0.000000000000000 0.000000000000000 
0.000000000000000 0.000000000000000 1.000000000000000 0.000000000000000 
1
1.000000000000000 0.000000000000000 0.000000000000000 0.000000000000000 
0.000000000000000 1.000000000000000 0.000000000000000 0.000000000000000 
0.000000000000000 0.000000000000000 1.000000000000000 0.000000000000000 
1
1.000000000000000 0.000000000000000 0.000000000000000 0.000000000000000 
0.000000000000000 1.000000000000000 0.000000000000000 0.000000000000000 
0.000000000000000 0.000000000000000 1.000000000000000 0.000000000000000 
2  2 1 3 1 4 -1 0
1
1.000000000000000 0.000000000000000 0.000000000000000 0.000000000000000 
0.000000000000000 1.000000000000000 0.000000000000000 0.000000000000000 
0.000000000000000 0.000000000000000 1.000000000000000 4.000000000000000 
2  2 1 3 1 4 -1 6 1 0
2  4 1 3 -1 2 -1 0
2  6 -1 4 1 3 -1 2 -1 0
2  3 -1 2 -1 0
2  4 -1 0
2  2 1 3 1 0
2  4 -1 6 1 0
Curve2ds 35
1 0.00000000000000000 0.00000000000000000 0.00000000000000000 -1.00000000000000000 
1 33.54101966249684352 0.00000000000000000 0.00000000000000000 -1.00000000000000000 
1 33.54101966249683642 0.00000000000000000 0.00000000000000000 -1.00000000000000000 
1 0.00000000000000000 -0.00000000000000000 0.00000000000000000 -1.00000000000000000 
1 0.00000000000000000 0.00000000000000000 1.00000000000000000 0.00000000000000000 
1 0.00000000000000000 -4.00000000000000000 1.00000000000000000 0.00000000000000000 
1 30.00000000000000000 -0.00000000000000085 -0.89442719099991597 0.44721359549995804 
1 33.54101966249683642 0.00000000000000000 0.00000000000000000 -1.00000000000000000 
1 0.00000000000000000 0.00000000000000000 0.00000000000000000 -1.00000000000000000 
1 0.00000000000000000 15.00000000000000178 -0.89442719099991597 -0.44721359549995804 
1 0.00000000000000000 0.00000000000000000 1.00000000000000000 0.00000000000000000 
1 0.00000000000000000 -4.00000000000000000 1.00000000000000000 0.00000000000000000 
1 0.00000000000000000 0.00000000000000000 0.00000000000000000 -1.00000000000000000 
1 33.54101966249684352 0.00000000000000000 0.00000000000000000 -1.00000000000000000 
1 -30.00000000000000000 -0.00000000000000085 0.89442719099991597 -0.44721359549995793 
1 0.00000000000000000 0.00000000000000000 1.00000000000000000 0.00000000000000000 
1 0.00000000000000000 -4.00000000000000000 1.00000000000000000 0.00000000000000000 
1 0.00000000000000000 0.00000000000000000 1.00000000000000000 0.00000000000000000 
1 0.00000000000000000 -4.00000000000000000 1.00000000000000000 0.00000000000000000 
1 0.00000000000000000 -14.99999999999999822 0.89442719099991597 0.44721359549995793 
1 0.00000000000000000 0.00000000000000000 0.00000000000000000 -1.00000000000000000 
1 6.28318530717958623 0.00000000000000000 0.00000000000000000 -1.00000000000000000 
1 0.00000000000000000 0.00000000000000000 1.00000000000000000 0.00000000000000000 
1 0.00000000000000000 -4.00000000000000000 1.00000000000000000 0.00000000000000000 
2 0.00000000000000000 -0.00000000000000085 1.00000000000000000 0.00000000000000000 -0.00000000000000000 1.00000000000000000 11.00000000000000000
1 0.00000000000000000 0.00000000000000000 0.00000000000000000 -1.00000000000000000 
1 6.28318530717958623 0.00000000000000000 0.00000000000000000 -1.00000000000000000 
1 0.00000000000000000 0.00000000000000000 1.00000000000000000 0.00000000000000000 
1 0.00000000000000000 -4.00000000000000000 1.00000000000000000 0.00000000000000000 
2 18.00000000000000000 -0.00000000000000085 1.00000000000000000 0.00000000000000000 -0.00000000000000000 1.00000000000000000 2.50000000000000000
1 0.00000000000000000 0.00000000000000000 0.00000000000000000 -1.00000000000000000 
1 6.28318530717958623 0.00000000000000000 0.00000000000000000 -1.00000000000000000 
1 0.00000000000000000 0.00000000000000000 1.00000000000000000 0.00000000000000000 
1 0.00000000000000000 -4.00000000000000000 1.00000000000000000 0.00000000000000000 
2 -18.00000000000000000 -0.00000000000000085 1.00000000000000000 0.00000000000000000 -0.00000000000000000 1.00000000000000000 2.50000000000000000
Curves 14
1 30.00000000000000000 0.00000000000000000 0.00000000000000000 0.00000000000000000 0.00000000000000000 1.00000000000000000 
1 0.00000000000000000 15.00000000000000178 0.00000000000000000 0.00000000000000000 0.00000000000000000 1.00000000000000000 
1 30.00000000000000000 0.00000000000000000 0.00000000000000000 -0.89442719099991597 0.44721359549995804 0.00000000000000000 
1 -30.00000000000000000 0.00000000000000000 0.00000000000000000 0.00000000000000000 0.00000000000000000 1.00000000000000000 
1 0.00000000000000000 15.00000000000000178 0.00000000000000000 -0.89442719099991597 -0.44721359549995804 0.00000000000000000 
1 0.00000000000000000 -14.99999999999999822 0.00000000000000000 0.00000000000000000 0.00000000000000000 1.00000000000000000 
1 -30.00000000000000000 0.00000000000000000 0.00000000000000000 0.89442719099991597 -0.44721359549995793 0.00000000000000000 
1 0.00000000000000000 -14.99999999999999822 0.00000000000000000 0.89442719099991597 0.44721359549995793 0.00000000000000000 
1 11.00000000000000000 0.00000000000000000 0.00000000000000000 0.00000000000000000 0.00000000000000000 1.00000000000000000 
2 0.00000000000000000 0.00000000000000000 0.00000000000000000 0.00000000000000000 0.00000000000000000 1.00000000000000000 1.00000000000000000 0.00000000000000000 -0.00000000000000000 -0.00000000000000000 1.00000000000000000 0.00000000000000000 11.00000000000000000
1 20.50000000000000000 0.00000000000000000 0.00000000000000000 0.00000000000000000 0.00000000000000000 1.00000000000000000 
2 18.00000000000000000 0.00000000000000000 0.00000000000000000 0.00000000000000000 0.00000000000000000 1.00000000000000000 1.00000000000000000 0.00000000000000000 -0.00000000000000000 -0.00000000000000000 1.00000000000000000 0.00000000000000000 2.50000000000000000
1 -15.50000000000000000 0.00000000000000000 0.00000000000000000 0.00000000000000000 0.00000000000000000 1.00000000000000000 
2 -18.00000000000000000 0.00000000000000000 0.00000000000000000 0.00000000000000000 0.00000000000000000 1.00000000000000000 1.00000000000000000 0.00000000000000000 -0.00000000000000000 -0.00000000000000000 1.00000000000000000 0.00000000000000000 2.50000000000000000
Polygon3D 0
PolygonOnTriangulations 0
Surfaces 8
1 30.00000000000000000 0.00000000000000000 0.00000000000000000 -0.44721359549995804 -0.89442719099991597 0.00000000000000000 -0.89442719099991574 0.44721359549995793 0.00000000000000000 -0.00000000000000000 0.00000000000000000 -1.00000000000000000 
1 0.00000000000000000 -14.99999999999999822 0.00000000000000000 -0.44721359549995793 0.89442719099991597 0.00000000000000000 0.89442719099991597 0.44721359549995793 0.00000000000000000 0.00000000000000000 0.00000000000000000 -1.00000000000000000 
1 0.00000000000000000 15.00000000000000178 0.00000000000000000 0.44721359549995804 -0.89442719099991597 0.00000000000000000 -0.89442719099991574 -0.44721359549995793 0.00000000000000000 0.00000000000000000 -0.00000000000000000 -1.00000000000000000 
1 0.00000000000000000 0.00000000000000085 0.00000000000000000 0.00000000000000000 0.00000000000000000 1.00000000000000000 1.00000000000000000 0.00000000000000000 -0.00000000000000000 -0.00000000000000000 1.00000000000000000 0.00000000000000000 
1 -30.00000000000000000 0.00000000000000000 0.00000000000000000 0.44721359549995793 0.89442719099991597 -0.00000000000000000 0.89442719099991597 -0.44721359549995793 0.00000000000000000 0.00000000000000000 -0.00000000000000000 -1.00000000000000000 
2 0.00000000000000000 0.00000000000000000 0.00000000000000000 -0.00000000000000000 -0.00000000000000000 -1.00000000000000000 1.00000000000000000 0.00000000000000000 0.00000000000000000 -0.00000000000000000 1.00000000000000000 -0.00000000000000000 11.00000000000000000
2 18.00000000000000000 0.00000000000000000 0.00000000000000000 -0.00000000000000000 -0.00000000000000000 -1.00000000000000000 1.00000000000000000 0.00000000000000000 0.00000000000000000 -0.00000000000000000 1.00000000000000000 -0.00000000000000000 2.50000000000000000
2 -18.00000000000000000 0.00000000000000000 0.00000000000000000 -0.00000000000000000 -0.00000000000000000 -1.00000000000000000 1.00000000000000000 0.00000000000000000 0.00000000000000000 -0.00000000000000000 1.00000000000000000 -0.00000000000000000 2.50000000000000000
Triangulations 0

TShapes 42
Ve
0.000000100000000
30.000000000000000 0.000000000000000 0.000000000000000
0 0

0101101
*
Ed
 0.000000100000000 1 1 0
1  1 0 0.000000000000000 4.000000000000000
2  1 1 0 0.000000000000000 4.000000000000000
2  2 2 0 0.000000000000000 4.000000000000000
0

0101000
+42 5 -42 7 *
Ve
0.000000100000000
0.000000000000000 15.000000000000002 0.000000000000000
0 0

0101101
*
Ed
 0.000000100000000 1 1 0
1  2 0 0.000000000000000 4.000000000000000
2  3 1 0 0.000000000000000 4.000000000000000
2  4 3 0 0.000000000000000 4.000000000000000
0

0101000
+40 5 -40 7 *
Ed
 0.000000100000000 1 1 0
1  3 0 0.000000000000000 33.541019662496844
2  5 1 8 0.000000000000000 33.541019662496844
2  6 1 9 0.000000000000000 33.541019662496844
2  7 4 10 0.000000000000000 33.541019662496844
0

0101000
+42 0 -40 0 *
Wi

0101100
+41 0 -39 0 -38 5 +38 7 *
Fa
0  0.000000100000000 1 0

0101000
+37 0 *
Ve
0.000000100000000
-30.000000000000000 0.000000000000000 0.000000000000000
0 0

0101101
*
Ed
 0.000000100000000 1 1 0
1  4 0 0.000000000000000 4.000000000000000
2  8 3 0 0.000000000000000 4.000000000000000
2  9 5 0 0.000000000000000 4.000000000000000
0

0101000
+35 5 -35 7 *
Ed
 0.000000100000000 1 1 0
1  5 0 0.000000000000000 33.541019662496844
2  10 4 10 0.000000000000000 33.541019662496844
2  11 3 8 0.000000000000000 33.541019662496844
2  12 3 9 0.000000000000000 33.541019662496844
0

0101000
+40 0 -35 0 *
Wi

0101100
+39 0 -34 0 -33 5 +33 7 *
Fa
0  0.000000100000000 3 0

0101000
+32 0 *
Ve
0.000000100000000
0.000000000000000 -14.999999999999998 0.000000000000000
0 0

0101101
*
Ed
 0.000000100000000 1 1 0
1  6 0 0.000000000000000 4.000000000000000
2  13 2 0 0.000000000000000 4.000000000000000
2  14 5 0 0.000000000000000 4.000000000000000
0

0101000
+30 5 -30 7 *
Ed
 0.000000100000000 1 1 0
1  7 0 0.000000000000000 33.541019662496844
2  15 4 10 0.000000000000000 33.541019662496844
2  16 5 8 0.000000000000000 33.541019662496844
2  17 5 9 0.000000000000000 33.541019662496844
0

0101000
+35 0 -30 0 *
Wi

0101100
+34 0 -29 0 -28 5 +28 7 *
Fa
0  0.000000100000000 5 0

0101000
+27 0 *
Ed
 0.000000100000000 1 1 0
1  8 0 0.000000000000000 33.541019662496844
2  18 2 8 0.000000000000000 33.541019662496844
2  19 2 9 0.000000000000000 33.541019662496844
2  20 4 10 0.000000000000000 33.541019662496844
0

0101000
+30 0 -42 0 *
Wi

0101100
+29 0 -41 0 -25 5 +25 7 *
Fa
0  0.000000100000000 2 0

0101000
+24 0 *
Ve
0.000000100000000
11.000000000000000 0.000000000000000 0.000000000000000
0 0

0101101
*
Ed
 0.000000100000000 1 1 0
1  9 0 0.000000000000000 4.000000000000000
3  21 22CN 6 0 0.000000000000000 4.000000000000000
0

0101000
+22 5 -22 7 *
Ed
 0.000000100000000 1 1 0
1  10 0 0.000000000000000 6.283185307179586
2  23 6 8 0.000000000000000 6.283185307179586
2  24 6 9 0.000000000000000 6.283185307179586
2  25 4 10 0.000000000000000 6.283185307179586
0

0101000
+22 0 -22 0 *
Wi

0101100
+21 0 -21 0 -20 5 +20 7 *
Fa
0  0.000000100000000 6 0

0101000
+19 0 *
Ve
0.000000100000000
20.500000000000000 0.000000000000000 0.000000000000000
0 0

0101101
*
Ed
 0.000000100000000 1 1 0
1  11 0 0.000000000000000 4.000000000000000
3  26 27CN 7 0 0.000000000000000 4.000000000000000
0

0101000
+17 5 -17 7 *
Ed
 0.000000100000000 1 1 0
1  12 0 0.000000000000000 6.283185307179586
2  28 7 8 0.000000000000000 6.283185307179586
2  29 7 9 0.000000000000000 6.283185307179586
2  30 4 10 0.000000000000000 6.283185307179586
0

0101000
+17 0 -17 0 *
Wi

0101100
+16 0 -16 0 -15 5 +15 7 *
Fa
0  0.000000100000000 7 0

0101000
+14 0 *
Ve
0.000000100000000
-15.500000000000000 0.000000000000000 0.000000000000000
0 0

0101101
*
Ed
 0.000000100000000 1 1 0
1  13 0 0.000000000000000 4.000000000000000
3  31 32CN 8 0 0.000000000000000 4.000000000000000
0

0101000
+12 5 -12 7 *
Ed
 0.000000100000000 1 1 0
1  14 0 0.000000000000000 6.283185307179586
2  33 8 8 0.000000000000000 6.283185307179586
2  34 8 9 0.000000000000000 6.283185307179586
2  35 4 10 0.000000000000000 6.283185307179586
0

0101000
+12 0 -12 0 *
Wi

0101100
+11 0 -11 0 -10 5 +10 7 *
Fa
0  0.000000100000000 8 0

0101000
+9 0 *
Wi

0101100
+38 12 +33 12 +28 12 +25 12 *
Wi

0101100
-20 12 *
Wi

0101100
-15 12 *
Wi

0101100
-10 12 *
Fa
0  0.000000100000000 4 0

0101000
+7 0 +6 0 +5 0 +4 0 *
Sh

0101100
+36 0 +31 0 +26 0 +23 0 -18 0 -13 0 -8 0 +3 11 -3 13 *
So

1100000
-2 0 *

+1 1 