
CASCADE Topology V1, (c) Matra-Datavision
Locations 41
1
1.000000000000000 0.000000000000000 0.000000000000000 0.000000000000000 
0.000000000000000 1.000000000000000 0.000000000000000 0.000000000000000 
0.000000000000000 0.000000000000000 1.000000000000000 0.000000000000000 
1
1.000000000000000 0.000000000000000 0.000000000000000 0.000000000000000 
0.000000000000000 1.000000000000000 0.000000000000000 0.000000000000000 
0.000000000000000 0.000000000000000 1.000000000000000 0.000000000000000 
1
1.000000000000000 0.000000000000000 0.000000000000000 0.000000000000000 
0.000000000000000 1.000000000000000 0.000000000000000 0.000000000000000 
0.000000000000000 0.000000000000000 1.000000000000000 0.000000000000000 
1
1.000000000000000 0.000000000000000 0.000000000000000 0.000000000000000 
0.000000000000000 1.000000000000000 0.000000000000000 0.000000000000000 
0.000000000000000 0.000000000000000 1.000000000000000 0.000000000000000 
2  2 1 3 -1 4 1 0
2  4 -1 3 1 2 -1 0
1
1.000000000000000 0.000000000000000 0.000000000000000 0.000000000000000 
0.000000000000000 1.000000000000000 0.000000000000000 0.000000000000000 
0.000000000000000 0.000000000000000 1.000000000000000 0.000000000000000 
1
1.000000000000000 0.000000000000000 0.000000000000000 0.000000000000000 
0.000000000000000 1.000000000000000 0.000000000000000 0.000000000000000 
0.000000000000000 0.000000000000000 1.000000000000000 0.000000000000000 
1
1.000000000000000 0.000000000000000 0.000000000000000 0.000000000000000 
0.000000000000000 1.000000000000000 0.000000000000000 0.000000000000000 
0.000000000000000 0.000000000000000 1.000000000000000 0.000000000000000 
2  7 1 8 1 9 -1 2 1 3 -1 4 1 0
2  9 1 8 -1 7 -1 0
1
1.000000000000000 0.000000000000000 0.000000000000000 0.000000000000000 
0.000000000000000 1.000000000000000 0.000000000000000 0.000000000000000 
0.000000000000000 0.000000000000000 1.000000000000000 4.000000000000000 
2  12 -1 9 1 8 -1 7 -1 0
2  8 -1 7 -1 0
2  4 -1 3 1 2 -1 9 1 8 -1 7 -1 0
2  7 1 8 1 9 -1 0
2  7 1 8 1 9 -1 12 1 0
2  7 1 8 1 9 -1 12 1 2 1 3 -1 4 1 0
2  4 -1 3 1 2 -1 12 -1 9 1 8 -1 7 -1 0
2  9 -1 2 1 3 -1 4 1 0
2  4 -1 3 1 2 -1 9 1 0
2  7 1 8 1 0
2  9 -1 12 1 2 1 3 -1 4 1 0
2  9 -1 12 1 2 1 3 -1 0
2  4 -1 0
2  7 1 8 1 9 -1 12 1 2 1 3 -1 0
1
1.000000000000000 0.000000000000000 0.000000000000000 0.000000000000000 
0.000000000000000 1.000000000000000 0.000000000000000 0.000000000000000 
0.000000000000000 0.000000000000000 1.000000000000000 0.000000000000000 
1
1.000000000000000 0.000000000000000 0.000000000000000 0.000000000000000 
0.000000000000000 1.000000000000000 0.000000000000000 0.000000000000000 
0.000000000000000 0.000000000000000 1.000000000000000 4.000000000000000 
2  27 1 28 1 3 -1 0
2  3 1 28 -1 27 -1 0
1
1.000000000000000 0.000000000000000 0.000000000000000 0.000000000000000 
0.000000000000000 1.000000000000000 0.000000000000000 0.000000000000000 
0.000000000000000 0.000000000000000 1.000000000000000 3.000000000000000 
2  31 -1 3 1 28 -1 27 -1 0
2  28 -1 27 -1 0
2  9 -1 12 1 2 1 28 -1 27 -1 0
2  2 1 3 -1 0
2  3 1 2 -1 0
2  7 1 8 1 9 -1 2 1 3 -1 0
2  3 1 2 -1 12 -1 9 1 8 -1 7 -1 0
2  27 1 28 1 3 -1 31 1 0
2  3 -1 31 1 4 1 0
2  27 1 28 1 0
Curve2ds 59
1 0.00000000000000000 0.00000000000000000 1.00000000000000000 0.00000000000000000 
1 0.00000000000000000 -4.00000000000000000 1.00000000000000000 0.00000000000000000 
1 30.00000000000000000 -0.00000000000000085 -0.89442719099991597 0.44721359549995804 
1 0.00000000000000000 0.00000000000000000 0.00000000000000000 1.00000000000000000 
1 11.99999999999999645 0.00000000000000000 0.00000000000000000 -1.00000000000000000 
1 33.54101966249683642 0.00000000000000000 0.00000000000000000 -1.00000000000000000 
1 0.00000000000000000 -0.00000000000000000 0.00000000000000000 -1.00000000000000000 
1 -3.60524026259059927 0.00000000000000000 1.00000000000000000 0.00000000000000000 
2 16.58359213500126472 0.00000000000000271 0.00000000000000000 -1.00000000000000000 -1.00000000000000000 -0.00000000000000000 6.00000000000000000
1 0.00000000000000000 15.00000000000000178 -0.89442719099991597 -0.44721359549995804 
1 0.00000000000000000 0.00000000000000000 1.00000000000000000 0.00000000000000000 
1 0.00000000000000000 -4.00000000000000000 1.00000000000000000 0.00000000000000000 
1 0.00000000000000000 0.00000000000000000 1.00000000000000000 0.00000000000000000 
1 0.00000000000000000 -4.00000000000000000 1.00000000000000000 0.00000000000000000 
1 0.00000000000000000 -14.99999999999999822 0.89442719099991597 0.44721359549995793 
1 -3.60524026259059927 0.00000000000000000 1.00000000000000000 0.00000000000000000 
2 -16.58359213500126472 -0.00000000000000529 0.00000000000000000 -1.00000000000000000 1.00000000000000000 0.00000000000000000 6.00000000000000000
1 -30.00000000000000000 -0.00000000000000085 0.89442719099991597 -0.44721359549995793 
1 0.00000000000000000 0.00000000000000000 1.00000000000000000 0.00000000000000000 
1 0.00000000000000000 -4.00000000000000000 1.00000000000000000 0.00000000000000000 
1 0.00000000000000000 0.00000000000000000 1.00000000000000000 0.00000000000000000 
1 0.00000000000000000 -4.00000000000000000 1.00000000000000000 0.00000000000000000 
2 0.00000000000000000 -0.00000000000000085 1.00000000000000000 0.00000000000000000 -0.00000000000000000 1.00000000000000000 11.00000000000000000
1 0.00000000000000000 0.00000000000000000 1.00000000000000000 0.00000000000000000 
1 0.00000000000000000 -4.00000000000000000 1.00000000000000000 0.00000000000000000 
2 18.00000000000000000 -0.00000000000000085 1.00000000000000000 0.00000000000000000 -0.00000000000000000 1.00000000000000000 2.50000000000000000
1 0.00000000000000000 0.00000000000000000 1.00000000000000000 0.00000000000000000 
1 0.00000000000000000 -4.00000000000000000 1.00000000000000000 0.00000000000000000 
2 -18.00000000000000000 -0.00000000000000085 1.00000000000000000 0.00000000000000000 -0.00000000000000000 1.00000000000000000 2.50000000000000000
1 2.21429743558818126 0.00000000000000000 0.00000000000000000 1.00000000000000000 
1 21.54101966249685063 0.00000000000000000 0.00000000000000000 -1.00000000000000000 
1 -3.60524026259059927 4.00000000000000000 1.00000000000000000 0.00000000000000000 
2 16.58359213500126472 0.00000000000000271 0.00000000000000000 -1.00000000000000000 -1.00000000000000000 -0.00000000000000000 6.00000000000000000
1 0.00000000000000000 0.00000000000000000 0.00000000000000000 1.00000000000000000 
1 21.54101966249685773 0.00000000000000000 0.00000000000000000 -1.00000000000000000 
1 -3.60524026259059927 4.00000000000000000 1.00000000000000000 0.00000000000000000 
2 -16.58359213500126472 -0.00000000000000529 0.00000000000000000 -1.00000000000000000 1.00000000000000000 0.00000000000000000 6.00000000000000000
1 0.00000000000000000 0.00000000000000000 1.00000000000000000 0.00000000000000000 
1 0.00000000000000000 -3.00000000000000000 1.00000000000000000 0.00000000000000000 
2 0.00000000000000044 -0.00000000000000080 1.00000000000000000 0.00000000000000000 -0.00000000000000000 1.00000000000000000 12.50000000000000000
2 0.00000000000000000 -0.00000000000000085 1.00000000000000000 0.00000000000000000 -0.00000000000000000 1.00000000000000000 12.50000000000000000
1 0.00000000000000000 0.00000000000000000 0.00000000000000000 -1.00000000000000000 
1 33.54101966249684352 0.00000000000000000 0.00000000000000000 -1.00000000000000000 
1 2.21429743558818126 0.00000000000000000 0.00000000000000000 1.00000000000000000 
1 12.00000000000000000 -0.00000000000000000 0.00000000000000000 -1.00000000000000000 
1 0.00000000000000000 0.00000000000000000 0.00000000000000000 -1.00000000000000000 
1 6.28318530717958623 0.00000000000000000 0.00000000000000000 -1.00000000000000000 
8 0.00000000000000000 6.28318530717958623
1 0.00000000000000000 0.00000000000000000 1.00000000000000000 0.00000000000000000 
1 0.00000000000000000 0.00000000000000000 0.00000000000000000 -1.00000000000000000 
1 6.28318530717958623 0.00000000000000000 0.00000000000000000 -1.00000000000000000 
1 0.00000000000000000 0.00000000000000000 0.00000000000000000 -1.00000000000000000 
1 6.28318530717958623 0.00000000000000000 0.00000000000000000 -1.00000000000000000 
1 0.00000000000000000 0.00000000000000000 0.00000000000000000 -1.00000000000000000 
1 6.28318530717958623 0.00000000000000000 0.00000000000000000 -1.00000000000000000 
1 0.00000000000000000 0.00000000000000000 0.00000000000000000 -1.00000000000000000 
1 6.28318530717958623 0.00000000000000000 0.00000000000000000 -1.00000000000000000 
1 0.00000000000000000 0.00000000000000000 1.00000000000000000 0.00000000000000000 
1 0.00000000000000000 -3.00000000000000000 1.00000000000000000 0.00000000000000000 
2 0.00000000000000044 -0.00000000000000080 1.00000000000000000 0.00000000000000000 -0.00000000000000000 1.00000000000000000 11.00000000000000000
Curves 24
1 30.00000000000000000 0.00000000000000000 0.00000000000000000 -0.89442719099991597 0.44721359549995804 0.00000000000000000 
1 19.26687370800101462 5.36656314599949980 0.00000000000000000 0.00000000000000000 0.00000000000000000 1.00000000000000000 
1 0.00000000000000000 15.00000000000000178 0.00000000000000000 0.00000000000000000 0.00000000000000000 1.00000000000000000 
8 3.60524026259059971 5.81953769817878008
2 16.58359213500126472 0.00000000000000355 0.00000000000000000 -0.00000000000000000 -0.00000000000000000 -1.00000000000000000 0.00000000000000000 -1.00000000000000000 0.00000000000000000 -1.00000000000000000 0.00000000000000000 0.00000000000000000 6.00000000000000000
1 0.00000000000000000 15.00000000000000178 0.00000000000000000 -0.89442719099991597 -0.44721359549995804 0.00000000000000000 
1 0.00000000000000000 -14.99999999999999822 0.00000000000000000 0.89442719099991597 0.44721359549995793 0.00000000000000000 
8 3.60524026259059927 5.81953769817878097
2 -16.58359213500126472 -0.00000000000000444 0.00000000000000000 0.00000000000000000 0.00000000000000000 1.00000000000000000 0.00000000000000000 -1.00000000000000000 0.00000000000000000 1.00000000000000000 0.00000000000000000 -0.00000000000000000 6.00000000000000000
1 -30.00000000000000000 0.00000000000000000 0.00000000000000000 0.89442719099991597 -0.44721359549995793 0.00000000000000000 
2 0.00000000000000000 0.00000000000000000 0.00000000000000000 0.00000000000000000 0.00000000000000000 1.00000000000000000 1.00000000000000000 0.00000000000000000 -0.00000000000000000 -0.00000000000000000 1.00000000000000000 0.00000000000000000 11.00000000000000000
2 18.00000000000000000 0.00000000000000000 0.00000000000000000 0.00000000000000000 0.00000000000000000 1.00000000000000000 1.00000000000000000 0.00000000000000000 -0.00000000000000000 -0.00000000000000000 1.00000000000000000 0.00000000000000000 2.50000000000000000
2 -18.00000000000000000 0.00000000000000000 0.00000000000000000 0.00000000000000000 0.00000000000000000 1.00000000000000000 1.00000000000000000 0.00000000000000000 -0.00000000000000000 -0.00000000000000000 1.00000000000000000 0.00000000000000000 2.50000000000000000
1 19.26687370800101107 -5.36656314599949358 0.00000000000000000 0.00000000000000000 0.00000000000000000 1.00000000000000000 
8 3.60524026259059971 5.81953769817878008
2 16.58359213500126472 0.00000000000000355 4.00000000000000000 -0.00000000000000000 -0.00000000000000000 -1.00000000000000000 0.00000000000000000 -1.00000000000000000 0.00000000000000000 -1.00000000000000000 0.00000000000000000 0.00000000000000000 6.00000000000000000
1 -19.26687370800101462 5.36656314599949180 0.00000000000000000 0.00000000000000000 0.00000000000000000 1.00000000000000000 
8 3.60524026259059927 5.81953769817878097
2 -16.58359213500126472 -0.00000000000000444 4.00000000000000000 0.00000000000000000 0.00000000000000000 1.00000000000000000 0.00000000000000000 -1.00000000000000000 0.00000000000000000 1.00000000000000000 0.00000000000000000 -0.00000000000000000 6.00000000000000000
2 0.00000000000000000 0.00000000000000000 0.00000000000000000 0.00000000000000000 0.00000000000000000 1.00000000000000000 1.00000000000000000 0.00000000000000000 -0.00000000000000000 -0.00000000000000000 1.00000000000000000 0.00000000000000000 12.50000000000000000
1 0.00000000000000000 -14.99999999999999822 0.00000000000000000 0.00000000000000000 0.00000000000000000 1.00000000000000000 
1 -19.26687370800101107 -5.36656314599950157 0.00000000000000000 0.00000000000000000 0.00000000000000000 1.00000000000000000 
1 11.00000000000000000 0.00000000000000000 0.00000000000000000 0.00000000000000000 0.00000000000000000 1.00000000000000000 
1 20.50000000000000000 0.00000000000000000 0.00000000000000000 0.00000000000000000 0.00000000000000000 1.00000000000000000 
1 -15.50000000000000000 0.00000000000000000 0.00000000000000000 0.00000000000000000 0.00000000000000000 1.00000000000000000 
1 12.50000000000000000 0.00000000000000000 4.00000000000000000 0.00000000000000000 0.00000000000000000 1.00000000000000000 
1 11.00000000000000000 0.00000000000000000 4.00000000000000000 0.00000000000000000 0.00000000000000000 1.00000000000000000 
2 0.00000000000000000 0.00000000000000000 0.00000000000000000 0.00000000000000000 0.00000000000000000 1.00000000000000000 1.00000000000000000 0.00000000000000000 -0.00000000000000000 -0.00000000000000000 1.00000000000000000 0.00000000000000000 11.00000000000000000
Polygon3D 0
PolygonOnTriangulations 0
Surfaces 13
1 30.00000000000000000 0.00000000000000000 0.00000000000000000 -0.44721359549995804 -0.89442719099991597 0.00000000000000000 -0.89442719099991574 0.44721359549995793 0.00000000000000000 -0.00000000000000000 0.00000000000000000 -1.00000000000000000 
1 0.00000000000000000 0.00000000000000085 0.00000000000000000 0.00000000000000000 0.00000000000000000 1.00000000000000000 1.00000000000000000 0.00000000000000000 -0.00000000000000000 -0.00000000000000000 1.00000000000000000 0.00000000000000000 
2 16.58359213500126472 0.00000000000000355 0.00000000000000000 0.00000000000000000 0.00000000000000000 1.00000000000000000 0.44721359549995804 0.89442719099991597 -0.00000000000000000 0.89442719099991597 -0.44721359549995804 -0.00000000000000000 6.00000000000000000
1 0.00000000000000000 15.00000000000000178 0.00000000000000000 0.44721359549995804 -0.89442719099991597 0.00000000000000000 -0.89442719099991574 -0.44721359549995793 0.00000000000000000 0.00000000000000000 -0.00000000000000000 -1.00000000000000000 
1 0.00000000000000000 -14.99999999999999822 0.00000000000000000 -0.44721359549995793 0.89442719099991597 0.00000000000000000 0.89442719099991597 0.44721359549995793 0.00000000000000000 0.00000000000000000 0.00000000000000000 -1.00000000000000000 
2 -16.58359213500126472 -0.00000000000000444 0.00000000000000000 0.00000000000000000 0.00000000000000000 1.00000000000000000 -0.44721359549995804 0.89442719099991597 0.00000000000000000 -0.89442719099991597 -0.44721359549995804 0.00000000000000000 6.00000000000000000
1 -30.00000000000000000 0.00000000000000000 0.00000000000000000 0.44721359549995793 0.89442719099991597 -0.00000000000000000 0.89442719099991597 -0.44721359549995793 0.00000000000000000 0.00000000000000000 -0.00000000000000000 -1.00000000000000000 
2 0.00000000000000000 0.00000000000000000 0.00000000000000000 -0.00000000000000000 -0.00000000000000000 -1.00000000000000000 1.00000000000000000 0.00000000000000000 0.00000000000000000 -0.00000000000000000 1.00000000000000000 -0.00000000000000000 11.00000000000000000
2 18.00000000000000000 0.00000000000000000 0.00000000000000000 -0.00000000000000000 -0.00000000000000000 -1.00000000000000000 1.00000000000000000 0.00000000000000000 0.00000000000000000 -0.00000000000000000 1.00000000000000000 -0.00000000000000000 2.50000000000000000
2 -18.00000000000000000 0.00000000000000000 0.00000000000000000 -0.00000000000000000 -0.00000000000000000 -1.00000000000000000 1.00000000000000000 0.00000000000000000 0.00000000000000000 -0.00000000000000000 1.00000000000000000 -0.00000000000000000 2.50000000000000000
2 0.00000000000000000 0.00000000000000000 4.00000000000000000 -0.00000000000000000 -0.00000000000000000 -1.00000000000000000 1.00000000000000000 0.00000000000000000 0.00000000000000000 -0.00000000000000000 1.00000000000000000 -0.00000000000000000 12.50000000000000000
1 -0.00000000000000044 0.00000000000000080 4.00000000000000000 0.00000000000000000 0.00000000000000000 1.00000000000000000 1.00000000000000000 0.00000000000000000 -0.00000000000000000 -0.00000000000000000 1.00000000000000000 0.00000000000000000 
2 0.00000000000000000 0.00000000000000000 4.00000000000000000 -0.00000000000000000 -0.00000000000000000 -1.00000000000000000 1.00000000000000000 0.00000000000000000 0.00000000000000000 -0.00000000000000000 1.00000000000000000 -0.00000000000000000 11.00000000000000000
Triangulations 0

TShapes 82
Ve
0.000000100000000
19.266873708001015 5.366563145999500 0.000000000000000
0 0

0101101
*
Ve
0.000000100000000
0.000000000000000 15.000000000000002 0.000000000000000
0 0

0101101
*
Ed
 0.000000100000000 1 1 0
1  1 0 11.999999999999996 33.541019662496844
2  1 1 11 11.999999999999996 33.541019662496844
2  2 1 13 11.999999999999996 33.541019662496844
2  3 2 14 11.999999999999996 33.541019662496844
0

0101000
+82 15 -81 0 *
Ve
0.000000100000000
19.266873708001015 5.366563145999500 4.000000000000000
0 0

0101101
*
Ed
 0.000000100000000 1 1 0
1  2 0 -0.000000000000000 4.000000000000000
2  4 3 0 -0.000000000000000 4.000000000000000
2  5 1 5 -0.000000000000000 4.000000000000000
4 G1 3 0 1 5
0

0101000
+82 0 -79 0 *
Ed
 0.000000100000000 1 1 0
1  3 0 0.000000000000000 4.000000000000000
2  6 1 0 0.000000000000000 4.000000000000000
2  7 4 0 0.000000000000000 4.000000000000000
0

0101000
+81 16 -81 17 *
Ed
 0.000000100000000 1 1 0
1  1 0 11.999999999999996 33.541019662496844
2  1 1 11 11.999999999999996 33.541019662496844
2  2 1 13 11.999999999999996 33.541019662496844
2  3 2 14 11.999999999999996 33.541019662496844
0

0101000
+79 19 -81 0 *
Wi

0101100
-80 10 +78 0 -77 5 +76 18 *
Fa
0  0.000000100000000 1 0

0101000
+75 6 *
Ve
0.000000100000000
19.266873708001011 -5.366563145999494 0.000000000000000
0 0

0101101
*
Ed
 0.000000100000000 1 1 0
1  4 0 3.605240262590600 5.819537698178780
2  8 3 0 3.605240262590600 5.819537698178780
2  9 2 20 3.605240262590600 5.819537698178780
0

0101000
+82 0 -73 0 *
Ve
0.000000100000000
-19.266873708001015 5.366563145999492 0.000000000000000
0 0

0101101
*
Ed
 0.000000100000000 1 1 0
1  5 0 0.000000000000000 21.541019662496851
2  10 2 14 0.000000000000000 21.541019662496851
2  11 4 11 0.000000000000000 21.541019662496851
2  12 4 13 0.000000000000000 21.541019662496851
0

0101000
-71 15 +81 0 *
Ve
0.000000100000000
0.000000000000000 -14.999999999999998 0.000000000000000
0 0

0101101
*
Ed
 0.000000100000000 1 1 0
1  6 0 0.000000000000000 21.541019662496847
2  13 5 11 0.000000000000000 21.541019662496847
2  14 5 13 0.000000000000000 21.541019662496847
2  15 2 14 0.000000000000000 21.541019662496847
0

0101000
-73 15 +69 0 *
Ve
0.000000100000000
-19.266873708001011 -5.366563145999502 0.000000000000000
0 0

0101101
*
Ed
 0.000000100000000 1 1 0
1  7 0 3.605240262590599 5.819537698178781
2  16 6 0 3.605240262590599 5.819537698178781
2  17 2 20 3.605240262590599 5.819537698178781
0

0101000
+71 0 -67 0 *
Ed
 0.000000100000000 1 1 0
1  8 0 12.000000000000000 33.541019662496844
2  18 2 14 12.000000000000000 33.541019662496844
2  19 7 11 12.000000000000000 33.541019662496844
2  20 7 13 12.000000000000000 33.541019662496844
0

0101000
+67 15 -69 0 *
Wi

0101100
+80 10 -72 0 +70 10 +68 10 +66 0 +65 10 *
Ve
0.000000100000000
11.000000000000000 0.000000000000000 0.000000000000000
0 0

0101101
*
Ed
 0.000000100000000 1 1 0
1  9 0 0.000000000000000 6.283185307179586
2  21 8 11 0.000000000000000 6.283185307179586
2  22 8 13 0.000000000000000 6.283185307179586
2  23 2 14 0.000000000000000 6.283185307179586
0

0101000
+63 0 -63 0 *
Wi

0101100
-62 22 *
Ve
0.000000100000000
20.500000000000000 0.000000000000000 0.000000000000000
0 0

0101101
*
Ed
 0.000000100000000 1 1 0
1  10 0 0.000000000000000 6.283185307179586
2  24 9 11 0.000000000000000 6.283185307179586
2  25 9 13 0.000000000000000 6.283185307179586
2  26 2 14 0.000000000000000 6.283185307179586
0

0101000
+60 0 -60 0 *
Wi

0101100
-59 22 *
Ve
0.000000100000000
-15.500000000000000 0.000000000000000 0.000000000000000
0 0

0101101
*
Ed
 0.000000100000000 1 1 0
1  11 0 0.000000000000000 6.283185307179586
2  27 10 11 0.000000000000000 6.283185307179586
2  28 10 13 0.000000000000000 6.283185307179586
2  29 2 14 0.000000000000000 6.283185307179586
0

0101000
+57 0 -57 0 *
Wi

0101100
-56 22 *
Fa
0  0.000000100000000 2 0

0101000
+64 21 +61 0 +58 0 +55 0 *
Ve
0.000000100000000
19.266873708001011 -5.366563145999494 4.000000000000000
0 0

0101101
*
Ed
 0.000000100000000 1 1 0
1  12 0 -0.000000000000000 4.000000000000000
2  30 3 0 -0.000000000000000 4.000000000000000
2  31 5 5 -0.000000000000000 4.000000000000000
4 G1 3 0 5 5
0

0101000
+73 0 -53 0 *
Ed
 0.000000100000000 1 1 0
1  13 0 3.605240262590600 5.819537698178780
2  32 3 0 3.605240262590600 5.819537698178780
2  33 2 23 3.605240262590600 5.819537698178780
0

0101000
+79 0 -53 0 *
Wi

0101100
+72 0 -78 0 +52 0 -51 0 *
Fa
0  0.000000000000000 3 0

0101000
+50 0 *
Ve
0.000000100000000
-19.266873708001015 5.366563145999492 4.000000000000000
0 0

0101101
*
Ed
 0.000000100000000 1 1 0
1  14 0 0.000000000000000 4.000000000000000
2  34 6 0 0.000000000000000 4.000000000000000
2  35 4 5 0.000000000000000 4.000000000000000
4 G1 6 0 4 5
0

0101000
+71 0 -48 0 *
Ed
 0.000000100000000 1 1 0
1  5 0 0.000000000000000 21.541019662496851
2  10 2 14 0.000000000000000 21.541019662496851
2  11 4 11 0.000000000000000 21.541019662496851
2  12 4 13 0.000000000000000 21.541019662496851
0

0101000
-48 19 +81 0 *
Wi

0101100
-70 10 -47 0 +77 5 +46 18 *
Fa
0  0.000000100000000 4 0

0101000
+45 6 *
Ed
 0.000000100000000 1 1 0
1  6 0 0.000000000000000 21.541019662496847
2  13 5 11 0.000000000000000 21.541019662496847
2  14 5 13 0.000000000000000 21.541019662496847
2  15 2 14 0.000000000000000 21.541019662496847
0

0101000
-53 19 +69 0 *
Ve
0.000000100000000
-19.266873708001011 -5.366563145999502 4.000000000000000
0 0

0101101
*
Ed
 0.000000100000000 1 1 0
1  15 0 3.605240262590599 5.819537698178781
2  36 6 0 3.605240262590599 5.819537698178781
2  37 2 23 3.605240262590599 5.819537698178781
0

0101000
+48 0 -42 0 *
Ed
 0.000000100000000 1 1 0
1  8 0 12.000000000000000 33.541019662496844
2  18 2 14 12.000000000000000 33.541019662496844
2  19 7 11 12.000000000000000 33.541019662496844
2  20 7 13 12.000000000000000 33.541019662496844
0

0101000
+42 19 -69 0 *
Wi

0101100
+76 18 -51 0 +46 18 +43 18 +41 0 +40 18 *
Wi

0101100
-56 26 *
Ve
0.000000100000000
12.500000000000000 0.000000000000000 0.000000000000000
0 0

0101101
*
Ed
 0.000000100000000 1 1 0
1  16 0 0.000000000000000 6.283185307179586
2  38 11 30 0.000000000000000 6.283185307179586
2  39 11 32 0.000000000000000 6.283185307179586
2  40 12 33 0.000000000000000 6.283185307179586
2  41 2 34 0.000000000000000 6.283185307179586
0

0101000
+37 0 -37 0 *
Wi

0101100
-36 29 *
Wi

0101100
-59 26 *
Fa
0  0.000000100000000 2 24

0101000
+39 25 +38 0 +35 0 +34 0 *
Ed
 0.000000100000000 1 1 0
1  17 0 0.000000000000000 4.000000000000000
2  42 5 0 0.000000000000000 4.000000000000000
2  43 7 0 0.000000000000000 4.000000000000000
0

0101000
+69 16 -69 17 *
Wi

0101100
-68 10 -52 0 +32 5 +43 18 *
Fa
0  0.000000100000000 5 0

0101000
+31 6 *
Ed
 0.000000100000000 1 1 0
1  18 0 -0.000000000000000 4.000000000000000
2  44 6 0 -0.000000000000000 4.000000000000000
2  45 7 5 -0.000000000000000 4.000000000000000
4 G1 6 0 7 5
0

0101000
+67 0 -42 0 *
Wi

0101100
+66 0 -47 0 +29 0 -41 0 *
Fa
0  0.000000000000000 6 0

0101000
+28 0 *
Wi

0101100
-65 10 +29 0 -32 5 +40 18 *
Fa
0  0.000000100000000 7 0

0101000
+26 6 *
Ve
0.000000100000010
11.000000000000000 0.000000000000000 4.000000000000000
0 0

0101101
*
Ed
 0.000000100000000 1 1 0
1  19 0 0.000000000000000 4.000000000000000
3  46 47CN 8 0 0.000000000000000 4.000000000000000
0

0101000
+63 16 -24 36 *
Ed
 0.000000100000010 1 1 0
1  9 0 0.000000000000000 6.283185307179586
2  21 8 11 0.000000000000000 6.283185307179586
2  22 8 13 0.000000000000000 6.283185307179586
2  23 2 14 0.000000000000000 6.283185307179586
2  48 13 38 0.000000000000000 6.283185307179586
0

0101000
+24 38 -24 38 *
Wi

0101100
+23 35 -23 35 -62 37 +22 26 *
Fa
0  0.000000100000000 8 35

0101000
+21 0 *
Ed
 0.000000100000000 1 1 0
1  20 0 0.000000000000000 4.000000000000000
3  49 50CN 9 0 0.000000000000000 4.000000000000000
0

0101000
+60 16 -60 17 *
Wi

0101100
+19 0 -19 0 -59 16 +59 17 *
Fa
0  0.000000100000000 9 0

0101000
+18 0 *
Ed
 0.000000100000000 1 1 0
1  21 0 0.000000000000000 4.000000000000000
3  51 52CN 10 0 0.000000000000000 4.000000000000000
0

0101000
+57 16 -57 17 *
Wi

0101100
+16 0 -16 0 -56 16 +56 17 *
Fa
0  0.000000100000000 10 0

0101000
+15 0 *
Ed
 0.000000100000000 1 1 0
1  22 0 0.000000000000000 3.000000000000000
3  53 54CN 11 0 0.000000000000000 3.000000000000000
0

0101000
+37 29 -37 39 *
Wi

0101100
+13 0 -13 0 -36 29 +36 39 *
Fa
0  0.000000100000000 11 0

0101000
+12 0 *
Ve
0.000000100000000
11.000000000000000 0.000000000000000 0.000000000000000
0 0

0101101
*
Ed
 0.000000100000000 1 1 0
1  23 0 0.000000000000000 3.000000000000000
3  55 56CN 13 0 0.000000000000000 3.000000000000000
0

0101000
+24 0 -10 39 *
Ed
 0.000000100000000 1 1 0
1  24 0 0.000000000000000 6.283185307179586
2  57 13 30 0.000000000000000 6.283185307179586
2  58 13 32 0.000000000000000 6.283185307179586
2  59 12 33 0.000000000000000 6.283185307179586
0

0101000
+10 0 -10 0 *
Wi

0101100
+9 0 -9 0 -22 26 +8 39 *
Fa
0  0.000000100000000 13 0

0101000
+7 0 *
Wi

0101100
+36 41 *
Wi

0101100
-8 41 *
Fa
0  0.000000100000000 12 0

0101000
+5 0 +4 0 *
Sh

0101100
-74 5 -54 20 -49 0 -44 5 +33 4 -30 5 +27 0 -25 5 +20 4 +17 5 
+14 5 -11 4 +6 4 +3 40 *
So

0100000
+2 0 *

+1 1 