
CASCADE Topology V1, (c) Matra-Datavision
Locations 31
1
1.000000000000000 0.000000000000000 0.000000000000000 0.000000000000000 
0.000000000000000 1.000000000000000 0.000000000000000 0.000000000000000 
0.000000000000000 0.000000000000000 1.000000000000000 0.000000000000000 
1
1.000000000000000 0.000000000000000 0.000000000000000 0.000000000000000 
0.000000000000000 1.000000000000000 0.000000000000000 0.000000000000000 
0.000000000000000 0.000000000000000 1.000000000000000 0.000000000000000 
1
1.000000000000000 0.000000000000000 0.000000000000000 0.000000000000000 
0.000000000000000 1.000000000000000 0.000000000000000 0.000000000000000 
0.000000000000000 0.000000000000000 1.000000000000000 0.000000000000000 
2  2 1 3 -1 0
1
1.000000000000000 0.000000000000000 0.000000000000000 0.000000000000000 
0.000000000000000 1.000000000000000 0.000000000000000 0.000000000000000 
0.000000000000000 0.000000000000000 1.000000000000000 0.000000000000000 
1
1.000000000000000 0.000000000000000 0.000000000000000 0.000000000000000 
0.000000000000000 1.000000000000000 0.000000000000000 0.000000000000000 
0.000000000000000 0.000000000000000 1.000000000000000 0.000000000000000 
1
1.000000000000000 0.000000000000000 0.000000000000000 0.000000000000000 
0.000000000000000 1.000000000000000 0.000000000000000 0.000000000000000 
0.000000000000000 0.000000000000000 1.000000000000000 0.000000000000000 
2  5 1 6 1 7 -1 0
1
1.000000000000000 0.000000000000000 0.000000000000000 0.000000000000000 
0.000000000000000 1.000000000000000 0.000000000000000 0.000000000000000 
0.000000000000000 0.000000000000000 1.000000000000000 4.000000000000000 
2  5 1 6 1 7 -1 9 1 0
2  7 1 6 -1 5 -1 0
2  9 -1 7 1 6 -1 5 -1 0
2  6 -1 5 -1 0
2  7 -1 2 1 3 -1 0
2  5 1 6 1 0
2  7 -1 9 1 2 1 3 -1 0
2  5 1 6 1 7 -1 9 1 2 1 3 -1 0
1
1.000000000000000 0.000000000000000 0.000000000000000 0.000000000000000 
0.000000000000000 1.000000000000000 0.000000000000000 0.000000000000000 
0.000000000000000 0.000000000000000 1.000000000000000 0.000000000000000 
1
1.000000000000000 0.000000000000000 0.000000000000000 0.000000000000000 
0.000000000000000 1.000000000000000 0.000000000000000 0.000000000000000 
0.000000000000000 0.000000000000000 1.000000000000000 4.000000000000000 
2  18 1 19 1 3 -1 0
2  3 1 19 -1 18 -1 0
1
1.000000000000000 0.000000000000000 0.000000000000000 0.000000000000000 
0.000000000000000 1.000000000000000 0.000000000000000 0.000000000000000 
0.000000000000000 0.000000000000000 1.000000000000000 3.000000000000000 
2  22 -1 3 1 19 -1 18 -1 0
2  19 -1 18 -1 0
2  7 -1 9 1 2 1 19 -1 18 -1 0
2  3 1 2 -1 0
2  5 1 6 1 7 -1 2 1 3 -1 0
2  3 1 2 -1 9 -1 7 1 6 -1 5 -1 0
2  18 1 19 1 3 -1 22 1 0
2  3 -1 22 1 0
2  18 1 19 1 0
Curve2ds 47
1 0.00000000000000000 0.00000000000000000 0.00000000000000000 -1.00000000000000000 
1 33.54101966249684352 0.00000000000000000 0.00000000000000000 -1.00000000000000000 
1 33.54101966249683642 0.00000000000000000 0.00000000000000000 -1.00000000000000000 
1 0.00000000000000000 -0.00000000000000000 0.00000000000000000 -1.00000000000000000 
1 0.00000000000000000 0.00000000000000000 1.00000000000000000 0.00000000000000000 
1 0.00000000000000000 -4.00000000000000000 1.00000000000000000 0.00000000000000000 
1 30.00000000000000000 -0.00000000000000085 -0.89442719099991597 0.44721359549995804 
1 0.00000000000000000 0.00000000000000000 0.00000000000000000 -1.00000000000000000 
1 33.54101966249684352 0.00000000000000000 0.00000000000000000 -1.00000000000000000 
1 0.00000000000000000 0.00000000000000000 1.00000000000000000 0.00000000000000000 
1 0.00000000000000000 -4.00000000000000000 1.00000000000000000 0.00000000000000000 
1 0.00000000000000000 -14.99999999999999822 0.89442719099991597 0.44721359549995793 
1 33.54101966249683642 0.00000000000000000 0.00000000000000000 -1.00000000000000000 
1 0.00000000000000000 0.00000000000000000 0.00000000000000000 -1.00000000000000000 
1 0.00000000000000000 15.00000000000000178 -0.89442719099991597 -0.44721359549995804 
1 0.00000000000000000 0.00000000000000000 1.00000000000000000 0.00000000000000000 
1 0.00000000000000000 -4.00000000000000000 1.00000000000000000 0.00000000000000000 
1 -30.00000000000000000 -0.00000000000000085 0.89442719099991597 -0.44721359549995793 
1 0.00000000000000000 0.00000000000000000 1.00000000000000000 0.00000000000000000 
1 0.00000000000000000 -4.00000000000000000 1.00000000000000000 0.00000000000000000 
1 0.00000000000000000 0.00000000000000000 1.00000000000000000 0.00000000000000000 
1 0.00000000000000000 -4.00000000000000000 1.00000000000000000 0.00000000000000000 
2 0.00000000000000000 -0.00000000000000085 1.00000000000000000 0.00000000000000000 -0.00000000000000000 1.00000000000000000 11.00000000000000000
1 0.00000000000000000 0.00000000000000000 1.00000000000000000 0.00000000000000000 
1 0.00000000000000000 -4.00000000000000000 1.00000000000000000 0.00000000000000000 
2 18.00000000000000000 -0.00000000000000085 1.00000000000000000 0.00000000000000000 -0.00000000000000000 1.00000000000000000 2.50000000000000000
1 0.00000000000000000 0.00000000000000000 1.00000000000000000 0.00000000000000000 
1 0.00000000000000000 -4.00000000000000000 1.00000000000000000 0.00000000000000000 
2 -18.00000000000000000 -0.00000000000000085 1.00000000000000000 0.00000000000000000 -0.00000000000000000 1.00000000000000000 2.50000000000000000
1 0.00000000000000000 0.00000000000000000 1.00000000000000000 0.00000000000000000 
1 0.00000000000000000 -3.00000000000000000 1.00000000000000000 0.00000000000000000 
2 0.00000000000000044 -0.00000000000000080 1.00000000000000000 0.00000000000000000 -0.00000000000000000 1.00000000000000000 12.50000000000000000
2 0.00000000000000000 -0.00000000000000085 1.00000000000000000 0.00000000000000000 -0.00000000000000000 1.00000000000000000 12.50000000000000000
1 0.00000000000000000 0.00000000000000000 0.00000000000000000 -1.00000000000000000 
1 6.28318530717958623 0.00000000000000000 0.00000000000000000 -1.00000000000000000 
8 0.00000000000000000 6.28318530717958623
1 0.00000000000000000 0.00000000000000000 1.00000000000000000 0.00000000000000000 
1 0.00000000000000000 0.00000000000000000 0.00000000000000000 -1.00000000000000000 
1 6.28318530717958623 0.00000000000000000 0.00000000000000000 -1.00000000000000000 
1 0.00000000000000000 0.00000000000000000 0.00000000000000000 -1.00000000000000000 
1 6.28318530717958623 0.00000000000000000 0.00000000000000000 -1.00000000000000000 
1 0.00000000000000000 0.00000000000000000 0.00000000000000000 -1.00000000000000000 
1 6.28318530717958623 0.00000000000000000 0.00000000000000000 -1.00000000000000000 
1 0.00000000000000000 0.00000000000000000 0.00000000000000000 -1.00000000000000000 
1 6.28318530717958623 0.00000000000000000 0.00000000000000000 -1.00000000000000000 
1 0.00000000000000000 0.00000000000000000 1.00000000000000000 0.00000000000000000 
1 0.00000000000000000 -3.00000000000000000 1.00000000000000000 0.00000000000000000 
2 0.00000000000000044 -0.00000000000000080 1.00000000000000000 0.00000000000000000 -0.00000000000000000 1.00000000000000000 11.00000000000000000
Curves 18
1 30.00000000000000000 0.00000000000000000 0.00000000000000000 0.00000000000000000 0.00000000000000000 1.00000000000000000 
1 0.00000000000000000 15.00000000000000178 0.00000000000000000 0.00000000000000000 0.00000000000000000 1.00000000000000000 
1 30.00000000000000000 0.00000000000000000 0.00000000000000000 -0.89442719099991597 0.44721359549995804 0.00000000000000000 
1 0.00000000000000000 -14.99999999999999822 0.00000000000000000 0.00000000000000000 0.00000000000000000 1.00000000000000000 
1 0.00000000000000000 -14.99999999999999822 0.00000000000000000 0.89442719099991597 0.44721359549995793 0.00000000000000000 
1 -30.00000000000000000 0.00000000000000000 0.00000000000000000 0.00000000000000000 0.00000000000000000 1.00000000000000000 
1 0.00000000000000000 15.00000000000000178 0.00000000000000000 -0.89442719099991597 -0.44721359549995804 0.00000000000000000 
1 -30.00000000000000000 0.00000000000000000 0.00000000000000000 0.89442719099991597 -0.44721359549995793 0.00000000000000000 
2 0.00000000000000000 0.00000000000000000 0.00000000000000000 0.00000000000000000 0.00000000000000000 1.00000000000000000 1.00000000000000000 0.00000000000000000 -0.00000000000000000 -0.00000000000000000 1.00000000000000000 0.00000000000000000 11.00000000000000000
2 18.00000000000000000 0.00000000000000000 0.00000000000000000 0.00000000000000000 0.00000000000000000 1.00000000000000000 1.00000000000000000 0.00000000000000000 -0.00000000000000000 -0.00000000000000000 1.00000000000000000 0.00000000000000000 2.50000000000000000
2 -18.00000000000000000 0.00000000000000000 0.00000000000000000 0.00000000000000000 0.00000000000000000 1.00000000000000000 1.00000000000000000 0.00000000000000000 -0.00000000000000000 -0.00000000000000000 1.00000000000000000 0.00000000000000000 2.50000000000000000
2 0.00000000000000000 0.00000000000000000 0.00000000000000000 0.00000000000000000 0.00000000000000000 1.00000000000000000 1.00000000000000000 0.00000000000000000 -0.00000000000000000 -0.00000000000000000 1.00000000000000000 0.00000000000000000 12.50000000000000000
1 11.00000000000000000 0.00000000000000000 0.00000000000000000 0.00000000000000000 0.00000000000000000 1.00000000000000000 
1 20.50000000000000000 0.00000000000000000 0.00000000000000000 0.00000000000000000 0.00000000000000000 1.00000000000000000 
1 -15.50000000000000000 0.00000000000000000 0.00000000000000000 0.00000000000000000 0.00000000000000000 1.00000000000000000 
1 12.50000000000000000 0.00000000000000000 4.00000000000000000 0.00000000000000000 0.00000000000000000 1.00000000000000000 
1 11.00000000000000000 0.00000000000000000 4.00000000000000000 0.00000000000000000 0.00000000000000000 1.00000000000000000 
2 0.00000000000000000 0.00000000000000000 0.00000000000000000 0.00000000000000000 0.00000000000000000 1.00000000000000000 1.00000000000000000 0.00000000000000000 -0.00000000000000000 -0.00000000000000000 1.00000000000000000 0.00000000000000000 11.00000000000000000
Polygon3D 0
PolygonOnTriangulations 0
Surfaces 11
1 30.00000000000000000 0.00000000000000000 0.00000000000000000 -0.44721359549995804 -0.89442719099991597 0.00000000000000000 -0.89442719099991574 0.44721359549995793 0.00000000000000000 -0.00000000000000000 0.00000000000000000 -1.00000000000000000 
1 0.00000000000000000 -14.99999999999999822 0.00000000000000000 -0.44721359549995793 0.89442719099991597 0.00000000000000000 0.89442719099991597 0.44721359549995793 0.00000000000000000 0.00000000000000000 0.00000000000000000 -1.00000000000000000 
1 0.00000000000000000 15.00000000000000178 0.00000000000000000 0.44721359549995804 -0.89442719099991597 0.00000000000000000 -0.89442719099991574 -0.44721359549995793 0.00000000000000000 0.00000000000000000 -0.00000000000000000 -1.00000000000000000 
1 0.00000000000000000 0.00000000000000085 0.00000000000000000 0.00000000000000000 0.00000000000000000 1.00000000000000000 1.00000000000000000 0.00000000000000000 -0.00000000000000000 -0.00000000000000000 1.00000000000000000 0.00000000000000000 
1 -30.00000000000000000 0.00000000000000000 0.00000000000000000 0.44721359549995793 0.89442719099991597 -0.00000000000000000 0.89442719099991597 -0.44721359549995793 0.00000000000000000 0.00000000000000000 -0.00000000000000000 -1.00000000000000000 
2 0.00000000000000000 0.00000000000000000 0.00000000000000000 -0.00000000000000000 -0.00000000000000000 -1.00000000000000000 1.00000000000000000 0.00000000000000000 0.00000000000000000 -0.00000000000000000 1.00000000000000000 -0.00000000000000000 11.00000000000000000
2 18.00000000000000000 0.00000000000000000 0.00000000000000000 -0.00000000000000000 -0.00000000000000000 -1.00000000000000000 1.00000000000000000 0.00000000000000000 0.00000000000000000 -0.00000000000000000 1.00000000000000000 -0.00000000000000000 2.50000000000000000
2 -18.00000000000000000 0.00000000000000000 0.00000000000000000 -0.00000000000000000 -0.00000000000000000 -1.00000000000000000 1.00000000000000000 0.00000000000000000 0.00000000000000000 -0.00000000000000000 1.00000000000000000 -0.00000000000000000 2.50000000000000000
2 0.00000000000000000 0.00000000000000000 4.00000000000000000 -0.00000000000000000 -0.00000000000000000 -1.00000000000000000 1.00000000000000000 0.00000000000000000 0.00000000000000000 -0.00000000000000000 1.00000000000000000 -0.00000000000000000 12.50000000000000000
1 -0.00000000000000044 0.00000000000000080 4.00000000000000000 0.00000000000000000 0.00000000000000000 1.00000000000000000 1.00000000000000000 0.00000000000000000 -0.00000000000000000 -0.00000000000000000 1.00000000000000000 0.00000000000000000 
2 0.00000000000000000 0.00000000000000000 4.00000000000000000 -0.00000000000000000 -0.00000000000000000 -1.00000000000000000 1.00000000000000000 0.00000000000000000 0.00000000000000000 -0.00000000000000000 1.00000000000000000 -0.00000000000000000 11.00000000000000000
Triangulations 0

TShapes 62
Ve
0.000000100000000
30.000000000000000 0.000000000000000 0.000000000000000
0 0

0101101
*
Ed
 0.000000100000000 1 1 0
1  1 0 0.000000000000000 4.000000000000000
2  1 1 0 0.000000000000000 4.000000000000000
2  2 2 0 0.000000000000000 4.000000000000000
0

0101000
+62 8 -62 10 *
Ve
0.000000100000000
0.000000000000000 15.000000000000002 0.000000000000000
0 0

0101101
*
Ed
 0.000000100000000 1 1 0
1  2 0 0.000000000000000 4.000000000000000
2  3 1 0 0.000000000000000 4.000000000000000
2  4 3 0 0.000000000000000 4.000000000000000
0

0101000
+60 8 -60 10 *
Ed
 0.000000100000000 1 1 0
1  3 0 0.000000000000000 33.541019662496844
2  5 1 11 0.000000000000000 33.541019662496844
2  6 1 12 0.000000000000000 33.541019662496844
2  7 4 13 0.000000000000000 33.541019662496844
0

0101000
+62 0 -60 0 *
Wi

0101100
+61 0 -59 0 -58 8 +58 10 *
Fa
0  0.000000100000000 1 0

0101000
+57 0 *
Ve
0.000000100000000
0.000000000000000 -14.999999999999998 0.000000000000000
0 0

0101101
*
Ed
 0.000000100000000 1 1 0
1  4 0 0.000000000000000 4.000000000000000
2  8 2 0 0.000000000000000 4.000000000000000
2  9 5 0 0.000000000000000 4.000000000000000
0

0101000
+55 8 -55 10 *
Ed
 0.000000100000000 1 1 0
1  5 0 0.000000000000000 33.541019662496844
2  10 2 11 0.000000000000000 33.541019662496844
2  11 2 12 0.000000000000000 33.541019662496844
2  12 4 13 0.000000000000000 33.541019662496844
0

0101000
+55 0 -62 0 *
Wi

0101100
+54 0 -61 0 -53 8 +53 10 *
Fa
0  0.000000100000000 2 0

0101000
+52 0 *
Ve
0.000000100000000
-30.000000000000000 0.000000000000000 0.000000000000000
0 0

0101101
*
Ed
 0.000000100000000 1 1 0
1  6 0 0.000000000000000 4.000000000000000
2  13 3 0 0.000000000000000 4.000000000000000
2  14 5 0 0.000000000000000 4.000000000000000
0

0101000
+50 8 -50 10 *
Ed
 0.000000100000000 1 1 0
1  7 0 0.000000000000000 33.541019662496844
2  15 4 13 0.000000000000000 33.541019662496844
2  16 3 11 0.000000000000000 33.541019662496844
2  17 3 12 0.000000000000000 33.541019662496844
0

0101000
+60 0 -50 0 *
Wi

0101100
+59 0 -49 0 -48 8 +48 10 *
Fa
0  0.000000100000000 3 0

0101000
+47 0 *
Ed
 0.000000100000000 1 1 0
1  8 0 0.000000000000000 33.541019662496844
2  18 4 13 0.000000000000000 33.541019662496844
2  19 5 11 0.000000000000000 33.541019662496844
2  20 5 12 0.000000000000000 33.541019662496844
0

0101000
+50 0 -55 0 *
Wi

0101100
+58 15 +48 15 +45 15 +53 15 *
Ve
0.000000100000000
11.000000000000000 0.000000000000000 0.000000000000000
0 0

0101101
*
Ed
 0.000000100000000 1 1 0
1  9 0 0.000000000000000 6.283185307179586
2  21 6 11 0.000000000000000 6.283185307179586
2  22 6 12 0.000000000000000 6.283185307179586
2  23 4 13 0.000000000000000 6.283185307179586
0

0101000
+43 0 -43 0 *
Wi

0101100
-42 15 *
Ve
0.000000100000000
20.500000000000000 0.000000000000000 0.000000000000000
0 0

0101101
*
Ed
 0.000000100000000 1 1 0
1  10 0 0.000000000000000 6.283185307179586
2  24 7 11 0.000000000000000 6.283185307179586
2  25 7 12 0.000000000000000 6.283185307179586
2  26 4 13 0.000000000000000 6.283185307179586
0

0101000
+40 0 -40 0 *
Wi

0101100
-39 15 *
Ve
0.000000100000000
-15.500000000000000 0.000000000000000 0.000000000000000
0 0

0101101
*
Ed
 0.000000100000000 1 1 0
1  11 0 0.000000000000000 6.283185307179586
2  27 8 11 0.000000000000000 6.283185307179586
2  28 8 12 0.000000000000000 6.283185307179586
2  29 4 13 0.000000000000000 6.283185307179586
0

0101000
+37 0 -37 0 *
Wi

0101100
-36 15 *
Fa
0  0.000000100000000 4 0

0101000
+44 0 +41 0 +38 0 +35 0 *
Wi

0101100
+58 17 +53 17 +48 17 +45 17 *
Wi

0101100
-36 17 *
Ve
0.000000100000000
12.500000000000000 0.000000000000000 0.000000000000000
0 0

0101101
*
Ed
 0.000000100000000 1 1 0
1  12 0 0.000000000000000 6.283185307179586
2  30 9 21 0.000000000000000 6.283185307179586
2  31 9 23 0.000000000000000 6.283185307179586
2  32 10 24 0.000000000000000 6.283185307179586
2  33 4 25 0.000000000000000 6.283185307179586
0

0101000
+31 0 -31 0 *
Wi

0101100
-30 20 *
Wi

0101100
-39 17 *
Fa
0  0.000000100000000 4 16

0101000
+33 0 +32 0 +29 0 +28 0 *
Wi

0101100
+49 0 -54 0 -45 8 +45 10 *
Fa
0  0.000000100000000 5 0

0101000
+26 0 *
Ve
0.000000100000010
11.000000000000000 0.000000000000000 4.000000000000000
0 0

0101101
*
Ed
 0.000000100000000 1 1 0
1  13 0 0.000000000000000 4.000000000000000
3  34 35CN 6 0 0.000000000000000 4.000000000000000
0

0101000
+43 8 -24 26 *
Ed
 0.000000100000010 1 1 0
1  9 0 0.000000000000000 6.283185307179586
2  21 6 11 0.000000000000000 6.283185307179586
2  22 6 12 0.000000000000000 6.283185307179586
2  23 4 13 0.000000000000000 6.283185307179586
2  36 11 28 0.000000000000000 6.283185307179586
0

0101000
+24 28 -24 28 *
Wi

0101100
+23 4 -23 4 -42 27 +22 17 *
Fa
0  0.000000100000000 6 4

0101000
+21 0 *
Ed
 0.000000100000000 1 1 0
1  14 0 0.000000000000000 4.000000000000000
3  37 38CN 7 0 0.000000000000000 4.000000000000000
0

0101000
+40 8 -40 10 *
Wi

0101100
+19 0 -19 0 -39 8 +39 10 *
Fa
0  0.000000100000000 7 0

0101000
+18 0 *
Ed
 0.000000100000000 1 1 0
1  15 0 0.000000000000000 4.000000000000000
3  39 40CN 8 0 0.000000000000000 4.000000000000000
0

0101000
+37 8 -37 10 *
Wi

0101100
+16 0 -16 0 -36 8 +36 10 *
Fa
0  0.000000100000000 8 0

0101000
+15 0 *
Ed
 0.000000100000000 1 1 0
1  16 0 0.000000000000000 3.000000000000000
3  41 42CN 9 0 0.000000000000000 3.000000000000000
0

0101000
+31 20 -31 29 *
Wi

0101100
+13 0 -13 0 -30 20 +30 29 *
Fa
0  0.000000100000000 9 0

0101000
+12 0 *
Ve
0.000000100000000
11.000000000000000 0.000000000000000 0.000000000000000
0 0

0101101
*
Ed
 0.000000100000000 1 1 0
1  17 0 0.000000000000000 3.000000000000000
3  43 44CN 11 0 0.000000000000000 3.000000000000000
0

0101000
+24 0 -10 29 *
Ed
 0.000000100000000 1 1 0
1  18 0 0.000000000000000 6.283185307179586
2  45 11 21 0.000000000000000 6.283185307179586
2  46 11 23 0.000000000000000 6.283185307179586
2  47 10 24 0.000000000000000 6.283185307179586
0

0101000
+10 0 -10 0 *
Wi

0101100
+9 0 -9 0 -22 17 +8 29 *
Fa
0  0.000000100000000 11 0

0101000
+7 0 *
Wi

0101100
+30 31 *
Wi

0101100
-8 31 *
Fa
0  0.000000100000000 10 0

0101000
+5 0 +4 0 *
Sh

0101100
-56 4 -51 4 -46 4 -34 14 +27 0 -25 4 +20 0 +17 4 +14 4 -11 0 
+6 0 +3 30 *
So

0100000
+2 0 *

+1 1 