
CASCADE Topology V1, (c) Matra-Datavision
Locations 16
1
1.000000000000000 0.000000000000000 0.000000000000000 0.000000000000000 
0.000000000000000 1.000000000000000 0.000000000000000 0.000000000000000 
0.000000000000000 0.000000000000000 1.000000000000000 0.000000000000000 
1
0.000000000000000 0.000000000000000 1.000000000000000 20.000000000000004 
1.000000000000000 0.000000000000000 0.000000000000000 0.000000000000000 
0.000000000000000 1.000000000000000 0.000000000000000 0.000000000000000 
1
1.000000000000000 0.000000000000000 0.000000000000000 0.000000000000000 
0.000000000000000 1.000000000000000 0.000000000000000 0.000000000000000 
0.000000000000000 0.000000000000000 1.000000000000000 0.000000000000000 
2  1 1 2 1 3 -1 0
1
1.000000000000000 0.000000000000000 0.000000000000000 -2261.249028656508017 
0.000000000000000 1.000000000000000 0.000000000000000 -0.000000000000000 
0.000000000000000 0.000000000000000 1.000000000000000 -0.000000000000000 
2  1 1 2 1 3 -1 5 1 0
2  3 1 2 -1 1 -1 0
2  5 -1 3 1 2 -1 1 -1 0
2  2 -1 1 -1 0
1
1.000000000000000 0.000000000000000 0.000000000000000 0.000000000000000 
0.000000000000000 1.000000000000000 0.000000000000000 0.000000000000000 
0.000000000000000 0.000000000000000 1.000000000000000 0.000000000000000 
1
1.000000000000000 0.000000000000000 0.000000000000000 0.000000000000000 
0.000000000000000 1.000000000000000 0.000000000000000 0.000000000000000 
0.000000000000000 0.000000000000000 1.000000000000000 0.000000000000000 
1
1.000000000000000 0.000000000000000 0.000000000000000 0.000000000000000 
0.000000000000000 1.000000000000000 0.000000000000000 0.000000000000000 
0.000000000000000 0.000000000000000 1.000000000000000 0.000000000000000 
2  10 1 11 -1 12 1 2 -1 1 -1 0
2  3 -1 0
2  1 1 2 1 0
2  3 -1 5 1 0
Curve2ds 12
1 0.00000000000000000 0.00000000000000000 0.00000000000000000 -1.00000000000000000 
1 6.28318530717958623 0.00000000000000000 0.00000000000000000 -1.00000000000000000 
1 0.00000000000000000 0.00000000000000000 1.00000000000000000 0.00000000000000000 
1 0.00000000000000000 -2261.24902865650801687 1.00000000000000000 0.00000000000000000 
2 0.00000000000000000 -0.00000000000000035 1.00000000000000000 0.00000000000000000 -0.00000000000000000 1.00000000000000000 3.96875000000000000
2 18.00000000000012434 -1105.29999999999995453 0.00000000000000000 -1.00000000000000000 -1.00000000000000000 -0.00000000000000000 3.96875000000000000
1 0.00000000000000000 0.00000000000000000 0.00000000000000000 -1.00000000000000000 
1 6.28318530717958623 0.00000000000000000 0.00000000000000000 -1.00000000000000000 
1 0.00000000000000000 0.00000000000000000 1.00000000000000000 0.00000000000000000 
1 0.00000000000000000 -2261.24902865650801687 1.00000000000000000 0.00000000000000000 
2 0.00000000000000000 -0.00000000000000035 1.00000000000000000 0.00000000000000000 -0.00000000000000000 1.00000000000000000 3.96875000000000000
2 18.00000000000012434 -12.70000000000004547 0.00000000000000000 -1.00000000000000000 -1.00000000000000000 -0.00000000000000000 3.96875000000000000
Curves 4
1 20.00000000000000355 550.26874999999995453 0.00000000000000000 -1.00000000000000000 -0.00000000000000000 -0.00000000000000000 
2 546.29999999999995453 0.00000000000000000 0.00000000000000000 0.00000000000000000 0.00000000000000000 1.00000000000000000 1.00000000000000000 0.00000000000000000 -0.00000000000000000 -0.00000000000000000 1.00000000000000000 0.00000000000000000 3.96875000000000000
1 20.00000000000000355 -542.33124999999995453 0.00000000000000000 -1.00000000000000000 -0.00000000000000000 -0.00000000000000000 
2 -546.29999999999995453 0.00000000000000000 0.00000000000000000 0.00000000000000000 0.00000000000000000 1.00000000000000000 1.00000000000000000 0.00000000000000000 -0.00000000000000000 -0.00000000000000000 1.00000000000000000 0.00000000000000000 3.96875000000000000
Polygon3D 0
PolygonOnTriangulations 0
Surfaces 5
2 20.00000000000000355 546.29999999999995453 0.00000000000000000 1.00000000000000000 0.00000000000000000 0.00000000000000000 -0.00000000000000000 1.00000000000000000 0.00000000000000000 0.00000000000000000 -0.00000000000000000 1.00000000000000000 3.96875000000000000
1 20.00000000000000711 546.29999999999995453 0.00000000000000035 1.00000000000000000 0.00000000000000000 -0.00000000000000000 0.00000000000000000 1.00000000000000000 0.00000000000000000 0.00000000000000000 -0.00000000000000000 1.00000000000000000 
1 20.00000000000000355 -559.00000000000000000 18.00000000000012434 -1.00000000000000000 0.00000000000000000 0.00000000000000000 0.00000000000000000 0.00000000000000000 -1.00000000000000000 -0.00000000000000000 -1.00000000000000000 -0.00000000000000000 
2 20.00000000000000355 -546.29999999999995453 0.00000000000000000 1.00000000000000000 0.00000000000000000 0.00000000000000000 -0.00000000000000000 1.00000000000000000 0.00000000000000000 0.00000000000000000 -0.00000000000000000 1.00000000000000000 3.96875000000000000
1 20.00000000000000711 -546.29999999999995453 0.00000000000000035 1.00000000000000000 0.00000000000000000 -0.00000000000000000 0.00000000000000000 1.00000000000000000 0.00000000000000000 0.00000000000000000 -0.00000000000000000 1.00000000000000000 
Triangulations 0

TShapes 19
Ve
0.000000100000000
550.268749999999955 0.000000000000000 0.000000000000000
0 0

0101101
*
Ed
 0.000000100000000 1 1 0
1  1 0 0.000000000000000 2261.249028656508017
3  1 2CN 1 0 0.000000000000000 2261.249028656508017
0

0101000
+19 4 -19 6 *
Ed
 0.000000100000000 1 1 0
1  2 0 0.000000000000000 6.283185307179586
2  3 1 7 0.000000000000000 6.283185307179586
2  4 1 8 0.000000000000000 6.283185307179586
2  5 2 9 0.000000000000000 6.283185307179586
2  6 3 13 0.000000000000000 6.283185307179586
0

0101000
+19 0 -19 0 *
Wi

0101100
+18 0 -18 0 -17 4 +17 6 *
Fa
0  0.000000100000000 1 0

0111000
+16 0 *
Wi

0101100
+17 0 *
Fa
0  0.000000100000000 2 0

0111000
+14 15 *
Sh

0101100
+15 0 +13 14 -13 16 *
So

0100000
+12 0 *
Ve
0.000000100000000
-542.331249999999955 0.000000000000000 0.000000000000000
0 0

0101101
*
Ed
 0.000000100000000 1 1 0
1  3 0 0.000000000000000 2261.249028656508017
3  7 8CN 4 0 0.000000000000000 2261.249028656508017
0

0101000
+10 4 -10 6 *
Ed
 0.000000100000000 1 1 0
1  4 0 0.000000000000000 6.283185307179586
2  9 4 7 0.000000000000000 6.283185307179586
2  10 4 8 0.000000000000000 6.283185307179586
2  11 5 9 0.000000000000000 6.283185307179586
2  12 3 13 0.000000000000000 6.283185307179586
0

0101000
+10 0 -10 0 *
Wi

0101100
+9 0 -9 0 -8 4 +8 6 *
Fa
0  0.000000100000000 4 0

0111000
+7 0 *
Wi

0101100
+8 0 *
Fa
0  0.000000100000000 5 0

0111000
+5 15 *
Sh

0101100
+6 0 +4 14 -4 16 *
So

0100000
+3 0 *
Co

1100000
+11 0 +2 0 *

+1 0 