
CASCADE Topology V1, (c) Matra-Datavision
Locations 17
1
1.000000000000000 0.000000000000000 0.000000000000000 0.000000000000000 
0.000000000000000 1.000000000000000 0.000000000000000 0.000000000000000 
0.000000000000000 0.000000000000000 1.000000000000000 0.000000000000000 
1
1.000000000000000 0.000000000000000 0.000000000000000 0.000000000000000 
0.000000000000000 -1.000000000000000 -0.000000000000000 -0.000000000000000 
0.000000000000000 0.000000000000000 -1.000000000000000 -0.000000000000000 
1
1.000000000000000 0.000000000000000 0.000000000000000 0.000000000000000 
0.000000000000000 1.000000000000000 0.000000000000000 0.000000000000000 
0.000000000000000 0.000000000000000 1.000000000000000 0.000000000000000 
2  1 1 2 1 3 -1 0
1
1.000000000000000 0.000000000000000 0.000000000000000 0.000000000000000 
0.000000000000000 1.000000000000000 0.000000000000000 0.000000000000073 
0.000000000000000 0.000000000000000 1.000000000000000 333.097960800482895 
2  1 1 2 1 3 -1 5 1 0
2  3 1 2 -1 1 -1 0
2  5 -1 3 1 2 -1 1 -1 0
2  2 -1 1 -1 0
1
1.000000000000000 0.000000000000000 0.000000000000000 0.000000000000000 
0.000000000000000 1.000000000000000 0.000000000000000 0.000000000000000 
0.000000000000000 0.000000000000000 1.000000000000000 0.000000000000000 
1
1.000000000000000 0.000000000000000 0.000000000000000 0.000000000000000 
0.000000000000000 1.000000000000000 0.000000000000000 0.000000000000000 
0.000000000000000 0.000000000000000 1.000000000000000 0.000000000000000 
1
1.000000000000000 0.000000000000000 0.000000000000000 0.000000000000000 
0.000000000000000 1.000000000000000 0.000000000000000 0.000000000000000 
0.000000000000000 0.000000000000000 1.000000000000000 0.000000000000000 
1
1.000000000000000 0.000000000000000 0.000000000000000 0.000000000000000 
0.000000000000000 1.000000000000000 0.000000000000000 0.000000000000000 
0.000000000000000 0.000000000000000 1.000000000000000 0.000000000000000 
2  10 1 11 1 12 -1 13 1 2 -1 1 -1 0
2  3 -1 0
2  1 1 2 1 0
2  3 -1 5 1 0
Curve2ds 12
1 0.00000000000000000 0.00000000000000000 0.00000000000000000 -1.00000000000000000 
1 6.28318530717958623 0.00000000000000000 0.00000000000000000 -1.00000000000000000 
1 0.00000000000000000 0.00000000000000000 1.00000000000000000 0.00000000000000000 
1 0.00000000000000000 -333.09796080048289468 1.00000000000000000 0.00000000000000000 
2 0.00000000000000711 0.00000000000000178 0.00000000000000000 -1.00000000000000000 1.00000000000000000 0.00000000000000000 3.96875000000000000
2 11.69999999999999929 -121.46999999999999886 -1.00000000000000000 0.00000000000000000 0.00000000000000000 1.00000000000000000 3.96875000000000000
1 0.00000000000000000 0.00000000000000000 0.00000000000000000 -1.00000000000000000 
1 6.28318530717958623 0.00000000000000000 0.00000000000000000 -1.00000000000000000 
1 0.00000000000000000 0.00000000000000000 1.00000000000000000 0.00000000000000000 
1 0.00000000000000000 -333.09796080048289468 1.00000000000000000 0.00000000000000000 
2 -0.00000000000000711 0.00000000000000178 0.00000000000000000 -1.00000000000000000 1.00000000000000000 0.00000000000000000 3.96875000000000000
2 11.69999999999999929 -39.46999999999999886 -1.00000000000000000 0.00000000000000000 0.00000000000000000 1.00000000000000000 3.96875000000000000
Curves 4
1 16.66874999999999929 41.00000000000000000 -0.00000000000000902 0.00000000000000000 0.00000000000000022 1.00000000000000000 
2 12.69999999999999929 -41.00000000000000000 0.00000000000000000 0.00000000000000000 0.00000000000000000 1.00000000000000000 1.00000000000000000 0.00000000000000000 0.00000000000000000 0.00000000000000000 1.00000000000000000 0.00000000000000000 3.96875000000000000
1 16.66874999999999929 -41.00000000000000000 0.00000000000000902 0.00000000000000000 0.00000000000000022 1.00000000000000000 
2 12.69999999999999929 41.00000000000000000 0.00000000000000000 0.00000000000000000 0.00000000000000000 1.00000000000000000 1.00000000000000000 0.00000000000000000 0.00000000000000000 0.00000000000000000 1.00000000000000000 0.00000000000000000 3.96875000000000000
Polygon3D 0
PolygonOnTriangulations 0
Surfaces 5
2 12.69999999999999929 41.00000000000000000 -0.00000000000000902 0.00000000000000000 -0.00000000000000022 -1.00000000000000000 1.00000000000000000 0.00000000000000000 0.00000000000000000 0.00000000000000000 -1.00000000000000000 0.00000000000000022 3.96875000000000000
1 12.70000000000000107 41.00000000000000711 -0.00000000000000902 -0.00000000000000000 -0.00000000000000022 -1.00000000000000000 0.00000000000000000 -1.00000000000000000 0.00000000000000022 -1.00000000000000000 0.00000000000000000 0.00000000000000000 
1 24.39999999999999858 -80.46999999999999886 0.00000000000001770 0.00000000000000000 0.00000000000000022 1.00000000000000000 -1.00000000000000000 0.00000000000000000 0.00000000000000000 0.00000000000000000 -1.00000000000000000 0.00000000000000022 
2 12.69999999999999929 -41.00000000000000000 0.00000000000000902 0.00000000000000000 -0.00000000000000022 -1.00000000000000000 1.00000000000000000 0.00000000000000000 0.00000000000000000 0.00000000000000000 -1.00000000000000000 0.00000000000000022 3.96875000000000000
1 12.70000000000000107 -41.00000000000000711 0.00000000000000902 0.00000000000000000 -0.00000000000000022 -1.00000000000000000 0.00000000000000000 -1.00000000000000000 0.00000000000000022 -1.00000000000000000 -0.00000000000000000 -0.00000000000000000 
Triangulations 0

TShapes 19
Ve
0.000000100000000
16.668749999999999 -41.000000000000000 0.000000000000000
0 0

0101101
*
Ed
 0.000000100000000 1 1 0
1  1 0 0.000000000000000 333.097960800482895
3  1 2CN 1 0 0.000000000000000 333.097960800482895
0

0101000
+19 4 -19 6 *
Ed
 0.000000100000000 1 1 0
1  2 0 0.000000000000000 6.283185307179586
2  3 1 7 0.000000000000000 6.283185307179586
2  4 1 8 0.000000000000000 6.283185307179586
2  5 2 9 0.000000000000000 6.283185307179586
2  6 3 14 0.000000000000000 6.283185307179586
0

0101000
+19 0 -19 0 *
Wi

0101100
+18 0 -18 0 -17 4 +17 6 *
Fa
0  0.000000100000000 1 0

0101000
+16 0 *
Wi

0101100
+17 0 *
Fa
0  0.000000100000000 2 0

0101000
+14 16 *
Sh

0101100
+15 0 +13 15 -13 17 *
So

0100000
+12 0 *
Ve
0.000000100000000
16.668749999999999 41.000000000000000 0.000000000000000
0 0

0101101
*
Ed
 0.000000100000000 1 1 0
1  3 0 0.000000000000000 333.097960800482895
3  7 8CN 4 0 0.000000000000000 333.097960800482895
0

0101000
+10 4 -10 6 *
Ed
 0.000000100000000 1 1 0
1  4 0 0.000000000000000 6.283185307179586
2  9 4 7 0.000000000000000 6.283185307179586
2  10 4 8 0.000000000000000 6.283185307179586
2  11 5 9 0.000000000000000 6.283185307179586
2  12 3 14 0.000000000000000 6.283185307179586
0

0101000
+10 0 -10 0 *
Wi

0101100
+9 0 -9 0 -8 4 +8 6 *
Fa
0  0.000000100000000 4 0

0101000
+7 0 *
Wi

0101100
+8 0 *
Fa
0  0.000000100000000 5 0

0101000
+5 16 *
Sh

0101100
+6 0 +4 15 -4 17 *
So

0100000
+3 0 *
Co

1100000
+11 0 +2 0 *

+1 0 