
CASCADE Topology V1, (c) Matra-Datavision
Locations 18
1
1.000000000000000 0.000000000000000 0.000000000000000 0.000000000000000 
0.000000000000000 0.000000000000000 -1.000000000000000 0.000000000000000 
0.000000000000000 1.000000000000000 0.000000000000000 0.000000000000000 
1
1.000000000000000 0.000000000000000 0.000000000000000 0.000000000000000 
0.000000000000000 1.000000000000000 0.000000000000000 0.000000000000000 
0.000000000000000 0.000000000000000 1.000000000000000 0.000000000000000 
2  2 -1 0
1
1.000000000000000 0.000000000000000 0.000000000000000 0.000000000000000 
0.000000000000000 1.000000000000000 0.000000000000000 0.000000000000000 
0.000000000000000 0.000000000000000 1.000000000000000 0.000000000000000 
1
1.000000000000000 0.000000000000000 0.000000000000000 0.000000000000000 
0.000000000000000 0.000000000000000 -1.000000000000000 0.000000000000000 
0.000000000000000 1.000000000000000 0.000000000000000 0.000000000000000 
1
1.000000000000000 0.000000000000000 0.000000000000000 0.000000000000000 
0.000000000000000 -0.000000000000000 -1.000000000000000 0.000000000000000 
0.000000000000000 1.000000000000000 -0.000000000000000 0.000000000000000 
2  4 1 5 1 6 -1 2 1 0
2  2 -1 6 1 5 -1 4 -1 0
1
1.000000000000000 0.000000000000000 0.000000000000000 0.000000000000000 
0.000000000000000 1.000000000000000 0.000000000000000 0.000000000000004 
0.000000000000000 0.000000000000000 1.000000000000000 10.000000000000000 
2  4 1 5 1 6 -1 9 1 2 1 0
2  2 -1 9 -1 6 1 5 -1 4 -1 0
2  6 -1 2 1 0
2  2 -1 6 1 0
2  4 1 5 1 0
2  6 -1 9 1 2 1 0
2  2 -1 9 -1 6 1 0
2  4 1 5 1 6 -1 0
2  4 1 5 1 6 -1 9 1 0
Curve2ds 32
1 0.00000000000000000 0.00000000000000000 0.00000000000000000 1.00000000000000000 
1 2.00000000000000000 0.00000000000000000 0.00000000000000000 -1.00000000000000000 
1 0.00000000000000000 0.00000000000000000 0.00000000000000000 1.00000000000000000 
1 38.00000000000000000 0.00000000000000000 0.00000000000000000 -1.00000000000000000 
1 -3.14159265358979312 0.00000000000000000 1.00000000000000000 0.00000000000000000 
2 18.00000000000000000 -18.00000000000000000 -1.00000000000000000 0.00000000000000000 0.00000000000000000 1.00000000000000000 2.00000000000000000
1 -3.14159265358979312 0.00000000000000000 1.00000000000000000 0.00000000000000000 
2 18.00000000000000000 18.00000000000000000 -1.00000000000000000 0.00000000000000000 -0.00000000000000000 -1.00000000000000000 2.00000000000000000
1 0.00000000000000000 0.00000000000000000 1.00000000000000000 0.00000000000000000 
2 -18.00000000000000000 -18.00000000000000000 -1.00000000000000000 0.00000000000000000 -0.00000000000000000 -1.00000000000000000 2.00000000000000000
1 -4.71238898038468967 0.00000000000000000 1.00000000000000000 0.00000000000000000 
2 -18.00000000000000000 18.00000000000000000 -1.00000000000000000 0.00000000000000000 -0.00000000000000000 -1.00000000000000000 2.00000000000000000
1 1.57079632679489656 0.00000000000000000 0.00000000000000000 1.00000000000000000 
1 38.00000000000000000 0.00000000000000000 0.00000000000000000 -1.00000000000000000 
1 -3.14159265358979312 10.00000000000000000 1.00000000000000000 0.00000000000000000 
2 18.00000000000000000 -18.00000000000000000 -1.00000000000000000 0.00000000000000000 0.00000000000000000 1.00000000000000000 2.00000000000000000
1 1.57079632679489656 0.00000000000000000 0.00000000000000000 1.00000000000000000 
1 2.00000000000000000 0.00000000000000000 0.00000000000000000 -1.00000000000000000 
1 -3.14159265358979312 10.00000000000000000 1.00000000000000000 0.00000000000000000 
2 18.00000000000000000 18.00000000000000000 -1.00000000000000000 0.00000000000000000 -0.00000000000000000 -1.00000000000000000 2.00000000000000000
1 0.00000000000000000 10.00000000000000000 1.00000000000000000 0.00000000000000000 
2 -18.00000000000000000 -18.00000000000000000 -1.00000000000000000 0.00000000000000000 -0.00000000000000000 -1.00000000000000000 2.00000000000000000
1 -4.71238898038468967 10.00000000000000000 1.00000000000000000 0.00000000000000000 
2 -18.00000000000000000 18.00000000000000000 -1.00000000000000000 0.00000000000000000 -0.00000000000000000 -1.00000000000000000 2.00000000000000000
1 1.57079632679489656 0.00000000000000000 0.00000000000000000 1.00000000000000000 
1 2.00000000000000000 0.00000000000000000 0.00000000000000000 -1.00000000000000000 
1 0.00000000000000000 0.00000000000000000 0.00000000000000000 1.00000000000000000 
1 38.00000000000000000 0.00000000000000000 0.00000000000000000 -1.00000000000000000 
1 0.00000000000000000 0.00000000000000000 0.00000000000000000 1.00000000000000000 
1 38.00000000000000000 0.00000000000000000 0.00000000000000000 -1.00000000000000000 
1 1.57079632679489656 0.00000000000000000 0.00000000000000000 1.00000000000000000 
1 2.00000000000000000 0.00000000000000000 0.00000000000000000 -1.00000000000000000 
Curves 28
1 -19.99999999999999645 20.00000000000000000 0.00000000000000000 1.00000000000000000 0.00000000000000000 0.00000000000000000 
1 -17.99999999999999645 20.00000000000000000 -0.00000000000000888 0.00000000000000000 0.00000000000000044 1.00000000000000000 
1 18.00000000000000355 20.00000000000000000 -0.00000000000000888 0.00000000000000000 0.00000000000000044 1.00000000000000000 
8 3.14159265358979312 4.71238898038468967
2 -17.99999999999999645 18.00000000000000000 -0.00000000000000799 0.00000000000000000 0.00000000000000044 1.00000000000000000 0.00000000000000000 -1.00000000000000000 0.00000000000000044 1.00000000000000000 0.00000000000000000 -0.00000000000000000 2.00000000000000000
8 3.14159265358979312 4.71238898038468967
2 18.00000000000000355 18.00000000000000000 -0.00000000000000799 -0.00000000000000000 -0.00000000000000044 -1.00000000000000000 0.00000000000000000 -1.00000000000000000 0.00000000000000044 -1.00000000000000000 0.00000000000000000 0.00000000000000000 2.00000000000000000
1 -19.99999999999999645 -20.00000000000000000 0.00000000000000000 0.00000000000000000 1.00000000000000000 0.00000000000000000 
1 20.00000000000000355 20.00000000000000000 0.00000000000000000 0.00000000000000000 -1.00000000000000000 0.00000000000000000 
8 0.00000000000000000 1.57079632679489656
2 -17.99999999999999645 -18.00000000000000000 0.00000000000000799 -0.00000000000000000 -0.00000000000000044 -1.00000000000000000 0.00000000000000000 -1.00000000000000000 0.00000000000000044 -1.00000000000000000 0.00000000000000000 0.00000000000000000 2.00000000000000000
8 4.71238898038468967 6.28318530717958623
2 18.00000000000000355 -18.00000000000000000 0.00000000000000799 -0.00000000000000000 -0.00000000000000044 -1.00000000000000000 0.00000000000000000 -1.00000000000000000 0.00000000000000044 -1.00000000000000000 0.00000000000000000 0.00000000000000000 2.00000000000000000
1 20.00000000000000355 -20.00000000000000000 0.00000000000000000 -1.00000000000000000 0.00000000000000000 0.00000000000000000 
1 -18.41250000000000142 -18.41250000000000497 0.00000000000000000 0.00000000000000000 1.00000000000000000 0.00000000000000000 
1 18.41250000000000142 -18.41250000000000142 0.00000000000000000 -1.00000000000000000 -0.00000000000000010 0.00000000000000000 
1 18.41250000000000142 18.41250000000000142 0.00000000000000000 0.00000000000000000 -1.00000000000000000 0.00000000000000000 
1 -18.41250000000000142 18.41250000000000142 0.00000000000000000 1.00000000000000000 0.00000000000000000 0.00000000000000000 
1 -19.99999999999999645 18.00000000000000000 -0.00000000000000799 0.00000000000000000 0.00000000000000044 1.00000000000000000 
8 3.14159265358979312 4.71238898038468967
2 -17.99999999999999645 18.00000000000000355 9.99999999999999289 0.00000000000000000 0.00000000000000044 1.00000000000000000 0.00000000000000000 -1.00000000000000000 0.00000000000000044 1.00000000000000000 0.00000000000000000 -0.00000000000000000 2.00000000000000000
1 20.00000000000000355 18.00000000000000000 -0.00000000000000799 0.00000000000000000 0.00000000000000044 1.00000000000000000 
8 3.14159265358979312 4.71238898038468967
2 18.00000000000000355 18.00000000000000355 9.99999999999999289 -0.00000000000000000 -0.00000000000000044 -1.00000000000000000 0.00000000000000000 -1.00000000000000000 0.00000000000000044 -1.00000000000000000 0.00000000000000000 0.00000000000000000 2.00000000000000000
8 0.00000000000000000 1.57079632679489656
2 -17.99999999999999645 -17.99999999999999645 10.00000000000000711 -0.00000000000000000 -0.00000000000000044 -1.00000000000000000 0.00000000000000000 -1.00000000000000000 0.00000000000000044 -1.00000000000000000 0.00000000000000000 0.00000000000000000 2.00000000000000000
8 4.71238898038468967 6.28318530717958623
2 18.00000000000000355 -17.99999999999999645 10.00000000000000711 -0.00000000000000000 -0.00000000000000044 -1.00000000000000000 0.00000000000000000 -1.00000000000000000 0.00000000000000044 -1.00000000000000000 0.00000000000000000 0.00000000000000000 2.00000000000000000
1 -19.99999999999999645 -18.00000000000000000 0.00000000000000799 0.00000000000000000 0.00000000000000044 1.00000000000000000 
1 20.00000000000000355 -18.00000000000000000 0.00000000000000799 0.00000000000000000 0.00000000000000044 1.00000000000000000 
1 -17.99999999999999645 -20.00000000000000000 0.00000000000000888 0.00000000000000000 0.00000000000000044 1.00000000000000000 
1 18.00000000000000355 -20.00000000000000000 0.00000000000000888 0.00000000000000000 0.00000000000000044 1.00000000000000000 
1 -18.41250000000000142 -18.41250000000000497 0.00000000000000818 0.00000000000000000 0.00000000000000044 1.00000000000000000 
1 -18.41250000000000142 18.41250000000000142 -0.00000000000000818 0.00000000000000000 0.00000000000000044 1.00000000000000000 
1 18.41250000000000142 -18.41250000000000142 0.00000000000000818 0.00000000000000000 0.00000000000000044 1.00000000000000000 
1 18.41250000000000142 18.41250000000000142 -0.00000000000000818 0.00000000000000000 0.00000000000000044 1.00000000000000000 
Polygon3D 0
PolygonOnTriangulations 0
Surfaces 13
1 -19.99999999999999645 20.00000000000000000 -0.00000000000000888 0.00000000000000000 1.00000000000000000 -0.00000000000000044 1.00000000000000000 0.00000000000000000 0.00000000000000000 0.00000000000000000 -0.00000000000000044 -1.00000000000000000 
2 -17.99999999999999645 18.00000000000000000 -0.00000000000000799 0.00000000000000000 0.00000000000000044 1.00000000000000000 0.00000000000000000 1.00000000000000000 -0.00000000000000044 -1.00000000000000000 0.00000000000000000 0.00000000000000000 2.00000000000000000
2 18.00000000000000355 18.00000000000000000 -0.00000000000000799 0.00000000000000000 0.00000000000000044 1.00000000000000000 0.00000000000000000 1.00000000000000000 -0.00000000000000044 1.00000000000000000 -0.00000000000000000 -0.00000000000000000 2.00000000000000000
1 0.00000000000000213 0.00000000000000000 0.00000000000000000 0.00000000000000000 1.00000000000000000 -0.00000000000000022 0.00000000000000000 0.00000000000000022 1.00000000000000000 1.00000000000000000 -0.00000000000000000 0.00000000000000000 
2 -17.99999999999999645 -18.00000000000000000 0.00000000000000799 0.00000000000000000 0.00000000000000044 1.00000000000000000 0.00000000000000000 -1.00000000000000000 0.00000000000000044 -1.00000000000000000 -0.00000000000000000 0.00000000000000000 2.00000000000000000
2 18.00000000000000355 -18.00000000000000000 0.00000000000000799 0.00000000000000000 0.00000000000000044 1.00000000000000000 1.00000000000000000 0.00000000000000000 -0.00000000000000000 0.00000000000000000 -1.00000000000000000 0.00000000000000044 2.00000000000000000
1 -19.99999999999999645 -20.00000000000000000 0.00000000000000888 -1.00000000000000000 0.00000000000000000 0.00000000000000000 0.00000000000000000 1.00000000000000000 -0.00000000000000044 -0.00000000000000000 -0.00000000000000044 -1.00000000000000000 
1 20.00000000000000355 20.00000000000000000 -0.00000000000000888 1.00000000000000000 0.00000000000000000 -0.00000000000000000 0.00000000000000000 -1.00000000000000000 0.00000000000000044 0.00000000000000000 -0.00000000000000044 -1.00000000000000000 
1 20.00000000000000355 -20.00000000000000000 0.00000000000000888 0.00000000000000000 -1.00000000000000000 0.00000000000000044 -1.00000000000000000 0.00000000000000000 0.00000000000000000 -0.00000000000000000 -0.00000000000000044 -1.00000000000000000 
1 -18.41250000000000142 -18.41250000000000497 0.00000000000000818 -1.00000000000000000 0.00000000000000000 0.00000000000000000 0.00000000000000000 1.00000000000000000 -0.00000000000000044 -0.00000000000000000 -0.00000000000000044 -1.00000000000000000 
1 18.41250000000000142 -18.41250000000000142 0.00000000000000818 0.00000000000000010 -1.00000000000000000 0.00000000000000044 -1.00000000000000000 -0.00000000000000010 0.00000000000000000 0.00000000000000000 -0.00000000000000044 -1.00000000000000000 
1 18.41250000000000142 18.41250000000000142 -0.00000000000000818 1.00000000000000000 0.00000000000000000 -0.00000000000000000 0.00000000000000000 -1.00000000000000000 0.00000000000000044 0.00000000000000000 -0.00000000000000044 -1.00000000000000000 
1 -18.41250000000000142 18.41250000000000142 -0.00000000000000818 0.00000000000000000 1.00000000000000000 -0.00000000000000044 1.00000000000000000 0.00000000000000000 0.00000000000000000 0.00000000000000000 -0.00000000000000044 -1.00000000000000000 
Triangulations 0

TShapes 83
Ve
0.000000100000000
-17.999999999999996 20.000000000000000 -0.000000000000009
0 0

0101101
*
Ve
0.000000100000000
18.000000000000004 20.000000000000000 -0.000000000000009
0 0

0101101
*
Ed
 0.000000100000000 1 1 0
1  1 0 2.000000000000000 38.000000000000000
0

0101000
+83 8 -82 8 *
Ve
0.000000100000000
-17.999999999999996 20.000000000000004 9.999999999999993
0 0

0101101
*
Ed
 0.000000100000000 1 1 0
1  2 0 -0.000000000000000 10.000000000000000
2  1 2 0 -0.000000000000000 10.000000000000000
2  2 1 2 -0.000000000000000 10.000000000000000
4 G1 2 0 1 2
0

0101000
+83 0 -80 0 *
Ve
0.000000100000000
18.000000000000004 20.000000000000004 9.999999999999993
0 0

0101101
*
Ed
 0.000000100000000 1 1 0
1  3 0 -0.000000000000000 10.000000000000000
2  3 3 0 -0.000000000000000 10.000000000000000
2  4 1 2 -0.000000000000000 10.000000000000000
4 G1 3 0 1 2
0

0101000
+82 0 -78 0 *
Ed
 0.000000100000000 1 1 0
1  1 0 2.000000000000000 38.000000000000000
0

0101000
+80 11 -78 11 *
Wi

0101100
-81 7 +79 0 -77 0 +76 10 *
Fa
0  0.000000100000000 1 0

0111000
+75 3 *
Ve
0.000000100000000
-19.999999999999996 18.000000000000000 -0.000000000000008
0 0

0101101
*
Ed
 0.000000100000000 1 1 0
1  4 0 3.141592653589793 4.712388980384690
2  5 2 0 3.141592653589793 4.712388980384690
2  6 4 12 3.141592653589793 4.712388980384690
0

0101000
+83 0 -73 0 *
Ve
0.000000100000000
20.000000000000004 18.000000000000000 -0.000000000000008
0 0

0101101
*
Ed
 0.000000100000000 1 1 0
1  5 0 3.141592653589793 4.712388980384690
2  7 3 0 3.141592653589793 4.712388980384690
2  8 4 12 3.141592653589793 4.712388980384690
0

0101000
+82 0 -71 0 *
Ve
0.000000100000000
-19.999999999999996 -18.000000000000000 0.000000000000008
0 0

0101101
*
Ed
 0.000000100000000 1 1 0
1  6 0 2.000000000000000 38.000000000000000
0

0101000
+69 8 -73 8 *
Ve
0.000000100000000
20.000000000000004 -18.000000000000000 0.000000000000008
0 0

0101101
*
Ed
 0.000000100000000 1 1 0
1  7 0 2.000000000000000 38.000000000000000
0

0101000
+71 8 -67 8 *
Ve
0.000000100000000
-17.999999999999996 -20.000000000000000 0.000000000000009
0 0

0101101
*
Ed
 0.000000100000000 1 1 0
1  8 0 0.000000000000000 1.570796326794897
2  9 5 0 0.000000000000000 1.570796326794897
2  10 4 12 0.000000000000000 1.570796326794897
0

0101000
+65 0 -69 0 *
Ve
0.000000100000000
18.000000000000004 -20.000000000000000 0.000000000000009
0 0

0101101
*
Ed
 0.000000100000000 1 1 0
1  9 0 4.712388980384690 6.283185307179586
2  11 6 0 4.712388980384690 6.283185307179586
2  12 4 12 4.712388980384690 6.283185307179586
0

0101000
+67 0 -63 0 *
Ed
 0.000000100000000 1 1 0
1  10 0 2.000000000000000 38.000000000000000
0

0101000
+63 8 -65 8 *
Wi

0101100
+81 7 -72 0 +70 0 +68 7 +66 7 +64 0 +62 0 +61 7 *
Ve
0.000000100000000
-18.412500000000001 -18.412500000000005 0.000000000000000
0 0

0101101
*
Ve
0.000000100000002
-18.412500000000001 18.412500000000001 0.000000000000000
0 0

0101101
*
Ed
 0.000000100000000 1 1 0
1  11 0 0.000000000000000 36.825000000000003
0

0101000
+59 0 -58 0 *
Ve
0.000000100000000
18.412500000000001 -18.412500000000001 0.000000000000000
0 0

0101101
*
Ed
 0.000000100000000 1 1 0
1  12 0 0.000000000000000 36.825000000000003
0

0101000
+56 0 -59 0 *
Ve
0.000000100000000
18.412500000000001 18.412500000000001 0.000000000000000
0 0

0101101
*
Ed
 0.000000100000000 1 1 0
1  13 0 0.000000000000000 36.825000000000003
0

0101000
+54 0 -56 0 *
Ed
 0.000000100000000 1 1 0
1  14 0 0.000000000000000 36.825000000000003
0

0101000
+58 0 -54 0 *
Wi

0101100
-57 14 -55 14 -53 14 -52 14 *
Fa
0  0.000000100000000 4 0

0111000
+60 13 +51 0 *
Ve
0.000000100000000
-19.999999999999996 18.000000000000004 9.999999999999993
0 0

0101101
*
Ed
 0.000000100000000 1 1 0
1  15 0 -0.000000000000000 10.000000000000000
2  13 2 0 -0.000000000000000 10.000000000000000
2  14 7 2 -0.000000000000000 10.000000000000000
4 G1 2 0 7 2
0

0101000
+73 0 -49 0 *
Ed
 0.000000100000000 1 1 0
1  16 0 3.141592653589793 4.712388980384690
2  15 2 0 3.141592653589793 4.712388980384690
2  16 4 15 3.141592653589793 4.712388980384690
0

0101000
+80 0 -49 0 *
Wi

0101100
+72 0 -79 0 +48 0 -47 0 *
Fa
0  0.000000000000000 2 0

0111000
+46 0 *
Ve
0.000000100000000
20.000000000000004 18.000000000000004 9.999999999999993
0 0

0101101
*
Ed
 0.000000100000000 1 1 0
1  17 0 -0.000000000000000 10.000000000000000
2  17 3 0 -0.000000000000000 10.000000000000000
2  18 8 2 -0.000000000000000 10.000000000000000
4 G1 3 0 8 2
0

0101000
+71 0 -44 0 *
Ed
 0.000000100000000 1 1 0
1  18 0 3.141592653589793 4.712388980384690
2  19 3 0 3.141592653589793 4.712388980384690
2  20 4 15 3.141592653589793 4.712388980384690
0

0101000
+78 0 -44 0 *
Wi

0101100
+70 0 -77 0 +43 0 -42 0 *
Fa
0  0.000000000000000 3 0

0111000
+41 0 *
Ve
0.000000100000000
-19.999999999999996 -17.999999999999996 10.000000000000007
0 0

0101101
*
Ed
 0.000000100000000 1 1 0
1  6 0 2.000000000000001 38.000000000000000
0

0101000
+39 11 -49 11 *
Ve
0.000000100000000
20.000000000000004 -17.999999999999996 10.000000000000007
0 0

0101101
*
Ed
 0.000000100000000 1 1 0
1  7 0 1.999999999999999 38.000000000000000
0

0101000
+44 11 -37 11 *
Ve
0.000000100000000
-17.999999999999996 -19.999999999999996 10.000000000000007
0 0

0101101
*
Ed
 0.000000100000000 1 1 0
1  19 0 0.000000000000000 1.570796326794897
2  21 5 0 0.000000000000000 1.570796326794897
2  22 4 15 0.000000000000000 1.570796326794897
0

0101000
+35 0 -39 0 *
Ve
0.000000100000000
18.000000000000004 -19.999999999999996 10.000000000000007
0 0

0101101
*
Ed
 0.000000100000000 1 1 0
1  20 0 4.712388980384690 6.283185307179586
2  23 6 0 4.712388980384690 6.283185307179586
2  24 4 15 4.712388980384690 6.283185307179586
0

0101000
+37 0 -33 0 *
Ed
 0.000000100000000 1 1 0
1  10 0 2.000000000000000 38.000000000000000
0

0101000
+33 11 -35 11 *
Wi

0101100
+76 10 -47 0 +42 0 +38 10 +36 10 +34 0 +32 0 +31 10 *
Fa
0  0.000000100000000 4 0

0111000
+30 16 +51 0 *
Ed
 0.000000100000000 1 1 0
1  21 0 -0.000000000000000 10.000000000000000
2  25 5 0 -0.000000000000000 10.000000000000000
2  26 7 2 -0.000000000000000 10.000000000000000
4 G1 5 0 7 2
0

0101000
+69 0 -39 0 *
Wi

0101100
-68 7 +28 0 -48 0 +38 10 *
Fa
0  0.000000100000000 7 0

0111000
+27 3 *
Ed
 0.000000100000000 1 1 0
1  22 0 -0.000000000000000 10.000000000000000
2  27 6 0 -0.000000000000000 10.000000000000000
2  28 8 2 -0.000000000000000 10.000000000000000
4 G1 6 0 8 2
0

0101000
+67 0 -37 0 *
Wi

0101100
-66 7 +43 0 -25 0 +36 10 *
Fa
0  0.000000100000000 8 0

0111000
+24 3 *
Ed
 0.000000100000000 1 1 0
1  23 0 -0.000000000000000 10.000000000000000
2  29 5 0 -0.000000000000000 10.000000000000000
2  30 9 2 -0.000000000000000 10.000000000000000
4 G1 5 0 9 2
0

0101000
+65 0 -35 0 *
Wi

0101100
+64 0 -22 0 +28 0 -34 0 *
Fa
0  0.000000000000000 5 0

0111000
+21 0 *
Ed
 0.000000100000000 1 1 0
1  24 0 -0.000000000000000 10.000000000000000
2  31 6 0 -0.000000000000000 10.000000000000000
2  32 9 2 -0.000000000000000 10.000000000000000
4 G1 6 0 9 2
0

0101000
+63 0 -33 0 *
Wi

0101100
+62 0 -25 0 +19 0 -32 0 *
Fa
0  0.000000000000000 6 0

0111000
+18 0 *
Wi

0101100
-61 7 +19 0 -22 0 +31 10 *
Fa
0  0.000000100000000 9 0

0111000
+16 3 *
Ed
 0.000000100000000 1 1 0
1  25 0 0.000000000000000 10.000000000000000
0

0101000
+59 17 -59 18 *
Ed
 0.000000100000002 1 1 0
1  26 0 0.000000000000000 10.000000000000000
0

0101000
+58 17 -58 18 *
Wi

0101100
+14 0 -13 0 -57 17 +57 18 *
Fa
0  0.000000100000000 10 0

0111000
+12 0 *
Ed
 0.000000100000000 1 1 0
1  27 0 0.000000000000000 10.000000000000000
0

0101000
+56 17 -56 18 *
Wi

0101100
+10 0 -14 0 -55 17 +55 18 *
Fa
0  0.000000100000000 11 0

0111000
+9 0 *
Ed
 0.000000100000000 1 1 0
1  28 0 0.000000000000000 10.000000000000000
0

0101000
+54 17 -54 18 *
Wi

0101100
+7 0 -10 0 -53 17 +53 18 *
Fa
0  0.000000100000000 12 0

0111000
+6 0 *
Wi

0101100
+13 0 -7 0 -52 17 +52 18 *
Fa
0  0.000000100000000 13 0

0111000
+4 0 *
Sh

0101100
+74 2 +50 12 +45 0 -40 0 -29 15 +26 2 +23 2 -20 0 -17 0 +15 2 
-11 2 -8 2 -5 2 -3 2 *
So

0100000
+2 0 *

+1 1 