
CASCADE Topology V1, (c) Matra-Datavision
Locations 13
1
1.000000000000000 0.000000000000000 0.000000000000000 0.000000000000000 
0.000000000000000 1.000000000000000 0.000000000000000 0.000000000000000 
0.000000000000000 0.000000000000000 1.000000000000000 0.000000000000000 
1
1.000000000000000 0.000000000000000 0.000000000000000 0.000000000000000 
0.000000000000000 1.000000000000000 0.000000000000000 0.000000000000000 
0.000000000000000 0.000000000000000 1.000000000000000 0.000000000000000 
2  2 -1 0
1
1.000000000000000 0.000000000000000 0.000000000000000 0.000000000000000 
0.000000000000000 1.000000000000000 0.000000000000000 0.000000000000000 
0.000000000000000 0.000000000000000 1.000000000000000 0.000000000000000 
2  4 -1 2 -1 0
2  4 -1 0
1
1.000000000000000 0.000000000000000 0.000000000000000 0.000000000000000 
0.000000000000000 1.000000000000000 0.000000000000000 0.000000000000000 
0.000000000000000 0.000000000000000 1.000000000000000 0.000000000000000 
1
1.000000000000000 0.000000000000000 0.000000000000000 -0.000000000000000 
0.000000000000000 1.000000000000000 0.000000000000000 -0.000000000000000 
0.000000000000000 0.000000000000000 1.000000000000000 -3.500000000000000 
2  7 -1 8 1 2 1 0
2  2 -1 8 -1 7 1 0
1
1.000000000000000 0.000000000000000 0.000000000000000 0.000000000000000 
0.000000000000000 1.000000000000000 0.000000000000000 0.000000000000000 
0.000000000000000 0.000000000000000 1.000000000000000 7.000000000000000 
2  7 -1 8 1 11 1 2 1 0
2  2 -1 11 -1 8 -1 7 1 0
Curve2ds 24
1 0.00000000000000000 0.00000000000000000 0.00000000000000000 -1.00000000000000000 
1 6.28318530717958623 0.00000000000000000 0.00000000000000000 -1.00000000000000000 
1 0.00000000000000000 -0.50000000000000000 1.00000000000000000 0.00000000000000000 
1 0.00000000000000000 0.00000000000000000 1.00000000000000000 0.00000000000000000 
1 0.00000000000000000 -6.50000000000000000 1.00000000000000000 0.00000000000000000 
1 0.00000000000000000 0.00000000000000000 1.00000000000000000 0.00000000000000000 
1 6.28318530717958623 0.00000000000000000 0.00000000000000000 1.00000000000000000 
1 0.00000000000000000 0.00000000000000000 0.00000000000000000 1.00000000000000000 
1 0.00000000000000000 0.70710678118654757 1.00000000000000000 0.00000000000000000 
1 6.28318530717958623 0.00000000000000000 0.00000000000000000 1.00000000000000000 
1 0.00000000000000000 0.00000000000000000 0.00000000000000000 1.00000000000000000 
1 0.00000000000000000 0.70710678118654757 1.00000000000000000 0.00000000000000000 
1 0.00000000000000000 0.70710678118654757 1.00000000000000000 0.00000000000000000 
1 0.00000000000000000 0.70710678118654757 1.00000000000000000 0.00000000000000000 
1 6.28318530717958623 0.00000000000000000 0.00000000000000000 1.00000000000000000 
1 0.00000000000000000 0.00000000000000000 0.00000000000000000 1.00000000000000000 
1 0.00000000000000000 0.00000000000000000 1.00000000000000000 0.00000000000000000 
1 0.00000000000000000 -0.50000000000000000 1.00000000000000000 0.00000000000000000 
1 6.28318530717958623 0.00000000000000000 0.00000000000000000 1.00000000000000000 
1 0.00000000000000000 0.00000000000000000 0.00000000000000000 1.00000000000000000 
1 0.00000000000000000 0.00000000000000000 1.00000000000000000 0.00000000000000000 
1 0.00000000000000000 -6.50000000000000000 1.00000000000000000 0.00000000000000000 
1 0.00000000000000000 0.00000000000000000 0.00000000000000000 -1.00000000000000000 
1 6.28318530717958623 0.00000000000000000 0.00000000000000000 -1.00000000000000000 
Curves 14
1 11.00000000000000000 0.00000000000000000 -3.50000000000000000 0.00000000000000000 0.00000000000000000 1.00000000000000000 
2 0.00000000000000000 0.00000000000000000 -3.00000000000000000 0.00000000000000000 0.00000000000000000 1.00000000000000000 1.00000000000000000 0.00000000000000000 0.00000000000000000 0.00000000000000000 1.00000000000000000 0.00000000000000000 11.00000000000000000
2 0.00000000000000000 0.00000000000000000 3.00000000000000000 0.00000000000000000 0.00000000000000000 1.00000000000000000 1.00000000000000000 0.00000000000000000 0.00000000000000000 0.00000000000000000 1.00000000000000000 0.00000000000000000 11.00000000000000000
1 11.00000000000000000 0.00000000000000000 -3.00000000000000000 -0.70710678118654757 -0.00000000000000000 -0.70710678118654746 
2 0.00000000000000000 0.00000000000000000 -3.50000000000000000 0.00000000000000000 0.00000000000000000 1.00000000000000000 1.00000000000000000 0.00000000000000000 0.00000000000000000 0.00000000000000000 1.00000000000000000 0.00000000000000000 10.50000000000000000
1 11.00000000000000000 0.00000000000000000 3.00000000000000000 -0.70710678118654757 0.00000000000000000 0.70710678118654746 
2 0.00000000000000000 0.00000000000000000 3.50000000000000000 0.00000000000000000 0.00000000000000000 1.00000000000000000 1.00000000000000000 0.00000000000000000 0.00000000000000000 0.00000000000000000 1.00000000000000000 0.00000000000000000 10.50000000000000000
2 0.00000000000000000 0.00000000000000000 -3.50000000000000000 0.00000000000000000 0.00000000000000000 1.00000000000000000 1.00000000000000000 0.00000000000000000 0.00000000000000000 0.00000000000000000 1.00000000000000000 0.00000000000000000 4.50000000000000000
2 0.00000000000000000 0.00000000000000000 3.50000000000000000 0.00000000000000000 0.00000000000000000 1.00000000000000000 1.00000000000000000 0.00000000000000000 0.00000000000000000 0.00000000000000000 1.00000000000000000 0.00000000000000000 4.50000000000000000
1 4.00000000000000000 0.00000000000000000 -3.00000000000000000 0.70710678118654757 0.00000000000000000 -0.70710678118654746 
2 0.00000000000000000 0.00000000000000000 -3.00000000000000000 0.00000000000000000 0.00000000000000000 1.00000000000000000 1.00000000000000000 0.00000000000000000 0.00000000000000000 0.00000000000000000 1.00000000000000000 0.00000000000000000 4.00000000000000000
1 4.00000000000000000 0.00000000000000000 3.00000000000000000 0.70710678118654757 0.00000000000000000 0.70710678118654746 
2 0.00000000000000000 0.00000000000000000 3.00000000000000000 0.00000000000000000 0.00000000000000000 1.00000000000000000 1.00000000000000000 0.00000000000000000 0.00000000000000000 0.00000000000000000 1.00000000000000000 0.00000000000000000 4.00000000000000000
1 4.00000000000000000 0.00000000000000000 -3.50000000000000000 0.00000000000000000 0.00000000000000000 1.00000000000000000 
Polygon3D 0
PolygonOnTriangulations 0
Surfaces 8
2 0.00000000000000000 0.00000000000000000 -3.50000000000000000 -0.00000000000000000 -0.00000000000000000 -1.00000000000000000 1.00000000000000000 0.00000000000000000 0.00000000000000000 0.00000000000000000 1.00000000000000000 0.00000000000000000 11.00000000000000000
3 0.00000000000000000 0.00000000000000000 -3.00000000000000000 -0.00000000000000000 -0.00000000000000000 -1.00000000000000000 1.00000000000000000 0.00000000000000000 0.00000000000000000 0.00000000000000000 1.00000000000000000 0.00000000000000000 11.00000000000000000
-0.78539816339744839
3 0.00000000000000000 0.00000000000000000 3.00000000000000000 0.00000000000000000 0.00000000000000000 1.00000000000000000 1.00000000000000000 0.00000000000000000 0.00000000000000000 0.00000000000000000 1.00000000000000000 0.00000000000000000 11.00000000000000000
-0.78539816339744839
1 -0.00000000000000075 -0.00000000000000045 0.00000000000000000 0.00000000000000000 0.00000000000000000 1.00000000000000000 1.00000000000000000 0.00000000000000000 0.00000000000000000 0.00000000000000000 1.00000000000000000 0.00000000000000000 
3 0.00000000000000000 0.00000000000000000 -3.00000000000000000 -0.00000000000000000 -0.00000000000000000 -1.00000000000000000 1.00000000000000000 0.00000000000000000 0.00000000000000000 0.00000000000000000 1.00000000000000000 0.00000000000000000 4.00000000000000000
0.78539816339744839
1 -0.00000000000000075 -0.00000000000000045 0.00000000000000000 0.00000000000000000 0.00000000000000000 1.00000000000000000 1.00000000000000000 0.00000000000000000 0.00000000000000000 0.00000000000000000 1.00000000000000000 0.00000000000000000 
3 0.00000000000000000 0.00000000000000000 3.00000000000000000 0.00000000000000000 0.00000000000000000 1.00000000000000000 1.00000000000000000 0.00000000000000000 0.00000000000000000 0.00000000000000000 1.00000000000000000 0.00000000000000000 4.00000000000000000
0.78539816339744839
2 0.00000000000000000 0.00000000000000000 -3.50000000000000000 -0.00000000000000000 -0.00000000000000000 -1.00000000000000000 1.00000000000000000 0.00000000000000000 0.00000000000000000 0.00000000000000000 1.00000000000000000 0.00000000000000000 4.00000000000000000
Triangulations 0

TShapes 42
Ve
0.000000100000000
11.000000000000000 0.000000000000000 -3.000000000000000
0 0

0101101
*
Ve
0.000000100000000
11.000000000000000 0.000000000000000 3.000000000000000
0 0

0101101
*
Ed
 0.000000100000000 1 1 0
1  1 0 0.500000000000000 6.500000000000000
3  1 2CN 1 0 0.500000000000000 6.500000000000000
0

0101000
+42 5 -41 5 *
Ed
 0.000000100000000 1 1 0
1  2 0 0.000000000000000 6.283185307179586
2  3 1 2 0.000000000000000 6.283185307179586
2  4 2 0 0.000000000000000 6.283185307179586
0

0101000
+42 6 -42 6 *
Ed
 0.000000100000000 1 1 0
1  3 0 0.000000000000000 6.283185307179586
2  5 1 2 0.000000000000000 6.283185307179586
2  6 3 0 0.000000000000000 6.283185307179586
0

0101000
+41 6 -41 6 *
Wi

0101100
+40 2 -39 0 +38 0 -40 2 *
Fa
0  0.000000100000000 1 0

0111000
+37 3 *
Ve
0.000000100000000
10.500000000000000 0.000000000000000 -3.500000000000000
0 0

0101101
*
Ed
 0.000000100000000 1 1 0
1  4 0 0.000000000000000 0.707106781186548
3  7 8CN 2 0 0.000000000000000 0.707106781186548
0

0101000
+42 6 -35 6 *
Ed
 0.000000100000000 1 1 0
1  5 0 0.000000000000000 6.283185307179586
2  9 2 0 0.000000000000000 6.283185307179586
0

0101000
+35 6 -35 6 *
Wi

0101100
-34 0 +39 0 -33 0 +34 0 *
Fa
0  0.000000100000000 2 0

0111000
+32 0 *
Ve
0.000000100000000
10.500000000000000 0.000000000000000 3.500000000000000
0 0

0101101
*
Ed
 0.000000100000000 1 1 0
1  6 0 0.000000000000000 0.707106781186548
3  10 11CN 3 0 0.000000000000000 0.707106781186548
0

0101000
+41 6 -30 6 *
Ed
 0.000000100000000 1 1 0
1  7 0 0.000000000000000 6.283185307179586
2  12 3 0 0.000000000000000 6.283185307179586
0

0101000
+30 6 -30 6 *
Wi

0101100
-29 0 +38 0 -28 0 +29 0 *
Fa
0  0.000000100000000 3 0

0111000
+27 0 *
Wi

0101100
+33 0 *
Ve
0.000000100000000
4.500000000000000 0.000000000000000 -3.500000000000000
0 0

0101101
*
Ed
 0.000000100000000 1 1 0
1  8 0 0.000000000000000 6.283185307179586
2  13 5 0 0.000000000000000 6.283185307179586
0

0101000
+24 6 -24 6 *
Wi

0101100
-23 0 *
Fa
0  0.000000100000000 4 0

0111000
+25 10 +22 10 *
Wi

0101100
+28 0 *
Ve
0.000000100000000
4.500000000000000 0.000000000000000 3.500000000000000
0 0

0101101
*
Ed
 0.000000100000000 1 1 0
1  9 0 0.000000000000000 6.283185307179586
2  14 7 0 0.000000000000000 6.283185307179586
0

0101000
+19 6 -19 6 *
Wi

0101100
-18 0 *
Fa
0  0.000000100000000 6 0

0111000
+20 13 +17 13 *
Ve
0.000000100000000
4.000000000000000 0.000000000000000 -3.000000000000000
0 0

0101101
*
Ed
 0.000000100000000 1 1 0
1  10 0 0.000000000000000 0.707106781186548
3  15 16CN 5 0 0.000000000000000 0.707106781186548
0

0101000
+15 6 -24 6 *
Ed
 0.000000100000000 1 1 0
1  11 0 0.000000000000000 6.283185307179586
2  17 5 0 0.000000000000000 6.283185307179586
2  18 8 2 0.000000000000000 6.283185307179586
0

0101000
+15 6 -15 6 *
Wi

0101100
-14 0 +13 0 -23 0 +14 0 *
Fa
0  0.000000100000000 5 0

0111000
+12 0 *
Ve
0.000000100000000
4.000000000000000 0.000000000000000 3.000000000000000
0 0

0101101
*
Ed
 0.000000100000000 1 1 0
1  12 0 0.000000000000000 0.707106781186548
3  19 20CN 7 0 0.000000000000000 0.707106781186548
0

0101000
+10 6 -19 6 *
Ed
 0.000000100000000 1 1 0
1  13 0 0.000000000000000 6.283185307179586
2  21 7 0 0.000000000000000 6.283185307179586
2  22 8 2 0.000000000000000 6.283185307179586
0

0101000
+10 6 -10 6 *
Wi

0101100
-9 0 +8 0 -18 0 +9 0 *
Fa
0  0.000000100000000 7 0

0111000
+7 0 *
Ed
 0.000000100000000 1 1 0
1  14 0 0.500000000000000 6.500000000000000
3  23 24CN 8 0 0.500000000000000 6.500000000000000
0

0101000
+15 5 -10 5 *
Wi

0101100
+5 2 -13 0 +8 0 -5 2 *
Fa
0  0.000000100000000 8 0

0111000
+4 3 *
Sh

0101100
-36 2 -31 0 +26 0 -21 9 +16 12 +11 0 -6 0 +3 2 *
So

1100000
+2 0 *

+1 1 