
CASCADE Topology V1, (c) Matra-Datavision
Locations 17
1
1.000000000000000 0.000000000000000 0.000000000000000 0.000000000000000 
0.000000000000000 1.000000000000000 0.000000000000000 0.000000000000000 
0.000000000000000 0.000000000000000 1.000000000000000 0.000000000000000 
1
1.000000000000000 0.000000000000000 0.000000000000000 0.000000000000000 
0.000000000000000 1.000000000000000 0.000000000000000 0.000000000000000 
0.000000000000000 0.000000000000000 1.000000000000000 0.000000000000000 
2  2 -1 0
1
1.000000000000000 0.000000000000000 0.000000000000000 0.000000000000000 
0.000000000000000 1.000000000000000 0.000000000000000 0.000000000000000 
0.000000000000000 0.000000000000000 1.000000000000000 0.000000000000000 
1
1.000000000000000 0.000000000000000 0.000000000000000 0.000000000000000 
0.000000000000000 1.000000000000000 0.000000000000000 0.000000000000000 
0.000000000000000 0.000000000000000 1.000000000000000 0.000000000000000 
1
1.000000000000000 0.000000000000000 0.000000000000000 0.000000000000000 
0.000000000000000 1.000000000000000 0.000000000000000 0.000000000000000 
0.000000000000000 0.000000000000000 1.000000000000000 0.000000000000000 
1
1.000000000000000 0.000000000000000 0.000000000000000 -0.000000000000000 
0.000000000000000 1.000000000000000 0.000000000000000 -0.000000000000000 
0.000000000000000 0.000000000000000 1.000000000000000 -3.500000000000000 
2  4 1 5 1 6 -1 7 1 0
2  7 -1 6 1 5 -1 4 -1 0
2  2 -1 7 -1 6 1 5 -1 4 -1 0
1
1.000000000000000 0.000000000000000 0.000000000000000 0.000000000000000 
0.000000000000000 1.000000000000000 0.000000000000000 0.000000000000000 
0.000000000000000 0.000000000000000 1.000000000000000 7.000000000000000 
2  4 1 5 1 6 -1 7 1 11 1 0
2  11 -1 7 -1 6 1 5 -1 4 -1 0
2  2 -1 11 -1 7 -1 6 1 5 -1 4 -1 0
2  6 -1 7 1 0
2  4 1 5 1 0
2  6 -1 7 1 11 1 0
Curve2ds 8
1 0.00000000000000000 0.00000000000000000 0.00000000000000000 -1.00000000000000000 
1 6.28318530717958623 0.00000000000000000 0.00000000000000000 -1.00000000000000000 
1 0.00000000000000000 0.00000000000000000 1.00000000000000000 0.00000000000000000 
1 0.00000000000000000 -7.00000000000000000 1.00000000000000000 0.00000000000000000 
1 0.00000000000000000 0.00000000000000000 0.00000000000000000 -1.00000000000000000 
1 6.28318530717958623 0.00000000000000000 0.00000000000000000 -1.00000000000000000 
1 0.00000000000000000 0.00000000000000000 1.00000000000000000 0.00000000000000000 
1 0.00000000000000000 -7.00000000000000000 1.00000000000000000 0.00000000000000000 
Curves 6
1 11.00000000000000000 0.00000000000000000 -3.50000000000000000 0.00000000000000000 0.00000000000000000 1.00000000000000000 
2 0.00000000000000000 0.00000000000000000 0.00000000000000000 0.00000000000000000 0.00000000000000000 1.00000000000000000 1.00000000000000000 0.00000000000000000 0.00000000000000000 0.00000000000000000 1.00000000000000000 0.00000000000000000 11.00000000000000000
2 0.00000000000000000 0.00000000000000000 0.00000000000000000 0.00000000000000000 0.00000000000000000 1.00000000000000000 1.00000000000000000 0.00000000000000000 0.00000000000000000 0.00000000000000000 1.00000000000000000 0.00000000000000000 11.00000000000000000
1 4.00000000000000000 0.00000000000000000 -3.50000000000000000 0.00000000000000000 0.00000000000000000 1.00000000000000000 
2 0.00000000000000000 0.00000000000000000 0.00000000000000000 0.00000000000000000 0.00000000000000000 1.00000000000000000 1.00000000000000000 0.00000000000000000 0.00000000000000000 0.00000000000000000 1.00000000000000000 0.00000000000000000 4.00000000000000000
2 0.00000000000000000 0.00000000000000000 0.00000000000000000 0.00000000000000000 0.00000000000000000 1.00000000000000000 1.00000000000000000 0.00000000000000000 0.00000000000000000 0.00000000000000000 1.00000000000000000 0.00000000000000000 4.00000000000000000
Polygon3D 0
PolygonOnTriangulations 0
Surfaces 4
2 0.00000000000000000 0.00000000000000000 -3.50000000000000000 -0.00000000000000000 -0.00000000000000000 -1.00000000000000000 1.00000000000000000 0.00000000000000000 0.00000000000000000 0.00000000000000000 1.00000000000000000 0.00000000000000000 11.00000000000000000
2 0.00000000000000000 0.00000000000000000 -3.50000000000000000 -0.00000000000000000 -0.00000000000000000 -1.00000000000000000 1.00000000000000000 0.00000000000000000 0.00000000000000000 0.00000000000000000 1.00000000000000000 0.00000000000000000 4.00000000000000000
1 -0.00000000000000075 -0.00000000000000045 0.00000000000000000 0.00000000000000000 0.00000000000000000 1.00000000000000000 1.00000000000000000 0.00000000000000000 0.00000000000000000 0.00000000000000000 1.00000000000000000 0.00000000000000000 
1 -0.00000000000000075 -0.00000000000000045 0.00000000000000000 0.00000000000000000 0.00000000000000000 1.00000000000000000 1.00000000000000000 0.00000000000000000 0.00000000000000000 0.00000000000000000 1.00000000000000000 0.00000000000000000 
Triangulations 0

TShapes 22
Ve
0.000000100000000
11.000000000000000 0.000000000000000 -3.500000000000000
0 0

0101101
*
Ve
0.000000100000000
11.000000000000000 0.000000000000000 3.500000000000000
0 0

0101101
*
Ed
 0.000000100000000 1 1 0
1  1 0 0.000000000000000 7.000000000000000
3  1 2CN 1 0 0.000000000000000 7.000000000000000
0

0101000
+22 3 -21 3 *
Ed
 0.000000100000000 1 1 0
1  2 0 0.000000000000000 6.283185307179586
2  3 1 9 0.000000000000000 6.283185307179586
0

0101000
+22 10 -22 10 *
Ed
 0.000000100000000 1 1 0
1  3 0 0.000000000000000 6.283185307179586
2  4 1 13 0.000000000000000 6.283185307179586
0

0101000
+21 14 -21 14 *
Wi

0101100
+20 0 -20 0 -19 8 +18 12 *
Fa
0  0.000000100000000 1 0

0111000
+17 0 *
Ve
0.000000100000000
4.000000000000000 0.000000000000000 -3.500000000000000
0 0

0101101
*
Ve
0.000000100000000
4.000000000000000 0.000000000000000 3.500000000000000
0 0

0101101
*
Ed
 0.000000100000000 1 1 0
1  4 0 0.000000000000000 7.000000000000000
3  5 6CN 2 0 0.000000000000000 7.000000000000000
0

0101000
+15 3 -14 3 *
Ed
 0.000000100000000 1 1 0
1  5 0 0.000000000000000 6.283185307179586
2  7 2 9 0.000000000000000 6.283185307179586
0

0101000
+15 10 -15 10 *
Ed
 0.000000100000000 1 1 0
1  6 0 0.000000000000000 6.283185307179586
2  8 2 13 0.000000000000000 6.283185307179586
0

0101000
+14 14 -14 14 *
Wi

0101100
+13 0 -13 0 -12 8 +11 12 *
Fa
0  0.000000100000000 2 0

0111000
+10 0 *
Wi

0101100
+19 16 *
Wi

0101100
-12 16 *
Fa
0  0.000000100000000 3 0

0111000
+8 0 +7 0 *
Wi

0101100
+18 16 *
Wi

0101100
-11 16 *
Fa
0  0.000000100000000 4 0

0111000
+5 0 +4 0 *
Sh

0101100
+16 0 -9 0 +6 15 -3 17 *
So

1100000
-2 0 *

+1 1 