
CASCADE Topology V1, (c) Matra-Datavision
Locations 14
1
1.000000000000000 0.000000000000000 0.000000000000000 0.000000000000000 
0.000000000000000 1.000000000000000 0.000000000000000 0.000000000000000 
0.000000000000000 0.000000000000000 1.000000000000000 0.000000000000000 
1
1.000000000000000 0.000000000000000 0.000000000000000 0.000000000000000 
0.000000000000000 1.000000000000000 0.000000000000000 0.000000000000000 
0.000000000000000 0.000000000000000 1.000000000000000 0.000000000000000 
1
1.000000000000000 0.000000000000000 0.000000000000000 0.000000000000000 
0.000000000000000 -0.000000000000000 -1.000000000000000 0.000000000000000 
0.000000000000000 1.000000000000000 -0.000000000000000 0.000000000000000 
2  1 1 2 1 3 -1 0
1
1.000000000000000 0.000000000000000 0.000000000000000 0.000000000000000 
0.000000000000000 1.000000000000000 0.000000000000000 231.789696889227599 
0.000000000000000 0.000000000000000 1.000000000000000 -0.000000000000051 
2  1 1 2 1 3 -1 5 1 0
2  3 1 2 -1 1 -1 0
2  5 -1 3 1 2 -1 1 -1 0
2  2 -1 1 -1 0
1
1.000000000000000 0.000000000000000 0.000000000000000 0.000000000000000 
0.000000000000000 -0.000000000000000 -1.000000000000000 0.000000000000000 
0.000000000000000 1.000000000000000 -0.000000000000000 0.000000000000000 
2  10 1 2 -1 1 -1 0
2  3 -1 0
2  1 1 2 1 0
2  3 -1 5 1 0
Curve2ds 44
1 0.00000000000000000 0.00000000000000000 0.00000000000000000 -1.00000000000000000 
1 22.22499999999999432 0.00000000000000000 0.00000000000000000 -1.00000000000000000 
1 22.22500000000000142 0.00000000000000000 0.00000000000000000 -1.00000000000000000 
1 0.00000000000000000 0.00000000000000000 0.00000000000000000 -1.00000000000000000 
1 0.00000000000000000 0.00000000000000000 1.00000000000000000 -0.00000000000000000 
1 0.00000000000000000 -231.78969688922759929 1.00000000000000000 -0.00000000000000000 
1 -11.11250000000000426 -11.11250000000000426 1.00000000000000000 0.00000000000000000 
1 22.22499999999999432 0.00000000000000000 0.00000000000000000 -1.00000000000000000 
1 0.00000000000000000 0.00000000000000000 0.00000000000000000 -1.00000000000000000 
1 0.00000000000000000 0.00000000000000000 1.00000000000000000 0.00000000000000000 
1 0.00000000000000538 -231.78969688922759929 1.00000000000000000 0.00000000000000000 
1 11.11249999999999716 -11.11250000000000426 0.00000000000000000 1.00000000000000000 
1 22.22500000000000142 0.00000000000000000 0.00000000000000000 -1.00000000000000000 
1 0.00000000000000000 0.00000000000000000 0.00000000000000000 -1.00000000000000000 
1 11.11249999999999716 11.11249999999999005 -1.00000000000000000 0.00000000000000000 
1 0.00000000000000000 0.00000000000000000 1.00000000000000000 0.00000000000000000 
1 0.00000000000000000 -231.78969688922759929 1.00000000000000000 0.00000000000000000 
1 25.39999999999999858 43.17500000000001137 -1.00000000000000000 0.00000000000000000 
1 -11.11250000000000426 11.11249999999999005 0.00000000000000000 -1.00000000000000000 
1 0.00000000000000000 0.00000000000000000 1.00000000000000000 0.00000000000000000 
1 0.00000000000000173 -231.78969688922759929 1.00000000000000000 0.00000000000000000 
1 3.17500000000001137 -3.17499999999999716 1.00000000000000000 0.00000000000000000 
1 0.00000000000000000 0.00000000000000000 0.00000000000000000 -1.00000000000000000 
1 22.22499999999999432 0.00000000000000000 0.00000000000000000 -1.00000000000000000 
1 22.22499999999999787 0.00000000000000000 0.00000000000000000 -1.00000000000000000 
1 0.00000000000000000 0.00000000000000000 0.00000000000000000 -1.00000000000000000 
1 0.00000000000000000 0.00000000000000000 1.00000000000000000 -0.00000000000000000 
1 0.00000000000000000 -231.78969688922759929 1.00000000000000000 -0.00000000000000000 
1 -11.11250000000000426 -11.11249999999999005 1.00000000000000000 0.00000000000000000 
1 22.22499999999999432 0.00000000000000000 0.00000000000000000 -1.00000000000000000 
1 0.00000000000000000 0.00000000000000000 0.00000000000000000 -1.00000000000000000 
1 11.11249999999999361 -11.11249999999999005 0.00000000000000000 1.00000000000000000 
1 0.00000000000000000 0.00000000000000000 1.00000000000000000 0.00000000000000000 
1 0.00000000000000538 -231.78969688922759929 1.00000000000000000 0.00000000000000000 
1 25.39999999999999147 43.17500000000001137 -1.00000000000000000 0.00000000000000000 
1 0.00000000000000000 0.00000000000000000 0.00000000000000000 -1.00000000000000000 
1 22.22499999999999787 0.00000000000000000 0.00000000000000000 -1.00000000000000000 
1 11.11249999999999361 11.11250000000000426 -1.00000000000000000 0.00000000000000000 
1 0.00000000000000000 0.00000000000000000 1.00000000000000000 0.00000000000000000 
1 0.00000000000000000 -231.78969688922759929 1.00000000000000000 0.00000000000000000 
1 3.17500000000000782 -3.17499999999999716 1.00000000000000000 0.00000000000000000 
1 0.00000000000000000 0.00000000000000000 1.00000000000000000 0.00000000000000000 
1 0.00000000000000173 -231.78969688922759929 1.00000000000000000 0.00000000000000000 
1 -11.11250000000000426 11.11250000000000426 0.00000000000000000 -1.00000000000000000 
Curves 16
1 -23.17499999999999716 0.00000000000001452 65.40000000000000568 0.00000000000000000 1.00000000000000000 -0.00000000000000022 
1 -45.39999999999999858 0.00000000000001452 65.40000000000000568 0.00000000000000000 1.00000000000000000 -0.00000000000000022 
1 -23.17499999999999716 -65.40000000000000568 0.00000000000000000 -1.00000000000000000 0.00000000000000000 0.00000000000000000 
1 -45.39999999999999858 0.00000000000000959 43.17500000000001137 0.00000000000000000 1.00000000000000000 -0.00000000000000022 
1 -45.39999999999999858 -65.40000000000000568 0.00000000000000000 0.00000000000000000 1.00000000000000000 0.00000000000000000 
1 -23.17499999999999716 0.00000000000000959 43.17500000000001137 0.00000000000000000 1.00000000000000000 -0.00000000000000022 
1 -45.39999999999999858 -43.17500000000001137 0.00000000000000000 1.00000000000000000 0.00000000000000000 0.00000000000000000 
1 -23.17499999999999716 -43.17500000000001137 0.00000000000000000 0.00000000000000000 -1.00000000000000000 0.00000000000000000 
1 45.40000000000000568 0.00000000000001452 65.39999999999999147 0.00000000000000000 1.00000000000000000 -0.00000000000000022 
1 23.17500000000000782 0.00000000000001452 65.39999999999999147 0.00000000000000000 1.00000000000000000 -0.00000000000000022 
1 45.40000000000000568 -65.39999999999999147 0.00000000000000000 -1.00000000000000000 0.00000000000000000 0.00000000000000000 
1 23.17500000000000782 0.00000000000000959 43.17499999999999716 0.00000000000000000 1.00000000000000000 -0.00000000000000022 
1 23.17500000000000782 -65.39999999999999147 0.00000000000000000 0.00000000000000000 1.00000000000000000 0.00000000000000000 
1 45.40000000000000568 0.00000000000000959 43.17499999999999716 0.00000000000000000 1.00000000000000000 -0.00000000000000022 
1 23.17500000000000782 -43.17499999999999716 0.00000000000000000 1.00000000000000000 0.00000000000000000 0.00000000000000000 
1 45.40000000000000568 -43.17499999999999716 0.00000000000000000 0.00000000000000000 -1.00000000000000000 0.00000000000000000 
Polygon3D 0
PolygonOnTriangulations 0
Surfaces 13
1 -23.17499999999999716 0.00000000000001452 65.40000000000000568 0.00000000000000000 0.00000000000000022 1.00000000000000000 -1.00000000000000000 0.00000000000000000 0.00000000000000000 0.00000000000000000 -1.00000000000000000 0.00000000000000022 
1 -23.17499999999999716 0.00000000000000959 43.17500000000001137 1.00000000000000000 -0.00000000000000000 0.00000000000000000 0.00000000000000000 0.00000000000000022 1.00000000000000000 -0.00000000000000000 -1.00000000000000000 0.00000000000000022 
1 -45.39999999999999858 0.00000000000001452 65.40000000000000568 -1.00000000000000000 0.00000000000000000 -0.00000000000000000 0.00000000000000000 -0.00000000000000022 -1.00000000000000000 -0.00000000000000000 -1.00000000000000000 0.00000000000000022 
1 -34.28750000000000142 -54.28750000000000142 0.00000000000000000 -0.00000000000000000 -0.00000000000000000 -1.00000000000000000 -1.00000000000000000 0.00000000000000000 0.00000000000000000 0.00000000000000000 1.00000000000000000 -0.00000000000000000 
1 -45.39999999999999858 0.00000000000000959 43.17500000000001137 0.00000000000000000 -0.00000000000000022 -1.00000000000000000 1.00000000000000000 0.00000000000000000 0.00000000000000000 0.00000000000000000 -1.00000000000000000 0.00000000000000022 
1 -20.00000000000000000 0.00000000000000000 0.00000000000000000 0.00000000000000000 1.00000000000000000 -0.00000000000000022 -1.00000000000000000 0.00000000000000000 0.00000000000000000 0.00000000000000000 0.00000000000000022 1.00000000000000000 
1 -20.00000000000000000 0.00000000000000888 40.00000000000000000 0.00000000000000000 1.00000000000000000 -0.00000000000000022 0.00000000000000000 0.00000000000000022 1.00000000000000000 1.00000000000000000 -0.00000000000000000 0.00000000000000000 
1 45.40000000000000568 0.00000000000001452 65.39999999999999147 0.00000000000000000 0.00000000000000022 1.00000000000000000 -1.00000000000000000 0.00000000000000000 0.00000000000000000 0.00000000000000000 -1.00000000000000000 0.00000000000000022 
1 45.40000000000000568 0.00000000000000959 43.17499999999999716 1.00000000000000000 -0.00000000000000000 0.00000000000000000 0.00000000000000000 0.00000000000000022 1.00000000000000000 -0.00000000000000000 -1.00000000000000000 0.00000000000000022 
1 23.17500000000000782 0.00000000000001452 65.39999999999999147 -1.00000000000000000 0.00000000000000000 -0.00000000000000000 0.00000000000000000 -0.00000000000000022 -1.00000000000000000 -0.00000000000000000 -1.00000000000000000 0.00000000000000022 
1 34.28750000000000142 -54.28750000000000142 0.00000000000000000 -0.00000000000000000 -0.00000000000000000 -1.00000000000000000 -1.00000000000000000 0.00000000000000000 0.00000000000000000 0.00000000000000000 1.00000000000000000 -0.00000000000000000 
1 23.17500000000000782 0.00000000000000959 43.17499999999999716 0.00000000000000000 -0.00000000000000022 -1.00000000000000000 1.00000000000000000 0.00000000000000000 0.00000000000000000 0.00000000000000000 -1.00000000000000000 0.00000000000000022 
1 20.00000000000000000 0.00000000000000888 40.00000000000000000 -0.00000000000000012 1.00000000000000000 -0.00000000000000022 1.00000000000000000 0.00000000000000012 0.00000000000000000 0.00000000000000000 -0.00000000000000022 -1.00000000000000000 
Triangulations 0

TShapes 49
Ve
0.000000100000000
-23.174999999999997 -65.400000000000006 0.000000000000000
0 0

0101101
*
Ed
 0.000000100000000 1 1 0
1  1 0 0.000000000000000 231.789696889227599
2  1 1 0 0.000000000000000 231.789696889227599
2  2 2 0 0.000000000000000 231.789696889227599
0

0101000
+49 4 -49 6 *
Ve
0.000000100000000
-45.399999999999999 -65.400000000000006 0.000000000000000
0 0

0101101
*
Ed
 0.000000100000000 1 1 0
1  2 0 0.000000000000000 231.789696889227599
2  3 1 0 0.000000000000000 231.789696889227599
2  4 3 0 0.000000000000000 231.789696889227599
0

0101000
+47 4 -47 6 *
Ed
 0.000000100000000 1 1 0
1  3 0 0.000000000000000 22.225000000000001
2  5 1 7 0.000000000000000 22.225000000000001
2  6 1 8 0.000000000000000 22.225000000000001
2  7 4 9 0.000000000000000 22.225000000000001
0

0101000
+49 0 -47 0 *
Wi

0101100
+48 0 -46 0 -45 4 +45 6 *
Fa
0  0.000000100000000 1 0

0111000
+44 0 *
Ve
0.000000100000000
-45.399999999999999 -43.175000000000011 0.000000000000000
0 0

0101101
*
Ed
 0.000000100000000 1 1 0
1  4 0 0.000000000000000 231.789696889227599
2  8 3 0 0.000000000000000 231.789696889227599
2  9 5 0 0.000000000000000 231.789696889227599
0

0101000
+42 4 -42 6 *
Ed
 0.000000100000000 1 1 0
1  5 0 0.000000000000000 22.224999999999994
2  10 3 7 0.000000000000000 22.224999999999994
2  11 3 8 0.000000000000000 22.224999999999994
2  12 4 9 0.000000000000000 22.224999999999994
0

0101000
+47 0 -42 0 *
Wi

0101100
+46 0 -41 0 -40 4 +40 6 *
Fa
0  0.000000100000000 3 0

0111000
+39 0 *
Ve
0.000000100000010
-23.174999999999997 -43.175000000000011 0.000000000000000
0 0

0101101
*
Ed
 0.000000100000000 1 1 0
1  6 0 0.000000000000000 231.789696889227599
2  13 5 0 0.000000000000000 231.789696889227599
2  14 2 0 0.000000000000000 231.789696889227599
0

0101000
+37 4 -37 6 *
Ed
 0.000000100000000 1 1 0
1  7 0 0.000000000000000 22.225000000000001
2  15 4 9 0.000000000000000 22.225000000000001
2  16 5 7 0.000000000000000 22.225000000000001
2  17 5 8 0.000000000000000 22.225000000000001
2  18 6 11 0.000000000000000 22.225000000000001
0

0101000
+42 0 -37 0 *
Wi

0101100
+41 0 -36 0 -35 4 +35 6 *
Fa
0  0.000000100000000 5 0

0111000
+34 0 *
Ed
 0.000000100000000 1 1 0
1  8 0 0.000000000000000 22.224999999999994
2  19 4 9 0.000000000000000 22.224999999999994
2  20 2 7 0.000000000000000 22.224999999999994
2  21 2 8 0.000000000000000 22.224999999999994
2  22 7 11 0.000000000000000 22.224999999999994
0

0101000
+37 0 -49 0 *
Wi

0101100
+36 0 -48 0 -32 4 +32 6 *
Fa
0  0.000000100000000 2 0

0111000
+31 0 *
Wi

0101100
+45 0 +40 0 +35 0 +32 0 *
Fa
0  0.000000100000000 4 0

0111000
+29 13 *
Sh

0101100
+43 0 +38 0 +33 0 +30 0 +28 12 -28 14 *
So

0100000
+27 0 *
Ve
0.000000100000000
45.400000000000006 -65.399999999999991 0.000000000000000
0 0

0101101
*
Ed
 0.000000100000000 1 1 0
1  9 0 0.000000000000000 231.789696889227599
2  23 8 0 0.000000000000000 231.789696889227599
2  24 9 0 0.000000000000000 231.789696889227599
0

0101000
+25 4 -25 6 *
Ve
0.000000100000015
23.175000000000008 -65.399999999999991 0.000000000000000
0 0

0101101
*
Ed
 0.000000100000000 1 1 0
1  10 0 0.000000000000000 231.789696889227599
2  25 8 0 0.000000000000000 231.789696889227599
2  26 10 0 0.000000000000000 231.789696889227599
0

0101000
+23 4 -23 6 *
Ed
 0.000000100000000 1 1 0
1  11 0 0.000000000000000 22.224999999999998
2  27 8 7 0.000000000000000 22.224999999999998
2  28 8 8 0.000000000000000 22.224999999999998
2  29 11 9 0.000000000000000 22.224999999999998
0

0101000
+25 0 -23 0 *
Wi

0101100
+24 0 -22 0 -21 4 +21 6 *
Fa
0  0.000000100000000 8 0

0111000
+20 0 *
Ve
0.000000100000008
23.175000000000008 -43.174999999999997 0.000000000000000
0 0

0101101
*
Ed
 0.000000100000000 1 1 0
1  12 0 0.000000000000000 231.789696889227599
2  30 10 0 0.000000000000000 231.789696889227599
2  31 12 0 0.000000000000000 231.789696889227599
0

0101000
+18 4 -18 6 *
Ed
 0.000000100000000 1 1 0
1  13 0 0.000000000000000 22.224999999999994
2  32 11 9 0.000000000000000 22.224999999999994
2  33 10 7 0.000000000000000 22.224999999999994
2  34 10 8 0.000000000000000 22.224999999999994
2  35 7 11 0.000000000000000 22.224999999999994
0

0101000
+23 0 -18 0 *
Wi

0101100
+22 0 -17 0 -16 4 +16 6 *
Fa
0  0.000000100000000 10 0

0111000
+15 0 *
Ve
0.000000100000008
45.400000000000006 -43.174999999999997 0.000000000000000
0 0

0101101
*
Ed
 0.000000100000000 1 1 0
1  14 0 0.000000000000000 231.789696889227599
2  36 9 0 0.000000000000000 231.789696889227599
2  37 12 0 0.000000000000000 231.789696889227599
0

0101000
+13 4 -13 6 *
Ed
 0.000000100000003 1 1 0
1  15 0 0.000000000000000 22.224999999999998
2  38 11 9 0.000000000000000 22.224999999999998
2  39 12 7 0.000000000000000 22.224999999999998
2  40 12 8 0.000000000000000 22.224999999999998
2  41 13 11 0.000000000000000 22.224999999999998
0

0101000
+18 0 -13 0 *
Wi

0101100
+17 0 -12 0 -11 4 +11 6 *
Fa
0  0.000000100000000 12 0

0111000
+10 0 *
Ed
 0.000000100000000 1 1 0
1  16 0 0.000000000000000 22.224999999999994
2  42 9 7 0.000000000000000 22.224999999999994
2  43 9 8 0.000000000000000 22.224999999999994
2  44 11 9 0.000000000000000 22.224999999999994
0

0101000
+13 0 -25 0 *
Wi

0101100
+12 0 -24 0 -8 4 +8 6 *
Fa
0  0.000000100000000 9 0

0111000
+7 0 *
Wi

0101100
+21 0 +16 0 +11 0 +8 0 *
Fa
0  0.000000100000000 11 0

0111000
+5 13 *
Sh

0101100
+19 0 +14 0 +9 0 +6 0 +4 12 -4 14 *
So

0100000
+3 0 *
Co

1100000
+26 0 +2 0 *

+1 0 