
CASCADE Topology V1, (c) Matra-Datavision
Locations 7
1
1.000000000000000 0.000000000000000 0.000000000000000 0.000000000000000 
0.000000000000000 -0.000000000000000 -1.000000000000000 0.000000000000000 
0.000000000000000 1.000000000000000 -0.000000000000000 0.000000000000000 
1
1.000000000000000 0.000000000000000 0.000000000000000 0.000000000000000 
0.000000000000000 -0.000000000000000 -1.000000000000000 0.000000000000000 
0.000000000000000 1.000000000000000 -0.000000000000000 0.000000000000000 
2  1 1 2 -1 0
1
1.000000000000000 0.000000000000000 0.000000000000000 0.000000000000000 
0.000000000000000 -0.000000000000000 -1.000000000000000 0.000000000000000 
0.000000000000000 1.000000000000000 -0.000000000000000 0.000000000000000 
2  4 1 2 -1 0
1
1.000000000000000 0.000000000000000 0.000000000000000 0.000000000000000 
0.000000000000000 -0.000000000000000 -1.000000000000000 0.000000000000000 
0.000000000000000 1.000000000000000 -0.000000000000000 0.000000000000000 
2  6 1 2 -1 0
Curve2ds 96
1 -7.83828125000014353 -7.83828125000014264 1.00000000000000000 0.00000000000000000 
1 0.00000000000000000 0.00000000000000000 1.00000000000000000 0.00000000000000000 
1 17.56171874999985505 -7.83828125000014264 0.00000000000000000 1.00000000000000000 
1 0.00000000000000000 0.00000000000000000 1.00000000000000000 0.00000000000000000 
1 17.56171874999985505 -4.66328125000014282 -1.00000000000000000 0.00000000000000000 
1 0.00000000000000000 0.00000000000000000 1.00000000000000000 0.00000000000000000 
1 -4.66328124999948557 -4.66328125000014282 0.00000000000000000 1.00000000000000000 
1 0.00000000000000000 0.00000000000000000 1.00000000000000000 0.00000000000000000 
1 -4.66328124999948557 17.56171874999985505 -1.00000000000000000 0.00000000000000000 
1 0.00000000000000000 0.00000000000000000 1.00000000000000000 0.00000000000000000 
1 -7.83828125000014353 17.56171874999985505 0.00000000000000000 -1.00000000000000000 
1 0.00000000000000000 0.00000000000000000 1.00000000000000000 0.00000000000000000 
1 0.00000000000000000 0.00000000000000000 0.00000000000000000 1.00000000000000000 
1 25.39999999999999858 0.00000000000000000 -0.00000000000000022 1.00000000000000000 
1 25.39999999999999858 0.00000000000000000 0.00000000000000000 1.00000000000000000 
1 0.00000000000000000 0.00000000000000000 0.00000000000000022 1.00000000000000000 
1 0.00000000000000000 0.00000000000000000 0.70710678118654768 -0.70710678118654746 
1 0.00000000000000000 40.00000000000000000 0.70710678118654746 0.70710678118654768 
1 3.17499999999999982 0.00000000000000000 0.00000000000000000 1.00000000000000000 
1 0.00000000000000000 0.00000000000000000 0.00000000000000000 1.00000000000000000 
8 -0.00000000000000564 3.17499999999998517
1 0.00000000000001452 65.40000000000000568 1.00000000000000000 -0.00000000000000022 
8 -0.00000000000000564 3.17499999999998517
1 -0.00000000000000564 -25.39999999999999858 1.00000000000000000 -0.00000000000000022 
1 22.22499999999934062 0.00000000000000000 0.00000000000000000 1.00000000000000000 
1 0.00000000000000000 0.00000000000000000 0.00000000000000022 1.00000000000000000 
1 -0.00000000000000000 -25.39999999999999858 0.70710678118654757 0.70710678118654757 
1 0.00000000000000000 65.40000000000000568 0.70710678118654757 -0.70710678118654757 
1 22.22499999999999787 0.00000000000000000 0.00000000000000000 1.00000000000000000 
1 0.00000000000000000 0.00000000000000000 0.00000000000000000 1.00000000000000000 
8 -0.00000000000000977 22.22499999999998721
1 0.00000000000000977 43.17500000000065796 1.00000000000000000 -0.00000000000000022 
8 -0.00000000000000977 22.22499999999998721
1 -0.00000000000000070 -3.17500000000065796 1.00000000000000000 -0.00000000000000022 
1 22.22499999999934062 -3.17499999999999982 0.00000000000000000 -1.00000000000000000 
1 0.00000000000064730 -3.17499999999999982 0.00000000000000000 -1.00000000000000000 
1 22.22499999999934062 -3.17499999999999982 0.00000000000000000 -1.00000000000000000 
1 0.00000000000066151 -3.17499999999999982 0.00000000000000000 -1.00000000000000000 
1 22.22499999999934062 -3.17499999999999982 0.00000000000000000 -1.00000000000000000 
1 0.00000000000064730 -3.17499999999999982 0.00000000000000000 -1.00000000000000000 
1 3.17500000000065796 0.00000000000000000 0.00000000000000000 1.00000000000000000 
1 0.00000000000000000 0.00000000000000000 -0.00000000000000022 1.00000000000000000 
1 -0.00000000000000000 -3.17500000000066507 0.70710678118654757 0.70710678118654757 
1 0.00000000000000000 43.17500000000065086 0.70710678118654757 -0.70710678118654757 
8 -25.40000000000000568 0.00000000000001306
1 -0.00000000000000711 39.99999999999999289 -1.00000000000000000 -0.00000000000000022 
8 -25.40000000000000568 0.00000000000001306
1 0.00000000000000000 -0.00000000000000711 -1.00000000000000000 -0.00000000000000022 
1 0.00000000000000000 0.00000000000000000 0.00000000000000000 1.00000000000000000 
1 25.39999999999999858 -0.00000000000000147 -0.00000000000000022 1.00000000000000000 
1 25.40000000000000568 0.00000000000000000 0.00000000000000000 1.00000000000000000 
1 0.00000000000000000 0.00000000000000000 0.00000000000000022 1.00000000000000000 
1 0.00000000000000000 40.00000000000000000 0.70710678118654757 0.70710678118654757 
1 0.00000000000000000 0.00000000000000000 0.70710678118654757 -0.70710678118654757 
1 3.17499999999999982 -0.00000000000000070 -0.00000000000000000 1.00000000000000000 
1 0.00000000000000000 0.00000000000000000 0.00000000000000000 1.00000000000000000 
8 -0.00000000000000809 3.17499999999997984
1 0.00000000000002008 65.40000000000000568 1.00000000000000000 -0.00000000000000034 
8 -0.00000000000000809 3.17499999999997984
1 -0.00000000000000319 -25.40000000000000568 1.00000000000000000 -0.00000000000000022 
1 22.22499999999934062 0.00000000000000000 0.00000000000000000 1.00000000000000000 
1 0.00000000000000000 0.00000000000000000 0.00000000000000022 1.00000000000000000 
1 0.00000000000000000 65.40000000000000568 0.70710678118654735 -0.70710678118654768 
1 -0.00000000000000711 -25.40000000000000568 0.70710678118654768 0.70710678118654735 
1 22.22499999999999432 -0.00000000000000138 -0.00000000000000000 1.00000000000000000 
1 -0.00000000000000000 -0.00000000000000355 0.00000000000000000 1.00000000000000000 
8 -0.00000000000001298 22.22499999999998721
1 0.00000000000001225 43.17500000000065796 1.00000000000000000 -0.00000000000000034 
8 -0.00000000000001298 22.22499999999998721
1 0.00000000000000170 -3.17500000000065796 1.00000000000000000 -0.00000000000000022 
1 22.22499999999933351 -3.17500000000000249 0.00000000000000000 -1.00000000000000000 
1 0.00000000000065015 -3.17500000000000249 -0.00000000000000012 -1.00000000000000000 
1 22.22499999999933351 -3.17500000000000249 0.00000000000000000 -1.00000000000000000 
1 0.00000000000065015 -3.17500000000000249 -0.00000000000000012 -1.00000000000000000 
1 22.22499999999933351 -3.17500000000000249 0.00000000000000000 -1.00000000000000000 
1 0.00000000000065015 -3.17500000000000249 -0.00000000000000012 -1.00000000000000000 
1 3.17500000000065796 0.00000000000000000 0.00000000000000000 1.00000000000000000 
1 0.00000000000000000 0.00000000000000000 -0.00000000000000022 1.00000000000000000 
1 0.00000000000000000 43.17500000000065086 0.70710678118654713 -0.70710678118654791 
1 0.00000000000000000 -3.17500000000066507 0.70710678118654791 0.70710678118654713 
8 -25.40000000000000924 0.00000000000000888
1 -0.00000000000000888 39.99999999999998579 -1.00000000000000000 -0.00000000000000034 
8 -25.40000000000000924 0.00000000000000888
1 0.00000000000000000 -0.00000000000000711 -1.00000000000000000 -0.00000000000000022 
1 0.00000000000000000 0.00000000000000000 0.00000000000000000 1.00000000000000000 
1 25.39999999999999858 -0.00000000000000293 -0.00000000000000022 1.00000000000000000 
1 25.39999999999999858 -0.00000000000000000 0.00000000000000000 1.00000000000000000 
1 0.00000000000000000 0.00000000000000000 0.00000000000000022 1.00000000000000000 
1 -7.83828125000014264 7.83828125000013287 0.00000000000000012 -1.00000000000000000 
1 0.00000000000000000 40.00000000000000000 1.00000000000000000 0.00000000000000000 
1 -7.83828125000013909 -17.56171874999986571 1.00000000000000000 0.00000000000000012 
1 0.00000000000000000 40.00000000000000000 1.00000000000000000 0.00000000000000000 
1 -4.66328125000013927 -17.56171874999986571 -0.00000000000000012 1.00000000000000000 
1 0.00000000000000000 40.00000000000000000 1.00000000000000000 0.00000000000000000 
1 -4.66328125000014282 4.66328124999947491 1.00000000000000000 0.00000000000000012 
1 0.00000000000000000 40.00000000000000000 1.00000000000000000 0.00000000000000000 
1 17.56171874999985505 4.66328124999947846 -0.00000000000000012 1.00000000000000000 
1 -0.00000000000000000 40.00000000000000000 1.00000000000000000 0.00000000000000000 
1 17.56171874999985505 7.83828125000013642 -1.00000000000000000 -0.00000000000000012 
1 0.00000000000000000 40.00000000000000000 1.00000000000000000 0.00000000000000000 
1 3.17499999999999982 -0.00000000000000141 0.00000000000000000 1.00000000000000000 
1 0.00000000000000000 0.00000000000000000 0.00000000000000000 1.00000000000000000 
1 22.22499999999934062 0.00000000000000000 0.00000000000000000 1.00000000000000000 
1 0.00000000000000000 0.00000000000000000 0.00000000000000022 1.00000000000000000 
1 22.22499999999999787 -0.00000000000000276 0.00000000000000000 1.00000000000000000 
1 0.00000000000000000 -0.00000000000000711 0.00000000000000000 1.00000000000000000 
1 3.17500000000065796 -0.00000000000000000 0.00000000000000000 1.00000000000000000 
1 0.00000000000000000 0.00000000000000000 -0.00000000000000022 1.00000000000000000 
Curves 42
1 -20.00000000000000000 0.00000000000000000 0.00000000000000000 -1.00000000000000000 0.00000000000000000 0.00000000000000000 
1 -45.39999999999999858 0.00000000000000000 0.00000000000000000 0.00000000000000000 1.00000000000000000 0.00000000000000000 
1 -45.39999999999999858 3.17499999999999982 0.00000000000000000 1.00000000000000000 0.00000000000000000 0.00000000000000000 
1 -23.17500000000065796 3.17499999999999982 0.00000000000000000 0.00000000000000000 1.00000000000000000 0.00000000000000000 
1 -23.17500000000065796 25.39999999999999858 0.00000000000000000 1.00000000000000000 0.00000000000000000 0.00000000000000000 
1 -20.00000000000000000 25.39999999999999858 0.00000000000000000 -0.00000000000000000 -1.00000000000000000 0.00000000000000000 
1 -20.00000000000000000 0.00000000000000000 0.00000000000000000 0.00000000000000000 0.00000000000000022 1.00000000000000000 
1 -45.39999999999999858 0.00000000000000000 0.00000000000000000 0.00000000000000000 0.00000000000000022 1.00000000000000000 
1 -20.00000000000000000 0.00000000000000888 40.00000000000000000 -0.70710678118654746 0.00000000000000016 0.70710678118654768 
1 -45.39999999999999858 3.17499999999999982 0.00000000000000000 0.00000000000000000 -0.00000000000000000 1.00000000000000000 
1 -45.39999999999999858 0.00000000000001452 65.40000000000000568 0.00000000000000000 1.00000000000000000 -0.00000000000000022 
1 -23.17500000000065796 3.17499999999999982 0.00000000000000000 -0.00000000000000000 0.00000000000000022 1.00000000000000000 
1 -45.39999999999999858 3.17500000000001004 65.40000000000000568 0.70710678118654757 -0.00000000000000001 -0.70710678118654757 
1 -23.17500000000065796 25.39999999999999858 0.00000000000000000 0.00000000000000000 -0.00000000000000000 1.00000000000000000 
1 -23.17500000000065796 3.17500000000000959 43.17500000000065796 0.00000000000000000 1.00000000000000000 -0.00000000000000022 
1 -20.00000000000000000 25.39999999999999858 0.00000000000000000 -0.00000000000000000 0.00000000000000022 1.00000000000000000 
1 -23.17500000000065796 25.40000000000000213 43.17500000000065086 0.70710678118654757 0.00000000000000079 -0.70710678118654757 
1 -20.00000000000000000 25.40000000000000568 39.99999999999999289 0.00000000000000000 1.00000000000000000 -0.00000000000000022 
1 -20.00000000000000000 0.00000000000000888 40.00000000000000000 1.00000000000000000 -0.00000000000000000 0.00000000000000000 
1 -20.00000000000000000 0.00000000000001452 65.40000000000000568 1.00000000000000000 -0.00000000000000000 0.00000000000000000 
1 20.00000000000000000 0.00000000000000888 40.00000000000000000 0.70710678118654757 0.00000000000000020 0.70710678118654757 
1 -20.00000000000000000 3.17500000000001448 65.40000000000000568 1.00000000000000000 -0.00000000000000022 0.00000000000000000 
1 45.40000000000000568 0.00000000000002008 65.40000000000000568 -0.00000000000000012 1.00000000000000000 -0.00000000000000022 
1 -20.00000000000000000 3.17500000000000959 43.17500000000066507 1.00000000000000000 0.00000000000000000 0.00000000000000000 
1 45.40000000000000568 3.17500000000001137 65.40000000000000568 -0.70710678118654768 -0.00000000000000006 -0.70710678118654735 
1 -19.99999999999999645 25.40000000000000568 43.17500000000065086 1.00000000000000000 -0.00000000000000022 0.00000000000000000 
1 23.17500000000065796 3.17500000000001226 43.17500000000065796 -0.00000000000000012 1.00000000000000000 -0.00000000000000022 
1 -19.99999999999999289 25.40000000000000568 39.99999999999999289 1.00000000000000000 0.00000000000000000 0.00000000000000000 
1 23.17500000000065441 25.39999999999999858 43.17500000000065086 -0.70710678118654791 0.00000000000000158 -0.70710678118654713 
1 19.99999999999999289 25.40000000000000568 39.99999999999999289 -0.00000000000000012 1.00000000000000000 -0.00000000000000022 
1 20.00000000000000000 0.00000000000000888 40.00000000000000000 0.00000000000000000 -0.00000000000000022 -1.00000000000000000 
1 45.39999999999999858 0.00000000000001199 40.00000000000000000 0.00000000000000000 -0.00000000000000022 -1.00000000000000000 
1 20.00000000000000000 0.00000000000000000 0.00000000000000000 1.00000000000000000 0.00000000000000012 -0.00000000000000000 
1 45.39999999999999858 0.00000000000000311 -0.00000000000000000 -0.00000000000000012 1.00000000000000000 -0.00000000000000044 
1 45.39999999999999858 3.17500000000000293 -0.00000000000000141 -1.00000000000000000 -0.00000000000000012 0.00000000000000000 
1 23.17500000000065796 3.17500000000000027 -0.00000000000000141 -0.00000000000000012 1.00000000000000000 -0.00000000000000044 
1 23.17500000000065441 25.39999999999999858 -0.00000000000001128 -1.00000000000000000 -0.00000000000000012 0.00000000000000000 
1 19.99999999999999645 25.39999999999999858 -0.00000000000001128 0.00000000000000012 -1.00000000000000000 0.00000000000000044 
1 45.39999999999999858 3.17500000000001181 40.00000000000000000 0.00000000000000000 -0.00000000000000044 -1.00000000000000000 
1 23.17500000000065796 3.17500000000000915 40.00000000000000000 0.00000000000000000 -0.00000000000000022 -1.00000000000000000 
1 23.17500000000065441 25.40000000000000568 39.99999999999999289 0.00000000000000000 -0.00000000000000044 -1.00000000000000000 
1 19.99999999999999645 25.40000000000000568 39.99999999999998579 0.00000000000000000 -0.00000000000000022 -1.00000000000000000 
Polygon3D 0
PolygonOnTriangulations 0
Surfaces 32
1 -27.83828125000014353 7.83828125000014264 0.00000000000000000 -0.00000000000000000 -0.00000000000000000 -1.00000000000000000 -1.00000000000000000 0.00000000000000000 0.00000000000000000 0.00000000000000000 1.00000000000000000 -0.00000000000000000 
1 -20.00000000000000000 0.00000000000000000 0.00000000000000000 0.00000000000000000 1.00000000000000000 -0.00000000000000022 -1.00000000000000000 0.00000000000000000 0.00000000000000000 0.00000000000000000 0.00000000000000022 1.00000000000000000 
1 -45.39999999999999858 0.00000000000000000 0.00000000000000000 1.00000000000000000 0.00000000000000000 0.00000000000000000 -0.00000000000000000 1.00000000000000000 0.00000000000000000 0.00000000000000000 -0.00000000000000000 1.00000000000000000 
1 -45.39999999999999858 3.17499999999999982 0.00000000000000000 0.00000000000000000 -1.00000000000000000 0.00000000000000022 1.00000000000000000 0.00000000000000000 0.00000000000000000 -0.00000000000000000 0.00000000000000022 1.00000000000000000 
1 -23.17500000000065796 3.17499999999999982 0.00000000000000000 1.00000000000000000 0.00000000000000000 0.00000000000000000 -0.00000000000000000 1.00000000000000000 0.00000000000000000 0.00000000000000000 -0.00000000000000000 1.00000000000000000 
1 -23.17500000000065796 25.39999999999999858 0.00000000000000000 0.00000000000000000 -1.00000000000000000 0.00000000000000022 1.00000000000000000 0.00000000000000000 0.00000000000000000 -0.00000000000000000 0.00000000000000022 1.00000000000000000 
1 -20.00000000000000000 25.39999999999999858 0.00000000000000000 -1.00000000000000000 0.00000000000000000 0.00000000000000000 -0.00000000000000000 -1.00000000000000000 0.00000000000000000 0.00000000000000000 0.00000000000000000 1.00000000000000000 
1 -20.00000000000000000 0.00000000000000888 40.00000000000000000 0.00000000000000000 1.00000000000000000 -0.00000000000000022 0.00000000000000000 0.00000000000000022 1.00000000000000000 1.00000000000000000 -0.00000000000000000 0.00000000000000000 
1 -20.00000000000000000 0.00000000000001452 65.40000000000000568 0.00000000000000000 -0.00000000000000022 -1.00000000000000000 0.00000000000000022 1.00000000000000000 -0.00000000000000022 1.00000000000000000 -0.00000000000000022 0.00000000000000000 
1 -20.00000000000000000 3.17500000000001448 65.40000000000000568 0.00000000000000000 -1.00000000000000000 0.00000000000000022 0.00000000000000000 -0.00000000000000022 -1.00000000000000000 1.00000000000000000 0.00000000000000000 0.00000000000000000 
1 -20.00000000000000000 3.17500000000000959 43.17500000000065796 0.00000000000000000 -0.00000000000000022 -1.00000000000000000 0.00000000000000022 1.00000000000000000 -0.00000000000000022 1.00000000000000000 -0.00000000000000022 0.00000000000000000 
1 -45.39999999999999858 0.00000000000000959 43.17500000000001137 0.00000000000000000 -0.00000000000000022 -1.00000000000000000 1.00000000000000000 0.00000000000000000 0.00000000000000000 0.00000000000000000 -1.00000000000000000 0.00000000000000022 
1 -23.17499999999999716 0.00000000000000959 43.17500000000001137 1.00000000000000000 -0.00000000000000000 0.00000000000000000 0.00000000000000000 0.00000000000000022 1.00000000000000000 -0.00000000000000000 -1.00000000000000000 0.00000000000000022 
1 -45.39999999999999858 0.00000000000000959 43.17499999999999716 0.00000000000000000 -0.00000000000000022 -1.00000000000000000 1.00000000000000000 0.00000000000000000 0.00000000000000000 0.00000000000000000 -1.00000000000000000 0.00000000000000022 
1 -23.17499999999999716 0.00000000000000959 43.17499999999999716 1.00000000000000000 -0.00000000000000000 0.00000000000000000 0.00000000000000000 0.00000000000000022 1.00000000000000000 -0.00000000000000000 -1.00000000000000000 0.00000000000000022 
1 -45.39999999999999858 0.00000000000000959 43.17500000000001137 0.00000000000000000 -0.00000000000000022 -1.00000000000000000 1.00000000000000000 0.00000000000000000 0.00000000000000000 0.00000000000000000 -1.00000000000000000 0.00000000000000022 
1 -23.17499999999999716 0.00000000000000959 43.17500000000001137 1.00000000000000000 -0.00000000000000000 0.00000000000000000 0.00000000000000000 0.00000000000000022 1.00000000000000000 -0.00000000000000000 -1.00000000000000000 0.00000000000000022 
1 -19.99999999999999289 25.40000000000000568 43.17500000000065086 0.00000000000000000 -1.00000000000000000 0.00000000000000022 0.00000000000000000 -0.00000000000000022 -1.00000000000000000 1.00000000000000000 0.00000000000000000 0.00000000000000000 
1 -19.99999999999999289 25.40000000000000568 39.99999999999999289 -0.00000000000000000 0.00000000000000022 1.00000000000000000 -0.00000000000000022 -1.00000000000000000 0.00000000000000022 1.00000000000000000 -0.00000000000000022 0.00000000000000000 
1 20.00000000000000000 0.00000000000000888 40.00000000000000000 -0.00000000000000012 1.00000000000000000 -0.00000000000000022 1.00000000000000000 0.00000000000000012 0.00000000000000000 0.00000000000000000 -0.00000000000000022 -1.00000000000000000 
1 45.39999999999999858 0.00000000000001199 40.00000000000000000 -1.00000000000000000 -0.00000000000000012 0.00000000000000000 -0.00000000000000012 1.00000000000000000 -0.00000000000000044 0.00000000000000000 -0.00000000000000044 -1.00000000000000000 
1 45.39999999999999858 3.17500000000001181 40.00000000000000000 0.00000000000000012 -1.00000000000000000 0.00000000000000022 -1.00000000000000000 -0.00000000000000012 0.00000000000000000 0.00000000000000000 -0.00000000000000022 -1.00000000000000000 
1 23.17500000000065796 3.17500000000000915 40.00000000000000000 -1.00000000000000000 -0.00000000000000012 0.00000000000000000 -0.00000000000000012 1.00000000000000000 -0.00000000000000044 0.00000000000000000 -0.00000000000000044 -1.00000000000000000 
1 23.17500000000000782 0.00000000000001452 65.39999999999999147 -1.00000000000000000 0.00000000000000000 -0.00000000000000000 0.00000000000000000 -0.00000000000000022 -1.00000000000000000 -0.00000000000000000 -1.00000000000000000 0.00000000000000022 
1 23.17500000000000782 0.00000000000000959 43.17499999999999716 0.00000000000000000 -0.00000000000000022 -1.00000000000000000 1.00000000000000000 0.00000000000000000 0.00000000000000000 0.00000000000000000 -1.00000000000000000 0.00000000000000022 
1 23.17500000000000782 0.00000000000001452 65.39999999999999147 -1.00000000000000000 0.00000000000000000 -0.00000000000000000 0.00000000000000000 -0.00000000000000022 -1.00000000000000000 -0.00000000000000000 -1.00000000000000000 0.00000000000000022 
1 23.17500000000000782 0.00000000000000959 43.17499999999999716 0.00000000000000000 -0.00000000000000022 -1.00000000000000000 1.00000000000000000 0.00000000000000000 0.00000000000000000 0.00000000000000000 -1.00000000000000000 0.00000000000000022 
1 23.17500000000000782 0.00000000000001452 65.39999999999999147 -1.00000000000000000 0.00000000000000000 -0.00000000000000000 0.00000000000000000 -0.00000000000000022 -1.00000000000000000 -0.00000000000000000 -1.00000000000000000 0.00000000000000022 
1 23.17500000000000782 0.00000000000000959 43.17499999999999716 0.00000000000000000 -0.00000000000000022 -1.00000000000000000 1.00000000000000000 0.00000000000000000 0.00000000000000000 0.00000000000000000 -1.00000000000000000 0.00000000000000022 
1 23.17500000000065441 25.40000000000000568 39.99999999999998579 0.00000000000000012 -1.00000000000000000 0.00000000000000022 -1.00000000000000000 -0.00000000000000012 0.00000000000000000 0.00000000000000000 -0.00000000000000022 -1.00000000000000000 
1 19.99999999999999645 25.40000000000000568 39.99999999999998579 1.00000000000000000 0.00000000000000012 -0.00000000000000000 0.00000000000000012 -1.00000000000000000 0.00000000000000044 0.00000000000000000 -0.00000000000000044 -1.00000000000000000 
1 27.83828125000013287 7.83828125000014264 -0.00000000000000348 -0.00000000000000000 0.00000000000000044 1.00000000000000000 0.00000000000000000 1.00000000000000000 -0.00000000000000044 -1.00000000000000000 0.00000000000000000 -0.00000000000000000 
Triangulations 0

TShapes 108
Ve
0.000000101000000
-20.000000000000000 0.000000000000000 0.000000000000000
0 0

0101101
*
Ve
0.000000101000000
-45.399999999999999 0.000000000000000 0.000000000000000
0 0

0101101
*
Ed
 0.000000100000000 1 1 0
1  1 0 0.000000000000000 25.399999999999999
2  1 1 0 0.000000000000000 25.399999999999999
2  2 2 0 0.000000000000000 25.399999999999999
4 C0 1 0 2 0
0

0101000
+108 0 -107 0 *
Ve
0.000000101000000
-45.399999999999999 3.175000000000000 0.000000000000000
0 0

0101101
*
Ed
 0.000000100000000 1 1 0
1  2 0 0.000000000000000 3.175000000000000
2  3 1 0 0.000000000000000 3.175000000000000
2  4 3 0 0.000000000000000 3.175000000000000
4 C0 1 0 3 0
0

0101000
+107 0 -105 0 *
Ve
0.000000101000000
-23.175000000000658 3.175000000000000 0.000000000000000
0 0

0101101
*
Ed
 0.000000100000000 1 1 0
1  3 0 0.000000000000000 22.224999999999341
2  5 1 0 0.000000000000000 22.224999999999341
2  6 4 0 0.000000000000000 22.224999999999341
4 C0 1 0 4 0
0

0101000
+105 0 -103 0 *
Ve
0.000000101000000
-23.175000000000658 25.399999999999999 0.000000000000000
0 0

0101101
*
Ed
 0.000000100000000 1 1 0
1  4 0 0.000000000000000 22.224999999999998
2  7 1 0 0.000000000000000 22.224999999999998
2  8 5 0 0.000000000000000 22.224999999999998
4 C0 1 0 5 0
0

0101000
+103 0 -101 0 *
Ve
0.000000101000000
-20.000000000000000 25.399999999999999 0.000000000000000
0 0

0101101
*
Ed
 0.000000100000000 1 1 0
1  5 0 0.000000000000000 3.175000000000658
2  9 1 0 0.000000000000000 3.175000000000658
2  10 6 0 0.000000000000000 3.175000000000658
4 C0 1 0 6 0
0

0101000
+101 0 -99 0 *
Ed
 0.000000100000000 1 1 0
1  6 0 0.000000000000000 25.399999999999999
2  11 1 0 0.000000000000000 25.399999999999999
2  12 7 0 0.000000000000000 25.399999999999999
4 C0 1 0 7 0
0

0101000
+99 0 -108 0 *
Wi

0101100
+106 0 +104 0 +102 0 +100 0 +98 0 +97 0 *
Fa
0  0.000000100000000 1 0

0101000
+96 0 *
Ve
0.000000150000009
-20.000000000000000 0.000000000000009 40.000000000000000
0 0

0101101
*
Ed
 0.000000100000000 1 1 0
1  7 0 0.000000000000000 40.000000000000000
2  13 2 0 0.000000000000000 40.000000000000000
2  14 7 0 0.000000000000000 40.000000000000000
0

0101000
+108 0 -94 0 *
Ve
0.000000150000006
-45.399999999999999 0.000000000000015 65.400000000000006
0 0

0101101
*
Ed
 0.000000100000000 1 1 0
1  8 0 0.000000000000000 65.400000000000006
2  15 2 0 0.000000000000000 65.400000000000006
2  16 3 0 0.000000000000000 65.400000000000006
0

0101000
+107 0 -92 0 *
Ed
 0.000000100000000 1 1 0
1  9 0 0.000000000000000 35.921024484276614
2  17 8 0 0.000000000000000 35.921024484276614
2  18 2 0 0.000000000000000 35.921024484276614
0

0101000
+94 0 -92 0 *
Wi

0101100
-93 0 +106 0 +91 0 -90 0 *
Fa
0  0.000000100000000 2 0

0101000
+89 0 *
Ve
0.000000150000010
-45.399999999999999 3.175000000000010 65.400000000000006
0 0

0101101
*
Ed
 0.000000100000000 1 1 0
1  10 0 0.000000000000000 65.400000000000006
2  19 3 0 0.000000000000000 65.400000000000006
2  20 4 0 0.000000000000000 65.400000000000006
0

0101000
+105 0 -87 0 *
Ed
 0.000000150000000 1 1 0
1  11 0 -0.000000000000006 3.174999999999985
2  21 3 0 -0.000000000000006 3.174999999999985
2  22 9 0 -0.000000000000006 3.174999999999985
0

0101000
+92 0 -87 0 *
Wi

0101100
-91 0 +104 0 +86 0 -85 0 *
Fa
0  0.000000100000000 3 0

0101000
+84 0 *
Ve
0.000100000000930
-23.175000000000658 3.175000000000010 43.175000000000665
0 0

0101101
*
Ed
 0.000000100000000 1 1 0
1  12 0 0.000000000000000 43.175000000000665
2  23 4 0 0.000000000000000 43.175000000000665
2  24 5 0 0.000000000000000 43.175000000000665
0

0101000
+103 0 -82 0 *
Ed
 0.000000100000000 1 1 0
1  13 0 0.000000000000000 31.430896423741103
2  25 10 0 0.000000000000000 31.430896423741103
2  26 4 0 0.000000000000000 31.430896423741103
0

0101000
+87 0 -82 0 *
Wi

0101100
-86 0 +102 0 +81 0 -80 0 *
Fa
0  0.000000100000000 4 0

0101000
+79 0 *
Ve
0.000100000000930
-23.175000000000658 25.400000000000002 43.175000000000651
0 0

0101101
*
Ed
 0.000000100000000 1 1 0
1  14 0 0.000000000000000 43.175000000000651
2  27 5 0 0.000000000000000 43.175000000000651
2  28 6 0 0.000000000000000 43.175000000000651
0

0101000
+101 0 -77 0 *
Ed
 0.000100000000930 1 1 0
1  15 0 -0.000000000000010 22.224999999999987
2  29 5 0 -0.000000000000010 22.224999999999987
2  30 11 0 -0.000000000000010 22.224999999999987
2  31 12 3 -0.000000000000010 22.224999999999987
2  32 13 3 -0.000000000000010 22.224999999999987
2  33 14 5 -0.000000000000010 22.224999999999987
2  34 15 5 -0.000000000000010 22.224999999999987
2  35 16 7 -0.000000000000010 22.224999999999987
2  36 17 7 -0.000000000000010 22.224999999999987
0

0101000
+82 0 -77 0 *
Wi

0101100
-81 0 +100 0 +76 0 -75 0 *
Fa
0  0.000000100000000 5 0

0101000
+74 0 *
Ve
0.000000150000014
-20.000000000000000 25.400000000000006 39.999999999999993
0 0

0101101
*
Ed
 0.000000100000000 1 1 0
1  16 0 0.000000000000000 39.999999999999993
2  37 6 0 0.000000000000000 39.999999999999993
2  38 7 0 0.000000000000000 39.999999999999993
0

0101000
+99 0 -72 0 *
Ed
 0.000000100000000 1 1 0
1  17 0 0.000000000000000 4.490128060535507
2  39 18 0 0.000000000000000 4.490128060535507
2  40 6 0 0.000000000000000 4.490128060535507
0

0101000
+77 0 -72 0 *
Wi

0101100
-76 0 +98 0 +71 0 -70 0 *
Fa
0  0.000000100000000 6 0

0101000
+69 0 *
Ed
 0.000000150000000 1 1 0
1  18 0 -25.400000000000006 0.000000000000013
2  41 7 0 -25.400000000000006 0.000000000000013
2  42 19 0 -25.400000000000006 0.000000000000013
0

0101000
+94 0 -72 0 *
Wi

0101100
-71 0 +97 0 +93 0 +67 0 *
Fa
0  0.000000100000000 7 0

0101000
+66 0 *
Ve
0.000000150000013
20.000000000000000 0.000000000000009 40.000000000000000
0 0

0101101
*
Ed
 0.000000100000000 1 1 0
1  19 0 0.000000000000000 40.000000000000000
2  43 8 0 0.000000000000000 40.000000000000000
2  44 19 0 0.000000000000000 40.000000000000000
0

0101000
+94 0 -64 0 *
Ve
0.000000150000004
45.400000000000006 0.000000000000016 65.400000000000006
0 0

0101101
*
Ed
 0.000000100000000 1 1 0
1  20 0 -25.399999999999999 65.400000000000006
2  45 8 0 -25.399999999999999 65.400000000000006
2  46 9 0 -25.399999999999999 65.400000000000006
0

0101000
+92 0 -62 0 *
Ed
 0.000000100000000 1 1 0
1  21 0 0.000000000000000 35.921024484276622
2  47 8 0 0.000000000000000 35.921024484276622
2  48 20 0 0.000000000000000 35.921024484276622
0

0101000
+64 0 -62 0 *
Wi

0101100
-63 0 +90 0 +61 0 -60 0 *
Fa
0  0.000000100000000 8 0

0101000
+59 0 *
Ve
0.000000150000012
45.400000000000006 3.175000000000011 65.400000000000006
0 0

0101101
*
Ed
 0.000000100000000 1 1 0
1  22 0 -25.399999999999999 65.400000000000006
2  49 9 0 -25.399999999999999 65.400000000000006
2  50 10 0 -25.399999999999999 65.400000000000006
0

0101000
+87 0 -57 0 *
Ed
 0.000000150000000 1 1 0
1  23 0 -0.000000000000008 3.174999999999980
2  51 9 0 -0.000000000000008 3.174999999999980
2  52 21 0 -0.000000000000008 3.174999999999980
0

0101000
+62 0 -57 0 *
Wi

0101100
-61 0 +85 0 +56 0 -55 0 *
Fa
0  0.000000100000000 9 0

0101000
+54 0 *
Ve
0.000100000000932
23.175000000000658 3.175000000000010 43.175000000000665
0 0

0101101
*
Ed
 0.000000100000000 1 1 0
1  24 0 -3.175000000000658 43.175000000000658
2  53 10 0 -3.175000000000658 43.175000000000658
2  54 11 0 -3.175000000000658 43.175000000000658
0

0101000
+82 0 -52 0 *
Ed
 0.000000100000000 1 1 0
1  25 0 0.000000000000000 31.430896423741110
2  55 10 0 0.000000000000000 31.430896423741110
2  56 22 0 0.000000000000000 31.430896423741110
0

0101000
+57 0 -52 0 *
Wi

0101100
-56 0 +80 0 +51 0 -50 0 *
Fa
0  0.000000100000000 10 0

0101000
+49 0 *
Ve
0.000100000000932
23.175000000000654 25.399999999999999 43.175000000000651
0 0

0101101
*
Ed
 0.000000100000000 1 1 0
1  26 0 -3.175000000000662 43.175000000000651
2  57 11 0 -3.175000000000662 43.175000000000651
2  58 18 0 -3.175000000000662 43.175000000000651
0

0101000
+77 0 -47 0 *
Ed
 0.000100000000932 1 1 0
1  27 0 -0.000000000000013 22.224999999999987
2  59 11 0 -0.000000000000013 22.224999999999987
2  60 23 0 -0.000000000000013 22.224999999999987
2  61 24 3 -0.000000000000013 22.224999999999987
2  62 25 3 -0.000000000000013 22.224999999999987
2  63 26 5 -0.000000000000013 22.224999999999987
2  64 27 5 -0.000000000000013 22.224999999999987
2  65 28 7 -0.000000000000013 22.224999999999987
2  66 29 7 -0.000000000000013 22.224999999999987
0

0101000
+52 0 -47 0 *
Wi

0101100
-51 0 +75 0 +46 0 -45 0 *
Fa
0  0.000000100000000 11 0

0101000
+44 0 *
Ve
0.000000150000011
19.999999999999993 25.400000000000006 39.999999999999993
0 0

0101101
*
Ed
 0.000000100000000 1 1 0
1  28 0 -0.000000000000007 39.999999999999986
2  67 18 0 -0.000000000000007 39.999999999999986
2  68 19 0 -0.000000000000007 39.999999999999986
0

0101000
+72 0 -42 0 *
Ed
 0.000000100000000 1 1 0
1  29 0 0.000000000000000 4.490128060535510
2  69 18 0 0.000000000000000 4.490128060535510
2  70 30 0 0.000000000000000 4.490128060535510
0

0101000
+47 0 -42 0 *
Wi

0101100
-46 0 +70 0 +41 0 -40 0 *
Fa
0  0.000000100000000 18 0

0101000
+39 0 *
Ed
 0.000000150000000 1 1 0
1  30 0 -25.400000000000009 0.000000000000009
2  71 19 0 -25.400000000000009 0.000000000000009
2  72 31 0 -25.400000000000009 0.000000000000009
0

0101000
+64 0 -42 0 *
Wi

0101100
-41 0 -67 0 +63 0 +37 0 *
Fa
0  0.000000100000000 19 0

0101000
+36 0 *
Ve
0.000000101000000
20.000000000000000 -0.000000000000011 0.000000000000000
0 0

0101101
*
Ed
 0.000000100000000 1 1 0
1  31 0 0.000000000000000 40.000000000000000
2  73 20 0 0.000000000000000 40.000000000000000
2  74 31 0 0.000000000000000 40.000000000000000
0

0101000
+64 0 -34 0 *
Ve
0.000000101000000
45.399999999999999 -0.000000000000006 0.000000000000000
0 0

0101101
*
Ed
 0.000000100000000 1 1 0
1  32 0 -25.400000000000006 40.000000000000000
2  75 20 0 -25.400000000000006 40.000000000000000
2  76 21 0 -25.400000000000006 40.000000000000000
0

0101000
+62 0 -32 0 *
Ed
 0.000000100000000 1 1 0
1  33 0 0.000000000000000 25.399999999999999
2  77 32 0 0.000000000000000 25.399999999999999
2  78 20 0 0.000000000000000 25.399999999999999
4 C0 20 0 32 0
0

0101000
+34 0 -32 0 *
Wi

0101100
-33 0 +60 0 +31 0 -30 0 *
Fa
0  0.000000100000000 20 0

0101000
+29 0 *
Ve
0.000000101000000
45.399999999999999 3.175000000000003 0.000000000000000
0 0

0101101
*
Ed
 0.000000100000000 1 1 0
1  34 0 0.000000000000000 3.175000000000000
2  79 32 0 0.000000000000000 3.175000000000000
2  80 21 0 0.000000000000000 3.175000000000000
4 C0 32 0 21 0
0

0101000
+32 0 -27 0 *
Ve
0.000000101000000
23.175000000000658 3.174999999999991 0.000000000000000
0 0

0101101
*
Ed
 0.000000100000000 1 1 0
1  35 0 0.000000000000000 22.224999999999341
2  81 32 0 0.000000000000000 22.224999999999341
2  82 22 0 0.000000000000000 22.224999999999341
4 C0 32 0 22 0
0

0101000
+27 0 -25 0 *
Ve
0.000000101000000
23.175000000000654 25.399999999999999 -0.000000000000014
0 0

0101101
*
Ed
 0.000000100000000 1 1 0
1  36 0 0.000000000000000 22.224999999999998
2  83 32 0 0.000000000000000 22.224999999999998
2  84 23 0 0.000000000000000 22.224999999999998
4 C0 32 0 23 0
0

0101000
+25 0 -23 0 *
Ve
0.000000101000000
19.999999999999996 25.399999999999988 -0.000000000000014
0 0

0101101
*
Ed
 0.000000100000000 1 1 0
1  37 0 0.000000000000000 3.175000000000658
2  85 32 0 0.000000000000000 3.175000000000658
2  86 30 0 0.000000000000000 3.175000000000658
4 C0 32 0 30 0
0

0101000
+23 0 -21 0 *
Ed
 0.000000100000000 1 1 0
1  38 0 0.000000000000000 25.399999999999999
2  87 32 0 0.000000000000000 25.399999999999999
2  88 31 0 0.000000000000000 25.399999999999999
4 C0 32 0 31 0
0

0101000
+21 0 -34 0 *
Wi

0101100
+30 0 +26 0 +24 0 +22 0 +20 0 +19 0 *
Fa
0  0.000000100000000 32 0

0101000
+18 0 *
Ed
 0.000000100000000 1 1 0
1  39 0 -25.400000000000006 40.000000000000000
2  89 21 0 -25.400000000000006 40.000000000000000
2  90 22 0 -25.400000000000006 40.000000000000000
0

0101000
+57 0 -27 0 *
Wi

0101100
-31 0 +55 0 +16 0 -26 0 *
Fa
0  0.000000100000000 21 0

0101000
+15 0 *
Ed
 0.000000100000000 1 1 0
1  40 0 -3.175000000000665 40.000000000000000
2  91 22 0 -3.175000000000665 40.000000000000000
2  92 23 0 -3.175000000000665 40.000000000000000
0

0101000
+52 0 -25 0 *
Wi

0101100
-16 0 +50 0 +13 0 -24 0 *
Fa
0  0.000000100000000 22 0

0101000
+12 0 *
Ed
 0.000000100000000 1 1 0
1  41 0 -3.175000000000658 40.000000000000000
2  93 23 0 -3.175000000000658 40.000000000000000
2  94 30 0 -3.175000000000658 40.000000000000000
0

0101000
+47 0 -23 0 *
Wi

0101100
-13 0 +45 0 +10 0 -22 0 *
Fa
0  0.000000100000000 23 0

0101000
+9 0 *
Ed
 0.000000100000000 1 1 0
1  42 0 -0.000000000000007 40.000000000000000
2  95 30 0 -0.000000000000007 40.000000000000000
2  96 31 0 -0.000000000000007 40.000000000000000
0

0101000
+42 0 -21 0 *
Wi

0101100
-10 0 +40 0 +7 0 -20 0 *
Fa
0  0.000000100000000 30 0

0101000
+6 0 *
Wi

0101100
-7 0 -37 0 +33 0 -19 0 *
Fa
0  0.000000100000000 31 0

0101000
+4 0 *
Sh

0101100
+95 0 -88 0 -83 0 -78 0 -73 0 -68 0 -65 0 -58 0 -53 0 -48 0 
-43 0 -38 0 -35 0 -28 0 -17 0 -14 0 -11 0 -8 0 -5 0 -3 0 
*
So

1100000
+2 0 *

+1 0 