
CASCADE Topology V1, (c) Matra-Datavision
Locations 16
1
1.000000000000000 0.000000000000000 0.000000000000000 0.000000000000000 
0.000000000000000 1.000000000000000 0.000000000000000 0.000000000000000 
0.000000000000000 0.000000000000000 1.000000000000000 0.000000000000000 
1
0.000000000000000 0.000000000000000 1.000000000000000 43.699999999999996 
0.000000000000000 -1.000000000000000 0.000000000000000 0.000000000000000 
1.000000000000000 0.000000000000000 -0.000000000000000 0.000000000000000 
1
1.000000000000000 0.000000000000000 0.000000000000000 0.000000000000000 
0.000000000000000 -0.000000000000000 -1.000000000000000 0.000000000000000 
0.000000000000000 1.000000000000000 -0.000000000000000 0.000000000000000 
2  1 1 2 1 3 -1 0
1
1.000000000000000 0.000000000000000 0.000000000000000 -454.994047925904681 
0.000000000000000 1.000000000000000 0.000000000000000 0.000000000000101 
0.000000000000000 0.000000000000000 1.000000000000000 -0.000000000000000 
2  1 1 2 1 3 -1 5 1 0
2  3 1 2 -1 1 -1 0
2  5 -1 3 1 2 -1 1 -1 0
2  2 -1 1 -1 0
1
1.000000000000000 0.000000000000000 0.000000000000000 0.000000000000000 
0.000000000000000 0.000000000000000 -1.000000000000000 0.000000000000000 
0.000000000000000 1.000000000000000 0.000000000000000 0.000000000000000 
1
1.000000000000000 0.000000000000000 0.000000000000000 0.000000000000000 
0.000000000000000 -0.000000000000000 -1.000000000000000 0.000000000000000 
0.000000000000000 1.000000000000000 -0.000000000000000 0.000000000000000 
1
1.000000000000000 0.000000000000000 0.000000000000000 0.000000000000000 
0.000000000000000 0.000000000000000 -1.000000000000000 0.000000000000000 
0.000000000000000 1.000000000000000 0.000000000000000 0.000000000000000 
2  10 1 11 -1 12 1 2 -1 1 -1 0
2  3 -1 0
2  1 1 2 1 0
2  3 -1 5 1 0
Curve2ds 24
1 0.00000000000000000 0.00000000000000000 0.00000000000000000 -1.00000000000000000 
1 6.28318530717958623 0.00000000000000000 0.00000000000000000 -1.00000000000000000 
1 0.00000000000000000 0.00000000000000000 1.00000000000000000 0.00000000000000000 
1 0.00000000000000000 -454.99404792590468105 1.00000000000000000 0.00000000000000000 
2 0.00000000000000000 0.00000000000000000 1.00000000000000000 0.00000000000000000 -0.00000000000000000 1.00000000000000000 3.96875000000000000
2 12.69999999999989981 -25.40000000000000568 -1.00000000000000000 -0.00000000000000111 0.00000000000000111 -1.00000000000000000 3.96875000000000000
1 0.00000000000000000 0.00000000000000000 0.00000000000000000 -1.00000000000000000 
1 6.28318530717958623 0.00000000000000000 0.00000000000000000 -1.00000000000000000 
1 0.00000000000000000 0.00000000000000000 1.00000000000000000 0.00000000000000000 
1 0.00000000000000000 -454.99404792590468105 1.00000000000000000 0.00000000000000000 
2 0.00000000000000000 0.00000000000000000 1.00000000000000000 0.00000000000000000 -0.00000000000000000 1.00000000000000000 3.96875000000000000
2 156.70000000000004547 -25.39999999999984226 -1.00000000000000000 -0.00000000000000111 0.00000000000000111 -1.00000000000000000 3.96875000000000000
1 0.00000000000000000 0.00000000000000000 0.00000000000000000 -1.00000000000000000 
1 6.28318530717958623 0.00000000000000000 0.00000000000000000 -1.00000000000000000 
1 0.00000000000000000 0.00000000000000000 1.00000000000000000 0.00000000000000000 
1 0.00000000000000000 -454.99404792590468105 1.00000000000000000 0.00000000000000000 
2 0.00000000000000000 0.00000000000000000 1.00000000000000000 0.00000000000000000 -0.00000000000000000 1.00000000000000000 3.96875000000000000
2 12.69999999999998863 -94.60000000000016485 -1.00000000000000000 -0.00000000000000111 0.00000000000000111 -1.00000000000000000 3.96875000000000000
1 0.00000000000000000 0.00000000000000000 0.00000000000000000 -1.00000000000000000 
1 6.28318530717958623 0.00000000000000000 0.00000000000000000 -1.00000000000000000 
1 0.00000000000000000 0.00000000000000000 1.00000000000000000 0.00000000000000000 
1 0.00000000000000000 -454.99404792590468105 1.00000000000000000 0.00000000000000000 
2 0.00000000000000000 0.00000000000000000 1.00000000000000000 0.00000000000000000 -0.00000000000000000 1.00000000000000000 3.96875000000000000
2 156.70000000000013074 -94.59999999999998010 -1.00000000000000000 -0.00000000000000111 0.00000000000000111 -1.00000000000000000 3.96875000000000000
Curves 8
1 43.70000000000000995 75.96875000000002842 -34.60000000000007248 -1.00000000000000000 0.00000000000000022 -0.00000000000000000 
2 72.00000000000004263 -34.60000000000005826 0.00000000000000000 0.00000000000000000 0.00000000000000000 1.00000000000000000 1.00000000000000000 0.00000000000000000 -0.00000000000000000 -0.00000000000000000 1.00000000000000000 0.00000000000000000 3.96875000000000000
1 43.69999999999998153 -68.03125000000005684 -34.60000000000004405 -1.00000000000000000 0.00000000000000022 -0.00000000000000000 
2 -72.00000000000004263 -34.60000000000005826 0.00000000000000000 0.00000000000000000 0.00000000000000000 1.00000000000000000 1.00000000000000000 0.00000000000000000 -0.00000000000000000 -0.00000000000000000 1.00000000000000000 0.00000000000000000 3.96875000000000000
1 43.70000000000000995 75.96875000000005684 34.60000000000004405 -1.00000000000000000 0.00000000000000022 -0.00000000000000000 
2 72.00000000000004263 34.60000000000005826 0.00000000000000000 0.00000000000000000 0.00000000000000000 1.00000000000000000 1.00000000000000000 0.00000000000000000 -0.00000000000000000 -0.00000000000000000 1.00000000000000000 0.00000000000000000 3.96875000000000000
1 43.69999999999998153 -68.03125000000002842 34.60000000000007248 -1.00000000000000000 0.00000000000000022 -0.00000000000000000 
2 -72.00000000000004263 34.60000000000005826 0.00000000000000000 0.00000000000000000 0.00000000000000000 1.00000000000000000 1.00000000000000000 0.00000000000000000 -0.00000000000000000 -0.00000000000000000 1.00000000000000000 0.00000000000000000 3.96875000000000000
Polygon3D 0
PolygonOnTriangulations 0
Surfaces 9
2 43.70000000000000995 72.00000000000002842 -34.60000000000007248 1.00000000000000000 -0.00000000000000022 0.00000000000000000 0.00000000000000022 1.00000000000000000 -0.00000000000000022 0.00000000000000000 0.00000000000000022 1.00000000000000000 3.96875000000000000
1 43.70000000000000995 34.60000000000005826 72.00000000000004263 1.00000000000000000 0.00000000000000000 0.00000000000000000 -0.00000000000000000 0.00000000000000000 1.00000000000000000 0.00000000000000000 -1.00000000000000000 0.00000000000000000 
1 43.70000000000000284 84.69999999999998863 -60.00000000000003553 1.00000000000000000 0.00000000000000000 -0.00000000000000000 0.00000000000000000 -1.00000000000000000 0.00000000000000044 0.00000000000000000 -0.00000000000000044 -1.00000000000000000 
2 43.69999999999998153 -72.00000000000005684 -34.60000000000004405 1.00000000000000000 -0.00000000000000022 0.00000000000000000 0.00000000000000022 1.00000000000000000 -0.00000000000000022 0.00000000000000000 0.00000000000000022 1.00000000000000000 3.96875000000000000
1 43.69999999999998863 34.60000000000005826 -72.00000000000004263 1.00000000000000000 0.00000000000000000 0.00000000000000000 -0.00000000000000000 0.00000000000000000 1.00000000000000000 0.00000000000000000 -1.00000000000000000 0.00000000000000000 
2 43.70000000000000995 72.00000000000005684 34.60000000000004405 1.00000000000000000 -0.00000000000000022 0.00000000000000000 0.00000000000000022 1.00000000000000000 -0.00000000000000022 0.00000000000000000 0.00000000000000022 1.00000000000000000 3.96875000000000000
1 43.70000000000000995 -34.60000000000005826 72.00000000000004263 1.00000000000000000 0.00000000000000000 0.00000000000000000 -0.00000000000000000 0.00000000000000000 1.00000000000000000 0.00000000000000000 -1.00000000000000000 0.00000000000000000 
2 43.69999999999998153 -72.00000000000002842 34.60000000000007248 1.00000000000000000 -0.00000000000000022 0.00000000000000000 0.00000000000000022 1.00000000000000000 -0.00000000000000022 0.00000000000000000 0.00000000000000022 1.00000000000000000 3.96875000000000000
1 43.69999999999998863 -34.60000000000005826 -72.00000000000004263 1.00000000000000000 0.00000000000000000 0.00000000000000000 -0.00000000000000000 0.00000000000000000 1.00000000000000000 0.00000000000000000 -1.00000000000000000 0.00000000000000000 
Triangulations 0

TShapes 37
Ve
0.000000100000014
75.968750000000043 -34.600000000000058 0.000000000000000
0 0

0101101
*
Ed
 0.000000100000000 1 1 0
1  1 0 0.000000000000000 454.994047925904681
3  1 2CN 1 0 0.000000000000000 454.994047925904681
0

0101000
+37 4 -37 6 *
Ed
 0.000000100000014 1 1 0
1  2 0 0.000000000000000 6.283185307179586
2  3 1 7 0.000000000000000 6.283185307179586
2  4 1 8 0.000000000000000 6.283185307179586
2  5 2 9 0.000000000000000 6.283185307179586
2  6 3 13 0.000000000000000 6.283185307179586
0

0101000
+37 0 -37 0 *
Wi

0101100
+36 0 -36 0 -35 4 +35 6 *
Fa
0  0.000000100000000 1 0

0111000
+34 0 *
Wi

0101100
+35 0 *
Fa
0  0.000000100000000 2 0

0111000
+32 15 *
Sh

0101100
+33 0 +31 14 -31 16 *
So

0100000
+30 0 *
Ve
0.000000100000014
-68.031250000000043 -34.600000000000058 0.000000000000000
0 0

0101101
*
Ed
 0.000000100000000 1 1 0
1  3 0 0.000000000000000 454.994047925904681
3  7 8CN 4 0 0.000000000000000 454.994047925904681
0

0101000
+28 4 -28 6 *
Ed
 0.000000100000014 1 1 0
1  4 0 0.000000000000000 6.283185307179586
2  9 4 7 0.000000000000000 6.283185307179586
2  10 4 8 0.000000000000000 6.283185307179586
2  11 5 9 0.000000000000000 6.283185307179586
2  12 3 13 0.000000000000000 6.283185307179586
0

0101000
+28 0 -28 0 *
Wi

0101100
+27 0 -27 0 -26 4 +26 6 *
Fa
0  0.000000100000000 4 0

0111000
+25 0 *
Wi

0101100
+26 0 *
Fa
0  0.000000100000000 5 0

0111000
+23 15 *
Sh

0101100
+24 0 +22 14 -22 16 *
So

0100000
+21 0 *
Ve
0.000000100000014
75.968750000000043 34.600000000000058 0.000000000000000
0 0

0101101
*
Ed
 0.000000100000000 1 1 0
1  5 0 0.000000000000000 454.994047925904681
3  13 14CN 6 0 0.000000000000000 454.994047925904681
0

0101000
+19 4 -19 6 *
Ed
 0.000000100000014 1 1 0
1  6 0 0.000000000000000 6.283185307179586
2  15 6 7 0.000000000000000 6.283185307179586
2  16 6 8 0.000000000000000 6.283185307179586
2  17 7 9 0.000000000000000 6.283185307179586
2  18 3 13 0.000000000000000 6.283185307179586
0

0101000
+19 0 -19 0 *
Wi

0101100
+18 0 -18 0 -17 4 +17 6 *
Fa
0  0.000000100000000 6 0

0111000
+16 0 *
Wi

0101100
+17 0 *
Fa
0  0.000000100000000 7 0

0111000
+14 15 *
Sh

0101100
+15 0 +13 14 -13 16 *
So

0100000
+12 0 *
Ve
0.000000100000014
-68.031250000000043 34.600000000000058 0.000000000000000
0 0

0101101
*
Ed
 0.000000100000000 1 1 0
1  7 0 0.000000000000000 454.994047925904681
3  19 20CN 8 0 0.000000000000000 454.994047925904681
0

0101000
+10 4 -10 6 *
Ed
 0.000000100000014 1 1 0
1  8 0 0.000000000000000 6.283185307179586
2  21 8 7 0.000000000000000 6.283185307179586
2  22 8 8 0.000000000000000 6.283185307179586
2  23 9 9 0.000000000000000 6.283185307179586
2  24 3 13 0.000000000000000 6.283185307179586
0

0101000
+10 0 -10 0 *
Wi

0101100
+9 0 -9 0 -8 4 +8 6 *
Fa
0  0.000000100000000 8 0

0111000
+7 0 *
Wi

0101100
+8 0 *
Fa
0  0.000000100000000 9 0

0111000
+5 15 *
Sh

0101100
+6 0 +4 14 -4 16 *
So

0100000
+3 0 *
Co

1100000
+29 0 +20 0 +11 0 +2 0 *

+1 0 