
CASCADE Topology V1, (c) Matra-Datavision
Locations 15
1
1.000000000000000 0.000000000000000 0.000000000000000 0.000000000000000 
0.000000000000000 0.000000000000000 -1.000000000000000 0.000000000000000 
0.000000000000000 1.000000000000000 0.000000000000000 0.000000000000000 
1
1.000000000000000 0.000000000000000 0.000000000000000 0.000000000000000 
0.000000000000000 1.000000000000000 0.000000000000000 0.000000000000000 
0.000000000000000 0.000000000000000 1.000000000000000 0.000000000000000 
2  2 -1 0
1
1.000000000000000 0.000000000000000 0.000000000000000 0.000000000000000 
0.000000000000000 1.000000000000000 0.000000000000000 0.000000000000000 
0.000000000000000 0.000000000000000 1.000000000000000 0.000000000000000 
1
1.000000000000000 0.000000000000000 0.000000000000000 0.000000000000000 
0.000000000000000 0.000000000000000 -1.000000000000000 0.000000000000000 
0.000000000000000 1.000000000000000 0.000000000000000 0.000000000000000 
1
1.000000000000000 0.000000000000000 0.000000000000000 0.000000000000000 
0.000000000000000 -0.000000000000000 -1.000000000000000 0.000000000000000 
0.000000000000000 1.000000000000000 -0.000000000000000 0.000000000000000 
2  4 1 5 1 6 -1 2 1 0
2  2 -1 6 1 5 -1 4 -1 0
1
1.000000000000000 0.000000000000000 0.000000000000000 0.000000000000000 
0.000000000000000 1.000000000000000 0.000000000000000 0.000000000000004 
0.000000000000000 0.000000000000000 1.000000000000000 10.000000000000000 
2  4 1 5 1 6 -1 9 1 2 1 0
2  2 -1 9 -1 6 1 5 -1 4 -1 0
2  6 -1 2 1 0
2  2 -1 6 1 0
2  6 -1 9 1 2 1 0
2  2 -1 9 -1 6 1 0
Curve2ds 32
1 0.00000000000000000 0.00000000000000000 0.00000000000000000 1.00000000000000000 
1 1.00000000000000000 0.00000000000000000 0.00000000000000000 -1.00000000000000000 
1 0.00000000000000000 0.00000000000000000 0.00000000000000000 1.00000000000000000 
1 24.39999999999999858 0.00000000000000000 0.00000000000000000 -1.00000000000000000 
1 -3.14159265358979312 0.00000000000000000 1.00000000000000000 0.00000000000000000 
2 0.58750000000000058 -11.69999999999999929 -1.00000000000000000 0.00000000000000000 0.00000000000000000 1.00000000000000000 1.00000000000000000
1 -3.14159265358979312 0.00000000000000000 1.00000000000000000 0.00000000000000000 
2 0.58750000000000058 11.69999999999999929 -1.00000000000000000 0.00000000000000000 -0.00000000000000000 -1.00000000000000000 1.00000000000000000
1 0.00000000000000000 0.00000000000000000 1.00000000000000000 0.00000000000000000 
2 -0.58750000000000058 -11.69999999999999929 -1.00000000000000000 0.00000000000000000 -0.00000000000000000 -1.00000000000000000 1.00000000000000000
1 -4.71238898038468967 0.00000000000000000 1.00000000000000000 0.00000000000000000 
2 -0.58750000000000058 11.69999999999999929 -1.00000000000000000 0.00000000000000000 -0.00000000000000000 -1.00000000000000000 1.00000000000000000
1 1.57079632679489656 0.00000000000000000 0.00000000000000000 1.00000000000000000 
1 2.17500000000000115 0.00000000000000000 0.00000000000000000 -1.00000000000000000 
1 -3.14159265358979312 10.00000000000000000 1.00000000000000000 0.00000000000000000 
2 0.58750000000000058 -11.69999999999999929 -1.00000000000000000 0.00000000000000000 0.00000000000000000 1.00000000000000000 1.00000000000000000
1 1.57079632679489656 0.00000000000000000 0.00000000000000000 1.00000000000000000 
1 0.99999999999999967 0.00000000000000000 0.00000000000000000 -1.00000000000000000 
1 -3.14159265358979312 10.00000000000000000 1.00000000000000000 0.00000000000000000 
2 0.58750000000000058 11.69999999999999929 -1.00000000000000000 0.00000000000000000 -0.00000000000000000 -1.00000000000000000 1.00000000000000000
1 0.00000000000000000 10.00000000000000000 1.00000000000000000 0.00000000000000000 
2 -0.58750000000000058 -11.69999999999999929 -1.00000000000000000 0.00000000000000000 -0.00000000000000000 -1.00000000000000000 1.00000000000000000
1 -4.71238898038468967 10.00000000000000000 1.00000000000000000 0.00000000000000000 
2 -0.58750000000000058 11.69999999999999929 -1.00000000000000000 0.00000000000000000 -0.00000000000000000 -1.00000000000000000 1.00000000000000000
1 1.57079632679489656 0.00000000000000000 0.00000000000000000 1.00000000000000000 
1 0.99999999999999967 0.00000000000000000 0.00000000000000000 -1.00000000000000000 
1 0.00000000000000000 0.00000000000000000 0.00000000000000000 1.00000000000000000 
1 2.17500000000000071 0.00000000000000000 0.00000000000000000 -1.00000000000000000 
1 0.00000000000000000 0.00000000000000000 0.00000000000000000 1.00000000000000000 
1 24.39999999999999858 0.00000000000000000 0.00000000000000000 -1.00000000000000000 
1 1.57079632679489656 0.00000000000000000 0.00000000000000000 1.00000000000000000 
1 1.00000000000000000 0.00000000000000000 0.00000000000000000 -1.00000000000000000 
Curves 20
1 -12.69999999999999929 1.58750000000000036 0.00000000000000000 1.00000000000000000 0.00000000000000000 0.00000000000000000 
1 -11.69999999999999929 1.58750000000000058 -0.00000000000000070 0.00000000000000000 0.00000000000000044 1.00000000000000000 
1 11.69999999999999929 1.58750000000000058 -0.00000000000000070 0.00000000000000000 0.00000000000000044 1.00000000000000000 
8 3.14159265358979312 4.71238898038468967
2 -11.69999999999999929 0.58750000000000058 -0.00000000000000026 0.00000000000000000 0.00000000000000044 1.00000000000000000 0.00000000000000000 -1.00000000000000000 0.00000000000000044 1.00000000000000000 0.00000000000000000 -0.00000000000000000 1.00000000000000000
8 3.14159265358979312 4.71238898038468967
2 11.69999999999999929 0.58750000000000058 -0.00000000000000026 -0.00000000000000000 -0.00000000000000044 -1.00000000000000000 0.00000000000000000 -1.00000000000000000 0.00000000000000044 -1.00000000000000000 0.00000000000000000 0.00000000000000000 1.00000000000000000
1 -12.69999999999999929 -1.58750000000000036 0.00000000000000000 0.00000000000000000 1.00000000000000000 0.00000000000000000 
1 12.69999999999999929 1.58750000000000036 0.00000000000000000 0.00000000000000000 -1.00000000000000000 0.00000000000000000 
8 0.00000000000000000 1.57079632679489656
2 -11.69999999999999929 -0.58750000000000058 0.00000000000000026 -0.00000000000000000 -0.00000000000000044 -1.00000000000000000 0.00000000000000000 -1.00000000000000000 0.00000000000000044 -1.00000000000000000 0.00000000000000000 0.00000000000000000 1.00000000000000000
8 4.71238898038468967 6.28318530717958623
2 11.69999999999999929 -0.58750000000000058 0.00000000000000026 -0.00000000000000000 -0.00000000000000044 -1.00000000000000000 0.00000000000000000 -1.00000000000000000 0.00000000000000044 -1.00000000000000000 0.00000000000000000 0.00000000000000000 1.00000000000000000
1 12.69999999999999929 -1.58750000000000036 0.00000000000000000 -1.00000000000000000 0.00000000000000000 0.00000000000000000 
1 -12.69999999999999929 0.58750000000000069 -0.00000000000000026 0.00000000000000000 0.00000000000000044 1.00000000000000000 
8 3.14159265358979312 4.71238898038468967
2 -11.69999999999999929 0.58750000000000502 10.00000000000000000 0.00000000000000000 0.00000000000000044 1.00000000000000000 0.00000000000000000 -1.00000000000000000 0.00000000000000044 1.00000000000000000 0.00000000000000000 -0.00000000000000000 1.00000000000000000
1 12.69999999999999929 0.58750000000000069 -0.00000000000000026 0.00000000000000000 0.00000000000000044 1.00000000000000000 
8 3.14159265358979312 4.71238898038468967
2 11.69999999999999929 0.58750000000000502 10.00000000000000000 -0.00000000000000000 -0.00000000000000044 -1.00000000000000000 0.00000000000000000 -1.00000000000000000 0.00000000000000044 -1.00000000000000000 0.00000000000000000 0.00000000000000000 1.00000000000000000
8 0.00000000000000000 1.57079632679489656
2 -11.69999999999999929 -0.58749999999999614 10.00000000000000000 -0.00000000000000000 -0.00000000000000044 -1.00000000000000000 0.00000000000000000 -1.00000000000000000 0.00000000000000044 -1.00000000000000000 0.00000000000000000 0.00000000000000000 1.00000000000000000
8 4.71238898038468967 6.28318530717958623
2 11.69999999999999929 -0.58749999999999614 10.00000000000000000 -0.00000000000000000 -0.00000000000000044 -1.00000000000000000 0.00000000000000000 -1.00000000000000000 0.00000000000000044 -1.00000000000000000 0.00000000000000000 0.00000000000000000 1.00000000000000000
1 -12.69999999999999929 -0.58750000000000069 0.00000000000000026 0.00000000000000000 0.00000000000000044 1.00000000000000000 
1 12.69999999999999929 -0.58750000000000058 0.00000000000000026 0.00000000000000000 0.00000000000000044 1.00000000000000000 
1 -11.69999999999999929 -1.58750000000000058 0.00000000000000070 0.00000000000000000 0.00000000000000044 1.00000000000000000 
1 11.69999999999999929 -1.58750000000000058 0.00000000000000070 0.00000000000000000 0.00000000000000044 1.00000000000000000 
Polygon3D 0
PolygonOnTriangulations 0
Surfaces 9
1 -12.69999999999999929 1.58750000000000036 -0.00000000000000070 0.00000000000000000 1.00000000000000000 -0.00000000000000044 1.00000000000000000 0.00000000000000000 0.00000000000000000 0.00000000000000000 -0.00000000000000044 -1.00000000000000000 
2 -11.69999999999999929 0.58750000000000058 -0.00000000000000026 0.00000000000000000 0.00000000000000044 1.00000000000000000 0.00000000000000000 1.00000000000000000 -0.00000000000000044 -1.00000000000000000 0.00000000000000000 0.00000000000000000 1.00000000000000000
2 11.69999999999999929 0.58750000000000058 -0.00000000000000026 0.00000000000000000 0.00000000000000044 1.00000000000000000 0.00000000000000000 1.00000000000000000 -0.00000000000000044 1.00000000000000000 -0.00000000000000000 -0.00000000000000000 1.00000000000000000
1 0.00000000000000025 0.00000000000000000 0.00000000000000000 0.00000000000000000 1.00000000000000000 -0.00000000000000022 0.00000000000000000 0.00000000000000022 1.00000000000000000 1.00000000000000000 -0.00000000000000000 0.00000000000000000 
2 -11.69999999999999929 -0.58750000000000058 0.00000000000000026 0.00000000000000000 0.00000000000000044 1.00000000000000000 0.00000000000000000 -1.00000000000000000 0.00000000000000044 -1.00000000000000000 -0.00000000000000000 0.00000000000000000 1.00000000000000000
2 11.69999999999999929 -0.58750000000000058 0.00000000000000026 0.00000000000000000 0.00000000000000044 1.00000000000000000 1.00000000000000000 0.00000000000000000 -0.00000000000000000 0.00000000000000000 -1.00000000000000000 0.00000000000000044 1.00000000000000000
1 -12.69999999999999929 -1.58750000000000036 0.00000000000000070 -1.00000000000000000 0.00000000000000000 0.00000000000000000 0.00000000000000000 1.00000000000000000 -0.00000000000000044 -0.00000000000000000 -0.00000000000000044 -1.00000000000000000 
1 12.69999999999999929 1.58750000000000036 -0.00000000000000070 1.00000000000000000 0.00000000000000000 -0.00000000000000000 0.00000000000000000 -1.00000000000000000 0.00000000000000044 0.00000000000000000 -0.00000000000000044 -1.00000000000000000 
1 12.69999999999999929 -1.58750000000000036 0.00000000000000070 0.00000000000000000 -1.00000000000000000 0.00000000000000044 -1.00000000000000000 0.00000000000000000 0.00000000000000000 -0.00000000000000000 -0.00000000000000044 -1.00000000000000000 
Triangulations 0

TShapes 62
Ve
0.000000100000000
-11.699999999999999 1.587500000000001 -0.000000000000001
0 0

0101101
*
Ve
0.000000100000000
11.699999999999999 1.587500000000001 -0.000000000000001
0 0

0101101
*
Ed
 0.000000100000000 1 1 0
1  1 0 1.000000000000000 24.399999999999999
0

0101000
+62 8 -61 8 *
Ve
0.000000100000000
-11.699999999999999 1.587500000000005 10.000000000000000
0 0

0101101
*
Ed
 0.000000100000000 1 1 0
1  2 0 -0.000000000000000 10.000000000000000
2  1 2 0 -0.000000000000000 10.000000000000000
2  2 1 2 -0.000000000000000 10.000000000000000
4 G1 2 0 1 2
0

0101000
+62 0 -59 0 *
Ve
0.000000100000000
11.699999999999999 1.587500000000005 10.000000000000000
0 0

0101101
*
Ed
 0.000000100000000 1 1 0
1  3 0 -0.000000000000000 10.000000000000000
2  3 3 0 -0.000000000000000 10.000000000000000
2  4 1 2 -0.000000000000000 10.000000000000000
4 G1 3 0 1 2
0

0101000
+61 0 -57 0 *
Ed
 0.000000100000000 1 1 0
1  1 0 1.000000000000000 24.399999999999999
0

0101000
+59 11 -57 11 *
Wi

0101100
-60 7 +58 0 -56 0 +55 10 *
Fa
0  0.000000100000000 1 0

0111000
+54 3 *
Ve
0.000000100000000
-12.699999999999999 0.587500000000001 -0.000000000000000
0 0

0101101
*
Ed
 0.000000100000000 1 1 0
1  4 0 3.141592653589793 4.712388980384690
2  5 2 0 3.141592653589793 4.712388980384690
2  6 4 12 3.141592653589793 4.712388980384690
0

0101000
+62 0 -52 0 *
Ve
0.000000100000000
12.699999999999999 0.587500000000001 -0.000000000000000
0 0

0101101
*
Ed
 0.000000100000000 1 1 0
1  5 0 3.141592653589793 4.712388980384690
2  7 3 0 3.141592653589793 4.712388980384690
2  8 4 12 3.141592653589793 4.712388980384690
0

0101000
+61 0 -50 0 *
Ve
0.000000100000000
-12.699999999999999 -0.587500000000001 0.000000000000000
0 0

0101101
*
Ed
 0.000000100000000 1 1 0
1  6 0 1.000000000000000 2.175000000000001
0

0101000
+48 8 -52 8 *
Ve
0.000000100000000
12.699999999999999 -0.587500000000001 0.000000000000000
0 0

0101101
*
Ed
 0.000000100000000 1 1 0
1  7 0 1.000000000000000 2.175000000000001
0

0101000
+50 8 -46 8 *
Ve
0.000000100000000
-11.699999999999999 -1.587500000000001 0.000000000000001
0 0

0101101
*
Ed
 0.000000100000000 1 1 0
1  8 0 0.000000000000000 1.570796326794897
2  9 5 0 0.000000000000000 1.570796326794897
2  10 4 12 0.000000000000000 1.570796326794897
0

0101000
+44 0 -48 0 *
Ve
0.000000100000000
11.699999999999999 -1.587500000000001 0.000000000000001
0 0

0101101
*
Ed
 0.000000100000000 1 1 0
1  9 0 4.712388980384690 6.283185307179586
2  11 6 0 4.712388980384690 6.283185307179586
2  12 4 12 4.712388980384690 6.283185307179586
0

0101000
+46 0 -42 0 *
Ed
 0.000000100000000 1 1 0
1  10 0 1.000000000000000 24.399999999999999
0

0101000
+42 8 -44 8 *
Wi

0101100
+60 7 -51 0 +49 0 +47 7 +45 7 +43 0 +41 0 +40 7 *
Fa
0  0.000000100000000 4 0

0111000
+39 13 *
Ve
0.000000100000000
-12.699999999999999 0.587500000000005 10.000000000000000
0 0

0101101
*
Ed
 0.000000100000000 1 1 0
1  11 0 -0.000000000000000 9.999999999999998
2  13 2 0 -0.000000000000000 9.999999999999998
2  14 7 2 -0.000000000000000 9.999999999999998
4 G1 2 0 7 2
0

0101000
+52 0 -37 0 *
Ed
 0.000000100000000 1 1 0
1  12 0 3.141592653589793 4.712388980384690
2  15 2 0 3.141592653589793 4.712388980384690
2  16 4 14 3.141592653589793 4.712388980384690
0

0101000
+59 0 -37 0 *
Wi

0101100
+51 0 -58 0 +36 0 -35 0 *
Fa
0  0.000000000000000 2 0

0111000
+34 0 *
Ve
0.000000100000000
12.699999999999999 0.587500000000005 10.000000000000000
0 0

0101101
*
Ed
 0.000000100000000 1 1 0
1  13 0 -0.000000000000000 10.000000000000000
2  17 3 0 -0.000000000000000 10.000000000000000
2  18 8 2 -0.000000000000000 10.000000000000000
4 G1 3 0 8 2
0

0101000
+50 0 -32 0 *
Ed
 0.000000100000000 1 1 0
1  14 0 3.141592653589793 4.712388980384690
2  19 3 0 3.141592653589793 4.712388980384690
2  20 4 14 3.141592653589793 4.712388980384690
0

0101000
+57 0 -32 0 *
Wi

0101100
+49 0 -56 0 +31 0 -30 0 *
Fa
0  0.000000000000000 3 0

0111000
+29 0 *
Ve
0.000000100000000
-12.699999999999999 -0.587499999999996 10.000000000000000
0 0

0101101
*
Ed
 0.000000100000000 1 1 0
1  6 0 1.000000000000000 2.175000000000001
0

0101000
+27 11 -37 11 *
Ve
0.000000100000000
12.699999999999999 -0.587499999999996 10.000000000000000
0 0

0101101
*
Ed
 0.000000100000000 1 1 0
1  7 0 1.000000000000000 2.175000000000001
0

0101000
+32 11 -25 11 *
Ve
0.000000100000000
-11.699999999999999 -1.587499999999996 10.000000000000000
0 0

0101101
*
Ed
 0.000000100000000 1 1 0
1  15 0 0.000000000000000 1.570796326794897
2  21 5 0 0.000000000000000 1.570796326794897
2  22 4 14 0.000000000000000 1.570796326794897
0

0101000
+23 0 -27 0 *
Ve
0.000000100000000
11.699999999999999 -1.587499999999996 10.000000000000000
0 0

0101101
*
Ed
 0.000000100000000 1 1 0
1  16 0 4.712388980384690 6.283185307179586
2  23 6 0 4.712388980384690 6.283185307179586
2  24 4 14 4.712388980384690 6.283185307179586
0

0101000
+25 0 -21 0 *
Ed
 0.000000100000000 1 1 0
1  10 0 1.000000000000000 24.399999999999999
0

0101000
+21 11 -23 11 *
Wi

0101100
+55 10 -35 0 +30 0 +26 10 +24 10 +22 0 +20 0 +19 10 *
Fa
0  0.000000100000000 4 0

0111000
+18 15 *
Ed
 0.000000100000000 1 1 0
1  17 0 -0.000000000000000 10.000000000000000
2  25 5 0 -0.000000000000000 10.000000000000000
2  26 7 2 -0.000000000000000 10.000000000000000
4 G1 5 0 7 2
0

0101000
+48 0 -27 0 *
Wi

0101100
-47 7 +16 0 -36 0 +26 10 *
Fa
0  0.000000100000000 7 0

0111000
+15 3 *
Ed
 0.000000100000000 1 1 0
1  18 0 -0.000000000000000 10.000000000000002
2  27 6 0 -0.000000000000000 10.000000000000002
2  28 8 2 -0.000000000000000 10.000000000000002
4 G1 6 0 8 2
0

0101000
+46 0 -25 0 *
Wi

0101100
-45 7 +31 0 -13 0 +24 10 *
Fa
0  0.000000100000000 8 0

0111000
+12 3 *
Ed
 0.000000100000000 1 1 0
1  19 0 -0.000000000000000 10.000000000000000
2  29 5 0 -0.000000000000000 10.000000000000000
2  30 9 2 -0.000000000000000 10.000000000000000
4 G1 5 0 9 2
0

0101000
+44 0 -23 0 *
Wi

0101100
+43 0 -10 0 +16 0 -22 0 *
Fa
0  0.000000000000000 5 0

0111000
+9 0 *
Ed
 0.000000100000000 1 1 0
1  20 0 -0.000000000000000 10.000000000000000
2  31 6 0 -0.000000000000000 10.000000000000000
2  32 9 2 -0.000000000000000 10.000000000000000
4 G1 6 0 9 2
0

0101000
+42 0 -21 0 *
Wi

0101100
+41 0 -13 0 +7 0 -20 0 *
Fa
0  0.000000000000000 6 0

0111000
+6 0 *
Wi

0101100
-40 7 +7 0 -10 0 +19 10 *
Fa
0  0.000000100000000 9 0

0111000
+4 3 *
Sh

0101100
+53 2 +38 12 +33 0 -28 0 -17 14 +14 2 +11 2 -8 0 -5 0 +3 2 
*
So

0100000
+2 0 *

+1 1 