
CASCADE Topology V1, (c) Matra-Datavision
Locations 3
1
1.000000000000000 0.000000000000000 0.000000000000000 0.000000000000000 
0.000000000000000 1.000000000000000 0.000000000000000 0.000000000000000 
0.000000000000000 0.000000000000000 1.000000000000000 0.000000000000000 
1
1.000000000000000 0.000000000000000 0.000000000000000 0.000000000000000 
0.000000000000000 1.000000000000000 0.000000000000000 0.000000000000000 
0.000000000000000 0.000000000000000 1.000000000000000 0.000000000000000 
2  2 -1 0
Curve2ds 12
1 0.00000000000000000 0.00000000000000000 1.00000000000000000 0.00000000000000000 
1 0.00000000000000000 1.99561247134869935 1.00000000000000000 0.00000000000000000 
1 0.00000000000000000 0.00000000000000000 1.00000000000000000 0.00000000000000000 
1 6.28318530717958623 0.00000000000000000 0.00000000000000000 1.00000000000000000 
1 0.00000000000000000 0.00000000000000000 0.00000000000000000 1.00000000000000000 
1 0.00000000000000000 947.17777777777769188 1.00000000000000000 0.00000000000000000 
1 0.00000000000000000 0.00000000000000000 1.00000000000000000 0.00000000000000000 
1 6.28318530717958623 0.00000000000000000 0.00000000000000000 1.00000000000000000 
1 0.00000000000000000 0.00000000000000000 0.00000000000000000 1.00000000000000000 
1 0.00000000000000000 1.99561247134873043 1.00000000000000000 0.00000000000000000 
1 6.28318530717958623 0.00000000000000000 0.00000000000000000 1.00000000000000000 
1 0.00000000000000000 0.00000000000000000 0.00000000000000000 1.00000000000000000 
Curves 7
2 0.00000000000000000 0.00000000000000000 0.00000000000000000 0.00000000000000000 0.00000000000000000 1.00000000000000000 1.00000000000000000 0.00000000000000000 0.00000000000000000 0.00000000000000000 1.00000000000000000 0.00000000000000000 2.59732638888889023
2 0.00000000000000000 0.00000000000000000 -1.41111111111111009 0.00000000000000000 0.00000000000000000 1.00000000000000000 1.00000000000000000 0.00000000000000000 0.00000000000000000 0.00000000000000000 1.00000000000000000 0.00000000000000000 4.00843750000000032
1 2.59732638888889023 0.00000000000000000 0.00000000000000000 0.70710678118654757 0.00000000000000000 -0.70710678118654757 
2 0.00000000000000000 0.00000000000000000 -948.58888888888884594 0.00000000000000000 0.00000000000000000 1.00000000000000000 1.00000000000000000 0.00000000000000000 0.00000000000000000 0.00000000000000000 1.00000000000000000 0.00000000000000000 4.00843750000000032
1 4.00843750000000032 0.00000000000000000 -1.41111111111111009 0.00000000000000000 0.00000000000000000 -1.00000000000000000 
2 0.00000000000000000 0.00000000000000000 -950.00000000000000000 0.00000000000000000 0.00000000000000000 1.00000000000000000 1.00000000000000000 0.00000000000000000 0.00000000000000000 0.00000000000000000 1.00000000000000000 0.00000000000000000 2.59732638888889023
1 4.00843750000000032 0.00000000000000000 -948.58888888888884594 -0.70710678118653647 0.00000000000000000 -0.70710678118655856 
Polygon3D 0
PolygonOnTriangulations 0
Surfaces 5
1 0.00000000000000000 0.00000000000000000 0.00000000000000000 0.00000000000000000 0.00000000000000000 1.00000000000000000 -1.00000000000000000 0.00000000000000000 0.00000000000000000 0.00000000000000000 1.00000000000000000 0.00000000000000000 
3 0.00000000000000000 0.00000000000000000 0.00000000000000000 -0.00000000000000000 -0.00000000000000000 -1.00000000000000000 1.00000000000000000 0.00000000000000000 0.00000000000000000 0.00000000000000000 1.00000000000000000 0.00000000000000000 2.59732638888889023
0.78539816339744828
2 0.00000000000000000 0.00000000000000000 -1.41111111111111009 -0.00000000000000000 -0.00000000000000000 -1.00000000000000000 1.00000000000000000 0.00000000000000000 0.00000000000000000 0.00000000000000000 1.00000000000000000 0.00000000000000000 4.00843750000000032
3 0.00000000000000000 0.00000000000000000 -948.58888888888884594 -0.00000000000000000 -0.00000000000000000 -1.00000000000000000 1.00000000000000000 0.00000000000000000 0.00000000000000000 0.00000000000000000 1.00000000000000000 0.00000000000000000 4.00843750000000032
-0.78539816339743262
1 0.00000000000000000 0.00000000000000000 -950.00000000000000000 0.00000000000000000 0.00000000000000000 1.00000000000000000 1.00000000000000000 0.00000000000000000 0.00000000000000000 0.00000000000000000 1.00000000000000000 0.00000000000000000 
Triangulations 0

TShapes 23
Ve
0.000000100000000
2.597326388888890 0.000000000000000 0.000000000000000
0 0

0101101
*
Ed
 0.000000100000000 1 1 0
1  1 0 0.000000000000000 6.283185307179586
2  1 2 0 0.000000000000000 6.283185307179586
0

0101000
+23 3 -23 3 *
Wi

0101100
-22 0 *
Fa
0  0.000000100000000 1 0

0111000
+21 0 *
Ve
0.000000100000000
4.008437500000000 0.000000000000000 -1.411111111111110
0 0

0101101
*
Ed
 0.000000100000000 1 1 0
1  2 0 0.000000000000000 6.283185307179586
2  2 2 0 0.000000000000000 6.283185307179586
2  3 3 0 0.000000000000000 6.283185307179586
0

0101000
+19 3 -19 3 *
Ed
 0.000000100000000 1 1 0
1  3 0 0.000000000000000 1.995612471348699
3  4 5CN 2 0 0.000000000000000 1.995612471348699
0

0101000
+23 3 -19 3 *
Wi

0101100
+22 0 -18 0 -17 0 +17 0 *
Fa
0  0.000000100000000 2 0

0111000
+16 0 *
Ve
0.000000100000000
4.008437500000000 0.000000000000000 -948.588888888888846
0 0

0101101
*
Ed
 0.000000100000000 1 1 0
1  4 0 0.000000000000000 6.283185307179586
2  6 3 0 0.000000000000000 6.283185307179586
2  7 4 0 0.000000000000000 6.283185307179586
0

0101000
+14 3 -14 3 *
Ed
 0.000000100000000 1 1 0
1  5 0 0.000000000000000 947.177777777777692
3  8 9CN 3 0 0.000000000000000 947.177777777777692
0

0101000
+19 3 -14 3 *
Wi

0101100
+18 0 -13 0 -12 0 +12 0 *
Fa
0  0.000000100000000 3 0

0111000
+11 0 *
Ve
0.000000100000000
2.597326388888890 0.000000000000000 -950.000000000000000
0 0

0101101
*
Ed
 0.000000100000000 1 1 0
1  6 0 0.000000000000000 6.283185307179586
2  10 4 0 0.000000000000000 6.283185307179586
0

0101000
+9 3 -9 3 *
Ed
 0.000000100000000 1 1 0
1  7 0 0.000000000000000 1.995612471348730
3  11 12CN 4 0 0.000000000000000 1.995612471348730
0

0101000
+14 3 -9 3 *
Wi

0101100
+13 0 -8 0 -7 0 +7 0 *
Fa
0  0.000000100000000 4 0

0111000
+6 0 *
Wi

0101100
+8 0 *
Fa
0  0.000000100000000 5 0

0111000
+4 0 *
Sh

0101100
+20 0 +15 0 +10 0 +5 0 +3 0 *
So

1100000
+2 0 *

-1 1 