
CASCADE Topology V1, (c) Matra-Datavision
Locations 14
1
1.000000000000000 0.000000000000000 0.000000000000000 0.000000000000000 
0.000000000000000 1.000000000000000 0.000000000000000 0.000000000000000 
0.000000000000000 0.000000000000000 1.000000000000000 0.000000000000000 
1
1.000000000000000 0.000000000000000 0.000000000000000 0.000000000000000 
0.000000000000000 -1.000000000000000 -0.000000000000000 -0.000000000000004 
0.000000000000000 0.000000000000000 -1.000000000000000 -20.000000000000000 
1
1.000000000000000 0.000000000000000 0.000000000000000 0.000000000000000 
0.000000000000000 1.000000000000000 0.000000000000000 0.000000000000000 
0.000000000000000 0.000000000000000 1.000000000000000 0.000000000000000 
2  1 1 2 1 3 -1 0
1
1.000000000000000 0.000000000000000 0.000000000000000 0.000000000000000 
0.000000000000000 1.000000000000000 0.000000000000000 0.000000000000001 
0.000000000000000 0.000000000000000 1.000000000000000 5.000000000000000 
2  1 1 2 1 3 -1 5 1 0
2  3 1 2 -1 1 -1 0
2  5 -1 3 1 2 -1 1 -1 0
2  2 -1 1 -1 0
1
1.000000000000000 0.000000000000000 0.000000000000000 0.000000000000000 
0.000000000000000 1.000000000000000 0.000000000000000 0.000000000000000 
0.000000000000000 0.000000000000000 1.000000000000000 0.000000000000000 
2  10 1 2 -1 1 -1 0
2  3 -1 0
2  1 1 2 1 0
2  3 -1 5 1 0
Curve2ds 6
1 0.00000000000000000 0.00000000000000000 0.00000000000000000 -1.00000000000000000 
1 6.28318530717958623 0.00000000000000000 0.00000000000000000 -1.00000000000000000 
1 0.00000000000000000 0.00000000000000000 1.00000000000000000 0.00000000000000000 
1 0.00000000000000000 -5.00000000000000000 1.00000000000000000 0.00000000000000000 
2 -0.00000000000000017 0.00000000000000000 -1.00000000000000000 0.00000000000000000 -0.00000000000000000 -1.00000000000000000 3.96875000000000000
2 18.00000000000000355 -17.50000000000000355 -1.00000000000000000 0.00000000000000000 -0.00000000000000000 -1.00000000000000000 3.96875000000000000
Curves 2
1 3.96875000000000000 -17.50000000000000355 -19.99999999999999645 0.00000000000000000 0.00000000000000022 1.00000000000000000 
2 0.00000000000000000 17.50000000000000000 0.00000000000000000 0.00000000000000000 0.00000000000000000 1.00000000000000000 1.00000000000000000 0.00000000000000000 -0.00000000000000000 -0.00000000000000000 1.00000000000000000 0.00000000000000000 3.96875000000000000
Polygon3D 0
PolygonOnTriangulations 0
Surfaces 3
2 0.00000000000000000 -17.50000000000000355 -19.99999999999999645 0.00000000000000000 -0.00000000000000022 -1.00000000000000000 1.00000000000000000 0.00000000000000000 0.00000000000000000 0.00000000000000000 -1.00000000000000000 0.00000000000000022 3.96875000000000000
1 -0.00000000000000017 -17.50000000000000355 -19.99999999999999645 -0.00000000000000000 -0.00000000000000000 -1.00000000000000000 -1.00000000000000000 0.00000000000000000 0.00000000000000000 0.00000000000000000 1.00000000000000000 -0.00000000000000000 
1 18.00000000000000355 0.00000000000000000 -20.00000000000000000 -0.00000000000000000 -0.00000000000000022 -1.00000000000000000 -1.00000000000000000 0.00000000000000000 0.00000000000000000 0.00000000000000000 1.00000000000000000 -0.00000000000000022 
Triangulations 0

TShapes 9
Ve
0.000000100000000
3.968750000000000 17.500000000000000 0.000000000000000
0 0

0101101
*
Ed
 0.000000100000000 1 1 0
1  1 0 0.000000000000000 5.000000000000000
3  1 2CN 1 0 0.000000000000000 5.000000000000000
0

0101000
+9 4 -9 6 *
Ed
 0.000000100000000 1 1 0
1  2 0 0.000000000000000 6.283185307179586
2  3 1 7 0.000000000000000 6.283185307179586
2  4 1 8 0.000000000000000 6.283185307179586
2  5 2 9 0.000000000000000 6.283185307179586
2  6 3 11 0.000000000000000 6.283185307179586
0

0101000
+9 0 -9 0 *
Wi

0101100
+8 0 -8 0 -7 4 +7 6 *
Fa
0  0.000000100000000 1 0

0111000
+6 0 *
Wi

0101100
+7 0 *
Fa
0  0.000000100000000 2 0

0111000
+4 13 *
Sh

0101100
+5 0 +3 12 -3 14 *
So

1100000
+2 0 *

+1 0 