
CASCADE Topology V1, (c) Matra-Datavision
Locations 56
1
1.000000000000000 0.000000000000000 0.000000000000000 0.000000000000000 
0.000000000000000 1.000000000000000 0.000000000000000 0.000000000000000 
0.000000000000000 0.000000000000000 1.000000000000000 0.000000000000000 
1
1.000000000000000 0.000000000000000 0.000000000000000 0.000000000000000 
0.000000000000000 0.000000000000000 -1.000000000000000 0.000000000000000 
0.000000000000000 1.000000000000000 0.000000000000000 0.000000000000000 
1
1.000000000000000 0.000000000000000 0.000000000000000 0.000000000000000 
0.000000000000000 1.000000000000000 0.000000000000000 0.000000000000000 
0.000000000000000 0.000000000000000 1.000000000000000 0.000000000000000 
1
1.000000000000000 0.000000000000000 0.000000000000000 0.000000000000000 
0.000000000000000 1.000000000000000 0.000000000000000 0.000000000000000 
0.000000000000000 0.000000000000000 1.000000000000000 0.000000000000000 
1
1.000000000000000 0.000000000000000 0.000000000000000 0.000000000000000 
0.000000000000000 1.000000000000000 0.000000000000000 0.000000000000000 
0.000000000000000 0.000000000000000 1.000000000000000 0.000000000000000 
1
1.000000000000000 0.000000000000000 0.000000000000000 0.000000000000000 
0.000000000000000 1.000000000000000 0.000000000000000 0.000000000000000 
0.000000000000000 0.000000000000000 1.000000000000000 0.000000000000000 
1
1.000000000000000 0.000000000000000 0.000000000000000 0.000000000000000 
0.000000000000000 1.000000000000000 0.000000000000000 0.000000000000000 
0.000000000000000 0.000000000000000 1.000000000000000 0.000000000000000 
1
1.000000000000000 0.000000000000000 0.000000000000000 0.000000000000000 
0.000000000000000 1.000000000000000 0.000000000000000 0.000000000000000 
0.000000000000000 0.000000000000000 1.000000000000000 0.000000000000000 
1
1.000000000000000 0.000000000000000 0.000000000000000 0.000000000000000 
0.000000000000000 1.000000000000000 0.000000000000000 0.000000000000000 
0.000000000000000 0.000000000000000 1.000000000000000 0.000000000000000 
2  1 1 2 1 3 1 4 1 5 1 6 1 7 1 8 1 9 -1 0
1
1.000000000000000 0.000000000000000 0.000000000000000 -0.000000000000000 
0.000000000000000 1.000000000000000 0.000000000000000 -35.000000000000000 
0.000000000000000 0.000000000000000 1.000000000000000 0.000000000000008 
2  1 1 2 1 3 1 4 1 5 1 6 1 7 1 8 1 9 -1 11 1 0
1
1.000000000000000 0.000000000000000 0.000000000000000 0.000000000000000 
0.000000000000000 1.000000000000000 0.000000000000000 0.000000000000000 
0.000000000000000 0.000000000000000 1.000000000000000 0.000000000000000 
1
1.000000000000000 0.000000000000000 0.000000000000000 0.000000000000000 
0.000000000000000 0.000000000000000 -1.000000000000000 0.000000000000000 
0.000000000000000 1.000000000000000 0.000000000000000 0.000000000000000 
1
1.000000000000000 0.000000000000000 0.000000000000000 0.000000000000000 
0.000000000000000 -0.000000000000000 -1.000000000000000 0.000000000000000 
0.000000000000000 1.000000000000000 -0.000000000000000 0.000000000000000 
1
1.000000000000000 0.000000000000000 0.000000000000000 0.000000000000000 
0.000000000000000 1.000000000000000 0.000000000000000 0.000000000000000 
0.000000000000000 0.000000000000000 1.000000000000000 0.000000000000000 
1
1.000000000000000 0.000000000000000 0.000000000000000 0.000000000000000 
0.000000000000000 1.000000000000000 0.000000000000000 0.000000000000000 
0.000000000000000 0.000000000000000 1.000000000000000 0.000000000000000 
2  13 1 14 1 15 -1 16 1 17 1 1 1 2 1 3 1 4 1 5 1 6 1 7 1 8 1 9 -1 0
2  17 -1 16 -1 15 1 14 -1 13 -1 0
2  13 1 14 1 15 -1 16 1 17 1 1 1 2 1 3 1 4 1 5 1 6 1 7 1 8 1 9 -1 11 1 0
2  15 -1 16 1 17 1 0
1
1.000000000000000 0.000000000000000 0.000000000000000 0.000000000000000 
0.000000000000000 1.000000000000000 0.000000000000000 0.000000000000000 
0.000000000000000 0.000000000000000 1.000000000000000 0.000000000000000 
1
1.000000000000000 0.000000000000000 0.000000000000000 0.000000000000000 
0.000000000000000 1.000000000000000 0.000000000000000 0.000000000000000 
0.000000000000000 0.000000000000000 1.000000000000000 0.000000000000000 
2  22 1 23 -1 7 -1 6 -1 5 -1 4 -1 3 -1 2 -1 1 -1 0
1
1.000000000000000 0.000000000000000 0.000000000000000 0.000000000000000 
0.000000000000000 1.000000000000000 0.000000000000000 10.000000000000000 
0.000000000000000 0.000000000000000 1.000000000000000 -0.000000000000002 
2  25 -1 22 1 23 -1 7 -1 6 -1 5 -1 4 -1 3 -1 2 -1 1 -1 0
1
1.000000000000000 0.000000000000000 0.000000000000000 0.000000000000000 
0.000000000000000 1.000000000000000 0.000000000000000 0.000000000000000 
0.000000000000000 0.000000000000000 1.000000000000000 0.000000000000000 
1
1.000000000000000 0.000000000000000 0.000000000000000 0.000000000000000 
0.000000000000000 1.000000000000000 0.000000000000000 0.000000000000000 
0.000000000000000 0.000000000000000 1.000000000000000 0.000000000000000 
2  27 1 28 -1 7 -1 6 -1 5 -1 4 -1 3 -1 2 -1 1 -1 0
1
1.000000000000000 0.000000000000000 0.000000000000000 -0.000000000000000 
0.000000000000000 1.000000000000000 0.000000000000000 -10.000000000000000 
0.000000000000000 0.000000000000000 1.000000000000000 0.000000000000002 
2  30 -1 27 1 28 -1 7 -1 6 -1 5 -1 4 -1 3 -1 2 -1 1 -1 0
1
1.000000000000000 0.000000000000000 0.000000000000000 0.000000000000000 
0.000000000000000 1.000000000000000 0.000000000000000 0.000000000000000 
0.000000000000000 0.000000000000000 1.000000000000000 0.000000000000000 
1
1.000000000000000 0.000000000000000 0.000000000000000 0.000000000000000 
0.000000000000000 1.000000000000000 0.000000000000000 0.000000000000000 
0.000000000000000 0.000000000000000 1.000000000000000 0.000000000000000 
2  32 1 33 -1 7 -1 6 -1 5 -1 4 -1 3 -1 2 -1 1 -1 0
1
1.000000000000000 0.000000000000000 0.000000000000000 -0.000000000000000 
0.000000000000000 1.000000000000000 0.000000000000000 -35.000000000000000 
0.000000000000000 0.000000000000000 1.000000000000000 0.000000000000008 
2  35 -1 32 1 33 -1 7 -1 6 -1 5 -1 4 -1 3 -1 2 -1 1 -1 0
2  9 1 8 -1 7 -1 6 -1 5 -1 4 -1 3 -1 2 -1 1 -1 0
2  11 -1 9 1 8 -1 7 -1 6 -1 5 -1 4 -1 3 -1 2 -1 1 -1 0
2  17 1 1 1 2 1 3 1 4 1 5 1 6 1 7 1 8 1 9 -1 0
2  17 1 1 1 2 1 3 1 4 1 5 1 6 1 7 1 8 1 9 -1 11 1 0
2  16 -1 15 1 14 -1 13 -1 0
2  15 -1 16 1 0
2  22 1 23 -1 7 -1 6 -1 5 -1 4 -1 3 -1 2 -1 1 -1 17 -1 0
2  25 -1 22 1 23 -1 7 -1 6 -1 5 -1 4 -1 3 -1 2 -1 1 -1 17 -1 0
2  27 1 28 -1 7 -1 6 -1 5 -1 4 -1 3 -1 2 -1 1 -1 17 -1 0
2  30 -1 27 1 28 -1 7 -1 6 -1 5 -1 4 -1 3 -1 2 -1 1 -1 17 -1 0
2  32 1 33 -1 7 -1 6 -1 5 -1 4 -1 3 -1 2 -1 1 -1 17 -1 0
2  35 -1 32 1 33 -1 7 -1 6 -1 5 -1 4 -1 3 -1 2 -1 1 -1 17 -1 0
2  9 1 8 -1 7 -1 6 -1 5 -1 4 -1 3 -1 2 -1 1 -1 17 -1 0
2  11 -1 9 1 8 -1 7 -1 6 -1 5 -1 4 -1 3 -1 2 -1 1 -1 17 -1 0
2  15 -1 16 1 17 1 1 1 2 1 3 1 4 1 5 1 6 1 7 1 8 1 9 -1 0
2  17 -1 16 -1 15 1 0
2  13 1 14 1 15 -1 16 1 17 1 0
2  16 -1 15 1 0
2  13 1 14 1 15 -1 16 1 0
2  15 -1 16 1 17 1 1 1 2 1 3 1 4 1 5 1 6 1 7 1 8 1 9 -1 11 1 0
Curve2ds 96
1 4.71238898038468967 0.00000000000000000 0.00000000000000000 -1.00000000000000000 
1 1.57079632679489700 0.00000000000000000 0.00000000000000000 -1.00000000000000000 
1 6.28318530717958623 0.00000000000000000 0.00000000000000000 -1.00000000000000000 
1 -4.71238898038468967 0.00000000000000000 1.00000000000000000 0.00000000000000000 
2 -17.41250000000000142 -17.41250000000000497 -1.00000000000000000 0.00000000000000000 0.00000000000000000 1.00000000000000000 1.00000000000000000
1 0.00000000000000000 0.00000000000000000 1.00000000000000000 0.00000000000000000 
1 0.00000000000000000 -10.00000000000000000 1.00000000000000000 0.00000000000000000 
1 0.00000000000000000 0.00000000000000000 1.00000000000000000 0.00000000000000000 
1 0.00000000000000000 -10.00000000000000000 1.00000000000000000 0.00000000000000000 
1 0.00000000000000000 0.00000000000000000 1.00000000000000000 0.00000000000000000 
1 0.00000000000000000 -35.00000000000000000 1.00000000000000000 0.00000000000000000 
1 0.00000000000000000 0.00000000000000000 1.00000000000000000 0.00000000000000000 
1 0.00000000000000000 -35.00000000000000000 1.00000000000000000 0.00000000000000000 
1 3.14159265358979312 0.00000000000000000 0.00000000000000000 -1.00000000000000000 
1 -1.57079632679489656 0.00000000000000000 1.00000000000000000 0.00000000000000000 
2 17.41250000000000142 -17.41250000000000497 -1.00000000000000000 0.00000000000000000 -0.00000000000000000 -1.00000000000000000 1.00000000000000000
1 0.00000000000000000 0.00000000000000000 1.00000000000000000 0.00000000000000000 
1 0.00000000000000000 -10.00000000000000000 1.00000000000000000 0.00000000000000000 
1 0.00000000000000000 0.00000000000000000 1.00000000000000000 0.00000000000000000 
1 0.00000000000000000 -10.00000000000000000 1.00000000000000000 0.00000000000000000 
1 0.00000000000000000 0.00000000000000000 1.00000000000000000 0.00000000000000000 
1 0.00000000000000000 -35.00000000000000000 1.00000000000000000 0.00000000000000000 
1 0.00000000000000000 0.00000000000000000 1.00000000000000000 0.00000000000000000 
1 0.00000000000000000 -35.00000000000000000 1.00000000000000000 0.00000000000000000 
1 0.00000000000000000 0.00000000000000000 0.00000000000000000 -1.00000000000000000 
1 3.14159265358979312 0.00000000000000000 0.00000000000000000 -1.00000000000000000 
1 1.57079632679489700 0.00000000000000000 0.00000000000000000 -1.00000000000000000 
1 0.00000000000000000 0.00000000000000000 1.00000000000000000 0.00000000000000000 
2 -17.41250000000000142 17.41249999999999787 -1.00000000000000000 0.00000000000000000 0.00000000000000000 1.00000000000000000 1.00000000000000000
1 0.00000000000000000 0.00000000000000000 1.00000000000000000 0.00000000000000000 
1 0.00000000000000000 -10.00000000000000000 1.00000000000000000 0.00000000000000000 
1 0.00000000000000000 0.00000000000000000 1.00000000000000000 0.00000000000000000 
1 0.00000000000000000 -10.00000000000000000 1.00000000000000000 0.00000000000000000 
1 0.00000000000000000 0.00000000000000000 1.00000000000000000 0.00000000000000000 
1 0.00000000000000000 -35.00000000000000000 1.00000000000000000 0.00000000000000000 
1 0.00000000000000000 0.00000000000000000 1.00000000000000000 0.00000000000000000 
1 0.00000000000000000 -35.00000000000000000 1.00000000000000000 0.00000000000000000 
1 1.57079632679489700 0.00000000000000000 0.00000000000000000 -1.00000000000000000 
1 -1.57079632679489656 0.00000000000000000 1.00000000000000000 0.00000000000000000 
2 17.41250000000000142 17.41249999999999787 -1.00000000000000000 0.00000000000000000 0.00000000000000000 1.00000000000000000 1.00000000000000000
1 0.00000000000000000 0.00000000000000000 1.00000000000000000 0.00000000000000000 
1 0.00000000000000000 -10.00000000000000000 1.00000000000000000 0.00000000000000000 
1 0.00000000000000000 0.00000000000000000 1.00000000000000000 0.00000000000000000 
1 0.00000000000000000 -10.00000000000000000 1.00000000000000000 0.00000000000000000 
1 0.00000000000000000 0.00000000000000000 1.00000000000000000 0.00000000000000000 
1 0.00000000000000000 -35.00000000000000000 1.00000000000000000 0.00000000000000000 
1 0.00000000000000000 0.00000000000000000 1.00000000000000000 0.00000000000000000 
1 0.00000000000000000 -35.00000000000000000 1.00000000000000000 0.00000000000000000 
1 3.14159265358979312 0.00000000000000000 0.00000000000000000 -1.00000000000000000 
1 3.14159265358979312 0.00000000000000000 0.00000000000000000 -1.00000000000000000 
1 4.71238898038468967 0.00000000000000000 0.00000000000000000 -1.00000000000000000 
1 -3.14159265358979312 0.00000000000000000 1.00000000000000000 0.00000000000000000 
2 18.00000000000000000 -18.00000000000000000 -1.00000000000000000 0.00000000000000000 0.00000000000000000 1.00000000000000000 2.00000000000000000
1 0.00000000000000000 0.00000000000000000 1.00000000000000000 0.00000000000000000 
1 0.00000000000000000 -10.00000000000000000 1.00000000000000000 0.00000000000000000 
1 0.00000000000000000 0.00000000000000000 1.00000000000000000 0.00000000000000000 
1 0.00000000000000000 -10.00000000000000000 1.00000000000000000 0.00000000000000000 
1 0.00000000000000000 0.00000000000000000 1.00000000000000000 0.00000000000000000 
1 0.00000000000000000 -35.00000000000000000 1.00000000000000000 0.00000000000000000 
1 0.00000000000000000 0.00000000000000000 1.00000000000000000 0.00000000000000000 
1 0.00000000000000000 -35.00000000000000000 1.00000000000000000 0.00000000000000000 
1 4.71238898038468967 0.00000000000000000 0.00000000000000000 -1.00000000000000000 
1 -3.14159265358979312 0.00000000000000000 1.00000000000000000 0.00000000000000000 
2 18.00000000000000000 18.00000000000000000 -1.00000000000000000 0.00000000000000000 -0.00000000000000000 -1.00000000000000000 2.00000000000000000
1 0.00000000000000000 0.00000000000000000 1.00000000000000000 0.00000000000000000 
1 0.00000000000000000 -10.00000000000000000 1.00000000000000000 0.00000000000000000 
1 0.00000000000000000 0.00000000000000000 1.00000000000000000 0.00000000000000000 
1 0.00000000000000000 -10.00000000000000000 1.00000000000000000 0.00000000000000000 
1 0.00000000000000000 0.00000000000000000 1.00000000000000000 0.00000000000000000 
1 0.00000000000000000 -35.00000000000000000 1.00000000000000000 0.00000000000000000 
1 0.00000000000000000 0.00000000000000000 1.00000000000000000 0.00000000000000000 
1 0.00000000000000000 -35.00000000000000000 1.00000000000000000 0.00000000000000000 
1 1.57079632679489700 0.00000000000000000 0.00000000000000000 -1.00000000000000000 
1 4.71238898038468967 0.00000000000000000 0.00000000000000000 -1.00000000000000000 
1 0.00000000000000000 0.00000000000000000 0.00000000000000000 -1.00000000000000000 
1 0.00000000000000000 0.00000000000000000 1.00000000000000000 0.00000000000000000 
2 -18.00000000000000000 -18.00000000000000000 -1.00000000000000000 0.00000000000000000 -0.00000000000000000 -1.00000000000000000 2.00000000000000000
1 0.00000000000000000 0.00000000000000000 1.00000000000000000 0.00000000000000000 
1 0.00000000000000000 -10.00000000000000000 1.00000000000000000 0.00000000000000000 
1 0.00000000000000000 0.00000000000000000 1.00000000000000000 0.00000000000000000 
1 0.00000000000000000 -10.00000000000000000 1.00000000000000000 0.00000000000000000 
1 0.00000000000000000 0.00000000000000000 1.00000000000000000 0.00000000000000000 
1 0.00000000000000000 -35.00000000000000000 1.00000000000000000 0.00000000000000000 
1 0.00000000000000000 0.00000000000000000 1.00000000000000000 0.00000000000000000 
1 0.00000000000000000 -35.00000000000000000 1.00000000000000000 0.00000000000000000 
1 6.28318530717958623 0.00000000000000000 0.00000000000000000 -1.00000000000000000 
1 -4.71238898038468967 0.00000000000000000 1.00000000000000000 0.00000000000000000 
2 -18.00000000000000000 18.00000000000000000 -1.00000000000000000 0.00000000000000000 -0.00000000000000000 -1.00000000000000000 2.00000000000000000
1 0.00000000000000000 0.00000000000000000 1.00000000000000000 0.00000000000000000 
1 0.00000000000000000 -10.00000000000000000 1.00000000000000000 0.00000000000000000 
1 0.00000000000000000 0.00000000000000000 1.00000000000000000 0.00000000000000000 
1 0.00000000000000000 -10.00000000000000000 1.00000000000000000 0.00000000000000000 
1 0.00000000000000000 0.00000000000000000 1.00000000000000000 0.00000000000000000 
1 0.00000000000000000 -35.00000000000000000 1.00000000000000000 0.00000000000000000 
1 0.00000000000000000 0.00000000000000000 1.00000000000000000 0.00000000000000000 
1 0.00000000000000000 -35.00000000000000000 1.00000000000000000 0.00000000000000000 
Curves 32
1 -18.41250000000000142 -0.00000000000000800 -17.41250000000000142 -0.00000000000000000 -1.00000000000000000 0.00000000000000022 
1 -18.41250000000000142 0.00000000000000800 17.41250000000000142 -0.00000000000000000 -1.00000000000000000 0.00000000000000022 
1 -18.41250000000000142 -18.41250000000000497 0.00000000000000000 0.00000000000000000 1.00000000000000000 0.00000000000000000 
1 -17.41250000000000142 -0.00000000000000800 -18.41250000000000142 -0.00000000000000000 -1.00000000000000000 0.00000000000000022 
8 4.71238898038468967 6.28318530717958623
2 -17.41250000000000142 -17.41250000000000142 0.00000000000000773 0.00000000000000000 0.00000000000000044 1.00000000000000000 0.00000000000000000 -1.00000000000000000 0.00000000000000044 1.00000000000000000 0.00000000000000000 -0.00000000000000000 1.00000000000000000
1 -17.41250000000000142 0.00000000000000800 18.41250000000000142 -0.00000000000000000 -1.00000000000000000 0.00000000000000022 
8 1.57079632679489656 3.14159265358979312
2 -17.41250000000000142 17.41250000000000142 -0.00000000000000773 -0.00000000000000000 -0.00000000000000044 -1.00000000000000000 0.00000000000000000 -1.00000000000000000 0.00000000000000044 -1.00000000000000000 0.00000000000000000 0.00000000000000000 1.00000000000000000
1 17.41250000000000142 -0.00000000000000800 -18.41250000000000142 -0.00000000000000000 -1.00000000000000000 0.00000000000000022 
1 18.41250000000000142 -18.41250000000000142 0.00000000000000000 -1.00000000000000000 -0.00000000000000010 0.00000000000000000 
1 17.41250000000000142 0.00000000000000800 18.41250000000000142 -0.00000000000000000 -1.00000000000000000 0.00000000000000022 
1 -18.41250000000000142 18.41250000000000142 0.00000000000000000 1.00000000000000000 0.00000000000000000 0.00000000000000000 
1 18.41250000000000142 -0.00000000000000800 -17.41250000000000142 -0.00000000000000000 -1.00000000000000000 0.00000000000000022 
8 0.00000000000000000 1.57079632679489656
2 17.41250000000000142 -17.41250000000000142 0.00000000000000773 0.00000000000000000 0.00000000000000044 1.00000000000000000 0.00000000000000000 -1.00000000000000000 0.00000000000000044 1.00000000000000000 0.00000000000000000 -0.00000000000000000 1.00000000000000000
1 18.41250000000000142 0.00000000000000800 17.41250000000000142 -0.00000000000000000 -1.00000000000000000 0.00000000000000022 
8 1.57079632679489656 3.14159265358979312
2 17.41250000000000142 17.41250000000000142 -0.00000000000000773 0.00000000000000000 0.00000000000000044 1.00000000000000000 0.00000000000000000 -1.00000000000000000 0.00000000000000044 1.00000000000000000 0.00000000000000000 -0.00000000000000000 1.00000000000000000
1 18.41250000000000142 18.41250000000000142 0.00000000000000000 0.00000000000000000 -1.00000000000000000 0.00000000000000000 
1 -17.99999999999999645 0.00000000000000900 20.00000000000000000 -0.00000000000000000 -1.00000000000000000 0.00000000000000022 
1 18.00000000000000355 0.00000000000000900 20.00000000000000000 -0.00000000000000000 -1.00000000000000000 0.00000000000000022 
1 -19.99999999999999645 20.00000000000000000 0.00000000000000000 1.00000000000000000 0.00000000000000000 0.00000000000000000 
1 -19.99999999999999645 0.00000000000000800 18.00000000000000000 -0.00000000000000000 -1.00000000000000000 0.00000000000000022 
8 3.14159265358979312 4.71238898038468967
2 -17.99999999999999645 18.00000000000000000 -0.00000000000000799 0.00000000000000000 0.00000000000000044 1.00000000000000000 0.00000000000000000 -1.00000000000000000 0.00000000000000044 1.00000000000000000 0.00000000000000000 -0.00000000000000000 2.00000000000000000
1 20.00000000000000355 0.00000000000000800 18.00000000000000000 -0.00000000000000000 -1.00000000000000000 0.00000000000000022 
8 3.14159265358979312 4.71238898038468967
2 18.00000000000000355 18.00000000000000000 -0.00000000000000799 -0.00000000000000000 -0.00000000000000044 -1.00000000000000000 0.00000000000000000 -1.00000000000000000 0.00000000000000044 -1.00000000000000000 0.00000000000000000 0.00000000000000000 2.00000000000000000
1 -19.99999999999999645 -0.00000000000000800 -18.00000000000000000 -0.00000000000000000 -1.00000000000000000 0.00000000000000022 
1 -19.99999999999999645 -20.00000000000000000 0.00000000000000000 0.00000000000000000 1.00000000000000000 0.00000000000000000 
1 20.00000000000000355 -0.00000000000000800 -18.00000000000000000 -0.00000000000000000 -1.00000000000000000 0.00000000000000022 
1 20.00000000000000355 20.00000000000000000 0.00000000000000000 0.00000000000000000 -1.00000000000000000 0.00000000000000000 
1 -17.99999999999999645 -0.00000000000000900 -20.00000000000000000 -0.00000000000000000 -1.00000000000000000 0.00000000000000022 
8 0.00000000000000000 1.57079632679489656
2 -17.99999999999999645 -18.00000000000000000 0.00000000000000799 -0.00000000000000000 -0.00000000000000044 -1.00000000000000000 0.00000000000000000 -1.00000000000000000 0.00000000000000044 -1.00000000000000000 0.00000000000000000 0.00000000000000000 2.00000000000000000
1 18.00000000000000355 -0.00000000000000900 -20.00000000000000000 -0.00000000000000000 -1.00000000000000000 0.00000000000000022 
8 4.71238898038468967 6.28318530717958623
2 18.00000000000000355 -18.00000000000000000 0.00000000000000799 -0.00000000000000000 -0.00000000000000044 -1.00000000000000000 0.00000000000000000 -1.00000000000000000 0.00000000000000044 -1.00000000000000000 0.00000000000000000 0.00000000000000000 2.00000000000000000
1 20.00000000000000355 -20.00000000000000000 0.00000000000000000 -1.00000000000000000 0.00000000000000000 0.00000000000000000 
Polygon3D 0
PolygonOnTriangulations 0
Surfaces 49
1 -18.41250000000000142 0.00000000000000000 -17.41250000000000142 -1.00000000000000000 0.00000000000000000 0.00000000000000000 0.00000000000000000 0.00000000000000000 1.00000000000000000 0.00000000000000000 1.00000000000000000 -0.00000000000000000 
2 -17.41250000000000142 -0.00000000000000773 -17.41250000000000142 -0.00000000000000000 1.00000000000000000 -0.00000000000000044 0.00000000000000000 -0.00000000000000044 -1.00000000000000000 1.00000000000000000 0.00000000000000000 -0.00000000000000000 1.00000000000000000
2 -17.41250000000000142 0.00000000000000773 17.41250000000000142 0.00000000000000000 1.00000000000000000 -0.00000000000000044 0.00000000000000000 -0.00000000000000044 -1.00000000000000000 -1.00000000000000000 0.00000000000000000 -0.00000000000000000 1.00000000000000000
1 17.41250000000000142 0.00000000000000000 -18.41250000000000142 0.00000000000000010 -0.00000000000000022 -1.00000000000000000 -1.00000000000000000 0.00000000000000000 -0.00000000000000010 0.00000000000000000 1.00000000000000000 -0.00000000000000022 
2 -17.41250000000000142 -17.41250000000000142 0.00000000000000773 0.00000000000000000 0.00000000000000044 1.00000000000000000 -1.00000000000000000 0.00000000000000000 0.00000000000000000 0.00000000000000000 -1.00000000000000000 0.00000000000000044 1.00000000000000000
1 0.00000000000000213 0.00000000000000000 0.00000000000000000 0.00000000000000000 1.00000000000000000 -0.00000000000000022 0.00000000000000000 0.00000000000000022 1.00000000000000000 1.00000000000000000 -0.00000000000000000 0.00000000000000000 
2 -17.41250000000000142 -0.00000000000000773 -17.41250000000000142 0.00000000000000000 -1.00000000000000000 0.00000000000000044 0.00000000000000000 -0.00000000000000044 -1.00000000000000000 1.00000000000000000 0.00000000000000000 0.00000000000000000 1.00000000000000000
2 -17.41250000000000142 -0.00000000000000773 -17.41250000000000142 -0.00000000000000000 1.00000000000000000 -0.00000000000000044 0.00000000000000000 -0.00000000000000044 -1.00000000000000000 1.00000000000000000 0.00000000000000000 -0.00000000000000000 1.00000000000000000
2 -17.41250000000000142 -0.00000000000000773 -17.41250000000000142 -0.00000000000000000 1.00000000000000000 -0.00000000000000044 0.00000000000000000 -0.00000000000000044 -1.00000000000000000 1.00000000000000000 0.00000000000000000 -0.00000000000000000 1.00000000000000000
1 -17.41250000000000142 0.00000000000000000 18.41250000000000142 -0.00000000000000000 0.00000000000000022 1.00000000000000000 1.00000000000000000 0.00000000000000000 0.00000000000000000 0.00000000000000000 1.00000000000000000 -0.00000000000000022 
2 -17.41250000000000142 17.41250000000000142 -0.00000000000000773 0.00000000000000000 0.00000000000000044 1.00000000000000000 -1.00000000000000000 0.00000000000000000 0.00000000000000000 -0.00000000000000000 1.00000000000000000 -0.00000000000000044 1.00000000000000000
2 -17.41250000000000142 0.00000000000000773 17.41250000000000142 -0.00000000000000000 -1.00000000000000000 0.00000000000000044 0.00000000000000000 -0.00000000000000044 -1.00000000000000000 -1.00000000000000000 -0.00000000000000000 -0.00000000000000000 1.00000000000000000
2 -17.41250000000000142 0.00000000000000773 17.41250000000000142 0.00000000000000000 1.00000000000000000 -0.00000000000000044 0.00000000000000000 -0.00000000000000044 -1.00000000000000000 -1.00000000000000000 0.00000000000000000 -0.00000000000000000 1.00000000000000000
2 -17.41250000000000142 0.00000000000000773 17.41250000000000142 0.00000000000000000 1.00000000000000000 -0.00000000000000044 0.00000000000000000 -0.00000000000000044 -1.00000000000000000 -1.00000000000000000 0.00000000000000000 -0.00000000000000000 1.00000000000000000
2 17.41250000000000142 -0.00000000000000773 -17.41250000000000142 -0.00000000000000000 1.00000000000000000 -0.00000000000000044 0.00000000000000000 -0.00000000000000044 -1.00000000000000000 1.00000000000000000 0.00000000000000000 -0.00000000000000000 1.00000000000000000
2 17.41250000000000142 0.00000000000000773 17.41250000000000142 -0.00000000000000000 1.00000000000000000 -0.00000000000000044 0.00000000000000000 -0.00000000000000044 -1.00000000000000000 1.00000000000000000 0.00000000000000000 -0.00000000000000000 1.00000000000000000
1 18.41250000000000142 0.00000000000000000 17.41250000000000142 1.00000000000000000 0.00000000000000000 0.00000000000000000 0.00000000000000000 0.00000000000000000 -1.00000000000000000 -0.00000000000000000 1.00000000000000000 0.00000000000000000 
2 17.41250000000000142 -17.41250000000000142 0.00000000000000773 0.00000000000000000 0.00000000000000044 1.00000000000000000 0.00000000000000010 -1.00000000000000000 0.00000000000000044 1.00000000000000000 0.00000000000000010 -0.00000000000000000 1.00000000000000000
2 17.41250000000000142 -0.00000000000000773 -17.41250000000000142 0.00000000000000000 -1.00000000000000000 0.00000000000000044 0.00000000000000000 -0.00000000000000044 -1.00000000000000000 1.00000000000000000 0.00000000000000000 0.00000000000000000 1.00000000000000000
2 17.41250000000000142 -0.00000000000000773 -17.41250000000000142 -0.00000000000000000 1.00000000000000000 -0.00000000000000044 0.00000000000000000 -0.00000000000000044 -1.00000000000000000 1.00000000000000000 0.00000000000000000 -0.00000000000000000 1.00000000000000000
2 17.41250000000000142 -0.00000000000000773 -17.41250000000000142 -0.00000000000000000 1.00000000000000000 -0.00000000000000044 0.00000000000000000 -0.00000000000000044 -1.00000000000000000 1.00000000000000000 0.00000000000000000 -0.00000000000000000 1.00000000000000000
2 17.41250000000000142 17.41250000000000142 -0.00000000000000773 0.00000000000000000 0.00000000000000044 1.00000000000000000 1.00000000000000000 0.00000000000000000 -0.00000000000000000 -0.00000000000000000 1.00000000000000000 -0.00000000000000044 1.00000000000000000
2 17.41250000000000142 0.00000000000000773 17.41250000000000142 0.00000000000000000 -1.00000000000000000 0.00000000000000044 0.00000000000000000 -0.00000000000000044 -1.00000000000000000 1.00000000000000000 0.00000000000000000 0.00000000000000000 1.00000000000000000
2 17.41250000000000142 0.00000000000000773 17.41250000000000142 -0.00000000000000000 1.00000000000000000 -0.00000000000000044 0.00000000000000000 -0.00000000000000044 -1.00000000000000000 1.00000000000000000 0.00000000000000000 -0.00000000000000000 1.00000000000000000
2 17.41250000000000142 0.00000000000000773 17.41250000000000142 -0.00000000000000000 1.00000000000000000 -0.00000000000000044 0.00000000000000000 -0.00000000000000044 -1.00000000000000000 1.00000000000000000 0.00000000000000000 -0.00000000000000000 1.00000000000000000
1 -17.99999999999999645 0.00000000000000000 20.00000000000000000 -0.00000000000000000 0.00000000000000022 1.00000000000000000 1.00000000000000000 0.00000000000000000 0.00000000000000000 0.00000000000000000 1.00000000000000000 -0.00000000000000022 
2 -17.99999999999999645 0.00000000000000799 18.00000000000000000 -0.00000000000000000 1.00000000000000000 -0.00000000000000044 0.00000000000000000 -0.00000000000000044 -1.00000000000000000 1.00000000000000000 0.00000000000000000 -0.00000000000000000 2.00000000000000000
2 18.00000000000000355 0.00000000000000799 18.00000000000000000 0.00000000000000000 1.00000000000000000 -0.00000000000000044 0.00000000000000000 -0.00000000000000044 -1.00000000000000000 -1.00000000000000000 0.00000000000000000 -0.00000000000000000 2.00000000000000000
1 -19.99999999999999645 0.00000000000000000 -18.00000000000000000 -1.00000000000000000 0.00000000000000000 0.00000000000000000 0.00000000000000000 0.00000000000000000 1.00000000000000000 0.00000000000000000 1.00000000000000000 -0.00000000000000000 
2 -17.99999999999999645 18.00000000000000000 -0.00000000000000799 0.00000000000000000 0.00000000000000044 1.00000000000000000 0.00000000000000000 1.00000000000000000 -0.00000000000000044 -1.00000000000000000 0.00000000000000000 0.00000000000000000 2.00000000000000000
2 -17.99999999999999645 0.00000000000000799 18.00000000000000000 0.00000000000000000 -1.00000000000000000 0.00000000000000044 0.00000000000000000 -0.00000000000000044 -1.00000000000000000 1.00000000000000000 0.00000000000000000 0.00000000000000000 2.00000000000000000
2 -17.99999999999999645 0.00000000000000799 18.00000000000000000 -0.00000000000000000 1.00000000000000000 -0.00000000000000044 0.00000000000000000 -0.00000000000000044 -1.00000000000000000 1.00000000000000000 0.00000000000000000 -0.00000000000000000 2.00000000000000000
2 -17.99999999999999645 0.00000000000000799 18.00000000000000000 -0.00000000000000000 1.00000000000000000 -0.00000000000000044 0.00000000000000000 -0.00000000000000044 -1.00000000000000000 1.00000000000000000 0.00000000000000000 -0.00000000000000000 2.00000000000000000
1 20.00000000000000355 0.00000000000000000 18.00000000000000000 1.00000000000000000 0.00000000000000000 0.00000000000000000 0.00000000000000000 0.00000000000000000 -1.00000000000000000 -0.00000000000000000 1.00000000000000000 0.00000000000000000 
2 18.00000000000000355 18.00000000000000000 -0.00000000000000799 0.00000000000000000 0.00000000000000044 1.00000000000000000 0.00000000000000000 1.00000000000000000 -0.00000000000000044 1.00000000000000000 -0.00000000000000000 -0.00000000000000000 2.00000000000000000
2 18.00000000000000355 0.00000000000000799 18.00000000000000000 -0.00000000000000000 -1.00000000000000000 0.00000000000000044 0.00000000000000000 -0.00000000000000044 -1.00000000000000000 -1.00000000000000000 -0.00000000000000000 -0.00000000000000000 2.00000000000000000
2 18.00000000000000355 0.00000000000000799 18.00000000000000000 0.00000000000000000 1.00000000000000000 -0.00000000000000044 0.00000000000000000 -0.00000000000000044 -1.00000000000000000 -1.00000000000000000 0.00000000000000000 -0.00000000000000000 2.00000000000000000
2 18.00000000000000355 0.00000000000000799 18.00000000000000000 0.00000000000000000 1.00000000000000000 -0.00000000000000044 0.00000000000000000 -0.00000000000000044 -1.00000000000000000 -1.00000000000000000 0.00000000000000000 -0.00000000000000000 2.00000000000000000
2 -17.99999999999999645 -0.00000000000000799 -18.00000000000000000 0.00000000000000000 1.00000000000000000 -0.00000000000000044 0.00000000000000000 -0.00000000000000044 -1.00000000000000000 -1.00000000000000000 0.00000000000000000 -0.00000000000000000 2.00000000000000000
2 18.00000000000000355 -0.00000000000000799 -18.00000000000000000 0.00000000000000000 1.00000000000000000 -0.00000000000000044 0.00000000000000000 -0.00000000000000044 -1.00000000000000000 -1.00000000000000000 0.00000000000000000 -0.00000000000000000 2.00000000000000000
1 18.00000000000000355 0.00000000000000000 -20.00000000000000000 -0.00000000000000000 -0.00000000000000022 -1.00000000000000000 -1.00000000000000000 0.00000000000000000 0.00000000000000000 0.00000000000000000 1.00000000000000000 -0.00000000000000022 
2 -17.99999999999999645 -18.00000000000000000 0.00000000000000799 0.00000000000000000 0.00000000000000044 1.00000000000000000 0.00000000000000000 -1.00000000000000000 0.00000000000000044 -1.00000000000000000 -0.00000000000000000 0.00000000000000000 2.00000000000000000
2 -17.99999999999999645 -0.00000000000000799 -18.00000000000000000 -0.00000000000000000 -1.00000000000000000 0.00000000000000044 0.00000000000000000 -0.00000000000000044 -1.00000000000000000 -1.00000000000000000 -0.00000000000000000 -0.00000000000000000 2.00000000000000000
2 -17.99999999999999645 -0.00000000000000799 -18.00000000000000000 0.00000000000000000 1.00000000000000000 -0.00000000000000044 0.00000000000000000 -0.00000000000000044 -1.00000000000000000 -1.00000000000000000 0.00000000000000000 -0.00000000000000000 2.00000000000000000
2 -17.99999999999999645 -0.00000000000000799 -18.00000000000000000 0.00000000000000000 1.00000000000000000 -0.00000000000000044 0.00000000000000000 -0.00000000000000044 -1.00000000000000000 -1.00000000000000000 0.00000000000000000 -0.00000000000000000 2.00000000000000000
2 18.00000000000000355 -18.00000000000000000 0.00000000000000799 0.00000000000000000 0.00000000000000044 1.00000000000000000 1.00000000000000000 0.00000000000000000 -0.00000000000000000 0.00000000000000000 -1.00000000000000000 0.00000000000000044 2.00000000000000000
2 18.00000000000000355 -0.00000000000000799 -18.00000000000000000 -0.00000000000000000 -1.00000000000000000 0.00000000000000044 0.00000000000000000 -0.00000000000000044 -1.00000000000000000 -1.00000000000000000 -0.00000000000000000 -0.00000000000000000 2.00000000000000000
2 18.00000000000000355 -0.00000000000000799 -18.00000000000000000 0.00000000000000000 1.00000000000000000 -0.00000000000000044 0.00000000000000000 -0.00000000000000044 -1.00000000000000000 -1.00000000000000000 0.00000000000000000 -0.00000000000000000 2.00000000000000000
2 18.00000000000000355 -0.00000000000000799 -18.00000000000000000 0.00000000000000000 1.00000000000000000 -0.00000000000000044 0.00000000000000000 -0.00000000000000044 -1.00000000000000000 -1.00000000000000000 0.00000000000000000 -0.00000000000000000 2.00000000000000000
Triangulations 0

TShapes 85
Ve
0.000000100000000
-18.412500000000001 -17.412500000000001 0.000000000000008
0 0

0101101
*
Ed
 0.000000100000000 1 1 0
1  1 0 0.000000000000000 35.000000000000000
2  1 2 0 0.000000000000000 35.000000000000000
4 C1 1 0 2 0
0

0101000
+85 10 -85 12 *
Ve
0.000000100000000
-18.412500000000001 17.412500000000001 -0.000000000000008
0 0

0101101
*
Ed
 0.000000100000000 1 1 0
1  2 0 0.000000000000000 35.000000000000000
2  2 3 0 0.000000000000000 35.000000000000000
4 C1 1 0 3 0
0

0101000
+83 10 -83 12 *
Ed
 0.000000100000000 1 1 0
1  3 0 1.000000000000004 35.825000000000003
0

0101000
+85 19 -83 19 *
Wi

0101100
+84 0 -82 0 -81 18 +81 20 *
Fa
0  0.000000100000000 1 0

0111000
+80 0 *
Ve
0.000000100000000
-17.412500000000001 -18.412500000000001 0.000000000000008
0 0

0101101
*
Ed
 0.000000100000000 1 1 0
1  4 0 0.000000000000000 35.000000000000000
2  3 2 0 0.000000000000000 35.000000000000000
4 C1 2 0 4 0
0

0101000
+78 10 -78 12 *
Ed
 0.000000100000000 1 1 0
1  5 0 4.712388980384690 6.283185307179586
2  4 5 0 4.712388980384690 6.283185307179586
2  5 6 21 4.712388980384690 6.283185307179586
2  6 7 24 4.712388980384690 6.283185307179586
2  7 7 26 4.712388980384690 6.283185307179586
2  8 8 29 4.712388980384690 6.283185307179586
2  9 8 31 4.712388980384690 6.283185307179586
2  10 9 34 4.712388980384690 6.283185307179586
2  11 9 36 4.712388980384690 6.283185307179586
2  12 2 37 4.712388980384690 6.283185307179586
2  13 2 38 4.712388980384690 6.283185307179586
0

0101000
+85 0 -78 0 *
Wi

0101100
+84 0 -77 0 -76 10 +76 12 *
Fa
0  0.000000100000000 2 0

0111000
+75 0 *
Ve
0.000000100000000
-17.412500000000001 18.412500000000001 -0.000000000000008
0 0

0101101
*
Ed
 0.000000100000000 1 1 0
1  6 0 0.000000000000000 35.000000000000000
2  14 3 0 0.000000000000000 35.000000000000000
4 C1 3 0 10 0
0

0101000
+73 10 -73 12 *
Ed
 0.000000100000000 1 1 0
1  7 0 1.570796326794897 3.141592653589793
2  15 11 0 1.570796326794897 3.141592653589793
2  16 6 21 1.570796326794897 3.141592653589793
2  17 12 24 1.570796326794897 3.141592653589793
2  18 12 26 1.570796326794897 3.141592653589793
2  19 13 29 1.570796326794897 3.141592653589793
2  20 13 31 1.570796326794897 3.141592653589793
2  21 14 34 1.570796326794897 3.141592653589793
2  22 14 36 1.570796326794897 3.141592653589793
2  23 3 37 1.570796326794897 3.141592653589793
2  24 3 38 1.570796326794897 3.141592653589793
0

0101000
+83 0 -73 0 *
Wi

0101100
+82 0 -72 0 -71 10 +71 12 *
Fa
0  0.000000100000000 3 0

0111000
+70 0 *
Ve
0.000000100000000
17.412500000000001 -18.412500000000001 0.000000000000008
0 0

0101101
*
Ed
 0.000000100000000 1 1 0
1  8 0 0.000000000000000 35.000000000000000
2  25 15 0 0.000000000000000 35.000000000000000
4 C1 4 0 15 0
0

0101000
+68 10 -68 12 *
Ed
 0.000000100000000 1 1 0
1  9 0 1.000000000000000 35.825000000000003
0

0101000
+68 19 -78 19 *
Wi

0101100
+67 0 -77 0 -66 18 +66 20 *
Fa
0  0.000000100000000 4 0

0111000
+65 0 *
Ve
0.000000100000000
17.412500000000001 18.412500000000001 -0.000000000000008
0 0

0101101
*
Ed
 0.000000100000000 1 1 0
1  10 0 0.000000000000000 35.000000000000000
2  26 16 0 0.000000000000000 35.000000000000000
4 C1 10 0 16 0
0

0101000
+63 10 -63 12 *
Ed
 0.000000100000000 1 1 0
1  11 0 1.000000000000000 35.825000000000003
0

0101000
+73 19 -63 19 *
Wi

0101100
+72 0 -62 0 -61 18 +61 20 *
Fa
0  0.000000100000000 10 0

0111000
+60 0 *
Ve
0.000000100000000
18.412500000000001 -17.412500000000001 0.000000000000008
0 0

0101101
*
Ed
 0.000000100000000 1 1 0
1  12 0 0.000000000000000 35.000000000000000
2  27 15 0 0.000000000000000 35.000000000000000
4 C1 15 0 17 0
0

0101000
+58 10 -58 12 *
Ed
 0.000000100000000 1 1 0
1  13 0 0.000000000000000 1.570796326794897
2  28 18 0 0.000000000000000 1.570796326794897
2  29 6 21 0.000000000000000 1.570796326794897
2  30 19 24 0.000000000000000 1.570796326794897
2  31 19 26 0.000000000000000 1.570796326794897
2  32 20 29 0.000000000000000 1.570796326794897
2  33 20 31 0.000000000000000 1.570796326794897
2  34 21 34 0.000000000000000 1.570796326794897
2  35 21 36 0.000000000000000 1.570796326794897
2  36 15 37 0.000000000000000 1.570796326794897
2  37 15 38 0.000000000000000 1.570796326794897
0

0101000
+68 0 -58 0 *
Wi

0101100
+67 0 -57 0 -56 10 +56 12 *
Fa
0  0.000000100000000 15 0

0111000
+55 0 *
Ve
0.000000100000000
18.412500000000001 17.412500000000001 -0.000000000000008
0 0

0101101
*
Ed
 0.000000100000000 1 1 0
1  14 0 0.000000000000000 35.000000000000000
2  38 16 0 0.000000000000000 35.000000000000000
4 C1 16 0 17 0
0

0101000
+53 10 -53 12 *
Ed
 0.000000100000000 1 1 0
1  15 0 1.570796326794897 3.141592653589793
2  39 22 0 1.570796326794897 3.141592653589793
2  40 6 21 1.570796326794897 3.141592653589793
2  41 23 24 1.570796326794897 3.141592653589793
2  42 23 26 1.570796326794897 3.141592653589793
2  43 24 29 1.570796326794897 3.141592653589793
2  44 24 31 1.570796326794897 3.141592653589793
2  45 25 34 1.570796326794897 3.141592653589793
2  46 25 36 1.570796326794897 3.141592653589793
2  47 16 37 1.570796326794897 3.141592653589793
2  48 16 38 1.570796326794897 3.141592653589793
0

0101000
+53 0 -63 0 *
Wi

0101100
+52 0 -62 0 -51 10 +51 12 *
Fa
0  0.000000100000000 16 0

0111000
+50 0 *
Ed
 0.000000100000000 1 1 0
1  16 0 1.000000000000000 35.825000000000003
0

0101000
+53 19 -58 19 *
Wi

0101100
+52 0 -57 0 -48 18 +48 20 *
Fa
0  0.000000100000000 17 0

0111000
+47 0 *
Ve
0.000000100000000
-17.999999999999996 20.000000000000000 -0.000000000000009
0 0

0101101
*
Ed
 0.000000100000000 1 1 0
1  17 0 0.000000000000000 35.000000000000000
2  49 27 0 0.000000000000000 35.000000000000000
4 G1 26 0 27 0
0

0101000
+45 39 -45 40 *
Ve
0.000000100000000
18.000000000000004 20.000000000000000 -0.000000000000009
0 0

0101101
*
Ed
 0.000000100000000 1 1 0
1  18 0 0.000000000000000 35.000000000000000
2  50 28 0 0.000000000000000 35.000000000000000
4 G1 26 0 28 0
0

0101000
+43 39 -43 40 *
Ed
 0.000000100000000 1 1 0
1  19 0 2.000000000000000 38.000000000000000
0

0101000
+45 41 -43 41 *
Wi

0101100
+44 0 -42 0 -41 18 +41 20 *
Fa
0  0.000000100000000 26 0

0111000
+40 0 *
Ve
0.000000100000000
-19.999999999999996 18.000000000000000 -0.000000000000008
0 0

0101101
*
Ed
 0.000000100000000 1 1 0
1  20 0 0.000000000000000 35.000000000000000
2  51 27 0 0.000000000000000 35.000000000000000
4 G1 27 0 29 0
0

0101000
+38 39 -38 40 *
Ed
 0.000000100000000 1 1 0
1  21 0 3.141592653589793 4.712388980384690
2  52 30 0 3.141592653589793 4.712388980384690
2  53 6 42 3.141592653589793 4.712388980384690
2  54 31 43 3.141592653589793 4.712388980384690
2  55 31 44 3.141592653589793 4.712388980384690
2  56 32 45 3.141592653589793 4.712388980384690
2  57 32 46 3.141592653589793 4.712388980384690
2  58 33 47 3.141592653589793 4.712388980384690
2  59 33 48 3.141592653589793 4.712388980384690
2  60 27 49 3.141592653589793 4.712388980384690
2  61 27 50 3.141592653589793 4.712388980384690
0

0101000
+45 0 -38 0 *
Wi

0101100
+44 0 -37 0 -36 39 +36 40 *
Fa
0  0.000000100000000 27 0

0111000
+35 0 *
Ve
0.000000100000000
20.000000000000004 18.000000000000000 -0.000000000000008
0 0

0101101
*
Ed
 0.000000100000000 1 1 0
1  22 0 0.000000000000000 35.000000000000000
2  62 28 0 0.000000000000000 35.000000000000000
4 G1 28 0 34 0
0

0101000
+33 39 -33 40 *
Ed
 0.000000100000000 1 1 0
1  23 0 3.141592653589793 4.712388980384690
2  63 35 0 3.141592653589793 4.712388980384690
2  64 6 42 3.141592653589793 4.712388980384690
2  65 36 43 3.141592653589793 4.712388980384690
2  66 36 44 3.141592653589793 4.712388980384690
2  67 37 45 3.141592653589793 4.712388980384690
2  68 37 46 3.141592653589793 4.712388980384690
2  69 38 47 3.141592653589793 4.712388980384690
2  70 38 48 3.141592653589793 4.712388980384690
2  71 28 49 3.141592653589793 4.712388980384690
2  72 28 50 3.141592653589793 4.712388980384690
0

0101000
+43 0 -33 0 *
Wi

0101100
+42 0 -32 0 -31 39 +31 40 *
Fa
0  0.000000100000000 28 0

0111000
+30 0 *
Ve
0.000000100000000
-19.999999999999996 -18.000000000000000 0.000000000000008
0 0

0101101
*
Ed
 0.000000100000000 1 1 0
1  24 0 0.000000000000000 35.000000000000000
2  73 39 0 0.000000000000000 35.000000000000000
4 G1 29 0 39 0
0

0101000
+28 39 -28 40 *
Ed
 0.000000100000000 1 1 0
1  25 0 2.000000000000000 38.000000000000000
0

0101000
+28 41 -38 41 *
Wi

0101100
+27 0 -37 0 -26 18 +26 20 *
Fa
0  0.000000100000000 29 0

0111000
+25 0 *
Ve
0.000000100000000
20.000000000000004 -18.000000000000000 0.000000000000008
0 0

0101101
*
Ed
 0.000000100000000 1 1 0
1  26 0 0.000000000000000 35.000000000000000
2  74 40 0 0.000000000000000 35.000000000000000
4 G1 34 0 40 0
0

0101000
+23 39 -23 40 *
Ed
 0.000000100000000 1 1 0
1  27 0 2.000000000000000 38.000000000000000
0

0101000
+33 41 -23 41 *
Wi

0101100
+32 0 -22 0 -21 18 +21 20 *
Fa
0  0.000000100000000 34 0

0111000
+20 0 *
Ve
0.000000100000000
-17.999999999999996 -20.000000000000000 0.000000000000009
0 0

0101101
*
Ed
 0.000000100000000 1 1 0
1  28 0 0.000000000000000 35.000000000000000
2  75 39 0 0.000000000000000 35.000000000000000
4 G1 39 0 41 0
0

0101000
+18 39 -18 40 *
Ed
 0.000000100000000 1 1 0
1  29 0 0.000000000000000 1.570796326794897
2  76 42 0 0.000000000000000 1.570796326794897
2  77 6 42 0.000000000000000 1.570796326794897
2  78 43 43 0.000000000000000 1.570796326794897
2  79 43 44 0.000000000000000 1.570796326794897
2  80 44 45 0.000000000000000 1.570796326794897
2  81 44 46 0.000000000000000 1.570796326794897
2  82 45 47 0.000000000000000 1.570796326794897
2  83 45 48 0.000000000000000 1.570796326794897
2  84 39 49 0.000000000000000 1.570796326794897
2  85 39 50 0.000000000000000 1.570796326794897
0

0101000
+18 0 -28 0 *
Wi

0101100
+17 0 -27 0 -16 39 +16 40 *
Fa
0  0.000000100000000 39 0

0111000
+15 0 *
Ve
0.000000100000000
18.000000000000004 -20.000000000000000 0.000000000000009
0 0

0101101
*
Ed
 0.000000100000000 1 1 0
1  30 0 0.000000000000000 35.000000000000000
2  86 40 0 0.000000000000000 35.000000000000000
4 G1 40 0 41 0
0

0101000
+13 39 -13 40 *
Ed
 0.000000100000000 1 1 0
1  31 0 4.712388980384690 6.283185307179586
2  87 46 0 4.712388980384690 6.283185307179586
2  88 6 42 4.712388980384690 6.283185307179586
2  89 47 43 4.712388980384690 6.283185307179586
2  90 47 44 4.712388980384690 6.283185307179586
2  91 48 45 4.712388980384690 6.283185307179586
2  92 48 46 4.712388980384690 6.283185307179586
2  93 49 47 4.712388980384690 6.283185307179586
2  94 49 48 4.712388980384690 6.283185307179586
2  95 40 49 4.712388980384690 6.283185307179586
2  96 40 50 4.712388980384690 6.283185307179586
0

0101000
+23 0 -13 0 *
Wi

0101100
+22 0 -12 0 -11 39 +11 40 *
Fa
0  0.000000100000000 40 0

0111000
+10 0 *
Ed
 0.000000100000000 1 1 0
1  32 0 2.000000000000000 38.000000000000000
0

0101000
+13 41 -18 41 *
Wi

0101100
+12 0 -17 0 -8 18 +8 20 *
Fa
0  0.000000100000000 41 0

0111000
+7 0 *
Wi

0101100
-81 53 +76 0 -71 0 -66 53 -61 53 +56 0 +51 0 -48 53 *
Wi

0101100
+41 55 -36 0 +31 0 +26 55 +21 55 +16 0 +11 0 +8 55 *
Fa
0  0.000000100000000 6 0

0111000
+5 52 +4 54 *
Sh

0101100
-79 0 +74 0 -69 0 -64 0 -59 0 +54 0 +49 0 -46 0 +39 0 -34 0 
+29 0 +24 0 +19 0 +14 0 +9 0 +6 0 +3 51 -3 56 *
So

1100000
+2 0 *

+1 0 