
CASCADE Topology V1, (c) Matra-Datavision
Locations 63
1
1.000000000000000 0.000000000000000 0.000000000000000 0.000000000000000 
0.000000000000000 1.000000000000000 0.000000000000000 0.000000000000000 
0.000000000000000 0.000000000000000 1.000000000000000 0.000000000000000 
1
1.000000000000000 0.000000000000000 0.000000000000000 0.000000000000000 
0.000000000000000 1.000000000000000 0.000000000000000 0.000000000000000 
0.000000000000000 0.000000000000000 1.000000000000000 0.000000000000000 
1
1.000000000000000 0.000000000000000 0.000000000000000 0.000000000000000 
0.000000000000000 1.000000000000000 0.000000000000000 0.000000000000000 
0.000000000000000 0.000000000000000 1.000000000000000 0.000000000000000 
1
1.000000000000000 0.000000000000000 0.000000000000000 0.000000000000000 
0.000000000000000 1.000000000000000 0.000000000000000 0.000000000000000 
0.000000000000000 0.000000000000000 1.000000000000000 0.000000000000000 
1
1.000000000000000 0.000000000000000 0.000000000000000 0.000000000000000 
0.000000000000000 1.000000000000000 0.000000000000000 0.000000000000000 
0.000000000000000 0.000000000000000 1.000000000000000 0.000000000000000 
2  2 1 3 -1 4 1 5 -1 0
1
1.000000000000000 0.000000000000000 0.000000000000000 0.000000000000000 
0.000000000000000 1.000000000000000 0.000000000000000 0.000000000000000 
0.000000000000000 0.000000000000000 1.000000000000000 0.000000000000000 
2  7 -1 5 1 4 -1 3 1 2 -1 0
1
1.000000000000000 0.000000000000000 0.000000000000000 0.000000000000000 
0.000000000000000 1.000000000000000 0.000000000000000 0.000000000000000 
0.000000000000000 0.000000000000000 1.000000000000000 0.000000000000000 
1
1.000000000000000 0.000000000000000 0.000000000000000 0.000000000000000 
0.000000000000000 0.000000000000000 -1.000000000000000 0.000000000000000 
0.000000000000000 1.000000000000000 0.000000000000000 0.000000000000000 
1
1.000000000000000 0.000000000000000 0.000000000000000 0.000000000000000 
0.000000000000000 -0.000000000000000 -1.000000000000000 0.000000000000000 
0.000000000000000 1.000000000000000 -0.000000000000000 0.000000000000000 
1
1.000000000000000 0.000000000000000 0.000000000000000 0.000000000000000 
0.000000000000000 1.000000000000000 0.000000000000000 0.000000000000000 
0.000000000000000 0.000000000000000 1.000000000000000 0.000000000000000 
1
1.000000000000000 0.000000000000000 0.000000000000000 0.000000000000000 
0.000000000000000 1.000000000000000 0.000000000000000 0.000000000000000 
0.000000000000000 0.000000000000000 1.000000000000000 0.000000000000000 
1
1.000000000000000 0.000000000000000 0.000000000000000 0.000000000000000 
0.000000000000000 1.000000000000000 0.000000000000000 0.000000000000000 
0.000000000000000 0.000000000000000 1.000000000000000 0.000000000000000 
1
1.000000000000000 0.000000000000000 0.000000000000000 0.000000000000000 
0.000000000000000 0.000000000000000 -1.000000000000000 0.000000000000000 
0.000000000000000 1.000000000000000 0.000000000000000 0.000000000000000 
1
1.000000000000000 0.000000000000000 0.000000000000000 0.000000000000000 
0.000000000000000 1.000000000000000 0.000000000000000 0.000000000000000 
0.000000000000000 0.000000000000000 1.000000000000000 0.000000000000000 
1
1.000000000000000 0.000000000000000 0.000000000000000 0.000000000000000 
0.000000000000000 1.000000000000000 0.000000000000000 0.000000000000000 
0.000000000000000 0.000000000000000 1.000000000000000 0.000000000000000 
1
1.000000000000000 0.000000000000000 0.000000000000000 0.000000000000000 
0.000000000000000 1.000000000000000 0.000000000000000 0.000000000000000 
0.000000000000000 0.000000000000000 1.000000000000000 0.000000000000000 
1
1.000000000000000 0.000000000000000 0.000000000000000 0.000000000000000 
0.000000000000000 1.000000000000000 0.000000000000000 0.000000000000000 
0.000000000000000 0.000000000000000 1.000000000000000 0.000000000000000 
1
1.000000000000000 0.000000000000000 0.000000000000000 0.000000000000000 
0.000000000000000 1.000000000000000 0.000000000000000 0.000000000000000 
0.000000000000000 0.000000000000000 1.000000000000000 0.000000000000000 
1
1.000000000000000 0.000000000000000 0.000000000000000 0.000000000000000 
0.000000000000000 1.000000000000000 0.000000000000000 0.000000000000000 
0.000000000000000 0.000000000000000 1.000000000000000 0.000000000000000 
1
1.000000000000000 0.000000000000000 0.000000000000000 0.000000000000000 
0.000000000000000 1.000000000000000 0.000000000000000 0.000000000000000 
0.000000000000000 0.000000000000000 1.000000000000000 0.000000000000000 
2  9 1 10 1 11 -1 12 1 13 1 14 1 15 1 16 1 17 1 18 1 19 1 20 1 21 1 22 -1 0
2  7 -1 5 1 4 -1 3 1 2 -1 22 1 21 -1 20 -1 19 -1 18 -1 17 -1 16 -1 15 -1 14 -1 13 -1 12 -1 11 1 10 -1 9 -1 0
1
1.000000000000000 0.000000000000000 0.000000000000000 -0.000000000000000 
0.000000000000000 1.000000000000000 0.000000000000000 -35.000000000000000 
0.000000000000000 0.000000000000000 1.000000000000000 0.000000000000008 
2  9 1 10 1 11 -1 12 1 13 1 14 1 15 1 16 1 17 1 18 1 19 1 20 1 21 1 22 -1 25 1 0
2  7 -1 5 1 4 -1 3 1 2 -1 25 -1 22 1 21 -1 20 -1 19 -1 18 -1 17 -1 16 -1 15 -1 14 -1 13 -1 12 -1 11 1 10 -1 9 -1 0
2  14 1 15 1 16 1 17 1 18 1 19 1 20 1 21 1 22 -1 0
2  22 1 21 -1 20 -1 19 -1 18 -1 17 -1 16 -1 15 -1 14 -1 0
2  7 -1 5 1 4 -1 3 1 2 -1 22 1 21 -1 20 -1 19 -1 18 -1 17 -1 16 -1 15 -1 14 -1 0
2  14 1 15 1 16 1 17 1 18 1 19 1 20 1 21 1 22 -1 25 1 0
2  25 -1 22 1 21 -1 20 -1 19 -1 18 -1 17 -1 16 -1 15 -1 14 -1 0
2  7 -1 5 1 4 -1 3 1 2 -1 25 -1 22 1 21 -1 20 -1 19 -1 18 -1 17 -1 16 -1 15 -1 14 -1 0
2  11 -1 12 1 13 1 14 1 15 1 16 1 17 1 18 1 19 1 20 1 21 1 22 -1 2 1 3 -1 4 1 5 -1 0
2  13 -1 12 -1 11 1 0
2  9 1 10 1 11 -1 12 1 13 1 0
2  12 -1 11 1 0
2  9 1 10 1 11 -1 12 1 0
2  22 1 21 -1 20 -1 19 -1 18 -1 17 -1 16 -1 15 -1 14 -1 13 -1 0
2  7 -1 5 1 4 -1 3 1 2 -1 22 1 21 -1 20 -1 19 -1 18 -1 17 -1 16 -1 15 -1 14 -1 13 -1 0
2  11 -1 12 1 13 1 14 1 15 1 16 1 17 1 18 1 19 1 20 1 21 1 22 -1 25 1 2 1 3 -1 4 1 5 -1 0
2  25 -1 22 1 21 -1 20 -1 19 -1 18 -1 17 -1 16 -1 15 -1 14 -1 13 -1 0
2  7 -1 5 1 4 -1 3 1 2 -1 25 -1 22 1 21 -1 20 -1 19 -1 18 -1 17 -1 16 -1 15 -1 14 -1 13 -1 0
2  4 1 5 -1 0
2  2 1 3 -1 0
2  9 1 10 1 11 -1 12 1 13 1 14 1 15 1 16 1 17 1 18 1 19 1 20 1 21 1 22 -1 2 1 3 -1 0
2  9 1 10 1 11 -1 12 1 13 1 14 1 15 1 16 1 17 1 18 1 19 1 20 1 21 1 22 -1 25 1 2 1 3 -1 0
2  7 -1 5 1 4 -1 0
2  9 1 10 1 11 -1 12 1 13 1 14 1 15 1 16 1 17 1 18 1 19 1 20 1 21 1 22 -1 2 1 3 -1 4 1 5 -1 0
2  9 1 10 1 11 -1 12 1 13 1 14 1 15 1 16 1 17 1 18 1 19 1 20 1 21 1 22 -1 25 1 2 1 3 -1 4 1 5 -1 0
2  7 -1 0
1
1.000000000000000 0.000000000000000 0.000000000000000 0.000000000000000 
0.000000000000000 1.000000000000000 0.000000000000000 0.000000000000000 
0.000000000000000 0.000000000000000 1.000000000000000 0.000000000000000 
1
1.000000000000000 0.000000000000000 0.000000000000000 0.000000000000000 
0.000000000000000 1.000000000000000 0.000000000000000 0.000000000000004 
0.000000000000000 -0.000000000000000 1.000000000000000 20.000000000000000 
2  52 1 53 1 5 -1 0
2  5 1 53 -1 52 -1 0
2  7 -1 5 1 53 -1 52 -1 0
2  13 1 14 1 15 1 16 1 17 1 18 1 19 1 20 1 21 1 22 -1 0
2  13 1 14 1 15 1 16 1 17 1 18 1 19 1 20 1 21 1 22 -1 25 1 0
1
1.000000000000000 0.000000000000000 0.000000000000000 0.000000000000000 
0.000000000000000 1.000000000000000 0.000000000000000 0.000000000000000 
0.000000000000000 0.000000000000000 1.000000000000000 0.000000000000000 
1
1.000000000000000 0.000000000000000 0.000000000000000 0.000000000000000 
0.000000000000000 -1.000000000000000 -0.000000000000000 -0.000000000000004 
0.000000000000000 0.000000000000000 -1.000000000000000 -20.000000000000000 
2  59 1 60 1 3 -1 0
2  3 1 60 -1 59 -1 0
2  7 -1 5 1 4 -1 3 1 60 -1 59 -1 0
Curve2ds 44
1 4.71238898038468967 0.00000000000000000 0.00000000000000000 -1.00000000000000000 
1 1.57079632679489700 0.00000000000000000 0.00000000000000000 -1.00000000000000000 
1 6.28318530717958623 0.00000000000000000 0.00000000000000000 -1.00000000000000000 
1 0.00000000000000000 0.00000000000000000 1.00000000000000000 0.00000000000000000 
1 0.00000000000000000 -35.00000000000000000 1.00000000000000000 0.00000000000000000 
1 3.14159265358979312 0.00000000000000000 0.00000000000000000 -1.00000000000000000 
1 0.00000000000000000 0.00000000000000000 1.00000000000000000 0.00000000000000000 
1 0.00000000000000000 -35.00000000000000000 1.00000000000000000 0.00000000000000000 
1 0.00000000000000000 0.00000000000000000 1.00000000000000000 0.00000000000000000 
1 0.00000000000000000 0.00000000000000000 1.00000000000000000 0.00000000000000000 
1 0.00000000000000000 0.00000000000000000 1.00000000000000000 0.00000000000000000 
1 0.00000000000000000 0.00000000000000000 1.00000000000000000 0.00000000000000000 
1 0.00000000000000000 0.00000000000000000 1.00000000000000000 0.00000000000000000 
1 0.00000000000000000 0.00000000000000000 1.00000000000000000 0.00000000000000000 
1 0.00000000000000000 -35.00000000000000000 1.00000000000000000 0.00000000000000000 
1 0.00000000000000000 -35.00000000000000000 1.00000000000000000 0.00000000000000000 
1 0.00000000000000000 -35.00000000000000000 1.00000000000000000 0.00000000000000000 
1 0.00000000000000000 -35.00000000000000000 1.00000000000000000 0.00000000000000000 
1 0.00000000000000000 -35.00000000000000000 1.00000000000000000 0.00000000000000000 
1 0.00000000000000000 -35.00000000000000000 1.00000000000000000 0.00000000000000000 
1 0.00000000000000000 0.00000000000000000 0.00000000000000000 -1.00000000000000000 
1 0.00000000000000000 -1.58749999999999858 1.00000000000000000 0.00000000000000000 
1 3.14159265358979312 0.00000000000000000 0.00000000000000000 -1.00000000000000000 
1 0.00000000000000000 -1.58749999999999858 1.00000000000000000 0.00000000000000000 
1 0.00000000000000000 -1.58749999999999858 1.00000000000000000 0.00000000000000000 
1 1.57079632679489700 0.00000000000000000 0.00000000000000000 -1.00000000000000000 
1 1.57079632679489700 0.00000000000000000 0.00000000000000000 -1.00000000000000000 
1 3.14159265358979312 0.00000000000000000 0.00000000000000000 -1.00000000000000000 
1 3.14159265358979312 0.00000000000000000 0.00000000000000000 -1.00000000000000000 
1 0.00000000000000000 0.00000000000000000 1.00000000000000000 0.00000000000000000 
1 0.00000000000000000 0.00000000000000000 1.00000000000000000 0.00000000000000000 
1 4.71238898038468967 0.00000000000000000 0.00000000000000000 -1.00000000000000000 
1 4.71238898038468967 0.00000000000000000 0.00000000000000000 -1.00000000000000000 
1 1.57079632679489700 0.00000000000000000 0.00000000000000000 -1.00000000000000000 
1 4.71238898038468967 0.00000000000000000 0.00000000000000000 -1.00000000000000000 
1 0.00000000000000000 0.00000000000000000 0.00000000000000000 -1.00000000000000000 
1 6.28318530717958623 0.00000000000000000 0.00000000000000000 -1.00000000000000000 
1 0.00000000000000000 0.00000000000000000 1.00000000000000000 0.00000000000000000 
1 0.00000000000000000 0.00000000000000000 0.00000000000000000 -1.00000000000000000 
1 6.28318530717958623 0.00000000000000000 0.00000000000000000 -1.00000000000000000 
1 0.00000000000000000 0.00000000000000000 0.00000000000000000 -1.00000000000000000 
1 6.28318530717958623 0.00000000000000000 0.00000000000000000 -1.00000000000000000 
1 0.00000000000000000 0.00000000000000000 0.00000000000000000 -1.00000000000000000 
1 6.28318530717958623 0.00000000000000000 0.00000000000000000 -1.00000000000000000 
Curves 57
1 -18.41250000000000142 -0.00000000000000800 -17.41250000000000142 0.00000000000000000 -1.00000000000000000 0.00000000000000022 
1 -18.41250000000000142 0.00000000000000800 17.41250000000000142 0.00000000000000000 -1.00000000000000000 0.00000000000000022 
1 -18.41250000000000142 -18.41250000000000497 0.00000000000000000 0.00000000000000000 1.00000000000000000 0.00000000000000000 
1 -18.41250000000000142 -18.41250000000000497 0.00000000000000000 0.00000000000000000 1.00000000000000000 0.00000000000000000 
1 -17.41250000000000142 -0.00000000000000800 -18.41250000000000142 0.00000000000000000 -1.00000000000000000 0.00000000000000022 
8 4.71238898038468967 6.28318530717958623
2 -17.41250000000000142 -17.41250000000000142 0.00000000000000773 -0.00000000000000000 0.00000000000000044 1.00000000000000000 0.00000000000000000 -1.00000000000000000 0.00000000000000044 1.00000000000000000 0.00000000000000000 0.00000000000000000 1.00000000000000000
8 4.71238898038468967 6.28318530717958623
2 -17.41250000000000142 -17.41250000000000142 0.00000000000000773 -0.00000000000000000 0.00000000000000044 1.00000000000000000 0.00000000000000000 -1.00000000000000000 0.00000000000000044 1.00000000000000000 0.00000000000000000 0.00000000000000000 1.00000000000000000
1 -17.41250000000000142 0.00000000000000800 18.41250000000000142 0.00000000000000000 -1.00000000000000000 0.00000000000000022 
8 1.57079632679489656 3.14159265358979312
2 -17.41250000000000142 17.41250000000000142 -0.00000000000000773 -0.00000000000000000 -0.00000000000000044 -1.00000000000000000 0.00000000000000000 -1.00000000000000000 0.00000000000000044 -1.00000000000000000 0.00000000000000000 0.00000000000000000 1.00000000000000000
8 1.57079632679489656 3.14159265358979312
2 -17.41250000000000142 17.41250000000000142 -0.00000000000000773 -0.00000000000000000 -0.00000000000000044 -1.00000000000000000 0.00000000000000000 -1.00000000000000000 0.00000000000000044 -1.00000000000000000 0.00000000000000000 0.00000000000000000 1.00000000000000000
1 18.41250000000000142 -18.41250000000000142 0.00000000000000000 -1.00000000000000000 -0.00000000000000010 0.00000000000000000 
1 -18.41250000000000142 18.41250000000000142 0.00000000000000000 1.00000000000000000 0.00000000000000000 0.00000000000000000 
8 0.00000000000000000 1.57079632679489656
2 17.41250000000000142 -17.41250000000000142 0.00000000000000773 -0.00000000000000000 0.00000000000000044 1.00000000000000000 0.00000000000000000 -1.00000000000000000 0.00000000000000044 1.00000000000000000 0.00000000000000000 0.00000000000000000 1.00000000000000000
8 1.57079632679489656 3.14159265358979312
2 17.41250000000000142 17.41250000000000142 -0.00000000000000773 -0.00000000000000000 0.00000000000000044 1.00000000000000000 0.00000000000000000 -1.00000000000000000 0.00000000000000044 1.00000000000000000 0.00000000000000000 0.00000000000000000 1.00000000000000000
1 18.41250000000000142 18.41250000000000142 0.00000000000000000 0.00000000000000000 -1.00000000000000000 0.00000000000000000 
1 -19.99999999999999645 20.00000000000000000 0.00000000000000000 1.00000000000000000 0.00000000000000000 0.00000000000000000 
8 3.14159265358979312 4.71238898038468967
2 -17.99999999999999645 18.00000000000000000 -0.00000000000000799 -0.00000000000000000 0.00000000000000044 1.00000000000000000 0.00000000000000000 -1.00000000000000000 0.00000000000000044 1.00000000000000000 0.00000000000000000 0.00000000000000000 2.00000000000000000
8 3.14159265358979312 4.71238898038468967
2 18.00000000000000355 18.00000000000000000 -0.00000000000000799 -0.00000000000000000 -0.00000000000000044 -1.00000000000000000 0.00000000000000000 -1.00000000000000000 0.00000000000000044 -1.00000000000000000 0.00000000000000000 0.00000000000000000 2.00000000000000000
1 -19.99999999999999645 -20.00000000000000000 0.00000000000000000 0.00000000000000000 1.00000000000000000 0.00000000000000000 
1 20.00000000000000355 20.00000000000000000 0.00000000000000000 0.00000000000000000 -1.00000000000000000 0.00000000000000000 
8 0.00000000000000000 1.57079632679489656
2 -17.99999999999999645 -18.00000000000000000 0.00000000000000799 -0.00000000000000000 -0.00000000000000044 -1.00000000000000000 0.00000000000000000 -1.00000000000000000 0.00000000000000044 -1.00000000000000000 0.00000000000000000 0.00000000000000000 2.00000000000000000
8 4.71238898038468967 6.28318530717958623
2 18.00000000000000355 -18.00000000000000000 0.00000000000000799 -0.00000000000000000 -0.00000000000000044 -1.00000000000000000 0.00000000000000000 -1.00000000000000000 0.00000000000000044 -1.00000000000000000 0.00000000000000000 0.00000000000000000 2.00000000000000000
1 20.00000000000000355 -20.00000000000000000 0.00000000000000000 -1.00000000000000000 0.00000000000000000 0.00000000000000000 
1 18.41250000000000142 -18.41250000000000142 0.00000000000000000 -1.00000000000000000 -0.00000000000000010 0.00000000000000000 
1 -18.41250000000000142 18.41250000000000142 0.00000000000000000 1.00000000000000000 0.00000000000000000 0.00000000000000000 
8 0.00000000000000000 1.57079632679489656
2 17.41250000000000142 -17.41250000000000142 0.00000000000000773 -0.00000000000000000 0.00000000000000044 1.00000000000000000 0.00000000000000000 -1.00000000000000000 0.00000000000000044 1.00000000000000000 0.00000000000000000 0.00000000000000000 1.00000000000000000
8 1.57079632679489656 3.14159265358979312
2 17.41250000000000142 17.41250000000000142 -0.00000000000000773 -0.00000000000000000 0.00000000000000044 1.00000000000000000 0.00000000000000000 -1.00000000000000000 0.00000000000000044 1.00000000000000000 0.00000000000000000 0.00000000000000000 1.00000000000000000
1 18.41250000000000142 18.41250000000000142 0.00000000000000000 0.00000000000000000 -1.00000000000000000 0.00000000000000000 
1 -19.99999999999999645 20.00000000000000000 0.00000000000000000 1.00000000000000000 0.00000000000000000 0.00000000000000000 
8 3.14159265358979312 4.71238898038468967
2 -17.99999999999999645 18.00000000000000000 -0.00000000000000799 -0.00000000000000000 0.00000000000000044 1.00000000000000000 0.00000000000000000 -1.00000000000000000 0.00000000000000044 1.00000000000000000 0.00000000000000000 0.00000000000000000 2.00000000000000000
8 3.14159265358979312 4.71238898038468967
2 18.00000000000000355 18.00000000000000000 -0.00000000000000799 -0.00000000000000000 -0.00000000000000044 -1.00000000000000000 0.00000000000000000 -1.00000000000000000 0.00000000000000044 -1.00000000000000000 0.00000000000000000 0.00000000000000000 2.00000000000000000
1 -19.99999999999999645 -20.00000000000000000 0.00000000000000000 0.00000000000000000 1.00000000000000000 0.00000000000000000 
1 20.00000000000000355 20.00000000000000000 0.00000000000000000 0.00000000000000000 -1.00000000000000000 0.00000000000000000 
8 0.00000000000000000 1.57079632679489656
2 -17.99999999999999645 -18.00000000000000000 0.00000000000000799 -0.00000000000000000 -0.00000000000000044 -1.00000000000000000 0.00000000000000000 -1.00000000000000000 0.00000000000000044 -1.00000000000000000 0.00000000000000000 0.00000000000000000 2.00000000000000000
8 4.71238898038468967 6.28318530717958623
2 18.00000000000000355 -18.00000000000000000 0.00000000000000799 -0.00000000000000000 -0.00000000000000044 -1.00000000000000000 0.00000000000000000 -1.00000000000000000 0.00000000000000044 -1.00000000000000000 0.00000000000000000 0.00000000000000000 2.00000000000000000
1 20.00000000000000355 -20.00000000000000000 0.00000000000000000 -1.00000000000000000 0.00000000000000000 0.00000000000000000 
1 17.41250000000000142 -0.00000000000000800 -18.41250000000000142 0.00000000000000000 -1.00000000000000000 0.00000000000000022 
2 0.00000000000000000 -17.50000000000000355 -18.41249999999999787 0.00000000000000000 -0.00000000000000022 -1.00000000000000000 1.00000000000000000 0.00000000000000000 0.00000000000000000 0.00000000000000000 -1.00000000000000000 0.00000000000000022 3.96875000000000000
1 17.41250000000000142 0.00000000000000800 18.41250000000000142 0.00000000000000000 -1.00000000000000000 0.00000000000000022 
2 0.00000000000000000 -22.49999999999999645 18.41250000000000497 -0.00000000000000000 0.00000000000000022 1.00000000000000000 1.00000000000000000 0.00000000000000000 0.00000000000000000 0.00000000000000000 1.00000000000000000 -0.00000000000000022 3.00000000000000000
2 0.00000000000000000 -6.49999999999999556 18.41250000000000142 -0.00000000000000000 0.00000000000000022 1.00000000000000000 1.00000000000000000 0.00000000000000000 0.00000000000000000 0.00000000000000000 1.00000000000000000 -0.00000000000000022 3.00000000000000000
1 18.41250000000000142 -0.00000000000000800 -17.41250000000000142 0.00000000000000000 -1.00000000000000000 0.00000000000000022 
1 18.41250000000000142 0.00000000000000800 17.41250000000000142 0.00000000000000000 -1.00000000000000000 0.00000000000000022 
1 -17.99999999999999645 0.00000000000000900 20.00000000000000000 0.00000000000000000 -1.00000000000000000 0.00000000000000022 
1 18.00000000000000355 0.00000000000000900 20.00000000000000000 0.00000000000000000 -1.00000000000000000 0.00000000000000022 
2 0.00000000000000000 -22.50000000000000000 0.00000000000000000 0.00000000000000000 0.00000000000000000 1.00000000000000000 1.00000000000000000 0.00000000000000000 -0.00000000000000000 -0.00000000000000000 1.00000000000000000 0.00000000000000000 3.00000000000000000
2 0.00000000000000000 -6.50000000000000000 0.00000000000000000 0.00000000000000000 0.00000000000000000 1.00000000000000000 1.00000000000000000 0.00000000000000000 -0.00000000000000000 -0.00000000000000000 1.00000000000000000 0.00000000000000000 3.00000000000000000
1 -19.99999999999999645 0.00000000000000800 18.00000000000000000 0.00000000000000000 -1.00000000000000000 0.00000000000000022 
1 20.00000000000000355 0.00000000000000800 18.00000000000000000 0.00000000000000000 -1.00000000000000000 0.00000000000000022 
1 -19.99999999999999645 -0.00000000000000800 -18.00000000000000000 0.00000000000000000 -1.00000000000000000 0.00000000000000022 
1 20.00000000000000355 -0.00000000000000800 -18.00000000000000000 0.00000000000000000 -1.00000000000000000 0.00000000000000022 
1 -17.99999999999999645 -0.00000000000000900 -20.00000000000000000 0.00000000000000000 -1.00000000000000000 0.00000000000000022 
1 18.00000000000000355 -0.00000000000000900 -20.00000000000000000 0.00000000000000000 -1.00000000000000000 0.00000000000000022 
2 0.00000000000000000 17.50000000000000000 0.00000000000000000 0.00000000000000000 0.00000000000000000 1.00000000000000000 1.00000000000000000 0.00000000000000000 -0.00000000000000000 -0.00000000000000000 1.00000000000000000 0.00000000000000000 3.96875000000000000
1 3.96875000000000000 -17.50000000000000355 -19.99999999999999645 0.00000000000000000 0.00000000000000022 1.00000000000000000 
1 3.00000000000000000 -22.49999999999999645 20.00000000000000355 -0.00000000000000000 -0.00000000000000022 -1.00000000000000000 
1 3.00000000000000000 -6.49999999999999556 20.00000000000000000 -0.00000000000000000 -0.00000000000000022 -1.00000000000000000 
Polygon3D 0
PolygonOnTriangulations 0
Surfaces 21
1 -18.41250000000000142 0.00000000000000000 -17.41250000000000142 -1.00000000000000000 0.00000000000000000 0.00000000000000000 0.00000000000000000 0.00000000000000000 1.00000000000000000 0.00000000000000000 1.00000000000000000 -0.00000000000000000 
2 -17.41250000000000142 -0.00000000000000773 -17.41250000000000142 0.00000000000000000 1.00000000000000000 -0.00000000000000044 0.00000000000000000 -0.00000000000000044 -1.00000000000000000 1.00000000000000000 -0.00000000000000000 0.00000000000000000 1.00000000000000000
2 -17.41250000000000142 0.00000000000000773 17.41250000000000142 0.00000000000000000 1.00000000000000000 -0.00000000000000044 0.00000000000000000 -0.00000000000000044 -1.00000000000000000 -1.00000000000000000 0.00000000000000000 -0.00000000000000000 1.00000000000000000
1 17.41250000000000142 0.00000000000000000 -18.41250000000000142 0.00000000000000010 -0.00000000000000022 -1.00000000000000000 -1.00000000000000000 0.00000000000000000 -0.00000000000000010 0.00000000000000000 1.00000000000000000 -0.00000000000000022 
1 -17.41250000000000142 0.00000000000000000 18.41250000000000142 0.00000000000000000 0.00000000000000022 1.00000000000000000 1.00000000000000000 0.00000000000000000 -0.00000000000000000 -0.00000000000000000 1.00000000000000000 -0.00000000000000022 
1 0.00000000000000213 0.00000000000000000 0.00000000000000000 0.00000000000000000 1.00000000000000000 -0.00000000000000022 0.00000000000000000 0.00000000000000022 1.00000000000000000 1.00000000000000000 -0.00000000000000000 0.00000000000000000 
2 17.41250000000000142 -0.00000000000000773 -17.41250000000000142 0.00000000000000000 1.00000000000000000 -0.00000000000000044 0.00000000000000000 -0.00000000000000044 -1.00000000000000000 1.00000000000000000 -0.00000000000000000 0.00000000000000000 1.00000000000000000
2 17.41250000000000142 0.00000000000000773 17.41250000000000142 0.00000000000000000 1.00000000000000000 -0.00000000000000044 0.00000000000000000 -0.00000000000000044 -1.00000000000000000 1.00000000000000000 -0.00000000000000000 0.00000000000000000 1.00000000000000000
2 -17.99999999999999645 0.00000000000000799 18.00000000000000000 0.00000000000000000 1.00000000000000000 -0.00000000000000044 0.00000000000000000 -0.00000000000000044 -1.00000000000000000 1.00000000000000000 -0.00000000000000000 0.00000000000000000 2.00000000000000000
2 18.00000000000000355 0.00000000000000799 18.00000000000000000 0.00000000000000000 1.00000000000000000 -0.00000000000000044 0.00000000000000000 -0.00000000000000044 -1.00000000000000000 -1.00000000000000000 0.00000000000000000 -0.00000000000000000 2.00000000000000000
2 -17.99999999999999645 -0.00000000000000799 -18.00000000000000000 0.00000000000000000 1.00000000000000000 -0.00000000000000044 0.00000000000000000 -0.00000000000000044 -1.00000000000000000 -1.00000000000000000 0.00000000000000000 -0.00000000000000000 2.00000000000000000
2 18.00000000000000355 -0.00000000000000799 -18.00000000000000000 0.00000000000000000 1.00000000000000000 -0.00000000000000044 0.00000000000000000 -0.00000000000000044 -1.00000000000000000 -1.00000000000000000 0.00000000000000000 -0.00000000000000000 2.00000000000000000
1 0.00000000000000213 0.00000000000000000 0.00000000000000000 0.00000000000000000 1.00000000000000000 -0.00000000000000022 0.00000000000000000 0.00000000000000022 1.00000000000000000 1.00000000000000000 -0.00000000000000000 0.00000000000000000 
2 0.00000000000000000 -17.50000000000000355 -19.99999999999999645 0.00000000000000000 -0.00000000000000022 -1.00000000000000000 1.00000000000000000 0.00000000000000000 0.00000000000000000 0.00000000000000000 -1.00000000000000000 0.00000000000000022 3.96875000000000000
2 0.00000000000000000 -22.49999999999999645 20.00000000000000355 0.00000000000000000 0.00000000000000022 1.00000000000000000 1.00000000000000000 0.00000000000000000 -0.00000000000000000 -0.00000000000000000 1.00000000000000000 -0.00000000000000022 3.00000000000000000
2 0.00000000000000000 -6.49999999999999556 20.00000000000000000 0.00000000000000000 0.00000000000000022 1.00000000000000000 1.00000000000000000 0.00000000000000000 -0.00000000000000000 -0.00000000000000000 1.00000000000000000 -0.00000000000000022 3.00000000000000000
1 18.41250000000000142 0.00000000000000000 17.41250000000000142 1.00000000000000000 0.00000000000000000 0.00000000000000000 0.00000000000000000 0.00000000000000000 -1.00000000000000000 -0.00000000000000000 1.00000000000000000 0.00000000000000000 
1 -17.99999999999999645 0.00000000000000000 20.00000000000000000 0.00000000000000000 0.00000000000000022 1.00000000000000000 1.00000000000000000 0.00000000000000000 -0.00000000000000000 -0.00000000000000000 1.00000000000000000 -0.00000000000000022 
1 -19.99999999999999645 0.00000000000000000 -18.00000000000000000 -1.00000000000000000 0.00000000000000000 0.00000000000000000 0.00000000000000000 0.00000000000000000 1.00000000000000000 0.00000000000000000 1.00000000000000000 -0.00000000000000000 
1 20.00000000000000355 0.00000000000000000 18.00000000000000000 1.00000000000000000 0.00000000000000000 0.00000000000000000 0.00000000000000000 0.00000000000000000 -1.00000000000000000 -0.00000000000000000 1.00000000000000000 0.00000000000000000 
1 18.00000000000000355 0.00000000000000000 -20.00000000000000000 -0.00000000000000000 -0.00000000000000022 -1.00000000000000000 -1.00000000000000000 0.00000000000000000 0.00000000000000000 0.00000000000000000 1.00000000000000000 -0.00000000000000022 
Triangulations 0

TShapes 147
Ve
0.000000100000000
-18.412500000000001 -0.000000000000008 -17.412500000000001
0 0

0101101
*
Ve
0.000000100000000
-18.412500000000001 -35.000000000000007 -17.412499999999994
0 0

0101101
*
Ed
 0.000000100000000 1 1 0
1  1 0 0.000000000000000 35.000000000000000
2  1 2 0 0.000000000000000 35.000000000000000
4 C1 1 0 2 0
0

0101000
+147 8 -146 8 *
Ve
0.000000100000000
-18.412500000000001 0.000000000000008 17.412500000000001
0 0

0101101
*
Ve
0.000000100000000
-18.412500000000001 -34.999999999999993 17.412500000000009
0 0

0101101
*
Ed
 0.000000100000000 1 1 0
1  2 0 0.000000000000000 35.000000000000000
2  2 3 0 0.000000000000000 35.000000000000000
4 C1 1 0 3 0
0

0101000
+144 8 -143 8 *
Ed
 0.000000100000000 1 1 0
1  3 0 1.000000000000004 35.825000000000003
0

0101000
+147 24 -144 24 *
Ed
 0.000000100000000 1 1 0
1  4 0 1.000000000000004 35.825000000000003
0

0101000
+146 27 -143 27 *
Wi

0101100
+145 0 -142 0 -141 23 +140 26 *
Fa
0  0.000000100000000 1 0

0111000
+139 0 *
Ve
0.000000100000000
-17.412500000000001 -0.000000000000008 -18.412500000000001
0 0

0101101
*
Ve
0.000000100000000
-17.412500000000001 -35.000000000000007 -18.412499999999994
0 0

0101101
*
Ed
 0.000000100000000 1 1 0
1  5 0 0.000000000000000 35.000000000000000
2  3 2 0 0.000000000000000 35.000000000000000
4 C1 2 0 4 0
0

0101000
+137 8 -136 8 *
Ed
 0.000000100000000 1 1 0
1  6 0 4.712388980384690 6.283185307179586
2  4 2 29 4.712388980384690 6.283185307179586
0

0101000
+147 30 -137 30 *
Ed
 0.000000100000000 1 1 0
1  7 0 4.712388980384690 6.283185307179586
2  5 2 32 4.712388980384690 6.283185307179586
0

0101000
+146 33 -136 33 *
Wi

0101100
+145 0 -135 0 -134 28 +133 31 *
Fa
0  0.000000100000000 2 0

0111000
+132 0 *
Ve
0.000000100000000
-17.412500000000001 0.000000000000008 18.412500000000001
0 0

0101101
*
Ve
0.000000100000000
-17.412500000000001 -34.999999999999993 18.412500000000009
0 0

0101101
*
Ed
 0.000000100000000 1 1 0
1  8 0 0.000000000000000 35.000000000000000
2  6 3 0 0.000000000000000 35.000000000000000
4 C1 3 0 5 0
0

0101000
+130 8 -129 8 *
Ed
 0.000000100000000 1 1 0
1  9 0 1.570796326794897 3.141592653589793
2  7 3 29 1.570796326794897 3.141592653589793
0

0101000
+144 30 -130 30 *
Ed
 0.000000100000000 1 1 0
1  10 0 1.570796326794897 3.141592653589793
2  8 3 32 1.570796326794897 3.141592653589793
0

0101000
+143 33 -129 33 *
Wi

0101100
+142 0 -128 0 -127 28 +126 31 *
Fa
0  0.000000100000000 3 0

0111000
+125 0 *
Ve
0.000000100000000
17.412500000000001 -0.000000000000008 -18.412500000000001
0 0

0101101
*
Ed
 0.000000100000000 1 1 0
1  11 0 1.000000000000000 35.825000000000003
0

0101000
+123 24 -137 24 *
Ve
0.000000100000000
17.412500000000001 0.000000000000008 18.412500000000001
0 0

0101101
*
Ed
 0.000000100000000 1 1 0
1  12 0 1.000000000000000 35.825000000000003
0

0101000
+130 24 -121 24 *
Ve
0.000000100000000
18.412500000000001 -0.000000000000008 -17.412500000000001
0 0

0101101
*
Ed
 0.000000100000000 1 1 0
1  13 0 0.000000000000000 1.570796326794897
2  9 7 29 0.000000000000000 1.570796326794897
0

0101000
+123 30 -119 30 *
Ve
0.000000100000000
18.412500000000001 0.000000000000008 17.412500000000001
0 0

0101101
*
Ed
 0.000000100000000 1 1 0
1  14 0 1.570796326794897 3.141592653589793
2  10 8 29 1.570796326794897 3.141592653589793
0

0101000
+117 30 -121 30 *
Ed
 0.000000100000000 1 1 0
1  15 0 1.000000000000000 35.825000000000003
0

0101000
+117 24 -119 24 *
Wi

0101100
-141 36 +134 0 -127 0 -122 36 -120 36 +118 0 +116 0 -115 36 *
Ve
0.000000100000000
-17.999999999999996 0.000000000000009 20.000000000000000
0 0

0101101
*
Ve
0.000000100000000
18.000000000000004 0.000000000000009 20.000000000000000
0 0

0101101
*
Ed
 0.000000100000000 1 1 0
1  16 0 2.000000000000000 38.000000000000000
0

0101000
+113 24 -112 24 *
Ve
0.000000100000000
-19.999999999999996 0.000000000000008 18.000000000000000
0 0

0101101
*
Ed
 0.000000100000000 1 1 0
1  17 0 3.141592653589793 4.712388980384690
2  11 9 39 3.141592653589793 4.712388980384690
0

0101000
+113 40 -110 40 *
Ve
0.000000100000000
20.000000000000004 0.000000000000008 18.000000000000000
0 0

0101101
*
Ed
 0.000000100000000 1 1 0
1  18 0 3.141592653589793 4.712388980384690
2  12 10 39 3.141592653589793 4.712388980384690
0

0101000
+112 40 -108 40 *
Ve
0.000000100000000
-19.999999999999996 -0.000000000000008 -18.000000000000000
0 0

0101101
*
Ed
 0.000000100000000 1 1 0
1  19 0 2.000000000000000 38.000000000000000
0

0101000
+106 24 -110 24 *
Ve
0.000000100000000
20.000000000000004 -0.000000000000008 -18.000000000000000
0 0

0101101
*
Ed
 0.000000100000000 1 1 0
1  20 0 2.000000000000000 38.000000000000000
0

0101000
+108 24 -104 24 *
Ve
0.000000100000000
-17.999999999999996 -0.000000000000009 -20.000000000000000
0 0

0101101
*
Ed
 0.000000100000000 1 1 0
1  21 0 0.000000000000000 1.570796326794897
2  13 11 39 0.000000000000000 1.570796326794897
0

0101000
+102 40 -106 40 *
Ve
0.000000100000000
18.000000000000004 -0.000000000000009 -20.000000000000000
0 0

0101101
*
Ed
 0.000000100000000 1 1 0
1  22 0 4.712388980384690 6.283185307179586
2  14 12 39 4.712388980384690 6.283185307179586
0

0101000
+104 40 -100 40 *
Ed
 0.000000100000000 1 1 0
1  23 0 2.000000000000000 38.000000000000000
0

0101000
+100 24 -102 24 *
Wi

0101100
+111 38 -109 0 +107 0 +105 38 +103 38 +101 0 +99 0 +98 38 *
Fa
0  0.000000100000000 6 0

0111000
+114 35 +97 37 *
Ve
0.000000100000000
17.412500000000001 -35.000000000000007 -18.412499999999994
0 0

0101101
*
Ed
 0.000000100000000 1 1 0
1  24 0 1.000000000000000 35.825000000000003
0

0101000
+95 27 -136 27 *
Ve
0.000000100000000
17.412500000000001 -34.999999999999993 18.412500000000009
0 0

0101101
*
Ed
 0.000000100000000 1 1 0
1  25 0 1.000000000000000 35.825000000000003
0

0101000
+129 27 -93 27 *
Ve
0.000000100000000
18.412500000000001 -35.000000000000007 -17.412499999999994
0 0

0101101
*
Ed
 0.000000100000000 1 1 0
1  26 0 0.000000000000000 1.570796326794897
2  15 7 32 0.000000000000000 1.570796326794897
0

0101000
+95 33 -91 33 *
Ve
0.000000100000000
18.412500000000001 -34.999999999999993 17.412500000000009
0 0

0101101
*
Ed
 0.000000100000000 1 1 0
1  27 0 1.570796326794897 3.141592653589793
2  16 8 32 1.570796326794897 3.141592653589793
0

0101000
+89 33 -93 33 *
Ed
 0.000000100000000 1 1 0
1  28 0 1.000000000000000 35.825000000000003
0

0101000
+89 27 -91 27 *
Wi

0101100
-140 36 +133 0 -126 0 -94 36 -92 36 +90 0 +88 0 -87 36 *
Ve
0.000000100000000
-17.999999999999996 -34.999999999999993 20.000000000000007
0 0

0101101
*
Ve
0.000000100000000
18.000000000000004 -34.999999999999993 20.000000000000007
0 0

0101101
*
Ed
 0.000000100000000 1 1 0
1  29 0 2.000000000000000 38.000000000000000
0

0101000
+85 27 -84 27 *
Ve
0.000000100000000
-19.999999999999996 -34.999999999999993 18.000000000000007
0 0

0101101
*
Ed
 0.000000100000000 1 1 0
1  30 0 3.141592653589793 4.712388980384690
2  17 9 42 3.141592653589793 4.712388980384690
0

0101000
+85 43 -82 43 *
Ve
0.000000100000000
20.000000000000004 -34.999999999999993 18.000000000000007
0 0

0101101
*
Ed
 0.000000100000000 1 1 0
1  31 0 3.141592653589793 4.712388980384690
2  18 10 42 3.141592653589793 4.712388980384690
0

0101000
+84 43 -80 43 *
Ve
0.000000100000000
-19.999999999999996 -35.000000000000007 -17.999999999999993
0 0

0101101
*
Ed
 0.000000100000000 1 1 0
1  32 0 2.000000000000000 38.000000000000000
0

0101000
+78 27 -82 27 *
Ve
0.000000100000000
20.000000000000004 -35.000000000000007 -17.999999999999993
0 0

0101101
*
Ed
 0.000000100000000 1 1 0
1  33 0 2.000000000000000 38.000000000000000
0

0101000
+80 27 -76 27 *
Ve
0.000000100000000
-17.999999999999996 -35.000000000000007 -19.999999999999993
0 0

0101101
*
Ed
 0.000000100000000 1 1 0
1  34 0 0.000000000000000 1.570796326794897
2  19 11 42 0.000000000000000 1.570796326794897
0

0101000
+74 43 -78 43 *
Ve
0.000000100000000
18.000000000000004 -35.000000000000007 -19.999999999999993
0 0

0101101
*
Ed
 0.000000100000000 1 1 0
1  35 0 4.712388980384690 6.283185307179586
2  20 12 42 4.712388980384690 6.283185307179586
0

0101000
+76 43 -72 43 *
Ed
 0.000000100000000 1 1 0
1  36 0 2.000000000000000 38.000000000000000
0

0101000
+72 27 -74 27 *
Wi

0101100
+83 38 -81 0 +79 0 +77 38 +75 38 +73 0 +71 0 +70 38 *
Fa
0  0.000000100000000 13 0

0111000
+86 35 +69 37 *
Ed
 0.000000100000000 1 1 0
1  37 0 0.000000000000000 35.000000000000000
2  21 7 0 0.000000000000000 35.000000000000000
4 C1 4 0 7 0
0

0101000
+123 8 -95 8 *
Wi

0101100
+67 45 -122 46 +94 47 -135 45 *
Ve
0.000000100000000
3.968750000000000 -17.500000000000004 -18.412499999999998
0 0

0101101
*
Ed
 0.000000100000000 1 1 0
1  38 0 0.000000000000000 6.283185307179586
2  22 14 0 0.000000000000000 6.283185307179586
0

0101000
+65 48 -65 48 *
Wi

0101100
-64 0 *
Fa
0  0.000000100000000 4 45

0111000
+66 0 +63 0 *
Ed
 0.000000100000000 1 1 0
1  39 0 0.000000000000000 35.000000000000000
2  23 8 0 0.000000000000000 35.000000000000000
4 C1 5 0 8 0
0

0101000
+121 8 -93 8 *
Wi

0101100
+128 6 -120 49 +92 50 -61 6 *
Ve
0.000000100000004
3.000000000000000 -22.499999999999996 18.412500000000005
0 0

0101101
*
Ed
 0.000000100000004 1 1 0
1  40 0 0.000000000000000 6.283185307179586
2  24 15 0 0.000000000000000 6.283185307179586
0

0101000
+59 51 -59 51 *
Wi

0101100
-58 0 *
Ve
0.000000100000004
3.000000000000000 -6.499999999999996 18.412500000000001
0 0

0101101
*
Ed
 0.000000100000004 1 1 0
1  41 0 0.000000000000000 6.283185307179586
2  25 16 0 0.000000000000000 6.283185307179586
0

0101000
+56 51 -56 51 *
Wi

0101100
-55 0 *
Fa
0  0.000000100000000 5 6

0111000
+60 0 +57 0 +54 0 *
Ed
 0.000000100000000 1 1 0
1  42 0 0.000000000000000 35.000000000000000
2  26 7 0 0.000000000000000 35.000000000000000
4 C1 7 0 17 0
0

0101000
+119 8 -91 8 *
Wi

0101100
+67 0 -52 0 -118 28 +90 31 *
Fa
0  0.000000100000000 7 0

0111000
+51 0 *
Ed
 0.000000100000000 1 1 0
1  43 0 0.000000000000000 35.000000000000000
2  27 8 0 0.000000000000000 35.000000000000000
4 C1 8 0 17 0
0

0101000
+117 8 -89 8 *
Wi

0101100
+49 0 -61 0 -116 28 +88 31 *
Fa
0  0.000000100000000 8 0

0111000
+48 0 *
Wi

0101100
+49 0 -52 0 -115 23 +87 26 *
Fa
0  0.000000100000000 17 0

0111000
+46 0 *
Ed
 0.000000100000000 1 1 0
1  44 0 0.000000000000000 35.000000000000000
2  28 9 0 0.000000000000000 35.000000000000000
4 G1 18 0 9 0
0

0101000
+113 8 -85 8 *
Ed
 0.000000100000000 1 1 0
1  45 0 0.000000000000000 35.000000000000000
2  29 10 0 0.000000000000000 35.000000000000000
4 G1 18 0 10 0
0

0101000
+112 8 -84 8 *
Wi

0101100
+44 6 -111 49 +83 50 -43 6 *
Ve
0.000000100000004
3.000000000000000 -22.499999999999996 20.000000000000004
0 0

0101101
*
Ed
 0.000000100000004 1 1 0
1  46 0 0.000000000000000 6.283185307179586
2  30 15 55 0.000000000000000 6.283185307179586
0

0101000
+41 56 -41 56 *
Wi

0101100
-40 54 *
Ve
0.000000100000004
3.000000000000000 -6.499999999999996 20.000000000000000
0 0

0101101
*
Ed
 0.000000100000004 1 1 0
1  47 0 0.000000000000000 6.283185307179586
2  31 16 55 0.000000000000000 6.283185307179586
0

0101000
+38 56 -38 56 *
Wi

0101100
-37 54 *
Fa
0  0.000000100000000 18 6

0111000
+42 0 +39 0 +36 0 *
Ed
 0.000000100000000 1 1 0
1  48 0 0.000000000000000 35.000000000000000
2  32 9 0 0.000000000000000 35.000000000000000
4 G1 9 0 19 0
0

0101000
+110 8 -82 8 *
Wi

0101100
+44 0 -34 0 -109 57 +81 58 *
Fa
0  0.000000100000000 9 0

0111000
+33 0 *
Ed
 0.000000100000000 1 1 0
1  49 0 0.000000000000000 35.000000000000000
2  33 10 0 0.000000000000000 35.000000000000000
4 G1 10 0 20 0
0

0101000
+108 8 -80 8 *
Wi

0101100
+43 0 -31 0 -107 57 +79 58 *
Fa
0  0.000000100000000 10 0

0111000
+30 0 *
Ed
 0.000000100000000 1 1 0
1  50 0 0.000000000000000 35.000000000000000
2  34 11 0 0.000000000000000 35.000000000000000
4 G1 19 0 11 0
0

0101000
+106 8 -78 8 *
Wi

0101100
+28 0 -34 0 -105 23 +77 26 *
Fa
0  0.000000100000000 19 0

0111000
+27 0 *
Ed
 0.000000100000000 1 1 0
1  51 0 0.000000000000000 35.000000000000000
2  35 12 0 0.000000000000000 35.000000000000000
4 G1 20 0 12 0
0

0101000
+104 8 -76 8 *
Wi

0101100
+31 0 -25 0 -103 23 +75 26 *
Fa
0  0.000000100000000 20 0

0111000
+24 0 *
Ed
 0.000000100000000 1 1 0
1  52 0 0.000000000000000 35.000000000000000
2  36 11 0 0.000000000000000 35.000000000000000
4 G1 11 0 21 0
0

0101000
+102 8 -74 8 *
Wi

0101100
+22 0 -28 0 -101 57 +73 58 *
Fa
0  0.000000100000000 11 0

0111000
+21 0 *
Ed
 0.000000100000000 1 1 0
1  53 0 0.000000000000000 35.000000000000000
2  37 12 0 0.000000000000000 35.000000000000000
4 G1 12 0 21 0
0

0101000
+100 8 -72 8 *
Wi

0101100
+25 0 -19 0 -99 57 +71 58 *
Fa
0  0.000000100000000 12 0

0111000
+18 0 *
Wi

0101100
+19 45 -98 46 +70 47 -22 45 *
Ve
0.000000100000000
3.968750000000000 -17.500000000000004 -19.999999999999996
0 0

0101101
*
Ed
 0.000000100000000 1 1 0
1  54 0 0.000000000000000 6.283185307179586
2  38 14 62 0.000000000000000 6.283185307179586
0

0101000
+15 63 -15 63 *
Wi

0101100
-14 61 *
Fa
0  0.000000100000000 21 45

0111000
+16 0 +13 0 *
Ed
 0.000000100000000 1 1 0
1  55 0 0.000000000000000 1.587499999999999
3  39 40CN 14 0 0.000000000000000 1.587499999999999
0

0101000
+15 48 -65 48 *
Wi

0101100
-14 61 -11 0 +64 0 +11 0 *
Fa
0  0.000000100000000 14 0

0111000
+10 0 *
Ed
 0.000000100000004 1 1 0
1  56 0 0.000000000000000 1.587499999999999
3  41 42CN 15 0 0.000000000000000 1.587499999999999
0

0101000
+41 51 -59 51 *
Wi

0101100
-40 54 -8 0 +58 0 +8 0 *
Fa
0  0.000000100000004 15 0

0111000
+7 0 *
Ed
 0.000000100000004 1 1 0
1  57 0 0.000000000000000 1.587499999999999
3  43 44CN 16 0 0.000000000000000 1.587499999999999
0

0101000
+38 51 -56 51 *
Wi

0101100
-37 54 -5 0 +55 0 +5 0 *
Fa
0  0.000000100000004 16 0

0111000
+4 0 *
Sh

0101100
-138 6 +131 6 -124 6 +96 34 -68 41 -62 44 -53 0 +50 6 +47 6 -45 6 
+35 0 -32 6 +29 6 +26 6 +23 6 +20 6 +17 6 +12 44 -9 44 -6 0 
-3 0 *
So

1100000
+2 0 *

+1 1 