
CASCADE Topology V1, (c) Matra-Datavision
Locations 59
1
1.000000000000000 0.000000000000000 0.000000000000000 0.000000000000000 
0.000000000000000 1.000000000000000 0.000000000000000 0.000000000000000 
0.000000000000000 0.000000000000000 1.000000000000000 0.000000000000000 
1
1.000000000000000 0.000000000000000 0.000000000000000 0.000000000000000 
0.000000000000000 1.000000000000000 0.000000000000000 0.000000000000000 
0.000000000000000 0.000000000000000 1.000000000000000 0.000000000000000 
1
1.000000000000000 0.000000000000000 0.000000000000000 0.000000000000000 
0.000000000000000 0.000000000000000 -1.000000000000000 0.000000000000000 
0.000000000000000 1.000000000000000 0.000000000000000 0.000000000000000 
1
1.000000000000000 0.000000000000000 0.000000000000000 0.000000000000000 
0.000000000000000 1.000000000000000 0.000000000000000 0.000000000000000 
0.000000000000000 0.000000000000000 1.000000000000000 0.000000000000000 
1
1.000000000000000 0.000000000000000 0.000000000000000 0.000000000000000 
0.000000000000000 1.000000000000000 0.000000000000000 0.000000000000000 
0.000000000000000 0.000000000000000 1.000000000000000 0.000000000000000 
1
1.000000000000000 0.000000000000000 0.000000000000000 0.000000000000000 
0.000000000000000 1.000000000000000 0.000000000000000 0.000000000000000 
0.000000000000000 0.000000000000000 1.000000000000000 0.000000000000000 
1
1.000000000000000 0.000000000000000 0.000000000000000 0.000000000000000 
0.000000000000000 1.000000000000000 0.000000000000000 0.000000000000000 
0.000000000000000 0.000000000000000 1.000000000000000 0.000000000000000 
1
1.000000000000000 0.000000000000000 0.000000000000000 0.000000000000000 
0.000000000000000 1.000000000000000 0.000000000000000 0.000000000000000 
0.000000000000000 0.000000000000000 1.000000000000000 0.000000000000000 
1
1.000000000000000 0.000000000000000 0.000000000000000 0.000000000000000 
0.000000000000000 1.000000000000000 0.000000000000000 0.000000000000000 
0.000000000000000 0.000000000000000 1.000000000000000 0.000000000000000 
1
1.000000000000000 0.000000000000000 0.000000000000000 0.000000000000000 
0.000000000000000 1.000000000000000 0.000000000000000 0.000000000000000 
0.000000000000000 0.000000000000000 1.000000000000000 0.000000000000000 
2  2 1 3 1 4 1 5 1 6 1 7 1 8 1 9 1 10 -1 0
1
1.000000000000000 0.000000000000000 0.000000000000000 -0.000000000000000 
0.000000000000000 1.000000000000000 0.000000000000000 -35.000000000000000 
0.000000000000000 0.000000000000000 1.000000000000000 0.000000000000008 
2  2 1 3 1 4 1 5 1 6 1 7 1 8 1 9 1 10 -1 12 1 0
1
1.000000000000000 0.000000000000000 0.000000000000000 0.000000000000000 
0.000000000000000 1.000000000000000 0.000000000000000 0.000000000000000 
0.000000000000000 0.000000000000000 1.000000000000000 0.000000000000000 
1
1.000000000000000 0.000000000000000 0.000000000000000 0.000000000000000 
0.000000000000000 0.000000000000000 -1.000000000000000 0.000000000000000 
0.000000000000000 1.000000000000000 0.000000000000000 0.000000000000000 
1
1.000000000000000 0.000000000000000 0.000000000000000 0.000000000000000 
0.000000000000000 -0.000000000000000 -1.000000000000000 0.000000000000000 
0.000000000000000 1.000000000000000 -0.000000000000000 0.000000000000000 
1
1.000000000000000 0.000000000000000 0.000000000000000 0.000000000000000 
0.000000000000000 1.000000000000000 0.000000000000000 0.000000000000000 
0.000000000000000 0.000000000000000 1.000000000000000 0.000000000000000 
1
1.000000000000000 0.000000000000000 0.000000000000000 0.000000000000000 
0.000000000000000 1.000000000000000 0.000000000000000 0.000000000000000 
0.000000000000000 0.000000000000000 1.000000000000000 0.000000000000000 
2  14 1 15 1 16 -1 17 1 18 1 2 1 3 1 4 1 5 1 6 1 7 1 8 1 9 1 10 -1 0
2  18 -1 17 -1 16 1 15 -1 14 -1 0
2  14 1 15 1 16 -1 17 1 18 1 2 1 3 1 4 1 5 1 6 1 7 1 8 1 9 1 10 -1 12 1 0
2  16 -1 17 1 18 1 0
1
1.000000000000000 0.000000000000000 0.000000000000000 0.000000000000000 
0.000000000000000 1.000000000000000 0.000000000000000 0.000000000000000 
0.000000000000000 0.000000000000000 1.000000000000000 0.000000000000000 
1
1.000000000000000 0.000000000000000 0.000000000000000 0.000000000000000 
0.000000000000000 1.000000000000000 0.000000000000000 0.000000000000000 
0.000000000000000 0.000000000000000 1.000000000000000 0.000000000000000 
2  23 1 24 -1 8 -1 7 -1 6 -1 5 -1 4 -1 3 -1 2 -1 0
1
1.000000000000000 0.000000000000000 0.000000000000000 0.000000000000000 
0.000000000000000 1.000000000000000 0.000000000000000 10.000000000000000 
0.000000000000000 0.000000000000000 1.000000000000000 -0.000000000000002 
2  26 -1 23 1 24 -1 8 -1 7 -1 6 -1 5 -1 4 -1 3 -1 2 -1 0
1
1.000000000000000 0.000000000000000 0.000000000000000 0.000000000000000 
0.000000000000000 1.000000000000000 0.000000000000000 0.000000000000000 
0.000000000000000 0.000000000000000 1.000000000000000 0.000000000000000 
1
1.000000000000000 0.000000000000000 0.000000000000000 0.000000000000000 
0.000000000000000 1.000000000000000 0.000000000000000 0.000000000000000 
0.000000000000000 0.000000000000000 1.000000000000000 0.000000000000000 
2  28 1 29 -1 8 -1 7 -1 6 -1 5 -1 4 -1 3 -1 2 -1 0
1
1.000000000000000 0.000000000000000 0.000000000000000 -0.000000000000000 
0.000000000000000 1.000000000000000 0.000000000000000 -10.000000000000000 
0.000000000000000 0.000000000000000 1.000000000000000 0.000000000000002 
2  31 -1 28 1 29 -1 8 -1 7 -1 6 -1 5 -1 4 -1 3 -1 2 -1 0
1
1.000000000000000 0.000000000000000 0.000000000000000 0.000000000000000 
0.000000000000000 1.000000000000000 0.000000000000000 0.000000000000000 
0.000000000000000 0.000000000000000 1.000000000000000 0.000000000000000 
1
1.000000000000000 0.000000000000000 0.000000000000000 0.000000000000000 
0.000000000000000 1.000000000000000 0.000000000000000 0.000000000000000 
0.000000000000000 0.000000000000000 1.000000000000000 0.000000000000000 
2  33 1 34 -1 8 -1 7 -1 6 -1 5 -1 4 -1 3 -1 2 -1 0
1
1.000000000000000 0.000000000000000 0.000000000000000 -0.000000000000000 
0.000000000000000 1.000000000000000 0.000000000000000 -35.000000000000000 
0.000000000000000 0.000000000000000 1.000000000000000 0.000000000000008 
2  36 -1 33 1 34 -1 8 -1 7 -1 6 -1 5 -1 4 -1 3 -1 2 -1 0
2  10 1 9 -1 8 -1 7 -1 6 -1 5 -1 4 -1 3 -1 2 -1 0
2  12 -1 10 1 9 -1 8 -1 7 -1 6 -1 5 -1 4 -1 3 -1 2 -1 0
2  10 1 9 -1 8 -1 7 -1 6 -1 5 -1 4 -1 3 -1 2 -1 18 -1 17 -1 16 1 15 -1 14 -1 0
2  12 -1 10 1 9 -1 8 -1 7 -1 6 -1 5 -1 4 -1 3 -1 2 -1 18 -1 17 -1 16 1 15 -1 14 -1 0
2  18 1 2 1 3 1 4 1 5 1 6 1 7 1 8 1 9 1 10 -1 0
2  18 1 2 1 3 1 4 1 5 1 6 1 7 1 8 1 9 1 10 -1 12 1 0
2  17 -1 16 1 15 -1 14 -1 0
2  16 -1 17 1 0
2  23 1 24 -1 8 -1 7 -1 6 -1 5 -1 4 -1 3 -1 2 -1 18 -1 0
2  26 -1 23 1 24 -1 8 -1 7 -1 6 -1 5 -1 4 -1 3 -1 2 -1 18 -1 0
2  28 1 29 -1 8 -1 7 -1 6 -1 5 -1 4 -1 3 -1 2 -1 18 -1 0
2  31 -1 28 1 29 -1 8 -1 7 -1 6 -1 5 -1 4 -1 3 -1 2 -1 18 -1 0
2  33 1 34 -1 8 -1 7 -1 6 -1 5 -1 4 -1 3 -1 2 -1 18 -1 0
2  36 -1 33 1 34 -1 8 -1 7 -1 6 -1 5 -1 4 -1 3 -1 2 -1 18 -1 0
2  10 1 9 -1 8 -1 7 -1 6 -1 5 -1 4 -1 3 -1 2 -1 18 -1 0
2  12 -1 10 1 9 -1 8 -1 7 -1 6 -1 5 -1 4 -1 3 -1 2 -1 18 -1 0
2  16 -1 17 1 18 1 2 1 3 1 4 1 5 1 6 1 7 1 8 1 9 1 10 -1 0
2  18 -1 17 -1 16 1 0
2  14 1 15 1 16 -1 17 1 18 1 0
2  17 -1 16 1 0
2  14 1 15 1 16 -1 17 1 0
2  16 -1 17 1 18 1 2 1 3 1 4 1 5 1 6 1 7 1 8 1 9 1 10 -1 12 1 0
Curve2ds 112
1 4.71238898038468967 0.00000000000000000 0.00000000000000000 -1.00000000000000000 
1 1.57079632679489700 0.00000000000000000 0.00000000000000000 -1.00000000000000000 
1 6.28318530717958623 0.00000000000000000 0.00000000000000000 -1.00000000000000000 
1 34.82500000000000284 -0.00000000000000800 -0.00000000000000000 -1.00000000000000000 
1 -4.71238898038468967 0.00000000000000000 1.00000000000000000 0.00000000000000000 
2 -17.41250000000000142 -17.41250000000000497 -1.00000000000000000 0.00000000000000000 0.00000000000000000 1.00000000000000000 1.00000000000000000
1 0.00000000000000000 0.00000000000000000 1.00000000000000000 0.00000000000000000 
1 0.00000000000000000 -10.00000000000000000 1.00000000000000000 0.00000000000000000 
1 0.00000000000000000 0.00000000000000000 1.00000000000000000 0.00000000000000000 
1 0.00000000000000000 -10.00000000000000000 1.00000000000000000 0.00000000000000000 
1 0.00000000000000000 0.00000000000000000 1.00000000000000000 0.00000000000000000 
1 0.00000000000000000 -35.00000000000000000 1.00000000000000000 0.00000000000000000 
1 0.00000000000000000 0.00000000000000000 1.00000000000000000 0.00000000000000000 
1 0.00000000000000000 -35.00000000000000000 1.00000000000000000 0.00000000000000000 
1 3.14159265358979312 0.00000000000000000 0.00000000000000000 -1.00000000000000000 
1 0.00000000000000000 0.00000000000000800 0.00000000000000000 -1.00000000000000000 
1 -1.57079632679489656 0.00000000000000000 1.00000000000000000 0.00000000000000000 
2 17.41250000000000142 -17.41250000000000497 -1.00000000000000000 0.00000000000000000 -0.00000000000000000 -1.00000000000000000 1.00000000000000000
1 0.00000000000000000 0.00000000000000000 1.00000000000000000 0.00000000000000000 
1 0.00000000000000000 -10.00000000000000000 1.00000000000000000 0.00000000000000000 
1 0.00000000000000000 0.00000000000000000 1.00000000000000000 0.00000000000000000 
1 0.00000000000000000 -10.00000000000000000 1.00000000000000000 0.00000000000000000 
1 0.00000000000000000 0.00000000000000000 1.00000000000000000 0.00000000000000000 
1 0.00000000000000000 -35.00000000000000000 1.00000000000000000 0.00000000000000000 
1 0.00000000000000000 0.00000000000000000 1.00000000000000000 0.00000000000000000 
1 0.00000000000000000 -35.00000000000000000 1.00000000000000000 0.00000000000000000 
1 0.00000000000000000 0.00000000000000000 0.00000000000000000 -1.00000000000000000 
1 -0.00000000000000000 -0.00000000000000800 -0.00000000000000000 -1.00000000000000000 
1 -1.00000000000000000 0.00000000000000000 1.00000000000000000 0.00000000000000000 
1 -1.00000000000000000 -35.00000000000000000 1.00000000000000000 0.00000000000000000 
1 3.14159265358979312 0.00000000000000000 0.00000000000000000 -1.00000000000000000 
1 34.82500000000000284 0.00000000000000800 0.00000000000000000 -1.00000000000000000 
1 -1.00000000000000000 0.00000000000000000 1.00000000000000000 0.00000000000000000 
1 -1.00000000000000000 -35.00000000000000000 1.00000000000000000 0.00000000000000000 
1 1.57079632679489700 0.00000000000000000 0.00000000000000000 -1.00000000000000000 
1 0.00000000000000000 0.00000000000000000 1.00000000000000000 0.00000000000000000 
2 -17.41250000000000142 17.41249999999999787 -1.00000000000000000 0.00000000000000000 0.00000000000000000 1.00000000000000000 1.00000000000000000
1 0.00000000000000000 0.00000000000000000 1.00000000000000000 0.00000000000000000 
1 0.00000000000000000 -10.00000000000000000 1.00000000000000000 0.00000000000000000 
1 0.00000000000000000 0.00000000000000000 1.00000000000000000 0.00000000000000000 
1 0.00000000000000000 -10.00000000000000000 1.00000000000000000 0.00000000000000000 
1 0.00000000000000000 0.00000000000000000 1.00000000000000000 0.00000000000000000 
1 0.00000000000000000 -35.00000000000000000 1.00000000000000000 0.00000000000000000 
1 0.00000000000000000 0.00000000000000000 1.00000000000000000 0.00000000000000000 
1 0.00000000000000000 -35.00000000000000000 1.00000000000000000 0.00000000000000000 
1 1.57079632679489700 0.00000000000000000 0.00000000000000000 -1.00000000000000000 
1 -1.57079632679489656 0.00000000000000000 1.00000000000000000 0.00000000000000000 
2 17.41250000000000142 17.41249999999999787 -1.00000000000000000 0.00000000000000000 0.00000000000000000 1.00000000000000000 1.00000000000000000
1 0.00000000000000000 0.00000000000000000 1.00000000000000000 0.00000000000000000 
1 0.00000000000000000 -10.00000000000000000 1.00000000000000000 0.00000000000000000 
1 0.00000000000000000 0.00000000000000000 1.00000000000000000 0.00000000000000000 
1 0.00000000000000000 -10.00000000000000000 1.00000000000000000 0.00000000000000000 
1 0.00000000000000000 0.00000000000000000 1.00000000000000000 0.00000000000000000 
1 0.00000000000000000 -35.00000000000000000 1.00000000000000000 0.00000000000000000 
1 0.00000000000000000 0.00000000000000000 1.00000000000000000 0.00000000000000000 
1 0.00000000000000000 -35.00000000000000000 1.00000000000000000 0.00000000000000000 
1 3.14159265358979312 0.00000000000000000 0.00000000000000000 -1.00000000000000000 
1 0.00000000000000000 0.00000000000000900 0.00000000000000000 -1.00000000000000000 
1 3.14159265358979312 0.00000000000000000 0.00000000000000000 -1.00000000000000000 
1 36.00000000000000000 0.00000000000000900 0.00000000000000000 -1.00000000000000000 
1 -2.00000000000000000 0.00000000000000000 1.00000000000000000 0.00000000000000000 
1 -2.00000000000000000 -35.00000000000000000 1.00000000000000000 0.00000000000000000 
1 4.71238898038468967 0.00000000000000000 0.00000000000000000 -1.00000000000000000 
1 -3.14159265358979312 0.00000000000000000 1.00000000000000000 0.00000000000000000 
2 18.00000000000000000 -18.00000000000000000 -1.00000000000000000 0.00000000000000000 0.00000000000000000 1.00000000000000000 2.00000000000000000
1 0.00000000000000000 0.00000000000000000 1.00000000000000000 0.00000000000000000 
1 0.00000000000000000 -10.00000000000000000 1.00000000000000000 0.00000000000000000 
1 0.00000000000000000 0.00000000000000000 1.00000000000000000 0.00000000000000000 
1 0.00000000000000000 -10.00000000000000000 1.00000000000000000 0.00000000000000000 
1 0.00000000000000000 0.00000000000000000 1.00000000000000000 0.00000000000000000 
1 0.00000000000000000 -35.00000000000000000 1.00000000000000000 0.00000000000000000 
1 0.00000000000000000 0.00000000000000000 1.00000000000000000 0.00000000000000000 
1 0.00000000000000000 -35.00000000000000000 1.00000000000000000 0.00000000000000000 
1 4.71238898038468967 0.00000000000000000 0.00000000000000000 -1.00000000000000000 
1 -3.14159265358979312 0.00000000000000000 1.00000000000000000 0.00000000000000000 
2 18.00000000000000000 18.00000000000000000 -1.00000000000000000 0.00000000000000000 -0.00000000000000000 -1.00000000000000000 2.00000000000000000
1 0.00000000000000000 0.00000000000000000 1.00000000000000000 0.00000000000000000 
1 0.00000000000000000 -10.00000000000000000 1.00000000000000000 0.00000000000000000 
1 0.00000000000000000 0.00000000000000000 1.00000000000000000 0.00000000000000000 
1 0.00000000000000000 -10.00000000000000000 1.00000000000000000 0.00000000000000000 
1 0.00000000000000000 0.00000000000000000 1.00000000000000000 0.00000000000000000 
1 0.00000000000000000 -35.00000000000000000 1.00000000000000000 0.00000000000000000 
1 0.00000000000000000 0.00000000000000000 1.00000000000000000 0.00000000000000000 
1 0.00000000000000000 -35.00000000000000000 1.00000000000000000 0.00000000000000000 
1 1.57079632679489700 0.00000000000000000 0.00000000000000000 -1.00000000000000000 
1 4.71238898038468967 0.00000000000000000 0.00000000000000000 -1.00000000000000000 
1 0.00000000000000000 0.00000000000000000 0.00000000000000000 -1.00000000000000000 
1 36.00000000000000000 -0.00000000000000900 0.00000000000000000 -1.00000000000000000 
1 0.00000000000000000 0.00000000000000000 1.00000000000000000 0.00000000000000000 
2 -18.00000000000000000 -18.00000000000000000 -1.00000000000000000 0.00000000000000000 -0.00000000000000000 -1.00000000000000000 2.00000000000000000
1 0.00000000000000000 0.00000000000000000 1.00000000000000000 0.00000000000000000 
1 0.00000000000000000 -10.00000000000000000 1.00000000000000000 0.00000000000000000 
1 0.00000000000000000 0.00000000000000000 1.00000000000000000 0.00000000000000000 
1 0.00000000000000000 -10.00000000000000000 1.00000000000000000 0.00000000000000000 
1 0.00000000000000000 0.00000000000000000 1.00000000000000000 0.00000000000000000 
1 0.00000000000000000 -35.00000000000000000 1.00000000000000000 0.00000000000000000 
1 0.00000000000000000 0.00000000000000000 1.00000000000000000 0.00000000000000000 
1 0.00000000000000000 -35.00000000000000000 1.00000000000000000 0.00000000000000000 
1 6.28318530717958623 0.00000000000000000 0.00000000000000000 -1.00000000000000000 
1 0.00000000000000000 -0.00000000000000900 0.00000000000000000 -1.00000000000000000 
1 -4.71238898038468967 0.00000000000000000 1.00000000000000000 0.00000000000000000 
2 -18.00000000000000000 18.00000000000000000 -1.00000000000000000 0.00000000000000000 -0.00000000000000000 -1.00000000000000000 2.00000000000000000
1 0.00000000000000000 0.00000000000000000 1.00000000000000000 0.00000000000000000 
1 0.00000000000000000 -10.00000000000000000 1.00000000000000000 0.00000000000000000 
1 0.00000000000000000 0.00000000000000000 1.00000000000000000 0.00000000000000000 
1 0.00000000000000000 -10.00000000000000000 1.00000000000000000 0.00000000000000000 
1 0.00000000000000000 0.00000000000000000 1.00000000000000000 0.00000000000000000 
1 0.00000000000000000 -35.00000000000000000 1.00000000000000000 0.00000000000000000 
1 0.00000000000000000 0.00000000000000000 1.00000000000000000 0.00000000000000000 
1 0.00000000000000000 -35.00000000000000000 1.00000000000000000 0.00000000000000000 
1 -2.00000000000000000 0.00000000000000000 1.00000000000000000 0.00000000000000000 
1 -2.00000000000000000 -35.00000000000000000 1.00000000000000000 0.00000000000000000 
Curves 32
1 -18.41250000000000142 -0.00000000000000800 -17.41250000000000142 -0.00000000000000000 -1.00000000000000000 0.00000000000000022 
1 -18.41250000000000142 0.00000000000000800 17.41250000000000142 -0.00000000000000000 -1.00000000000000000 0.00000000000000022 
1 -18.41250000000000142 -18.41250000000000497 0.00000000000000000 0.00000000000000000 1.00000000000000000 0.00000000000000000 
1 -17.41250000000000142 -0.00000000000000800 -18.41250000000000142 -0.00000000000000000 -1.00000000000000000 0.00000000000000022 
8 4.71238898038468967 6.28318530717958623
2 -17.41250000000000142 -17.41250000000000142 0.00000000000000773 0.00000000000000000 0.00000000000000044 1.00000000000000000 0.00000000000000000 -1.00000000000000000 0.00000000000000044 1.00000000000000000 0.00000000000000000 -0.00000000000000000 1.00000000000000000
1 -17.41250000000000142 0.00000000000000800 18.41250000000000142 -0.00000000000000000 -1.00000000000000000 0.00000000000000022 
8 1.57079632679489656 3.14159265358979312
2 -17.41250000000000142 17.41250000000000142 -0.00000000000000773 -0.00000000000000000 -0.00000000000000044 -1.00000000000000000 0.00000000000000000 -1.00000000000000000 0.00000000000000044 -1.00000000000000000 0.00000000000000000 0.00000000000000000 1.00000000000000000
1 17.41250000000000142 -0.00000000000000800 -18.41250000000000142 -0.00000000000000000 -1.00000000000000000 0.00000000000000022 
1 18.41250000000000142 -18.41250000000000142 0.00000000000000000 -1.00000000000000000 -0.00000000000000010 0.00000000000000000 
1 17.41250000000000142 0.00000000000000800 18.41250000000000142 -0.00000000000000000 -1.00000000000000000 0.00000000000000022 
1 -18.41250000000000142 18.41250000000000142 0.00000000000000000 1.00000000000000000 0.00000000000000000 0.00000000000000000 
1 18.41250000000000142 -0.00000000000000800 -17.41250000000000142 -0.00000000000000000 -1.00000000000000000 0.00000000000000022 
8 0.00000000000000000 1.57079632679489656
2 17.41250000000000142 -17.41250000000000142 0.00000000000000773 0.00000000000000000 0.00000000000000044 1.00000000000000000 0.00000000000000000 -1.00000000000000000 0.00000000000000044 1.00000000000000000 0.00000000000000000 -0.00000000000000000 1.00000000000000000
1 18.41250000000000142 0.00000000000000800 17.41250000000000142 -0.00000000000000000 -1.00000000000000000 0.00000000000000022 
8 1.57079632679489656 3.14159265358979312
2 17.41250000000000142 17.41250000000000142 -0.00000000000000773 0.00000000000000000 0.00000000000000044 1.00000000000000000 0.00000000000000000 -1.00000000000000000 0.00000000000000044 1.00000000000000000 0.00000000000000000 -0.00000000000000000 1.00000000000000000
1 18.41250000000000142 18.41250000000000142 0.00000000000000000 0.00000000000000000 -1.00000000000000000 0.00000000000000000 
1 -17.99999999999999645 0.00000000000000900 20.00000000000000000 -0.00000000000000000 -1.00000000000000000 0.00000000000000022 
1 18.00000000000000355 0.00000000000000900 20.00000000000000000 -0.00000000000000000 -1.00000000000000000 0.00000000000000022 
1 -19.99999999999999645 20.00000000000000000 0.00000000000000000 1.00000000000000000 0.00000000000000000 0.00000000000000000 
1 -19.99999999999999645 0.00000000000000800 18.00000000000000000 -0.00000000000000000 -1.00000000000000000 0.00000000000000022 
8 3.14159265358979312 4.71238898038468967
2 -17.99999999999999645 18.00000000000000000 -0.00000000000000799 0.00000000000000000 0.00000000000000044 1.00000000000000000 0.00000000000000000 -1.00000000000000000 0.00000000000000044 1.00000000000000000 0.00000000000000000 -0.00000000000000000 2.00000000000000000
1 20.00000000000000355 0.00000000000000800 18.00000000000000000 -0.00000000000000000 -1.00000000000000000 0.00000000000000022 
8 3.14159265358979312 4.71238898038468967
2 18.00000000000000355 18.00000000000000000 -0.00000000000000799 -0.00000000000000000 -0.00000000000000044 -1.00000000000000000 0.00000000000000000 -1.00000000000000000 0.00000000000000044 -1.00000000000000000 0.00000000000000000 0.00000000000000000 2.00000000000000000
1 -19.99999999999999645 -0.00000000000000800 -18.00000000000000000 -0.00000000000000000 -1.00000000000000000 0.00000000000000022 
1 -19.99999999999999645 -20.00000000000000000 0.00000000000000000 0.00000000000000000 1.00000000000000000 0.00000000000000000 
1 20.00000000000000355 -0.00000000000000800 -18.00000000000000000 -0.00000000000000000 -1.00000000000000000 0.00000000000000022 
1 20.00000000000000355 20.00000000000000000 0.00000000000000000 0.00000000000000000 -1.00000000000000000 0.00000000000000000 
1 -17.99999999999999645 -0.00000000000000900 -20.00000000000000000 -0.00000000000000000 -1.00000000000000000 0.00000000000000022 
8 0.00000000000000000 1.57079632679489656
2 -17.99999999999999645 -18.00000000000000000 0.00000000000000799 -0.00000000000000000 -0.00000000000000044 -1.00000000000000000 0.00000000000000000 -1.00000000000000000 0.00000000000000044 -1.00000000000000000 0.00000000000000000 0.00000000000000000 2.00000000000000000
1 18.00000000000000355 -0.00000000000000900 -20.00000000000000000 -0.00000000000000000 -1.00000000000000000 0.00000000000000022 
8 4.71238898038468967 6.28318530717958623
2 18.00000000000000355 -18.00000000000000000 0.00000000000000799 -0.00000000000000000 -0.00000000000000044 -1.00000000000000000 0.00000000000000000 -1.00000000000000000 0.00000000000000044 -1.00000000000000000 0.00000000000000000 0.00000000000000000 2.00000000000000000
1 20.00000000000000355 -20.00000000000000000 0.00000000000000000 -1.00000000000000000 0.00000000000000000 0.00000000000000000 
Polygon3D 0
PolygonOnTriangulations 0
Surfaces 49
1 -18.41250000000000142 0.00000000000000000 -17.41250000000000142 -1.00000000000000000 0.00000000000000000 0.00000000000000000 0.00000000000000000 0.00000000000000000 1.00000000000000000 0.00000000000000000 1.00000000000000000 -0.00000000000000000 
2 -17.41250000000000142 -0.00000000000000773 -17.41250000000000142 -0.00000000000000000 1.00000000000000000 -0.00000000000000044 0.00000000000000000 -0.00000000000000044 -1.00000000000000000 1.00000000000000000 0.00000000000000000 -0.00000000000000000 1.00000000000000000
2 -17.41250000000000142 0.00000000000000773 17.41250000000000142 0.00000000000000000 1.00000000000000000 -0.00000000000000044 0.00000000000000000 -0.00000000000000044 -1.00000000000000000 -1.00000000000000000 0.00000000000000000 -0.00000000000000000 1.00000000000000000
1 17.41250000000000142 0.00000000000000000 -18.41250000000000142 0.00000000000000010 -0.00000000000000022 -1.00000000000000000 -1.00000000000000000 0.00000000000000000 -0.00000000000000010 0.00000000000000000 1.00000000000000000 -0.00000000000000022 
2 -17.41250000000000142 -17.41250000000000142 0.00000000000000773 0.00000000000000000 0.00000000000000044 1.00000000000000000 -1.00000000000000000 0.00000000000000000 0.00000000000000000 0.00000000000000000 -1.00000000000000000 0.00000000000000044 1.00000000000000000
1 0.00000000000000213 0.00000000000000000 0.00000000000000000 0.00000000000000000 1.00000000000000000 -0.00000000000000022 0.00000000000000000 0.00000000000000022 1.00000000000000000 1.00000000000000000 -0.00000000000000000 0.00000000000000000 
2 -17.41250000000000142 -0.00000000000000773 -17.41250000000000142 0.00000000000000000 -1.00000000000000000 0.00000000000000044 0.00000000000000000 -0.00000000000000044 -1.00000000000000000 1.00000000000000000 0.00000000000000000 0.00000000000000000 1.00000000000000000
2 -17.41250000000000142 -0.00000000000000773 -17.41250000000000142 -0.00000000000000000 1.00000000000000000 -0.00000000000000044 0.00000000000000000 -0.00000000000000044 -1.00000000000000000 1.00000000000000000 0.00000000000000000 -0.00000000000000000 1.00000000000000000
2 -17.41250000000000142 -0.00000000000000773 -17.41250000000000142 -0.00000000000000000 1.00000000000000000 -0.00000000000000044 0.00000000000000000 -0.00000000000000044 -1.00000000000000000 1.00000000000000000 0.00000000000000000 -0.00000000000000000 1.00000000000000000
1 -17.41250000000000142 0.00000000000000000 18.41250000000000142 -0.00000000000000000 0.00000000000000022 1.00000000000000000 1.00000000000000000 0.00000000000000000 0.00000000000000000 0.00000000000000000 1.00000000000000000 -0.00000000000000022 
2 -17.41250000000000142 17.41250000000000142 -0.00000000000000773 0.00000000000000000 0.00000000000000044 1.00000000000000000 -1.00000000000000000 0.00000000000000000 0.00000000000000000 -0.00000000000000000 1.00000000000000000 -0.00000000000000044 1.00000000000000000
2 -17.41250000000000142 0.00000000000000773 17.41250000000000142 -0.00000000000000000 -1.00000000000000000 0.00000000000000044 0.00000000000000000 -0.00000000000000044 -1.00000000000000000 -1.00000000000000000 -0.00000000000000000 -0.00000000000000000 1.00000000000000000
2 -17.41250000000000142 0.00000000000000773 17.41250000000000142 0.00000000000000000 1.00000000000000000 -0.00000000000000044 0.00000000000000000 -0.00000000000000044 -1.00000000000000000 -1.00000000000000000 0.00000000000000000 -0.00000000000000000 1.00000000000000000
2 -17.41250000000000142 0.00000000000000773 17.41250000000000142 0.00000000000000000 1.00000000000000000 -0.00000000000000044 0.00000000000000000 -0.00000000000000044 -1.00000000000000000 -1.00000000000000000 0.00000000000000000 -0.00000000000000000 1.00000000000000000
2 17.41250000000000142 -0.00000000000000773 -17.41250000000000142 -0.00000000000000000 1.00000000000000000 -0.00000000000000044 0.00000000000000000 -0.00000000000000044 -1.00000000000000000 1.00000000000000000 0.00000000000000000 -0.00000000000000000 1.00000000000000000
2 17.41250000000000142 0.00000000000000773 17.41250000000000142 -0.00000000000000000 1.00000000000000000 -0.00000000000000044 0.00000000000000000 -0.00000000000000044 -1.00000000000000000 1.00000000000000000 0.00000000000000000 -0.00000000000000000 1.00000000000000000
1 18.41250000000000142 0.00000000000000000 17.41250000000000142 1.00000000000000000 0.00000000000000000 0.00000000000000000 0.00000000000000000 0.00000000000000000 -1.00000000000000000 -0.00000000000000000 1.00000000000000000 0.00000000000000000 
2 17.41250000000000142 -17.41250000000000142 0.00000000000000773 0.00000000000000000 0.00000000000000044 1.00000000000000000 0.00000000000000010 -1.00000000000000000 0.00000000000000044 1.00000000000000000 0.00000000000000010 -0.00000000000000000 1.00000000000000000
2 17.41250000000000142 -0.00000000000000773 -17.41250000000000142 0.00000000000000000 -1.00000000000000000 0.00000000000000044 0.00000000000000000 -0.00000000000000044 -1.00000000000000000 1.00000000000000000 0.00000000000000000 0.00000000000000000 1.00000000000000000
2 17.41250000000000142 -0.00000000000000773 -17.41250000000000142 -0.00000000000000000 1.00000000000000000 -0.00000000000000044 0.00000000000000000 -0.00000000000000044 -1.00000000000000000 1.00000000000000000 0.00000000000000000 -0.00000000000000000 1.00000000000000000
2 17.41250000000000142 -0.00000000000000773 -17.41250000000000142 -0.00000000000000000 1.00000000000000000 -0.00000000000000044 0.00000000000000000 -0.00000000000000044 -1.00000000000000000 1.00000000000000000 0.00000000000000000 -0.00000000000000000 1.00000000000000000
2 17.41250000000000142 17.41250000000000142 -0.00000000000000773 0.00000000000000000 0.00000000000000044 1.00000000000000000 1.00000000000000000 0.00000000000000000 -0.00000000000000000 -0.00000000000000000 1.00000000000000000 -0.00000000000000044 1.00000000000000000
2 17.41250000000000142 0.00000000000000773 17.41250000000000142 0.00000000000000000 -1.00000000000000000 0.00000000000000044 0.00000000000000000 -0.00000000000000044 -1.00000000000000000 1.00000000000000000 0.00000000000000000 0.00000000000000000 1.00000000000000000
2 17.41250000000000142 0.00000000000000773 17.41250000000000142 -0.00000000000000000 1.00000000000000000 -0.00000000000000044 0.00000000000000000 -0.00000000000000044 -1.00000000000000000 1.00000000000000000 0.00000000000000000 -0.00000000000000000 1.00000000000000000
2 17.41250000000000142 0.00000000000000773 17.41250000000000142 -0.00000000000000000 1.00000000000000000 -0.00000000000000044 0.00000000000000000 -0.00000000000000044 -1.00000000000000000 1.00000000000000000 0.00000000000000000 -0.00000000000000000 1.00000000000000000
1 -17.99999999999999645 0.00000000000000000 20.00000000000000000 -0.00000000000000000 0.00000000000000022 1.00000000000000000 1.00000000000000000 0.00000000000000000 0.00000000000000000 0.00000000000000000 1.00000000000000000 -0.00000000000000022 
2 -17.99999999999999645 0.00000000000000799 18.00000000000000000 -0.00000000000000000 1.00000000000000000 -0.00000000000000044 0.00000000000000000 -0.00000000000000044 -1.00000000000000000 1.00000000000000000 0.00000000000000000 -0.00000000000000000 2.00000000000000000
2 18.00000000000000355 0.00000000000000799 18.00000000000000000 0.00000000000000000 1.00000000000000000 -0.00000000000000044 0.00000000000000000 -0.00000000000000044 -1.00000000000000000 -1.00000000000000000 0.00000000000000000 -0.00000000000000000 2.00000000000000000
1 -19.99999999999999645 0.00000000000000000 -18.00000000000000000 -1.00000000000000000 0.00000000000000000 0.00000000000000000 0.00000000000000000 0.00000000000000000 1.00000000000000000 0.00000000000000000 1.00000000000000000 -0.00000000000000000 
2 -17.99999999999999645 18.00000000000000000 -0.00000000000000799 0.00000000000000000 0.00000000000000044 1.00000000000000000 0.00000000000000000 1.00000000000000000 -0.00000000000000044 -1.00000000000000000 0.00000000000000000 0.00000000000000000 2.00000000000000000
2 -17.99999999999999645 0.00000000000000799 18.00000000000000000 0.00000000000000000 -1.00000000000000000 0.00000000000000044 0.00000000000000000 -0.00000000000000044 -1.00000000000000000 1.00000000000000000 0.00000000000000000 0.00000000000000000 2.00000000000000000
2 -17.99999999999999645 0.00000000000000799 18.00000000000000000 -0.00000000000000000 1.00000000000000000 -0.00000000000000044 0.00000000000000000 -0.00000000000000044 -1.00000000000000000 1.00000000000000000 0.00000000000000000 -0.00000000000000000 2.00000000000000000
2 -17.99999999999999645 0.00000000000000799 18.00000000000000000 -0.00000000000000000 1.00000000000000000 -0.00000000000000044 0.00000000000000000 -0.00000000000000044 -1.00000000000000000 1.00000000000000000 0.00000000000000000 -0.00000000000000000 2.00000000000000000
1 20.00000000000000355 0.00000000000000000 18.00000000000000000 1.00000000000000000 0.00000000000000000 0.00000000000000000 0.00000000000000000 0.00000000000000000 -1.00000000000000000 -0.00000000000000000 1.00000000000000000 0.00000000000000000 
2 18.00000000000000355 18.00000000000000000 -0.00000000000000799 0.00000000000000000 0.00000000000000044 1.00000000000000000 0.00000000000000000 1.00000000000000000 -0.00000000000000044 1.00000000000000000 -0.00000000000000000 -0.00000000000000000 2.00000000000000000
2 18.00000000000000355 0.00000000000000799 18.00000000000000000 -0.00000000000000000 -1.00000000000000000 0.00000000000000044 0.00000000000000000 -0.00000000000000044 -1.00000000000000000 -1.00000000000000000 -0.00000000000000000 -0.00000000000000000 2.00000000000000000
2 18.00000000000000355 0.00000000000000799 18.00000000000000000 0.00000000000000000 1.00000000000000000 -0.00000000000000044 0.00000000000000000 -0.00000000000000044 -1.00000000000000000 -1.00000000000000000 0.00000000000000000 -0.00000000000000000 2.00000000000000000
2 18.00000000000000355 0.00000000000000799 18.00000000000000000 0.00000000000000000 1.00000000000000000 -0.00000000000000044 0.00000000000000000 -0.00000000000000044 -1.00000000000000000 -1.00000000000000000 0.00000000000000000 -0.00000000000000000 2.00000000000000000
2 -17.99999999999999645 -0.00000000000000799 -18.00000000000000000 0.00000000000000000 1.00000000000000000 -0.00000000000000044 0.00000000000000000 -0.00000000000000044 -1.00000000000000000 -1.00000000000000000 0.00000000000000000 -0.00000000000000000 2.00000000000000000
2 18.00000000000000355 -0.00000000000000799 -18.00000000000000000 0.00000000000000000 1.00000000000000000 -0.00000000000000044 0.00000000000000000 -0.00000000000000044 -1.00000000000000000 -1.00000000000000000 0.00000000000000000 -0.00000000000000000 2.00000000000000000
1 18.00000000000000355 0.00000000000000000 -20.00000000000000000 -0.00000000000000000 -0.00000000000000022 -1.00000000000000000 -1.00000000000000000 0.00000000000000000 0.00000000000000000 0.00000000000000000 1.00000000000000000 -0.00000000000000022 
2 -17.99999999999999645 -18.00000000000000000 0.00000000000000799 0.00000000000000000 0.00000000000000044 1.00000000000000000 0.00000000000000000 -1.00000000000000000 0.00000000000000044 -1.00000000000000000 -0.00000000000000000 0.00000000000000000 2.00000000000000000
2 -17.99999999999999645 -0.00000000000000799 -18.00000000000000000 -0.00000000000000000 -1.00000000000000000 0.00000000000000044 0.00000000000000000 -0.00000000000000044 -1.00000000000000000 -1.00000000000000000 -0.00000000000000000 -0.00000000000000000 2.00000000000000000
2 -17.99999999999999645 -0.00000000000000799 -18.00000000000000000 0.00000000000000000 1.00000000000000000 -0.00000000000000044 0.00000000000000000 -0.00000000000000044 -1.00000000000000000 -1.00000000000000000 0.00000000000000000 -0.00000000000000000 2.00000000000000000
2 -17.99999999999999645 -0.00000000000000799 -18.00000000000000000 0.00000000000000000 1.00000000000000000 -0.00000000000000044 0.00000000000000000 -0.00000000000000044 -1.00000000000000000 -1.00000000000000000 0.00000000000000000 -0.00000000000000000 2.00000000000000000
2 18.00000000000000355 -18.00000000000000000 0.00000000000000799 0.00000000000000000 0.00000000000000044 1.00000000000000000 1.00000000000000000 0.00000000000000000 -0.00000000000000000 0.00000000000000000 -1.00000000000000000 0.00000000000000044 2.00000000000000000
2 18.00000000000000355 -0.00000000000000799 -18.00000000000000000 -0.00000000000000000 -1.00000000000000000 0.00000000000000044 0.00000000000000000 -0.00000000000000044 -1.00000000000000000 -1.00000000000000000 -0.00000000000000000 -0.00000000000000000 2.00000000000000000
2 18.00000000000000355 -0.00000000000000799 -18.00000000000000000 0.00000000000000000 1.00000000000000000 -0.00000000000000044 0.00000000000000000 -0.00000000000000044 -1.00000000000000000 -1.00000000000000000 0.00000000000000000 -0.00000000000000000 2.00000000000000000
2 18.00000000000000355 -0.00000000000000799 -18.00000000000000000 0.00000000000000000 1.00000000000000000 -0.00000000000000044 0.00000000000000000 -0.00000000000000044 -1.00000000000000000 -1.00000000000000000 0.00000000000000000 -0.00000000000000000 2.00000000000000000
Triangulations 0

TShapes 85
Ve
0.000000100000000
-18.412500000000001 -17.412500000000001 0.000000000000008
0 0

0101101
*
Ed
 0.000000100000000 1 1 0
1  1 0 0.000000000000000 35.000000000000000
2  1 2 0 0.000000000000000 35.000000000000000
4 C1 1 0 2 0
0

0101000
+85 11 -85 13 *
Ve
0.000000100000000
-18.412500000000001 17.412500000000001 -0.000000000000008
0 0

0101101
*
Ed
 0.000000100000000 1 1 0
1  2 0 0.000000000000000 35.000000000000000
2  2 3 0 0.000000000000000 35.000000000000000
4 C1 1 0 3 0
0

0101000
+83 11 -83 13 *
Ed
 0.000000100000000 1 1 0
1  3 0 1.000000000000004 35.825000000000003
0

0101000
+85 20 -83 20 *
Wi

0101100
+84 0 -82 0 -81 19 +81 21 *
Fa
0  0.000000100000000 1 0

0101000
+80 0 *
Ve
0.000000100000000
-17.412500000000001 -18.412500000000001 0.000000000000008
0 0

0101101
*
Ed
 0.000000100000000 1 1 0
1  4 0 0.000000000000000 35.000000000000000
2  3 2 0 0.000000000000000 35.000000000000000
4 C1 2 0 4 0
2  4 4 0 0.000000000000000 35.000000000000000
0

0101000
+78 11 -78 13 *
Ed
 0.000000100000000 1 1 0
1  5 0 4.712388980384690 6.283185307179586
2  5 5 0 4.712388980384690 6.283185307179586
2  6 6 22 4.712388980384690 6.283185307179586
2  7 7 25 4.712388980384690 6.283185307179586
2  8 7 27 4.712388980384690 6.283185307179586
2  9 8 30 4.712388980384690 6.283185307179586
2  10 8 32 4.712388980384690 6.283185307179586
2  11 9 35 4.712388980384690 6.283185307179586
2  12 9 37 4.712388980384690 6.283185307179586
2  13 2 38 4.712388980384690 6.283185307179586
2  14 2 39 4.712388980384690 6.283185307179586
0

0101000
+85 0 -78 0 *
Wi

0101100
+84 0 -77 0 -76 11 +76 13 *
Fa
0  0.000000100000000 2 0

0101000
+75 0 *
Ve
0.000000100000000
-17.412500000000001 18.412500000000001 -0.000000000000008
0 0

0101101
*
Ed
 0.000000100000000 1 1 0
1  6 0 0.000000000000000 35.000000000000000
2  15 3 0 0.000000000000000 35.000000000000000
4 C1 3 0 10 0
2  16 10 0 0.000000000000000 35.000000000000000
0

0101000
+73 11 -73 13 *
Ed
 0.000000100000000 1 1 0
1  7 0 1.570796326794897 3.141592653589793
2  17 11 0 1.570796326794897 3.141592653589793
2  18 6 22 1.570796326794897 3.141592653589793
2  19 12 25 1.570796326794897 3.141592653589793
2  20 12 27 1.570796326794897 3.141592653589793
2  21 13 30 1.570796326794897 3.141592653589793
2  22 13 32 1.570796326794897 3.141592653589793
2  23 14 35 1.570796326794897 3.141592653589793
2  24 14 37 1.570796326794897 3.141592653589793
2  25 3 38 1.570796326794897 3.141592653589793
2  26 3 39 1.570796326794897 3.141592653589793
0

0101000
+83 0 -73 0 *
Wi

0101100
+82 0 -72 0 -71 11 +71 13 *
Fa
0  0.000000100000000 3 0

0101000
+70 0 *
Ve
0.000000100000000
17.412500000000001 -18.412500000000001 0.000000000000008
0 0

0101101
*
Ed
 0.000000100000000 1 1 0
1  8 0 0.000000000000000 35.000000000000000
2  27 15 0 0.000000000000000 35.000000000000000
4 C1 4 0 15 0
2  28 4 0 0.000000000000000 35.000000000000000
0

0101000
+68 11 -68 13 *
Ed
 0.000000100000000 1 1 0
1  9 0 1.000000000000000 35.825000000000003
2  29 4 40 1.000000000000000 35.825000000000003
2  30 4 41 1.000000000000000 35.825000000000003
0

0101000
+68 20 -78 20 *
Wi

0101100
+67 0 -77 0 -66 19 +66 21 *
Fa
0  0.000000100000000 4 0

0101000
+65 0 *
Ve
0.000000100000000
17.412500000000001 18.412500000000001 -0.000000000000008
0 0

0101101
*
Ed
 0.000000100000000 1 1 0
1  10 0 0.000000000000000 35.000000000000000
2  31 16 0 0.000000000000000 35.000000000000000
4 C1 10 0 16 0
2  32 10 0 0.000000000000000 35.000000000000000
0

0101000
+63 11 -63 13 *
Ed
 0.000000100000000 1 1 0
1  11 0 1.000000000000000 35.825000000000003
2  33 10 40 1.000000000000000 35.825000000000003
2  34 10 41 1.000000000000000 35.825000000000003
0

0101000
+73 20 -63 20 *
Wi

0101100
+72 0 -62 0 -61 19 +61 21 *
Fa
0  0.000000100000000 10 0

0101000
+60 0 *
Ve
0.000000100000000
18.412500000000001 -17.412500000000001 0.000000000000008
0 0

0101101
*
Ed
 0.000000100000000 1 1 0
1  12 0 0.000000000000000 35.000000000000000
2  35 15 0 0.000000000000000 35.000000000000000
4 C1 15 0 17 0
0

0101000
+58 11 -58 13 *
Ed
 0.000000100000000 1 1 0
1  13 0 0.000000000000000 1.570796326794897
2  36 18 0 0.000000000000000 1.570796326794897
2  37 6 22 0.000000000000000 1.570796326794897
2  38 19 25 0.000000000000000 1.570796326794897
2  39 19 27 0.000000000000000 1.570796326794897
2  40 20 30 0.000000000000000 1.570796326794897
2  41 20 32 0.000000000000000 1.570796326794897
2  42 21 35 0.000000000000000 1.570796326794897
2  43 21 37 0.000000000000000 1.570796326794897
2  44 15 38 0.000000000000000 1.570796326794897
2  45 15 39 0.000000000000000 1.570796326794897
0

0101000
+68 0 -58 0 *
Wi

0101100
+67 0 -57 0 -56 11 +56 13 *
Fa
0  0.000000100000000 15 0

0101000
+55 0 *
Ve
0.000000100000000
18.412500000000001 17.412500000000001 -0.000000000000008
0 0

0101101
*
Ed
 0.000000100000000 1 1 0
1  14 0 0.000000000000000 35.000000000000000
2  46 16 0 0.000000000000000 35.000000000000000
4 C1 16 0 17 0
0

0101000
+53 11 -53 13 *
Ed
 0.000000100000000 1 1 0
1  15 0 1.570796326794897 3.141592653589793
2  47 22 0 1.570796326794897 3.141592653589793
2  48 6 22 1.570796326794897 3.141592653589793
2  49 23 25 1.570796326794897 3.141592653589793
2  50 23 27 1.570796326794897 3.141592653589793
2  51 24 30 1.570796326794897 3.141592653589793
2  52 24 32 1.570796326794897 3.141592653589793
2  53 25 35 1.570796326794897 3.141592653589793
2  54 25 37 1.570796326794897 3.141592653589793
2  55 16 38 1.570796326794897 3.141592653589793
2  56 16 39 1.570796326794897 3.141592653589793
0

0101000
+53 0 -63 0 *
Wi

0101100
+52 0 -62 0 -51 11 +51 13 *
Fa
0  0.000000100000000 16 0

0101000
+50 0 *
Ed
 0.000000100000000 1 1 0
1  16 0 1.000000000000000 35.825000000000003
0

0101000
+53 20 -58 20 *
Wi

0101100
+52 0 -57 0 -48 19 +48 21 *
Fa
0  0.000000100000000 17 0

0101000
+47 0 *
Ve
0.000000100000000
-17.999999999999996 20.000000000000000 -0.000000000000009
0 0

0101101
*
Ed
 0.000000100000000 1 1 0
1  17 0 0.000000000000000 35.000000000000000
2  57 27 0 0.000000000000000 35.000000000000000
4 G1 26 0 27 0
2  58 26 0 0.000000000000000 35.000000000000000
0

0101000
+45 42 -45 43 *
Ve
0.000000100000000
18.000000000000004 20.000000000000000 -0.000000000000009
0 0

0101101
*
Ed
 0.000000100000000 1 1 0
1  18 0 0.000000000000000 35.000000000000000
2  59 28 0 0.000000000000000 35.000000000000000
4 G1 26 0 28 0
2  60 26 0 0.000000000000000 35.000000000000000
0

0101000
+43 42 -43 43 *
Ed
 0.000000100000000 1 1 0
1  19 0 2.000000000000000 38.000000000000000
2  61 26 40 2.000000000000000 38.000000000000000
2  62 26 41 2.000000000000000 38.000000000000000
0

0101000
+45 44 -43 44 *
Wi

0101100
+44 0 -42 0 -41 19 +41 21 *
Fa
0  0.000000100000000 26 0

0101000
+40 0 *
Ve
0.000000100000000
-19.999999999999996 18.000000000000000 -0.000000000000008
0 0

0101101
*
Ed
 0.000000100000000 1 1 0
1  20 0 0.000000000000000 35.000000000000000
2  63 27 0 0.000000000000000 35.000000000000000
4 G1 27 0 29 0
0

0101000
+38 42 -38 43 *
Ed
 0.000000100000000 1 1 0
1  21 0 3.141592653589793 4.712388980384690
2  64 30 0 3.141592653589793 4.712388980384690
2  65 6 45 3.141592653589793 4.712388980384690
2  66 31 46 3.141592653589793 4.712388980384690
2  67 31 47 3.141592653589793 4.712388980384690
2  68 32 48 3.141592653589793 4.712388980384690
2  69 32 49 3.141592653589793 4.712388980384690
2  70 33 50 3.141592653589793 4.712388980384690
2  71 33 51 3.141592653589793 4.712388980384690
2  72 27 52 3.141592653589793 4.712388980384690
2  73 27 53 3.141592653589793 4.712388980384690
0

0101000
+45 0 -38 0 *
Wi

0101100
+44 0 -37 0 -36 42 +36 43 *
Fa
0  0.000000100000000 27 0

0101000
+35 0 *
Ve
0.000000100000000
20.000000000000004 18.000000000000000 -0.000000000000008
0 0

0101101
*
Ed
 0.000000100000000 1 1 0
1  22 0 0.000000000000000 35.000000000000000
2  74 28 0 0.000000000000000 35.000000000000000
4 G1 28 0 34 0
0

0101000
+33 42 -33 43 *
Ed
 0.000000100000000 1 1 0
1  23 0 3.141592653589793 4.712388980384690
2  75 35 0 3.141592653589793 4.712388980384690
2  76 6 45 3.141592653589793 4.712388980384690
2  77 36 46 3.141592653589793 4.712388980384690
2  78 36 47 3.141592653589793 4.712388980384690
2  79 37 48 3.141592653589793 4.712388980384690
2  80 37 49 3.141592653589793 4.712388980384690
2  81 38 50 3.141592653589793 4.712388980384690
2  82 38 51 3.141592653589793 4.712388980384690
2  83 28 52 3.141592653589793 4.712388980384690
2  84 28 53 3.141592653589793 4.712388980384690
0

0101000
+43 0 -33 0 *
Wi

0101100
+42 0 -32 0 -31 42 +31 43 *
Fa
0  0.000000100000000 28 0

0101000
+30 0 *
Ve
0.000000100000000
-19.999999999999996 -18.000000000000000 0.000000000000008
0 0

0101101
*
Ed
 0.000000100000000 1 1 0
1  24 0 0.000000000000000 35.000000000000000
2  85 39 0 0.000000000000000 35.000000000000000
4 G1 29 0 39 0
0

0101000
+28 42 -28 43 *
Ed
 0.000000100000000 1 1 0
1  25 0 2.000000000000000 38.000000000000000
0

0101000
+28 44 -38 44 *
Wi

0101100
+27 0 -37 0 -26 19 +26 21 *
Fa
0  0.000000100000000 29 0

0101000
+25 0 *
Ve
0.000000100000000
20.000000000000004 -18.000000000000000 0.000000000000008
0 0

0101101
*
Ed
 0.000000100000000 1 1 0
1  26 0 0.000000000000000 35.000000000000000
2  86 40 0 0.000000000000000 35.000000000000000
4 G1 34 0 40 0
0

0101000
+23 42 -23 43 *
Ed
 0.000000100000000 1 1 0
1  27 0 2.000000000000000 38.000000000000000
0

0101000
+33 44 -23 44 *
Wi

0101100
+32 0 -22 0 -21 19 +21 21 *
Fa
0  0.000000100000000 34 0

0101000
+20 0 *
Ve
0.000000100000000
-17.999999999999996 -20.000000000000000 0.000000000000009
0 0

0101101
*
Ed
 0.000000100000000 1 1 0
1  28 0 0.000000000000000 35.000000000000000
2  87 39 0 0.000000000000000 35.000000000000000
4 G1 39 0 41 0
2  88 41 0 0.000000000000000 35.000000000000000
0

0101000
+18 42 -18 43 *
Ed
 0.000000100000000 1 1 0
1  29 0 0.000000000000000 1.570796326794897
2  89 42 0 0.000000000000000 1.570796326794897
2  90 6 45 0.000000000000000 1.570796326794897
2  91 43 46 0.000000000000000 1.570796326794897
2  92 43 47 0.000000000000000 1.570796326794897
2  93 44 48 0.000000000000000 1.570796326794897
2  94 44 49 0.000000000000000 1.570796326794897
2  95 45 50 0.000000000000000 1.570796326794897
2  96 45 51 0.000000000000000 1.570796326794897
2  97 39 52 0.000000000000000 1.570796326794897
2  98 39 53 0.000000000000000 1.570796326794897
0

0101000
+18 0 -28 0 *
Wi

0101100
+17 0 -27 0 -16 42 +16 43 *
Fa
0  0.000000100000000 39 0

0101000
+15 0 *
Ve
0.000000100000000
18.000000000000004 -20.000000000000000 0.000000000000009
0 0

0101101
*
Ed
 0.000000100000000 1 1 0
1  30 0 0.000000000000000 35.000000000000000
2  99 40 0 0.000000000000000 35.000000000000000
4 G1 40 0 41 0
2  100 41 0 0.000000000000000 35.000000000000000
0

0101000
+13 42 -13 43 *
Ed
 0.000000100000000 1 1 0
1  31 0 4.712388980384690 6.283185307179586
2  101 46 0 4.712388980384690 6.283185307179586
2  102 6 45 4.712388980384690 6.283185307179586
2  103 47 46 4.712388980384690 6.283185307179586
2  104 47 47 4.712388980384690 6.283185307179586
2  105 48 48 4.712388980384690 6.283185307179586
2  106 48 49 4.712388980384690 6.283185307179586
2  107 49 50 4.712388980384690 6.283185307179586
2  108 49 51 4.712388980384690 6.283185307179586
2  109 40 52 4.712388980384690 6.283185307179586
2  110 40 53 4.712388980384690 6.283185307179586
0

0101000
+23 0 -13 0 *
Wi

0101100
+22 0 -12 0 -11 42 +11 43 *
Fa
0  0.000000100000000 40 0

0101000
+10 0 *
Ed
 0.000000100000000 1 1 0
1  32 0 2.000000000000000 38.000000000000000
2  111 41 40 2.000000000000000 38.000000000000000
2  112 41 41 2.000000000000000 38.000000000000000
0

0101000
+13 44 -18 44 *
Wi

0101100
+12 0 -17 0 -8 19 +8 21 *
Fa
0  0.000000100000000 41 0

0101000
+7 0 *
Wi

0101100
-81 56 +76 0 -71 0 -66 56 -61 56 +56 0 +51 0 -48 56 *
Wi

0101100
+41 58 -36 0 +31 0 +26 58 +21 58 +16 0 +11 0 +8 58 *
Fa
0  0.000000100000000 6 0

0101000
+5 55 +4 57 *
Sh

0101100
-79 0 +74 0 -69 0 -64 0 -59 0 +54 0 +49 0 -46 0 +39 0 -34 0 
+29 0 +24 0 +19 0 +14 0 +9 0 +6 0 +3 54 -3 59 *
So

1100000
+2 0 *

+1 1 