
CASCADE Topology V1, (c) Matra-Datavision
Locations 72
1
1.000000000000000 0.000000000000000 0.000000000000000 0.000000000000000 
0.000000000000000 1.000000000000000 0.000000000000000 0.000000000000000 
0.000000000000000 0.000000000000000 1.000000000000000 0.000000000000000 
1
1.000000000000000 0.000000000000000 0.000000000000000 0.000000000000000 
0.000000000000000 1.000000000000000 0.000000000000000 0.000000000000000 
0.000000000000000 0.000000000000000 1.000000000000000 0.000000000000000 
1
1.000000000000000 0.000000000000000 0.000000000000000 0.000000000000000 
0.000000000000000 1.000000000000000 0.000000000000000 0.000000000000000 
0.000000000000000 0.000000000000000 1.000000000000000 0.000000000000000 
2  2 1 3 -1 0
1
1.000000000000000 0.000000000000000 0.000000000000000 0.000000000000000 
0.000000000000000 1.000000000000000 0.000000000000000 0.000000000000000 
0.000000000000000 0.000000000000000 1.000000000000000 0.000000000000000 
1
1.000000000000000 0.000000000000000 0.000000000000000 0.000000000000000 
0.000000000000000 0.000000000000000 -1.000000000000000 0.000000000000000 
0.000000000000000 1.000000000000000 0.000000000000000 0.000000000000000 
1
1.000000000000000 0.000000000000000 0.000000000000000 0.000000000000000 
0.000000000000000 1.000000000000000 0.000000000000000 0.000000000000000 
0.000000000000000 0.000000000000000 1.000000000000000 0.000000000000000 
1
1.000000000000000 0.000000000000000 0.000000000000000 0.000000000000000 
0.000000000000000 1.000000000000000 0.000000000000000 0.000000000000000 
0.000000000000000 0.000000000000000 1.000000000000000 0.000000000000000 
1
1.000000000000000 0.000000000000000 0.000000000000000 0.000000000000000 
0.000000000000000 1.000000000000000 0.000000000000000 0.000000000000000 
0.000000000000000 0.000000000000000 1.000000000000000 0.000000000000000 
1
1.000000000000000 0.000000000000000 0.000000000000000 0.000000000000000 
0.000000000000000 1.000000000000000 0.000000000000000 0.000000000000000 
0.000000000000000 0.000000000000000 1.000000000000000 0.000000000000000 
1
1.000000000000000 0.000000000000000 0.000000000000000 0.000000000000000 
0.000000000000000 1.000000000000000 0.000000000000000 0.000000000000000 
0.000000000000000 0.000000000000000 1.000000000000000 0.000000000000000 
1
1.000000000000000 0.000000000000000 0.000000000000000 0.000000000000000 
0.000000000000000 1.000000000000000 0.000000000000000 0.000000000000000 
0.000000000000000 0.000000000000000 1.000000000000000 0.000000000000000 
1
1.000000000000000 0.000000000000000 0.000000000000000 0.000000000000000 
0.000000000000000 1.000000000000000 0.000000000000000 0.000000000000000 
0.000000000000000 0.000000000000000 1.000000000000000 0.000000000000000 
2  5 1 6 1 7 1 8 1 9 1 10 1 11 1 12 1 13 -1 0
1
1.000000000000000 0.000000000000000 0.000000000000000 -0.000000000000000 
0.000000000000000 1.000000000000000 0.000000000000000 -35.000000000000000 
0.000000000000000 0.000000000000000 1.000000000000000 0.000000000000008 
2  5 1 6 1 7 1 8 1 9 1 10 1 11 1 12 1 13 -1 15 1 0
1
1.000000000000000 0.000000000000000 0.000000000000000 0.000000000000000 
0.000000000000000 1.000000000000000 0.000000000000000 0.000000000000000 
0.000000000000000 0.000000000000000 1.000000000000000 0.000000000000000 
1
1.000000000000000 0.000000000000000 0.000000000000000 0.000000000000000 
0.000000000000000 0.000000000000000 -1.000000000000000 0.000000000000000 
0.000000000000000 1.000000000000000 0.000000000000000 0.000000000000000 
1
1.000000000000000 0.000000000000000 0.000000000000000 0.000000000000000 
0.000000000000000 -0.000000000000000 -1.000000000000000 0.000000000000000 
0.000000000000000 1.000000000000000 -0.000000000000000 0.000000000000000 
1
1.000000000000000 0.000000000000000 0.000000000000000 0.000000000000000 
0.000000000000000 1.000000000000000 0.000000000000000 0.000000000000000 
0.000000000000000 0.000000000000000 1.000000000000000 0.000000000000000 
1
1.000000000000000 0.000000000000000 0.000000000000000 0.000000000000000 
0.000000000000000 1.000000000000000 0.000000000000000 0.000000000000000 
0.000000000000000 0.000000000000000 1.000000000000000 0.000000000000000 
2  17 1 18 1 19 -1 20 1 21 1 5 1 6 1 7 1 8 1 9 1 10 1 11 1 12 1 13 -1 0
2  21 -1 20 -1 19 1 18 -1 17 -1 0
2  17 1 18 1 19 -1 20 1 21 1 5 1 6 1 7 1 8 1 9 1 10 1 11 1 12 1 13 -1 15 1 0
2  19 -1 20 1 21 1 0
1
1.000000000000000 0.000000000000000 0.000000000000000 0.000000000000000 
0.000000000000000 1.000000000000000 0.000000000000000 0.000000000000000 
0.000000000000000 0.000000000000000 1.000000000000000 0.000000000000000 
1
1.000000000000000 0.000000000000000 0.000000000000000 0.000000000000000 
0.000000000000000 1.000000000000000 0.000000000000000 0.000000000000000 
0.000000000000000 0.000000000000000 1.000000000000000 0.000000000000000 
2  26 1 27 -1 11 -1 10 -1 9 -1 8 -1 7 -1 6 -1 5 -1 0
1
1.000000000000000 0.000000000000000 0.000000000000000 0.000000000000000 
0.000000000000000 1.000000000000000 0.000000000000000 10.000000000000000 
0.000000000000000 0.000000000000000 1.000000000000000 -0.000000000000002 
2  29 -1 26 1 27 -1 11 -1 10 -1 9 -1 8 -1 7 -1 6 -1 5 -1 0
1
1.000000000000000 0.000000000000000 0.000000000000000 0.000000000000000 
0.000000000000000 1.000000000000000 0.000000000000000 0.000000000000000 
0.000000000000000 0.000000000000000 1.000000000000000 0.000000000000000 
1
1.000000000000000 0.000000000000000 0.000000000000000 0.000000000000000 
0.000000000000000 1.000000000000000 0.000000000000000 0.000000000000000 
0.000000000000000 0.000000000000000 1.000000000000000 0.000000000000000 
2  31 1 32 -1 11 -1 10 -1 9 -1 8 -1 7 -1 6 -1 5 -1 0
1
1.000000000000000 0.000000000000000 0.000000000000000 -0.000000000000000 
0.000000000000000 1.000000000000000 0.000000000000000 -10.000000000000000 
0.000000000000000 0.000000000000000 1.000000000000000 0.000000000000002 
2  34 -1 31 1 32 -1 11 -1 10 -1 9 -1 8 -1 7 -1 6 -1 5 -1 0
1
1.000000000000000 0.000000000000000 0.000000000000000 0.000000000000000 
0.000000000000000 1.000000000000000 0.000000000000000 0.000000000000000 
0.000000000000000 0.000000000000000 1.000000000000000 0.000000000000000 
1
1.000000000000000 0.000000000000000 0.000000000000000 0.000000000000000 
0.000000000000000 1.000000000000000 0.000000000000000 0.000000000000000 
0.000000000000000 0.000000000000000 1.000000000000000 0.000000000000000 
2  36 1 37 -1 11 -1 10 -1 9 -1 8 -1 7 -1 6 -1 5 -1 0
1
1.000000000000000 0.000000000000000 0.000000000000000 -0.000000000000000 
0.000000000000000 1.000000000000000 0.000000000000000 -35.000000000000000 
0.000000000000000 0.000000000000000 1.000000000000000 0.000000000000008 
2  39 -1 36 1 37 -1 11 -1 10 -1 9 -1 8 -1 7 -1 6 -1 5 -1 0
2  13 1 12 -1 11 -1 10 -1 9 -1 8 -1 7 -1 6 -1 5 -1 0
2  15 -1 13 1 12 -1 11 -1 10 -1 9 -1 8 -1 7 -1 6 -1 5 -1 0
2  19 -1 20 1 21 1 5 1 6 1 7 1 8 1 9 1 10 1 11 1 12 1 13 -1 2 1 3 -1 0
2  21 -1 20 -1 19 1 0
2  17 1 18 1 19 -1 20 1 21 1 0
2  13 1 12 -1 11 -1 10 -1 9 -1 8 -1 7 -1 6 -1 5 -1 21 -1 20 -1 19 1 18 -1 17 -1 0
2  15 -1 13 1 12 -1 11 -1 10 -1 9 -1 8 -1 7 -1 6 -1 5 -1 21 -1 20 -1 19 1 18 -1 17 -1 0
2  20 -1 19 1 0
2  17 1 18 1 19 -1 20 1 0
2  20 -1 19 1 18 -1 17 -1 0
2  19 -1 20 1 0
2  26 1 27 -1 11 -1 10 -1 9 -1 8 -1 7 -1 6 -1 5 -1 21 -1 0
2  29 -1 26 1 27 -1 11 -1 10 -1 9 -1 8 -1 7 -1 6 -1 5 -1 21 -1 0
2  31 1 32 -1 11 -1 10 -1 9 -1 8 -1 7 -1 6 -1 5 -1 21 -1 0
2  34 -1 31 1 32 -1 11 -1 10 -1 9 -1 8 -1 7 -1 6 -1 5 -1 21 -1 0
2  36 1 37 -1 11 -1 10 -1 9 -1 8 -1 7 -1 6 -1 5 -1 21 -1 0
2  39 -1 36 1 37 -1 11 -1 10 -1 9 -1 8 -1 7 -1 6 -1 5 -1 21 -1 0
2  13 1 12 -1 11 -1 10 -1 9 -1 8 -1 7 -1 6 -1 5 -1 21 -1 0
2  15 -1 13 1 12 -1 11 -1 10 -1 9 -1 8 -1 7 -1 6 -1 5 -1 21 -1 0
2  19 -1 20 1 21 1 5 1 6 1 7 1 8 1 9 1 10 1 11 1 12 1 13 -1 15 1 2 1 3 -1 0
2  17 1 18 1 19 -1 20 1 21 1 5 1 6 1 7 1 8 1 9 1 10 1 11 1 12 1 13 -1 2 1 3 -1 0
2  17 1 18 1 19 -1 20 1 21 1 5 1 6 1 7 1 8 1 9 1 10 1 11 1 12 1 13 -1 15 1 2 1 3 -1 0
2  21 1 5 1 6 1 7 1 8 1 9 1 10 1 11 1 12 1 13 -1 0
2  21 1 5 1 6 1 7 1 8 1 9 1 10 1 11 1 12 1 13 -1 15 1 0
1
1.000000000000000 0.000000000000000 0.000000000000000 0.000000000000000 
0.000000000000000 1.000000000000000 0.000000000000000 0.000000000000000 
0.000000000000000 0.000000000000000 1.000000000000000 0.000000000000000 
1
1.000000000000000 0.000000000000000 0.000000000000000 0.000000000000000 
0.000000000000000 -1.000000000000000 -0.000000000000000 -0.000000000000004 
0.000000000000000 0.000000000000000 -1.000000000000000 -20.000000000000000 
2  65 1 66 1 3 -1 0
2  3 1 66 -1 65 -1 0
1
1.000000000000000 0.000000000000000 0.000000000000000 0.000000000000000 
0.000000000000000 1.000000000000000 0.000000000000000 0.000000000000001 
0.000000000000000 0.000000000000000 1.000000000000000 5.000000000000000 
2  69 -1 3 1 66 -1 65 -1 0
2  66 -1 65 -1 0
2  2 1 66 -1 65 -1 0
Curve2ds 120
1 4.71238898038468967 0.00000000000000000 0.00000000000000000 -1.00000000000000000 
1 1.57079632679489700 0.00000000000000000 0.00000000000000000 -1.00000000000000000 
1 6.28318530717958623 0.00000000000000000 0.00000000000000000 -1.00000000000000000 
1 34.82500000000000284 -0.00000000000000800 -0.00000000000000000 -1.00000000000000000 
1 -4.71238898038468967 0.00000000000000000 1.00000000000000000 0.00000000000000000 
2 -17.41250000000000142 -17.41250000000000497 -1.00000000000000000 0.00000000000000000 0.00000000000000000 1.00000000000000000 1.00000000000000000
1 0.00000000000000000 0.00000000000000000 1.00000000000000000 0.00000000000000000 
1 0.00000000000000000 -10.00000000000000000 1.00000000000000000 0.00000000000000000 
1 0.00000000000000000 0.00000000000000000 1.00000000000000000 0.00000000000000000 
1 0.00000000000000000 -10.00000000000000000 1.00000000000000000 0.00000000000000000 
1 0.00000000000000000 0.00000000000000000 1.00000000000000000 0.00000000000000000 
1 0.00000000000000000 -35.00000000000000000 1.00000000000000000 0.00000000000000000 
1 0.00000000000000000 0.00000000000000000 1.00000000000000000 0.00000000000000000 
1 0.00000000000000000 -35.00000000000000000 1.00000000000000000 0.00000000000000000 
1 3.14159265358979312 0.00000000000000000 0.00000000000000000 -1.00000000000000000 
1 0.00000000000000000 0.00000000000000800 0.00000000000000000 -1.00000000000000000 
1 -1.57079632679489656 0.00000000000000000 1.00000000000000000 0.00000000000000000 
2 17.41250000000000142 -17.41250000000000497 -1.00000000000000000 0.00000000000000000 -0.00000000000000000 -1.00000000000000000 1.00000000000000000
1 0.00000000000000000 0.00000000000000000 1.00000000000000000 0.00000000000000000 
1 0.00000000000000000 -10.00000000000000000 1.00000000000000000 0.00000000000000000 
1 0.00000000000000000 0.00000000000000000 1.00000000000000000 0.00000000000000000 
1 0.00000000000000000 -10.00000000000000000 1.00000000000000000 0.00000000000000000 
1 0.00000000000000000 0.00000000000000000 1.00000000000000000 0.00000000000000000 
1 0.00000000000000000 -35.00000000000000000 1.00000000000000000 0.00000000000000000 
1 0.00000000000000000 0.00000000000000000 1.00000000000000000 0.00000000000000000 
1 0.00000000000000000 -35.00000000000000000 1.00000000000000000 0.00000000000000000 
1 -1.00000000000000000 0.00000000000000000 1.00000000000000000 0.00000000000000000 
1 -1.00000000000000000 -35.00000000000000000 1.00000000000000000 0.00000000000000000 
1 -1.00000000000000000 0.00000000000000000 1.00000000000000000 0.00000000000000000 
1 -1.00000000000000000 -35.00000000000000000 1.00000000000000000 0.00000000000000000 
1 0.00000000000000000 0.00000000000000000 1.00000000000000000 0.00000000000000000 
2 -17.41250000000000142 17.41249999999999787 -1.00000000000000000 0.00000000000000000 0.00000000000000000 1.00000000000000000 1.00000000000000000
1 0.00000000000000000 0.00000000000000000 1.00000000000000000 0.00000000000000000 
1 0.00000000000000000 -10.00000000000000000 1.00000000000000000 0.00000000000000000 
1 0.00000000000000000 0.00000000000000000 1.00000000000000000 0.00000000000000000 
1 0.00000000000000000 -10.00000000000000000 1.00000000000000000 0.00000000000000000 
1 0.00000000000000000 0.00000000000000000 1.00000000000000000 0.00000000000000000 
1 0.00000000000000000 -35.00000000000000000 1.00000000000000000 0.00000000000000000 
1 0.00000000000000000 0.00000000000000000 1.00000000000000000 0.00000000000000000 
1 0.00000000000000000 -35.00000000000000000 1.00000000000000000 0.00000000000000000 
1 -1.57079632679489656 0.00000000000000000 1.00000000000000000 0.00000000000000000 
2 17.41250000000000142 17.41249999999999787 -1.00000000000000000 0.00000000000000000 0.00000000000000000 1.00000000000000000 1.00000000000000000
1 0.00000000000000000 0.00000000000000000 1.00000000000000000 0.00000000000000000 
1 0.00000000000000000 -10.00000000000000000 1.00000000000000000 0.00000000000000000 
1 0.00000000000000000 0.00000000000000000 1.00000000000000000 0.00000000000000000 
1 0.00000000000000000 -10.00000000000000000 1.00000000000000000 0.00000000000000000 
1 0.00000000000000000 0.00000000000000000 1.00000000000000000 0.00000000000000000 
1 0.00000000000000000 -35.00000000000000000 1.00000000000000000 0.00000000000000000 
1 0.00000000000000000 0.00000000000000000 1.00000000000000000 0.00000000000000000 
1 0.00000000000000000 -35.00000000000000000 1.00000000000000000 0.00000000000000000 
1 -2.00000000000000000 0.00000000000000000 1.00000000000000000 0.00000000000000000 
1 -2.00000000000000000 -35.00000000000000000 1.00000000000000000 0.00000000000000000 
1 -3.14159265358979312 0.00000000000000000 1.00000000000000000 0.00000000000000000 
2 18.00000000000000000 -18.00000000000000000 -1.00000000000000000 0.00000000000000000 0.00000000000000000 1.00000000000000000 2.00000000000000000
1 0.00000000000000000 0.00000000000000000 1.00000000000000000 0.00000000000000000 
1 0.00000000000000000 -10.00000000000000000 1.00000000000000000 0.00000000000000000 
1 0.00000000000000000 0.00000000000000000 1.00000000000000000 0.00000000000000000 
1 0.00000000000000000 -10.00000000000000000 1.00000000000000000 0.00000000000000000 
1 0.00000000000000000 0.00000000000000000 1.00000000000000000 0.00000000000000000 
1 0.00000000000000000 -35.00000000000000000 1.00000000000000000 0.00000000000000000 
1 0.00000000000000000 0.00000000000000000 1.00000000000000000 0.00000000000000000 
1 0.00000000000000000 -35.00000000000000000 1.00000000000000000 0.00000000000000000 
1 -3.14159265358979312 0.00000000000000000 1.00000000000000000 0.00000000000000000 
2 18.00000000000000000 18.00000000000000000 -1.00000000000000000 0.00000000000000000 -0.00000000000000000 -1.00000000000000000 2.00000000000000000
1 0.00000000000000000 0.00000000000000000 1.00000000000000000 0.00000000000000000 
1 0.00000000000000000 -10.00000000000000000 1.00000000000000000 0.00000000000000000 
1 0.00000000000000000 0.00000000000000000 1.00000000000000000 0.00000000000000000 
1 0.00000000000000000 -10.00000000000000000 1.00000000000000000 0.00000000000000000 
1 0.00000000000000000 0.00000000000000000 1.00000000000000000 0.00000000000000000 
1 0.00000000000000000 -35.00000000000000000 1.00000000000000000 0.00000000000000000 
1 0.00000000000000000 0.00000000000000000 1.00000000000000000 0.00000000000000000 
1 0.00000000000000000 -35.00000000000000000 1.00000000000000000 0.00000000000000000 
1 0.00000000000000000 0.00000000000000000 1.00000000000000000 0.00000000000000000 
2 -18.00000000000000000 -18.00000000000000000 -1.00000000000000000 0.00000000000000000 -0.00000000000000000 -1.00000000000000000 2.00000000000000000
1 0.00000000000000000 0.00000000000000000 1.00000000000000000 0.00000000000000000 
1 0.00000000000000000 -10.00000000000000000 1.00000000000000000 0.00000000000000000 
1 0.00000000000000000 0.00000000000000000 1.00000000000000000 0.00000000000000000 
1 0.00000000000000000 -10.00000000000000000 1.00000000000000000 0.00000000000000000 
1 0.00000000000000000 0.00000000000000000 1.00000000000000000 0.00000000000000000 
1 0.00000000000000000 -35.00000000000000000 1.00000000000000000 0.00000000000000000 
1 0.00000000000000000 0.00000000000000000 1.00000000000000000 0.00000000000000000 
1 0.00000000000000000 -35.00000000000000000 1.00000000000000000 0.00000000000000000 
1 -4.71238898038468967 0.00000000000000000 1.00000000000000000 0.00000000000000000 
2 -18.00000000000000000 18.00000000000000000 -1.00000000000000000 0.00000000000000000 -0.00000000000000000 -1.00000000000000000 2.00000000000000000
1 0.00000000000000000 0.00000000000000000 1.00000000000000000 0.00000000000000000 
1 0.00000000000000000 -10.00000000000000000 1.00000000000000000 0.00000000000000000 
1 0.00000000000000000 0.00000000000000000 1.00000000000000000 0.00000000000000000 
1 0.00000000000000000 -10.00000000000000000 1.00000000000000000 0.00000000000000000 
1 0.00000000000000000 0.00000000000000000 1.00000000000000000 0.00000000000000000 
1 0.00000000000000000 -35.00000000000000000 1.00000000000000000 0.00000000000000000 
1 0.00000000000000000 0.00000000000000000 1.00000000000000000 0.00000000000000000 
1 0.00000000000000000 -35.00000000000000000 1.00000000000000000 0.00000000000000000 
1 -2.00000000000000000 0.00000000000000000 1.00000000000000000 0.00000000000000000 
1 -2.00000000000000000 -35.00000000000000000 1.00000000000000000 0.00000000000000000 
1 0.00000000000000000 0.00000000000000000 0.00000000000000000 -1.00000000000000000 
1 -0.00000000000000000 -0.00000000000000800 -0.00000000000000000 -1.00000000000000000 
2 17.41250000000000142 -17.50000000000000355 -1.00000000000000000 0.00000000000000000 -0.00000000000000000 -1.00000000000000000 3.96875000000000000
1 0.00000000000000000 -1.58749999999999858 1.00000000000000000 0.00000000000000000 
1 3.14159265358979312 0.00000000000000000 0.00000000000000000 -1.00000000000000000 
1 34.82500000000000284 0.00000000000000800 0.00000000000000000 -1.00000000000000000 
1 1.57079632679489700 0.00000000000000000 0.00000000000000000 -1.00000000000000000 
1 1.57079632679489700 0.00000000000000000 0.00000000000000000 -1.00000000000000000 
1 3.14159265358979312 0.00000000000000000 0.00000000000000000 -1.00000000000000000 
1 0.00000000000000000 0.00000000000000900 0.00000000000000000 -1.00000000000000000 
1 3.14159265358979312 0.00000000000000000 0.00000000000000000 -1.00000000000000000 
1 36.00000000000000000 0.00000000000000900 0.00000000000000000 -1.00000000000000000 
1 4.71238898038468967 0.00000000000000000 0.00000000000000000 -1.00000000000000000 
1 4.71238898038468967 0.00000000000000000 0.00000000000000000 -1.00000000000000000 
1 1.57079632679489700 0.00000000000000000 0.00000000000000000 -1.00000000000000000 
1 4.71238898038468967 0.00000000000000000 0.00000000000000000 -1.00000000000000000 
1 0.00000000000000000 0.00000000000000000 0.00000000000000000 -1.00000000000000000 
1 36.00000000000000000 -0.00000000000000900 0.00000000000000000 -1.00000000000000000 
1 6.28318530717958623 0.00000000000000000 0.00000000000000000 -1.00000000000000000 
1 0.00000000000000000 -0.00000000000000900 0.00000000000000000 -1.00000000000000000 
1 0.00000000000000000 0.00000000000000000 1.00000000000000000 0.00000000000000000 
1 0.00000000000000000 -5.00000000000000000 1.00000000000000000 0.00000000000000000 
2 -0.00000000000000017 0.00000000000000000 -1.00000000000000000 0.00000000000000000 -0.00000000000000000 -1.00000000000000000 3.96875000000000000
2 18.00000000000000355 -17.50000000000000355 -1.00000000000000000 0.00000000000000000 -0.00000000000000000 -1.00000000000000000 3.96875000000000000
1 0.00000000000000000 0.00000000000000000 0.00000000000000000 -1.00000000000000000 
1 6.28318530717958623 0.00000000000000000 0.00000000000000000 -1.00000000000000000 
Curves 35
1 -18.41250000000000142 -0.00000000000000800 -17.41250000000000142 -0.00000000000000000 -1.00000000000000000 0.00000000000000022 
1 -18.41250000000000142 0.00000000000000800 17.41250000000000142 -0.00000000000000000 -1.00000000000000000 0.00000000000000022 
1 -18.41250000000000142 -18.41250000000000497 0.00000000000000000 0.00000000000000000 1.00000000000000000 0.00000000000000000 
1 -17.41250000000000142 -0.00000000000000800 -18.41250000000000142 -0.00000000000000000 -1.00000000000000000 0.00000000000000022 
8 4.71238898038468967 6.28318530717958623
2 -17.41250000000000142 -17.41250000000000142 0.00000000000000773 0.00000000000000000 0.00000000000000044 1.00000000000000000 0.00000000000000000 -1.00000000000000000 0.00000000000000044 1.00000000000000000 0.00000000000000000 -0.00000000000000000 1.00000000000000000
1 -17.41250000000000142 0.00000000000000800 18.41250000000000142 -0.00000000000000000 -1.00000000000000000 0.00000000000000022 
8 1.57079632679489656 3.14159265358979312
2 -17.41250000000000142 17.41250000000000142 -0.00000000000000773 -0.00000000000000000 -0.00000000000000044 -1.00000000000000000 0.00000000000000000 -1.00000000000000000 0.00000000000000044 -1.00000000000000000 0.00000000000000000 0.00000000000000000 1.00000000000000000
1 18.41250000000000142 -18.41250000000000142 0.00000000000000000 -1.00000000000000000 -0.00000000000000010 0.00000000000000000 
1 -18.41250000000000142 18.41250000000000142 0.00000000000000000 1.00000000000000000 0.00000000000000000 0.00000000000000000 
8 0.00000000000000000 1.57079632679489656
2 17.41250000000000142 -17.41250000000000142 0.00000000000000773 0.00000000000000000 0.00000000000000044 1.00000000000000000 0.00000000000000000 -1.00000000000000000 0.00000000000000044 1.00000000000000000 0.00000000000000000 -0.00000000000000000 1.00000000000000000
8 1.57079632679489656 3.14159265358979312
2 17.41250000000000142 17.41250000000000142 -0.00000000000000773 0.00000000000000000 0.00000000000000044 1.00000000000000000 0.00000000000000000 -1.00000000000000000 0.00000000000000044 1.00000000000000000 0.00000000000000000 -0.00000000000000000 1.00000000000000000
1 18.41250000000000142 18.41250000000000142 0.00000000000000000 0.00000000000000000 -1.00000000000000000 0.00000000000000000 
1 -19.99999999999999645 20.00000000000000000 0.00000000000000000 1.00000000000000000 0.00000000000000000 0.00000000000000000 
8 3.14159265358979312 4.71238898038468967
2 -17.99999999999999645 18.00000000000000000 -0.00000000000000799 0.00000000000000000 0.00000000000000044 1.00000000000000000 0.00000000000000000 -1.00000000000000000 0.00000000000000044 1.00000000000000000 0.00000000000000000 -0.00000000000000000 2.00000000000000000
8 3.14159265358979312 4.71238898038468967
2 18.00000000000000355 18.00000000000000000 -0.00000000000000799 -0.00000000000000000 -0.00000000000000044 -1.00000000000000000 0.00000000000000000 -1.00000000000000000 0.00000000000000044 -1.00000000000000000 0.00000000000000000 0.00000000000000000 2.00000000000000000
1 -19.99999999999999645 -20.00000000000000000 0.00000000000000000 0.00000000000000000 1.00000000000000000 0.00000000000000000 
1 20.00000000000000355 20.00000000000000000 0.00000000000000000 0.00000000000000000 -1.00000000000000000 0.00000000000000000 
8 0.00000000000000000 1.57079632679489656
2 -17.99999999999999645 -18.00000000000000000 0.00000000000000799 -0.00000000000000000 -0.00000000000000044 -1.00000000000000000 0.00000000000000000 -1.00000000000000000 0.00000000000000044 -1.00000000000000000 0.00000000000000000 0.00000000000000000 2.00000000000000000
8 4.71238898038468967 6.28318530717958623
2 18.00000000000000355 -18.00000000000000000 0.00000000000000799 -0.00000000000000000 -0.00000000000000044 -1.00000000000000000 0.00000000000000000 -1.00000000000000000 0.00000000000000044 -1.00000000000000000 0.00000000000000000 0.00000000000000000 2.00000000000000000
1 20.00000000000000355 -20.00000000000000000 0.00000000000000000 -1.00000000000000000 0.00000000000000000 0.00000000000000000 
1 17.41250000000000142 -0.00000000000000800 -18.41250000000000142 -0.00000000000000000 -1.00000000000000000 0.00000000000000022 
2 0.00000000000000000 -17.50000000000000355 -18.41249999999999787 0.00000000000000000 -0.00000000000000022 -1.00000000000000000 1.00000000000000000 0.00000000000000000 0.00000000000000000 0.00000000000000000 -1.00000000000000000 0.00000000000000022 3.96875000000000000
1 17.41250000000000142 0.00000000000000800 18.41250000000000142 -0.00000000000000000 -1.00000000000000000 0.00000000000000022 
1 18.41250000000000142 -0.00000000000000800 -17.41250000000000142 -0.00000000000000000 -1.00000000000000000 0.00000000000000022 
1 18.41250000000000142 0.00000000000000800 17.41250000000000142 -0.00000000000000000 -1.00000000000000000 0.00000000000000022 
1 -17.99999999999999645 0.00000000000000900 20.00000000000000000 -0.00000000000000000 -1.00000000000000000 0.00000000000000022 
1 18.00000000000000355 0.00000000000000900 20.00000000000000000 -0.00000000000000000 -1.00000000000000000 0.00000000000000022 
1 -19.99999999999999645 0.00000000000000800 18.00000000000000000 -0.00000000000000000 -1.00000000000000000 0.00000000000000022 
1 20.00000000000000355 0.00000000000000800 18.00000000000000000 -0.00000000000000000 -1.00000000000000000 0.00000000000000022 
1 -19.99999999999999645 -0.00000000000000800 -18.00000000000000000 -0.00000000000000000 -1.00000000000000000 0.00000000000000022 
1 20.00000000000000355 -0.00000000000000800 -18.00000000000000000 -0.00000000000000000 -1.00000000000000000 0.00000000000000022 
1 -17.99999999999999645 -0.00000000000000900 -20.00000000000000000 -0.00000000000000000 -1.00000000000000000 0.00000000000000022 
1 18.00000000000000355 -0.00000000000000900 -20.00000000000000000 -0.00000000000000000 -1.00000000000000000 0.00000000000000022 
2 0.00000000000000000 17.50000000000000000 0.00000000000000000 0.00000000000000000 0.00000000000000000 1.00000000000000000 1.00000000000000000 0.00000000000000000 -0.00000000000000000 -0.00000000000000000 1.00000000000000000 0.00000000000000000 3.96875000000000000
1 3.96875000000000000 -17.50000000000000355 -19.99999999999999645 0.00000000000000000 0.00000000000000022 1.00000000000000000 
Polygon3D 0
PolygonOnTriangulations 0
Surfaces 51
1 -18.41250000000000142 0.00000000000000000 -17.41250000000000142 -1.00000000000000000 0.00000000000000000 0.00000000000000000 0.00000000000000000 0.00000000000000000 1.00000000000000000 0.00000000000000000 1.00000000000000000 -0.00000000000000000 
2 -17.41250000000000142 -0.00000000000000773 -17.41250000000000142 -0.00000000000000000 1.00000000000000000 -0.00000000000000044 0.00000000000000000 -0.00000000000000044 -1.00000000000000000 1.00000000000000000 0.00000000000000000 -0.00000000000000000 1.00000000000000000
2 -17.41250000000000142 0.00000000000000773 17.41250000000000142 0.00000000000000000 1.00000000000000000 -0.00000000000000044 0.00000000000000000 -0.00000000000000044 -1.00000000000000000 -1.00000000000000000 0.00000000000000000 -0.00000000000000000 1.00000000000000000
1 17.41250000000000142 0.00000000000000000 -18.41250000000000142 0.00000000000000010 -0.00000000000000022 -1.00000000000000000 -1.00000000000000000 0.00000000000000000 -0.00000000000000010 0.00000000000000000 1.00000000000000000 -0.00000000000000022 
2 -17.41250000000000142 -17.41250000000000142 0.00000000000000773 0.00000000000000000 0.00000000000000044 1.00000000000000000 -1.00000000000000000 0.00000000000000000 0.00000000000000000 0.00000000000000000 -1.00000000000000000 0.00000000000000044 1.00000000000000000
1 0.00000000000000213 0.00000000000000000 0.00000000000000000 0.00000000000000000 1.00000000000000000 -0.00000000000000022 0.00000000000000000 0.00000000000000022 1.00000000000000000 1.00000000000000000 -0.00000000000000000 0.00000000000000000 
2 -17.41250000000000142 -0.00000000000000773 -17.41250000000000142 0.00000000000000000 -1.00000000000000000 0.00000000000000044 0.00000000000000000 -0.00000000000000044 -1.00000000000000000 1.00000000000000000 0.00000000000000000 0.00000000000000000 1.00000000000000000
2 -17.41250000000000142 -0.00000000000000773 -17.41250000000000142 -0.00000000000000000 1.00000000000000000 -0.00000000000000044 0.00000000000000000 -0.00000000000000044 -1.00000000000000000 1.00000000000000000 0.00000000000000000 -0.00000000000000000 1.00000000000000000
2 -17.41250000000000142 -0.00000000000000773 -17.41250000000000142 -0.00000000000000000 1.00000000000000000 -0.00000000000000044 0.00000000000000000 -0.00000000000000044 -1.00000000000000000 1.00000000000000000 0.00000000000000000 -0.00000000000000000 1.00000000000000000
1 -17.41250000000000142 0.00000000000000000 18.41250000000000142 -0.00000000000000000 0.00000000000000022 1.00000000000000000 1.00000000000000000 0.00000000000000000 0.00000000000000000 0.00000000000000000 1.00000000000000000 -0.00000000000000022 
2 -17.41250000000000142 17.41250000000000142 -0.00000000000000773 0.00000000000000000 0.00000000000000044 1.00000000000000000 -1.00000000000000000 0.00000000000000000 0.00000000000000000 -0.00000000000000000 1.00000000000000000 -0.00000000000000044 1.00000000000000000
2 -17.41250000000000142 0.00000000000000773 17.41250000000000142 -0.00000000000000000 -1.00000000000000000 0.00000000000000044 0.00000000000000000 -0.00000000000000044 -1.00000000000000000 -1.00000000000000000 -0.00000000000000000 -0.00000000000000000 1.00000000000000000
2 -17.41250000000000142 0.00000000000000773 17.41250000000000142 0.00000000000000000 1.00000000000000000 -0.00000000000000044 0.00000000000000000 -0.00000000000000044 -1.00000000000000000 -1.00000000000000000 0.00000000000000000 -0.00000000000000000 1.00000000000000000
2 -17.41250000000000142 0.00000000000000773 17.41250000000000142 0.00000000000000000 1.00000000000000000 -0.00000000000000044 0.00000000000000000 -0.00000000000000044 -1.00000000000000000 -1.00000000000000000 0.00000000000000000 -0.00000000000000000 1.00000000000000000
2 17.41250000000000142 -17.41250000000000142 0.00000000000000773 0.00000000000000000 0.00000000000000044 1.00000000000000000 0.00000000000000010 -1.00000000000000000 0.00000000000000044 1.00000000000000000 0.00000000000000010 -0.00000000000000000 1.00000000000000000
2 17.41250000000000142 -0.00000000000000773 -17.41250000000000142 0.00000000000000000 -1.00000000000000000 0.00000000000000044 0.00000000000000000 -0.00000000000000044 -1.00000000000000000 1.00000000000000000 0.00000000000000000 0.00000000000000000 1.00000000000000000
2 17.41250000000000142 -0.00000000000000773 -17.41250000000000142 -0.00000000000000000 1.00000000000000000 -0.00000000000000044 0.00000000000000000 -0.00000000000000044 -1.00000000000000000 1.00000000000000000 0.00000000000000000 -0.00000000000000000 1.00000000000000000
2 17.41250000000000142 -0.00000000000000773 -17.41250000000000142 -0.00000000000000000 1.00000000000000000 -0.00000000000000044 0.00000000000000000 -0.00000000000000044 -1.00000000000000000 1.00000000000000000 0.00000000000000000 -0.00000000000000000 1.00000000000000000
2 17.41250000000000142 -0.00000000000000773 -17.41250000000000142 -0.00000000000000000 1.00000000000000000 -0.00000000000000044 0.00000000000000000 -0.00000000000000044 -1.00000000000000000 1.00000000000000000 0.00000000000000000 -0.00000000000000000 1.00000000000000000
2 17.41250000000000142 17.41250000000000142 -0.00000000000000773 0.00000000000000000 0.00000000000000044 1.00000000000000000 1.00000000000000000 0.00000000000000000 -0.00000000000000000 -0.00000000000000000 1.00000000000000000 -0.00000000000000044 1.00000000000000000
2 17.41250000000000142 0.00000000000000773 17.41250000000000142 0.00000000000000000 -1.00000000000000000 0.00000000000000044 0.00000000000000000 -0.00000000000000044 -1.00000000000000000 1.00000000000000000 0.00000000000000000 0.00000000000000000 1.00000000000000000
2 17.41250000000000142 0.00000000000000773 17.41250000000000142 -0.00000000000000000 1.00000000000000000 -0.00000000000000044 0.00000000000000000 -0.00000000000000044 -1.00000000000000000 1.00000000000000000 0.00000000000000000 -0.00000000000000000 1.00000000000000000
2 17.41250000000000142 0.00000000000000773 17.41250000000000142 -0.00000000000000000 1.00000000000000000 -0.00000000000000044 0.00000000000000000 -0.00000000000000044 -1.00000000000000000 1.00000000000000000 0.00000000000000000 -0.00000000000000000 1.00000000000000000
2 17.41250000000000142 0.00000000000000773 17.41250000000000142 -0.00000000000000000 1.00000000000000000 -0.00000000000000044 0.00000000000000000 -0.00000000000000044 -1.00000000000000000 1.00000000000000000 0.00000000000000000 -0.00000000000000000 1.00000000000000000
1 -17.99999999999999645 0.00000000000000000 20.00000000000000000 -0.00000000000000000 0.00000000000000022 1.00000000000000000 1.00000000000000000 0.00000000000000000 0.00000000000000000 0.00000000000000000 1.00000000000000000 -0.00000000000000022 
2 -17.99999999999999645 18.00000000000000000 -0.00000000000000799 0.00000000000000000 0.00000000000000044 1.00000000000000000 0.00000000000000000 1.00000000000000000 -0.00000000000000044 -1.00000000000000000 0.00000000000000000 0.00000000000000000 2.00000000000000000
2 -17.99999999999999645 0.00000000000000799 18.00000000000000000 0.00000000000000000 -1.00000000000000000 0.00000000000000044 0.00000000000000000 -0.00000000000000044 -1.00000000000000000 1.00000000000000000 0.00000000000000000 0.00000000000000000 2.00000000000000000
2 -17.99999999999999645 0.00000000000000799 18.00000000000000000 -0.00000000000000000 1.00000000000000000 -0.00000000000000044 0.00000000000000000 -0.00000000000000044 -1.00000000000000000 1.00000000000000000 0.00000000000000000 -0.00000000000000000 2.00000000000000000
2 -17.99999999999999645 0.00000000000000799 18.00000000000000000 -0.00000000000000000 1.00000000000000000 -0.00000000000000044 0.00000000000000000 -0.00000000000000044 -1.00000000000000000 1.00000000000000000 0.00000000000000000 -0.00000000000000000 2.00000000000000000
2 -17.99999999999999645 0.00000000000000799 18.00000000000000000 -0.00000000000000000 1.00000000000000000 -0.00000000000000044 0.00000000000000000 -0.00000000000000044 -1.00000000000000000 1.00000000000000000 0.00000000000000000 -0.00000000000000000 2.00000000000000000
2 18.00000000000000355 18.00000000000000000 -0.00000000000000799 0.00000000000000000 0.00000000000000044 1.00000000000000000 0.00000000000000000 1.00000000000000000 -0.00000000000000044 1.00000000000000000 -0.00000000000000000 -0.00000000000000000 2.00000000000000000
2 18.00000000000000355 0.00000000000000799 18.00000000000000000 -0.00000000000000000 -1.00000000000000000 0.00000000000000044 0.00000000000000000 -0.00000000000000044 -1.00000000000000000 -1.00000000000000000 -0.00000000000000000 -0.00000000000000000 2.00000000000000000
2 18.00000000000000355 0.00000000000000799 18.00000000000000000 0.00000000000000000 1.00000000000000000 -0.00000000000000044 0.00000000000000000 -0.00000000000000044 -1.00000000000000000 -1.00000000000000000 0.00000000000000000 -0.00000000000000000 2.00000000000000000
2 18.00000000000000355 0.00000000000000799 18.00000000000000000 0.00000000000000000 1.00000000000000000 -0.00000000000000044 0.00000000000000000 -0.00000000000000044 -1.00000000000000000 -1.00000000000000000 0.00000000000000000 -0.00000000000000000 2.00000000000000000
2 18.00000000000000355 0.00000000000000799 18.00000000000000000 0.00000000000000000 1.00000000000000000 -0.00000000000000044 0.00000000000000000 -0.00000000000000044 -1.00000000000000000 -1.00000000000000000 0.00000000000000000 -0.00000000000000000 2.00000000000000000
2 -17.99999999999999645 -18.00000000000000000 0.00000000000000799 0.00000000000000000 0.00000000000000044 1.00000000000000000 0.00000000000000000 -1.00000000000000000 0.00000000000000044 -1.00000000000000000 -0.00000000000000000 0.00000000000000000 2.00000000000000000
2 -17.99999999999999645 -0.00000000000000799 -18.00000000000000000 -0.00000000000000000 -1.00000000000000000 0.00000000000000044 0.00000000000000000 -0.00000000000000044 -1.00000000000000000 -1.00000000000000000 -0.00000000000000000 -0.00000000000000000 2.00000000000000000
2 -17.99999999999999645 -0.00000000000000799 -18.00000000000000000 0.00000000000000000 1.00000000000000000 -0.00000000000000044 0.00000000000000000 -0.00000000000000044 -1.00000000000000000 -1.00000000000000000 0.00000000000000000 -0.00000000000000000 2.00000000000000000
2 -17.99999999999999645 -0.00000000000000799 -18.00000000000000000 0.00000000000000000 1.00000000000000000 -0.00000000000000044 0.00000000000000000 -0.00000000000000044 -1.00000000000000000 -1.00000000000000000 0.00000000000000000 -0.00000000000000000 2.00000000000000000
2 -17.99999999999999645 -0.00000000000000799 -18.00000000000000000 0.00000000000000000 1.00000000000000000 -0.00000000000000044 0.00000000000000000 -0.00000000000000044 -1.00000000000000000 -1.00000000000000000 0.00000000000000000 -0.00000000000000000 2.00000000000000000
2 18.00000000000000355 -18.00000000000000000 0.00000000000000799 0.00000000000000000 0.00000000000000044 1.00000000000000000 1.00000000000000000 0.00000000000000000 -0.00000000000000000 0.00000000000000000 -1.00000000000000000 0.00000000000000044 2.00000000000000000
2 18.00000000000000355 -0.00000000000000799 -18.00000000000000000 -0.00000000000000000 -1.00000000000000000 0.00000000000000044 0.00000000000000000 -0.00000000000000044 -1.00000000000000000 -1.00000000000000000 -0.00000000000000000 -0.00000000000000000 2.00000000000000000
2 18.00000000000000355 -0.00000000000000799 -18.00000000000000000 0.00000000000000000 1.00000000000000000 -0.00000000000000044 0.00000000000000000 -0.00000000000000044 -1.00000000000000000 -1.00000000000000000 0.00000000000000000 -0.00000000000000000 2.00000000000000000
2 18.00000000000000355 -0.00000000000000799 -18.00000000000000000 0.00000000000000000 1.00000000000000000 -0.00000000000000044 0.00000000000000000 -0.00000000000000044 -1.00000000000000000 -1.00000000000000000 0.00000000000000000 -0.00000000000000000 2.00000000000000000
2 18.00000000000000355 -0.00000000000000799 -18.00000000000000000 0.00000000000000000 1.00000000000000000 -0.00000000000000044 0.00000000000000000 -0.00000000000000044 -1.00000000000000000 -1.00000000000000000 0.00000000000000000 -0.00000000000000000 2.00000000000000000
1 18.00000000000000355 0.00000000000000000 -20.00000000000000000 -0.00000000000000000 -0.00000000000000022 -1.00000000000000000 -1.00000000000000000 0.00000000000000000 0.00000000000000000 0.00000000000000000 1.00000000000000000 -0.00000000000000022 
2 0.00000000000000000 -17.50000000000000355 -19.99999999999999645 0.00000000000000000 -0.00000000000000022 -1.00000000000000000 1.00000000000000000 0.00000000000000000 0.00000000000000000 0.00000000000000000 -1.00000000000000000 0.00000000000000022 3.96875000000000000
1 18.41250000000000142 0.00000000000000000 17.41250000000000142 1.00000000000000000 0.00000000000000000 0.00000000000000000 0.00000000000000000 0.00000000000000000 -1.00000000000000000 -0.00000000000000000 1.00000000000000000 0.00000000000000000 
1 -19.99999999999999645 0.00000000000000000 -18.00000000000000000 -1.00000000000000000 0.00000000000000000 0.00000000000000000 0.00000000000000000 0.00000000000000000 1.00000000000000000 0.00000000000000000 1.00000000000000000 -0.00000000000000000 
1 20.00000000000000355 0.00000000000000000 18.00000000000000000 1.00000000000000000 0.00000000000000000 0.00000000000000000 0.00000000000000000 0.00000000000000000 -1.00000000000000000 -0.00000000000000000 1.00000000000000000 0.00000000000000000 
1 -0.00000000000000017 -17.50000000000000355 -19.99999999999999645 -0.00000000000000000 -0.00000000000000000 -1.00000000000000000 -1.00000000000000000 0.00000000000000000 0.00000000000000000 0.00000000000000000 1.00000000000000000 -0.00000000000000000 
Triangulations 0

TShapes 94
Ve
0.000000100000000
-18.412500000000001 -17.412500000000001 0.000000000000008
0 0

0101101
*
Ed
 0.000000100000000 1 1 0
1  1 0 0.000000000000000 35.000000000000000
2  1 2 0 0.000000000000000 35.000000000000000
4 C1 1 0 2 0
0

0101000
+94 14 -94 16 *
Ve
0.000000100000000
-18.412500000000001 17.412500000000001 -0.000000000000008
0 0

0101101
*
Ed
 0.000000100000000 1 1 0
1  2 0 0.000000000000000 35.000000000000000
2  2 3 0 0.000000000000000 35.000000000000000
4 C1 1 0 3 0
0

0101000
+92 14 -92 16 *
Ed
 0.000000100000000 1 1 0
1  3 0 1.000000000000004 35.825000000000003
0

0101000
+94 23 -92 23 *
Wi

0101100
+93 0 -91 0 -90 22 +90 24 *
Fa
0  0.000000100000000 1 0

0101000
+89 0 *
Ve
0.000000100000000
-17.412500000000001 -18.412500000000001 0.000000000000008
0 0

0101101
*
Ed
 0.000000100000000 1 1 0
1  4 0 0.000000000000000 35.000000000000000
2  3 2 0 0.000000000000000 35.000000000000000
4 C1 2 0 4 0
2  4 4 0 0.000000000000000 35.000000000000000
0

0101000
+87 14 -87 16 *
Ed
 0.000000100000000 1 1 0
1  5 0 4.712388980384690 6.283185307179586
2  5 5 0 4.712388980384690 6.283185307179586
2  6 6 25 4.712388980384690 6.283185307179586
2  7 7 28 4.712388980384690 6.283185307179586
2  8 7 30 4.712388980384690 6.283185307179586
2  9 8 33 4.712388980384690 6.283185307179586
2  10 8 35 4.712388980384690 6.283185307179586
2  11 9 38 4.712388980384690 6.283185307179586
2  12 9 40 4.712388980384690 6.283185307179586
2  13 2 41 4.712388980384690 6.283185307179586
2  14 2 42 4.712388980384690 6.283185307179586
0

0101000
+94 0 -87 0 *
Wi

0101100
+93 0 -86 0 -85 14 +85 16 *
Fa
0  0.000000100000000 2 0

0101000
+84 0 *
Ve
0.000000100000000
-17.412500000000001 18.412500000000001 -0.000000000000008
0 0

0101101
*
Ed
 0.000000100000000 1 1 0
1  6 0 0.000000000000000 35.000000000000000
2  15 3 0 0.000000000000000 35.000000000000000
4 C1 3 0 10 0
2  16 10 0 0.000000000000000 35.000000000000000
0

0101000
+82 14 -82 16 *
Ed
 0.000000100000000 1 1 0
1  7 0 1.570796326794897 3.141592653589793
2  17 11 0 1.570796326794897 3.141592653589793
2  18 6 25 1.570796326794897 3.141592653589793
2  19 12 28 1.570796326794897 3.141592653589793
2  20 12 30 1.570796326794897 3.141592653589793
2  21 13 33 1.570796326794897 3.141592653589793
2  22 13 35 1.570796326794897 3.141592653589793
2  23 14 38 1.570796326794897 3.141592653589793
2  24 14 40 1.570796326794897 3.141592653589793
2  25 3 41 1.570796326794897 3.141592653589793
2  26 3 42 1.570796326794897 3.141592653589793
0

0101000
+92 0 -82 0 *
Wi

0101100
+91 0 -81 0 -80 14 +80 16 *
Fa
0  0.000000100000000 3 0

0101000
+79 0 *
Ve
0.000000100000000
17.412500000000001 -18.412500000000001 0.000000000000008
0 0

0101101
*
Ed
 0.000000100000000 1 1 0
1  8 0 1.000000000000000 35.825000000000003
2  27 4 46 1.000000000000000 35.825000000000003
2  28 4 47 1.000000000000000 35.825000000000003
0

0101000
+77 23 -87 23 *
Ve
0.000000100000000
17.412500000000001 18.412500000000001 -0.000000000000008
0 0

0101101
*
Ed
 0.000000100000000 1 1 0
1  9 0 1.000000000000000 35.825000000000003
2  29 10 46 1.000000000000000 35.825000000000003
2  30 10 47 1.000000000000000 35.825000000000003
0

0101000
+82 23 -75 23 *
Ve
0.000000100000000
18.412500000000001 -17.412500000000001 0.000000000000008
0 0

0101101
*
Ed
 0.000000100000000 1 1 0
1  10 0 0.000000000000000 1.570796326794897
2  31 15 0 0.000000000000000 1.570796326794897
2  32 6 25 0.000000000000000 1.570796326794897
2  33 16 28 0.000000000000000 1.570796326794897
2  34 16 30 0.000000000000000 1.570796326794897
2  35 17 33 0.000000000000000 1.570796326794897
2  36 17 35 0.000000000000000 1.570796326794897
2  37 18 38 0.000000000000000 1.570796326794897
2  38 18 40 0.000000000000000 1.570796326794897
2  39 19 41 0.000000000000000 1.570796326794897
2  40 19 42 0.000000000000000 1.570796326794897
0

0101000
+77 0 -73 0 *
Ve
0.000000100000000
18.412500000000001 17.412500000000001 -0.000000000000008
0 0

0101101
*
Ed
 0.000000100000000 1 1 0
1  11 0 1.570796326794897 3.141592653589793
2  41 20 0 1.570796326794897 3.141592653589793
2  42 6 25 1.570796326794897 3.141592653589793
2  43 21 28 1.570796326794897 3.141592653589793
2  44 21 30 1.570796326794897 3.141592653589793
2  45 22 33 1.570796326794897 3.141592653589793
2  46 22 35 1.570796326794897 3.141592653589793
2  47 23 38 1.570796326794897 3.141592653589793
2  48 23 40 1.570796326794897 3.141592653589793
2  49 24 41 1.570796326794897 3.141592653589793
2  50 24 42 1.570796326794897 3.141592653589793
0

0101000
+71 0 -75 0 *
Ed
 0.000000100000000 1 1 0
1  12 0 1.000000000000000 35.825000000000003
0

0101000
+71 23 -73 23 *
Wi

0101100
-90 45 +85 0 -80 0 -76 45 -74 45 +72 0 +70 0 -69 45 *
Ve
0.000000100000000
-17.999999999999996 20.000000000000000 -0.000000000000009
0 0

0101101
*
Ve
0.000000100000000
18.000000000000004 20.000000000000000 -0.000000000000009
0 0

0101101
*
Ed
 0.000000100000000 1 1 0
1  13 0 2.000000000000000 38.000000000000000
2  51 25 46 2.000000000000000 38.000000000000000
2  52 25 47 2.000000000000000 38.000000000000000
0

0101000
+67 50 -66 50 *
Ve
0.000000100000000
-19.999999999999996 18.000000000000000 -0.000000000000008
0 0

0101101
*
Ed
 0.000000100000000 1 1 0
1  14 0 3.141592653589793 4.712388980384690
2  53 26 0 3.141592653589793 4.712388980384690
2  54 6 51 3.141592653589793 4.712388980384690
2  55 27 52 3.141592653589793 4.712388980384690
2  56 27 53 3.141592653589793 4.712388980384690
2  57 28 54 3.141592653589793 4.712388980384690
2  58 28 55 3.141592653589793 4.712388980384690
2  59 29 56 3.141592653589793 4.712388980384690
2  60 29 57 3.141592653589793 4.712388980384690
2  61 30 58 3.141592653589793 4.712388980384690
2  62 30 59 3.141592653589793 4.712388980384690
0

0101000
+67 0 -64 0 *
Ve
0.000000100000000
20.000000000000004 18.000000000000000 -0.000000000000008
0 0

0101101
*
Ed
 0.000000100000000 1 1 0
1  15 0 3.141592653589793 4.712388980384690
2  63 31 0 3.141592653589793 4.712388980384690
2  64 6 51 3.141592653589793 4.712388980384690
2  65 32 52 3.141592653589793 4.712388980384690
2  66 32 53 3.141592653589793 4.712388980384690
2  67 33 54 3.141592653589793 4.712388980384690
2  68 33 55 3.141592653589793 4.712388980384690
2  69 34 56 3.141592653589793 4.712388980384690
2  70 34 57 3.141592653589793 4.712388980384690
2  71 35 58 3.141592653589793 4.712388980384690
2  72 35 59 3.141592653589793 4.712388980384690
0

0101000
+66 0 -62 0 *
Ve
0.000000100000000
-19.999999999999996 -18.000000000000000 0.000000000000008
0 0

0101101
*
Ed
 0.000000100000000 1 1 0
1  16 0 2.000000000000000 38.000000000000000
0

0101000
+60 50 -64 50 *
Ve
0.000000100000000
20.000000000000004 -18.000000000000000 0.000000000000008
0 0

0101101
*
Ed
 0.000000100000000 1 1 0
1  17 0 2.000000000000000 38.000000000000000
0

0101000
+62 50 -58 50 *
Ve
0.000000100000000
-17.999999999999996 -20.000000000000000 0.000000000000009
0 0

0101101
*
Ed
 0.000000100000000 1 1 0
1  18 0 0.000000000000000 1.570796326794897
2  73 36 0 0.000000000000000 1.570796326794897
2  74 6 51 0.000000000000000 1.570796326794897
2  75 37 52 0.000000000000000 1.570796326794897
2  76 37 53 0.000000000000000 1.570796326794897
2  77 38 54 0.000000000000000 1.570796326794897
2  78 38 55 0.000000000000000 1.570796326794897
2  79 39 56 0.000000000000000 1.570796326794897
2  80 39 57 0.000000000000000 1.570796326794897
2  81 40 58 0.000000000000000 1.570796326794897
2  82 40 59 0.000000000000000 1.570796326794897
0

0101000
+56 0 -60 0 *
Ve
0.000000100000000
18.000000000000004 -20.000000000000000 0.000000000000009
0 0

0101101
*
Ed
 0.000000100000000 1 1 0
1  19 0 4.712388980384690 6.283185307179586
2  83 41 0 4.712388980384690 6.283185307179586
2  84 6 51 4.712388980384690 6.283185307179586
2  85 42 52 4.712388980384690 6.283185307179586
2  86 42 53 4.712388980384690 6.283185307179586
2  87 43 54 4.712388980384690 6.283185307179586
2  88 43 55 4.712388980384690 6.283185307179586
2  89 44 56 4.712388980384690 6.283185307179586
2  90 44 57 4.712388980384690 6.283185307179586
2  91 45 58 4.712388980384690 6.283185307179586
2  92 45 59 4.712388980384690 6.283185307179586
0

0101000
+58 0 -54 0 *
Ed
 0.000000100000000 1 1 0
1  20 0 2.000000000000000 38.000000000000000
2  93 46 46 2.000000000000000 38.000000000000000
2  94 46 47 2.000000000000000 38.000000000000000
0

0101000
+54 50 -56 50 *
Wi

0101100
+65 49 -63 0 +61 0 +59 49 +57 49 +55 0 +53 0 +52 49 *
Fa
0  0.000000100000000 6 0

0101000
+68 44 +51 48 *
Ed
 0.000000100000000 1 1 0
1  21 0 0.000000000000000 35.000000000000000
2  95 19 0 0.000000000000000 35.000000000000000
4 C1 4 0 19 0
2  96 4 0 0.000000000000000 35.000000000000000
0

0101000
+77 14 -77 16 *
Wi

0101100
+49 4 -76 61 +76 62 -86 4 *
Ve
0.000000100000000
3.968750000000000 -17.500000000000004 -18.412499999999998
0 0

0101101
*
Ed
 0.000000100000000 1 1 0
1  22 0 0.000000000000000 6.283185307179586
2  97 4 4 0.000000000000000 6.283185307179586
2  98 47 0 0.000000000000000 6.283185307179586
0

0101000
+47 0 -47 0 *
Wi

0101100
-46 0 *
Fa
0  0.000000100000000 4 4

0101000
+48 0 +45 0 *
Ed
 0.000000100000000 1 1 0
1  23 0 0.000000000000000 35.000000000000000
2  99 24 0 0.000000000000000 35.000000000000000
4 C1 10 0 24 0
2  100 10 0 0.000000000000000 35.000000000000000
0

0101000
+75 14 -75 16 *
Wi

0101100
+81 0 -43 0 -74 22 +74 24 *
Fa
0  0.000000100000000 10 0

0101000
+42 0 *
Ed
 0.000000100000000 1 1 0
1  24 0 0.000000000000000 35.000000000000000
2  101 19 0 0.000000000000000 35.000000000000000
4 C1 19 0 48 0
0

0101000
+73 14 -73 16 *
Wi

0101100
+49 0 -40 0 -72 14 +72 16 *
Fa
0  0.000000100000000 19 0

0101000
+39 0 *
Ed
 0.000000100000000 1 1 0
1  25 0 0.000000000000000 35.000000000000000
2  102 24 0 0.000000000000000 35.000000000000000
4 C1 24 0 48 0
0

0101000
+71 14 -71 16 *
Wi

0101100
+37 0 -43 0 -70 14 +70 16 *
Fa
0  0.000000100000000 24 0

0101000
+36 0 *
Wi

0101100
+37 0 -40 0 -69 22 +69 24 *
Fa
0  0.000000100000000 48 0

0101000
+34 0 *
Ed
 0.000000100000000 1 1 0
1  26 0 0.000000000000000 35.000000000000000
2  103 30 0 0.000000000000000 35.000000000000000
4 G1 25 0 30 0
2  104 25 0 0.000000000000000 35.000000000000000
0

0101000
+67 63 -67 64 *
Ed
 0.000000100000000 1 1 0
1  27 0 0.000000000000000 35.000000000000000
2  105 35 0 0.000000000000000 35.000000000000000
4 G1 25 0 35 0
2  106 25 0 0.000000000000000 35.000000000000000
0

0101000
+66 63 -66 64 *
Wi

0101100
+32 0 -31 0 -65 22 +65 24 *
Fa
0  0.000000100000000 25 0

0101000
+30 0 *
Ed
 0.000000100000000 1 1 0
1  28 0 0.000000000000000 35.000000000000000
2  107 30 0 0.000000000000000 35.000000000000000
4 G1 30 0 49 0
0

0101000
+64 63 -64 64 *
Wi

0101100
+32 0 -28 0 -63 63 +63 64 *
Fa
0  0.000000100000000 30 0

0101000
+27 0 *
Ed
 0.000000100000000 1 1 0
1  29 0 0.000000000000000 35.000000000000000
2  108 35 0 0.000000000000000 35.000000000000000
4 G1 35 0 50 0
0

0101000
+62 63 -62 64 *
Wi

0101100
+31 0 -25 0 -61 63 +61 64 *
Fa
0  0.000000100000000 35 0

0101000
+24 0 *
Ed
 0.000000100000000 1 1 0
1  30 0 0.000000000000000 35.000000000000000
2  109 40 0 0.000000000000000 35.000000000000000
4 G1 49 0 40 0
0

0101000
+60 63 -60 64 *
Wi

0101100
+22 0 -28 0 -59 22 +59 24 *
Fa
0  0.000000100000000 49 0

0101000
+21 0 *
Ed
 0.000000100000000 1 1 0
1  31 0 0.000000000000000 35.000000000000000
2  110 45 0 0.000000000000000 35.000000000000000
4 G1 50 0 45 0
0

0101000
+58 63 -58 64 *
Wi

0101100
+25 0 -19 0 -57 22 +57 24 *
Fa
0  0.000000100000000 50 0

0101000
+18 0 *
Ed
 0.000000100000000 1 1 0
1  32 0 0.000000000000000 35.000000000000000
2  111 40 0 0.000000000000000 35.000000000000000
4 G1 40 0 46 0
2  112 46 0 0.000000000000000 35.000000000000000
0

0101000
+56 63 -56 64 *
Wi

0101100
+16 0 -22 0 -55 63 +55 64 *
Fa
0  0.000000100000000 40 0

0101000
+15 0 *
Ed
 0.000000100000000 1 1 0
1  33 0 0.000000000000000 35.000000000000000
2  113 45 0 0.000000000000000 35.000000000000000
4 G1 45 0 46 0
2  114 46 0 0.000000000000000 35.000000000000000
0

0101000
+54 63 -54 64 *
Wi

0101100
+19 0 -13 0 -53 63 +53 64 *
Fa
0  0.000000100000000 45 0

0101000
+12 0 *
Wi

0101100
+13 4 -52 61 +52 62 -16 4 *
Ve
0.000000100000000
3.968750000000000 17.500000000000000 0.000000000000000
0 0

0101101
*
Ed
 0.000000100000000 1 1 0
1  34 0 0.000000000000000 6.283185307179586
2  115 47 68 0.000000000000000 6.283185307179586
2  116 47 70 0.000000000000000 6.283185307179586
2  117 51 71 0.000000000000000 6.283185307179586
2  118 46 72 0.000000000000000 6.283185307179586
0

0101000
+9 0 -9 0 *
Wi

0101100
-8 67 *
Fa
0  0.000000100000000 46 4

0101000
+10 0 +7 0 *
Ed
 0.000000100000000 1 1 0
1  35 0 0.000000000000000 1.587499999999999
3  119 120CN 47 0 0.000000000000000 1.587499999999999
0

0101000
+9 67 -47 0 *
Wi

0101100
-8 67 -5 0 +46 0 +5 0 *
Fa
0  0.000000100000000 47 0

0101000
+4 0 *
Sh

0101100
-88 4 +83 4 -78 4 +50 43 -50 60 -44 0 -41 4 +38 4 +35 4 -33 4 
+29 4 -26 4 +23 4 +20 4 +17 4 +14 4 +11 4 +6 0 -3 0 *
So

0100000
+2 0 *

+1 1 