
CASCADE Topology V1, (c) Matra-Datavision
Locations 24
1
1.000000000000000 0.000000000000000 0.000000000000000 0.000000000000000 
0.000000000000000 1.000000000000000 0.000000000000000 0.000000000000000 
0.000000000000000 0.000000000000000 1.000000000000000 0.000000000000000 
1
1.000000000000000 0.000000000000000 0.000000000000000 0.000000000000000 
0.000000000000000 1.000000000000000 0.000000000000000 0.000000000000004 
0.000000000000000 -0.000000000000000 1.000000000000000 20.000000000000000 
1
1.000000000000000 0.000000000000000 0.000000000000000 0.000000000000000 
0.000000000000000 1.000000000000000 0.000000000000000 0.000000000000000 
0.000000000000000 0.000000000000000 1.000000000000000 0.000000000000000 
2  1 1 2 1 3 -1 0
1
1.000000000000000 0.000000000000000 0.000000000000000 -0.000000000000000 
0.000000000000000 1.000000000000000 0.000000000000000 -0.000000000000001 
0.000000000000000 0.000000000000000 1.000000000000000 -5.000000000000000 
2  1 1 2 1 3 -1 5 1 0
1
1.000000000000000 0.000000000000000 0.000000000000000 0.000000000000000 
0.000000000000000 1.000000000000000 0.000000000000000 0.000000000000000 
0.000000000000000 0.000000000000000 1.000000000000000 0.000000000000000 
1
1.000000000000000 0.000000000000000 0.000000000000000 0.000000000000000 
0.000000000000000 1.000000000000000 0.000000000000000 0.000000000000004 
0.000000000000000 -0.000000000000000 1.000000000000000 20.000000000000000 
1
1.000000000000000 0.000000000000000 0.000000000000000 0.000000000000000 
0.000000000000000 1.000000000000000 0.000000000000000 0.000000000000000 
0.000000000000000 0.000000000000000 1.000000000000000 0.000000000000000 
2  7 1 8 -1 9 -1 0
1
1.000000000000000 0.000000000000000 0.000000000000000 -0.000000000000000 
0.000000000000000 1.000000000000000 0.000000000000000 -0.000000000000001 
0.000000000000000 0.000000000000000 1.000000000000000 -5.000000000000000 
2  11 -1 7 1 8 -1 9 -1 0
2  8 -1 9 -1 0
1
1.000000000000000 0.000000000000000 0.000000000000000 0.000000000000000 
0.000000000000000 1.000000000000000 0.000000000000000 0.000000000000000 
0.000000000000000 0.000000000000000 1.000000000000000 0.000000000000000 
1
1.000000000000000 0.000000000000000 0.000000000000000 0.000000000000000 
0.000000000000000 1.000000000000000 0.000000000000000 0.000000000000000 
0.000000000000000 0.000000000000000 1.000000000000000 0.000000000000000 
1
1.000000000000000 0.000000000000000 0.000000000000000 0.000000000000000 
0.000000000000000 1.000000000000000 0.000000000000000 0.000000000000000 
0.000000000000000 0.000000000000000 1.000000000000000 0.000000000000000 
2  14 1 15 -1 16 1 8 -1 9 -1 0
2  3 1 2 -1 1 -1 0
2  5 -1 3 1 2 -1 1 -1 0
2  14 1 15 -1 16 1 2 -1 1 -1 0
2  3 -1 0
2  8 -1 9 -1 1 1 2 1 0
2  1 1 2 1 0
2  3 -1 5 1 0
Curve2ds 18
1 0.00000000000000000 0.00000000000000000 0.00000000000000000 -1.00000000000000000 
1 6.28318530717958623 0.00000000000000000 0.00000000000000000 -1.00000000000000000 
1 0.00000000000000000 0.00000000000000000 1.00000000000000000 0.00000000000000000 
1 0.00000000000000000 -5.00000000000000000 1.00000000000000000 0.00000000000000000 
2 0.00000000000000355 -0.00000000000000023 0.00000000000000000 -1.00000000000000000 1.00000000000000000 0.00000000000000000 3.00000000000000000
2 17.99999999999999645 -22.49999999999999645 1.00000000000000000 0.00000000000000000 -0.00000000000000000 1.00000000000000000 3.00000000000000000
1 0.00000000000000000 0.00000000000000000 1.00000000000000000 0.00000000000000000 
1 0.00000000000000000 -5.00000000000000000 1.00000000000000000 0.00000000000000000 
2 17.99999999999999645 -22.49999999999999645 1.00000000000000000 0.00000000000000000 -0.00000000000000000 1.00000000000000000 3.00000000000000000
1 0.00000000000000000 0.00000000000000000 0.00000000000000000 -1.00000000000000000 
1 6.28318530717958623 0.00000000000000000 0.00000000000000000 -1.00000000000000000 
1 0.00000000000000000 0.00000000000000000 1.00000000000000000 0.00000000000000000 
1 0.00000000000000000 -5.00000000000000000 1.00000000000000000 0.00000000000000000 
2 0.00000000000000000 -0.00000000000000034 0.00000000000000000 -1.00000000000000000 1.00000000000000000 0.00000000000000000 3.00000000000000000
2 17.99999999999999645 -6.49999999999999556 1.00000000000000000 0.00000000000000000 -0.00000000000000000 1.00000000000000000 3.00000000000000000
1 0.00000000000000000 0.00000000000000000 1.00000000000000000 0.00000000000000000 
1 0.00000000000000000 -5.00000000000000000 1.00000000000000000 0.00000000000000000 
2 17.99999999999999645 -6.49999999999999556 1.00000000000000000 0.00000000000000000 -0.00000000000000000 1.00000000000000000 3.00000000000000000
Curves 4
1 3.00000000000000000 -22.49999999999999645 20.00000000000000355 -0.00000000000000000 -0.00000000000000022 -1.00000000000000000 
2 0.00000000000000000 -22.50000000000000000 0.00000000000000000 0.00000000000000000 0.00000000000000000 1.00000000000000000 1.00000000000000000 0.00000000000000000 -0.00000000000000000 -0.00000000000000000 1.00000000000000000 0.00000000000000000 3.00000000000000000
1 3.00000000000000000 -6.49999999999999556 20.00000000000000000 -0.00000000000000000 -0.00000000000000022 -1.00000000000000000 
2 0.00000000000000000 -6.50000000000000000 0.00000000000000000 0.00000000000000000 0.00000000000000000 1.00000000000000000 1.00000000000000000 0.00000000000000000 -0.00000000000000000 -0.00000000000000000 1.00000000000000000 0.00000000000000000 3.00000000000000000
Polygon3D 0
PolygonOnTriangulations 0
Surfaces 7
2 0.00000000000000000 -22.49999999999999645 20.00000000000000355 -0.00000000000000000 0.00000000000000022 1.00000000000000000 1.00000000000000000 0.00000000000000000 0.00000000000000000 0.00000000000000000 1.00000000000000000 -0.00000000000000022 3.00000000000000000
2 0.00000000000000000 -22.49999999999999645 20.00000000000000355 -0.00000000000000000 0.00000000000000022 1.00000000000000000 1.00000000000000000 0.00000000000000000 0.00000000000000000 0.00000000000000000 1.00000000000000000 -0.00000000000000022 3.00000000000000000
1 -0.00000000000000023 -22.50000000000000000 20.00000000000000711 0.00000000000000039 0.00000000000000068 1.00000000000000000 0.00000000000000000 1.00000000000000000 -0.00000000000000068 -1.00000000000000000 0.00000000000000000 0.00000000000000039 
1 -17.99999999999999645 0.00000000000000000 20.00000000000000000 -0.00000000000000000 0.00000000000000022 1.00000000000000000 1.00000000000000000 0.00000000000000000 0.00000000000000000 0.00000000000000000 1.00000000000000000 -0.00000000000000022 
2 0.00000000000000000 -6.49999999999999556 20.00000000000000000 -0.00000000000000000 0.00000000000000022 1.00000000000000000 1.00000000000000000 0.00000000000000000 0.00000000000000000 0.00000000000000000 1.00000000000000000 -0.00000000000000022 3.00000000000000000
2 0.00000000000000000 -6.49999999999999556 20.00000000000000000 -0.00000000000000000 0.00000000000000022 1.00000000000000000 1.00000000000000000 0.00000000000000000 0.00000000000000000 0.00000000000000000 1.00000000000000000 -0.00000000000000022 3.00000000000000000
1 -0.00000000000000034 -6.49999999999999556 20.00000000000000000 0.00000000000000039 0.00000000000000068 1.00000000000000000 0.00000000000000000 1.00000000000000000 -0.00000000000000068 -1.00000000000000000 0.00000000000000000 0.00000000000000039 
Triangulations 0

TShapes 19
Ve
0.000000100000004
3.000000000000000 -22.500000000000000 0.000000000000000
0 0

0101101
*
Ed
 0.000000100000004 1 1 0
1  1 0 0.000000000000000 5.000000000000000
3  1 2CN 1 0 0.000000000000000 5.000000000000000
0

0101000
+19 4 -19 6 *
Ed
 0.000000100000004 1 1 0
1  2 0 0.000000000000000 6.283185307179586
2  3 2 10 0.000000000000000 6.283185307179586
2  4 2 12 0.000000000000000 6.283185307179586
2  5 3 13 0.000000000000000 6.283185307179586
2  6 4 17 0.000000000000000 6.283185307179586
2  7 1 18 0.000000000000000 6.283185307179586
2  8 1 19 0.000000000000000 6.283185307179586
2  9 4 20 0.000000000000000 6.283185307179586
0

0101000
+19 0 -19 0 *
Wi

0101100
+18 0 -18 0 -17 4 +17 6 *
Fa
0  0.000000100000004 1 0

0111000
+16 0 *
Wi

0101100
+17 0 *
Fa
0  0.000000100000004 3 22

0111000
+14 23 *
Sh

0101100
+15 0 +13 21 -13 24 *
So

0100000
+12 0 *
Ve
0.000000100000004
3.000000000000000 -6.500000000000000 0.000000000000000
0 0

0101101
*
Ed
 0.000000100000004 1 1 0
1  3 0 0.000000000000000 5.000000000000000
3  10 11CN 5 0 0.000000000000000 5.000000000000000
0

0101000
+10 4 -10 6 *
Ed
 0.000000100000004 1 1 0
1  4 0 0.000000000000000 6.283185307179586
2  12 6 10 0.000000000000000 6.283185307179586
2  13 6 12 0.000000000000000 6.283185307179586
2  14 7 13 0.000000000000000 6.283185307179586
2  15 4 17 0.000000000000000 6.283185307179586
2  16 5 18 0.000000000000000 6.283185307179586
2  17 5 19 0.000000000000000 6.283185307179586
2  18 4 20 0.000000000000000 6.283185307179586
0

0101000
+10 0 -10 0 *
Wi

0101100
+9 0 -9 0 -8 4 +8 6 *
Fa
0  0.000000100000004 5 0

0111000
+7 0 *
Wi

0101100
+8 0 *
Fa
0  0.000000100000004 7 22

0111000
+5 23 *
Sh

0101100
+6 0 +4 21 -4 24 *
So

0100000
+3 0 *
Co

1100000
+11 0 +2 0 *

+1 0 