
CASCADE Topology V1, (c) Matra-Datavision
Locations 31
1
1.000000000000000 0.000000000000000 0.000000000000000 0.000000000000000 
0.000000000000000 1.000000000000000 0.000000000000000 0.000000000000000 
0.000000000000000 0.000000000000000 1.000000000000000 0.000000000000000 
1
1.000000000000000 0.000000000000000 0.000000000000000 0.000000000000000 
0.000000000000000 1.000000000000000 0.000000000000000 0.000000000000000 
0.000000000000000 0.000000000000000 1.000000000000000 8.000000000000000 
1
1.000000000000000 0.000000000000000 0.000000000000000 0.000000000000000 
0.000000000000000 1.000000000000000 0.000000000000000 0.000000000000000 
0.000000000000000 0.000000000000000 1.000000000000000 0.000000000000000 
2  1 1 2 1 3 -1 0
1
1.000000000000000 0.000000000000000 0.000000000000000 -0.000000000000000 
0.000000000000000 1.000000000000000 0.000000000000000 -0.000000000000000 
0.000000000000000 0.000000000000000 1.000000000000000 -121.065258435275311 
2  1 1 2 1 3 -1 5 1 0
1
1.000000000000000 0.000000000000000 0.000000000000000 0.000000000000000 
0.000000000000000 1.000000000000000 0.000000000000000 0.000000000000000 
0.000000000000000 0.000000000000000 1.000000000000000 0.000000000000000 
1
1.000000000000000 0.000000000000000 0.000000000000000 0.000000000000000 
0.000000000000000 1.000000000000000 0.000000000000000 0.000000000000000 
0.000000000000000 0.000000000000000 1.000000000000000 8.000000000000000 
1
1.000000000000000 0.000000000000000 0.000000000000000 0.000000000000000 
0.000000000000000 1.000000000000000 0.000000000000000 0.000000000000000 
0.000000000000000 0.000000000000000 1.000000000000000 0.000000000000000 
2  7 1 8 -1 9 -1 0
1
1.000000000000000 0.000000000000000 0.000000000000000 -0.000000000000000 
0.000000000000000 1.000000000000000 0.000000000000000 -0.000000000000000 
0.000000000000000 0.000000000000000 1.000000000000000 -5.000000000000000 
2  11 -1 7 1 8 -1 9 -1 0
2  8 -1 9 -1 0
1
1.000000000000000 0.000000000000000 0.000000000000000 0.000000000000000 
0.000000000000000 1.000000000000000 0.000000000000000 0.000000000000000 
0.000000000000000 0.000000000000000 1.000000000000000 0.000000000000000 
1
1.000000000000000 0.000000000000000 0.000000000000000 0.000000000000000 
0.000000000000000 1.000000000000000 0.000000000000000 0.000000000000000 
0.000000000000000 0.000000000000000 1.000000000000000 8.000000000000000 
1
1.000000000000000 0.000000000000000 0.000000000000000 0.000000000000000 
0.000000000000000 1.000000000000000 0.000000000000000 0.000000000000000 
0.000000000000000 0.000000000000000 1.000000000000000 0.000000000000000 
2  14 -1 15 1 16 1 8 -1 9 -1 0
1
1.000000000000000 0.000000000000000 0.000000000000000 0.000000000000000 
0.000000000000000 1.000000000000000 0.000000000000000 0.000000000000000 
0.000000000000000 0.000000000000000 1.000000000000000 0.000000000000000 
1
1.000000000000000 0.000000000000000 0.000000000000000 0.000000000000000 
0.000000000000000 1.000000000000000 0.000000000000000 0.000000000000000 
0.000000000000000 0.000000000000000 1.000000000000000 8.000000000000000 
1
1.000000000000000 0.000000000000000 0.000000000000000 0.000000000000000 
0.000000000000000 1.000000000000000 0.000000000000000 0.000000000000000 
0.000000000000000 0.000000000000000 1.000000000000000 0.000000000000000 
2  18 1 19 -1 20 -1 0
1
1.000000000000000 0.000000000000000 0.000000000000000 -0.000000000000000 
0.000000000000000 1.000000000000000 0.000000000000000 -0.000000000000000 
0.000000000000000 0.000000000000000 1.000000000000000 -121.065258435275311 
2  22 -1 18 1 19 -1 20 -1 0
2  14 -1 15 1 16 1 19 -1 20 -1 0
2  3 1 2 -1 1 -1 0
2  5 -1 3 1 2 -1 1 -1 0
2  14 -1 15 1 16 1 2 -1 1 -1 0
2  3 -1 0
2  8 -1 9 -1 1 1 2 1 0
2  1 1 2 1 0
2  3 -1 5 1 0
Curve2ds 48
1 0.00000000000000000 0.00000000000000000 0.00000000000000000 -1.00000000000000000 
1 6.28318530717958623 0.00000000000000000 0.00000000000000000 -1.00000000000000000 
1 0.00000000000000000 0.00000000000000000 1.00000000000000000 0.00000000000000000 
1 0.00000000000000000 -5.00000000000000000 1.00000000000000000 0.00000000000000000 
2 0.00000000000000000 0.00000000000000000 1.00000000000000000 0.00000000000000000 -0.00000000000000000 1.00000000000000000 1.50000000000000000
2 -15.50000000000000000 -15.50000000000000000 -1.00000000000000000 0.00000000000000000 0.00000000000000000 1.00000000000000000 1.50000000000000000
1 0.00000000000000000 0.00000000000000000 1.00000000000000000 0.00000000000000000 
1 0.00000000000000000 -121.06525843527531094 1.00000000000000000 0.00000000000000000 
2 -15.50000000000000000 -15.50000000000000000 -1.00000000000000000 0.00000000000000000 0.00000000000000000 1.00000000000000000 1.50000000000000000
1 0.00000000000000000 0.00000000000000000 1.00000000000000000 0.00000000000000000 
1 0.00000000000000000 -121.06525843527531094 1.00000000000000000 0.00000000000000000 
2 -15.50000000000000000 -15.50000000000000000 -1.00000000000000000 0.00000000000000000 0.00000000000000000 1.00000000000000000 1.50000000000000000
1 0.00000000000000000 0.00000000000000000 0.00000000000000000 -1.00000000000000000 
1 6.28318530717958623 0.00000000000000000 0.00000000000000000 -1.00000000000000000 
1 0.00000000000000000 0.00000000000000000 1.00000000000000000 0.00000000000000000 
1 0.00000000000000000 -5.00000000000000000 1.00000000000000000 0.00000000000000000 
2 0.00000000000000000 0.00000000000000000 1.00000000000000000 0.00000000000000000 -0.00000000000000000 1.00000000000000000 1.50000000000000000
2 15.50000000000000000 -15.50000000000000000 -1.00000000000000000 0.00000000000000000 0.00000000000000000 1.00000000000000000 1.50000000000000000
1 0.00000000000000000 0.00000000000000000 1.00000000000000000 0.00000000000000000 
1 0.00000000000000000 -121.06525843527531094 1.00000000000000000 0.00000000000000000 
2 15.50000000000000000 -15.50000000000000000 -1.00000000000000000 0.00000000000000000 0.00000000000000000 1.00000000000000000 1.50000000000000000
1 0.00000000000000000 0.00000000000000000 1.00000000000000000 0.00000000000000000 
1 0.00000000000000000 -121.06525843527531094 1.00000000000000000 0.00000000000000000 
2 15.50000000000000000 -15.50000000000000000 -1.00000000000000000 0.00000000000000000 0.00000000000000000 1.00000000000000000 1.50000000000000000
1 0.00000000000000000 0.00000000000000000 0.00000000000000000 -1.00000000000000000 
1 6.28318530717958623 0.00000000000000000 0.00000000000000000 -1.00000000000000000 
1 0.00000000000000000 0.00000000000000000 1.00000000000000000 0.00000000000000000 
1 0.00000000000000000 -5.00000000000000000 1.00000000000000000 0.00000000000000000 
2 0.00000000000000000 0.00000000000000000 1.00000000000000000 0.00000000000000000 -0.00000000000000000 1.00000000000000000 1.50000000000000000
2 -15.50000000000000000 15.50000000000000000 -1.00000000000000000 0.00000000000000000 0.00000000000000000 1.00000000000000000 1.50000000000000000
1 0.00000000000000000 0.00000000000000000 1.00000000000000000 0.00000000000000000 
1 0.00000000000000000 -121.06525843527531094 1.00000000000000000 0.00000000000000000 
2 -15.50000000000000000 15.50000000000000000 -1.00000000000000000 0.00000000000000000 0.00000000000000000 1.00000000000000000 1.50000000000000000
1 0.00000000000000000 0.00000000000000000 1.00000000000000000 0.00000000000000000 
1 0.00000000000000000 -121.06525843527531094 1.00000000000000000 0.00000000000000000 
2 -15.50000000000000000 15.50000000000000000 -1.00000000000000000 0.00000000000000000 0.00000000000000000 1.00000000000000000 1.50000000000000000
1 0.00000000000000000 0.00000000000000000 0.00000000000000000 -1.00000000000000000 
1 6.28318530717958623 0.00000000000000000 0.00000000000000000 -1.00000000000000000 
1 0.00000000000000000 0.00000000000000000 1.00000000000000000 0.00000000000000000 
1 0.00000000000000000 -5.00000000000000000 1.00000000000000000 0.00000000000000000 
2 0.00000000000000000 0.00000000000000000 1.00000000000000000 0.00000000000000000 -0.00000000000000000 1.00000000000000000 1.50000000000000000
2 15.50000000000000000 15.50000000000000000 -1.00000000000000000 0.00000000000000000 0.00000000000000000 1.00000000000000000 1.50000000000000000
1 0.00000000000000000 0.00000000000000000 1.00000000000000000 0.00000000000000000 
1 0.00000000000000000 -121.06525843527531094 1.00000000000000000 0.00000000000000000 
2 15.50000000000000000 15.50000000000000000 -1.00000000000000000 0.00000000000000000 0.00000000000000000 1.00000000000000000 1.50000000000000000
1 0.00000000000000000 0.00000000000000000 1.00000000000000000 0.00000000000000000 
1 0.00000000000000000 -121.06525843527531094 1.00000000000000000 0.00000000000000000 
2 15.50000000000000000 15.50000000000000000 -1.00000000000000000 0.00000000000000000 0.00000000000000000 1.00000000000000000 1.50000000000000000
Curves 8
1 17.00000000000000000 -15.50000000000000000 8.00000000000000000 -0.00000000000000000 -0.00000000000000000 -1.00000000000000000 
2 15.50000000000000000 -15.50000000000000000 0.00000000000000000 0.00000000000000000 0.00000000000000000 1.00000000000000000 1.00000000000000000 0.00000000000000000 -0.00000000000000000 -0.00000000000000000 1.00000000000000000 0.00000000000000000 1.50000000000000000
1 -14.00000000000000000 -15.50000000000000000 8.00000000000000000 -0.00000000000000000 -0.00000000000000000 -1.00000000000000000 
2 -15.50000000000000000 -15.50000000000000000 0.00000000000000000 0.00000000000000000 0.00000000000000000 1.00000000000000000 1.00000000000000000 0.00000000000000000 -0.00000000000000000 -0.00000000000000000 1.00000000000000000 0.00000000000000000 1.50000000000000000
1 17.00000000000000000 15.50000000000000000 8.00000000000000000 -0.00000000000000000 -0.00000000000000000 -1.00000000000000000 
2 15.50000000000000000 15.50000000000000000 0.00000000000000000 0.00000000000000000 0.00000000000000000 1.00000000000000000 1.00000000000000000 0.00000000000000000 -0.00000000000000000 -0.00000000000000000 1.00000000000000000 0.00000000000000000 1.50000000000000000
1 -14.00000000000000000 15.50000000000000000 8.00000000000000000 -0.00000000000000000 -0.00000000000000000 -1.00000000000000000 
2 -15.50000000000000000 15.50000000000000000 0.00000000000000000 0.00000000000000000 0.00000000000000000 1.00000000000000000 1.00000000000000000 0.00000000000000000 -0.00000000000000000 -0.00000000000000000 1.00000000000000000 0.00000000000000000 1.50000000000000000
Polygon3D 0
PolygonOnTriangulations 0
Surfaces 17
2 15.50000000000000000 -15.50000000000000000 8.00000000000000000 0.00000000000000000 0.00000000000000000 1.00000000000000000 1.00000000000000000 0.00000000000000000 -0.00000000000000000 -0.00000000000000000 1.00000000000000000 0.00000000000000000 1.50000000000000000
2 15.50000000000000000 -15.50000000000000000 8.00000000000000000 0.00000000000000000 0.00000000000000000 1.00000000000000000 1.00000000000000000 0.00000000000000000 -0.00000000000000000 -0.00000000000000000 1.00000000000000000 0.00000000000000000 1.50000000000000000
1 15.50000000000000000 -15.50000000000000000 8.00000000000000000 0.00000000000000000 0.00000000000000000 1.00000000000000000 1.00000000000000000 0.00000000000000000 -0.00000000000000000 -0.00000000000000000 1.00000000000000000 0.00000000000000000 
1 0.00000000000000000 0.00000000000000000 0.00000000000000000 -0.00000000000000000 -0.00000000000000000 -1.00000000000000000 -1.00000000000000000 0.00000000000000000 0.00000000000000000 0.00000000000000000 1.00000000000000000 -0.00000000000000000 
2 15.50000000000000000 -15.50000000000000000 8.00000000000000000 0.00000000000000000 0.00000000000000000 1.00000000000000000 1.00000000000000000 0.00000000000000000 -0.00000000000000000 -0.00000000000000000 1.00000000000000000 0.00000000000000000 1.50000000000000000
2 -15.50000000000000000 -15.50000000000000000 8.00000000000000000 0.00000000000000000 0.00000000000000000 1.00000000000000000 1.00000000000000000 0.00000000000000000 -0.00000000000000000 -0.00000000000000000 1.00000000000000000 0.00000000000000000 1.50000000000000000
2 -15.50000000000000000 -15.50000000000000000 8.00000000000000000 0.00000000000000000 0.00000000000000000 1.00000000000000000 1.00000000000000000 0.00000000000000000 -0.00000000000000000 -0.00000000000000000 1.00000000000000000 0.00000000000000000 1.50000000000000000
1 -15.50000000000000000 -15.50000000000000000 8.00000000000000000 0.00000000000000000 0.00000000000000000 1.00000000000000000 1.00000000000000000 0.00000000000000000 -0.00000000000000000 -0.00000000000000000 1.00000000000000000 0.00000000000000000 
2 -15.50000000000000000 -15.50000000000000000 8.00000000000000000 0.00000000000000000 0.00000000000000000 1.00000000000000000 1.00000000000000000 0.00000000000000000 -0.00000000000000000 -0.00000000000000000 1.00000000000000000 0.00000000000000000 1.50000000000000000
2 15.50000000000000000 15.50000000000000000 8.00000000000000000 0.00000000000000000 0.00000000000000000 1.00000000000000000 1.00000000000000000 0.00000000000000000 -0.00000000000000000 -0.00000000000000000 1.00000000000000000 0.00000000000000000 1.50000000000000000
2 15.50000000000000000 15.50000000000000000 8.00000000000000000 0.00000000000000000 0.00000000000000000 1.00000000000000000 1.00000000000000000 0.00000000000000000 -0.00000000000000000 -0.00000000000000000 1.00000000000000000 0.00000000000000000 1.50000000000000000
1 15.50000000000000000 15.50000000000000000 8.00000000000000000 0.00000000000000000 0.00000000000000000 1.00000000000000000 1.00000000000000000 0.00000000000000000 -0.00000000000000000 -0.00000000000000000 1.00000000000000000 0.00000000000000000 
2 15.50000000000000000 15.50000000000000000 8.00000000000000000 0.00000000000000000 0.00000000000000000 1.00000000000000000 1.00000000000000000 0.00000000000000000 -0.00000000000000000 -0.00000000000000000 1.00000000000000000 0.00000000000000000 1.50000000000000000
2 -15.50000000000000000 15.50000000000000000 8.00000000000000000 0.00000000000000000 0.00000000000000000 1.00000000000000000 1.00000000000000000 0.00000000000000000 -0.00000000000000000 -0.00000000000000000 1.00000000000000000 0.00000000000000000 1.50000000000000000
2 -15.50000000000000000 15.50000000000000000 8.00000000000000000 0.00000000000000000 0.00000000000000000 1.00000000000000000 1.00000000000000000 0.00000000000000000 -0.00000000000000000 -0.00000000000000000 1.00000000000000000 0.00000000000000000 1.50000000000000000
1 -15.50000000000000000 15.50000000000000000 8.00000000000000000 0.00000000000000000 0.00000000000000000 1.00000000000000000 1.00000000000000000 0.00000000000000000 -0.00000000000000000 -0.00000000000000000 1.00000000000000000 0.00000000000000000 
2 -15.50000000000000000 15.50000000000000000 8.00000000000000000 0.00000000000000000 0.00000000000000000 1.00000000000000000 1.00000000000000000 0.00000000000000000 -0.00000000000000000 -0.00000000000000000 1.00000000000000000 0.00000000000000000 1.50000000000000000
Triangulations 0

TShapes 37
Ve
0.000000100000000
17.000000000000000 -15.500000000000000 0.000000000000000
0 0

0101101
*
Ed
 0.000000100000000 1 1 0
1  1 0 0.000000000000000 121.065258435275311
3  1 2CN 1 0 0.000000000000000 121.065258435275311
0

0101000
+37 4 -37 6 *
Ed
 0.000000100000000 1 1 0
1  2 0 0.000000000000000 6.283185307179586
2  3 2 10 0.000000000000000 6.283185307179586
2  4 2 12 0.000000000000000 6.283185307179586
2  5 3 13 0.000000000000000 6.283185307179586
2  6 4 17 0.000000000000000 6.283185307179586
2  7 5 21 0.000000000000000 6.283185307179586
2  8 5 23 0.000000000000000 6.283185307179586
2  9 4 24 0.000000000000000 6.283185307179586
2  10 1 25 0.000000000000000 6.283185307179586
2  11 1 26 0.000000000000000 6.283185307179586
2  12 4 27 0.000000000000000 6.283185307179586
0

0101000
+37 0 -37 0 *
Wi

0101100
+36 0 -36 0 -35 4 +35 6 *
Fa
0  0.000000100000000 1 0

0111000
+34 0 *
Wi

0101100
+35 0 *
Fa
0  0.000000100000000 3 29

0111000
+32 30 *
Sh

0101100
+33 0 +31 28 -31 31 *
So

0100000
+30 0 *
Ve
0.000000100000000
-14.000000000000000 -15.500000000000000 0.000000000000000
0 0

0101101
*
Ed
 0.000000100000000 1 1 0
1  3 0 0.000000000000000 121.065258435275311
3  13 14CN 6 0 0.000000000000000 121.065258435275311
0

0101000
+28 4 -28 6 *
Ed
 0.000000100000000 1 1 0
1  4 0 0.000000000000000 6.283185307179586
2  15 7 10 0.000000000000000 6.283185307179586
2  16 7 12 0.000000000000000 6.283185307179586
2  17 8 13 0.000000000000000 6.283185307179586
2  18 4 17 0.000000000000000 6.283185307179586
2  19 9 21 0.000000000000000 6.283185307179586
2  20 9 23 0.000000000000000 6.283185307179586
2  21 4 24 0.000000000000000 6.283185307179586
2  22 6 25 0.000000000000000 6.283185307179586
2  23 6 26 0.000000000000000 6.283185307179586
2  24 4 27 0.000000000000000 6.283185307179586
0

0101000
+28 0 -28 0 *
Wi

0101100
+27 0 -27 0 -26 4 +26 6 *
Fa
0  0.000000100000000 6 0

0111000
+25 0 *
Wi

0101100
+26 0 *
Fa
0  0.000000100000000 8 29

0111000
+23 30 *
Sh

0101100
+24 0 +22 28 -22 31 *
So

0100000
+21 0 *
Ve
0.000000100000000
17.000000000000000 15.500000000000000 0.000000000000000
0 0

0101101
*
Ed
 0.000000100000000 1 1 0
1  5 0 0.000000000000000 121.065258435275311
3  25 26CN 10 0 0.000000000000000 121.065258435275311
0

0101000
+19 4 -19 6 *
Ed
 0.000000100000000 1 1 0
1  6 0 0.000000000000000 6.283185307179586
2  27 11 10 0.000000000000000 6.283185307179586
2  28 11 12 0.000000000000000 6.283185307179586
2  29 12 13 0.000000000000000 6.283185307179586
2  30 4 17 0.000000000000000 6.283185307179586
2  31 13 21 0.000000000000000 6.283185307179586
2  32 13 23 0.000000000000000 6.283185307179586
2  33 4 24 0.000000000000000 6.283185307179586
2  34 10 25 0.000000000000000 6.283185307179586
2  35 10 26 0.000000000000000 6.283185307179586
2  36 4 27 0.000000000000000 6.283185307179586
0

0101000
+19 0 -19 0 *
Wi

0101100
+18 0 -18 0 -17 4 +17 6 *
Fa
0  0.000000100000000 10 0

0111000
+16 0 *
Wi

0101100
+17 0 *
Fa
0  0.000000100000000 12 29

0111000
+14 30 *
Sh

0101100
+15 0 +13 28 -13 31 *
So

0100000
+12 0 *
Ve
0.000000100000000
-14.000000000000000 15.500000000000000 0.000000000000000
0 0

0101101
*
Ed
 0.000000100000000 1 1 0
1  7 0 0.000000000000000 121.065258435275311
3  37 38CN 14 0 0.000000000000000 121.065258435275311
0

0101000
+10 4 -10 6 *
Ed
 0.000000100000000 1 1 0
1  8 0 0.000000000000000 6.283185307179586
2  39 15 10 0.000000000000000 6.283185307179586
2  40 15 12 0.000000000000000 6.283185307179586
2  41 16 13 0.000000000000000 6.283185307179586
2  42 4 17 0.000000000000000 6.283185307179586
2  43 17 21 0.000000000000000 6.283185307179586
2  44 17 23 0.000000000000000 6.283185307179586
2  45 4 24 0.000000000000000 6.283185307179586
2  46 14 25 0.000000000000000 6.283185307179586
2  47 14 26 0.000000000000000 6.283185307179586
2  48 4 27 0.000000000000000 6.283185307179586
0

0101000
+10 0 -10 0 *
Wi

0101100
+9 0 -9 0 -8 4 +8 6 *
Fa
0  0.000000100000000 14 0

0111000
+7 0 *
Wi

0101100
+8 0 *
Fa
0  0.000000100000000 16 29

0111000
+5 30 *
Sh

0101100
+6 0 +4 28 -4 31 *
So

0100000
+3 0 *
Co

1100000
+29 0 +20 0 +11 0 +2 0 *

+1 0 