
CASCADE Topology V1, (c) Matra-Datavision
Locations 17
1
1.000000000000000 0.000000000000000 0.000000000000000 0.000000000000000 
0.000000000000000 1.000000000000000 0.000000000000000 0.000000000000000 
0.000000000000000 0.000000000000000 1.000000000000000 0.000000000000000 
1
1.000000000000000 0.000000000000000 0.000000000000000 0.000000000000000 
0.000000000000000 1.000000000000000 0.000000000000000 0.000000000000000 
0.000000000000000 0.000000000000000 1.000000000000000 0.000000000000000 
2  2 -1 0
1
1.000000000000000 0.000000000000000 0.000000000000000 0.000000000000000 
0.000000000000000 1.000000000000000 0.000000000000000 0.000000000000000 
0.000000000000000 0.000000000000000 1.000000000000000 0.000000000000000 
1
1.000000000000000 0.000000000000000 0.000000000000000 0.000000000000000 
0.000000000000000 0.000000000000000 -1.000000000000000 0.000000000000000 
0.000000000000000 1.000000000000000 0.000000000000000 0.000000000000000 
1
1.000000000000000 0.000000000000000 0.000000000000000 0.000000000000000 
0.000000000000000 -0.000000000000000 -1.000000000000000 0.000000000000000 
0.000000000000000 1.000000000000000 -0.000000000000000 0.000000000000000 
2  4 1 5 1 6 -1 2 1 0
1
1.000000000000000 0.000000000000000 0.000000000000000 0.000000000000000 
0.000000000000000 0.000000000000000 -1.000000000000000 0.000000000000000 
0.000000000000000 1.000000000000000 0.000000000000000 0.000000000000000 
2  8 -1 2 -1 6 1 5 -1 4 -1 0
2  8 -1 0
1
1.000000000000000 0.000000000000000 0.000000000000000 0.000000000000000 
0.000000000000000 1.000000000000000 0.000000000000000 0.000000000000004 
0.000000000000000 0.000000000000000 1.000000000000000 10.000000000000000 
2  4 1 5 1 6 -1 11 1 2 1 0
2  8 -1 2 -1 11 -1 6 1 5 -1 4 -1 0
2  6 -1 2 1 0
2  2 -1 6 1 0
2  6 -1 11 1 2 1 0
2  2 -1 11 -1 6 1 0
Curve2ds 16
8 0.00000000000000000 9.99999999999999822
1 0.00000000000000000 0.00000000000000000 0.00000000000000000 1.00000000000000000 
8 0.00000000000000000 9.99999999999999822
1 0.00000000000000000 0.00000000000000000 0.00000000000000000 1.00000000000000000 
8 3.14159265358979312 4.71238898038468967
1 -3.14159265358979312 0.00000000000000000 1.00000000000000000 0.00000000000000000 
8 3.14159265358979312 4.71238898038468967
1 -3.14159265358979312 0.00000000000000000 1.00000000000000000 0.00000000000000000 
8 0.00000000000000000 1.57079632679489656
1 0.00000000000000000 0.00000000000000000 1.00000000000000000 0.00000000000000000 
8 4.71238898038468967 6.28318530717958623
1 -4.71238898038468967 0.00000000000000000 1.00000000000000000 0.00000000000000000 
8 0.00000000000000000 9.99999999999999645
1 1.57079632679489656 0.00000000000000000 0.00000000000000000 1.00000000000000000 
8 3.14159265358979312 4.71238898038468967
1 -3.14159265358979312 9.99999999999999822 1.00000000000000000 0.00000000000000000 
8 0.00000000000000000 9.99999999999999822
1 1.57079632679489656 0.00000000000000000 0.00000000000000000 1.00000000000000000 
8 3.14159265358979312 4.71238898038468967
1 -3.14159265358979312 9.99999999999999822 1.00000000000000000 0.00000000000000000 
8 0.00000000000000000 1.57079632679489656
1 0.00000000000000000 9.99999999999999822 1.00000000000000000 0.00000000000000000 
8 4.71238898038468967 6.28318530717958623
1 -4.71238898038468967 9.99999999999999822 1.00000000000000000 0.00000000000000000 
8 0.00000000000000000 9.99999999999999822
1 1.57079632679489656 0.00000000000000000 0.00000000000000000 1.00000000000000000 
8 0.00000000000000000 10.00000000000000000
1 0.00000000000000000 0.00000000000000000 0.00000000000000000 1.00000000000000000 
8 0.00000000000000000 9.99999999999999822
1 0.00000000000000000 0.00000000000000000 0.00000000000000000 1.00000000000000000 
8 0.00000000000000000 9.99999999999999822
1 1.57079632679489656 0.00000000000000000 0.00000000000000000 1.00000000000000000 
Curves 24
1 -12.69999999999999751 0.00000000000000035 1.58750000000000013 1.00000000000000000 0.00000000000000000 0.00000000000000000 
1 -11.69999999999999751 0.00000000000000106 1.58750000000000036 0.00000000000000000 -1.00000000000000000 0.00000000000000067 
1 11.69999999999999751 0.00000000000000106 1.58750000000000036 0.00000000000000000 -1.00000000000000000 0.00000000000000067 
1 -12.69999999999999751 -9.99999999999999822 -8.41249999999999787 1.00000000000000000 0.00000000000000000 0.00000000000000000 
8 3.14159265358979312 4.71238898038468967
2 -11.69999999999999751 0.00000000000000039 0.58750000000000047 0.00000000000000000 -1.00000000000000000 0.00000000000000067 0.00000000000000000 -0.00000000000000067 -1.00000000000000000 1.00000000000000000 0.00000000000000000 0.00000000000000000 0.99999999999999989
8 3.14159265358979312 4.71238898038468967
2 11.69999999999999751 0.00000000000000039 0.58750000000000047 0.00000000000000000 1.00000000000000000 -0.00000000000000067 0.00000000000000000 -0.00000000000000067 -1.00000000000000000 -1.00000000000000000 0.00000000000000000 -0.00000000000000000 0.99999999999999989
1 -12.69999999999999751 -0.00000000000000035 -1.58750000000000013 0.00000000000000000 0.00000000000000022 1.00000000000000000 
1 12.69999999999999751 0.00000000000000035 1.58750000000000013 0.00000000000000000 -0.00000000000000022 -1.00000000000000000 
8 0.00000000000000000 1.57079632679489656
2 -11.69999999999999751 -0.00000000000000039 -0.58750000000000047 0.00000000000000000 1.00000000000000000 -0.00000000000000067 0.00000000000000000 -0.00000000000000067 -1.00000000000000000 -1.00000000000000000 0.00000000000000000 -0.00000000000000000 0.99999999999999989
8 4.71238898038468967 6.28318530717958623
2 11.69999999999999751 -0.00000000000000039 -0.58750000000000047 0.00000000000000000 1.00000000000000000 -0.00000000000000067 0.00000000000000000 -0.00000000000000067 -1.00000000000000000 -1.00000000000000000 0.00000000000000000 -0.00000000000000000 0.99999999999999989
1 12.69999999999999751 -0.00000000000000035 -1.58750000000000013 -1.00000000000000000 0.00000000000000000 0.00000000000000000 
1 -12.69999999999999751 0.00000000000000039 0.58750000000000058 0.00000000000000000 -1.00000000000000000 0.00000000000000067 
8 3.14159265358979312 4.71238898038468967
2 -11.69999999999999751 -9.99999999999999822 0.58750000000000713 0.00000000000000000 -1.00000000000000000 0.00000000000000067 0.00000000000000000 -0.00000000000000067 -1.00000000000000000 1.00000000000000000 0.00000000000000000 0.00000000000000000 0.99999999999999989
1 12.69999999999999751 0.00000000000000039 0.58750000000000058 0.00000000000000000 -1.00000000000000000 0.00000000000000067 
8 3.14159265358979312 4.71238898038468967
2 11.69999999999999751 -9.99999999999999822 0.58750000000000713 0.00000000000000000 1.00000000000000000 -0.00000000000000067 0.00000000000000000 -0.00000000000000067 -1.00000000000000000 -1.00000000000000000 0.00000000000000000 -0.00000000000000000 0.99999999999999989
1 -12.69999999999999751 -9.99999999999999822 -11.58749999999999858 0.00000000000000000 0.00000000000000022 1.00000000000000000 
1 12.69999999999999751 -9.99999999999999822 -8.41249999999999787 0.00000000000000000 -0.00000000000000022 -1.00000000000000000 
8 0.00000000000000000 1.57079632679489656
2 -11.69999999999999751 -9.99999999999999822 -0.58749999999999380 0.00000000000000000 1.00000000000000000 -0.00000000000000067 0.00000000000000000 -0.00000000000000067 -1.00000000000000000 -1.00000000000000000 0.00000000000000000 -0.00000000000000000 0.99999999999999989
8 4.71238898038468967 6.28318530717958623
2 11.69999999999999751 -9.99999999999999822 -0.58749999999999380 0.00000000000000000 1.00000000000000000 -0.00000000000000067 0.00000000000000000 -0.00000000000000067 -1.00000000000000000 -1.00000000000000000 0.00000000000000000 -0.00000000000000000 0.99999999999999989
1 12.69999999999999751 -9.99999999999999822 -11.58749999999999858 -1.00000000000000000 0.00000000000000000 0.00000000000000000 
1 -12.69999999999999751 -0.00000000000000039 -0.58750000000000058 0.00000000000000000 -1.00000000000000000 0.00000000000000067 
1 12.69999999999999751 -0.00000000000000039 -0.58750000000000047 0.00000000000000000 -1.00000000000000000 0.00000000000000067 
1 -11.69999999999999751 -0.00000000000000106 -1.58750000000000036 0.00000000000000000 -1.00000000000000000 0.00000000000000067 
1 11.69999999999999751 -0.00000000000000106 -1.58750000000000036 0.00000000000000000 -1.00000000000000000 0.00000000000000067 
Polygon3D 0
PolygonOnTriangulations 0
Surfaces 10
1 -12.69999999999999751 0.00000000000000106 1.58750000000000013 0.00000000000000000 0.00000000000000067 1.00000000000000000 1.00000000000000000 0.00000000000000000 -0.00000000000000000 -0.00000000000000000 1.00000000000000000 -0.00000000000000067 
2 -11.69999999999999751 0.00000000000000039 0.58750000000000047 0.00000000000000000 -1.00000000000000000 0.00000000000000067 0.00000000000000000 0.00000000000000067 1.00000000000000000 -1.00000000000000000 0.00000000000000000 0.00000000000000000 0.99999999999999989
2 11.69999999999999751 0.00000000000000039 0.58750000000000047 0.00000000000000000 -1.00000000000000000 0.00000000000000067 0.00000000000000000 0.00000000000000067 1.00000000000000000 1.00000000000000000 -0.00000000000000000 -0.00000000000000000 0.99999999999999989
1 0.00000000000000025 0.00000000000000000 0.00000000000000000 0.00000000000000000 0.00000000000000044 1.00000000000000000 0.00000000000000000 -1.00000000000000000 0.00000000000000044 1.00000000000000000 0.00000000000000000 -0.00000000000000000 
2 -11.69999999999999751 -0.00000000000000039 -0.58750000000000047 0.00000000000000000 -1.00000000000000000 0.00000000000000067 0.00000000000000000 -0.00000000000000067 -1.00000000000000000 -1.00000000000000000 -0.00000000000000000 -0.00000000000000000 0.99999999999999989
2 11.69999999999999751 -0.00000000000000039 -0.58750000000000047 0.00000000000000000 -1.00000000000000000 0.00000000000000067 1.00000000000000000 0.00000000000000000 0.00000000000000000 0.00000000000000000 -0.00000000000000067 -1.00000000000000000 0.99999999999999989
1 -12.69999999999999751 -0.00000000000000106 -1.58750000000000013 -1.00000000000000000 0.00000000000000000 0.00000000000000000 0.00000000000000000 0.00000000000000067 1.00000000000000000 0.00000000000000000 1.00000000000000000 -0.00000000000000067 
1 12.69999999999999751 0.00000000000000106 1.58750000000000013 1.00000000000000000 0.00000000000000000 0.00000000000000000 0.00000000000000000 -0.00000000000000067 -1.00000000000000000 0.00000000000000000 1.00000000000000000 -0.00000000000000067 
1 0.00000000000000025 9.99999999999999645 -10.00000000000000000 0.00000000000000000 0.00000000000000044 1.00000000000000000 0.00000000000000000 -1.00000000000000000 0.00000000000000044 1.00000000000000000 0.00000000000000000 -0.00000000000000000 
1 12.69999999999999751 -0.00000000000000106 -1.58750000000000013 0.00000000000000000 -0.00000000000000067 -1.00000000000000000 -1.00000000000000000 -0.00000000000000000 0.00000000000000000 -0.00000000000000000 1.00000000000000000 -0.00000000000000067 
Triangulations 0

TShapes 62
Ve
0.000000100000000
-11.699999999999996 -1.587500000000000 0.000000000000001
0 0

0101101
*
Ve
0.000000100000000
11.699999999999996 -1.587500000000000 0.000000000000001
0 0

0101101
*
Ed
 0.000000100000000 1 1 0
1  1 0 1.000000000000000 24.399999999999995
0

0101000
+62 9 -61 9 *
Ve
0.000000100000000
-11.699999999999996 -1.587500000000009 -9.999999999999996
0 0

0101101
*
Ed
 0.000000100000000 1 1 0
1  2 0 -0.000000000000000 9.999999999999998
2  1 2 0 -0.000000000000000 9.999999999999998
4 G1 1 2 2 0
0

0101000
+62 10 -59 10 *
Ve
0.000000100000000
11.699999999999996 -1.587500000000009 -9.999999999999996
0 0

0101101
*
Ed
 0.000000100000000 1 1 0
1  3 0 -0.000000000000000 9.999999999999998
2  2 3 0 -0.000000000000000 9.999999999999998
4 G1 1 2 3 0
0

0101000
+61 10 -57 10 *
Ed
 0.000000100000000 1 1 0
1  4 0 1.000000000000000 24.399999999999995
0

0101000
+59 13 -57 13 *
Wi

0101100
-60 7 +58 0 -56 0 +55 12 *
Fa
0  0.000000100000000 1 0

0101000
+54 3 *
Ve
0.000000100000000
-12.699999999999996 -0.587500000000000 0.000000000000001
0 0

0101101
*
Ed
 0.000000100000000 1 1 0
1  5 0 3.141592653589793 4.712388980384690
2  3 2 0 3.141592653589793 4.712388980384690
0

0101000
+62 10 -52 10 *
Ve
0.000000100000000
12.699999999999996 -0.587500000000000 0.000000000000001
0 0

0101101
*
Ed
 0.000000100000000 1 1 0
1  6 0 3.141592653589793 4.712388980384690
2  4 3 0 3.141592653589793 4.712388980384690
0

0101000
+61 10 -50 10 *
Ve
0.000000100000000
-12.699999999999996 0.587500000000000 -0.000000000000001
0 0

0101101
*
Ed
 0.000000100000000 1 1 0
1  7 0 1.000000000000000 2.175000000000001
0

0101000
+48 9 -52 9 *
Ve
0.000000100000000
12.699999999999996 0.587500000000000 -0.000000000000001
0 0

0101101
*
Ed
 0.000000100000000 1 1 0
1  8 0 1.000000000000000 2.175000000000000
0

0101000
+50 9 -46 9 *
Ve
0.000000100000000
-11.699999999999996 1.587500000000000 -0.000000000000001
0 0

0101101
*
Ed
 0.000000100000000 1 1 0
1  9 0 0.000000000000000 1.570796326794897
2  5 5 0 0.000000000000000 1.570796326794897
0

0101000
+44 10 -48 10 *
Ve
0.000000100000000
11.699999999999996 1.587500000000000 -0.000000000000001
0 0

0101101
*
Ed
 0.000000100000000 1 1 0
1  10 0 4.712388980384690 6.283185307179586
2  6 6 0 4.712388980384690 6.283185307179586
0

0101000
+46 10 -42 10 *
Ed
 0.000000100000000 1 1 0
1  11 0 1.000000000000000 24.399999999999995
0

0101000
+42 9 -44 9 *
Wi

0101100
+60 7 -51 0 +49 0 +47 7 +45 7 +43 0 +41 0 +40 7 *
Fa
0  0.000000100000000 4 0

0101000
+39 15 *
Ve
0.000000100000000
-12.699999999999996 -0.587500000000009 -9.999999999999996
0 0

0101101
*
Ed
 0.000000100000000 1 1 0
1  12 0 -0.000000000000000 9.999999999999996
2  7 2 0 -0.000000000000000 9.999999999999996
4 G1 2 0 7 2
0

0101000
+52 10 -37 10 *
Ed
 0.000000100000000 1 1 0
1  13 0 3.141592653589793 4.712388980384690
2  8 2 0 3.141592653589793 4.712388980384690
0

0101000
+59 10 -37 10 *
Wi

0101100
+51 0 -58 0 +36 0 -35 0 *
Fa
0  0.000000100000000 2 0

0101000
+34 0 *
Ve
0.000000100000000
12.699999999999996 -0.587500000000009 -9.999999999999996
0 0

0101101
*
Ed
 0.000000100000000 1 1 0
1  14 0 -0.000000000000000 9.999999999999998
2  9 3 0 -0.000000000000000 9.999999999999998
4 G1 3 0 8 2
0

0101000
+50 10 -32 10 *
Ed
 0.000000100000000 1 1 0
1  15 0 3.141592653589793 4.712388980384690
2  10 3 0 3.141592653589793 4.712388980384690
0

0101000
+57 10 -32 10 *
Wi

0101100
+49 0 -56 0 +31 0 -30 0 *
Fa
0  0.000000100000000 3 0

0101000
+29 0 *
Ve
0.000000100000000
-12.699999999999996 0.587499999999992 -9.999999999999996
0 0

0101101
*
Ed
 0.000000100000000 1 1 0
1  16 0 1.000000000000000 2.175000000000001
0

0101000
+27 13 -37 13 *
Ve
0.000000100000000
12.699999999999996 0.587499999999991 -9.999999999999996
0 0

0101101
*
Ed
 0.000000100000000 1 1 0
1  17 0 1.000000000000000 2.175000000000000
0

0101000
+32 13 -25 13 *
Ve
0.000000100000000
-11.699999999999996 1.587499999999991 -9.999999999999996
0 0

0101101
*
Ed
 0.000000100000000 1 1 0
1  18 0 0.000000000000000 1.570796326794897
2  11 5 0 0.000000000000000 1.570796326794897
0

0101000
+23 10 -27 10 *
Ve
0.000000100000000
11.699999999999996 1.587499999999991 -9.999999999999996
0 0

0101101
*
Ed
 0.000000100000000 1 1 0
1  19 0 4.712388980384690 6.283185307179586
2  12 6 0 4.712388980384690 6.283185307179586
0

0101000
+25 10 -21 10 *
Ed
 0.000000100000000 1 1 0
1  20 0 1.000000000000000 24.399999999999995
0

0101000
+21 13 -23 13 *
Wi

0101100
+55 12 -35 0 +30 0 +26 12 +24 12 +22 0 +20 0 +19 12 *
Fa
0  0.000000100000000 9 0

0101000
+18 17 *
Ed
 0.000000100000000 1 1 0
1  21 0 -0.000000000000000 9.999999999999998
2  13 5 0 -0.000000000000000 9.999999999999998
4 G1 7 2 5 0
0

0101000
+48 10 -27 10 *
Wi

0101100
-47 7 +16 0 -36 0 +26 12 *
Fa
0  0.000000100000000 7 0

0101000
+15 3 *
Ed
 0.000000100000000 1 1 0
1  22 0 -0.000000000000000 10.000000000000000
2  14 6 0 -0.000000000000000 10.000000000000000
4 G1 8 2 6 0
0

0101000
+46 10 -25 10 *
Wi

0101100
-45 7 +31 0 -13 0 +24 12 *
Fa
0  0.000000100000000 8 0

0101000
+12 3 *
Ed
 0.000000100000000 1 1 0
1  23 0 -0.000000000000000 9.999999999999998
2  15 5 0 -0.000000000000000 9.999999999999998
4 G1 5 0 10 2
0

0101000
+44 10 -23 10 *
Wi

0101100
+43 0 -10 0 +16 0 -22 0 *
Fa
0  0.000000100000000 5 0

0101000
+9 0 *
Ed
 0.000000100000000 1 1 0
1  24 0 -0.000000000000000 9.999999999999998
2  16 6 0 -0.000000000000000 9.999999999999998
4 G1 6 0 10 2
0

0101000
+42 10 -21 10 *
Wi

0101100
+41 0 -13 0 +7 0 -20 0 *
Fa
0  0.000000100000000 6 0

0101000
+6 0 *
Wi

0101100
-40 7 +7 0 -10 0 +19 12 *
Fa
0  0.000000100000000 10 0

0101000
+4 3 *
Sh

0101100
+53 2 +38 14 +33 0 -28 0 -17 16 +14 2 +11 2 -8 0 -5 0 +3 2 
*
So

1100000
+2 0 *

+1 1 