
CASCADE Topology V1, (c) Matra-Datavision
Locations 25
1
1.000000000000000 0.000000000000000 0.000000000000000 0.000000000000000 
0.000000000000000 1.000000000000000 0.000000000000000 0.000000000000000 
0.000000000000000 0.000000000000000 1.000000000000000 0.000000000000000 
1
1.000000000000000 0.000000000000000 0.000000000000000 0.000000000000000 
0.000000000000000 -0.000000000000000 -1.000000000000000 0.000000000000000 
0.000000000000000 1.000000000000000 -0.000000000000000 0.000000000000000 
1
1.000000000000000 0.000000000000000 0.000000000000000 0.000000000000000 
0.000000000000000 1.000000000000000 0.000000000000000 0.000000000000000 
0.000000000000000 0.000000000000000 1.000000000000000 0.000000000000000 
1
1.000000000000000 0.000000000000000 0.000000000000000 0.000000000000000 
0.000000000000000 1.000000000000000 0.000000000000000 0.000000000000000 
0.000000000000000 0.000000000000000 1.000000000000000 0.000000000000000 
2  2 -1 3 1 4 1 0
2  4 -1 3 -1 2 1 0
1
1.000000000000000 0.000000000000000 0.000000000000000 0.000000000000000 
0.000000000000000 1.000000000000000 0.000000000000000 0.000000000000000 
0.000000000000000 0.000000000000000 1.000000000000000 0.000000000000000 
1
1.000000000000000 0.000000000000000 0.000000000000000 0.000000000000000 
0.000000000000000 0.000000000000000 -1.000000000000000 0.000000000000000 
0.000000000000000 1.000000000000000 0.000000000000000 0.000000000000000 
2  7 1 8 1 2 -1 3 1 4 1 0
1
1.000000000000000 0.000000000000000 0.000000000000000 0.000000000000000 
0.000000000000000 0.000000000000000 -1.000000000000000 0.000000000000000 
0.000000000000000 1.000000000000000 0.000000000000000 0.000000000000000 
2  10 -1 4 -1 3 -1 2 1 8 -1 7 -1 0
2  10 -1 0
2  3 -1 2 1 0
2  7 1 8 1 2 -1 3 1 0
2  10 -1 4 -1 0
2  3 1 4 1 0
2  4 -1 3 -1 0
1
1.000000000000000 0.000000000000000 0.000000000000000 0.000000000000000 
0.000000000000000 1.000000000000000 0.000000000000000 0.000000000000004 
0.000000000000000 0.000000000000000 1.000000000000000 10.000000000000000 
2  7 1 8 1 2 -1 18 1 3 1 4 1 0
2  10 -1 4 -1 3 -1 18 -1 2 1 8 -1 7 -1 0
2  3 -1 0
2  7 1 8 1 2 -1 18 1 3 1 0
2  2 -1 18 1 3 1 4 1 0
2  4 -1 3 -1 18 -1 2 1 0
2  3 -1 18 -1 2 1 0
Curve2ds 32
8 4.71238898038468967 6.28318530717958623
1 -4.71238898038468967 0.00000000000000000 1.00000000000000000 0.00000000000000000 
8 1.57079632679489656 3.14159265358979312
1 -1.57079632679489656 0.00000000000000000 1.00000000000000000 0.00000000000000000 
8 0.00000000000000000 1.57079632679489656
1 0.00000000000000000 0.00000000000000000 1.00000000000000000 0.00000000000000000 
8 1.57079632679489656 3.14159265358979312
1 -1.57079632679489656 0.00000000000000000 1.00000000000000000 0.00000000000000000 
8 3.14159265358979312 4.71238898038468967
1 -3.14159265358979312 0.00000000000000000 1.00000000000000000 0.00000000000000000 
8 3.14159265358979312 4.71238898038468967
1 -3.14159265358979312 0.00000000000000000 1.00000000000000000 0.00000000000000000 
8 0.00000000000000000 1.57079632679489656
1 0.00000000000000000 0.00000000000000000 1.00000000000000000 0.00000000000000000 
8 4.71238898038468967 6.28318530717958623
1 -4.71238898038468967 0.00000000000000000 1.00000000000000000 0.00000000000000000 
8 0.00000000000000000 10.00000000000000000
1 0.00000000000000000 0.00000000000000000 0.00000000000000000 1.00000000000000000 
8 0.00000000000000000 9.99999999999999822
1 0.00000000000000000 0.00000000000000000 0.00000000000000000 1.00000000000000000 
8 0.00000000000000000 9.99999999999999822
1 1.57079632679489678 0.00000000000000000 0.00000000000000000 1.00000000000000000 
8 4.71238898038468967 6.28318530717958623
1 -4.71238898038468967 9.99999999999999822 1.00000000000000000 0.00000000000000000 
8 0.00000000000000000 9.99999999999999822
1 1.57079632679489656 0.00000000000000000 0.00000000000000000 1.00000000000000000 
8 1.57079632679489301 3.14159265358979312
1 -1.57079632679489301 9.99999999999999822 1.00000000000000000 0.00000000000000000 
8 0.00000000000000000 9.99999999999999822
1 0.00000000000000000 0.00000000000000000 0.00000000000000000 1.00000000000000000 
8 0.00000000000000000 9.99999999999999822
1 1.57079632679489656 0.00000000000000000 0.00000000000000000 1.00000000000000000 
8 0.00000000000000000 9.99999999999999822
1 1.57079632679489656 0.00000000000000000 0.00000000000000000 1.00000000000000000 
8 0.00000000000000000 1.57079632679489656
1 0.00000000000000000 9.99999999999999822 1.00000000000000000 0.00000000000000000 
8 0.00000000000000000 9.99999999999999645
1 0.00000000000000000 0.00000000000000000 0.00000000000000000 1.00000000000000000 
8 1.57079632679489656 3.14159265358979312
1 -1.57079632679489656 9.99999999999999822 1.00000000000000000 0.00000000000000000 
8 0.00000000000000000 9.99999999999999822
1 0.00000000000000000 0.00000000000000000 0.00000000000000000 1.00000000000000000 
8 0.00000000000000000 9.99999999999999822
1 0.00000000000000000 0.00000000000000000 0.00000000000000000 1.00000000000000000 
8 0.00000000000000000 9.99999999999999822
1 1.57079632679489656 0.00000000000000000 0.00000000000000000 1.00000000000000000 
8 3.14159265358979312 4.71238898038468967
1 -3.14159265358979312 9.99999999999999822 1.00000000000000000 0.00000000000000000 
8 0.00000000000000000 9.99999999999999822
1 1.57079632679489656 0.00000000000000000 0.00000000000000000 1.00000000000000000 
8 3.14159265358979312 4.71238898038468967
1 -3.14159265358979312 9.99999999999999822 1.00000000000000000 0.00000000000000000 
8 0.00000000000000000 9.99999999999999822
1 1.57079632679489656 0.00000000000000000 0.00000000000000000 1.00000000000000000 
8 0.00000000000000000 9.99999999999999822
1 0.00000000000000000 0.00000000000000000 0.00000000000000000 1.00000000000000000 
8 0.00000000000000000 9.99999999999999822
1 0.00000000000000000 0.00000000000000000 0.00000000000000000 1.00000000000000000 
8 0.00000000000000000 1.57079632679489656
1 0.00000000000000000 9.99999999999999822 1.00000000000000000 0.00000000000000000 
8 0.00000000000000000 9.99999999999999822
1 1.57079632679489656 0.00000000000000000 0.00000000000000000 1.00000000000000000 
8 4.71238898038468967 6.28318530717958623
1 -4.71238898038468967 9.99999999999999822 1.00000000000000000 0.00000000000000000 
Curves 48
1 -18.41249999999999787 -0.00000000000000409 -18.41250000000000142 0.00000000000000000 0.00000000000000022 1.00000000000000000 
8 4.71238898038468967 6.28318530717958623
2 -17.41249999999999787 -0.00000000000001160 -17.41249999999999787 0.00000000000000000 -1.00000000000000000 0.00000000000000067 0.00000000000000000 -0.00000000000000067 -1.00000000000000000 1.00000000000000000 0.00000000000000000 0.00000000000000000 0.99999999999999989
8 1.57079632679489656 3.14159265358979312
2 -17.41249999999999787 0.00000000000001160 17.41249999999999787 0.00000000000000000 1.00000000000000000 -0.00000000000000067 0.00000000000000000 -0.00000000000000067 -1.00000000000000000 -1.00000000000000000 0.00000000000000000 -0.00000000000000000 0.99999999999999989
1 18.41249999999999787 -0.00000000000000409 -18.41249999999999787 -1.00000000000000000 -0.00000000000000000 -0.00000000000000010 
1 -18.41249999999999787 0.00000000000000409 18.41249999999999787 1.00000000000000000 0.00000000000000000 0.00000000000000000 
8 0.00000000000000000 1.57079632679489656
2 17.41249999999999787 -0.00000000000001160 -17.41249999999999787 0.00000000000000000 -1.00000000000000000 0.00000000000000067 0.00000000000000000 -0.00000000000000067 -1.00000000000000000 1.00000000000000000 0.00000000000000000 0.00000000000000000 0.99999999999999989
8 1.57079632679489656 3.14159265358979312
2 17.41249999999999787 0.00000000000001160 17.41249999999999787 0.00000000000000000 -1.00000000000000000 0.00000000000000067 0.00000000000000000 -0.00000000000000067 -1.00000000000000000 1.00000000000000000 0.00000000000000000 0.00000000000000000 0.99999999999999989
1 18.41249999999999787 0.00000000000000409 18.41249999999999787 0.00000000000000000 -0.00000000000000022 -1.00000000000000000 
1 -19.99999999999999289 0.00000000000000444 19.99999999999999645 1.00000000000000000 0.00000000000000000 0.00000000000000000 
8 3.14159265358979312 4.71238898038468967
2 -17.99999999999999289 0.00000000000001199 17.99999999999999645 0.00000000000000000 -1.00000000000000000 0.00000000000000067 0.00000000000000000 -0.00000000000000067 -1.00000000000000000 1.00000000000000000 0.00000000000000000 0.00000000000000000 1.99999999999999978
8 3.14159265358979312 4.71238898038468967
2 18.00000000000000000 0.00000000000001199 17.99999999999999645 0.00000000000000000 1.00000000000000000 -0.00000000000000067 0.00000000000000000 -0.00000000000000067 -1.00000000000000000 -1.00000000000000000 0.00000000000000000 -0.00000000000000000 1.99999999999999978
1 -19.99999999999999289 -0.00000000000000444 -19.99999999999999645 0.00000000000000000 0.00000000000000022 1.00000000000000000 
1 20.00000000000000000 0.00000000000000444 19.99999999999999645 0.00000000000000000 -0.00000000000000022 -1.00000000000000000 
8 0.00000000000000000 1.57079632679489656
2 -17.99999999999999289 -0.00000000000001199 -17.99999999999999645 0.00000000000000000 1.00000000000000000 -0.00000000000000067 0.00000000000000000 -0.00000000000000067 -1.00000000000000000 -1.00000000000000000 0.00000000000000000 -0.00000000000000000 1.99999999999999978
8 4.71238898038468967 6.28318530717958623
2 18.00000000000000000 -0.00000000000001199 -17.99999999999999645 0.00000000000000000 1.00000000000000000 -0.00000000000000067 0.00000000000000000 -0.00000000000000067 -1.00000000000000000 -1.00000000000000000 0.00000000000000000 -0.00000000000000000 1.99999999999999978
1 20.00000000000000000 -0.00000000000000444 -19.99999999999999645 -1.00000000000000000 0.00000000000000000 0.00000000000000000 
1 -18.41249999999999787 -0.00000000000001160 -17.41249999999999787 0.00000000000000000 -1.00000000000000000 0.00000000000000067 
1 -18.41249999999999787 0.00000000000001160 17.41249999999999787 0.00000000000000000 -1.00000000000000000 0.00000000000000067 
1 -18.41249999999999787 -10.00000000000000178 -28.41250000000000142 0.00000000000000000 0.00000000000000022 1.00000000000000000 
1 -17.41249999999999787 -0.00000000000001227 -18.41249999999999787 0.00000000000000000 -1.00000000000000000 0.00000000000000067 
8 4.71238898038468967 6.28318530717958623
2 -17.41249999999999787 -10.00000000000000888 -17.41249999999999076 0.00000000000000000 -1.00000000000000000 0.00000000000000067 0.00000000000000000 -0.00000000000000067 -1.00000000000000000 1.00000000000000000 0.00000000000000000 0.00000000000000000 0.99999999999999989
1 -17.41249999999999787 0.00000000000001227 18.41249999999999787 0.00000000000000000 -1.00000000000000000 0.00000000000000067 
8 1.57079632679489301 3.14159265358979312
2 -17.41249999999999787 -9.99999999999998757 17.41250000000000497 0.00000000000000000 1.00000000000000000 -0.00000000000000067 0.00000000000000000 -0.00000000000000067 -1.00000000000000000 -1.00000000000000000 0.00000000000000000 -0.00000000000000000 0.99999999999999989
1 17.41249999999999787 -0.00000000000001227 -18.41249999999999787 0.00000000000000000 -1.00000000000000000 0.00000000000000067 
1 18.41249999999999787 -10.00000000000000178 -28.41249999999999432 -1.00000000000000000 -0.00000000000000000 -0.00000000000000010 
1 17.41249999999999787 0.00000000000001227 18.41249999999999787 0.00000000000000000 -1.00000000000000000 0.00000000000000067 
1 -18.41249999999999787 -9.99999999999999467 8.41249999999999964 1.00000000000000000 0.00000000000000000 0.00000000000000000 
1 18.41249999999999787 -0.00000000000001160 -17.41249999999999787 0.00000000000000000 -1.00000000000000000 0.00000000000000067 
8 0.00000000000000000 1.57079632679489656
2 17.41249999999999787 -10.00000000000000888 -17.41249999999999076 0.00000000000000000 -1.00000000000000000 0.00000000000000067 0.00000000000000000 -0.00000000000000067 -1.00000000000000000 1.00000000000000000 0.00000000000000000 0.00000000000000000 0.99999999999999989
1 18.41249999999999787 0.00000000000001160 17.41249999999999787 0.00000000000000000 -1.00000000000000000 0.00000000000000067 
8 1.57079632679489656 3.14159265358979312
2 17.41249999999999787 -9.99999999999998757 17.41250000000000497 0.00000000000000000 -1.00000000000000000 0.00000000000000067 0.00000000000000000 -0.00000000000000067 -1.00000000000000000 1.00000000000000000 0.00000000000000000 0.00000000000000000 0.99999999999999989
1 18.41249999999999787 -9.99999999999999467 8.41249999999999964 0.00000000000000000 -0.00000000000000022 -1.00000000000000000 
1 -17.99999999999999289 0.00000000000001332 19.99999999999999645 0.00000000000000000 -1.00000000000000000 0.00000000000000067 
1 18.00000000000000000 0.00000000000001332 19.99999999999999645 0.00000000000000000 -1.00000000000000000 0.00000000000000067 
1 -19.99999999999999289 -9.99999999999999289 9.99999999999999822 1.00000000000000000 0.00000000000000000 0.00000000000000000 
1 -19.99999999999999289 0.00000000000001199 17.99999999999999645 0.00000000000000000 -1.00000000000000000 0.00000000000000067 
8 3.14159265358979312 4.71238898038468967
2 -17.99999999999999289 -9.99999999999998757 18.00000000000000355 0.00000000000000000 -1.00000000000000000 0.00000000000000067 0.00000000000000000 -0.00000000000000067 -1.00000000000000000 1.00000000000000000 0.00000000000000000 0.00000000000000000 1.99999999999999978
1 20.00000000000000000 0.00000000000001199 17.99999999999999645 0.00000000000000000 -1.00000000000000000 0.00000000000000067 
8 3.14159265358979312 4.71238898038468967
2 18.00000000000000000 -9.99999999999998757 18.00000000000000355 0.00000000000000000 1.00000000000000000 -0.00000000000000067 0.00000000000000000 -0.00000000000000067 -1.00000000000000000 -1.00000000000000000 0.00000000000000000 -0.00000000000000000 1.99999999999999978
1 -19.99999999999999289 -0.00000000000001199 -17.99999999999999645 0.00000000000000000 -1.00000000000000000 0.00000000000000067 
1 -19.99999999999999289 -10.00000000000000355 -29.99999999999999289 0.00000000000000000 0.00000000000000022 1.00000000000000000 
1 20.00000000000000000 -0.00000000000001199 -17.99999999999999645 0.00000000000000000 -1.00000000000000000 0.00000000000000067 
1 20.00000000000000000 -9.99999999999999289 9.99999999999999822 0.00000000000000000 -0.00000000000000022 -1.00000000000000000 
1 -17.99999999999999289 -0.00000000000001332 -19.99999999999999645 0.00000000000000000 -1.00000000000000000 0.00000000000000067 
8 0.00000000000000000 1.57079632679489656
2 -17.99999999999999289 -10.00000000000000888 -17.99999999999998934 0.00000000000000000 1.00000000000000000 -0.00000000000000067 0.00000000000000000 -0.00000000000000067 -1.00000000000000000 -1.00000000000000000 0.00000000000000000 -0.00000000000000000 1.99999999999999978
1 18.00000000000000000 -0.00000000000001332 -19.99999999999999645 0.00000000000000000 -1.00000000000000000 0.00000000000000067 
8 4.71238898038468967 6.28318530717958623
2 18.00000000000000000 -10.00000000000000888 -17.99999999999998934 0.00000000000000000 1.00000000000000000 -0.00000000000000067 0.00000000000000000 -0.00000000000000067 -1.00000000000000000 -1.00000000000000000 0.00000000000000000 -0.00000000000000000 1.99999999999999978
1 20.00000000000000000 -10.00000000000000355 -29.99999999999999289 -1.00000000000000000 0.00000000000000000 0.00000000000000000 
Polygon3D 0
PolygonOnTriangulations 0
Surfaces 18
1 0.00000000000000213 0.00000000000000000 0.00000000000000000 0.00000000000000000 0.00000000000000044 1.00000000000000000 0.00000000000000000 -1.00000000000000000 0.00000000000000044 1.00000000000000000 0.00000000000000000 -0.00000000000000000 
2 -17.41249999999999787 -0.00000000000001160 -17.41249999999999787 0.00000000000000000 -1.00000000000000000 0.00000000000000067 -1.00000000000000000 0.00000000000000000 0.00000000000000000 -0.00000000000000000 -0.00000000000000067 -1.00000000000000000 0.99999999999999989
2 -17.41249999999999787 0.00000000000001160 17.41249999999999787 0.00000000000000000 -1.00000000000000000 0.00000000000000067 -1.00000000000000000 0.00000000000000000 0.00000000000000000 0.00000000000000000 0.00000000000000067 1.00000000000000000 0.99999999999999989
2 17.41249999999999787 -0.00000000000001160 -17.41249999999999787 0.00000000000000000 -1.00000000000000000 0.00000000000000067 0.00000000000000010 -0.00000000000000067 -1.00000000000000000 1.00000000000000000 0.00000000000000000 0.00000000000000010 0.99999999999999989
2 17.41249999999999787 0.00000000000001160 17.41249999999999787 0.00000000000000000 -1.00000000000000000 0.00000000000000067 1.00000000000000000 0.00000000000000000 0.00000000000000000 -0.00000000000000000 0.00000000000000067 1.00000000000000000 0.99999999999999989
2 -17.99999999999999289 0.00000000000001199 17.99999999999999645 0.00000000000000000 -1.00000000000000000 0.00000000000000067 0.00000000000000000 0.00000000000000067 1.00000000000000000 -1.00000000000000000 0.00000000000000000 0.00000000000000000 1.99999999999999978
2 18.00000000000000000 0.00000000000001199 17.99999999999999645 0.00000000000000000 -1.00000000000000000 0.00000000000000067 0.00000000000000000 0.00000000000000067 1.00000000000000000 1.00000000000000000 -0.00000000000000000 -0.00000000000000000 1.99999999999999978
2 -17.99999999999999289 -0.00000000000001199 -17.99999999999999645 0.00000000000000000 -1.00000000000000000 0.00000000000000067 0.00000000000000000 -0.00000000000000067 -1.00000000000000000 -1.00000000000000000 -0.00000000000000000 -0.00000000000000000 1.99999999999999978
2 18.00000000000000000 -0.00000000000001199 -17.99999999999999645 0.00000000000000000 -1.00000000000000000 0.00000000000000067 1.00000000000000000 0.00000000000000000 0.00000000000000000 0.00000000000000000 -0.00000000000000067 -1.00000000000000000 1.99999999999999978
1 -18.41249999999999787 -0.00000000000001227 -18.41250000000000142 -1.00000000000000000 0.00000000000000000 0.00000000000000000 0.00000000000000000 0.00000000000000067 1.00000000000000000 0.00000000000000000 1.00000000000000000 -0.00000000000000067 
1 18.41249999999999787 -0.00000000000001227 -18.41249999999999787 0.00000000000000010 -0.00000000000000067 -1.00000000000000000 -1.00000000000000000 0.00000000000000000 -0.00000000000000010 0.00000000000000000 1.00000000000000000 -0.00000000000000067 
1 -18.41249999999999787 0.00000000000001227 18.41249999999999787 0.00000000000000000 0.00000000000000067 1.00000000000000000 1.00000000000000000 0.00000000000000000 -0.00000000000000000 -0.00000000000000000 1.00000000000000000 -0.00000000000000067 
1 18.41249999999999787 0.00000000000001227 18.41249999999999787 1.00000000000000000 0.00000000000000000 0.00000000000000000 0.00000000000000000 -0.00000000000000067 -1.00000000000000000 0.00000000000000000 1.00000000000000000 -0.00000000000000067 
1 -19.99999999999999289 0.00000000000001332 19.99999999999999645 0.00000000000000000 0.00000000000000067 1.00000000000000000 1.00000000000000000 0.00000000000000000 -0.00000000000000000 -0.00000000000000000 1.00000000000000000 -0.00000000000000067 
1 -19.99999999999999289 -0.00000000000001332 -19.99999999999999645 -1.00000000000000000 0.00000000000000000 0.00000000000000000 0.00000000000000000 0.00000000000000067 1.00000000000000000 0.00000000000000000 1.00000000000000000 -0.00000000000000067 
1 20.00000000000000000 0.00000000000001332 19.99999999999999645 1.00000000000000000 0.00000000000000000 0.00000000000000000 0.00000000000000000 -0.00000000000000067 -1.00000000000000000 0.00000000000000000 1.00000000000000000 -0.00000000000000067 
1 20.00000000000000000 -0.00000000000001332 -19.99999999999999645 0.00000000000000000 -0.00000000000000067 -1.00000000000000000 -1.00000000000000000 -0.00000000000000000 0.00000000000000000 -0.00000000000000000 1.00000000000000000 -0.00000000000000067 
1 0.00000000000000213 9.99999999999999645 -10.00000000000000000 0.00000000000000000 0.00000000000000044 1.00000000000000000 0.00000000000000000 -1.00000000000000000 0.00000000000000044 1.00000000000000000 0.00000000000000000 -0.00000000000000000 
Triangulations 0

TShapes 120
Ve
0.000000100000000
-18.412499999999994 17.412499999999994 -0.000000000000015
0 0

0101101
*
Ve
0.000000100000000
-18.412499999999994 -17.412499999999994 0.000000000000015
0 0

0101101
*
Ed
 0.000000100000000 1 1 0
1  1 0 1.000000000000003 35.824999999999996
0

0101000
+120 11 -119 11 *
Ve
0.000000100000000
-17.412499999999994 18.412499999999994 -0.000000000000016
0 0

0101101
*
Ed
 0.000000100000000 1 1 0
1  2 0 4.712388980384690 6.283185307179586
2  1 2 0 4.712388980384690 6.283185307179586
0

0101000
+120 12 -117 12 *
Ve
0.000000100000000
-17.412499999999994 -18.412499999999994 0.000000000000016
0 0

0101101
*
Ed
 0.000000100000000 1 1 0
1  3 0 1.570796326794897 3.141592653589793
2  2 3 0 1.570796326794897 3.141592653589793
0

0101000
+119 12 -115 12 *
Ve
0.000000100000000
17.412499999999994 18.412499999999994 -0.000000000000016
0 0

0101101
*
Ed
 0.000000100000000 1 1 0
1  4 0 1.000000000000000 35.824999999999996
0

0101000
+113 11 -117 11 *
Ve
0.000000100000000
17.412499999999994 -18.412499999999994 0.000000000000016
0 0

0101101
*
Ed
 0.000000100000000 1 1 0
1  5 0 1.000000000000000 35.824999999999996
0

0101000
+115 11 -111 11 *
Ve
0.000000100000000
18.412499999999994 17.412499999999994 -0.000000000000015
0 0

0101101
*
Ed
 0.000000100000000 1 1 0
1  6 0 0.000000000000000 1.570796326794897
2  3 4 0 0.000000000000000 1.570796326794897
0

0101000
+113 12 -109 12 *
Ve
0.000000100000000
18.412499999999994 -17.412499999999994 0.000000000000015
0 0

0101101
*
Ed
 0.000000100000000 1 1 0
1  7 0 1.570796326794897 3.141592653589793
2  4 5 0 1.570796326794897 3.141592653589793
0

0101000
+107 12 -111 12 *
Ed
 0.000000100000000 1 1 0
1  8 0 1.000000000000000 35.824999999999996
0

0101000
+107 11 -109 11 *
Wi

0101100
-118 9 +116 0 -114 0 -112 9 -110 9 +108 0 +106 0 -105 9 *
Ve
0.000000100000000
-17.999999999999989 -19.999999999999993 0.000000000000018
0 0

0101101
*
Ve
0.000000100000000
17.999999999999996 -19.999999999999993 0.000000000000018
0 0

0101101
*
Ed
 0.000000100000000 1 1 0
1  9 0 2.000000000000000 37.999999999999993
0

0101000
+103 11 -102 11 *
Ve
0.000000100000000
-19.999999999999989 -17.999999999999993 0.000000000000016
0 0

0101101
*
Ed
 0.000000100000000 1 1 0
1  10 0 3.141592653589793 4.712388980384690
2  5 6 0 3.141592653589793 4.712388980384690
0

0101000
+103 15 -100 15 *
Ve
0.000000100000000
19.999999999999996 -17.999999999999993 0.000000000000016
0 0

0101101
*
Ed
 0.000000100000000 1 1 0
1  11 0 3.141592653589793 4.712388980384690
2  6 7 0 3.141592653589793 4.712388980384690
0

0101000
+102 15 -98 15 *
Ve
0.000000100000000
-19.999999999999989 17.999999999999993 -0.000000000000016
0 0

0101101
*
Ed
 0.000000100000000 1 1 0
1  12 0 2.000000000000000 37.999999999999993
0

0101000
+96 11 -100 11 *
Ve
0.000000100000000
19.999999999999996 17.999999999999993 -0.000000000000016
0 0

0101101
*
Ed
 0.000000100000000 1 1 0
1  13 0 2.000000000000000 37.999999999999993
0

0101000
+98 11 -94 11 *
Ve
0.000000100000000
-17.999999999999989 19.999999999999993 -0.000000000000018
0 0

0101101
*
Ed
 0.000000100000000 1 1 0
1  14 0 0.000000000000000 1.570796326794897
2  7 8 0 0.000000000000000 1.570796326794897
0

0101000
+92 15 -96 15 *
Ve
0.000000100000000
17.999999999999996 19.999999999999993 -0.000000000000018
0 0

0101101
*
Ed
 0.000000100000000 1 1 0
1  15 0 4.712388980384690 6.283185307179586
2  8 9 0 4.712388980384690 6.283185307179586
0

0101000
+94 15 -90 15 *
Ed
 0.000000100000000 1 1 0
1  16 0 2.000000000000000 37.999999999999993
0

0101000
+90 11 -92 11 *
Wi

0101100
+101 14 -99 0 +97 0 +95 14 +93 14 +91 0 +89 0 +88 14 *
Fa
0  0.000000100000000 1 0

0101000
+104 6 +87 13 *
Ve
0.000000100000000
-18.412499999999994 17.412499999999984 -10.000000000000011
0 0

0101101
*
Ed
 0.000000100000000 1 1 0
1  17 0 -0.000000000000000 10.000000000000000
2  9 2 0 -0.000000000000000 10.000000000000000
4 G1 10 16 2 0
0

0101000
+120 12 -85 12 *
Ve
0.000000100000000
-18.412499999999994 -17.412500000000005 -9.999999999999982
0 0

0101101
*
Ed
 0.000000100000000 1 1 0
1  18 0 -0.000000000000000 9.999999999999998
2  10 3 0 -0.000000000000000 9.999999999999998
4 G1 10 16 3 0
0

0101000
+119 12 -83 12 *
Ed
 0.000000100000000 1 1 0
1  19 0 1.000000000000004 35.824999999999996
0

0101000
+85 20 -83 20 *
Wi

0101100
-118 9 +84 0 -82 0 +81 19 *
Fa
0  0.000000100000000 10 0

0101000
+80 17 *
Ve
0.000000100000000
-17.412499999999994 18.412499999999984 -10.000000000000011
0 0

0101101
*
Ed
 0.000000100000000 1 1 0
1  20 0 -0.000000000000000 9.999999999999998
2  11 2 0 -0.000000000000000 9.999999999999998
4 G1 2 0 11 16
0

0101000
+117 12 -78 12 *
Ed
 0.000000100000000 1 1 0
1  21 0 4.712388980384690 6.283185307179586
2  12 2 0 4.712388980384690 6.283185307179586
0

0101000
+85 12 -78 12 *
Wi

0101100
+116 0 -84 0 +77 0 -76 0 *
Fa
0  0.000000100000000 2 0

0101000
+75 0 *
Ve
0.000000100000000
-17.412499999999994 -18.412500000000005 -9.999999999999982
0 0

0101101
*
Ed
 0.000000100000000 1 1 0
1  22 0 -0.000000000000000 9.999999999999998
2  13 3 0 -0.000000000000000 9.999999999999998
4 G1 3 0 12 16
0

0101000
+115 12 -73 12 *
Ed
 0.000000100000000 1 1 0
1  23 0 1.570796326794893 3.141592653589793
2  14 3 0 1.570796326794893 3.141592653589793
0

0101000
+83 12 -73 12 *
Wi

0101100
+114 0 -82 0 +72 0 -71 0 *
Fa
0  0.000000100000000 3 0

0101000
+70 0 *
Ve
0.000000100000000
17.412499999999994 18.412499999999984 -10.000000000000011
0 0

0101101
*
Ed
 0.000000100000000 1 1 0
1  24 0 -0.000000000000000 9.999999999999998
2  15 4 0 -0.000000000000000 9.999999999999998
4 G1 11 16 4 0
0

0101000
+113 12 -68 12 *
Ed
 0.000000100000000 1 1 0
1  25 0 1.000000000000000 35.824999999999996
0

0101000
+68 20 -78 20 *
Wi

0101100
-112 9 +67 0 -77 0 +66 19 *
Fa
0  0.000000100000000 11 0

0101000
+65 17 *
Ve
0.000000100000000
17.412499999999994 -18.412500000000005 -9.999999999999982
0 0

0101101
*
Ed
 0.000000100000000 1 1 0
1  26 0 -0.000000000000000 9.999999999999998
2  16 5 0 -0.000000000000000 9.999999999999998
4 G1 12 16 5 0
0

0101000
+111 12 -63 12 *
Ed
 0.000000100000000 1 1 0
1  27 0 1.000000000000000 35.824999999999996
0

0101000
+73 20 -63 20 *
Wi

0101100
-110 9 +72 0 -62 0 +61 19 *
Fa
0  0.000000100000000 12 0

0101000
+60 17 *
Ve
0.000000100000000
18.412499999999994 17.412499999999984 -10.000000000000011
0 0

0101101
*
Ed
 0.000000100000000 1 1 0
1  28 0 -0.000000000000000 9.999999999999998
2  17 4 0 -0.000000000000000 9.999999999999998
4 G1 4 0 13 16
0

0101000
+109 12 -58 12 *
Ed
 0.000000100000000 1 1 0
1  29 0 0.000000000000000 1.570796326794897
2  18 4 0 0.000000000000000 1.570796326794897
0

0101000
+68 12 -58 12 *
Wi

0101100
+108 0 -67 0 +57 0 -56 0 *
Fa
0  0.000000100000000 4 0

0101000
+55 0 *
Ve
0.000000100000000
18.412499999999994 -17.412500000000005 -9.999999999999982
0 0

0101101
*
Ed
 0.000000100000000 1 1 0
1  30 0 -0.000000000000000 9.999999999999996
2  19 5 0 -0.000000000000000 9.999999999999996
4 G1 5 0 13 16
0

0101000
+107 12 -53 12 *
Ed
 0.000000100000000 1 1 0
1  31 0 1.570796326794897 3.141592653589793
2  20 5 0 1.570796326794897 3.141592653589793
0

0101000
+53 12 -63 12 *
Wi

0101100
+106 0 -52 0 +62 0 -51 0 *
Fa
0  0.000000100000000 5 0

0101000
+50 0 *
Ed
 0.000000100000000 1 1 0
1  32 0 0.999999999999999 35.824999999999996
0

0101000
+53 20 -58 20 *
Wi

0101100
-105 9 +52 0 -57 0 +48 19 *
Fa
0  0.000000100000000 13 0

0101000
+47 17 *
Ve
0.000000100000000
-17.999999999999989 -20.000000000000004 -9.999999999999979
0 0

0101101
*
Ed
 0.000000100000000 1 1 0
1  33 0 -0.000000000000000 9.999999999999998
2  21 6 0 -0.000000000000000 9.999999999999998
4 G1 14 3 6 0
0

0101000
+103 15 -45 15 *
Ve
0.000000100000000
17.999999999999996 -20.000000000000004 -9.999999999999979
0 0

0101101
*
Ed
 0.000000100000000 1 1 0
1  34 0 -0.000000000000000 9.999999999999998
2  22 7 0 -0.000000000000000 9.999999999999998
4 G1 14 3 7 0
0

0101000
+102 15 -43 15 *
Ed
 0.000000100000000 1 1 0
1  35 0 2.000000000000000 37.999999999999993
0

0101000
+45 20 -43 20 *
Wi

0101100
-101 14 +44 0 -42 0 +41 22 *
Fa
0  0.000000100000000 14 0

0101000
+40 21 *
Ve
0.000000100000000
-19.999999999999989 -18.000000000000004 -9.999999999999982
0 0

0101101
*
Ed
 0.000000100000000 1 1 0
1  36 0 -0.000000000000000 9.999999999999998
2  23 6 0 -0.000000000000000 9.999999999999998
4 G1 6 0 15 3
0

0101000
+100 15 -38 15 *
Ed
 0.000000100000000 1 1 0
1  37 0 3.141592653589793 4.712388980384690
2  24 6 0 3.141592653589793 4.712388980384690
0

0101000
+45 15 -38 15 *
Wi

0101100
+99 0 -44 0 +37 0 -36 0 *
Fa
0  0.000000100000000 6 0

0101000
+35 0 *
Ve
0.000000100000000
19.999999999999996 -18.000000000000004 -9.999999999999982
0 0

0101101
*
Ed
 0.000000100000000 1 1 0
1  38 0 -0.000000000000000 9.999999999999998
2  25 7 0 -0.000000000000000 9.999999999999998
4 G1 7 0 16 3
0

0101000
+98 15 -33 15 *
Ed
 0.000000100000000 1 1 0
1  39 0 3.141592653589793 4.712388980384690
2  26 7 0 3.141592653589793 4.712388980384690
0

0101000
+43 15 -33 15 *
Wi

0101100
+97 0 -42 0 +32 0 -31 0 *
Fa
0  0.000000100000000 7 0

0101000
+30 0 *
Ve
0.000000100000000
-19.999999999999989 17.999999999999982 -10.000000000000011
0 0

0101101
*
Ed
 0.000000100000000 1 1 0
1  40 0 -0.000000000000000 9.999999999999998
2  27 8 0 -0.000000000000000 9.999999999999998
4 G1 15 3 8 0
0

0101000
+96 15 -28 15 *
Ed
 0.000000100000000 1 1 0
1  41 0 2.000000000000000 37.999999999999993
0

0101000
+28 20 -38 20 *
Wi

0101100
-95 14 +27 0 -37 0 +26 22 *
Fa
0  0.000000100000000 15 0

0101000
+25 21 *
Ve
0.000000100000000
19.999999999999996 17.999999999999982 -10.000000000000011
0 0

0101101
*
Ed
 0.000000100000000 1 1 0
1  42 0 -0.000000000000000 9.999999999999998
2  28 9 0 -0.000000000000000 9.999999999999998
4 G1 16 3 9 0
0

0101000
+94 15 -23 15 *
Ed
 0.000000100000000 1 1 0
1  43 0 1.999999999999999 37.999999999999993
0

0101000
+33 20 -23 20 *
Wi

0101100
-93 14 +32 0 -22 0 +21 22 *
Fa
0  0.000000100000000 16 0

0101000
+20 21 *
Ve
0.000000100000000
-17.999999999999989 19.999999999999982 -10.000000000000011
0 0

0101101
*
Ed
 0.000000100000000 1 1 0
1  44 0 -0.000000000000000 9.999999999999998
2  29 8 0 -0.000000000000000 9.999999999999998
4 G1 8 0 17 3
0

0101000
+92 15 -18 15 *
Ed
 0.000000100000000 1 1 0
1  45 0 0.000000000000000 1.570796326794897
2  30 8 0 0.000000000000000 1.570796326794897
0

0101000
+18 15 -28 15 *
Wi

0101100
+91 0 -17 0 +27 0 -16 0 *
Fa
0  0.000000100000000 8 0

0101000
+15 0 *
Ve
0.000000100000000
17.999999999999996 19.999999999999982 -10.000000000000011
0 0

0101101
*
Ed
 0.000000100000000 1 1 0
1  46 0 -0.000000000000000 9.999999999999998
2  31 9 0 -0.000000000000000 9.999999999999998
4 G1 9 0 17 3
0

0101000
+90 15 -13 15 *
Ed
 0.000000100000000 1 1 0
1  47 0 4.712388980384690 6.283185307179586
2  32 9 0 4.712388980384690 6.283185307179586
0

0101000
+23 15 -13 15 *
Wi

0101100
+89 0 -22 0 +12 0 -11 0 *
Fa
0  0.000000100000000 9 0

0101000
+10 0 *
Ed
 0.000000100000000 1 1 0
1  48 0 2.000000000000000 37.999999999999993
0

0101000
+13 20 -18 20 *
Wi

0101100
-88 14 +12 0 -17 0 +8 22 *
Fa
0  0.000000100000000 17 0

0101000
+7 21 *
Wi

0101100
-81 19 +76 0 -71 0 -66 19 -61 19 +56 0 +51 0 -48 19 *
Wi

0101100
+41 22 -36 0 +31 0 +26 22 +21 22 +16 0 +11 0 +8 22 *
Fa
0  0.000000100000000 18 0

0101000
+5 24 +4 25 *
Sh

0101100
+86 5 -79 16 -74 0 +69 0 -64 16 -59 16 -54 0 -49 0 -46 16 +39 16 
+34 4 -29 4 +24 16 +19 16 -14 4 -9 4 +6 16 -3 23 *
So

1100000
+2 0 *

+1 1 