
CASCADE Topology V1, (c) Matra-Datavision
Locations 10
1
1.000000000000000 0.000000000000000 0.000000000000000 0.000000000000000 
0.000000000000000 0.000000000000000 -1.000000000000000 0.000000000000000 
0.000000000000000 1.000000000000000 0.000000000000000 0.000000000000000 
1
1.000000000000000 0.000000000000000 0.000000000000000 0.000000000000000 
0.000000000000000 1.000000000000000 0.000000000000000 0.000000000000000 
0.000000000000000 0.000000000000000 1.000000000000000 0.000000000000000 
1
1.000000000000000 0.000000000000000 0.000000000000000 0.000000000000000 
0.000000000000000 0.000000000000000 -1.000000000000000 0.000000000000000 
0.000000000000000 1.000000000000000 0.000000000000000 0.000000000000000 
1
1.000000000000000 0.000000000000000 0.000000000000000 0.000000000000000 
0.000000000000000 -0.000000000000000 -1.000000000000000 0.000000000000000 
0.000000000000000 1.000000000000000 -0.000000000000000 0.000000000000000 
2  2 1 3 1 4 -1 0
1
1.000000000000000 0.000000000000000 0.000000000000000 0.000000000000000 
0.000000000000000 1.000000000000000 0.000000000000000 0.000000000000004 
0.000000000000000 0.000000000000000 1.000000000000000 10.000000000000000 
2  2 1 3 1 4 -1 6 1 0
2  4 -1 0
2  2 1 3 1 0
2  4 -1 6 1 0
Curve2ds 0
Curves 16
1 -19.99999999999999645 20.00000000000000000 -0.00000000000000888 0.00000000000000000 0.00000000000000044 1.00000000000000000 
1 20.00000000000000355 20.00000000000000000 -0.00000000000000888 0.00000000000000000 0.00000000000000044 1.00000000000000000 
1 -19.99999999999999645 20.00000000000000000 0.00000000000000000 1.00000000000000000 0.00000000000000000 0.00000000000000000 
1 20.00000000000000355 -20.00000000000000000 0.00000000000000888 0.00000000000000000 0.00000000000000044 1.00000000000000000 
1 20.00000000000000355 20.00000000000000000 0.00000000000000000 0.00000000000000000 -1.00000000000000000 0.00000000000000000 
1 -19.99999999999999645 -20.00000000000000000 0.00000000000000888 0.00000000000000000 0.00000000000000044 1.00000000000000000 
1 20.00000000000000355 -20.00000000000000000 0.00000000000000000 -1.00000000000000000 0.00000000000000000 0.00000000000000000 
1 -19.99999999999999645 -20.00000000000000000 0.00000000000000000 0.00000000000000000 1.00000000000000000 0.00000000000000000 
1 -18.41250000000000142 -18.41250000000000497 0.00000000000000818 0.00000000000000000 0.00000000000000044 1.00000000000000000 
1 -18.41250000000000142 18.41250000000000142 -0.00000000000000818 0.00000000000000000 0.00000000000000044 1.00000000000000000 
1 -18.41250000000000142 -18.41250000000000497 0.00000000000000000 0.00000000000000000 1.00000000000000000 0.00000000000000000 
1 18.41250000000000142 -18.41250000000000142 0.00000000000000818 0.00000000000000000 0.00000000000000044 1.00000000000000000 
1 18.41250000000000142 -18.41250000000000142 0.00000000000000000 -1.00000000000000000 -0.00000000000000010 0.00000000000000000 
1 18.41250000000000142 18.41250000000000142 -0.00000000000000818 0.00000000000000000 0.00000000000000044 1.00000000000000000 
1 18.41250000000000142 18.41250000000000142 0.00000000000000000 0.00000000000000000 -1.00000000000000000 0.00000000000000000 
1 -18.41250000000000142 18.41250000000000142 0.00000000000000000 1.00000000000000000 0.00000000000000000 0.00000000000000000 
Polygon3D 0
PolygonOnTriangulations 0
Surfaces 9
1 -19.99999999999999645 20.00000000000000000 -0.00000000000000888 0.00000000000000000 1.00000000000000000 -0.00000000000000044 1.00000000000000000 0.00000000000000000 0.00000000000000000 0.00000000000000000 -0.00000000000000044 -1.00000000000000000 
1 20.00000000000000355 20.00000000000000000 -0.00000000000000888 1.00000000000000000 0.00000000000000000 -0.00000000000000000 0.00000000000000000 -1.00000000000000000 0.00000000000000044 0.00000000000000000 -0.00000000000000044 -1.00000000000000000 
1 20.00000000000000355 -20.00000000000000000 0.00000000000000888 0.00000000000000000 -1.00000000000000000 0.00000000000000044 -1.00000000000000000 0.00000000000000000 0.00000000000000000 -0.00000000000000000 -0.00000000000000044 -1.00000000000000000 
1 -19.99999999999999645 -20.00000000000000000 0.00000000000000888 -1.00000000000000000 0.00000000000000000 0.00000000000000000 0.00000000000000000 1.00000000000000000 -0.00000000000000044 -0.00000000000000000 -0.00000000000000044 -1.00000000000000000 
1 -18.41250000000000142 -18.41250000000000497 0.00000000000000818 -1.00000000000000000 0.00000000000000000 0.00000000000000000 0.00000000000000000 1.00000000000000000 -0.00000000000000044 -0.00000000000000000 -0.00000000000000044 -1.00000000000000000 
1 18.41250000000000142 -18.41250000000000142 0.00000000000000818 0.00000000000000010 -1.00000000000000000 0.00000000000000044 -1.00000000000000000 -0.00000000000000010 0.00000000000000000 0.00000000000000000 -0.00000000000000044 -1.00000000000000000 
1 18.41250000000000142 18.41250000000000142 -0.00000000000000818 1.00000000000000000 0.00000000000000000 -0.00000000000000000 0.00000000000000000 -1.00000000000000000 0.00000000000000044 0.00000000000000000 -0.00000000000000044 -1.00000000000000000 
1 -18.41250000000000142 18.41250000000000142 -0.00000000000000818 0.00000000000000000 1.00000000000000000 -0.00000000000000044 1.00000000000000000 0.00000000000000000 0.00000000000000000 0.00000000000000000 -0.00000000000000044 -1.00000000000000000 
1 0.00000000000000213 0.00000000000000000 0.00000000000000000 0.00000000000000000 1.00000000000000000 -0.00000000000000022 0.00000000000000000 0.00000000000000022 1.00000000000000000 1.00000000000000000 -0.00000000000000000 0.00000000000000000 
Triangulations 0

TShapes 45
Ve
0.000000100000000
-19.999999999999996 20.000000000000000 0.000000000000000
0 0

0101101
*
Ed
 0.000000100000000 1 1 0
1  1 0 0.000000000000000 10.000000000000000
0

0101000
+45 5 -45 7 *
Ve
0.000000100000000
20.000000000000004 20.000000000000000 0.000000000000000
0 0

0101101
*
Ed
 0.000000100000000 1 1 0
1  2 0 0.000000000000000 10.000000000000000
0

0101000
+43 5 -43 7 *
Ed
 0.000000100000000 1 1 0
1  3 0 0.000000000000000 40.000000000000000
0

0101000
+45 0 -43 0 *
Wi

0101100
+44 0 -42 0 -41 5 +41 7 *
Fa
0  0.000000100000000 1 0

0111000
+40 0 *
Ve
0.000000100000000
20.000000000000004 -20.000000000000000 0.000000000000000
0 0

0101101
*
Ed
 0.000000100000000 1 1 0
1  4 0 0.000000000000000 10.000000000000000
0

0101000
+38 5 -38 7 *
Ed
 0.000000100000000 1 1 0
1  5 0 0.000000000000000 40.000000000000000
0

0101000
+43 0 -38 0 *
Wi

0101100
+42 0 -37 0 -36 5 +36 7 *
Fa
0  0.000000100000000 2 0

0111000
+35 0 *
Ve
0.000000100000000
-19.999999999999996 -20.000000000000000 0.000000000000000
0 0

0101101
*
Ed
 0.000000100000000 1 1 0
1  6 0 0.000000000000000 10.000000000000000
0

0101000
+33 5 -33 7 *
Ed
 0.000000100000000 1 1 0
1  7 0 0.000000000000000 40.000000000000000
0

0101000
+38 0 -33 0 *
Wi

0101100
+37 0 -32 0 -31 5 +31 7 *
Fa
0  0.000000100000000 3 0

0111000
+30 0 *
Ed
 0.000000100000000 1 1 0
1  8 0 0.000000000000000 40.000000000000000
0

0101000
+33 0 -45 0 *
Wi

0101100
+32 0 -44 0 -28 5 +28 7 *
Fa
0  0.000000100000000 4 0

0111000
+27 0 *
Ve
0.000000100000000
-18.412500000000001 -18.412500000000005 0.000000000000000
0 0

0101101
*
Ed
 0.000000100000000 1 1 0
1  9 0 0.000000000000000 10.000000000000000
0

0101000
+25 5 -25 7 *
Ve
0.000000100000002
-18.412500000000001 18.412500000000001 0.000000000000000
0 0

0101101
*
Ed
 0.000000100000002 1 1 0
1  10 0 0.000000000000000 10.000000000000000
0

0101000
+23 5 -23 7 *
Ed
 0.000000100000000 1 1 0
1  11 0 0.000000000000000 36.825000000000003
0

0101000
+25 0 -23 0 *
Wi

0101100
+24 0 -22 0 -21 5 +21 7 *
Fa
0  0.000000100000000 5 0

0111000
+20 0 *
Ve
0.000000100000000
18.412500000000001 -18.412500000000001 0.000000000000000
0 0

0101101
*
Ed
 0.000000100000000 1 1 0
1  12 0 0.000000000000000 10.000000000000000
0

0101000
+18 5 -18 7 *
Ed
 0.000000100000000 1 1 0
1  13 0 0.000000000000000 36.825000000000003
0

0101000
+18 0 -25 0 *
Wi

0101100
+17 0 -24 0 -16 5 +16 7 *
Fa
0  0.000000100000000 6 0

0111000
+15 0 *
Ve
0.000000100000000
18.412500000000001 18.412500000000001 0.000000000000000
0 0

0101101
*
Ed
 0.000000100000000 1 1 0
1  14 0 0.000000000000000 10.000000000000000
0

0101000
+13 5 -13 7 *
Ed
 0.000000100000000 1 1 0
1  15 0 0.000000000000000 36.825000000000003
0

0101000
+13 0 -18 0 *
Wi

0101100
+12 0 -17 0 -11 5 +11 7 *
Fa
0  0.000000100000000 7 0

0111000
+10 0 *
Ed
 0.000000100000000 1 1 0
1  16 0 0.000000000000000 36.825000000000003
0

0101000
+23 0 -13 0 *
Wi

0101100
+22 0 -12 0 -8 5 +8 7 *
Fa
0  0.000000100000000 8 0

0111000
+7 0 *
Wi

0101100
+41 9 +36 9 +31 9 +28 9 *
Wi

0101100
-21 9 -16 9 -11 9 -8 9 *
Fa
0  0.000000100000000 9 0

0111000
+5 0 +4 0 *
Sh

0101100
+39 0 +34 0 +29 0 +26 0 -19 0 -14 0 -9 0 -6 0 +3 8 -3 10 
*
So

1100000
+2 0 *

+1 1 