
CASCADE Topology V1, (c) Matra-Datavision
Locations 13
1
1.000000000000000 0.000000000000000 0.000000000000000 0.000000000000000 
0.000000000000000 1.000000000000000 0.000000000000000 0.000000000000000 
0.000000000000000 0.000000000000000 1.000000000000000 0.000000000000000 
1
1.000000000000000 0.000000000000000 0.000000000000000 0.000000000000000 
0.000000000000000 1.000000000000000 0.000000000000000 0.000000000000000 
0.000000000000000 0.000000000000000 1.000000000000000 0.000000000000000 
1
1.000000000000000 0.000000000000000 0.000000000000000 0.000000000000000 
0.000000000000000 1.000000000000000 0.000000000000000 0.000000000000000 
0.000000000000000 0.000000000000000 1.000000000000000 0.000000000000000 
1
1.000000000000000 0.000000000000000 0.000000000000000 0.000000000000000 
0.000000000000000 1.000000000000000 0.000000000000000 0.000000000000000 
0.000000000000000 0.000000000000000 1.000000000000000 0.000000000000000 
1
1.000000000000000 0.000000000000000 0.000000000000000 -0.000000000000000 
0.000000000000000 1.000000000000000 0.000000000000000 -0.000000000000000 
0.000000000000000 0.000000000000000 1.000000000000000 -12.699999999999999 
2  2 1 3 1 4 -1 5 1 0
1
1.000000000000000 0.000000000000000 0.000000000000000 0.000000000000000 
0.000000000000000 1.000000000000000 0.000000000000000 0.000000000000000 
0.000000000000000 0.000000000000000 1.000000000000000 25.399999999999999 
2  2 1 3 1 4 -1 5 1 7 1 0
2  5 -1 4 1 3 -1 2 -1 0
2  7 -1 5 -1 4 1 3 -1 2 -1 0
2  4 -1 5 1 0
2  2 1 3 1 0
2  4 -1 5 1 7 1 0
Curve2ds 4
1 0.00000000000000000 0.00000000000000000 0.00000000000000000 -1.00000000000000000 
1 6.28318530717958623 0.00000000000000000 0.00000000000000000 -1.00000000000000000 
1 0.00000000000000000 0.00000000000000000 1.00000000000000000 0.00000000000000000 
1 0.00000000000000000 -25.39999999999999858 1.00000000000000000 0.00000000000000000 
Curves 14
1 7.25151938100748694 0.00000000000000000 -12.69999999999999929 0.00000000000000000 0.00000000000000000 1.00000000000000000 
1 3.62575969051976665 6.28000000000113179 -12.69999999999999929 0.00000000000000000 0.00000000000000000 1.00000000000000000 
1 7.25151938100748694 0.00000000000000000 0.00000000000000000 -0.49999999999754025 0.86602540378585890 0.00000000000000000 
1 -3.62575969053064950 6.28000000006292147 -12.69999999999999929 0.00000000000000000 0.00000000000000000 1.00000000000000000 
1 3.62575969051976665 6.28000000000113179 0.00000000000000000 -1.00000000000000000 0.00000000000852093 0.00000000000000000 
1 -7.25151938101026339 -0.00000000000696865 -12.69999999999999929 0.00000000000000000 0.00000000000000000 1.00000000000000000 
1 -3.62575969053064950 6.28000000006292147 0.00000000000000000 -0.49999999999259598 -0.86602540378871329 0.00000000000000000 
1 -3.62575969051973823 -6.28000000000114866 -12.69999999999999929 0.00000000000000000 0.00000000000000000 1.00000000000000000 
1 -7.25151938101026339 -0.00000000000696865 0.00000000000000000 0.49999999999824540 -0.86602540378545156 0.00000000000000000 
1 3.62575969055528224 -6.28000000001734460 -12.69999999999999929 0.00000000000000000 0.00000000000000000 1.00000000000000000 
1 -3.62575969051973823 -6.28000000000114866 0.00000000000000000 1.00000000000000000 -0.00000000000223345 0.00000000000000000 
1 3.62575969055528224 -6.28000000001734460 0.00000000000000000 0.49999999999289879 0.86602540378853843 0.00000000000000000 
1 3.20500000000000007 0.00000000000000000 -12.69999999999999929 0.00000000000000000 0.00000000000000000 1.00000000000000000 
2 0.00000000000000000 0.00000000000000000 0.00000000000000000 0.00000000000000000 0.00000000000000000 1.00000000000000000 1.00000000000000000 0.00000000000000000 -0.00000000000000000 -0.00000000000000000 1.00000000000000000 0.00000000000000000 3.20500000000000007
Polygon3D 0
PolygonOnTriangulations 0
Surfaces 8
1 7.25151938100748694 0.00000000000000000 -12.69999999999999929 -0.86602540378585890 -0.49999999999754025 0.00000000000000000 -0.49999999999754025 0.86602540378585890 0.00000000000000000 -0.00000000000000000 0.00000000000000000 -1.00000000000000000 
1 3.62575969051976665 6.28000000000113179 -12.69999999999999929 -0.00000000000852093 -1.00000000000000000 0.00000000000000000 -1.00000000000000000 0.00000000000852093 0.00000000000000000 -0.00000000000000000 0.00000000000000000 -1.00000000000000000 
1 -3.62575969053064950 6.28000000006292147 -12.69999999999999929 0.86602540378871340 -0.49999999999259603 0.00000000000000000 -0.49999999999259603 -0.86602540378871340 0.00000000000000000 0.00000000000000000 -0.00000000000000000 -1.00000000000000000 
1 -7.25151938101026339 -0.00000000000696865 -12.69999999999999929 0.86602540378545168 0.49999999999824546 -0.00000000000000000 0.49999999999824546 -0.86602540378545168 0.00000000000000000 0.00000000000000000 -0.00000000000000000 -1.00000000000000000 
1 -3.62575969051973823 -6.28000000000114866 -12.69999999999999929 0.00000000000223345 1.00000000000000000 -0.00000000000000000 1.00000000000000000 -0.00000000000223345 0.00000000000000000 0.00000000000000000 -0.00000000000000000 -1.00000000000000000 
1 3.62575969055528224 -6.28000000001734460 -12.69999999999999929 -0.86602540378853854 0.49999999999289885 0.00000000000000000 0.49999999999289885 0.86602540378853854 0.00000000000000000 0.00000000000000000 0.00000000000000000 -1.00000000000000000 
2 0.00000000000000000 0.00000000000000000 -12.69999999999999929 -0.00000000000000000 -0.00000000000000000 -1.00000000000000000 1.00000000000000000 0.00000000000000000 0.00000000000000000 0.00000000000000000 1.00000000000000000 0.00000000000000000 3.20500000000000007
1 -0.00000000000317669 0.00000000000748698 0.00000000000000000 0.00000000000000000 0.00000000000000000 1.00000000000000000 1.00000000000000000 0.00000000000000000 -0.00000000000000000 -0.00000000000000000 1.00000000000000000 0.00000000000000000 
Triangulations 0

TShapes 40
Ve
0.000000100000000
7.251519381007487 0.000000000000000 0.000000000000000
0 0

0101101
*
Ed
 0.000000100000000 1 1 0
1  1 0 0.000000000000000 25.399999999999999
0

0101000
+40 6 -40 8 *
Ve
0.000000100000000
3.625759690519767 6.280000000001132 0.000000000000000
0 0

0101101
*
Ed
 0.000000100000000 1 1 0
1  2 0 0.000000000000000 25.399999999999999
0

0101000
+38 6 -38 8 *
Ed
 0.000000100000000 1 1 0
1  3 0 0.000000000000000 7.251519381011114
0

0101000
+40 0 -38 0 *
Wi

0101100
+39 0 -37 0 -36 6 +36 8 *
Fa
0  0.000000100000000 1 0

0101000
+35 0 *
Ve
0.000000100000000
-3.625759690530650 6.280000000062921 0.000000000000000
0 0

0101101
*
Ed
 0.000000100000000 1 1 0
1  4 0 0.000000000000000 25.399999999999999
0

0101000
+33 6 -33 8 *
Ed
 0.000000100000000 1 1 0
1  5 0 0.000000000000000 7.251519381050416
0

0101000
+38 0 -33 0 *
Wi

0101100
+37 0 -32 0 -31 6 +31 8 *
Fa
0  0.000000100000000 2 0

0101000
+30 0 *
Ve
0.000000100000000
-7.251519381010263 -0.000000000006969 0.000000000000000
0 0

0101101
*
Ed
 0.000000100000000 1 1 0
1  6 0 0.000000000000000 25.399999999999999
0

0101000
+28 6 -28 8 *
Ed
 0.000000100000000 1 1 0
1  7 0 0.000000000000000 7.251519381066609
0

0101000
+33 0 -28 0 *
Wi

0101100
+32 0 -27 0 -26 6 +26 8 *
Fa
0  0.000000100000000 3 0

0101000
+25 0 *
Ve
0.000000100000000
-3.625759690519738 -6.280000000001149 0.000000000000000
0 0

0101101
*
Ed
 0.000000100000000 1 1 0
1  8 0 0.000000000000000 25.399999999999999
0

0101000
+23 6 -23 8 *
Ed
 0.000000100000000 1 1 0
1  9 0 0.000000000000000 7.251519381006498
0

0101000
+28 0 -23 0 *
Wi

0101100
+27 0 -22 0 -21 6 +21 8 *
Fa
0  0.000000100000000 4 0

0101000
+20 0 *
Ve
0.000000100000000
3.625759690555282 -6.280000000017345 0.000000000000000
0 0

0101101
*
Ed
 0.000000100000000 1 1 0
1  10 0 0.000000000000000 25.399999999999999
0

0101000
+18 6 -18 8 *
Ed
 0.000000100000000 1 1 0
1  11 0 0.000000000000000 7.251519381075020
0

0101000
+23 0 -18 0 *
Wi

0101100
+22 0 -17 0 -16 6 +16 8 *
Fa
0  0.000000100000000 5 0

0101000
+15 0 *
Ed
 0.000000100000000 1 1 0
1  12 0 0.000000000000000 7.251519381007398
0

0101000
+18 0 -40 0 *
Wi

0101100
+17 0 -39 0 -13 6 +13 8 *
Fa
0  0.000000100000000 6 0

0101000
+12 0 *
Ve
0.000000100000000
3.205000000000000 0.000000000000000 0.000000000000000
0 0

0101101
*
Ed
 0.000000100000000 1 1 0
1  13 0 0.000000000000000 25.399999999999999
3  1 2CN 7 0 0.000000000000000 25.399999999999999
0

0101000
+10 6 -10 8 *
Ed
 0.000000100000000 1 1 0
1  14 0 0.000000000000000 6.283185307179586
2  3 7 9 0.000000000000000 6.283185307179586
2  4 7 10 0.000000000000000 6.283185307179586
0

0101000
+10 0 -10 0 *
Wi

0101100
+9 0 -9 0 -8 6 +8 8 *
Fa
0  0.000000100000000 7 0

0101000
+7 0 *
Wi

0101100
+36 12 +31 12 +26 12 +21 12 +16 12 +13 12 *
Wi

0101100
-8 12 *
Fa
0  0.000000100000000 8 0

0111000
+5 0 +4 0 *
Sh

0101100
+34 0 +29 0 +24 0 +19 0 +14 0 +11 0 -6 0 +3 11 -3 13 *
So

1100000
-2 0 *

+1 1 