
CASCADE Topology V1, (c) Matra-Datavision
Locations 17
1
1.000000000000000 0.000000000000000 0.000000000000000 0.000000000000000 
0.000000000000000 1.000000000000000 0.000000000000000 0.000000000000000 
0.000000000000000 0.000000000000000 1.000000000000000 0.000000000000000 
1
1.000000000000000 0.000000000000000 0.000000000000000 0.000000000000000 
0.000000000000000 1.000000000000000 0.000000000000000 0.000000000000000 
0.000000000000000 0.000000000000000 1.000000000000000 0.000000000000000 
2  2 -1 0
1
1.000000000000000 0.000000000000000 0.000000000000000 0.000000000000000 
0.000000000000000 1.000000000000000 0.000000000000000 0.000000000000000 
0.000000000000000 0.000000000000000 1.000000000000000 0.000000000000000 
1
1.000000000000000 0.000000000000000 0.000000000000000 0.000000000000000 
0.000000000000000 1.000000000000000 0.000000000000000 0.000000000000000 
0.000000000000000 0.000000000000000 1.000000000000000 0.000000000000000 
1
1.000000000000000 0.000000000000000 0.000000000000000 0.000000000000000 
0.000000000000000 1.000000000000000 0.000000000000000 0.000000000000000 
0.000000000000000 0.000000000000000 1.000000000000000 0.000000000000000 
1
1.000000000000000 0.000000000000000 0.000000000000000 -0.000000000000000 
0.000000000000000 1.000000000000000 0.000000000000000 -0.000000000000000 
0.000000000000000 0.000000000000000 1.000000000000000 -12.699999999999999 
2  4 1 5 1 6 -1 7 1 0
2  2 -1 7 -1 6 1 5 -1 4 -1 0
1
1.000000000000000 0.000000000000000 0.000000000000000 0.000000000000000 
0.000000000000000 1.000000000000000 0.000000000000000 0.000000000000000 
0.000000000000000 0.000000000000000 1.000000000000000 25.399999999999999 
2  4 1 5 1 6 -1 7 1 10 1 0
2  2 -1 10 -1 7 -1 6 1 5 -1 4 -1 0
2  7 -1 6 1 5 -1 4 -1 0
2  10 -1 7 -1 6 1 5 -1 4 -1 0
2  6 -1 7 1 0
2  4 1 5 1 0
2  6 -1 7 1 10 1 0
Curve2ds 4
1 0.00000000000000000 0.00000000000000000 0.00000000000000000 -1.00000000000000000 
1 6.28318530717958623 0.00000000000000000 0.00000000000000000 -1.00000000000000000 
1 0.00000000000000000 0.00000000000000000 1.00000000000000000 0.00000000000000000 
1 0.00000000000000000 -25.39999999999999858 1.00000000000000000 0.00000000000000000 
Curves 21
1 7.25151938100748694 0.00000000000000000 -12.69999999999999929 0.00000000000000000 0.00000000000000000 1.00000000000000000 
1 3.62575969051976665 6.28000000000113179 -12.69999999999999929 0.00000000000000000 0.00000000000000000 1.00000000000000000 
1 7.25151938100748694 0.00000000000000000 0.00000000000000000 -0.49999999999754025 0.86602540378585890 0.00000000000000000 
1 7.25151938100748694 0.00000000000000000 0.00000000000000000 -0.49999999999754025 0.86602540378585890 0.00000000000000000 
1 -3.62575969053064950 6.28000000006292147 -12.69999999999999929 0.00000000000000000 0.00000000000000000 1.00000000000000000 
1 3.62575969051976665 6.28000000000113179 0.00000000000000000 -1.00000000000000000 0.00000000000852093 0.00000000000000000 
1 3.62575969051976665 6.28000000000113179 0.00000000000000000 -1.00000000000000000 0.00000000000852093 0.00000000000000000 
1 -7.25151938101026339 -0.00000000000696865 -12.69999999999999929 0.00000000000000000 0.00000000000000000 1.00000000000000000 
1 -3.62575969053064950 6.28000000006292147 0.00000000000000000 -0.49999999999259603 -0.86602540378871340 0.00000000000000000 
1 -3.62575969053064950 6.28000000006292147 0.00000000000000000 -0.49999999999259603 -0.86602540378871340 0.00000000000000000 
1 -3.62575969051973823 -6.28000000000114866 -12.69999999999999929 0.00000000000000000 0.00000000000000000 1.00000000000000000 
1 -7.25151938101026339 -0.00000000000696865 0.00000000000000000 0.49999999999824546 -0.86602540378545168 0.00000000000000000 
1 -7.25151938101026339 -0.00000000000696865 0.00000000000000000 0.49999999999824546 -0.86602540378545168 0.00000000000000000 
1 3.62575969055528224 -6.28000000001734460 -12.69999999999999929 0.00000000000000000 0.00000000000000000 1.00000000000000000 
1 -3.62575969051973823 -6.28000000000114866 0.00000000000000000 1.00000000000000000 -0.00000000000223345 0.00000000000000000 
1 -3.62575969051973823 -6.28000000000114866 0.00000000000000000 1.00000000000000000 -0.00000000000223345 0.00000000000000000 
1 3.62575969055528224 -6.28000000001734460 0.00000000000000000 0.49999999999289885 0.86602540378853854 0.00000000000000000 
1 3.62575969055528224 -6.28000000001734460 0.00000000000000000 0.49999999999289885 0.86602540378853854 0.00000000000000000 
1 3.20500000000000007 0.00000000000000000 -12.69999999999999929 0.00000000000000000 0.00000000000000000 1.00000000000000000 
2 0.00000000000000000 0.00000000000000000 0.00000000000000000 0.00000000000000000 0.00000000000000000 1.00000000000000000 1.00000000000000000 0.00000000000000000 0.00000000000000000 0.00000000000000000 1.00000000000000000 0.00000000000000000 3.20500000000000007
2 0.00000000000000000 0.00000000000000000 0.00000000000000000 0.00000000000000000 0.00000000000000000 1.00000000000000000 1.00000000000000000 0.00000000000000000 0.00000000000000000 0.00000000000000000 1.00000000000000000 0.00000000000000000 3.20500000000000007
Polygon3D 0
PolygonOnTriangulations 0
Surfaces 9
1 7.25151938100748694 0.00000000000000000 -12.69999999999999929 -0.86602540378585890 -0.49999999999754025 0.00000000000000000 -0.49999999999754025 0.86602540378585890 0.00000000000000000 0.00000000000000000 0.00000000000000000 -1.00000000000000000 
1 3.62575969051976665 6.28000000000113179 -12.69999999999999929 -0.00000000000852093 -1.00000000000000000 0.00000000000000000 -1.00000000000000000 0.00000000000852093 0.00000000000000000 0.00000000000000000 0.00000000000000000 -1.00000000000000000 
1 -3.62575969053064950 6.28000000006292147 -12.69999999999999929 0.86602540378871340 -0.49999999999259603 0.00000000000000000 -0.49999999999259603 -0.86602540378871340 0.00000000000000000 0.00000000000000000 0.00000000000000000 -1.00000000000000000 
1 -7.25151938101026339 -0.00000000000696865 -12.69999999999999929 0.86602540378545168 0.49999999999824546 0.00000000000000000 0.49999999999824546 -0.86602540378545168 0.00000000000000000 0.00000000000000000 0.00000000000000000 -1.00000000000000000 
1 -3.62575969051973823 -6.28000000000114866 -12.69999999999999929 0.00000000000223345 1.00000000000000000 0.00000000000000000 1.00000000000000000 -0.00000000000223345 0.00000000000000000 0.00000000000000000 0.00000000000000000 -1.00000000000000000 
1 3.62575969055528224 -6.28000000001734460 -12.69999999999999929 -0.86602540378853854 0.49999999999289885 0.00000000000000000 0.49999999999289885 0.86602540378853854 0.00000000000000000 0.00000000000000000 0.00000000000000000 -1.00000000000000000 
2 0.00000000000000000 0.00000000000000000 -12.69999999999999929 -0.00000000000000000 -0.00000000000000000 -1.00000000000000000 1.00000000000000000 0.00000000000000000 0.00000000000000000 0.00000000000000000 1.00000000000000000 0.00000000000000000 3.20500000000000007
1 -0.00000000000317669 0.00000000000748698 0.00000000000000000 0.00000000000000000 0.00000000000000000 1.00000000000000000 1.00000000000000000 0.00000000000000000 0.00000000000000000 0.00000000000000000 1.00000000000000000 0.00000000000000000 
1 -0.00000000000317669 0.00000000000748698 0.00000000000000000 0.00000000000000000 0.00000000000000000 1.00000000000000000 1.00000000000000000 0.00000000000000000 0.00000000000000000 0.00000000000000000 1.00000000000000000 0.00000000000000000 
Triangulations 0

TShapes 57
Ve
0.000000100000000
7.251519381007487 0.000000000000000 -12.699999999999999
0 0

0101101
*
Ve
0.000000100000000
7.251519381007487 0.000000000000000 12.699999999999999
0 0

0101101
*
Ed
 0.000000100000000 1 1 0
1  1 0 0.000000000000000 25.399999999999999
0

0101000
+57 3 -56 3 *
Ve
0.000000100000000
3.625759690519767 6.280000000001132 -12.699999999999999
0 0

0101101
*
Ve
0.000000100000000
3.625759690519767 6.280000000001132 12.699999999999999
0 0

0101101
*
Ed
 0.000000100000000 1 1 0
1  2 0 0.000000000000000 25.399999999999999
0

0101000
+54 3 -53 3 *
Ed
 0.000000100000000 1 1 0
1  3 0 0.000000000000000 7.251519381011114
0

0101000
+57 9 -54 9 *
Ed
 0.000000100000000 1 1 0
1  4 0 0.000000000000000 7.251519381011114
0

0101000
+56 12 -53 12 *
Wi

0101100
+55 0 -52 0 -51 8 +50 11 *
Fa
0  0.000000100000000 1 0

0111000
+49 0 *
Ve
0.000000100000000
-3.625759690530650 6.280000000062921 -12.699999999999999
0 0

0101101
*
Ve
0.000000100000000
-3.625759690530650 6.280000000062921 12.699999999999999
0 0

0101101
*
Ed
 0.000000100000000 1 1 0
1  5 0 0.000000000000000 25.399999999999999
0

0101000
+47 3 -46 3 *
Ed
 0.000000100000000 1 1 0
1  6 0 0.000000000000000 7.251519381050416
0

0101000
+54 9 -47 9 *
Ed
 0.000000100000000 1 1 0
1  7 0 0.000000000000000 7.251519381050416
0

0101000
+53 12 -46 12 *
Wi

0101100
+52 0 -45 0 -44 8 +43 11 *
Fa
0  0.000000100000000 2 0

0111000
+42 0 *
Ve
0.000000100000000
-7.251519381010263 -0.000000000006969 -12.699999999999999
0 0

0101101
*
Ve
0.000000100000000
-7.251519381010263 -0.000000000006969 12.699999999999999
0 0

0101101
*
Ed
 0.000000100000000 1 1 0
1  8 0 0.000000000000000 25.399999999999999
0

0101000
+40 3 -39 3 *
Ed
 0.000000100000000 1 1 0
1  9 0 0.000000000000000 7.251519381066609
0

0101000
+47 9 -40 9 *
Ed
 0.000000100000000 1 1 0
1  10 0 0.000000000000000 7.251519381066609
0

0101000
+46 12 -39 12 *
Wi

0101100
+45 0 -38 0 -37 8 +36 11 *
Fa
0  0.000000100000000 3 0

0111000
+35 0 *
Ve
0.000000100000000
-3.625759690519738 -6.280000000001149 -12.699999999999999
0 0

0101101
*
Ve
0.000000100000000
-3.625759690519738 -6.280000000001149 12.699999999999999
0 0

0101101
*
Ed
 0.000000100000000 1 1 0
1  11 0 0.000000000000000 25.399999999999999
0

0101000
+33 3 -32 3 *
Ed
 0.000000100000000 1 1 0
1  12 0 0.000000000000000 7.251519381006498
0

0101000
+40 9 -33 9 *
Ed
 0.000000100000000 1 1 0
1  13 0 0.000000000000000 7.251519381006498
0

0101000
+39 12 -32 12 *
Wi

0101100
+38 0 -31 0 -30 8 +29 11 *
Fa
0  0.000000100000000 4 0

0111000
+28 0 *
Ve
0.000000100000000
3.625759690555282 -6.280000000017345 -12.699999999999999
0 0

0101101
*
Ve
0.000000100000000
3.625759690555282 -6.280000000017345 12.699999999999999
0 0

0101101
*
Ed
 0.000000100000000 1 1 0
1  14 0 0.000000000000000 25.399999999999999
0

0101000
+26 3 -25 3 *
Ed
 0.000000100000000 1 1 0
1  15 0 0.000000000000000 7.251519381075020
0

0101000
+33 9 -26 9 *
Ed
 0.000000100000000 1 1 0
1  16 0 0.000000000000000 7.251519381075020
0

0101000
+32 12 -25 12 *
Wi

0101100
+31 0 -24 0 -23 8 +22 11 *
Fa
0  0.000000100000000 5 0

0111000
+21 0 *
Ed
 0.000000100000000 1 1 0
1  17 0 0.000000000000000 7.251519381007398
0

0101000
+26 9 -57 9 *
Ed
 0.000000100000000 1 1 0
1  18 0 0.000000000000000 7.251519381007398
0

0101000
+25 12 -56 12 *
Wi

0101100
+24 0 -55 0 -19 8 +18 11 *
Fa
0  0.000000100000000 6 0

0111000
+17 0 *
Ve
0.000000100000000
3.205000000000000 0.000000000000000 -12.699999999999999
0 0

0101101
*
Ve
0.000000100000000
3.205000000000000 0.000000000000000 12.699999999999999
0 0

0101101
*
Ed
 0.000000100000000 1 1 0
1  19 0 0.000000000000000 25.399999999999999
3  1 2CN 7 0 0.000000000000000 25.399999999999999
0

0101000
+15 3 -14 3 *
Ed
 0.000000100000000 1 1 0
1  20 0 0.000000000000000 6.283185307179586
2  3 7 13 0.000000000000000 6.283185307179586
0

0101000
+15 9 -15 9 *
Ed
 0.000000100000000 1 1 0
1  21 0 0.000000000000000 6.283185307179586
2  4 7 14 0.000000000000000 6.283185307179586
0

0101000
+14 12 -14 12 *
Wi

0101100
+13 0 -13 0 -12 8 +11 11 *
Fa
0  0.000000100000000 7 0

0111000
+10 0 *
Wi

0101100
+51 16 +44 16 +37 16 +30 16 +23 16 +19 16 *
Wi

0101100
-12 16 *
Fa
0  0.000000100000000 8 0

0111000
+8 0 +7 0 *
Wi

0101100
+50 16 +43 16 +36 16 +29 16 +22 16 +18 16 *
Wi

0101100
-11 16 *
Fa
0  0.000000100000000 9 0

0111000
+5 0 +4 0 *
Sh

0101100
+48 0 +41 0 +34 0 +27 0 +20 0 +16 0 -9 0 +6 15 -3 17 *
So

1100000
-2 0 *

+1 1 