
CASCADE Topology V1, (c) Matra-Datavision
Locations 11
1
1.000000000000000 0.000000000000000 0.000000000000000 0.000000000000000 
0.000000000000000 1.000000000000000 0.000000000000000 0.000000000000000 
0.000000000000000 0.000000000000000 1.000000000000000 0.000000000000000 
1
1.000000000000000 0.000000000000000 0.000000000000000 0.000000000000000 
0.000000000000000 1.000000000000000 0.000000000000000 0.000000000000000 
0.000000000000000 0.000000000000000 1.000000000000000 0.000000000000000 
1
1.000000000000000 0.000000000000000 0.000000000000000 0.000000000000000 
0.000000000000000 1.000000000000000 0.000000000000000 0.000000000000000 
0.000000000000000 0.000000000000000 1.000000000000000 0.000000000000000 
1
1.000000000000000 0.000000000000000 0.000000000000000 0.000000000000000 
0.000000000000000 1.000000000000000 0.000000000000000 0.000000000000000 
0.000000000000000 0.000000000000000 1.000000000000000 0.000000000000000 
1
1.000000000000000 0.000000000000000 0.000000000000000 -0.000000000000000 
0.000000000000000 1.000000000000000 0.000000000000000 -0.000000000000000 
0.000000000000000 0.000000000000000 1.000000000000000 -550.000000000000000 
2  2 1 3 1 4 -1 5 1 0
1
1.000000000000000 0.000000000000000 0.000000000000000 0.000000000000000 
0.000000000000000 1.000000000000000 0.000000000000000 0.000000000000000 
0.000000000000000 0.000000000000000 1.000000000000000 1100.000000000000000 
2  2 1 3 1 4 -1 5 1 7 1 0
2  4 -1 5 1 0
2  2 1 3 1 0
2  4 -1 5 1 7 1 0
Curve2ds 0
Curves 8
1 -622.70000000000004547 613.70000000000004547 -550.00000000000000000 0.00000000000000000 0.00000000000000000 1.00000000000000000 
1 622.70000000000004547 613.70000000000004547 -550.00000000000000000 0.00000000000000000 0.00000000000000000 1.00000000000000000 
1 -622.70000000000004547 613.70000000000004547 0.00000000000000000 1.00000000000000000 0.00000000000000000 0.00000000000000000 
1 622.70000000000004547 -613.70000000000004547 -550.00000000000000000 0.00000000000000000 0.00000000000000000 1.00000000000000000 
1 622.70000000000004547 613.70000000000004547 0.00000000000000000 0.00000000000000000 -1.00000000000000000 0.00000000000000000 
1 -622.70000000000004547 -613.70000000000004547 -550.00000000000000000 0.00000000000000000 0.00000000000000000 1.00000000000000000 
1 622.70000000000004547 -613.70000000000004547 0.00000000000000000 -1.00000000000000000 0.00000000000000000 0.00000000000000000 
1 -622.70000000000004547 -613.70000000000004547 0.00000000000000000 0.00000000000000000 1.00000000000000000 0.00000000000000000 
Polygon3D 0
PolygonOnTriangulations 0
Surfaces 5
1 -622.70000000000004547 613.70000000000004547 -550.00000000000000000 0.00000000000000000 1.00000000000000000 0.00000000000000000 1.00000000000000000 0.00000000000000000 0.00000000000000000 0.00000000000000000 0.00000000000000000 -1.00000000000000000 
1 622.70000000000004547 613.70000000000004547 -550.00000000000000000 1.00000000000000000 0.00000000000000000 -0.00000000000000000 0.00000000000000000 -1.00000000000000000 0.00000000000000000 0.00000000000000000 -0.00000000000000000 -1.00000000000000000 
1 622.70000000000004547 -613.70000000000004547 -550.00000000000000000 0.00000000000000000 -1.00000000000000000 0.00000000000000000 -1.00000000000000000 0.00000000000000000 0.00000000000000000 -0.00000000000000000 -0.00000000000000000 -1.00000000000000000 
1 -622.70000000000004547 -613.70000000000004547 -550.00000000000000000 -1.00000000000000000 0.00000000000000000 0.00000000000000000 0.00000000000000000 1.00000000000000000 0.00000000000000000 0.00000000000000000 0.00000000000000000 -1.00000000000000000 
1 -0.00000000000002354 0.00000000000000000 0.00000000000000000 -0.00000000000000000 -0.00000000000000000 -1.00000000000000000 -1.00000000000000000 0.00000000000000000 0.00000000000000000 0.00000000000000000 1.00000000000000000 -0.00000000000000000 
Triangulations 0

TShapes 24
Ve
0.000000100000000
-622.700000000000045 613.700000000000045 0.000000000000000
0 0

0101101
*
Ed
 0.000000100000000 1 1 0
1  1 0 0.000000000000000 1100.000000000000000
0

0101000
+24 6 -24 8 *
Ve
0.000000100000000
622.700000000000045 613.700000000000045 0.000000000000000
0 0

0101101
*
Ed
 0.000000100000000 1 1 0
1  2 0 0.000000000000000 1100.000000000000000
0

0101000
+22 6 -22 8 *
Ed
 0.000000100000000 1 1 0
1  3 0 0.000000000000000 1245.400000000000091
0

0101000
+24 0 -22 0 *
Wi

0101100
+23 0 -21 0 -20 6 +20 8 *
Fa
0  0.000000100000000 1 0

0101000
+19 0 *
Ve
0.000000100000000
622.700000000000045 -613.700000000000045 0.000000000000000
0 0

0101101
*
Ed
 0.000000100000000 1 1 0
1  4 0 0.000000000000000 1100.000000000000000
0

0101000
+17 6 -17 8 *
Ed
 0.000000100000000 1 1 0
1  5 0 0.000000000000000 1227.400000000000091
0

0101000
+22 0 -17 0 *
Wi

0101100
+21 0 -16 0 -15 6 +15 8 *
Fa
0  0.000000100000000 2 0

0101000
+14 0 *
Ve
0.000000100000000
-622.700000000000045 -613.700000000000045 0.000000000000000
0 0

0101101
*
Ed
 0.000000100000000 1 1 0
1  6 0 0.000000000000000 1100.000000000000000
0

0101000
+12 6 -12 8 *
Ed
 0.000000100000000 1 1 0
1  7 0 0.000000000000000 1245.400000000000091
0

0101000
+17 0 -12 0 *
Wi

0101100
+16 0 -11 0 -10 6 +10 8 *
Fa
0  0.000000100000000 3 0

0101000
+9 0 *
Ed
 0.000000100000000 1 1 0
1  8 0 0.000000000000000 1227.400000000000091
0

0101000
+12 0 -24 0 *
Wi

0101100
+11 0 -23 0 -7 6 +7 8 *
Fa
0  0.000000100000000 4 0

0101000
+6 0 *
Wi

0101100
+20 0 +15 0 +10 0 +7 0 *
Fa
0  0.000000100000000 5 0

0101000
+4 10 *
Sh

0101100
+18 0 +13 0 +8 0 +5 0 +3 9 -3 11 *
So

1100000
+2 0 *

+1 1 