
CASCADE Topology V1, (c) Matra-Datavision
Locations 69
1
1.000000000000000 0.000000000000000 0.000000000000000 0.000000000000000 
0.000000000000000 1.000000000000000 0.000000000000000 0.000000000000000 
0.000000000000000 0.000000000000000 1.000000000000000 0.000000000000000 
1
1.000000000000000 0.000000000000000 0.000000000000000 0.000000000000000 
0.000000000000000 1.000000000000000 0.000000000000000 0.000000000000000 
0.000000000000000 0.000000000000000 1.000000000000000 0.000000000000000 
1
1.000000000000000 0.000000000000000 0.000000000000000 0.000000000000000 
0.000000000000000 1.000000000000000 0.000000000000000 0.000000000000000 
0.000000000000000 0.000000000000000 1.000000000000000 0.000000000000000 
1
1.000000000000000 0.000000000000000 0.000000000000000 0.000000000000000 
0.000000000000000 1.000000000000000 0.000000000000000 0.000000000000000 
0.000000000000000 0.000000000000000 1.000000000000000 0.000000000000000 
1
1.000000000000000 0.000000000000000 0.000000000000000 0.000000000000000 
0.000000000000000 1.000000000000000 0.000000000000000 0.000000000000000 
0.000000000000000 0.000000000000000 1.000000000000000 0.000000000000000 
2  2 1 3 -1 4 1 5 -1 0
1
1.000000000000000 0.000000000000000 0.000000000000000 0.000000000000000 
0.000000000000000 1.000000000000000 0.000000000000000 0.000000000000000 
0.000000000000000 0.000000000000000 1.000000000000000 0.000000000000000 
2  7 -1 5 1 4 -1 3 1 2 -1 0
1
1.000000000000000 0.000000000000000 0.000000000000000 0.000000000000000 
0.000000000000000 1.000000000000000 0.000000000000000 0.000000000000000 
0.000000000000000 0.000000000000000 1.000000000000000 0.000000000000000 
1
1.000000000000000 0.000000000000000 0.000000000000000 0.000000000000000 
0.000000000000000 1.000000000000000 0.000000000000000 0.000000000000000 
0.000000000000000 0.000000000000000 1.000000000000000 0.000000000000000 
1
1.000000000000000 0.000000000000000 0.000000000000000 0.000000000000000 
0.000000000000000 1.000000000000000 0.000000000000000 0.000000000000000 
0.000000000000000 0.000000000000000 1.000000000000000 0.000000000000000 
1
1.000000000000000 0.000000000000000 0.000000000000000 0.000000000000000 
0.000000000000000 1.000000000000000 0.000000000000000 0.000000000000000 
0.000000000000000 0.000000000000000 1.000000000000000 0.000000000000000 
1
1.000000000000000 0.000000000000000 0.000000000000000 0.000000000000000 
0.000000000000000 1.000000000000000 0.000000000000000 0.000000000000000 
0.000000000000000 0.000000000000000 1.000000000000000 0.000000000000000 
1
1.000000000000000 0.000000000000000 0.000000000000000 0.000000000000000 
0.000000000000000 1.000000000000000 0.000000000000000 0.000000000000000 
0.000000000000000 0.000000000000000 1.000000000000000 0.000000000000000 
1
1.000000000000000 0.000000000000000 0.000000000000000 0.000000000000000 
0.000000000000000 1.000000000000000 0.000000000000000 0.000000000000000 
0.000000000000000 0.000000000000000 1.000000000000000 0.000000000000000 
1
1.000000000000000 0.000000000000000 0.000000000000000 0.000000000000000 
0.000000000000000 1.000000000000000 0.000000000000000 0.000000000000000 
0.000000000000000 0.000000000000000 1.000000000000000 0.000000000000000 
1
1.000000000000000 0.000000000000000 0.000000000000000 0.000000000000000 
0.000000000000000 1.000000000000000 0.000000000000000 0.000000000000000 
0.000000000000000 0.000000000000000 1.000000000000000 0.000000000000000 
1
1.000000000000000 0.000000000000000 0.000000000000000 0.000000000000000 
0.000000000000000 1.000000000000000 0.000000000000000 0.000000000000000 
0.000000000000000 0.000000000000000 1.000000000000000 0.000000000000000 
1
1.000000000000000 0.000000000000000 0.000000000000000 0.000000000000000 
0.000000000000000 1.000000000000000 0.000000000000000 0.000000000000000 
0.000000000000000 0.000000000000000 1.000000000000000 0.000000000000000 
1
1.000000000000000 0.000000000000000 0.000000000000000 0.000000000000000 
0.000000000000000 1.000000000000000 0.000000000000000 0.000000000000000 
0.000000000000000 0.000000000000000 1.000000000000000 0.000000000000000 
1
1.000000000000000 0.000000000000000 0.000000000000000 0.000000000000000 
0.000000000000000 1.000000000000000 0.000000000000000 0.000000000000000 
0.000000000000000 0.000000000000000 1.000000000000000 0.000000000000000 
1
1.000000000000000 0.000000000000000 0.000000000000000 0.000000000000000 
0.000000000000000 1.000000000000000 0.000000000000000 0.000000000000000 
0.000000000000000 0.000000000000000 1.000000000000000 0.000000000000000 
1
1.000000000000000 0.000000000000000 0.000000000000000 0.000000000000000 
0.000000000000000 1.000000000000000 0.000000000000000 0.000000000000000 
0.000000000000000 0.000000000000000 1.000000000000000 0.000000000000000 
1
1.000000000000000 0.000000000000000 0.000000000000000 0.000000000000000 
0.000000000000000 1.000000000000000 0.000000000000000 0.000000000000000 
0.000000000000000 0.000000000000000 1.000000000000000 0.000000000000000 
1
1.000000000000000 0.000000000000000 0.000000000000000 0.000000000000000 
0.000000000000000 1.000000000000000 0.000000000000000 0.000000000000000 
0.000000000000000 0.000000000000000 1.000000000000000 0.000000000000000 
2  9 1 10 1 11 -1 12 1 13 -1 14 1 15 -1 16 1 17 1 18 1 19 1 20 1 21 1 22 1 23 1 24 1 25 -1 0
2  7 -1 5 1 4 -1 3 1 2 -1 25 1 24 -1 23 -1 22 -1 21 -1 20 -1 19 -1 18 -1 17 -1 16 -1 15 1 14 -1 13 1 12 -1 11 1 10 -1 9 -1 0
1
1.000000000000000 0.000000000000000 0.000000000000000 -0.000000000000000 
0.000000000000000 1.000000000000000 0.000000000000000 -0.000000000000000 
0.000000000000000 0.000000000000000 1.000000000000000 10.000000000000000 
2  9 1 10 1 11 -1 12 1 13 -1 14 1 15 -1 16 1 17 1 18 1 19 1 20 1 21 1 22 1 23 1 24 1 25 -1 28 1 0
2  7 -1 5 1 4 -1 3 1 2 -1 28 -1 25 1 24 -1 23 -1 22 -1 21 -1 20 -1 19 -1 18 -1 17 -1 16 -1 15 1 14 -1 13 1 12 -1 11 1 10 -1 9 -1 0
2  17 1 18 1 19 1 20 1 21 1 22 1 23 1 24 1 25 -1 0
2  7 -1 5 1 4 -1 3 1 2 -1 25 1 24 -1 23 -1 22 -1 21 -1 20 -1 19 -1 18 -1 17 -1 0
2  17 1 18 1 19 1 20 1 21 1 22 1 23 1 24 1 25 -1 28 1 0
2  7 -1 5 1 4 -1 3 1 2 -1 28 -1 25 1 24 -1 23 -1 22 -1 21 -1 20 -1 19 -1 18 -1 17 -1 0
2  11 -1 12 1 13 -1 14 1 15 -1 16 1 17 1 18 1 19 1 20 1 21 1 22 1 23 1 24 1 25 -1 2 1 3 -1 4 1 5 -1 0
2  9 1 10 1 11 -1 12 1 13 -1 14 1 15 -1 16 1 17 1 18 1 19 1 20 1 21 1 22 1 23 1 24 1 25 -1 2 1 3 -1 4 1 5 -1 0
2  17 1 18 1 19 1 20 1 21 1 22 1 23 1 24 1 25 -1 2 1 3 -1 4 1 5 -1 0
1
1.000000000000000 0.000000000000000 0.000000000000000 0.000000000000000 
0.000000000000000 1.000000000000000 0.000000000000000 0.000000000000000 
0.000000000000000 0.000000000000000 1.000000000000000 0.000000000000000 
1
1.000000000000000 0.000000000000000 0.000000000000000 0.000000000000000 
0.000000000000000 0.000000000000000 -1.000000000000000 -21.000000000000000 
0.000000000000000 1.000000000000000 0.000000000000000 0.000000000000000 
2  38 1 39 1 5 -1 0
2  7 -1 5 1 39 -1 38 -1 0
1
1.000000000000000 0.000000000000000 0.000000000000000 15.500000000000000 
0.000000000000000 1.000000000000000 0.000000000000000 -15.500000000000000 
0.000000000000000 0.000000000000000 1.000000000000000 0.000000000000000 
2  42 1 4 1 5 -1 0
2  7 -1 5 1 4 -1 42 -1 0
1
1.000000000000000 0.000000000000000 0.000000000000000 -15.500000000000000 
0.000000000000000 1.000000000000000 0.000000000000000 -15.500000000000000 
0.000000000000000 0.000000000000000 1.000000000000000 0.000000000000000 
2  45 1 4 1 5 -1 0
2  7 -1 5 1 4 -1 45 -1 0
1
1.000000000000000 0.000000000000000 0.000000000000000 15.500000000000000 
0.000000000000000 1.000000000000000 0.000000000000000 15.500000000000000 
0.000000000000000 0.000000000000000 1.000000000000000 0.000000000000000 
2  48 1 4 1 5 -1 0
2  7 -1 5 1 4 -1 48 -1 0
1
1.000000000000000 0.000000000000000 0.000000000000000 -15.500000000000000 
0.000000000000000 1.000000000000000 0.000000000000000 15.500000000000000 
0.000000000000000 0.000000000000000 1.000000000000000 0.000000000000000 
2  51 1 4 1 5 -1 0
2  7 -1 5 1 4 -1 51 -1 0
2  11 -1 12 1 13 -1 14 1 15 -1 16 1 17 1 18 1 19 1 20 1 21 1 22 1 23 1 24 1 25 -1 28 1 2 1 3 -1 4 1 5 -1 0
2  9 1 10 1 11 -1 12 1 13 -1 14 1 15 -1 16 1 17 1 18 1 19 1 20 1 21 1 22 1 23 1 24 1 25 -1 28 1 2 1 3 -1 4 1 5 -1 0
2  17 1 18 1 19 1 20 1 21 1 22 1 23 1 24 1 25 -1 28 1 2 1 3 -1 4 1 5 -1 0
2  14 1 15 -1 16 1 17 1 18 1 19 1 20 1 21 1 22 1 23 1 24 1 25 -1 28 1 2 1 3 -1 4 1 5 -1 0
2  28 -1 25 1 24 -1 23 -1 22 -1 21 -1 20 -1 19 -1 18 -1 17 -1 16 -1 15 1 14 -1 0
2  7 -1 5 1 4 -1 3 1 2 -1 28 -1 25 1 24 -1 23 -1 22 -1 21 -1 20 -1 19 -1 18 -1 17 -1 16 -1 15 1 14 -1 0
2  7 -1 0
1
1.000000000000000 0.000000000000000 0.000000000000000 0.000000000000000 
0.000000000000000 1.000000000000000 0.000000000000000 -6.000000000000000 
0.000000000000000 0.000000000000000 1.000000000000000 0.000000000000001 
2  38 1 39 1 5 -1 61 1 0
2  7 -1 61 -1 5 1 39 -1 38 -1 0
2  4 1 5 -1 0
2  2 1 3 -1 0
2  7 -1 5 1 4 -1 0
2  14 1 15 -1 16 1 17 1 18 1 19 1 20 1 21 1 22 1 23 1 24 1 25 -1 28 1 2 1 3 -1 0
2  5 -1 61 1 0
2  38 1 39 1 0
Curve2ds 20
1 0.00000000000000000 0.00000000000000000 1.00000000000000000 0.00000000000000000 
1 0.00000000000000000 -10.00000000000000000 1.00000000000000000 0.00000000000000000 
1 0.00000000000000000 -10.00000000000000000 1.00000000000000000 0.00000000000000000 
1 0.00000000000000000 -10.00000000000000000 1.00000000000000000 0.00000000000000000 
1 0.00000000000000000 -10.00000000000000000 1.00000000000000000 0.00000000000000000 
1 0.00000000000000000 3.00000000000000000 1.00000000000000000 0.00000000000000000 
1 6.28318530717958623 0.00000000000000000 0.00000000000000000 1.00000000000000000 
1 0.00000000000000000 0.00000000000000000 0.00000000000000000 1.00000000000000000 
1 6.28318530717958623 -3.00000000000000000 -1.00000000000000000 0.00000000000000000 
1 0.00000000000000000 0.00000000000000000 0.00000000000000000 -1.00000000000000000 
1 6.28318530717958623 0.00000000000000000 0.00000000000000000 -1.00000000000000000 
1 6.28318530717958623 -3.00000000000000000 -1.00000000000000000 0.00000000000000000 
1 0.00000000000000000 0.00000000000000000 0.00000000000000000 -1.00000000000000000 
1 6.28318530717958623 0.00000000000000000 0.00000000000000000 -1.00000000000000000 
1 6.28318530717958623 -3.00000000000000000 -1.00000000000000000 0.00000000000000000 
1 0.00000000000000000 0.00000000000000000 0.00000000000000000 -1.00000000000000000 
1 6.28318530717958623 0.00000000000000000 0.00000000000000000 -1.00000000000000000 
1 6.28318530717958623 -3.00000000000000000 -1.00000000000000000 0.00000000000000000 
1 0.00000000000000000 0.00000000000000000 0.00000000000000000 -1.00000000000000000 
1 6.28318530717958623 0.00000000000000000 0.00000000000000000 -1.00000000000000000 
Curves 62
1 -17.00000000000000000 21.00000000000000000 0.00000000000000000 0.00000000000000000 0.00000000000000000 1.00000000000000000 
1 17.00000000000000000 21.00000000000000000 0.00000000000000000 0.00000000000000000 0.00000000000000000 1.00000000000000000 
1 -21.00000000000000000 21.00000000000000000 0.00000000000000000 1.00000000000000000 0.00000000000000000 0.00000000000000000 
1 -21.00000000000000000 21.00000000000000000 0.00000000000000000 1.00000000000000000 0.00000000000000000 0.00000000000000000 
1 -21.00000000000000000 17.00000000000000000 0.00000000000000000 0.00000000000000000 0.00000000000000000 1.00000000000000000 
8 -2.82842712474619029 2.82842712474619029
1 -19.00000000000000000 19.00000000000000000 0.00000000000000000 -0.70710678118654757 -0.70710678118654757 0.00000000000000000 
8 -2.82842712474619029 2.82842712474619029
1 -19.00000000000000000 19.00000000000000000 0.00000000000000000 -0.70710678118654757 -0.70710678118654757 0.00000000000000000 
1 21.00000000000000000 17.00000000000000000 0.00000000000000000 0.00000000000000000 0.00000000000000000 1.00000000000000000 
8 -2.82842712474619029 2.82842712474619029
1 19.00000000000000000 19.00000000000000000 0.00000000000000000 0.70710678118654757 -0.70710678118654757 0.00000000000000000 
8 -2.82842712474619029 2.82842712474619029
1 19.00000000000000000 19.00000000000000000 0.00000000000000000 0.70710678118654757 -0.70710678118654757 0.00000000000000000 
1 -21.00000000000000000 -21.00000000000000000 0.00000000000000000 0.00000000000000000 1.00000000000000000 0.00000000000000000 
1 21.00000000000000000 21.00000000000000000 0.00000000000000000 0.00000000000000000 -1.00000000000000000 0.00000000000000000 
8 -2.82842712474619029 2.82842712474619029
1 -19.00000000000000000 -19.00000000000000000 0.00000000000000000 0.70710678118654757 -0.70710678118654757 0.00000000000000000 
8 -2.82842712474619029 2.82842712474619029
1 19.00000000000000000 -19.00000000000000000 0.00000000000000000 -0.70710678118654757 -0.70710678118654757 0.00000000000000000 
1 21.00000000000000000 -21.00000000000000000 0.00000000000000000 -1.00000000000000000 0.00000000000000000 0.00000000000000000 
1 8.00000000000000000 0.00000000000000000 0.00000000000000000 -1.00000000000000000 0.00000000000000000 0.00000000000000000 
1 21.00000000000000000 -21.00000000000000000 0.00000000000000000 -1.00000000000000000 0.00000000000000000 0.00000000000000000 
2 0.00000000000000000 0.00000000000000000 0.00000000000000000 0.00000000000000000 0.00000000000000000 -1.00000000000000000 -1.00000000000000000 0.00000000000000000 0.00000000000000000 0.00000000000000000 1.00000000000000000 0.00000000000000000 3.00000000000000000
2 0.00000000000000000 0.00000000000000000 0.00000000000000000 0.00000000000000000 0.00000000000000000 -1.00000000000000000 -1.00000000000000000 0.00000000000000000 0.00000000000000000 0.00000000000000000 1.00000000000000000 0.00000000000000000 3.00000000000000000
2 0.00000000000000000 0.00000000000000000 0.00000000000000000 0.00000000000000000 0.00000000000000000 -1.00000000000000000 -1.00000000000000000 0.00000000000000000 0.00000000000000000 0.00000000000000000 1.00000000000000000 0.00000000000000000 3.00000000000000000
2 0.00000000000000000 0.00000000000000000 0.00000000000000000 0.00000000000000000 0.00000000000000000 -1.00000000000000000 -1.00000000000000000 0.00000000000000000 0.00000000000000000 0.00000000000000000 1.00000000000000000 0.00000000000000000 3.00000000000000000
1 -21.00000000000000000 -21.00000000000000000 0.00000000000000000 0.00000000000000000 1.00000000000000000 0.00000000000000000 
1 21.00000000000000000 21.00000000000000000 0.00000000000000000 0.00000000000000000 -1.00000000000000000 0.00000000000000000 
8 -2.82842712474619029 2.82842712474619029
1 -19.00000000000000000 -19.00000000000000000 0.00000000000000000 0.70710678118654757 -0.70710678118654757 0.00000000000000000 
8 -2.82842712474619029 2.82842712474619029
1 19.00000000000000000 -19.00000000000000000 0.00000000000000000 -0.70710678118654757 -0.70710678118654757 0.00000000000000000 
1 21.00000000000000000 -21.00000000000000000 0.00000000000000000 -1.00000000000000000 0.00000000000000000 0.00000000000000000 
1 -8.00000000000000000 10.00000000000000000 0.00000000000000000 1.00000000000000000 0.00000000000000000 0.00000000000000000 
1 21.00000000000000000 -21.00000000000000000 0.00000000000000000 -1.00000000000000000 0.00000000000000000 0.00000000000000000 
2 15.50000000000000000 -15.50000000000000000 0.00000000000000000 0.00000000000000000 0.00000000000000000 1.00000000000000000 1.00000000000000000 0.00000000000000000 0.00000000000000000 0.00000000000000000 1.00000000000000000 0.00000000000000000 1.50000000000000000
2 -15.50000000000000000 -15.50000000000000000 0.00000000000000000 0.00000000000000000 0.00000000000000000 1.00000000000000000 1.00000000000000000 0.00000000000000000 0.00000000000000000 0.00000000000000000 1.00000000000000000 0.00000000000000000 1.50000000000000000
2 15.50000000000000000 15.50000000000000000 0.00000000000000000 0.00000000000000000 0.00000000000000000 1.00000000000000000 1.00000000000000000 0.00000000000000000 0.00000000000000000 0.00000000000000000 1.00000000000000000 0.00000000000000000 1.50000000000000000
2 -15.50000000000000000 15.50000000000000000 0.00000000000000000 0.00000000000000000 0.00000000000000000 1.00000000000000000 1.00000000000000000 0.00000000000000000 0.00000000000000000 0.00000000000000000 1.00000000000000000 0.00000000000000000 1.50000000000000000
1 -21.00000000000000000 -17.00000000000000000 0.00000000000000000 0.00000000000000000 0.00000000000000000 1.00000000000000000 
1 21.00000000000000000 -17.00000000000000000 0.00000000000000000 0.00000000000000000 0.00000000000000000 1.00000000000000000 
1 -17.00000000000000000 -21.00000000000000000 0.00000000000000000 0.00000000000000000 0.00000000000000000 1.00000000000000000 
1 17.00000000000000000 -21.00000000000000000 0.00000000000000000 0.00000000000000000 0.00000000000000000 1.00000000000000000 
1 8.00000000000000000 10.00000000000000000 0.00000000000000000 0.00000000000000000 -1.00000000000000000 0.00000000000000000 
1 8.00000000000000000 -21.00000000000000000 0.00000000000000000 0.00000000000000000 -1.00000000000000000 0.00000000000000022 
1 -8.00000000000000000 -21.00000000000000000 0.00000000000000000 0.00000000000000000 -1.00000000000000000 0.00000000000000022 
1 8.00000000000000000 0.00000000000000000 0.00000000000000000 -1.00000000000000000 0.00000000000000000 0.00000000000000000 
1 -8.00000000000000000 0.00000000000000000 0.00000000000000000 0.00000000000000000 1.00000000000000000 0.00000000000000000 
2 0.00000000000000000 0.00000000000000000 3.00000000000000000 0.00000000000000000 0.00000000000000000 -1.00000000000000000 -1.00000000000000000 0.00000000000000000 0.00000000000000000 0.00000000000000000 1.00000000000000000 0.00000000000000000 3.00000000000000000
1 -3.00000000000000000 0.00000000000000000 0.00000000000000000 0.00000000000000000 0.00000000000000000 1.00000000000000000 
2 0.00000000000000000 0.00000000000000000 3.00000000000000000 0.00000000000000000 0.00000000000000000 -1.00000000000000000 -1.00000000000000000 0.00000000000000000 0.00000000000000000 0.00000000000000000 1.00000000000000000 0.00000000000000000 3.00000000000000000
1 -3.00000000000000000 0.00000000000000000 0.00000000000000000 0.00000000000000000 0.00000000000000000 1.00000000000000000 
2 0.00000000000000000 0.00000000000000000 3.00000000000000000 0.00000000000000000 0.00000000000000000 -1.00000000000000000 -1.00000000000000000 0.00000000000000000 0.00000000000000000 0.00000000000000000 1.00000000000000000 0.00000000000000000 3.00000000000000000
1 -3.00000000000000000 0.00000000000000000 0.00000000000000000 0.00000000000000000 0.00000000000000000 1.00000000000000000 
2 0.00000000000000000 0.00000000000000000 3.00000000000000000 0.00000000000000000 0.00000000000000000 -1.00000000000000000 -1.00000000000000000 0.00000000000000000 0.00000000000000000 0.00000000000000000 1.00000000000000000 0.00000000000000000 3.00000000000000000
1 -3.00000000000000000 0.00000000000000000 0.00000000000000000 0.00000000000000000 0.00000000000000000 1.00000000000000000 
1 -8.00000000000000000 -20.99999999999999645 10.00000000000000000 0.00000000000000000 -1.00000000000000000 0.00000000000000022 
1 8.00000000000000000 -20.99999999999999645 10.00000000000000000 0.00000000000000000 -1.00000000000000000 0.00000000000000022 
1 -8.00000000000000000 10.00000000000000000 0.00000000000000000 1.00000000000000000 0.00000000000000000 0.00000000000000000 
2 15.50000000000000000 -15.50000000000000000 3.00000000000000000 0.00000000000000000 0.00000000000000000 -1.00000000000000000 1.00000000000000000 0.00000000000000000 0.00000000000000000 0.00000000000000000 -1.00000000000000000 0.00000000000000000 1.50000000000000000
1 17.00000000000000000 -15.50000000000000000 0.00000000000000000 0.00000000000000000 0.00000000000000000 1.00000000000000000 
2 -15.50000000000000000 -15.50000000000000000 3.00000000000000000 0.00000000000000000 0.00000000000000000 -1.00000000000000000 1.00000000000000000 0.00000000000000000 0.00000000000000000 0.00000000000000000 -1.00000000000000000 0.00000000000000000 1.50000000000000000
1 -14.00000000000000000 -15.50000000000000000 0.00000000000000000 0.00000000000000000 0.00000000000000000 1.00000000000000000 
2 15.50000000000000000 15.50000000000000000 3.00000000000000000 0.00000000000000000 0.00000000000000000 -1.00000000000000000 1.00000000000000000 0.00000000000000000 0.00000000000000000 0.00000000000000000 -1.00000000000000000 0.00000000000000000 1.50000000000000000
1 17.00000000000000000 15.50000000000000000 0.00000000000000000 0.00000000000000000 0.00000000000000000 1.00000000000000000 
2 -15.50000000000000000 15.50000000000000000 3.00000000000000000 0.00000000000000000 0.00000000000000000 -1.00000000000000000 1.00000000000000000 0.00000000000000000 0.00000000000000000 0.00000000000000000 -1.00000000000000000 0.00000000000000000 1.50000000000000000
1 -14.00000000000000000 15.50000000000000000 0.00000000000000000 0.00000000000000000 0.00000000000000000 1.00000000000000000 
1 8.00000000000000000 10.00000000000000000 0.00000000000000000 0.00000000000000000 -1.00000000000000000 0.00000000000000000 
1 -8.00000000000000000 0.00000000000000000 0.00000000000000000 0.00000000000000000 1.00000000000000000 0.00000000000000000 
Polygon3D 0
PolygonOnTriangulations 0
Surfaces 28
1 -17.00000000000000000 21.00000000000000000 0.00000000000000000 0.00000000000000000 1.00000000000000000 0.00000000000000000 1.00000000000000000 0.00000000000000000 0.00000000000000000 0.00000000000000000 0.00000000000000000 -1.00000000000000000 
1 -17.00000000000000000 21.00000000000000000 0.00000000000000000 0.70710678118654757 -0.70710678118654757 0.00000000000000000 -0.70710678118654757 -0.70710678118654757 0.00000000000000000 0.00000000000000000 0.00000000000000000 -1.00000000000000000 
1 17.00000000000000000 21.00000000000000000 0.00000000000000000 0.70710678118654757 0.70710678118654757 0.00000000000000000 0.70710678118654757 -0.70710678118654757 0.00000000000000000 0.00000000000000000 0.00000000000000000 -1.00000000000000000 
1 0.00000000000000000 0.00000000000000000 0.00000000000000000 -0.00000000000000000 -0.00000000000000000 -1.00000000000000000 -1.00000000000000000 0.00000000000000000 0.00000000000000000 0.00000000000000000 1.00000000000000000 0.00000000000000000 
2 0.00000000000000000 0.00000000000000000 0.00000000000000000 0.00000000000000000 0.00000000000000000 1.00000000000000000 -1.00000000000000000 0.00000000000000000 0.00000000000000000 0.00000000000000000 1.00000000000000000 0.00000000000000000 3.00000000000000000
2 0.00000000000000000 0.00000000000000000 0.00000000000000000 0.00000000000000000 0.00000000000000000 1.00000000000000000 -1.00000000000000000 0.00000000000000000 0.00000000000000000 0.00000000000000000 1.00000000000000000 0.00000000000000000 3.00000000000000000
2 0.00000000000000000 0.00000000000000000 0.00000000000000000 0.00000000000000000 0.00000000000000000 1.00000000000000000 -1.00000000000000000 0.00000000000000000 0.00000000000000000 0.00000000000000000 1.00000000000000000 0.00000000000000000 3.00000000000000000
2 0.00000000000000000 0.00000000000000000 0.00000000000000000 0.00000000000000000 0.00000000000000000 1.00000000000000000 -1.00000000000000000 0.00000000000000000 0.00000000000000000 0.00000000000000000 1.00000000000000000 0.00000000000000000 3.00000000000000000
1 0.00000000000000000 0.00000000000000000 0.00000000000000000 -0.00000000000000000 -0.00000000000000000 -1.00000000000000000 -1.00000000000000000 0.00000000000000000 0.00000000000000000 0.00000000000000000 1.00000000000000000 0.00000000000000000 
2 15.50000000000000000 -15.50000000000000000 0.00000000000000000 -0.00000000000000000 -0.00000000000000000 -1.00000000000000000 1.00000000000000000 0.00000000000000000 0.00000000000000000 0.00000000000000000 1.00000000000000000 0.00000000000000000 1.50000000000000000
2 -15.50000000000000000 -15.50000000000000000 0.00000000000000000 -0.00000000000000000 -0.00000000000000000 -1.00000000000000000 1.00000000000000000 0.00000000000000000 0.00000000000000000 0.00000000000000000 1.00000000000000000 0.00000000000000000 1.50000000000000000
2 15.50000000000000000 15.50000000000000000 0.00000000000000000 -0.00000000000000000 -0.00000000000000000 -1.00000000000000000 1.00000000000000000 0.00000000000000000 0.00000000000000000 0.00000000000000000 1.00000000000000000 0.00000000000000000 1.50000000000000000
2 -15.50000000000000000 15.50000000000000000 0.00000000000000000 -0.00000000000000000 -0.00000000000000000 -1.00000000000000000 1.00000000000000000 0.00000000000000000 0.00000000000000000 0.00000000000000000 1.00000000000000000 0.00000000000000000 1.50000000000000000
1 -21.00000000000000000 -17.00000000000000000 0.00000000000000000 -1.00000000000000000 0.00000000000000000 0.00000000000000000 0.00000000000000000 1.00000000000000000 0.00000000000000000 0.00000000000000000 0.00000000000000000 -1.00000000000000000 
1 21.00000000000000000 17.00000000000000000 0.00000000000000000 1.00000000000000000 0.00000000000000000 0.00000000000000000 0.00000000000000000 -1.00000000000000000 0.00000000000000000 0.00000000000000000 0.00000000000000000 -1.00000000000000000 
1 -21.00000000000000000 -17.00000000000000000 0.00000000000000000 0.70710678118654757 0.70710678118654757 0.00000000000000000 0.70710678118654757 -0.70710678118654757 0.00000000000000000 0.00000000000000000 0.00000000000000000 -1.00000000000000000 
1 21.00000000000000000 -17.00000000000000000 0.00000000000000000 0.70710678118654757 -0.70710678118654757 0.00000000000000000 -0.70710678118654757 -0.70710678118654757 0.00000000000000000 0.00000000000000000 0.00000000000000000 -1.00000000000000000 
1 17.00000000000000000 -21.00000000000000000 0.00000000000000000 -0.00000000000000000 -1.00000000000000000 -0.00000000000000000 -1.00000000000000000 0.00000000000000000 0.00000000000000000 0.00000000000000000 0.00000000000000000 -1.00000000000000000 
1 8.00000000000000000 -21.00000000000000000 0.00000000000000000 -0.00000000000000000 -0.00000000000000022 -1.00000000000000000 -1.00000000000000000 0.00000000000000000 0.00000000000000000 0.00000000000000000 1.00000000000000000 -0.00000000000000022 
1 17.00000000000000000 -21.00000000000000000 0.00000000000000000 -0.00000000000000000 -1.00000000000000000 -0.00000000000000000 -1.00000000000000000 0.00000000000000000 0.00000000000000000 0.00000000000000000 0.00000000000000000 -1.00000000000000000 
1 -8.00000000000000000 -20.99999999999999645 10.00000000000000000 0.00000000000000000 0.00000000000000022 1.00000000000000000 1.00000000000000000 0.00000000000000000 0.00000000000000000 0.00000000000000000 1.00000000000000000 -0.00000000000000022 
1 8.00000000000000000 -20.99999999999999645 10.00000000000000000 1.00000000000000000 0.00000000000000000 0.00000000000000000 0.00000000000000000 -0.00000000000000022 -1.00000000000000000 0.00000000000000000 1.00000000000000000 -0.00000000000000022 
1 -8.00000000000000000 -21.00000000000000000 0.00000000000000000 -1.00000000000000000 0.00000000000000000 0.00000000000000000 0.00000000000000000 0.00000000000000022 1.00000000000000000 0.00000000000000000 1.00000000000000000 -0.00000000000000022 
1 0.00000000000000000 -21.00000000000000000 5.00000000000000000 0.00000000000000000 1.00000000000000000 -0.00000000000000036 0.00000000000000000 0.00000000000000036 1.00000000000000000 1.00000000000000000 0.00000000000000000 0.00000000000000000 
1 0.00000000000000000 0.00000000000000000 3.00000000000000000 -0.00000000000000000 -0.00000000000000000 -1.00000000000000000 -1.00000000000000000 0.00000000000000000 0.00000000000000000 0.00000000000000000 1.00000000000000000 0.00000000000000000 
1 0.00000000000000000 0.00000000000000000 3.00000000000000000 -0.00000000000000000 -0.00000000000000000 -1.00000000000000000 -1.00000000000000000 0.00000000000000000 0.00000000000000000 0.00000000000000000 1.00000000000000000 0.00000000000000000 
1 0.00000000000000000 0.00000000000000000 3.00000000000000000 -0.00000000000000000 -0.00000000000000000 -1.00000000000000000 -1.00000000000000000 0.00000000000000000 0.00000000000000000 0.00000000000000000 1.00000000000000000 0.00000000000000000 
1 0.00000000000000000 0.00000000000000000 3.00000000000000000 -0.00000000000000000 -0.00000000000000000 -1.00000000000000000 -1.00000000000000000 0.00000000000000000 0.00000000000000000 0.00000000000000000 1.00000000000000000 0.00000000000000000 
Triangulations 0

TShapes 172
Ve
0.000100000000000
-17.000000000000000 21.000000000000000 0.000000000000000
0 0

0101101
*
Ve
0.000100000000000
-17.000000000000000 21.000000000000000 10.000000000000000
0 0

0101101
*
Ed
 0.000100000000000 1 1 0
1  1 0 0.000000000000000 10.000000000000000
0

0101000
+172 8 -171 8 *
Ve
0.000100000000000
17.000000000000000 21.000000000000000 0.000000000000000
0 0

0101101
*
Ve
0.000100000000000
17.000000000000000 21.000000000000000 10.000000000000000
0 0

0101101
*
Ed
 0.000100000000000 1 1 0
1  2 0 0.000000000000000 10.000000000000000
0

0101000
+169 8 -168 8 *
Ed
 0.000000100000000 1 1 0
1  3 0 4.000000000000000 38.000000000000000
0

0101000
+172 27 -169 27 *
Ed
 0.000000100000000 1 1 0
1  4 0 4.000000000000000 38.000000000000000
0

0101000
+171 30 -168 30 *
Wi

0101100
+170 0 -167 0 -166 26 +165 29 *
Fa
0  0.000000100000000 1 0

0111000
+164 0 *
Ve
0.000100000000000
-21.000000000000000 17.000000000000000 0.000000000000000
0 0

0101101
*
Ve
0.000100000000000
-21.000000000000000 17.000000000000000 10.000000000000000
0 0

0101101
*
Ed
 0.000100000000000 1 1 0
1  5 0 0.000000000000000 10.000000000000000
0

0101000
+162 8 -161 8 *
Ed
 0.000000100000000 1 1 0
1  6 0 -2.828427124746190 2.828427124746190
0

0101000
+172 32 -162 32 *
Ed
 0.000000100000000 1 1 0
1  7 0 -2.828427124746190 2.828427124746190
0

0101000
+171 34 -161 34 *
Wi

0101100
+170 0 -160 0 -159 31 +158 33 *
Fa
0  0.000000100000000 2 0

0111000
+157 0 *
Ve
0.000100000000000
21.000000000000000 17.000000000000000 0.000000000000000
0 0

0101101
*
Ve
0.000100000000000
21.000000000000000 17.000000000000000 10.000000000000000
0 0

0101101
*
Ed
 0.000100000000000 1 1 0
1  8 0 0.000000000000000 10.000000000000000
0

0101000
+155 8 -154 8 *
Ed
 0.000000100000000 1 1 0
1  9 0 -2.828427124746190 2.828427124746190
0

0101000
+169 32 -155 32 *
Ed
 0.000000100000000 1 1 0
1  10 0 -2.828427124746190 2.828427124746190
0

0101000
+168 34 -154 34 *
Wi

0101100
+167 0 -153 0 -152 31 +151 33 *
Fa
0  0.000000100000000 3 0

0111000
+150 0 *
Ve
0.000100000000000
-21.000000000000000 -17.000000000000000 0.000000000000000
0 0

0101101
*
Ed
 0.000000100000000 1 1 0
1  11 0 4.000000000000000 38.000000000000000
0

0101000
+148 27 -162 27 *
Ve
0.000100000000000
21.000000000000000 -17.000000000000000 0.000000000000000
0 0

0101101
*
Ed
 0.000000100000000 1 1 0
1  12 0 4.000000000000000 38.000000000000000
0

0101000
+155 27 -146 27 *
Ve
0.000100000000000
-17.000000000000000 -21.000000000000000 0.000000000000000
0 0

0101101
*
Ed
 0.000000100000000 1 1 0
1  13 0 -2.828427124746190 2.828427124746190
0

0101000
+148 32 -144 32 *
Ve
0.000100000000000
17.000000000000000 -21.000000000000000 0.000000000000000
0 0

0101101
*
Ed
 0.000000100000000 1 1 0
1  14 0 -2.828427124746190 2.828427124746190
0

0101000
+146 32 -142 32 *
Ve
0.000000100000004
8.000000000000000 -21.000000000000000 0.000000000000000
0 0

0101101
*
Ed
 0.000000100000000 1 1 0
1  15 0 4.000000000000000 13.000000000000000
0

0101000
+142 27 -140 27 *
Ve
0.000000100000004
-8.000000000000000 -21.000000000000000 0.000000000000000
0 0

0101101
*
Ed
 0.000000100000002 1 1 0
1  16 0 0.000000000000000 16.000000000000000
0

0101000
+140 41 -138 41 *
Ed
 0.000000100000000 1 1 0
1  17 0 29.000000000000000 38.000000000000000
0

0101000
+138 27 -144 27 *
Wi

0101100
+166 36 -159 37 +152 37 +147 36 +145 36 -143 37 +141 37 +139 36 +137 40 +136 36 
*
Ve
0.000000100000000
12.500000000000000 -15.500000000000000 0.000000000000000
0 0

0101101
*
Ed
 0.000000100000000 1 1 0
1  18 0 0.000000000000000 6.283185307179586
2  1 5 0 0.000000000000000 6.283185307179586
0

0101000
+134 44 -134 44 *
Wi

0101100
-133 43 *
Ve
0.000000100000000
-18.500000000000000 -15.500000000000000 0.000000000000000
0 0

0101101
*
Ed
 0.000000100000000 1 1 0
1  19 0 0.000000000000000 6.283185307179586
2  1 6 0 0.000000000000000 6.283185307179586
0

0101000
+131 47 -131 47 *
Wi

0101100
-130 46 *
Ve
0.000000100000000
12.500000000000000 15.500000000000000 0.000000000000000
0 0

0101101
*
Ed
 0.000000100000000 1 1 0
1  20 0 0.000000000000000 6.283185307179586
2  1 7 0 0.000000000000000 6.283185307179586
0

0101000
+128 50 -128 50 *
Wi

0101100
-127 49 *
Ve
0.000000100000000
-18.500000000000000 15.500000000000000 0.000000000000000
0 0

0101101
*
Ed
 0.000000100000000 1 1 0
1  21 0 0.000000000000000 6.283185307179586
2  1 8 0 0.000000000000000 6.283185307179586
0

0101000
+125 53 -125 53 *
Wi

0101100
-124 52 *
Fa
0  0.000000100000000 4 35

0111000
+135 0 +132 0 +129 0 +126 0 +123 0 *
Ve
0.000100000000000
-21.000000000000000 -17.000000000000000 10.000000000000000
0 0

0101101
*
Ed
 0.000000100000000 1 1 0
1  22 0 4.000000000000000 38.000000000000000
0

0101000
+121 30 -161 30 *
Ve
0.000100000000000
21.000000000000000 -17.000000000000000 10.000000000000000
0 0

0101101
*
Ed
 0.000000100000000 1 1 0
1  23 0 4.000000000000000 38.000000000000000
0

0101000
+154 30 -119 30 *
Ve
0.000100000000000
-17.000000000000000 -21.000000000000000 10.000000000000000
0 0

0101101
*
Ed
 0.000000100000000 1 1 0
1  24 0 -2.828427124746190 2.828427124746190
0

0101000
+121 34 -117 34 *
Ve
0.000100000000000
17.000000000000000 -21.000000000000000 10.000000000000000
0 0

0101101
*
Ed
 0.000000100000000 1 1 0
1  25 0 -2.828427124746190 2.828427124746190
0

0101000
+119 34 -115 34 *
Ve
0.000000100000004
8.000000000000000 -20.999999999999996 10.000000000000000
0 0

0101101
*
Ed
 0.000000100000000 1 1 0
1  26 0 4.000000000000000 13.000000000000000
0

0101000
+115 30 -113 30 *
Ve
0.000000100000004
-8.000000000000000 -20.999999999999996 10.000000000000000
0 0

0101101
*
Ed
 0.000000100000004 1 1 0
1  27 0 0.000000000000000 16.000000000000000
0

0101000
+111 41 -113 41 *
Ed
 0.000000100000000 1 1 0
1  28 0 29.000000000000000 38.000000000000000
0

0101000
+111 30 -117 30 *
Wi

0101100
+165 55 -158 56 +151 56 +120 55 +118 55 -116 56 +114 56 +112 55 -110 40 +109 55 
*
Ve
0.000000100000000
17.000000000000000 -15.500000000000000 10.000000000000000
0 0

0101101
*
Ed
 0.000000100000000 1 1 0
1  29 0 0.000000000000000 6.283185307179586
2  2 10 58 0.000000000000000 6.283185307179586
0

0101000
+107 59 -107 59 *
Wi

0101100
+106 57 *
Ve
0.000000100000000
-14.000000000000000 -15.500000000000000 10.000000000000000
0 0

0101101
*
Ed
 0.000000100000000 1 1 0
1  30 0 0.000000000000000 6.283185307179586
2  3 11 58 0.000000000000000 6.283185307179586
0

0101000
+104 59 -104 59 *
Wi

0101100
+103 57 *
Ve
0.000000100000000
17.000000000000000 15.500000000000000 10.000000000000000
0 0

0101101
*
Ed
 0.000000100000000 1 1 0
1  31 0 0.000000000000000 6.283185307179586
2  4 12 58 0.000000000000000 6.283185307179586
0

0101000
+101 59 -101 59 *
Wi

0101100
+100 57 *
Ve
0.000000100000000
-14.000000000000000 15.500000000000000 10.000000000000000
0 0

0101101
*
Ed
 0.000000100000000 1 1 0
1  32 0 0.000000000000000 6.283185307179586
2  5 13 58 0.000000000000000 6.283185307179586
0

0101000
+98 59 -98 59 *
Wi

0101100
+97 57 *
Fa
0  0.000000100000000 9 54

0111000
+108 0 +105 0 +102 0 +99 0 +96 0 *
Ed
 0.000100000000000 1 1 0
1  33 0 0.000000000000000 10.000000000000000
0

0101000
+148 8 -121 8 *
Wi

0101100
+94 0 -160 0 -147 26 +120 29 *
Fa
0  0.000000100000000 14 0

0111000
+93 0 *
Ed
 0.000100000000000 1 1 0
1  34 0 0.000000000000000 10.000000000000000
0

0101000
+146 8 -119 8 *
Wi

0101100
+153 0 -91 0 -145 26 +118 29 *
Fa
0  0.000000100000000 15 0

0111000
+90 0 *
Ed
 0.000100000000000 1 1 0
1  35 0 0.000000000000000 10.000000000000000
0

0101000
+144 8 -117 8 *
Wi

0101100
+94 0 -88 0 -143 31 +116 33 *
Fa
0  0.000000100000000 16 0

0111000
+87 0 *
Ed
 0.000100000000000 1 1 0
1  36 0 0.000000000000000 10.000000000000000
0

0101000
+142 8 -115 8 *
Wi

0101100
+91 0 -85 0 -141 31 +114 33 *
Fa
0  0.000000100000000 17 0

0111000
+84 0 *
Ed
 0.000000100000004 1 1 0
1  37 0 0.000000000000000 10.000000000000000
0

0101000
+113 41 -140 41 *
Wi

0101100
-139 36 +82 40 +112 55 +85 6 *
Fa
0  0.000000100000000 18 6

0111000
+81 0 *
Ve
0.000000100000004
8.000000000000000 -27.000000000000000 0.000000000000001
0 0

0101101
*
Ed
 0.000000100000000 1 1 0
1  38 0 0.000000000000000 6.000000000000000
0

0101000
+140 60 -79 60 *
Ve
0.000000100000004
-8.000000000000000 -27.000000000000000 0.000000000000001
0 0

0101101
*
Ed
 0.000000100000000 1 1 0
1  39 0 0.000000000000000 6.000000000000000
0

0101000
+138 60 -77 60 *
Ed
 0.000000100000002 1 1 0
1  40 0 0.000000000000000 16.000000000000000
0

0101000
+79 63 -77 63 *
Wi

0101100
+78 0 -76 0 -137 40 +75 62 *
Fa
0  0.000000100000000 19 0

0111000
+74 0 *
Ed
 0.000000100000004 1 1 0
1  41 0 0.000000000000000 10.000000000000000
0

0101000
+138 41 -111 41 *
Wi

0101100
-136 36 -88 6 +109 55 +72 40 *
Fa
0  0.000000100000000 20 6

0111000
+71 0 *
Ve
0.000000100000000
12.500000000000000 -15.500000000000000 3.000000000000000
0 0

0101101
*
Ed
 0.000000100000000 1 1 0
1  42 0 0.000000000000000 6.283185307179586
2  6 5 0 0.000000000000000 6.283185307179586
0

0101000
+69 44 -69 44 *
Ed
 0.000000100000000 1 1 0
1  43 0 0.000000000000000 3.000000000000000
3  7 8CN 5 0 0.000000000000000 3.000000000000000
0

0101000
+134 44 -69 44 *
Wi

0101100
+133 0 -68 0 -67 0 +67 0 *
Fa
0  0.000000100000000 5 0

0111000
+66 0 *
Ve
0.000000100000000
-18.500000000000000 -15.500000000000000 3.000000000000000
0 0

0101101
*
Ed
 0.000000100000000 1 1 0
1  44 0 0.000000000000000 6.283185307179586
2  6 6 0 0.000000000000000 6.283185307179586
0

0101000
+64 47 -64 47 *
Ed
 0.000000100000000 1 1 0
1  45 0 0.000000000000000 3.000000000000000
3  7 8CN 6 0 0.000000000000000 3.000000000000000
0

0101000
+131 47 -64 47 *
Wi

0101100
+130 0 -63 0 -62 0 +62 0 *
Fa
0  0.000000100000000 6 0

0111000
+61 0 *
Ve
0.000000100000000
12.500000000000000 15.500000000000000 3.000000000000000
0 0

0101101
*
Ed
 0.000000100000000 1 1 0
1  46 0 0.000000000000000 6.283185307179586
2  6 7 0 0.000000000000000 6.283185307179586
0

0101000
+59 50 -59 50 *
Ed
 0.000000100000000 1 1 0
1  47 0 0.000000000000000 3.000000000000000
3  7 8CN 7 0 0.000000000000000 3.000000000000000
0

0101000
+128 50 -59 50 *
Wi

0101100
+127 0 -58 0 -57 0 +57 0 *
Fa
0  0.000000100000000 7 0

0111000
+56 0 *
Ve
0.000000100000000
-18.500000000000000 15.500000000000000 3.000000000000000
0 0

0101101
*
Ed
 0.000000100000000 1 1 0
1  48 0 0.000000000000000 6.283185307179586
2  6 8 0 0.000000000000000 6.283185307179586
0

0101000
+54 53 -54 53 *
Ed
 0.000000100000000 1 1 0
1  49 0 0.000000000000000 3.000000000000000
3  7 8CN 8 0 0.000000000000000 3.000000000000000
0

0101000
+125 53 -54 53 *
Wi

0101100
+124 0 -53 0 -52 0 +52 0 *
Fa
0  0.000000100000000 8 0

0111000
+51 0 *
Ve
0.000000100000004
-8.000000000000000 -26.999999999999996 10.000000000000002
0 0

0101101
*
Ed
 0.000000100000000 1 1 0
1  50 0 0.000000000000000 6.000000000000000
0

0101000
+111 60 -49 60 *
Ve
0.000000100000004
8.000000000000000 -26.999999999999996 10.000000000000002
0 0

0101101
*
Ed
 0.000000100000000 1 1 0
1  51 0 0.000000000000000 6.000000000000000
0

0101000
+113 60 -47 60 *
Ed
 0.000000100000004 1 1 0
1  52 0 0.000000000000000 16.000000000000000
0

0101000
+49 63 -47 63 *
Wi

0101100
+48 0 -46 0 -110 40 +45 62 *
Fa
0  0.000000100000000 21 0

0111000
+44 0 *
Ve
0.000000100000000
17.000000000000000 -15.500000000000000 3.000000000000000
0 0

0101101
*
Ed
 0.000000100000000 1 1 0
1  53 0 0.000000000000000 6.283185307179586
2  9 10 65 0.000000000000000 6.283185307179586
0

0101000
+42 66 -42 66 *
Ed
 0.000000100000000 1 1 0
1  54 0 3.000000000000000 10.000000000000000
3  10 11CN 10 0 3.000000000000000 10.000000000000000
0

0101000
+42 8 -107 8 *
Wi

0101100
+41 0 -40 65 +106 67 +40 65 *
Fa
0  0.000000100000000 10 65

0111000
+39 0 *
Ve
0.000000100000000
-14.000000000000000 -15.500000000000000 3.000000000000000
0 0

0101101
*
Ed
 0.000000100000000 1 1 0
1  55 0 0.000000000000000 6.283185307179586
2  12 11 65 0.000000000000000 6.283185307179586
0

0101000
+37 66 -37 66 *
Ed
 0.000000100000000 1 1 0
1  56 0 3.000000000000000 10.000000000000000
3  13 14CN 11 0 3.000000000000000 10.000000000000000
0

0101000
+37 8 -104 8 *
Wi

0101100
+36 0 -35 65 +103 67 +35 65 *
Fa
0  0.000000100000000 11 65

0111000
+34 0 *
Ve
0.000000100000000
17.000000000000000 15.500000000000000 3.000000000000000
0 0

0101101
*
Ed
 0.000000100000000 1 1 0
1  57 0 0.000000000000000 6.283185307179586
2  15 12 65 0.000000000000000 6.283185307179586
0

0101000
+32 66 -32 66 *
Ed
 0.000000100000000 1 1 0
1  58 0 3.000000000000000 10.000000000000000
3  16 17CN 12 0 3.000000000000000 10.000000000000000
0

0101000
+32 8 -101 8 *
Wi

0101100
+31 0 -30 65 +100 67 +30 65 *
Fa
0  0.000000100000000 12 65

0111000
+29 0 *
Ve
0.000000100000000
-14.000000000000000 15.500000000000000 3.000000000000000
0 0

0101101
*
Ed
 0.000000100000000 1 1 0
1  59 0 0.000000000000000 6.283185307179586
2  18 13 65 0.000000000000000 6.283185307179586
0

0101000
+27 66 -27 66 *
Ed
 0.000000100000000 1 1 0
1  60 0 3.000000000000000 10.000000000000000
3  19 20CN 13 0 3.000000000000000 10.000000000000000
0

0101000
+27 8 -98 8 *
Wi

0101100
+26 0 -25 65 +97 67 +25 65 *
Fa
0  0.000000100000000 13 65

0111000
+24 0 *
Ed
 0.000000100000004 1 1 0
1  61 0 0.000000000000000 10.000000000000000
0

0101000
+47 63 -79 63 *
Wi

0101100
+46 0 -78 0 -82 40 +22 62 *
Fa
0  0.000000100000000 22 0

0111000
+21 0 *
Ed
 0.000000100000004 1 1 0
1  62 0 0.000000000000000 10.000000000000000
0

0101000
+77 63 -49 63 *
Wi

0101100
+76 0 -48 0 -72 40 +19 62 *
Fa
0  0.000000100000000 23 0

0111000
+18 0 *
Wi

0101100
+45 0 +22 0 +75 0 +19 0 *
Fa
0  0.000000100000000 24 0

0111000
+16 69 *
Wi

0101100
+68 42 *
Wi

0101100
-41 0 *
Fa
0  0.000000100000000 25 42

0111000
+14 0 +13 0 *
Wi

0101100
+63 45 *
Wi

0101100
-36 0 *
Fa
0  0.000000100000000 26 45

0111000
+11 0 +10 0 *
Wi

0101100
+58 48 *
Wi

0101100
-31 0 *
Fa
0  0.000000100000000 27 48

0111000
+8 0 +7 0 *
Wi

0101100
+53 51 *
Wi

0101100
-26 0 *
Fa
0  0.000000100000000 28 51

0111000
+5 0 +4 0 *
Sh

0101100
+163 6 -156 6 +149 6 +122 0 -95 0 +92 6 +89 6 -86 6 +83 6 +80 0 
+73 0 +70 0 +65 43 +60 46 +55 49 +50 52 +43 0 +38 64 +33 64 +28 64 
+23 64 +20 0 +17 0 -15 68 +12 64 +9 64 +6 64 +3 64 *
So

1100000
+2 0 *

+1 1 