
CASCADE Topology V1, (c) Matra-Datavision
Locations 50
1
1.000000000000000 0.000000000000000 0.000000000000000 0.000000000000000 
0.000000000000000 1.000000000000000 0.000000000000000 0.000000000000000 
0.000000000000000 0.000000000000000 1.000000000000000 0.000000000000000 
1
1.000000000000000 0.000000000000000 0.000000000000000 0.000000000000000 
0.000000000000000 1.000000000000000 0.000000000000000 0.000000000000000 
0.000000000000000 0.000000000000000 1.000000000000000 0.000000000000000 
1
1.000000000000000 0.000000000000000 0.000000000000000 0.000000000000000 
0.000000000000000 1.000000000000000 0.000000000000000 0.000000000000000 
0.000000000000000 0.000000000000000 1.000000000000000 0.000000000000000 
2  2 1 3 -1 0
1
1.000000000000000 0.000000000000000 0.000000000000000 0.000000000000000 
0.000000000000000 1.000000000000000 0.000000000000000 0.000000000000000 
0.000000000000000 0.000000000000000 1.000000000000000 0.000000000000000 
2  5 -1 3 1 2 -1 0
1
1.000000000000000 0.000000000000000 0.000000000000000 0.000000000000000 
0.000000000000000 1.000000000000000 0.000000000000000 0.000000000000000 
0.000000000000000 0.000000000000000 1.000000000000000 0.000000000000000 
1
1.000000000000000 0.000000000000000 0.000000000000000 0.000000000000000 
0.000000000000000 1.000000000000000 0.000000000000000 0.000000000000000 
0.000000000000000 0.000000000000000 1.000000000000000 0.000000000000000 
1
1.000000000000000 0.000000000000000 0.000000000000000 0.000000000000000 
0.000000000000000 1.000000000000000 0.000000000000000 0.000000000000000 
0.000000000000000 0.000000000000000 1.000000000000000 0.000000000000000 
1
1.000000000000000 0.000000000000000 0.000000000000000 0.000000000000000 
0.000000000000000 1.000000000000000 0.000000000000000 0.000000000000000 
0.000000000000000 0.000000000000000 1.000000000000000 0.000000000000000 
1
1.000000000000000 0.000000000000000 0.000000000000000 0.000000000000000 
0.000000000000000 1.000000000000000 0.000000000000000 0.000000000000000 
0.000000000000000 0.000000000000000 1.000000000000000 0.000000000000000 
1
1.000000000000000 0.000000000000000 0.000000000000000 0.000000000000000 
0.000000000000000 1.000000000000000 0.000000000000000 0.000000000000000 
0.000000000000000 0.000000000000000 1.000000000000000 0.000000000000000 
1
1.000000000000000 0.000000000000000 0.000000000000000 0.000000000000000 
0.000000000000000 1.000000000000000 0.000000000000000 0.000000000000000 
0.000000000000000 0.000000000000000 1.000000000000000 0.000000000000000 
1
1.000000000000000 0.000000000000000 0.000000000000000 0.000000000000000 
0.000000000000000 1.000000000000000 0.000000000000000 0.000000000000000 
0.000000000000000 0.000000000000000 1.000000000000000 0.000000000000000 
1
1.000000000000000 0.000000000000000 0.000000000000000 0.000000000000000 
0.000000000000000 1.000000000000000 0.000000000000000 0.000000000000000 
0.000000000000000 0.000000000000000 1.000000000000000 0.000000000000000 
1
1.000000000000000 0.000000000000000 0.000000000000000 0.000000000000000 
0.000000000000000 1.000000000000000 0.000000000000000 0.000000000000000 
0.000000000000000 0.000000000000000 1.000000000000000 0.000000000000000 
1
1.000000000000000 0.000000000000000 0.000000000000000 0.000000000000000 
0.000000000000000 1.000000000000000 0.000000000000000 0.000000000000000 
0.000000000000000 0.000000000000000 1.000000000000000 0.000000000000000 
1
1.000000000000000 0.000000000000000 0.000000000000000 0.000000000000000 
0.000000000000000 1.000000000000000 0.000000000000000 0.000000000000000 
0.000000000000000 0.000000000000000 1.000000000000000 0.000000000000000 
1
1.000000000000000 0.000000000000000 0.000000000000000 0.000000000000000 
0.000000000000000 1.000000000000000 0.000000000000000 0.000000000000000 
0.000000000000000 0.000000000000000 1.000000000000000 0.000000000000000 
1
1.000000000000000 0.000000000000000 0.000000000000000 0.000000000000000 
0.000000000000000 1.000000000000000 0.000000000000000 0.000000000000000 
0.000000000000000 0.000000000000000 1.000000000000000 0.000000000000000 
1
1.000000000000000 0.000000000000000 0.000000000000000 0.000000000000000 
0.000000000000000 1.000000000000000 0.000000000000000 0.000000000000000 
0.000000000000000 0.000000000000000 1.000000000000000 0.000000000000000 
1
1.000000000000000 0.000000000000000 0.000000000000000 0.000000000000000 
0.000000000000000 1.000000000000000 0.000000000000000 0.000000000000000 
0.000000000000000 0.000000000000000 1.000000000000000 0.000000000000000 
1
1.000000000000000 0.000000000000000 0.000000000000000 0.000000000000000 
0.000000000000000 1.000000000000000 0.000000000000000 0.000000000000000 
0.000000000000000 0.000000000000000 1.000000000000000 0.000000000000000 
2  7 1 8 1 9 -1 10 1 11 -1 12 1 13 -1 14 1 15 1 16 1 17 1 18 1 19 1 20 1 21 1 22 1 23 -1 0
2  5 -1 3 1 2 -1 23 1 22 -1 21 -1 20 -1 19 -1 18 -1 17 -1 16 -1 15 -1 14 -1 13 1 12 -1 11 1 10 -1 9 1 8 -1 7 -1 0
1
1.000000000000000 0.000000000000000 0.000000000000000 -0.000000000000000 
0.000000000000000 1.000000000000000 0.000000000000000 -0.000000000000000 
0.000000000000000 0.000000000000000 1.000000000000000 10.000000000000000 
2  7 1 8 1 9 -1 10 1 11 -1 12 1 13 -1 14 1 15 1 16 1 17 1 18 1 19 1 20 1 21 1 22 1 23 -1 26 1 0
2  5 -1 3 1 2 -1 26 -1 23 1 22 -1 21 -1 20 -1 19 -1 18 -1 17 -1 16 -1 15 -1 14 -1 13 1 12 -1 11 1 10 -1 9 1 8 -1 7 -1 0
2  15 1 16 1 17 1 18 1 19 1 20 1 21 1 22 1 23 -1 0
2  5 -1 3 1 2 -1 23 1 22 -1 21 -1 20 -1 19 -1 18 -1 17 -1 16 -1 15 -1 0
2  15 1 16 1 17 1 18 1 19 1 20 1 21 1 22 1 23 -1 26 1 0
2  5 -1 3 1 2 -1 26 -1 23 1 22 -1 21 -1 20 -1 19 -1 18 -1 17 -1 16 -1 15 -1 0
2  9 -1 10 1 11 -1 12 1 13 -1 14 1 15 1 16 1 17 1 18 1 19 1 20 1 21 1 22 1 23 -1 2 1 3 -1 0
2  7 1 8 1 9 -1 10 1 11 -1 12 1 13 -1 14 1 15 1 16 1 17 1 18 1 19 1 20 1 21 1 22 1 23 -1 2 1 3 -1 0
2  15 1 16 1 17 1 18 1 19 1 20 1 21 1 22 1 23 -1 2 1 3 -1 0
1
1.000000000000000 0.000000000000000 0.000000000000000 15.500000000000000 
0.000000000000000 1.000000000000000 0.000000000000000 -15.500000000000000 
0.000000000000000 0.000000000000000 1.000000000000000 0.000000000000000 
2  5 -1 36 -1 0
1
1.000000000000000 0.000000000000000 0.000000000000000 -15.500000000000000 
0.000000000000000 1.000000000000000 0.000000000000000 -15.500000000000000 
0.000000000000000 0.000000000000000 1.000000000000000 0.000000000000000 
2  5 -1 38 -1 0
1
1.000000000000000 0.000000000000000 0.000000000000000 15.500000000000000 
0.000000000000000 1.000000000000000 0.000000000000000 15.500000000000000 
0.000000000000000 0.000000000000000 1.000000000000000 0.000000000000000 
2  5 -1 40 -1 0
1
1.000000000000000 0.000000000000000 0.000000000000000 -15.500000000000000 
0.000000000000000 1.000000000000000 0.000000000000000 15.500000000000000 
0.000000000000000 0.000000000000000 1.000000000000000 0.000000000000000 
2  5 -1 42 -1 0
2  12 1 13 -1 14 1 15 1 16 1 17 1 18 1 19 1 20 1 21 1 22 1 23 -1 26 1 2 1 3 -1 0
2  9 -1 10 1 11 -1 0
2  14 -1 13 1 12 -1 0
2  7 1 8 1 9 -1 10 1 11 -1 12 1 13 -1 14 1 0
2  26 -1 23 1 22 -1 21 -1 20 -1 19 -1 18 -1 17 -1 16 -1 15 -1 14 -1 13 1 12 -1 0
2  5 -1 3 1 2 -1 26 -1 23 1 22 -1 21 -1 20 -1 19 -1 18 -1 17 -1 16 -1 15 -1 14 -1 13 1 12 -1 0
2  5 -1 0
Curve2ds 20
1 0.00000000000000000 0.00000000000000000 1.00000000000000000 0.00000000000000000 
1 0.00000000000000000 -10.00000000000000000 1.00000000000000000 0.00000000000000000 
1 0.00000000000000000 -10.00000000000000000 1.00000000000000000 0.00000000000000000 
1 0.00000000000000000 -10.00000000000000000 1.00000000000000000 0.00000000000000000 
1 0.00000000000000000 -10.00000000000000000 1.00000000000000000 0.00000000000000000 
1 0.00000000000000000 3.00000000000000000 1.00000000000000000 0.00000000000000000 
1 6.28318530717958623 0.00000000000000000 0.00000000000000000 1.00000000000000000 
1 0.00000000000000000 0.00000000000000000 0.00000000000000000 1.00000000000000000 
1 6.28318530717958623 -3.00000000000000000 -1.00000000000000000 0.00000000000000000 
1 0.00000000000000000 0.00000000000000000 0.00000000000000000 -1.00000000000000000 
1 6.28318530717958623 0.00000000000000000 0.00000000000000000 -1.00000000000000000 
1 6.28318530717958623 -3.00000000000000000 -1.00000000000000000 0.00000000000000000 
1 0.00000000000000000 0.00000000000000000 0.00000000000000000 -1.00000000000000000 
1 6.28318530717958623 0.00000000000000000 0.00000000000000000 -1.00000000000000000 
1 6.28318530717958623 -3.00000000000000000 -1.00000000000000000 0.00000000000000000 
1 0.00000000000000000 0.00000000000000000 0.00000000000000000 -1.00000000000000000 
1 6.28318530717958623 0.00000000000000000 0.00000000000000000 -1.00000000000000000 
1 6.28318530717958623 -3.00000000000000000 -1.00000000000000000 0.00000000000000000 
1 0.00000000000000000 0.00000000000000000 0.00000000000000000 -1.00000000000000000 
1 6.28318530717958623 0.00000000000000000 0.00000000000000000 -1.00000000000000000 
Curves 48
1 -17.00000000000000000 21.00000000000000000 0.00000000000000000 0.00000000000000000 0.00000000000000000 1.00000000000000000 
1 17.00000000000000000 21.00000000000000000 0.00000000000000000 0.00000000000000000 0.00000000000000000 1.00000000000000000 
1 -21.00000000000000000 21.00000000000000000 0.00000000000000000 1.00000000000000000 0.00000000000000000 0.00000000000000000 
1 -21.00000000000000000 21.00000000000000000 0.00000000000000000 1.00000000000000000 0.00000000000000000 0.00000000000000000 
1 -21.00000000000000000 17.00000000000000000 0.00000000000000000 0.00000000000000000 0.00000000000000000 1.00000000000000000 
8 -2.82842712474619029 2.82842712474619029
1 -19.00000000000000000 19.00000000000000000 0.00000000000000000 -0.70710678118654757 -0.70710678118654757 0.00000000000000000 
8 -2.82842712474619029 2.82842712474619029
1 -19.00000000000000000 19.00000000000000000 0.00000000000000000 -0.70710678118654757 -0.70710678118654757 0.00000000000000000 
1 21.00000000000000000 17.00000000000000000 0.00000000000000000 0.00000000000000000 0.00000000000000000 1.00000000000000000 
8 -2.82842712474619029 2.82842712474619029
1 19.00000000000000000 19.00000000000000000 0.00000000000000000 0.70710678118654757 -0.70710678118654757 0.00000000000000000 
8 -2.82842712474619029 2.82842712474619029
1 19.00000000000000000 19.00000000000000000 0.00000000000000000 0.70710678118654757 -0.70710678118654757 0.00000000000000000 
1 -21.00000000000000000 -21.00000000000000000 0.00000000000000000 0.00000000000000000 1.00000000000000000 0.00000000000000000 
1 21.00000000000000000 21.00000000000000000 0.00000000000000000 0.00000000000000000 -1.00000000000000000 0.00000000000000000 
8 -2.82842712474619029 2.82842712474619029
1 -19.00000000000000000 -19.00000000000000000 0.00000000000000000 0.70710678118654757 -0.70710678118654757 0.00000000000000000 
8 -2.82842712474619029 2.82842712474619029
1 19.00000000000000000 -19.00000000000000000 0.00000000000000000 -0.70710678118654757 -0.70710678118654757 0.00000000000000000 
1 21.00000000000000000 -21.00000000000000000 0.00000000000000000 -1.00000000000000000 0.00000000000000000 0.00000000000000000 
2 0.00000000000000000 0.00000000000000000 0.00000000000000000 0.00000000000000000 0.00000000000000000 -1.00000000000000000 -1.00000000000000000 0.00000000000000000 0.00000000000000000 0.00000000000000000 1.00000000000000000 0.00000000000000000 3.00000000000000000
2 0.00000000000000000 0.00000000000000000 0.00000000000000000 0.00000000000000000 0.00000000000000000 -1.00000000000000000 -1.00000000000000000 0.00000000000000000 0.00000000000000000 0.00000000000000000 1.00000000000000000 0.00000000000000000 3.00000000000000000
2 0.00000000000000000 0.00000000000000000 0.00000000000000000 0.00000000000000000 0.00000000000000000 -1.00000000000000000 -1.00000000000000000 0.00000000000000000 0.00000000000000000 0.00000000000000000 1.00000000000000000 0.00000000000000000 3.00000000000000000
2 0.00000000000000000 0.00000000000000000 0.00000000000000000 0.00000000000000000 0.00000000000000000 -1.00000000000000000 -1.00000000000000000 0.00000000000000000 0.00000000000000000 0.00000000000000000 1.00000000000000000 0.00000000000000000 3.00000000000000000
1 -21.00000000000000000 -21.00000000000000000 0.00000000000000000 0.00000000000000000 1.00000000000000000 0.00000000000000000 
1 21.00000000000000000 21.00000000000000000 0.00000000000000000 0.00000000000000000 -1.00000000000000000 0.00000000000000000 
8 -2.82842712474619029 2.82842712474619029
1 -19.00000000000000000 -19.00000000000000000 0.00000000000000000 0.70710678118654757 -0.70710678118654757 0.00000000000000000 
8 -2.82842712474619029 2.82842712474619029
1 19.00000000000000000 -19.00000000000000000 0.00000000000000000 -0.70710678118654757 -0.70710678118654757 0.00000000000000000 
1 21.00000000000000000 -21.00000000000000000 0.00000000000000000 -1.00000000000000000 0.00000000000000000 0.00000000000000000 
2 15.50000000000000000 -15.50000000000000000 0.00000000000000000 0.00000000000000000 0.00000000000000000 1.00000000000000000 1.00000000000000000 0.00000000000000000 0.00000000000000000 0.00000000000000000 1.00000000000000000 0.00000000000000000 1.50000000000000000
2 -15.50000000000000000 -15.50000000000000000 0.00000000000000000 0.00000000000000000 0.00000000000000000 1.00000000000000000 1.00000000000000000 0.00000000000000000 0.00000000000000000 0.00000000000000000 1.00000000000000000 0.00000000000000000 1.50000000000000000
2 15.50000000000000000 15.50000000000000000 0.00000000000000000 0.00000000000000000 0.00000000000000000 1.00000000000000000 1.00000000000000000 0.00000000000000000 0.00000000000000000 0.00000000000000000 1.00000000000000000 0.00000000000000000 1.50000000000000000
2 -15.50000000000000000 15.50000000000000000 0.00000000000000000 0.00000000000000000 0.00000000000000000 1.00000000000000000 1.00000000000000000 0.00000000000000000 0.00000000000000000 0.00000000000000000 1.00000000000000000 0.00000000000000000 1.50000000000000000
1 -21.00000000000000000 -17.00000000000000000 0.00000000000000000 0.00000000000000000 0.00000000000000000 1.00000000000000000 
1 21.00000000000000000 -17.00000000000000000 0.00000000000000000 0.00000000000000000 0.00000000000000000 1.00000000000000000 
1 -17.00000000000000000 -21.00000000000000000 0.00000000000000000 0.00000000000000000 0.00000000000000000 1.00000000000000000 
1 17.00000000000000000 -21.00000000000000000 0.00000000000000000 0.00000000000000000 0.00000000000000000 1.00000000000000000 
2 0.00000000000000000 0.00000000000000000 3.00000000000000000 0.00000000000000000 0.00000000000000000 -1.00000000000000000 -1.00000000000000000 0.00000000000000000 0.00000000000000000 0.00000000000000000 1.00000000000000000 0.00000000000000000 3.00000000000000000
1 -3.00000000000000000 0.00000000000000000 0.00000000000000000 0.00000000000000000 0.00000000000000000 1.00000000000000000 
2 0.00000000000000000 0.00000000000000000 3.00000000000000000 0.00000000000000000 0.00000000000000000 -1.00000000000000000 -1.00000000000000000 0.00000000000000000 0.00000000000000000 0.00000000000000000 1.00000000000000000 0.00000000000000000 3.00000000000000000
1 -3.00000000000000000 0.00000000000000000 0.00000000000000000 0.00000000000000000 0.00000000000000000 1.00000000000000000 
2 0.00000000000000000 0.00000000000000000 3.00000000000000000 0.00000000000000000 0.00000000000000000 -1.00000000000000000 -1.00000000000000000 0.00000000000000000 0.00000000000000000 0.00000000000000000 1.00000000000000000 0.00000000000000000 3.00000000000000000
1 -3.00000000000000000 0.00000000000000000 0.00000000000000000 0.00000000000000000 0.00000000000000000 1.00000000000000000 
2 0.00000000000000000 0.00000000000000000 3.00000000000000000 0.00000000000000000 0.00000000000000000 -1.00000000000000000 -1.00000000000000000 0.00000000000000000 0.00000000000000000 0.00000000000000000 1.00000000000000000 0.00000000000000000 3.00000000000000000
1 -3.00000000000000000 0.00000000000000000 0.00000000000000000 0.00000000000000000 0.00000000000000000 1.00000000000000000 
2 15.50000000000000000 -15.50000000000000000 3.00000000000000000 0.00000000000000000 0.00000000000000000 -1.00000000000000000 1.00000000000000000 0.00000000000000000 0.00000000000000000 0.00000000000000000 -1.00000000000000000 0.00000000000000000 1.50000000000000000
1 17.00000000000000000 -15.50000000000000000 0.00000000000000000 0.00000000000000000 0.00000000000000000 1.00000000000000000 
2 -15.50000000000000000 -15.50000000000000000 3.00000000000000000 0.00000000000000000 0.00000000000000000 -1.00000000000000000 1.00000000000000000 0.00000000000000000 0.00000000000000000 0.00000000000000000 -1.00000000000000000 0.00000000000000000 1.50000000000000000
1 -14.00000000000000000 -15.50000000000000000 0.00000000000000000 0.00000000000000000 0.00000000000000000 1.00000000000000000 
2 15.50000000000000000 15.50000000000000000 3.00000000000000000 0.00000000000000000 0.00000000000000000 -1.00000000000000000 1.00000000000000000 0.00000000000000000 0.00000000000000000 0.00000000000000000 -1.00000000000000000 0.00000000000000000 1.50000000000000000
1 17.00000000000000000 15.50000000000000000 0.00000000000000000 0.00000000000000000 0.00000000000000000 1.00000000000000000 
2 -15.50000000000000000 15.50000000000000000 3.00000000000000000 0.00000000000000000 0.00000000000000000 -1.00000000000000000 1.00000000000000000 0.00000000000000000 0.00000000000000000 0.00000000000000000 -1.00000000000000000 0.00000000000000000 1.50000000000000000
1 -14.00000000000000000 15.50000000000000000 0.00000000000000000 0.00000000000000000 0.00000000000000000 1.00000000000000000 
Polygon3D 0
PolygonOnTriangulations 0
Surfaces 22
1 -17.00000000000000000 21.00000000000000000 0.00000000000000000 0.00000000000000000 1.00000000000000000 0.00000000000000000 1.00000000000000000 0.00000000000000000 0.00000000000000000 0.00000000000000000 0.00000000000000000 -1.00000000000000000 
1 -17.00000000000000000 21.00000000000000000 0.00000000000000000 0.70710678118654757 -0.70710678118654757 0.00000000000000000 -0.70710678118654757 -0.70710678118654757 0.00000000000000000 0.00000000000000000 0.00000000000000000 -1.00000000000000000 
1 17.00000000000000000 21.00000000000000000 0.00000000000000000 0.70710678118654757 0.70710678118654757 0.00000000000000000 0.70710678118654757 -0.70710678118654757 0.00000000000000000 0.00000000000000000 0.00000000000000000 -1.00000000000000000 
1 0.00000000000000000 0.00000000000000000 0.00000000000000000 -0.00000000000000000 -0.00000000000000000 -1.00000000000000000 -1.00000000000000000 0.00000000000000000 0.00000000000000000 0.00000000000000000 1.00000000000000000 0.00000000000000000 
2 0.00000000000000000 0.00000000000000000 0.00000000000000000 0.00000000000000000 0.00000000000000000 1.00000000000000000 -1.00000000000000000 0.00000000000000000 0.00000000000000000 0.00000000000000000 1.00000000000000000 0.00000000000000000 3.00000000000000000
2 0.00000000000000000 0.00000000000000000 0.00000000000000000 0.00000000000000000 0.00000000000000000 1.00000000000000000 -1.00000000000000000 0.00000000000000000 0.00000000000000000 0.00000000000000000 1.00000000000000000 0.00000000000000000 3.00000000000000000
2 0.00000000000000000 0.00000000000000000 0.00000000000000000 0.00000000000000000 0.00000000000000000 1.00000000000000000 -1.00000000000000000 0.00000000000000000 0.00000000000000000 0.00000000000000000 1.00000000000000000 0.00000000000000000 3.00000000000000000
2 0.00000000000000000 0.00000000000000000 0.00000000000000000 0.00000000000000000 0.00000000000000000 1.00000000000000000 -1.00000000000000000 0.00000000000000000 0.00000000000000000 0.00000000000000000 1.00000000000000000 0.00000000000000000 3.00000000000000000
1 0.00000000000000000 0.00000000000000000 0.00000000000000000 -0.00000000000000000 -0.00000000000000000 -1.00000000000000000 -1.00000000000000000 0.00000000000000000 0.00000000000000000 0.00000000000000000 1.00000000000000000 0.00000000000000000 
2 15.50000000000000000 -15.50000000000000000 0.00000000000000000 -0.00000000000000000 -0.00000000000000000 -1.00000000000000000 1.00000000000000000 0.00000000000000000 0.00000000000000000 0.00000000000000000 1.00000000000000000 0.00000000000000000 1.50000000000000000
2 -15.50000000000000000 -15.50000000000000000 0.00000000000000000 -0.00000000000000000 -0.00000000000000000 -1.00000000000000000 1.00000000000000000 0.00000000000000000 0.00000000000000000 0.00000000000000000 1.00000000000000000 0.00000000000000000 1.50000000000000000
2 15.50000000000000000 15.50000000000000000 0.00000000000000000 -0.00000000000000000 -0.00000000000000000 -1.00000000000000000 1.00000000000000000 0.00000000000000000 0.00000000000000000 0.00000000000000000 1.00000000000000000 0.00000000000000000 1.50000000000000000
2 -15.50000000000000000 15.50000000000000000 0.00000000000000000 -0.00000000000000000 -0.00000000000000000 -1.00000000000000000 1.00000000000000000 0.00000000000000000 0.00000000000000000 0.00000000000000000 1.00000000000000000 0.00000000000000000 1.50000000000000000
1 -21.00000000000000000 -17.00000000000000000 0.00000000000000000 -1.00000000000000000 0.00000000000000000 0.00000000000000000 0.00000000000000000 1.00000000000000000 0.00000000000000000 0.00000000000000000 0.00000000000000000 -1.00000000000000000 
1 21.00000000000000000 17.00000000000000000 0.00000000000000000 1.00000000000000000 0.00000000000000000 0.00000000000000000 0.00000000000000000 -1.00000000000000000 0.00000000000000000 0.00000000000000000 0.00000000000000000 -1.00000000000000000 
1 -21.00000000000000000 -17.00000000000000000 0.00000000000000000 0.70710678118654757 0.70710678118654757 0.00000000000000000 0.70710678118654757 -0.70710678118654757 0.00000000000000000 0.00000000000000000 0.00000000000000000 -1.00000000000000000 
1 21.00000000000000000 -17.00000000000000000 0.00000000000000000 0.70710678118654757 -0.70710678118654757 0.00000000000000000 -0.70710678118654757 -0.70710678118654757 0.00000000000000000 0.00000000000000000 0.00000000000000000 -1.00000000000000000 
1 17.00000000000000000 -21.00000000000000000 0.00000000000000000 -0.00000000000000000 -1.00000000000000000 -0.00000000000000000 -1.00000000000000000 0.00000000000000000 0.00000000000000000 0.00000000000000000 0.00000000000000000 -1.00000000000000000 
1 0.00000000000000000 0.00000000000000000 3.00000000000000000 -0.00000000000000000 -0.00000000000000000 -1.00000000000000000 -1.00000000000000000 0.00000000000000000 0.00000000000000000 0.00000000000000000 1.00000000000000000 0.00000000000000000 
1 0.00000000000000000 0.00000000000000000 3.00000000000000000 -0.00000000000000000 -0.00000000000000000 -1.00000000000000000 -1.00000000000000000 0.00000000000000000 0.00000000000000000 0.00000000000000000 1.00000000000000000 0.00000000000000000 
1 0.00000000000000000 0.00000000000000000 3.00000000000000000 -0.00000000000000000 -0.00000000000000000 -1.00000000000000000 -1.00000000000000000 0.00000000000000000 0.00000000000000000 0.00000000000000000 1.00000000000000000 0.00000000000000000 
1 0.00000000000000000 0.00000000000000000 3.00000000000000000 -0.00000000000000000 -0.00000000000000000 -1.00000000000000000 -1.00000000000000000 0.00000000000000000 0.00000000000000000 0.00000000000000000 1.00000000000000000 0.00000000000000000 
Triangulations 0

TShapes 138
Ve
0.000100000000000
-17.000000000000000 21.000000000000000 0.000000000000000
0 0

0101101
*
Ve
0.000100000000000
-17.000000000000000 21.000000000000000 10.000000000000000
0 0

0101101
*
Ed
 0.000100000000000 1 1 0
1  1 0 0.000000000000000 10.000000000000000
0

0101000
+138 6 -137 6 *
Ve
0.000100000000000
17.000000000000000 21.000000000000000 0.000000000000000
0 0

0101101
*
Ve
0.000100000000000
17.000000000000000 21.000000000000000 10.000000000000000
0 0

0101101
*
Ed
 0.000100000000000 1 1 0
1  2 0 0.000000000000000 10.000000000000000
0

0101000
+135 6 -134 6 *
Ed
 0.000000100000000 1 1 0
1  3 0 4.000000000000000 38.000000000000000
0

0101000
+138 25 -135 25 *
Ed
 0.000000100000000 1 1 0
1  4 0 4.000000000000000 38.000000000000000
0

0101000
+137 28 -134 28 *
Wi

0101100
+136 0 -133 0 -132 24 +131 27 *
Fa
0  0.000000100000000 1 0

0111000
+130 0 *
Ve
0.000100000000000
-21.000000000000000 17.000000000000000 0.000000000000000
0 0

0101101
*
Ve
0.000100000000000
-21.000000000000000 17.000000000000000 10.000000000000000
0 0

0101101
*
Ed
 0.000100000000000 1 1 0
1  5 0 0.000000000000000 10.000000000000000
0

0101000
+128 6 -127 6 *
Ed
 0.000000100000000 1 1 0
1  6 0 -2.828427124746190 2.828427124746190
0

0101000
+138 30 -128 30 *
Ed
 0.000000100000000 1 1 0
1  7 0 -2.828427124746190 2.828427124746190
0

0101000
+137 32 -127 32 *
Wi

0101100
+136 0 -126 0 -125 29 +124 31 *
Fa
0  0.000000100000000 2 0

0111000
+123 0 *
Ve
0.000100000000000
21.000000000000000 17.000000000000000 0.000000000000000
0 0

0101101
*
Ve
0.000100000000000
21.000000000000000 17.000000000000000 10.000000000000000
0 0

0101101
*
Ed
 0.000100000000000 1 1 0
1  8 0 0.000000000000000 10.000000000000000
0

0101000
+121 6 -120 6 *
Ed
 0.000000100000000 1 1 0
1  9 0 -2.828427124746190 2.828427124746190
0

0101000
+135 30 -121 30 *
Ed
 0.000000100000000 1 1 0
1  10 0 -2.828427124746190 2.828427124746190
0

0101000
+134 32 -120 32 *
Wi

0101100
+133 0 -119 0 -118 29 +117 31 *
Fa
0  0.000000100000000 3 0

0111000
+116 0 *
Ve
0.000100000000000
-21.000000000000000 -17.000000000000000 0.000000000000000
0 0

0101101
*
Ed
 0.000000100000000 1 1 0
1  11 0 4.000000000000000 38.000000000000000
0

0101000
+114 25 -128 25 *
Ve
0.000100000000000
21.000000000000000 -17.000000000000000 0.000000000000000
0 0

0101101
*
Ed
 0.000000100000000 1 1 0
1  12 0 4.000000000000000 38.000000000000000
0

0101000
+121 25 -112 25 *
Ve
0.000100000000000
-17.000000000000000 -21.000000000000000 0.000000000000000
0 0

0101101
*
Ed
 0.000000100000000 1 1 0
1  13 0 -2.828427124746190 2.828427124746190
0

0101000
+114 30 -110 30 *
Ve
0.000100000000000
17.000000000000000 -21.000000000000000 0.000000000000000
0 0

0101101
*
Ed
 0.000000100000000 1 1 0
1  14 0 -2.828427124746190 2.828427124746190
0

0101000
+112 30 -108 30 *
Ed
 0.000000100000000 1 1 0
1  15 0 4.000000000000000 38.000000000000000
0

0101000
+108 25 -110 25 *
Wi

0101100
+132 34 -125 35 +118 35 +113 34 +111 34 -109 35 +107 35 +106 34 *
Ve
0.000000100000000
12.500000000000000 -15.500000000000000 0.000000000000000
0 0

0101101
*
Ed
 0.000000100000000 1 1 0
1  16 0 0.000000000000000 6.283185307179586
2  1 5 0 0.000000000000000 6.283185307179586
0

0101000
+104 37 -104 37 *
Wi

0101100
-103 36 *
Ve
0.000000100000000
-18.500000000000000 -15.500000000000000 0.000000000000000
0 0

0101101
*
Ed
 0.000000100000000 1 1 0
1  17 0 0.000000000000000 6.283185307179586
2  1 6 0 0.000000000000000 6.283185307179586
0

0101000
+101 39 -101 39 *
Wi

0101100
-100 38 *
Ve
0.000000100000000
12.500000000000000 15.500000000000000 0.000000000000000
0 0

0101101
*
Ed
 0.000000100000000 1 1 0
1  18 0 0.000000000000000 6.283185307179586
2  1 7 0 0.000000000000000 6.283185307179586
0

0101000
+98 41 -98 41 *
Wi

0101100
-97 40 *
Ve
0.000000100000000
-18.500000000000000 15.500000000000000 0.000000000000000
0 0

0101101
*
Ed
 0.000000100000000 1 1 0
1  19 0 0.000000000000000 6.283185307179586
2  1 8 0 0.000000000000000 6.283185307179586
0

0101000
+95 43 -95 43 *
Wi

0101100
-94 42 *
Fa
0  0.000000100000000 4 33

0111000
+105 0 +102 0 +99 0 +96 0 +93 0 *
Ve
0.000100000000000
-21.000000000000000 -17.000000000000000 10.000000000000000
0 0

0101101
*
Ed
 0.000000100000000 1 1 0
1  20 0 4.000000000000000 38.000000000000000
0

0101000
+91 28 -127 28 *
Ve
0.000100000000000
21.000000000000000 -17.000000000000000 10.000000000000000
0 0

0101101
*
Ed
 0.000000100000000 1 1 0
1  21 0 4.000000000000000 38.000000000000000
0

0101000
+120 28 -89 28 *
Ve
0.000100000000000
-17.000000000000000 -21.000000000000000 10.000000000000000
0 0

0101101
*
Ed
 0.000000100000000 1 1 0
1  22 0 -2.828427124746190 2.828427124746190
0

0101000
+91 32 -87 32 *
Ve
0.000100000000000
17.000000000000000 -21.000000000000000 10.000000000000000
0 0

0101101
*
Ed
 0.000000100000000 1 1 0
1  23 0 -2.828427124746190 2.828427124746190
0

0101000
+89 32 -85 32 *
Ed
 0.000000100000000 1 1 0
1  24 0 4.000000000000000 38.000000000000000
0

0101000
+85 28 -87 28 *
Wi

0101100
+131 47 -124 0 +117 0 +90 47 +88 47 -86 0 +84 0 +83 47 *
Ve
0.000000100000000
17.000000000000000 -15.500000000000000 10.000000000000000
0 0

0101101
*
Ed
 0.000000100000000 1 1 0
1  25 0 0.000000000000000 6.283185307179586
2  2 10 48 0.000000000000000 6.283185307179586
0

0101000
+81 49 -81 49 *
Wi

0101100
+80 0 *
Ve
0.000000100000000
-14.000000000000000 -15.500000000000000 10.000000000000000
0 0

0101101
*
Ed
 0.000000100000000 1 1 0
1  26 0 0.000000000000000 6.283185307179586
2  3 11 48 0.000000000000000 6.283185307179586
0

0101000
+78 49 -78 49 *
Wi

0101100
+77 0 *
Ve
0.000000100000000
17.000000000000000 15.500000000000000 10.000000000000000
0 0

0101101
*
Ed
 0.000000100000000 1 1 0
1  27 0 0.000000000000000 6.283185307179586
2  4 12 48 0.000000000000000 6.283185307179586
0

0101000
+75 49 -75 49 *
Wi

0101100
+74 0 *
Ve
0.000000100000000
-14.000000000000000 15.500000000000000 10.000000000000000
0 0

0101101
*
Ed
 0.000000100000000 1 1 0
1  28 0 0.000000000000000 6.283185307179586
2  5 13 48 0.000000000000000 6.283185307179586
0

0101000
+72 49 -72 49 *
Wi

0101100
+71 0 *
Fa
0  0.000000100000000 9 45

0111000
+82 46 +79 0 +76 0 +73 0 +70 0 *
Ed
 0.000100000000000 1 1 0
1  29 0 0.000000000000000 10.000000000000000
0

0101000
+114 6 -91 6 *
Wi

0101100
+68 0 -126 0 -113 24 +90 27 *
Fa
0  0.000000100000000 14 0

0111000
+67 0 *
Ed
 0.000100000000000 1 1 0
1  30 0 0.000000000000000 10.000000000000000
0

0101000
+112 6 -89 6 *
Wi

0101100
+119 0 -65 0 -111 24 +88 27 *
Fa
0  0.000000100000000 15 0

0111000
+64 0 *
Ed
 0.000100000000000 1 1 0
1  31 0 0.000000000000000 10.000000000000000
0

0101000
+110 6 -87 6 *
Wi

0101100
+68 0 -62 0 -109 29 +86 31 *
Fa
0  0.000000100000000 16 0

0111000
+61 0 *
Ed
 0.000100000000000 1 1 0
1  32 0 0.000000000000000 10.000000000000000
0

0101000
+108 6 -85 6 *
Wi

0101100
+65 0 -59 0 -107 29 +84 31 *
Fa
0  0.000000100000000 17 0

0111000
+58 0 *
Wi

0101100
+59 0 -62 0 -106 24 +83 27 *
Fa
0  0.000000100000000 18 0

0111000
+56 0 *
Ve
0.000000100000000
12.500000000000000 -15.500000000000000 3.000000000000000
0 0

0101101
*
Ed
 0.000000100000000 1 1 0
1  33 0 0.000000000000000 6.283185307179586
2  6 5 0 0.000000000000000 6.283185307179586
0

0101000
+54 37 -54 37 *
Ed
 0.000000100000000 1 1 0
1  34 0 0.000000000000000 3.000000000000000
3  7 8CN 5 0 0.000000000000000 3.000000000000000
0

0101000
+104 37 -54 37 *
Wi

0101100
+103 0 -53 0 -52 0 +52 0 *
Fa
0  0.000000100000000 5 0

0111000
+51 0 *
Ve
0.000000100000000
-18.500000000000000 -15.500000000000000 3.000000000000000
0 0

0101101
*
Ed
 0.000000100000000 1 1 0
1  35 0 0.000000000000000 6.283185307179586
2  6 6 0 0.000000000000000 6.283185307179586
0

0101000
+49 39 -49 39 *
Ed
 0.000000100000000 1 1 0
1  36 0 0.000000000000000 3.000000000000000
3  7 8CN 6 0 0.000000000000000 3.000000000000000
0

0101000
+101 39 -49 39 *
Wi

0101100
+100 0 -48 0 -47 0 +47 0 *
Fa
0  0.000000100000000 6 0

0111000
+46 0 *
Ve
0.000000100000000
12.500000000000000 15.500000000000000 3.000000000000000
0 0

0101101
*
Ed
 0.000000100000000 1 1 0
1  37 0 0.000000000000000 6.283185307179586
2  6 7 0 0.000000000000000 6.283185307179586
0

0101000
+44 41 -44 41 *
Ed
 0.000000100000000 1 1 0
1  38 0 0.000000000000000 3.000000000000000
3  7 8CN 7 0 0.000000000000000 3.000000000000000
0

0101000
+98 41 -44 41 *
Wi

0101100
+97 0 -43 0 -42 0 +42 0 *
Fa
0  0.000000100000000 7 0

0111000
+41 0 *
Ve
0.000000100000000
-18.500000000000000 15.500000000000000 3.000000000000000
0 0

0101101
*
Ed
 0.000000100000000 1 1 0
1  39 0 0.000000000000000 6.283185307179586
2  6 8 0 0.000000000000000 6.283185307179586
0

0101000
+39 43 -39 43 *
Ed
 0.000000100000000 1 1 0
1  40 0 0.000000000000000 3.000000000000000
3  7 8CN 8 0 0.000000000000000 3.000000000000000
0

0101000
+95 43 -39 43 *
Wi

0101100
+94 0 -38 0 -37 0 +37 0 *
Fa
0  0.000000100000000 8 0

0111000
+36 0 *
Ve
0.000000100000000
17.000000000000000 -15.500000000000000 3.000000000000000
0 0

0101101
*
Ed
 0.000000100000000 1 1 0
1  41 0 0.000000000000000 6.283185307179586
2  9 10 4 0.000000000000000 6.283185307179586
0

0101000
+34 50 -34 50 *
Ed
 0.000000100000000 1 1 0
1  42 0 3.000000000000000 10.000000000000000
3  10 11CN 10 0 3.000000000000000 10.000000000000000
0

0101000
+34 6 -81 6 *
Wi

0101100
+33 0 -32 4 +80 44 +32 4 *
Fa
0  0.000000100000000 10 4

0111000
+31 0 *
Ve
0.000000100000000
-14.000000000000000 -15.500000000000000 3.000000000000000
0 0

0101101
*
Ed
 0.000000100000000 1 1 0
1  43 0 0.000000000000000 6.283185307179586
2  12 11 4 0.000000000000000 6.283185307179586
0

0101000
+29 50 -29 50 *
Ed
 0.000000100000000 1 1 0
1  44 0 3.000000000000000 10.000000000000000
3  13 14CN 11 0 3.000000000000000 10.000000000000000
0

0101000
+29 6 -78 6 *
Wi

0101100
+28 0 -27 4 +77 44 +27 4 *
Fa
0  0.000000100000000 11 4

0111000
+26 0 *
Ve
0.000000100000000
17.000000000000000 15.500000000000000 3.000000000000000
0 0

0101101
*
Ed
 0.000000100000000 1 1 0
1  45 0 0.000000000000000 6.283185307179586
2  15 12 4 0.000000000000000 6.283185307179586
0

0101000
+24 50 -24 50 *
Ed
 0.000000100000000 1 1 0
1  46 0 3.000000000000000 10.000000000000000
3  16 17CN 12 0 3.000000000000000 10.000000000000000
0

0101000
+24 6 -75 6 *
Wi

0101100
+23 0 -22 4 +74 44 +22 4 *
Fa
0  0.000000100000000 12 4

0111000
+21 0 *
Ve
0.000000100000000
-14.000000000000000 15.500000000000000 3.000000000000000
0 0

0101101
*
Ed
 0.000000100000000 1 1 0
1  47 0 0.000000000000000 6.283185307179586
2  18 13 4 0.000000000000000 6.283185307179586
0

0101000
+19 50 -19 50 *
Ed
 0.000000100000000 1 1 0
1  48 0 3.000000000000000 10.000000000000000
3  19 20CN 13 0 3.000000000000000 10.000000000000000
0

0101000
+19 6 -72 6 *
Wi

0101100
+18 0 -17 4 +71 44 +17 4 *
Fa
0  0.000000100000000 13 4

0111000
+16 0 *
Wi

0101100
+53 36 *
Wi

0101100
-33 0 *
Fa
0  0.000000100000000 19 36

0111000
+14 0 +13 0 *
Wi

0101100
+48 38 *
Wi

0101100
-28 0 *
Fa
0  0.000000100000000 20 38

0111000
+11 0 +10 0 *
Wi

0101100
+43 40 *
Wi

0101100
-23 0 *
Fa
0  0.000000100000000 21 40

0111000
+8 0 +7 0 *
Wi

0101100
+38 42 *
Wi

0101100
-18 0 *
Fa
0  0.000000100000000 22 42

0111000
+5 0 +4 0 *
Sh

0101100
+129 4 -122 4 +115 4 +92 0 -69 44 +66 4 +63 4 -60 4 +57 4 +55 4 
+50 36 +45 38 +40 40 +35 42 +30 0 +25 0 +20 0 +15 0 +12 0 +9 0 
+6 0 +3 0 *
So

1100000
+2 0 *

+1 1 