
CASCADE Topology V1, (c) Matra-Datavision
Locations 58
1
1.000000000000000 0.000000000000000 0.000000000000000 0.000000000000000 
0.000000000000000 1.000000000000000 0.000000000000000 0.000000000000000 
0.000000000000000 0.000000000000000 1.000000000000000 0.000000000000000 
1
1.000000000000000 0.000000000000000 0.000000000000000 0.000000000000000 
0.000000000000000 0.000000000000000 -1.000000000000000 0.000000000000000 
0.000000000000000 1.000000000000000 0.000000000000000 0.000000000000000 
1
1.000000000000000 0.000000000000000 0.000000000000000 0.000000000000000 
0.000000000000000 1.000000000000000 0.000000000000000 0.000000000000000 
0.000000000000000 0.000000000000000 1.000000000000000 0.000000000000000 
1
1.000000000000000 0.000000000000000 0.000000000000000 0.000000000000000 
0.000000000000000 1.000000000000000 0.000000000000000 0.000000000000000 
0.000000000000000 0.000000000000000 1.000000000000000 0.000000000000000 
1
1.000000000000000 0.000000000000000 0.000000000000000 0.000000000000000 
0.000000000000000 1.000000000000000 0.000000000000000 0.000000000000000 
0.000000000000000 0.000000000000000 1.000000000000000 0.000000000000000 
1
1.000000000000000 0.000000000000000 0.000000000000000 0.000000000000000 
0.000000000000000 1.000000000000000 0.000000000000000 0.000000000000000 
0.000000000000000 0.000000000000000 1.000000000000000 0.000000000000000 
1
1.000000000000000 0.000000000000000 0.000000000000000 0.000000000000000 
0.000000000000000 1.000000000000000 0.000000000000000 0.000000000000000 
0.000000000000000 0.000000000000000 1.000000000000000 0.000000000000000 
1
1.000000000000000 0.000000000000000 0.000000000000000 0.000000000000000 
0.000000000000000 1.000000000000000 0.000000000000000 0.000000000000000 
0.000000000000000 0.000000000000000 1.000000000000000 0.000000000000000 
1
1.000000000000000 0.000000000000000 0.000000000000000 0.000000000000000 
0.000000000000000 1.000000000000000 0.000000000000000 0.000000000000000 
0.000000000000000 0.000000000000000 1.000000000000000 0.000000000000000 
1
1.000000000000000 0.000000000000000 0.000000000000000 -0.000000000000000 
0.000000000000000 1.000000000000000 0.000000000000000 -86.000000000000000 
0.000000000000000 0.000000000000000 1.000000000000000 0.000000000000019 
2  1 1 2 1 3 1 4 1 5 1 6 1 7 1 8 1 9 -1 10 1 0
1
1.000000000000000 0.000000000000000 0.000000000000000 0.000000000000000 
0.000000000000000 1.000000000000000 0.000000000000000 172.000000000000000 
0.000000000000000 0.000000000000000 1.000000000000000 -0.000000000000038 
2  1 1 2 1 3 1 4 1 5 1 6 1 7 1 8 1 9 -1 10 1 12 1 0
1
1.000000000000000 0.000000000000000 0.000000000000000 0.000000000000000 
0.000000000000000 1.000000000000000 0.000000000000000 0.000000000000000 
0.000000000000000 0.000000000000000 1.000000000000000 0.000000000000000 
1
1.000000000000000 0.000000000000000 0.000000000000000 0.000000000000000 
0.000000000000000 0.000000000000000 -1.000000000000000 0.000000000000000 
0.000000000000000 1.000000000000000 0.000000000000000 0.000000000000000 
1
1.000000000000000 0.000000000000000 0.000000000000000 0.000000000000000 
0.000000000000000 -0.000000000000000 -1.000000000000000 0.000000000000000 
0.000000000000000 1.000000000000000 -0.000000000000000 0.000000000000000 
1
1.000000000000000 0.000000000000000 0.000000000000000 0.000000000000000 
0.000000000000000 1.000000000000000 0.000000000000000 0.000000000000000 
0.000000000000000 0.000000000000000 1.000000000000000 0.000000000000000 
2  14 1 15 1 16 -1 17 1 1 1 2 1 3 1 4 1 5 1 6 1 7 1 8 1 9 -1 10 1 0
2  10 -1 9 1 8 -1 7 -1 6 -1 5 -1 4 -1 3 -1 2 -1 1 -1 17 -1 16 1 15 -1 14 -1 0
2  12 -1 10 -1 9 1 8 -1 7 -1 6 -1 5 -1 4 -1 3 -1 2 -1 1 -1 17 -1 16 1 15 -1 14 -1 0
2  17 -1 16 1 15 -1 14 -1 0
2  14 1 15 1 16 -1 17 1 1 1 2 1 3 1 4 1 5 1 6 1 7 1 8 1 9 -1 10 1 12 1 0
2  16 -1 17 1 0
1
1.000000000000000 0.000000000000000 0.000000000000000 0.000000000000000 
0.000000000000000 1.000000000000000 0.000000000000000 0.000000000000000 
0.000000000000000 0.000000000000000 1.000000000000000 0.000000000000000 
1
1.000000000000000 0.000000000000000 0.000000000000000 0.000000000000000 
0.000000000000000 1.000000000000000 0.000000000000000 0.000000000000000 
0.000000000000000 0.000000000000000 1.000000000000000 0.000000000000000 
2  24 1 25 -1 7 -1 6 -1 5 -1 4 -1 3 -1 2 -1 1 -1 0
1
1.000000000000000 0.000000000000000 0.000000000000000 0.000000000000000 
0.000000000000000 1.000000000000000 0.000000000000000 10.000000000000000 
0.000000000000000 0.000000000000000 1.000000000000000 -0.000000000000002 
2  27 -1 24 1 25 -1 7 -1 6 -1 5 -1 4 -1 3 -1 2 -1 1 -1 0
1
1.000000000000000 0.000000000000000 0.000000000000000 -0.000000000000000 
0.000000000000000 1.000000000000000 0.000000000000000 -5.000000000000000 
0.000000000000000 0.000000000000000 1.000000000000000 0.000000000000001 
1
1.000000000000000 0.000000000000000 0.000000000000000 0.000000000000000 
0.000000000000000 1.000000000000000 0.000000000000000 0.000000000000000 
0.000000000000000 0.000000000000000 1.000000000000000 0.000000000000000 
1
1.000000000000000 0.000000000000000 0.000000000000000 0.000000000000000 
0.000000000000000 1.000000000000000 0.000000000000000 0.000000000000000 
0.000000000000000 0.000000000000000 1.000000000000000 0.000000000000000 
2  29 -1 30 1 31 -1 7 -1 6 -1 5 -1 4 -1 3 -1 2 -1 1 -1 0
1
1.000000000000000 0.000000000000000 0.000000000000000 0.000000000000000 
0.000000000000000 1.000000000000000 0.000000000000000 10.000000000000000 
0.000000000000000 0.000000000000000 1.000000000000000 -0.000000000000002 
2  33 -1 29 -1 30 1 31 -1 7 -1 6 -1 5 -1 4 -1 3 -1 2 -1 1 -1 0
1
1.000000000000000 0.000000000000000 0.000000000000000 -0.000000000000000 
0.000000000000000 1.000000000000000 0.000000000000000 -86.000000000000000 
0.000000000000000 0.000000000000000 1.000000000000000 0.000000000000019 
1
1.000000000000000 0.000000000000000 0.000000000000000 0.000000000000000 
0.000000000000000 1.000000000000000 0.000000000000000 0.000000000000000 
0.000000000000000 0.000000000000000 1.000000000000000 0.000000000000000 
1
1.000000000000000 0.000000000000000 0.000000000000000 0.000000000000000 
0.000000000000000 1.000000000000000 0.000000000000000 0.000000000000000 
0.000000000000000 0.000000000000000 1.000000000000000 0.000000000000000 
2  35 -1 36 1 37 -1 7 -1 6 -1 5 -1 4 -1 3 -1 2 -1 1 -1 0
1
1.000000000000000 0.000000000000000 0.000000000000000 0.000000000000000 
0.000000000000000 1.000000000000000 0.000000000000000 172.000000000000000 
0.000000000000000 0.000000000000000 1.000000000000000 -0.000000000000038 
2  39 -1 35 -1 36 1 37 -1 7 -1 6 -1 5 -1 4 -1 3 -1 2 -1 1 -1 0
1
1.000000000000000 0.000000000000000 0.000000000000000 -0.000000000000000 
0.000000000000000 1.000000000000000 0.000000000000000 -86.000000000000000 
0.000000000000000 0.000000000000000 1.000000000000000 0.000000000000019 
1
1.000000000000000 0.000000000000000 0.000000000000000 0.000000000000000 
0.000000000000000 1.000000000000000 0.000000000000000 0.000000000000000 
0.000000000000000 0.000000000000000 1.000000000000000 0.000000000000000 
1
1.000000000000000 0.000000000000000 0.000000000000000 0.000000000000000 
0.000000000000000 1.000000000000000 0.000000000000000 0.000000000000000 
0.000000000000000 0.000000000000000 1.000000000000000 0.000000000000000 
2  41 -1 42 1 43 -1 7 -1 6 -1 5 -1 4 -1 3 -1 2 -1 1 -1 0
1
1.000000000000000 0.000000000000000 0.000000000000000 0.000000000000000 
0.000000000000000 1.000000000000000 0.000000000000000 172.000000000000000 
0.000000000000000 0.000000000000000 1.000000000000000 -0.000000000000038 
2  45 -1 41 -1 42 1 43 -1 7 -1 6 -1 5 -1 4 -1 3 -1 2 -1 1 -1 0
1
1.000000000000000 0.000000000000000 0.000000000000000 -0.000000000000000 
0.000000000000000 1.000000000000000 0.000000000000000 -86.000000000000000 
0.000000000000000 0.000000000000000 1.000000000000000 0.000000000000019 
1
1.000000000000000 0.000000000000000 0.000000000000000 0.000000000000000 
0.000000000000000 1.000000000000000 0.000000000000000 0.000000000000000 
0.000000000000000 0.000000000000000 1.000000000000000 0.000000000000000 
1
1.000000000000000 0.000000000000000 0.000000000000000 0.000000000000000 
0.000000000000000 1.000000000000000 0.000000000000000 0.000000000000000 
0.000000000000000 0.000000000000000 1.000000000000000 0.000000000000000 
2  47 -1 48 1 49 -1 7 -1 6 -1 5 -1 4 -1 3 -1 2 -1 1 -1 0
1
1.000000000000000 0.000000000000000 0.000000000000000 0.000000000000000 
0.000000000000000 1.000000000000000 0.000000000000000 172.000000000000000 
0.000000000000000 0.000000000000000 1.000000000000000 -0.000000000000038 
2  51 -1 47 -1 48 1 49 -1 7 -1 6 -1 5 -1 4 -1 3 -1 2 -1 1 -1 0
2  10 -1 9 1 8 -1 7 -1 6 -1 5 -1 4 -1 3 -1 2 -1 1 -1 0
2  12 -1 10 -1 9 1 8 -1 7 -1 6 -1 5 -1 4 -1 3 -1 2 -1 1 -1 0
2  16 -1 17 1 1 1 2 1 3 1 4 1 5 1 6 1 7 1 8 1 9 -1 10 1 0
2  17 -1 16 1 0
2  14 1 15 1 16 -1 17 1 0
2  16 -1 17 1 1 1 2 1 3 1 4 1 5 1 6 1 7 1 8 1 9 -1 10 1 12 1 0
Curve2ds 112
1 0.00000000000000000 0.00000000000000000 0.00000000000000000 -1.00000000000000000 
1 0.00000000000000000 0.00000000000000000 0.00000000000000000 -1.00000000000000000 
1 -0.00000000000000100 0.00000000000000000 0.00000000000000000 -1.00000000000000000 
1 23.39999999999999858 0.00000000000000000 0.00000000000000000 -1.00000000000000000 
1 -1.00000000000000000 0.00000000000000000 1.00000000000000000 0.00000000000000000 
1 -1.00000000000000000 -172.00000000000000000 1.00000000000000000 0.00000000000000000 
1 1.57079632679489589 0.00000000000000000 0.00000000000000000 -1.00000000000000000 
1 0.00000000000000000 -0.00000000000000000 1.00000000000000000 0.00000000000000000 
2 -6.83828125000251763 16.56171874999748184 -1.00000000000000000 0.00000000000000000 0.00000000000000000 1.00000000000000000 1.00000000000000000
1 0.00000000000000000 0.00000000000000000 1.00000000000000000 0.00000000000000000 
1 0.00000000000000000 -10.00000000000000000 1.00000000000000000 0.00000000000000000 
1 0.00000000000000000 0.00000000000000000 1.00000000000000000 0.00000000000000000 
1 0.00000000000000000 -10.00000000000000000 1.00000000000000000 0.00000000000000000 
1 0.00000000000000000 0.00000000000000000 1.00000000000000000 0.00000000000000000 
1 0.00000000000000000 -172.00000000000000000 1.00000000000000000 0.00000000000000000 
1 0.00000000000000000 0.00000000000000000 1.00000000000000000 0.00000000000000000 
1 0.00000000000000000 -172.00000000000000000 1.00000000000000000 0.00000000000000000 
1 0.00000000000000000 0.00000000000000000 1.00000000000000000 0.00000000000000000 
1 0.00000000000000000 -172.00000000000000000 1.00000000000000000 0.00000000000000000 
1 0.00000000000000000 0.00000000000000000 1.00000000000000000 0.00000000000000000 
1 0.00000000000000000 -172.00000000000000000 1.00000000000000000 0.00000000000000000 
1 1.57079632679489700 0.00000000000000000 0.00000000000000000 -1.00000000000000000 
1 0.00000000000000000 0.00000000000000000 -0.00000000000000022 -1.00000000000000000 
1 0.00000000000000089 0.00000000000000000 1.00000000000000000 0.00000000000000000 
2 -6.83828125000251763 -6.83828125000251763 -1.00000000000000000 0.00000000000000000 -0.00000000000000000 -1.00000000000000000 1.00000000000000000
1 0.00000000000000000 0.00000000000000000 1.00000000000000000 0.00000000000000000 
1 0.00000000000000000 -10.00000000000000000 1.00000000000000000 0.00000000000000000 
1 0.00000000000000000 0.00000000000000000 1.00000000000000000 0.00000000000000000 
1 0.00000000000000000 -10.00000000000000000 1.00000000000000000 0.00000000000000000 
1 0.00000000000000000 0.00000000000000000 1.00000000000000000 0.00000000000000000 
1 0.00000000000000000 -172.00000000000000000 1.00000000000000000 0.00000000000000000 
1 0.00000000000000000 0.00000000000000000 1.00000000000000000 0.00000000000000000 
1 0.00000000000000000 -172.00000000000000000 1.00000000000000000 0.00000000000000000 
1 0.00000000000000000 0.00000000000000000 1.00000000000000000 0.00000000000000000 
1 0.00000000000000000 -172.00000000000000000 1.00000000000000000 0.00000000000000000 
1 0.00000000000000000 0.00000000000000000 1.00000000000000000 0.00000000000000000 
1 0.00000000000000000 -172.00000000000000000 1.00000000000000000 0.00000000000000000 
1 4.71238898038468967 0.00000000000000000 0.00000000000000000 -1.00000000000000000 
1 1.57079632679489700 0.00000000000000000 0.00000000000000000 -1.00000000000000000 
1 23.39999999999999858 -0.00000000000001421 -0.00000000000000022 -1.00000000000000000 
1 -1.00000000000000000 -0.00000000000000000 1.00000000000000000 0.00000000000000000 
1 -1.00000000000003775 -172.00000000000000000 1.00000000000000000 0.00000000000000000 
1 3.14159265358979312 0.00000000000000000 0.00000000000000000 -1.00000000000000000 
1 20.22499999999999787 0.00000000000000000 0.00000000000000000 -1.00000000000000000 
1 -3.14159265358979312 -0.00000000000000000 1.00000000000000000 0.00000000000000000 
2 -5.66328124999100435 16.56171874999748184 -1.00000000000000000 0.00000000000000000 -0.00000000000000000 -1.00000000000000000 1.00000000000000000
1 0.00000000000000000 0.00000000000000000 1.00000000000000000 0.00000000000000000 
1 0.00000000000000000 -10.00000000000000000 1.00000000000000000 0.00000000000000000 
1 0.00000000000000000 0.00000000000000000 1.00000000000000000 0.00000000000000000 
1 0.00000000000000000 -10.00000000000000000 1.00000000000000000 0.00000000000000000 
1 0.00000000000000000 0.00000000000000000 1.00000000000000000 0.00000000000000000 
1 0.00000000000000000 -172.00000000000000000 1.00000000000000000 0.00000000000000000 
1 0.00000000000000000 0.00000000000000000 1.00000000000000000 0.00000000000000000 
1 0.00000000000000000 -172.00000000000000000 1.00000000000000000 0.00000000000000000 
1 0.00000000000000000 0.00000000000000000 1.00000000000000000 0.00000000000000000 
1 0.00000000000000000 -172.00000000000000000 1.00000000000000000 0.00000000000000000 
1 0.00000000000000000 0.00000000000000000 1.00000000000000000 0.00000000000000000 
1 0.00000000000000000 -172.00000000000000000 1.00000000000000000 0.00000000000000000 
1 3.14159265358979312 0.00000000000000000 0.00000000000000000 -1.00000000000000000 
1 -1.57079632679489656 0.00000000000000000 1.00000000000000000 0.00000000000000000 
2 16.56171874999748184 -6.83828125000251763 -1.00000000000000000 0.00000000000000000 -0.00000000000000000 -1.00000000000000000 1.00000000000000000
1 0.00000000000000000 0.00000000000000000 1.00000000000000000 0.00000000000000000 
1 0.00000000000000000 -10.00000000000000000 1.00000000000000000 0.00000000000000000 
1 0.00000000000000000 0.00000000000000000 1.00000000000000000 0.00000000000000000 
1 0.00000000000000000 -10.00000000000000000 1.00000000000000000 0.00000000000000000 
1 0.00000000000000000 0.00000000000000000 1.00000000000000000 0.00000000000000000 
1 0.00000000000000000 -172.00000000000000000 1.00000000000000000 0.00000000000000000 
1 0.00000000000000000 0.00000000000000000 1.00000000000000000 0.00000000000000000 
1 0.00000000000000000 -172.00000000000000000 1.00000000000000000 0.00000000000000000 
1 0.00000000000000000 0.00000000000000000 1.00000000000000000 0.00000000000000000 
1 0.00000000000000000 -172.00000000000000000 1.00000000000000000 0.00000000000000000 
1 0.00000000000000000 0.00000000000000000 1.00000000000000000 0.00000000000000000 
1 0.00000000000000000 -172.00000000000000000 1.00000000000000000 0.00000000000000000 
1 6.28318530717958623 0.00000000000000000 0.00000000000000000 -1.00000000000000000 
1 0.00000000000000000 0.00000000000000000 0.00000000000000000 -1.00000000000000000 
1 -1.00000000000000000 0.00000000000000000 1.00000000000000000 0.00000000000000000 
1 -1.00000000000000000 -172.00000000000000000 1.00000000000000000 0.00000000000000000 
1 3.14159265358979312 0.00000000000000000 0.00000000000000000 -1.00000000000000000 
1 4.71238898038468879 0.00000000000000000 0.00000000000000000 -1.00000000000000000 
1 20.22499999998848352 0.00000000000000000 0.00000000000000022 -1.00000000000000000 
1 -4.71238898038468879 0.00000000000000000 1.00000000000000000 0.00000000000000000 
2 -3.66328124999100346 -3.66328125000251781 -1.00000000000000000 0.00000000000000000 0.00000000000000000 1.00000000000000000 1.00000000000000000
1 0.00000000000000000 0.00000000000000000 1.00000000000000000 0.00000000000000000 
1 0.00000000000000000 -10.00000000000000000 1.00000000000000000 0.00000000000000000 
1 0.00000000000000000 0.00000000000000000 1.00000000000000000 0.00000000000000000 
1 0.00000000000000000 -10.00000000000000000 1.00000000000000000 0.00000000000000000 
1 0.00000000000000000 0.00000000000000000 1.00000000000000000 0.00000000000000000 
1 0.00000000000000000 -172.00000000000000000 1.00000000000000000 0.00000000000000000 
1 0.00000000000000000 0.00000000000000000 1.00000000000000000 0.00000000000000000 
1 0.00000000000000000 -172.00000000000000000 1.00000000000000000 0.00000000000000000 
1 0.00000000000000000 0.00000000000000000 1.00000000000000000 0.00000000000000000 
1 0.00000000000000000 -172.00000000000000000 1.00000000000000000 0.00000000000000000 
1 0.00000000000000000 0.00000000000000000 1.00000000000000000 0.00000000000000000 
1 0.00000000000000000 -172.00000000000000000 1.00000000000000000 0.00000000000000000 
1 4.71238898038468967 0.00000000000000000 0.00000000000000000 -1.00000000000000000 
1 0.00000000000000000 -0.00000000000001421 0.00000000000000022 -1.00000000000000000 
1 -3.14159265358979312 0.00000000000000000 1.00000000000000000 0.00000000000000000 
2 16.56171874999748184 -5.66328125000251781 -1.00000000000000000 0.00000000000000000 -0.00000000000000000 -1.00000000000000000 1.00000000000000000
1 0.00000000000000000 0.00000000000000000 1.00000000000000000 0.00000000000000000 
1 0.00000000000000000 -10.00000000000000000 1.00000000000000000 0.00000000000000000 
1 0.00000000000000000 0.00000000000000000 1.00000000000000000 0.00000000000000000 
1 0.00000000000000000 -10.00000000000000000 1.00000000000000000 0.00000000000000000 
1 0.00000000000000000 0.00000000000000000 1.00000000000000000 0.00000000000000000 
1 0.00000000000000000 -172.00000000000000000 1.00000000000000000 0.00000000000000000 
1 0.00000000000000000 0.00000000000000000 1.00000000000000000 0.00000000000000000 
1 0.00000000000000000 -172.00000000000000000 1.00000000000000000 0.00000000000000000 
1 0.00000000000000000 0.00000000000000000 1.00000000000000000 0.00000000000000000 
1 0.00000000000000000 -172.00000000000000000 1.00000000000000000 0.00000000000000000 
1 0.00000000000000000 0.00000000000000000 1.00000000000000000 0.00000000000000000 
1 0.00000000000000000 -172.00000000000000000 1.00000000000000000 0.00000000000000000 
1 -1.00000000000000000 -0.00000000000000000 1.00000000000000000 0.00000000000000000 
1 -0.99999999999996447 -172.00000000000000000 1.00000000000000000 0.00000000000000000 
Curves 24
1 24.39999999999999858 -86.00000000000000000 0.00000000000001892 0.00000000000000000 1.00000000000000000 -0.00000000000000022 
1 1.00000000000000000 -86.00000000000000000 0.00000000000001892 0.00000000000000000 1.00000000000000000 -0.00000000000000022 
1 25.39999999999999858 0.00000000000000000 0.00000000000000000 -1.00000000000000000 0.00000000000000000 0.00000000000000000 
1 25.39999999999999858 -86.00000000000000000 1.00000000000001887 0.00000000000000000 1.00000000000000000 -0.00000000000000022 
8 0.00000000000000000 1.57079632679489611
2 24.39999999999999858 0.99999999999999978 -0.00000000000000044 0.00000000000000000 0.00000000000000044 1.00000000000000000 0.00000000000000000 -1.00000000000000000 0.00000000000000044 1.00000000000000000 0.00000000000000000 -0.00000000000000000 1.00000000000000000
1 0.00000000000000000 -86.00000000000000000 1.00000000000001887 0.00000000000000000 1.00000000000000000 -0.00000000000000022 
8 -0.00000000000000089 1.57079632679489656
2 0.99999999999999978 0.99999999999999978 -0.00000000000000044 -0.00000000000000000 -0.00000000000000044 -1.00000000000000000 0.00000000000000000 -1.00000000000000000 0.00000000000000044 -1.00000000000000000 0.00000000000000000 0.00000000000000000 1.00000000000000000
1 25.39999999999999858 -86.00000000000000000 2.17500000001153193 0.00000000000000000 1.00000000000000000 -0.00000000000000022 
1 25.39999999999999858 3.17500000001151328 0.00000000000000000 0.00000000000000000 -1.00000000000000000 0.00000000000000000 
1 0.00000000000000000 -85.99999999999998579 24.40000000000001634 0.00000000000000000 1.00000000000000000 -0.00000000000000022 
1 0.00000000000000000 0.00000000000000000 0.00000000000000000 0.00000000000000000 1.00000000000000000 0.00000000000000000 
1 24.39999999999999858 -86.00000000000000000 3.17500000001153193 0.00000000000000000 1.00000000000000000 -0.00000000000000022 
8 3.14159265358979312 4.71238898038468967
2 24.39999999999999858 2.17500000001151328 -0.00000000000000097 -0.00000000000000000 -0.00000000000000044 -1.00000000000000000 0.00000000000000000 -1.00000000000000000 0.00000000000000044 -1.00000000000000000 0.00000000000000000 0.00000000000000000 1.00000000000000000
1 1.00000000000000000 -85.99999999999998579 25.40000000000001634 0.00000000000000000 1.00000000000000000 -0.00000000000000022 
8 1.57079632679489656 3.14159265358979312
2 0.99999999999999978 24.39999999999999858 -0.00000000000001084 -0.00000000000000000 -0.00000000000000044 -1.00000000000000000 0.00000000000000000 -1.00000000000000000 0.00000000000000044 -1.00000000000000000 0.00000000000000000 0.00000000000000000 1.00000000000000000
1 4.17499999999999982 -86.00000000000000000 3.17500000001153326 0.00000000000000000 1.00000000000000000 -0.00000000000000022 
1 3.17499999999999982 3.17500000001151328 0.00000000000000000 1.00000000000000000 0.00000000000000000 0.00000000000000000 
1 2.17499999999999982 -85.99999999999998579 25.40000000000001634 0.00000000000000000 1.00000000000000000 -0.00000000000000022 
1 0.00000000000000000 25.39999999999999858 0.00000000000000000 1.00000000000000000 0.00000000000000000 0.00000000000000000 
1 3.17499999999999982 -86.00000000000000000 4.17500000001153282 0.00000000000000000 1.00000000000000000 -0.00000000000000022 
8 4.71238898038468879 6.28318530717958623
2 4.17499999999999982 4.17500000001151417 -0.00000000000000185 0.00000000000000000 0.00000000000000044 1.00000000000000000 0.00000000000000000 -1.00000000000000000 0.00000000000000044 1.00000000000000000 0.00000000000000000 -0.00000000000000000 1.00000000000000000
1 3.17499999999999982 -85.99999999999998579 24.40000000000001634 0.00000000000000000 1.00000000000000000 -0.00000000000000022 
8 3.14159265358979312 4.71238898038468967
2 2.17499999999999982 24.39999999999999858 -0.00000000000001084 -0.00000000000000000 -0.00000000000000044 -1.00000000000000000 0.00000000000000000 -1.00000000000000000 0.00000000000000044 -1.00000000000000000 0.00000000000000000 0.00000000000000000 1.00000000000000000
1 3.17499999999999982 25.39999999999999858 0.00000000000000000 0.00000000000000000 -1.00000000000000000 0.00000000000000000 
Polygon3D 0
PolygonOnTriangulations 0
Surfaces 49
1 24.39999999999999858 -86.00000000000000000 0.00000000000001892 0.00000000000000000 0.00000000000000022 1.00000000000000000 -1.00000000000000000 0.00000000000000000 0.00000000000000000 0.00000000000000000 -1.00000000000000000 0.00000000000000022 
2 24.39999999999999858 -86.00000000000000000 1.00000000000001865 0.00000000000000000 -1.00000000000000000 0.00000000000000044 0.00000000000000000 -0.00000000000000044 -1.00000000000000000 1.00000000000000000 0.00000000000000000 0.00000000000000000 1.00000000000000000
2 0.99999999999999978 -86.00000000000000000 1.00000000000001865 -0.00000000000000000 -1.00000000000000000 0.00000000000000044 0.00000000000000000 -0.00000000000000044 -1.00000000000000000 -1.00000000000000000 -0.00000000000000000 -0.00000000000000000 1.00000000000000000
1 25.39999999999999858 -86.00000000000000000 2.17500000001153238 -1.00000000000000000 0.00000000000000000 0.00000000000000000 0.00000000000000000 0.00000000000000000 -1.00000000000000000 -0.00000000000000000 -1.00000000000000000 -0.00000000000000000 
2 24.39999999999999858 0.99999999999999978 -0.00000000000000044 0.00000000000000000 0.00000000000000044 1.00000000000000000 0.00000000000000000 -1.00000000000000000 0.00000000000000044 1.00000000000000000 0.00000000000000000 -0.00000000000000000 1.00000000000000000
1 7.83828125000251763 0.00000000000000174 7.83828125000251763 -0.00000000000000000 1.00000000000000000 -0.00000000000000022 0.00000000000000000 0.00000000000000022 1.00000000000000000 1.00000000000000000 0.00000000000000000 -0.00000000000000000 
2 24.39999999999999858 0.00000000000000044 0.99999999999999978 0.00000000000000000 -1.00000000000000000 0.00000000000000044 0.00000000000000000 -0.00000000000000044 -1.00000000000000000 1.00000000000000000 0.00000000000000000 0.00000000000000000 1.00000000000000000
2 24.39999999999999858 -5.00000000000000000 1.00000000000000089 0.00000000000000000 -1.00000000000000000 0.00000000000000044 0.00000000000000000 -0.00000000000000044 -1.00000000000000000 1.00000000000000000 0.00000000000000000 0.00000000000000000 1.00000000000000000
2 24.39999999999999858 -86.00000000000000000 1.00000000000001865 0.00000000000000000 -1.00000000000000000 0.00000000000000044 0.00000000000000000 -0.00000000000000044 -1.00000000000000000 1.00000000000000000 0.00000000000000000 0.00000000000000000 1.00000000000000000
2 24.39999999999999858 -86.00000000000000000 1.00000000000001865 0.00000000000000000 -1.00000000000000000 0.00000000000000044 0.00000000000000000 -0.00000000000000044 -1.00000000000000000 1.00000000000000000 0.00000000000000000 0.00000000000000000 1.00000000000000000
2 24.39999999999999858 -86.00000000000000000 1.00000000000001865 0.00000000000000000 -1.00000000000000000 0.00000000000000044 0.00000000000000000 -0.00000000000000044 -1.00000000000000000 1.00000000000000000 0.00000000000000000 0.00000000000000000 1.00000000000000000
1 0.00000000000000000 -86.00000000000000000 1.00000000000001887 1.00000000000000000 -0.00000000000000000 0.00000000000000000 0.00000000000000000 0.00000000000000000 1.00000000000000000 -0.00000000000000000 -1.00000000000000000 0.00000000000000000 
2 0.99999999999999978 0.99999999999999978 -0.00000000000000044 0.00000000000000000 0.00000000000000044 1.00000000000000000 0.00000000000000000 -1.00000000000000000 0.00000000000000044 -1.00000000000000000 -0.00000000000000000 0.00000000000000000 1.00000000000000000
2 0.99999999999999978 0.00000000000000044 0.99999999999999978 -0.00000000000000000 -1.00000000000000000 0.00000000000000044 0.00000000000000000 -0.00000000000000044 -1.00000000000000000 -1.00000000000000000 -0.00000000000000000 -0.00000000000000000 1.00000000000000000
2 0.99999999999999978 -5.00000000000000000 1.00000000000000089 -0.00000000000000000 -1.00000000000000000 0.00000000000000044 0.00000000000000000 -0.00000000000000044 -1.00000000000000000 -1.00000000000000000 -0.00000000000000000 -0.00000000000000000 1.00000000000000000
2 0.99999999999999978 -86.00000000000000000 1.00000000000001865 -0.00000000000000000 -1.00000000000000000 0.00000000000000044 0.00000000000000000 -0.00000000000000044 -1.00000000000000000 -1.00000000000000000 -0.00000000000000000 -0.00000000000000000 1.00000000000000000
2 0.99999999999999978 -86.00000000000000000 1.00000000000001865 -0.00000000000000000 -1.00000000000000000 0.00000000000000044 0.00000000000000000 -0.00000000000000044 -1.00000000000000000 -1.00000000000000000 -0.00000000000000000 -0.00000000000000000 1.00000000000000000
2 0.99999999999999978 -86.00000000000000000 1.00000000000001865 -0.00000000000000000 -1.00000000000000000 0.00000000000000044 0.00000000000000000 -0.00000000000000044 -1.00000000000000000 -1.00000000000000000 -0.00000000000000000 -0.00000000000000000 1.00000000000000000
2 24.39999999999999858 -86.00000000000000000 2.17500000001153238 -0.00000000000000000 -1.00000000000000000 0.00000000000000044 0.00000000000000000 -0.00000000000000044 -1.00000000000000000 -1.00000000000000000 -0.00000000000000000 -0.00000000000000000 1.00000000000000000
2 0.99999999999999978 -85.99999999999998579 24.40000000000001634 -0.00000000000000000 -1.00000000000000000 0.00000000000000044 0.00000000000000000 -0.00000000000000044 -1.00000000000000000 -1.00000000000000000 -0.00000000000000000 -0.00000000000000000 1.00000000000000000
1 4.17499999999999982 -86.00000000000000000 3.17500000001153238 0.00000000000000000 -0.00000000000000022 -1.00000000000000000 1.00000000000000000 0.00000000000000000 0.00000000000000000 0.00000000000000000 -1.00000000000000000 0.00000000000000022 
2 24.39999999999999858 2.17500000001151328 -0.00000000000000097 0.00000000000000000 0.00000000000000044 1.00000000000000000 0.00000000000000000 1.00000000000000000 -0.00000000000000044 1.00000000000000000 -0.00000000000000000 -0.00000000000000000 1.00000000000000000
2 24.39999999999999858 0.00000000000000097 2.17500000001151328 -0.00000000000000000 -1.00000000000000000 0.00000000000000044 0.00000000000000000 -0.00000000000000044 -1.00000000000000000 -1.00000000000000000 -0.00000000000000000 -0.00000000000000000 1.00000000000000000
2 24.39999999999999858 -4.99999999999999911 2.17500000001151417 -0.00000000000000000 -1.00000000000000000 0.00000000000000044 0.00000000000000000 -0.00000000000000044 -1.00000000000000000 -1.00000000000000000 -0.00000000000000000 -0.00000000000000000 1.00000000000000000
2 24.39999999999999858 -86.00000000000000000 2.17500000001153238 -0.00000000000000000 -1.00000000000000000 0.00000000000000044 0.00000000000000000 -0.00000000000000044 -1.00000000000000000 -1.00000000000000000 -0.00000000000000000 -0.00000000000000000 1.00000000000000000
2 24.39999999999999858 -86.00000000000000000 2.17500000001153238 -0.00000000000000000 -1.00000000000000000 0.00000000000000044 0.00000000000000000 -0.00000000000000044 -1.00000000000000000 -1.00000000000000000 -0.00000000000000000 -0.00000000000000000 1.00000000000000000
2 24.39999999999999858 -86.00000000000000000 2.17500000001153238 -0.00000000000000000 -1.00000000000000000 0.00000000000000044 0.00000000000000000 -0.00000000000000044 -1.00000000000000000 -1.00000000000000000 -0.00000000000000000 -0.00000000000000000 1.00000000000000000
1 1.00000000000000000 -86.00000000000000000 25.40000000000001634 0.00000000000000000 -0.00000000000000022 -1.00000000000000000 1.00000000000000000 0.00000000000000000 0.00000000000000000 0.00000000000000000 -1.00000000000000000 0.00000000000000022 
2 0.99999999999999978 24.39999999999999858 -0.00000000000001084 0.00000000000000000 0.00000000000000044 1.00000000000000000 -1.00000000000000000 0.00000000000000000 0.00000000000000000 -0.00000000000000000 1.00000000000000000 -0.00000000000000044 1.00000000000000000
2 0.99999999999999978 0.00000000000001084 24.39999999999999858 -0.00000000000000000 -1.00000000000000000 0.00000000000000044 0.00000000000000000 -0.00000000000000044 -1.00000000000000000 -1.00000000000000000 -0.00000000000000000 -0.00000000000000000 1.00000000000000000
2 0.99999999999999978 -4.99999999999998934 24.39999999999999858 -0.00000000000000000 -1.00000000000000000 0.00000000000000044 0.00000000000000000 -0.00000000000000044 -1.00000000000000000 -1.00000000000000000 -0.00000000000000000 -0.00000000000000000 1.00000000000000000
2 0.99999999999999978 -85.99999999999998579 24.40000000000001634 -0.00000000000000000 -1.00000000000000000 0.00000000000000044 0.00000000000000000 -0.00000000000000044 -1.00000000000000000 -1.00000000000000000 -0.00000000000000000 -0.00000000000000000 1.00000000000000000
2 0.99999999999999978 -85.99999999999998579 24.40000000000001634 -0.00000000000000000 -1.00000000000000000 0.00000000000000044 0.00000000000000000 -0.00000000000000044 -1.00000000000000000 -1.00000000000000000 -0.00000000000000000 -0.00000000000000000 1.00000000000000000
2 0.99999999999999978 -85.99999999999998579 24.40000000000001634 -0.00000000000000000 -1.00000000000000000 0.00000000000000044 0.00000000000000000 -0.00000000000000044 -1.00000000000000000 -1.00000000000000000 -0.00000000000000000 -0.00000000000000000 1.00000000000000000
2 4.17499999999999982 -86.00000000000000000 4.17500000001153282 0.00000000000000000 -1.00000000000000000 0.00000000000000044 0.00000000000000000 -0.00000000000000044 -1.00000000000000000 1.00000000000000000 0.00000000000000000 0.00000000000000000 1.00000000000000000
2 2.17499999999999982 -85.99999999999998579 24.40000000000001634 -0.00000000000000000 -1.00000000000000000 0.00000000000000044 0.00000000000000000 -0.00000000000000044 -1.00000000000000000 -1.00000000000000000 -0.00000000000000000 -0.00000000000000000 1.00000000000000000
1 3.17499999999999982 -86.00000000000000000 24.40000000000001634 -1.00000000000000000 0.00000000000000000 0.00000000000000000 0.00000000000000000 0.00000000000000000 -1.00000000000000000 -0.00000000000000000 -1.00000000000000000 -0.00000000000000000 
2 4.17499999999999982 4.17500000001151417 -0.00000000000000185 0.00000000000000000 0.00000000000000044 1.00000000000000000 -1.00000000000000000 0.00000000000000000 0.00000000000000000 0.00000000000000000 -1.00000000000000000 0.00000000000000044 1.00000000000000000
2 4.17499999999999982 0.00000000000000185 4.17500000001151417 0.00000000000000000 -1.00000000000000000 0.00000000000000044 0.00000000000000000 -0.00000000000000044 -1.00000000000000000 1.00000000000000000 0.00000000000000000 0.00000000000000000 1.00000000000000000
2 4.17499999999999982 -4.99999999999999822 4.17500000001151506 0.00000000000000000 -1.00000000000000000 0.00000000000000044 0.00000000000000000 -0.00000000000000044 -1.00000000000000000 1.00000000000000000 0.00000000000000000 0.00000000000000000 1.00000000000000000
2 4.17499999999999982 -86.00000000000000000 4.17500000001153282 0.00000000000000000 -1.00000000000000000 0.00000000000000044 0.00000000000000000 -0.00000000000000044 -1.00000000000000000 1.00000000000000000 0.00000000000000000 0.00000000000000000 1.00000000000000000
2 4.17499999999999982 -86.00000000000000000 4.17500000001153282 0.00000000000000000 -1.00000000000000000 0.00000000000000044 0.00000000000000000 -0.00000000000000044 -1.00000000000000000 1.00000000000000000 0.00000000000000000 0.00000000000000000 1.00000000000000000
2 4.17499999999999982 -86.00000000000000000 4.17500000001153282 0.00000000000000000 -1.00000000000000000 0.00000000000000044 0.00000000000000000 -0.00000000000000044 -1.00000000000000000 1.00000000000000000 0.00000000000000000 0.00000000000000000 1.00000000000000000
2 2.17499999999999982 24.39999999999999858 -0.00000000000001084 0.00000000000000000 0.00000000000000044 1.00000000000000000 0.00000000000000000 1.00000000000000000 -0.00000000000000044 1.00000000000000000 -0.00000000000000000 -0.00000000000000000 1.00000000000000000
2 2.17499999999999982 0.00000000000001084 24.39999999999999858 -0.00000000000000000 -1.00000000000000000 0.00000000000000044 0.00000000000000000 -0.00000000000000044 -1.00000000000000000 -1.00000000000000000 -0.00000000000000000 -0.00000000000000000 1.00000000000000000
2 2.17499999999999982 -4.99999999999998934 24.39999999999999858 -0.00000000000000000 -1.00000000000000000 0.00000000000000044 0.00000000000000000 -0.00000000000000044 -1.00000000000000000 -1.00000000000000000 -0.00000000000000000 -0.00000000000000000 1.00000000000000000
2 2.17499999999999982 -85.99999999999998579 24.40000000000001634 -0.00000000000000000 -1.00000000000000000 0.00000000000000044 0.00000000000000000 -0.00000000000000044 -1.00000000000000000 -1.00000000000000000 -0.00000000000000000 -0.00000000000000000 1.00000000000000000
2 2.17499999999999982 -85.99999999999998579 24.40000000000001634 -0.00000000000000000 -1.00000000000000000 0.00000000000000044 0.00000000000000000 -0.00000000000000044 -1.00000000000000000 -1.00000000000000000 -0.00000000000000000 -0.00000000000000000 1.00000000000000000
2 2.17499999999999982 -85.99999999999998579 24.40000000000001634 -0.00000000000000000 -1.00000000000000000 0.00000000000000044 0.00000000000000000 -0.00000000000000044 -1.00000000000000000 -1.00000000000000000 -0.00000000000000000 -0.00000000000000000 1.00000000000000000
Triangulations 0

TShapes 64
Ve
0.000000100000000
24.399999999999999 -0.000000000000000 0.000000000000000
0 0

0101101
*
Ed
 0.000000100000000 1 1 0
1  1 0 0.000000000000000 172.000000000000000
2  1 2 0 0.000000000000000 172.000000000000000
4 C1 1 0 2 0
2  2 1 0 0.000000000000000 172.000000000000000
0

0101000
+64 11 -64 13 *
Ve
0.000000100000000
1.000000000000000 -0.000000000000000 0.000000000000000
0 0

0101101
*
Ed
 0.000000100000000 1 1 0
1  2 0 0.000000000000000 172.000000000000000
2  3 3 0 0.000000000000000 172.000000000000000
4 C1 1 0 3 0
2  4 1 0 0.000000000000000 172.000000000000000
0

0101000
+62 11 -62 13 *
Ed
 0.000000100000000 1 1 0
1  3 0 1.000000000000000 24.399999999999999
2  5 1 19 1.000000000000000 24.399999999999999
2  6 1 20 1.000000000000000 24.399999999999999
0

0101000
+64 21 -62 21 *
Wi

0101100
+63 0 -61 0 -60 18 +60 22 *
Fa
0  0.000000100000000 1 0

0111000
+59 0 *
Ve
0.000000100000000
25.399999999999999 1.000000000000000 -0.000000000000000
0 0

0101101
*
Ed
 0.000000100000000 1 1 0
1  4 0 0.000000000000000 172.000000000000000
2  7 2 0 0.000000000000000 172.000000000000000
4 C1 2 0 4 0
0

0101000
+57 11 -57 13 *
Ed
 0.000000100000000 1 1 0
1  5 0 0.000000000000000 1.570796326794896
2  8 5 0 0.000000000000000 1.570796326794896
2  9 6 23 0.000000000000000 1.570796326794896
2  10 7 26 0.000000000000000 1.570796326794896
2  11 7 28 0.000000000000000 1.570796326794896
2  12 8 32 0.000000000000000 1.570796326794896
2  13 8 34 0.000000000000000 1.570796326794896
2  14 9 38 0.000000000000000 1.570796326794896
2  15 9 40 0.000000000000000 1.570796326794896
2  16 10 44 0.000000000000000 1.570796326794896
2  17 10 46 0.000000000000000 1.570796326794896
2  18 11 50 0.000000000000000 1.570796326794896
2  19 11 52 0.000000000000000 1.570796326794896
2  20 2 53 0.000000000000000 1.570796326794896
2  21 2 54 0.000000000000000 1.570796326794896
0

0101000
+64 0 -57 0 *
Wi

0101100
+63 0 -56 0 -55 11 +55 13 *
Fa
0  0.000000100000000 2 0

0111000
+54 0 *
Ve
0.000000100000000
-0.000000000000000 1.000000000000000 -0.000000000000000
0 0

0101101
*
Ed
 0.000000100000000 1 1 0
1  6 0 0.000000000000000 172.000000000000000
2  22 3 0 0.000000000000000 172.000000000000000
4 C1 3 0 12 0
2  23 12 0 0.000000000000000 172.000000000000000
0

0101000
+52 11 -52 13 *
Ed
 0.000000100000000 1 1 0
1  7 0 -0.000000000000001 1.570796326794897
2  24 13 0 -0.000000000000001 1.570796326794897
2  25 6 23 -0.000000000000001 1.570796326794897
2  26 14 26 -0.000000000000001 1.570796326794897
2  27 14 28 -0.000000000000001 1.570796326794897
2  28 15 32 -0.000000000000001 1.570796326794897
2  29 15 34 -0.000000000000001 1.570796326794897
2  30 16 38 -0.000000000000001 1.570796326794897
2  31 16 40 -0.000000000000001 1.570796326794897
2  32 17 44 -0.000000000000001 1.570796326794897
2  33 17 46 -0.000000000000001 1.570796326794897
2  34 18 50 -0.000000000000001 1.570796326794897
2  35 18 52 -0.000000000000001 1.570796326794897
2  36 3 53 -0.000000000000001 1.570796326794897
2  37 3 54 -0.000000000000001 1.570796326794897
0

0101000
+62 0 -52 0 *
Wi

0101100
+61 0 -51 0 -50 11 +50 13 *
Fa
0  0.000000100000000 3 0

0111000
+49 0 *
Ve
0.000000100000000
25.399999999999999 2.175000000011513 -0.000000000000001
0 0

0101101
*
Ed
 0.000000100000000 1 1 0
1  8 0 0.000000000000000 172.000000000000000
2  38 19 0 0.000000000000000 172.000000000000000
4 C1 4 0 19 0
0

0101000
+47 11 -47 13 *
Ed
 0.000000100000000 1 1 0
1  9 0 1.000000000000000 2.175000000011514
0

0101000
+47 21 -57 21 *
Wi

0101100
+46 0 -56 0 -45 18 +45 22 *
Fa
0  0.000000100000000 4 0

0111000
+44 0 *
Ve
0.000000100000000
-0.000000000000000 24.399999999999999 -0.000000000000011
0 0

0101101
*
Ed
 0.000000100000000 1 1 0
1  10 0 0.000000000000000 172.000000000000000
2  39 20 0 0.000000000000000 172.000000000000000
4 C1 12 0 20 0
2  40 12 0 0.000000000000000 172.000000000000000
0

0101000
+42 11 -42 13 *
Ed
 0.000000100000000 1 1 0
1  11 0 1.000000000000000 24.399999999999999
2  41 12 19 1.000000000000000 24.399999999999999
2  42 12 20 1.000000000000000 24.399999999999999
0

0101000
+52 21 -42 21 *
Wi

0101100
+51 0 -41 0 -40 18 +40 22 *
Fa
0  0.000000100000000 12 0

0111000
+39 0 *
Ve
0.000000100000000
24.399999999999999 3.175000000011513 -0.000000000000001
0 0

0101101
*
Ed
 0.000000100000000 1 1 0
1  12 0 0.000000000000000 172.000000000000000
2  43 19 0 0.000000000000000 172.000000000000000
4 C1 19 0 21 0
2  44 21 0 0.000000000000000 172.000000000000000
0

0101000
+37 11 -37 13 *
Ed
 0.000000100000000 1 1 0
1  13 0 3.141592653589793 4.712388980384690
2  45 22 0 3.141592653589793 4.712388980384690
2  46 6 23 3.141592653589793 4.712388980384690
2  47 23 26 3.141592653589793 4.712388980384690
2  48 23 28 3.141592653589793 4.712388980384690
2  49 24 32 3.141592653589793 4.712388980384690
2  50 24 34 3.141592653589793 4.712388980384690
2  51 25 38 3.141592653589793 4.712388980384690
2  52 25 40 3.141592653589793 4.712388980384690
2  53 26 44 3.141592653589793 4.712388980384690
2  54 26 46 3.141592653589793 4.712388980384690
2  55 27 50 3.141592653589793 4.712388980384690
2  56 27 52 3.141592653589793 4.712388980384690
2  57 19 53 3.141592653589793 4.712388980384690
2  58 19 54 3.141592653589793 4.712388980384690
0

0101000
+37 0 -47 0 *
Wi

0101100
+36 0 -46 0 -35 11 +35 13 *
Fa
0  0.000000100000000 19 0

0111000
+34 0 *
Ve
0.000000100000000
1.000000000000000 25.399999999999999 -0.000000000000011
0 0

0101101
*
Ed
 0.000000100000000 1 1 0
1  14 0 0.000000000000000 172.000000000000000
2  59 20 0 0.000000000000000 172.000000000000000
4 C1 20 0 28 0
0

0101000
+32 11 -32 13 *
Ed
 0.000000100000000 1 1 0
1  15 0 1.570796326794897 3.141592653589793
2  60 29 0 1.570796326794897 3.141592653589793
2  61 6 23 1.570796326794897 3.141592653589793
2  62 30 26 1.570796326794897 3.141592653589793
2  63 30 28 1.570796326794897 3.141592653589793
2  64 31 32 1.570796326794897 3.141592653589793
2  65 31 34 1.570796326794897 3.141592653589793
2  66 32 38 1.570796326794897 3.141592653589793
2  67 32 40 1.570796326794897 3.141592653589793
2  68 33 44 1.570796326794897 3.141592653589793
2  69 33 46 1.570796326794897 3.141592653589793
2  70 34 50 1.570796326794897 3.141592653589793
2  71 34 52 1.570796326794897 3.141592653589793
2  72 20 53 1.570796326794897 3.141592653589793
2  73 20 54 1.570796326794897 3.141592653589793
0

0101000
+42 0 -32 0 *
Wi

0101100
+41 0 -31 0 -30 11 +30 13 *
Fa
0  0.000000100000000 20 0

0111000
+29 0 *
Ve
0.000000100000000
4.175000000000000 3.175000000011514 -0.000000000000001
0 0

0101101
*
Ed
 0.000000100000000 1 1 0
1  16 0 0.000000000000000 172.000000000000000
2  74 35 0 0.000000000000000 172.000000000000000
4 C1 21 0 35 0
2  75 21 0 0.000000000000000 172.000000000000000
0

0101000
+27 11 -27 13 *
Ed
 0.000000100000000 1 1 0
1  17 0 1.000000000000000 21.224999999999998
2  76 21 19 1.000000000000000 21.224999999999998
2  77 21 20 1.000000000000000 21.224999999999998
0

0101000
+27 21 -37 21 *
Wi

0101100
+26 0 -36 0 -25 18 +25 22 *
Fa
0  0.000000100000000 21 0

0111000
+24 0 *
Ve
0.000000100000000
2.175000000000000 25.399999999999999 -0.000000000000011
0 0

0101101
*
Ed
 0.000000100000000 1 1 0
1  18 0 0.000000000000000 172.000000000000000
2  78 36 0 0.000000000000000 172.000000000000000
4 C1 28 0 36 0
0

0101000
+22 11 -22 13 *
Ed
 0.000000100000000 1 1 0
1  19 0 1.000000000000000 2.175000000000000
0

0101000
+32 21 -22 21 *
Wi

0101100
+31 0 -21 0 -20 18 +20 22 *
Fa
0  0.000000100000000 28 0

0111000
+19 0 *
Ve
0.000000100000000
3.175000000000000 4.175000000011514 -0.000000000000002
0 0

0101101
*
Ed
 0.000000100000000 1 1 0
1  20 0 0.000000000000000 172.000000000000000
2  79 35 0 0.000000000000000 172.000000000000000
4 C1 35 0 37 0
2  80 37 0 0.000000000000000 172.000000000000000
0

0101000
+17 11 -17 13 *
Ed
 0.000000100000000 1 1 0
1  21 0 4.712388980384689 6.283185307179586
2  81 38 0 4.712388980384689 6.283185307179586
2  82 6 23 4.712388980384689 6.283185307179586
2  83 39 26 4.712388980384689 6.283185307179586
2  84 39 28 4.712388980384689 6.283185307179586
2  85 40 32 4.712388980384689 6.283185307179586
2  86 40 34 4.712388980384689 6.283185307179586
2  87 41 38 4.712388980384689 6.283185307179586
2  88 41 40 4.712388980384689 6.283185307179586
2  89 42 44 4.712388980384689 6.283185307179586
2  90 42 46 4.712388980384689 6.283185307179586
2  91 43 50 4.712388980384689 6.283185307179586
2  92 43 52 4.712388980384689 6.283185307179586
2  93 35 53 4.712388980384689 6.283185307179586
2  94 35 54 4.712388980384689 6.283185307179586
0

0101000
+17 0 -27 0 *
Wi

0101100
+16 0 -26 0 -15 11 +15 13 *
Fa
0  0.000000100000000 35 0

0111000
+14 0 *
Ve
0.000000100000000
3.175000000000000 24.399999999999999 -0.000000000000011
0 0

0101101
*
Ed
 0.000000100000000 1 1 0
1  22 0 0.000000000000000 172.000000000000000
2  95 36 0 0.000000000000000 172.000000000000000
4 C1 36 0 37 0
2  96 37 0 0.000000000000000 172.000000000000000
0

0101000
+12 11 -12 13 *
Ed
 0.000000100000000 1 1 0
1  23 0 3.141592653589793 4.712388980384690
2  97 44 0 3.141592653589793 4.712388980384690
2  98 6 23 3.141592653589793 4.712388980384690
2  99 45 26 3.141592653589793 4.712388980384690
2  100 45 28 3.141592653589793 4.712388980384690
2  101 46 32 3.141592653589793 4.712388980384690
2  102 46 34 3.141592653589793 4.712388980384690
2  103 47 38 3.141592653589793 4.712388980384690
2  104 47 40 3.141592653589793 4.712388980384690
2  105 48 44 3.141592653589793 4.712388980384690
2  106 48 46 3.141592653589793 4.712388980384690
2  107 49 50 3.141592653589793 4.712388980384690
2  108 49 52 3.141592653589793 4.712388980384690
2  109 36 53 3.141592653589793 4.712388980384690
2  110 36 54 3.141592653589793 4.712388980384690
0

0101000
+22 0 -12 0 *
Wi

0101100
+21 0 -11 0 -10 11 +10 13 *
Fa
0  0.000000100000000 36 0

0111000
+9 0 *
Ed
 0.000000100000000 1 1 0
1  24 0 1.000000000000000 21.224999999988484
2  111 37 19 1.000000000000000 21.224999999988484
2  112 37 20 1.000000000000000 21.224999999988484
0

0101000
+12 21 -17 21 *
Wi

0101100
+11 0 -16 0 -7 18 +7 22 *
Fa
0  0.000000100000000 37 0

0111000
+6 0 *
Wi

0101100
+60 57 -55 0 +50 0 +45 57 +40 57 +35 0 +30 0 +25 57 +20 57 +15 0 
+10 0 +7 57 *
Fa
0  0.000000100000000 6 0

0111000
+4 56 *
Sh

0101100
+58 0 -53 0 +48 0 +43 0 +38 0 +33 0 +28 0 +23 0 +18 0 +13 0 
+8 0 +5 0 +3 55 -3 58 *
So

1100000
-2 0 *

+1 0 