
CASCADE Topology V1, (c) Matra-Datavision
Locations 86
1
1.000000000000000 0.000000000000000 0.000000000000000 0.000000000000000 
0.000000000000000 1.000000000000000 0.000000000000000 0.000000000000000 
0.000000000000000 0.000000000000000 1.000000000000000 0.000000000000000 
1
1.000000000000000 0.000000000000000 0.000000000000000 0.000000000000000 
0.000000000000000 1.000000000000000 0.000000000000000 0.000000000000000 
0.000000000000000 0.000000000000000 1.000000000000000 0.000000000000000 
1
1.000000000000000 0.000000000000000 0.000000000000000 0.000000000000000 
0.000000000000000 1.000000000000000 0.000000000000000 0.000000000000000 
0.000000000000000 0.000000000000000 1.000000000000000 0.000000000000000 
2  2 1 3 -1 0
1
1.000000000000000 0.000000000000000 0.000000000000000 0.000000000000000 
0.000000000000000 1.000000000000000 0.000000000000000 0.000000000000000 
0.000000000000000 0.000000000000000 1.000000000000000 0.000000000000000 
1
1.000000000000000 0.000000000000000 0.000000000000000 0.000000000000000 
0.000000000000000 0.000000000000000 -1.000000000000000 0.000000000000000 
0.000000000000000 1.000000000000000 0.000000000000000 0.000000000000000 
1
1.000000000000000 0.000000000000000 0.000000000000000 0.000000000000000 
0.000000000000000 1.000000000000000 0.000000000000000 0.000000000000000 
0.000000000000000 0.000000000000000 1.000000000000000 0.000000000000000 
1
1.000000000000000 0.000000000000000 0.000000000000000 0.000000000000000 
0.000000000000000 1.000000000000000 0.000000000000000 0.000000000000000 
0.000000000000000 0.000000000000000 1.000000000000000 0.000000000000000 
1
1.000000000000000 0.000000000000000 0.000000000000000 0.000000000000000 
0.000000000000000 1.000000000000000 0.000000000000000 0.000000000000000 
0.000000000000000 0.000000000000000 1.000000000000000 0.000000000000000 
1
1.000000000000000 0.000000000000000 0.000000000000000 0.000000000000000 
0.000000000000000 1.000000000000000 0.000000000000000 0.000000000000000 
0.000000000000000 0.000000000000000 1.000000000000000 0.000000000000000 
1
1.000000000000000 0.000000000000000 0.000000000000000 0.000000000000000 
0.000000000000000 1.000000000000000 0.000000000000000 0.000000000000000 
0.000000000000000 0.000000000000000 1.000000000000000 0.000000000000000 
1
1.000000000000000 0.000000000000000 0.000000000000000 0.000000000000000 
0.000000000000000 1.000000000000000 0.000000000000000 0.000000000000000 
0.000000000000000 0.000000000000000 1.000000000000000 0.000000000000000 
1
1.000000000000000 0.000000000000000 0.000000000000000 0.000000000000000 
0.000000000000000 1.000000000000000 0.000000000000000 0.000000000000000 
0.000000000000000 0.000000000000000 1.000000000000000 0.000000000000000 
1
1.000000000000000 0.000000000000000 0.000000000000000 -0.000000000000000 
0.000000000000000 1.000000000000000 0.000000000000000 -86.000000000000000 
0.000000000000000 0.000000000000000 1.000000000000000 0.000000000000019 
2  5 1 6 1 7 1 8 1 9 1 10 1 11 1 12 1 13 -1 14 1 0
1
1.000000000000000 0.000000000000000 0.000000000000000 0.000000000000000 
0.000000000000000 1.000000000000000 0.000000000000000 172.000000000000000 
0.000000000000000 0.000000000000000 1.000000000000000 -0.000000000000038 
2  5 1 6 1 7 1 8 1 9 1 10 1 11 1 12 1 13 -1 14 1 16 1 0
1
1.000000000000000 0.000000000000000 0.000000000000000 0.000000000000000 
0.000000000000000 1.000000000000000 0.000000000000000 0.000000000000000 
0.000000000000000 0.000000000000000 1.000000000000000 0.000000000000000 
1
1.000000000000000 0.000000000000000 0.000000000000000 0.000000000000000 
0.000000000000000 0.000000000000000 -1.000000000000000 0.000000000000000 
0.000000000000000 1.000000000000000 0.000000000000000 0.000000000000000 
1
1.000000000000000 0.000000000000000 0.000000000000000 0.000000000000000 
0.000000000000000 -0.000000000000000 -1.000000000000000 0.000000000000000 
0.000000000000000 1.000000000000000 -0.000000000000000 0.000000000000000 
1
1.000000000000000 0.000000000000000 0.000000000000000 0.000000000000000 
0.000000000000000 1.000000000000000 0.000000000000000 0.000000000000000 
0.000000000000000 0.000000000000000 1.000000000000000 0.000000000000000 
2  18 1 19 1 20 -1 21 1 5 1 6 1 7 1 8 1 9 1 10 1 11 1 12 1 13 -1 14 1 2 1 3 -1 0
2  14 -1 13 1 12 -1 11 -1 10 -1 9 -1 8 -1 7 -1 6 -1 5 -1 21 -1 20 1 19 -1 18 -1 0
2  16 -1 14 -1 13 1 12 -1 11 -1 10 -1 9 -1 8 -1 7 -1 6 -1 5 -1 21 -1 20 1 19 -1 18 -1 0
2  21 -1 20 1 19 -1 18 -1 0
2  18 1 19 1 20 -1 21 1 5 1 6 1 7 1 8 1 9 1 10 1 11 1 12 1 13 -1 14 1 16 1 2 1 3 -1 0
1
1.000000000000000 0.000000000000000 0.000000000000000 0.000000000000000 
0.000000000000000 1.000000000000000 0.000000000000000 0.000000000000000 
0.000000000000000 0.000000000000000 1.000000000000000 0.000000000000000 
1
1.000000000000000 0.000000000000000 0.000000000000000 0.000000000000000 
0.000000000000000 -1.000000000000000 -0.000000000000000 0.000000000000000 
0.000000000000000 0.000000000000000 -1.000000000000000 0.000000000000000 
2  27 1 28 1 3 -1 0
1
1.000000000000000 0.000000000000000 0.000000000000000 0.000000000000000 
0.000000000000000 1.000000000000000 0.000000000000000 0.000000000000000 
0.000000000000000 0.000000000000000 1.000000000000000 0.000000000000000 
1
1.000000000000000 0.000000000000000 0.000000000000000 0.000000000000000 
0.000000000000000 -1.000000000000000 -0.000000000000000 0.000000000000000 
0.000000000000000 0.000000000000000 -1.000000000000000 0.000000000000000 
1
1.000000000000000 0.000000000000000 0.000000000000000 0.000000000000000 
0.000000000000000 1.000000000000000 0.000000000000000 0.000000000000000 
0.000000000000000 0.000000000000000 1.000000000000000 0.000000000000000 
2  30 1 31 -1 32 -1 0
1
1.000000000000000 0.000000000000000 0.000000000000000 0.000000000000000 
0.000000000000000 1.000000000000000 0.000000000000000 0.000000000000001 
0.000000000000000 0.000000000000000 1.000000000000000 5.000000000000000 
2  34 -1 30 1 31 -1 32 -1 0
2  31 -1 32 -1 0
2  2 1 31 -1 32 -1 0
1
1.000000000000000 0.000000000000000 0.000000000000000 0.000000000000000 
0.000000000000000 1.000000000000000 0.000000000000000 0.000000000000000 
0.000000000000000 0.000000000000000 1.000000000000000 0.000000000000000 
1
1.000000000000000 0.000000000000000 0.000000000000000 0.000000000000000 
0.000000000000000 -1.000000000000000 -0.000000000000000 0.000000000000000 
0.000000000000000 0.000000000000000 -1.000000000000000 0.000000000000000 
1
1.000000000000000 0.000000000000000 0.000000000000000 0.000000000000000 
0.000000000000000 1.000000000000000 0.000000000000000 0.000000000000000 
0.000000000000000 0.000000000000000 1.000000000000000 0.000000000000000 
2  38 1 39 -1 40 -1 0
1
1.000000000000000 0.000000000000000 0.000000000000000 0.000000000000000 
0.000000000000000 1.000000000000000 0.000000000000000 0.000000000000078 
0.000000000000000 0.000000000000000 1.000000000000000 354.936015822570539 
2  42 -1 38 1 39 -1 40 -1 0
2  2 1 39 -1 40 -1 0
2  3 1 28 -1 27 -1 0
1
1.000000000000000 0.000000000000000 0.000000000000000 0.000000000000000 
0.000000000000000 1.000000000000000 0.000000000000000 0.000000000000078 
0.000000000000000 0.000000000000000 1.000000000000000 354.936015822570539 
2  46 -1 3 1 28 -1 27 -1 0
2  2 1 28 -1 27 -1 0
2  20 -1 21 1 0
1
1.000000000000000 0.000000000000000 0.000000000000000 0.000000000000000 
0.000000000000000 1.000000000000000 0.000000000000000 0.000000000000000 
0.000000000000000 0.000000000000000 1.000000000000000 0.000000000000000 
1
1.000000000000000 0.000000000000000 0.000000000000000 0.000000000000000 
0.000000000000000 1.000000000000000 0.000000000000000 0.000000000000000 
0.000000000000000 0.000000000000000 1.000000000000000 0.000000000000000 
2  50 1 51 -1 11 -1 10 -1 9 -1 8 -1 7 -1 6 -1 5 -1 0
1
1.000000000000000 0.000000000000000 0.000000000000000 0.000000000000000 
0.000000000000000 1.000000000000000 0.000000000000000 10.000000000000000 
0.000000000000000 0.000000000000000 1.000000000000000 -0.000000000000002 
2  53 -1 50 1 51 -1 11 -1 10 -1 9 -1 8 -1 7 -1 6 -1 5 -1 0
1
1.000000000000000 0.000000000000000 0.000000000000000 -0.000000000000000 
0.000000000000000 1.000000000000000 0.000000000000000 -5.000000000000000 
0.000000000000000 0.000000000000000 1.000000000000000 0.000000000000001 
1
1.000000000000000 0.000000000000000 0.000000000000000 0.000000000000000 
0.000000000000000 1.000000000000000 0.000000000000000 0.000000000000000 
0.000000000000000 0.000000000000000 1.000000000000000 0.000000000000000 
1
1.000000000000000 0.000000000000000 0.000000000000000 0.000000000000000 
0.000000000000000 1.000000000000000 0.000000000000000 0.000000000000000 
0.000000000000000 0.000000000000000 1.000000000000000 0.000000000000000 
2  55 -1 56 1 57 -1 11 -1 10 -1 9 -1 8 -1 7 -1 6 -1 5 -1 0
1
1.000000000000000 0.000000000000000 0.000000000000000 0.000000000000000 
0.000000000000000 1.000000000000000 0.000000000000000 10.000000000000000 
0.000000000000000 0.000000000000000 1.000000000000000 -0.000000000000002 
2  59 -1 55 -1 56 1 57 -1 11 -1 10 -1 9 -1 8 -1 7 -1 6 -1 5 -1 0
1
1.000000000000000 0.000000000000000 0.000000000000000 -0.000000000000000 
0.000000000000000 1.000000000000000 0.000000000000000 -86.000000000000000 
0.000000000000000 0.000000000000000 1.000000000000000 0.000000000000019 
1
1.000000000000000 0.000000000000000 0.000000000000000 0.000000000000000 
0.000000000000000 1.000000000000000 0.000000000000000 0.000000000000000 
0.000000000000000 0.000000000000000 1.000000000000000 0.000000000000000 
1
1.000000000000000 0.000000000000000 0.000000000000000 0.000000000000000 
0.000000000000000 1.000000000000000 0.000000000000000 0.000000000000000 
0.000000000000000 0.000000000000000 1.000000000000000 0.000000000000000 
2  61 -1 62 1 63 -1 11 -1 10 -1 9 -1 8 -1 7 -1 6 -1 5 -1 0
1
1.000000000000000 0.000000000000000 0.000000000000000 0.000000000000000 
0.000000000000000 1.000000000000000 0.000000000000000 172.000000000000000 
0.000000000000000 0.000000000000000 1.000000000000000 -0.000000000000038 
2  65 -1 61 -1 62 1 63 -1 11 -1 10 -1 9 -1 8 -1 7 -1 6 -1 5 -1 0
1
1.000000000000000 0.000000000000000 0.000000000000000 -0.000000000000000 
0.000000000000000 1.000000000000000 0.000000000000000 -86.000000000000000 
0.000000000000000 0.000000000000000 1.000000000000000 0.000000000000019 
1
1.000000000000000 0.000000000000000 0.000000000000000 0.000000000000000 
0.000000000000000 1.000000000000000 0.000000000000000 0.000000000000000 
0.000000000000000 0.000000000000000 1.000000000000000 0.000000000000000 
1
1.000000000000000 0.000000000000000 0.000000000000000 0.000000000000000 
0.000000000000000 1.000000000000000 0.000000000000000 0.000000000000000 
0.000000000000000 0.000000000000000 1.000000000000000 0.000000000000000 
2  67 -1 68 1 69 -1 11 -1 10 -1 9 -1 8 -1 7 -1 6 -1 5 -1 0
1
1.000000000000000 0.000000000000000 0.000000000000000 0.000000000000000 
0.000000000000000 1.000000000000000 0.000000000000000 172.000000000000000 
0.000000000000000 0.000000000000000 1.000000000000000 -0.000000000000038 
2  71 -1 67 -1 68 1 69 -1 11 -1 10 -1 9 -1 8 -1 7 -1 6 -1 5 -1 0
1
1.000000000000000 0.000000000000000 0.000000000000000 -0.000000000000000 
0.000000000000000 1.000000000000000 0.000000000000000 -86.000000000000000 
0.000000000000000 0.000000000000000 1.000000000000000 0.000000000000019 
1
1.000000000000000 0.000000000000000 0.000000000000000 0.000000000000000 
0.000000000000000 1.000000000000000 0.000000000000000 0.000000000000000 
0.000000000000000 0.000000000000000 1.000000000000000 0.000000000000000 
1
1.000000000000000 0.000000000000000 0.000000000000000 0.000000000000000 
0.000000000000000 1.000000000000000 0.000000000000000 0.000000000000000 
0.000000000000000 0.000000000000000 1.000000000000000 0.000000000000000 
2  73 -1 74 1 75 -1 11 -1 10 -1 9 -1 8 -1 7 -1 6 -1 5 -1 0
1
1.000000000000000 0.000000000000000 0.000000000000000 0.000000000000000 
0.000000000000000 1.000000000000000 0.000000000000000 172.000000000000000 
0.000000000000000 0.000000000000000 1.000000000000000 -0.000000000000038 
2  77 -1 73 -1 74 1 75 -1 11 -1 10 -1 9 -1 8 -1 7 -1 6 -1 5 -1 0
2  14 -1 13 1 12 -1 11 -1 10 -1 9 -1 8 -1 7 -1 6 -1 5 -1 0
2  16 -1 14 -1 13 1 12 -1 11 -1 10 -1 9 -1 8 -1 7 -1 6 -1 5 -1 0
2  20 -1 21 1 5 1 6 1 7 1 8 1 9 1 10 1 11 1 12 1 13 -1 14 1 2 1 3 -1 0
2  21 -1 20 1 0
2  18 1 19 1 20 -1 21 1 0
2  20 -1 21 1 5 1 6 1 7 1 8 1 9 1 10 1 11 1 12 1 13 -1 14 1 16 1 2 1 3 -1 0
2  18 1 19 1 20 -1 21 1 5 1 6 1 7 1 8 1 9 1 10 1 11 1 12 1 13 -1 14 1 0
2  18 1 19 1 20 -1 21 1 5 1 6 1 7 1 8 1 9 1 10 1 11 1 12 1 13 -1 14 1 16 1 0
Curve2ds 140
1 0.00000000000000000 0.00000000000000000 0.00000000000000000 -1.00000000000000000 
1 0.00000000000000000 0.00000000000000000 0.00000000000000000 -1.00000000000000000 
1 -1.00000000000000000 0.00000000000000000 1.00000000000000000 0.00000000000000000 
1 -1.00000000000000000 -172.00000000000000000 1.00000000000000000 0.00000000000000000 
1 -0.00000000000000100 0.00000000000000000 0.00000000000000000 -1.00000000000000000 
1 23.39999999999999858 0.00000000000000000 0.00000000000000000 -1.00000000000000000 
1 0.00000000000000000 0.00000000000000000 1.00000000000000000 0.00000000000000000 
1 0.00000000000000000 -5.00000000000000000 1.00000000000000000 0.00000000000000000 
2 0.00000000000000000 0.00000000000000000 0.00000000000000000 -1.00000000000000000 1.00000000000000000 0.00000000000000000 3.96875000000000000
2 11.69999999999999929 -159.30000000000001137 -1.00000000000000000 0.00000000000000000 0.00000000000000000 1.00000000000000000 3.96875000000000000
1 0.00000000000000000 0.00000000000000000 1.00000000000000000 0.00000000000000000 
1 0.00000000000000000 -354.93601582257053906 1.00000000000000000 0.00000000000000000 
2 11.69999999999999929 -159.30000000000001137 -1.00000000000000000 0.00000000000000000 0.00000000000000000 1.00000000000000000 3.96875000000000000
1 0.00000000000000000 0.00000000000000000 1.00000000000000000 0.00000000000000000 
1 0.00000000000000000 -354.93601582257053906 1.00000000000000000 0.00000000000000000 
2 11.69999999999999929 -159.30000000000001137 -1.00000000000000000 0.00000000000000000 0.00000000000000000 1.00000000000000000 3.96875000000000000
1 0.00000000000000000 0.00000000000000000 1.00000000000000000 0.00000000000000000 
1 0.00000000000000000 -5.00000000000000000 1.00000000000000000 0.00000000000000000 
2 0.00000000000000000 -0.00000000000000000 0.00000000000000000 -1.00000000000000000 1.00000000000000000 0.00000000000000000 3.96875000000000000
2 11.69999999999999929 -12.70000000000000284 -1.00000000000000000 0.00000000000000000 0.00000000000000000 1.00000000000000000 3.96875000000000000
1 0.00000000000000000 0.00000000000000000 1.00000000000000000 0.00000000000000000 
1 0.00000000000000000 -354.93601582257053906 1.00000000000000000 0.00000000000000000 
2 11.69999999999999929 -12.70000000000000284 -1.00000000000000000 0.00000000000000000 0.00000000000000000 1.00000000000000000 3.96875000000000000
1 0.00000000000000000 0.00000000000000000 1.00000000000000000 0.00000000000000000 
1 0.00000000000000000 -354.93601582257053906 1.00000000000000000 0.00000000000000000 
2 11.69999999999999929 -12.70000000000000284 -1.00000000000000000 0.00000000000000000 0.00000000000000000 1.00000000000000000 3.96875000000000000
1 1.57079632679489589 0.00000000000000000 0.00000000000000000 -1.00000000000000000 
1 0.00000000000000000 -0.00000000000000000 1.00000000000000000 0.00000000000000000 
2 -6.83828125000251763 16.56171874999748184 -1.00000000000000000 0.00000000000000000 0.00000000000000000 1.00000000000000000 1.00000000000000000
1 0.00000000000000000 0.00000000000000000 1.00000000000000000 0.00000000000000000 
1 0.00000000000000000 -10.00000000000000000 1.00000000000000000 0.00000000000000000 
1 0.00000000000000000 0.00000000000000000 1.00000000000000000 0.00000000000000000 
1 0.00000000000000000 -10.00000000000000000 1.00000000000000000 0.00000000000000000 
1 0.00000000000000000 0.00000000000000000 1.00000000000000000 0.00000000000000000 
1 0.00000000000000000 -172.00000000000000000 1.00000000000000000 0.00000000000000000 
1 0.00000000000000000 0.00000000000000000 1.00000000000000000 0.00000000000000000 
1 0.00000000000000000 -172.00000000000000000 1.00000000000000000 0.00000000000000000 
1 0.00000000000000000 0.00000000000000000 1.00000000000000000 0.00000000000000000 
1 0.00000000000000000 -172.00000000000000000 1.00000000000000000 0.00000000000000000 
1 0.00000000000000000 0.00000000000000000 1.00000000000000000 0.00000000000000000 
1 0.00000000000000000 -172.00000000000000000 1.00000000000000000 0.00000000000000000 
1 0.00000000000000089 0.00000000000000000 1.00000000000000000 0.00000000000000000 
2 -6.83828125000251763 -6.83828125000251763 -1.00000000000000000 0.00000000000000000 -0.00000000000000000 -1.00000000000000000 1.00000000000000000
1 0.00000000000000000 0.00000000000000000 1.00000000000000000 0.00000000000000000 
1 0.00000000000000000 -10.00000000000000000 1.00000000000000000 0.00000000000000000 
1 0.00000000000000000 0.00000000000000000 1.00000000000000000 0.00000000000000000 
1 0.00000000000000000 -10.00000000000000000 1.00000000000000000 0.00000000000000000 
1 0.00000000000000000 0.00000000000000000 1.00000000000000000 0.00000000000000000 
1 0.00000000000000000 -172.00000000000000000 1.00000000000000000 0.00000000000000000 
1 0.00000000000000000 0.00000000000000000 1.00000000000000000 0.00000000000000000 
1 0.00000000000000000 -172.00000000000000000 1.00000000000000000 0.00000000000000000 
1 0.00000000000000000 0.00000000000000000 1.00000000000000000 0.00000000000000000 
1 0.00000000000000000 -172.00000000000000000 1.00000000000000000 0.00000000000000000 
1 0.00000000000000000 0.00000000000000000 1.00000000000000000 0.00000000000000000 
1 0.00000000000000000 -172.00000000000000000 1.00000000000000000 0.00000000000000000 
1 -1.00000000000000000 -0.00000000000000000 1.00000000000000000 0.00000000000000000 
1 -1.00000000000003775 -172.00000000000000000 1.00000000000000000 0.00000000000000000 
1 -3.14159265358979312 -0.00000000000000000 1.00000000000000000 0.00000000000000000 
2 -5.66328124999100435 16.56171874999748184 -1.00000000000000000 0.00000000000000000 -0.00000000000000000 -1.00000000000000000 1.00000000000000000
1 0.00000000000000000 0.00000000000000000 1.00000000000000000 0.00000000000000000 
1 0.00000000000000000 -10.00000000000000000 1.00000000000000000 0.00000000000000000 
1 0.00000000000000000 0.00000000000000000 1.00000000000000000 0.00000000000000000 
1 0.00000000000000000 -10.00000000000000000 1.00000000000000000 0.00000000000000000 
1 0.00000000000000000 0.00000000000000000 1.00000000000000000 0.00000000000000000 
1 0.00000000000000000 -172.00000000000000000 1.00000000000000000 0.00000000000000000 
1 0.00000000000000000 0.00000000000000000 1.00000000000000000 0.00000000000000000 
1 0.00000000000000000 -172.00000000000000000 1.00000000000000000 0.00000000000000000 
1 0.00000000000000000 0.00000000000000000 1.00000000000000000 0.00000000000000000 
1 0.00000000000000000 -172.00000000000000000 1.00000000000000000 0.00000000000000000 
1 0.00000000000000000 0.00000000000000000 1.00000000000000000 0.00000000000000000 
1 0.00000000000000000 -172.00000000000000000 1.00000000000000000 0.00000000000000000 
1 -1.57079632679489656 0.00000000000000000 1.00000000000000000 0.00000000000000000 
2 16.56171874999748184 -6.83828125000251763 -1.00000000000000000 0.00000000000000000 -0.00000000000000000 -1.00000000000000000 1.00000000000000000
1 0.00000000000000000 0.00000000000000000 1.00000000000000000 0.00000000000000000 
1 0.00000000000000000 -10.00000000000000000 1.00000000000000000 0.00000000000000000 
1 0.00000000000000000 0.00000000000000000 1.00000000000000000 0.00000000000000000 
1 0.00000000000000000 -10.00000000000000000 1.00000000000000000 0.00000000000000000 
1 0.00000000000000000 0.00000000000000000 1.00000000000000000 0.00000000000000000 
1 0.00000000000000000 -172.00000000000000000 1.00000000000000000 0.00000000000000000 
1 0.00000000000000000 0.00000000000000000 1.00000000000000000 0.00000000000000000 
1 0.00000000000000000 -172.00000000000000000 1.00000000000000000 0.00000000000000000 
1 0.00000000000000000 0.00000000000000000 1.00000000000000000 0.00000000000000000 
1 0.00000000000000000 -172.00000000000000000 1.00000000000000000 0.00000000000000000 
1 0.00000000000000000 0.00000000000000000 1.00000000000000000 0.00000000000000000 
1 0.00000000000000000 -172.00000000000000000 1.00000000000000000 0.00000000000000000 
1 -1.00000000000000000 0.00000000000000000 1.00000000000000000 0.00000000000000000 
1 -1.00000000000000000 -172.00000000000000000 1.00000000000000000 0.00000000000000000 
1 -4.71238898038468879 0.00000000000000000 1.00000000000000000 0.00000000000000000 
2 -3.66328124999100346 -3.66328125000251781 -1.00000000000000000 0.00000000000000000 0.00000000000000000 1.00000000000000000 1.00000000000000000
1 0.00000000000000000 0.00000000000000000 1.00000000000000000 0.00000000000000000 
1 0.00000000000000000 -10.00000000000000000 1.00000000000000000 0.00000000000000000 
1 0.00000000000000000 0.00000000000000000 1.00000000000000000 0.00000000000000000 
1 0.00000000000000000 -10.00000000000000000 1.00000000000000000 0.00000000000000000 
1 0.00000000000000000 0.00000000000000000 1.00000000000000000 0.00000000000000000 
1 0.00000000000000000 -172.00000000000000000 1.00000000000000000 0.00000000000000000 
1 0.00000000000000000 0.00000000000000000 1.00000000000000000 0.00000000000000000 
1 0.00000000000000000 -172.00000000000000000 1.00000000000000000 0.00000000000000000 
1 0.00000000000000000 0.00000000000000000 1.00000000000000000 0.00000000000000000 
1 0.00000000000000000 -172.00000000000000000 1.00000000000000000 0.00000000000000000 
1 0.00000000000000000 0.00000000000000000 1.00000000000000000 0.00000000000000000 
1 0.00000000000000000 -172.00000000000000000 1.00000000000000000 0.00000000000000000 
1 -3.14159265358979312 0.00000000000000000 1.00000000000000000 0.00000000000000000 
2 16.56171874999748184 -5.66328125000251781 -1.00000000000000000 0.00000000000000000 -0.00000000000000000 -1.00000000000000000 1.00000000000000000
1 0.00000000000000000 0.00000000000000000 1.00000000000000000 0.00000000000000000 
1 0.00000000000000000 -10.00000000000000000 1.00000000000000000 0.00000000000000000 
1 0.00000000000000000 0.00000000000000000 1.00000000000000000 0.00000000000000000 
1 0.00000000000000000 -10.00000000000000000 1.00000000000000000 0.00000000000000000 
1 0.00000000000000000 0.00000000000000000 1.00000000000000000 0.00000000000000000 
1 0.00000000000000000 -172.00000000000000000 1.00000000000000000 0.00000000000000000 
1 0.00000000000000000 0.00000000000000000 1.00000000000000000 0.00000000000000000 
1 0.00000000000000000 -172.00000000000000000 1.00000000000000000 0.00000000000000000 
1 0.00000000000000000 0.00000000000000000 1.00000000000000000 0.00000000000000000 
1 0.00000000000000000 -172.00000000000000000 1.00000000000000000 0.00000000000000000 
1 0.00000000000000000 0.00000000000000000 1.00000000000000000 0.00000000000000000 
1 0.00000000000000000 -172.00000000000000000 1.00000000000000000 0.00000000000000000 
1 -1.00000000000000000 -0.00000000000000000 1.00000000000000000 0.00000000000000000 
1 -0.99999999999996447 -172.00000000000000000 1.00000000000000000 0.00000000000000000 
1 1.57079632679489700 0.00000000000000000 0.00000000000000000 -1.00000000000000000 
1 0.00000000000000000 0.00000000000000000 -0.00000000000000022 -1.00000000000000000 
1 0.00000000000000000 0.00000000000000000 0.00000000000000000 -1.00000000000000000 
1 6.28318530717958623 0.00000000000000000 0.00000000000000000 -1.00000000000000000 
2 8.52499999999999858 -159.30000000000001137 1.00000000000000000 0.00000000000000000 -0.00000000000000000 1.00000000000000000 3.96875000000000000
1 0.00000000000000000 -3.17500000001151328 1.00000000000000000 0.00000000000000000 
1 0.00000000000000000 0.00000000000000000 0.00000000000000000 -1.00000000000000000 
1 6.28318530717958623 0.00000000000000000 0.00000000000000000 -1.00000000000000000 
2 8.52499999999999858 -12.70000000000000284 1.00000000000000000 0.00000000000000000 -0.00000000000000000 1.00000000000000000 3.96875000000000000
1 0.00000000000000000 -3.17500000001151328 1.00000000000000000 0.00000000000000000 
1 4.71238898038468967 0.00000000000000000 0.00000000000000000 -1.00000000000000000 
1 1.57079632679489700 0.00000000000000000 0.00000000000000000 -1.00000000000000000 
1 23.39999999999999858 -0.00000000000001421 -0.00000000000000022 -1.00000000000000000 
1 3.14159265358979312 0.00000000000000000 0.00000000000000000 -1.00000000000000000 
1 20.22499999999999787 0.00000000000000000 0.00000000000000000 -1.00000000000000000 
1 3.14159265358979312 0.00000000000000000 0.00000000000000000 -1.00000000000000000 
1 6.28318530717958623 0.00000000000000000 0.00000000000000000 -1.00000000000000000 
1 0.00000000000000000 0.00000000000000000 0.00000000000000000 -1.00000000000000000 
1 3.14159265358979312 0.00000000000000000 0.00000000000000000 -1.00000000000000000 
1 4.71238898038468879 0.00000000000000000 0.00000000000000000 -1.00000000000000000 
1 20.22499999998848352 0.00000000000000000 0.00000000000000022 -1.00000000000000000 
1 4.71238898038468967 0.00000000000000000 0.00000000000000000 -1.00000000000000000 
1 0.00000000000000000 -0.00000000000001421 0.00000000000000022 -1.00000000000000000 
Curves 30
1 24.39999999999999858 -86.00000000000000000 0.00000000000001892 0.00000000000000000 1.00000000000000000 -0.00000000000000022 
1 25.39999999999999858 0.00000000000000000 0.00000000000000000 -1.00000000000000000 0.00000000000000000 0.00000000000000000 
1 1.00000000000000000 -86.00000000000000000 0.00000000000001892 0.00000000000000000 1.00000000000000000 -0.00000000000000022 
2 12.69999999999999929 -73.29999999999999716 0.00000000000000000 0.00000000000000000 0.00000000000000000 1.00000000000000000 1.00000000000000000 0.00000000000000000 -0.00000000000000000 -0.00000000000000000 1.00000000000000000 0.00000000000000000 3.96875000000000000
2 12.69999999999999929 73.29999999999999716 0.00000000000000000 0.00000000000000000 0.00000000000000000 1.00000000000000000 1.00000000000000000 0.00000000000000000 -0.00000000000000000 -0.00000000000000000 1.00000000000000000 0.00000000000000000 3.96875000000000000
1 25.39999999999999858 -86.00000000000000000 1.00000000000001887 0.00000000000000000 1.00000000000000000 -0.00000000000000022 
8 0.00000000000000000 1.57079632679489611
2 24.39999999999999858 0.99999999999999978 -0.00000000000000044 0.00000000000000000 0.00000000000000044 1.00000000000000000 0.00000000000000000 -1.00000000000000000 0.00000000000000044 1.00000000000000000 0.00000000000000000 -0.00000000000000000 1.00000000000000000
8 -0.00000000000000089 1.57079632679489656
2 0.99999999999999978 0.99999999999999978 -0.00000000000000044 -0.00000000000000000 -0.00000000000000044 -1.00000000000000000 0.00000000000000000 -1.00000000000000000 0.00000000000000044 -1.00000000000000000 0.00000000000000000 0.00000000000000000 1.00000000000000000
1 25.39999999999999858 3.17500000001151328 0.00000000000000000 0.00000000000000000 -1.00000000000000000 0.00000000000000000 
1 0.00000000000000000 0.00000000000000000 0.00000000000000000 0.00000000000000000 1.00000000000000000 0.00000000000000000 
8 3.14159265358979312 4.71238898038468967
2 24.39999999999999858 2.17500000001151328 -0.00000000000000097 -0.00000000000000000 -0.00000000000000044 -1.00000000000000000 0.00000000000000000 -1.00000000000000000 0.00000000000000044 -1.00000000000000000 0.00000000000000000 0.00000000000000000 1.00000000000000000
8 1.57079632679489656 3.14159265358979312
2 0.99999999999999978 24.39999999999999858 -0.00000000000001084 -0.00000000000000000 -0.00000000000000044 -1.00000000000000000 0.00000000000000000 -1.00000000000000000 0.00000000000000044 -1.00000000000000000 0.00000000000000000 0.00000000000000000 1.00000000000000000
1 3.17499999999999982 3.17500000001151328 0.00000000000000000 1.00000000000000000 0.00000000000000000 0.00000000000000000 
1 0.00000000000000000 25.39999999999999858 0.00000000000000000 1.00000000000000000 0.00000000000000000 0.00000000000000000 
8 4.71238898038468879 6.28318530717958623
2 4.17499999999999982 4.17500000001151417 -0.00000000000000185 0.00000000000000000 0.00000000000000044 1.00000000000000000 0.00000000000000000 -1.00000000000000000 0.00000000000000044 1.00000000000000000 0.00000000000000000 -0.00000000000000000 1.00000000000000000
8 3.14159265358979312 4.71238898038468967
2 2.17499999999999982 24.39999999999999858 -0.00000000000001084 -0.00000000000000000 -0.00000000000000044 -1.00000000000000000 0.00000000000000000 -1.00000000000000000 0.00000000000000044 -1.00000000000000000 0.00000000000000000 0.00000000000000000 1.00000000000000000
1 3.17499999999999982 25.39999999999999858 0.00000000000000000 0.00000000000000000 -1.00000000000000000 0.00000000000000000 
1 0.00000000000000000 -86.00000000000000000 1.00000000000001887 0.00000000000000000 1.00000000000000000 -0.00000000000000022 
1 16.66874999999999929 73.29999999999999716 -0.00000000000001613 0.00000000000000000 0.00000000000000022 1.00000000000000000 
2 12.69999999999999929 73.29999999999999716 3.17500000001149729 0.00000000000000000 -0.00000000000000022 -1.00000000000000000 1.00000000000000000 0.00000000000000000 0.00000000000000000 0.00000000000000000 -1.00000000000000000 0.00000000000000022 3.96875000000000000
1 16.66874999999999929 -73.29999999999999716 0.00000000000001613 0.00000000000000000 0.00000000000000022 1.00000000000000000 
2 12.69999999999999929 -73.29999999999999716 3.17500000001152927 0.00000000000000000 -0.00000000000000022 -1.00000000000000000 1.00000000000000000 0.00000000000000000 0.00000000000000000 0.00000000000000000 -1.00000000000000000 0.00000000000000022 3.96875000000000000
1 25.39999999999999858 -86.00000000000000000 2.17500000001153193 0.00000000000000000 1.00000000000000000 -0.00000000000000022 
1 0.00000000000000000 -85.99999999999998579 24.40000000000001634 0.00000000000000000 1.00000000000000000 -0.00000000000000022 
1 24.39999999999999858 -86.00000000000000000 3.17500000001153193 0.00000000000000000 1.00000000000000000 -0.00000000000000022 
1 1.00000000000000000 -85.99999999999998579 25.40000000000001634 0.00000000000000000 1.00000000000000000 -0.00000000000000022 
1 4.17499999999999982 -86.00000000000000000 3.17500000001153326 0.00000000000000000 1.00000000000000000 -0.00000000000000022 
1 2.17499999999999982 -85.99999999999998579 25.40000000000001634 0.00000000000000000 1.00000000000000000 -0.00000000000000022 
1 3.17499999999999982 -86.00000000000000000 4.17500000001153282 0.00000000000000000 1.00000000000000000 -0.00000000000000022 
1 3.17499999999999982 -85.99999999999998579 24.40000000000001634 0.00000000000000000 1.00000000000000000 -0.00000000000000022 
Polygon3D 0
PolygonOnTriangulations 0
Surfaces 57
1 24.39999999999999858 -86.00000000000000000 0.00000000000001892 0.00000000000000000 0.00000000000000022 1.00000000000000000 -1.00000000000000000 0.00000000000000000 0.00000000000000000 0.00000000000000000 -1.00000000000000000 0.00000000000000022 
2 24.39999999999999858 -86.00000000000000000 1.00000000000001865 0.00000000000000000 -1.00000000000000000 0.00000000000000044 0.00000000000000000 -0.00000000000000044 -1.00000000000000000 1.00000000000000000 0.00000000000000000 0.00000000000000000 1.00000000000000000
2 0.99999999999999978 -86.00000000000000000 1.00000000000001865 -0.00000000000000000 -1.00000000000000000 0.00000000000000044 0.00000000000000000 -0.00000000000000044 -1.00000000000000000 -1.00000000000000000 -0.00000000000000000 -0.00000000000000000 1.00000000000000000
2 12.69999999999999929 73.29999999999999716 -0.00000000000001613 0.00000000000000000 -0.00000000000000022 -1.00000000000000000 1.00000000000000000 0.00000000000000000 0.00000000000000000 0.00000000000000000 -1.00000000000000000 0.00000000000000022 3.96875000000000000
1 12.69999999999999929 73.29999999999999716 -0.00000000000001613 -0.00000000000000000 -0.00000000000000022 -1.00000000000000000 0.00000000000000000 -1.00000000000000000 0.00000000000000022 -1.00000000000000000 0.00000000000000000 0.00000000000000000 
2 12.69999999999999929 73.29999999999999716 -0.00000000000001613 0.00000000000000000 -0.00000000000000022 -1.00000000000000000 1.00000000000000000 0.00000000000000000 0.00000000000000000 0.00000000000000000 -1.00000000000000000 0.00000000000000022 3.96875000000000000
2 12.69999999999999929 73.29999999999999716 -0.00000000000001613 0.00000000000000000 -0.00000000000000022 -1.00000000000000000 1.00000000000000000 0.00000000000000000 0.00000000000000000 0.00000000000000000 -1.00000000000000000 0.00000000000000022 3.96875000000000000
2 12.69999999999999929 -73.29999999999999716 0.00000000000001613 0.00000000000000000 -0.00000000000000022 -1.00000000000000000 1.00000000000000000 0.00000000000000000 0.00000000000000000 0.00000000000000000 -1.00000000000000000 0.00000000000000022 3.96875000000000000
1 12.69999999999999929 -73.29999999999999716 0.00000000000001613 0.00000000000000000 -0.00000000000000022 -1.00000000000000000 0.00000000000000000 -1.00000000000000000 0.00000000000000022 -1.00000000000000000 -0.00000000000000000 0.00000000000000000 
2 12.69999999999999929 -73.29999999999999716 0.00000000000001613 0.00000000000000000 -0.00000000000000022 -1.00000000000000000 1.00000000000000000 0.00000000000000000 0.00000000000000000 0.00000000000000000 -1.00000000000000000 0.00000000000000022 3.96875000000000000
2 12.69999999999999929 -73.29999999999999716 0.00000000000001613 0.00000000000000000 -0.00000000000000022 -1.00000000000000000 1.00000000000000000 0.00000000000000000 0.00000000000000000 0.00000000000000000 -1.00000000000000000 0.00000000000000022 3.96875000000000000
1 25.39999999999999858 -86.00000000000000000 2.17500000001153238 -1.00000000000000000 0.00000000000000000 0.00000000000000000 0.00000000000000000 0.00000000000000000 -1.00000000000000000 -0.00000000000000000 -1.00000000000000000 -0.00000000000000000 
2 24.39999999999999858 0.99999999999999978 -0.00000000000000044 0.00000000000000000 0.00000000000000044 1.00000000000000000 0.00000000000000000 -1.00000000000000000 0.00000000000000044 1.00000000000000000 0.00000000000000000 -0.00000000000000000 1.00000000000000000
1 7.83828125000251763 0.00000000000000174 7.83828125000251763 -0.00000000000000000 1.00000000000000000 -0.00000000000000022 0.00000000000000000 0.00000000000000022 1.00000000000000000 1.00000000000000000 0.00000000000000000 -0.00000000000000000 
2 24.39999999999999858 0.00000000000000044 0.99999999999999978 0.00000000000000000 -1.00000000000000000 0.00000000000000044 0.00000000000000000 -0.00000000000000044 -1.00000000000000000 1.00000000000000000 0.00000000000000000 0.00000000000000000 1.00000000000000000
2 24.39999999999999858 -5.00000000000000000 1.00000000000000089 0.00000000000000000 -1.00000000000000000 0.00000000000000044 0.00000000000000000 -0.00000000000000044 -1.00000000000000000 1.00000000000000000 0.00000000000000000 0.00000000000000000 1.00000000000000000
2 24.39999999999999858 -86.00000000000000000 1.00000000000001865 0.00000000000000000 -1.00000000000000000 0.00000000000000044 0.00000000000000000 -0.00000000000000044 -1.00000000000000000 1.00000000000000000 0.00000000000000000 0.00000000000000000 1.00000000000000000
2 24.39999999999999858 -86.00000000000000000 1.00000000000001865 0.00000000000000000 -1.00000000000000000 0.00000000000000044 0.00000000000000000 -0.00000000000000044 -1.00000000000000000 1.00000000000000000 0.00000000000000000 0.00000000000000000 1.00000000000000000
2 24.39999999999999858 -86.00000000000000000 1.00000000000001865 0.00000000000000000 -1.00000000000000000 0.00000000000000044 0.00000000000000000 -0.00000000000000044 -1.00000000000000000 1.00000000000000000 0.00000000000000000 0.00000000000000000 1.00000000000000000
2 0.99999999999999978 0.99999999999999978 -0.00000000000000044 0.00000000000000000 0.00000000000000044 1.00000000000000000 0.00000000000000000 -1.00000000000000000 0.00000000000000044 -1.00000000000000000 -0.00000000000000000 0.00000000000000000 1.00000000000000000
2 0.99999999999999978 0.00000000000000044 0.99999999999999978 -0.00000000000000000 -1.00000000000000000 0.00000000000000044 0.00000000000000000 -0.00000000000000044 -1.00000000000000000 -1.00000000000000000 -0.00000000000000000 -0.00000000000000000 1.00000000000000000
2 0.99999999999999978 -5.00000000000000000 1.00000000000000089 -0.00000000000000000 -1.00000000000000000 0.00000000000000044 0.00000000000000000 -0.00000000000000044 -1.00000000000000000 -1.00000000000000000 -0.00000000000000000 -0.00000000000000000 1.00000000000000000
2 0.99999999999999978 -86.00000000000000000 1.00000000000001865 -0.00000000000000000 -1.00000000000000000 0.00000000000000044 0.00000000000000000 -0.00000000000000044 -1.00000000000000000 -1.00000000000000000 -0.00000000000000000 -0.00000000000000000 1.00000000000000000
2 0.99999999999999978 -86.00000000000000000 1.00000000000001865 -0.00000000000000000 -1.00000000000000000 0.00000000000000044 0.00000000000000000 -0.00000000000000044 -1.00000000000000000 -1.00000000000000000 -0.00000000000000000 -0.00000000000000000 1.00000000000000000
2 0.99999999999999978 -86.00000000000000000 1.00000000000001865 -0.00000000000000000 -1.00000000000000000 0.00000000000000044 0.00000000000000000 -0.00000000000000044 -1.00000000000000000 -1.00000000000000000 -0.00000000000000000 -0.00000000000000000 1.00000000000000000
1 0.00000000000000000 -86.00000000000000000 1.00000000000001887 1.00000000000000000 -0.00000000000000000 0.00000000000000000 0.00000000000000000 0.00000000000000000 1.00000000000000000 -0.00000000000000000 -1.00000000000000000 0.00000000000000000 
2 24.39999999999999858 2.17500000001151328 -0.00000000000000097 0.00000000000000000 0.00000000000000044 1.00000000000000000 0.00000000000000000 1.00000000000000000 -0.00000000000000044 1.00000000000000000 -0.00000000000000000 -0.00000000000000000 1.00000000000000000
2 24.39999999999999858 0.00000000000000097 2.17500000001151328 -0.00000000000000000 -1.00000000000000000 0.00000000000000044 0.00000000000000000 -0.00000000000000044 -1.00000000000000000 -1.00000000000000000 -0.00000000000000000 -0.00000000000000000 1.00000000000000000
2 24.39999999999999858 -4.99999999999999911 2.17500000001151417 -0.00000000000000000 -1.00000000000000000 0.00000000000000044 0.00000000000000000 -0.00000000000000044 -1.00000000000000000 -1.00000000000000000 -0.00000000000000000 -0.00000000000000000 1.00000000000000000
2 24.39999999999999858 -86.00000000000000000 2.17500000001153238 -0.00000000000000000 -1.00000000000000000 0.00000000000000044 0.00000000000000000 -0.00000000000000044 -1.00000000000000000 -1.00000000000000000 -0.00000000000000000 -0.00000000000000000 1.00000000000000000
2 24.39999999999999858 -86.00000000000000000 2.17500000001153238 -0.00000000000000000 -1.00000000000000000 0.00000000000000044 0.00000000000000000 -0.00000000000000044 -1.00000000000000000 -1.00000000000000000 -0.00000000000000000 -0.00000000000000000 1.00000000000000000
2 24.39999999999999858 -86.00000000000000000 2.17500000001153238 -0.00000000000000000 -1.00000000000000000 0.00000000000000044 0.00000000000000000 -0.00000000000000044 -1.00000000000000000 -1.00000000000000000 -0.00000000000000000 -0.00000000000000000 1.00000000000000000
2 24.39999999999999858 -86.00000000000000000 2.17500000001153238 -0.00000000000000000 -1.00000000000000000 0.00000000000000044 0.00000000000000000 -0.00000000000000044 -1.00000000000000000 -1.00000000000000000 -0.00000000000000000 -0.00000000000000000 1.00000000000000000
2 0.99999999999999978 24.39999999999999858 -0.00000000000001084 0.00000000000000000 0.00000000000000044 1.00000000000000000 -1.00000000000000000 0.00000000000000000 0.00000000000000000 -0.00000000000000000 1.00000000000000000 -0.00000000000000044 1.00000000000000000
2 0.99999999999999978 0.00000000000001084 24.39999999999999858 -0.00000000000000000 -1.00000000000000000 0.00000000000000044 0.00000000000000000 -0.00000000000000044 -1.00000000000000000 -1.00000000000000000 -0.00000000000000000 -0.00000000000000000 1.00000000000000000
2 0.99999999999999978 -4.99999999999998934 24.39999999999999858 -0.00000000000000000 -1.00000000000000000 0.00000000000000044 0.00000000000000000 -0.00000000000000044 -1.00000000000000000 -1.00000000000000000 -0.00000000000000000 -0.00000000000000000 1.00000000000000000
2 0.99999999999999978 -85.99999999999998579 24.40000000000001634 -0.00000000000000000 -1.00000000000000000 0.00000000000000044 0.00000000000000000 -0.00000000000000044 -1.00000000000000000 -1.00000000000000000 -0.00000000000000000 -0.00000000000000000 1.00000000000000000
2 0.99999999999999978 -85.99999999999998579 24.40000000000001634 -0.00000000000000000 -1.00000000000000000 0.00000000000000044 0.00000000000000000 -0.00000000000000044 -1.00000000000000000 -1.00000000000000000 -0.00000000000000000 -0.00000000000000000 1.00000000000000000
2 0.99999999999999978 -85.99999999999998579 24.40000000000001634 -0.00000000000000000 -1.00000000000000000 0.00000000000000044 0.00000000000000000 -0.00000000000000044 -1.00000000000000000 -1.00000000000000000 -0.00000000000000000 -0.00000000000000000 1.00000000000000000
2 0.99999999999999978 -85.99999999999998579 24.40000000000001634 -0.00000000000000000 -1.00000000000000000 0.00000000000000044 0.00000000000000000 -0.00000000000000044 -1.00000000000000000 -1.00000000000000000 -0.00000000000000000 -0.00000000000000000 1.00000000000000000
1 4.17499999999999982 -86.00000000000000000 3.17500000001153238 0.00000000000000000 -0.00000000000000022 -1.00000000000000000 1.00000000000000000 0.00000000000000000 0.00000000000000000 0.00000000000000000 -1.00000000000000000 0.00000000000000022 
2 4.17499999999999982 4.17500000001151417 -0.00000000000000185 0.00000000000000000 0.00000000000000044 1.00000000000000000 -1.00000000000000000 0.00000000000000000 0.00000000000000000 0.00000000000000000 -1.00000000000000000 0.00000000000000044 1.00000000000000000
2 4.17499999999999982 0.00000000000000185 4.17500000001151417 0.00000000000000000 -1.00000000000000000 0.00000000000000044 0.00000000000000000 -0.00000000000000044 -1.00000000000000000 1.00000000000000000 0.00000000000000000 0.00000000000000000 1.00000000000000000
2 4.17499999999999982 -4.99999999999999822 4.17500000001151506 0.00000000000000000 -1.00000000000000000 0.00000000000000044 0.00000000000000000 -0.00000000000000044 -1.00000000000000000 1.00000000000000000 0.00000000000000000 0.00000000000000000 1.00000000000000000
2 4.17499999999999982 -86.00000000000000000 4.17500000001153282 0.00000000000000000 -1.00000000000000000 0.00000000000000044 0.00000000000000000 -0.00000000000000044 -1.00000000000000000 1.00000000000000000 0.00000000000000000 0.00000000000000000 1.00000000000000000
2 4.17499999999999982 -86.00000000000000000 4.17500000001153282 0.00000000000000000 -1.00000000000000000 0.00000000000000044 0.00000000000000000 -0.00000000000000044 -1.00000000000000000 1.00000000000000000 0.00000000000000000 0.00000000000000000 1.00000000000000000
2 4.17499999999999982 -86.00000000000000000 4.17500000001153282 0.00000000000000000 -1.00000000000000000 0.00000000000000044 0.00000000000000000 -0.00000000000000044 -1.00000000000000000 1.00000000000000000 0.00000000000000000 0.00000000000000000 1.00000000000000000
2 4.17499999999999982 -86.00000000000000000 4.17500000001153282 0.00000000000000000 -1.00000000000000000 0.00000000000000044 0.00000000000000000 -0.00000000000000044 -1.00000000000000000 1.00000000000000000 0.00000000000000000 0.00000000000000000 1.00000000000000000
2 2.17499999999999982 24.39999999999999858 -0.00000000000001084 0.00000000000000000 0.00000000000000044 1.00000000000000000 0.00000000000000000 1.00000000000000000 -0.00000000000000044 1.00000000000000000 -0.00000000000000000 -0.00000000000000000 1.00000000000000000
2 2.17499999999999982 0.00000000000001084 24.39999999999999858 -0.00000000000000000 -1.00000000000000000 0.00000000000000044 0.00000000000000000 -0.00000000000000044 -1.00000000000000000 -1.00000000000000000 -0.00000000000000000 -0.00000000000000000 1.00000000000000000
2 2.17499999999999982 -4.99999999999998934 24.39999999999999858 -0.00000000000000000 -1.00000000000000000 0.00000000000000044 0.00000000000000000 -0.00000000000000044 -1.00000000000000000 -1.00000000000000000 -0.00000000000000000 -0.00000000000000000 1.00000000000000000
2 2.17499999999999982 -85.99999999999998579 24.40000000000001634 -0.00000000000000000 -1.00000000000000000 0.00000000000000044 0.00000000000000000 -0.00000000000000044 -1.00000000000000000 -1.00000000000000000 -0.00000000000000000 -0.00000000000000000 1.00000000000000000
2 2.17499999999999982 -85.99999999999998579 24.40000000000001634 -0.00000000000000000 -1.00000000000000000 0.00000000000000044 0.00000000000000000 -0.00000000000000044 -1.00000000000000000 -1.00000000000000000 -0.00000000000000000 -0.00000000000000000 1.00000000000000000
2 2.17499999999999982 -85.99999999999998579 24.40000000000001634 -0.00000000000000000 -1.00000000000000000 0.00000000000000044 0.00000000000000000 -0.00000000000000044 -1.00000000000000000 -1.00000000000000000 -0.00000000000000000 -0.00000000000000000 1.00000000000000000
2 2.17499999999999982 -85.99999999999998579 24.40000000000001634 -0.00000000000000000 -1.00000000000000000 0.00000000000000044 0.00000000000000000 -0.00000000000000044 -1.00000000000000000 -1.00000000000000000 -0.00000000000000000 -0.00000000000000000 1.00000000000000000
1 3.17499999999999982 -86.00000000000000000 24.40000000000001634 -1.00000000000000000 0.00000000000000000 0.00000000000000000 0.00000000000000000 0.00000000000000000 -1.00000000000000000 -0.00000000000000000 -1.00000000000000000 -0.00000000000000000 
1 1.00000000000000000 -86.00000000000000000 25.40000000000001634 0.00000000000000000 -0.00000000000000022 -1.00000000000000000 1.00000000000000000 0.00000000000000000 0.00000000000000000 0.00000000000000000 -1.00000000000000000 0.00000000000000022 
Triangulations 0

TShapes 82
Ve
0.000000100000000
24.399999999999999 -0.000000000000000 0.000000000000000
0 0

0101101
*
Ed
 0.000000100000000 1 1 0
1  1 0 0.000000000000000 172.000000000000000
2  1 2 0 0.000000000000000 172.000000000000000
4 C1 1 0 2 0
2  2 1 0 0.000000000000000 172.000000000000000
0

0101000
+82 15 -82 17 *
Ve
0.000000100000000
1.000000000000000 -0.000000000000000 0.000000000000000
0 0

0101101
*
Ed
 0.000000100000000 1 1 0
1  2 0 1.000000000000000 24.399999999999999
2  3 1 23 1.000000000000000 24.399999999999999
2  4 1 24 1.000000000000000 24.399999999999999
0

0101000
+82 25 -80 25 *
Ed
 0.000000100000000 1 1 0
1  3 0 0.000000000000000 172.000000000000000
2  5 3 0 0.000000000000000 172.000000000000000
4 C1 1 0 3 0
2  6 1 0 0.000000000000000 172.000000000000000
0

0101000
+80 15 -80 17 *
Wi

0101100
+81 4 -79 22 +79 26 -78 4 *
Ve
0.000000100000000
16.668749999999999 -73.299999999999997 0.000000000000000
0 0

0101101
*
Ed
 0.000000100000000 1 1 0
1  4 0 0.000000000000000 6.283185307179586
2  7 4 33 0.000000000000000 6.283185307179586
2  8 4 35 0.000000000000000 6.283185307179586
2  9 5 36 0.000000000000000 6.283185307179586
2  10 1 37 0.000000000000000 6.283185307179586
2  11 6 41 0.000000000000000 6.283185307179586
2  12 6 43 0.000000000000000 6.283185307179586
2  13 1 44 0.000000000000000 6.283185307179586
2  14 7 45 0.000000000000000 6.283185307179586
2  15 7 47 0.000000000000000 6.283185307179586
2  16 1 48 0.000000000000000 6.283185307179586
0

0101000
+76 0 -76 0 *
Wi

0101100
+75 29 *
Ve
0.000000100000000
16.668749999999999 73.299999999999997 0.000000000000000
0 0

0101101
*
Ed
 0.000000100000000 1 1 0
1  5 0 0.000000000000000 6.283185307179586
2  17 8 33 0.000000000000000 6.283185307179586
2  18 8 35 0.000000000000000 6.283185307179586
2  19 9 36 0.000000000000000 6.283185307179586
2  20 1 37 0.000000000000000 6.283185307179586
2  21 10 41 0.000000000000000 6.283185307179586
2  22 10 43 0.000000000000000 6.283185307179586
2  23 1 44 0.000000000000000 6.283185307179586
2  24 11 45 0.000000000000000 6.283185307179586
2  25 11 47 0.000000000000000 6.283185307179586
2  26 1 48 0.000000000000000 6.283185307179586
0

0101000
+73 0 -73 0 *
Wi

0101100
+72 29 *
Fa
0  0.000000100000000 1 4

0101000
+77 0 +74 0 +71 0 *
Ve
0.000000100000000
25.399999999999999 1.000000000000000 -0.000000000000000
0 0

0101101
*
Ed
 0.000000100000000 1 1 0
1  6 0 0.000000000000000 172.000000000000000
2  27 2 0 0.000000000000000 172.000000000000000
4 C1 2 0 12 0
0

0101000
+69 15 -69 17 *
Ed
 0.000000100000000 1 1 0
1  7 0 0.000000000000000 1.570796326794896
2  28 13 0 0.000000000000000 1.570796326794896
2  29 14 49 0.000000000000000 1.570796326794896
2  30 15 52 0.000000000000000 1.570796326794896
2  31 15 54 0.000000000000000 1.570796326794896
2  32 16 58 0.000000000000000 1.570796326794896
2  33 16 60 0.000000000000000 1.570796326794896
2  34 17 64 0.000000000000000 1.570796326794896
2  35 17 66 0.000000000000000 1.570796326794896
2  36 18 70 0.000000000000000 1.570796326794896
2  37 18 72 0.000000000000000 1.570796326794896
2  38 19 76 0.000000000000000 1.570796326794896
2  39 19 78 0.000000000000000 1.570796326794896
2  40 2 79 0.000000000000000 1.570796326794896
2  41 2 80 0.000000000000000 1.570796326794896
0

0101000
+82 0 -69 0 *
Wi

0101100
+81 0 -68 0 -67 15 +67 17 *
Fa
0  0.000000100000000 2 0

0101000
+66 0 *
Ve
0.000000100000000
-0.000000000000000 1.000000000000000 -0.000000000000000
0 0

0101101
*
Ed
 0.000000100000000 1 1 0
1  8 0 -0.000000000000001 1.570796326794897
2  42 20 0 -0.000000000000001 1.570796326794897
2  43 14 49 -0.000000000000001 1.570796326794897
2  44 21 52 -0.000000000000001 1.570796326794897
2  45 21 54 -0.000000000000001 1.570796326794897
2  46 22 58 -0.000000000000001 1.570796326794897
2  47 22 60 -0.000000000000001 1.570796326794897
2  48 23 64 -0.000000000000001 1.570796326794897
2  49 23 66 -0.000000000000001 1.570796326794897
2  50 24 70 -0.000000000000001 1.570796326794897
2  51 24 72 -0.000000000000001 1.570796326794897
2  52 25 76 -0.000000000000001 1.570796326794897
2  53 25 78 -0.000000000000001 1.570796326794897
2  54 3 79 -0.000000000000001 1.570796326794897
2  55 3 80 -0.000000000000001 1.570796326794897
0

0101000
+80 0 -64 0 *
Ve
0.000000100000000
25.399999999999999 2.175000000011513 -0.000000000000001
0 0

0101101
*
Ed
 0.000000100000000 1 1 0
1  9 0 1.000000000000000 2.175000000011514
0

0101000
+62 25 -69 25 *
Ve
0.000000100000000
-0.000000000000000 24.399999999999999 -0.000000000000011
0 0

0101101
*
Ed
 0.000000100000000 1 1 0
1  10 0 1.000000000000000 24.399999999999999
2  56 26 23 1.000000000000000 24.399999999999999
2  57 26 24 1.000000000000000 24.399999999999999
0

0101000
+64 25 -60 25 *
Ve
0.000000100000000
24.399999999999999 3.175000000011513 -0.000000000000001
0 0

0101101
*
Ed
 0.000000100000000 1 1 0
1  11 0 3.141592653589793 4.712388980384690
2  58 27 0 3.141592653589793 4.712388980384690
2  59 14 49 3.141592653589793 4.712388980384690
2  60 28 52 3.141592653589793 4.712388980384690
2  61 28 54 3.141592653589793 4.712388980384690
2  62 29 58 3.141592653589793 4.712388980384690
2  63 29 60 3.141592653589793 4.712388980384690
2  64 30 64 3.141592653589793 4.712388980384690
2  65 30 66 3.141592653589793 4.712388980384690
2  66 31 70 3.141592653589793 4.712388980384690
2  67 31 72 3.141592653589793 4.712388980384690
2  68 32 76 3.141592653589793 4.712388980384690
2  69 32 78 3.141592653589793 4.712388980384690
2  70 33 79 3.141592653589793 4.712388980384690
2  71 33 80 3.141592653589793 4.712388980384690
0

0101000
+58 0 -62 0 *
Ve
0.000000100000000
1.000000000000000 25.399999999999999 -0.000000000000011
0 0

0101101
*
Ed
 0.000000100000000 1 1 0
1  12 0 1.570796326794897 3.141592653589793
2  72 34 0 1.570796326794897 3.141592653589793
2  73 14 49 1.570796326794897 3.141592653589793
2  74 35 52 1.570796326794897 3.141592653589793
2  75 35 54 1.570796326794897 3.141592653589793
2  76 36 58 1.570796326794897 3.141592653589793
2  77 36 60 1.570796326794897 3.141592653589793
2  78 37 64 1.570796326794897 3.141592653589793
2  79 37 66 1.570796326794897 3.141592653589793
2  80 38 70 1.570796326794897 3.141592653589793
2  81 38 72 1.570796326794897 3.141592653589793
2  82 39 76 1.570796326794897 3.141592653589793
2  83 39 78 1.570796326794897 3.141592653589793
2  84 40 79 1.570796326794897 3.141592653589793
2  85 40 80 1.570796326794897 3.141592653589793
0

0101000
+60 0 -56 0 *
Ve
0.000000100000000
4.175000000000000 3.175000000011514 -0.000000000000001
0 0

0101101
*
Ed
 0.000000100000000 1 1 0
1  13 0 1.000000000000000 21.224999999999998
2  86 41 23 1.000000000000000 21.224999999999998
2  87 41 24 1.000000000000000 21.224999999999998
0

0101000
+54 25 -58 25 *
Ve
0.000000100000000
2.175000000000000 25.399999999999999 -0.000000000000011
0 0

0101101
*
Ed
 0.000000100000000 1 1 0
1  14 0 1.000000000000000 2.175000000000000
0

0101000
+56 25 -52 25 *
Ve
0.000000100000000
3.175000000000000 4.175000000011514 -0.000000000000002
0 0

0101101
*
Ed
 0.000000100000000 1 1 0
1  15 0 4.712388980384689 6.283185307179586
2  88 42 0 4.712388980384689 6.283185307179586
2  89 14 49 4.712388980384689 6.283185307179586
2  90 43 52 4.712388980384689 6.283185307179586
2  91 43 54 4.712388980384689 6.283185307179586
2  92 44 58 4.712388980384689 6.283185307179586
2  93 44 60 4.712388980384689 6.283185307179586
2  94 45 64 4.712388980384689 6.283185307179586
2  95 45 66 4.712388980384689 6.283185307179586
2  96 46 70 4.712388980384689 6.283185307179586
2  97 46 72 4.712388980384689 6.283185307179586
2  98 47 76 4.712388980384689 6.283185307179586
2  99 47 78 4.712388980384689 6.283185307179586
2  100 48 79 4.712388980384689 6.283185307179586
2  101 48 80 4.712388980384689 6.283185307179586
0

0101000
+50 0 -54 0 *
Ve
0.000000100000000
3.175000000000000 24.399999999999999 -0.000000000000011
0 0

0101101
*
Ed
 0.000000100000000 1 1 0
1  16 0 3.141592653589793 4.712388980384690
2  102 49 0 3.141592653589793 4.712388980384690
2  103 14 49 3.141592653589793 4.712388980384690
2  104 50 52 3.141592653589793 4.712388980384690
2  105 50 54 3.141592653589793 4.712388980384690
2  106 51 58 3.141592653589793 4.712388980384690
2  107 51 60 3.141592653589793 4.712388980384690
2  108 52 64 3.141592653589793 4.712388980384690
2  109 52 66 3.141592653589793 4.712388980384690
2  110 53 70 3.141592653589793 4.712388980384690
2  111 53 72 3.141592653589793 4.712388980384690
2  112 54 76 3.141592653589793 4.712388980384690
2  113 54 78 3.141592653589793 4.712388980384690
2  114 55 79 3.141592653589793 4.712388980384690
2  115 55 80 3.141592653589793 4.712388980384690
0

0101000
+52 0 -48 0 *
Ed
 0.000000100000000 1 1 0
1  17 0 1.000000000000000 21.224999999988484
2  116 56 23 1.000000000000000 21.224999999988484
2  117 56 24 1.000000000000000 21.224999999988484
0

0101000
+48 25 -50 25 *
Wi

0101100
+79 83 -67 0 +63 0 +61 83 +59 83 +57 0 +55 0 +53 83 +51 83 +49 0 
+47 0 +46 83 *
Fa
0  0.000000100000000 14 0

0101000
+45 82 *
Ed
 0.000000100000000 1 1 0
1  18 0 0.000000000000000 172.000000000000000
2  118 3 0 0.000000000000000 172.000000000000000
4 C1 3 0 26 0
2  119 26 0 0.000000000000000 172.000000000000000
0

0101000
+64 15 -64 17 *
Wi

0101100
+78 0 -43 0 -63 15 +63 17 *
Fa
0  0.000000100000000 3 0

0101000
+42 0 *
Ve
0.000000100000000
16.668749999999999 73.299999999999997 3.175000000011497
0 0

0101101
*
Ed
 0.000000100000000 1 1 0
1  19 0 0.000000000000000 3.175000000011513
3  120 121CN 7 0 0.000000000000000 3.175000000011513
0

0101000
+76 29 -40 0 *
Ed
 0.000000100000000 1 1 0
1  20 0 0.000000000000000 6.283185307179586
2  122 41 4 0.000000000000000 6.283185307179586
2  123 7 0 0.000000000000000 6.283185307179586
0

0101000
+40 0 -40 0 *
Wi

0101100
-75 29 -39 0 +38 0 +39 0 *
Fa
0  0.000000100000000 7 0

0101000
+37 0 *
Ve
0.000000100000000
16.668749999999999 -73.299999999999997 3.175000000011530
0 0

0101101
*
Ed
 0.000000100000000 1 1 0
1  21 0 0.000000000000000 3.175000000011514
3  124 125CN 11 0 0.000000000000000 3.175000000011514
0

0101000
+73 29 -35 0 *
Ed
 0.000000100000000 1 1 0
1  22 0 0.000000000000000 6.283185307179586
2  126 41 4 0.000000000000000 6.283185307179586
2  127 11 0 0.000000000000000 6.283185307179586
0

0101000
+35 0 -35 0 *
Wi

0101100
-72 29 -34 0 +33 0 +34 0 *
Fa
0  0.000000100000000 11 0

0101000
+32 0 *
Ed
 0.000000100000000 1 1 0
1  23 0 0.000000000000000 172.000000000000000
2  128 33 0 0.000000000000000 172.000000000000000
4 C1 12 0 33 0
0

0101000
+62 15 -62 17 *
Wi

0101100
+30 0 -68 0 -61 85 +61 86 *
Fa
0  0.000000100000000 12 0

0101000
+29 0 *
Ed
 0.000000100000000 1 1 0
1  24 0 0.000000000000000 172.000000000000000
2  129 40 0 0.000000000000000 172.000000000000000
4 C1 26 0 40 0
2  130 26 0 0.000000000000000 172.000000000000000
0

0101000
+60 15 -60 17 *
Wi

0101100
+43 0 -27 0 -59 85 +59 86 *
Fa
0  0.000000100000000 26 0

0101000
+26 0 *
Ed
 0.000000100000000 1 1 0
1  25 0 0.000000000000000 172.000000000000000
2  131 33 0 0.000000000000000 172.000000000000000
4 C1 33 0 41 0
2  132 41 0 0.000000000000000 172.000000000000000
0

0101000
+58 15 -58 17 *
Wi

0101100
+24 0 -30 0 -57 15 +57 17 *
Fa
0  0.000000100000000 33 0

0101000
+23 0 *
Ed
 0.000000100000000 1 1 0
1  26 0 0.000000000000000 172.000000000000000
2  133 40 0 0.000000000000000 172.000000000000000
4 C1 40 0 57 0
0

0101000
+56 15 -56 17 *
Wi

0101100
+27 0 -21 0 -55 15 +55 17 *
Fa
0  0.000000100000000 40 0

0101000
+20 0 *
Ed
 0.000000100000000 1 1 0
1  27 0 0.000000000000000 172.000000000000000
2  134 48 0 0.000000000000000 172.000000000000000
4 C1 41 0 48 0
2  135 41 0 0.000000000000000 172.000000000000000
0

0101000
+54 15 -54 17 *
Wi

0101100
+18 4 -53 22 +53 26 -24 4 *
Wi

0101100
-38 0 *
Wi

0101100
-33 0 *
Fa
0  0.000000100000000 41 4

0101000
+17 0 +16 0 +15 0 *
Ed
 0.000000100000000 1 1 0
1  28 0 0.000000000000000 172.000000000000000
2  136 55 0 0.000000000000000 172.000000000000000
4 C1 57 0 55 0
0

0101000
+52 15 -52 17 *
Wi

0101100
+21 0 -13 0 -51 85 +51 86 *
Fa
0  0.000000100000000 57 0

0101000
+12 0 *
Ed
 0.000000100000000 1 1 0
1  29 0 0.000000000000000 172.000000000000000
2  137 48 0 0.000000000000000 172.000000000000000
4 C1 48 0 56 0
2  138 56 0 0.000000000000000 172.000000000000000
0

0101000
+50 15 -50 17 *
Wi

0101100
+10 0 -18 0 -49 15 +49 17 *
Fa
0  0.000000100000000 48 0

0101000
+9 0 *
Ed
 0.000000100000000 1 1 0
1  30 0 0.000000000000000 172.000000000000000
2  139 55 0 0.000000000000000 172.000000000000000
4 C1 55 0 56 0
2  140 56 0 0.000000000000000 172.000000000000000
0

0101000
+48 15 -48 17 *
Wi

0101100
+13 0 -7 0 -47 15 +47 17 *
Fa
0  0.000000100000000 55 0

0101000
+6 0 *
Wi

0101100
+7 0 -10 0 -46 85 +46 86 *
Fa
0  0.000000100000000 56 0

0101000
+4 0 *
Sh

0101100
-70 0 +65 4 -44 81 +44 84 -41 4 -36 0 -31 0 -28 4 -25 4 -22 4 
-19 4 -14 0 -11 4 -8 4 -5 4 -3 4 *
So

0100000
+2 0 *

+1 1 