
CASCADE Topology V1, (c) Matra-Datavision
Locations 43
1
1.000000000000000 0.000000000000000 0.000000000000000 0.000000000000000 
0.000000000000000 1.000000000000000 0.000000000000000 0.000000000000000 
0.000000000000000 0.000000000000000 1.000000000000000 0.000000000000000 
1
1.000000000000000 0.000000000000000 0.000000000000000 0.000000000000000 
0.000000000000000 1.000000000000000 0.000000000000000 0.000000000000000 
0.000000000000000 0.000000000000000 1.000000000000000 0.000000000000000 
1
1.000000000000000 0.000000000000000 0.000000000000000 0.000000000000000 
0.000000000000000 1.000000000000000 0.000000000000000 0.000000000000000 
0.000000000000000 0.000000000000000 1.000000000000000 0.000000000000000 
2  2 1 3 -1 0
1
1.000000000000000 0.000000000000000 0.000000000000000 0.000000000000000 
0.000000000000000 1.000000000000000 0.000000000000000 0.000000000000000 
0.000000000000000 0.000000000000000 1.000000000000000 0.000000000000000 
2  5 -1 3 1 2 -1 0
1
1.000000000000000 0.000000000000000 0.000000000000000 0.000000000000000 
0.000000000000000 1.000000000000000 0.000000000000000 0.000000000000000 
0.000000000000000 0.000000000000000 1.000000000000000 0.000000000000000 
1
1.000000000000000 0.000000000000000 0.000000000000000 0.000000000000000 
0.000000000000000 0.000000000000000 -1.000000000000000 0.000000000000000 
0.000000000000000 1.000000000000000 0.000000000000000 0.000000000000000 
1
1.000000000000000 0.000000000000000 0.000000000000000 0.000000000000000 
0.000000000000000 -0.000000000000000 -1.000000000000000 0.000000000000000 
0.000000000000000 1.000000000000000 -0.000000000000000 0.000000000000000 
1
1.000000000000000 0.000000000000000 0.000000000000000 0.000000000000000 
0.000000000000000 1.000000000000000 0.000000000000000 0.000000000000000 
0.000000000000000 0.000000000000000 1.000000000000000 0.000000000000000 
1
1.000000000000000 0.000000000000000 0.000000000000000 0.000000000000000 
0.000000000000000 1.000000000000000 0.000000000000000 0.000000000000000 
0.000000000000000 0.000000000000000 1.000000000000000 0.000000000000000 
1
1.000000000000000 0.000000000000000 0.000000000000000 0.000000000000000 
0.000000000000000 0.000000000000000 -1.000000000000000 0.000000000000000 
0.000000000000000 1.000000000000000 0.000000000000000 0.000000000000000 
1
1.000000000000000 0.000000000000000 0.000000000000000 0.000000000000000 
0.000000000000000 1.000000000000000 0.000000000000000 0.000000000000000 
0.000000000000000 0.000000000000000 1.000000000000000 0.000000000000000 
1
1.000000000000000 0.000000000000000 0.000000000000000 0.000000000000000 
0.000000000000000 1.000000000000000 0.000000000000000 0.000000000000000 
0.000000000000000 0.000000000000000 1.000000000000000 0.000000000000000 
1
1.000000000000000 0.000000000000000 0.000000000000000 0.000000000000000 
0.000000000000000 1.000000000000000 0.000000000000000 0.000000000000000 
0.000000000000000 0.000000000000000 1.000000000000000 0.000000000000000 
1
1.000000000000000 0.000000000000000 0.000000000000000 0.000000000000000 
0.000000000000000 1.000000000000000 0.000000000000000 0.000000000000000 
0.000000000000000 0.000000000000000 1.000000000000000 0.000000000000000 
1
1.000000000000000 0.000000000000000 0.000000000000000 0.000000000000000 
0.000000000000000 1.000000000000000 0.000000000000000 0.000000000000000 
0.000000000000000 0.000000000000000 1.000000000000000 0.000000000000000 
1
1.000000000000000 0.000000000000000 0.000000000000000 0.000000000000000 
0.000000000000000 1.000000000000000 0.000000000000000 0.000000000000000 
0.000000000000000 0.000000000000000 1.000000000000000 0.000000000000000 
1
1.000000000000000 0.000000000000000 0.000000000000000 0.000000000000000 
0.000000000000000 1.000000000000000 0.000000000000000 0.000000000000000 
0.000000000000000 0.000000000000000 1.000000000000000 0.000000000000000 
1
1.000000000000000 0.000000000000000 0.000000000000000 -0.000000000000000 
0.000000000000000 1.000000000000000 0.000000000000000 -86.000000000000000 
0.000000000000000 0.000000000000000 1.000000000000000 0.000000000000019 
2  7 1 8 1 9 -1 10 1 11 1 12 1 13 1 14 1 15 1 16 1 17 1 18 1 19 -1 20 1 2 1 3 -1 0
2  5 -1 3 1 2 -1 20 -1 19 1 18 -1 17 -1 16 -1 15 -1 14 -1 13 -1 12 -1 11 -1 10 -1 9 1 8 -1 7 -1 0
1
1.000000000000000 0.000000000000000 0.000000000000000 0.000000000000000 
0.000000000000000 1.000000000000000 0.000000000000000 172.000000000000000 
0.000000000000000 0.000000000000000 1.000000000000000 -0.000000000000038 
2  7 1 8 1 9 -1 10 1 11 1 12 1 13 1 14 1 15 1 16 1 17 1 18 1 19 -1 20 1 23 1 2 1 3 -1 0
2  5 -1 3 1 2 -1 23 -1 20 -1 19 1 18 -1 17 -1 16 -1 15 -1 14 -1 13 -1 12 -1 11 -1 10 -1 9 1 8 -1 7 -1 0
1
1.000000000000000 0.000000000000000 0.000000000000000 0.000000000000000 
0.000000000000000 1.000000000000000 0.000000000000000 0.000000000000000 
0.000000000000000 0.000000000000000 1.000000000000000 0.000000000000000 
1
1.000000000000000 0.000000000000000 0.000000000000000 0.000000000000000 
0.000000000000000 -1.000000000000000 -0.000000000000000 0.000000000000000 
0.000000000000000 0.000000000000000 -1.000000000000000 0.000000000000000 
2  26 1 27 1 3 -1 0
2  3 1 27 -1 26 -1 0
2  5 -1 3 1 27 -1 26 -1 0
2  11 1 12 1 13 1 14 1 15 1 16 1 17 1 18 1 19 -1 20 1 0
2  20 -1 19 1 18 -1 17 -1 16 -1 15 -1 14 -1 13 -1 12 -1 11 -1 0
2  5 -1 3 1 2 -1 20 -1 19 1 18 -1 17 -1 16 -1 15 -1 14 -1 13 -1 12 -1 11 -1 0
2  11 1 12 1 13 1 14 1 15 1 16 1 17 1 18 1 19 -1 20 1 23 1 0
2  23 -1 20 -1 19 1 18 -1 17 -1 16 -1 15 -1 14 -1 13 -1 12 -1 11 -1 0
2  5 -1 3 1 2 -1 23 -1 20 -1 19 1 18 -1 17 -1 16 -1 15 -1 14 -1 13 -1 12 -1 11 -1 0
2  9 -1 10 1 11 1 12 1 13 1 14 1 15 1 16 1 17 1 18 1 19 -1 20 1 2 1 3 -1 0
2  10 -1 9 1 0
2  7 1 8 1 9 -1 10 1 0
2  9 -1 10 1 11 1 12 1 13 1 14 1 15 1 16 1 17 1 18 1 19 -1 20 1 23 1 2 1 3 -1 0
2  5 -1 0
2  7 1 8 1 9 -1 10 1 11 1 12 1 13 1 14 1 15 1 16 1 17 1 18 1 19 -1 20 1 0
2  7 1 8 1 9 -1 10 1 11 1 12 1 13 1 14 1 15 1 16 1 17 1 18 1 19 -1 20 1 23 1 0
Curve2ds 32
1 0.00000000000000000 0.00000000000000000 0.00000000000000000 -1.00000000000000000 
1 -0.00000000000000100 0.00000000000000000 0.00000000000000000 -1.00000000000000000 
1 0.00000000000000000 0.00000000000000000 1.00000000000000000 0.00000000000000000 
1 0.00000000000000000 0.00000000000000000 1.00000000000000000 0.00000000000000000 
1 1.57079632679489589 0.00000000000000000 0.00000000000000000 -1.00000000000000000 
1 0.00000000000000000 0.00000000000000000 1.00000000000000000 0.00000000000000000 
1 0.00000000000000000 -172.00000000000000000 1.00000000000000000 0.00000000000000000 
1 0.00000000000000000 0.00000000000000000 1.00000000000000000 0.00000000000000000 
1 0.00000000000000000 0.00000000000000000 1.00000000000000000 0.00000000000000000 
1 0.00000000000000000 0.00000000000000000 1.00000000000000000 0.00000000000000000 
1 0.00000000000000000 0.00000000000000000 1.00000000000000000 0.00000000000000000 
1 0.00000000000000000 0.00000000000000000 1.00000000000000000 0.00000000000000000 
1 0.00000000000000000 -172.00000000000000000 1.00000000000000000 0.00000000000000000 
1 0.00000000000000000 -172.00000000000000000 1.00000000000000000 0.00000000000000000 
1 0.00000000000000000 -172.00000000000000000 1.00000000000000000 0.00000000000000000 
1 0.00000000000000000 -172.00000000000000000 1.00000000000000000 0.00000000000000000 
1 0.00000000000000000 -172.00000000000000000 1.00000000000000000 0.00000000000000000 
1 1.57079632679489700 0.00000000000000000 0.00000000000000000 -1.00000000000000000 
1 0.00000000000000000 0.00000000000000000 0.00000000000000000 -1.00000000000000000 
1 6.28318530717958623 0.00000000000000000 0.00000000000000000 -1.00000000000000000 
1 0.00000000000000000 -3.17500000001151328 1.00000000000000000 0.00000000000000000 
1 0.00000000000000000 0.00000000000000000 0.00000000000000000 -1.00000000000000000 
1 6.28318530717958623 0.00000000000000000 0.00000000000000000 -1.00000000000000000 
1 0.00000000000000000 -3.17500000001151328 1.00000000000000000 0.00000000000000000 
1 4.71238898038468967 0.00000000000000000 0.00000000000000000 -1.00000000000000000 
1 1.57079632679489700 0.00000000000000000 0.00000000000000000 -1.00000000000000000 
1 3.14159265358979312 0.00000000000000000 0.00000000000000000 -1.00000000000000000 
1 3.14159265358979312 0.00000000000000000 0.00000000000000000 -1.00000000000000000 
1 6.28318530717958623 0.00000000000000000 0.00000000000000000 -1.00000000000000000 
1 3.14159265358979312 0.00000000000000000 0.00000000000000000 -1.00000000000000000 
1 4.71238898038468879 0.00000000000000000 0.00000000000000000 -1.00000000000000000 
1 4.71238898038468967 0.00000000000000000 0.00000000000000000 -1.00000000000000000 
Curves 42
1 24.39999999999999858 -86.00000000000000000 0.00000000000001892 0.00000000000000000 1.00000000000000000 -0.00000000000000022 
1 25.39999999999999858 0.00000000000000000 0.00000000000000000 -1.00000000000000000 0.00000000000000000 0.00000000000000000 
1 25.39999999999999858 0.00000000000000000 0.00000000000000000 -1.00000000000000000 0.00000000000000000 0.00000000000000000 
1 1.00000000000000000 -86.00000000000000000 0.00000000000001892 0.00000000000000000 1.00000000000000000 -0.00000000000000022 
2 12.69999999999999929 -73.29999999999999716 0.00000000000000000 0.00000000000000000 0.00000000000000000 1.00000000000000000 1.00000000000000000 0.00000000000000000 -0.00000000000000000 -0.00000000000000000 1.00000000000000000 0.00000000000000000 3.96875000000000000
2 12.69999999999999929 73.29999999999999716 0.00000000000000000 0.00000000000000000 0.00000000000000000 1.00000000000000000 1.00000000000000000 0.00000000000000000 -0.00000000000000000 -0.00000000000000000 1.00000000000000000 0.00000000000000000 3.96875000000000000
1 25.39999999999999858 -86.00000000000000000 1.00000000000001887 0.00000000000000000 1.00000000000000000 -0.00000000000000022 
8 0.00000000000000000 1.57079632679489611
2 24.39999999999999858 0.99999999999999978 -0.00000000000000044 -0.00000000000000000 0.00000000000000044 1.00000000000000000 0.00000000000000000 -1.00000000000000000 0.00000000000000044 1.00000000000000000 0.00000000000000000 0.00000000000000000 1.00000000000000000
8 0.00000000000000000 1.57079632679489611
2 24.39999999999999858 0.99999999999999978 -0.00000000000000044 -0.00000000000000000 0.00000000000000044 1.00000000000000000 0.00000000000000000 -1.00000000000000000 0.00000000000000044 1.00000000000000000 0.00000000000000000 0.00000000000000000 1.00000000000000000
8 -0.00000000000000089 1.57079632679489656
2 0.99999999999999978 0.99999999999999978 -0.00000000000000044 -0.00000000000000000 -0.00000000000000044 -1.00000000000000000 0.00000000000000000 -1.00000000000000000 0.00000000000000044 -1.00000000000000000 0.00000000000000000 0.00000000000000000 1.00000000000000000
1 25.39999999999999858 3.17500000001151328 0.00000000000000000 0.00000000000000000 -1.00000000000000000 0.00000000000000000 
1 0.00000000000000000 0.00000000000000000 0.00000000000000000 0.00000000000000000 1.00000000000000000 0.00000000000000000 
8 3.14159265358979312 4.71238898038468967
2 24.39999999999999858 2.17500000001151328 -0.00000000000000097 -0.00000000000000000 -0.00000000000000044 -1.00000000000000000 0.00000000000000000 -1.00000000000000000 0.00000000000000044 -1.00000000000000000 0.00000000000000000 0.00000000000000000 1.00000000000000000
8 1.57079632679489656 3.14159265358979312
2 0.99999999999999978 24.39999999999999858 -0.00000000000001084 -0.00000000000000000 -0.00000000000000044 -1.00000000000000000 0.00000000000000000 -1.00000000000000000 0.00000000000000044 -1.00000000000000000 0.00000000000000000 0.00000000000000000 1.00000000000000000
1 3.17499999999999982 3.17500000001151328 0.00000000000000000 1.00000000000000000 0.00000000000000000 0.00000000000000000 
1 0.00000000000000000 25.39999999999999858 0.00000000000000000 1.00000000000000000 0.00000000000000000 0.00000000000000000 
8 4.71238898038468879 6.28318530717958623
2 4.17499999999999982 4.17500000001151417 -0.00000000000000185 -0.00000000000000000 0.00000000000000044 1.00000000000000000 0.00000000000000000 -1.00000000000000000 0.00000000000000044 1.00000000000000000 0.00000000000000000 0.00000000000000000 1.00000000000000000
8 3.14159265358979312 4.71238898038468967
2 2.17499999999999982 24.39999999999999858 -0.00000000000001084 -0.00000000000000000 -0.00000000000000044 -1.00000000000000000 0.00000000000000000 -1.00000000000000000 0.00000000000000044 -1.00000000000000000 0.00000000000000000 0.00000000000000000 1.00000000000000000
1 3.17499999999999982 25.39999999999999858 0.00000000000000000 0.00000000000000000 -1.00000000000000000 0.00000000000000000 
8 -0.00000000000000089 1.57079632679489656
2 0.99999999999999978 0.99999999999999978 -0.00000000000000044 -0.00000000000000000 -0.00000000000000044 -1.00000000000000000 0.00000000000000000 -1.00000000000000000 0.00000000000000044 -1.00000000000000000 0.00000000000000000 0.00000000000000000 1.00000000000000000
1 25.39999999999999858 3.17500000001151328 0.00000000000000000 0.00000000000000000 -1.00000000000000000 0.00000000000000000 
1 0.00000000000000000 0.00000000000000000 0.00000000000000000 0.00000000000000000 1.00000000000000000 0.00000000000000000 
8 3.14159265358979312 4.71238898038468967
2 24.39999999999999858 2.17500000001151328 -0.00000000000000097 -0.00000000000000000 -0.00000000000000044 -1.00000000000000000 0.00000000000000000 -1.00000000000000000 0.00000000000000044 -1.00000000000000000 0.00000000000000000 0.00000000000000000 1.00000000000000000
8 1.57079632679489656 3.14159265358979312
2 0.99999999999999978 24.39999999999999858 -0.00000000000001084 -0.00000000000000000 -0.00000000000000044 -1.00000000000000000 0.00000000000000000 -1.00000000000000000 0.00000000000000044 -1.00000000000000000 0.00000000000000000 0.00000000000000000 1.00000000000000000
1 3.17499999999999982 3.17500000001151328 0.00000000000000000 1.00000000000000000 0.00000000000000000 0.00000000000000000 
1 0.00000000000000000 25.39999999999999858 0.00000000000000000 1.00000000000000000 0.00000000000000000 0.00000000000000000 
8 4.71238898038468879 6.28318530717958623
2 4.17499999999999982 4.17500000001151417 -0.00000000000000185 -0.00000000000000000 0.00000000000000044 1.00000000000000000 0.00000000000000000 -1.00000000000000000 0.00000000000000044 1.00000000000000000 0.00000000000000000 0.00000000000000000 1.00000000000000000
8 3.14159265358979312 4.71238898038468967
2 2.17499999999999982 24.39999999999999858 -0.00000000000001084 -0.00000000000000000 -0.00000000000000044 -1.00000000000000000 0.00000000000000000 -1.00000000000000000 0.00000000000000044 -1.00000000000000000 0.00000000000000000 0.00000000000000000 1.00000000000000000
1 3.17499999999999982 25.39999999999999858 0.00000000000000000 0.00000000000000000 -1.00000000000000000 0.00000000000000000 
1 0.00000000000000000 -86.00000000000000000 1.00000000000001887 0.00000000000000000 1.00000000000000000 -0.00000000000000022 
1 16.66874999999999929 73.29999999999999716 -0.00000000000001613 0.00000000000000000 0.00000000000000022 1.00000000000000000 
2 12.69999999999999929 73.29999999999999716 3.17500000001149729 0.00000000000000000 -0.00000000000000022 -1.00000000000000000 1.00000000000000000 0.00000000000000000 0.00000000000000000 0.00000000000000000 -1.00000000000000000 0.00000000000000022 3.96875000000000000
1 16.66874999999999929 -73.29999999999999716 0.00000000000001613 0.00000000000000000 0.00000000000000022 1.00000000000000000 
2 12.69999999999999929 -73.29999999999999716 3.17500000001152927 0.00000000000000000 -0.00000000000000022 -1.00000000000000000 1.00000000000000000 0.00000000000000000 0.00000000000000000 0.00000000000000000 -1.00000000000000000 0.00000000000000022 3.96875000000000000
1 25.39999999999999858 -86.00000000000000000 2.17500000001153193 0.00000000000000000 1.00000000000000000 -0.00000000000000022 
1 0.00000000000000000 -85.99999999999998579 24.40000000000001634 0.00000000000000000 1.00000000000000000 -0.00000000000000022 
1 24.39999999999999858 -86.00000000000000000 3.17500000001153193 0.00000000000000000 1.00000000000000000 -0.00000000000000022 
1 1.00000000000000000 -85.99999999999998579 25.40000000000001634 0.00000000000000000 1.00000000000000000 -0.00000000000000022 
1 4.17499999999999982 -86.00000000000000000 3.17500000001153326 0.00000000000000000 1.00000000000000000 -0.00000000000000022 
1 2.17499999999999982 -85.99999999999998579 25.40000000000001634 0.00000000000000000 1.00000000000000000 -0.00000000000000022 
1 3.17499999999999982 -86.00000000000000000 4.17500000001153282 0.00000000000000000 1.00000000000000000 -0.00000000000000022 
1 3.17499999999999982 -85.99999999999998579 24.40000000000001634 0.00000000000000000 1.00000000000000000 -0.00000000000000022 
Polygon3D 0
PolygonOnTriangulations 0
Surfaces 16
1 24.39999999999999858 -86.00000000000000000 0.00000000000001892 0.00000000000000000 0.00000000000000022 1.00000000000000000 -1.00000000000000000 0.00000000000000000 0.00000000000000000 0.00000000000000000 -1.00000000000000000 0.00000000000000022 
2 24.39999999999999858 -86.00000000000000000 1.00000000000001865 0.00000000000000000 -1.00000000000000000 0.00000000000000044 0.00000000000000000 -0.00000000000000044 -1.00000000000000000 1.00000000000000000 0.00000000000000000 0.00000000000000000 1.00000000000000000
2 0.99999999999999978 -86.00000000000000000 1.00000000000001865 0.00000000000000000 -1.00000000000000000 0.00000000000000044 0.00000000000000000 -0.00000000000000044 -1.00000000000000000 -1.00000000000000000 -0.00000000000000000 -0.00000000000000000 1.00000000000000000
2 12.69999999999999929 73.29999999999999716 -0.00000000000001613 0.00000000000000000 -0.00000000000000022 -1.00000000000000000 1.00000000000000000 0.00000000000000000 0.00000000000000000 0.00000000000000000 -1.00000000000000000 0.00000000000000022 3.96875000000000000
2 12.69999999999999929 -73.29999999999999716 0.00000000000001613 0.00000000000000000 -0.00000000000000022 -1.00000000000000000 1.00000000000000000 0.00000000000000000 0.00000000000000000 0.00000000000000000 -1.00000000000000000 0.00000000000000022 3.96875000000000000
1 25.39999999999999858 -86.00000000000000000 2.17500000001153238 -1.00000000000000000 0.00000000000000000 0.00000000000000000 0.00000000000000000 0.00000000000000000 -1.00000000000000000 -0.00000000000000000 -1.00000000000000000 -0.00000000000000000 
1 7.83828125000251763 0.00000000000000174 7.83828125000251763 0.00000000000000000 1.00000000000000000 -0.00000000000000022 0.00000000000000000 0.00000000000000022 1.00000000000000000 1.00000000000000000 -0.00000000000000000 0.00000000000000000 
2 24.39999999999999858 -86.00000000000000000 2.17500000001153238 0.00000000000000000 -1.00000000000000000 0.00000000000000044 0.00000000000000000 -0.00000000000000044 -1.00000000000000000 -1.00000000000000000 -0.00000000000000000 -0.00000000000000000 1.00000000000000000
2 0.99999999999999978 -85.99999999999998579 24.40000000000001634 0.00000000000000000 -1.00000000000000000 0.00000000000000044 0.00000000000000000 -0.00000000000000044 -1.00000000000000000 -1.00000000000000000 -0.00000000000000000 -0.00000000000000000 1.00000000000000000
2 4.17499999999999982 -86.00000000000000000 4.17500000001153282 0.00000000000000000 -1.00000000000000000 0.00000000000000044 0.00000000000000000 -0.00000000000000044 -1.00000000000000000 1.00000000000000000 0.00000000000000000 0.00000000000000000 1.00000000000000000
2 2.17499999999999982 -85.99999999999998579 24.40000000000001634 0.00000000000000000 -1.00000000000000000 0.00000000000000044 0.00000000000000000 -0.00000000000000044 -1.00000000000000000 -1.00000000000000000 -0.00000000000000000 -0.00000000000000000 1.00000000000000000
1 7.83828125000251763 0.00000000000000174 7.83828125000251763 0.00000000000000000 1.00000000000000000 -0.00000000000000022 0.00000000000000000 0.00000000000000022 1.00000000000000000 1.00000000000000000 -0.00000000000000000 0.00000000000000000 
1 0.00000000000000000 -86.00000000000000000 1.00000000000001887 1.00000000000000000 0.00000000000000000 0.00000000000000000 0.00000000000000000 0.00000000000000000 1.00000000000000000 0.00000000000000000 -1.00000000000000000 0.00000000000000000 
1 4.17499999999999982 -86.00000000000000000 3.17500000001153238 0.00000000000000000 -0.00000000000000022 -1.00000000000000000 1.00000000000000000 0.00000000000000000 0.00000000000000000 0.00000000000000000 -1.00000000000000000 0.00000000000000022 
1 1.00000000000000000 -86.00000000000000000 25.40000000000001634 0.00000000000000000 -0.00000000000000022 -1.00000000000000000 1.00000000000000000 0.00000000000000000 0.00000000000000000 0.00000000000000000 -1.00000000000000000 0.00000000000000022 
1 3.17499999999999982 -86.00000000000000000 24.40000000000001634 -1.00000000000000000 0.00000000000000000 0.00000000000000000 0.00000000000000000 0.00000000000000000 -1.00000000000000000 -0.00000000000000000 -1.00000000000000000 -0.00000000000000000 
Triangulations 0

TShapes 108
Ve
0.000000100000000
24.399999999999999 -86.000000000000000 0.000000000000019
0 0

0101101
*
Ve
0.000000100000000
24.399999999999999 86.000000000000000 -0.000000000000019
0 0

0101101
*
Ed
 0.000000100000000 1 1 0
1  1 0 0.000000000000000 172.000000000000000
2  1 2 0 0.000000000000000 172.000000000000000
4 C1 1 0 2 0
0

0101000
+108 6 -107 6 *
Ve
0.000000100000000
1.000000000000000 -86.000000000000000 0.000000000000019
0 0

0101101
*
Ed
 0.000000100000000 1 1 0
1  2 0 1.000000000000000 24.399999999999999
0

0101000
+108 22 -105 22 *
Ve
0.000000100000000
1.000000000000000 86.000000000000000 -0.000000000000019
0 0

0101101
*
Ed
 0.000000100000000 1 1 0
1  3 0 1.000000000000000 24.399999999999999
0

0101000
+107 25 -103 25 *
Ed
 0.000000100000000 1 1 0
1  4 0 0.000000000000000 172.000000000000000
2  2 3 0 0.000000000000000 172.000000000000000
4 C1 1 0 3 0
0

0101000
+105 6 -103 6 *
Wi

0101100
+106 4 -104 21 +102 24 -101 4 *
Ve
0.000000100000000
16.668749999999999 73.299999999999997 0.000000000000000
0 0

0101101
*
Ed
 0.000000100000000 1 1 0
1  5 0 0.000000000000000 6.283185307179586
2  3 4 29 0.000000000000000 6.283185307179586
0

0101000
+99 30 -99 30 *
Wi

0101100
+98 28 *
Ve
0.000000100000000
16.668749999999999 -73.299999999999997 0.000000000000000
0 0

0101101
*
Ed
 0.000000100000000 1 1 0
1  6 0 0.000000000000000 6.283185307179586
2  4 5 29 0.000000000000000 6.283185307179586
0

0101000
+96 30 -96 30 *
Wi

0101100
+95 28 *
Fa
0  0.000000100000000 1 4

0111000
+100 0 +97 0 +94 0 *
Ve
0.000000100000000
25.399999999999999 -86.000000000000000 1.000000000000019
0 0

0101101
*
Ve
0.000000100000000
25.399999999999999 86.000000000000000 0.999999999999981
0 0

0101101
*
Ed
 0.000000100000000 1 1 0
1  7 0 0.000000000000000 172.000000000000000
2  5 2 0 0.000000000000000 172.000000000000000
4 C1 2 0 6 0
0

0101000
+92 6 -91 6 *
Ed
 0.000000100000000 1 1 0
1  8 0 0.000000000000000 1.570796326794896
2  6 2 32 0.000000000000000 1.570796326794896
0

0101000
+108 33 -92 33 *
Ed
 0.000000100000000 1 1 0
1  9 0 0.000000000000000 1.570796326794896
2  7 2 35 0.000000000000000 1.570796326794896
0

0101000
+107 36 -91 36 *
Wi

0101100
+106 0 -90 0 -89 31 +88 34 *
Fa
0  0.000000100000000 2 0

0111000
+87 0 *
Ve
0.000000100000000
0.000000000000000 -86.000000000000000 1.000000000000019
0 0

0101101
*
Ed
 0.000000100000000 1 1 0
1  10 0 -0.000000000000001 1.570796326794897
2  8 3 32 -0.000000000000001 1.570796326794897
0

0101000
+105 33 -85 33 *
Ve
0.000000100000000
25.399999999999999 -86.000000000000000 2.175000000011532
0 0

0101101
*
Ed
 0.000000100000000 1 1 0
1  11 0 1.000000000000000 2.175000000011514
0

0101000
+83 22 -92 22 *
Ve
0.000000100000000
0.000000000000000 -85.999999999999986 24.400000000000016
0 0

0101101
*
Ed
 0.000000100000000 1 1 0
1  12 0 1.000000000000000 24.399999999999999
0

0101000
+85 22 -81 22 *
Ve
0.000000100000000
24.399999999999999 -86.000000000000000 3.175000000011532
0 0

0101101
*
Ed
 0.000000100000000 1 1 0
1  13 0 3.141592653589793 4.712388980384690
2  9 8 32 3.141592653589793 4.712388980384690
0

0101000
+79 33 -83 33 *
Ve
0.000000100000000
1.000000000000000 -85.999999999999986 25.400000000000016
0 0

0101101
*
Ed
 0.000000100000000 1 1 0
1  14 0 1.570796326794897 3.141592653589793
2  10 9 32 1.570796326794897 3.141592653589793
0

0101000
+81 33 -77 33 *
Ve
0.000000100000000
4.175000000000000 -86.000000000000000 3.175000000011533
0 0

0101101
*
Ed
 0.000000100000000 1 1 0
1  15 0 1.000000000000000 21.224999999999998
0

0101000
+75 22 -79 22 *
Ve
0.000000100000000
2.175000000000000 -85.999999999999986 25.400000000000016
0 0

0101101
*
Ed
 0.000000100000000 1 1 0
1  16 0 1.000000000000000 2.175000000000000
0

0101000
+77 22 -73 22 *
Ve
0.000000100000000
3.175000000000000 -86.000000000000000 4.175000000011533
0 0

0101101
*
Ed
 0.000000100000000 1 1 0
1  17 0 4.712388980384689 6.283185307179586
2  11 10 32 4.712388980384689 6.283185307179586
0

0101000
+71 33 -75 33 *
Ve
0.000000100000000
3.175000000000000 -85.999999999999986 24.400000000000016
0 0

0101101
*
Ed
 0.000000100000000 1 1 0
1  18 0 3.141592653589793 4.712388980384690
2  12 11 32 3.141592653589793 4.712388980384690
0

0101000
+73 33 -69 33 *
Ed
 0.000000100000000 1 1 0
1  19 0 1.000000000000000 21.224999999988484
0

0101000
+69 22 -71 22 *
Wi

0101100
+104 39 -89 0 +84 0 +82 39 +80 39 +78 0 +76 0 +74 39 +72 39 +70 0 
+68 0 +67 39 *
Fa
0  0.000000100000000 7 0

0111000
+66 38 *
Ve
0.000000100000000
0.000000000000000 86.000000000000000 0.999999999999981
0 0

0101101
*
Ed
 0.000000100000000 1 1 0
1  20 0 -0.000000000000001 1.570796326794897
2  13 3 35 -0.000000000000001 1.570796326794897
0

0101000
+103 36 -64 36 *
Ve
0.000000100000000
25.399999999999999 86.000000000000000 2.175000000011494
0 0

0101101
*
Ed
 0.000000100000000 1 1 0
1  21 0 1.000000000000000 2.175000000011514
0

0101000
+62 25 -91 25 *
Ve
0.000000100000000
0.000000000000000 86.000000000000014 24.399999999999981
0 0

0101101
*
Ed
 0.000000100000000 1 1 0
1  22 0 1.000000000000000 24.399999999999999
0

0101000
+64 25 -60 25 *
Ve
0.000000100000000
24.399999999999999 86.000000000000000 3.175000000011494
0 0

0101101
*
Ed
 0.000000100000000 1 1 0
1  23 0 3.141592653589793 4.712388980384690
2  14 8 35 3.141592653589793 4.712388980384690
0

0101000
+58 36 -62 36 *
Ve
0.000000100000000
1.000000000000000 86.000000000000014 25.399999999999981
0 0

0101101
*
Ed
 0.000000100000000 1 1 0
1  24 0 1.570796326794897 3.141592653589793
2  15 9 35 1.570796326794897 3.141592653589793
0

0101000
+60 36 -56 36 *
Ve
0.000000100000000
4.175000000000000 86.000000000000000 3.175000000011495
0 0

0101101
*
Ed
 0.000000100000000 1 1 0
1  25 0 1.000000000000000 21.224999999999998
0

0101000
+54 25 -58 25 *
Ve
0.000000100000000
2.175000000000000 86.000000000000014 25.399999999999981
0 0

0101101
*
Ed
 0.000000100000000 1 1 0
1  26 0 1.000000000000000 2.175000000000000
0

0101000
+56 25 -52 25 *
Ve
0.000000100000000
3.175000000000000 86.000000000000000 4.175000000011496
0 0

0101101
*
Ed
 0.000000100000000 1 1 0
1  27 0 4.712388980384689 6.283185307179586
2  16 10 35 4.712388980384689 6.283185307179586
0

0101000
+50 36 -54 36 *
Ve
0.000000100000000
3.175000000000000 86.000000000000014 24.399999999999981
0 0

0101101
*
Ed
 0.000000100000000 1 1 0
1  28 0 3.141592653589793 4.712388980384690
2  17 11 35 3.141592653589793 4.712388980384690
0

0101000
+52 36 -48 36 *
Ed
 0.000000100000000 1 1 0
1  29 0 1.000000000000000 21.224999999988484
0

0101000
+48 25 -50 25 *
Wi

0101100
+102 39 -88 0 +63 0 +61 39 +59 39 +57 0 +55 0 +53 39 +51 39 +49 0 
+47 0 +46 39 *
Fa
0  0.000000100000000 12 0

0111000
+45 38 *
Ed
 0.000000100000000 1 1 0
1  30 0 0.000000000000000 172.000000000000000
2  18 3 0 0.000000000000000 172.000000000000000
4 C1 3 0 13 0
0

0101000
+85 6 -64 6 *
Wi

0101100
+101 0 -43 0 -84 31 +63 34 *
Fa
0  0.000000100000000 3 0

0111000
+42 0 *
Ve
0.000000100000000
16.668749999999999 73.299999999999997 3.175000000011497
0 0

0101101
*
Ed
 0.000000100000000 1 1 0
1  31 0 0.000000000000000 3.175000000011513
3  19 20CN 4 0 0.000000000000000 3.175000000011513
0

0101000
+99 41 -40 41 *
Ed
 0.000000100000000 1 1 0
1  32 0 0.000000000000000 6.283185307179586
2  21 4 0 0.000000000000000 6.283185307179586
0

0101000
+40 41 -40 41 *
Wi

0101100
-98 28 -39 0 +38 0 +39 0 *
Fa
0  0.000000100000000 4 0

0111000
+37 0 *
Ve
0.000000100000000
16.668749999999999 -73.299999999999997 3.175000000011530
0 0

0101101
*
Ed
 0.000000100000000 1 1 0
1  33 0 0.000000000000000 3.175000000011514
3  22 23CN 5 0 0.000000000000000 3.175000000011514
0

0101000
+96 41 -35 41 *
Ed
 0.000000100000000 1 1 0
1  34 0 0.000000000000000 6.283185307179586
2  24 5 0 0.000000000000000 6.283185307179586
0

0101000
+35 41 -35 41 *
Wi

0101100
-95 28 -34 0 +33 0 +34 0 *
Fa
0  0.000000100000000 5 0

0111000
+32 0 *
Ed
 0.000000100000000 1 1 0
1  35 0 0.000000000000000 172.000000000000000
2  25 8 0 0.000000000000000 172.000000000000000
4 C1 6 0 8 0
0

0101000
+83 6 -62 6 *
Wi

0101100
+30 0 -90 0 -82 42 +61 43 *
Fa
0  0.000000100000000 6 0

0111000
+29 0 *
Ed
 0.000000100000000 1 1 0
1  36 0 0.000000000000000 172.000000000000000
2  26 9 0 0.000000000000000 172.000000000000000
4 C1 13 0 9 0
0

0101000
+81 6 -60 6 *
Wi

0101100
+43 0 -27 0 -80 42 +59 43 *
Fa
0  0.000000100000000 13 0

0111000
+26 0 *
Ed
 0.000000100000000 1 1 0
1  37 0 0.000000000000000 172.000000000000000
2  27 8 0 0.000000000000000 172.000000000000000
4 C1 8 0 14 0
0

0101000
+79 6 -58 6 *
Wi

0101100
+24 0 -30 0 -78 31 +57 34 *
Fa
0  0.000000100000000 8 0

0111000
+23 0 *
Ed
 0.000000100000000 1 1 0
1  38 0 0.000000000000000 172.000000000000000
2  28 9 0 0.000000000000000 172.000000000000000
4 C1 9 0 15 0
0

0101000
+77 6 -56 6 *
Wi

0101100
+27 0 -21 0 -76 31 +55 34 *
Fa
0  0.000000100000000 9 0

0111000
+20 0 *
Ed
 0.000000100000000 1 1 0
1  39 0 0.000000000000000 172.000000000000000
2  29 10 0 0.000000000000000 172.000000000000000
4 C1 14 0 10 0
0

0101000
+75 6 -54 6 *
Wi

0101100
+18 4 -74 21 +53 24 -24 4 *
Wi

0101100
-38 0 *
Wi

0101100
-33 0 *
Fa
0  0.000000100000000 14 4

0111000
+17 0 +16 0 +15 0 *
Ed
 0.000000100000000 1 1 0
1  40 0 0.000000000000000 172.000000000000000
2  30 11 0 0.000000000000000 172.000000000000000
4 C1 15 0 11 0
0

0101000
+73 6 -52 6 *
Wi

0101100
+21 0 -13 0 -72 42 +51 43 *
Fa
0  0.000000100000000 15 0

0111000
+12 0 *
Ed
 0.000000100000000 1 1 0
1  41 0 0.000000000000000 172.000000000000000
2  31 10 0 0.000000000000000 172.000000000000000
4 C1 10 0 16 0
0

0101000
+71 6 -50 6 *
Wi

0101100
+10 0 -18 0 -70 31 +49 34 *
Fa
0  0.000000100000000 10 0

0111000
+9 0 *
Ed
 0.000000100000000 1 1 0
1  42 0 0.000000000000000 172.000000000000000
2  32 11 0 0.000000000000000 172.000000000000000
4 C1 11 0 16 0
0

0101000
+69 6 -48 6 *
Wi

0101100
+13 0 -7 0 -68 31 +47 34 *
Fa
0  0.000000100000000 11 0

0111000
+6 0 *
Wi

0101100
+7 0 -10 0 -67 42 +46 43 *
Fa
0  0.000000100000000 16 0

0111000
+4 0 *
Sh

0101100
-93 0 +86 4 -65 37 +44 40 -41 4 -36 0 -31 0 -28 4 -25 4 -22 4 
-19 4 -14 0 -11 4 -8 4 -5 4 -3 4 *
So

1100000
+2 0 *

+1 1 