
CASCADE Topology V1, (c) Matra-Datavision
Locations 47
1
1.000000000000000 0.000000000000000 0.000000000000000 0.000000000000000 
0.000000000000000 1.000000000000000 0.000000000000000 0.000000000000000 
0.000000000000000 0.000000000000000 1.000000000000000 0.000000000000000 
1
1.000000000000000 0.000000000000000 0.000000000000000 0.000000000000000 
0.000000000000000 1.000000000000000 0.000000000000000 0.000000000000000 
0.000000000000000 0.000000000000000 1.000000000000000 0.000000000000000 
1
1.000000000000000 0.000000000000000 0.000000000000000 0.000000000000000 
0.000000000000000 1.000000000000000 0.000000000000000 0.000000000000000 
0.000000000000000 0.000000000000000 1.000000000000000 0.000000000000000 
2  2 1 3 -1 0
1
1.000000000000000 0.000000000000000 0.000000000000000 0.000000000000000 
0.000000000000000 1.000000000000000 0.000000000000000 0.000000000000000 
0.000000000000000 0.000000000000000 1.000000000000000 0.000000000000000 
2  5 -1 3 1 2 -1 0
1
1.000000000000000 0.000000000000000 0.000000000000000 0.000000000000000 
0.000000000000000 1.000000000000000 0.000000000000000 0.000000000000000 
0.000000000000000 0.000000000000000 1.000000000000000 0.000000000000000 
1
1.000000000000000 0.000000000000000 0.000000000000000 0.000000000000000 
0.000000000000000 0.000000000000000 -1.000000000000000 0.000000000000000 
0.000000000000000 1.000000000000000 0.000000000000000 0.000000000000000 
1
1.000000000000000 0.000000000000000 0.000000000000000 0.000000000000000 
0.000000000000000 -0.000000000000000 -1.000000000000000 0.000000000000000 
0.000000000000000 1.000000000000000 -0.000000000000000 0.000000000000000 
1
1.000000000000000 0.000000000000000 0.000000000000000 0.000000000000000 
0.000000000000000 1.000000000000000 0.000000000000000 0.000000000000000 
0.000000000000000 0.000000000000000 1.000000000000000 0.000000000000000 
1
1.000000000000000 0.000000000000000 0.000000000000000 0.000000000000000 
0.000000000000000 1.000000000000000 0.000000000000000 0.000000000000000 
0.000000000000000 0.000000000000000 1.000000000000000 0.000000000000000 
1
1.000000000000000 0.000000000000000 0.000000000000000 0.000000000000000 
0.000000000000000 1.000000000000000 0.000000000000000 0.000000000000000 
0.000000000000000 0.000000000000000 1.000000000000000 0.000000000000000 
1
1.000000000000000 0.000000000000000 0.000000000000000 0.000000000000000 
0.000000000000000 0.000000000000000 -1.000000000000000 0.000000000000000 
0.000000000000000 1.000000000000000 0.000000000000000 0.000000000000000 
1
1.000000000000000 0.000000000000000 0.000000000000000 0.000000000000000 
0.000000000000000 1.000000000000000 0.000000000000000 0.000000000000000 
0.000000000000000 0.000000000000000 1.000000000000000 0.000000000000000 
1
1.000000000000000 0.000000000000000 0.000000000000000 0.000000000000000 
0.000000000000000 1.000000000000000 0.000000000000000 0.000000000000000 
0.000000000000000 0.000000000000000 1.000000000000000 0.000000000000000 
1
1.000000000000000 0.000000000000000 0.000000000000000 0.000000000000000 
0.000000000000000 1.000000000000000 0.000000000000000 0.000000000000000 
0.000000000000000 0.000000000000000 1.000000000000000 0.000000000000000 
1
1.000000000000000 0.000000000000000 0.000000000000000 0.000000000000000 
0.000000000000000 1.000000000000000 0.000000000000000 0.000000000000000 
0.000000000000000 0.000000000000000 1.000000000000000 0.000000000000000 
1
1.000000000000000 0.000000000000000 0.000000000000000 0.000000000000000 
0.000000000000000 1.000000000000000 0.000000000000000 0.000000000000000 
0.000000000000000 0.000000000000000 1.000000000000000 0.000000000000000 
1
1.000000000000000 0.000000000000000 0.000000000000000 0.000000000000000 
0.000000000000000 1.000000000000000 0.000000000000000 0.000000000000000 
0.000000000000000 0.000000000000000 1.000000000000000 0.000000000000000 
1
1.000000000000000 0.000000000000000 0.000000000000000 0.000000000000000 
0.000000000000000 1.000000000000000 0.000000000000000 0.000000000000000 
0.000000000000000 0.000000000000000 1.000000000000000 0.000000000000000 
1
1.000000000000000 0.000000000000000 0.000000000000000 -0.000000000000000 
0.000000000000000 1.000000000000000 0.000000000000000 -17.500000000000000 
0.000000000000000 0.000000000000000 1.000000000000000 0.000000000000004 
2  7 1 8 1 9 -1 10 1 11 1 12 1 13 1 14 1 15 1 16 1 17 1 18 1 19 1 20 -1 21 1 0
2  5 -1 3 1 2 -1 21 -1 20 1 19 -1 18 -1 17 -1 16 -1 15 -1 14 -1 13 -1 12 -1 11 -1 10 -1 9 1 8 -1 7 -1 0
1
1.000000000000000 0.000000000000000 0.000000000000000 0.000000000000000 
0.000000000000000 1.000000000000000 0.000000000000000 35.000000000000000 
0.000000000000000 0.000000000000000 1.000000000000000 -0.000000000000008 
2  7 1 8 1 9 -1 10 1 11 1 12 1 13 1 14 1 15 1 16 1 17 1 18 1 19 1 20 -1 21 1 24 1 0
2  5 -1 3 1 2 -1 24 -1 21 -1 20 1 19 -1 18 -1 17 -1 16 -1 15 -1 14 -1 13 -1 12 -1 11 -1 10 -1 9 1 8 -1 7 -1 0
2  12 1 13 1 14 1 15 1 16 1 17 1 18 1 19 1 20 -1 21 1 0
2  21 -1 20 1 19 -1 18 -1 17 -1 16 -1 15 -1 14 -1 13 -1 12 -1 0
2  5 -1 3 1 2 -1 21 -1 20 1 19 -1 18 -1 17 -1 16 -1 15 -1 14 -1 13 -1 12 -1 0
2  12 1 13 1 14 1 15 1 16 1 17 1 18 1 19 1 20 -1 21 1 24 1 0
2  24 -1 21 -1 20 1 19 -1 18 -1 17 -1 16 -1 15 -1 14 -1 13 -1 12 -1 0
2  5 -1 3 1 2 -1 24 -1 21 -1 20 1 19 -1 18 -1 17 -1 16 -1 15 -1 14 -1 13 -1 12 -1 0
2  9 -1 10 1 11 1 12 1 13 1 14 1 15 1 16 1 17 1 18 1 19 1 20 -1 21 1 2 1 3 -1 0
2  11 -1 10 -1 9 1 0
2  7 1 8 1 9 -1 10 1 11 1 0
2  10 -1 9 1 0
2  7 1 8 1 9 -1 10 1 0
2  21 -1 20 1 19 -1 18 -1 17 -1 16 -1 15 -1 14 -1 13 -1 12 -1 11 -1 0
2  5 -1 3 1 2 -1 21 -1 20 1 19 -1 18 -1 17 -1 16 -1 15 -1 14 -1 13 -1 12 -1 11 -1 0
2  9 -1 10 1 11 1 12 1 13 1 14 1 15 1 16 1 17 1 18 1 19 1 20 -1 21 1 24 1 2 1 3 -1 0
2  24 -1 21 -1 20 1 19 -1 18 -1 17 -1 16 -1 15 -1 14 -1 13 -1 12 -1 11 -1 0
2  5 -1 3 1 2 -1 24 -1 21 -1 20 1 19 -1 18 -1 17 -1 16 -1 15 -1 14 -1 13 -1 12 -1 11 -1 0
2  7 1 8 1 9 -1 10 1 11 1 12 1 13 1 14 1 15 1 16 1 17 1 18 1 19 1 20 -1 21 1 2 1 3 -1 0
2  7 1 8 1 9 -1 10 1 11 1 12 1 13 1 14 1 15 1 16 1 17 1 18 1 19 1 20 -1 21 1 24 1 2 1 3 -1 0
2  5 -1 0
2  11 1 12 1 13 1 14 1 15 1 16 1 17 1 18 1 19 1 20 -1 21 1 0
2  11 1 12 1 13 1 14 1 15 1 16 1 17 1 18 1 19 1 20 -1 21 1 24 1 0
Curve2ds 36
1 4.71238898038468967 0.00000000000000000 0.00000000000000000 -1.00000000000000000 
1 1.57079632679489700 0.00000000000000000 0.00000000000000000 -1.00000000000000000 
1 6.28318530717958623 0.00000000000000000 0.00000000000000000 -1.00000000000000000 
1 0.00000000000000000 0.00000000000000000 1.00000000000000000 0.00000000000000000 
1 0.00000000000000000 -35.00000000000000000 1.00000000000000000 0.00000000000000000 
1 3.14159265358979312 0.00000000000000000 0.00000000000000000 -1.00000000000000000 
1 0.00000000000000000 0.00000000000000000 1.00000000000000000 0.00000000000000000 
1 0.00000000000000000 -35.00000000000000000 1.00000000000000000 0.00000000000000000 
1 0.00000000000000000 0.00000000000000000 1.00000000000000000 0.00000000000000000 
1 0.00000000000000000 0.00000000000000000 1.00000000000000000 0.00000000000000000 
1 0.00000000000000000 0.00000000000000000 1.00000000000000000 0.00000000000000000 
1 0.00000000000000000 0.00000000000000000 1.00000000000000000 0.00000000000000000 
1 0.00000000000000000 0.00000000000000000 1.00000000000000000 0.00000000000000000 
1 0.00000000000000000 0.00000000000000000 1.00000000000000000 0.00000000000000000 
1 0.00000000000000000 -35.00000000000000000 1.00000000000000000 0.00000000000000000 
1 0.00000000000000000 -35.00000000000000000 1.00000000000000000 0.00000000000000000 
1 0.00000000000000000 -35.00000000000000000 1.00000000000000000 0.00000000000000000 
1 0.00000000000000000 -35.00000000000000000 1.00000000000000000 0.00000000000000000 
1 0.00000000000000000 -35.00000000000000000 1.00000000000000000 0.00000000000000000 
1 0.00000000000000000 -35.00000000000000000 1.00000000000000000 0.00000000000000000 
1 0.00000000000000000 0.00000000000000000 0.00000000000000000 -1.00000000000000000 
1 0.00000000000000000 -18.41250000000000497 1.00000000000000000 0.00000000000000000 
1 3.14159265358979312 0.00000000000000000 0.00000000000000000 -1.00000000000000000 
1 1.57079632679489700 0.00000000000000000 0.00000000000000000 -1.00000000000000000 
1 1.57079632679489700 0.00000000000000000 0.00000000000000000 -1.00000000000000000 
1 3.14159265358979312 0.00000000000000000 0.00000000000000000 -1.00000000000000000 
1 3.14159265358979312 0.00000000000000000 0.00000000000000000 -1.00000000000000000 
1 4.71238898038468967 0.00000000000000000 0.00000000000000000 -1.00000000000000000 
1 4.71238898038468967 0.00000000000000000 0.00000000000000000 -1.00000000000000000 
1 1.57079632679489700 0.00000000000000000 0.00000000000000000 -1.00000000000000000 
1 4.71238898038468967 0.00000000000000000 0.00000000000000000 -1.00000000000000000 
1 0.00000000000000000 0.00000000000000000 0.00000000000000000 -1.00000000000000000 
1 6.28318530717958623 0.00000000000000000 0.00000000000000000 -1.00000000000000000 
1 0.00000000000000000 -20.00000000000000000 1.00000000000000000 0.00000000000000000 
1 0.00000000000000000 0.00000000000000000 0.00000000000000000 -1.00000000000000000 
1 6.28318530717958623 0.00000000000000000 0.00000000000000000 -1.00000000000000000 
Curves 51
1 -18.41250000000000142 -17.50000000000000711 -17.41249999999999787 0.00000000000000000 1.00000000000000000 -0.00000000000000022 
1 -18.41250000000000142 -17.49999999999999289 17.41250000000000497 0.00000000000000000 1.00000000000000000 -0.00000000000000022 
1 -18.41250000000000142 -18.41250000000000497 0.00000000000000000 0.00000000000000000 1.00000000000000000 0.00000000000000000 
1 -18.41250000000000142 -18.41250000000000497 0.00000000000000000 0.00000000000000000 1.00000000000000000 0.00000000000000000 
1 -17.41250000000000142 -17.50000000000000711 -18.41249999999999787 0.00000000000000000 1.00000000000000000 -0.00000000000000022 
8 4.71238898038468967 6.28318530717958623
2 -17.41250000000000142 -17.41250000000000142 0.00000000000000773 -0.00000000000000000 0.00000000000000044 1.00000000000000000 0.00000000000000000 -1.00000000000000000 0.00000000000000044 1.00000000000000000 0.00000000000000000 0.00000000000000000 1.00000000000000000
8 4.71238898038468967 6.28318530717958623
2 -17.41250000000000142 -17.41250000000000142 0.00000000000000773 -0.00000000000000000 0.00000000000000044 1.00000000000000000 0.00000000000000000 -1.00000000000000000 0.00000000000000044 1.00000000000000000 0.00000000000000000 0.00000000000000000 1.00000000000000000
1 -17.41250000000000142 -17.49999999999999289 18.41250000000000497 0.00000000000000000 1.00000000000000000 -0.00000000000000022 
8 1.57079632679489656 3.14159265358979312
2 -17.41250000000000142 17.41250000000000142 -0.00000000000000773 -0.00000000000000000 -0.00000000000000044 -1.00000000000000000 0.00000000000000000 -1.00000000000000000 0.00000000000000044 -1.00000000000000000 0.00000000000000000 0.00000000000000000 1.00000000000000000
8 1.57079632679489656 3.14159265358979312
2 -17.41250000000000142 17.41250000000000142 -0.00000000000000773 -0.00000000000000000 -0.00000000000000044 -1.00000000000000000 0.00000000000000000 -1.00000000000000000 0.00000000000000044 -1.00000000000000000 0.00000000000000000 0.00000000000000000 1.00000000000000000
1 18.41250000000000142 -18.41250000000000142 0.00000000000000000 -1.00000000000000000 -0.00000000000000010 0.00000000000000000 
1 -18.41250000000000142 18.41250000000000142 0.00000000000000000 1.00000000000000000 0.00000000000000000 0.00000000000000000 
8 0.00000000000000000 1.57079632679489656
2 17.41250000000000142 -17.41250000000000142 0.00000000000000773 -0.00000000000000000 0.00000000000000044 1.00000000000000000 0.00000000000000000 -1.00000000000000000 0.00000000000000044 1.00000000000000000 0.00000000000000000 0.00000000000000000 1.00000000000000000
8 1.57079632679489656 3.14159265358979312
2 17.41250000000000142 17.41250000000000142 -0.00000000000000773 -0.00000000000000000 0.00000000000000044 1.00000000000000000 0.00000000000000000 -1.00000000000000000 0.00000000000000044 1.00000000000000000 0.00000000000000000 0.00000000000000000 1.00000000000000000
1 18.41250000000000142 18.41250000000000142 0.00000000000000000 0.00000000000000000 -1.00000000000000000 0.00000000000000000 
1 -19.99999999999999645 20.00000000000000000 0.00000000000000000 1.00000000000000000 0.00000000000000000 0.00000000000000000 
8 3.14159265358979312 4.71238898038468967
2 -17.99999999999999645 18.00000000000000000 -0.00000000000000799 -0.00000000000000000 0.00000000000000044 1.00000000000000000 0.00000000000000000 -1.00000000000000000 0.00000000000000044 1.00000000000000000 0.00000000000000000 0.00000000000000000 2.00000000000000000
8 3.14159265358979312 4.71238898038468967
2 18.00000000000000355 18.00000000000000000 -0.00000000000000799 -0.00000000000000000 -0.00000000000000044 -1.00000000000000000 0.00000000000000000 -1.00000000000000000 0.00000000000000044 -1.00000000000000000 0.00000000000000000 0.00000000000000000 2.00000000000000000
1 -19.99999999999999645 -20.00000000000000000 0.00000000000000000 0.00000000000000000 1.00000000000000000 0.00000000000000000 
1 20.00000000000000355 20.00000000000000000 0.00000000000000000 0.00000000000000000 -1.00000000000000000 0.00000000000000000 
8 0.00000000000000000 1.57079632679489656
2 -17.99999999999999645 -18.00000000000000000 0.00000000000000799 -0.00000000000000000 -0.00000000000000044 -1.00000000000000000 0.00000000000000000 -1.00000000000000000 0.00000000000000044 -1.00000000000000000 0.00000000000000000 0.00000000000000000 2.00000000000000000
8 4.71238898038468967 6.28318530717958623
2 18.00000000000000355 -18.00000000000000000 0.00000000000000799 -0.00000000000000000 -0.00000000000000044 -1.00000000000000000 0.00000000000000000 -1.00000000000000000 0.00000000000000044 -1.00000000000000000 0.00000000000000000 0.00000000000000000 2.00000000000000000
1 20.00000000000000355 -20.00000000000000000 0.00000000000000000 -1.00000000000000000 0.00000000000000000 0.00000000000000000 
1 18.41250000000000142 -18.41250000000000142 0.00000000000000000 -1.00000000000000000 -0.00000000000000010 0.00000000000000000 
1 -18.41250000000000142 18.41250000000000142 0.00000000000000000 1.00000000000000000 0.00000000000000000 0.00000000000000000 
8 0.00000000000000000 1.57079632679489656
2 17.41250000000000142 -17.41250000000000142 0.00000000000000773 -0.00000000000000000 0.00000000000000044 1.00000000000000000 0.00000000000000000 -1.00000000000000000 0.00000000000000044 1.00000000000000000 0.00000000000000000 0.00000000000000000 1.00000000000000000
8 1.57079632679489656 3.14159265358979312
2 17.41250000000000142 17.41250000000000142 -0.00000000000000773 -0.00000000000000000 0.00000000000000044 1.00000000000000000 0.00000000000000000 -1.00000000000000000 0.00000000000000044 1.00000000000000000 0.00000000000000000 0.00000000000000000 1.00000000000000000
1 18.41250000000000142 18.41250000000000142 0.00000000000000000 0.00000000000000000 -1.00000000000000000 0.00000000000000000 
1 -19.99999999999999645 20.00000000000000000 0.00000000000000000 1.00000000000000000 0.00000000000000000 0.00000000000000000 
8 3.14159265358979312 4.71238898038468967
2 -17.99999999999999645 18.00000000000000000 -0.00000000000000799 -0.00000000000000000 0.00000000000000044 1.00000000000000000 0.00000000000000000 -1.00000000000000000 0.00000000000000044 1.00000000000000000 0.00000000000000000 0.00000000000000000 2.00000000000000000
8 3.14159265358979312 4.71238898038468967
2 18.00000000000000355 18.00000000000000000 -0.00000000000000799 -0.00000000000000000 -0.00000000000000044 -1.00000000000000000 0.00000000000000000 -1.00000000000000000 0.00000000000000044 -1.00000000000000000 0.00000000000000000 0.00000000000000000 2.00000000000000000
1 -19.99999999999999645 -20.00000000000000000 0.00000000000000000 0.00000000000000000 1.00000000000000000 0.00000000000000000 
1 20.00000000000000355 20.00000000000000000 0.00000000000000000 0.00000000000000000 -1.00000000000000000 0.00000000000000000 
8 0.00000000000000000 1.57079632679489656
2 -17.99999999999999645 -18.00000000000000000 0.00000000000000799 -0.00000000000000000 -0.00000000000000044 -1.00000000000000000 0.00000000000000000 -1.00000000000000000 0.00000000000000044 -1.00000000000000000 0.00000000000000000 0.00000000000000000 2.00000000000000000
8 4.71238898038468967 6.28318530717958623
2 18.00000000000000355 -18.00000000000000000 0.00000000000000799 -0.00000000000000000 -0.00000000000000044 -1.00000000000000000 0.00000000000000000 -1.00000000000000000 0.00000000000000044 -1.00000000000000000 0.00000000000000000 0.00000000000000000 2.00000000000000000
1 20.00000000000000355 -20.00000000000000000 0.00000000000000000 -1.00000000000000000 0.00000000000000000 0.00000000000000000 
1 17.41250000000000142 -17.50000000000000711 -18.41249999999999787 0.00000000000000000 1.00000000000000000 -0.00000000000000022 
2 0.00000000000000000 -0.68498599999999998 -18.41250000000000497 0.00000000000000000 0.00000000000000000 1.00000000000000000 1.00000000000000000 0.00000000000000000 0.00000000000000000 0.00000000000000000 1.00000000000000000 0.00000000000000000 3.96875000000000000
1 17.41250000000000142 -17.49999999999999289 18.41250000000000497 0.00000000000000000 1.00000000000000000 -0.00000000000000022 
1 18.41250000000000142 -17.50000000000000711 -17.41249999999999787 0.00000000000000000 1.00000000000000000 -0.00000000000000022 
1 18.41250000000000142 -17.49999999999999289 17.41250000000000497 0.00000000000000000 1.00000000000000000 -0.00000000000000022 
1 -17.99999999999999645 -17.49999999999998934 20.00000000000000355 0.00000000000000000 1.00000000000000000 -0.00000000000000022 
1 18.00000000000000355 -17.49999999999998934 20.00000000000000355 0.00000000000000000 1.00000000000000000 -0.00000000000000022 
1 -19.99999999999999645 -17.49999999999999289 18.00000000000000355 0.00000000000000000 1.00000000000000000 -0.00000000000000022 
1 20.00000000000000355 -17.49999999999999289 18.00000000000000355 0.00000000000000000 1.00000000000000000 -0.00000000000000022 
1 -19.99999999999999645 -17.50000000000000711 -17.99999999999999645 0.00000000000000000 1.00000000000000000 -0.00000000000000022 
1 20.00000000000000355 -17.50000000000000711 -17.99999999999999645 0.00000000000000000 1.00000000000000000 -0.00000000000000022 
1 -17.99999999999999645 -17.50000000000001066 -19.99999999999999645 0.00000000000000000 1.00000000000000000 -0.00000000000000022 
1 18.00000000000000355 -17.50000000000001066 -19.99999999999999645 0.00000000000000000 1.00000000000000000 -0.00000000000000022 
2 0.00000000000000000 -0.68498599999999998 -20.00000000000000000 0.00000000000000000 0.00000000000000000 1.00000000000000000 1.00000000000000000 0.00000000000000000 0.00000000000000000 0.00000000000000000 1.00000000000000000 0.00000000000000000 3.96875000000000000
1 3.96875000000000000 -0.68498599999999998 0.00000000000000000 -0.00000000000000000 -0.00000000000000000 -1.00000000000000000 
Polygon3D 0
PolygonOnTriangulations 0
Surfaces 19
1 -18.41250000000000142 -17.50000000000000000 -17.41249999999999787 1.00000000000000000 0.00000000000000000 0.00000000000000000 0.00000000000000000 0.00000000000000000 1.00000000000000000 0.00000000000000000 -1.00000000000000000 0.00000000000000000 
2 -17.41250000000000142 -17.50000000000000711 -17.41249999999999787 0.00000000000000000 -1.00000000000000000 0.00000000000000044 0.00000000000000000 -0.00000000000000044 -1.00000000000000000 1.00000000000000000 0.00000000000000000 0.00000000000000000 1.00000000000000000
2 -17.41250000000000142 -17.49999999999999289 17.41250000000000497 0.00000000000000000 -1.00000000000000000 0.00000000000000044 0.00000000000000000 -0.00000000000000044 -1.00000000000000000 -1.00000000000000000 -0.00000000000000000 -0.00000000000000000 1.00000000000000000
1 17.41250000000000142 -17.50000000000000000 -18.41249999999999787 -0.00000000000000010 0.00000000000000022 1.00000000000000000 -1.00000000000000000 0.00000000000000000 -0.00000000000000010 -0.00000000000000000 -1.00000000000000000 0.00000000000000022 
1 -17.41250000000000142 -17.50000000000000000 18.41250000000000497 0.00000000000000000 -0.00000000000000022 -1.00000000000000000 1.00000000000000000 0.00000000000000000 0.00000000000000000 0.00000000000000000 -1.00000000000000000 0.00000000000000022 
1 0.00000000000000213 0.00000000000000000 0.00000000000000000 0.00000000000000000 1.00000000000000000 -0.00000000000000022 0.00000000000000000 0.00000000000000022 1.00000000000000000 1.00000000000000000 0.00000000000000000 0.00000000000000000 
2 17.41250000000000142 -17.50000000000000711 -17.41249999999999787 0.00000000000000000 -1.00000000000000000 0.00000000000000044 0.00000000000000000 -0.00000000000000044 -1.00000000000000000 1.00000000000000000 0.00000000000000000 0.00000000000000000 1.00000000000000000
2 17.41250000000000142 -17.49999999999999289 17.41250000000000497 0.00000000000000000 -1.00000000000000000 0.00000000000000044 0.00000000000000000 -0.00000000000000044 -1.00000000000000000 1.00000000000000000 0.00000000000000000 0.00000000000000000 1.00000000000000000
2 -17.99999999999999645 -17.49999999999999289 18.00000000000000355 0.00000000000000000 -1.00000000000000000 0.00000000000000044 0.00000000000000000 -0.00000000000000044 -1.00000000000000000 1.00000000000000000 0.00000000000000000 0.00000000000000000 2.00000000000000000
2 18.00000000000000355 -17.49999999999999289 18.00000000000000355 0.00000000000000000 -1.00000000000000000 0.00000000000000044 0.00000000000000000 -0.00000000000000044 -1.00000000000000000 -1.00000000000000000 -0.00000000000000000 -0.00000000000000000 2.00000000000000000
2 -17.99999999999999645 -17.50000000000000711 -17.99999999999999645 0.00000000000000000 -1.00000000000000000 0.00000000000000044 0.00000000000000000 -0.00000000000000044 -1.00000000000000000 -1.00000000000000000 -0.00000000000000000 -0.00000000000000000 2.00000000000000000
2 18.00000000000000355 -17.50000000000000711 -17.99999999999999645 0.00000000000000000 -1.00000000000000000 0.00000000000000044 0.00000000000000000 -0.00000000000000044 -1.00000000000000000 -1.00000000000000000 -0.00000000000000000 -0.00000000000000000 2.00000000000000000
1 0.00000000000000213 0.00000000000000000 0.00000000000000000 0.00000000000000000 1.00000000000000000 -0.00000000000000022 0.00000000000000000 0.00000000000000022 1.00000000000000000 1.00000000000000000 0.00000000000000000 0.00000000000000000 
2 0.00000000000000000 -0.68498599999999998 0.00000000000000000 0.00000000000000000 0.00000000000000000 1.00000000000000000 1.00000000000000000 0.00000000000000000 0.00000000000000000 0.00000000000000000 1.00000000000000000 0.00000000000000000 3.96875000000000000
1 18.41250000000000142 -17.50000000000000000 17.41250000000000497 -1.00000000000000000 0.00000000000000000 0.00000000000000000 0.00000000000000000 0.00000000000000000 -1.00000000000000000 -0.00000000000000000 -1.00000000000000000 -0.00000000000000000 
1 -17.99999999999999645 -17.50000000000000000 20.00000000000000355 0.00000000000000000 -0.00000000000000022 -1.00000000000000000 1.00000000000000000 0.00000000000000000 0.00000000000000000 0.00000000000000000 -1.00000000000000000 0.00000000000000022 
1 -19.99999999999999645 -17.50000000000000000 -17.99999999999999645 1.00000000000000000 0.00000000000000000 0.00000000000000000 0.00000000000000000 0.00000000000000000 1.00000000000000000 0.00000000000000000 -1.00000000000000000 0.00000000000000000 
1 20.00000000000000355 -17.50000000000000000 18.00000000000000355 -1.00000000000000000 0.00000000000000000 0.00000000000000000 0.00000000000000000 0.00000000000000000 -1.00000000000000000 -0.00000000000000000 -1.00000000000000000 -0.00000000000000000 
1 18.00000000000000355 -17.50000000000000000 -19.99999999999999645 0.00000000000000000 0.00000000000000022 1.00000000000000000 -1.00000000000000000 0.00000000000000000 0.00000000000000000 0.00000000000000000 -1.00000000000000000 0.00000000000000022 
Triangulations 0

TShapes 129
Ve
0.000000100000000
-18.412500000000001 -17.500000000000007 -17.412499999999998
0 0

0101101
*
Ve
0.000000100000000
-18.412500000000001 17.499999999999993 -17.412500000000005
0 0

0101101
*
Ed
 0.000000100000000 1 1 0
1  1 0 0.000000000000000 35.000000000000000
2  1 2 0 0.000000000000000 35.000000000000000
4 C1 1 0 2 0
0

0101000
+129 6 -128 6 *
Ve
0.000000100000000
-18.412500000000001 -17.499999999999993 17.412500000000005
0 0

0101101
*
Ve
0.000000100000000
-18.412500000000001 17.500000000000007 17.412499999999998
0 0

0101101
*
Ed
 0.000000100000000 1 1 0
1  2 0 0.000000000000000 35.000000000000000
2  2 3 0 0.000000000000000 35.000000000000000
4 C1 1 0 3 0
0

0101000
+126 6 -125 6 *
Ed
 0.000000100000000 1 1 0
1  3 0 1.000000000000004 35.825000000000003
0

0101000
+129 23 -126 23 *
Ed
 0.000000100000000 1 1 0
1  4 0 1.000000000000004 35.825000000000003
0

0101000
+128 26 -125 26 *
Wi

0101100
+127 0 -124 0 -123 22 +122 25 *
Fa
0  0.000000100000000 1 0

0111000
+121 0 *
Ve
0.000000100000000
-17.412500000000001 -17.500000000000007 -18.412499999999998
0 0

0101101
*
Ve
0.000000100000000
-17.412500000000001 17.499999999999993 -18.412500000000005
0 0

0101101
*
Ed
 0.000000100000000 1 1 0
1  5 0 0.000000000000000 35.000000000000000
2  3 2 0 0.000000000000000 35.000000000000000
4 C1 2 0 4 0
0

0101000
+119 6 -118 6 *
Ed
 0.000000100000000 1 1 0
1  6 0 4.712388980384690 6.283185307179586
2  4 2 28 4.712388980384690 6.283185307179586
0

0101000
+129 29 -119 29 *
Ed
 0.000000100000000 1 1 0
1  7 0 4.712388980384690 6.283185307179586
2  5 2 31 4.712388980384690 6.283185307179586
0

0101000
+128 32 -118 32 *
Wi

0101100
+127 0 -117 0 -116 27 +115 30 *
Fa
0  0.000000100000000 2 0

0111000
+114 0 *
Ve
0.000000100000000
-17.412500000000001 -17.499999999999993 18.412500000000005
0 0

0101101
*
Ve
0.000000100000000
-17.412500000000001 17.500000000000007 18.412499999999998
0 0

0101101
*
Ed
 0.000000100000000 1 1 0
1  8 0 0.000000000000000 35.000000000000000
2  6 3 0 0.000000000000000 35.000000000000000
4 C1 3 0 5 0
0

0101000
+112 6 -111 6 *
Ed
 0.000000100000000 1 1 0
1  9 0 1.570796326794897 3.141592653589793
2  7 3 28 1.570796326794897 3.141592653589793
0

0101000
+126 29 -112 29 *
Ed
 0.000000100000000 1 1 0
1  10 0 1.570796326794897 3.141592653589793
2  8 3 31 1.570796326794897 3.141592653589793
0

0101000
+125 32 -111 32 *
Wi

0101100
+124 0 -110 0 -109 27 +108 30 *
Fa
0  0.000000100000000 3 0

0111000
+107 0 *
Ve
0.000000100000000
17.412500000000001 -17.500000000000007 -18.412499999999998
0 0

0101101
*
Ed
 0.000000100000000 1 1 0
1  11 0 1.000000000000000 35.825000000000003
0

0101000
+105 23 -119 23 *
Ve
0.000000100000000
17.412500000000001 -17.499999999999993 18.412500000000005
0 0

0101101
*
Ed
 0.000000100000000 1 1 0
1  12 0 1.000000000000000 35.825000000000003
0

0101000
+112 23 -103 23 *
Ve
0.000000100000000
18.412500000000001 -17.500000000000007 -17.412499999999998
0 0

0101101
*
Ed
 0.000000100000000 1 1 0
1  13 0 0.000000000000000 1.570796326794897
2  9 7 28 0.000000000000000 1.570796326794897
0

0101000
+105 29 -101 29 *
Ve
0.000000100000000
18.412500000000001 -17.499999999999993 17.412500000000005
0 0

0101101
*
Ed
 0.000000100000000 1 1 0
1  14 0 1.570796326794897 3.141592653589793
2  10 8 28 1.570796326794897 3.141592653589793
0

0101000
+99 29 -103 29 *
Ed
 0.000000100000000 1 1 0
1  15 0 1.000000000000000 35.825000000000003
0

0101000
+99 23 -101 23 *
Wi

0101100
-123 35 +116 0 -109 0 -104 35 -102 35 +100 0 +98 0 -97 35 *
Ve
0.000000100000000
-17.999999999999996 -17.499999999999989 20.000000000000004
0 0

0101101
*
Ve
0.000000100000000
18.000000000000004 -17.499999999999989 20.000000000000004
0 0

0101101
*
Ed
 0.000000100000000 1 1 0
1  16 0 2.000000000000000 38.000000000000000
0

0101000
+95 23 -94 23 *
Ve
0.000000100000000
-19.999999999999996 -17.499999999999993 18.000000000000004
0 0

0101101
*
Ed
 0.000000100000000 1 1 0
1  17 0 3.141592653589793 4.712388980384690
2  11 9 38 3.141592653589793 4.712388980384690
0

0101000
+95 39 -92 39 *
Ve
0.000000100000000
20.000000000000004 -17.499999999999993 18.000000000000004
0 0

0101101
*
Ed
 0.000000100000000 1 1 0
1  18 0 3.141592653589793 4.712388980384690
2  12 10 38 3.141592653589793 4.712388980384690
0

0101000
+94 39 -90 39 *
Ve
0.000000100000000
-19.999999999999996 -17.500000000000007 -17.999999999999996
0 0

0101101
*
Ed
 0.000000100000000 1 1 0
1  19 0 2.000000000000000 38.000000000000000
0

0101000
+88 23 -92 23 *
Ve
0.000000100000000
20.000000000000004 -17.500000000000007 -17.999999999999996
0 0

0101101
*
Ed
 0.000000100000000 1 1 0
1  20 0 2.000000000000000 38.000000000000000
0

0101000
+90 23 -86 23 *
Ve
0.000000100000000
-17.999999999999996 -17.500000000000011 -19.999999999999996
0 0

0101101
*
Ed
 0.000000100000000 1 1 0
1  21 0 0.000000000000000 1.570796326794897
2  13 11 38 0.000000000000000 1.570796326794897
0

0101000
+84 39 -88 39 *
Ve
0.000000100000000
18.000000000000004 -17.500000000000011 -19.999999999999996
0 0

0101101
*
Ed
 0.000000100000000 1 1 0
1  22 0 4.712388980384690 6.283185307179586
2  14 12 38 4.712388980384690 6.283185307179586
0

0101000
+86 39 -82 39 *
Ed
 0.000000100000000 1 1 0
1  23 0 2.000000000000000 38.000000000000000
0

0101000
+82 23 -84 23 *
Wi

0101100
+93 37 -91 0 +89 0 +87 37 +85 37 +83 0 +81 0 +80 37 *
Fa
0  0.000000100000000 6 0

0111000
+96 34 +79 36 *
Ve
0.000000100000000
17.412500000000001 17.499999999999993 -18.412500000000005
0 0

0101101
*
Ed
 0.000000100000000 1 1 0
1  24 0 1.000000000000000 35.825000000000003
0

0101000
+77 26 -118 26 *
Ve
0.000000100000000
17.412500000000001 17.500000000000007 18.412499999999998
0 0

0101101
*
Ed
 0.000000100000000 1 1 0
1  25 0 1.000000000000000 35.825000000000003
0

0101000
+111 26 -75 26 *
Ve
0.000000100000000
18.412500000000001 17.499999999999993 -17.412500000000005
0 0

0101101
*
Ed
 0.000000100000000 1 1 0
1  26 0 0.000000000000000 1.570796326794897
2  15 7 31 0.000000000000000 1.570796326794897
0

0101000
+77 32 -73 32 *
Ve
0.000000100000000
18.412500000000001 17.500000000000007 17.412499999999998
0 0

0101101
*
Ed
 0.000000100000000 1 1 0
1  27 0 1.570796326794897 3.141592653589793
2  16 8 31 1.570796326794897 3.141592653589793
0

0101000
+71 32 -75 32 *
Ed
 0.000000100000000 1 1 0
1  28 0 1.000000000000000 35.825000000000003
0

0101000
+71 26 -73 26 *
Wi

0101100
-122 35 +115 0 -108 0 -76 35 -74 35 +72 0 +70 0 -69 35 *
Ve
0.000000100000000
-17.999999999999996 17.500000000000011 19.999999999999996
0 0

0101101
*
Ve
0.000000100000000
18.000000000000004 17.500000000000011 19.999999999999996
0 0

0101101
*
Ed
 0.000000100000000 1 1 0
1  29 0 2.000000000000000 38.000000000000000
0

0101000
+67 26 -66 26 *
Ve
0.000000100000000
-19.999999999999996 17.500000000000007 17.999999999999996
0 0

0101101
*
Ed
 0.000000100000000 1 1 0
1  30 0 3.141592653589793 4.712388980384690
2  17 9 41 3.141592653589793 4.712388980384690
0

0101000
+67 42 -64 42 *
Ve
0.000000100000000
20.000000000000004 17.500000000000007 17.999999999999996
0 0

0101101
*
Ed
 0.000000100000000 1 1 0
1  31 0 3.141592653589793 4.712388980384690
2  18 10 41 3.141592653589793 4.712388980384690
0

0101000
+66 42 -62 42 *
Ve
0.000000100000000
-19.999999999999996 17.499999999999993 -18.000000000000004
0 0

0101101
*
Ed
 0.000000100000000 1 1 0
1  32 0 2.000000000000000 38.000000000000000
0

0101000
+60 26 -64 26 *
Ve
0.000000100000000
20.000000000000004 17.499999999999993 -18.000000000000004
0 0

0101101
*
Ed
 0.000000100000000 1 1 0
1  33 0 2.000000000000000 38.000000000000000
0

0101000
+62 26 -58 26 *
Ve
0.000000100000000
-17.999999999999996 17.499999999999989 -20.000000000000004
0 0

0101101
*
Ed
 0.000000100000000 1 1 0
1  34 0 0.000000000000000 1.570796326794897
2  19 11 41 0.000000000000000 1.570796326794897
0

0101000
+56 42 -60 42 *
Ve
0.000000100000000
18.000000000000004 17.499999999999989 -20.000000000000004
0 0

0101101
*
Ed
 0.000000100000000 1 1 0
1  35 0 4.712388980384690 6.283185307179586
2  20 12 41 4.712388980384690 6.283185307179586
0

0101000
+58 42 -54 42 *
Ed
 0.000000100000000 1 1 0
1  36 0 2.000000000000000 38.000000000000000
0

0101000
+54 26 -56 26 *
Wi

0101100
+65 37 -63 0 +61 0 +59 37 +57 37 +55 0 +53 0 +52 37 *
Fa
0  0.000000100000000 13 0

0111000
+68 34 +51 36 *
Ed
 0.000000100000000 1 1 0
1  37 0 0.000000000000000 35.000000000000000
2  21 7 0 0.000000000000000 35.000000000000000
4 C1 4 0 7 0
0

0101000
+105 6 -77 6 *
Wi

0101100
+49 4 -104 43 +76 44 -117 4 *
Ve
0.000000100000004
3.968750000000000 -0.684986000000000 -18.412500000000001
0 0

0101101
*
Ed
 0.000000100000000 1 1 0
1  38 0 0.000000000000000 6.283185307179586
2  22 14 0 0.000000000000000 6.283185307179586
0

0101000
+47 45 -47 45 *
Wi

0101100
-46 0 *
Fa
0  0.000000100000000 4 4

0111000
+48 0 +45 0 *
Ed
 0.000000100000000 1 1 0
1  39 0 0.000000000000000 35.000000000000000
2  23 8 0 0.000000000000000 35.000000000000000
4 C1 5 0 8 0
0

0101000
+103 6 -75 6 *
Wi

0101100
+110 0 -43 0 -102 22 +74 25 *
Fa
0  0.000000100000000 5 0

0111000
+42 0 *
Ed
 0.000000100000000 1 1 0
1  40 0 0.000000000000000 35.000000000000000
2  24 7 0 0.000000000000000 35.000000000000000
4 C1 7 0 15 0
0

0101000
+101 6 -73 6 *
Wi

0101100
+49 0 -40 0 -100 27 +72 30 *
Fa
0  0.000000100000000 7 0

0111000
+39 0 *
Ed
 0.000000100000000 1 1 0
1  41 0 0.000000000000000 35.000000000000000
2  25 8 0 0.000000000000000 35.000000000000000
4 C1 8 0 15 0
0

0101000
+99 6 -71 6 *
Wi

0101100
+37 0 -43 0 -98 27 +70 30 *
Fa
0  0.000000100000000 8 0

0111000
+36 0 *
Wi

0101100
+37 0 -40 0 -97 22 +69 25 *
Fa
0  0.000000100000000 15 0

0111000
+34 0 *
Ed
 0.000000100000000 1 1 0
1  42 0 0.000000000000000 35.000000000000000
2  26 9 0 0.000000000000000 35.000000000000000
4 G1 16 0 9 0
0

0101000
+95 6 -67 6 *
Ed
 0.000000100000000 1 1 0
1  43 0 0.000000000000000 35.000000000000000
2  27 10 0 0.000000000000000 35.000000000000000
4 G1 16 0 10 0
0

0101000
+94 6 -66 6 *
Wi

0101100
+32 0 -31 0 -93 22 +65 25 *
Fa
0  0.000000100000000 16 0

0111000
+30 0 *
Ed
 0.000000100000000 1 1 0
1  44 0 0.000000000000000 35.000000000000000
2  28 9 0 0.000000000000000 35.000000000000000
4 G1 9 0 17 0
0

0101000
+92 6 -64 6 *
Wi

0101100
+32 0 -28 0 -91 46 +63 47 *
Fa
0  0.000000100000000 9 0

0111000
+27 0 *
Ed
 0.000000100000000 1 1 0
1  45 0 0.000000000000000 35.000000000000000
2  29 10 0 0.000000000000000 35.000000000000000
4 G1 10 0 18 0
0

0101000
+90 6 -62 6 *
Wi

0101100
+31 0 -25 0 -89 46 +61 47 *
Fa
0  0.000000100000000 10 0

0111000
+24 0 *
Ed
 0.000000100000000 1 1 0
1  46 0 0.000000000000000 35.000000000000000
2  30 11 0 0.000000000000000 35.000000000000000
4 G1 17 0 11 0
0

0101000
+88 6 -60 6 *
Wi

0101100
+22 0 -28 0 -87 22 +59 25 *
Fa
0  0.000000100000000 17 0

0111000
+21 0 *
Ed
 0.000000100000000 1 1 0
1  47 0 0.000000000000000 35.000000000000000
2  31 12 0 0.000000000000000 35.000000000000000
4 G1 18 0 12 0
0

0101000
+86 6 -58 6 *
Wi

0101100
+25 0 -19 0 -85 22 +57 25 *
Fa
0  0.000000100000000 18 0

0111000
+18 0 *
Ed
 0.000000100000000 1 1 0
1  48 0 0.000000000000000 35.000000000000000
2  32 11 0 0.000000000000000 35.000000000000000
4 G1 11 0 19 0
0

0101000
+84 6 -56 6 *
Wi

0101100
+16 0 -22 0 -83 46 +55 47 *
Fa
0  0.000000100000000 11 0

0111000
+15 0 *
Ed
 0.000000100000000 1 1 0
1  49 0 0.000000000000000 35.000000000000000
2  33 12 0 0.000000000000000 35.000000000000000
4 G1 12 0 19 0
0

0101000
+82 6 -54 6 *
Wi

0101100
+19 0 -13 0 -81 46 +53 47 *
Fa
0  0.000000100000000 12 0

0111000
+12 0 *
Wi

0101100
+13 4 -80 43 +52 44 -16 4 *
Ve
0.000000100000001
3.968750000000000 -0.684986000000000 -20.000000000000000
0 0

0101101
*
Ed
 0.000000100000000 1 1 0
1  50 0 0.000000000000000 6.283185307179586
2  34 14 0 0.000000000000000 6.283185307179586
0

0101000
+9 45 -9 45 *
Wi

0101100
-8 0 *
Fa
0  0.000000100000000 19 4

0111000
+10 0 +7 0 *
Ed
 0.000000100000000 1 1 0
1  51 0 18.412500000000001 20.000000000000000
3  35 36CN 14 0 18.412500000000001 20.000000000000000
0

0101000
+47 45 -9 45 *
Wi

0101100
-46 0 -5 0 +8 0 +5 0 *
Fa
0  0.000000100000000 14 0

0111000
+4 0 *
Sh

0101100
+120 4 -113 4 +106 4 -78 33 +50 40 +44 0 +41 4 -38 4 -35 4 +33 4 
-29 4 +26 4 -23 4 -20 4 -17 4 -14 4 -11 4 -6 0 -3 0 *
So

1100000
+2 0 *

+1 1 