
CASCADE Topology V1, (c) Matra-Datavision
Locations 48
1
1.000000000000000 0.000000000000000 0.000000000000000 0.000000000000000 
0.000000000000000 1.000000000000000 0.000000000000000 0.000000000000000 
0.000000000000000 0.000000000000000 1.000000000000000 0.000000000000000 
1
1.000000000000000 0.000000000000000 0.000000000000000 0.000000000000000 
0.000000000000000 1.000000000000000 0.000000000000000 0.000000000000000 
0.000000000000000 0.000000000000000 1.000000000000000 0.000000000000000 
1
1.000000000000000 0.000000000000000 0.000000000000000 0.000000000000000 
0.000000000000000 1.000000000000000 0.000000000000000 0.000000000000000 
0.000000000000000 0.000000000000000 1.000000000000000 0.000000000000000 
2  2 1 3 -1 0
1
1.000000000000000 0.000000000000000 0.000000000000000 0.000000000000000 
0.000000000000000 1.000000000000000 0.000000000000000 0.000000000000000 
0.000000000000000 0.000000000000000 1.000000000000000 0.000000000000000 
2  5 -1 0
1
1.000000000000000 0.000000000000000 0.000000000000000 0.000000000000000 
0.000000000000000 1.000000000000000 0.000000000000000 0.000000000000000 
0.000000000000000 0.000000000000000 1.000000000000000 0.000000000000000 
1
1.000000000000000 0.000000000000000 0.000000000000000 0.000000000000000 
0.000000000000000 0.000000000000000 -1.000000000000000 0.000000000000000 
0.000000000000000 1.000000000000000 0.000000000000000 0.000000000000000 
1
1.000000000000000 0.000000000000000 0.000000000000000 0.000000000000000 
0.000000000000000 -0.000000000000000 -1.000000000000000 0.000000000000000 
0.000000000000000 1.000000000000000 -0.000000000000000 0.000000000000000 
1
1.000000000000000 0.000000000000000 0.000000000000000 0.000000000000000 
0.000000000000000 1.000000000000000 0.000000000000000 0.000000000000000 
0.000000000000000 0.000000000000000 1.000000000000000 0.000000000000000 
1
1.000000000000000 0.000000000000000 0.000000000000000 0.000000000000000 
0.000000000000000 1.000000000000000 0.000000000000000 0.000000000000000 
0.000000000000000 0.000000000000000 1.000000000000000 0.000000000000000 
1
1.000000000000000 0.000000000000000 0.000000000000000 0.000000000000000 
0.000000000000000 1.000000000000000 0.000000000000000 0.000000000000000 
0.000000000000000 0.000000000000000 1.000000000000000 0.000000000000000 
1
1.000000000000000 0.000000000000000 0.000000000000000 0.000000000000000 
0.000000000000000 0.000000000000000 -1.000000000000000 0.000000000000000 
0.000000000000000 1.000000000000000 0.000000000000000 0.000000000000000 
1
1.000000000000000 0.000000000000000 0.000000000000000 0.000000000000000 
0.000000000000000 1.000000000000000 0.000000000000000 0.000000000000000 
0.000000000000000 0.000000000000000 1.000000000000000 0.000000000000000 
1
1.000000000000000 0.000000000000000 0.000000000000000 0.000000000000000 
0.000000000000000 1.000000000000000 0.000000000000000 0.000000000000000 
0.000000000000000 0.000000000000000 1.000000000000000 0.000000000000000 
1
1.000000000000000 0.000000000000000 0.000000000000000 0.000000000000000 
0.000000000000000 1.000000000000000 0.000000000000000 0.000000000000000 
0.000000000000000 0.000000000000000 1.000000000000000 0.000000000000000 
1
1.000000000000000 0.000000000000000 0.000000000000000 0.000000000000000 
0.000000000000000 1.000000000000000 0.000000000000000 0.000000000000000 
0.000000000000000 0.000000000000000 1.000000000000000 0.000000000000000 
1
1.000000000000000 0.000000000000000 0.000000000000000 0.000000000000000 
0.000000000000000 1.000000000000000 0.000000000000000 0.000000000000000 
0.000000000000000 0.000000000000000 1.000000000000000 0.000000000000000 
1
1.000000000000000 0.000000000000000 0.000000000000000 0.000000000000000 
0.000000000000000 1.000000000000000 0.000000000000000 0.000000000000000 
0.000000000000000 0.000000000000000 1.000000000000000 0.000000000000000 
1
1.000000000000000 0.000000000000000 0.000000000000000 0.000000000000000 
0.000000000000000 1.000000000000000 0.000000000000000 0.000000000000000 
0.000000000000000 0.000000000000000 1.000000000000000 0.000000000000000 
1
1.000000000000000 0.000000000000000 0.000000000000000 -0.000000000000000 
0.000000000000000 1.000000000000000 0.000000000000000 -17.500000000000000 
0.000000000000000 0.000000000000000 1.000000000000000 0.000000000000004 
2  7 1 8 1 9 -1 10 1 11 1 12 1 13 1 14 1 15 1 16 1 17 1 18 1 19 1 20 -1 21 1 2 1 3 -1 0
2  21 -1 20 1 19 -1 18 -1 17 -1 16 -1 15 -1 14 -1 13 -1 12 -1 11 -1 10 -1 9 1 8 -1 7 -1 0
2  5 -1 21 -1 20 1 19 -1 18 -1 17 -1 16 -1 15 -1 14 -1 13 -1 12 -1 11 -1 10 -1 9 1 8 -1 7 -1 0
1
1.000000000000000 0.000000000000000 0.000000000000000 0.000000000000000 
0.000000000000000 1.000000000000000 0.000000000000000 35.000000000000000 
0.000000000000000 0.000000000000000 1.000000000000000 -0.000000000000008 
2  7 1 8 1 9 -1 10 1 11 1 12 1 13 1 14 1 15 1 16 1 17 1 18 1 19 1 20 -1 21 1 25 1 2 1 3 -1 0
2  25 -1 21 -1 20 1 19 -1 18 -1 17 -1 16 -1 15 -1 14 -1 13 -1 12 -1 11 -1 10 -1 9 1 8 -1 7 -1 0
2  5 -1 25 -1 21 -1 20 1 19 -1 18 -1 17 -1 16 -1 15 -1 14 -1 13 -1 12 -1 11 -1 10 -1 9 1 8 -1 7 -1 0
2  12 1 13 1 14 1 15 1 16 1 17 1 18 1 19 1 20 -1 21 1 0
2  21 -1 20 1 19 -1 18 -1 17 -1 16 -1 15 -1 14 -1 13 -1 12 -1 0
2  5 -1 21 -1 20 1 19 -1 18 -1 17 -1 16 -1 15 -1 14 -1 13 -1 12 -1 0
2  12 1 13 1 14 1 15 1 16 1 17 1 18 1 19 1 20 -1 21 1 25 1 0
2  25 -1 21 -1 20 1 19 -1 18 -1 17 -1 16 -1 15 -1 14 -1 13 -1 12 -1 0
2  5 -1 25 -1 21 -1 20 1 19 -1 18 -1 17 -1 16 -1 15 -1 14 -1 13 -1 12 -1 0
2  9 -1 10 1 11 1 12 1 13 1 14 1 15 1 16 1 17 1 18 1 19 1 20 -1 21 1 2 1 3 -1 0
2  11 -1 10 -1 9 1 0
2  7 1 8 1 9 -1 10 1 11 1 0
2  10 -1 9 1 0
2  7 1 8 1 9 -1 10 1 0
2  21 -1 20 1 19 -1 18 -1 17 -1 16 -1 15 -1 14 -1 13 -1 12 -1 11 -1 0
2  5 -1 21 -1 20 1 19 -1 18 -1 17 -1 16 -1 15 -1 14 -1 13 -1 12 -1 11 -1 0
2  9 -1 10 1 11 1 12 1 13 1 14 1 15 1 16 1 17 1 18 1 19 1 20 -1 21 1 25 1 2 1 3 -1 0
2  25 -1 21 -1 20 1 19 -1 18 -1 17 -1 16 -1 15 -1 14 -1 13 -1 12 -1 11 -1 0
2  5 -1 25 -1 21 -1 20 1 19 -1 18 -1 17 -1 16 -1 15 -1 14 -1 13 -1 12 -1 11 -1 0
2  7 1 8 1 9 -1 10 1 11 1 12 1 13 1 14 1 15 1 16 1 17 1 18 1 19 1 20 -1 21 1 0
2  7 1 8 1 9 -1 10 1 11 1 12 1 13 1 14 1 15 1 16 1 17 1 18 1 19 1 20 -1 21 1 25 1 0
2  11 1 12 1 13 1 14 1 15 1 16 1 17 1 18 1 19 1 20 -1 21 1 0
2  11 1 12 1 13 1 14 1 15 1 16 1 17 1 18 1 19 1 20 -1 21 1 25 1 0
Curve2ds 74
1 4.71238898038468967 0.00000000000000000 0.00000000000000000 -1.00000000000000000 
1 0.00000000000000000 0.00000000000000711 -0.00000000000000022 -1.00000000000000000 
1 -1.00000000000000355 0.00000000000000000 1.00000000000000000 0.00000000000000000 
1 -1.00000000000001066 -35.00000000000000000 1.00000000000000000 0.00000000000000000 
1 1.57079632679489700 0.00000000000000000 0.00000000000000000 -1.00000000000000000 
1 34.82500000000000284 -0.00000000000000711 -0.00000000000000022 -1.00000000000000000 
2 17.41249999999999787 -17.50000000000000355 -0.00000000000000022 -1.00000000000000000 1.00000000000000000 -0.00000000000000022 3.96875000000000000
1 0.00000000000000000 -85.59838021303286837 1.00000000000000000 0.00000000000000000 
1 6.28318530717958623 0.00000000000000000 0.00000000000000000 -1.00000000000000000 
1 34.82500000000000284 0.00000000000000711 0.00000000000000000 -1.00000000000000000 
1 0.00000000000000000 0.00000000000000000 1.00000000000000000 0.00000000000000000 
1 0.00000000000000000 -35.00000000000000000 1.00000000000000000 0.00000000000000000 
1 0.00000000000000000 0.00000000000000000 1.00000000000000000 0.00000000000000000 
1 -1.00000000000000000 -0.00000000000000000 1.00000000000000000 0.00000000000000000 
1 -1.00000000000000000 0.00000000000000000 1.00000000000000000 0.00000000000000000 
1 0.00000000000000000 0.00000000000000000 1.00000000000000000 0.00000000000000000 
1 0.00000000000000000 0.00000000000000000 1.00000000000000000 0.00000000000000000 
1 -1.00000000000000000 -0.00000000000000000 1.00000000000000000 0.00000000000000000 
1 -2.00000000000000000 0.00000000000000000 1.00000000000000000 0.00000000000000000 
1 0.00000000000000000 0.00000000000000000 1.00000000000000000 0.00000000000000000 
1 0.00000000000000000 0.00000000000000000 1.00000000000000000 0.00000000000000000 
1 -2.00000000000000000 0.00000000000000000 1.00000000000000000 0.00000000000000000 
1 -2.00000000000000000 -0.00000000000000000 1.00000000000000000 0.00000000000000000 
1 0.00000000000000000 0.00000000000000000 1.00000000000000000 0.00000000000000000 
1 0.00000000000000000 0.00000000000000000 1.00000000000000000 0.00000000000000000 
1 -2.00000000000000000 0.00000000000000000 1.00000000000000000 0.00000000000000000 
1 0.00000000000000000 -35.00000000000000000 1.00000000000000000 0.00000000000000000 
1 -1.00000000000000000 -35.00000000000000000 1.00000000000000000 0.00000000000000000 
1 -1.00000000000000000 -35.00000000000000000 1.00000000000000000 0.00000000000000000 
1 0.00000000000000000 -35.00000000000000000 1.00000000000000000 0.00000000000000000 
1 0.00000000000000000 -35.00000000000000000 1.00000000000000000 0.00000000000000000 
1 -0.99999999999999289 -35.00000000000000000 1.00000000000000000 0.00000000000000000 
1 -2.00000000000000000 -35.00000000000000000 1.00000000000000000 0.00000000000000000 
1 0.00000000000000000 -35.00000000000000000 1.00000000000000000 0.00000000000000000 
1 0.00000000000000000 -35.00000000000000000 1.00000000000000000 0.00000000000000000 
1 -2.00000000000000711 -35.00000000000000000 1.00000000000000000 0.00000000000000000 
1 -1.99999999999999289 -35.00000000000000000 1.00000000000000000 0.00000000000000000 
1 0.00000000000000000 -35.00000000000000000 1.00000000000000000 0.00000000000000000 
1 0.00000000000000000 -35.00000000000000000 1.00000000000000000 0.00000000000000000 
1 -2.00000000000000000 -35.00000000000000000 1.00000000000000000 0.00000000000000000 
1 3.14159265358979312 0.00000000000000000 0.00000000000000000 -1.00000000000000000 
1 0.00000000000000000 -0.00000000000000711 0.00000000000000000 -1.00000000000000000 
1 0.00000000000000000 0.00000000000000000 0.00000000000000000 -1.00000000000000000 
1 6.28318530717958623 0.00000000000000000 0.00000000000000000 -1.00000000000000000 
2 17.99999999999999645 -17.50000000000000355 -0.00000000000000022 -1.00000000000000000 1.00000000000000000 -0.00000000000000022 3.96875000000000000
1 0.00000000000000000 -87.18588021303287405 1.00000000000000000 0.00000000000000000 
1 0.00000000000000000 0.00000000000000000 0.00000000000000000 -1.00000000000000000 
1 -0.00000000000000000 0.00000000000000711 0.00000000000000000 -1.00000000000000000 
1 3.14159265358979312 0.00000000000000000 0.00000000000000000 -1.00000000000000000 
1 34.82500000000000284 -0.00000000000000711 0.00000000000000000 -1.00000000000000000 
1 1.57079632679489700 0.00000000000000000 0.00000000000000000 -1.00000000000000000 
1 34.82500000000000284 0.00000000000000711 0.00000000000000022 -1.00000000000000000 
1 1.57079632679489700 0.00000000000000000 0.00000000000000000 -1.00000000000000000 
1 0.00000000000000000 -0.00000000000000711 0.00000000000000022 -1.00000000000000000 
2 17.41249999999999787 -17.49999999999999645 0.00000000000000022 -1.00000000000000000 -1.00000000000000000 -0.00000000000000022 3.96875000000000000
1 0.00000000000000000 -48.77338021303287263 1.00000000000000000 0.00000000000000000 
1 3.14159265358979312 0.00000000000000000 0.00000000000000000 -1.00000000000000000 
1 0.00000000000000000 -0.00000000000001066 0.00000000000000000 -1.00000000000000000 
1 3.14159265358979312 0.00000000000000000 0.00000000000000000 -1.00000000000000000 
1 36.00000000000000000 -0.00000000000001066 0.00000000000000000 -1.00000000000000000 
1 4.71238898038468967 0.00000000000000000 0.00000000000000000 -1.00000000000000000 
1 36.00000000000000000 -0.00000000000000711 -0.00000000000000022 -1.00000000000000000 
1 4.71238898038468967 0.00000000000000000 0.00000000000000000 -1.00000000000000000 
1 0.00000000000000000 -0.00000000000000711 0.00000000000000022 -1.00000000000000000 
1 1.57079632679489700 0.00000000000000000 0.00000000000000000 -1.00000000000000000 
1 0.00000000000000000 0.00000000000000711 -0.00000000000000022 -1.00000000000000000 
1 4.71238898038468967 0.00000000000000000 0.00000000000000000 -1.00000000000000000 
1 36.00000000000000000 0.00000000000000711 0.00000000000000022 -1.00000000000000000 
2 17.99999999999999645 -17.49999999999999645 0.00000000000000022 -1.00000000000000000 -1.00000000000000000 -0.00000000000000022 3.96875000000000000
1 0.00000000000000000 -47.18588021303287405 1.00000000000000000 0.00000000000000000 
1 0.00000000000000000 0.00000000000000000 0.00000000000000000 -1.00000000000000000 
1 36.00000000000000000 0.00000000000001066 0.00000000000000000 -1.00000000000000000 
1 6.28318530717958623 0.00000000000000000 0.00000000000000000 -1.00000000000000000 
1 0.00000000000000000 0.00000000000001066 0.00000000000000000 -1.00000000000000000 
Curves 53
1 -18.41250000000000142 -17.50000000000000711 -17.41249999999999787 0.00000000000000000 1.00000000000000000 -0.00000000000000022 
1 -18.41250000000000142 -18.41250000000000497 0.00000000000000000 0.00000000000000000 1.00000000000000000 0.00000000000000000 
1 -18.41250000000000142 -18.41250000000000497 0.00000000000000000 0.00000000000000000 1.00000000000000000 0.00000000000000000 
1 -18.41250000000000142 -17.49999999999999289 17.41250000000000497 0.00000000000000000 1.00000000000000000 -0.00000000000000022 
2 -18.41249999999999432 0.00000000000000409 -0.00000000000000036 1.00000000000000000 -0.00000000000000022 0.00000000000000022 0.00000000000000022 1.00000000000000000 -0.00000000000000022 -0.00000000000000022 0.00000000000000022 1.00000000000000000 3.96875000000000000
1 -17.41250000000000142 -17.50000000000000711 -18.41249999999999787 0.00000000000000000 1.00000000000000000 -0.00000000000000022 
8 4.71238898038468967 6.28318530717958623
2 -17.41250000000000142 -17.41250000000000142 0.00000000000000773 -0.00000000000000000 0.00000000000000044 1.00000000000000000 0.00000000000000000 -1.00000000000000000 0.00000000000000044 1.00000000000000000 0.00000000000000000 0.00000000000000000 1.00000000000000000
8 4.71238898038468967 6.28318530717958623
2 -17.41250000000000142 -17.41250000000000142 0.00000000000000773 -0.00000000000000000 0.00000000000000044 1.00000000000000000 0.00000000000000000 -1.00000000000000000 0.00000000000000044 1.00000000000000000 0.00000000000000000 0.00000000000000000 1.00000000000000000
8 1.57079632679489656 3.14159265358979312
2 -17.41250000000000142 17.41250000000000142 -0.00000000000000773 -0.00000000000000000 -0.00000000000000044 -1.00000000000000000 0.00000000000000000 -1.00000000000000000 0.00000000000000044 -1.00000000000000000 0.00000000000000000 0.00000000000000000 1.00000000000000000
1 18.41250000000000142 -18.41250000000000142 0.00000000000000000 -1.00000000000000000 -0.00000000000000010 0.00000000000000000 
1 -18.41250000000000142 18.41250000000000142 0.00000000000000000 1.00000000000000000 0.00000000000000000 0.00000000000000000 
8 0.00000000000000000 1.57079632679489656
2 17.41250000000000142 -17.41250000000000142 0.00000000000000773 -0.00000000000000000 0.00000000000000044 1.00000000000000000 0.00000000000000000 -1.00000000000000000 0.00000000000000044 1.00000000000000000 0.00000000000000000 0.00000000000000000 1.00000000000000000
8 1.57079632679489656 3.14159265358979312
2 17.41250000000000142 17.41250000000000142 -0.00000000000000773 -0.00000000000000000 0.00000000000000044 1.00000000000000000 0.00000000000000000 -1.00000000000000000 0.00000000000000044 1.00000000000000000 0.00000000000000000 0.00000000000000000 1.00000000000000000
1 18.41250000000000142 18.41250000000000142 0.00000000000000000 0.00000000000000000 -1.00000000000000000 0.00000000000000000 
1 -19.99999999999999645 20.00000000000000000 0.00000000000000000 1.00000000000000000 0.00000000000000000 0.00000000000000000 
8 3.14159265358979312 4.71238898038468967
2 -17.99999999999999645 18.00000000000000000 -0.00000000000000799 -0.00000000000000000 0.00000000000000044 1.00000000000000000 0.00000000000000000 -1.00000000000000000 0.00000000000000044 1.00000000000000000 0.00000000000000000 0.00000000000000000 2.00000000000000000
8 3.14159265358979312 4.71238898038468967
2 18.00000000000000355 18.00000000000000000 -0.00000000000000799 -0.00000000000000000 -0.00000000000000044 -1.00000000000000000 0.00000000000000000 -1.00000000000000000 0.00000000000000044 -1.00000000000000000 0.00000000000000000 0.00000000000000000 2.00000000000000000
1 -19.99999999999999645 -20.00000000000000000 0.00000000000000000 0.00000000000000000 1.00000000000000000 0.00000000000000000 
1 20.00000000000000355 20.00000000000000000 0.00000000000000000 0.00000000000000000 -1.00000000000000000 0.00000000000000000 
8 0.00000000000000000 1.57079632679489656
2 -17.99999999999999645 -18.00000000000000000 0.00000000000000799 -0.00000000000000000 -0.00000000000000044 -1.00000000000000000 0.00000000000000000 -1.00000000000000000 0.00000000000000044 -1.00000000000000000 0.00000000000000000 0.00000000000000000 2.00000000000000000
8 4.71238898038468967 6.28318530717958623
2 18.00000000000000355 -18.00000000000000000 0.00000000000000799 -0.00000000000000000 -0.00000000000000044 -1.00000000000000000 0.00000000000000000 -1.00000000000000000 0.00000000000000044 -1.00000000000000000 0.00000000000000000 0.00000000000000000 2.00000000000000000
1 20.00000000000000355 -20.00000000000000000 0.00000000000000000 -1.00000000000000000 0.00000000000000000 0.00000000000000000 
8 1.57079632679489656 3.14159265358979312
2 -17.41250000000000142 17.41250000000000142 -0.00000000000000773 -0.00000000000000000 -0.00000000000000044 -1.00000000000000000 0.00000000000000000 -1.00000000000000000 0.00000000000000044 -1.00000000000000000 0.00000000000000000 0.00000000000000000 1.00000000000000000
1 18.41250000000000142 -18.41250000000000142 0.00000000000000000 -1.00000000000000000 -0.00000000000000010 0.00000000000000000 
1 -18.41250000000000142 18.41250000000000142 0.00000000000000000 1.00000000000000000 0.00000000000000000 0.00000000000000000 
8 0.00000000000000000 1.57079632679489656
2 17.41250000000000142 -17.41250000000000142 0.00000000000000773 -0.00000000000000000 0.00000000000000044 1.00000000000000000 0.00000000000000000 -1.00000000000000000 0.00000000000000044 1.00000000000000000 0.00000000000000000 0.00000000000000000 1.00000000000000000
8 1.57079632679489656 3.14159265358979312
2 17.41250000000000142 17.41250000000000142 -0.00000000000000773 -0.00000000000000000 0.00000000000000044 1.00000000000000000 0.00000000000000000 -1.00000000000000000 0.00000000000000044 1.00000000000000000 0.00000000000000000 0.00000000000000000 1.00000000000000000
1 18.41250000000000142 18.41250000000000142 0.00000000000000000 0.00000000000000000 -1.00000000000000000 0.00000000000000000 
1 -19.99999999999999645 20.00000000000000000 0.00000000000000000 1.00000000000000000 0.00000000000000000 0.00000000000000000 
8 3.14159265358979312 4.71238898038468967
2 -17.99999999999999645 18.00000000000000000 -0.00000000000000799 -0.00000000000000000 0.00000000000000044 1.00000000000000000 0.00000000000000000 -1.00000000000000000 0.00000000000000044 1.00000000000000000 0.00000000000000000 0.00000000000000000 2.00000000000000000
8 3.14159265358979312 4.71238898038468967
2 18.00000000000000355 18.00000000000000000 -0.00000000000000799 -0.00000000000000000 -0.00000000000000044 -1.00000000000000000 0.00000000000000000 -1.00000000000000000 0.00000000000000044 -1.00000000000000000 0.00000000000000000 0.00000000000000000 2.00000000000000000
1 -19.99999999999999645 -20.00000000000000000 0.00000000000000000 0.00000000000000000 1.00000000000000000 0.00000000000000000 
1 20.00000000000000355 20.00000000000000000 0.00000000000000000 0.00000000000000000 -1.00000000000000000 0.00000000000000000 
8 0.00000000000000000 1.57079632679489656
2 -17.99999999999999645 -18.00000000000000000 0.00000000000000799 -0.00000000000000000 -0.00000000000000044 -1.00000000000000000 0.00000000000000000 -1.00000000000000000 0.00000000000000044 -1.00000000000000000 0.00000000000000000 0.00000000000000000 2.00000000000000000
8 4.71238898038468967 6.28318530717958623
2 18.00000000000000355 -18.00000000000000000 0.00000000000000799 -0.00000000000000000 -0.00000000000000044 -1.00000000000000000 0.00000000000000000 -1.00000000000000000 0.00000000000000044 -1.00000000000000000 0.00000000000000000 0.00000000000000000 2.00000000000000000
1 20.00000000000000355 -20.00000000000000000 0.00000000000000000 -1.00000000000000000 0.00000000000000000 0.00000000000000000 
1 -17.41250000000000142 -17.49999999999999289 18.41250000000000497 0.00000000000000000 1.00000000000000000 -0.00000000000000022 
1 67.18588021303287405 3.96874999999998490 0.00000000000001777 -1.00000000000000000 0.00000000000000022 -0.00000000000000028 
2 -20.00000000000000000 0.00000000000000444 -0.00000000000000071 1.00000000000000000 -0.00000000000000022 0.00000000000000022 0.00000000000000022 1.00000000000000000 -0.00000000000000022 -0.00000000000000022 0.00000000000000022 1.00000000000000000 3.96875000000000000
1 17.41250000000000142 -17.50000000000000711 -18.41249999999999787 0.00000000000000000 1.00000000000000000 -0.00000000000000022 
1 17.41250000000000142 -17.49999999999999289 18.41250000000000497 0.00000000000000000 1.00000000000000000 -0.00000000000000022 
1 18.41250000000000142 -17.50000000000000711 -17.41249999999999787 0.00000000000000000 1.00000000000000000 -0.00000000000000022 
1 18.41250000000000142 -17.49999999999999289 17.41250000000000497 0.00000000000000000 1.00000000000000000 -0.00000000000000022 
2 18.41250000000000142 -0.00000000000000409 0.00000000000000782 1.00000000000000000 -0.00000000000000022 0.00000000000000022 0.00000000000000022 1.00000000000000000 -0.00000000000000022 -0.00000000000000022 0.00000000000000022 1.00000000000000000 3.96875000000000000
1 -17.99999999999999645 -17.49999999999998934 20.00000000000000355 0.00000000000000000 1.00000000000000000 -0.00000000000000022 
1 18.00000000000000355 -17.49999999999998934 20.00000000000000355 0.00000000000000000 1.00000000000000000 -0.00000000000000022 
1 -19.99999999999999645 -17.49999999999999289 18.00000000000000355 0.00000000000000000 1.00000000000000000 -0.00000000000000022 
1 20.00000000000000355 -17.49999999999999289 18.00000000000000355 0.00000000000000000 1.00000000000000000 -0.00000000000000022 
1 -19.99999999999999645 -17.50000000000000711 -17.99999999999999645 0.00000000000000000 1.00000000000000000 -0.00000000000000022 
1 20.00000000000000355 -17.50000000000000711 -17.99999999999999645 0.00000000000000000 1.00000000000000000 -0.00000000000000022 
2 20.00000000000000000 -0.00000000000000444 0.00000000000000817 1.00000000000000000 -0.00000000000000022 0.00000000000000022 0.00000000000000022 1.00000000000000000 -0.00000000000000022 -0.00000000000000022 0.00000000000000022 1.00000000000000000 3.96875000000000000
1 -17.99999999999999645 -17.50000000000001066 -19.99999999999999645 0.00000000000000000 1.00000000000000000 -0.00000000000000022 
1 18.00000000000000355 -17.50000000000001066 -19.99999999999999645 0.00000000000000000 1.00000000000000000 -0.00000000000000022 
Polygon3D 0
PolygonOnTriangulations 0
Surfaces 19
1 -18.41250000000000142 -17.50000000000000000 -17.41249999999999787 1.00000000000000000 0.00000000000000000 0.00000000000000000 0.00000000000000000 0.00000000000000000 1.00000000000000000 0.00000000000000000 -1.00000000000000000 0.00000000000000000 
2 -17.41250000000000142 -17.50000000000000711 -17.41249999999999787 0.00000000000000000 -1.00000000000000000 0.00000000000000044 0.00000000000000000 -0.00000000000000044 -1.00000000000000000 1.00000000000000000 0.00000000000000000 0.00000000000000000 1.00000000000000000
2 -17.41250000000000142 -17.49999999999999289 17.41250000000000497 0.00000000000000000 -1.00000000000000000 0.00000000000000044 0.00000000000000000 -0.00000000000000044 -1.00000000000000000 -1.00000000000000000 -0.00000000000000000 -0.00000000000000000 1.00000000000000000
2 67.18588021303287405 -0.00000000000001492 0.00000000000001865 1.00000000000000000 -0.00000000000000022 0.00000000000000022 0.00000000000000022 1.00000000000000000 -0.00000000000000022 -0.00000000000000022 0.00000000000000022 1.00000000000000000 3.96875000000000000
1 17.41250000000000142 -17.50000000000000000 -18.41249999999999787 -0.00000000000000010 0.00000000000000022 1.00000000000000000 -1.00000000000000000 0.00000000000000000 -0.00000000000000010 -0.00000000000000000 -1.00000000000000000 0.00000000000000022 
1 0.00000000000000213 0.00000000000000000 0.00000000000000000 0.00000000000000000 1.00000000000000000 -0.00000000000000022 0.00000000000000000 0.00000000000000022 1.00000000000000000 1.00000000000000000 -0.00000000000000000 0.00000000000000000 
1 -17.41250000000000142 -17.50000000000000000 18.41250000000000497 0.00000000000000000 -0.00000000000000022 -1.00000000000000000 1.00000000000000000 0.00000000000000000 0.00000000000000000 0.00000000000000000 -1.00000000000000000 0.00000000000000022 
2 17.41250000000000142 -17.50000000000000711 -17.41249999999999787 0.00000000000000000 -1.00000000000000000 0.00000000000000044 0.00000000000000000 -0.00000000000000044 -1.00000000000000000 1.00000000000000000 0.00000000000000000 0.00000000000000000 1.00000000000000000
2 17.41250000000000142 -17.49999999999999289 17.41250000000000497 0.00000000000000000 -1.00000000000000000 0.00000000000000044 0.00000000000000000 -0.00000000000000044 -1.00000000000000000 1.00000000000000000 0.00000000000000000 0.00000000000000000 1.00000000000000000
1 18.41250000000000142 -17.50000000000000000 17.41250000000000497 -1.00000000000000000 0.00000000000000000 0.00000000000000000 0.00000000000000000 0.00000000000000000 -1.00000000000000000 -0.00000000000000000 -1.00000000000000000 -0.00000000000000000 
1 -17.99999999999999645 -17.50000000000000000 20.00000000000000355 0.00000000000000000 -0.00000000000000022 -1.00000000000000000 1.00000000000000000 0.00000000000000000 0.00000000000000000 0.00000000000000000 -1.00000000000000000 0.00000000000000022 
2 -17.99999999999999645 -17.49999999999999289 18.00000000000000355 0.00000000000000000 -1.00000000000000000 0.00000000000000044 0.00000000000000000 -0.00000000000000044 -1.00000000000000000 1.00000000000000000 0.00000000000000000 0.00000000000000000 2.00000000000000000
2 18.00000000000000355 -17.49999999999999289 18.00000000000000355 0.00000000000000000 -1.00000000000000000 0.00000000000000044 0.00000000000000000 -0.00000000000000044 -1.00000000000000000 -1.00000000000000000 -0.00000000000000000 -0.00000000000000000 2.00000000000000000
1 -19.99999999999999645 -17.50000000000000000 -17.99999999999999645 1.00000000000000000 0.00000000000000000 0.00000000000000000 0.00000000000000000 0.00000000000000000 1.00000000000000000 0.00000000000000000 -1.00000000000000000 0.00000000000000000 
1 20.00000000000000355 -17.50000000000000000 18.00000000000000355 -1.00000000000000000 0.00000000000000000 0.00000000000000000 0.00000000000000000 0.00000000000000000 -1.00000000000000000 -0.00000000000000000 -1.00000000000000000 -0.00000000000000000 
2 -17.99999999999999645 -17.50000000000000711 -17.99999999999999645 0.00000000000000000 -1.00000000000000000 0.00000000000000044 0.00000000000000000 -0.00000000000000044 -1.00000000000000000 -1.00000000000000000 -0.00000000000000000 -0.00000000000000000 2.00000000000000000
2 18.00000000000000355 -17.50000000000000711 -17.99999999999999645 0.00000000000000000 -1.00000000000000000 0.00000000000000044 0.00000000000000000 -0.00000000000000044 -1.00000000000000000 -1.00000000000000000 -0.00000000000000000 -0.00000000000000000 2.00000000000000000
1 18.00000000000000355 -17.50000000000000000 -19.99999999999999645 0.00000000000000000 0.00000000000000022 1.00000000000000000 -1.00000000000000000 0.00000000000000000 0.00000000000000000 0.00000000000000000 -1.00000000000000000 0.00000000000000022 
1 0.00000000000000213 0.00000000000000000 0.00000000000000000 0.00000000000000000 1.00000000000000000 -0.00000000000000022 0.00000000000000000 0.00000000000000022 1.00000000000000000 1.00000000000000000 -0.00000000000000000 0.00000000000000000 
Triangulations 0

TShapes 138
Ve
0.000000100000000
-18.412500000000001 -17.500000000000007 -17.412499999999998
0 0

0101101
*
Ve
0.000000100000000
-18.412500000000001 17.499999999999993 -17.412500000000005
0 0

0101101
*
Ed
 0.000000100000000 1 1 0
1  1 0 0.000000000000000 35.000000000000000
2  1 2 0 0.000000000000000 35.000000000000000
4 C1 1 0 2 0
2  2 1 0 0.000000000000000 35.000000000000000
0

0101000
+138 6 -137 6 *
Ve
0.000000100000000
-18.412500000000001 -17.499999999999993 17.412500000000005
0 0

0101101
*
Ed
 0.000000100000000 1 1 0
1  2 0 1.000000000000004 35.825000000000003
2  3 1 23 1.000000000000004 35.825000000000003
0

0101000
+138 24 -135 24 *
Ve
0.000000100000000
-18.412500000000001 17.500000000000007 17.412499999999998
0 0

0101101
*
Ed
 0.000000100000000 1 1 0
1  3 0 1.000000000000004 35.825000000000003
2  4 1 27 1.000000000000004 35.825000000000003
0

0101000
+137 28 -133 28 *
Ed
 0.000000100000000 1 1 0
1  4 0 0.000000000000000 35.000000000000000
2  5 3 0 0.000000000000000 35.000000000000000
4 C1 1 0 3 0
2  6 1 0 0.000000000000000 35.000000000000000
0

0101000
+135 6 -133 6 *
Wi

0101100
+136 4 -134 22 +132 26 -131 4 *
Ve
0.000000100000005
-18.412499999999994 3.968750000000004 -0.000000000000006
0 0

0101101
*
Ed
 0.000000100000000 1 1 0
1  5 0 0.000000000000000 6.283185307179586
2  7 1 4 0.000000000000000 6.283185307179586
2  8 4 0 0.000000000000000 6.283185307179586
0

0101000
+129 0 -129 0 *
Wi

0101100
-128 0 *
Fa
0  0.000000100000000 1 4

0101000
+130 0 +127 0 *
Ve
0.000000100000000
-17.412500000000001 -17.500000000000007 -18.412499999999998
0 0

0101101
*
Ve
0.000000100000000
-17.412500000000001 17.499999999999993 -18.412500000000005
0 0

0101101
*
Ed
 0.000000100000000 1 1 0
1  6 0 0.000000000000000 35.000000000000000
2  9 2 0 0.000000000000000 35.000000000000000
4 C1 2 0 5 0
2  10 5 0 0.000000000000000 35.000000000000000
0

0101000
+125 6 -124 6 *
Ed
 0.000000100000000 1 1 0
1  7 0 4.712388980384690 6.283185307179586
2  11 2 30 4.712388980384690 6.283185307179586
0

0101000
+138 31 -125 31 *
Ed
 0.000000100000000 1 1 0
1  8 0 4.712388980384690 6.283185307179586
2  12 2 33 4.712388980384690 6.283185307179586
0

0101000
+137 34 -124 34 *
Wi

0101100
+136 0 -123 0 -122 29 +121 32 *
Fa
0  0.000000100000000 2 0

0101000
+120 0 *
Ve
0.000000100000000
-17.412500000000001 -17.499999999999993 18.412500000000005
0 0

0101101
*
Ed
 0.000000100000000 1 1 0
1  9 0 1.570796326794897 3.141592653589793
2  13 3 30 1.570796326794897 3.141592653589793
0

0101000
+135 31 -118 31 *
Ve
0.000000100000000
17.412500000000001 -17.500000000000007 -18.412499999999998
0 0

0101101
*
Ed
 0.000000100000000 1 1 0
1  10 0 1.000000000000000 35.825000000000003
2  14 5 23 1.000000000000000 35.825000000000003
0

0101000
+116 24 -125 24 *
Ve
0.000000100000000
17.412500000000001 -17.499999999999993 18.412500000000005
0 0

0101101
*
Ed
 0.000000100000000 1 1 0
1  11 0 1.000000000000000 35.825000000000003
2  15 7 23 1.000000000000000 35.825000000000003
0

0101000
+118 24 -114 24 *
Ve
0.000000100000000
18.412500000000001 -17.500000000000007 -17.412499999999998
0 0

0101101
*
Ed
 0.000000100000000 1 1 0
1  12 0 0.000000000000000 1.570796326794897
2  16 8 30 0.000000000000000 1.570796326794897
0

0101000
+116 31 -112 31 *
Ve
0.000000100000000
18.412500000000001 -17.499999999999993 17.412500000000005
0 0

0101101
*
Ed
 0.000000100000000 1 1 0
1  13 0 1.570796326794897 3.141592653589793
2  17 9 30 1.570796326794897 3.141592653589793
0

0101000
+110 31 -114 31 *
Ed
 0.000000100000000 1 1 0
1  14 0 1.000000000000000 35.825000000000003
2  18 10 23 1.000000000000000 35.825000000000003
0

0101000
+110 24 -112 24 *
Wi

0101100
-134 37 +122 0 -117 0 -115 37 -113 37 +111 0 +109 0 -108 37 *
Ve
0.000000100000000
-17.999999999999996 -17.499999999999989 20.000000000000004
0 0

0101101
*
Ve
0.000000100000000
18.000000000000004 -17.499999999999989 20.000000000000004
0 0

0101101
*
Ed
 0.000000100000000 1 1 0
1  15 0 2.000000000000000 38.000000000000000
2  19 11 23 2.000000000000000 38.000000000000000
0

0101000
+106 24 -105 24 *
Ve
0.000000100000000
-19.999999999999996 -17.499999999999993 18.000000000000004
0 0

0101101
*
Ed
 0.000000100000000 1 1 0
1  16 0 3.141592653589793 4.712388980384690
2  20 12 40 3.141592653589793 4.712388980384690
0

0101000
+106 41 -103 41 *
Ve
0.000000100000000
20.000000000000004 -17.499999999999993 18.000000000000004
0 0

0101101
*
Ed
 0.000000100000000 1 1 0
1  17 0 3.141592653589793 4.712388980384690
2  21 13 40 3.141592653589793 4.712388980384690
0

0101000
+105 41 -101 41 *
Ve
0.000000100000000
-19.999999999999996 -17.500000000000007 -17.999999999999996
0 0

0101101
*
Ed
 0.000000100000000 1 1 0
1  18 0 2.000000000000000 38.000000000000000
2  22 14 23 2.000000000000000 38.000000000000000
0

0101000
+99 24 -103 24 *
Ve
0.000000100000000
20.000000000000004 -17.500000000000007 -17.999999999999996
0 0

0101101
*
Ed
 0.000000100000000 1 1 0
1  19 0 2.000000000000000 38.000000000000000
2  23 15 23 2.000000000000000 38.000000000000000
0

0101000
+101 24 -97 24 *
Ve
0.000000100000000
-17.999999999999996 -17.500000000000011 -19.999999999999996
0 0

0101101
*
Ed
 0.000000100000000 1 1 0
1  20 0 0.000000000000000 1.570796326794897
2  24 16 40 0.000000000000000 1.570796326794897
0

0101000
+95 41 -99 41 *
Ve
0.000000100000000
18.000000000000004 -17.500000000000011 -19.999999999999996
0 0

0101101
*
Ed
 0.000000100000000 1 1 0
1  21 0 4.712388980384690 6.283185307179586
2  25 17 40 4.712388980384690 6.283185307179586
0

0101000
+97 41 -93 41 *
Ed
 0.000000100000000 1 1 0
1  22 0 2.000000000000000 38.000000000000000
2  26 18 23 2.000000000000000 38.000000000000000
0

0101000
+93 24 -95 24 *
Wi

0101100
+104 39 -102 0 +100 0 +98 39 +96 39 +94 0 +92 0 +91 39 *
Fa
0  0.000000100000000 6 0

0101000
+107 36 +90 38 *
Ve
0.000000100000000
-17.412500000000001 17.500000000000007 18.412499999999998
0 0

0101101
*
Ed
 0.000000100000000 1 1 0
1  23 0 1.570796326794897 3.141592653589793
2  27 3 33 1.570796326794897 3.141592653589793
0

0101000
+133 34 -88 34 *
Ve
0.000000100000000
17.412500000000001 17.499999999999993 -18.412500000000005
0 0

0101101
*
Ed
 0.000000100000000 1 1 0
1  24 0 1.000000000000000 35.825000000000003
2  28 5 27 1.000000000000000 35.825000000000003
0

0101000
+86 28 -124 28 *
Ve
0.000000100000000
17.412500000000001 17.500000000000007 18.412499999999998
0 0

0101101
*
Ed
 0.000000100000000 1 1 0
1  25 0 1.000000000000000 35.825000000000003
2  29 7 27 1.000000000000000 35.825000000000003
0

0101000
+88 28 -84 28 *
Ve
0.000000100000000
18.412500000000001 17.499999999999993 -17.412500000000005
0 0

0101101
*
Ed
 0.000000100000000 1 1 0
1  26 0 0.000000000000000 1.570796326794897
2  30 8 33 0.000000000000000 1.570796326794897
0

0101000
+86 34 -82 34 *
Ve
0.000000100000000
18.412500000000001 17.500000000000007 17.412499999999998
0 0

0101101
*
Ed
 0.000000100000000 1 1 0
1  27 0 1.570796326794897 3.141592653589793
2  31 9 33 1.570796326794897 3.141592653589793
0

0101000
+80 34 -84 34 *
Ed
 0.000000100000000 1 1 0
1  28 0 1.000000000000000 35.825000000000003
2  32 10 27 1.000000000000000 35.825000000000003
0

0101000
+80 28 -82 28 *
Wi

0101100
-132 37 +121 0 -87 0 -85 37 -83 37 +81 0 +79 0 -78 37 *
Ve
0.000000100000000
-17.999999999999996 17.500000000000011 19.999999999999996
0 0

0101101
*
Ve
0.000000100000000
18.000000000000004 17.500000000000011 19.999999999999996
0 0

0101101
*
Ed
 0.000000100000000 1 1 0
1  29 0 2.000000000000000 38.000000000000000
2  33 11 27 2.000000000000000 38.000000000000000
0

0101000
+76 28 -75 28 *
Ve
0.000000100000000
-19.999999999999996 17.500000000000007 17.999999999999996
0 0

0101101
*
Ed
 0.000000100000000 1 1 0
1  30 0 3.141592653589793 4.712388980384690
2  34 12 43 3.141592653589793 4.712388980384690
0

0101000
+76 44 -73 44 *
Ve
0.000000100000000
20.000000000000004 17.500000000000007 17.999999999999996
0 0

0101101
*
Ed
 0.000000100000000 1 1 0
1  31 0 3.141592653589793 4.712388980384690
2  35 13 43 3.141592653589793 4.712388980384690
0

0101000
+75 44 -71 44 *
Ve
0.000000100000000
-19.999999999999996 17.499999999999993 -18.000000000000004
0 0

0101101
*
Ed
 0.000000100000000 1 1 0
1  32 0 2.000000000000000 38.000000000000000
2  36 14 27 2.000000000000000 38.000000000000000
0

0101000
+69 28 -73 28 *
Ve
0.000000100000000
20.000000000000004 17.499999999999993 -18.000000000000004
0 0

0101101
*
Ed
 0.000000100000000 1 1 0
1  33 0 2.000000000000000 38.000000000000000
2  37 15 27 2.000000000000000 38.000000000000000
0

0101000
+71 28 -67 28 *
Ve
0.000000100000000
-17.999999999999996 17.499999999999989 -20.000000000000004
0 0

0101101
*
Ed
 0.000000100000000 1 1 0
1  34 0 0.000000000000000 1.570796326794897
2  38 16 43 0.000000000000000 1.570796326794897
0

0101000
+65 44 -69 44 *
Ve
0.000000100000000
18.000000000000004 17.499999999999989 -20.000000000000004
0 0

0101101
*
Ed
 0.000000100000000 1 1 0
1  35 0 4.712388980384690 6.283185307179586
2  39 17 43 4.712388980384690 6.283185307179586
0

0101000
+67 44 -63 44 *
Ed
 0.000000100000000 1 1 0
1  36 0 2.000000000000000 38.000000000000000
2  40 18 27 2.000000000000000 38.000000000000000
0

0101000
+63 28 -65 28 *
Wi

0101100
+74 39 -72 0 +70 0 +68 39 +66 39 +64 0 +62 0 +61 39 *
Fa
0  0.000000100000000 19 0

0101000
+77 36 +60 38 *
Ed
 0.000000100000000 1 1 0
1  37 0 0.000000000000000 35.000000000000000
2  41 3 0 0.000000000000000 35.000000000000000
4 C1 3 0 7 0
2  42 7 0 0.000000000000000 35.000000000000000
0

0101000
+118 6 -88 6 *
Wi

0101100
+131 0 -58 0 -117 29 +87 32 *
Fa
0  0.000000100000000 3 0

0101000
+57 0 *
Ve
0.000000100000005
-20.000000000000000 3.968750000000004 -0.000000000000006
0 0

0101101
*
Ed
 0.000000100000000 1 1 0
1  38 0 85.598380213032868 87.185880213032874
3  43 44CN 4 0 85.598380213032868 87.185880213032874
0

0101000
+129 0 -55 0 *
Ed
 0.000000100000000 1 1 0
1  39 0 0.000000000000000 6.283185307179586
2  45 14 4 0.000000000000000 6.283185307179586
2  46 4 0 0.000000000000000 6.283185307179586
0

0101000
+55 0 -55 0 *
Wi

0101100
-128 0 -54 0 +53 0 +54 0 *
Fa
0  0.000000100000000 4 0

0101000
+52 0 *
Ed
 0.000000100000000 1 1 0
1  40 0 0.000000000000000 35.000000000000000
2  47 8 0 0.000000000000000 35.000000000000000
4 C1 5 0 8 0
2  48 5 0 0.000000000000000 35.000000000000000
0

0101000
+116 6 -86 6 *
Wi

0101100
+50 0 -123 0 -115 45 +85 46 *
Fa
0  0.000000100000000 5 0

0101000
+49 0 *
Ed
 0.000000100000000 1 1 0
1  41 0 0.000000000000000 35.000000000000000
2  49 9 0 0.000000000000000 35.000000000000000
4 C1 7 0 9 0
2  50 7 0 0.000000000000000 35.000000000000000
0

0101000
+114 6 -84 6 *
Wi

0101100
+58 0 -47 0 -113 45 +83 46 *
Fa
0  0.000000100000000 7 0

0101000
+46 0 *
Ed
 0.000000100000000 1 1 0
1  42 0 0.000000000000000 35.000000000000000
2  51 8 0 0.000000000000000 35.000000000000000
4 C1 8 0 10 0
2  52 10 0 0.000000000000000 35.000000000000000
0

0101000
+112 6 -82 6 *
Wi

0101100
+50 0 -44 0 -111 29 +81 32 *
Fa
0  0.000000100000000 8 0

0101000
+43 0 *
Ed
 0.000000100000000 1 1 0
1  43 0 0.000000000000000 35.000000000000000
2  53 9 0 0.000000000000000 35.000000000000000
4 C1 9 0 10 0
2  54 10 0 0.000000000000000 35.000000000000000
0

0101000
+110 6 -80 6 *
Wi

0101100
+41 0 -47 0 -109 29 +79 32 *
Fa
0  0.000000100000000 9 0

0101000
+40 0 *
Wi

0101100
+41 4 -108 22 +78 26 -44 4 *
Ve
0.000000100000003
18.412500000000001 3.968749999999996 0.000000000000004
0 0

0101101
*
Ed
 0.000000100000000 1 1 0
1  44 0 0.000000000000000 6.283185307179586
2  55 10 4 0.000000000000000 6.283185307179586
2  56 4 0 0.000000000000000 6.283185307179586
0

0101000
+37 0 -37 0 *
Wi

0101100
+36 0 *
Fa
0  0.000000100000000 10 4

0101000
+38 0 +35 0 *
Ed
 0.000000100000000 1 1 0
1  45 0 0.000000000000000 35.000000000000000
2  57 12 0 0.000000000000000 35.000000000000000
4 G1 11 0 12 0
2  58 11 0 0.000000000000000 35.000000000000000
0

0101000
+106 6 -76 6 *
Ed
 0.000000100000000 1 1 0
1  46 0 0.000000000000000 35.000000000000000
2  59 13 0 0.000000000000000 35.000000000000000
4 G1 11 0 13 0
2  60 11 0 0.000000000000000 35.000000000000000
0

0101000
+105 6 -75 6 *
Wi

0101100
+33 0 -32 0 -104 45 +74 46 *
Fa
0  0.000000100000000 11 0

0101000
+31 0 *
Ed
 0.000000100000000 1 1 0
1  47 0 0.000000000000000 35.000000000000000
2  61 12 0 0.000000000000000 35.000000000000000
4 G1 12 0 14 0
2  62 14 0 0.000000000000000 35.000000000000000
0

0101000
+103 6 -73 6 *
Wi

0101100
+33 0 -29 0 -102 47 +72 48 *
Fa
0  0.000000100000000 12 0

0101000
+28 0 *
Ed
 0.000000100000000 1 1 0
1  48 0 0.000000000000000 35.000000000000000
2  63 13 0 0.000000000000000 35.000000000000000
4 G1 13 0 15 0
2  64 15 0 0.000000000000000 35.000000000000000
0

0101000
+101 6 -71 6 *
Wi

0101100
+32 0 -26 0 -100 47 +70 48 *
Fa
0  0.000000100000000 13 0

0101000
+25 0 *
Ed
 0.000000100000000 1 1 0
1  49 0 0.000000000000000 35.000000000000000
2  65 16 0 0.000000000000000 35.000000000000000
4 G1 14 0 16 0
2  66 14 0 0.000000000000000 35.000000000000000
0

0101000
+99 6 -69 6 *
Wi

0101100
+23 4 -98 22 +68 26 -29 4 *
Wi

0101100
-53 0 *
Fa
0  0.000000100000000 14 4

0101000
+22 0 +21 0 *
Ed
 0.000000100000000 1 1 0
1  50 0 0.000000000000000 35.000000000000000
2  67 17 0 0.000000000000000 35.000000000000000
4 G1 15 0 17 0
2  68 15 0 0.000000000000000 35.000000000000000
0

0101000
+97 6 -67 6 *
Wi

0101100
+26 4 -96 22 +66 26 -19 4 *
Ve
0.000000100000003
20.000000000000000 3.968749999999996 0.000000000000005
0 0

0101101
*
Ed
 0.000000100000000 1 1 0
1  51 0 0.000000000000000 6.283185307179586
2  69 15 4 0.000000000000000 6.283185307179586
2  70 4 0 0.000000000000000 6.283185307179586
0

0101000
+17 0 -17 0 *
Wi

0101100
+16 0 *
Fa
0  0.000000100000000 15 4

0101000
+18 0 +15 0 *
Ed
 0.000000100000000 1 1 0
1  52 0 0.000000000000000 35.000000000000000
2  71 16 0 0.000000000000000 35.000000000000000
4 G1 16 0 18 0
2  72 18 0 0.000000000000000 35.000000000000000
0

0101000
+95 6 -65 6 *
Wi

0101100
+13 0 -23 0 -94 47 +64 48 *
Fa
0  0.000000100000000 16 0

0101000
+12 0 *
Ed
 0.000000100000000 1 1 0
1  53 0 0.000000000000000 35.000000000000000
2  73 17 0 0.000000000000000 35.000000000000000
4 G1 17 0 18 0
2  74 18 0 0.000000000000000 35.000000000000000
0

0101000
+93 6 -63 6 *
Wi

0101100
+19 0 -10 0 -92 47 +62 48 *
Fa
0  0.000000100000000 17 0

0101000
+9 0 *
Wi

0101100
+10 0 -13 0 -91 45 +61 46 *
Fa
0  0.000000100000000 18 0

0101000
+7 0 *
Ed
 0.000000100000000 1 1 0
1  38 0 47.185880213032874 48.773380213032873
3  43 44CN 4 0 47.185880213032874 48.773380213032873
0

0101000
+17 0 -37 0 *
Wi

0101100
-16 0 -5 0 +36 0 +5 0 *
Fa
0  0.000000100000000 4 0

0101000
+4 0 *
Sh

0101100
+126 0 -119 4 -89 35 +59 42 +56 4 -51 0 +48 4 +45 4 -42 4 -39 4 
+34 0 -30 4 +27 4 -24 4 -20 0 -14 0 -11 4 -8 4 -6 4 -3 0 
*
So

0100000
+2 0 *

+1 1 