
CASCADE Topology V1, (c) Matra-Datavision
Locations 47
1
1.000000000000000 0.000000000000000 0.000000000000000 0.000000000000000 
0.000000000000000 1.000000000000000 0.000000000000000 0.000000000000000 
0.000000000000000 0.000000000000000 1.000000000000000 0.000000000000000 
1
1.000000000000000 0.000000000000000 0.000000000000000 0.000000000000000 
0.000000000000000 1.000000000000000 0.000000000000000 0.000000000000000 
0.000000000000000 0.000000000000000 1.000000000000000 0.000000000000000 
1
1.000000000000000 0.000000000000000 0.000000000000000 0.000000000000000 
0.000000000000000 1.000000000000000 0.000000000000000 0.000000000000000 
0.000000000000000 0.000000000000000 1.000000000000000 0.000000000000000 
2  2 1 3 -1 0
1
1.000000000000000 0.000000000000000 0.000000000000000 0.000000000000000 
0.000000000000000 1.000000000000000 0.000000000000000 0.000000000000000 
0.000000000000000 0.000000000000000 1.000000000000000 0.000000000000000 
2  5 -1 3 1 2 -1 0
1
1.000000000000000 0.000000000000000 0.000000000000000 0.000000000000000 
0.000000000000000 1.000000000000000 0.000000000000000 0.000000000000000 
0.000000000000000 0.000000000000000 1.000000000000000 0.000000000000000 
1
1.000000000000000 0.000000000000000 0.000000000000000 0.000000000000000 
0.000000000000000 0.000000000000000 -1.000000000000000 0.000000000000000 
0.000000000000000 1.000000000000000 0.000000000000000 0.000000000000000 
1
1.000000000000000 0.000000000000000 0.000000000000000 0.000000000000000 
0.000000000000000 -0.000000000000000 -1.000000000000000 0.000000000000000 
0.000000000000000 1.000000000000000 -0.000000000000000 0.000000000000000 
1
1.000000000000000 0.000000000000000 0.000000000000000 0.000000000000000 
0.000000000000000 1.000000000000000 0.000000000000000 0.000000000000000 
0.000000000000000 0.000000000000000 1.000000000000000 0.000000000000000 
1
1.000000000000000 0.000000000000000 0.000000000000000 0.000000000000000 
0.000000000000000 1.000000000000000 0.000000000000000 0.000000000000000 
0.000000000000000 0.000000000000000 1.000000000000000 0.000000000000000 
1
1.000000000000000 0.000000000000000 0.000000000000000 0.000000000000000 
0.000000000000000 1.000000000000000 0.000000000000000 0.000000000000000 
0.000000000000000 0.000000000000000 1.000000000000000 0.000000000000000 
1
1.000000000000000 0.000000000000000 0.000000000000000 0.000000000000000 
0.000000000000000 0.000000000000000 -1.000000000000000 0.000000000000000 
0.000000000000000 1.000000000000000 0.000000000000000 0.000000000000000 
1
1.000000000000000 0.000000000000000 0.000000000000000 0.000000000000000 
0.000000000000000 1.000000000000000 0.000000000000000 0.000000000000000 
0.000000000000000 0.000000000000000 1.000000000000000 0.000000000000000 
1
1.000000000000000 0.000000000000000 0.000000000000000 0.000000000000000 
0.000000000000000 1.000000000000000 0.000000000000000 0.000000000000000 
0.000000000000000 0.000000000000000 1.000000000000000 0.000000000000000 
1
1.000000000000000 0.000000000000000 0.000000000000000 0.000000000000000 
0.000000000000000 1.000000000000000 0.000000000000000 0.000000000000000 
0.000000000000000 0.000000000000000 1.000000000000000 0.000000000000000 
1
1.000000000000000 0.000000000000000 0.000000000000000 0.000000000000000 
0.000000000000000 1.000000000000000 0.000000000000000 0.000000000000000 
0.000000000000000 0.000000000000000 1.000000000000000 0.000000000000000 
1
1.000000000000000 0.000000000000000 0.000000000000000 0.000000000000000 
0.000000000000000 1.000000000000000 0.000000000000000 0.000000000000000 
0.000000000000000 0.000000000000000 1.000000000000000 0.000000000000000 
1
1.000000000000000 0.000000000000000 0.000000000000000 0.000000000000000 
0.000000000000000 1.000000000000000 0.000000000000000 0.000000000000000 
0.000000000000000 0.000000000000000 1.000000000000000 0.000000000000000 
1
1.000000000000000 0.000000000000000 0.000000000000000 0.000000000000000 
0.000000000000000 1.000000000000000 0.000000000000000 0.000000000000000 
0.000000000000000 0.000000000000000 1.000000000000000 0.000000000000000 
1
1.000000000000000 0.000000000000000 0.000000000000000 -0.000000000000000 
0.000000000000000 1.000000000000000 0.000000000000000 -17.500000000000000 
0.000000000000000 0.000000000000000 1.000000000000000 0.000000000000004 
2  7 1 8 1 9 -1 10 1 11 1 12 1 13 1 14 1 15 1 16 1 17 1 18 1 19 1 20 -1 21 1 2 1 3 -1 0
2  5 -1 3 1 2 -1 21 -1 20 1 19 -1 18 -1 17 -1 16 -1 15 -1 14 -1 13 -1 12 -1 11 -1 10 -1 9 1 8 -1 7 -1 0
1
1.000000000000000 0.000000000000000 0.000000000000000 0.000000000000000 
0.000000000000000 1.000000000000000 0.000000000000000 35.000000000000000 
0.000000000000000 0.000000000000000 1.000000000000000 -0.000000000000008 
2  7 1 8 1 9 -1 10 1 11 1 12 1 13 1 14 1 15 1 16 1 17 1 18 1 19 1 20 -1 21 1 24 1 2 1 3 -1 0
2  5 -1 3 1 2 -1 24 -1 21 -1 20 1 19 -1 18 -1 17 -1 16 -1 15 -1 14 -1 13 -1 12 -1 11 -1 10 -1 9 1 8 -1 7 -1 0
2  5 -1 0
2  12 1 13 1 14 1 15 1 16 1 17 1 18 1 19 1 20 -1 21 1 0
2  21 -1 20 1 19 -1 18 -1 17 -1 16 -1 15 -1 14 -1 13 -1 12 -1 0
2  5 -1 3 1 2 -1 21 -1 20 1 19 -1 18 -1 17 -1 16 -1 15 -1 14 -1 13 -1 12 -1 0
2  12 1 13 1 14 1 15 1 16 1 17 1 18 1 19 1 20 -1 21 1 24 1 0
2  24 -1 21 -1 20 1 19 -1 18 -1 17 -1 16 -1 15 -1 14 -1 13 -1 12 -1 0
2  5 -1 3 1 2 -1 24 -1 21 -1 20 1 19 -1 18 -1 17 -1 16 -1 15 -1 14 -1 13 -1 12 -1 0
2  9 -1 10 1 11 1 12 1 13 1 14 1 15 1 16 1 17 1 18 1 19 1 20 -1 21 1 2 1 3 -1 0
2  11 -1 10 -1 9 1 0
2  7 1 8 1 9 -1 10 1 11 1 0
2  10 -1 9 1 0
2  7 1 8 1 9 -1 10 1 0
2  21 -1 20 1 19 -1 18 -1 17 -1 16 -1 15 -1 14 -1 13 -1 12 -1 11 -1 0
2  5 -1 3 1 2 -1 21 -1 20 1 19 -1 18 -1 17 -1 16 -1 15 -1 14 -1 13 -1 12 -1 11 -1 0
2  9 -1 10 1 11 1 12 1 13 1 14 1 15 1 16 1 17 1 18 1 19 1 20 -1 21 1 24 1 2 1 3 -1 0
2  24 -1 21 -1 20 1 19 -1 18 -1 17 -1 16 -1 15 -1 14 -1 13 -1 12 -1 11 -1 0
2  5 -1 3 1 2 -1 24 -1 21 -1 20 1 19 -1 18 -1 17 -1 16 -1 15 -1 14 -1 13 -1 12 -1 11 -1 0
2  7 1 8 1 9 -1 10 1 11 1 12 1 13 1 14 1 15 1 16 1 17 1 18 1 19 1 20 -1 21 1 0
2  7 1 8 1 9 -1 10 1 11 1 12 1 13 1 14 1 15 1 16 1 17 1 18 1 19 1 20 -1 21 1 24 1 0
2  11 1 12 1 13 1 14 1 15 1 16 1 17 1 18 1 19 1 20 -1 21 1 0
2  11 1 12 1 13 1 14 1 15 1 16 1 17 1 18 1 19 1 20 -1 21 1 24 1 0
Curve2ds 38
1 4.71238898038468967 0.00000000000000000 0.00000000000000000 -1.00000000000000000 
1 1.57079632679489700 0.00000000000000000 0.00000000000000000 -1.00000000000000000 
1 0.00000000000000000 -85.59838021303286837 1.00000000000000000 0.00000000000000000 
1 6.28318530717958623 0.00000000000000000 0.00000000000000000 -1.00000000000000000 
1 0.00000000000000000 0.00000000000000000 1.00000000000000000 0.00000000000000000 
1 0.00000000000000000 -35.00000000000000000 1.00000000000000000 0.00000000000000000 
1 0.00000000000000000 0.00000000000000000 1.00000000000000000 0.00000000000000000 
1 0.00000000000000000 0.00000000000000000 1.00000000000000000 0.00000000000000000 
1 0.00000000000000000 0.00000000000000000 1.00000000000000000 0.00000000000000000 
1 0.00000000000000000 0.00000000000000000 1.00000000000000000 0.00000000000000000 
1 0.00000000000000000 0.00000000000000000 1.00000000000000000 0.00000000000000000 
1 0.00000000000000000 0.00000000000000000 1.00000000000000000 0.00000000000000000 
1 0.00000000000000000 0.00000000000000000 1.00000000000000000 0.00000000000000000 
1 0.00000000000000000 -35.00000000000000000 1.00000000000000000 0.00000000000000000 
1 0.00000000000000000 -35.00000000000000000 1.00000000000000000 0.00000000000000000 
1 0.00000000000000000 -35.00000000000000000 1.00000000000000000 0.00000000000000000 
1 0.00000000000000000 -35.00000000000000000 1.00000000000000000 0.00000000000000000 
1 0.00000000000000000 -35.00000000000000000 1.00000000000000000 0.00000000000000000 
1 0.00000000000000000 -35.00000000000000000 1.00000000000000000 0.00000000000000000 
1 0.00000000000000000 -35.00000000000000000 1.00000000000000000 0.00000000000000000 
1 3.14159265358979312 0.00000000000000000 0.00000000000000000 -1.00000000000000000 
1 0.00000000000000000 0.00000000000000000 0.00000000000000000 -1.00000000000000000 
1 6.28318530717958623 0.00000000000000000 0.00000000000000000 -1.00000000000000000 
1 0.00000000000000000 -87.18588021303287405 1.00000000000000000 0.00000000000000000 
1 0.00000000000000000 0.00000000000000000 0.00000000000000000 -1.00000000000000000 
1 3.14159265358979312 0.00000000000000000 0.00000000000000000 -1.00000000000000000 
1 1.57079632679489700 0.00000000000000000 0.00000000000000000 -1.00000000000000000 
1 1.57079632679489700 0.00000000000000000 0.00000000000000000 -1.00000000000000000 
1 0.00000000000000000 -48.77338021303287263 1.00000000000000000 0.00000000000000000 
1 3.14159265358979312 0.00000000000000000 0.00000000000000000 -1.00000000000000000 
1 3.14159265358979312 0.00000000000000000 0.00000000000000000 -1.00000000000000000 
1 4.71238898038468967 0.00000000000000000 0.00000000000000000 -1.00000000000000000 
1 4.71238898038468967 0.00000000000000000 0.00000000000000000 -1.00000000000000000 
1 1.57079632679489700 0.00000000000000000 0.00000000000000000 -1.00000000000000000 
1 4.71238898038468967 0.00000000000000000 0.00000000000000000 -1.00000000000000000 
1 0.00000000000000000 -47.18588021303287405 1.00000000000000000 0.00000000000000000 
1 0.00000000000000000 0.00000000000000000 0.00000000000000000 -1.00000000000000000 
1 6.28318530717958623 0.00000000000000000 0.00000000000000000 -1.00000000000000000 
Curves 54
1 -18.41250000000000142 -17.50000000000000711 -17.41249999999999787 0.00000000000000000 1.00000000000000000 -0.00000000000000022 
1 -18.41250000000000142 -18.41250000000000497 0.00000000000000000 0.00000000000000000 1.00000000000000000 0.00000000000000000 
1 -18.41250000000000142 -18.41250000000000497 0.00000000000000000 0.00000000000000000 1.00000000000000000 0.00000000000000000 
1 -18.41250000000000142 -17.49999999999999289 17.41250000000000497 0.00000000000000000 1.00000000000000000 -0.00000000000000022 
2 -18.41249999999999432 0.00000000000000409 -0.00000000000000036 1.00000000000000000 -0.00000000000000022 0.00000000000000022 0.00000000000000022 1.00000000000000000 -0.00000000000000022 -0.00000000000000022 0.00000000000000022 1.00000000000000000 3.96875000000000000
1 -17.41250000000000142 -17.50000000000000711 -18.41249999999999787 0.00000000000000000 1.00000000000000000 -0.00000000000000022 
8 4.71238898038468967 6.28318530717958623
2 -17.41250000000000142 -17.41250000000000142 0.00000000000000773 -0.00000000000000000 0.00000000000000044 1.00000000000000000 0.00000000000000000 -1.00000000000000000 0.00000000000000044 1.00000000000000000 0.00000000000000000 0.00000000000000000 1.00000000000000000
8 4.71238898038468967 6.28318530717958623
2 -17.41250000000000142 -17.41250000000000142 0.00000000000000773 -0.00000000000000000 0.00000000000000044 1.00000000000000000 0.00000000000000000 -1.00000000000000000 0.00000000000000044 1.00000000000000000 0.00000000000000000 0.00000000000000000 1.00000000000000000
8 1.57079632679489656 3.14159265358979312
2 -17.41250000000000142 17.41250000000000142 -0.00000000000000773 -0.00000000000000000 -0.00000000000000044 -1.00000000000000000 0.00000000000000000 -1.00000000000000000 0.00000000000000044 -1.00000000000000000 0.00000000000000000 0.00000000000000000 1.00000000000000000
1 18.41250000000000142 -18.41250000000000142 0.00000000000000000 -1.00000000000000000 -0.00000000000000010 0.00000000000000000 
1 -18.41250000000000142 18.41250000000000142 0.00000000000000000 1.00000000000000000 0.00000000000000000 0.00000000000000000 
8 0.00000000000000000 1.57079632679489656
2 17.41250000000000142 -17.41250000000000142 0.00000000000000773 -0.00000000000000000 0.00000000000000044 1.00000000000000000 0.00000000000000000 -1.00000000000000000 0.00000000000000044 1.00000000000000000 0.00000000000000000 0.00000000000000000 1.00000000000000000
8 1.57079632679489656 3.14159265358979312
2 17.41250000000000142 17.41250000000000142 -0.00000000000000773 -0.00000000000000000 0.00000000000000044 1.00000000000000000 0.00000000000000000 -1.00000000000000000 0.00000000000000044 1.00000000000000000 0.00000000000000000 0.00000000000000000 1.00000000000000000
1 18.41250000000000142 18.41250000000000142 0.00000000000000000 0.00000000000000000 -1.00000000000000000 0.00000000000000000 
1 -19.99999999999999645 20.00000000000000000 0.00000000000000000 1.00000000000000000 0.00000000000000000 0.00000000000000000 
8 3.14159265358979312 4.71238898038468967
2 -17.99999999999999645 18.00000000000000000 -0.00000000000000799 -0.00000000000000000 0.00000000000000044 1.00000000000000000 0.00000000000000000 -1.00000000000000000 0.00000000000000044 1.00000000000000000 0.00000000000000000 0.00000000000000000 2.00000000000000000
8 3.14159265358979312 4.71238898038468967
2 18.00000000000000355 18.00000000000000000 -0.00000000000000799 -0.00000000000000000 -0.00000000000000044 -1.00000000000000000 0.00000000000000000 -1.00000000000000000 0.00000000000000044 -1.00000000000000000 0.00000000000000000 0.00000000000000000 2.00000000000000000
1 -19.99999999999999645 -20.00000000000000000 0.00000000000000000 0.00000000000000000 1.00000000000000000 0.00000000000000000 
1 20.00000000000000355 20.00000000000000000 0.00000000000000000 0.00000000000000000 -1.00000000000000000 0.00000000000000000 
8 0.00000000000000000 1.57079632679489656
2 -17.99999999999999645 -18.00000000000000000 0.00000000000000799 -0.00000000000000000 -0.00000000000000044 -1.00000000000000000 0.00000000000000000 -1.00000000000000000 0.00000000000000044 -1.00000000000000000 0.00000000000000000 0.00000000000000000 2.00000000000000000
8 4.71238898038468967 6.28318530717958623
2 18.00000000000000355 -18.00000000000000000 0.00000000000000799 -0.00000000000000000 -0.00000000000000044 -1.00000000000000000 0.00000000000000000 -1.00000000000000000 0.00000000000000044 -1.00000000000000000 0.00000000000000000 0.00000000000000000 2.00000000000000000
1 20.00000000000000355 -20.00000000000000000 0.00000000000000000 -1.00000000000000000 0.00000000000000000 0.00000000000000000 
8 1.57079632679489656 3.14159265358979312
2 -17.41250000000000142 17.41250000000000142 -0.00000000000000773 -0.00000000000000000 -0.00000000000000044 -1.00000000000000000 0.00000000000000000 -1.00000000000000000 0.00000000000000044 -1.00000000000000000 0.00000000000000000 0.00000000000000000 1.00000000000000000
1 18.41250000000000142 -18.41250000000000142 0.00000000000000000 -1.00000000000000000 -0.00000000000000010 0.00000000000000000 
1 -18.41250000000000142 18.41250000000000142 0.00000000000000000 1.00000000000000000 0.00000000000000000 0.00000000000000000 
8 0.00000000000000000 1.57079632679489656
2 17.41250000000000142 -17.41250000000000142 0.00000000000000773 -0.00000000000000000 0.00000000000000044 1.00000000000000000 0.00000000000000000 -1.00000000000000000 0.00000000000000044 1.00000000000000000 0.00000000000000000 0.00000000000000000 1.00000000000000000
8 1.57079632679489656 3.14159265358979312
2 17.41250000000000142 17.41250000000000142 -0.00000000000000773 -0.00000000000000000 0.00000000000000044 1.00000000000000000 0.00000000000000000 -1.00000000000000000 0.00000000000000044 1.00000000000000000 0.00000000000000000 0.00000000000000000 1.00000000000000000
1 18.41250000000000142 18.41250000000000142 0.00000000000000000 0.00000000000000000 -1.00000000000000000 0.00000000000000000 
1 -19.99999999999999645 20.00000000000000000 0.00000000000000000 1.00000000000000000 0.00000000000000000 0.00000000000000000 
8 3.14159265358979312 4.71238898038468967
2 -17.99999999999999645 18.00000000000000000 -0.00000000000000799 -0.00000000000000000 0.00000000000000044 1.00000000000000000 0.00000000000000000 -1.00000000000000000 0.00000000000000044 1.00000000000000000 0.00000000000000000 0.00000000000000000 2.00000000000000000
8 3.14159265358979312 4.71238898038468967
2 18.00000000000000355 18.00000000000000000 -0.00000000000000799 -0.00000000000000000 -0.00000000000000044 -1.00000000000000000 0.00000000000000000 -1.00000000000000000 0.00000000000000044 -1.00000000000000000 0.00000000000000000 0.00000000000000000 2.00000000000000000
1 -19.99999999999999645 -20.00000000000000000 0.00000000000000000 0.00000000000000000 1.00000000000000000 0.00000000000000000 
1 20.00000000000000355 20.00000000000000000 0.00000000000000000 0.00000000000000000 -1.00000000000000000 0.00000000000000000 
8 0.00000000000000000 1.57079632679489656
2 -17.99999999999999645 -18.00000000000000000 0.00000000000000799 -0.00000000000000000 -0.00000000000000044 -1.00000000000000000 0.00000000000000000 -1.00000000000000000 0.00000000000000044 -1.00000000000000000 0.00000000000000000 0.00000000000000000 2.00000000000000000
8 4.71238898038468967 6.28318530717958623
2 18.00000000000000355 -18.00000000000000000 0.00000000000000799 -0.00000000000000000 -0.00000000000000044 -1.00000000000000000 0.00000000000000000 -1.00000000000000000 0.00000000000000044 -1.00000000000000000 0.00000000000000000 0.00000000000000000 2.00000000000000000
1 20.00000000000000355 -20.00000000000000000 0.00000000000000000 -1.00000000000000000 0.00000000000000000 0.00000000000000000 
1 -17.41250000000000142 -17.49999999999999289 18.41250000000000497 0.00000000000000000 1.00000000000000000 -0.00000000000000022 
1 67.18588021303287405 3.96874999999998490 0.00000000000001777 -1.00000000000000000 0.00000000000000022 -0.00000000000000028 
2 -20.00000000000000000 0.00000000000000444 -0.00000000000000071 1.00000000000000000 -0.00000000000000022 0.00000000000000022 0.00000000000000022 1.00000000000000000 -0.00000000000000022 -0.00000000000000022 0.00000000000000022 1.00000000000000000 3.96875000000000000
1 17.41250000000000142 -17.50000000000000711 -18.41249999999999787 0.00000000000000000 1.00000000000000000 -0.00000000000000022 
1 17.41250000000000142 -17.49999999999999289 18.41250000000000497 0.00000000000000000 1.00000000000000000 -0.00000000000000022 
1 18.41250000000000142 -17.50000000000000711 -17.41249999999999787 0.00000000000000000 1.00000000000000000 -0.00000000000000022 
1 18.41250000000000142 -17.49999999999999289 17.41250000000000497 0.00000000000000000 1.00000000000000000 -0.00000000000000022 
2 18.41250000000000142 -0.00000000000000409 0.00000000000000782 1.00000000000000000 -0.00000000000000022 0.00000000000000022 0.00000000000000022 1.00000000000000000 -0.00000000000000022 -0.00000000000000022 0.00000000000000022 1.00000000000000000 3.96875000000000000
1 -17.99999999999999645 -17.49999999999998934 20.00000000000000355 0.00000000000000000 1.00000000000000000 -0.00000000000000022 
1 18.00000000000000355 -17.49999999999998934 20.00000000000000355 0.00000000000000000 1.00000000000000000 -0.00000000000000022 
1 -19.99999999999999645 -17.49999999999999289 18.00000000000000355 0.00000000000000000 1.00000000000000000 -0.00000000000000022 
1 20.00000000000000355 -17.49999999999999289 18.00000000000000355 0.00000000000000000 1.00000000000000000 -0.00000000000000022 
1 -19.99999999999999645 -17.50000000000000711 -17.99999999999999645 0.00000000000000000 1.00000000000000000 -0.00000000000000022 
1 20.00000000000000355 -17.50000000000000711 -17.99999999999999645 0.00000000000000000 1.00000000000000000 -0.00000000000000022 
2 20.00000000000000000 -0.00000000000000444 0.00000000000000817 1.00000000000000000 -0.00000000000000022 0.00000000000000022 0.00000000000000022 1.00000000000000000 -0.00000000000000022 -0.00000000000000022 0.00000000000000022 1.00000000000000000 3.96875000000000000
1 -17.99999999999999645 -17.50000000000001066 -19.99999999999999645 0.00000000000000000 1.00000000000000000 -0.00000000000000022 
1 18.00000000000000355 -17.50000000000001066 -19.99999999999999645 0.00000000000000000 1.00000000000000000 -0.00000000000000022 
1 67.18588021303287405 3.96874999999998490 0.00000000000001777 -1.00000000000000000 0.00000000000000022 -0.00000000000000028 
Polygon3D 0
PolygonOnTriangulations 0
Surfaces 20
1 -18.41250000000000142 -17.50000000000000000 -17.41249999999999787 1.00000000000000000 0.00000000000000000 0.00000000000000000 0.00000000000000000 0.00000000000000000 1.00000000000000000 0.00000000000000000 -1.00000000000000000 0.00000000000000000 
2 -17.41250000000000142 -17.50000000000000711 -17.41249999999999787 0.00000000000000000 -1.00000000000000000 0.00000000000000044 0.00000000000000000 -0.00000000000000044 -1.00000000000000000 1.00000000000000000 0.00000000000000000 0.00000000000000000 1.00000000000000000
2 -17.41250000000000142 -17.49999999999999289 17.41250000000000497 0.00000000000000000 -1.00000000000000000 0.00000000000000044 0.00000000000000000 -0.00000000000000044 -1.00000000000000000 -1.00000000000000000 -0.00000000000000000 -0.00000000000000000 1.00000000000000000
2 67.18588021303287405 -0.00000000000001492 0.00000000000001865 1.00000000000000000 -0.00000000000000022 0.00000000000000022 0.00000000000000022 1.00000000000000000 -0.00000000000000022 -0.00000000000000022 0.00000000000000022 1.00000000000000000 3.96875000000000000
1 17.41250000000000142 -17.50000000000000000 -18.41249999999999787 -0.00000000000000010 0.00000000000000022 1.00000000000000000 -1.00000000000000000 0.00000000000000000 -0.00000000000000010 -0.00000000000000000 -1.00000000000000000 0.00000000000000022 
1 0.00000000000000213 0.00000000000000000 0.00000000000000000 0.00000000000000000 1.00000000000000000 -0.00000000000000022 0.00000000000000000 0.00000000000000022 1.00000000000000000 1.00000000000000000 -0.00000000000000000 0.00000000000000000 
2 17.41250000000000142 -17.50000000000000711 -17.41249999999999787 0.00000000000000000 -1.00000000000000000 0.00000000000000044 0.00000000000000000 -0.00000000000000044 -1.00000000000000000 1.00000000000000000 0.00000000000000000 0.00000000000000000 1.00000000000000000
2 17.41250000000000142 -17.49999999999999289 17.41250000000000497 0.00000000000000000 -1.00000000000000000 0.00000000000000044 0.00000000000000000 -0.00000000000000044 -1.00000000000000000 1.00000000000000000 0.00000000000000000 0.00000000000000000 1.00000000000000000
2 -17.99999999999999645 -17.49999999999999289 18.00000000000000355 0.00000000000000000 -1.00000000000000000 0.00000000000000044 0.00000000000000000 -0.00000000000000044 -1.00000000000000000 1.00000000000000000 0.00000000000000000 0.00000000000000000 2.00000000000000000
2 18.00000000000000355 -17.49999999999999289 18.00000000000000355 0.00000000000000000 -1.00000000000000000 0.00000000000000044 0.00000000000000000 -0.00000000000000044 -1.00000000000000000 -1.00000000000000000 -0.00000000000000000 -0.00000000000000000 2.00000000000000000
2 -17.99999999999999645 -17.50000000000000711 -17.99999999999999645 0.00000000000000000 -1.00000000000000000 0.00000000000000044 0.00000000000000000 -0.00000000000000044 -1.00000000000000000 -1.00000000000000000 -0.00000000000000000 -0.00000000000000000 2.00000000000000000
2 18.00000000000000355 -17.50000000000000711 -17.99999999999999645 0.00000000000000000 -1.00000000000000000 0.00000000000000044 0.00000000000000000 -0.00000000000000044 -1.00000000000000000 -1.00000000000000000 -0.00000000000000000 -0.00000000000000000 2.00000000000000000
1 0.00000000000000213 0.00000000000000000 0.00000000000000000 0.00000000000000000 1.00000000000000000 -0.00000000000000022 0.00000000000000000 0.00000000000000022 1.00000000000000000 1.00000000000000000 -0.00000000000000000 0.00000000000000000 
1 -17.41250000000000142 -17.50000000000000000 18.41250000000000497 0.00000000000000000 -0.00000000000000022 -1.00000000000000000 1.00000000000000000 0.00000000000000000 0.00000000000000000 0.00000000000000000 -1.00000000000000000 0.00000000000000022 
1 18.41250000000000142 -17.50000000000000000 17.41250000000000497 -1.00000000000000000 0.00000000000000000 0.00000000000000000 0.00000000000000000 0.00000000000000000 -1.00000000000000000 -0.00000000000000000 -1.00000000000000000 -0.00000000000000000 
2 67.18588021303287405 -0.00000000000001492 0.00000000000001865 1.00000000000000000 -0.00000000000000022 0.00000000000000022 0.00000000000000022 1.00000000000000000 -0.00000000000000022 -0.00000000000000022 0.00000000000000022 1.00000000000000000 3.96875000000000000
1 -17.99999999999999645 -17.50000000000000000 20.00000000000000355 0.00000000000000000 -0.00000000000000022 -1.00000000000000000 1.00000000000000000 0.00000000000000000 0.00000000000000000 0.00000000000000000 -1.00000000000000000 0.00000000000000022 
1 -19.99999999999999645 -17.50000000000000000 -17.99999999999999645 1.00000000000000000 0.00000000000000000 0.00000000000000000 0.00000000000000000 0.00000000000000000 1.00000000000000000 0.00000000000000000 -1.00000000000000000 0.00000000000000000 
1 20.00000000000000355 -17.50000000000000000 18.00000000000000355 -1.00000000000000000 0.00000000000000000 0.00000000000000000 0.00000000000000000 0.00000000000000000 -1.00000000000000000 -0.00000000000000000 -1.00000000000000000 -0.00000000000000000 
1 18.00000000000000355 -17.50000000000000000 -19.99999999999999645 0.00000000000000000 0.00000000000000022 1.00000000000000000 -1.00000000000000000 0.00000000000000000 0.00000000000000000 0.00000000000000000 -1.00000000000000000 0.00000000000000022 
Triangulations 0

TShapes 138
Ve
0.000000100000000
-18.412500000000001 -17.500000000000007 -17.412499999999998
0 0

0101101
*
Ve
0.000000100000000
-18.412500000000001 17.499999999999993 -17.412500000000005
0 0

0101101
*
Ed
 0.000000100000000 1 1 0
1  1 0 0.000000000000000 35.000000000000000
2  1 2 0 0.000000000000000 35.000000000000000
4 C1 1 0 2 0
0

0101000
+138 6 -137 6 *
Ve
0.000000100000000
-18.412500000000001 -17.499999999999993 17.412500000000005
0 0

0101101
*
Ed
 0.000000100000000 1 1 0
1  2 0 1.000000000000004 35.825000000000003
0

0101000
+138 23 -135 23 *
Ve
0.000000100000000
-18.412500000000001 17.500000000000007 17.412499999999998
0 0

0101101
*
Ed
 0.000000100000000 1 1 0
1  3 0 1.000000000000004 35.825000000000003
0

0101000
+137 26 -133 26 *
Ed
 0.000000100000000 1 1 0
1  4 0 0.000000000000000 35.000000000000000
2  2 3 0 0.000000000000000 35.000000000000000
4 C1 1 0 3 0
0

0101000
+135 6 -133 6 *
Wi

0101100
+136 4 -134 22 +132 25 -131 4 *
Ve
0.000000100000005
-18.412499999999994 3.968750000000004 -0.000000000000006
0 0

0101101
*
Ed
 0.000000100000000 1 1 0
1  5 0 0.000000000000000 6.283185307179586
2  3 4 0 0.000000000000000 6.283185307179586
0

0101000
+129 27 -129 27 *
Wi

0101100
-128 0 *
Fa
0  0.000000100000000 1 4

0101000
+130 0 +127 0 *
Ve
0.000000100000000
-17.412500000000001 -17.500000000000007 -18.412499999999998
0 0

0101101
*
Ve
0.000000100000000
-17.412500000000001 17.499999999999993 -18.412500000000005
0 0

0101101
*
Ed
 0.000000100000000 1 1 0
1  6 0 0.000000000000000 35.000000000000000
2  4 2 0 0.000000000000000 35.000000000000000
4 C1 2 0 5 0
0

0101000
+125 6 -124 6 *
Ed
 0.000000100000000 1 1 0
1  7 0 4.712388980384690 6.283185307179586
2  5 2 29 4.712388980384690 6.283185307179586
0

0101000
+138 30 -125 30 *
Ed
 0.000000100000000 1 1 0
1  8 0 4.712388980384690 6.283185307179586
2  6 2 32 4.712388980384690 6.283185307179586
0

0101000
+137 33 -124 33 *
Wi

0101100
+136 0 -123 0 -122 28 +121 31 *
Fa
0  0.000000100000000 2 0

0101000
+120 0 *
Ve
0.000000100000000
-17.412500000000001 -17.499999999999993 18.412500000000005
0 0

0101101
*
Ed
 0.000000100000000 1 1 0
1  9 0 1.570796326794897 3.141592653589793
2  7 3 29 1.570796326794897 3.141592653589793
0

0101000
+135 30 -118 30 *
Ve
0.000000100000000
17.412500000000001 -17.500000000000007 -18.412499999999998
0 0

0101101
*
Ed
 0.000000100000000 1 1 0
1  10 0 1.000000000000000 35.825000000000003
0

0101000
+116 23 -125 23 *
Ve
0.000000100000000
17.412500000000001 -17.499999999999993 18.412500000000005
0 0

0101101
*
Ed
 0.000000100000000 1 1 0
1  11 0 1.000000000000000 35.825000000000003
0

0101000
+118 23 -114 23 *
Ve
0.000000100000000
18.412500000000001 -17.500000000000007 -17.412499999999998
0 0

0101101
*
Ed
 0.000000100000000 1 1 0
1  12 0 0.000000000000000 1.570796326794897
2  8 7 29 0.000000000000000 1.570796326794897
0

0101000
+116 30 -112 30 *
Ve
0.000000100000000
18.412500000000001 -17.499999999999993 17.412500000000005
0 0

0101101
*
Ed
 0.000000100000000 1 1 0
1  13 0 1.570796326794897 3.141592653589793
2  9 8 29 1.570796326794897 3.141592653589793
0

0101000
+110 30 -114 30 *
Ed
 0.000000100000000 1 1 0
1  14 0 1.000000000000000 35.825000000000003
0

0101000
+110 23 -112 23 *
Wi

0101100
-134 36 +122 0 -117 0 -115 36 -113 36 +111 0 +109 0 -108 36 *
Ve
0.000000100000000
-17.999999999999996 -17.499999999999989 20.000000000000004
0 0

0101101
*
Ve
0.000000100000000
18.000000000000004 -17.499999999999989 20.000000000000004
0 0

0101101
*
Ed
 0.000000100000000 1 1 0
1  15 0 2.000000000000000 38.000000000000000
0

0101000
+106 23 -105 23 *
Ve
0.000000100000000
-19.999999999999996 -17.499999999999993 18.000000000000004
0 0

0101101
*
Ed
 0.000000100000000 1 1 0
1  16 0 3.141592653589793 4.712388980384690
2  10 9 39 3.141592653589793 4.712388980384690
0

0101000
+106 40 -103 40 *
Ve
0.000000100000000
20.000000000000004 -17.499999999999993 18.000000000000004
0 0

0101101
*
Ed
 0.000000100000000 1 1 0
1  17 0 3.141592653589793 4.712388980384690
2  11 10 39 3.141592653589793 4.712388980384690
0

0101000
+105 40 -101 40 *
Ve
0.000000100000000
-19.999999999999996 -17.500000000000007 -17.999999999999996
0 0

0101101
*
Ed
 0.000000100000000 1 1 0
1  18 0 2.000000000000000 38.000000000000000
0

0101000
+99 23 -103 23 *
Ve
0.000000100000000
20.000000000000004 -17.500000000000007 -17.999999999999996
0 0

0101101
*
Ed
 0.000000100000000 1 1 0
1  19 0 2.000000000000000 38.000000000000000
0

0101000
+101 23 -97 23 *
Ve
0.000000100000000
-17.999999999999996 -17.500000000000011 -19.999999999999996
0 0

0101101
*
Ed
 0.000000100000000 1 1 0
1  20 0 0.000000000000000 1.570796326794897
2  12 11 39 0.000000000000000 1.570796326794897
0

0101000
+95 40 -99 40 *
Ve
0.000000100000000
18.000000000000004 -17.500000000000011 -19.999999999999996
0 0

0101101
*
Ed
 0.000000100000000 1 1 0
1  21 0 4.712388980384690 6.283185307179586
2  13 12 39 4.712388980384690 6.283185307179586
0

0101000
+97 40 -93 40 *
Ed
 0.000000100000000 1 1 0
1  22 0 2.000000000000000 38.000000000000000
0

0101000
+93 23 -95 23 *
Wi

0101100
+104 38 -102 0 +100 0 +98 38 +96 38 +94 0 +92 0 +91 38 *
Fa
0  0.000000100000000 6 0

0101000
+107 35 +90 37 *
Ve
0.000000100000000
-17.412500000000001 17.500000000000007 18.412499999999998
0 0

0101101
*
Ed
 0.000000100000000 1 1 0
1  23 0 1.570796326794897 3.141592653589793
2  14 3 32 1.570796326794897 3.141592653589793
0

0101000
+133 33 -88 33 *
Ve
0.000000100000000
17.412500000000001 17.499999999999993 -18.412500000000005
0 0

0101101
*
Ed
 0.000000100000000 1 1 0
1  24 0 1.000000000000000 35.825000000000003
0

0101000
+86 26 -124 26 *
Ve
0.000000100000000
17.412500000000001 17.500000000000007 18.412499999999998
0 0

0101101
*
Ed
 0.000000100000000 1 1 0
1  25 0 1.000000000000000 35.825000000000003
0

0101000
+88 26 -84 26 *
Ve
0.000000100000000
18.412500000000001 17.499999999999993 -17.412500000000005
0 0

0101101
*
Ed
 0.000000100000000 1 1 0
1  26 0 0.000000000000000 1.570796326794897
2  15 7 32 0.000000000000000 1.570796326794897
0

0101000
+86 33 -82 33 *
Ve
0.000000100000000
18.412500000000001 17.500000000000007 17.412499999999998
0 0

0101101
*
Ed
 0.000000100000000 1 1 0
1  27 0 1.570796326794897 3.141592653589793
2  16 8 32 1.570796326794897 3.141592653589793
0

0101000
+80 33 -84 33 *
Ed
 0.000000100000000 1 1 0
1  28 0 1.000000000000000 35.825000000000003
0

0101000
+80 26 -82 26 *
Wi

0101100
-132 36 +121 0 -87 0 -85 36 -83 36 +81 0 +79 0 -78 36 *
Ve
0.000000100000000
-17.999999999999996 17.500000000000011 19.999999999999996
0 0

0101101
*
Ve
0.000000100000000
18.000000000000004 17.500000000000011 19.999999999999996
0 0

0101101
*
Ed
 0.000000100000000 1 1 0
1  29 0 2.000000000000000 38.000000000000000
0

0101000
+76 26 -75 26 *
Ve
0.000000100000000
-19.999999999999996 17.500000000000007 17.999999999999996
0 0

0101101
*
Ed
 0.000000100000000 1 1 0
1  30 0 3.141592653589793 4.712388980384690
2  17 9 42 3.141592653589793 4.712388980384690
0

0101000
+76 43 -73 43 *
Ve
0.000000100000000
20.000000000000004 17.500000000000007 17.999999999999996
0 0

0101101
*
Ed
 0.000000100000000 1 1 0
1  31 0 3.141592653589793 4.712388980384690
2  18 10 42 3.141592653589793 4.712388980384690
0

0101000
+75 43 -71 43 *
Ve
0.000000100000000
-19.999999999999996 17.499999999999993 -18.000000000000004
0 0

0101101
*
Ed
 0.000000100000000 1 1 0
1  32 0 2.000000000000000 38.000000000000000
0

0101000
+69 26 -73 26 *
Ve
0.000000100000000
20.000000000000004 17.499999999999993 -18.000000000000004
0 0

0101101
*
Ed
 0.000000100000000 1 1 0
1  33 0 2.000000000000000 38.000000000000000
0

0101000
+71 26 -67 26 *
Ve
0.000000100000000
-17.999999999999996 17.499999999999989 -20.000000000000004
0 0

0101101
*
Ed
 0.000000100000000 1 1 0
1  34 0 0.000000000000000 1.570796326794897
2  19 11 42 0.000000000000000 1.570796326794897
0

0101000
+65 43 -69 43 *
Ve
0.000000100000000
18.000000000000004 17.499999999999989 -20.000000000000004
0 0

0101101
*
Ed
 0.000000100000000 1 1 0
1  35 0 4.712388980384690 6.283185307179586
2  20 12 42 4.712388980384690 6.283185307179586
0

0101000
+67 43 -63 43 *
Ed
 0.000000100000000 1 1 0
1  36 0 2.000000000000000 38.000000000000000
0

0101000
+63 26 -65 26 *
Wi

0101100
+74 38 -72 0 +70 0 +68 38 +66 38 +64 0 +62 0 +61 38 *
Fa
0  0.000000100000000 13 0

0101000
+77 35 +60 37 *
Ed
 0.000000100000000 1 1 0
1  37 0 0.000000000000000 35.000000000000000
2  21 3 0 0.000000000000000 35.000000000000000
4 C1 3 0 14 0
0

0101000
+118 6 -88 6 *
Wi

0101100
+131 0 -58 0 -117 28 +87 31 *
Fa
0  0.000000100000000 3 0

0101000
+57 0 *
Ve
0.000000100000005
-20.000000000000000 3.968750000000004 -0.000000000000006
0 0

0101101
*
Ed
 0.000000100000000 1 1 0
1  38 0 85.598380213032868 87.185880213032874
3  22 23CN 4 0 85.598380213032868 87.185880213032874
0

0101000
+129 27 -55 27 *
Ed
 0.000000100000000 1 1 0
1  39 0 0.000000000000000 6.283185307179586
2  24 4 0 0.000000000000000 6.283185307179586
0

0101000
+55 27 -55 27 *
Wi

0101100
-128 0 -54 0 +53 0 +54 0 *
Fa
0  0.000000100000000 4 0

0101000
+52 0 *
Ed
 0.000000100000000 1 1 0
1  40 0 0.000000000000000 35.000000000000000
2  25 7 0 0.000000000000000 35.000000000000000
4 C1 5 0 7 0
0

0101000
+116 6 -86 6 *
Wi

0101100
+50 0 -123 0 -115 44 +85 45 *
Fa
0  0.000000100000000 5 0

0101000
+49 0 *
Ed
 0.000000100000000 1 1 0
1  41 0 0.000000000000000 35.000000000000000
2  26 8 0 0.000000000000000 35.000000000000000
4 C1 14 0 8 0
0

0101000
+114 6 -84 6 *
Wi

0101100
+58 0 -47 0 -113 44 +83 45 *
Fa
0  0.000000100000000 14 0

0101000
+46 0 *
Ed
 0.000000100000000 1 1 0
1  42 0 0.000000000000000 35.000000000000000
2  27 7 0 0.000000000000000 35.000000000000000
4 C1 7 0 15 0
0

0101000
+112 6 -82 6 *
Wi

0101100
+50 0 -44 0 -111 28 +81 31 *
Fa
0  0.000000100000000 7 0

0101000
+43 0 *
Ed
 0.000000100000000 1 1 0
1  43 0 0.000000000000000 35.000000000000000
2  28 8 0 0.000000000000000 35.000000000000000
4 C1 8 0 15 0
0

0101000
+110 6 -80 6 *
Wi

0101100
+41 0 -47 0 -109 28 +79 31 *
Fa
0  0.000000100000000 8 0

0101000
+40 0 *
Wi

0101100
+41 4 -108 22 +78 25 -44 4 *
Ve
0.000000100000003
18.412500000000001 3.968749999999996 0.000000000000004
0 0

0101101
*
Ed
 0.000000100000000 1 1 0
1  44 0 0.000000000000000 6.283185307179586
2  29 16 0 0.000000000000000 6.283185307179586
0

0101000
+37 27 -37 27 *
Wi

0101100
+36 0 *
Fa
0  0.000000100000000 15 4

0101000
+38 0 +35 0 *
Ed
 0.000000100000000 1 1 0
1  45 0 0.000000000000000 35.000000000000000
2  30 9 0 0.000000000000000 35.000000000000000
4 G1 17 0 9 0
0

0101000
+106 6 -76 6 *
Ed
 0.000000100000000 1 1 0
1  46 0 0.000000000000000 35.000000000000000
2  31 10 0 0.000000000000000 35.000000000000000
4 G1 17 0 10 0
0

0101000
+105 6 -75 6 *
Wi

0101100
+33 0 -32 0 -104 44 +74 45 *
Fa
0  0.000000100000000 17 0

0101000
+31 0 *
Ed
 0.000000100000000 1 1 0
1  47 0 0.000000000000000 35.000000000000000
2  32 9 0 0.000000000000000 35.000000000000000
4 G1 9 0 18 0
0

0101000
+103 6 -73 6 *
Wi

0101100
+33 0 -29 0 -102 46 +72 47 *
Fa
0  0.000000100000000 9 0

0101000
+28 0 *
Ed
 0.000000100000000 1 1 0
1  48 0 0.000000000000000 35.000000000000000
2  33 10 0 0.000000000000000 35.000000000000000
4 G1 10 0 19 0
0

0101000
+101 6 -71 6 *
Wi

0101100
+32 0 -26 0 -100 46 +70 47 *
Fa
0  0.000000100000000 10 0

0101000
+25 0 *
Ed
 0.000000100000000 1 1 0
1  49 0 0.000000000000000 35.000000000000000
2  34 11 0 0.000000000000000 35.000000000000000
4 G1 18 0 11 0
0

0101000
+99 6 -69 6 *
Wi

0101100
+23 4 -98 22 +68 25 -29 4 *
Wi

0101100
-53 0 *
Fa
0  0.000000100000000 18 4

0101000
+22 0 +21 0 *
Ed
 0.000000100000000 1 1 0
1  50 0 0.000000000000000 35.000000000000000
2  35 12 0 0.000000000000000 35.000000000000000
4 G1 19 0 12 0
0

0101000
+97 6 -67 6 *
Wi

0101100
+26 4 -96 22 +66 25 -19 4 *
Ve
0.000000100000003
20.000000000000000 3.968749999999996 0.000000000000005
0 0

0101101
*
Ed
 0.000000100000000 1 1 0
1  51 0 0.000000000000000 6.283185307179586
2  36 16 0 0.000000000000000 6.283185307179586
0

0101000
+17 27 -17 27 *
Wi

0101100
+16 0 *
Fa
0  0.000000100000000 19 4

0101000
+18 0 +15 0 *
Ed
 0.000000100000000 1 1 0
1  52 0 0.000000000000000 35.000000000000000
2  37 11 0 0.000000000000000 35.000000000000000
4 G1 11 0 20 0
0

0101000
+95 6 -65 6 *
Wi

0101100
+13 0 -23 0 -94 46 +64 47 *
Fa
0  0.000000100000000 11 0

0101000
+12 0 *
Ed
 0.000000100000000 1 1 0
1  53 0 0.000000000000000 35.000000000000000
2  38 12 0 0.000000000000000 35.000000000000000
4 G1 12 0 20 0
0

0101000
+93 6 -63 6 *
Wi

0101100
+19 0 -10 0 -92 46 +62 47 *
Fa
0  0.000000100000000 12 0

0101000
+9 0 *
Wi

0101100
+10 0 -13 0 -91 44 +61 45 *
Fa
0  0.000000100000000 20 0

0101000
+7 0 *
Ed
 0.000000100000000 1 1 0
1  54 0 47.185880213032874 48.773380213032873
3  22 23CN 16 0 47.185880213032874 48.773380213032873
0

0101000
+17 27 -37 27 *
Wi

0101100
-16 0 -5 0 +36 0 +5 0 *
Fa
0  0.000000100000000 16 0

0101000
+4 0 *
Sh

0101100
+126 0 -119 4 -89 34 +59 41 +56 4 -51 0 +48 4 +45 4 -42 4 -39 4 
+34 0 -30 4 +27 4 -24 4 -20 0 -14 0 -11 4 -8 4 -6 4 -3 0 
*
So

1100000
+2 0 *

+1 1 