
CASCADE Topology V1, (c) Matra-Datavision
Locations 54
1
1.000000000000000 0.000000000000000 0.000000000000000 0.000000000000000 
0.000000000000000 1.000000000000000 0.000000000000000 0.000000000000000 
0.000000000000000 0.000000000000000 1.000000000000000 0.000000000000000 
1
1.000000000000000 0.000000000000000 0.000000000000000 0.000000000000000 
0.000000000000000 1.000000000000000 0.000000000000000 0.000000000000000 
0.000000000000000 0.000000000000000 1.000000000000000 0.000000000000000 
1
1.000000000000000 0.000000000000000 0.000000000000000 0.000000000000000 
0.000000000000000 1.000000000000000 0.000000000000000 0.000000000000000 
0.000000000000000 0.000000000000000 1.000000000000000 0.000000000000000 
1
1.000000000000000 0.000000000000000 0.000000000000000 0.000000000000000 
0.000000000000000 1.000000000000000 0.000000000000000 0.000000000000000 
0.000000000000000 0.000000000000000 1.000000000000000 0.000000000000000 
1
1.000000000000000 0.000000000000000 0.000000000000000 0.000000000000000 
0.000000000000000 1.000000000000000 0.000000000000000 0.000000000000000 
0.000000000000000 0.000000000000000 1.000000000000000 0.000000000000000 
2  2 1 3 -1 4 1 5 -1 0
1
1.000000000000000 0.000000000000000 0.000000000000000 0.000000000000000 
0.000000000000000 1.000000000000000 0.000000000000000 0.000000000000000 
0.000000000000000 0.000000000000000 1.000000000000000 0.000000000000000 
2  7 -1 0
1
1.000000000000000 0.000000000000000 0.000000000000000 0.000000000000000 
0.000000000000000 1.000000000000000 0.000000000000000 0.000000000000000 
0.000000000000000 0.000000000000000 1.000000000000000 0.000000000000000 
1
1.000000000000000 0.000000000000000 0.000000000000000 0.000000000000000 
0.000000000000000 0.000000000000000 -1.000000000000000 0.000000000000000 
0.000000000000000 1.000000000000000 0.000000000000000 0.000000000000000 
1
1.000000000000000 0.000000000000000 0.000000000000000 0.000000000000000 
0.000000000000000 -0.000000000000000 -1.000000000000000 0.000000000000000 
0.000000000000000 1.000000000000000 -0.000000000000000 0.000000000000000 
1
1.000000000000000 0.000000000000000 0.000000000000000 0.000000000000000 
0.000000000000000 1.000000000000000 0.000000000000000 0.000000000000000 
0.000000000000000 0.000000000000000 1.000000000000000 0.000000000000000 
1
1.000000000000000 0.000000000000000 0.000000000000000 0.000000000000000 
0.000000000000000 1.000000000000000 0.000000000000000 0.000000000000000 
0.000000000000000 0.000000000000000 1.000000000000000 0.000000000000000 
1
1.000000000000000 0.000000000000000 0.000000000000000 0.000000000000000 
0.000000000000000 1.000000000000000 0.000000000000000 0.000000000000000 
0.000000000000000 0.000000000000000 1.000000000000000 0.000000000000000 
1
1.000000000000000 0.000000000000000 0.000000000000000 0.000000000000000 
0.000000000000000 0.000000000000000 -1.000000000000000 0.000000000000000 
0.000000000000000 1.000000000000000 0.000000000000000 0.000000000000000 
1
1.000000000000000 0.000000000000000 0.000000000000000 0.000000000000000 
0.000000000000000 1.000000000000000 0.000000000000000 0.000000000000000 
0.000000000000000 0.000000000000000 1.000000000000000 0.000000000000000 
1
1.000000000000000 0.000000000000000 0.000000000000000 0.000000000000000 
0.000000000000000 1.000000000000000 0.000000000000000 0.000000000000000 
0.000000000000000 0.000000000000000 1.000000000000000 0.000000000000000 
1
1.000000000000000 0.000000000000000 0.000000000000000 0.000000000000000 
0.000000000000000 1.000000000000000 0.000000000000000 0.000000000000000 
0.000000000000000 0.000000000000000 1.000000000000000 0.000000000000000 
1
1.000000000000000 0.000000000000000 0.000000000000000 0.000000000000000 
0.000000000000000 1.000000000000000 0.000000000000000 0.000000000000000 
0.000000000000000 0.000000000000000 1.000000000000000 0.000000000000000 
1
1.000000000000000 0.000000000000000 0.000000000000000 0.000000000000000 
0.000000000000000 1.000000000000000 0.000000000000000 0.000000000000000 
0.000000000000000 0.000000000000000 1.000000000000000 0.000000000000000 
1
1.000000000000000 0.000000000000000 0.000000000000000 0.000000000000000 
0.000000000000000 1.000000000000000 0.000000000000000 0.000000000000000 
0.000000000000000 0.000000000000000 1.000000000000000 0.000000000000000 
1
1.000000000000000 0.000000000000000 0.000000000000000 0.000000000000000 
0.000000000000000 1.000000000000000 0.000000000000000 0.000000000000000 
0.000000000000000 0.000000000000000 1.000000000000000 0.000000000000000 
1
1.000000000000000 0.000000000000000 0.000000000000000 -0.000000000000000 
0.000000000000000 1.000000000000000 0.000000000000000 -17.500000000000000 
0.000000000000000 0.000000000000000 1.000000000000000 0.000000000000004 
2  9 1 10 1 11 -1 12 1 13 1 14 1 15 1 16 1 17 1 18 1 19 1 20 1 21 1 22 -1 23 1 0
2  23 -1 22 1 21 -1 20 -1 19 -1 18 -1 17 -1 16 -1 15 -1 14 -1 13 -1 12 -1 11 1 10 -1 9 -1 0
2  7 -1 23 -1 22 1 21 -1 20 -1 19 -1 18 -1 17 -1 16 -1 15 -1 14 -1 13 -1 12 -1 11 1 10 -1 9 -1 0
1
1.000000000000000 0.000000000000000 0.000000000000000 0.000000000000000 
0.000000000000000 1.000000000000000 0.000000000000000 35.000000000000000 
0.000000000000000 0.000000000000000 1.000000000000000 -0.000000000000008 
2  9 1 10 1 11 -1 12 1 13 1 14 1 15 1 16 1 17 1 18 1 19 1 20 1 21 1 22 -1 23 1 27 1 0
2  27 -1 23 -1 22 1 21 -1 20 -1 19 -1 18 -1 17 -1 16 -1 15 -1 14 -1 13 -1 12 -1 11 1 10 -1 9 -1 0
2  7 -1 27 -1 23 -1 22 1 21 -1 20 -1 19 -1 18 -1 17 -1 16 -1 15 -1 14 -1 13 -1 12 -1 11 1 10 -1 9 -1 0
2  14 1 15 1 16 1 17 1 18 1 19 1 20 1 21 1 22 -1 23 1 0
2  23 -1 22 1 21 -1 20 -1 19 -1 18 -1 17 -1 16 -1 15 -1 14 -1 0
2  7 -1 23 -1 22 1 21 -1 20 -1 19 -1 18 -1 17 -1 16 -1 15 -1 14 -1 0
2  14 1 15 1 16 1 17 1 18 1 19 1 20 1 21 1 22 -1 23 1 27 1 0
2  27 -1 23 -1 22 1 21 -1 20 -1 19 -1 18 -1 17 -1 16 -1 15 -1 14 -1 0
2  7 -1 27 -1 23 -1 22 1 21 -1 20 -1 19 -1 18 -1 17 -1 16 -1 15 -1 14 -1 0
2  11 -1 12 1 13 1 14 1 15 1 16 1 17 1 18 1 19 1 20 1 21 1 22 -1 23 1 2 1 3 -1 4 1 5 -1 0
2  13 -1 12 -1 11 1 0
2  9 1 10 1 11 -1 12 1 13 1 0
2  12 -1 11 1 0
2  9 1 10 1 11 -1 12 1 0
2  23 -1 22 1 21 -1 20 -1 19 -1 18 -1 17 -1 16 -1 15 -1 14 -1 13 -1 0
2  7 -1 23 -1 22 1 21 -1 20 -1 19 -1 18 -1 17 -1 16 -1 15 -1 14 -1 13 -1 0
2  11 -1 12 1 13 1 14 1 15 1 16 1 17 1 18 1 19 1 20 1 21 1 22 -1 23 1 27 1 2 1 3 -1 4 1 5 -1 0
2  27 -1 23 -1 22 1 21 -1 20 -1 19 -1 18 -1 17 -1 16 -1 15 -1 14 -1 13 -1 0
2  7 -1 27 -1 23 -1 22 1 21 -1 20 -1 19 -1 18 -1 17 -1 16 -1 15 -1 14 -1 13 -1 0
2  4 1 5 -1 0
2  2 1 3 -1 0
2  9 1 10 1 11 -1 12 1 13 1 14 1 15 1 16 1 17 1 18 1 19 1 20 1 21 1 22 -1 23 1 2 1 3 -1 0
2  9 1 10 1 11 -1 12 1 13 1 14 1 15 1 16 1 17 1 18 1 19 1 20 1 21 1 22 -1 23 1 27 1 2 1 3 -1 0
2  9 1 10 1 11 -1 12 1 13 1 14 1 15 1 16 1 17 1 18 1 19 1 20 1 21 1 22 -1 23 1 2 1 3 -1 4 1 5 -1 0
2  9 1 10 1 11 -1 12 1 13 1 14 1 15 1 16 1 17 1 18 1 19 1 20 1 21 1 22 -1 23 1 27 1 2 1 3 -1 4 1 5 -1 0
2  13 1 14 1 15 1 16 1 17 1 18 1 19 1 20 1 21 1 22 -1 23 1 0
2  13 1 14 1 15 1 16 1 17 1 18 1 19 1 20 1 21 1 22 -1 23 1 27 1 0
Curve2ds 82
1 4.71238898038468967 0.00000000000000000 0.00000000000000000 -1.00000000000000000 
1 0.00000000000000000 0.00000000000000711 -0.00000000000000022 -1.00000000000000000 
1 1.57079632679489700 0.00000000000000000 0.00000000000000000 -1.00000000000000000 
1 34.82500000000000284 -0.00000000000000711 -0.00000000000000022 -1.00000000000000000 
1 -1.00000000000000355 0.00000000000000000 1.00000000000000000 0.00000000000000000 
1 -1.00000000000001066 -35.00000000000000000 1.00000000000000000 0.00000000000000000 
1 6.28318530717958623 0.00000000000000000 0.00000000000000000 -1.00000000000000000 
1 34.82500000000000284 0.00000000000000711 0.00000000000000000 -1.00000000000000000 
1 0.00000000000000000 0.00000000000000000 1.00000000000000000 0.00000000000000000 
1 0.00000000000000000 -35.00000000000000000 1.00000000000000000 0.00000000000000000 
1 3.14159265358979312 0.00000000000000000 0.00000000000000000 -1.00000000000000000 
1 0.00000000000000000 -0.00000000000000711 0.00000000000000000 -1.00000000000000000 
1 0.00000000000000000 0.00000000000000000 1.00000000000000000 0.00000000000000000 
1 0.00000000000000000 -35.00000000000000000 1.00000000000000000 0.00000000000000000 
1 -1.00000000000000000 -0.00000000000000000 1.00000000000000000 0.00000000000000000 
1 -1.00000000000000000 0.00000000000000000 1.00000000000000000 0.00000000000000000 
1 0.00000000000000000 0.00000000000000000 1.00000000000000000 0.00000000000000000 
1 0.00000000000000000 0.00000000000000000 1.00000000000000000 0.00000000000000000 
1 -1.00000000000000000 -0.00000000000000000 1.00000000000000000 0.00000000000000000 
1 -2.00000000000000000 0.00000000000000000 1.00000000000000000 0.00000000000000000 
1 0.00000000000000000 0.00000000000000000 1.00000000000000000 0.00000000000000000 
1 0.00000000000000000 0.00000000000000000 1.00000000000000000 0.00000000000000000 
1 -2.00000000000000000 0.00000000000000000 1.00000000000000000 0.00000000000000000 
1 -2.00000000000000000 -0.00000000000000000 1.00000000000000000 0.00000000000000000 
1 0.00000000000000000 0.00000000000000000 1.00000000000000000 0.00000000000000000 
1 0.00000000000000000 0.00000000000000000 1.00000000000000000 0.00000000000000000 
1 -2.00000000000000000 0.00000000000000000 1.00000000000000000 0.00000000000000000 
1 -1.00000000000000000 -35.00000000000000000 1.00000000000000000 0.00000000000000000 
1 -1.00000000000000000 -35.00000000000000000 1.00000000000000000 0.00000000000000000 
1 0.00000000000000000 -35.00000000000000000 1.00000000000000000 0.00000000000000000 
1 0.00000000000000000 -35.00000000000000000 1.00000000000000000 0.00000000000000000 
1 -0.99999999999999289 -35.00000000000000000 1.00000000000000000 0.00000000000000000 
1 -2.00000000000000000 -35.00000000000000000 1.00000000000000000 0.00000000000000000 
1 0.00000000000000000 -35.00000000000000000 1.00000000000000000 0.00000000000000000 
1 0.00000000000000000 -35.00000000000000000 1.00000000000000000 0.00000000000000000 
1 -2.00000000000000711 -35.00000000000000000 1.00000000000000000 0.00000000000000000 
1 -1.99999999999999289 -35.00000000000000000 1.00000000000000000 0.00000000000000000 
1 0.00000000000000000 -35.00000000000000000 1.00000000000000000 0.00000000000000000 
1 0.00000000000000000 -35.00000000000000000 1.00000000000000000 0.00000000000000000 
1 -2.00000000000000000 -35.00000000000000000 1.00000000000000000 0.00000000000000000 
1 0.00000000000000000 0.00000000000000000 0.00000000000000000 -1.00000000000000000 
1 -0.00000000000000000 0.00000000000000711 0.00000000000000000 -1.00000000000000000 
2 17.41250000000000142 -16.81501400000000146 -1.00000000000000000 -0.00000000000000000 0.00000000000000000 -1.00000000000000000 3.96875000000000000
1 0.00000000000000000 -18.41250000000000497 1.00000000000000000 0.00000000000000000 
1 3.14159265358979312 0.00000000000000000 0.00000000000000000 -1.00000000000000000 
1 34.82500000000000284 -0.00000000000000711 0.00000000000000000 -1.00000000000000000 
2 17.41250000000000142 -22.50000000000000000 1.00000000000000000 0.00000000000000000 -0.00000000000000000 1.00000000000000000 3.00000000000000000
1 6.28318530717958623 -18.41250000000000142 -1.00000000000000000 0.00000000000000000 
2 17.41250000000000142 -6.50000000000000000 1.00000000000000000 0.00000000000000000 -0.00000000000000000 1.00000000000000000 3.00000000000000000
1 6.28318530717958623 -18.41250000000000497 -1.00000000000000000 0.00000000000000000 
1 1.57079632679489700 0.00000000000000000 0.00000000000000000 -1.00000000000000000 
1 34.82500000000000284 0.00000000000000711 0.00000000000000022 -1.00000000000000000 
1 1.57079632679489700 0.00000000000000000 0.00000000000000000 -1.00000000000000000 
1 0.00000000000000000 -0.00000000000000711 0.00000000000000022 -1.00000000000000000 
1 3.14159265358979312 0.00000000000000000 0.00000000000000000 -1.00000000000000000 
1 0.00000000000000000 -0.00000000000001066 0.00000000000000000 -1.00000000000000000 
1 3.14159265358979312 0.00000000000000000 0.00000000000000000 -1.00000000000000000 
1 36.00000000000000000 -0.00000000000001066 0.00000000000000000 -1.00000000000000000 
2 17.99999999999999645 -22.50000000000000000 1.00000000000000000 0.00000000000000000 -0.00000000000000000 1.00000000000000000 3.00000000000000000
1 6.28318530717958623 -20.00000000000000000 -1.00000000000000000 0.00000000000000000 
2 17.99999999999999645 -6.50000000000000000 1.00000000000000000 0.00000000000000000 -0.00000000000000000 1.00000000000000000 3.00000000000000000
1 6.28318530717958623 -20.00000000000000355 -1.00000000000000000 0.00000000000000000 
1 4.71238898038468967 0.00000000000000000 0.00000000000000000 -1.00000000000000000 
1 36.00000000000000000 -0.00000000000000711 -0.00000000000000022 -1.00000000000000000 
1 4.71238898038468967 0.00000000000000000 0.00000000000000000 -1.00000000000000000 
1 0.00000000000000000 -0.00000000000000711 0.00000000000000022 -1.00000000000000000 
1 1.57079632679489700 0.00000000000000000 0.00000000000000000 -1.00000000000000000 
1 0.00000000000000000 0.00000000000000711 -0.00000000000000022 -1.00000000000000000 
1 4.71238898038468967 0.00000000000000000 0.00000000000000000 -1.00000000000000000 
1 36.00000000000000000 0.00000000000000711 0.00000000000000022 -1.00000000000000000 
1 0.00000000000000000 0.00000000000000000 0.00000000000000000 -1.00000000000000000 
1 36.00000000000000000 0.00000000000001066 0.00000000000000000 -1.00000000000000000 
1 6.28318530717958623 0.00000000000000000 0.00000000000000000 -1.00000000000000000 
1 0.00000000000000000 0.00000000000001066 0.00000000000000000 -1.00000000000000000 
2 18.00000000000000355 -16.81501400000000146 -1.00000000000000000 0.00000000000000000 -0.00000000000000000 -1.00000000000000000 3.96875000000000000
1 0.00000000000000000 -20.00000000000000000 1.00000000000000000 0.00000000000000000 
1 0.00000000000000000 0.00000000000000000 0.00000000000000000 -1.00000000000000000 
1 6.28318530717958623 0.00000000000000000 0.00000000000000000 -1.00000000000000000 
1 0.00000000000000000 0.00000000000000000 0.00000000000000000 -1.00000000000000000 
1 6.28318530717958623 0.00000000000000000 0.00000000000000000 -1.00000000000000000 
1 0.00000000000000000 0.00000000000000000 0.00000000000000000 -1.00000000000000000 
1 6.28318530717958623 0.00000000000000000 0.00000000000000000 -1.00000000000000000 
Curves 57
1 -18.41250000000000142 -17.50000000000000711 -17.41249999999999787 0.00000000000000000 1.00000000000000000 -0.00000000000000022 
1 -18.41250000000000142 -17.49999999999999289 17.41250000000000497 0.00000000000000000 1.00000000000000000 -0.00000000000000022 
1 -18.41250000000000142 -18.41250000000000497 0.00000000000000000 0.00000000000000000 1.00000000000000000 0.00000000000000000 
1 -18.41250000000000142 -18.41250000000000497 0.00000000000000000 0.00000000000000000 1.00000000000000000 0.00000000000000000 
1 -17.41250000000000142 -17.50000000000000711 -18.41249999999999787 0.00000000000000000 1.00000000000000000 -0.00000000000000022 
8 4.71238898038468967 6.28318530717958623
2 -17.41250000000000142 -17.41250000000000142 0.00000000000000773 -0.00000000000000000 0.00000000000000044 1.00000000000000000 0.00000000000000000 -1.00000000000000000 0.00000000000000044 1.00000000000000000 0.00000000000000000 0.00000000000000000 1.00000000000000000
8 4.71238898038468967 6.28318530717958623
2 -17.41250000000000142 -17.41250000000000142 0.00000000000000773 -0.00000000000000000 0.00000000000000044 1.00000000000000000 0.00000000000000000 -1.00000000000000000 0.00000000000000044 1.00000000000000000 0.00000000000000000 0.00000000000000000 1.00000000000000000
1 -17.41250000000000142 -17.49999999999999289 18.41250000000000497 0.00000000000000000 1.00000000000000000 -0.00000000000000022 
8 1.57079632679489656 3.14159265358979312
2 -17.41250000000000142 17.41250000000000142 -0.00000000000000773 -0.00000000000000000 -0.00000000000000044 -1.00000000000000000 0.00000000000000000 -1.00000000000000000 0.00000000000000044 -1.00000000000000000 0.00000000000000000 0.00000000000000000 1.00000000000000000
8 1.57079632679489656 3.14159265358979312
2 -17.41250000000000142 17.41250000000000142 -0.00000000000000773 -0.00000000000000000 -0.00000000000000044 -1.00000000000000000 0.00000000000000000 -1.00000000000000000 0.00000000000000044 -1.00000000000000000 0.00000000000000000 0.00000000000000000 1.00000000000000000
1 18.41250000000000142 -18.41250000000000142 0.00000000000000000 -1.00000000000000000 -0.00000000000000010 0.00000000000000000 
1 -18.41250000000000142 18.41250000000000142 0.00000000000000000 1.00000000000000000 0.00000000000000000 0.00000000000000000 
8 0.00000000000000000 1.57079632679489656
2 17.41250000000000142 -17.41250000000000142 0.00000000000000773 -0.00000000000000000 0.00000000000000044 1.00000000000000000 0.00000000000000000 -1.00000000000000000 0.00000000000000044 1.00000000000000000 0.00000000000000000 0.00000000000000000 1.00000000000000000
8 1.57079632679489656 3.14159265358979312
2 17.41250000000000142 17.41250000000000142 -0.00000000000000773 -0.00000000000000000 0.00000000000000044 1.00000000000000000 0.00000000000000000 -1.00000000000000000 0.00000000000000044 1.00000000000000000 0.00000000000000000 0.00000000000000000 1.00000000000000000
1 18.41250000000000142 18.41250000000000142 0.00000000000000000 0.00000000000000000 -1.00000000000000000 0.00000000000000000 
1 -19.99999999999999645 20.00000000000000000 0.00000000000000000 1.00000000000000000 0.00000000000000000 0.00000000000000000 
8 3.14159265358979312 4.71238898038468967
2 -17.99999999999999645 18.00000000000000000 -0.00000000000000799 -0.00000000000000000 0.00000000000000044 1.00000000000000000 0.00000000000000000 -1.00000000000000000 0.00000000000000044 1.00000000000000000 0.00000000000000000 0.00000000000000000 2.00000000000000000
8 3.14159265358979312 4.71238898038468967
2 18.00000000000000355 18.00000000000000000 -0.00000000000000799 -0.00000000000000000 -0.00000000000000044 -1.00000000000000000 0.00000000000000000 -1.00000000000000000 0.00000000000000044 -1.00000000000000000 0.00000000000000000 0.00000000000000000 2.00000000000000000
1 -19.99999999999999645 -20.00000000000000000 0.00000000000000000 0.00000000000000000 1.00000000000000000 0.00000000000000000 
1 20.00000000000000355 20.00000000000000000 0.00000000000000000 0.00000000000000000 -1.00000000000000000 0.00000000000000000 
8 0.00000000000000000 1.57079632679489656
2 -17.99999999999999645 -18.00000000000000000 0.00000000000000799 -0.00000000000000000 -0.00000000000000044 -1.00000000000000000 0.00000000000000000 -1.00000000000000000 0.00000000000000044 -1.00000000000000000 0.00000000000000000 0.00000000000000000 2.00000000000000000
8 4.71238898038468967 6.28318530717958623
2 18.00000000000000355 -18.00000000000000000 0.00000000000000799 -0.00000000000000000 -0.00000000000000044 -1.00000000000000000 0.00000000000000000 -1.00000000000000000 0.00000000000000044 -1.00000000000000000 0.00000000000000000 0.00000000000000000 2.00000000000000000
1 20.00000000000000355 -20.00000000000000000 0.00000000000000000 -1.00000000000000000 0.00000000000000000 0.00000000000000000 
1 18.41250000000000142 -18.41250000000000142 0.00000000000000000 -1.00000000000000000 -0.00000000000000010 0.00000000000000000 
1 -18.41250000000000142 18.41250000000000142 0.00000000000000000 1.00000000000000000 0.00000000000000000 0.00000000000000000 
8 0.00000000000000000 1.57079632679489656
2 17.41250000000000142 -17.41250000000000142 0.00000000000000773 -0.00000000000000000 0.00000000000000044 1.00000000000000000 0.00000000000000000 -1.00000000000000000 0.00000000000000044 1.00000000000000000 0.00000000000000000 0.00000000000000000 1.00000000000000000
8 1.57079632679489656 3.14159265358979312
2 17.41250000000000142 17.41250000000000142 -0.00000000000000773 -0.00000000000000000 0.00000000000000044 1.00000000000000000 0.00000000000000000 -1.00000000000000000 0.00000000000000044 1.00000000000000000 0.00000000000000000 0.00000000000000000 1.00000000000000000
1 18.41250000000000142 18.41250000000000142 0.00000000000000000 0.00000000000000000 -1.00000000000000000 0.00000000000000000 
1 -19.99999999999999645 20.00000000000000000 0.00000000000000000 1.00000000000000000 0.00000000000000000 0.00000000000000000 
8 3.14159265358979312 4.71238898038468967
2 -17.99999999999999645 18.00000000000000000 -0.00000000000000799 -0.00000000000000000 0.00000000000000044 1.00000000000000000 0.00000000000000000 -1.00000000000000000 0.00000000000000044 1.00000000000000000 0.00000000000000000 0.00000000000000000 2.00000000000000000
8 3.14159265358979312 4.71238898038468967
2 18.00000000000000355 18.00000000000000000 -0.00000000000000799 -0.00000000000000000 -0.00000000000000044 -1.00000000000000000 0.00000000000000000 -1.00000000000000000 0.00000000000000044 -1.00000000000000000 0.00000000000000000 0.00000000000000000 2.00000000000000000
1 -19.99999999999999645 -20.00000000000000000 0.00000000000000000 0.00000000000000000 1.00000000000000000 0.00000000000000000 
1 20.00000000000000355 20.00000000000000000 0.00000000000000000 0.00000000000000000 -1.00000000000000000 0.00000000000000000 
8 0.00000000000000000 1.57079632679489656
2 -17.99999999999999645 -18.00000000000000000 0.00000000000000799 -0.00000000000000000 -0.00000000000000044 -1.00000000000000000 0.00000000000000000 -1.00000000000000000 0.00000000000000044 -1.00000000000000000 0.00000000000000000 0.00000000000000000 2.00000000000000000
8 4.71238898038468967 6.28318530717958623
2 18.00000000000000355 -18.00000000000000000 0.00000000000000799 -0.00000000000000000 -0.00000000000000044 -1.00000000000000000 0.00000000000000000 -1.00000000000000000 0.00000000000000044 -1.00000000000000000 0.00000000000000000 0.00000000000000000 2.00000000000000000
1 20.00000000000000355 -20.00000000000000000 0.00000000000000000 -1.00000000000000000 0.00000000000000000 0.00000000000000000 
1 17.41250000000000142 -17.50000000000000711 -18.41249999999999787 0.00000000000000000 1.00000000000000000 -0.00000000000000022 
2 0.00000000000000000 -0.68498599999999998 -18.41250000000000497 0.00000000000000000 0.00000000000000000 1.00000000000000000 1.00000000000000000 0.00000000000000000 -0.00000000000000000 -0.00000000000000000 1.00000000000000000 0.00000000000000000 3.96875000000000000
1 17.41250000000000142 -17.49999999999999289 18.41250000000000497 0.00000000000000000 1.00000000000000000 -0.00000000000000022 
2 0.00000000000000000 5.00000000000000000 18.41250000000000142 0.00000000000000000 0.00000000000000000 -1.00000000000000000 1.00000000000000000 0.00000000000000000 0.00000000000000000 0.00000000000000000 -1.00000000000000000 0.00000000000000000 3.00000000000000000
2 0.00000000000000000 -11.00000000000000000 18.41250000000000497 0.00000000000000000 0.00000000000000000 -1.00000000000000000 1.00000000000000000 0.00000000000000000 0.00000000000000000 0.00000000000000000 -1.00000000000000000 0.00000000000000000 3.00000000000000000
1 18.41250000000000142 -17.50000000000000711 -17.41249999999999787 0.00000000000000000 1.00000000000000000 -0.00000000000000022 
1 18.41250000000000142 -17.49999999999999289 17.41250000000000497 0.00000000000000000 1.00000000000000000 -0.00000000000000022 
1 -17.99999999999999645 -17.49999999999998934 20.00000000000000355 0.00000000000000000 1.00000000000000000 -0.00000000000000022 
1 18.00000000000000355 -17.49999999999998934 20.00000000000000355 0.00000000000000000 1.00000000000000000 -0.00000000000000022 
2 0.00000000000000000 5.00000000000000000 20.00000000000000000 0.00000000000000000 0.00000000000000000 -1.00000000000000000 1.00000000000000000 0.00000000000000000 0.00000000000000000 0.00000000000000000 -1.00000000000000000 0.00000000000000000 3.00000000000000000
2 0.00000000000000000 -11.00000000000000000 20.00000000000000355 0.00000000000000000 0.00000000000000000 -1.00000000000000000 1.00000000000000000 0.00000000000000000 0.00000000000000000 0.00000000000000000 -1.00000000000000000 0.00000000000000000 3.00000000000000000
1 -19.99999999999999645 -17.49999999999999289 18.00000000000000355 0.00000000000000000 1.00000000000000000 -0.00000000000000022 
1 20.00000000000000355 -17.49999999999999289 18.00000000000000355 0.00000000000000000 1.00000000000000000 -0.00000000000000022 
1 -19.99999999999999645 -17.50000000000000711 -17.99999999999999645 0.00000000000000000 1.00000000000000000 -0.00000000000000022 
1 20.00000000000000355 -17.50000000000000711 -17.99999999999999645 0.00000000000000000 1.00000000000000000 -0.00000000000000022 
1 -17.99999999999999645 -17.50000000000001066 -19.99999999999999645 0.00000000000000000 1.00000000000000000 -0.00000000000000022 
1 18.00000000000000355 -17.50000000000001066 -19.99999999999999645 0.00000000000000000 1.00000000000000000 -0.00000000000000022 
2 0.00000000000000000 -0.68498599999999998 -20.00000000000000000 0.00000000000000000 0.00000000000000000 1.00000000000000000 1.00000000000000000 0.00000000000000000 -0.00000000000000000 -0.00000000000000000 1.00000000000000000 0.00000000000000000 3.96875000000000000
1 3.96875000000000000 -0.68498599999999998 0.00000000000000000 -0.00000000000000000 -0.00000000000000000 -1.00000000000000000 
1 3.00000000000000000 5.00000000000000000 0.00000000000000000 0.00000000000000000 0.00000000000000000 1.00000000000000000 
1 3.00000000000000000 -11.00000000000000000 0.00000000000000000 0.00000000000000000 0.00000000000000000 1.00000000000000000 
Polygon3D 0
PolygonOnTriangulations 0
Surfaces 21
1 -18.41250000000000142 -17.50000000000000000 -17.41249999999999787 1.00000000000000000 0.00000000000000000 0.00000000000000000 0.00000000000000000 0.00000000000000000 1.00000000000000000 0.00000000000000000 -1.00000000000000000 0.00000000000000000 
2 -17.41250000000000142 -17.50000000000000711 -17.41249999999999787 0.00000000000000000 -1.00000000000000000 0.00000000000000044 0.00000000000000000 -0.00000000000000044 -1.00000000000000000 1.00000000000000000 0.00000000000000000 0.00000000000000000 1.00000000000000000
2 -17.41250000000000142 -17.49999999999999289 17.41250000000000497 0.00000000000000000 -1.00000000000000000 0.00000000000000044 0.00000000000000000 -0.00000000000000044 -1.00000000000000000 -1.00000000000000000 -0.00000000000000000 -0.00000000000000000 1.00000000000000000
1 17.41250000000000142 -17.50000000000000000 -18.41249999999999787 -0.00000000000000010 0.00000000000000022 1.00000000000000000 -1.00000000000000000 0.00000000000000000 -0.00000000000000010 -0.00000000000000000 -1.00000000000000000 0.00000000000000022 
1 -17.41250000000000142 -17.50000000000000000 18.41250000000000497 0.00000000000000000 -0.00000000000000022 -1.00000000000000000 1.00000000000000000 0.00000000000000000 0.00000000000000000 0.00000000000000000 -1.00000000000000000 0.00000000000000022 
1 0.00000000000000213 0.00000000000000000 0.00000000000000000 0.00000000000000000 1.00000000000000000 -0.00000000000000022 0.00000000000000000 0.00000000000000022 1.00000000000000000 1.00000000000000000 -0.00000000000000000 0.00000000000000000 
2 17.41250000000000142 -17.50000000000000711 -17.41249999999999787 0.00000000000000000 -1.00000000000000000 0.00000000000000044 0.00000000000000000 -0.00000000000000044 -1.00000000000000000 1.00000000000000000 0.00000000000000000 0.00000000000000000 1.00000000000000000
2 17.41250000000000142 -17.49999999999999289 17.41250000000000497 0.00000000000000000 -1.00000000000000000 0.00000000000000044 0.00000000000000000 -0.00000000000000044 -1.00000000000000000 1.00000000000000000 0.00000000000000000 0.00000000000000000 1.00000000000000000
1 18.41250000000000142 -17.50000000000000000 17.41250000000000497 -1.00000000000000000 0.00000000000000000 0.00000000000000000 0.00000000000000000 0.00000000000000000 -1.00000000000000000 -0.00000000000000000 -1.00000000000000000 -0.00000000000000000 
1 -17.99999999999999645 -17.50000000000000000 20.00000000000000355 0.00000000000000000 -0.00000000000000022 -1.00000000000000000 1.00000000000000000 0.00000000000000000 0.00000000000000000 0.00000000000000000 -1.00000000000000000 0.00000000000000022 
2 -17.99999999999999645 -17.49999999999999289 18.00000000000000355 0.00000000000000000 -1.00000000000000000 0.00000000000000044 0.00000000000000000 -0.00000000000000044 -1.00000000000000000 1.00000000000000000 0.00000000000000000 0.00000000000000000 2.00000000000000000
2 18.00000000000000355 -17.49999999999999289 18.00000000000000355 0.00000000000000000 -1.00000000000000000 0.00000000000000044 0.00000000000000000 -0.00000000000000044 -1.00000000000000000 -1.00000000000000000 -0.00000000000000000 -0.00000000000000000 2.00000000000000000
1 -19.99999999999999645 -17.50000000000000000 -17.99999999999999645 1.00000000000000000 0.00000000000000000 0.00000000000000000 0.00000000000000000 0.00000000000000000 1.00000000000000000 0.00000000000000000 -1.00000000000000000 0.00000000000000000 
1 20.00000000000000355 -17.50000000000000000 18.00000000000000355 -1.00000000000000000 0.00000000000000000 0.00000000000000000 0.00000000000000000 0.00000000000000000 -1.00000000000000000 -0.00000000000000000 -1.00000000000000000 -0.00000000000000000 
2 -17.99999999999999645 -17.50000000000000711 -17.99999999999999645 0.00000000000000000 -1.00000000000000000 0.00000000000000044 0.00000000000000000 -0.00000000000000044 -1.00000000000000000 -1.00000000000000000 -0.00000000000000000 -0.00000000000000000 2.00000000000000000
2 18.00000000000000355 -17.50000000000000711 -17.99999999999999645 0.00000000000000000 -1.00000000000000000 0.00000000000000044 0.00000000000000000 -0.00000000000000044 -1.00000000000000000 -1.00000000000000000 -0.00000000000000000 -0.00000000000000000 2.00000000000000000
1 18.00000000000000355 -17.50000000000000000 -19.99999999999999645 0.00000000000000000 0.00000000000000022 1.00000000000000000 -1.00000000000000000 0.00000000000000000 0.00000000000000000 0.00000000000000000 -1.00000000000000000 0.00000000000000022 
1 0.00000000000000213 0.00000000000000000 0.00000000000000000 0.00000000000000000 1.00000000000000000 -0.00000000000000022 0.00000000000000000 0.00000000000000022 1.00000000000000000 1.00000000000000000 -0.00000000000000000 0.00000000000000000 
2 0.00000000000000000 -0.68498599999999998 0.00000000000000000 0.00000000000000000 0.00000000000000000 1.00000000000000000 1.00000000000000000 0.00000000000000000 -0.00000000000000000 -0.00000000000000000 1.00000000000000000 0.00000000000000000 3.96875000000000000
2 0.00000000000000000 5.00000000000000000 0.00000000000000000 -0.00000000000000000 -0.00000000000000000 -1.00000000000000000 1.00000000000000000 0.00000000000000000 0.00000000000000000 0.00000000000000000 1.00000000000000000 0.00000000000000000 3.00000000000000000
2 0.00000000000000000 -11.00000000000000000 0.00000000000000000 -0.00000000000000000 -0.00000000000000000 -1.00000000000000000 1.00000000000000000 0.00000000000000000 0.00000000000000000 0.00000000000000000 1.00000000000000000 0.00000000000000000 3.00000000000000000
Triangulations 0

TShapes 147
Ve
0.000000100000000
-18.412500000000001 -17.500000000000007 -17.412499999999998
0 0

0101101
*
Ve
0.000000100000000
-18.412500000000001 17.499999999999993 -17.412500000000005
0 0

0101101
*
Ed
 0.000000100000000 1 1 0
1  1 0 0.000000000000000 35.000000000000000
2  1 2 0 0.000000000000000 35.000000000000000
4 C1 1 0 2 0
2  2 1 0 0.000000000000000 35.000000000000000
0

0101000
+147 8 -146 8 *
Ve
0.000000100000000
-18.412500000000001 -17.499999999999993 17.412500000000005
0 0

0101101
*
Ve
0.000000100000000
-18.412500000000001 17.500000000000007 17.412499999999998
0 0

0101101
*
Ed
 0.000000100000000 1 1 0
1  2 0 0.000000000000000 35.000000000000000
2  3 3 0 0.000000000000000 35.000000000000000
4 C1 1 0 3 0
2  4 1 0 0.000000000000000 35.000000000000000
0

0101000
+144 8 -143 8 *
Ed
 0.000000100000000 1 1 0
1  3 0 1.000000000000004 35.825000000000003
2  5 1 25 1.000000000000004 35.825000000000003
0

0101000
+147 26 -144 26 *
Ed
 0.000000100000000 1 1 0
1  4 0 1.000000000000004 35.825000000000003
2  6 1 29 1.000000000000004 35.825000000000003
0

0101000
+146 30 -143 30 *
Wi

0101100
+145 0 -142 0 -141 24 +140 28 *
Fa
0  0.000000100000000 1 0

0111000
+139 0 *
Ve
0.000000100000000
-17.412500000000001 -17.500000000000007 -18.412499999999998
0 0

0101101
*
Ve
0.000000100000000
-17.412500000000001 17.499999999999993 -18.412500000000005
0 0

0101101
*
Ed
 0.000000100000000 1 1 0
1  5 0 0.000000000000000 35.000000000000000
2  7 2 0 0.000000000000000 35.000000000000000
4 C1 2 0 4 0
2  8 4 0 0.000000000000000 35.000000000000000
0

0101000
+137 8 -136 8 *
Ed
 0.000000100000000 1 1 0
1  6 0 4.712388980384690 6.283185307179586
2  9 2 32 4.712388980384690 6.283185307179586
0

0101000
+147 33 -137 33 *
Ed
 0.000000100000000 1 1 0
1  7 0 4.712388980384690 6.283185307179586
2  10 2 35 4.712388980384690 6.283185307179586
0

0101000
+146 36 -136 36 *
Wi

0101100
+145 0 -135 0 -134 31 +133 34 *
Fa
0  0.000000100000000 2 0

0111000
+132 0 *
Ve
0.000000100000000
-17.412500000000001 -17.499999999999993 18.412500000000005
0 0

0101101
*
Ve
0.000000100000000
-17.412500000000001 17.500000000000007 18.412499999999998
0 0

0101101
*
Ed
 0.000000100000000 1 1 0
1  8 0 0.000000000000000 35.000000000000000
2  11 3 0 0.000000000000000 35.000000000000000
4 C1 3 0 5 0
2  12 5 0 0.000000000000000 35.000000000000000
0

0101000
+130 8 -129 8 *
Ed
 0.000000100000000 1 1 0
1  9 0 1.570796326794897 3.141592653589793
2  13 3 32 1.570796326794897 3.141592653589793
0

0101000
+144 33 -130 33 *
Ed
 0.000000100000000 1 1 0
1  10 0 1.570796326794897 3.141592653589793
2  14 3 35 1.570796326794897 3.141592653589793
0

0101000
+143 36 -129 36 *
Wi

0101100
+142 0 -128 0 -127 31 +126 34 *
Fa
0  0.000000100000000 3 0

0111000
+125 0 *
Ve
0.000000100000000
17.412500000000001 -17.500000000000007 -18.412499999999998
0 0

0101101
*
Ed
 0.000000100000000 1 1 0
1  11 0 1.000000000000000 35.825000000000003
2  15 4 25 1.000000000000000 35.825000000000003
0

0101000
+123 26 -137 26 *
Ve
0.000000100000000
17.412500000000001 -17.499999999999993 18.412500000000005
0 0

0101101
*
Ed
 0.000000100000000 1 1 0
1  12 0 1.000000000000000 35.825000000000003
2  16 5 25 1.000000000000000 35.825000000000003
0

0101000
+130 26 -121 26 *
Ve
0.000000100000000
18.412500000000001 -17.500000000000007 -17.412499999999998
0 0

0101101
*
Ed
 0.000000100000000 1 1 0
1  13 0 0.000000000000000 1.570796326794897
2  17 7 32 0.000000000000000 1.570796326794897
0

0101000
+123 33 -119 33 *
Ve
0.000000100000000
18.412500000000001 -17.499999999999993 17.412500000000005
0 0

0101101
*
Ed
 0.000000100000000 1 1 0
1  14 0 1.570796326794897 3.141592653589793
2  18 8 32 1.570796326794897 3.141592653589793
0

0101000
+117 33 -121 33 *
Ed
 0.000000100000000 1 1 0
1  15 0 1.000000000000000 35.825000000000003
2  19 9 25 1.000000000000000 35.825000000000003
0

0101000
+117 26 -119 26 *
Wi

0101100
-141 39 +134 0 -127 0 -122 39 -120 39 +118 0 +116 0 -115 39 *
Ve
0.000000100000000
-17.999999999999996 -17.499999999999989 20.000000000000004
0 0

0101101
*
Ve
0.000000100000000
18.000000000000004 -17.499999999999989 20.000000000000004
0 0

0101101
*
Ed
 0.000000100000000 1 1 0
1  16 0 2.000000000000000 38.000000000000000
2  20 10 25 2.000000000000000 38.000000000000000
0

0101000
+113 26 -112 26 *
Ve
0.000000100000000
-19.999999999999996 -17.499999999999993 18.000000000000004
0 0

0101101
*
Ed
 0.000000100000000 1 1 0
1  17 0 3.141592653589793 4.712388980384690
2  21 11 42 3.141592653589793 4.712388980384690
0

0101000
+113 43 -110 43 *
Ve
0.000000100000000
20.000000000000004 -17.499999999999993 18.000000000000004
0 0

0101101
*
Ed
 0.000000100000000 1 1 0
1  18 0 3.141592653589793 4.712388980384690
2  22 12 42 3.141592653589793 4.712388980384690
0

0101000
+112 43 -108 43 *
Ve
0.000000100000000
-19.999999999999996 -17.500000000000007 -17.999999999999996
0 0

0101101
*
Ed
 0.000000100000000 1 1 0
1  19 0 2.000000000000000 38.000000000000000
2  23 13 25 2.000000000000000 38.000000000000000
0

0101000
+106 26 -110 26 *
Ve
0.000000100000000
20.000000000000004 -17.500000000000007 -17.999999999999996
0 0

0101101
*
Ed
 0.000000100000000 1 1 0
1  20 0 2.000000000000000 38.000000000000000
2  24 14 25 2.000000000000000 38.000000000000000
0

0101000
+108 26 -104 26 *
Ve
0.000000100000000
-17.999999999999996 -17.500000000000011 -19.999999999999996
0 0

0101101
*
Ed
 0.000000100000000 1 1 0
1  21 0 0.000000000000000 1.570796326794897
2  25 15 42 0.000000000000000 1.570796326794897
0

0101000
+102 43 -106 43 *
Ve
0.000000100000000
18.000000000000004 -17.500000000000011 -19.999999999999996
0 0

0101101
*
Ed
 0.000000100000000 1 1 0
1  22 0 4.712388980384690 6.283185307179586
2  26 16 42 4.712388980384690 6.283185307179586
0

0101000
+104 43 -100 43 *
Ed
 0.000000100000000 1 1 0
1  23 0 2.000000000000000 38.000000000000000
2  27 17 25 2.000000000000000 38.000000000000000
0

0101000
+100 26 -102 26 *
Wi

0101100
+111 41 -109 0 +107 0 +105 41 +103 41 +101 0 +99 0 +98 41 *
Fa
0  0.000000100000000 6 0

0111000
+114 38 +97 40 *
Ve
0.000000100000000
17.412500000000001 17.499999999999993 -18.412500000000005
0 0

0101101
*
Ed
 0.000000100000000 1 1 0
1  24 0 1.000000000000000 35.825000000000003
2  28 4 29 1.000000000000000 35.825000000000003
0

0101000
+95 30 -136 30 *
Ve
0.000000100000000
17.412500000000001 17.500000000000007 18.412499999999998
0 0

0101101
*
Ed
 0.000000100000000 1 1 0
1  25 0 1.000000000000000 35.825000000000003
2  29 5 29 1.000000000000000 35.825000000000003
0

0101000
+129 30 -93 30 *
Ve
0.000000100000000
18.412500000000001 17.499999999999993 -17.412500000000005
0 0

0101101
*
Ed
 0.000000100000000 1 1 0
1  26 0 0.000000000000000 1.570796326794897
2  30 7 35 0.000000000000000 1.570796326794897
0

0101000
+95 36 -91 36 *
Ve
0.000000100000000
18.412500000000001 17.500000000000007 17.412499999999998
0 0

0101101
*
Ed
 0.000000100000000 1 1 0
1  27 0 1.570796326794897 3.141592653589793
2  31 8 35 1.570796326794897 3.141592653589793
0

0101000
+89 36 -93 36 *
Ed
 0.000000100000000 1 1 0
1  28 0 1.000000000000000 35.825000000000003
2  32 9 29 1.000000000000000 35.825000000000003
0

0101000
+89 30 -91 30 *
Wi

0101100
-140 39 +133 0 -126 0 -94 39 -92 39 +90 0 +88 0 -87 39 *
Ve
0.000000100000000
-17.999999999999996 17.500000000000011 19.999999999999996
0 0

0101101
*
Ve
0.000000100000000
18.000000000000004 17.500000000000011 19.999999999999996
0 0

0101101
*
Ed
 0.000000100000000 1 1 0
1  29 0 2.000000000000000 38.000000000000000
2  33 10 29 2.000000000000000 38.000000000000000
0

0101000
+85 30 -84 30 *
Ve
0.000000100000000
-19.999999999999996 17.500000000000007 17.999999999999996
0 0

0101101
*
Ed
 0.000000100000000 1 1 0
1  30 0 3.141592653589793 4.712388980384690
2  34 11 45 3.141592653589793 4.712388980384690
0

0101000
+85 46 -82 46 *
Ve
0.000000100000000
20.000000000000004 17.500000000000007 17.999999999999996
0 0

0101101
*
Ed
 0.000000100000000 1 1 0
1  31 0 3.141592653589793 4.712388980384690
2  35 12 45 3.141592653589793 4.712388980384690
0

0101000
+84 46 -80 46 *
Ve
0.000000100000000
-19.999999999999996 17.499999999999993 -18.000000000000004
0 0

0101101
*
Ed
 0.000000100000000 1 1 0
1  32 0 2.000000000000000 38.000000000000000
2  36 13 29 2.000000000000000 38.000000000000000
0

0101000
+78 30 -82 30 *
Ve
0.000000100000000
20.000000000000004 17.499999999999993 -18.000000000000004
0 0

0101101
*
Ed
 0.000000100000000 1 1 0
1  33 0 2.000000000000000 38.000000000000000
2  37 14 29 2.000000000000000 38.000000000000000
0

0101000
+80 30 -76 30 *
Ve
0.000000100000000
-17.999999999999996 17.499999999999989 -20.000000000000004
0 0

0101101
*
Ed
 0.000000100000000 1 1 0
1  34 0 0.000000000000000 1.570796326794897
2  38 15 45 0.000000000000000 1.570796326794897
0

0101000
+74 46 -78 46 *
Ve
0.000000100000000
18.000000000000004 17.499999999999989 -20.000000000000004
0 0

0101101
*
Ed
 0.000000100000000 1 1 0
1  35 0 4.712388980384690 6.283185307179586
2  39 16 45 4.712388980384690 6.283185307179586
0

0101000
+76 46 -72 46 *
Ed
 0.000000100000000 1 1 0
1  36 0 2.000000000000000 38.000000000000000
2  40 17 29 2.000000000000000 38.000000000000000
0

0101000
+72 30 -74 30 *
Wi

0101100
+83 41 -81 0 +79 0 +77 41 +75 41 +73 0 +71 0 +70 41 *
Fa
0  0.000000100000000 18 0

0111000
+86 38 +69 40 *
Ed
 0.000000100000000 1 1 0
1  37 0 0.000000000000000 35.000000000000000
2  41 7 0 0.000000000000000 35.000000000000000
4 C1 4 0 7 0
2  42 4 0 0.000000000000000 35.000000000000000
0

0101000
+123 8 -95 8 *
Wi

0101100
+67 48 -122 49 +94 50 -135 48 *
Ve
0.000000100000004
3.968750000000000 -0.684986000000000 -18.412500000000001
0 0

0101101
*
Ed
 0.000000100000000 1 1 0
1  38 0 0.000000000000000 6.283185307179586
2  43 4 48 0.000000000000000 6.283185307179586
2  44 19 0 0.000000000000000 6.283185307179586
0

0101000
+65 0 -65 0 *
Wi

0101100
-64 0 *
Fa
0  0.000000100000000 4 48

0111000
+66 0 +63 0 *
Ed
 0.000000100000000 1 1 0
1  39 0 0.000000000000000 35.000000000000000
2  45 8 0 0.000000000000000 35.000000000000000
4 C1 5 0 8 0
2  46 5 0 0.000000000000000 35.000000000000000
0

0101000
+121 8 -93 8 *
Wi

0101100
+128 6 -120 51 +92 52 -61 6 *
Ve
0.000000100000001
3.000000000000000 5.000000000000000 18.412500000000001
0 0

0101101
*
Ed
 0.000000100000000 1 1 0
1  40 0 0.000000000000000 6.283185307179586
2  47 5 6 0.000000000000000 6.283185307179586
2  48 20 0 0.000000000000000 6.283185307179586
0

0101000
+59 0 -59 0 *
Wi

0101100
-58 0 *
Ve
0.000000100000000
3.000000000000000 -11.000000000000000 18.412500000000005
0 0

0101101
*
Ed
 0.000000100000000 1 1 0
1  41 0 0.000000000000000 6.283185307179586
2  49 5 6 0.000000000000000 6.283185307179586
2  50 21 0 0.000000000000000 6.283185307179586
0

0101000
+56 0 -56 0 *
Wi

0101100
-55 0 *
Fa
0  0.000000100000000 5 6

0101000
+60 0 +57 0 +54 0 *
Ed
 0.000000100000000 1 1 0
1  42 0 0.000000000000000 35.000000000000000
2  51 7 0 0.000000000000000 35.000000000000000
4 C1 7 0 9 0
2  52 9 0 0.000000000000000 35.000000000000000
0

0101000
+119 8 -91 8 *
Wi

0101100
+67 0 -52 0 -118 31 +90 34 *
Fa
0  0.000000100000000 7 0

0111000
+51 0 *
Ed
 0.000000100000000 1 1 0
1  43 0 0.000000000000000 35.000000000000000
2  53 8 0 0.000000000000000 35.000000000000000
4 C1 8 0 9 0
2  54 9 0 0.000000000000000 35.000000000000000
0

0101000
+117 8 -89 8 *
Wi

0101100
+49 0 -61 0 -116 31 +88 34 *
Fa
0  0.000000100000000 8 0

0111000
+48 0 *
Wi

0101100
+49 0 -52 0 -115 24 +87 28 *
Fa
0  0.000000100000000 9 0

0111000
+46 0 *
Ed
 0.000000100000000 1 1 0
1  44 0 0.000000000000000 35.000000000000000
2  55 11 0 0.000000000000000 35.000000000000000
4 G1 10 0 11 0
2  56 10 0 0.000000000000000 35.000000000000000
0

0101000
+113 8 -85 8 *
Ed
 0.000000100000000 1 1 0
1  45 0 0.000000000000000 35.000000000000000
2  57 12 0 0.000000000000000 35.000000000000000
4 G1 10 0 12 0
2  58 10 0 0.000000000000000 35.000000000000000
0

0101000
+112 8 -84 8 *
Wi

0101100
+44 6 -111 51 +83 52 -43 6 *
Ve
0.000000100000001
3.000000000000000 5.000000000000000 20.000000000000000
0 0

0101101
*
Ed
 0.000000100000000 1 1 0
1  46 0 0.000000000000000 6.283185307179586
2  59 10 6 0.000000000000000 6.283185307179586
2  60 20 0 0.000000000000000 6.283185307179586
0

0101000
+41 0 -41 0 *
Wi

0101100
-40 0 *
Ve
0.000000100000000
3.000000000000000 -11.000000000000000 20.000000000000004
0 0

0101101
*
Ed
 0.000000100000000 1 1 0
1  47 0 0.000000000000000 6.283185307179586
2  61 10 6 0.000000000000000 6.283185307179586
2  62 21 0 0.000000000000000 6.283185307179586
0

0101000
+38 0 -38 0 *
Wi

0101100
-37 0 *
Fa
0  0.000000100000000 10 6

0101000
+42 0 +39 0 +36 0 *
Ed
 0.000000100000000 1 1 0
1  48 0 0.000000000000000 35.000000000000000
2  63 11 0 0.000000000000000 35.000000000000000
4 G1 11 0 13 0
2  64 13 0 0.000000000000000 35.000000000000000
0

0101000
+110 8 -82 8 *
Wi

0101100
+44 0 -34 0 -109 53 +81 54 *
Fa
0  0.000000100000000 11 0

0111000
+33 0 *
Ed
 0.000000100000000 1 1 0
1  49 0 0.000000000000000 35.000000000000000
2  65 12 0 0.000000000000000 35.000000000000000
4 G1 12 0 14 0
2  66 14 0 0.000000000000000 35.000000000000000
0

0101000
+108 8 -80 8 *
Wi

0101100
+43 0 -31 0 -107 53 +79 54 *
Fa
0  0.000000100000000 12 0

0111000
+30 0 *
Ed
 0.000000100000000 1 1 0
1  50 0 0.000000000000000 35.000000000000000
2  67 15 0 0.000000000000000 35.000000000000000
4 G1 13 0 15 0
2  68 13 0 0.000000000000000 35.000000000000000
0

0101000
+106 8 -78 8 *
Wi

0101100
+28 0 -34 0 -105 24 +77 28 *
Fa
0  0.000000100000000 13 0

0111000
+27 0 *
Ed
 0.000000100000000 1 1 0
1  51 0 0.000000000000000 35.000000000000000
2  69 16 0 0.000000000000000 35.000000000000000
4 G1 14 0 16 0
2  70 14 0 0.000000000000000 35.000000000000000
0

0101000
+104 8 -76 8 *
Wi

0101100
+31 0 -25 0 -103 24 +75 28 *
Fa
0  0.000000100000000 14 0

0111000
+24 0 *
Ed
 0.000000100000000 1 1 0
1  52 0 0.000000000000000 35.000000000000000
2  71 15 0 0.000000000000000 35.000000000000000
4 G1 15 0 17 0
2  72 17 0 0.000000000000000 35.000000000000000
0

0101000
+102 8 -74 8 *
Wi

0101100
+22 0 -28 0 -101 53 +73 54 *
Fa
0  0.000000100000000 15 0

0111000
+21 0 *
Ed
 0.000000100000000 1 1 0
1  53 0 0.000000000000000 35.000000000000000
2  73 16 0 0.000000000000000 35.000000000000000
4 G1 16 0 17 0
2  74 17 0 0.000000000000000 35.000000000000000
0

0101000
+100 8 -72 8 *
Wi

0101100
+25 0 -19 0 -99 53 +71 54 *
Fa
0  0.000000100000000 16 0

0111000
+18 0 *
Wi

0101100
+19 48 -98 49 +70 50 -22 48 *
Ve
0.000000100000001
3.968750000000000 -0.684986000000000 -20.000000000000000
0 0

0101101
*
Ed
 0.000000100000000 1 1 0
1  54 0 0.000000000000000 6.283185307179586
2  75 17 48 0.000000000000000 6.283185307179586
2  76 19 0 0.000000000000000 6.283185307179586
0

0101000
+15 0 -15 0 *
Wi

0101100
-14 0 *
Fa
0  0.000000100000000 17 48

0111000
+16 0 +13 0 *
Ed
 0.000000100000000 1 1 0
1  55 0 18.412500000000001 20.000000000000000
3  77 78CN 19 0 18.412500000000001 20.000000000000000
0

0101000
+65 0 -15 0 *
Wi

0101100
-64 0 -11 0 +14 0 +11 0 *
Fa
0  0.000000100000000 19 0

0111000
+10 0 *
Ed
 0.000000100000000 1 1 0
1  56 0 18.412500000000001 20.000000000000000
3  79 80CN 20 0 18.412500000000001 20.000000000000000
0

0101000
+59 0 -41 0 *
Wi

0101100
+58 0 -8 0 -40 0 +8 0 *
Fa
0  0.000000100000000 20 0

0101000
+7 0 *
Ed
 0.000000100000000 1 1 0
1  57 0 18.412500000000005 20.000000000000004
3  81 82CN 21 0 18.412500000000005 20.000000000000004
0

0101000
+56 0 -38 0 *
Wi

0101100
+55 0 -5 0 -37 0 +5 0 *
Fa
0  0.000000100000000 21 0

0101000
+4 0 *
Sh

0101100
+138 6 -131 6 +124 6 -96 37 +68 44 +62 47 +53 0 -50 6 -47 6 +45 6 
-35 0 +32 6 -29 6 -26 6 -23 6 -20 6 -17 6 -12 47 -9 47 +6 0 
+3 0 *
So

0100000
+2 0 *

+1 1 