
CASCADE Topology V1, (c) Matra-Datavision
Locations 41
1
1.000000000000000 0.000000000000000 0.000000000000000 0.000000000000000 
0.000000000000000 1.000000000000000 0.000000000000000 0.000000000000000 
0.000000000000000 0.000000000000000 1.000000000000000 0.000000000000000 
1
1.000000000000000 0.000000000000000 0.000000000000000 0.000000000000000 
0.000000000000000 1.000000000000000 0.000000000000000 0.000000000000000 
0.000000000000000 0.000000000000000 1.000000000000000 0.000000000000000 
2  2 -1 0
1
1.000000000000000 0.000000000000000 0.000000000000000 0.000000000000000 
0.000000000000000 1.000000000000000 0.000000000000000 0.000000000000000 
0.000000000000000 0.000000000000000 1.000000000000000 0.000000000000000 
1
1.000000000000000 0.000000000000000 0.000000000000000 0.000000000000000 
0.000000000000000 0.000000000000000 -1.000000000000000 0.000000000000000 
0.000000000000000 1.000000000000000 0.000000000000000 0.000000000000000 
1
1.000000000000000 0.000000000000000 0.000000000000000 0.000000000000000 
0.000000000000000 -0.000000000000000 -1.000000000000000 0.000000000000000 
0.000000000000000 1.000000000000000 -0.000000000000000 0.000000000000000 
1
1.000000000000000 0.000000000000000 0.000000000000000 0.000000000000000 
0.000000000000000 1.000000000000000 0.000000000000000 0.000000000000000 
0.000000000000000 0.000000000000000 1.000000000000000 0.000000000000000 
1
1.000000000000000 0.000000000000000 0.000000000000000 0.000000000000000 
0.000000000000000 1.000000000000000 0.000000000000000 0.000000000000000 
0.000000000000000 0.000000000000000 1.000000000000000 0.000000000000000 
1
1.000000000000000 0.000000000000000 0.000000000000000 0.000000000000000 
0.000000000000000 1.000000000000000 0.000000000000000 0.000000000000000 
0.000000000000000 0.000000000000000 1.000000000000000 0.000000000000000 
1
1.000000000000000 0.000000000000000 0.000000000000000 0.000000000000000 
0.000000000000000 0.000000000000000 -1.000000000000000 0.000000000000000 
0.000000000000000 1.000000000000000 0.000000000000000 0.000000000000000 
1
1.000000000000000 0.000000000000000 0.000000000000000 0.000000000000000 
0.000000000000000 1.000000000000000 0.000000000000000 0.000000000000000 
0.000000000000000 0.000000000000000 1.000000000000000 0.000000000000000 
1
1.000000000000000 0.000000000000000 0.000000000000000 0.000000000000000 
0.000000000000000 1.000000000000000 0.000000000000000 0.000000000000000 
0.000000000000000 0.000000000000000 1.000000000000000 0.000000000000000 
1
1.000000000000000 0.000000000000000 0.000000000000000 0.000000000000000 
0.000000000000000 1.000000000000000 0.000000000000000 0.000000000000000 
0.000000000000000 0.000000000000000 1.000000000000000 0.000000000000000 
1
1.000000000000000 0.000000000000000 0.000000000000000 0.000000000000000 
0.000000000000000 1.000000000000000 0.000000000000000 0.000000000000000 
0.000000000000000 0.000000000000000 1.000000000000000 0.000000000000000 
1
1.000000000000000 0.000000000000000 0.000000000000000 0.000000000000000 
0.000000000000000 1.000000000000000 0.000000000000000 0.000000000000000 
0.000000000000000 0.000000000000000 1.000000000000000 0.000000000000000 
1
1.000000000000000 0.000000000000000 0.000000000000000 0.000000000000000 
0.000000000000000 1.000000000000000 0.000000000000000 0.000000000000000 
0.000000000000000 0.000000000000000 1.000000000000000 0.000000000000000 
1
1.000000000000000 0.000000000000000 0.000000000000000 0.000000000000000 
0.000000000000000 1.000000000000000 0.000000000000000 0.000000000000000 
0.000000000000000 0.000000000000000 1.000000000000000 0.000000000000000 
1
1.000000000000000 0.000000000000000 0.000000000000000 -0.000000000000000 
0.000000000000000 1.000000000000000 0.000000000000000 -17.500000000000000 
0.000000000000000 0.000000000000000 1.000000000000000 0.000000000000004 
2  4 1 5 1 6 -1 7 1 8 1 9 1 10 1 11 1 12 1 13 1 14 1 15 1 16 1 17 -1 18 1 0
2  2 -1 18 -1 17 1 16 -1 15 -1 14 -1 13 -1 12 -1 11 -1 10 -1 9 -1 8 -1 7 -1 6 1 5 -1 4 -1 0
1
1.000000000000000 0.000000000000000 0.000000000000000 0.000000000000000 
0.000000000000000 1.000000000000000 0.000000000000000 35.000000000000000 
0.000000000000000 0.000000000000000 1.000000000000000 -0.000000000000008 
2  4 1 5 1 6 -1 7 1 8 1 9 1 10 1 11 1 12 1 13 1 14 1 15 1 16 1 17 -1 18 1 21 1 0
2  2 -1 21 -1 18 -1 17 1 16 -1 15 -1 14 -1 13 -1 12 -1 11 -1 10 -1 9 -1 8 -1 7 -1 6 1 5 -1 4 -1 0
2  9 1 10 1 11 1 12 1 13 1 14 1 15 1 16 1 17 -1 18 1 0
2  18 -1 17 1 16 -1 15 -1 14 -1 13 -1 12 -1 11 -1 10 -1 9 -1 0
2  2 -1 18 -1 17 1 16 -1 15 -1 14 -1 13 -1 12 -1 11 -1 10 -1 9 -1 0
2  9 1 10 1 11 1 12 1 13 1 14 1 15 1 16 1 17 -1 18 1 21 1 0
2  21 -1 18 -1 17 1 16 -1 15 -1 14 -1 13 -1 12 -1 11 -1 10 -1 9 -1 0
2  2 -1 21 -1 18 -1 17 1 16 -1 15 -1 14 -1 13 -1 12 -1 11 -1 10 -1 9 -1 0
2  8 1 9 1 10 1 11 1 12 1 13 1 14 1 15 1 16 1 17 -1 18 1 0
2  18 -1 17 1 16 -1 15 -1 14 -1 13 -1 12 -1 11 -1 10 -1 9 -1 8 -1 0
2  2 -1 18 -1 17 1 16 -1 15 -1 14 -1 13 -1 12 -1 11 -1 10 -1 9 -1 8 -1 0
2  8 1 9 1 10 1 11 1 12 1 13 1 14 1 15 1 16 1 17 -1 18 1 21 1 0
2  21 -1 18 -1 17 1 16 -1 15 -1 14 -1 13 -1 12 -1 11 -1 10 -1 9 -1 8 -1 0
2  2 -1 21 -1 18 -1 17 1 16 -1 15 -1 14 -1 13 -1 12 -1 11 -1 10 -1 9 -1 8 -1 0
2  6 -1 7 1 8 1 9 1 10 1 11 1 12 1 13 1 14 1 15 1 16 1 17 -1 18 1 0
2  8 -1 7 -1 6 1 0
2  4 1 5 1 6 -1 7 1 8 1 0
2  7 -1 6 1 0
2  4 1 5 1 6 -1 7 1 0
2  6 -1 7 1 8 1 9 1 10 1 11 1 12 1 13 1 14 1 15 1 16 1 17 -1 18 1 21 1 0
Curve2ds 32
1 4.71238898038468967 0.00000000000000000 0.00000000000000000 -1.00000000000000000 
1 1.57079632679489700 0.00000000000000000 0.00000000000000000 -1.00000000000000000 
1 6.28318530717958623 0.00000000000000000 0.00000000000000000 -1.00000000000000000 
1 0.00000000000000000 0.00000000000000000 1.00000000000000000 0.00000000000000000 
1 0.00000000000000000 -35.00000000000000000 1.00000000000000000 0.00000000000000000 
1 3.14159265358979312 0.00000000000000000 0.00000000000000000 -1.00000000000000000 
1 0.00000000000000000 0.00000000000000000 1.00000000000000000 0.00000000000000000 
1 0.00000000000000000 -35.00000000000000000 1.00000000000000000 0.00000000000000000 
1 0.00000000000000000 0.00000000000000000 0.00000000000000000 -1.00000000000000000 
1 3.14159265358979312 0.00000000000000000 0.00000000000000000 -1.00000000000000000 
1 1.57079632679489700 0.00000000000000000 0.00000000000000000 -1.00000000000000000 
1 0.00000000000000000 0.00000000000000000 1.00000000000000000 0.00000000000000000 
1 0.00000000000000000 -35.00000000000000000 1.00000000000000000 0.00000000000000000 
1 1.57079632679489700 0.00000000000000000 0.00000000000000000 -1.00000000000000000 
1 0.00000000000000000 0.00000000000000000 1.00000000000000000 0.00000000000000000 
1 0.00000000000000000 -35.00000000000000000 1.00000000000000000 0.00000000000000000 
1 3.14159265358979312 0.00000000000000000 0.00000000000000000 -1.00000000000000000 
1 3.14159265358979312 0.00000000000000000 0.00000000000000000 -1.00000000000000000 
1 4.71238898038468967 0.00000000000000000 0.00000000000000000 -1.00000000000000000 
1 0.00000000000000000 0.00000000000000000 1.00000000000000000 0.00000000000000000 
1 0.00000000000000000 -35.00000000000000000 1.00000000000000000 0.00000000000000000 
1 4.71238898038468967 0.00000000000000000 0.00000000000000000 -1.00000000000000000 
1 0.00000000000000000 0.00000000000000000 1.00000000000000000 0.00000000000000000 
1 0.00000000000000000 -35.00000000000000000 1.00000000000000000 0.00000000000000000 
1 1.57079632679489700 0.00000000000000000 0.00000000000000000 -1.00000000000000000 
1 4.71238898038468967 0.00000000000000000 0.00000000000000000 -1.00000000000000000 
1 0.00000000000000000 0.00000000000000000 0.00000000000000000 -1.00000000000000000 
1 0.00000000000000000 0.00000000000000000 1.00000000000000000 0.00000000000000000 
1 0.00000000000000000 -35.00000000000000000 1.00000000000000000 0.00000000000000000 
1 6.28318530717958623 0.00000000000000000 0.00000000000000000 -1.00000000000000000 
1 0.00000000000000000 0.00000000000000000 1.00000000000000000 0.00000000000000000 
1 0.00000000000000000 -35.00000000000000000 1.00000000000000000 0.00000000000000000 
Curves 48
1 -18.41250000000000142 -17.50000000000000711 -17.41249999999999787 0.00000000000000000 1.00000000000000000 -0.00000000000000022 
1 -18.41250000000000142 -17.49999999999999289 17.41250000000000497 0.00000000000000000 1.00000000000000000 -0.00000000000000022 
1 -18.41250000000000142 -18.41250000000000497 0.00000000000000000 0.00000000000000000 1.00000000000000000 0.00000000000000000 
1 -18.41250000000000142 -18.41250000000000497 0.00000000000000000 0.00000000000000000 1.00000000000000000 0.00000000000000000 
1 -17.41250000000000142 -17.50000000000000711 -18.41249999999999787 0.00000000000000000 1.00000000000000000 -0.00000000000000022 
8 4.71238898038468967 6.28318530717958623
2 -17.41250000000000142 -17.41250000000000142 0.00000000000000773 -0.00000000000000000 0.00000000000000044 1.00000000000000000 0.00000000000000000 -1.00000000000000000 0.00000000000000044 1.00000000000000000 0.00000000000000000 0.00000000000000000 1.00000000000000000
8 4.71238898038468967 6.28318530717958623
2 -17.41250000000000142 -17.41250000000000142 0.00000000000000773 -0.00000000000000000 0.00000000000000044 1.00000000000000000 0.00000000000000000 -1.00000000000000000 0.00000000000000044 1.00000000000000000 0.00000000000000000 0.00000000000000000 1.00000000000000000
1 -17.41250000000000142 -17.49999999999999289 18.41250000000000497 0.00000000000000000 1.00000000000000000 -0.00000000000000022 
8 1.57079632679489656 3.14159265358979312
2 -17.41250000000000142 17.41250000000000142 -0.00000000000000773 -0.00000000000000000 -0.00000000000000044 -1.00000000000000000 0.00000000000000000 -1.00000000000000000 0.00000000000000044 -1.00000000000000000 0.00000000000000000 0.00000000000000000 1.00000000000000000
8 1.57079632679489656 3.14159265358979312
2 -17.41250000000000142 17.41250000000000142 -0.00000000000000773 -0.00000000000000000 -0.00000000000000044 -1.00000000000000000 0.00000000000000000 -1.00000000000000000 0.00000000000000044 -1.00000000000000000 0.00000000000000000 0.00000000000000000 1.00000000000000000
1 17.41250000000000142 -17.50000000000000711 -18.41249999999999787 0.00000000000000000 1.00000000000000000 -0.00000000000000022 
1 18.41250000000000142 -18.41250000000000142 0.00000000000000000 -1.00000000000000000 -0.00000000000000010 0.00000000000000000 
1 18.41250000000000142 -18.41250000000000142 0.00000000000000000 -1.00000000000000000 -0.00000000000000010 0.00000000000000000 
1 17.41250000000000142 -17.49999999999999289 18.41250000000000497 0.00000000000000000 1.00000000000000000 -0.00000000000000022 
1 -18.41250000000000142 18.41250000000000142 0.00000000000000000 1.00000000000000000 0.00000000000000000 0.00000000000000000 
1 -18.41250000000000142 18.41250000000000142 0.00000000000000000 1.00000000000000000 0.00000000000000000 0.00000000000000000 
1 18.41250000000000142 -17.50000000000000711 -17.41249999999999787 0.00000000000000000 1.00000000000000000 -0.00000000000000022 
8 0.00000000000000000 1.57079632679489656
2 17.41250000000000142 -17.41250000000000142 0.00000000000000773 -0.00000000000000000 0.00000000000000044 1.00000000000000000 0.00000000000000000 -1.00000000000000000 0.00000000000000044 1.00000000000000000 0.00000000000000000 0.00000000000000000 1.00000000000000000
8 0.00000000000000000 1.57079632679489656
2 17.41250000000000142 -17.41250000000000142 0.00000000000000773 -0.00000000000000000 0.00000000000000044 1.00000000000000000 0.00000000000000000 -1.00000000000000000 0.00000000000000044 1.00000000000000000 0.00000000000000000 0.00000000000000000 1.00000000000000000
1 18.41250000000000142 -17.49999999999999289 17.41250000000000497 0.00000000000000000 1.00000000000000000 -0.00000000000000022 
8 1.57079632679489656 3.14159265358979312
2 17.41250000000000142 17.41250000000000142 -0.00000000000000773 -0.00000000000000000 0.00000000000000044 1.00000000000000000 0.00000000000000000 -1.00000000000000000 0.00000000000000044 1.00000000000000000 0.00000000000000000 0.00000000000000000 1.00000000000000000
8 1.57079632679489656 3.14159265358979312
2 17.41250000000000142 17.41250000000000142 -0.00000000000000773 -0.00000000000000000 0.00000000000000044 1.00000000000000000 0.00000000000000000 -1.00000000000000000 0.00000000000000044 1.00000000000000000 0.00000000000000000 0.00000000000000000 1.00000000000000000
1 18.41250000000000142 18.41250000000000142 0.00000000000000000 0.00000000000000000 -1.00000000000000000 0.00000000000000000 
1 18.41250000000000142 18.41250000000000142 0.00000000000000000 0.00000000000000000 -1.00000000000000000 0.00000000000000000 
1 -17.99999999999999645 -17.49999999999998934 20.00000000000000355 0.00000000000000000 1.00000000000000000 -0.00000000000000022 
1 18.00000000000000355 -17.49999999999998934 20.00000000000000355 0.00000000000000000 1.00000000000000000 -0.00000000000000022 
1 -19.99999999999999645 20.00000000000000000 0.00000000000000000 1.00000000000000000 0.00000000000000000 0.00000000000000000 
1 -19.99999999999999645 20.00000000000000000 0.00000000000000000 1.00000000000000000 0.00000000000000000 0.00000000000000000 
1 -19.99999999999999645 -17.49999999999999289 18.00000000000000355 0.00000000000000000 1.00000000000000000 -0.00000000000000022 
8 3.14159265358979312 4.71238898038468967
2 -17.99999999999999645 18.00000000000000000 -0.00000000000000799 -0.00000000000000000 0.00000000000000044 1.00000000000000000 0.00000000000000000 -1.00000000000000000 0.00000000000000044 1.00000000000000000 0.00000000000000000 0.00000000000000000 2.00000000000000000
8 3.14159265358979312 4.71238898038468967
2 -17.99999999999999645 18.00000000000000000 -0.00000000000000799 -0.00000000000000000 0.00000000000000044 1.00000000000000000 0.00000000000000000 -1.00000000000000000 0.00000000000000044 1.00000000000000000 0.00000000000000000 0.00000000000000000 2.00000000000000000
1 20.00000000000000355 -17.49999999999999289 18.00000000000000355 0.00000000000000000 1.00000000000000000 -0.00000000000000022 
8 3.14159265358979312 4.71238898038468967
2 18.00000000000000355 18.00000000000000000 -0.00000000000000799 -0.00000000000000000 -0.00000000000000044 -1.00000000000000000 0.00000000000000000 -1.00000000000000000 0.00000000000000044 -1.00000000000000000 0.00000000000000000 0.00000000000000000 2.00000000000000000
8 3.14159265358979312 4.71238898038468967
2 18.00000000000000355 18.00000000000000000 -0.00000000000000799 -0.00000000000000000 -0.00000000000000044 -1.00000000000000000 0.00000000000000000 -1.00000000000000000 0.00000000000000044 -1.00000000000000000 0.00000000000000000 0.00000000000000000 2.00000000000000000
1 -19.99999999999999645 -17.50000000000000711 -17.99999999999999645 0.00000000000000000 1.00000000000000000 -0.00000000000000022 
1 -19.99999999999999645 -20.00000000000000000 0.00000000000000000 0.00000000000000000 1.00000000000000000 0.00000000000000000 
1 -19.99999999999999645 -20.00000000000000000 0.00000000000000000 0.00000000000000000 1.00000000000000000 0.00000000000000000 
1 20.00000000000000355 -17.50000000000000711 -17.99999999999999645 0.00000000000000000 1.00000000000000000 -0.00000000000000022 
1 20.00000000000000355 20.00000000000000000 0.00000000000000000 0.00000000000000000 -1.00000000000000000 0.00000000000000000 
1 20.00000000000000355 20.00000000000000000 0.00000000000000000 0.00000000000000000 -1.00000000000000000 0.00000000000000000 
1 -17.99999999999999645 -17.50000000000001066 -19.99999999999999645 0.00000000000000000 1.00000000000000000 -0.00000000000000022 
8 0.00000000000000000 1.57079632679489656
2 -17.99999999999999645 -18.00000000000000000 0.00000000000000799 -0.00000000000000000 -0.00000000000000044 -1.00000000000000000 0.00000000000000000 -1.00000000000000000 0.00000000000000044 -1.00000000000000000 0.00000000000000000 0.00000000000000000 2.00000000000000000
8 0.00000000000000000 1.57079632679489656
2 -17.99999999999999645 -18.00000000000000000 0.00000000000000799 -0.00000000000000000 -0.00000000000000044 -1.00000000000000000 0.00000000000000000 -1.00000000000000000 0.00000000000000044 -1.00000000000000000 0.00000000000000000 0.00000000000000000 2.00000000000000000
1 18.00000000000000355 -17.50000000000001066 -19.99999999999999645 0.00000000000000000 1.00000000000000000 -0.00000000000000022 
8 4.71238898038468967 6.28318530717958623
2 18.00000000000000355 -18.00000000000000000 0.00000000000000799 -0.00000000000000000 -0.00000000000000044 -1.00000000000000000 0.00000000000000000 -1.00000000000000000 0.00000000000000044 -1.00000000000000000 0.00000000000000000 0.00000000000000000 2.00000000000000000
8 4.71238898038468967 6.28318530717958623
2 18.00000000000000355 -18.00000000000000000 0.00000000000000799 -0.00000000000000000 -0.00000000000000044 -1.00000000000000000 0.00000000000000000 -1.00000000000000000 0.00000000000000044 -1.00000000000000000 0.00000000000000000 0.00000000000000000 2.00000000000000000
1 20.00000000000000355 -20.00000000000000000 0.00000000000000000 -1.00000000000000000 0.00000000000000000 0.00000000000000000 
1 20.00000000000000355 -20.00000000000000000 0.00000000000000000 -1.00000000000000000 0.00000000000000000 0.00000000000000000 
Polygon3D 0
PolygonOnTriangulations 0
Surfaces 18
1 -18.41250000000000142 -17.50000000000000000 -17.41249999999999787 1.00000000000000000 0.00000000000000000 0.00000000000000000 0.00000000000000000 0.00000000000000000 1.00000000000000000 0.00000000000000000 -1.00000000000000000 0.00000000000000000 
2 -17.41250000000000142 -17.50000000000000711 -17.41249999999999787 0.00000000000000000 -1.00000000000000000 0.00000000000000044 0.00000000000000000 -0.00000000000000044 -1.00000000000000000 1.00000000000000000 0.00000000000000000 0.00000000000000000 1.00000000000000000
2 -17.41250000000000142 -17.49999999999999289 17.41250000000000497 0.00000000000000000 -1.00000000000000000 0.00000000000000044 0.00000000000000000 -0.00000000000000044 -1.00000000000000000 -1.00000000000000000 -0.00000000000000000 -0.00000000000000000 1.00000000000000000
1 17.41250000000000142 -17.50000000000000000 -18.41249999999999787 -0.00000000000000010 0.00000000000000022 1.00000000000000000 -1.00000000000000000 0.00000000000000000 -0.00000000000000010 -0.00000000000000000 -1.00000000000000000 0.00000000000000022 
1 -17.41250000000000142 -17.50000000000000000 18.41250000000000497 0.00000000000000000 -0.00000000000000022 -1.00000000000000000 1.00000000000000000 0.00000000000000000 0.00000000000000000 0.00000000000000000 -1.00000000000000000 0.00000000000000022 
2 17.41250000000000142 -17.50000000000000711 -17.41249999999999787 0.00000000000000000 -1.00000000000000000 0.00000000000000044 0.00000000000000000 -0.00000000000000044 -1.00000000000000000 1.00000000000000000 0.00000000000000000 0.00000000000000000 1.00000000000000000
2 17.41250000000000142 -17.49999999999999289 17.41250000000000497 0.00000000000000000 -1.00000000000000000 0.00000000000000044 0.00000000000000000 -0.00000000000000044 -1.00000000000000000 1.00000000000000000 0.00000000000000000 0.00000000000000000 1.00000000000000000
1 18.41250000000000142 -17.50000000000000000 17.41250000000000497 -1.00000000000000000 0.00000000000000000 0.00000000000000000 0.00000000000000000 0.00000000000000000 -1.00000000000000000 -0.00000000000000000 -1.00000000000000000 -0.00000000000000000 
1 -17.99999999999999645 -17.50000000000000000 20.00000000000000355 0.00000000000000000 -0.00000000000000022 -1.00000000000000000 1.00000000000000000 0.00000000000000000 0.00000000000000000 0.00000000000000000 -1.00000000000000000 0.00000000000000022 
2 -17.99999999999999645 -17.49999999999999289 18.00000000000000355 0.00000000000000000 -1.00000000000000000 0.00000000000000044 0.00000000000000000 -0.00000000000000044 -1.00000000000000000 1.00000000000000000 0.00000000000000000 0.00000000000000000 2.00000000000000000
2 18.00000000000000355 -17.49999999999999289 18.00000000000000355 0.00000000000000000 -1.00000000000000000 0.00000000000000044 0.00000000000000000 -0.00000000000000044 -1.00000000000000000 -1.00000000000000000 -0.00000000000000000 -0.00000000000000000 2.00000000000000000
1 -19.99999999999999645 -17.50000000000000000 -17.99999999999999645 1.00000000000000000 0.00000000000000000 0.00000000000000000 0.00000000000000000 0.00000000000000000 1.00000000000000000 0.00000000000000000 -1.00000000000000000 0.00000000000000000 
1 20.00000000000000355 -17.50000000000000000 18.00000000000000355 -1.00000000000000000 0.00000000000000000 0.00000000000000000 0.00000000000000000 0.00000000000000000 -1.00000000000000000 -0.00000000000000000 -1.00000000000000000 -0.00000000000000000 
2 -17.99999999999999645 -17.50000000000000711 -17.99999999999999645 0.00000000000000000 -1.00000000000000000 0.00000000000000044 0.00000000000000000 -0.00000000000000044 -1.00000000000000000 -1.00000000000000000 -0.00000000000000000 -0.00000000000000000 2.00000000000000000
2 18.00000000000000355 -17.50000000000000711 -17.99999999999999645 0.00000000000000000 -1.00000000000000000 0.00000000000000044 0.00000000000000000 -0.00000000000000044 -1.00000000000000000 -1.00000000000000000 -0.00000000000000000 -0.00000000000000000 2.00000000000000000
1 18.00000000000000355 -17.50000000000000000 -19.99999999999999645 0.00000000000000000 0.00000000000000022 1.00000000000000000 -1.00000000000000000 0.00000000000000000 0.00000000000000000 0.00000000000000000 -1.00000000000000000 0.00000000000000022 
1 0.00000000000000213 0.00000000000000000 0.00000000000000000 0.00000000000000000 1.00000000000000000 -0.00000000000000022 0.00000000000000000 0.00000000000000022 1.00000000000000000 1.00000000000000000 -0.00000000000000000 0.00000000000000000 
1 0.00000000000000213 0.00000000000000000 0.00000000000000000 0.00000000000000000 1.00000000000000000 -0.00000000000000022 0.00000000000000000 0.00000000000000022 1.00000000000000000 1.00000000000000000 -0.00000000000000000 0.00000000000000000 
Triangulations 0

TShapes 120
Ve
0.000000100000000
-18.412500000000001 -17.500000000000007 -17.412499999999998
0 0

0101101
*
Ve
0.000000100000000
-18.412500000000001 17.499999999999993 -17.412500000000005
0 0

0101101
*
Ed
 0.000000100000000 1 1 0
1  1 0 0.000000000000000 35.000000000000000
2  1 2 0 0.000000000000000 35.000000000000000
4 C1 1 0 2 0
0

0101000
+120 3 -119 3 *
Ve
0.000000100000000
-18.412500000000001 -17.499999999999993 17.412500000000005
0 0

0101101
*
Ve
0.000000100000000
-18.412500000000001 17.500000000000007 17.412499999999998
0 0

0101101
*
Ed
 0.000000100000000 1 1 0
1  2 0 0.000000000000000 35.000000000000000
2  2 3 0 0.000000000000000 35.000000000000000
4 C1 1 0 3 0
0

0101000
+117 3 -116 3 *
Ed
 0.000000100000000 1 1 0
1  3 0 1.000000000000004 35.825000000000003
0

0101000
+120 20 -117 20 *
Ed
 0.000000100000000 1 1 0
1  4 0 1.000000000000004 35.825000000000003
0

0101000
+119 23 -116 23 *
Wi

0101100
+118 0 -115 0 -114 19 +113 22 *
Fa
0  0.000000100000000 1 0

0101000
+112 0 *
Ve
0.000000100000000
-17.412500000000001 -17.500000000000007 -18.412499999999998
0 0

0101101
*
Ve
0.000000100000000
-17.412500000000001 17.499999999999993 -18.412500000000005
0 0

0101101
*
Ed
 0.000000100000000 1 1 0
1  5 0 0.000000000000000 35.000000000000000
2  3 2 0 0.000000000000000 35.000000000000000
4 C1 2 0 4 0
0

0101000
+110 3 -109 3 *
Ed
 0.000000100000000 1 1 0
1  6 0 4.712388980384690 6.283185307179586
2  4 2 25 4.712388980384690 6.283185307179586
0

0101000
+120 26 -110 26 *
Ed
 0.000000100000000 1 1 0
1  7 0 4.712388980384690 6.283185307179586
2  5 2 28 4.712388980384690 6.283185307179586
0

0101000
+119 29 -109 29 *
Wi

0101100
+118 0 -108 0 -107 24 +106 27 *
Fa
0  0.000000100000000 2 0

0101000
+105 0 *
Ve
0.000000100000000
-17.412500000000001 -17.499999999999993 18.412500000000005
0 0

0101101
*
Ve
0.000000100000000
-17.412500000000001 17.500000000000007 18.412499999999998
0 0

0101101
*
Ed
 0.000000100000000 1 1 0
1  8 0 0.000000000000000 35.000000000000000
2  6 3 0 0.000000000000000 35.000000000000000
4 C1 3 0 5 0
0

0101000
+103 3 -102 3 *
Ed
 0.000000100000000 1 1 0
1  9 0 1.570796326794897 3.141592653589793
2  7 3 25 1.570796326794897 3.141592653589793
0

0101000
+117 26 -103 26 *
Ed
 0.000000100000000 1 1 0
1  10 0 1.570796326794897 3.141592653589793
2  8 3 28 1.570796326794897 3.141592653589793
0

0101000
+116 29 -102 29 *
Wi

0101100
+115 0 -101 0 -100 24 +99 27 *
Fa
0  0.000000100000000 3 0

0101000
+98 0 *
Ve
0.000000100000000
17.412500000000001 -17.500000000000007 -18.412499999999998
0 0

0101101
*
Ve
0.000000100000000
17.412500000000001 17.499999999999993 -18.412500000000005
0 0

0101101
*
Ed
 0.000000100000000 1 1 0
1  11 0 0.000000000000000 35.000000000000000
2  9 6 0 0.000000000000000 35.000000000000000
4 C1 4 0 6 0
0

0101000
+96 3 -95 3 *
Ed
 0.000000100000000 1 1 0
1  12 0 1.000000000000000 35.825000000000003
0

0101000
+96 20 -110 20 *
Ed
 0.000000100000000 1 1 0
1  13 0 1.000000000000000 35.825000000000003
0

0101000
+95 23 -109 23 *
Wi

0101100
+94 0 -108 0 -93 19 +92 22 *
Fa
0  0.000000100000000 4 0

0101000
+91 0 *
Ve
0.000000100000000
17.412500000000001 -17.499999999999993 18.412500000000005
0 0

0101101
*
Ve
0.000000100000000
17.412500000000001 17.500000000000007 18.412499999999998
0 0

0101101
*
Ed
 0.000000100000000 1 1 0
1  14 0 0.000000000000000 35.000000000000000
2  10 7 0 0.000000000000000 35.000000000000000
4 C1 5 0 7 0
0

0101000
+89 3 -88 3 *
Ed
 0.000000100000000 1 1 0
1  15 0 1.000000000000000 35.825000000000003
0

0101000
+103 20 -89 20 *
Ed
 0.000000100000000 1 1 0
1  16 0 1.000000000000000 35.825000000000003
0

0101000
+102 23 -88 23 *
Wi

0101100
+101 0 -87 0 -86 19 +85 22 *
Fa
0  0.000000100000000 5 0

0101000
+84 0 *
Ve
0.000000100000000
18.412500000000001 -17.500000000000007 -17.412499999999998
0 0

0101101
*
Ve
0.000000100000000
18.412500000000001 17.499999999999993 -17.412500000000005
0 0

0101101
*
Ed
 0.000000100000000 1 1 0
1  17 0 0.000000000000000 35.000000000000000
2  11 6 0 0.000000000000000 35.000000000000000
4 C1 6 0 8 0
0

0101000
+82 3 -81 3 *
Ed
 0.000000100000000 1 1 0
1  18 0 0.000000000000000 1.570796326794897
2  12 6 25 0.000000000000000 1.570796326794897
0

0101000
+96 26 -82 26 *
Ed
 0.000000100000000 1 1 0
1  19 0 0.000000000000000 1.570796326794897
2  13 6 28 0.000000000000000 1.570796326794897
0

0101000
+95 29 -81 29 *
Wi

0101100
+94 0 -80 0 -79 24 +78 27 *
Fa
0  0.000000100000000 6 0

0101000
+77 0 *
Ve
0.000000100000000
18.412500000000001 -17.499999999999993 17.412500000000005
0 0

0101101
*
Ve
0.000000100000000
18.412500000000001 17.500000000000007 17.412499999999998
0 0

0101101
*
Ed
 0.000000100000000 1 1 0
1  20 0 0.000000000000000 35.000000000000000
2  14 7 0 0.000000000000000 35.000000000000000
4 C1 7 0 8 0
0

0101000
+75 3 -74 3 *
Ed
 0.000000100000000 1 1 0
1  21 0 1.570796326794897 3.141592653589793
2  15 7 25 1.570796326794897 3.141592653589793
0

0101000
+75 26 -89 26 *
Ed
 0.000000100000000 1 1 0
1  22 0 1.570796326794897 3.141592653589793
2  16 7 28 1.570796326794897 3.141592653589793
0

0101000
+74 29 -88 29 *
Wi

0101100
+73 0 -87 0 -72 24 +71 27 *
Fa
0  0.000000100000000 7 0

0101000
+70 0 *
Ed
 0.000000100000000 1 1 0
1  23 0 1.000000000000000 35.825000000000003
0

0101000
+75 20 -82 20 *
Ed
 0.000000100000000 1 1 0
1  24 0 1.000000000000000 35.825000000000003
0

0101000
+74 23 -81 23 *
Wi

0101100
+73 0 -80 0 -68 19 +67 22 *
Fa
0  0.000000100000000 8 0

0101000
+66 0 *
Ve
0.000000100000000
-17.999999999999996 -17.499999999999989 20.000000000000004
0 0

0101101
*
Ve
0.000000100000000
-17.999999999999996 17.500000000000011 19.999999999999996
0 0

0101101
*
Ed
 0.000000100000000 1 1 0
1  25 0 0.000000000000000 35.000000000000000
2  17 10 0 0.000000000000000 35.000000000000000
4 G1 9 0 10 0
0

0101000
+64 3 -63 3 *
Ve
0.000000100000000
18.000000000000004 -17.499999999999989 20.000000000000004
0 0

0101101
*
Ve
0.000000100000000
18.000000000000004 17.500000000000011 19.999999999999996
0 0

0101101
*
Ed
 0.000000100000000 1 1 0
1  26 0 0.000000000000000 35.000000000000000
2  18 11 0 0.000000000000000 35.000000000000000
4 G1 9 0 11 0
0

0101000
+61 3 -60 3 *
Ed
 0.000000100000000 1 1 0
1  27 0 2.000000000000000 38.000000000000000
0

0101000
+64 20 -61 20 *
Ed
 0.000000100000000 1 1 0
1  28 0 2.000000000000000 38.000000000000000
0

0101000
+63 23 -60 23 *
Wi

0101100
+62 0 -59 0 -58 19 +57 22 *
Fa
0  0.000000100000000 9 0

0101000
+56 0 *
Ve
0.000000100000000
-19.999999999999996 -17.499999999999993 18.000000000000004
0 0

0101101
*
Ve
0.000000100000000
-19.999999999999996 17.500000000000007 17.999999999999996
0 0

0101101
*
Ed
 0.000000100000000 1 1 0
1  29 0 0.000000000000000 35.000000000000000
2  19 10 0 0.000000000000000 35.000000000000000
4 G1 10 0 12 0
0

0101000
+54 3 -53 3 *
Ed
 0.000000100000000 1 1 0
1  30 0 3.141592653589793 4.712388980384690
2  20 10 31 3.141592653589793 4.712388980384690
0

0101000
+64 32 -54 32 *
Ed
 0.000000100000000 1 1 0
1  31 0 3.141592653589793 4.712388980384690
2  21 10 34 3.141592653589793 4.712388980384690
0

0101000
+63 35 -53 35 *
Wi

0101100
+62 0 -52 0 -51 30 +50 33 *
Fa
0  0.000000100000000 10 0

0101000
+49 0 *
Ve
0.000000100000000
20.000000000000004 -17.499999999999993 18.000000000000004
0 0

0101101
*
Ve
0.000000100000000
20.000000000000004 17.500000000000007 17.999999999999996
0 0

0101101
*
Ed
 0.000000100000000 1 1 0
1  32 0 0.000000000000000 35.000000000000000
2  22 11 0 0.000000000000000 35.000000000000000
4 G1 11 0 13 0
0

0101000
+47 3 -46 3 *
Ed
 0.000000100000000 1 1 0
1  33 0 3.141592653589793 4.712388980384690
2  23 11 31 3.141592653589793 4.712388980384690
0

0101000
+61 32 -47 32 *
Ed
 0.000000100000000 1 1 0
1  34 0 3.141592653589793 4.712388980384690
2  24 11 34 3.141592653589793 4.712388980384690
0

0101000
+60 35 -46 35 *
Wi

0101100
+59 0 -45 0 -44 30 +43 33 *
Fa
0  0.000000100000000 11 0

0101000
+42 0 *
Ve
0.000000100000000
-19.999999999999996 -17.500000000000007 -17.999999999999996
0 0

0101101
*
Ve
0.000000100000000
-19.999999999999996 17.499999999999993 -18.000000000000004
0 0

0101101
*
Ed
 0.000000100000000 1 1 0
1  35 0 0.000000000000000 35.000000000000000
2  25 14 0 0.000000000000000 35.000000000000000
4 G1 12 0 14 0
0

0101000
+40 3 -39 3 *
Ed
 0.000000100000000 1 1 0
1  36 0 2.000000000000000 38.000000000000000
0

0101000
+40 20 -54 20 *
Ed
 0.000000100000000 1 1 0
1  37 0 2.000000000000000 38.000000000000000
0

0101000
+39 23 -53 23 *
Wi

0101100
+38 0 -52 0 -37 19 +36 22 *
Fa
0  0.000000100000000 12 0

0101000
+35 0 *
Ve
0.000000100000000
20.000000000000004 -17.500000000000007 -17.999999999999996
0 0

0101101
*
Ve
0.000000100000000
20.000000000000004 17.499999999999993 -18.000000000000004
0 0

0101101
*
Ed
 0.000000100000000 1 1 0
1  38 0 0.000000000000000 35.000000000000000
2  26 15 0 0.000000000000000 35.000000000000000
4 G1 13 0 15 0
0

0101000
+33 3 -32 3 *
Ed
 0.000000100000000 1 1 0
1  39 0 2.000000000000000 38.000000000000000
0

0101000
+47 20 -33 20 *
Ed
 0.000000100000000 1 1 0
1  40 0 2.000000000000000 38.000000000000000
0

0101000
+46 23 -32 23 *
Wi

0101100
+45 0 -31 0 -30 19 +29 22 *
Fa
0  0.000000100000000 13 0

0101000
+28 0 *
Ve
0.000000100000000
-17.999999999999996 -17.500000000000011 -19.999999999999996
0 0

0101101
*
Ve
0.000000100000000
-17.999999999999996 17.499999999999989 -20.000000000000004
0 0

0101101
*
Ed
 0.000000100000000 1 1 0
1  41 0 0.000000000000000 35.000000000000000
2  27 14 0 0.000000000000000 35.000000000000000
4 G1 14 0 16 0
0

0101000
+26 3 -25 3 *
Ed
 0.000000100000000 1 1 0
1  42 0 0.000000000000000 1.570796326794897
2  28 14 31 0.000000000000000 1.570796326794897
0

0101000
+26 32 -40 32 *
Ed
 0.000000100000000 1 1 0
1  43 0 0.000000000000000 1.570796326794897
2  29 14 34 0.000000000000000 1.570796326794897
0

0101000
+25 35 -39 35 *
Wi

0101100
+24 0 -38 0 -23 30 +22 33 *
Fa
0  0.000000100000000 14 0

0101000
+21 0 *
Ve
0.000000100000000
18.000000000000004 -17.500000000000011 -19.999999999999996
0 0

0101101
*
Ve
0.000000100000000
18.000000000000004 17.499999999999989 -20.000000000000004
0 0

0101101
*
Ed
 0.000000100000000 1 1 0
1  44 0 0.000000000000000 35.000000000000000
2  30 15 0 0.000000000000000 35.000000000000000
4 G1 15 0 16 0
0

0101000
+19 3 -18 3 *
Ed
 0.000000100000000 1 1 0
1  45 0 4.712388980384690 6.283185307179586
2  31 15 31 4.712388980384690 6.283185307179586
0

0101000
+33 32 -19 32 *
Ed
 0.000000100000000 1 1 0
1  46 0 4.712388980384690 6.283185307179586
2  32 15 34 4.712388980384690 6.283185307179586
0

0101000
+32 35 -18 35 *
Wi

0101100
+31 0 -17 0 -16 30 +15 33 *
Fa
0  0.000000100000000 15 0

0101000
+14 0 *
Ed
 0.000000100000000 1 1 0
1  47 0 2.000000000000000 38.000000000000000
0

0101000
+19 20 -26 20 *
Ed
 0.000000100000000 1 1 0
1  48 0 2.000000000000000 38.000000000000000
0

0101000
+18 23 -25 23 *
Wi

0101100
+17 0 -24 0 -12 19 +11 22 *
Fa
0  0.000000100000000 16 0

0101000
+10 0 *
Wi

0101100
-114 38 +107 0 -100 0 -93 38 -86 38 +79 0 +72 0 -68 38 *
Wi

0101100
+58 40 -51 0 +44 0 +37 40 +30 40 +23 0 +16 0 +12 40 *
Fa
0  0.000000100000000 17 0

0101000
+8 37 +7 39 *
Wi

0101100
-113 38 +106 0 -99 0 -92 38 -85 38 +78 0 +71 0 -67 38 *
Wi

0101100
+57 40 -50 0 +43 0 +36 40 +29 40 +22 0 +15 0 +11 40 *
Fa
0  0.000000100000000 18 0

0101000
+5 37 +4 39 *
Sh

0101100
-111 0 +104 0 -97 0 -90 0 -83 0 +76 0 +69 0 -65 0 +55 0 -48 0 
+41 0 +34 0 +27 0 +20 0 +13 0 +9 0 +6 36 -3 41 *
So

1100000
-2 0 *

+1 1 